M48
; DRILL file {KiCad 8.0.0} date 2024-03-02T11:44:26-0500
; FORMAT={-:-/ absolute / inch / decimal}
; #@! TF.CreationDate,2024-03-02T11:44:26-05:00
; #@! TF.GenerationSoftware,Kicad,Pcbnew,8.0.0
; #@! TF.FileFunction,Plated,1,2,PTH
FMAT,2
INCH
; #@! TA.AperFunction,Plated,PTH,ViaDrill
T1C0.0157
; #@! TA.AperFunction,Plated,PTH,ComponentDrill
T2C0.0300
; #@! TA.AperFunction,Plated,PTH,ComponentDrill
T3C0.0394
; #@! TA.AperFunction,Plated,PTH,ComponentDrill
T4C0.0472
%
G90
G05
T1
X3.9764Y-2.9134
X3.9764Y-3.1378
X3.9764Y-3.2874
X3.9764Y-3.5039
X3.9764Y-3.7205
X3.9764Y-3.9764
X4.252Y-3.9764
X4.2913Y-2.9134
X4.3504Y-3.3071
X4.3504Y-3.3465
X4.3504Y-3.3858
X4.3504Y-3.4252
X4.3504Y-3.4646
X4.3504Y-3.5236
X4.3504Y-3.563
X4.3504Y-3.6024
X4.3504Y-3.6417
X4.3504Y-3.6811
X4.3898Y-3.3071
X4.3898Y-3.4252
X4.3898Y-3.4646
X4.3898Y-3.5236
X4.3898Y-3.563
X4.3898Y-3.6811
X4.4016Y-3.0354
X4.4016Y-3.1299
X4.4291Y-3.3071
X4.4291Y-3.4252
X4.4291Y-3.4646
X4.4291Y-3.5236
X4.4291Y-3.563
X4.4291Y-3.6811
X4.4409Y-2.9685
X4.4685Y-3.3071
X4.4685Y-3.4252
X4.4685Y-3.4646
X4.4685Y-3.5236
X4.4685Y-3.563
X4.4685Y-3.6811
X4.4961Y-3.7441
X4.5079Y-3.3071
X4.5079Y-3.4252
X4.5079Y-3.4646
X4.5079Y-3.5236
X4.5079Y-3.563
X4.5079Y-3.6811
X4.5276Y-2.9134
X4.5276Y-3.9764
X4.5472Y-3.3071
X4.5472Y-3.3465
X4.5472Y-3.3858
X4.5472Y-3.4252
X4.5472Y-3.4646
X4.5472Y-3.5236
X4.5472Y-3.563
X4.5472Y-3.6024
X4.5472Y-3.6417
X4.5472Y-3.6811
X4.563Y-3.8031
X4.563Y-3.8976
X4.5669Y-3.2087
X4.626Y-3.5866
X4.6457Y-3.8976
X4.6535Y-3.0591
X4.7087Y-3.185
X4.7126Y-3.4213
X4.7205Y-3.5
X4.7283Y-3.3701
X4.7323Y-3.0472
X4.7441Y-2.9134
X4.7638Y-3.9764
X4.7717Y-3.5709
X4.7756Y-3.3071
X4.8031Y-3.7992
X4.8031Y-3.8583
X4.811Y-3.5709
X4.811Y-3.6142
X4.811Y-3.6575
X4.811Y-3.6969
X4.8386Y-3.0472
X4.8425Y-3.185
X4.8425Y-3.7992
X4.8425Y-3.8583
X4.8543Y-3.6575
X4.8543Y-3.6969
X4.8819Y-3.7992
X4.8819Y-3.8583
X4.8976Y-3.6575
X4.8976Y-3.6969
X4.9449Y-3.8583
X4.9528Y-3.5866
X4.9528Y-3.6339
X4.9606Y-3.0512
X4.9606Y-3.2283
X4.9803Y-2.9134
X4.9961Y-3.8583
X5.0Y-3.5866
X5.0Y-3.6339
X5.0Y-3.9764
X5.0246Y-3.1939
X5.0374Y-3.5866
X5.0787Y-3.1496
X5.1417Y-3.6693
X5.1614Y-3.0098
X5.1772Y-3.7495
X5.2756Y-2.9134
X5.315Y-3.9764
X5.437Y-3.4409
X5.4409Y-3.2244
X5.4409Y-3.6535
X5.5118Y-2.9134
X5.5512Y-3.9764
X5.6152Y-3.2244
X5.6152Y-3.6535
X5.748Y-2.9134
X5.7874Y-3.6535
X5.7874Y-3.9764
X5.7894Y-3.2244
X5.9626Y-3.6535
X5.9636Y-3.2244
X5.9843Y-3.9764
X5.9961Y-2.9213
X5.9961Y-2.9764
X6.0512Y-2.9213
X6.1378Y-3.2244
X6.1378Y-3.4449
X6.1378Y-3.6535
X6.1811Y-2.9134
X6.2008Y-3.9764
T2
X5.3382Y-3.1402
X5.3382Y-3.7402
X5.3386Y-3.2402
X5.3386Y-3.3402
X5.3386Y-3.4402
X5.3386Y-3.5402
X5.3386Y-3.6402
X5.4382Y-3.1402
X5.4382Y-3.7402
X5.5382Y-3.1402
X5.5382Y-3.7402
X5.6382Y-3.1402
X5.6382Y-3.7402
X5.7382Y-3.1402
X5.7382Y-3.7402
X5.8382Y-3.1402
X5.8382Y-3.7402
X5.9382Y-3.1402
X5.9382Y-3.7402
X6.0382Y-3.1402
X6.0382Y-3.7402
X6.1382Y-3.1402
X6.1382Y-3.7402
T3
X5.1181Y-3.2835
X5.1181Y-3.3819
X5.1181Y-3.4843
X5.1181Y-3.5827
T4
X4.1479Y-3.2024
X4.1479Y-3.6265
X4.1479Y-3.7765
T4
G00X4.1479Y-3.0533
M15
G01X4.1479Y-3.0632
M16
G05
G00X4.1479Y-3.3415
M15
G01X4.1479Y-3.3514
M16
G05
M30
