%TF.GenerationSoftware,KiCad,Pcbnew,8.0.0*%
%TF.CreationDate,2024-03-02T11:44:26-05:00*%
%TF.ProjectId,RP2040_Count,52503230-3430-45f4-936f-756e742e6b69,v2*%
%TF.SameCoordinates,Original*%
%TF.FileFunction,Legend,Top*%
%TF.FilePolarity,Positive*%
%FSLAX46Y46*%
G04 Gerber Fmt 4.6, Leading zero omitted, Abs format (unit mm)*
G04 Created by KiCad (PCBNEW 8.0.0) date 2024-03-02 11:44:26*
%MOMM*%
%LPD*%
G01*
G04 APERTURE LIST*
G04 Aperture macros list*
%AMRoundRect*
0 Rectangle with rounded corners*
0 $1 Rounding radius*
0 $2 $3 $4 $5 $6 $7 $8 $9 X,Y pos of 4 corners*
0 Add a 4 corners polygon primitive as box body*
4,1,4,$2,$3,$4,$5,$6,$7,$8,$9,$2,$3,0*
0 Add four circle primitives for the rounded corners*
1,1,$1+$1,$2,$3*
1,1,$1+$1,$4,$5*
1,1,$1+$1,$6,$7*
1,1,$1+$1,$8,$9*
0 Add four rect primitives between the rounded corners*
20,1,$1+$1,$2,$3,$4,$5,0*
20,1,$1+$1,$4,$5,$6,$7,0*
20,1,$1+$1,$6,$7,$8,$9,0*
20,1,$1+$1,$8,$9,$2,$3,0*%
G04 Aperture macros list end*
%ADD10C,0.300000*%
%ADD11C,0.150000*%
%ADD12C,0.120000*%
%ADD13C,0.000000*%
%ADD14C,1.524000*%
%ADD15R,1.700000X3.500000*%
%ADD16R,3.500000X1.700000*%
%ADD17RoundRect,0.249999X1.425001X-0.450001X1.425001X0.450001X-1.425001X0.450001X-1.425001X-0.450001X0*%
%ADD18RoundRect,0.250000X-1.550000X0.650000X-1.550000X-0.650000X1.550000X-0.650000X1.550000X0.650000X0*%
%ADD19O,3.600000X1.800000*%
%ADD20RoundRect,0.237500X-0.250000X-0.237500X0.250000X-0.237500X0.250000X0.237500X-0.250000X0.237500X0*%
%ADD21RoundRect,0.237500X-0.300000X-0.237500X0.300000X-0.237500X0.300000X0.237500X-0.300000X0.237500X0*%
%ADD22RoundRect,0.237500X0.237500X-0.300000X0.237500X0.300000X-0.237500X0.300000X-0.237500X-0.300000X0*%
%ADD23R,0.510000X0.700000*%
%ADD24RoundRect,0.150000X0.825000X0.150000X-0.825000X0.150000X-0.825000X-0.150000X0.825000X-0.150000X0*%
%ADD25RoundRect,0.250000X0.475000X-0.337500X0.475000X0.337500X-0.475000X0.337500X-0.475000X-0.337500X0*%
%ADD26R,2.000000X1.500000*%
%ADD27R,2.000000X3.800000*%
%ADD28RoundRect,0.291667X-1.508333X0.758333X-1.508333X-0.758333X1.508333X-0.758333X1.508333X0.758333X0*%
%ADD29O,3.600000X2.100000*%
%ADD30R,2.500000X1.700000*%
%ADD31O,2.500000X1.700000*%
G04 APERTURE END LIST*
D10*
X100199171Y-84540225D02*
X100199171Y-83683082D01*
X100199171Y-84111653D02*
X101699171Y-84111653D01*
X101699171Y-84111653D02*
X101484885Y-83968796D01*
X101484885Y-83968796D02*
X101342028Y-83825939D01*
X101342028Y-83825939D02*
X101270600Y-83683082D01*
X101556314Y-85111653D02*
X101627742Y-85183081D01*
X101627742Y-85183081D02*
X101699171Y-85325939D01*
X101699171Y-85325939D02*
X101699171Y-85683081D01*
X101699171Y-85683081D02*
X101627742Y-85825939D01*
X101627742Y-85825939D02*
X101556314Y-85897367D01*
X101556314Y-85897367D02*
X101413457Y-85968796D01*
X101413457Y-85968796D02*
X101270600Y-85968796D01*
X101270600Y-85968796D02*
X101056314Y-85897367D01*
X101056314Y-85897367D02*
X100199171Y-85040224D01*
X100199171Y-85040224D02*
X100199171Y-85968796D01*
X101699171Y-86397367D02*
X100199171Y-86897367D01*
X100199171Y-86897367D02*
X101699171Y-87397367D01*
X101627742Y-76040225D02*
X101699171Y-75897368D01*
X101699171Y-75897368D02*
X101699171Y-75683082D01*
X101699171Y-75683082D02*
X101627742Y-75468796D01*
X101627742Y-75468796D02*
X101484885Y-75325939D01*
X101484885Y-75325939D02*
X101342028Y-75254510D01*
X101342028Y-75254510D02*
X101056314Y-75183082D01*
X101056314Y-75183082D02*
X100842028Y-75183082D01*
X100842028Y-75183082D02*
X100556314Y-75254510D01*
X100556314Y-75254510D02*
X100413457Y-75325939D01*
X100413457Y-75325939D02*
X100270600Y-75468796D01*
X100270600Y-75468796D02*
X100199171Y-75683082D01*
X100199171Y-75683082D02*
X100199171Y-75825939D01*
X100199171Y-75825939D02*
X100270600Y-76040225D01*
X100270600Y-76040225D02*
X100342028Y-76111653D01*
X100342028Y-76111653D02*
X100842028Y-76111653D01*
X100842028Y-76111653D02*
X100842028Y-75825939D01*
X100199171Y-76754510D02*
X101699171Y-76754510D01*
X101699171Y-76754510D02*
X100199171Y-77611653D01*
X100199171Y-77611653D02*
X101699171Y-77611653D01*
X100199171Y-78325939D02*
X101699171Y-78325939D01*
X101699171Y-78325939D02*
X101699171Y-78683082D01*
X101699171Y-78683082D02*
X101627742Y-78897368D01*
X101627742Y-78897368D02*
X101484885Y-79040225D01*
X101484885Y-79040225D02*
X101342028Y-79111654D01*
X101342028Y-79111654D02*
X101056314Y-79183082D01*
X101056314Y-79183082D02*
X100842028Y-79183082D01*
X100842028Y-79183082D02*
X100556314Y-79111654D01*
X100556314Y-79111654D02*
X100413457Y-79040225D01*
X100413457Y-79040225D02*
X100270600Y-78897368D01*
X100270600Y-78897368D02*
X100199171Y-78683082D01*
X100199171Y-78683082D02*
X100199171Y-78325939D01*
X101627742Y-95940225D02*
X101699171Y-95797368D01*
X101699171Y-95797368D02*
X101699171Y-95583082D01*
X101699171Y-95583082D02*
X101627742Y-95368796D01*
X101627742Y-95368796D02*
X101484885Y-95225939D01*
X101484885Y-95225939D02*
X101342028Y-95154510D01*
X101342028Y-95154510D02*
X101056314Y-95083082D01*
X101056314Y-95083082D02*
X100842028Y-95083082D01*
X100842028Y-95083082D02*
X100556314Y-95154510D01*
X100556314Y-95154510D02*
X100413457Y-95225939D01*
X100413457Y-95225939D02*
X100270600Y-95368796D01*
X100270600Y-95368796D02*
X100199171Y-95583082D01*
X100199171Y-95583082D02*
X100199171Y-95725939D01*
X100199171Y-95725939D02*
X100270600Y-95940225D01*
X100270600Y-95940225D02*
X100342028Y-96011653D01*
X100342028Y-96011653D02*
X100842028Y-96011653D01*
X100842028Y-96011653D02*
X100842028Y-95725939D01*
X100199171Y-96654510D02*
X101699171Y-96654510D01*
X101699171Y-96654510D02*
X100199171Y-97511653D01*
X100199171Y-97511653D02*
X101699171Y-97511653D01*
X100199171Y-98225939D02*
X101699171Y-98225939D01*
X101699171Y-98225939D02*
X101699171Y-98583082D01*
X101699171Y-98583082D02*
X101627742Y-98797368D01*
X101627742Y-98797368D02*
X101484885Y-98940225D01*
X101484885Y-98940225D02*
X101342028Y-99011654D01*
X101342028Y-99011654D02*
X101056314Y-99083082D01*
X101056314Y-99083082D02*
X100842028Y-99083082D01*
X100842028Y-99083082D02*
X100556314Y-99011654D01*
X100556314Y-99011654D02*
X100413457Y-98940225D01*
X100413457Y-98940225D02*
X100270600Y-98797368D01*
X100270600Y-98797368D02*
X100199171Y-98583082D01*
X100199171Y-98583082D02*
X100199171Y-98225939D01*
X100199171Y-91040225D02*
X100199171Y-90183082D01*
X100199171Y-90611653D02*
X101699171Y-90611653D01*
X101699171Y-90611653D02*
X101484885Y-90468796D01*
X101484885Y-90468796D02*
X101342028Y-90325939D01*
X101342028Y-90325939D02*
X101270600Y-90183082D01*
X101556314Y-91611653D02*
X101627742Y-91683081D01*
X101627742Y-91683081D02*
X101699171Y-91825939D01*
X101699171Y-91825939D02*
X101699171Y-92183081D01*
X101699171Y-92183081D02*
X101627742Y-92325939D01*
X101627742Y-92325939D02*
X101556314Y-92397367D01*
X101556314Y-92397367D02*
X101413457Y-92468796D01*
X101413457Y-92468796D02*
X101270600Y-92468796D01*
X101270600Y-92468796D02*
X101056314Y-92397367D01*
X101056314Y-92397367D02*
X100199171Y-91540224D01*
X100199171Y-91540224D02*
X100199171Y-92468796D01*
X101699171Y-92897367D02*
X100199171Y-93397367D01*
X100199171Y-93397367D02*
X101699171Y-93897367D01*
X100199171Y-80354510D02*
X101699171Y-80354510D01*
X101699171Y-80354510D02*
X101699171Y-80711653D01*
X101699171Y-80711653D02*
X101627742Y-80925939D01*
X101627742Y-80925939D02*
X101484885Y-81068796D01*
X101484885Y-81068796D02*
X101342028Y-81140225D01*
X101342028Y-81140225D02*
X101056314Y-81211653D01*
X101056314Y-81211653D02*
X100842028Y-81211653D01*
X100842028Y-81211653D02*
X100556314Y-81140225D01*
X100556314Y-81140225D02*
X100413457Y-81068796D01*
X100413457Y-81068796D02*
X100270600Y-80925939D01*
X100270600Y-80925939D02*
X100199171Y-80711653D01*
X100199171Y-80711653D02*
X100199171Y-80354510D01*
X101699171Y-82140225D02*
X101699171Y-82283082D01*
X101699171Y-82283082D02*
X101627742Y-82425939D01*
X101627742Y-82425939D02*
X101556314Y-82497368D01*
X101556314Y-82497368D02*
X101413457Y-82568796D01*
X101413457Y-82568796D02*
X101127742Y-82640225D01*
X101127742Y-82640225D02*
X100770600Y-82640225D01*
X100770600Y-82640225D02*
X100484885Y-82568796D01*
X100484885Y-82568796D02*
X100342028Y-82497368D01*
X100342028Y-82497368D02*
X100270600Y-82425939D01*
X100270600Y-82425939D02*
X100199171Y-82283082D01*
X100199171Y-82283082D02*
X100199171Y-82140225D01*
X100199171Y-82140225D02*
X100270600Y-81997368D01*
X100270600Y-81997368D02*
X100342028Y-81925939D01*
X100342028Y-81925939D02*
X100484885Y-81854510D01*
X100484885Y-81854510D02*
X100770600Y-81783082D01*
X100770600Y-81783082D02*
X101127742Y-81783082D01*
X101127742Y-81783082D02*
X101413457Y-81854510D01*
X101413457Y-81854510D02*
X101556314Y-81925939D01*
X101556314Y-81925939D02*
X101627742Y-81997368D01*
X101627742Y-81997368D02*
X101699171Y-82140225D01*
D11*
X112833333Y-94854819D02*
X112500000Y-94378628D01*
X112261905Y-94854819D02*
X112261905Y-93854819D01*
X112261905Y-93854819D02*
X112642857Y-93854819D01*
X112642857Y-93854819D02*
X112738095Y-93902438D01*
X112738095Y-93902438D02*
X112785714Y-93950057D01*
X112785714Y-93950057D02*
X112833333Y-94045295D01*
X112833333Y-94045295D02*
X112833333Y-94188152D01*
X112833333Y-94188152D02*
X112785714Y-94283390D01*
X112785714Y-94283390D02*
X112738095Y-94331009D01*
X112738095Y-94331009D02*
X112642857Y-94378628D01*
X112642857Y-94378628D02*
X112261905Y-94378628D01*
X113214286Y-93950057D02*
X113261905Y-93902438D01*
X113261905Y-93902438D02*
X113357143Y-93854819D01*
X113357143Y-93854819D02*
X113595238Y-93854819D01*
X113595238Y-93854819D02*
X113690476Y-93902438D01*
X113690476Y-93902438D02*
X113738095Y-93950057D01*
X113738095Y-93950057D02*
X113785714Y-94045295D01*
X113785714Y-94045295D02*
X113785714Y-94140533D01*
X113785714Y-94140533D02*
X113738095Y-94283390D01*
X113738095Y-94283390D02*
X113166667Y-94854819D01*
X113166667Y-94854819D02*
X113785714Y-94854819D01*
X116165180Y-84559524D02*
X116165180Y-84654762D01*
X116165180Y-84654762D02*
X116117561Y-84750000D01*
X116117561Y-84750000D02*
X116069942Y-84797619D01*
X116069942Y-84797619D02*
X115974704Y-84845238D01*
X115974704Y-84845238D02*
X115784228Y-84892857D01*
X115784228Y-84892857D02*
X115546133Y-84892857D01*
X115546133Y-84892857D02*
X115355657Y-84845238D01*
X115355657Y-84845238D02*
X115260419Y-84797619D01*
X115260419Y-84797619D02*
X115212800Y-84750000D01*
X115212800Y-84750000D02*
X115165180Y-84654762D01*
X115165180Y-84654762D02*
X115165180Y-84559524D01*
X115165180Y-84559524D02*
X115212800Y-84464286D01*
X115212800Y-84464286D02*
X115260419Y-84416667D01*
X115260419Y-84416667D02*
X115355657Y-84369048D01*
X115355657Y-84369048D02*
X115546133Y-84321429D01*
X115546133Y-84321429D02*
X115784228Y-84321429D01*
X115784228Y-84321429D02*
X115974704Y-84369048D01*
X115974704Y-84369048D02*
X116069942Y-84416667D01*
X116069942Y-84416667D02*
X116117561Y-84464286D01*
X116117561Y-84464286D02*
X116165180Y-84559524D01*
X115260419Y-85321429D02*
X115212800Y-85369048D01*
X115212800Y-85369048D02*
X115165180Y-85321429D01*
X115165180Y-85321429D02*
X115212800Y-85273810D01*
X115212800Y-85273810D02*
X115260419Y-85321429D01*
X115260419Y-85321429D02*
X115165180Y-85321429D01*
X115165180Y-86321428D02*
X115165180Y-85750000D01*
X115165180Y-86035714D02*
X116165180Y-86035714D01*
X116165180Y-86035714D02*
X116022323Y-85940476D01*
X116022323Y-85940476D02*
X115927085Y-85845238D01*
X115927085Y-85845238D02*
X115879466Y-85750000D01*
X116165180Y-87702381D02*
X116165180Y-87892857D01*
X116165180Y-87892857D02*
X116117561Y-87988095D01*
X116117561Y-87988095D02*
X116022323Y-88083333D01*
X116022323Y-88083333D02*
X115831847Y-88130952D01*
X115831847Y-88130952D02*
X115498514Y-88130952D01*
X115498514Y-88130952D02*
X115308038Y-88083333D01*
X115308038Y-88083333D02*
X115212800Y-87988095D01*
X115212800Y-87988095D02*
X115165180Y-87892857D01*
X115165180Y-87892857D02*
X115165180Y-87702381D01*
X115165180Y-87702381D02*
X115212800Y-87607143D01*
X115212800Y-87607143D02*
X115308038Y-87511905D01*
X115308038Y-87511905D02*
X115498514Y-87464286D01*
X115498514Y-87464286D02*
X115831847Y-87464286D01*
X115831847Y-87464286D02*
X116022323Y-87511905D01*
X116022323Y-87511905D02*
X116117561Y-87607143D01*
X116117561Y-87607143D02*
X116165180Y-87702381D01*
X115165180Y-88559524D02*
X116165180Y-88559524D01*
X115688990Y-88559524D02*
X115688990Y-89130952D01*
X115165180Y-89130952D02*
X116165180Y-89130952D01*
X115165180Y-89607143D02*
X116165180Y-89607143D01*
X116165180Y-89607143D02*
X115450895Y-89940476D01*
X115450895Y-89940476D02*
X116165180Y-90273809D01*
X116165180Y-90273809D02*
X115165180Y-90273809D01*
X116069942Y-91464286D02*
X116117561Y-91511905D01*
X116117561Y-91511905D02*
X116165180Y-91607143D01*
X116165180Y-91607143D02*
X116165180Y-91845238D01*
X116165180Y-91845238D02*
X116117561Y-91940476D01*
X116117561Y-91940476D02*
X116069942Y-91988095D01*
X116069942Y-91988095D02*
X115974704Y-92035714D01*
X115974704Y-92035714D02*
X115879466Y-92035714D01*
X115879466Y-92035714D02*
X115736609Y-91988095D01*
X115736609Y-91988095D02*
X115165180Y-91416667D01*
X115165180Y-91416667D02*
X115165180Y-92035714D01*
X116165180Y-92369048D02*
X115165180Y-92607143D01*
X115165180Y-92607143D02*
X115879466Y-92797619D01*
X115879466Y-92797619D02*
X115165180Y-92988095D01*
X115165180Y-92988095D02*
X116165180Y-93226191D01*
X111245180Y-95538095D02*
X111245180Y-96109523D01*
X110245180Y-95823809D02*
X111245180Y-95823809D01*
X110768990Y-96776190D02*
X110721371Y-96919047D01*
X110721371Y-96919047D02*
X110673752Y-96966666D01*
X110673752Y-96966666D02*
X110578514Y-97014285D01*
X110578514Y-97014285D02*
X110435657Y-97014285D01*
X110435657Y-97014285D02*
X110340419Y-96966666D01*
X110340419Y-96966666D02*
X110292800Y-96919047D01*
X110292800Y-96919047D02*
X110245180Y-96823809D01*
X110245180Y-96823809D02*
X110245180Y-96442857D01*
X110245180Y-96442857D02*
X111245180Y-96442857D01*
X111245180Y-96442857D02*
X111245180Y-96776190D01*
X111245180Y-96776190D02*
X111197561Y-96871428D01*
X111197561Y-96871428D02*
X111149942Y-96919047D01*
X111149942Y-96919047D02*
X111054704Y-96966666D01*
X111054704Y-96966666D02*
X110959466Y-96966666D01*
X110959466Y-96966666D02*
X110864228Y-96919047D01*
X110864228Y-96919047D02*
X110816609Y-96871428D01*
X110816609Y-96871428D02*
X110768990Y-96776190D01*
X110768990Y-96776190D02*
X110768990Y-96442857D01*
X110245180Y-97966666D02*
X110245180Y-97395238D01*
X110245180Y-97680952D02*
X111245180Y-97680952D01*
X111245180Y-97680952D02*
X111102323Y-97585714D01*
X111102323Y-97585714D02*
X111007085Y-97490476D01*
X111007085Y-97490476D02*
X110959466Y-97395238D01*
X102952381Y-100154819D02*
X102952381Y-99154819D01*
X102952381Y-99154819D02*
X103333333Y-99154819D01*
X103333333Y-99154819D02*
X103428571Y-99202438D01*
X103428571Y-99202438D02*
X103476190Y-99250057D01*
X103476190Y-99250057D02*
X103523809Y-99345295D01*
X103523809Y-99345295D02*
X103523809Y-99488152D01*
X103523809Y-99488152D02*
X103476190Y-99583390D01*
X103476190Y-99583390D02*
X103428571Y-99631009D01*
X103428571Y-99631009D02*
X103333333Y-99678628D01*
X103333333Y-99678628D02*
X102952381Y-99678628D01*
X104095238Y-100154819D02*
X104000000Y-100107200D01*
X104000000Y-100107200D02*
X103952381Y-100059580D01*
X103952381Y-100059580D02*
X103904762Y-99964342D01*
X103904762Y-99964342D02*
X103904762Y-99678628D01*
X103904762Y-99678628D02*
X103952381Y-99583390D01*
X103952381Y-99583390D02*
X104000000Y-99535771D01*
X104000000Y-99535771D02*
X104095238Y-99488152D01*
X104095238Y-99488152D02*
X104238095Y-99488152D01*
X104238095Y-99488152D02*
X104333333Y-99535771D01*
X104333333Y-99535771D02*
X104380952Y-99583390D01*
X104380952Y-99583390D02*
X104428571Y-99678628D01*
X104428571Y-99678628D02*
X104428571Y-99964342D01*
X104428571Y-99964342D02*
X104380952Y-100059580D01*
X104380952Y-100059580D02*
X104333333Y-100107200D01*
X104333333Y-100107200D02*
X104238095Y-100154819D01*
X104238095Y-100154819D02*
X104095238Y-100154819D01*
X104761905Y-99488152D02*
X104952381Y-100154819D01*
X104952381Y-100154819D02*
X105142857Y-99678628D01*
X105142857Y-99678628D02*
X105333333Y-100154819D01*
X105333333Y-100154819D02*
X105523809Y-99488152D01*
X106285714Y-100107200D02*
X106190476Y-100154819D01*
X106190476Y-100154819D02*
X106000000Y-100154819D01*
X106000000Y-100154819D02*
X105904762Y-100107200D01*
X105904762Y-100107200D02*
X105857143Y-100011961D01*
X105857143Y-100011961D02*
X105857143Y-99631009D01*
X105857143Y-99631009D02*
X105904762Y-99535771D01*
X105904762Y-99535771D02*
X106000000Y-99488152D01*
X106000000Y-99488152D02*
X106190476Y-99488152D01*
X106190476Y-99488152D02*
X106285714Y-99535771D01*
X106285714Y-99535771D02*
X106333333Y-99631009D01*
X106333333Y-99631009D02*
X106333333Y-99726247D01*
X106333333Y-99726247D02*
X105857143Y-99821485D01*
X106761905Y-100154819D02*
X106761905Y-99488152D01*
X106761905Y-99678628D02*
X106809524Y-99583390D01*
X106809524Y-99583390D02*
X106857143Y-99535771D01*
X106857143Y-99535771D02*
X106952381Y-99488152D01*
X106952381Y-99488152D02*
X107047619Y-99488152D01*
X108142858Y-100154819D02*
X108142858Y-99154819D01*
X108619048Y-99488152D02*
X108619048Y-100154819D01*
X108619048Y-99583390D02*
X108666667Y-99535771D01*
X108666667Y-99535771D02*
X108761905Y-99488152D01*
X108761905Y-99488152D02*
X108904762Y-99488152D01*
X108904762Y-99488152D02*
X109000000Y-99535771D01*
X109000000Y-99535771D02*
X109047619Y-99631009D01*
X109047619Y-99631009D02*
X109047619Y-100154819D01*
X127883333Y-88454819D02*
X127550000Y-87978628D01*
X127311905Y-88454819D02*
X127311905Y-87454819D01*
X127311905Y-87454819D02*
X127692857Y-87454819D01*
X127692857Y-87454819D02*
X127788095Y-87502438D01*
X127788095Y-87502438D02*
X127835714Y-87550057D01*
X127835714Y-87550057D02*
X127883333Y-87645295D01*
X127883333Y-87645295D02*
X127883333Y-87788152D01*
X127883333Y-87788152D02*
X127835714Y-87883390D01*
X127835714Y-87883390D02*
X127788095Y-87931009D01*
X127788095Y-87931009D02*
X127692857Y-87978628D01*
X127692857Y-87978628D02*
X127311905Y-87978628D01*
X128216667Y-87454819D02*
X128835714Y-87454819D01*
X128835714Y-87454819D02*
X128502381Y-87835771D01*
X128502381Y-87835771D02*
X128645238Y-87835771D01*
X128645238Y-87835771D02*
X128740476Y-87883390D01*
X128740476Y-87883390D02*
X128788095Y-87931009D01*
X128788095Y-87931009D02*
X128835714Y-88026247D01*
X128835714Y-88026247D02*
X128835714Y-88264342D01*
X128835714Y-88264342D02*
X128788095Y-88359580D01*
X128788095Y-88359580D02*
X128740476Y-88407200D01*
X128740476Y-88407200D02*
X128645238Y-88454819D01*
X128645238Y-88454819D02*
X128359524Y-88454819D01*
X128359524Y-88454819D02*
X128264286Y-88407200D01*
X128264286Y-88407200D02*
X128216667Y-88359580D01*
X125222023Y-87054819D02*
X124650595Y-87054819D01*
X124936309Y-87054819D02*
X124936309Y-86054819D01*
X124936309Y-86054819D02*
X124841071Y-86197676D01*
X124841071Y-86197676D02*
X124745833Y-86292914D01*
X124745833Y-86292914D02*
X124650595Y-86340533D01*
X125841071Y-86054819D02*
X125936309Y-86054819D01*
X125936309Y-86054819D02*
X126031547Y-86102438D01*
X126031547Y-86102438D02*
X126079166Y-86150057D01*
X126079166Y-86150057D02*
X126126785Y-86245295D01*
X126126785Y-86245295D02*
X126174404Y-86435771D01*
X126174404Y-86435771D02*
X126174404Y-86673866D01*
X126174404Y-86673866D02*
X126126785Y-86864342D01*
X126126785Y-86864342D02*
X126079166Y-86959580D01*
X126079166Y-86959580D02*
X126031547Y-87007200D01*
X126031547Y-87007200D02*
X125936309Y-87054819D01*
X125936309Y-87054819D02*
X125841071Y-87054819D01*
X125841071Y-87054819D02*
X125745833Y-87007200D01*
X125745833Y-87007200D02*
X125698214Y-86959580D01*
X125698214Y-86959580D02*
X125650595Y-86864342D01*
X125650595Y-86864342D02*
X125602976Y-86673866D01*
X125602976Y-86673866D02*
X125602976Y-86435771D01*
X125602976Y-86435771D02*
X125650595Y-86245295D01*
X125650595Y-86245295D02*
X125698214Y-86150057D01*
X125698214Y-86150057D02*
X125745833Y-86102438D01*
X125745833Y-86102438D02*
X125841071Y-86054819D01*
X126602976Y-87054819D02*
X126602976Y-86054819D01*
X127174404Y-87054819D02*
X126745833Y-86483390D01*
X127174404Y-86054819D02*
X126602976Y-86626247D01*
X154433333Y-74529580D02*
X154385714Y-74577200D01*
X154385714Y-74577200D02*
X154242857Y-74624819D01*
X154242857Y-74624819D02*
X154147619Y-74624819D01*
X154147619Y-74624819D02*
X154004762Y-74577200D01*
X154004762Y-74577200D02*
X153909524Y-74481961D01*
X153909524Y-74481961D02*
X153861905Y-74386723D01*
X153861905Y-74386723D02*
X153814286Y-74196247D01*
X153814286Y-74196247D02*
X153814286Y-74053390D01*
X153814286Y-74053390D02*
X153861905Y-73862914D01*
X153861905Y-73862914D02*
X153909524Y-73767676D01*
X153909524Y-73767676D02*
X154004762Y-73672438D01*
X154004762Y-73672438D02*
X154147619Y-73624819D01*
X154147619Y-73624819D02*
X154242857Y-73624819D01*
X154242857Y-73624819D02*
X154385714Y-73672438D01*
X154385714Y-73672438D02*
X154433333Y-73720057D01*
X155290476Y-73624819D02*
X155100000Y-73624819D01*
X155100000Y-73624819D02*
X155004762Y-73672438D01*
X155004762Y-73672438D02*
X154957143Y-73720057D01*
X154957143Y-73720057D02*
X154861905Y-73862914D01*
X154861905Y-73862914D02*
X154814286Y-74053390D01*
X154814286Y-74053390D02*
X154814286Y-74434342D01*
X154814286Y-74434342D02*
X154861905Y-74529580D01*
X154861905Y-74529580D02*
X154909524Y-74577200D01*
X154909524Y-74577200D02*
X155004762Y-74624819D01*
X155004762Y-74624819D02*
X155195238Y-74624819D01*
X155195238Y-74624819D02*
X155290476Y-74577200D01*
X155290476Y-74577200D02*
X155338095Y-74529580D01*
X155338095Y-74529580D02*
X155385714Y-74434342D01*
X155385714Y-74434342D02*
X155385714Y-74196247D01*
X155385714Y-74196247D02*
X155338095Y-74101009D01*
X155338095Y-74101009D02*
X155290476Y-74053390D01*
X155290476Y-74053390D02*
X155195238Y-74005771D01*
X155195238Y-74005771D02*
X155004762Y-74005771D01*
X155004762Y-74005771D02*
X154909524Y-74053390D01*
X154909524Y-74053390D02*
X154861905Y-74101009D01*
X154861905Y-74101009D02*
X154814286Y-74196247D01*
X119233333Y-78259580D02*
X119185714Y-78307200D01*
X119185714Y-78307200D02*
X119042857Y-78354819D01*
X119042857Y-78354819D02*
X118947619Y-78354819D01*
X118947619Y-78354819D02*
X118804762Y-78307200D01*
X118804762Y-78307200D02*
X118709524Y-78211961D01*
X118709524Y-78211961D02*
X118661905Y-78116723D01*
X118661905Y-78116723D02*
X118614286Y-77926247D01*
X118614286Y-77926247D02*
X118614286Y-77783390D01*
X118614286Y-77783390D02*
X118661905Y-77592914D01*
X118661905Y-77592914D02*
X118709524Y-77497676D01*
X118709524Y-77497676D02*
X118804762Y-77402438D01*
X118804762Y-77402438D02*
X118947619Y-77354819D01*
X118947619Y-77354819D02*
X119042857Y-77354819D01*
X119042857Y-77354819D02*
X119185714Y-77402438D01*
X119185714Y-77402438D02*
X119233333Y-77450057D01*
X120185714Y-78354819D02*
X119614286Y-78354819D01*
X119900000Y-78354819D02*
X119900000Y-77354819D01*
X119900000Y-77354819D02*
X119804762Y-77497676D01*
X119804762Y-77497676D02*
X119709524Y-77592914D01*
X119709524Y-77592914D02*
X119614286Y-77640533D01*
X118057143Y-78754819D02*
X118152381Y-78754819D01*
X118152381Y-78754819D02*
X118247619Y-78802438D01*
X118247619Y-78802438D02*
X118295238Y-78850057D01*
X118295238Y-78850057D02*
X118342857Y-78945295D01*
X118342857Y-78945295D02*
X118390476Y-79135771D01*
X118390476Y-79135771D02*
X118390476Y-79373866D01*
X118390476Y-79373866D02*
X118342857Y-79564342D01*
X118342857Y-79564342D02*
X118295238Y-79659580D01*
X118295238Y-79659580D02*
X118247619Y-79707200D01*
X118247619Y-79707200D02*
X118152381Y-79754819D01*
X118152381Y-79754819D02*
X118057143Y-79754819D01*
X118057143Y-79754819D02*
X117961905Y-79707200D01*
X117961905Y-79707200D02*
X117914286Y-79659580D01*
X117914286Y-79659580D02*
X117866667Y-79564342D01*
X117866667Y-79564342D02*
X117819048Y-79373866D01*
X117819048Y-79373866D02*
X117819048Y-79135771D01*
X117819048Y-79135771D02*
X117866667Y-78945295D01*
X117866667Y-78945295D02*
X117914286Y-78850057D01*
X117914286Y-78850057D02*
X117961905Y-78802438D01*
X117961905Y-78802438D02*
X118057143Y-78754819D01*
X118819048Y-79659580D02*
X118866667Y-79707200D01*
X118866667Y-79707200D02*
X118819048Y-79754819D01*
X118819048Y-79754819D02*
X118771429Y-79707200D01*
X118771429Y-79707200D02*
X118819048Y-79659580D01*
X118819048Y-79659580D02*
X118819048Y-79754819D01*
X119819047Y-79754819D02*
X119247619Y-79754819D01*
X119533333Y-79754819D02*
X119533333Y-78754819D01*
X119533333Y-78754819D02*
X119438095Y-78897676D01*
X119438095Y-78897676D02*
X119342857Y-78992914D01*
X119342857Y-78992914D02*
X119247619Y-79040533D01*
X120676190Y-79088152D02*
X120676190Y-79754819D01*
X120247619Y-79088152D02*
X120247619Y-79611961D01*
X120247619Y-79611961D02*
X120295238Y-79707200D01*
X120295238Y-79707200D02*
X120390476Y-79754819D01*
X120390476Y-79754819D02*
X120533333Y-79754819D01*
X120533333Y-79754819D02*
X120628571Y-79707200D01*
X120628571Y-79707200D02*
X120676190Y-79659580D01*
X121485714Y-79231009D02*
X121152381Y-79231009D01*
X121152381Y-79754819D02*
X121152381Y-78754819D01*
X121152381Y-78754819D02*
X121628571Y-78754819D01*
X113238095Y-73954819D02*
X113238095Y-74764342D01*
X113238095Y-74764342D02*
X113285714Y-74859580D01*
X113285714Y-74859580D02*
X113333333Y-74907200D01*
X113333333Y-74907200D02*
X113428571Y-74954819D01*
X113428571Y-74954819D02*
X113619047Y-74954819D01*
X113619047Y-74954819D02*
X113714285Y-74907200D01*
X113714285Y-74907200D02*
X113761904Y-74859580D01*
X113761904Y-74859580D02*
X113809523Y-74764342D01*
X113809523Y-74764342D02*
X113809523Y-73954819D01*
X114809523Y-74954819D02*
X114238095Y-74954819D01*
X114523809Y-74954819D02*
X114523809Y-73954819D01*
X114523809Y-73954819D02*
X114428571Y-74097676D01*
X114428571Y-74097676D02*
X114333333Y-74192914D01*
X114333333Y-74192914D02*
X114238095Y-74240533D01*
X110352381Y-75354819D02*
X111019047Y-75354819D01*
X111019047Y-75354819D02*
X110590476Y-76354819D01*
X111828571Y-75688152D02*
X111828571Y-76354819D01*
X111590476Y-75307200D02*
X111352381Y-76021485D01*
X111352381Y-76021485D02*
X111971428Y-76021485D01*
X112304762Y-76069104D02*
X112780952Y-76069104D01*
X112209524Y-76354819D02*
X112542857Y-75354819D01*
X112542857Y-75354819D02*
X112876190Y-76354819D01*
X113209524Y-76354819D02*
X113209524Y-75354819D01*
X113209524Y-75831009D02*
X113780952Y-75831009D01*
X113780952Y-76354819D02*
X113780952Y-75354819D01*
X114828571Y-76259580D02*
X114780952Y-76307200D01*
X114780952Y-76307200D02*
X114638095Y-76354819D01*
X114638095Y-76354819D02*
X114542857Y-76354819D01*
X114542857Y-76354819D02*
X114400000Y-76307200D01*
X114400000Y-76307200D02*
X114304762Y-76211961D01*
X114304762Y-76211961D02*
X114257143Y-76116723D01*
X114257143Y-76116723D02*
X114209524Y-75926247D01*
X114209524Y-75926247D02*
X114209524Y-75783390D01*
X114209524Y-75783390D02*
X114257143Y-75592914D01*
X114257143Y-75592914D02*
X114304762Y-75497676D01*
X114304762Y-75497676D02*
X114400000Y-75402438D01*
X114400000Y-75402438D02*
X114542857Y-75354819D01*
X114542857Y-75354819D02*
X114638095Y-75354819D01*
X114638095Y-75354819D02*
X114780952Y-75402438D01*
X114780952Y-75402438D02*
X114828571Y-75450057D01*
X115114286Y-75354819D02*
X115685714Y-75354819D01*
X115400000Y-76354819D02*
X115400000Y-75354819D01*
X116542857Y-76354819D02*
X115971429Y-76354819D01*
X116257143Y-76354819D02*
X116257143Y-75354819D01*
X116257143Y-75354819D02*
X116161905Y-75497676D01*
X116161905Y-75497676D02*
X116066667Y-75592914D01*
X116066667Y-75592914D02*
X115971429Y-75640533D01*
X117495238Y-75402438D02*
X117400000Y-75354819D01*
X117400000Y-75354819D02*
X117257143Y-75354819D01*
X117257143Y-75354819D02*
X117114286Y-75402438D01*
X117114286Y-75402438D02*
X117019048Y-75497676D01*
X117019048Y-75497676D02*
X116971429Y-75592914D01*
X116971429Y-75592914D02*
X116923810Y-75783390D01*
X116923810Y-75783390D02*
X116923810Y-75926247D01*
X116923810Y-75926247D02*
X116971429Y-76116723D01*
X116971429Y-76116723D02*
X117019048Y-76211961D01*
X117019048Y-76211961D02*
X117114286Y-76307200D01*
X117114286Y-76307200D02*
X117257143Y-76354819D01*
X117257143Y-76354819D02*
X117352381Y-76354819D01*
X117352381Y-76354819D02*
X117495238Y-76307200D01*
X117495238Y-76307200D02*
X117542857Y-76259580D01*
X117542857Y-76259580D02*
X117542857Y-75926247D01*
X117542857Y-75926247D02*
X117352381Y-75926247D01*
X118495238Y-76354819D02*
X117923810Y-76354819D01*
X118209524Y-76354819D02*
X118209524Y-75354819D01*
X118209524Y-75354819D02*
X118114286Y-75497676D01*
X118114286Y-75497676D02*
X118019048Y-75592914D01*
X118019048Y-75592914D02*
X117923810Y-75640533D01*
X118876191Y-75450057D02*
X118923810Y-75402438D01*
X118923810Y-75402438D02*
X119019048Y-75354819D01*
X119019048Y-75354819D02*
X119257143Y-75354819D01*
X119257143Y-75354819D02*
X119352381Y-75402438D01*
X119352381Y-75402438D02*
X119400000Y-75450057D01*
X119400000Y-75450057D02*
X119447619Y-75545295D01*
X119447619Y-75545295D02*
X119447619Y-75640533D01*
X119447619Y-75640533D02*
X119400000Y-75783390D01*
X119400000Y-75783390D02*
X118828572Y-76354819D01*
X118828572Y-76354819D02*
X119447619Y-76354819D01*
X120352381Y-75354819D02*
X119876191Y-75354819D01*
X119876191Y-75354819D02*
X119828572Y-75831009D01*
X119828572Y-75831009D02*
X119876191Y-75783390D01*
X119876191Y-75783390D02*
X119971429Y-75735771D01*
X119971429Y-75735771D02*
X120209524Y-75735771D01*
X120209524Y-75735771D02*
X120304762Y-75783390D01*
X120304762Y-75783390D02*
X120352381Y-75831009D01*
X120352381Y-75831009D02*
X120400000Y-75926247D01*
X120400000Y-75926247D02*
X120400000Y-76164342D01*
X120400000Y-76164342D02*
X120352381Y-76259580D01*
X120352381Y-76259580D02*
X120304762Y-76307200D01*
X120304762Y-76307200D02*
X120209524Y-76354819D01*
X120209524Y-76354819D02*
X119971429Y-76354819D01*
X119971429Y-76354819D02*
X119876191Y-76307200D01*
X119876191Y-76307200D02*
X119828572Y-76259580D01*
X120538095Y-83654819D02*
X120538095Y-84464342D01*
X120538095Y-84464342D02*
X120585714Y-84559580D01*
X120585714Y-84559580D02*
X120633333Y-84607200D01*
X120633333Y-84607200D02*
X120728571Y-84654819D01*
X120728571Y-84654819D02*
X120919047Y-84654819D01*
X120919047Y-84654819D02*
X121014285Y-84607200D01*
X121014285Y-84607200D02*
X121061904Y-84559580D01*
X121061904Y-84559580D02*
X121109523Y-84464342D01*
X121109523Y-84464342D02*
X121109523Y-83654819D01*
X122014285Y-83988152D02*
X122014285Y-84654819D01*
X121776190Y-83607200D02*
X121538095Y-84321485D01*
X121538095Y-84321485D02*
X122157142Y-84321485D01*
X116314286Y-91454819D02*
X116314286Y-90454819D01*
X116790476Y-91454819D02*
X116790476Y-90454819D01*
X116790476Y-90454819D02*
X117361904Y-91454819D01*
X117361904Y-91454819D02*
X117361904Y-90454819D01*
X117790476Y-91169104D02*
X118266666Y-91169104D01*
X117695238Y-91454819D02*
X118028571Y-90454819D01*
X118028571Y-90454819D02*
X118361904Y-91454819D01*
X118647619Y-90550057D02*
X118695238Y-90502438D01*
X118695238Y-90502438D02*
X118790476Y-90454819D01*
X118790476Y-90454819D02*
X119028571Y-90454819D01*
X119028571Y-90454819D02*
X119123809Y-90502438D01*
X119123809Y-90502438D02*
X119171428Y-90550057D01*
X119171428Y-90550057D02*
X119219047Y-90645295D01*
X119219047Y-90645295D02*
X119219047Y-90740533D01*
X119219047Y-90740533D02*
X119171428Y-90883390D01*
X119171428Y-90883390D02*
X118600000Y-91454819D01*
X118600000Y-91454819D02*
X119219047Y-91454819D01*
X120171428Y-91454819D02*
X119600000Y-91454819D01*
X119885714Y-91454819D02*
X119885714Y-90454819D01*
X119885714Y-90454819D02*
X119790476Y-90597676D01*
X119790476Y-90597676D02*
X119695238Y-90692914D01*
X119695238Y-90692914D02*
X119600000Y-90740533D01*
X120647619Y-91454819D02*
X120838095Y-91454819D01*
X120838095Y-91454819D02*
X120933333Y-91407200D01*
X120933333Y-91407200D02*
X120980952Y-91359580D01*
X120980952Y-91359580D02*
X121076190Y-91216723D01*
X121076190Y-91216723D02*
X121123809Y-91026247D01*
X121123809Y-91026247D02*
X121123809Y-90645295D01*
X121123809Y-90645295D02*
X121076190Y-90550057D01*
X121076190Y-90550057D02*
X121028571Y-90502438D01*
X121028571Y-90502438D02*
X120933333Y-90454819D01*
X120933333Y-90454819D02*
X120742857Y-90454819D01*
X120742857Y-90454819D02*
X120647619Y-90502438D01*
X120647619Y-90502438D02*
X120600000Y-90550057D01*
X120600000Y-90550057D02*
X120552381Y-90645295D01*
X120552381Y-90645295D02*
X120552381Y-90883390D01*
X120552381Y-90883390D02*
X120600000Y-90978628D01*
X120600000Y-90978628D02*
X120647619Y-91026247D01*
X120647619Y-91026247D02*
X120742857Y-91073866D01*
X120742857Y-91073866D02*
X120933333Y-91073866D01*
X120933333Y-91073866D02*
X121028571Y-91026247D01*
X121028571Y-91026247D02*
X121076190Y-90978628D01*
X121076190Y-90978628D02*
X121123809Y-90883390D01*
X121885714Y-90931009D02*
X122028571Y-90978628D01*
X122028571Y-90978628D02*
X122076190Y-91026247D01*
X122076190Y-91026247D02*
X122123809Y-91121485D01*
X122123809Y-91121485D02*
X122123809Y-91264342D01*
X122123809Y-91264342D02*
X122076190Y-91359580D01*
X122076190Y-91359580D02*
X122028571Y-91407200D01*
X122028571Y-91407200D02*
X121933333Y-91454819D01*
X121933333Y-91454819D02*
X121552381Y-91454819D01*
X121552381Y-91454819D02*
X121552381Y-90454819D01*
X121552381Y-90454819D02*
X121885714Y-90454819D01*
X121885714Y-90454819D02*
X121980952Y-90502438D01*
X121980952Y-90502438D02*
X122028571Y-90550057D01*
X122028571Y-90550057D02*
X122076190Y-90645295D01*
X122076190Y-90645295D02*
X122076190Y-90740533D01*
X122076190Y-90740533D02*
X122028571Y-90835771D01*
X122028571Y-90835771D02*
X121980952Y-90883390D01*
X121980952Y-90883390D02*
X121885714Y-90931009D01*
X121885714Y-90931009D02*
X121552381Y-90931009D01*
X122457143Y-91454819D02*
X122980952Y-90788152D01*
X122457143Y-90788152D02*
X122980952Y-91454819D01*
X123361905Y-91454819D02*
X123361905Y-90454819D01*
X123361905Y-90454819D02*
X123600000Y-90454819D01*
X123600000Y-90454819D02*
X123742857Y-90502438D01*
X123742857Y-90502438D02*
X123838095Y-90597676D01*
X123838095Y-90597676D02*
X123885714Y-90692914D01*
X123885714Y-90692914D02*
X123933333Y-90883390D01*
X123933333Y-90883390D02*
X123933333Y-91026247D01*
X123933333Y-91026247D02*
X123885714Y-91216723D01*
X123885714Y-91216723D02*
X123838095Y-91311961D01*
X123838095Y-91311961D02*
X123742857Y-91407200D01*
X123742857Y-91407200D02*
X123600000Y-91454819D01*
X123600000Y-91454819D02*
X123361905Y-91454819D01*
X127833333Y-91959580D02*
X127785714Y-92007200D01*
X127785714Y-92007200D02*
X127642857Y-92054819D01*
X127642857Y-92054819D02*
X127547619Y-92054819D01*
X127547619Y-92054819D02*
X127404762Y-92007200D01*
X127404762Y-92007200D02*
X127309524Y-91911961D01*
X127309524Y-91911961D02*
X127261905Y-91816723D01*
X127261905Y-91816723D02*
X127214286Y-91626247D01*
X127214286Y-91626247D02*
X127214286Y-91483390D01*
X127214286Y-91483390D02*
X127261905Y-91292914D01*
X127261905Y-91292914D02*
X127309524Y-91197676D01*
X127309524Y-91197676D02*
X127404762Y-91102438D01*
X127404762Y-91102438D02*
X127547619Y-91054819D01*
X127547619Y-91054819D02*
X127642857Y-91054819D01*
X127642857Y-91054819D02*
X127785714Y-91102438D01*
X127785714Y-91102438D02*
X127833333Y-91150057D01*
X128690476Y-91388152D02*
X128690476Y-92054819D01*
X128452381Y-91007200D02*
X128214286Y-91721485D01*
X128214286Y-91721485D02*
X128833333Y-91721485D01*
X128328571Y-97154819D02*
X127757143Y-97154819D01*
X128042857Y-97154819D02*
X128042857Y-96154819D01*
X128042857Y-96154819D02*
X127947619Y-96297676D01*
X127947619Y-96297676D02*
X127852381Y-96392914D01*
X127852381Y-96392914D02*
X127757143Y-96440533D01*
X128947619Y-96154819D02*
X129042857Y-96154819D01*
X129042857Y-96154819D02*
X129138095Y-96202438D01*
X129138095Y-96202438D02*
X129185714Y-96250057D01*
X129185714Y-96250057D02*
X129233333Y-96345295D01*
X129233333Y-96345295D02*
X129280952Y-96535771D01*
X129280952Y-96535771D02*
X129280952Y-96773866D01*
X129280952Y-96773866D02*
X129233333Y-96964342D01*
X129233333Y-96964342D02*
X129185714Y-97059580D01*
X129185714Y-97059580D02*
X129138095Y-97107200D01*
X129138095Y-97107200D02*
X129042857Y-97154819D01*
X129042857Y-97154819D02*
X128947619Y-97154819D01*
X128947619Y-97154819D02*
X128852381Y-97107200D01*
X128852381Y-97107200D02*
X128804762Y-97059580D01*
X128804762Y-97059580D02*
X128757143Y-96964342D01*
X128757143Y-96964342D02*
X128709524Y-96773866D01*
X128709524Y-96773866D02*
X128709524Y-96535771D01*
X128709524Y-96535771D02*
X128757143Y-96345295D01*
X128757143Y-96345295D02*
X128804762Y-96250057D01*
X128804762Y-96250057D02*
X128852381Y-96202438D01*
X128852381Y-96202438D02*
X128947619Y-96154819D01*
X130138095Y-96488152D02*
X130138095Y-97154819D01*
X129709524Y-96488152D02*
X129709524Y-97011961D01*
X129709524Y-97011961D02*
X129757143Y-97107200D01*
X129757143Y-97107200D02*
X129852381Y-97154819D01*
X129852381Y-97154819D02*
X129995238Y-97154819D01*
X129995238Y-97154819D02*
X130090476Y-97107200D01*
X130090476Y-97107200D02*
X130138095Y-97059580D01*
X130947619Y-96631009D02*
X130614286Y-96631009D01*
X130614286Y-97154819D02*
X130614286Y-96154819D01*
X130614286Y-96154819D02*
X131090476Y-96154819D01*
X114733333Y-81754819D02*
X114400000Y-81278628D01*
X114161905Y-81754819D02*
X114161905Y-80754819D01*
X114161905Y-80754819D02*
X114542857Y-80754819D01*
X114542857Y-80754819D02*
X114638095Y-80802438D01*
X114638095Y-80802438D02*
X114685714Y-80850057D01*
X114685714Y-80850057D02*
X114733333Y-80945295D01*
X114733333Y-80945295D02*
X114733333Y-81088152D01*
X114733333Y-81088152D02*
X114685714Y-81183390D01*
X114685714Y-81183390D02*
X114638095Y-81231009D01*
X114638095Y-81231009D02*
X114542857Y-81278628D01*
X114542857Y-81278628D02*
X114161905Y-81278628D01*
X115685714Y-81754819D02*
X115114286Y-81754819D01*
X115400000Y-81754819D02*
X115400000Y-80754819D01*
X115400000Y-80754819D02*
X115304762Y-80897676D01*
X115304762Y-80897676D02*
X115209524Y-80992914D01*
X115209524Y-80992914D02*
X115114286Y-81040533D01*
X110319048Y-82154819D02*
X110938095Y-82154819D01*
X110938095Y-82154819D02*
X110604762Y-82535771D01*
X110604762Y-82535771D02*
X110747619Y-82535771D01*
X110747619Y-82535771D02*
X110842857Y-82583390D01*
X110842857Y-82583390D02*
X110890476Y-82631009D01*
X110890476Y-82631009D02*
X110938095Y-82726247D01*
X110938095Y-82726247D02*
X110938095Y-82964342D01*
X110938095Y-82964342D02*
X110890476Y-83059580D01*
X110890476Y-83059580D02*
X110842857Y-83107200D01*
X110842857Y-83107200D02*
X110747619Y-83154819D01*
X110747619Y-83154819D02*
X110461905Y-83154819D01*
X110461905Y-83154819D02*
X110366667Y-83107200D01*
X110366667Y-83107200D02*
X110319048Y-83059580D01*
X111271429Y-82154819D02*
X111890476Y-82154819D01*
X111890476Y-82154819D02*
X111557143Y-82535771D01*
X111557143Y-82535771D02*
X111700000Y-82535771D01*
X111700000Y-82535771D02*
X111795238Y-82583390D01*
X111795238Y-82583390D02*
X111842857Y-82631009D01*
X111842857Y-82631009D02*
X111890476Y-82726247D01*
X111890476Y-82726247D02*
X111890476Y-82964342D01*
X111890476Y-82964342D02*
X111842857Y-83059580D01*
X111842857Y-83059580D02*
X111795238Y-83107200D01*
X111795238Y-83107200D02*
X111700000Y-83154819D01*
X111700000Y-83154819D02*
X111414286Y-83154819D01*
X111414286Y-83154819D02*
X111319048Y-83107200D01*
X111319048Y-83107200D02*
X111271429Y-83059580D01*
X112461905Y-83154819D02*
X112366667Y-83107200D01*
X112366667Y-83107200D02*
X112319048Y-83059580D01*
X112319048Y-83059580D02*
X112271429Y-82964342D01*
X112271429Y-82964342D02*
X112271429Y-82678628D01*
X112271429Y-82678628D02*
X112319048Y-82583390D01*
X112319048Y-82583390D02*
X112366667Y-82535771D01*
X112366667Y-82535771D02*
X112461905Y-82488152D01*
X112461905Y-82488152D02*
X112604762Y-82488152D01*
X112604762Y-82488152D02*
X112700000Y-82535771D01*
X112700000Y-82535771D02*
X112747619Y-82583390D01*
X112747619Y-82583390D02*
X112795238Y-82678628D01*
X112795238Y-82678628D02*
X112795238Y-82964342D01*
X112795238Y-82964342D02*
X112747619Y-83059580D01*
X112747619Y-83059580D02*
X112700000Y-83107200D01*
X112700000Y-83107200D02*
X112604762Y-83154819D01*
X112604762Y-83154819D02*
X112461905Y-83154819D01*
X113223810Y-83154819D02*
X113223810Y-82154819D01*
X113652381Y-83154819D02*
X113652381Y-82631009D01*
X113652381Y-82631009D02*
X113604762Y-82535771D01*
X113604762Y-82535771D02*
X113509524Y-82488152D01*
X113509524Y-82488152D02*
X113366667Y-82488152D01*
X113366667Y-82488152D02*
X113271429Y-82535771D01*
X113271429Y-82535771D02*
X113223810Y-82583390D01*
X114128572Y-83154819D02*
X114128572Y-82488152D01*
X114128572Y-82583390D02*
X114176191Y-82535771D01*
X114176191Y-82535771D02*
X114271429Y-82488152D01*
X114271429Y-82488152D02*
X114414286Y-82488152D01*
X114414286Y-82488152D02*
X114509524Y-82535771D01*
X114509524Y-82535771D02*
X114557143Y-82631009D01*
X114557143Y-82631009D02*
X114557143Y-83154819D01*
X114557143Y-82631009D02*
X114604762Y-82535771D01*
X114604762Y-82535771D02*
X114700000Y-82488152D01*
X114700000Y-82488152D02*
X114842857Y-82488152D01*
X114842857Y-82488152D02*
X114938096Y-82535771D01*
X114938096Y-82535771D02*
X114985715Y-82631009D01*
X114985715Y-82631009D02*
X114985715Y-83154819D01*
X125638095Y-97554819D02*
X125638095Y-98364342D01*
X125638095Y-98364342D02*
X125685714Y-98459580D01*
X125685714Y-98459580D02*
X125733333Y-98507200D01*
X125733333Y-98507200D02*
X125828571Y-98554819D01*
X125828571Y-98554819D02*
X126019047Y-98554819D01*
X126019047Y-98554819D02*
X126114285Y-98507200D01*
X126114285Y-98507200D02*
X126161904Y-98459580D01*
X126161904Y-98459580D02*
X126209523Y-98364342D01*
X126209523Y-98364342D02*
X126209523Y-97554819D01*
X126590476Y-97554819D02*
X127209523Y-97554819D01*
X127209523Y-97554819D02*
X126876190Y-97935771D01*
X126876190Y-97935771D02*
X127019047Y-97935771D01*
X127019047Y-97935771D02*
X127114285Y-97983390D01*
X127114285Y-97983390D02*
X127161904Y-98031009D01*
X127161904Y-98031009D02*
X127209523Y-98126247D01*
X127209523Y-98126247D02*
X127209523Y-98364342D01*
X127209523Y-98364342D02*
X127161904Y-98459580D01*
X127161904Y-98459580D02*
X127114285Y-98507200D01*
X127114285Y-98507200D02*
X127019047Y-98554819D01*
X127019047Y-98554819D02*
X126733333Y-98554819D01*
X126733333Y-98554819D02*
X126638095Y-98507200D01*
X126638095Y-98507200D02*
X126590476Y-98459580D01*
X118300000Y-99969104D02*
X118776190Y-99969104D01*
X118204762Y-100254819D02*
X118538095Y-99254819D01*
X118538095Y-99254819D02*
X118871428Y-100254819D01*
X119204762Y-100254819D02*
X119204762Y-99254819D01*
X119204762Y-99254819D02*
X119538095Y-99969104D01*
X119538095Y-99969104D02*
X119871428Y-99254819D01*
X119871428Y-99254819D02*
X119871428Y-100254819D01*
X120300000Y-100207200D02*
X120442857Y-100254819D01*
X120442857Y-100254819D02*
X120680952Y-100254819D01*
X120680952Y-100254819D02*
X120776190Y-100207200D01*
X120776190Y-100207200D02*
X120823809Y-100159580D01*
X120823809Y-100159580D02*
X120871428Y-100064342D01*
X120871428Y-100064342D02*
X120871428Y-99969104D01*
X120871428Y-99969104D02*
X120823809Y-99873866D01*
X120823809Y-99873866D02*
X120776190Y-99826247D01*
X120776190Y-99826247D02*
X120680952Y-99778628D01*
X120680952Y-99778628D02*
X120490476Y-99731009D01*
X120490476Y-99731009D02*
X120395238Y-99683390D01*
X120395238Y-99683390D02*
X120347619Y-99635771D01*
X120347619Y-99635771D02*
X120300000Y-99540533D01*
X120300000Y-99540533D02*
X120300000Y-99445295D01*
X120300000Y-99445295D02*
X120347619Y-99350057D01*
X120347619Y-99350057D02*
X120395238Y-99302438D01*
X120395238Y-99302438D02*
X120490476Y-99254819D01*
X120490476Y-99254819D02*
X120728571Y-99254819D01*
X120728571Y-99254819D02*
X120871428Y-99302438D01*
X121823809Y-100254819D02*
X121252381Y-100254819D01*
X121538095Y-100254819D02*
X121538095Y-99254819D01*
X121538095Y-99254819D02*
X121442857Y-99397676D01*
X121442857Y-99397676D02*
X121347619Y-99492914D01*
X121347619Y-99492914D02*
X121252381Y-99540533D01*
X122776190Y-100254819D02*
X122204762Y-100254819D01*
X122490476Y-100254819D02*
X122490476Y-99254819D01*
X122490476Y-99254819D02*
X122395238Y-99397676D01*
X122395238Y-99397676D02*
X122300000Y-99492914D01*
X122300000Y-99492914D02*
X122204762Y-99540533D01*
X123728571Y-100254819D02*
X123157143Y-100254819D01*
X123442857Y-100254819D02*
X123442857Y-99254819D01*
X123442857Y-99254819D02*
X123347619Y-99397676D01*
X123347619Y-99397676D02*
X123252381Y-99492914D01*
X123252381Y-99492914D02*
X123157143Y-99540533D01*
X124061905Y-99254819D02*
X124728571Y-99254819D01*
X124728571Y-99254819D02*
X124300000Y-100254819D01*
X125109524Y-99873866D02*
X125871429Y-99873866D01*
X126823809Y-99254819D02*
X126347619Y-99254819D01*
X126347619Y-99254819D02*
X126300000Y-99731009D01*
X126300000Y-99731009D02*
X126347619Y-99683390D01*
X126347619Y-99683390D02*
X126442857Y-99635771D01*
X126442857Y-99635771D02*
X126680952Y-99635771D01*
X126680952Y-99635771D02*
X126776190Y-99683390D01*
X126776190Y-99683390D02*
X126823809Y-99731009D01*
X126823809Y-99731009D02*
X126871428Y-99826247D01*
X126871428Y-99826247D02*
X126871428Y-100064342D01*
X126871428Y-100064342D02*
X126823809Y-100159580D01*
X126823809Y-100159580D02*
X126776190Y-100207200D01*
X126776190Y-100207200D02*
X126680952Y-100254819D01*
X126680952Y-100254819D02*
X126442857Y-100254819D01*
X126442857Y-100254819D02*
X126347619Y-100207200D01*
X126347619Y-100207200D02*
X126300000Y-100159580D01*
X127300000Y-100159580D02*
X127347619Y-100207200D01*
X127347619Y-100207200D02*
X127300000Y-100254819D01*
X127300000Y-100254819D02*
X127252381Y-100207200D01*
X127252381Y-100207200D02*
X127300000Y-100159580D01*
X127300000Y-100159580D02*
X127300000Y-100254819D01*
X127966666Y-99254819D02*
X128061904Y-99254819D01*
X128061904Y-99254819D02*
X128157142Y-99302438D01*
X128157142Y-99302438D02*
X128204761Y-99350057D01*
X128204761Y-99350057D02*
X128252380Y-99445295D01*
X128252380Y-99445295D02*
X128299999Y-99635771D01*
X128299999Y-99635771D02*
X128299999Y-99873866D01*
X128299999Y-99873866D02*
X128252380Y-100064342D01*
X128252380Y-100064342D02*
X128204761Y-100159580D01*
X128204761Y-100159580D02*
X128157142Y-100207200D01*
X128157142Y-100207200D02*
X128061904Y-100254819D01*
X128061904Y-100254819D02*
X127966666Y-100254819D01*
X127966666Y-100254819D02*
X127871428Y-100207200D01*
X127871428Y-100207200D02*
X127823809Y-100159580D01*
X127823809Y-100159580D02*
X127776190Y-100064342D01*
X127776190Y-100064342D02*
X127728571Y-99873866D01*
X127728571Y-99873866D02*
X127728571Y-99635771D01*
X127728571Y-99635771D02*
X127776190Y-99445295D01*
X127776190Y-99445295D02*
X127823809Y-99350057D01*
X127823809Y-99350057D02*
X127871428Y-99302438D01*
X127871428Y-99302438D02*
X127966666Y-99254819D01*
X118133333Y-81659580D02*
X118085714Y-81707200D01*
X118085714Y-81707200D02*
X117942857Y-81754819D01*
X117942857Y-81754819D02*
X117847619Y-81754819D01*
X117847619Y-81754819D02*
X117704762Y-81707200D01*
X117704762Y-81707200D02*
X117609524Y-81611961D01*
X117609524Y-81611961D02*
X117561905Y-81516723D01*
X117561905Y-81516723D02*
X117514286Y-81326247D01*
X117514286Y-81326247D02*
X117514286Y-81183390D01*
X117514286Y-81183390D02*
X117561905Y-80992914D01*
X117561905Y-80992914D02*
X117609524Y-80897676D01*
X117609524Y-80897676D02*
X117704762Y-80802438D01*
X117704762Y-80802438D02*
X117847619Y-80754819D01*
X117847619Y-80754819D02*
X117942857Y-80754819D01*
X117942857Y-80754819D02*
X118085714Y-80802438D01*
X118085714Y-80802438D02*
X118133333Y-80850057D01*
X119038095Y-80754819D02*
X118561905Y-80754819D01*
X118561905Y-80754819D02*
X118514286Y-81231009D01*
X118514286Y-81231009D02*
X118561905Y-81183390D01*
X118561905Y-81183390D02*
X118657143Y-81135771D01*
X118657143Y-81135771D02*
X118895238Y-81135771D01*
X118895238Y-81135771D02*
X118990476Y-81183390D01*
X118990476Y-81183390D02*
X119038095Y-81231009D01*
X119038095Y-81231009D02*
X119085714Y-81326247D01*
X119085714Y-81326247D02*
X119085714Y-81564342D01*
X119085714Y-81564342D02*
X119038095Y-81659580D01*
X119038095Y-81659580D02*
X118990476Y-81707200D01*
X118990476Y-81707200D02*
X118895238Y-81754819D01*
X118895238Y-81754819D02*
X118657143Y-81754819D01*
X118657143Y-81754819D02*
X118561905Y-81707200D01*
X118561905Y-81707200D02*
X118514286Y-81659580D01*
X116857143Y-82054819D02*
X116952381Y-82054819D01*
X116952381Y-82054819D02*
X117047619Y-82102438D01*
X117047619Y-82102438D02*
X117095238Y-82150057D01*
X117095238Y-82150057D02*
X117142857Y-82245295D01*
X117142857Y-82245295D02*
X117190476Y-82435771D01*
X117190476Y-82435771D02*
X117190476Y-82673866D01*
X117190476Y-82673866D02*
X117142857Y-82864342D01*
X117142857Y-82864342D02*
X117095238Y-82959580D01*
X117095238Y-82959580D02*
X117047619Y-83007200D01*
X117047619Y-83007200D02*
X116952381Y-83054819D01*
X116952381Y-83054819D02*
X116857143Y-83054819D01*
X116857143Y-83054819D02*
X116761905Y-83007200D01*
X116761905Y-83007200D02*
X116714286Y-82959580D01*
X116714286Y-82959580D02*
X116666667Y-82864342D01*
X116666667Y-82864342D02*
X116619048Y-82673866D01*
X116619048Y-82673866D02*
X116619048Y-82435771D01*
X116619048Y-82435771D02*
X116666667Y-82245295D01*
X116666667Y-82245295D02*
X116714286Y-82150057D01*
X116714286Y-82150057D02*
X116761905Y-82102438D01*
X116761905Y-82102438D02*
X116857143Y-82054819D01*
X117619048Y-82959580D02*
X117666667Y-83007200D01*
X117666667Y-83007200D02*
X117619048Y-83054819D01*
X117619048Y-83054819D02*
X117571429Y-83007200D01*
X117571429Y-83007200D02*
X117619048Y-82959580D01*
X117619048Y-82959580D02*
X117619048Y-83054819D01*
X118619047Y-83054819D02*
X118047619Y-83054819D01*
X118333333Y-83054819D02*
X118333333Y-82054819D01*
X118333333Y-82054819D02*
X118238095Y-82197676D01*
X118238095Y-82197676D02*
X118142857Y-82292914D01*
X118142857Y-82292914D02*
X118047619Y-82340533D01*
X119476190Y-82388152D02*
X119476190Y-83054819D01*
X119047619Y-82388152D02*
X119047619Y-82911961D01*
X119047619Y-82911961D02*
X119095238Y-83007200D01*
X119095238Y-83007200D02*
X119190476Y-83054819D01*
X119190476Y-83054819D02*
X119333333Y-83054819D01*
X119333333Y-83054819D02*
X119428571Y-83007200D01*
X119428571Y-83007200D02*
X119476190Y-82959580D01*
X120285714Y-82531009D02*
X119952381Y-82531009D01*
X119952381Y-83054819D02*
X119952381Y-82054819D01*
X119952381Y-82054819D02*
X120428571Y-82054819D01*
X117233333Y-97059580D02*
X117185714Y-97107200D01*
X117185714Y-97107200D02*
X117042857Y-97154819D01*
X117042857Y-97154819D02*
X116947619Y-97154819D01*
X116947619Y-97154819D02*
X116804762Y-97107200D01*
X116804762Y-97107200D02*
X116709524Y-97011961D01*
X116709524Y-97011961D02*
X116661905Y-96916723D01*
X116661905Y-96916723D02*
X116614286Y-96726247D01*
X116614286Y-96726247D02*
X116614286Y-96583390D01*
X116614286Y-96583390D02*
X116661905Y-96392914D01*
X116661905Y-96392914D02*
X116709524Y-96297676D01*
X116709524Y-96297676D02*
X116804762Y-96202438D01*
X116804762Y-96202438D02*
X116947619Y-96154819D01*
X116947619Y-96154819D02*
X117042857Y-96154819D01*
X117042857Y-96154819D02*
X117185714Y-96202438D01*
X117185714Y-96202438D02*
X117233333Y-96250057D01*
X117566667Y-96154819D02*
X118185714Y-96154819D01*
X118185714Y-96154819D02*
X117852381Y-96535771D01*
X117852381Y-96535771D02*
X117995238Y-96535771D01*
X117995238Y-96535771D02*
X118090476Y-96583390D01*
X118090476Y-96583390D02*
X118138095Y-96631009D01*
X118138095Y-96631009D02*
X118185714Y-96726247D01*
X118185714Y-96726247D02*
X118185714Y-96964342D01*
X118185714Y-96964342D02*
X118138095Y-97059580D01*
X118138095Y-97059580D02*
X118090476Y-97107200D01*
X118090476Y-97107200D02*
X117995238Y-97154819D01*
X117995238Y-97154819D02*
X117709524Y-97154819D01*
X117709524Y-97154819D02*
X117614286Y-97107200D01*
X117614286Y-97107200D02*
X117566667Y-97059580D01*
X115828571Y-98554819D02*
X115257143Y-98554819D01*
X115542857Y-98554819D02*
X115542857Y-97554819D01*
X115542857Y-97554819D02*
X115447619Y-97697676D01*
X115447619Y-97697676D02*
X115352381Y-97792914D01*
X115352381Y-97792914D02*
X115257143Y-97840533D01*
X116447619Y-97554819D02*
X116542857Y-97554819D01*
X116542857Y-97554819D02*
X116638095Y-97602438D01*
X116638095Y-97602438D02*
X116685714Y-97650057D01*
X116685714Y-97650057D02*
X116733333Y-97745295D01*
X116733333Y-97745295D02*
X116780952Y-97935771D01*
X116780952Y-97935771D02*
X116780952Y-98173866D01*
X116780952Y-98173866D02*
X116733333Y-98364342D01*
X116733333Y-98364342D02*
X116685714Y-98459580D01*
X116685714Y-98459580D02*
X116638095Y-98507200D01*
X116638095Y-98507200D02*
X116542857Y-98554819D01*
X116542857Y-98554819D02*
X116447619Y-98554819D01*
X116447619Y-98554819D02*
X116352381Y-98507200D01*
X116352381Y-98507200D02*
X116304762Y-98459580D01*
X116304762Y-98459580D02*
X116257143Y-98364342D01*
X116257143Y-98364342D02*
X116209524Y-98173866D01*
X116209524Y-98173866D02*
X116209524Y-97935771D01*
X116209524Y-97935771D02*
X116257143Y-97745295D01*
X116257143Y-97745295D02*
X116304762Y-97650057D01*
X116304762Y-97650057D02*
X116352381Y-97602438D01*
X116352381Y-97602438D02*
X116447619Y-97554819D01*
X117638095Y-97888152D02*
X117638095Y-98554819D01*
X117209524Y-97888152D02*
X117209524Y-98411961D01*
X117209524Y-98411961D02*
X117257143Y-98507200D01*
X117257143Y-98507200D02*
X117352381Y-98554819D01*
X117352381Y-98554819D02*
X117495238Y-98554819D01*
X117495238Y-98554819D02*
X117590476Y-98507200D01*
X117590476Y-98507200D02*
X117638095Y-98459580D01*
X118447619Y-98031009D02*
X118114286Y-98031009D01*
X118114286Y-98554819D02*
X118114286Y-97554819D01*
X118114286Y-97554819D02*
X118590476Y-97554819D01*
X127883333Y-90054819D02*
X127550000Y-89578628D01*
X127311905Y-90054819D02*
X127311905Y-89054819D01*
X127311905Y-89054819D02*
X127692857Y-89054819D01*
X127692857Y-89054819D02*
X127788095Y-89102438D01*
X127788095Y-89102438D02*
X127835714Y-89150057D01*
X127835714Y-89150057D02*
X127883333Y-89245295D01*
X127883333Y-89245295D02*
X127883333Y-89388152D01*
X127883333Y-89388152D02*
X127835714Y-89483390D01*
X127835714Y-89483390D02*
X127788095Y-89531009D01*
X127788095Y-89531009D02*
X127692857Y-89578628D01*
X127692857Y-89578628D02*
X127311905Y-89578628D01*
X128740476Y-89388152D02*
X128740476Y-90054819D01*
X128502381Y-89007200D02*
X128264286Y-89721485D01*
X128264286Y-89721485D02*
X128883333Y-89721485D01*
X111145180Y-79166666D02*
X110430895Y-79166666D01*
X110430895Y-79166666D02*
X110288038Y-79119047D01*
X110288038Y-79119047D02*
X110192800Y-79023809D01*
X110192800Y-79023809D02*
X110145180Y-78880952D01*
X110145180Y-78880952D02*
X110145180Y-78785714D01*
X111049942Y-79595238D02*
X111097561Y-79642857D01*
X111097561Y-79642857D02*
X111145180Y-79738095D01*
X111145180Y-79738095D02*
X111145180Y-79976190D01*
X111145180Y-79976190D02*
X111097561Y-80071428D01*
X111097561Y-80071428D02*
X111049942Y-80119047D01*
X111049942Y-80119047D02*
X110954704Y-80166666D01*
X110954704Y-80166666D02*
X110859466Y-80166666D01*
X110859466Y-80166666D02*
X110716609Y-80119047D01*
X110716609Y-80119047D02*
X110145180Y-79547619D01*
X110145180Y-79547619D02*
X110145180Y-80166666D01*
X103400000Y-74207200D02*
X103542857Y-74254819D01*
X103542857Y-74254819D02*
X103780952Y-74254819D01*
X103780952Y-74254819D02*
X103876190Y-74207200D01*
X103876190Y-74207200D02*
X103923809Y-74159580D01*
X103923809Y-74159580D02*
X103971428Y-74064342D01*
X103971428Y-74064342D02*
X103971428Y-73969104D01*
X103971428Y-73969104D02*
X103923809Y-73873866D01*
X103923809Y-73873866D02*
X103876190Y-73826247D01*
X103876190Y-73826247D02*
X103780952Y-73778628D01*
X103780952Y-73778628D02*
X103590476Y-73731009D01*
X103590476Y-73731009D02*
X103495238Y-73683390D01*
X103495238Y-73683390D02*
X103447619Y-73635771D01*
X103447619Y-73635771D02*
X103400000Y-73540533D01*
X103400000Y-73540533D02*
X103400000Y-73445295D01*
X103400000Y-73445295D02*
X103447619Y-73350057D01*
X103447619Y-73350057D02*
X103495238Y-73302438D01*
X103495238Y-73302438D02*
X103590476Y-73254819D01*
X103590476Y-73254819D02*
X103828571Y-73254819D01*
X103828571Y-73254819D02*
X103971428Y-73302438D01*
X104257143Y-73588152D02*
X104638095Y-73588152D01*
X104400000Y-73254819D02*
X104400000Y-74111961D01*
X104400000Y-74111961D02*
X104447619Y-74207200D01*
X104447619Y-74207200D02*
X104542857Y-74254819D01*
X104542857Y-74254819D02*
X104638095Y-74254819D01*
X104971429Y-74254819D02*
X104971429Y-73588152D01*
X104971429Y-73778628D02*
X105019048Y-73683390D01*
X105019048Y-73683390D02*
X105066667Y-73635771D01*
X105066667Y-73635771D02*
X105161905Y-73588152D01*
X105161905Y-73588152D02*
X105257143Y-73588152D01*
X105590477Y-74254819D02*
X105590477Y-73588152D01*
X105590477Y-73254819D02*
X105542858Y-73302438D01*
X105542858Y-73302438D02*
X105590477Y-73350057D01*
X105590477Y-73350057D02*
X105638096Y-73302438D01*
X105638096Y-73302438D02*
X105590477Y-73254819D01*
X105590477Y-73254819D02*
X105590477Y-73350057D01*
X106066667Y-73588152D02*
X106066667Y-74254819D01*
X106066667Y-73683390D02*
X106114286Y-73635771D01*
X106114286Y-73635771D02*
X106209524Y-73588152D01*
X106209524Y-73588152D02*
X106352381Y-73588152D01*
X106352381Y-73588152D02*
X106447619Y-73635771D01*
X106447619Y-73635771D02*
X106495238Y-73731009D01*
X106495238Y-73731009D02*
X106495238Y-74254819D01*
X107400000Y-73588152D02*
X107400000Y-74397676D01*
X107400000Y-74397676D02*
X107352381Y-74492914D01*
X107352381Y-74492914D02*
X107304762Y-74540533D01*
X107304762Y-74540533D02*
X107209524Y-74588152D01*
X107209524Y-74588152D02*
X107066667Y-74588152D01*
X107066667Y-74588152D02*
X106971429Y-74540533D01*
X107400000Y-74207200D02*
X107304762Y-74254819D01*
X107304762Y-74254819D02*
X107114286Y-74254819D01*
X107114286Y-74254819D02*
X107019048Y-74207200D01*
X107019048Y-74207200D02*
X106971429Y-74159580D01*
X106971429Y-74159580D02*
X106923810Y-74064342D01*
X106923810Y-74064342D02*
X106923810Y-73778628D01*
X106923810Y-73778628D02*
X106971429Y-73683390D01*
X106971429Y-73683390D02*
X107019048Y-73635771D01*
X107019048Y-73635771D02*
X107114286Y-73588152D01*
X107114286Y-73588152D02*
X107304762Y-73588152D01*
X107304762Y-73588152D02*
X107400000Y-73635771D01*
X108400000Y-74254819D02*
X107828572Y-74254819D01*
X108114286Y-74254819D02*
X108114286Y-73254819D01*
X108114286Y-73254819D02*
X108019048Y-73397676D01*
X108019048Y-73397676D02*
X107923810Y-73492914D01*
X107923810Y-73492914D02*
X107828572Y-73540533D01*
D12*
%TO.C,U5*%
X134000000Y-79080000D02*
X134000000Y-81280000D01*
X134000000Y-83280000D02*
X134000000Y-83880000D01*
X134000000Y-85780000D02*
X134000000Y-86380000D01*
X134000000Y-88380000D02*
X134000000Y-88980000D01*
X134000000Y-90880000D02*
X134000000Y-91480000D01*
X134000000Y-95680000D02*
X134000000Y-93480000D01*
X136500000Y-96380000D02*
X137200000Y-96380000D01*
X137200000Y-78380000D02*
X136500000Y-78380000D01*
X139700000Y-78380000D02*
X139100000Y-78380000D01*
X139700000Y-96380000D02*
X139100000Y-96380000D01*
X141600000Y-96380000D02*
X142300000Y-96380000D01*
X142300000Y-78380000D02*
X141600000Y-78380000D01*
X144200000Y-78380000D02*
X144800000Y-78380000D01*
X144200000Y-96380000D02*
X144800000Y-96380000D01*
X146700000Y-78380000D02*
X147300000Y-78380000D01*
X147300000Y-96380000D02*
X146700000Y-96380000D01*
X149200000Y-78380000D02*
X149900000Y-78380000D01*
X149200000Y-96380000D02*
X149900000Y-96380000D01*
X151800000Y-78380000D02*
X152400000Y-78380000D01*
X151800000Y-96380000D02*
X152400000Y-96380000D01*
X155000000Y-78380000D02*
X154300000Y-78380000D01*
X155000000Y-96380000D02*
X154300000Y-96380000D01*
X157500000Y-79080000D02*
X157500000Y-95680000D01*
X134000000Y-79080000D02*
G75*
G02*
X134700000Y-78380000I700000J0D01*
G01*
X134700000Y-96380000D02*
G75*
G02*
X134000000Y-95680000I0J700000D01*
G01*
X156800000Y-78380000D02*
G75*
G02*
X157500000Y-79080000I0J-700000D01*
G01*
X157500000Y-95680000D02*
G75*
G02*
X156800000Y-96380000I-700000J0D01*
G01*
%TO.C,R2*%
X111290000Y-90927064D02*
X111290000Y-86572936D01*
X114710000Y-90927064D02*
X114710000Y-86572936D01*
D13*
%TO.C,G\u002A\u002A\u002A*%
G36*
X141604774Y-86169970D02*
G01*
X141636759Y-86191418D01*
X141660923Y-86220730D01*
X141675179Y-86255759D01*
X141677440Y-86294360D01*
X141674121Y-86311832D01*
X141662649Y-86341657D01*
X141644478Y-86365563D01*
X141616662Y-86386648D01*
X141588068Y-86402290D01*
X141540803Y-86429999D01*
X141499042Y-86462545D01*
X141466570Y-86496790D01*
X141456233Y-86511536D01*
X141433891Y-86537173D01*
X141403615Y-86558382D01*
X141370914Y-86571891D01*
X141349342Y-86575015D01*
X141305947Y-86568381D01*
X141269793Y-86548662D01*
X141241287Y-86516126D01*
X141230539Y-86496249D01*
X141221667Y-86475256D01*
X141217997Y-86458459D01*
X141219295Y-86440051D01*
X141225326Y-86414224D01*
X141226981Y-86408024D01*
X141243455Y-86369832D01*
X141271620Y-86329260D01*
X141308871Y-86288478D01*
X141352605Y-86249655D01*
X141400216Y-86214962D01*
X141449098Y-86186567D01*
X141496648Y-86166640D01*
X141525686Y-86159242D01*
X141567054Y-86158529D01*
X141604774Y-86169970D01*
G37*
G36*
X148096725Y-88891181D02*
G01*
X148154294Y-88908382D01*
X148207054Y-88936341D01*
X148252616Y-88974284D01*
X148288586Y-89021441D01*
X148295088Y-89033193D01*
X148319637Y-89089812D01*
X148331818Y-89142346D01*
X148332276Y-89194175D01*
X148329624Y-89213731D01*
X148311291Y-89280626D01*
X148280861Y-89338781D01*
X148238636Y-89387789D01*
X148184916Y-89427240D01*
X148163637Y-89438625D01*
X148142699Y-89448171D01*
X148123881Y-89454251D01*
X148102732Y-89457629D01*
X148074797Y-89459067D01*
X148042705Y-89459333D01*
X148005026Y-89458884D01*
X147977839Y-89457054D01*
X147956648Y-89453111D01*
X147936957Y-89446329D01*
X147922339Y-89439821D01*
X147867191Y-89406224D01*
X147821516Y-89362671D01*
X147786340Y-89311234D01*
X147762691Y-89253986D01*
X147751593Y-89192998D01*
X147754074Y-89130343D01*
X147758292Y-89108608D01*
X147778513Y-89053336D01*
X147811079Y-89001385D01*
X147853334Y-88956004D01*
X147902621Y-88920446D01*
X147919094Y-88911839D01*
X147976734Y-88892138D01*
X148036742Y-88885509D01*
X148096725Y-88891181D01*
G37*
G36*
X144775547Y-90114338D02*
G01*
X144813205Y-90133213D01*
X144822099Y-90140345D01*
X144851050Y-90175128D01*
X144867056Y-90215870D01*
X144869404Y-90259844D01*
X144861965Y-90292753D01*
X144854229Y-90304606D01*
X144836953Y-90325009D01*
X144811642Y-90352352D01*
X144779796Y-90385026D01*
X144742919Y-90421424D01*
X144731228Y-90432706D01*
X144680758Y-90482256D01*
X144637716Y-90526765D01*
X144603349Y-90564888D01*
X144578903Y-90595276D01*
X144573157Y-90603481D01*
X144543476Y-90644037D01*
X144515887Y-90672109D01*
X144488012Y-90689540D01*
X144457476Y-90698167D01*
X144449673Y-90699115D01*
X144406405Y-90696817D01*
X144369464Y-90682416D01*
X144340077Y-90657918D01*
X144319469Y-90625328D01*
X144308867Y-90586654D01*
X144309496Y-90543899D01*
X144322583Y-90499072D01*
X144324631Y-90494536D01*
X144337523Y-90471371D01*
X144356784Y-90441967D01*
X144378987Y-90411447D01*
X144387366Y-90400768D01*
X144411507Y-90372201D01*
X144442086Y-90338227D01*
X144476939Y-90301031D01*
X144513901Y-90262802D01*
X144550809Y-90225726D01*
X144585499Y-90191991D01*
X144615805Y-90163783D01*
X144639564Y-90143291D01*
X144649641Y-90135701D01*
X144690868Y-90115504D01*
X144733802Y-90108409D01*
X144775547Y-90114338D01*
G37*
G36*
X141883669Y-89613148D02*
G01*
X141920830Y-89628627D01*
X141952742Y-89657993D01*
X141955310Y-89661276D01*
X141975612Y-89698913D01*
X141981415Y-89738522D01*
X141972828Y-89778658D01*
X141949960Y-89817877D01*
X141942783Y-89826513D01*
X141926835Y-89846742D01*
X141918549Y-89861819D01*
X141918583Y-89868176D01*
X141930189Y-89874641D01*
X141952931Y-89883634D01*
X141983378Y-89894080D01*
X142018102Y-89904908D01*
X142053673Y-89915044D01*
X142086662Y-89923415D01*
X142111768Y-89928632D01*
X142152356Y-89933032D01*
X142204138Y-89934666D01*
X142263590Y-89933682D01*
X142327190Y-89930231D01*
X142391416Y-89924464D01*
X142452743Y-89916528D01*
X142472859Y-89913269D01*
X142524863Y-89905316D01*
X142565197Y-89901944D01*
X142596609Y-89903590D01*
X142621848Y-89910689D01*
X142643663Y-89923679D01*
X142664803Y-89942996D01*
X142665672Y-89943906D01*
X142690206Y-89979496D01*
X142701006Y-90018684D01*
X142697922Y-90058869D01*
X142680805Y-90097450D01*
X142674999Y-90105650D01*
X142663527Y-90121866D01*
X142657820Y-90132314D01*
X142657763Y-90133991D01*
X142665787Y-90136999D01*
X142684287Y-90142676D01*
X142709155Y-90149767D01*
X142736071Y-90154829D01*
X142775930Y-90159070D01*
X142826696Y-90162465D01*
X142886330Y-90164991D01*
X142952794Y-90166623D01*
X143024050Y-90167338D01*
X143098061Y-90167111D01*
X143172789Y-90165919D01*
X143246196Y-90163738D01*
X143316244Y-90160545D01*
X143365534Y-90157457D01*
X143480208Y-90149233D01*
X143580675Y-90141926D01*
X143667702Y-90135476D01*
X143742054Y-90129825D01*
X143804496Y-90124914D01*
X143855793Y-90120686D01*
X143896710Y-90117081D01*
X143909391Y-90115892D01*
X143948872Y-90112169D01*
X143989003Y-90108478D01*
X144023562Y-90105387D01*
X144036917Y-90104235D01*
X144069910Y-90101148D01*
X144109179Y-90097049D01*
X144145491Y-90092910D01*
X144184293Y-90089234D01*
X144226967Y-90086700D01*
X144261764Y-90085881D01*
X144294883Y-90086988D01*
X144319287Y-90090975D01*
X144341190Y-90099214D01*
X144355248Y-90106510D01*
X144389952Y-90133200D01*
X144413630Y-90167300D01*
X144425342Y-90205992D01*
X144424149Y-90246458D01*
X144412789Y-90279168D01*
X144389410Y-90313266D01*
X144358640Y-90336730D01*
X144318713Y-90350470D01*
X144267861Y-90355398D01*
X144264874Y-90355430D01*
X144243606Y-90356379D01*
X144210432Y-90358843D01*
X144168343Y-90362552D01*
X144120331Y-90367240D01*
X144069385Y-90372637D01*
X144054832Y-90374258D01*
X143966420Y-90383561D01*
X143871402Y-90392364D01*
X143771375Y-90400595D01*
X143667933Y-90408184D01*
X143562674Y-90415060D01*
X143457192Y-90421151D01*
X143353084Y-90426386D01*
X143251944Y-90430695D01*
X143155369Y-90434005D01*
X143064954Y-90436246D01*
X142982294Y-90437348D01*
X142908987Y-90437237D01*
X142846626Y-90435845D01*
X142796809Y-90433098D01*
X142777207Y-90431207D01*
X142692986Y-90418572D01*
X142615953Y-90401375D01*
X142547180Y-90380156D01*
X142487738Y-90355456D01*
X142438697Y-90327814D01*
X142401128Y-90297769D01*
X142376101Y-90265862D01*
X142364688Y-90232631D01*
X142364078Y-90222980D01*
X142364068Y-90201979D01*
X142227176Y-90201532D01*
X142175821Y-90201152D01*
X142135909Y-90200167D01*
X142103886Y-90198244D01*
X142076194Y-90195046D01*
X142049277Y-90190240D01*
X142019579Y-90183490D01*
X142009624Y-90181043D01*
X141925152Y-90157706D01*
X141853722Y-90132578D01*
X141793390Y-90104672D01*
X141742217Y-90073000D01*
X141698262Y-90036576D01*
X141672331Y-90009530D01*
X141647158Y-89981517D01*
X141619838Y-89952027D01*
X141597175Y-89928362D01*
X141577552Y-89906597D01*
X141561781Y-89885842D01*
X141554042Y-89872214D01*
X141547376Y-89841472D01*
X141547308Y-89806844D01*
X141553456Y-89775078D01*
X141560459Y-89759392D01*
X141584050Y-89729007D01*
X141613031Y-89707855D01*
X141651940Y-89692697D01*
X141655198Y-89691764D01*
X141686291Y-89680496D01*
X141720830Y-89664238D01*
X141745215Y-89650270D01*
X141795410Y-89623946D01*
X141841712Y-89611580D01*
X141883669Y-89613148D01*
G37*
G36*
X147289474Y-86803786D02*
G01*
X147327731Y-86817842D01*
X147359758Y-86841959D01*
X147383611Y-86874503D01*
X147397343Y-86913843D01*
X147399008Y-86958348D01*
X147396288Y-86975283D01*
X147392074Y-86989959D01*
X147384868Y-87005112D01*
X147373127Y-87022879D01*
X147355307Y-87045394D01*
X147329867Y-87074793D01*
X147302079Y-87105710D01*
X147258962Y-87154730D01*
X147226007Y-87196088D01*
X147202026Y-87231933D01*
X147185832Y-87264415D01*
X147176235Y-87295683D01*
X147172048Y-87327886D01*
X147171621Y-87341673D01*
X147175699Y-87395428D01*
X147187910Y-87446735D01*
X147206975Y-87492246D01*
X147231616Y-87528613D01*
X147249315Y-87545236D01*
X147282065Y-87567031D01*
X147314086Y-87583242D01*
X147342129Y-87592562D01*
X147362944Y-87593686D01*
X147366772Y-87592473D01*
X147375986Y-87587237D01*
X147380315Y-87579467D01*
X147380581Y-87565097D01*
X147377609Y-87540064D01*
X147377523Y-87539428D01*
X147373930Y-87504452D01*
X147371692Y-87466082D01*
X147371323Y-87447693D01*
X147372567Y-87418611D01*
X147377636Y-87397472D01*
X147388532Y-87377324D01*
X147393827Y-87369595D01*
X147426566Y-87335290D01*
X147466252Y-87313334D01*
X147510472Y-87304351D01*
X147556811Y-87308967D01*
X147586939Y-87319565D01*
X147624429Y-87342123D01*
X147649748Y-87371098D01*
X147665312Y-87409397D01*
X147666860Y-87415711D01*
X147669579Y-87433357D01*
X147672698Y-87463110D01*
X147675979Y-87502086D01*
X147679181Y-87547402D01*
X147682066Y-87596175D01*
X147682473Y-87603925D01*
X147685922Y-87661942D01*
X147690464Y-87725405D01*
X147695662Y-87788909D01*
X147701079Y-87847048D01*
X147705181Y-87885231D01*
X147712034Y-87946846D01*
X147716613Y-87995692D01*
X147718953Y-88033825D01*
X147719092Y-88063301D01*
X147717065Y-88086174D01*
X147712908Y-88104500D01*
X147709243Y-88114565D01*
X147687276Y-88148836D01*
X147654981Y-88175838D01*
X147615809Y-88194230D01*
X147573216Y-88202670D01*
X147530653Y-88199817D01*
X147507984Y-88192730D01*
X147488735Y-88181109D01*
X147466896Y-88162905D01*
X147456524Y-88152346D01*
X147437500Y-88126142D01*
X147424365Y-88094890D01*
X147416403Y-88055799D01*
X147412897Y-88006077D01*
X147412581Y-87981173D01*
X147412139Y-87952449D01*
X147410959Y-87930513D01*
X147409262Y-87918819D01*
X147408531Y-87917779D01*
X147399975Y-87920899D01*
X147383102Y-87928771D01*
X147374437Y-87933107D01*
X147338420Y-87955993D01*
X147304824Y-87985318D01*
X147278406Y-88016625D01*
X147269531Y-88031325D01*
X147256464Y-88066869D01*
X147247717Y-88110520D01*
X147244073Y-88155802D01*
X147246319Y-88196242D01*
X147248287Y-88206586D01*
X147257761Y-88240402D01*
X147270214Y-88270132D01*
X147287368Y-88297927D01*
X147310943Y-88325934D01*
X147342661Y-88356303D01*
X147384242Y-88391181D01*
X147416542Y-88416642D01*
X147451365Y-88444555D01*
X147481706Y-88470581D01*
X147505319Y-88492677D01*
X147519954Y-88508803D01*
X147522800Y-88513143D01*
X147538699Y-88557700D01*
X147541188Y-88601149D01*
X147531505Y-88641375D01*
X147510884Y-88676258D01*
X147480563Y-88703681D01*
X147441776Y-88721527D01*
X147397578Y-88727684D01*
X147377921Y-88726217D01*
X147357925Y-88720959D01*
X147335523Y-88710753D01*
X147308648Y-88694444D01*
X147275235Y-88670875D01*
X147233216Y-88638892D01*
X147219175Y-88627916D01*
X147164238Y-88583083D01*
X147120086Y-88542917D01*
X147084302Y-88504960D01*
X147054469Y-88466749D01*
X147040574Y-88446071D01*
X147000937Y-88370887D01*
X146973833Y-88290334D01*
X146959168Y-88206488D01*
X146956852Y-88121428D01*
X146966792Y-88037230D01*
X146988896Y-87955972D01*
X147023073Y-87879733D01*
X147068650Y-87811314D01*
X147084802Y-87791115D01*
X147030726Y-87733211D01*
X146983793Y-87674639D01*
X146944026Y-87608429D01*
X146913900Y-87539213D01*
X146898625Y-87485839D01*
X146890905Y-87440349D01*
X146885761Y-87390578D01*
X146883451Y-87341468D01*
X146884235Y-87297963D01*
X146887338Y-87270100D01*
X146909149Y-87185776D01*
X146942467Y-87105881D01*
X146958045Y-87077291D01*
X146977625Y-87047469D01*
X147003871Y-87012612D01*
X147034767Y-86974908D01*
X147068297Y-86936546D01*
X147102446Y-86899713D01*
X147135199Y-86866598D01*
X147164539Y-86839388D01*
X147188453Y-86820271D01*
X147202057Y-86812380D01*
X147246935Y-86801421D01*
X147289474Y-86803786D01*
G37*
G36*
X144993355Y-81956159D02*
G01*
X145094991Y-81958918D01*
X145208799Y-81968710D01*
X145321133Y-81985149D01*
X145429059Y-82008135D01*
X145450203Y-82013602D01*
X145486225Y-82023560D01*
X145522484Y-82034378D01*
X145560686Y-82046673D01*
X145602539Y-82061065D01*
X145649750Y-82078172D01*
X145704026Y-82098611D01*
X145767074Y-82123000D01*
X145840601Y-82151959D01*
X145923538Y-82184994D01*
X146057890Y-82237558D01*
X146181466Y-82283279D01*
X146296530Y-82322739D01*
X146405345Y-82356519D01*
X146510173Y-82385199D01*
X146613278Y-82409359D01*
X146716923Y-82429581D01*
X146823369Y-82446445D01*
X146934882Y-82460531D01*
X147038294Y-82471026D01*
X147098748Y-82476887D01*
X147146230Y-82482574D01*
X147182740Y-82488842D01*
X147210280Y-82496445D01*
X147230851Y-82506138D01*
X147246455Y-82518675D01*
X147259091Y-82534812D01*
X147270763Y-82555302D01*
X147272899Y-82559477D01*
X147283394Y-82595644D01*
X147282219Y-82635364D01*
X147270310Y-82674052D01*
X147248600Y-82707120D01*
X147241342Y-82714343D01*
X147212910Y-82731980D01*
X147174976Y-82744013D01*
X147132477Y-82748903D01*
X147130319Y-82748933D01*
X147101099Y-82751702D01*
X147083901Y-82759075D01*
X147082516Y-82760514D01*
X147077826Y-82768871D01*
X147085224Y-82771531D01*
X147090974Y-82771617D01*
X147101983Y-82774856D01*
X147124529Y-82784093D01*
X147156792Y-82798490D01*
X147196954Y-82817210D01*
X147243195Y-82839414D01*
X147293696Y-82864266D01*
X147311311Y-82873069D01*
X147382361Y-82908284D01*
X147442565Y-82936976D01*
X147494177Y-82959930D01*
X147539454Y-82977930D01*
X147580652Y-82991762D01*
X147620027Y-83002211D01*
X147659833Y-83010062D01*
X147702328Y-83016099D01*
X147731602Y-83019336D01*
X147790063Y-83022885D01*
X147850770Y-83021466D01*
X147916959Y-83014803D01*
X147991869Y-83002623D01*
X148038954Y-82993263D01*
X148121398Y-82979480D01*
X148192744Y-82975165D01*
X148253665Y-82980487D01*
X148304835Y-82995616D01*
X148346929Y-83020720D01*
X148380621Y-83055968D01*
X148397633Y-83083078D01*
X148407216Y-83105978D01*
X148412282Y-83132744D01*
X148413852Y-83168809D01*
X148413854Y-83169345D01*
X148413086Y-83200452D01*
X148409534Y-83224964D01*
X148401665Y-83249300D01*
X148387948Y-83279878D01*
X148386994Y-83281867D01*
X148356376Y-83336556D01*
X148314558Y-83397235D01*
X148263039Y-83461905D01*
X148203318Y-83528564D01*
X148197646Y-83534535D01*
X148126441Y-83603121D01*
X148056174Y-83658134D01*
X147984986Y-83700740D01*
X147911016Y-83732106D01*
X147857686Y-83747731D01*
X147826896Y-83756074D01*
X147800989Y-83764564D01*
X147783988Y-83771820D01*
X147780421Y-83774215D01*
X147774449Y-83781764D01*
X147779232Y-83783775D01*
X147795758Y-83780152D01*
X147825013Y-83770798D01*
X147828913Y-83769463D01*
X147878770Y-83757047D01*
X147921367Y-83757096D01*
X147958143Y-83769850D01*
X147990536Y-83795549D01*
X147991593Y-83796669D01*
X148016643Y-83833229D01*
X148027677Y-83872864D01*
X148024739Y-83913415D01*
X148007874Y-83952722D01*
X147987859Y-83978286D01*
X147964378Y-83999474D01*
X147937617Y-84015965D01*
X147904211Y-84029259D01*
X147860789Y-84040861D01*
X147835500Y-84046250D01*
X147724635Y-84065321D01*
X147612915Y-84078402D01*
X147503089Y-84085410D01*
X147397906Y-84086264D01*
X147300114Y-84080881D01*
X147212462Y-84069181D01*
X147192892Y-84065352D01*
X147146037Y-84053684D01*
X147090060Y-84036794D01*
X147029273Y-84016139D01*
X146967988Y-83993177D01*
X146915643Y-83971603D01*
X146883689Y-83958094D01*
X146861481Y-83950076D01*
X146845156Y-83946719D01*
X146830854Y-83947191D01*
X146816357Y-83950245D01*
X146784695Y-83958217D01*
X146798579Y-83985450D01*
X146811436Y-84025558D01*
X146810623Y-84065504D01*
X146797303Y-84102877D01*
X146772640Y-84135264D01*
X146737796Y-84160252D01*
X146708702Y-84171839D01*
X146689412Y-84176726D01*
X146670776Y-84179310D01*
X146650603Y-84179213D01*
X146626703Y-84176061D01*
X146596883Y-84169479D01*
X146558955Y-84159092D01*
X146510725Y-84144524D01*
X146464617Y-84130039D01*
X146378774Y-84101945D01*
X146301541Y-84074545D01*
X146228549Y-84046063D01*
X146155433Y-84014721D01*
X146077825Y-83978740D01*
X146002303Y-83941806D01*
X145916119Y-83899705D01*
X145840480Y-83864763D01*
X145773176Y-83836247D01*
X145711995Y-83813421D01*
X145654725Y-83795552D01*
X145599153Y-83781905D01*
X145543068Y-83771745D01*
X145484259Y-83764339D01*
X145461070Y-83762124D01*
X145402265Y-83758127D01*
X145336885Y-83755711D01*
X145269188Y-83754878D01*
X145203433Y-83755627D01*
X145143877Y-83757959D01*
X145094778Y-83761875D01*
X145092763Y-83762102D01*
X145047455Y-83769162D01*
X144991090Y-83780895D01*
X144926569Y-83796466D01*
X144856790Y-83815043D01*
X144784655Y-83835794D01*
X144713063Y-83857885D01*
X144644914Y-83880484D01*
X144583108Y-83902759D01*
X144532824Y-83922896D01*
X144489422Y-83943101D01*
X144437802Y-83969733D01*
X144381163Y-84000907D01*
X144322704Y-84034736D01*
X144265622Y-84069336D01*
X144213117Y-84102819D01*
X144168387Y-84133300D01*
X144140062Y-84154486D01*
X144128518Y-84166497D01*
X144129271Y-84173461D01*
X144135001Y-84174542D01*
X144148725Y-84177727D01*
X144174159Y-84186745D01*
X144209559Y-84200791D01*
X144253179Y-84219062D01*
X144303275Y-84240753D01*
X144358103Y-84265059D01*
X144415917Y-84291178D01*
X144474972Y-84318303D01*
X144533525Y-84345631D01*
X144589830Y-84372357D01*
X144642142Y-84397677D01*
X144688718Y-84420788D01*
X144727811Y-84440883D01*
X144757678Y-84457160D01*
X144776573Y-84468814D01*
X144781092Y-84472392D01*
X144798874Y-84493387D01*
X144813265Y-84516806D01*
X144813325Y-84516931D01*
X144824076Y-84534341D01*
X144837470Y-84541260D01*
X144849303Y-84542101D01*
X144865387Y-84539950D01*
X144878039Y-84531298D01*
X144891801Y-84512815D01*
X144894057Y-84509281D01*
X144897194Y-84505091D01*
X144917205Y-84478366D01*
X144946471Y-84447410D01*
X144977723Y-84420245D01*
X145006827Y-84400700D01*
X145016000Y-84396261D01*
X145058065Y-84385650D01*
X145098442Y-84387949D01*
X145135073Y-84401427D01*
X145165902Y-84424353D01*
X145188873Y-84454997D01*
X145201927Y-84491627D01*
X145203008Y-84532514D01*
X145199391Y-84550560D01*
X145186522Y-84578967D01*
X145163425Y-84610557D01*
X145154867Y-84620060D01*
X145125130Y-84659941D01*
X145107394Y-84704636D01*
X145101316Y-84755810D01*
X145106555Y-84815128D01*
X145110583Y-84836178D01*
X145118068Y-84864978D01*
X145125346Y-84878924D01*
X145132765Y-84877991D01*
X145140673Y-84862153D01*
X145148959Y-84833254D01*
X145165213Y-84778261D01*
X145186165Y-84730305D01*
X145214624Y-84683785D01*
X145242793Y-84646206D01*
X145275600Y-84609002D01*
X145314132Y-84571606D01*
X145354771Y-84537087D01*
X145393898Y-84508514D01*
X145427896Y-84488959D01*
X145428440Y-84488708D01*
X145471413Y-84476245D01*
X145513638Y-84477516D01*
X145526752Y-84482423D01*
X145552439Y-84492035D01*
X145582933Y-84516811D01*
X145608456Y-84551517D01*
X145634261Y-84598778D01*
X145659094Y-84656222D01*
X145664956Y-84671767D01*
X145688270Y-84727775D01*
X145719612Y-84791932D01*
X145757155Y-84861270D01*
X145799068Y-84932820D01*
X145843524Y-85003613D01*
X145888693Y-85070680D01*
X145932746Y-85131054D01*
X145973856Y-85181764D01*
X145990437Y-85200141D01*
X146018942Y-85229222D01*
X146049219Y-85258130D01*
X146076675Y-85282558D01*
X146089120Y-85292686D01*
X146111287Y-85309413D01*
X146124908Y-85317902D01*
X146133167Y-85319265D01*
X146139249Y-85314615D01*
X146141918Y-85311140D01*
X146150185Y-85296492D01*
X146152333Y-85288407D01*
X146150706Y-85278985D01*
X146146137Y-85257076D01*
X146139093Y-85224807D01*
X146130043Y-85184301D01*
X146119455Y-85137682D01*
X146111755Y-85104179D01*
X146095289Y-85032074D01*
X146082167Y-84972378D01*
X146072067Y-84922952D01*
X146064666Y-84881656D01*
X146059641Y-84846353D01*
X146056670Y-84814904D01*
X146055430Y-84785168D01*
X146055598Y-84755008D01*
X146056226Y-84736177D01*
X146058367Y-84697736D01*
X146061687Y-84669819D01*
X146067071Y-84647952D01*
X146075407Y-84627657D01*
X146079246Y-84619982D01*
X146107874Y-84576429D01*
X146142697Y-84545862D01*
X146185068Y-84527532D01*
X146236341Y-84520687D01*
X146257920Y-84520919D01*
X146284629Y-84522859D01*
X146288367Y-84523131D01*
X146313481Y-84527833D01*
X146338970Y-84536635D01*
X146370543Y-84551150D01*
X146377944Y-84554808D01*
X146413593Y-84573891D01*
X146451099Y-84596112D01*
X146483461Y-84617284D01*
X146489183Y-84621376D01*
X146514010Y-84638521D01*
X146528268Y-84645978D01*
X146531668Y-84643604D01*
X146531245Y-84642439D01*
X146512563Y-84596410D01*
X146499920Y-84559046D01*
X146492202Y-84525825D01*
X146488298Y-84492222D01*
X146487191Y-84463349D01*
X146487213Y-84428762D01*
X146489185Y-84403878D01*
X146494058Y-84383430D01*
X146502784Y-84362150D01*
X146507078Y-84353216D01*
X146535561Y-84308489D01*
X146573582Y-84272639D01*
X146623529Y-84243422D01*
X146624584Y-84242929D01*
X146644124Y-84234491D01*
X146662222Y-84228903D01*
X146682787Y-84225585D01*
X146709729Y-84223957D01*
X146746958Y-84223441D01*
X146756202Y-84223419D01*
X146815112Y-84225081D01*
X146874170Y-84230569D01*
X146936736Y-84240419D01*
X147006173Y-84255163D01*
X147085840Y-84275337D01*
X147090018Y-84276462D01*
X147119312Y-84284433D01*
X147147097Y-84292188D01*
X147174558Y-84300125D01*
X147202882Y-84308646D01*
X147233255Y-84318153D01*
X147266864Y-84329045D01*
X147304896Y-84341725D01*
X147348537Y-84356592D01*
X147398973Y-84374048D01*
X147457391Y-84394494D01*
X147524978Y-84418330D01*
X147602920Y-84445958D01*
X147692403Y-84477779D01*
X147794614Y-84514193D01*
X147813910Y-84521071D01*
X147854605Y-84535444D01*
X147893607Y-84548974D01*
X147901131Y-84551531D01*
X147927153Y-84560374D01*
X147951483Y-84568356D01*
X147956438Y-84569896D01*
X148045846Y-84601253D01*
X148141373Y-84642497D01*
X148239579Y-84691949D01*
X148337023Y-84747934D01*
X148387773Y-84780068D01*
X148439844Y-84814946D01*
X148486153Y-84847850D01*
X148530512Y-84881723D01*
X148576732Y-84919506D01*
X148628627Y-84964140D01*
X148645101Y-84978626D01*
X148673209Y-85002636D01*
X148697788Y-85022143D01*
X148716478Y-85035380D01*
X148726918Y-85040581D01*
X148727774Y-85040515D01*
X148741569Y-85037005D01*
X148768119Y-85031722D01*
X148805320Y-85024993D01*
X148851074Y-85017146D01*
X148903277Y-85008508D01*
X148959828Y-84999408D01*
X149018628Y-84990173D01*
X149077573Y-84981131D01*
X149134563Y-84972609D01*
X149187497Y-84964936D01*
X149234273Y-84958439D01*
X149272790Y-84953446D01*
X149300947Y-84950284D01*
X149311888Y-84949408D01*
X149398711Y-84949363D01*
X149478095Y-84959709D01*
X149553931Y-84981001D01*
X149567022Y-84985854D01*
X149601455Y-84997897D01*
X149626938Y-85003655D01*
X149647717Y-85003984D01*
X149653289Y-85003217D01*
X149694452Y-84994795D01*
X149740100Y-84983066D01*
X149785703Y-84969412D01*
X149826731Y-84955213D01*
X149858655Y-84941849D01*
X149864757Y-84938761D01*
X149900382Y-84924580D01*
X149930140Y-84922361D01*
X149952658Y-84931601D01*
X149966563Y-84951794D01*
X149970585Y-84977668D01*
X149969107Y-84994206D01*
X149962973Y-85008255D01*
X149949633Y-85023929D01*
X149931202Y-85041171D01*
X149880322Y-85093555D01*
X149840793Y-85150387D01*
X149812789Y-85207471D01*
X149800011Y-85240104D01*
X149792771Y-85266060D01*
X149789746Y-85292004D01*
X149789607Y-85324319D01*
X149789688Y-85365266D01*
X149787796Y-85405664D01*
X149783562Y-85446945D01*
X149776615Y-85490545D01*
X149766585Y-85537897D01*
X149753103Y-85590435D01*
X149735800Y-85649592D01*
X149714304Y-85716803D01*
X149688248Y-85793501D01*
X149657260Y-85881120D01*
X149620971Y-85981095D01*
X149618467Y-85987924D01*
X149594798Y-86052696D01*
X149572811Y-86113295D01*
X149553035Y-86168236D01*
X149535998Y-86216031D01*
X149522228Y-86255193D01*
X149512253Y-86284237D01*
X149506600Y-86301674D01*
X149505493Y-86306104D01*
X149507743Y-86316139D01*
X149514002Y-86337996D01*
X149523536Y-86369265D01*
X149535609Y-86407534D01*
X149549485Y-86450394D01*
X149549761Y-86451235D01*
X149568711Y-86509133D01*
X149583780Y-86555557D01*
X149595791Y-86593284D01*
X149605567Y-86625087D01*
X149613932Y-86653740D01*
X149621707Y-86682017D01*
X149629717Y-86712693D01*
X149638784Y-86748542D01*
X149643228Y-86766303D01*
X149691001Y-86974119D01*
X149728944Y-87177144D01*
X149757495Y-87378996D01*
X149777093Y-87583290D01*
X149788175Y-87793643D01*
X149791232Y-87988184D01*
X149789214Y-88147590D01*
X149782951Y-88297126D01*
X149772078Y-88441412D01*
X149756234Y-88585069D01*
X149735057Y-88732719D01*
X149730671Y-88759951D01*
X149716233Y-88848224D01*
X149900266Y-89131274D01*
X149958954Y-89222209D01*
X150009570Y-89302253D01*
X150052780Y-89372711D01*
X150089251Y-89434886D01*
X150119652Y-89490082D01*
X150144649Y-89539604D01*
X150164910Y-89584754D01*
X150181101Y-89626838D01*
X150193890Y-89667159D01*
X150203944Y-89707021D01*
X150209909Y-89736413D01*
X150224082Y-89782834D01*
X150249030Y-89833367D01*
X150282419Y-89884835D01*
X150321912Y-89934058D01*
X150365173Y-89977858D01*
X150409865Y-90013058D01*
X150416369Y-90017287D01*
X150449951Y-90041756D01*
X150469201Y-90064137D01*
X150474486Y-90085329D01*
X150466176Y-90106231D01*
X150457177Y-90116715D01*
X150448616Y-90124095D01*
X150438697Y-90128459D01*
X150423966Y-90130256D01*
X150400963Y-90129931D01*
X150369035Y-90128113D01*
X150333559Y-90126003D01*
X150288572Y-90123557D01*
X150239553Y-90121061D01*
X150191981Y-90118803D01*
X150186661Y-90118564D01*
X150076423Y-90113623D01*
X150040382Y-90136531D01*
X149973629Y-90171360D01*
X149894056Y-90199279D01*
X149802244Y-90220125D01*
X149698771Y-90233738D01*
X149685528Y-90234884D01*
X149653353Y-90237185D01*
X149609116Y-90239861D01*
X149555752Y-90242761D01*
X149496192Y-90245734D01*
X149433372Y-90248627D01*
X149370222Y-90251289D01*
X149361061Y-90251653D01*
X149130362Y-90260737D01*
X149083754Y-90321376D01*
X149063918Y-90345528D01*
X149035828Y-90377455D01*
X149001970Y-90414451D01*
X148964824Y-90453811D01*
X148926876Y-90492829D01*
X148920626Y-90499130D01*
X148832282Y-90583921D01*
X148747105Y-90657176D01*
X148662337Y-90721141D01*
X148588300Y-90770039D01*
X148562105Y-90785214D01*
X148523495Y-90806045D01*
X148473689Y-90831922D01*
X148413906Y-90862239D01*
X148345364Y-90896386D01*
X148269282Y-90933757D01*
X148186878Y-90973742D01*
X148099371Y-91015734D01*
X148026574Y-91050334D01*
X147909563Y-91106258D01*
X147798744Y-91160309D01*
X147695198Y-91211924D01*
X147600011Y-91260544D01*
X147514265Y-91305606D01*
X147439042Y-91346549D01*
X147375427Y-91382813D01*
X147324503Y-91413835D01*
X147322447Y-91415151D01*
X147269303Y-91444228D01*
X147221818Y-91459713D01*
X147180188Y-91461542D01*
X147177804Y-91461204D01*
X147129345Y-91447466D01*
X147089533Y-91422125D01*
X147057736Y-91384598D01*
X147033324Y-91334302D01*
X147029921Y-91324612D01*
X147023338Y-91302599D01*
X147018431Y-91279494D01*
X147014845Y-91252205D01*
X147012224Y-91217641D01*
X147010213Y-91172709D01*
X147009326Y-91145429D01*
X147005461Y-91016169D01*
X146983416Y-91050930D01*
X146956957Y-91087484D01*
X146925023Y-91123722D01*
X146891103Y-91156212D01*
X146858692Y-91181521D01*
X146838718Y-91193151D01*
X146792361Y-91207260D01*
X146744142Y-91208409D01*
X146697437Y-91197306D01*
X146655623Y-91174656D01*
X146628397Y-91149215D01*
X146597010Y-91102167D01*
X146570171Y-91041007D01*
X146547860Y-90965674D01*
X146530057Y-90876109D01*
X146523637Y-90832103D01*
X146517478Y-90785723D01*
X146510552Y-90734090D01*
X146503897Y-90684927D01*
X146500430Y-90659569D01*
X146495781Y-90619807D01*
X146491295Y-90570979D01*
X146487457Y-90519021D01*
X146484753Y-90469866D01*
X146484574Y-90465576D01*
X146482608Y-90421729D01*
X146480564Y-90390300D01*
X146478031Y-90368710D01*
X146474597Y-90354378D01*
X146469853Y-90344723D01*
X146464272Y-90338051D01*
X146448799Y-90321071D01*
X146431782Y-90300718D01*
X146429811Y-90298229D01*
X146420910Y-90287749D01*
X146411627Y-90280534D01*
X146398745Y-90275566D01*
X146379044Y-90271823D01*
X146349307Y-90268287D01*
X146328618Y-90266173D01*
X146262173Y-90260572D01*
X146190113Y-90256352D01*
X146115910Y-90253579D01*
X146043038Y-90252315D01*
X145974969Y-90252624D01*
X145915178Y-90254570D01*
X145871028Y-90257802D01*
X145785096Y-90270309D01*
X145690922Y-90290540D01*
X145592364Y-90317351D01*
X145493279Y-90349598D01*
X145397526Y-90386135D01*
X145315918Y-90422447D01*
X145266375Y-90447630D01*
X145208014Y-90479482D01*
X145144251Y-90515980D01*
X145078498Y-90555105D01*
X145014169Y-90594833D01*
X144954677Y-90633144D01*
X144915510Y-90659575D01*
X144884145Y-90680198D01*
X144854097Y-90698056D01*
X144829245Y-90710944D01*
X144816005Y-90716117D01*
X144774865Y-90720320D01*
X144736787Y-90711728D01*
X144703651Y-90692499D01*
X144677339Y-90664796D01*
X144659729Y-90630778D01*
X144652703Y-90592605D01*
X144658140Y-90552438D01*
X144662651Y-90539916D01*
X144668709Y-90522459D01*
X144670116Y-90511791D01*
X144669694Y-90510943D01*
X144673381Y-90504721D01*
X144688018Y-90491524D01*
X144711990Y-90472581D01*
X144743688Y-90449122D01*
X144781498Y-90422375D01*
X144822188Y-90394655D01*
X144974005Y-90299345D01*
X145127457Y-90215324D01*
X145281307Y-90143102D01*
X145434316Y-90083189D01*
X145585246Y-90036094D01*
X145732858Y-90002326D01*
X145803514Y-89990812D01*
X145857492Y-89984898D01*
X145923086Y-89980496D01*
X145996967Y-89977796D01*
X146045304Y-89977061D01*
X146091498Y-89976536D01*
X146132422Y-89975714D01*
X146165766Y-89974673D01*
X146189218Y-89973486D01*
X146200466Y-89972230D01*
X146201062Y-89971964D01*
X146198987Y-89964384D01*
X146190496Y-89946442D01*
X146176874Y-89920651D01*
X146159405Y-89889526D01*
X146155306Y-89882439D01*
X146127554Y-89833048D01*
X146095468Y-89773182D01*
X146060689Y-89706127D01*
X146024854Y-89635172D01*
X145989604Y-89563602D01*
X145956578Y-89494706D01*
X145927415Y-89431770D01*
X145903756Y-89378082D01*
X145903737Y-89378039D01*
X145850482Y-89247079D01*
X145802338Y-89116653D01*
X145758541Y-88984160D01*
X145718328Y-88847000D01*
X145680934Y-88702571D01*
X145645597Y-88548274D01*
X145612543Y-88386622D01*
X145598040Y-88302344D01*
X145584654Y-88205807D01*
X145572580Y-88099729D01*
X145562014Y-87986826D01*
X145553152Y-87869814D01*
X145546189Y-87751410D01*
X145541320Y-87634330D01*
X145538742Y-87521291D01*
X145538712Y-87487452D01*
X145773027Y-87487452D01*
X145773668Y-87566580D01*
X145774946Y-87646211D01*
X145776821Y-87723575D01*
X145779254Y-87795901D01*
X145782204Y-87860420D01*
X145785631Y-87914359D01*
X145787879Y-87940284D01*
X145817057Y-88181534D01*
X145855811Y-88412576D01*
X145904580Y-88635099D01*
X145963804Y-88850796D01*
X146033921Y-89061356D01*
X146115372Y-89268473D01*
X146158661Y-89367248D01*
X146253670Y-89560673D01*
X146358594Y-89743078D01*
X146473765Y-89914986D01*
X146599515Y-90076923D01*
X146635234Y-90118899D01*
X146658125Y-90146510D01*
X146678058Y-90172775D01*
X146692307Y-90193989D01*
X146697121Y-90203049D01*
X146702648Y-90225309D01*
X146706199Y-90259324D01*
X146707442Y-90301587D01*
X146708307Y-90331609D01*
X146710735Y-90373504D01*
X146714474Y-90424705D01*
X146719271Y-90482647D01*
X146724876Y-90544760D01*
X146731035Y-90608477D01*
X146737499Y-90671233D01*
X146744013Y-90730459D01*
X146750328Y-90783587D01*
X146756191Y-90828052D01*
X146761349Y-90861285D01*
X146763392Y-90871976D01*
X146768959Y-90898802D01*
X146773058Y-90919326D01*
X146774918Y-90929668D01*
X146774956Y-90930113D01*
X146777264Y-90934438D01*
X146784494Y-90928253D01*
X146797102Y-90910908D01*
X146815542Y-90881756D01*
X146840271Y-90840147D01*
X146850104Y-90823199D01*
X146895716Y-90749139D01*
X146938879Y-90689463D01*
X146980055Y-90643840D01*
X147019704Y-90611936D01*
X147058289Y-90593418D01*
X147096270Y-90587953D01*
X147134110Y-90595208D01*
X147153891Y-90603901D01*
X147178651Y-90618665D01*
X147199200Y-90635735D01*
X147215816Y-90656470D01*
X147228780Y-90682232D01*
X147238371Y-90714378D01*
X147244868Y-90754270D01*
X147248552Y-90803267D01*
X147249701Y-90862728D01*
X147248596Y-90934014D01*
X147245515Y-91018484D01*
X147244367Y-91044020D01*
X147242511Y-91088680D01*
X147241297Y-91127728D01*
X147240763Y-91158877D01*
X147240945Y-91179845D01*
X147241881Y-91188346D01*
X147242020Y-91188423D01*
X147249938Y-91184889D01*
X147267843Y-91175354D01*
X147292788Y-91161420D01*
X147312595Y-91150061D01*
X147336467Y-91136776D01*
X147371403Y-91118075D01*
X147415019Y-91095196D01*
X147464932Y-91069378D01*
X147518759Y-91041860D01*
X147574118Y-91013880D01*
X147586700Y-91007569D01*
X147641812Y-90979787D01*
X147695700Y-90952298D01*
X147746032Y-90926315D01*
X147790478Y-90903053D01*
X147826705Y-90883724D01*
X147852381Y-90869543D01*
X147856753Y-90867018D01*
X147893196Y-90846047D01*
X147935370Y-90822344D01*
X147975718Y-90800143D01*
X147986444Y-90794351D01*
X148021587Y-90774853D01*
X148057739Y-90753758D01*
X148088950Y-90734575D01*
X148098966Y-90728055D01*
X148124420Y-90711126D01*
X148147458Y-90695913D01*
X148162729Y-90685946D01*
X148177606Y-90677958D01*
X148202385Y-90666269D01*
X148233034Y-90652740D01*
X148252746Y-90644437D01*
X148286252Y-90630257D01*
X148318287Y-90615862D01*
X148352060Y-90599693D01*
X148390776Y-90580188D01*
X148437644Y-90555789D01*
X148467742Y-90539885D01*
X148523708Y-90506013D01*
X148585402Y-90461268D01*
X148650743Y-90407587D01*
X148717652Y-90346909D01*
X148784048Y-90281171D01*
X148847851Y-90212311D01*
X148906981Y-90142267D01*
X148939078Y-90100842D01*
X148981025Y-90044713D01*
X149035093Y-90034693D01*
X149060153Y-90031348D01*
X149096674Y-90028188D01*
X149141113Y-90025435D01*
X149189928Y-90023313D01*
X149235440Y-90022112D01*
X149341429Y-90019638D01*
X149440782Y-90016091D01*
X149532375Y-90011559D01*
X149615083Y-90006133D01*
X149687782Y-89999901D01*
X149749345Y-89992954D01*
X149798649Y-89985379D01*
X149834568Y-89977268D01*
X149845704Y-89973605D01*
X149859206Y-89965219D01*
X149868361Y-89950571D01*
X149873841Y-89927290D01*
X149876317Y-89893005D01*
X149876636Y-89864412D01*
X149875285Y-89829673D01*
X149870805Y-89797322D01*
X149862226Y-89764073D01*
X149848573Y-89726636D01*
X149828877Y-89681723D01*
X149812327Y-89646870D01*
X149770925Y-89567891D01*
X149727879Y-89498074D01*
X149684139Y-89438637D01*
X149640653Y-89390797D01*
X149598371Y-89355771D01*
X149574216Y-89341531D01*
X149555487Y-89333412D01*
X149536378Y-89328276D01*
X149512686Y-89325485D01*
X149480209Y-89324405D01*
X149460484Y-89324306D01*
X149381719Y-89324306D01*
X149291480Y-89367478D01*
X149195276Y-89407564D01*
X149101096Y-89434306D01*
X149005821Y-89448454D01*
X148942882Y-89451246D01*
X148895035Y-89450512D01*
X148859454Y-89446301D01*
X148833489Y-89436719D01*
X148814487Y-89419871D01*
X148799796Y-89393860D01*
X148786763Y-89356793D01*
X148780516Y-89335226D01*
X148775225Y-89312985D01*
X148771441Y-89288065D01*
X148768951Y-89257592D01*
X148767545Y-89218693D01*
X148767010Y-89168494D01*
X148766988Y-89151772D01*
X148767940Y-89084540D01*
X148771327Y-89028411D01*
X148777974Y-88979573D01*
X148788707Y-88934213D01*
X148804353Y-88888517D01*
X148825737Y-88838672D01*
X148842395Y-88803695D01*
X148861753Y-88765314D01*
X148878657Y-88735813D01*
X148896369Y-88710642D01*
X148918148Y-88685247D01*
X148947256Y-88655077D01*
X148952922Y-88649391D01*
X149011515Y-88596554D01*
X149070934Y-88555687D01*
X149135572Y-88524183D01*
X149202108Y-88501606D01*
X149255704Y-88490522D01*
X149316526Y-88484838D01*
X149378937Y-88484636D01*
X149437300Y-88489999D01*
X149474731Y-88497642D01*
X149499435Y-88503862D01*
X149517692Y-88507559D01*
X149525446Y-88507947D01*
X149526586Y-88500042D01*
X149528425Y-88479124D01*
X149530825Y-88447159D01*
X149533643Y-88406114D01*
X149536740Y-88357955D01*
X149539976Y-88304648D01*
X149540049Y-88303400D01*
X149544256Y-88216687D01*
X149547166Y-88123404D01*
X149548805Y-88026156D01*
X149549200Y-87927551D01*
X149548376Y-87830193D01*
X149546361Y-87736690D01*
X149543181Y-87649646D01*
X149538862Y-87571670D01*
X149533431Y-87505366D01*
X149531821Y-87490195D01*
X149526945Y-87449787D01*
X149522062Y-87414593D01*
X149517601Y-87387344D01*
X149513991Y-87370770D01*
X149512508Y-87367178D01*
X149504022Y-87368436D01*
X149485660Y-87377553D01*
X149459407Y-87393202D01*
X149427248Y-87414053D01*
X149391168Y-87438779D01*
X149353151Y-87466051D01*
X149315182Y-87494541D01*
X149279247Y-87522920D01*
X149276698Y-87524999D01*
X149234585Y-87559555D01*
X149203253Y-87585799D01*
X149181834Y-87604876D01*
X149169458Y-87617927D01*
X149165258Y-87626094D01*
X149168363Y-87630521D01*
X149177905Y-87632350D01*
X149193015Y-87632722D01*
X149194765Y-87632723D01*
X149216714Y-87637220D01*
X149235883Y-87652754D01*
X149238524Y-87655803D01*
X149249389Y-87670951D01*
X149255278Y-87687095D01*
X149257602Y-87709563D01*
X149257871Y-87728943D01*
X149252956Y-87776853D01*
X149237934Y-87820084D01*
X149212170Y-87859075D01*
X149175030Y-87894268D01*
X149125877Y-87926102D01*
X149064078Y-87955017D01*
X148988997Y-87981454D01*
X148899998Y-88005853D01*
X148837862Y-88020083D01*
X148789465Y-88028860D01*
X148730413Y-88037039D01*
X148665050Y-88044226D01*
X148597723Y-88050026D01*
X148532776Y-88054047D01*
X148474557Y-88055893D01*
X148444034Y-88055780D01*
X148378854Y-88053126D01*
X148310010Y-88048204D01*
X148240684Y-88041403D01*
X148174057Y-88033115D01*
X148113311Y-88023727D01*
X148061627Y-88013632D01*
X148026595Y-88004603D01*
X147973751Y-87984396D01*
X147935394Y-87960897D01*
X147911581Y-87934853D01*
X147902367Y-87907011D01*
X147907811Y-87878116D01*
X147927968Y-87848916D01*
X147962895Y-87820157D01*
X148010588Y-87793554D01*
X148037660Y-87782819D01*
X148076963Y-87770084D01*
X148125962Y-87756014D01*
X148182126Y-87741274D01*
X148242919Y-87726527D01*
X148305808Y-87712439D01*
X148368259Y-87699673D01*
X148369685Y-87699397D01*
X148460368Y-87681891D01*
X148459703Y-87586832D01*
X148459037Y-87491772D01*
X148482123Y-87462853D01*
X148498594Y-87445418D01*
X148524790Y-87421449D01*
X148558160Y-87393032D01*
X148596149Y-87362256D01*
X148636206Y-87331204D01*
X148675775Y-87301965D01*
X148699084Y-87285566D01*
X148728088Y-87264471D01*
X148757807Y-87241033D01*
X148777850Y-87223843D01*
X148803368Y-87201729D01*
X148831678Y-87179748D01*
X148865229Y-87156199D01*
X148906470Y-87129382D01*
X148957852Y-87097596D01*
X148972888Y-87088482D01*
X149059155Y-87036356D01*
X148987891Y-87034739D01*
X148858565Y-87028701D01*
X148740944Y-87016538D01*
X148632896Y-86997932D01*
X148532293Y-86972567D01*
X148496544Y-86961409D01*
X148456572Y-86946244D01*
X148412522Y-86926241D01*
X148368449Y-86903549D01*
X148328411Y-86880320D01*
X148296462Y-86858704D01*
X148284679Y-86849074D01*
X148252596Y-86813091D01*
X148233713Y-86775777D01*
X148228222Y-86738746D01*
X148236319Y-86703614D01*
X148258197Y-86671994D01*
X148262891Y-86667459D01*
X148290594Y-86649071D01*
X148332724Y-86631263D01*
X148388714Y-86614128D01*
X148457995Y-86597758D01*
X148539999Y-86582243D01*
X148634159Y-86567677D01*
X148739907Y-86554150D01*
X148856674Y-86541755D01*
X148983893Y-86530584D01*
X149120997Y-86520728D01*
X149200011Y-86515924D01*
X149239225Y-86513452D01*
X149272880Y-86510888D01*
X149298244Y-86508474D01*
X149312588Y-86506454D01*
X149314722Y-86505735D01*
X149314378Y-86497272D01*
X149309581Y-86480204D01*
X149302138Y-86459560D01*
X149293854Y-86440371D01*
X149286852Y-86428075D01*
X149276246Y-86421074D01*
X149257016Y-86413202D01*
X149248657Y-86410542D01*
X149208421Y-86395152D01*
X149161271Y-86371379D01*
X149110808Y-86341538D01*
X149060638Y-86307942D01*
X149014363Y-86272907D01*
X148975587Y-86238747D01*
X148965852Y-86228907D01*
X148950877Y-86212775D01*
X148937592Y-86197245D01*
X148924909Y-86180529D01*
X148911738Y-86160835D01*
X148896991Y-86136373D01*
X148879578Y-86105352D01*
X148858412Y-86065982D01*
X148832402Y-86016473D01*
X148807235Y-85968090D01*
X148773824Y-85907175D01*
X148737045Y-85846077D01*
X148699223Y-85788352D01*
X148662683Y-85737556D01*
X148631509Y-85699224D01*
X148617659Y-85684584D01*
X148602592Y-85671342D01*
X148584046Y-85658075D01*
X148559762Y-85643359D01*
X148527478Y-85625770D01*
X148484935Y-85603886D01*
X148460896Y-85591783D01*
X148411702Y-85566902D01*
X148359836Y-85540298D01*
X148309516Y-85514158D01*
X148264960Y-85490670D01*
X148235609Y-85474884D01*
X148146088Y-85426051D01*
X148123479Y-85447299D01*
X148105632Y-85467910D01*
X148091542Y-85490559D01*
X148090211Y-85493475D01*
X148082275Y-85524761D01*
X148079653Y-85566546D01*
X148082212Y-85615348D01*
X148089823Y-85667685D01*
X148098159Y-85704844D01*
X148111546Y-85762903D01*
X148121364Y-85819085D01*
X148127302Y-85870492D01*
X148129050Y-85914229D01*
X148126296Y-85947402D01*
X148124869Y-85953703D01*
X148113233Y-85978775D01*
X148092658Y-86007282D01*
X148066972Y-86034782D01*
X148040001Y-86056829D01*
X148031453Y-86062161D01*
X148021709Y-86068640D01*
X148021624Y-86075167D01*
X148031459Y-86086992D01*
X148032767Y-86088416D01*
X148052144Y-86115241D01*
X148071094Y-86151239D01*
X148086950Y-86190749D01*
X148095947Y-86222588D01*
X148100843Y-86279543D01*
X148092526Y-86340977D01*
X148078976Y-86385448D01*
X148057889Y-86425663D01*
X148026185Y-86466019D01*
X147987712Y-86502675D01*
X147946318Y-86531792D01*
X147918931Y-86545145D01*
X147876180Y-86556819D01*
X147826885Y-86562516D01*
X147776786Y-86562108D01*
X147731625Y-86555466D01*
X147712640Y-86549749D01*
X147655364Y-86520793D01*
X147606360Y-86481010D01*
X147566947Y-86432461D01*
X147538449Y-86377207D01*
X147522185Y-86317312D01*
X147519476Y-86254838D01*
X147519958Y-86248993D01*
X147521907Y-86221923D01*
X147520972Y-86205580D01*
X147516446Y-86195846D01*
X147509885Y-86190133D01*
X147498213Y-86176656D01*
X147483924Y-86152309D01*
X147468681Y-86120606D01*
X147454142Y-86085056D01*
X147441970Y-86049171D01*
X147439970Y-86042282D01*
X147421951Y-85959996D01*
X147416401Y-85885038D01*
X147423354Y-85816339D01*
X147442845Y-85752832D01*
X147449770Y-85737456D01*
X147467118Y-85706708D01*
X147489167Y-85678525D01*
X147518004Y-85651008D01*
X147555719Y-85622260D01*
X147604401Y-85590381D01*
X147626373Y-85576953D01*
X147663101Y-85553883D01*
X147698622Y-85529893D01*
X147729139Y-85507653D01*
X147750855Y-85489833D01*
X147752663Y-85488143D01*
X147778084Y-85458694D01*
X147804380Y-85419404D01*
X147828803Y-85374991D01*
X147848602Y-85330171D01*
X147854604Y-85313212D01*
X147863397Y-85293800D01*
X147878491Y-85267644D01*
X147896925Y-85239798D01*
X147900690Y-85234557D01*
X147917295Y-85210436D01*
X147929218Y-85190501D01*
X147934554Y-85178046D01*
X147934528Y-85176100D01*
X147931252Y-85165073D01*
X147926113Y-85144405D01*
X147921665Y-85125004D01*
X147912033Y-85081520D01*
X147829215Y-85040858D01*
X147754252Y-85007121D01*
X147672541Y-84975704D01*
X147588531Y-84948035D01*
X147506670Y-84925543D01*
X147431407Y-84909659D01*
X147410706Y-84906386D01*
X147389274Y-84903877D01*
X147378764Y-84905243D01*
X147375334Y-84911675D01*
X147375074Y-84917459D01*
X147378397Y-84931376D01*
X147387241Y-84954239D01*
X147399919Y-84981834D01*
X147404553Y-84991058D01*
X147428664Y-85039602D01*
X147445202Y-85076752D01*
X147454674Y-85103755D01*
X147457590Y-85121395D01*
X147452527Y-85135304D01*
X147439717Y-85153422D01*
X147432085Y-85161737D01*
X147417364Y-85175375D01*
X147404163Y-85183023D01*
X147387305Y-85186402D01*
X147361612Y-85187231D01*
X147355302Y-85187242D01*
X147330368Y-85186167D01*
X147306484Y-85182378D01*
X147282438Y-85175027D01*
X147257019Y-85163267D01*
X147229018Y-85146250D01*
X147197223Y-85123128D01*
X147160423Y-85093054D01*
X147117408Y-85055181D01*
X147066967Y-85008661D01*
X147007889Y-84952646D01*
X146974863Y-84920939D01*
X146936900Y-84884510D01*
X146902417Y-84851661D01*
X146878399Y-84828980D01*
X147901131Y-84828980D01*
X147920488Y-84859957D01*
X147933065Y-84879502D01*
X147951287Y-84907093D01*
X147972288Y-84938417D01*
X147985634Y-84958090D01*
X148034995Y-85024517D01*
X148083977Y-85078741D01*
X148131912Y-85120229D01*
X148178133Y-85148444D01*
X148221973Y-85162851D01*
X148243120Y-85164709D01*
X148278248Y-85159253D01*
X148309085Y-85144549D01*
X148332875Y-85123007D01*
X148346857Y-85097037D01*
X148348845Y-85072336D01*
X148340758Y-85058648D01*
X148320917Y-85040068D01*
X148291311Y-85017721D01*
X148253928Y-84992732D01*
X148210758Y-84966227D01*
X148163790Y-84939332D01*
X148115013Y-84913171D01*
X148066416Y-84888870D01*
X148019988Y-84867555D01*
X147977717Y-84850351D01*
X147941594Y-84838383D01*
X147930345Y-84835544D01*
X147901131Y-84828980D01*
X146878399Y-84828980D01*
X146872905Y-84823792D01*
X146849852Y-84802302D01*
X146834746Y-84788589D01*
X146829175Y-84784052D01*
X146825956Y-84789756D01*
X146823366Y-84806426D01*
X146822280Y-84823248D01*
X146814070Y-84871935D01*
X146793828Y-84913092D01*
X146762690Y-84945171D01*
X146721791Y-84966623D01*
X146715527Y-84968638D01*
X146686463Y-84975365D01*
X146659671Y-84976099D01*
X146629541Y-84970498D01*
X146600310Y-84961574D01*
X146562965Y-84946537D01*
X146521329Y-84924686D01*
X146473578Y-84894928D01*
X146417889Y-84856169D01*
X146388629Y-84834663D01*
X146346574Y-84803969D01*
X146315496Y-84782783D01*
X146294984Y-84770843D01*
X146284629Y-84767892D01*
X146283669Y-84768427D01*
X146282794Y-84778397D01*
X146285535Y-84802238D01*
X146291758Y-84839293D01*
X146301327Y-84888907D01*
X146314110Y-84950424D01*
X146329972Y-85023187D01*
X146348779Y-85106541D01*
X146370396Y-85199830D01*
X146382113Y-85249555D01*
X146387757Y-85279672D01*
X146390546Y-85307846D01*
X146390028Y-85326354D01*
X146384427Y-85342833D01*
X146372351Y-85368240D01*
X146355622Y-85399003D01*
X146337620Y-85429073D01*
X146313752Y-85469043D01*
X146285098Y-85520058D01*
X146253002Y-85579471D01*
X146218808Y-85644633D01*
X146183857Y-85712896D01*
X146149494Y-85781611D01*
X146117062Y-85848129D01*
X146087902Y-85909802D01*
X146063360Y-85963983D01*
X146047658Y-86000871D01*
X145979872Y-86183178D01*
X145920670Y-86375957D01*
X145870524Y-86577060D01*
X145829905Y-86784337D01*
X145799286Y-86995642D01*
X145779136Y-87208826D01*
X145777636Y-87231394D01*
X145775328Y-87280800D01*
X145773817Y-87341792D01*
X145773063Y-87411600D01*
X145773027Y-87487452D01*
X145538712Y-87487452D01*
X145538648Y-87415009D01*
X145539448Y-87370956D01*
X145550505Y-87139497D01*
X145572096Y-86917292D01*
X145604441Y-86702698D01*
X145647759Y-86494074D01*
X145666762Y-86417484D01*
X145678033Y-86374462D01*
X145685833Y-86343950D01*
X145690016Y-86323826D01*
X145690437Y-86311969D01*
X145686951Y-86306259D01*
X145679414Y-86304575D01*
X145667679Y-86304796D01*
X145659057Y-86304962D01*
X145584496Y-86309009D01*
X145511629Y-86321723D01*
X145437230Y-86343960D01*
X145358075Y-86376579D01*
X145318991Y-86395400D01*
X145203927Y-86460405D01*
X145099514Y-86535180D01*
X145004365Y-86620896D01*
X144917099Y-86718723D01*
X144880629Y-86766195D01*
X144838556Y-86820383D01*
X144791268Y-86876118D01*
X144741562Y-86930429D01*
X144692235Y-86980346D01*
X144646084Y-87022901D01*
X144614530Y-87048737D01*
X144561039Y-87084736D01*
X144497816Y-87119766D01*
X144430059Y-87151378D01*
X144362964Y-87177122D01*
X144308404Y-87193024D01*
X144262951Y-87202755D01*
X144205207Y-87213494D01*
X144137818Y-87224848D01*
X144063430Y-87236428D01*
X143984690Y-87247842D01*
X143904244Y-87258700D01*
X143824738Y-87268611D01*
X143748818Y-87277184D01*
X143715123Y-87280640D01*
X143655919Y-87286450D01*
X143609962Y-87291042D01*
X143575586Y-87294835D01*
X143551123Y-87298249D01*
X143534907Y-87301703D01*
X143525272Y-87305617D01*
X143520550Y-87310409D01*
X143519077Y-87316500D01*
X143519184Y-87324309D01*
X143519315Y-87329910D01*
X143512483Y-87364891D01*
X143494004Y-87398045D01*
X143466906Y-87424416D01*
X143458294Y-87429849D01*
X143443778Y-87437118D01*
X143428961Y-87441717D01*
X143410205Y-87444099D01*
X143383870Y-87444716D01*
X143346321Y-87444021D01*
X143344781Y-87443979D01*
X143218686Y-87442511D01*
X143101980Y-87445184D01*
X142995492Y-87451901D01*
X142900051Y-87462563D01*
X142816486Y-87477071D01*
X142745627Y-87495326D01*
X142688301Y-87517230D01*
X142675451Y-87523651D01*
X142626940Y-87543862D01*
X142583624Y-87550090D01*
X142545107Y-87542274D01*
X142510996Y-87520356D01*
X142488551Y-87495281D01*
X142478934Y-87473475D01*
X142473453Y-87443283D01*
X142472559Y-87410860D01*
X142476703Y-87382365D01*
X142479660Y-87373922D01*
X142478303Y-87370833D01*
X142468255Y-87377176D01*
X142451396Y-87391731D01*
X142449555Y-87393452D01*
X142420375Y-87419912D01*
X142397808Y-87437197D01*
X142378311Y-87447173D01*
X142358344Y-87451710D01*
X142337272Y-87452688D01*
X142295504Y-87445984D01*
X142259615Y-87425652D01*
X142233501Y-87397726D01*
X142223781Y-87379993D01*
X142219003Y-87357319D01*
X142217935Y-87329463D01*
X142219165Y-87300418D01*
X142223815Y-87280090D01*
X142233611Y-87262289D01*
X142238564Y-87255524D01*
X142250876Y-87238740D01*
X142258190Y-87227526D01*
X142259067Y-87225455D01*
X142252083Y-87223775D01*
X142233171Y-87221688D01*
X142205388Y-87219483D01*
X142178426Y-87217808D01*
X142093592Y-87209722D01*
X142015522Y-87194492D01*
X141937085Y-87170636D01*
X141917957Y-87163667D01*
X141888698Y-87153205D01*
X141865040Y-87145680D01*
X141850221Y-87142071D01*
X141846945Y-87142167D01*
X141846059Y-87150301D01*
X141845290Y-87171617D01*
X141844659Y-87204294D01*
X141844192Y-87246511D01*
X141843910Y-87296446D01*
X141843836Y-87352280D01*
X141843890Y-87383672D01*
X141845710Y-87513224D01*
X141850369Y-87654554D01*
X141857671Y-87804749D01*
X141867419Y-87960894D01*
X141879418Y-88120074D01*
X141893472Y-88279377D01*
X141909384Y-88435888D01*
X141922160Y-88547530D01*
X141927279Y-88588808D01*
X141932007Y-88624591D01*
X141935985Y-88652345D01*
X141938855Y-88669540D01*
X141940030Y-88673955D01*
X141948027Y-88673145D01*
X141966664Y-88668342D01*
X141992413Y-88660492D01*
X142001665Y-88657461D01*
X142051257Y-88642650D01*
X142111406Y-88627379D01*
X142177728Y-88612583D01*
X142245842Y-88599198D01*
X142311367Y-88588161D01*
X142353512Y-88582313D01*
X142433863Y-88573712D01*
X142518996Y-88567004D01*
X142607344Y-88562141D01*
X142697342Y-88559077D01*
X142787421Y-88557764D01*
X142876015Y-88558155D01*
X142961557Y-88560204D01*
X143042481Y-88563863D01*
X143117220Y-88569085D01*
X143184207Y-88575824D01*
X143241875Y-88584032D01*
X143288657Y-88593662D01*
X143322987Y-88604668D01*
X143336802Y-88611811D01*
X143368161Y-88640195D01*
X143388301Y-88674944D01*
X143397291Y-88713163D01*
X143395199Y-88751957D01*
X143382096Y-88788431D01*
X143358050Y-88819690D01*
X143331382Y-88838785D01*
X143315909Y-88846320D01*
X143300815Y-88851190D01*
X143283399Y-88853405D01*
X143260958Y-88852978D01*
X143230790Y-88849918D01*
X143190193Y-88844239D01*
X143159244Y-88839506D01*
X143127667Y-88836051D01*
X143083371Y-88833275D01*
X143028623Y-88831166D01*
X142965692Y-88829715D01*
X142896845Y-88828912D01*
X142824350Y-88828744D01*
X142750475Y-88829203D01*
X142677487Y-88830278D01*
X142607655Y-88831957D01*
X142543246Y-88834231D01*
X142486528Y-88837089D01*
X142439769Y-88840520D01*
X142416598Y-88842952D01*
X142299977Y-88859830D01*
X142196850Y-88879987D01*
X142107538Y-88903340D01*
X142032359Y-88929810D01*
X141983424Y-88952736D01*
X141940759Y-88978398D01*
X141892096Y-89012180D01*
X141841431Y-89051014D01*
X141792760Y-89091831D01*
X141750081Y-89131565D01*
X141748805Y-89132838D01*
X141723981Y-89159700D01*
X141700353Y-89188845D01*
X141679602Y-89217724D01*
X141663408Y-89243789D01*
X141653453Y-89264489D01*
X141651416Y-89277276D01*
X141652424Y-89279024D01*
X141660592Y-89277839D01*
X141679067Y-89271126D01*
X141704753Y-89260092D01*
X141723508Y-89251339D01*
X141757239Y-89235799D01*
X141782770Y-89226200D01*
X141805009Y-89221185D01*
X141828864Y-89219399D01*
X141839568Y-89219285D01*
X141868743Y-89220239D01*
X141888872Y-89224174D01*
X141905850Y-89232701D01*
X141916466Y-89240302D01*
X141947059Y-89271206D01*
X141963973Y-89307517D01*
X141968240Y-89343060D01*
X141965853Y-89373818D01*
X141957556Y-89399769D01*
X141941647Y-89422813D01*
X141916426Y-89444848D01*
X141880190Y-89467775D01*
X141835233Y-89491501D01*
X141775796Y-89523921D01*
X141727884Y-89556674D01*
X141688199Y-89592418D01*
X141653444Y-89633807D01*
X141646327Y-89643658D01*
X141613874Y-89683712D01*
X141581871Y-89710235D01*
X141548347Y-89724501D01*
X141516113Y-89727930D01*
X141489150Y-89724922D01*
X141464282Y-89718062D01*
X141458645Y-89715539D01*
X141432871Y-89697175D01*
X141410136Y-89672288D01*
X141394919Y-89646164D01*
X141392017Y-89636915D01*
X141387833Y-89618834D01*
X141385108Y-89608411D01*
X141385015Y-89589220D01*
X141391991Y-89561891D01*
X141404576Y-89530628D01*
X141421311Y-89499634D01*
X141424710Y-89494318D01*
X141439738Y-89471456D01*
X141451829Y-89453029D01*
X141458149Y-89443362D01*
X141455818Y-89434170D01*
X141441829Y-89420861D01*
X141433180Y-89414735D01*
X141403327Y-89386474D01*
X141382936Y-89349309D01*
X141374219Y-89307470D01*
X141374057Y-89301651D01*
X141377143Y-89270187D01*
X141385746Y-89230354D01*
X141398465Y-89187093D01*
X141413899Y-89145347D01*
X141425779Y-89119251D01*
X141457294Y-89066615D01*
X141500194Y-89009825D01*
X141552367Y-88951282D01*
X141611702Y-88893384D01*
X141664857Y-88847555D01*
X141697020Y-88821393D01*
X141685269Y-88797837D01*
X141679386Y-88779656D01*
X141672676Y-88747609D01*
X141665261Y-88702804D01*
X141657266Y-88646348D01*
X141648814Y-88579348D01*
X141640029Y-88502912D01*
X141631035Y-88418146D01*
X141621955Y-88326159D01*
X141612913Y-88228056D01*
X141604033Y-88124946D01*
X141595439Y-88017936D01*
X141589860Y-87944034D01*
X141585571Y-87882810D01*
X141582038Y-87825128D01*
X141579191Y-87768553D01*
X141576957Y-87710648D01*
X141575265Y-87648977D01*
X141574043Y-87581103D01*
X141573218Y-87504590D01*
X141572720Y-87417002D01*
X141572545Y-87356929D01*
X141571779Y-86994867D01*
X141519150Y-86944347D01*
X141483416Y-86907997D01*
X141447797Y-86868126D01*
X141414656Y-86827697D01*
X141386359Y-86789676D01*
X141365267Y-86757027D01*
X141356864Y-86740823D01*
X141347031Y-86706023D01*
X141345286Y-86668197D01*
X141351347Y-86632858D01*
X141363747Y-86607049D01*
X141389878Y-86578512D01*
X141418178Y-86562489D01*
X141453156Y-86556675D01*
X141462608Y-86556540D01*
X141493815Y-86559031D01*
X141520109Y-86567323D01*
X141544372Y-86583320D01*
X141569485Y-86608930D01*
X141598331Y-86646059D01*
X141598720Y-86646595D01*
X141652061Y-86712899D01*
X141707956Y-86767338D01*
X141769968Y-86813014D01*
X141827896Y-86846114D01*
X141907751Y-86885156D01*
X141979305Y-86915567D01*
X142045743Y-86938365D01*
X142110250Y-86954571D01*
X142176010Y-86965206D01*
X142210906Y-86968800D01*
X142246173Y-86972289D01*
X142270760Y-86976388D01*
X142288975Y-86982352D01*
X142305128Y-86991437D01*
X142316533Y-86999590D01*
X142335811Y-87020331D01*
X142351565Y-87048451D01*
X142361243Y-87078152D01*
X142362300Y-87103617D01*
X142360777Y-87117009D01*
X142364558Y-87121365D01*
X142375893Y-87116684D01*
X142396087Y-87103609D01*
X142442939Y-87077234D01*
X142489905Y-87060826D01*
X142534276Y-87054906D01*
X142573342Y-87059999D01*
X142589116Y-87066354D01*
X142620650Y-87090414D01*
X142642135Y-87122758D01*
X142652877Y-87159987D01*
X142652182Y-87198698D01*
X142639355Y-87235493D01*
X142627279Y-87253201D01*
X142619645Y-87263393D01*
X142622832Y-87265013D01*
X142630390Y-87262934D01*
X142684980Y-87246844D01*
X142730603Y-87234813D01*
X142772344Y-87225640D01*
X142815285Y-87218122D01*
X142828353Y-87216129D01*
X142860903Y-87211128D01*
X142887393Y-87206739D01*
X142904661Y-87203507D01*
X142909694Y-87202139D01*
X142908841Y-87194425D01*
X142904739Y-87175444D01*
X142898117Y-87148397D01*
X142892794Y-87127960D01*
X142879239Y-87074817D01*
X142868720Y-87027419D01*
X142860791Y-86982256D01*
X142855008Y-86935820D01*
X142850926Y-86884601D01*
X142848099Y-86825089D01*
X142846243Y-86760724D01*
X142846441Y-86605387D01*
X142854489Y-86461366D01*
X142870332Y-86328931D01*
X142893914Y-86208355D01*
X142925182Y-86099908D01*
X142964079Y-86003863D01*
X143010551Y-85920491D01*
X143018523Y-85908584D01*
X143029914Y-85889377D01*
X143035170Y-85875015D01*
X143034419Y-85870270D01*
X143024488Y-85866432D01*
X143002097Y-85860469D01*
X142969560Y-85852859D01*
X142929191Y-85844083D01*
X142883306Y-85834622D01*
X142834217Y-85824954D01*
X142784241Y-85815561D01*
X142735691Y-85806923D01*
X142701654Y-85801236D01*
X142664078Y-85795599D01*
X142628561Y-85791376D01*
X142591905Y-85788379D01*
X142550914Y-85786423D01*
X142502390Y-85785322D01*
X142443136Y-85784889D01*
X142420348Y-85784861D01*
X142346493Y-85785324D01*
X142284227Y-85787040D01*
X142230159Y-85790464D01*
X142180896Y-85796056D01*
X142133047Y-85804270D01*
X142083219Y-85815565D01*
X142028021Y-85830398D01*
X141981512Y-85843983D01*
X141878146Y-85877212D01*
X141787606Y-85911738D01*
X141707715Y-85948822D01*
X141636296Y-85989723D01*
X141571173Y-86035700D01*
X141510167Y-86088013D01*
X141451102Y-86147921D01*
X141445384Y-86154196D01*
X141424481Y-86174387D01*
X141402856Y-86190840D01*
X141391239Y-86197262D01*
X141350624Y-86206822D01*
X141310656Y-86202900D01*
X141274432Y-86186615D01*
X141245047Y-86159083D01*
X141233240Y-86140184D01*
X141219152Y-86099975D01*
X141218968Y-86060533D01*
X141231852Y-86020241D01*
X141245103Y-85998640D01*
X141267579Y-85970360D01*
X141296921Y-85938258D01*
X141312354Y-85922722D01*
X141404141Y-85842350D01*
X141506839Y-85769989D01*
X141617734Y-85707369D01*
X141725764Y-85659419D01*
X141796331Y-85632050D01*
X141820363Y-85546548D01*
X141825168Y-85530889D01*
X142116779Y-85530889D01*
X142119752Y-85535791D01*
X142130734Y-85537614D01*
X142152344Y-85536537D01*
X142170924Y-85534639D01*
X142202755Y-85532171D01*
X142246153Y-85530365D01*
X142298270Y-85529200D01*
X142356252Y-85528656D01*
X142417249Y-85528712D01*
X142478410Y-85529348D01*
X142536882Y-85530544D01*
X142589816Y-85532278D01*
X142634359Y-85534532D01*
X142667660Y-85537283D01*
X142675399Y-85538255D01*
X142712597Y-85544066D01*
X142759481Y-85552214D01*
X142813988Y-85562270D01*
X142874059Y-85573807D01*
X142937633Y-85586395D01*
X143002648Y-85599607D01*
X143067045Y-85613014D01*
X143128763Y-85626189D01*
X143185741Y-85638702D01*
X143235918Y-85650125D01*
X143277234Y-85660030D01*
X143307628Y-85667990D01*
X143323434Y-85672942D01*
X143338378Y-85673608D01*
X143364697Y-85669821D01*
X143399694Y-85662339D01*
X143440677Y-85651923D01*
X143484950Y-85639331D01*
X143529820Y-85625325D01*
X143572592Y-85610662D01*
X143610571Y-85596105D01*
X143636439Y-85584686D01*
X143684316Y-85558318D01*
X143718462Y-85531630D01*
X143738773Y-85504212D01*
X143745144Y-85475652D01*
X143737472Y-85445540D01*
X143715652Y-85413463D01*
X143679580Y-85379012D01*
X143658641Y-85363550D01*
X144789419Y-85363550D01*
X144789908Y-85412882D01*
X144798281Y-85459698D01*
X144812431Y-85504284D01*
X144831026Y-85542213D01*
X144857132Y-85578908D01*
X144881371Y-85606606D01*
X144924256Y-85646249D01*
X144968740Y-85675080D01*
X145012678Y-85692006D01*
X145053922Y-85695931D01*
X145056124Y-85695742D01*
X145103309Y-85685561D01*
X145139663Y-85665072D01*
X145165345Y-85634183D01*
X145167764Y-85629680D01*
X145181744Y-85586408D01*
X145182527Y-85539402D01*
X145170560Y-85491168D01*
X145146289Y-85444210D01*
X145130961Y-85423538D01*
X145115811Y-85403021D01*
X145099173Y-85377510D01*
X145092921Y-85367019D01*
X145067688Y-85331480D01*
X145035007Y-85297625D01*
X144998032Y-85267747D01*
X144959917Y-85244139D01*
X144923817Y-85229093D01*
X144897194Y-85224749D01*
X144863690Y-85231606D01*
X144835336Y-85250871D01*
X144812957Y-85280588D01*
X144797377Y-85318800D01*
X144789419Y-85363550D01*
X143658641Y-85363550D01*
X143629152Y-85341774D01*
X143564777Y-85301639D01*
X143495940Y-85258664D01*
X143440260Y-85217510D01*
X143396273Y-85176636D01*
X143362513Y-85134498D01*
X143337517Y-85089557D01*
X143321241Y-85045228D01*
X143320162Y-85039573D01*
X145522485Y-85039573D01*
X145524231Y-85065733D01*
X145528069Y-85096748D01*
X145533630Y-85129350D01*
X145540545Y-85160272D01*
X145544980Y-85175990D01*
X145561502Y-85222176D01*
X145583843Y-85275049D01*
X145609580Y-85329522D01*
X145636291Y-85380504D01*
X145661556Y-85422909D01*
X145664923Y-85427996D01*
X145706751Y-85485779D01*
X145751585Y-85539948D01*
X145797259Y-85588283D01*
X145841607Y-85628559D01*
X145882464Y-85658555D01*
X145898652Y-85667860D01*
X145926277Y-85682128D01*
X145960539Y-85630590D01*
X145976462Y-85605408D01*
X145988448Y-85584110D01*
X145994464Y-85570385D01*
X145994802Y-85568380D01*
X145989083Y-85559312D01*
X145973863Y-85544534D01*
X145952051Y-85526773D01*
X145944167Y-85520914D01*
X145882768Y-85470905D01*
X145818739Y-85408760D01*
X145753922Y-85336660D01*
X145690164Y-85256790D01*
X145629308Y-85171331D01*
X145573199Y-85082467D01*
X145572060Y-85080539D01*
X145555255Y-85053072D01*
X145540733Y-85031239D01*
X145530404Y-85017808D01*
X145526752Y-85014887D01*
X145523203Y-85021535D01*
X145522485Y-85039573D01*
X143320162Y-85039573D01*
X143310691Y-84989927D01*
X143312232Y-84933889D01*
X143320763Y-84890634D01*
X143346683Y-84815543D01*
X143385399Y-84739012D01*
X143435136Y-84663168D01*
X143494115Y-84590135D01*
X143560560Y-84522040D01*
X143632694Y-84461008D01*
X143708740Y-84409165D01*
X143736563Y-84393251D01*
X143790374Y-84364053D01*
X143731734Y-84355258D01*
X143639873Y-84344134D01*
X143542413Y-84337101D01*
X143443333Y-84334189D01*
X143346609Y-84335432D01*
X143256218Y-84340861D01*
X143176136Y-84350507D01*
X143174247Y-84350811D01*
X143117933Y-84362388D01*
X143053999Y-84379526D01*
X142987718Y-84400520D01*
X142924365Y-84423667D01*
X142869213Y-84447264D01*
X142856362Y-84453516D01*
X142755401Y-84512568D01*
X142659291Y-84585705D01*
X142568205Y-84672759D01*
X142482320Y-84773559D01*
X142401811Y-84887935D01*
X142390724Y-84905428D01*
X142358934Y-84959067D01*
X142324168Y-85022596D01*
X142288578Y-85091807D01*
X142254316Y-85162491D01*
X142223533Y-85230438D01*
X142217945Y-85243418D01*
X142204444Y-85276370D01*
X142189332Y-85315345D01*
X142173549Y-85357671D01*
X142158036Y-85400676D01*
X142143733Y-85441688D01*
X142131581Y-85478036D01*
X142122519Y-85507047D01*
X142117488Y-85526050D01*
X142116779Y-85530889D01*
X141825168Y-85530889D01*
X141877556Y-85360154D01*
X141941038Y-85185352D01*
X142010598Y-85022555D01*
X142086025Y-84872177D01*
X142167110Y-84734630D01*
X142253641Y-84610328D01*
X142345408Y-84499683D01*
X142363693Y-84479947D01*
X142421836Y-84418340D01*
X142426319Y-84335824D01*
X142435850Y-84253675D01*
X142455502Y-84163306D01*
X142484471Y-84066775D01*
X142493925Y-84041391D01*
X143572176Y-84041391D01*
X143573114Y-84054139D01*
X143579194Y-84060144D01*
X143594445Y-84061926D01*
X143605197Y-84062020D01*
X143624713Y-84062972D01*
X143654169Y-84065529D01*
X143689814Y-84069243D01*
X143727895Y-84073665D01*
X143764660Y-84078345D01*
X143796358Y-84082837D01*
X143819235Y-84086690D01*
X143827442Y-84088592D01*
X143839055Y-84084748D01*
X143855633Y-84067380D01*
X143867822Y-84050736D01*
X143900131Y-84010969D01*
X143944450Y-83968374D01*
X144001691Y-83922107D01*
X144028276Y-83902480D01*
X144075897Y-83868094D01*
X144047030Y-83859780D01*
X144027622Y-83855577D01*
X143997765Y-83850727D01*
X143961953Y-83845908D01*
X143933710Y-83842702D01*
X143854065Y-83838276D01*
X143785376Y-83842945D01*
X143726441Y-83857010D01*
X143676063Y-83880768D01*
X143633040Y-83914522D01*
X143628633Y-83918932D01*
X143606607Y-83947438D01*
X143588073Y-83982196D01*
X143575744Y-84017323D01*
X143572176Y-84041391D01*
X142493925Y-84041391D01*
X142521951Y-83966142D01*
X142567135Y-83863467D01*
X142619218Y-83760809D01*
X142677395Y-83660227D01*
X142711494Y-83606847D01*
X142770505Y-83523983D01*
X142830716Y-83452960D01*
X142895190Y-83390733D01*
X142966990Y-83334257D01*
X143024342Y-83295824D01*
X143091341Y-83253520D01*
X143068880Y-83244216D01*
X143038786Y-83224220D01*
X143015023Y-83193924D01*
X142999817Y-83157459D01*
X142995397Y-83118955D01*
X142996235Y-83109521D01*
X143009188Y-83065337D01*
X143035312Y-83020414D01*
X143072938Y-82976223D01*
X143120399Y-82934234D01*
X143176027Y-82895917D01*
X143238153Y-82862743D01*
X143305108Y-82836184D01*
X143307028Y-82835552D01*
X143345220Y-82823060D01*
X143327337Y-82791787D01*
X143311377Y-82749786D01*
X143309981Y-82706593D01*
X143323096Y-82664394D01*
X143330782Y-82650770D01*
X143352790Y-82623741D01*
X143385940Y-82592886D01*
X143427501Y-82560099D01*
X143443333Y-82549099D01*
X143474745Y-82527274D01*
X143524943Y-82496305D01*
X143575366Y-82469084D01*
X143623283Y-82447506D01*
X143624335Y-82447090D01*
X143670721Y-82430221D01*
X143716952Y-82416560D01*
X143765254Y-82405816D01*
X143777088Y-82403990D01*
X144477016Y-82403990D01*
X144486662Y-82407440D01*
X144507684Y-82412333D01*
X144536617Y-82417917D01*
X144558830Y-82421693D01*
X144627060Y-82434692D01*
X144684299Y-82449786D01*
X144729169Y-82466554D01*
X144757711Y-82482634D01*
X144778265Y-82497595D01*
X144796415Y-82510878D01*
X144799220Y-82512942D01*
X144807203Y-82516935D01*
X144820339Y-82520150D01*
X144840444Y-82522744D01*
X144869336Y-82524873D01*
X144908830Y-82526692D01*
X144960746Y-82528359D01*
X144986757Y-82529052D01*
X145091204Y-82530649D01*
X145182553Y-82529605D01*
X145262507Y-82525718D01*
X145332770Y-82518786D01*
X145395046Y-82508605D01*
X145451040Y-82494974D01*
X145502457Y-82477690D01*
X145535462Y-82463843D01*
X145561894Y-82450451D01*
X145590409Y-82433764D01*
X145617979Y-82415858D01*
X145641574Y-82398806D01*
X145658166Y-82384682D01*
X145664726Y-82375560D01*
X145664737Y-82375325D01*
X145658073Y-82370806D01*
X145639780Y-82362442D01*
X145612401Y-82351300D01*
X145578483Y-82338447D01*
X145566219Y-82333987D01*
X145477029Y-82303079D01*
X145397692Y-82278505D01*
X145324775Y-82259630D01*
X145254844Y-82245822D01*
X145184466Y-82236446D01*
X145110207Y-82230868D01*
X145028634Y-82228455D01*
X144993355Y-82228235D01*
X144922531Y-82228845D01*
X144863935Y-82231110D01*
X144814844Y-82235466D01*
X144772534Y-82242349D01*
X144734279Y-82252194D01*
X144697356Y-82265435D01*
X144661664Y-82281257D01*
X144633185Y-82295881D01*
X144601520Y-82313884D01*
X144569046Y-82333686D01*
X144538141Y-82353706D01*
X144511183Y-82372364D01*
X144490549Y-82388081D01*
X144478618Y-82399275D01*
X144477016Y-82403990D01*
X143777088Y-82403990D01*
X143817852Y-82397700D01*
X143854065Y-82394160D01*
X143876971Y-82391921D01*
X143944837Y-82388188D01*
X144023675Y-82386212D01*
X144095038Y-82385703D01*
X144147623Y-82385553D01*
X144194914Y-82385267D01*
X144234951Y-82384868D01*
X144265774Y-82384381D01*
X144285423Y-82383829D01*
X144291952Y-82383266D01*
X144288877Y-82375904D01*
X144281109Y-82359895D01*
X144276964Y-82351684D01*
X144263954Y-82310666D01*
X144264927Y-82268438D01*
X144279346Y-82227557D01*
X144306673Y-82190581D01*
X144311909Y-82185477D01*
X144351521Y-82153086D01*
X144402038Y-82118810D01*
X144459852Y-82084564D01*
X144521353Y-82052264D01*
X144582935Y-82023823D01*
X144640987Y-82001158D01*
X144683708Y-81988155D01*
X144774067Y-81970390D01*
X144874690Y-81959660D01*
X144982643Y-81955868D01*
X144993355Y-81956159D01*
G37*
D12*
%TO.C,TB1*%
X102247500Y-89402500D02*
X102247500Y-98632500D01*
X102247500Y-98632500D02*
X109717500Y-98632500D01*
X103107500Y-90612500D02*
X107407500Y-90612500D01*
X103107500Y-91362500D02*
X103107500Y-90612500D01*
X103107500Y-93612500D02*
X103107500Y-92862500D01*
X103107500Y-94422500D02*
X107407500Y-94422500D01*
X103107500Y-95172500D02*
X103107500Y-94422500D01*
X103107500Y-97422500D02*
X103107500Y-96672500D01*
X107407500Y-90612500D02*
X107407500Y-91362500D01*
X107407500Y-91362500D02*
X107757500Y-91362500D01*
X107407500Y-92862500D02*
X107407500Y-93612500D01*
X107407500Y-93612500D02*
X103107500Y-93612500D01*
X107407500Y-94422500D02*
X107407500Y-95172500D01*
X107407500Y-95172500D02*
X107757500Y-95172500D01*
X107407500Y-96672500D02*
X107407500Y-97422500D01*
X107407500Y-97422500D02*
X103107500Y-97422500D01*
X107757500Y-90862500D02*
X108757500Y-90612500D01*
X107757500Y-91362500D02*
X107757500Y-90862500D01*
X107757500Y-92862500D02*
X107407500Y-92862500D01*
X107757500Y-93362500D02*
X107757500Y-92862500D01*
X107757500Y-94672500D02*
X108757500Y-94422500D01*
X107757500Y-95172500D02*
X107757500Y-94672500D01*
X107757500Y-96672500D02*
X107407500Y-96672500D01*
X107757500Y-97172500D02*
X107757500Y-96672500D01*
X108757500Y-90612500D02*
X108757500Y-93612500D01*
X108757500Y-93612500D02*
X107757500Y-93362500D01*
X108757500Y-94422500D02*
X108757500Y-97422500D01*
X108757500Y-97422500D02*
X107757500Y-97172500D01*
X108857500Y-89012500D02*
X110107500Y-89012500D01*
X109717500Y-89402500D02*
X102247500Y-89402500D01*
X109717500Y-98632500D02*
X109717500Y-89402500D01*
X110107500Y-89012500D02*
X110107500Y-91012500D01*
X103107500Y-91362500D02*
G75*
G02*
X103107655Y-92862147I-1700000J-750000D01*
G01*
X103107500Y-95172500D02*
G75*
G02*
X103107655Y-96672147I-1700000J-750000D01*
G01*
%TO.C,R3*%
X125345276Y-87477500D02*
X125854724Y-87477500D01*
X125345276Y-88522500D02*
X125854724Y-88522500D01*
%TO.C,C6*%
X154453733Y-75090000D02*
X154746267Y-75090000D01*
X154453733Y-76110000D02*
X154746267Y-76110000D01*
%TO.C,C1*%
X116290000Y-78746267D02*
X116290000Y-78453733D01*
X117310000Y-78746267D02*
X117310000Y-78453733D01*
%TO.C,U1*%
X112500000Y-77500000D02*
X112500000Y-79100000D01*
X115700000Y-79100000D02*
X115700000Y-76800000D01*
%TO.C,U4*%
X120000000Y-84940000D02*
X118050000Y-84940000D01*
X120000000Y-84940000D02*
X121950000Y-84940000D01*
X120000000Y-90060000D02*
X118050000Y-90060000D01*
X120000000Y-90060000D02*
X123450000Y-90060000D01*
%TO.C,C4*%
X128065000Y-94461252D02*
X128065000Y-93938748D01*
X129535000Y-94461252D02*
X129535000Y-93938748D01*
%TO.C,R1*%
X111945276Y-80677500D02*
X112454724Y-80677500D01*
X111945276Y-81722500D02*
X112454724Y-81722500D01*
%TO.C,U3*%
X119050000Y-91790000D02*
X125060000Y-91790000D01*
X121300000Y-98610000D02*
X125060000Y-98610000D01*
X125060000Y-91790000D02*
X125060000Y-93050000D01*
X125060000Y-98610000D02*
X125060000Y-97350000D01*
%TO.C,C5*%
X118316233Y-83390000D02*
X118608767Y-83390000D01*
X118316233Y-84410000D02*
X118608767Y-84410000D01*
%TO.C,C3*%
X116765000Y-94261252D02*
X116765000Y-93738748D01*
X118235000Y-94261252D02*
X118235000Y-93738748D01*
%TO.C,R4*%
X125345276Y-89077500D02*
X125854724Y-89077500D01*
X125345276Y-90122500D02*
X125854724Y-90122500D01*
%TO.C,J2*%
X102247500Y-74820000D02*
X102247500Y-87860000D01*
X102247500Y-87860000D02*
X109717500Y-87860000D01*
X103107500Y-76030000D02*
X107407500Y-76030000D01*
X103107500Y-76780000D02*
X103107500Y-76030000D01*
X103107500Y-79030000D02*
X103107500Y-78280000D01*
X103107500Y-79840000D02*
X107407500Y-79840000D01*
X103107500Y-80590000D02*
X103107500Y-79840000D01*
X103107500Y-82840000D02*
X103107500Y-82090000D01*
X103107500Y-83650000D02*
X107407500Y-83650000D01*
X103107500Y-84400000D02*
X103107500Y-83650000D01*
X103107500Y-86650000D02*
X103107500Y-85900000D01*
X107407500Y-76030000D02*
X107407500Y-76780000D01*
X107407500Y-76780000D02*
X107757500Y-76780000D01*
X107407500Y-78280000D02*
X107407500Y-79030000D01*
X107407500Y-79030000D02*
X103107500Y-79030000D01*
X107407500Y-79840000D02*
X107407500Y-80590000D01*
X107407500Y-80590000D02*
X107757500Y-80590000D01*
X107407500Y-82090000D02*
X107407500Y-82840000D01*
X107407500Y-82840000D02*
X103107500Y-82840000D01*
X107407500Y-83650000D02*
X107407500Y-84400000D01*
X107407500Y-84400000D02*
X107757500Y-84400000D01*
X107407500Y-85900000D02*
X107407500Y-86650000D01*
X107407500Y-86650000D02*
X103107500Y-86650000D01*
X107757500Y-76280000D02*
X108757500Y-76030000D01*
X107757500Y-76780000D02*
X107757500Y-76280000D01*
X107757500Y-78280000D02*
X107407500Y-78280000D01*
X107757500Y-78780000D02*
X107757500Y-78280000D01*
X107757500Y-80090000D02*
X108757500Y-79840000D01*
X107757500Y-80590000D02*
X107757500Y-80090000D01*
X107757500Y-82090000D02*
X107407500Y-82090000D01*
X107757500Y-82590000D02*
X107757500Y-82090000D01*
X107757500Y-83900000D02*
X108757500Y-83650000D01*
X107757500Y-84400000D02*
X107757500Y-83900000D01*
X107757500Y-85900000D02*
X107407500Y-85900000D01*
X107757500Y-86400000D02*
X107757500Y-85900000D01*
X108757500Y-76030000D02*
X108757500Y-79030000D01*
X108757500Y-79030000D02*
X107757500Y-78780000D01*
X108757500Y-79840000D02*
X108757500Y-82840000D01*
X108757500Y-82840000D02*
X107757500Y-82590000D01*
X108757500Y-83650000D02*
X108757500Y-86650000D01*
X108757500Y-86650000D02*
X107757500Y-86400000D01*
X108857500Y-74430000D02*
X110107500Y-74430000D01*
X109717500Y-74820000D02*
X102247500Y-74820000D01*
X109717500Y-87860000D02*
X109717500Y-74820000D01*
X110107500Y-74430000D02*
X110107500Y-76430000D01*
X103107500Y-76780000D02*
G75*
G02*
X103107655Y-78279647I-1700000J-750000D01*
G01*
X103107500Y-80590000D02*
G75*
G02*
X103107655Y-82089647I-1700000J-750000D01*
G01*
X103107500Y-84400000D02*
G75*
G02*
X103107655Y-85899647I-1700000J-750000D01*
G01*
%TD*%
%LPC*%
D14*
%TO.C,U5*%
X155910000Y-79760000D03*
D15*
X155910000Y-78860000D03*
D14*
X153370000Y-79760000D03*
D15*
X153370000Y-78860000D03*
D14*
X150830000Y-79760000D03*
D15*
X150830000Y-78860000D03*
D14*
X148290000Y-79760000D03*
D15*
X148290000Y-78860000D03*
D14*
X145750000Y-79760000D03*
D15*
X145750000Y-78860000D03*
D14*
X143210000Y-79760000D03*
D15*
X143210000Y-78860000D03*
D14*
X140670000Y-79760000D03*
D15*
X140670000Y-78860000D03*
D14*
X138130000Y-79760000D03*
D15*
X138130000Y-78860000D03*
D14*
X135590000Y-79760000D03*
D15*
X135590000Y-78860000D03*
D14*
X135600000Y-82300000D03*
D16*
X134700000Y-82300000D03*
D14*
X135600000Y-84840000D03*
D16*
X134700000Y-84840000D03*
D14*
X135600000Y-87380000D03*
D16*
X134700000Y-87380000D03*
D14*
X135600000Y-89920000D03*
D16*
X134700000Y-89920000D03*
D14*
X135600000Y-92460000D03*
D16*
X134700000Y-92460000D03*
D14*
X135590000Y-95000000D03*
D15*
X135590000Y-95900000D03*
D14*
X138130000Y-95000000D03*
D15*
X138130000Y-95900000D03*
D14*
X140670000Y-95000000D03*
D15*
X140670000Y-95900000D03*
D14*
X143210000Y-95000000D03*
D15*
X143210000Y-95900000D03*
D14*
X145750000Y-95000000D03*
D15*
X145750000Y-95900000D03*
D14*
X148290000Y-95000000D03*
D15*
X148290000Y-95900000D03*
D14*
X150830000Y-95000000D03*
D15*
X150830000Y-95900000D03*
D14*
X153370000Y-95000000D03*
D15*
X153370000Y-95900000D03*
D14*
X155910000Y-95000000D03*
D15*
X155910000Y-95900000D03*
%TD*%
D17*
%TO.C,R2*%
X113000000Y-91800000D03*
X113000000Y-85700000D03*
%TD*%
D18*
%TO.C,TB1*%
X105357500Y-92112500D03*
D19*
X105357500Y-95922500D03*
%TD*%
D20*
%TO.C,R3*%
X124687500Y-88000000D03*
X126512500Y-88000000D03*
%TD*%
D21*
%TO.C,C6*%
X153737500Y-75600000D03*
X155462500Y-75600000D03*
%TD*%
D22*
%TO.C,C1*%
X116800000Y-79462500D03*
X116800000Y-77737500D03*
%TD*%
D23*
%TO.C,U1*%
X115050000Y-77140000D03*
X114100000Y-77140000D03*
X113150000Y-77140000D03*
X113150000Y-79460000D03*
X115050000Y-79460000D03*
%TD*%
D24*
%TO.C,U4*%
X122475000Y-89405000D03*
X122475000Y-88135000D03*
X122475000Y-86865000D03*
X122475000Y-85595000D03*
X117525000Y-85595000D03*
X117525000Y-86865000D03*
X117525000Y-88135000D03*
X117525000Y-89405000D03*
%TD*%
D25*
%TO.C,C4*%
X128800000Y-95237500D03*
X128800000Y-93162500D03*
%TD*%
D20*
%TO.C,R1*%
X111287500Y-81200000D03*
X113112500Y-81200000D03*
%TD*%
D26*
%TO.C,U3*%
X120000000Y-92900000D03*
X120000000Y-95200000D03*
D27*
X126300000Y-95200000D03*
D26*
X120000000Y-97500000D03*
%TD*%
D21*
%TO.C,C5*%
X117600000Y-83900000D03*
X119325000Y-83900000D03*
%TD*%
D25*
%TO.C,C3*%
X117500000Y-95037500D03*
X117500000Y-92962500D03*
%TD*%
D20*
%TO.C,R4*%
X124687500Y-89600000D03*
X126512500Y-89600000D03*
%TD*%
D28*
%TO.C,J2*%
X105357500Y-77680000D03*
D19*
X105357500Y-81340000D03*
D29*
X105357500Y-85000000D03*
%TD*%
D30*
%TO.C,J3*%
X130000000Y-91000000D03*
D31*
X130000000Y-88500000D03*
X130000000Y-85900000D03*
X130000000Y-83400000D03*
%TD*%
%LPD*%
M02*
