%TF.GenerationSoftware,KiCad,Pcbnew,7.0.10*%
%TF.CreationDate,2024-02-11T13:06:30-05:00*%
%TF.ProjectId,RP2040_Count,52503230-3430-45f4-936f-756e742e6b69,v2*%
%TF.SameCoordinates,Original*%
%TF.FileFunction,Copper,L1,Top*%
%TF.FilePolarity,Positive*%
%FSLAX46Y46*%
G04 Gerber Fmt 4.6, Leading zero omitted, Abs format (unit mm)*
G04 Created by KiCad (PCBNEW 7.0.10) date 2024-02-11 13:06:30*
%MOMM*%
%LPD*%
G01*
G04 APERTURE LIST*
G04 Aperture macros list*
%AMRoundRect*
0 Rectangle with rounded corners*
0 $1 Rounding radius*
0 $2 $3 $4 $5 $6 $7 $8 $9 X,Y pos of 4 corners*
0 Add a 4 corners polygon primitive as box body*
4,1,4,$2,$3,$4,$5,$6,$7,$8,$9,$2,$3,0*
0 Add four circle primitives for the rounded corners*
1,1,$1+$1,$2,$3*
1,1,$1+$1,$4,$5*
1,1,$1+$1,$6,$7*
1,1,$1+$1,$8,$9*
0 Add four rect primitives between the rounded corners*
20,1,$1+$1,$2,$3,$4,$5,0*
20,1,$1+$1,$4,$5,$6,$7,0*
20,1,$1+$1,$6,$7,$8,$9,0*
20,1,$1+$1,$8,$9,$2,$3,0*%
G04 Aperture macros list end*
%TA.AperFunction,ComponentPad*%
%ADD10C,1.524000*%
%TD*%
%TA.AperFunction,SMDPad,CuDef*%
%ADD11R,1.700000X3.500000*%
%TD*%
%TA.AperFunction,SMDPad,CuDef*%
%ADD12R,3.500000X1.700000*%
%TD*%
%TA.AperFunction,SMDPad,CuDef*%
%ADD13RoundRect,0.249999X1.425001X-0.450001X1.425001X0.450001X-1.425001X0.450001X-1.425001X-0.450001X0*%
%TD*%
%TA.AperFunction,ComponentPad*%
%ADD14RoundRect,0.250000X-1.550000X0.650000X-1.550000X-0.650000X1.550000X-0.650000X1.550000X0.650000X0*%
%TD*%
%TA.AperFunction,ComponentPad*%
%ADD15O,3.600000X1.800000*%
%TD*%
%TA.AperFunction,SMDPad,CuDef*%
%ADD16RoundRect,0.237500X-0.250000X-0.237500X0.250000X-0.237500X0.250000X0.237500X-0.250000X0.237500X0*%
%TD*%
%TA.AperFunction,SMDPad,CuDef*%
%ADD17RoundRect,0.237500X-0.300000X-0.237500X0.300000X-0.237500X0.300000X0.237500X-0.300000X0.237500X0*%
%TD*%
%TA.AperFunction,SMDPad,CuDef*%
%ADD18RoundRect,0.237500X0.237500X-0.300000X0.237500X0.300000X-0.237500X0.300000X-0.237500X-0.300000X0*%
%TD*%
%TA.AperFunction,SMDPad,CuDef*%
%ADD19R,0.510000X0.700000*%
%TD*%
%TA.AperFunction,SMDPad,CuDef*%
%ADD20RoundRect,0.150000X0.825000X0.150000X-0.825000X0.150000X-0.825000X-0.150000X0.825000X-0.150000X0*%
%TD*%
%TA.AperFunction,SMDPad,CuDef*%
%ADD21RoundRect,0.250000X0.475000X-0.337500X0.475000X0.337500X-0.475000X0.337500X-0.475000X-0.337500X0*%
%TD*%
%TA.AperFunction,SMDPad,CuDef*%
%ADD22R,2.000000X1.500000*%
%TD*%
%TA.AperFunction,SMDPad,CuDef*%
%ADD23R,2.000000X3.800000*%
%TD*%
%TA.AperFunction,ComponentPad*%
%ADD24RoundRect,0.291667X-1.508333X0.758333X-1.508333X-0.758333X1.508333X-0.758333X1.508333X0.758333X0*%
%TD*%
%TA.AperFunction,ComponentPad*%
%ADD25O,3.600000X2.100000*%
%TD*%
%TA.AperFunction,ComponentPad*%
%ADD26C,1.700000*%
%TD*%
%TA.AperFunction,ViaPad*%
%ADD27C,0.800000*%
%TD*%
%TA.AperFunction,Conductor*%
%ADD28C,1.000000*%
%TD*%
%TA.AperFunction,Conductor*%
%ADD29C,0.400000*%
%TD*%
G04 APERTURE END LIST*
D10*
%TO.P,U5,1,5V*%
%TO.N,+5V*%
X155910000Y-79760000D03*
D11*
X155910000Y-78860000D03*
D10*
%TO.P,U5,2,GND*%
%TO.N,GND*%
X153370000Y-79760000D03*
D11*
X153370000Y-78860000D03*
D10*
%TO.P,U5,3,3V3*%
%TO.N,+3.3V*%
X150830000Y-79760000D03*
D11*
X150830000Y-78860000D03*
D10*
%TO.P,U5,4,GPIO29*%
%TO.N,unconnected-(U5-GPIO29-Pad4)*%
X148290000Y-79760000D03*
D11*
X148290000Y-78860000D03*
D10*
%TO.P,U5,5,GPIO28*%
%TO.N,unconnected-(U5-GPIO28-Pad5)*%
X145750000Y-79760000D03*
D11*
X145750000Y-78860000D03*
D10*
%TO.P,U5,6,GPIO27*%
%TO.N,unconnected-(U5-GPIO27-Pad6)*%
X143210000Y-79760000D03*
D11*
X143210000Y-78860000D03*
D10*
%TO.P,U5,7,GPIO26*%
%TO.N,unconnected-(U5-GPIO26-Pad7)*%
X140670000Y-79760000D03*
D11*
X140670000Y-78860000D03*
D10*
%TO.P,U5,8,GPIO15*%
%TO.N,unconnected-(U5-GPIO15-Pad8)*%
X138130000Y-79760000D03*
D11*
X138130000Y-78860000D03*
D10*
%TO.P,U5,9,GPIO14*%
%TO.N,OUT1*%
X135590000Y-79760000D03*
D11*
X135590000Y-78860000D03*
D10*
%TO.P,U5,10,GPIO13*%
%TO.N,SW1*%
X135600000Y-82300000D03*
D12*
X134700000Y-82300000D03*
D10*
%TO.P,U5,11,GPIO12*%
%TO.N,unconnected-(U5-GPIO12-Pad11)*%
X135600000Y-84840000D03*
D12*
X134700000Y-84840000D03*
D10*
%TO.P,U5,12,GPIO11*%
%TO.N,I2C_SCL*%
X135600000Y-87380000D03*
D12*
X134700000Y-87380000D03*
D10*
%TO.P,U5,13,GPIO10*%
%TO.N,I2C_SDA*%
X135600000Y-89920000D03*
D12*
X134700000Y-89920000D03*
D10*
%TO.P,U5,14,GPIO9*%
%TO.N,unconnected-(U5-GPIO9-Pad14)*%
X135600000Y-92460000D03*
D12*
X134700000Y-92460000D03*
D10*
%TO.P,U5,15,GPIO8*%
%TO.N,unconnected-(U5-GPIO8-Pad15)*%
X135590000Y-95000000D03*
D11*
X135590000Y-95900000D03*
D10*
%TO.P,U5,16,GPIO7*%
%TO.N,unconnected-(U5-GPIO7-Pad16)*%
X138130000Y-95000000D03*
D11*
X138130000Y-95900000D03*
D10*
%TO.P,U5,17,GPIO6*%
%TO.N,unconnected-(U5-GPIO6-Pad17)*%
X140670000Y-95000000D03*
D11*
X140670000Y-95900000D03*
D10*
%TO.P,U5,18,GPIO5*%
%TO.N,unconnected-(U5-GPIO5-Pad18)*%
X143210000Y-95000000D03*
D11*
X143210000Y-95900000D03*
D10*
%TO.P,U5,19,GPIO4*%
%TO.N,unconnected-(U5-GPIO4-Pad19)*%
X145750000Y-95000000D03*
D11*
X145750000Y-95900000D03*
D10*
%TO.P,U5,20,GPIO3*%
%TO.N,unconnected-(U5-GPIO3-Pad20)*%
X148290000Y-95000000D03*
D11*
X148290000Y-95900000D03*
D10*
%TO.P,U5,21,GPIO2*%
%TO.N,unconnected-(U5-GPIO2-Pad21)*%
X150830000Y-95000000D03*
D11*
X150830000Y-95900000D03*
D10*
%TO.P,U5,22,GPIO1*%
%TO.N,unconnected-(U5-GPIO1-Pad22)*%
X153370000Y-95000000D03*
D11*
X153370000Y-95900000D03*
D10*
%TO.P,U5,23,GPIO0*%
%TO.N,unconnected-(U5-GPIO0-Pad23)*%
X155910000Y-95000000D03*
D11*
X155910000Y-95900000D03*
%TD*%
D13*
%TO.P,R2,1*%
%TO.N,VIN1*%
X113000000Y-91800000D03*
%TO.P,R2,2*%
%TO.N,VOUT1*%
X113000000Y-85700000D03*
%TD*%
D14*
%TO.P,TB1,1,P1*%
%TO.N,VIN1*%
X105357500Y-92112500D03*
D15*
%TO.P,TB1,2,P2*%
%TO.N,GND*%
X105357500Y-95922500D03*
%TD*%
D16*
%TO.P,R3,1*%
%TO.N,Net-(U4-A0)*%
X124687500Y-88000000D03*
%TO.P,R3,2*%
%TO.N,GND*%
X126512500Y-88000000D03*
%TD*%
D17*
%TO.P,C6,1*%
%TO.N,GND*%
X153737500Y-75600000D03*
%TO.P,C6,2*%
%TO.N,+5V*%
X155462500Y-75600000D03*
%TD*%
D18*
%TO.P,C1,1*%
%TO.N,+5V*%
X116800000Y-79462500D03*
%TO.P,C1,2*%
%TO.N,GND*%
X116800000Y-77737500D03*
%TD*%
D19*
%TO.P,U1,1*%
%TO.N,GND*%
X115050000Y-77140000D03*
%TO.P,U1,2*%
%TO.N,OUT1*%
X114100000Y-77140000D03*
%TO.P,U1,3,GND*%
%TO.N,GND*%
X113150000Y-77140000D03*
%TO.P,U1,4*%
%TO.N,Net-(R1-Pad2)*%
X113150000Y-79460000D03*
%TO.P,U1,5,VCC*%
%TO.N,+5V*%
X115050000Y-79460000D03*
%TD*%
D20*
%TO.P,U4,1,A1*%
%TO.N,Net-(U4-A1)*%
X122475000Y-89405000D03*
%TO.P,U4,2,A0*%
%TO.N,Net-(U4-A0)*%
X122475000Y-88135000D03*
%TO.P,U4,3,SDA*%
%TO.N,I2C_SDA*%
X122475000Y-86865000D03*
%TO.P,U4,4,SCL*%
%TO.N,I2C_SCL*%
X122475000Y-85595000D03*
%TO.P,U4,5,VS*%
%TO.N,+3.3V*%
X117525000Y-85595000D03*
%TO.P,U4,6,GND*%
%TO.N,GND*%
X117525000Y-86865000D03*
%TO.P,U4,7,IN-*%
%TO.N,VOUT1*%
X117525000Y-88135000D03*
%TO.P,U4,8,IN+*%
%TO.N,VIN1*%
X117525000Y-89405000D03*
%TD*%
D21*
%TO.P,C4,1*%
%TO.N,+5V*%
X128800000Y-95237500D03*
%TO.P,C4,2*%
%TO.N,GND*%
X128800000Y-93162500D03*
%TD*%
D16*
%TO.P,R1,1*%
%TO.N,/DOUT1*%
X111287500Y-81200000D03*
%TO.P,R1,2*%
%TO.N,Net-(R1-Pad2)*%
X113112500Y-81200000D03*
%TD*%
D22*
%TO.P,U3,1,GND*%
%TO.N,GND*%
X120000000Y-92900000D03*
%TO.P,U3,2,VO*%
%TO.N,+5V*%
X120000000Y-95200000D03*
D23*
X126300000Y-95200000D03*
D22*
%TO.P,U3,3,VI*%
%TO.N,VIN1*%
X120000000Y-97500000D03*
%TD*%
D17*
%TO.P,C5,1*%
%TO.N,+3.3V*%
X117600000Y-83900000D03*
%TO.P,C5,2*%
%TO.N,GND*%
X119325000Y-83900000D03*
%TD*%
D21*
%TO.P,C3,1*%
%TO.N,VIN1*%
X117500000Y-95037500D03*
%TO.P,C3,2*%
%TO.N,GND*%
X117500000Y-92962500D03*
%TD*%
D16*
%TO.P,R4,1*%
%TO.N,Net-(U4-A1)*%
X124687500Y-89600000D03*
%TO.P,R4,2*%
%TO.N,GND*%
X126512500Y-89600000D03*
%TD*%
D24*
%TO.P,J2,1,Pin_1*%
%TO.N,GND*%
X105357500Y-77680000D03*
D15*
%TO.P,J2,2,Pin_2*%
%TO.N,/DOUT1*%
X105357500Y-81340000D03*
D25*
%TO.P,J2,3,Pin_3*%
%TO.N,VOUT1*%
X105357500Y-85000000D03*
%TD*%
D26*
%TO.P,J3,1,Pin_1*%
%TO.N,I2C_SDA*%
X130000000Y-91000000D03*
%TO.P,J3,2,Pin_2*%
%TO.N,I2C_SCL*%
X130000000Y-88500000D03*
%TO.P,J3,3,Pin_3*%
%TO.N,+3.3V*%
X130000000Y-85900000D03*
%TO.P,J3,4,Pin_4*%
%TO.N,GND*%
X130000000Y-83400000D03*
%TD*%
D27*
%TO.N,+5V*%
X128000000Y-81500000D03*
X131500000Y-95237500D03*
%TO.N,GND*%
X138100000Y-92800000D03*
X129000000Y-80000000D03*
X119900000Y-88900000D03*
X124400000Y-93900000D03*
X118000000Y-99000000D03*
X138200000Y-81900000D03*
X125800000Y-92300000D03*
X108000000Y-101000000D03*
X115900000Y-99000000D03*
X101000000Y-74000000D03*
X146000000Y-74000000D03*
X111800000Y-79500000D03*
X157000000Y-74000000D03*
X155900000Y-81900000D03*
X152000000Y-101000000D03*
X125600000Y-98000000D03*
X122200000Y-93900000D03*
X122200000Y-90700000D03*
X140000000Y-74000000D03*
X147050000Y-81900000D03*
X114200000Y-95100000D03*
X123300000Y-92900000D03*
X134000000Y-74000000D03*
X111800000Y-77100000D03*
X126500000Y-74000000D03*
X153700000Y-74200000D03*
X122000000Y-96500000D03*
X126000000Y-77500000D03*
X101000000Y-94500000D03*
X112800000Y-75400000D03*
X124400000Y-92900000D03*
X124000000Y-96500000D03*
X116000000Y-81500000D03*
X155900000Y-92800000D03*
X122000000Y-98000000D03*
X138100000Y-87400000D03*
X151450000Y-92800000D03*
X120500000Y-74000000D03*
X121200000Y-90700000D03*
X122900000Y-77400000D03*
X101000000Y-83500000D03*
X120200000Y-77400000D03*
X151475000Y-81900000D03*
X147000000Y-101000000D03*
X128200000Y-91100000D03*
X119700000Y-86900000D03*
X141000000Y-101000000D03*
X122200000Y-92900000D03*
X157500000Y-101000000D03*
X126000000Y-82000000D03*
X101000000Y-89000000D03*
X127000000Y-92300000D03*
X120100000Y-85600000D03*
X118200000Y-77700000D03*
X122200000Y-91800000D03*
X147000000Y-92800000D03*
X126900000Y-98000000D03*
X121000000Y-101000000D03*
X123000000Y-80900000D03*
X109000000Y-74000000D03*
X142625000Y-81900000D03*
X123000000Y-98000000D03*
X142550000Y-92800000D03*
X135000000Y-101000000D03*
X130600000Y-93200000D03*
X115000000Y-74000000D03*
X124000000Y-98000000D03*
X101000000Y-79700000D03*
X117500000Y-91100000D03*
X101000000Y-101000000D03*
X121300000Y-84000000D03*
X152300000Y-74200000D03*
X152300000Y-75600000D03*
X155900000Y-87500000D03*
X115900000Y-96600000D03*
X125800000Y-91100000D03*
X127000000Y-101000000D03*
X123300000Y-93900000D03*
X123000000Y-96500000D03*
X127000000Y-91100000D03*
X119600000Y-80900000D03*
X115000000Y-101000000D03*
%TO.N,VIN1*%
X113500000Y-90500000D03*
X114500000Y-90500000D03*
X112500000Y-93500000D03*
X115500000Y-92500000D03*
X115500000Y-89500000D03*
X111500000Y-93500000D03*
X113500000Y-89500000D03*
X111500000Y-90500000D03*
X112500000Y-89500000D03*
X113500000Y-93500000D03*
X110500000Y-89500000D03*
X114500000Y-89500000D03*
X114500000Y-93500000D03*
X110500000Y-93500000D03*
X115500000Y-93500000D03*
X111500000Y-89500000D03*
X115500000Y-91500000D03*
X115500000Y-90500000D03*
X110500000Y-91500000D03*
X110500000Y-90500000D03*
X112500000Y-90500000D03*
X110500000Y-92500000D03*
%TO.N,VOUT1*%
X115500000Y-86000000D03*
X115500000Y-85000000D03*
X112500000Y-84000000D03*
X111500000Y-84000000D03*
X115500000Y-84000000D03*
X115500000Y-87000000D03*
X110500000Y-85000000D03*
X112500000Y-88000000D03*
X114500000Y-84000000D03*
X110500000Y-86000000D03*
X111500000Y-88000000D03*
X113500000Y-88000000D03*
X110500000Y-88000000D03*
X110500000Y-87000000D03*
X111500000Y-87000000D03*
X115500000Y-88000000D03*
X110500000Y-84000000D03*
X114500000Y-87000000D03*
X113500000Y-84000000D03*
X113500000Y-87000000D03*
X112500000Y-87000000D03*
X114500000Y-88000000D03*
%TO.N,OUT1*%
X132000000Y-78500000D03*
%TD*%
D28*
%TO.N,+5V*%
X126300000Y-95200000D02*
X120000000Y-95200000D01*
X157600000Y-98400000D02*
X157000000Y-99000000D01*
X131500000Y-95237500D02*
X128800000Y-95237500D01*
X155462500Y-75600000D02*
X156850000Y-75600000D01*
X128762500Y-95200000D02*
X126300000Y-95200000D01*
X128000000Y-81500000D02*
X125862500Y-79362500D01*
X128800000Y-95237500D02*
X128762500Y-95200000D01*
X128837500Y-95200000D02*
X128800000Y-95237500D01*
X133700000Y-96700000D02*
X132237500Y-95237500D01*
X115050000Y-79460000D02*
X116797500Y-79460000D01*
X155600000Y-75737500D02*
X155600000Y-79450000D01*
X155600000Y-79450000D02*
X155910000Y-79760000D01*
X116797500Y-79460000D02*
X116800000Y-79462500D01*
X125862500Y-79362500D02*
X116900000Y-79362500D01*
X157000000Y-99000000D02*
X134700000Y-99000000D01*
X157600000Y-76350000D02*
X157600000Y-98400000D01*
X116900000Y-79362500D02*
X116800000Y-79462500D01*
X156850000Y-75600000D02*
X157600000Y-76350000D01*
X132237500Y-95237500D02*
X131500000Y-95237500D01*
X134700000Y-99000000D02*
X133700000Y-98000000D01*
X155462500Y-75600000D02*
X155600000Y-75737500D01*
X133700000Y-98000000D02*
X133700000Y-96700000D01*
D29*
%TO.N,GND*%
X119400000Y-86600000D02*
X119400000Y-83975000D01*
X119700000Y-86900000D02*
X119400000Y-86600000D01*
X119665000Y-86865000D02*
X119700000Y-86900000D01*
X119400000Y-83975000D02*
X119325000Y-83900000D01*
X117525000Y-86865000D02*
X119665000Y-86865000D01*
D28*
%TO.N,VIN1*%
X120000000Y-97500000D02*
X118000000Y-97500000D01*
X115800000Y-95037500D02*
X115800000Y-93800000D01*
X117500000Y-95037500D02*
X115800000Y-95037500D01*
X115800000Y-93800000D02*
X115500000Y-93500000D01*
X118000000Y-97500000D02*
X117500000Y-97000000D01*
X117500000Y-97000000D02*
X117500000Y-95037500D01*
%TO.N,+3.3V*%
X132000000Y-84200000D02*
X130300000Y-85900000D01*
X150830000Y-79760000D02*
X150830000Y-76330000D01*
X133500000Y-77073161D02*
X133500000Y-79500000D01*
X135073161Y-75500000D02*
X133500000Y-77073161D01*
X128600000Y-84500000D02*
X124000000Y-84500000D01*
X117525000Y-83975000D02*
X117600000Y-83900000D01*
X133500000Y-79500000D02*
X132000000Y-81000000D01*
X117600000Y-82500000D02*
X117600000Y-83900000D01*
X117525000Y-85595000D02*
X117525000Y-83975000D01*
X130000000Y-85900000D02*
X128600000Y-84500000D01*
X122000000Y-82500000D02*
X117600000Y-82500000D01*
X132000000Y-81000000D02*
X132000000Y-84200000D01*
X150830000Y-76330000D02*
X150000000Y-75500000D01*
X124000000Y-84500000D02*
X122000000Y-82500000D01*
X150000000Y-75500000D02*
X135073161Y-75500000D01*
X130300000Y-85900000D02*
X130000000Y-85900000D01*
D29*
%TO.N,/DOUT1*%
X111147500Y-81340000D02*
X105357500Y-81340000D01*
X111287500Y-81200000D02*
X111147500Y-81340000D01*
%TO.N,I2C_SDA*%
X128600000Y-89600000D02*
X128600000Y-87600000D01*
X128600000Y-87600000D02*
X127865000Y-86865000D01*
X131080000Y-89920000D02*
X130000000Y-91000000D01*
X130000000Y-91000000D02*
X128600000Y-89600000D01*
X127865000Y-86865000D02*
X122475000Y-86865000D01*
X135600000Y-89920000D02*
X131080000Y-89920000D01*
%TO.N,I2C_SCL*%
X135600000Y-87380000D02*
X131120000Y-87380000D01*
X127595000Y-85595000D02*
X122475000Y-85595000D01*
X130000000Y-88500000D02*
X130000000Y-88000000D01*
X130000000Y-88000000D02*
X127595000Y-85595000D01*
X131120000Y-87380000D02*
X130000000Y-88500000D01*
%TO.N,Net-(R1-Pad2)*%
X113150000Y-81162500D02*
X113112500Y-81200000D01*
X113150000Y-79460000D02*
X113150000Y-81162500D01*
%TO.N,Net-(U4-A0)*%
X122475000Y-88135000D02*
X124552500Y-88135000D01*
X124552500Y-88135000D02*
X124687500Y-88000000D01*
%TO.N,Net-(U4-A1)*%
X124492500Y-89405000D02*
X124687500Y-89600000D01*
X122475000Y-89405000D02*
X124492500Y-89405000D01*
%TO.N,OUT1*%
X126100000Y-75600000D02*
X114600000Y-75600000D01*
X114600000Y-75600000D02*
X114100000Y-76100000D01*
X132000000Y-78500000D02*
X129000000Y-78500000D01*
X129000000Y-78500000D02*
X126100000Y-75600000D01*
X114100000Y-76100000D02*
X114100000Y-77140000D01*
%TD*%
%TA.AperFunction,Conductor*%
%TO.N,VOUT1*%
G36*
X116243039Y-83519685D02*
G01*
X116288794Y-83572489D01*
X116300000Y-83624000D01*
X116300000Y-84873691D01*
X116280315Y-84940730D01*
X116263681Y-84961372D01*
X116181923Y-85043129D01*
X116181917Y-85043137D01*
X116098255Y-85184603D01*
X116098254Y-85184606D01*
X116052402Y-85342426D01*
X116052401Y-85342432D01*
X116049500Y-85379298D01*
X116049500Y-85810701D01*
X116052401Y-85847567D01*
X116052402Y-85847573D01*
X116098254Y-86005393D01*
X116098255Y-86005396D01*
X116181917Y-86146862D01*
X116186702Y-86153031D01*
X116184256Y-86154927D01*
X116210857Y-86203642D01*
X116205873Y-86273334D01*
X116185069Y-86305703D01*
X116186702Y-86306969D01*
X116181917Y-86313137D01*
X116098255Y-86454603D01*
X116098254Y-86454606D01*
X116052402Y-86612426D01*
X116052401Y-86612432D01*
X116049500Y-86649298D01*
X116049500Y-87080701D01*
X116052401Y-87117567D01*
X116052402Y-87117573D01*
X116098254Y-87275393D01*
X116098255Y-87275396D01*
X116098256Y-87275398D01*
X116181919Y-87416865D01*
X116263682Y-87498628D01*
X116297166Y-87559949D01*
X116300000Y-87586308D01*
X116300000Y-87600000D01*
X116377367Y-87600000D01*
X116431896Y-87614916D01*
X116432446Y-87613647D01*
X116439597Y-87616741D01*
X116439602Y-87616744D01*
X116481224Y-87628836D01*
X116597426Y-87662597D01*
X116597429Y-87662597D01*
X116597431Y-87662598D01*
X116634306Y-87665500D01*
X116634314Y-87665500D01*
X118415686Y-87665500D01*
X118415694Y-87665500D01*
X118452569Y-87662598D01*
X118452571Y-87662597D01*
X118452573Y-87662597D01*
X118541405Y-87636789D01*
X118611274Y-87636988D01*
X118669944Y-87674930D01*
X118698788Y-87738568D01*
X118700000Y-87755865D01*
X118700000Y-88376000D01*
X118680315Y-88443039D01*
X118627511Y-88488794D01*
X118576000Y-88500000D01*
X102324000Y-88500000D01*
X102256961Y-88480315D01*
X102211206Y-88427511D01*
X102200000Y-88376000D01*
X102200000Y-83624000D01*
X102219685Y-83556961D01*
X102272489Y-83511206D01*
X102324000Y-83500000D01*
X116176000Y-83500000D01*
X116243039Y-83519685D01*
G37*
%TD.AperFunction*%
%TD*%
%TA.AperFunction,Conductor*%
%TO.N,GND*%
G36*
X158442539Y-72520185D02*
G01*
X158488294Y-72572989D01*
X158499500Y-72624500D01*
X158499500Y-75839663D01*
X158479815Y-75906702D01*
X158427011Y-75952457D01*
X158357853Y-75962401D01*
X158294297Y-75933376D01*
X158278554Y-75916977D01*
X158258225Y-75891486D01*
X158250186Y-75880157D01*
X158229816Y-75847738D01*
X158102262Y-75720184D01*
X157384252Y-75002174D01*
X157352262Y-74970184D01*
X157352259Y-74970182D01*
X157319849Y-74949817D01*
X157308510Y-74941771D01*
X157278589Y-74917910D01*
X157244093Y-74901296D01*
X157231927Y-74894572D01*
X157199524Y-74874212D01*
X157199525Y-74874212D01*
X157188005Y-74870181D01*
X157163393Y-74861568D01*
X157150554Y-74856250D01*
X157116061Y-74839639D01*
X157078735Y-74831119D01*
X157065380Y-74827271D01*
X157029260Y-74814633D01*
X157029256Y-74814632D01*
X157029255Y-74814632D01*
X157011139Y-74812590D01*
X156991217Y-74810345D01*
X156977518Y-74808017D01*
X156940200Y-74799501D01*
X156940196Y-74799500D01*
X156940194Y-74799500D01*
X156894954Y-74799500D01*
X155552694Y-74799500D01*
X155372306Y-74799500D01*
X155364834Y-74801205D01*
X155334978Y-74808018D01*
X155321281Y-74810345D01*
X155283243Y-74814632D01*
X155247122Y-74827271D01*
X155233769Y-74831118D01*
X155196439Y-74839639D01*
X155161952Y-74856247D01*
X155149114Y-74861565D01*
X155124017Y-74870348D01*
X155096314Y-74876597D01*
X155057700Y-74880748D01*
X154926219Y-74929789D01*
X154813884Y-75013884D01*
X154738314Y-75114833D01*
X154729788Y-75126222D01*
X154726344Y-75135457D01*
X154715913Y-75163421D01*
X154674040Y-75219353D01*
X154608574Y-75243768D01*
X154540302Y-75228914D01*
X154490898Y-75179508D01*
X154483550Y-75163416D01*
X154469768Y-75126465D01*
X154469767Y-75126463D01*
X154385758Y-75014241D01*
X154273537Y-74930232D01*
X154142186Y-74881241D01*
X154142187Y-74881241D01*
X154087500Y-74875361D01*
X154087500Y-76345272D01*
X154095582Y-76358356D01*
X154100000Y-76391162D01*
X154100000Y-77013566D01*
X154117166Y-77045004D01*
X154120000Y-77071362D01*
X154120000Y-81110000D01*
X154267828Y-81110000D01*
X154267844Y-81109999D01*
X154327372Y-81103598D01*
X154327379Y-81103596D01*
X154462086Y-81053354D01*
X154462093Y-81053350D01*
X154577187Y-80967190D01*
X154577190Y-80967187D01*
X154668669Y-80844989D01*
X154671548Y-80847144D01*
X154708777Y-80809852D01*
X154777037Y-80794940D01*
X154842523Y-80819300D01*
X154855980Y-80830951D01*
X154887235Y-80862206D01*
X154990009Y-80907585D01*
X155015135Y-80910500D01*
X156675500Y-80910499D01*
X156742539Y-80930184D01*
X156788294Y-80982987D01*
X156799500Y-81034499D01*
X156799500Y-93725500D01*
X156779815Y-93792539D01*
X156727011Y-93838294D01*
X156675500Y-93849500D01*
X155015143Y-93849500D01*
X155015117Y-93849502D01*
X154990012Y-93852413D01*
X154990008Y-93852415D01*
X154887235Y-93897793D01*
X154807794Y-93977234D01*
X154762415Y-94080006D01*
X154759967Y-94089007D01*
X154756934Y-94088181D01*
X154735885Y-94137801D01*
X154678156Y-94177159D01*
X154608312Y-94179058D01*
X154548529Y-94142895D01*
X154521882Y-94088510D01*
X154520035Y-94089013D01*
X154517585Y-94080013D01*
X154517585Y-94080009D01*
X154472206Y-93977235D01*
X154392765Y-93897794D01*
X154343427Y-93876009D01*
X154289992Y-93852415D01*
X154264865Y-93849500D01*
X152475143Y-93849500D01*
X152475117Y-93849502D01*
X152450012Y-93852413D01*
X152450008Y-93852415D01*
X152347235Y-93897793D01*
X152267794Y-93977234D01*
X152222415Y-94080006D01*
X152219967Y-94089007D01*
X152216934Y-94088181D01*
X152195885Y-94137801D01*
X152138156Y-94177159D01*
X152068312Y-94179058D01*
X152008529Y-94142895D01*
X151981882Y-94088510D01*
X151980035Y-94089013D01*
X151977585Y-94080013D01*
X151977585Y-94080009D01*
X151932206Y-93977235D01*
X151852765Y-93897794D01*
X151803427Y-93876009D01*
X151749992Y-93852415D01*
X151724865Y-93849500D01*
X149935143Y-93849500D01*
X149935117Y-93849502D01*
X149910012Y-93852413D01*
X149910008Y-93852415D01*
X149807235Y-93897793D01*
X149727794Y-93977234D01*
X149682415Y-94080006D01*
X149679967Y-94089007D01*
X149676934Y-94088181D01*
X149655885Y-94137801D01*
X149598156Y-94177159D01*
X149528312Y-94179058D01*
X149468529Y-94142895D01*
X149441882Y-94088510D01*
X149440035Y-94089013D01*
X149437585Y-94080013D01*
X149437585Y-94080009D01*
X149392206Y-93977235D01*
X149312765Y-93897794D01*
X149263427Y-93876009D01*
X149209992Y-93852415D01*
X149184865Y-93849500D01*
X147395143Y-93849500D01*
X147395117Y-93849502D01*
X147370012Y-93852413D01*
X147370008Y-93852415D01*
X147267235Y-93897793D01*
X147187794Y-93977234D01*
X147142415Y-94080006D01*
X147139967Y-94089007D01*
X147136934Y-94088181D01*
X147115885Y-94137801D01*
X147058156Y-94177159D01*
X146988312Y-94179058D01*
X146928529Y-94142895D01*
X146901882Y-94088510D01*
X146900035Y-94089013D01*
X146897585Y-94080013D01*
X146897585Y-94080009D01*
X146852206Y-93977235D01*
X146772765Y-93897794D01*
X146723427Y-93876009D01*
X146669992Y-93852415D01*
X146644865Y-93849500D01*
X144855143Y-93849500D01*
X144855117Y-93849502D01*
X144830012Y-93852413D01*
X144830008Y-93852415D01*
X144727235Y-93897793D01*
X144647794Y-93977234D01*
X144602415Y-94080006D01*
X144599967Y-94089007D01*
X144596934Y-94088181D01*
X144575885Y-94137801D01*
X144518156Y-94177159D01*
X144448312Y-94179058D01*
X144388529Y-94142895D01*
X144361882Y-94088510D01*
X144360035Y-94089013D01*
X144357585Y-94080013D01*
X144357585Y-94080009D01*
X144312206Y-93977235D01*
X144232765Y-93897794D01*
X144183427Y-93876009D01*
X144129992Y-93852415D01*
X144104865Y-93849500D01*
X142315143Y-93849500D01*
X142315117Y-93849502D01*
X142290012Y-93852413D01*
X142290008Y-93852415D01*
X142187235Y-93897793D01*
X142107794Y-93977234D01*
X142062415Y-94080006D01*
X142059967Y-94089007D01*
X142056934Y-94088181D01*
X142035885Y-94137801D01*
X141978156Y-94177159D01*
X141908312Y-94179058D01*
X141848529Y-94142895D01*
X141821882Y-94088510D01*
X141820035Y-94089013D01*
X141817585Y-94080013D01*
X141817585Y-94080009D01*
X141772206Y-93977235D01*
X141692765Y-93897794D01*
X141643427Y-93876009D01*
X141589992Y-93852415D01*
X141564865Y-93849500D01*
X139775143Y-93849500D01*
X139775117Y-93849502D01*
X139750012Y-93852413D01*
X139750008Y-93852415D01*
X139647235Y-93897793D01*
X139567794Y-93977234D01*
X139522415Y-94080006D01*
X139519967Y-94089007D01*
X139516934Y-94088181D01*
X139495885Y-94137801D01*
X139438156Y-94177159D01*
X139368312Y-94179058D01*
X139308529Y-94142895D01*
X139281882Y-94088510D01*
X139280035Y-94089013D01*
X139277585Y-94080013D01*
X139277585Y-94080009D01*
X139232206Y-93977235D01*
X139152765Y-93897794D01*
X139103427Y-93876009D01*
X139049992Y-93852415D01*
X139024865Y-93849500D01*
X137235143Y-93849500D01*
X137235117Y-93849502D01*
X137210012Y-93852413D01*
X137210008Y-93852415D01*
X137107235Y-93897793D01*
X137027794Y-93977234D01*
X136982415Y-94080006D01*
X136979967Y-94089007D01*
X136976934Y-94088181D01*
X136955885Y-94137801D01*
X136898156Y-94177159D01*
X136828312Y-94179058D01*
X136768529Y-94142895D01*
X136741882Y-94088510D01*
X136740035Y-94089013D01*
X136737585Y-94080013D01*
X136737585Y-94080009D01*
X136692206Y-93977235D01*
X136612765Y-93897794D01*
X136563406Y-93876000D01*
X136509989Y-93852414D01*
X136502352Y-93850336D01*
X136442832Y-93813741D01*
X136412545Y-93750777D01*
X136421108Y-93681434D01*
X136465801Y-93627728D01*
X136511241Y-93610972D01*
X136510987Y-93610035D01*
X136519984Y-93607585D01*
X136519991Y-93607585D01*
X136622765Y-93562206D01*
X136702206Y-93482765D01*
X136747585Y-93379991D01*
X136750500Y-93354865D01*
X136750499Y-91565136D01*
X136750497Y-91565117D01*
X136747586Y-91540012D01*
X136747585Y-91540010D01*
X136747585Y-91540009D01*
X136702206Y-91437235D01*
X136622765Y-91357794D01*
X136622763Y-91357793D01*
X136519993Y-91312415D01*
X136510993Y-91309967D01*
X136511817Y-91306934D01*
X136462202Y-91285889D01*
X136422842Y-91228161D01*
X136420940Y-91158317D01*
X136457100Y-91098532D01*
X136511489Y-91071880D01*
X136510987Y-91070035D01*
X136519984Y-91067585D01*
X136519991Y-91067585D01*
X136622765Y-91022206D01*
X136702206Y-90942765D01*
X136747585Y-90839991D01*
X136750500Y-90814865D01*
X136750499Y-89025136D01*
X136750497Y-89025117D01*
X136747586Y-89000012D01*
X136747585Y-89000010D01*
X136747585Y-89000009D01*
X136702206Y-88897235D01*
X136622765Y-88817794D01*
X136614458Y-88814126D01*
X136519993Y-88772415D01*
X136510993Y-88769967D01*
X136511817Y-88766934D01*
X136462202Y-88745889D01*
X136422842Y-88688161D01*
X136420940Y-88618317D01*
X136457100Y-88558532D01*
X136511489Y-88531880D01*
X136510987Y-88530035D01*
X136519984Y-88527585D01*
X136519991Y-88527585D01*
X136622765Y-88482206D01*
X136702206Y-88402765D01*
X136747585Y-88299991D01*
X136750500Y-88274865D01*
X136750499Y-86485136D01*
X136750497Y-86485117D01*
X136747586Y-86460012D01*
X136747585Y-86460010D01*
X136747585Y-86460009D01*
X136702206Y-86357235D01*
X136622765Y-86277794D01*
X136592657Y-86264500D01*
X136519993Y-86232415D01*
X136510993Y-86229967D01*
X136511817Y-86226934D01*
X136462202Y-86205889D01*
X136422842Y-86148161D01*
X136420940Y-86078317D01*
X136457100Y-86018532D01*
X136511489Y-85991880D01*
X136510987Y-85990035D01*
X136519984Y-85987585D01*
X136519991Y-85987585D01*
X136622765Y-85942206D01*
X136702206Y-85862765D01*
X136747585Y-85759991D01*
X136750500Y-85734865D01*
X136750499Y-83945136D01*
X136750497Y-83945117D01*
X136747586Y-83920012D01*
X136747585Y-83920010D01*
X136747585Y-83920009D01*
X136702206Y-83817235D01*
X136622765Y-83737794D01*
X136599499Y-83727521D01*
X136519993Y-83692415D01*
X136510993Y-83689967D01*
X136511817Y-83686934D01*
X136462202Y-83665889D01*
X136422842Y-83608161D01*
X136420940Y-83538317D01*
X136457100Y-83478532D01*
X136511489Y-83451880D01*
X136510987Y-83450035D01*
X136519984Y-83447585D01*
X136519991Y-83447585D01*
X136622765Y-83402206D01*
X136702206Y-83322765D01*
X136747585Y-83219991D01*
X136750500Y-83194865D01*
X136750499Y-81405136D01*
X136750497Y-81405117D01*
X136747586Y-81380012D01*
X136747585Y-81380010D01*
X136747585Y-81380009D01*
X136702206Y-81277235D01*
X136622765Y-81197794D01*
X136519993Y-81152415D01*
X136510993Y-81149967D01*
X136511373Y-81148569D01*
X136456285Y-81125202D01*
X136416924Y-81067474D01*
X136415022Y-80997630D01*
X136451182Y-80937846D01*
X136502357Y-80909661D01*
X136509980Y-80907586D01*
X136509991Y-80907585D01*
X136612765Y-80862206D01*
X136692206Y-80782765D01*
X136737585Y-80679991D01*
X136737585Y-80679988D01*
X136740033Y-80670993D01*
X136743071Y-80671819D01*
X136764082Y-80622237D01*
X136821795Y-80582856D01*
X136891639Y-80580928D01*
X136951436Y-80617067D01*
X136978126Y-80671487D01*
X136979965Y-80670987D01*
X136982415Y-80679991D01*
X137027793Y-80782764D01*
X137027794Y-80782765D01*
X137107235Y-80862206D01*
X137210009Y-80907585D01*
X137235135Y-80910500D01*
X139024864Y-80910499D01*
X139024879Y-80910497D01*
X139024882Y-80910497D01*
X139049987Y-80907586D01*
X139049988Y-80907585D01*
X139049991Y-80907585D01*
X139152765Y-80862206D01*
X139232206Y-80782765D01*
X139277585Y-80679991D01*
X139277585Y-80679988D01*
X139280033Y-80670993D01*
X139283071Y-80671819D01*
X139304082Y-80622237D01*
X139361795Y-80582856D01*
X139431639Y-80580928D01*
X139491436Y-80617067D01*
X139518126Y-80671487D01*
X139519965Y-80670987D01*
X139522415Y-80679991D01*
X139567793Y-80782764D01*
X139567794Y-80782765D01*
X139647235Y-80862206D01*
X139750009Y-80907585D01*
X139775135Y-80910500D01*
X141564864Y-80910499D01*
X141564879Y-80910497D01*
X141564882Y-80910497D01*
X141589987Y-80907586D01*
X141589988Y-80907585D01*
X141589991Y-80907585D01*
X141692765Y-80862206D01*
X141772206Y-80782765D01*
X141817585Y-80679991D01*
X141817585Y-80679988D01*
X141820033Y-80670993D01*
X141823071Y-80671819D01*
X141844082Y-80622237D01*
X141901795Y-80582856D01*
X141971639Y-80580928D01*
X142031436Y-80617067D01*
X142058126Y-80671487D01*
X142059965Y-80670987D01*
X142062415Y-80679991D01*
X142107793Y-80782764D01*
X142107794Y-80782765D01*
X142187235Y-80862206D01*
X142290009Y-80907585D01*
X142315135Y-80910500D01*
X144104864Y-80910499D01*
X144104879Y-80910497D01*
X144104882Y-80910497D01*
X144129987Y-80907586D01*
X144129988Y-80907585D01*
X144129991Y-80907585D01*
X144232765Y-80862206D01*
X144312206Y-80782765D01*
X144357585Y-80679991D01*
X144357585Y-80679988D01*
X144360033Y-80670993D01*
X144363071Y-80671819D01*
X144384082Y-80622237D01*
X144441795Y-80582856D01*
X144511639Y-80580928D01*
X144571436Y-80617067D01*
X144598126Y-80671487D01*
X144599965Y-80670987D01*
X144602415Y-80679991D01*
X144647793Y-80782764D01*
X144647794Y-80782765D01*
X144727235Y-80862206D01*
X144830009Y-80907585D01*
X144855135Y-80910500D01*
X146644864Y-80910499D01*
X146644879Y-80910497D01*
X146644882Y-80910497D01*
X146669987Y-80907586D01*
X146669988Y-80907585D01*
X146669991Y-80907585D01*
X146772765Y-80862206D01*
X146852206Y-80782765D01*
X146897585Y-80679991D01*
X146897585Y-80679988D01*
X146900033Y-80670993D01*
X146903071Y-80671819D01*
X146924082Y-80622237D01*
X146981795Y-80582856D01*
X147051639Y-80580928D01*
X147111436Y-80617067D01*
X147138126Y-80671487D01*
X147139965Y-80670987D01*
X147142415Y-80679991D01*
X147187793Y-80782764D01*
X147187794Y-80782765D01*
X147267235Y-80862206D01*
X147370009Y-80907585D01*
X147395135Y-80910500D01*
X149184864Y-80910499D01*
X149184879Y-80910497D01*
X149184882Y-80910497D01*
X149209987Y-80907586D01*
X149209988Y-80907585D01*
X149209991Y-80907585D01*
X149312765Y-80862206D01*
X149392206Y-80782765D01*
X149437585Y-80679991D01*
X149437585Y-80679988D01*
X149440033Y-80670993D01*
X149443071Y-80671819D01*
X149464082Y-80622237D01*
X149521795Y-80582856D01*
X149591639Y-80580928D01*
X149651436Y-80617067D01*
X149678126Y-80671487D01*
X149679965Y-80670987D01*
X149682415Y-80679991D01*
X149727793Y-80782764D01*
X149727794Y-80782765D01*
X149807235Y-80862206D01*
X149910009Y-80907585D01*
X149935135Y-80910500D01*
X151724864Y-80910499D01*
X151724879Y-80910497D01*
X151724882Y-80910497D01*
X151749987Y-80907586D01*
X151749988Y-80907585D01*
X151749991Y-80907585D01*
X151852765Y-80862206D01*
X151884020Y-80830950D01*
X151945340Y-80797466D01*
X152015032Y-80802450D01*
X152070966Y-80844320D01*
X152071791Y-80845604D01*
X152162809Y-80967187D01*
X152162812Y-80967190D01*
X152277906Y-81053350D01*
X152277913Y-81053354D01*
X152412620Y-81103596D01*
X152412627Y-81103598D01*
X152472155Y-81109999D01*
X152472172Y-81110000D01*
X152620000Y-81110000D01*
X152620000Y-79791898D01*
X152985051Y-79791898D01*
X153016266Y-79915162D01*
X153085813Y-80021612D01*
X153186157Y-80099713D01*
X153306422Y-80141000D01*
X153401569Y-80141000D01*
X153495421Y-80125339D01*
X153607251Y-80064820D01*
X153693371Y-79971269D01*
X153744448Y-79854823D01*
X153754949Y-79728102D01*
X153723734Y-79604838D01*
X153654187Y-79498388D01*
X153553843Y-79420287D01*
X153433578Y-79379000D01*
X153338431Y-79379000D01*
X153244579Y-79394661D01*
X153132749Y-79455180D01*
X153046629Y-79548731D01*
X152995552Y-79665177D01*
X152985051Y-79791898D01*
X152620000Y-79791898D01*
X152620000Y-76610000D01*
X152472155Y-76610000D01*
X152412627Y-76616401D01*
X152412620Y-76616403D01*
X152277913Y-76666645D01*
X152277906Y-76666649D01*
X152162812Y-76752809D01*
X152162809Y-76752812D01*
X152071331Y-76875011D01*
X152068475Y-76872873D01*
X152031028Y-76910253D01*
X151962741Y-76925043D01*
X151897299Y-76900566D01*
X151884019Y-76889048D01*
X151852765Y-76857794D01*
X151749992Y-76812415D01*
X151740208Y-76811280D01*
X151675884Y-76783999D01*
X151636520Y-76726273D01*
X151630500Y-76688106D01*
X151630500Y-76239807D01*
X151630500Y-76239806D01*
X151621980Y-76202479D01*
X151619654Y-76188790D01*
X151615368Y-76150745D01*
X151615367Y-76150742D01*
X151602725Y-76114612D01*
X151598876Y-76101249D01*
X151590361Y-76063941D01*
X151581774Y-76046110D01*
X151573750Y-76029450D01*
X151568431Y-76016606D01*
X151562620Y-76000000D01*
X151555789Y-75980478D01*
X151538182Y-75952457D01*
X151536638Y-75950000D01*
X152959156Y-75950000D01*
X153005233Y-76073538D01*
X153089241Y-76185758D01*
X153201463Y-76269767D01*
X153201466Y-76269768D01*
X153332806Y-76318757D01*
X153387499Y-76324637D01*
X153387500Y-76324637D01*
X153387500Y-75950000D01*
X152959156Y-75950000D01*
X151536638Y-75950000D01*
X151535424Y-75948067D01*
X151528696Y-75935894D01*
X151527483Y-75933376D01*
X151524575Y-75927337D01*
X151512091Y-75901412D01*
X151512090Y-75901411D01*
X151488225Y-75871486D01*
X151480186Y-75860157D01*
X151459816Y-75827738D01*
X151332262Y-75700184D01*
X150882078Y-75250000D01*
X152959156Y-75250000D01*
X153387500Y-75250000D01*
X153387500Y-74875361D01*
X153332812Y-74881241D01*
X153201462Y-74930232D01*
X153089241Y-75014241D01*
X153005233Y-75126461D01*
X152959156Y-75250000D01*
X150882078Y-75250000D01*
X150534252Y-74902174D01*
X150534251Y-74902173D01*
X150502262Y-74870184D01*
X150484891Y-74859269D01*
X150469849Y-74849817D01*
X150458510Y-74841771D01*
X150428589Y-74817910D01*
X150394093Y-74801296D01*
X150381927Y-74794572D01*
X150349524Y-74774212D01*
X150349525Y-74774212D01*
X150342652Y-74771807D01*
X150313393Y-74761568D01*
X150300554Y-74756250D01*
X150266061Y-74739639D01*
X150228735Y-74731119D01*
X150215380Y-74727271D01*
X150179260Y-74714633D01*
X150179256Y-74714632D01*
X150179255Y-74714632D01*
X150161139Y-74712590D01*
X150141217Y-74710345D01*
X150127518Y-74708017D01*
X150090200Y-74699501D01*
X150090196Y-74699500D01*
X150090194Y-74699500D01*
X150044954Y-74699500D01*
X135163356Y-74699500D01*
X134982967Y-74699500D01*
X134975495Y-74701205D01*
X134945639Y-74708018D01*
X134931942Y-74710345D01*
X134893904Y-74714632D01*
X134857782Y-74727271D01*
X134844430Y-74731118D01*
X134810260Y-74738918D01*
X134807105Y-74739639D01*
X134807096Y-74739641D01*
X134772601Y-74756251D01*
X134759766Y-74761568D01*
X134723641Y-74774210D01*
X134723637Y-74774212D01*
X134691228Y-74794575D01*
X134679064Y-74801297D01*
X134644578Y-74817905D01*
X134614643Y-74841777D01*
X134603306Y-74849820D01*
X134570902Y-74870181D01*
X134570900Y-74870182D01*
X132870186Y-76570896D01*
X132870183Y-76570900D01*
X132849816Y-76603313D01*
X132841772Y-76614649D01*
X132817910Y-76644571D01*
X132801300Y-76679061D01*
X132794577Y-76691225D01*
X132774212Y-76723637D01*
X132774208Y-76723644D01*
X132761565Y-76759774D01*
X132756247Y-76772613D01*
X132739639Y-76807100D01*
X132731118Y-76844430D01*
X132727271Y-76857783D01*
X132714632Y-76893904D01*
X132710345Y-76931942D01*
X132708018Y-76945639D01*
X132699500Y-76982968D01*
X132699500Y-77908328D01*
X132679815Y-77975367D01*
X132627011Y-78021122D01*
X132557853Y-78031066D01*
X132494297Y-78002041D01*
X132493317Y-78001183D01*
X132400852Y-77919266D01*
X132400849Y-77919263D01*
X132250226Y-77840210D01*
X132085056Y-77799500D01*
X131914944Y-77799500D01*
X131749773Y-77840210D01*
X131599150Y-77919264D01*
X131543782Y-77968316D01*
X131480549Y-77998037D01*
X131461555Y-77999500D01*
X129258675Y-77999500D01*
X129191636Y-77979815D01*
X129170994Y-77963181D01*
X126757814Y-75550000D01*
X128894551Y-75550000D01*
X128914317Y-75801151D01*
X128973126Y-76046110D01*
X129069533Y-76278859D01*
X129201160Y-76493653D01*
X129201161Y-76493656D01*
X129240743Y-76540000D01*
X129364776Y-76685224D01*
X129507474Y-76807100D01*
X129556343Y-76848838D01*
X129556346Y-76848839D01*
X129771140Y-76980466D01*
X129975551Y-77065135D01*
X130003889Y-77076873D01*
X130248852Y-77135683D01*
X130437118Y-77150500D01*
X130437126Y-77150500D01*
X130562874Y-77150500D01*
X130562882Y-77150500D01*
X130751148Y-77135683D01*
X130996111Y-77076873D01*
X131228859Y-76980466D01*
X131443659Y-76848836D01*
X131635224Y-76685224D01*
X131798836Y-76493659D01*
X131930466Y-76278859D01*
X132026873Y-76046111D01*
X132085683Y-75801148D01*
X132105449Y-75550000D01*
X132085683Y-75298852D01*
X132026873Y-75053889D01*
X132010450Y-75014241D01*
X131930466Y-74821140D01*
X131798839Y-74606346D01*
X131798838Y-74606343D01*
X131761875Y-74563066D01*
X131635224Y-74414776D01*
X131508571Y-74306604D01*
X131443656Y-74251161D01*
X131443653Y-74251160D01*
X131228859Y-74119533D01*
X130996110Y-74023126D01*
X130751151Y-73964317D01*
X130562887Y-73949500D01*
X130562882Y-73949500D01*
X130437118Y-73949500D01*
X130437112Y-73949500D01*
X130248848Y-73964317D01*
X130003889Y-74023126D01*
X129771140Y-74119533D01*
X129556346Y-74251160D01*
X129556343Y-74251161D01*
X129364776Y-74414776D01*
X129201161Y-74606343D01*
X129201160Y-74606346D01*
X129069533Y-74821140D01*
X128973126Y-75053889D01*
X128914317Y-75298848D01*
X128894551Y-75550000D01*
X126757814Y-75550000D01*
X126501385Y-75293571D01*
X126484750Y-75272928D01*
X126482145Y-75268874D01*
X126482143Y-75268872D01*
X126444614Y-75236353D01*
X126438143Y-75230329D01*
X126428593Y-75220779D01*
X126417785Y-75212688D01*
X126410904Y-75207144D01*
X126373373Y-75174623D01*
X126373372Y-75174622D01*
X126373367Y-75174619D01*
X126368983Y-75172617D01*
X126346194Y-75159096D01*
X126342331Y-75156204D01*
X126342329Y-75156203D01*
X126295790Y-75138845D01*
X126287622Y-75135461D01*
X126242457Y-75114835D01*
X126242455Y-75114834D01*
X126237682Y-75114148D01*
X126212000Y-75107593D01*
X126207486Y-75105909D01*
X126157946Y-75102365D01*
X126149159Y-75101420D01*
X126135799Y-75099500D01*
X126135797Y-75099500D01*
X126122308Y-75099500D01*
X126113461Y-75099184D01*
X126063929Y-75095641D01*
X126063925Y-75095641D01*
X126059215Y-75096666D01*
X126032857Y-75099500D01*
X114667143Y-75099500D01*
X114640785Y-75096666D01*
X114636074Y-75095641D01*
X114636070Y-75095641D01*
X114586539Y-75099184D01*
X114577692Y-75099500D01*
X114564200Y-75099500D01*
X114558063Y-75100382D01*
X114550840Y-75101420D01*
X114542054Y-75102365D01*
X114492516Y-75105909D01*
X114492513Y-75105910D01*
X114487986Y-75107598D01*
X114462327Y-75114146D01*
X114457550Y-75114833D01*
X114457543Y-75114835D01*
X114412365Y-75135466D01*
X114404191Y-75138851D01*
X114357675Y-75156200D01*
X114357664Y-75156206D01*
X114353799Y-75159100D01*
X114331020Y-75172615D01*
X114326636Y-75174617D01*
X114326625Y-75174624D01*
X114289108Y-75207132D01*
X114282226Y-75212678D01*
X114271403Y-75220780D01*
X114261854Y-75230329D01*
X114255384Y-75236353D01*
X114217861Y-75268867D01*
X114217854Y-75268876D01*
X114215243Y-75272938D01*
X114198616Y-75293568D01*
X113793568Y-75698616D01*
X113772938Y-75715243D01*
X113768876Y-75717854D01*
X113768867Y-75717861D01*
X113736353Y-75755384D01*
X113730329Y-75761854D01*
X113720780Y-75771403D01*
X113712678Y-75782226D01*
X113707132Y-75789108D01*
X113674624Y-75826625D01*
X113674617Y-75826636D01*
X113672615Y-75831020D01*
X113659100Y-75853799D01*
X113656206Y-75857664D01*
X113656200Y-75857675D01*
X113638851Y-75904191D01*
X113635466Y-75912365D01*
X113614835Y-75957543D01*
X113614833Y-75957550D01*
X113614146Y-75962327D01*
X113607598Y-75987986D01*
X113605910Y-75992513D01*
X113605909Y-75992516D01*
X113602365Y-76042054D01*
X113601420Y-76050845D01*
X113599500Y-76064200D01*
X113599500Y-76077690D01*
X113599184Y-76086537D01*
X113595641Y-76136069D01*
X113595641Y-76136073D01*
X113596666Y-76140785D01*
X113599500Y-76167143D01*
X113599500Y-76422695D01*
X113579815Y-76489734D01*
X113527011Y-76535489D01*
X113457853Y-76545433D01*
X113451312Y-76544313D01*
X113429626Y-76540000D01*
X113405000Y-76540000D01*
X113405000Y-77740000D01*
X113429626Y-77740000D01*
X113429628Y-77739999D01*
X113502540Y-77725496D01*
X113502541Y-77725496D01*
X113509634Y-77720757D01*
X113576311Y-77699879D01*
X113643692Y-77718363D01*
X113666207Y-77736178D01*
X113672235Y-77742206D01*
X113775009Y-77787585D01*
X113800135Y-77790500D01*
X114399864Y-77790499D01*
X114399879Y-77790497D01*
X114399882Y-77790497D01*
X114424987Y-77787586D01*
X114424988Y-77787585D01*
X114424991Y-77787585D01*
X114527765Y-77742206D01*
X114533791Y-77736179D01*
X114595111Y-77702694D01*
X114664802Y-77707676D01*
X114690362Y-77720756D01*
X114697453Y-77725493D01*
X114697459Y-77725496D01*
X114770371Y-77739999D01*
X114770374Y-77740000D01*
X114795000Y-77740000D01*
X114795000Y-77395000D01*
X115305000Y-77395000D01*
X115305000Y-77740000D01*
X115329626Y-77740000D01*
X115329628Y-77739999D01*
X115402540Y-77725496D01*
X115402544Y-77725494D01*
X115485239Y-77670239D01*
X115540494Y-77587544D01*
X115540496Y-77587540D01*
X115554999Y-77514628D01*
X115555000Y-77514626D01*
X115555000Y-77395000D01*
X115305000Y-77395000D01*
X114795000Y-77395000D01*
X114795000Y-77387500D01*
X116075361Y-77387500D01*
X116450000Y-77387500D01*
X116450000Y-76959154D01*
X117150000Y-76959154D01*
X117150000Y-77387500D01*
X117524638Y-77387500D01*
X117518758Y-77332812D01*
X117469767Y-77201462D01*
X117385758Y-77089241D01*
X117273536Y-77005232D01*
X117273533Y-77005231D01*
X117150000Y-76959154D01*
X116450000Y-76959154D01*
X116449999Y-76959154D01*
X116326466Y-77005231D01*
X116326463Y-77005232D01*
X116214241Y-77089241D01*
X116130232Y-77201462D01*
X116081241Y-77332812D01*
X116075361Y-77387500D01*
X114795000Y-77387500D01*
X114795000Y-76540000D01*
X115305000Y-76540000D01*
X115305000Y-76885000D01*
X115555000Y-76885000D01*
X115555000Y-76765373D01*
X115554999Y-76765371D01*
X115540496Y-76692459D01*
X115540494Y-76692455D01*
X115485239Y-76609760D01*
X115402544Y-76554505D01*
X115402540Y-76554503D01*
X115329627Y-76540000D01*
X115305000Y-76540000D01*
X114795000Y-76540000D01*
X114770374Y-76540000D01*
X114748688Y-76544313D01*
X114679097Y-76538084D01*
X114623921Y-76495219D01*
X114600678Y-76429329D01*
X114600500Y-76422695D01*
X114600500Y-76358676D01*
X114620185Y-76291637D01*
X114636819Y-76270995D01*
X114770995Y-76136819D01*
X114832318Y-76103334D01*
X114858676Y-76100500D01*
X125841324Y-76100500D01*
X125908363Y-76120185D01*
X125929005Y-76136819D01*
X128598614Y-78806427D01*
X128615248Y-78827069D01*
X128617857Y-78831128D01*
X128648631Y-78857794D01*
X128655390Y-78863650D01*
X128661869Y-78869683D01*
X128671396Y-78879210D01*
X128671403Y-78879216D01*
X128671407Y-78879220D01*
X128671410Y-78879222D01*
X128671411Y-78879223D01*
X128682198Y-78887298D01*
X128689091Y-78892853D01*
X128726622Y-78925374D01*
X128726624Y-78925375D01*
X128726625Y-78925375D01*
X128726627Y-78925377D01*
X128731010Y-78927379D01*
X128753807Y-78940905D01*
X128757669Y-78943796D01*
X128804212Y-78961155D01*
X128812360Y-78964530D01*
X128839673Y-78977004D01*
X128857540Y-78985164D01*
X128857541Y-78985164D01*
X128857543Y-78985165D01*
X128862312Y-78985850D01*
X128888002Y-78992407D01*
X128892517Y-78994091D01*
X128942049Y-78997633D01*
X128950843Y-78998579D01*
X128964201Y-79000500D01*
X128977692Y-79000500D01*
X128986538Y-79000815D01*
X129036073Y-79004359D01*
X129040785Y-79003334D01*
X129067143Y-79000500D01*
X131461555Y-79000500D01*
X131528594Y-79020185D01*
X131543779Y-79031682D01*
X131599148Y-79080734D01*
X131749775Y-79159790D01*
X131914944Y-79200500D01*
X132085056Y-79200500D01*
X132250225Y-79159790D01*
X132400852Y-79080734D01*
X132493275Y-78998854D01*
X132556505Y-78969134D01*
X132625769Y-78978317D01*
X132679073Y-79023489D01*
X132699493Y-79090309D01*
X132699500Y-79091671D01*
X132699500Y-79117060D01*
X132679815Y-79184099D01*
X132663181Y-79204741D01*
X131370186Y-80497735D01*
X131370183Y-80497739D01*
X131349816Y-80530152D01*
X131341772Y-80541488D01*
X131317910Y-80571410D01*
X131301300Y-80605900D01*
X131294577Y-80618064D01*
X131274212Y-80650476D01*
X131274208Y-80650483D01*
X131261565Y-80686613D01*
X131256247Y-80699452D01*
X131239639Y-80733939D01*
X131231118Y-80771269D01*
X131227271Y-80784622D01*
X131214632Y-80820743D01*
X131210345Y-80858781D01*
X131208018Y-80872478D01*
X131199500Y-80909807D01*
X131199500Y-82644112D01*
X131179815Y-82711151D01*
X131163181Y-82731793D01*
X130500000Y-83394973D01*
X130500000Y-83328111D01*
X130459493Y-83190156D01*
X130381761Y-83069202D01*
X130273100Y-82975048D01*
X130142315Y-82915320D01*
X130035763Y-82900000D01*
X130005026Y-82900000D01*
X130678193Y-82226830D01*
X130677577Y-82226399D01*
X130463492Y-82126570D01*
X130463483Y-82126566D01*
X130235326Y-82065432D01*
X130235315Y-82065430D01*
X130000002Y-82044843D01*
X129999998Y-82044843D01*
X129764684Y-82065430D01*
X129764673Y-82065432D01*
X129536516Y-82126566D01*
X129536507Y-82126570D01*
X129322424Y-82226398D01*
X129321806Y-82226831D01*
X129994975Y-82900000D01*
X129964237Y-82900000D01*
X129857685Y-82915320D01*
X129726900Y-82975048D01*
X129618239Y-83069202D01*
X129540507Y-83190156D01*
X129500000Y-83328111D01*
X129500000Y-83394975D01*
X128826831Y-82721806D01*
X128826398Y-82722424D01*
X128726570Y-82936507D01*
X128726566Y-82936516D01*
X128665432Y-83164673D01*
X128665430Y-83164684D01*
X128644843Y-83399998D01*
X128644843Y-83400000D01*
X128659252Y-83564692D01*
X128645485Y-83633192D01*
X128596870Y-83683375D01*
X128535724Y-83699500D01*
X124382940Y-83699500D01*
X124315901Y-83679815D01*
X124295259Y-83663181D01*
X122502262Y-81870184D01*
X122502259Y-81870182D01*
X122469849Y-81849817D01*
X122458510Y-81841771D01*
X122428589Y-81817910D01*
X122394093Y-81801296D01*
X122381927Y-81794572D01*
X122349524Y-81774212D01*
X122349525Y-81774212D01*
X122326240Y-81766064D01*
X122313393Y-81761568D01*
X122300554Y-81756250D01*
X122266061Y-81739639D01*
X122228735Y-81731119D01*
X122215380Y-81727271D01*
X122179260Y-81714633D01*
X122179256Y-81714632D01*
X122179255Y-81714632D01*
X122161139Y-81712590D01*
X122141217Y-81710345D01*
X122127518Y-81708017D01*
X122090200Y-81699501D01*
X122090196Y-81699500D01*
X122090194Y-81699500D01*
X122090191Y-81699500D01*
X117651915Y-81699500D01*
X117638031Y-81698720D01*
X117600002Y-81694435D01*
X117599998Y-81694435D01*
X117570030Y-81697811D01*
X117555046Y-81699500D01*
X117420750Y-81714630D01*
X117420745Y-81714631D01*
X117250476Y-81774211D01*
X117097737Y-81870184D01*
X116970184Y-81997737D01*
X116874211Y-82150476D01*
X116814631Y-82320745D01*
X116814630Y-82320750D01*
X116794435Y-82499996D01*
X116794435Y-82500001D01*
X116798720Y-82538029D01*
X116799500Y-82551914D01*
X116799500Y-83068275D01*
X116779815Y-83135314D01*
X116727011Y-83181069D01*
X116657853Y-83191013D01*
X116594297Y-83161988D01*
X116594297Y-83161987D01*
X116516339Y-83094435D01*
X116516331Y-83094430D01*
X116385465Y-83034664D01*
X116385460Y-83034662D01*
X116385459Y-83034662D01*
X116318420Y-83014977D01*
X116318422Y-83014977D01*
X116318417Y-83014976D01*
X116256347Y-83006052D01*
X116176000Y-82994500D01*
X102324000Y-82994500D01*
X102323991Y-82994500D01*
X102323990Y-82994501D01*
X102216549Y-83006052D01*
X102216537Y-83006054D01*
X102165027Y-83017260D01*
X102062502Y-83051383D01*
X102062496Y-83051386D01*
X101941462Y-83129171D01*
X101941451Y-83129179D01*
X101888659Y-83174923D01*
X101794433Y-83283664D01*
X101794430Y-83283668D01*
X101734664Y-83414534D01*
X101714976Y-83481582D01*
X101705139Y-83550000D01*
X101694500Y-83624000D01*
X101694500Y-88376000D01*
X101694501Y-88376009D01*
X101706052Y-88483450D01*
X101706054Y-88483462D01*
X101717260Y-88534972D01*
X101751383Y-88637497D01*
X101751386Y-88637503D01*
X101778964Y-88680414D01*
X101798649Y-88747453D01*
X101787443Y-88798966D01*
X101734664Y-88914534D01*
X101714976Y-88981582D01*
X101705328Y-89048688D01*
X101694500Y-89124000D01*
X101694500Y-93876000D01*
X101694501Y-93876009D01*
X101706052Y-93983450D01*
X101706054Y-93983462D01*
X101717260Y-94034972D01*
X101751383Y-94137497D01*
X101751386Y-94137503D01*
X101829171Y-94258537D01*
X101829179Y-94258548D01*
X101874923Y-94311340D01*
X101874926Y-94311343D01*
X101874930Y-94311347D01*
X101983664Y-94405567D01*
X101983667Y-94405568D01*
X101983668Y-94405569D01*
X102085626Y-94452133D01*
X102114541Y-94465338D01*
X102181580Y-94485023D01*
X102181584Y-94485024D01*
X102324000Y-94505500D01*
X103649004Y-94505500D01*
X103716043Y-94525185D01*
X103761798Y-94577989D01*
X103771742Y-94647147D01*
X103742717Y-94710703D01*
X103718441Y-94732235D01*
X103574811Y-94829312D01*
X103574809Y-94829314D01*
X103402758Y-94994211D01*
X103402757Y-94994212D01*
X103270896Y-95172499D01*
X103270897Y-95172500D01*
X107439807Y-95172500D01*
X107387164Y-95087002D01*
X107229720Y-94908110D01*
X107229713Y-94908103D01*
X107044305Y-94758397D01*
X107044299Y-94758392D01*
X107007354Y-94737754D01*
X106958427Y-94687874D01*
X106944235Y-94619461D01*
X106969283Y-94554235D01*
X107025618Y-94512905D01*
X107067828Y-94505500D01*
X114875500Y-94505500D01*
X114942539Y-94525185D01*
X114988294Y-94577989D01*
X114999500Y-94629500D01*
X114999500Y-94985585D01*
X114998720Y-94999469D01*
X114994435Y-95037497D01*
X114994435Y-95037503D01*
X115014630Y-95216749D01*
X115014631Y-95216754D01*
X115074211Y-95387023D01*
X115141791Y-95494575D01*
X115170184Y-95539762D01*
X115297738Y-95667316D01*
X115450478Y-95763289D01*
X115620745Y-95822868D01*
X115620749Y-95822868D01*
X115620752Y-95822869D01*
X115731313Y-95835326D01*
X115754208Y-95837905D01*
X115799998Y-95843065D01*
X115800000Y-95843065D01*
X115800002Y-95843065D01*
X115838031Y-95838780D01*
X115851915Y-95838000D01*
X116575500Y-95838000D01*
X116642539Y-95857685D01*
X116688294Y-95910489D01*
X116699500Y-95962000D01*
X116699500Y-97090191D01*
X116699501Y-97090200D01*
X116708017Y-97127518D01*
X116710345Y-97141217D01*
X116714633Y-97179260D01*
X116727271Y-97215380D01*
X116731119Y-97228735D01*
X116739639Y-97266061D01*
X116756250Y-97300554D01*
X116761570Y-97313397D01*
X116774212Y-97349525D01*
X116794572Y-97381927D01*
X116801296Y-97394093D01*
X116817910Y-97428589D01*
X116841771Y-97458510D01*
X116849817Y-97469849D01*
X116870182Y-97502259D01*
X116870184Y-97502262D01*
X117497739Y-98129817D01*
X117497742Y-98129819D01*
X117530143Y-98150178D01*
X117541483Y-98158224D01*
X117567856Y-98179255D01*
X117571414Y-98182092D01*
X117605899Y-98198699D01*
X117618067Y-98205425D01*
X117650470Y-98225785D01*
X117650473Y-98225786D01*
X117650478Y-98225789D01*
X117686613Y-98238433D01*
X117699442Y-98243748D01*
X117733939Y-98260360D01*
X117771249Y-98268876D01*
X117784612Y-98272725D01*
X117820742Y-98285367D01*
X117820745Y-98285368D01*
X117858790Y-98289654D01*
X117872479Y-98291980D01*
X117909806Y-98300500D01*
X117955046Y-98300500D01*
X118613011Y-98300500D01*
X118680050Y-98320185D01*
X118725805Y-98372989D01*
X118726392Y-98374295D01*
X118747794Y-98422765D01*
X118827235Y-98502206D01*
X118930009Y-98547585D01*
X118955135Y-98550500D01*
X121044864Y-98550499D01*
X121044879Y-98550497D01*
X121044882Y-98550497D01*
X121069987Y-98547586D01*
X121069988Y-98547585D01*
X121069991Y-98547585D01*
X121172765Y-98502206D01*
X121252206Y-98422765D01*
X121297585Y-98319991D01*
X121300500Y-98294865D01*
X121300499Y-96705136D01*
X121300497Y-96705117D01*
X121297586Y-96680012D01*
X121297585Y-96680010D01*
X121297585Y-96680009D01*
X121252206Y-96577235D01*
X121172765Y-96497794D01*
X121094946Y-96463433D01*
X121041570Y-96418347D01*
X121021043Y-96351560D01*
X121039882Y-96284278D01*
X121092105Y-96237862D01*
X121094851Y-96236607D01*
X121172765Y-96202206D01*
X121252206Y-96122765D01*
X121273556Y-96074411D01*
X121318640Y-96021038D01*
X121385426Y-96000510D01*
X121386989Y-96000500D01*
X124875501Y-96000500D01*
X124942540Y-96020185D01*
X124988295Y-96072989D01*
X124999501Y-96124500D01*
X124999501Y-97144856D01*
X124999502Y-97144882D01*
X125002413Y-97169987D01*
X125002415Y-97169991D01*
X125047793Y-97272764D01*
X125047794Y-97272765D01*
X125127235Y-97352206D01*
X125230009Y-97397585D01*
X125255135Y-97400500D01*
X127344864Y-97400499D01*
X127344879Y-97400497D01*
X127344882Y-97400497D01*
X127369987Y-97397586D01*
X127369988Y-97397585D01*
X127369991Y-97397585D01*
X127472765Y-97352206D01*
X127552206Y-97272765D01*
X127597585Y-97169991D01*
X127600500Y-97144865D01*
X127600500Y-96124500D01*
X127620185Y-96057461D01*
X127672989Y-96011706D01*
X127724500Y-96000500D01*
X127933339Y-96000500D01*
X128000378Y-96020185D01*
X128008251Y-96025686D01*
X128052658Y-96059361D01*
X128193436Y-96114877D01*
X128281898Y-96125500D01*
X128281903Y-96125500D01*
X129318097Y-96125500D01*
X129318102Y-96125500D01*
X129406564Y-96114877D01*
X129547342Y-96059361D01*
X129547348Y-96059356D01*
X129554737Y-96055203D01*
X129556247Y-96057890D01*
X129607592Y-96038374D01*
X129617210Y-96038000D01*
X131455046Y-96038000D01*
X131854560Y-96038000D01*
X131921599Y-96057685D01*
X131942241Y-96074319D01*
X132863181Y-96995259D01*
X132896666Y-97056582D01*
X132899500Y-97082940D01*
X132899500Y-98090191D01*
X132899501Y-98090200D01*
X132908017Y-98127518D01*
X132910345Y-98141217D01*
X132914633Y-98179260D01*
X132927271Y-98215380D01*
X132931119Y-98228735D01*
X132939639Y-98266061D01*
X132956250Y-98300554D01*
X132961570Y-98313397D01*
X132974212Y-98349525D01*
X132994572Y-98381927D01*
X133001296Y-98394093D01*
X133017910Y-98428589D01*
X133041771Y-98458510D01*
X133049817Y-98469849D01*
X133070184Y-98502262D01*
X133102174Y-98534252D01*
X134070184Y-99502262D01*
X134146781Y-99578859D01*
X134197738Y-99629816D01*
X134230150Y-99650182D01*
X134241490Y-99658229D01*
X134271411Y-99682090D01*
X134271415Y-99682093D01*
X134305897Y-99698698D01*
X134318070Y-99705426D01*
X134350478Y-99725789D01*
X134386613Y-99738433D01*
X134399442Y-99743748D01*
X134433939Y-99760360D01*
X134471249Y-99768876D01*
X134484612Y-99772725D01*
X134520742Y-99785367D01*
X134520745Y-99785368D01*
X134558790Y-99789654D01*
X134572479Y-99791980D01*
X134609806Y-99800500D01*
X134609808Y-99800500D01*
X157090194Y-99800500D01*
X157127517Y-99791981D01*
X157141211Y-99789654D01*
X157179255Y-99785368D01*
X157215392Y-99772722D01*
X157228726Y-99768881D01*
X157266061Y-99760360D01*
X157300561Y-99743745D01*
X157313398Y-99738429D01*
X157349519Y-99725790D01*
X157349518Y-99725790D01*
X157349522Y-99725789D01*
X157381939Y-99705419D01*
X157394103Y-99698697D01*
X157428587Y-99682091D01*
X157458515Y-99658222D01*
X157469847Y-99650182D01*
X157502262Y-99629816D01*
X157629816Y-99502262D01*
X158197826Y-98934252D01*
X158229816Y-98902262D01*
X158250182Y-98869847D01*
X158258213Y-98858527D01*
X158278557Y-98833017D01*
X158335744Y-98792881D01*
X158405555Y-98790033D01*
X158465824Y-98825379D01*
X158497416Y-98887699D01*
X158499500Y-98910335D01*
X158499500Y-101875500D01*
X158479815Y-101942539D01*
X158427011Y-101988294D01*
X158375500Y-101999500D01*
X99624500Y-101999500D01*
X99557461Y-101979815D01*
X99511706Y-101927011D01*
X99500500Y-101875500D01*
X99500500Y-98850000D01*
X128894551Y-98850000D01*
X128914317Y-99101151D01*
X128973126Y-99346110D01*
X129069533Y-99578859D01*
X129201160Y-99793653D01*
X129201161Y-99793656D01*
X129256604Y-99858571D01*
X129364776Y-99985224D01*
X129513066Y-100111875D01*
X129556343Y-100148838D01*
X129556346Y-100148839D01*
X129771140Y-100280466D01*
X130003889Y-100376873D01*
X130248852Y-100435683D01*
X130437118Y-100450500D01*
X130437126Y-100450500D01*
X130562874Y-100450500D01*
X130562882Y-100450500D01*
X130751148Y-100435683D01*
X130996111Y-100376873D01*
X131228859Y-100280466D01*
X131443659Y-100148836D01*
X131635224Y-99985224D01*
X131798836Y-99793659D01*
X131930466Y-99578859D01*
X132026873Y-99346111D01*
X132085683Y-99101148D01*
X132105449Y-98850000D01*
X132085683Y-98598852D01*
X132026873Y-98353889D01*
X131975033Y-98228735D01*
X131930466Y-98121140D01*
X131798839Y-97906346D01*
X131798838Y-97906343D01*
X131727454Y-97822764D01*
X131635224Y-97714776D01*
X131508571Y-97606604D01*
X131443656Y-97551161D01*
X131443653Y-97551160D01*
X131228859Y-97419533D01*
X130996110Y-97323126D01*
X130751151Y-97264317D01*
X130562887Y-97249500D01*
X130562882Y-97249500D01*
X130437118Y-97249500D01*
X130437112Y-97249500D01*
X130248848Y-97264317D01*
X130003889Y-97323126D01*
X129771140Y-97419533D01*
X129556346Y-97551160D01*
X129556343Y-97551161D01*
X129364776Y-97714776D01*
X129201161Y-97906343D01*
X129201160Y-97906346D01*
X129069533Y-98121140D01*
X128973126Y-98353889D01*
X128914317Y-98598848D01*
X128894551Y-98850000D01*
X99500500Y-98850000D01*
X99500500Y-96672500D01*
X103275193Y-96672500D01*
X103327835Y-96757997D01*
X103485279Y-96936889D01*
X103485286Y-96936896D01*
X103670694Y-97086602D01*
X103670704Y-97086609D01*
X103878748Y-97202831D01*
X104103447Y-97282222D01*
X104103461Y-97282226D01*
X104338332Y-97322499D01*
X104338343Y-97322500D01*
X104607500Y-97322500D01*
X104607500Y-96672500D01*
X106107500Y-96672500D01*
X106107500Y-97322500D01*
X106316972Y-97322500D01*
X106316991Y-97322499D01*
X106494950Y-97307352D01*
X106494953Y-97307351D01*
X106725578Y-97247302D01*
X106942741Y-97149139D01*
X106942744Y-97149137D01*
X107140188Y-97015687D01*
X107140190Y-97015685D01*
X107312241Y-96850788D01*
X107312242Y-96850787D01*
X107444103Y-96672500D01*
X106107500Y-96672500D01*
X104607500Y-96672500D01*
X103275193Y-96672500D01*
X99500500Y-96672500D01*
X99500500Y-95922500D01*
X104752323Y-95922500D01*
X104772944Y-96079131D01*
X104833401Y-96225088D01*
X104929575Y-96350425D01*
X105054912Y-96446599D01*
X105200869Y-96507056D01*
X105318177Y-96522500D01*
X105396823Y-96522500D01*
X105514131Y-96507056D01*
X105660088Y-96446599D01*
X105785425Y-96350425D01*
X105881599Y-96225089D01*
X105942056Y-96079131D01*
X105962677Y-95922500D01*
X105942056Y-95765869D01*
X105881599Y-95619912D01*
X105785425Y-95494575D01*
X105660088Y-95398401D01*
X105514131Y-95337944D01*
X105396823Y-95322500D01*
X105318177Y-95322500D01*
X105200869Y-95337944D01*
X105054912Y-95398401D01*
X104929575Y-95494575D01*
X104833401Y-95619911D01*
X104772944Y-95765869D01*
X104752323Y-95922500D01*
X99500500Y-95922500D01*
X99500500Y-81451243D01*
X103257000Y-81451243D01*
X103297882Y-81669940D01*
X103375457Y-81870184D01*
X103378252Y-81877398D01*
X103378254Y-81877404D01*
X103495374Y-82066560D01*
X103495376Y-82066562D01*
X103645261Y-82230979D01*
X103822808Y-82365056D01*
X103822816Y-82365061D01*
X104021961Y-82464224D01*
X104021965Y-82464225D01*
X104021972Y-82464229D01*
X104235964Y-82525115D01*
X104401997Y-82540500D01*
X104402001Y-82540500D01*
X106312999Y-82540500D01*
X106313003Y-82540500D01*
X106479036Y-82525115D01*
X106693028Y-82464229D01*
X106892189Y-82365058D01*
X107069736Y-82230981D01*
X107219624Y-82066562D01*
X107262238Y-81997738D01*
X107323236Y-81899223D01*
X107375264Y-81852587D01*
X107428663Y-81840500D01*
X110636856Y-81840500D01*
X110703895Y-81860185D01*
X110711781Y-81865696D01*
X110755993Y-81899223D01*
X110771342Y-81910862D01*
X110908923Y-81965117D01*
X110966562Y-81972039D01*
X110995381Y-81975500D01*
X110995382Y-81975500D01*
X111579619Y-81975500D01*
X111601232Y-81972904D01*
X111666077Y-81965117D01*
X111803658Y-81910862D01*
X111921500Y-81821500D01*
X112010862Y-81703658D01*
X112065117Y-81566077D01*
X112075500Y-81479618D01*
X112324500Y-81479618D01*
X112334882Y-81566074D01*
X112334882Y-81566075D01*
X112389139Y-81703660D01*
X112478499Y-81821500D01*
X112584885Y-81902174D01*
X112596342Y-81910862D01*
X112733923Y-81965117D01*
X112791562Y-81972039D01*
X112820381Y-81975500D01*
X112820382Y-81975500D01*
X113404619Y-81975500D01*
X113426232Y-81972904D01*
X113491077Y-81965117D01*
X113628658Y-81910862D01*
X113746500Y-81821500D01*
X113835862Y-81703658D01*
X113890117Y-81566077D01*
X113900500Y-81479618D01*
X113900500Y-80920382D01*
X113899212Y-80909661D01*
X113893933Y-80865699D01*
X113890117Y-80833923D01*
X113835862Y-80696342D01*
X113833462Y-80693177D01*
X113746500Y-80578499D01*
X113699575Y-80542915D01*
X113658051Y-80486722D01*
X113650500Y-80444111D01*
X113650500Y-80024109D01*
X113661066Y-79974022D01*
X113662907Y-79969854D01*
X113702585Y-79879991D01*
X113705500Y-79854865D01*
X113705500Y-79460003D01*
X114244435Y-79460003D01*
X114264630Y-79639249D01*
X114264631Y-79639254D01*
X114324211Y-79809523D01*
X114406079Y-79939814D01*
X114420184Y-79962262D01*
X114547738Y-80089816D01*
X114626810Y-80139500D01*
X114664209Y-80163000D01*
X114700478Y-80185789D01*
X114870745Y-80245368D01*
X114870750Y-80245369D01*
X114961246Y-80255565D01*
X115005040Y-80260499D01*
X115005043Y-80260500D01*
X115005046Y-80260500D01*
X116335254Y-80260500D01*
X116380744Y-80269146D01*
X116433917Y-80290115D01*
X116433919Y-80290115D01*
X116433923Y-80290117D01*
X116491562Y-80297039D01*
X116520381Y-80300500D01*
X116520382Y-80300500D01*
X117079619Y-80300500D01*
X117101232Y-80297904D01*
X117166077Y-80290117D01*
X117303658Y-80235862D01*
X117366516Y-80188195D01*
X117431826Y-80163373D01*
X117441440Y-80163000D01*
X125479560Y-80163000D01*
X125546599Y-80182685D01*
X125567241Y-80199319D01*
X127465748Y-82097826D01*
X127571413Y-82182091D01*
X127571416Y-82182092D01*
X127571417Y-82182093D01*
X127733934Y-82260357D01*
X127733936Y-82260357D01*
X127733939Y-82260359D01*
X127909805Y-82300500D01*
X128090194Y-82300500D01*
X128266061Y-82260359D01*
X128428586Y-82182091D01*
X128569620Y-82069620D01*
X128682091Y-81928586D01*
X128760359Y-81766061D01*
X128800500Y-81590194D01*
X128800500Y-81409805D01*
X128760359Y-81233939D01*
X128757864Y-81228759D01*
X128682093Y-81071417D01*
X128682090Y-81071412D01*
X128597826Y-80965748D01*
X126364762Y-78732684D01*
X126364759Y-78732682D01*
X126332349Y-78712317D01*
X126321010Y-78704271D01*
X126291089Y-78680410D01*
X126256593Y-78663796D01*
X126244427Y-78657072D01*
X126212024Y-78636712D01*
X126212025Y-78636712D01*
X126177126Y-78624500D01*
X126175893Y-78624068D01*
X126163054Y-78618750D01*
X126128561Y-78602139D01*
X126091235Y-78593619D01*
X126077880Y-78589771D01*
X126041760Y-78577133D01*
X126041756Y-78577132D01*
X126041755Y-78577132D01*
X126023639Y-78575090D01*
X126003717Y-78572845D01*
X125990018Y-78570517D01*
X125952700Y-78562001D01*
X125952696Y-78562000D01*
X125952694Y-78562000D01*
X125907454Y-78562000D01*
X117501547Y-78562000D01*
X117434508Y-78542315D01*
X117388753Y-78489511D01*
X117378809Y-78420353D01*
X117402280Y-78363689D01*
X117469767Y-78273537D01*
X117518758Y-78142187D01*
X117524639Y-78087500D01*
X116075361Y-78087500D01*
X116081241Y-78142187D01*
X116130232Y-78273537D01*
X116214241Y-78385758D01*
X116281667Y-78436233D01*
X116323538Y-78492167D01*
X116328522Y-78561858D01*
X116295037Y-78623181D01*
X116233714Y-78656666D01*
X116207356Y-78659500D01*
X115005039Y-78659500D01*
X114870750Y-78674630D01*
X114870745Y-78674631D01*
X114700476Y-78734211D01*
X114547737Y-78830184D01*
X114420184Y-78957737D01*
X114324211Y-79110476D01*
X114264631Y-79280745D01*
X114264630Y-79280750D01*
X114244435Y-79459996D01*
X114244435Y-79460003D01*
X113705500Y-79460003D01*
X113705499Y-79065136D01*
X113705043Y-79061203D01*
X113702586Y-79040012D01*
X113702585Y-79040010D01*
X113702585Y-79040009D01*
X113657206Y-78937235D01*
X113577765Y-78857794D01*
X113577763Y-78857793D01*
X113474992Y-78812415D01*
X113449865Y-78809500D01*
X112850143Y-78809500D01*
X112850117Y-78809502D01*
X112825012Y-78812413D01*
X112825008Y-78812415D01*
X112722235Y-78857793D01*
X112642794Y-78937234D01*
X112597415Y-79040006D01*
X112597415Y-79040008D01*
X112594500Y-79065131D01*
X112594500Y-79854856D01*
X112594502Y-79854882D01*
X112597413Y-79879987D01*
X112597415Y-79879991D01*
X112638934Y-79974023D01*
X112649500Y-80024109D01*
X112649500Y-80387237D01*
X112629815Y-80454276D01*
X112600425Y-80486041D01*
X112478499Y-80578499D01*
X112389139Y-80696339D01*
X112334882Y-80833924D01*
X112334882Y-80833925D01*
X112324500Y-80920381D01*
X112324500Y-81479618D01*
X112075500Y-81479618D01*
X112075500Y-80920382D01*
X112074212Y-80909661D01*
X112068933Y-80865699D01*
X112065117Y-80833923D01*
X112010862Y-80696342D01*
X112008462Y-80693177D01*
X111921500Y-80578499D01*
X111803660Y-80489139D01*
X111803658Y-80489138D01*
X111666077Y-80434883D01*
X111666076Y-80434882D01*
X111666074Y-80434882D01*
X111579619Y-80424500D01*
X111579618Y-80424500D01*
X110995382Y-80424500D01*
X110995381Y-80424500D01*
X110908925Y-80434882D01*
X110908924Y-80434882D01*
X110771339Y-80489139D01*
X110653499Y-80578499D01*
X110564139Y-80696339D01*
X110559858Y-80707194D01*
X110538643Y-80760992D01*
X110495739Y-80816134D01*
X110429831Y-80839327D01*
X110423290Y-80839500D01*
X107428663Y-80839500D01*
X107361624Y-80819815D01*
X107323236Y-80780777D01*
X107219625Y-80613439D01*
X107219623Y-80613437D01*
X107069738Y-80449020D01*
X106892191Y-80314943D01*
X106892183Y-80314938D01*
X106693038Y-80215775D01*
X106693023Y-80215769D01*
X106479037Y-80154885D01*
X106479035Y-80154884D01*
X106361153Y-80143961D01*
X106313003Y-80139500D01*
X104401997Y-80139500D01*
X104357101Y-80143660D01*
X104235964Y-80154884D01*
X104235962Y-80154885D01*
X104021976Y-80215769D01*
X104021961Y-80215775D01*
X103822816Y-80314938D01*
X103822808Y-80314943D01*
X103645261Y-80449020D01*
X103495376Y-80613437D01*
X103495374Y-80613439D01*
X103378254Y-80802595D01*
X103378252Y-80802601D01*
X103366117Y-80833925D01*
X103297882Y-81010060D01*
X103257000Y-81228757D01*
X103257000Y-81451243D01*
X99500500Y-81451243D01*
X99500500Y-78430000D01*
X103057500Y-78430000D01*
X103057500Y-78482796D01*
X103072463Y-78615601D01*
X103072465Y-78615612D01*
X103131386Y-78783997D01*
X103131391Y-78784007D01*
X103226296Y-78935046D01*
X103226301Y-78935052D01*
X103352447Y-79061198D01*
X103352453Y-79061203D01*
X103503492Y-79156108D01*
X103503502Y-79156113D01*
X103671887Y-79215034D01*
X103671898Y-79215036D01*
X103804703Y-79229999D01*
X103804707Y-79230000D01*
X104607500Y-79230000D01*
X104607500Y-78430000D01*
X106107500Y-78430000D01*
X106107500Y-79230000D01*
X106910293Y-79230000D01*
X106910296Y-79229999D01*
X107043101Y-79215036D01*
X107043112Y-79215034D01*
X107211497Y-79156113D01*
X107211507Y-79156108D01*
X107362546Y-79061203D01*
X107362552Y-79061198D01*
X107488698Y-78935052D01*
X107488703Y-78935046D01*
X107583608Y-78784007D01*
X107583613Y-78783997D01*
X107642534Y-78615612D01*
X107642536Y-78615601D01*
X107657499Y-78482796D01*
X107657500Y-78482792D01*
X107657500Y-78430000D01*
X106107500Y-78430000D01*
X104607500Y-78430000D01*
X103057500Y-78430000D01*
X99500500Y-78430000D01*
X99500500Y-77844323D01*
X104757500Y-77844323D01*
X104772944Y-77961631D01*
X104833401Y-78107588D01*
X104929575Y-78232925D01*
X105054911Y-78329099D01*
X105200869Y-78389556D01*
X105357500Y-78410177D01*
X105514131Y-78389556D01*
X105660088Y-78329099D01*
X105785425Y-78232925D01*
X105881599Y-78107588D01*
X105942056Y-77961631D01*
X105957500Y-77844323D01*
X105957500Y-77515677D01*
X105942056Y-77398369D01*
X105940661Y-77395000D01*
X112645000Y-77395000D01*
X112645000Y-77514628D01*
X112659503Y-77587540D01*
X112659505Y-77587544D01*
X112714760Y-77670239D01*
X112797455Y-77725494D01*
X112797459Y-77725496D01*
X112870371Y-77739999D01*
X112870374Y-77740000D01*
X112895000Y-77740000D01*
X112895000Y-77395000D01*
X112645000Y-77395000D01*
X105940661Y-77395000D01*
X105881599Y-77252412D01*
X105785425Y-77127075D01*
X105660089Y-77030901D01*
X105514131Y-76970444D01*
X105357500Y-76949823D01*
X105200869Y-76970444D01*
X105054912Y-77030901D01*
X104929575Y-77127075D01*
X104833401Y-77252412D01*
X104772944Y-77398369D01*
X104757500Y-77515677D01*
X104757500Y-77844323D01*
X99500500Y-77844323D01*
X99500500Y-76930000D01*
X103057500Y-76930000D01*
X104607500Y-76930000D01*
X104607500Y-76130000D01*
X106107500Y-76130000D01*
X106107500Y-76930000D01*
X107657500Y-76930000D01*
X107657500Y-76885000D01*
X112645000Y-76885000D01*
X112895000Y-76885000D01*
X112895000Y-76540000D01*
X112870373Y-76540000D01*
X112797459Y-76554503D01*
X112797455Y-76554505D01*
X112714760Y-76609760D01*
X112659505Y-76692455D01*
X112659503Y-76692459D01*
X112645000Y-76765371D01*
X112645000Y-76885000D01*
X107657500Y-76885000D01*
X107657500Y-76877207D01*
X107657499Y-76877203D01*
X107642536Y-76744398D01*
X107642534Y-76744387D01*
X107583613Y-76576002D01*
X107583608Y-76575992D01*
X107488703Y-76424953D01*
X107488698Y-76424947D01*
X107362552Y-76298801D01*
X107362546Y-76298796D01*
X107211507Y-76203891D01*
X107211497Y-76203886D01*
X107043112Y-76144965D01*
X107043101Y-76144963D01*
X106910296Y-76130000D01*
X106107500Y-76130000D01*
X104607500Y-76130000D01*
X103804703Y-76130000D01*
X103671898Y-76144963D01*
X103671887Y-76144965D01*
X103503502Y-76203886D01*
X103503492Y-76203891D01*
X103352453Y-76298796D01*
X103352447Y-76298801D01*
X103226301Y-76424947D01*
X103226296Y-76424953D01*
X103131391Y-76575992D01*
X103131386Y-76576002D01*
X103072465Y-76744387D01*
X103072463Y-76744398D01*
X103057500Y-76877203D01*
X103057500Y-76930000D01*
X99500500Y-76930000D01*
X99500500Y-72624500D01*
X99520185Y-72557461D01*
X99572989Y-72511706D01*
X99624500Y-72500500D01*
X158375500Y-72500500D01*
X158442539Y-72520185D01*
G37*
%TD.AperFunction*%
%TA.AperFunction,Conductor*%
G36*
X121684099Y-83320185D02*
G01*
X121704741Y-83336819D01*
X123150741Y-84782819D01*
X123184226Y-84844142D01*
X123179242Y-84913834D01*
X123137370Y-84969767D01*
X123071906Y-84994184D01*
X123063060Y-84994500D01*
X121595730Y-84994500D01*
X121565300Y-84997353D01*
X121565298Y-84997353D01*
X121437119Y-85042206D01*
X121437117Y-85042207D01*
X121327850Y-85122850D01*
X121247207Y-85232117D01*
X121247206Y-85232119D01*
X121202353Y-85360298D01*
X121202353Y-85360300D01*
X121199500Y-85390730D01*
X121199500Y-85799269D01*
X121202353Y-85829699D01*
X121202353Y-85829701D01*
X121247206Y-85957880D01*
X121247207Y-85957882D01*
X121327850Y-86067150D01*
X121399090Y-86119727D01*
X121413321Y-86130230D01*
X121455571Y-86185877D01*
X121461030Y-86255534D01*
X121427962Y-86317083D01*
X121413321Y-86329769D01*
X121376108Y-86357234D01*
X121327850Y-86392850D01*
X121247207Y-86502117D01*
X121247206Y-86502119D01*
X121202353Y-86630298D01*
X121202353Y-86630300D01*
X121199500Y-86660730D01*
X121199500Y-87069269D01*
X121202353Y-87099699D01*
X121202353Y-87099701D01*
X121241830Y-87212516D01*
X121247207Y-87227882D01*
X121327850Y-87337150D01*
X121413317Y-87400227D01*
X121413321Y-87400230D01*
X121455571Y-87455877D01*
X121461030Y-87525534D01*
X121427962Y-87587083D01*
X121413321Y-87599769D01*
X121367045Y-87633923D01*
X121327850Y-87662850D01*
X121247207Y-87772117D01*
X121247206Y-87772119D01*
X121202353Y-87900298D01*
X121202353Y-87900300D01*
X121199500Y-87930730D01*
X121199500Y-88339269D01*
X121202353Y-88369699D01*
X121202353Y-88369701D01*
X121242157Y-88483450D01*
X121247207Y-88497882D01*
X121327850Y-88607150D01*
X121399090Y-88659727D01*
X121413321Y-88670230D01*
X121455571Y-88725877D01*
X121461030Y-88795534D01*
X121427962Y-88857083D01*
X121413321Y-88869769D01*
X121389052Y-88887681D01*
X121327850Y-88932850D01*
X121247207Y-89042117D01*
X121247206Y-89042119D01*
X121202353Y-89170298D01*
X121202353Y-89170300D01*
X121199500Y-89200730D01*
X121199500Y-89609269D01*
X121202353Y-89639699D01*
X121202353Y-89639701D01*
X121238310Y-89742457D01*
X121247207Y-89767882D01*
X121327850Y-89877150D01*
X121437118Y-89957793D01*
X121479845Y-89972744D01*
X121565299Y-90002646D01*
X121595730Y-90005500D01*
X121595734Y-90005500D01*
X123354270Y-90005500D01*
X123384699Y-90002646D01*
X123384701Y-90002646D01*
X123455165Y-89977989D01*
X123512882Y-89957793D01*
X123523441Y-89950000D01*
X123550907Y-89929730D01*
X123616536Y-89905759D01*
X123624540Y-89905500D01*
X123801600Y-89905500D01*
X123868639Y-89925185D01*
X123914394Y-89977989D01*
X123916954Y-89984010D01*
X123964136Y-90103654D01*
X123964139Y-90103660D01*
X124053499Y-90221500D01*
X124171339Y-90310860D01*
X124171342Y-90310862D01*
X124308923Y-90365117D01*
X124366562Y-90372039D01*
X124395381Y-90375500D01*
X124395382Y-90375500D01*
X124979619Y-90375500D01*
X125001232Y-90372904D01*
X125066077Y-90365117D01*
X125203658Y-90310862D01*
X125321500Y-90221500D01*
X125383850Y-90139279D01*
X125440042Y-90097756D01*
X125509763Y-90093204D01*
X125570878Y-90127068D01*
X125588192Y-90149107D01*
X125680052Y-90298034D01*
X125680055Y-90298038D01*
X125801961Y-90419944D01*
X125801965Y-90419947D01*
X125948688Y-90510448D01*
X125948699Y-90510453D01*
X126112347Y-90564680D01*
X126162500Y-90569803D01*
X126162500Y-89950000D01*
X126862500Y-89950000D01*
X126862500Y-90569802D01*
X126912650Y-90564680D01*
X126912653Y-90564680D01*
X127076300Y-90510453D01*
X127076311Y-90510448D01*
X127223034Y-90419947D01*
X127223038Y-90419944D01*
X127344944Y-90298038D01*
X127344947Y-90298034D01*
X127435448Y-90151311D01*
X127435454Y-90151298D01*
X127489680Y-89987651D01*
X127489681Y-89987645D01*
X127493528Y-89950000D01*
X126862500Y-89950000D01*
X126162500Y-89950000D01*
X126162500Y-88350000D01*
X126862500Y-88350000D01*
X126862500Y-89250000D01*
X127493526Y-89250000D01*
X127493526Y-89249999D01*
X127489680Y-89212348D01*
X127489680Y-89212346D01*
X127435453Y-89048699D01*
X127435448Y-89048688D01*
X127344947Y-88901965D01*
X127344944Y-88901961D01*
X127330664Y-88887681D01*
X127297179Y-88826358D01*
X127302163Y-88756666D01*
X127330664Y-88712319D01*
X127344944Y-88698038D01*
X127344947Y-88698034D01*
X127435448Y-88551311D01*
X127435454Y-88551298D01*
X127489680Y-88387651D01*
X127489681Y-88387645D01*
X127493528Y-88350000D01*
X126862500Y-88350000D01*
X126162500Y-88350000D01*
X126162500Y-87774000D01*
X126182185Y-87706961D01*
X126234989Y-87661206D01*
X126286500Y-87650000D01*
X127493526Y-87650000D01*
X127493526Y-87649999D01*
X127489680Y-87612348D01*
X127489680Y-87612345D01*
X127461898Y-87528504D01*
X127459496Y-87458675D01*
X127495228Y-87398634D01*
X127557749Y-87367441D01*
X127579604Y-87365500D01*
X127606324Y-87365500D01*
X127673363Y-87385185D01*
X127694005Y-87401819D01*
X128063181Y-87770995D01*
X128096666Y-87832318D01*
X128099500Y-87858676D01*
X128099500Y-89532858D01*
X128096667Y-89559206D01*
X128095641Y-89563927D01*
X128095641Y-89563929D01*
X128095641Y-89563930D01*
X128099184Y-89613461D01*
X128099500Y-89622308D01*
X128099500Y-89635797D01*
X128101420Y-89649154D01*
X128102365Y-89657946D01*
X128105909Y-89707486D01*
X128107593Y-89712000D01*
X128114148Y-89737682D01*
X128114834Y-89742455D01*
X128114835Y-89742457D01*
X128131938Y-89779908D01*
X128135457Y-89787612D01*
X128138845Y-89795790D01*
X128156203Y-89842329D01*
X128159096Y-89846194D01*
X128172617Y-89868983D01*
X128174619Y-89873367D01*
X128174622Y-89873372D01*
X128176899Y-89876000D01*
X128207144Y-89910904D01*
X128212688Y-89917785D01*
X128220779Y-89928593D01*
X128230333Y-89938147D01*
X128236353Y-89944614D01*
X128268872Y-89982143D01*
X128268874Y-89982145D01*
X128272928Y-89984750D01*
X128293571Y-90001385D01*
X128860480Y-90568294D01*
X128893965Y-90629617D01*
X128892065Y-90689909D01*
X128864244Y-90787688D01*
X128864243Y-90787690D01*
X128849874Y-90942765D01*
X128844571Y-91000000D01*
X128864244Y-91212310D01*
X128905638Y-91357794D01*
X128922596Y-91417392D01*
X128922596Y-91417394D01*
X129017632Y-91608253D01*
X129146127Y-91778406D01*
X129234932Y-91859363D01*
X129271213Y-91919075D01*
X129269452Y-91988922D01*
X129230208Y-92046730D01*
X129165941Y-92074144D01*
X129151393Y-92075000D01*
X129150000Y-92075000D01*
X129150000Y-92812500D01*
X130024999Y-92812500D01*
X130024999Y-92775028D01*
X130024998Y-92775013D01*
X130014505Y-92672302D01*
X129959358Y-92505880D01*
X129959356Y-92505875D01*
X129867315Y-92356654D01*
X129863168Y-92351409D01*
X129837029Y-92286613D01*
X129850071Y-92217971D01*
X129898153Y-92167277D01*
X129960436Y-92150500D01*
X130106608Y-92150500D01*
X130106610Y-92150500D01*
X130316198Y-92111321D01*
X130515019Y-92034298D01*
X130696302Y-91922052D01*
X130853872Y-91778407D01*
X130982366Y-91608255D01*
X131003833Y-91565143D01*
X131077403Y-91417394D01*
X131077403Y-91417393D01*
X131077405Y-91417389D01*
X131135756Y-91212310D01*
X131155429Y-91000000D01*
X131135756Y-90787690D01*
X131107934Y-90689908D01*
X131108520Y-90620042D01*
X131139519Y-90568294D01*
X131250996Y-90456818D01*
X131312319Y-90423334D01*
X131338676Y-90420500D01*
X132525501Y-90420500D01*
X132592540Y-90440185D01*
X132638295Y-90492989D01*
X132649501Y-90544500D01*
X132649501Y-90814856D01*
X132649502Y-90814882D01*
X132652413Y-90839987D01*
X132652415Y-90839991D01*
X132697793Y-90942764D01*
X132697794Y-90942765D01*
X132777235Y-91022206D01*
X132842226Y-91050902D01*
X132880006Y-91067584D01*
X132880007Y-91067584D01*
X132880009Y-91067585D01*
X132880010Y-91067585D01*
X132889007Y-91070033D01*
X132888180Y-91073071D01*
X132937766Y-91094085D01*
X132977145Y-91151800D01*
X132979069Y-91221644D01*
X132942928Y-91281440D01*
X132888512Y-91308125D01*
X132889013Y-91309965D01*
X132880008Y-91312415D01*
X132777235Y-91357793D01*
X132697794Y-91437234D01*
X132652415Y-91540006D01*
X132652415Y-91540008D01*
X132649500Y-91565131D01*
X132649500Y-93354856D01*
X132649502Y-93354882D01*
X132652413Y-93379987D01*
X132652415Y-93379991D01*
X132697793Y-93482764D01*
X132697794Y-93482765D01*
X132777235Y-93562206D01*
X132880009Y-93607585D01*
X132905135Y-93610500D01*
X134631079Y-93610499D01*
X134698117Y-93630184D01*
X134743872Y-93682987D01*
X134753816Y-93752146D01*
X134724791Y-93815702D01*
X134677433Y-93846136D01*
X134678542Y-93848647D01*
X134567235Y-93897793D01*
X134487794Y-93977234D01*
X134442415Y-94080006D01*
X134442415Y-94080008D01*
X134439500Y-94105131D01*
X134439500Y-96008060D01*
X134419815Y-96075099D01*
X134367011Y-96120854D01*
X134297853Y-96130798D01*
X134234297Y-96101773D01*
X134227819Y-96095741D01*
X132739762Y-94607684D01*
X132739759Y-94607682D01*
X132707349Y-94587317D01*
X132696010Y-94579271D01*
X132666089Y-94555410D01*
X132631593Y-94538796D01*
X132619427Y-94532072D01*
X132587024Y-94511712D01*
X132587025Y-94511712D01*
X132574074Y-94507180D01*
X132550893Y-94499068D01*
X132538054Y-94493750D01*
X132503561Y-94477139D01*
X132466235Y-94468619D01*
X132452880Y-94464771D01*
X132416760Y-94452133D01*
X132416756Y-94452132D01*
X132416755Y-94452132D01*
X132398639Y-94450090D01*
X132378717Y-94447845D01*
X132365018Y-94445517D01*
X132327700Y-94437001D01*
X132327696Y-94437000D01*
X132327694Y-94437000D01*
X132327691Y-94437000D01*
X129617210Y-94437000D01*
X129555285Y-94418816D01*
X129554735Y-94419796D01*
X129550488Y-94417408D01*
X129550171Y-94417315D01*
X129542281Y-94411801D01*
X129540580Y-94410511D01*
X129541967Y-94408680D01*
X129501684Y-94367383D01*
X129487681Y-94298931D01*
X129512910Y-94233775D01*
X129569359Y-94192602D01*
X129572245Y-94191606D01*
X129594120Y-94184357D01*
X129594124Y-94184356D01*
X129743345Y-94092315D01*
X129867315Y-93968345D01*
X129959356Y-93819124D01*
X129959358Y-93819119D01*
X130014505Y-93652697D01*
X130014506Y-93652690D01*
X130024999Y-93549986D01*
X130025000Y-93549973D01*
X130025000Y-93512500D01*
X128574000Y-93512500D01*
X128506961Y-93492815D01*
X128461206Y-93440011D01*
X128450000Y-93388500D01*
X128450000Y-92075000D01*
X128275029Y-92075000D01*
X128275012Y-92075001D01*
X128172302Y-92085494D01*
X128005880Y-92140641D01*
X128005875Y-92140643D01*
X127856654Y-92232684D01*
X127732684Y-92356654D01*
X127640643Y-92505875D01*
X127640641Y-92505880D01*
X127585494Y-92672302D01*
X127585493Y-92672309D01*
X127575000Y-92775013D01*
X127575000Y-92902634D01*
X127555315Y-92969673D01*
X127502511Y-93015428D01*
X127433353Y-93025372D01*
X127400914Y-93016069D01*
X127369991Y-93002415D01*
X127344865Y-92999500D01*
X125255143Y-92999500D01*
X125255117Y-92999502D01*
X125230012Y-93002413D01*
X125230008Y-93002415D01*
X125127235Y-93047793D01*
X125047794Y-93127234D01*
X125002415Y-93230006D01*
X125002415Y-93230008D01*
X124999500Y-93255131D01*
X124999500Y-94275500D01*
X124979815Y-94342539D01*
X124927011Y-94388294D01*
X124875500Y-94399500D01*
X121386989Y-94399500D01*
X121319950Y-94379815D01*
X121274195Y-94327011D01*
X121273607Y-94325704D01*
X121252206Y-94277235D01*
X121172765Y-94197794D01*
X121161006Y-94192602D01*
X121069992Y-94152415D01*
X121044865Y-94149500D01*
X118955143Y-94149500D01*
X118955117Y-94149502D01*
X118930012Y-94152413D01*
X118930008Y-94152415D01*
X118827235Y-94197793D01*
X118747794Y-94277234D01*
X118702415Y-94380006D01*
X118702413Y-94380014D01*
X118699910Y-94401589D01*
X118672629Y-94465912D01*
X118614903Y-94505275D01*
X118545059Y-94507180D01*
X118485273Y-94471023D01*
X118461381Y-94432780D01*
X118459361Y-94427658D01*
X118367922Y-94307077D01*
X118247343Y-94215639D01*
X118106561Y-94160122D01*
X118060926Y-94154642D01*
X118018102Y-94149500D01*
X116981898Y-94149500D01*
X116959069Y-94152241D01*
X116922917Y-94156582D01*
X116854009Y-94145029D01*
X116802286Y-94098056D01*
X116784169Y-94030576D01*
X116785397Y-94015820D01*
X116800553Y-93910404D01*
X116829576Y-93846852D01*
X116876240Y-93816861D01*
X116912500Y-93791686D01*
X116912500Y-93550000D01*
X118087500Y-93550000D01*
X118087500Y-93791686D01*
X118217084Y-93743355D01*
X118217093Y-93743350D01*
X118332185Y-93657191D01*
X118332190Y-93657186D01*
X118337570Y-93650000D01*
X118750000Y-93650000D01*
X118750000Y-93674628D01*
X118764503Y-93747540D01*
X118764505Y-93747544D01*
X118819760Y-93830239D01*
X118902455Y-93885494D01*
X118902459Y-93885496D01*
X118975371Y-93899999D01*
X118975374Y-93900000D01*
X119250000Y-93900000D01*
X119250000Y-93650000D01*
X120750000Y-93650000D01*
X120750000Y-93900000D01*
X121024626Y-93900000D01*
X121024628Y-93899999D01*
X121097540Y-93885496D01*
X121097544Y-93885494D01*
X121180239Y-93830239D01*
X121235494Y-93747544D01*
X121235496Y-93747540D01*
X121249999Y-93674628D01*
X121250000Y-93674626D01*
X121250000Y-93650000D01*
X120750000Y-93650000D01*
X119250000Y-93650000D01*
X118750000Y-93650000D01*
X118337570Y-93650000D01*
X118412431Y-93550000D01*
X118087500Y-93550000D01*
X116912500Y-93550000D01*
X116912500Y-92133313D01*
X118087500Y-92133313D01*
X118087500Y-92375000D01*
X118412430Y-92375000D01*
X118332190Y-92267813D01*
X118332185Y-92267808D01*
X118217093Y-92181649D01*
X118132239Y-92150000D01*
X118750000Y-92150000D01*
X119250000Y-92150000D01*
X119250000Y-91900000D01*
X120750000Y-91900000D01*
X120750000Y-92150000D01*
X121250000Y-92150000D01*
X121250000Y-92125373D01*
X121249999Y-92125371D01*
X121235496Y-92052459D01*
X121235494Y-92052455D01*
X121180239Y-91969760D01*
X121097544Y-91914505D01*
X121097540Y-91914503D01*
X121024627Y-91900000D01*
X120750000Y-91900000D01*
X119250000Y-91900000D01*
X118975373Y-91900000D01*
X118902459Y-91914503D01*
X118902455Y-91914505D01*
X118819760Y-91969760D01*
X118764505Y-92052455D01*
X118764503Y-92052459D01*
X118750000Y-92125371D01*
X118750000Y-92150000D01*
X118132239Y-92150000D01*
X118087500Y-92133313D01*
X116912500Y-92133313D01*
X116912500Y-92133312D01*
X116859221Y-92096320D01*
X116861497Y-92093041D01*
X116841734Y-92082225D01*
X116808308Y-92020869D01*
X116805500Y-91994628D01*
X116805500Y-90629500D01*
X116825185Y-90562461D01*
X116877989Y-90516706D01*
X116929500Y-90505500D01*
X118575990Y-90505500D01*
X118576000Y-90505500D01*
X118683456Y-90493947D01*
X118734967Y-90482741D01*
X118769197Y-90471347D01*
X118837497Y-90448616D01*
X118837501Y-90448613D01*
X118837504Y-90448613D01*
X118958543Y-90370825D01*
X119011347Y-90325070D01*
X119105567Y-90216336D01*
X119165338Y-90085459D01*
X119185023Y-90018420D01*
X119185024Y-90018416D01*
X119205500Y-89876000D01*
X119205500Y-89124000D01*
X119193947Y-89016544D01*
X119182741Y-88965033D01*
X119182637Y-88964722D01*
X119148615Y-88862499D01*
X119121035Y-88819585D01*
X119101350Y-88752545D01*
X119112555Y-88701034D01*
X119165338Y-88585459D01*
X119185023Y-88518420D01*
X119185024Y-88518416D01*
X119205500Y-88376000D01*
X119205500Y-87755865D01*
X119204264Y-87720531D01*
X119203052Y-87703234D01*
X119199345Y-87668051D01*
X119159202Y-87529885D01*
X119159200Y-87529880D01*
X119159199Y-87529877D01*
X119147417Y-87503885D01*
X119130358Y-87466247D01*
X119130354Y-87466242D01*
X119130353Y-87466238D01*
X119052920Y-87344991D01*
X119035507Y-87329815D01*
X119015335Y-87312235D01*
X118977730Y-87253350D01*
X118977730Y-87184159D01*
X118983296Y-87165000D01*
X118809676Y-87165000D01*
X118757845Y-87153648D01*
X118755072Y-87152372D01*
X118755071Y-87152371D01*
X118612709Y-87131489D01*
X118612713Y-87131489D01*
X118542852Y-87131290D01*
X118472600Y-87141186D01*
X118400375Y-87151360D01*
X118387583Y-87155076D01*
X118352989Y-87160000D01*
X117349000Y-87160000D01*
X117281961Y-87140315D01*
X117236206Y-87087511D01*
X117225000Y-87036000D01*
X117225000Y-86689000D01*
X117244685Y-86621961D01*
X117297489Y-86576206D01*
X117349000Y-86565000D01*
X118983296Y-86565000D01*
X118951281Y-86454801D01*
X118867685Y-86313447D01*
X118867678Y-86313438D01*
X118751561Y-86197321D01*
X118751553Y-86197315D01*
X118747578Y-86194964D01*
X118699896Y-86143893D01*
X118687395Y-86075150D01*
X118710933Y-86014600D01*
X118752793Y-85957882D01*
X118786076Y-85862764D01*
X118797646Y-85829701D01*
X118797646Y-85829699D01*
X118800500Y-85799269D01*
X118800500Y-85390730D01*
X118797646Y-85360300D01*
X118797646Y-85360298D01*
X118752793Y-85232119D01*
X118752792Y-85232117D01*
X118672150Y-85122850D01*
X118562882Y-85042207D01*
X118562880Y-85042206D01*
X118434701Y-84997353D01*
X118427330Y-84995744D01*
X118427792Y-84993624D01*
X118372996Y-84971783D01*
X118332381Y-84914931D01*
X118325500Y-84874197D01*
X118325500Y-84780345D01*
X118345185Y-84713306D01*
X118397989Y-84667551D01*
X118467147Y-84657607D01*
X118530703Y-84686632D01*
X118537181Y-84692664D01*
X118564461Y-84719944D01*
X118564465Y-84719947D01*
X118711188Y-84810448D01*
X118711199Y-84810453D01*
X118874847Y-84864680D01*
X118974999Y-84874912D01*
X118975000Y-84874911D01*
X118975000Y-84250000D01*
X119675000Y-84250000D01*
X119675000Y-84874910D01*
X119775150Y-84864681D01*
X119775153Y-84864680D01*
X119938800Y-84810453D01*
X119938811Y-84810448D01*
X120085534Y-84719947D01*
X120085538Y-84719944D01*
X120207444Y-84598038D01*
X120207447Y-84598034D01*
X120297948Y-84451311D01*
X120297954Y-84451298D01*
X120352180Y-84287651D01*
X120352181Y-84287645D01*
X120356028Y-84250000D01*
X119675000Y-84250000D01*
X118975000Y-84250000D01*
X118975000Y-83674000D01*
X118994685Y-83606961D01*
X119047489Y-83561206D01*
X119099000Y-83550000D01*
X120356026Y-83550000D01*
X120356026Y-83549999D01*
X120352180Y-83512348D01*
X120352179Y-83512342D01*
X120335996Y-83463503D01*
X120333595Y-83393675D01*
X120369326Y-83333633D01*
X120431847Y-83302441D01*
X120453702Y-83300500D01*
X121617060Y-83300500D01*
X121684099Y-83320185D01*
G37*
%TD.AperFunction*%
%TD*%
%TA.AperFunction,Conductor*%
%TO.N,VIN1*%
G36*
X118643039Y-89019685D02*
G01*
X118688794Y-89072489D01*
X118700000Y-89124000D01*
X118700000Y-89876000D01*
X118680315Y-89943039D01*
X118627511Y-89988794D01*
X118576000Y-90000000D01*
X116300000Y-90000000D01*
X116300000Y-92406929D01*
X116293707Y-92445931D01*
X116285001Y-92472203D01*
X116285000Y-92472209D01*
X116274500Y-92574983D01*
X116274500Y-93350001D01*
X116274501Y-93350019D01*
X116285000Y-93452793D01*
X116285001Y-93452796D01*
X116293706Y-93479066D01*
X116300000Y-93518070D01*
X116300000Y-93876000D01*
X116280315Y-93943039D01*
X116227511Y-93988794D01*
X116176000Y-94000000D01*
X102324000Y-94000000D01*
X102256961Y-93980315D01*
X102211206Y-93927511D01*
X102200000Y-93876000D01*
X102200000Y-89124000D01*
X102219685Y-89056961D01*
X102272489Y-89011206D01*
X102324000Y-89000000D01*
X118576000Y-89000000D01*
X118643039Y-89019685D01*
G37*
%TD.AperFunction*%
%TD*%
M02*
