G04 #@! TF.GenerationSoftware,KiCad,Pcbnew,(5.1.10)-1*
G04 #@! TF.CreationDate,2021-09-07T00:33:24-04:00*
G04 #@! TF.ProjectId,LoLin_Pro_Controller,4c6f4c69-6e5f-4507-926f-5f436f6e7472,rev?*
G04 #@! TF.SameCoordinates,Original*
G04 #@! TF.FileFunction,Legend,Top*
G04 #@! TF.FilePolarity,Positive*
%FSLAX46Y46*%
G04 Gerber Fmt 4.6, Leading zero omitted, Abs format (unit mm)*
G04 Created by KiCad (PCBNEW (5.1.10)-1) date 2021-09-07 00:33:24*
%MOMM*%
%LPD*%
G01*
G04 APERTURE LIST*
%ADD10C,0.100000*%
%ADD11C,0.300000*%
%ADD12C,0.150000*%
%ADD13C,0.120000*%
%ADD14C,0.381000*%
%ADD15C,0.010000*%
%ADD16C,0.127000*%
%ADD17C,0.152400*%
%ADD18C,0.254000*%
%ADD19C,0.050000*%
G04 APERTURE END LIST*
D10*
X126869047Y-87021428D02*
X127630952Y-87021428D01*
X127250000Y-87402380D02*
X127250000Y-86640476D01*
D11*
X117635714Y-84128571D02*
X116921428Y-84128571D01*
X116850000Y-84842857D01*
X116921428Y-84771428D01*
X117064285Y-84700000D01*
X117421428Y-84700000D01*
X117564285Y-84771428D01*
X117635714Y-84842857D01*
X117707142Y-84985714D01*
X117707142Y-85342857D01*
X117635714Y-85485714D01*
X117564285Y-85557142D01*
X117421428Y-85628571D01*
X117064285Y-85628571D01*
X116921428Y-85557142D01*
X116850000Y-85485714D01*
X118207142Y-84628571D02*
X118564285Y-85628571D01*
X118921428Y-84628571D01*
X116992857Y-82428571D02*
X116135714Y-82428571D01*
X116564285Y-82428571D02*
X116564285Y-80928571D01*
X116421428Y-81142857D01*
X116278571Y-81285714D01*
X116135714Y-81357142D01*
X117564285Y-81071428D02*
X117635714Y-81000000D01*
X117778571Y-80928571D01*
X118135714Y-80928571D01*
X118278571Y-81000000D01*
X118350000Y-81071428D01*
X118421428Y-81214285D01*
X118421428Y-81357142D01*
X118350000Y-81571428D01*
X117492857Y-82428571D01*
X118421428Y-82428571D01*
X118921428Y-81428571D02*
X119278571Y-82428571D01*
X119635714Y-81428571D01*
X136660000Y-101794571D02*
X137160000Y-103294571D01*
X137660000Y-101794571D01*
X133211142Y-103294571D02*
X133211142Y-101794571D01*
X133568285Y-101794571D01*
X133782571Y-101866000D01*
X133925428Y-102008857D01*
X133996857Y-102151714D01*
X134068285Y-102437428D01*
X134068285Y-102651714D01*
X133996857Y-102937428D01*
X133925428Y-103080285D01*
X133782571Y-103223142D01*
X133568285Y-103294571D01*
X133211142Y-103294571D01*
X130186857Y-101866000D02*
X130044000Y-101794571D01*
X129829714Y-101794571D01*
X129615428Y-101866000D01*
X129472571Y-102008857D01*
X129401142Y-102151714D01*
X129329714Y-102437428D01*
X129329714Y-102651714D01*
X129401142Y-102937428D01*
X129472571Y-103080285D01*
X129615428Y-103223142D01*
X129829714Y-103294571D01*
X129972571Y-103294571D01*
X130186857Y-103223142D01*
X130258285Y-103151714D01*
X130258285Y-102651714D01*
X129972571Y-102651714D01*
X151392000Y-101794571D02*
X151892000Y-103294571D01*
X152392000Y-101794571D01*
X147943142Y-103294571D02*
X147943142Y-101794571D01*
X148300285Y-101794571D01*
X148514571Y-101866000D01*
X148657428Y-102008857D01*
X148728857Y-102151714D01*
X148800285Y-102437428D01*
X148800285Y-102651714D01*
X148728857Y-102937428D01*
X148657428Y-103080285D01*
X148514571Y-103223142D01*
X148300285Y-103294571D01*
X147943142Y-103294571D01*
X144918857Y-101866000D02*
X144776000Y-101794571D01*
X144561714Y-101794571D01*
X144347428Y-101866000D01*
X144204571Y-102008857D01*
X144133142Y-102151714D01*
X144061714Y-102437428D01*
X144061714Y-102651714D01*
X144133142Y-102937428D01*
X144204571Y-103080285D01*
X144347428Y-103223142D01*
X144561714Y-103294571D01*
X144704571Y-103294571D01*
X144918857Y-103223142D01*
X144990285Y-103151714D01*
X144990285Y-102651714D01*
X144704571Y-102651714D01*
X166124000Y-101794571D02*
X166624000Y-103294571D01*
X167124000Y-101794571D01*
X162675142Y-103294571D02*
X162675142Y-101794571D01*
X163032285Y-101794571D01*
X163246571Y-101866000D01*
X163389428Y-102008857D01*
X163460857Y-102151714D01*
X163532285Y-102437428D01*
X163532285Y-102651714D01*
X163460857Y-102937428D01*
X163389428Y-103080285D01*
X163246571Y-103223142D01*
X163032285Y-103294571D01*
X162675142Y-103294571D01*
X159650857Y-101866000D02*
X159508000Y-101794571D01*
X159293714Y-101794571D01*
X159079428Y-101866000D01*
X158936571Y-102008857D01*
X158865142Y-102151714D01*
X158793714Y-102437428D01*
X158793714Y-102651714D01*
X158865142Y-102937428D01*
X158936571Y-103080285D01*
X159079428Y-103223142D01*
X159293714Y-103294571D01*
X159436571Y-103294571D01*
X159650857Y-103223142D01*
X159722285Y-103151714D01*
X159722285Y-102651714D01*
X159436571Y-102651714D01*
D12*
X117412190Y-77366761D02*
X117555047Y-77414380D01*
X117793142Y-77414380D01*
X117888380Y-77366761D01*
X117936000Y-77319142D01*
X117983619Y-77223904D01*
X117983619Y-77128666D01*
X117936000Y-77033428D01*
X117888380Y-76985809D01*
X117793142Y-76938190D01*
X117602666Y-76890571D01*
X117507428Y-76842952D01*
X117459809Y-76795333D01*
X117412190Y-76700095D01*
X117412190Y-76604857D01*
X117459809Y-76509619D01*
X117507428Y-76462000D01*
X117602666Y-76414380D01*
X117840761Y-76414380D01*
X117983619Y-76462000D01*
X118412190Y-77414380D02*
X118412190Y-76414380D01*
X118840761Y-77414380D02*
X118840761Y-76890571D01*
X118793142Y-76795333D01*
X118697904Y-76747714D01*
X118555047Y-76747714D01*
X118459809Y-76795333D01*
X118412190Y-76842952D01*
X119459809Y-77414380D02*
X119364571Y-77366761D01*
X119316952Y-77319142D01*
X119269333Y-77223904D01*
X119269333Y-76938190D01*
X119316952Y-76842952D01*
X119364571Y-76795333D01*
X119459809Y-76747714D01*
X119602666Y-76747714D01*
X119697904Y-76795333D01*
X119745523Y-76842952D01*
X119793142Y-76938190D01*
X119793142Y-77223904D01*
X119745523Y-77319142D01*
X119697904Y-77366761D01*
X119602666Y-77414380D01*
X119459809Y-77414380D01*
X120221714Y-77414380D02*
X120221714Y-76747714D01*
X120221714Y-76938190D02*
X120269333Y-76842952D01*
X120316952Y-76795333D01*
X120412190Y-76747714D01*
X120507428Y-76747714D01*
X120697904Y-76747714D02*
X121078857Y-76747714D01*
X120840761Y-76414380D02*
X120840761Y-77271523D01*
X120888380Y-77366761D01*
X120983619Y-77414380D01*
X121078857Y-77414380D01*
X122031238Y-76747714D02*
X122412190Y-76747714D01*
X122174095Y-77414380D02*
X122174095Y-76557238D01*
X122221714Y-76462000D01*
X122316952Y-76414380D01*
X122412190Y-76414380D01*
X122888380Y-77414380D02*
X122793142Y-77366761D01*
X122745523Y-77319142D01*
X122697904Y-77223904D01*
X122697904Y-76938190D01*
X122745523Y-76842952D01*
X122793142Y-76795333D01*
X122888380Y-76747714D01*
X123031238Y-76747714D01*
X123126476Y-76795333D01*
X123174095Y-76842952D01*
X123221714Y-76938190D01*
X123221714Y-77223904D01*
X123174095Y-77319142D01*
X123126476Y-77366761D01*
X123031238Y-77414380D01*
X122888380Y-77414380D01*
X123650285Y-77414380D02*
X123650285Y-76747714D01*
X123650285Y-76938190D02*
X123697904Y-76842952D01*
X123745523Y-76795333D01*
X123840761Y-76747714D01*
X123936000Y-76747714D01*
X125507428Y-76414380D02*
X125031238Y-76414380D01*
X124983619Y-76890571D01*
X125031238Y-76842952D01*
X125126476Y-76795333D01*
X125364571Y-76795333D01*
X125459809Y-76842952D01*
X125507428Y-76890571D01*
X125555047Y-76985809D01*
X125555047Y-77223904D01*
X125507428Y-77319142D01*
X125459809Y-77366761D01*
X125364571Y-77414380D01*
X125126476Y-77414380D01*
X125031238Y-77366761D01*
X124983619Y-77319142D01*
X125888380Y-76747714D02*
X126126476Y-77414380D01*
X126364571Y-76747714D01*
X127507428Y-77414380D02*
X127507428Y-76414380D01*
X127983619Y-76747714D02*
X127983619Y-77414380D01*
X127983619Y-76842952D02*
X128031238Y-76795333D01*
X128126476Y-76747714D01*
X128269333Y-76747714D01*
X128364571Y-76795333D01*
X128412190Y-76890571D01*
X128412190Y-77414380D01*
D11*
X144918857Y-114058000D02*
X144776000Y-113986571D01*
X144561714Y-113986571D01*
X144347428Y-114058000D01*
X144204571Y-114200857D01*
X144133142Y-114343714D01*
X144061714Y-114629428D01*
X144061714Y-114843714D01*
X144133142Y-115129428D01*
X144204571Y-115272285D01*
X144347428Y-115415142D01*
X144561714Y-115486571D01*
X144704571Y-115486571D01*
X144918857Y-115415142D01*
X144990285Y-115343714D01*
X144990285Y-114843714D01*
X144704571Y-114843714D01*
X159650857Y-114058000D02*
X159508000Y-113986571D01*
X159293714Y-113986571D01*
X159079428Y-114058000D01*
X158936571Y-114200857D01*
X158865142Y-114343714D01*
X158793714Y-114629428D01*
X158793714Y-114843714D01*
X158865142Y-115129428D01*
X158936571Y-115272285D01*
X159079428Y-115415142D01*
X159293714Y-115486571D01*
X159436571Y-115486571D01*
X159650857Y-115415142D01*
X159722285Y-115343714D01*
X159722285Y-114843714D01*
X159436571Y-114843714D01*
X151392000Y-113986571D02*
X151892000Y-115486571D01*
X152392000Y-113986571D01*
X147943142Y-115486571D02*
X147943142Y-113986571D01*
X148300285Y-113986571D01*
X148514571Y-114058000D01*
X148657428Y-114200857D01*
X148728857Y-114343714D01*
X148800285Y-114629428D01*
X148800285Y-114843714D01*
X148728857Y-115129428D01*
X148657428Y-115272285D01*
X148514571Y-115415142D01*
X148300285Y-115486571D01*
X147943142Y-115486571D01*
X182928571Y-95353571D02*
X182214285Y-95353571D01*
X182214285Y-93853571D01*
X183642857Y-95353571D02*
X183500000Y-95282142D01*
X183428571Y-95210714D01*
X183357142Y-95067857D01*
X183357142Y-94639285D01*
X183428571Y-94496428D01*
X183500000Y-94425000D01*
X183642857Y-94353571D01*
X183857142Y-94353571D01*
X184000000Y-94425000D01*
X184071428Y-94496428D01*
X184142857Y-94639285D01*
X184142857Y-95067857D01*
X184071428Y-95210714D01*
X184000000Y-95282142D01*
X183857142Y-95353571D01*
X183642857Y-95353571D01*
X185000000Y-95353571D02*
X184857142Y-95282142D01*
X184785714Y-95139285D01*
X184785714Y-93853571D01*
X185571428Y-95353571D02*
X185571428Y-94353571D01*
X185571428Y-93853571D02*
X185500000Y-93925000D01*
X185571428Y-93996428D01*
X185642857Y-93925000D01*
X185571428Y-93853571D01*
X185571428Y-93996428D01*
X186285714Y-94353571D02*
X186285714Y-95353571D01*
X186285714Y-94496428D02*
X186357142Y-94425000D01*
X186500000Y-94353571D01*
X186714285Y-94353571D01*
X186857142Y-94425000D01*
X186928571Y-94567857D01*
X186928571Y-95353571D01*
X187642857Y-95353571D02*
X187642857Y-93853571D01*
X188214285Y-93853571D01*
X188357142Y-93925000D01*
X188428571Y-93996428D01*
X188500000Y-94139285D01*
X188500000Y-94353571D01*
X188428571Y-94496428D01*
X188357142Y-94567857D01*
X188214285Y-94639285D01*
X187642857Y-94639285D01*
X189142857Y-95353571D02*
X189142857Y-93853571D01*
X189714285Y-93853571D02*
X190714285Y-95353571D01*
X190714285Y-93853571D02*
X189714285Y-95353571D01*
X192285714Y-94353571D02*
X192642857Y-95353571D01*
X193000000Y-94353571D01*
X194357142Y-95353571D02*
X193500000Y-95353571D01*
X193928571Y-95353571D02*
X193928571Y-93853571D01*
X193785714Y-94067857D01*
X193642857Y-94210714D01*
X193500000Y-94282142D01*
X179642857Y-97117857D02*
X179857142Y-97189285D01*
X179928571Y-97260714D01*
X180000000Y-97403571D01*
X180000000Y-97617857D01*
X179928571Y-97760714D01*
X179857142Y-97832142D01*
X179714285Y-97903571D01*
X179142857Y-97903571D01*
X179142857Y-96403571D01*
X179642857Y-96403571D01*
X179785714Y-96475000D01*
X179857142Y-96546428D01*
X179928571Y-96689285D01*
X179928571Y-96832142D01*
X179857142Y-96975000D01*
X179785714Y-97046428D01*
X179642857Y-97117857D01*
X179142857Y-97117857D01*
X180500000Y-96903571D02*
X180857142Y-97903571D01*
X181214285Y-96903571D02*
X180857142Y-97903571D01*
X180714285Y-98260714D01*
X180642857Y-98332142D01*
X180500000Y-98403571D01*
X182857142Y-97832142D02*
X183071428Y-97903571D01*
X183428571Y-97903571D01*
X183571428Y-97832142D01*
X183642857Y-97760714D01*
X183714285Y-97617857D01*
X183714285Y-97475000D01*
X183642857Y-97332142D01*
X183571428Y-97260714D01*
X183428571Y-97189285D01*
X183142857Y-97117857D01*
X183000000Y-97046428D01*
X182928571Y-96975000D01*
X182857142Y-96832142D01*
X182857142Y-96689285D01*
X182928571Y-96546428D01*
X183000000Y-96475000D01*
X183142857Y-96403571D01*
X183500000Y-96403571D01*
X183714285Y-96475000D01*
X185000000Y-97832142D02*
X184857142Y-97903571D01*
X184571428Y-97903571D01*
X184428571Y-97832142D01*
X184357142Y-97760714D01*
X184285714Y-97617857D01*
X184285714Y-97189285D01*
X184357142Y-97046428D01*
X184428571Y-96975000D01*
X184571428Y-96903571D01*
X184857142Y-96903571D01*
X185000000Y-96975000D01*
X185857142Y-97903571D02*
X185714285Y-97832142D01*
X185642857Y-97760714D01*
X185571428Y-97617857D01*
X185571428Y-97189285D01*
X185642857Y-97046428D01*
X185714285Y-96975000D01*
X185857142Y-96903571D01*
X186071428Y-96903571D01*
X186214285Y-96975000D01*
X186285714Y-97046428D01*
X186357142Y-97189285D01*
X186357142Y-97617857D01*
X186285714Y-97760714D01*
X186214285Y-97832142D01*
X186071428Y-97903571D01*
X185857142Y-97903571D01*
X186785714Y-96903571D02*
X187357142Y-96903571D01*
X187000000Y-96403571D02*
X187000000Y-97689285D01*
X187071428Y-97832142D01*
X187214285Y-97903571D01*
X187357142Y-97903571D01*
X187642857Y-96903571D02*
X188214285Y-96903571D01*
X187857142Y-96403571D02*
X187857142Y-97689285D01*
X187928571Y-97832142D01*
X188071428Y-97903571D01*
X188214285Y-97903571D01*
X189857142Y-97903571D02*
X189857142Y-96403571D01*
X189857142Y-97117857D02*
X190714285Y-97117857D01*
X190714285Y-97903571D02*
X190714285Y-96403571D01*
X192071428Y-97903571D02*
X192071428Y-97117857D01*
X192000000Y-96975000D01*
X191857142Y-96903571D01*
X191571428Y-96903571D01*
X191428571Y-96975000D01*
X192071428Y-97832142D02*
X191928571Y-97903571D01*
X191571428Y-97903571D01*
X191428571Y-97832142D01*
X191357142Y-97689285D01*
X191357142Y-97546428D01*
X191428571Y-97403571D01*
X191571428Y-97332142D01*
X191928571Y-97332142D01*
X192071428Y-97260714D01*
X192785714Y-96903571D02*
X192785714Y-97903571D01*
X192785714Y-97046428D02*
X192857142Y-96975000D01*
X193000000Y-96903571D01*
X193214285Y-96903571D01*
X193357142Y-96975000D01*
X193428571Y-97117857D01*
X193428571Y-97903571D01*
X194071428Y-97832142D02*
X194214285Y-97903571D01*
X194500000Y-97903571D01*
X194642857Y-97832142D01*
X194714285Y-97689285D01*
X194714285Y-97617857D01*
X194642857Y-97475000D01*
X194500000Y-97403571D01*
X194285714Y-97403571D01*
X194142857Y-97332142D01*
X194071428Y-97189285D01*
X194071428Y-97117857D01*
X194142857Y-96975000D01*
X194285714Y-96903571D01*
X194500000Y-96903571D01*
X194642857Y-96975000D01*
X195571428Y-97903571D02*
X195428571Y-97832142D01*
X195357142Y-97760714D01*
X195285714Y-97617857D01*
X195285714Y-97189285D01*
X195357142Y-97046428D01*
X195428571Y-96975000D01*
X195571428Y-96903571D01*
X195785714Y-96903571D01*
X195928571Y-96975000D01*
X196000000Y-97046428D01*
X196071428Y-97189285D01*
X196071428Y-97617857D01*
X196000000Y-97760714D01*
X195928571Y-97832142D01*
X195785714Y-97903571D01*
X195571428Y-97903571D01*
X196714285Y-96903571D02*
X196714285Y-97903571D01*
X196714285Y-97046428D02*
X196785714Y-96975000D01*
X196928571Y-96903571D01*
X197142857Y-96903571D01*
X197285714Y-96975000D01*
X197357142Y-97117857D01*
X197357142Y-97903571D01*
X166124000Y-113986571D02*
X166624000Y-115486571D01*
X167124000Y-113986571D01*
X162675142Y-115486571D02*
X162675142Y-113986571D01*
X163032285Y-113986571D01*
X163246571Y-114058000D01*
X163389428Y-114200857D01*
X163460857Y-114343714D01*
X163532285Y-114629428D01*
X163532285Y-114843714D01*
X163460857Y-115129428D01*
X163389428Y-115272285D01*
X163246571Y-115415142D01*
X163032285Y-115486571D01*
X162675142Y-115486571D01*
X136660000Y-113986571D02*
X137160000Y-115486571D01*
X137660000Y-113986571D01*
X133211142Y-115486571D02*
X133211142Y-113986571D01*
X133568285Y-113986571D01*
X133782571Y-114058000D01*
X133925428Y-114200857D01*
X133996857Y-114343714D01*
X134068285Y-114629428D01*
X134068285Y-114843714D01*
X133996857Y-115129428D01*
X133925428Y-115272285D01*
X133782571Y-115415142D01*
X133568285Y-115486571D01*
X133211142Y-115486571D01*
X130186857Y-114058000D02*
X130044000Y-113986571D01*
X129829714Y-113986571D01*
X129615428Y-114058000D01*
X129472571Y-114200857D01*
X129401142Y-114343714D01*
X129329714Y-114629428D01*
X129329714Y-114843714D01*
X129401142Y-115129428D01*
X129472571Y-115272285D01*
X129615428Y-115415142D01*
X129829714Y-115486571D01*
X129972571Y-115486571D01*
X130186857Y-115415142D01*
X130258285Y-115343714D01*
X130258285Y-114843714D01*
X129972571Y-114843714D01*
X185107142Y-131000000D02*
X184964285Y-130928571D01*
X184750000Y-130928571D01*
X184535714Y-131000000D01*
X184392857Y-131142857D01*
X184321428Y-131285714D01*
X184250000Y-131571428D01*
X184250000Y-131785714D01*
X184321428Y-132071428D01*
X184392857Y-132214285D01*
X184535714Y-132357142D01*
X184750000Y-132428571D01*
X184892857Y-132428571D01*
X185107142Y-132357142D01*
X185178571Y-132285714D01*
X185178571Y-131785714D01*
X184892857Y-131785714D01*
X185821428Y-132428571D02*
X185821428Y-130928571D01*
X186678571Y-132428571D01*
X186678571Y-130928571D01*
X187392857Y-132428571D02*
X187392857Y-130928571D01*
X187750000Y-130928571D01*
X187964285Y-131000000D01*
X188107142Y-131142857D01*
X188178571Y-131285714D01*
X188250000Y-131571428D01*
X188250000Y-131785714D01*
X188178571Y-132071428D01*
X188107142Y-132214285D01*
X187964285Y-132357142D01*
X187750000Y-132428571D01*
X187392857Y-132428571D01*
X176857142Y-130928571D02*
X177357142Y-132428571D01*
X177857142Y-130928571D01*
X178357142Y-132428571D02*
X178357142Y-130928571D01*
X179071428Y-132428571D02*
X179071428Y-130928571D01*
X179928571Y-132428571D01*
X179928571Y-130928571D01*
D13*
X135128000Y-124460000D02*
X135382000Y-124460000D01*
D14*
X173106000Y-116769000D02*
X191394000Y-116769000D01*
X173106000Y-130231000D02*
X191394000Y-130231000D01*
X173106000Y-116769000D02*
X173106000Y-130231000D01*
X191394000Y-116769000D02*
X191394000Y-130231000D01*
D12*
X132870000Y-74680000D02*
X190020000Y-74680000D01*
X190020000Y-74680000D02*
X190020000Y-49280000D01*
X190020000Y-49280000D02*
X132870000Y-49280000D01*
X132870000Y-49280000D02*
X132870000Y-74680000D01*
D13*
X123080000Y-79590000D02*
X120420000Y-79590000D01*
X123080000Y-84730000D02*
X123080000Y-79590000D01*
X120420000Y-84730000D02*
X120420000Y-79590000D01*
X123080000Y-84730000D02*
X120420000Y-84730000D01*
X123080000Y-86000000D02*
X123080000Y-87330000D01*
X123080000Y-87330000D02*
X121750000Y-87330000D01*
X117816000Y-71494000D02*
X128056000Y-71494000D01*
X117816000Y-55604000D02*
X128056000Y-55604000D01*
X117816000Y-55604000D02*
X117816000Y-71494000D01*
X128056000Y-55604000D02*
X128056000Y-71494000D01*
X120396000Y-71494000D02*
X120396000Y-74034000D01*
X122936000Y-71494000D02*
X122936000Y-74034000D01*
X125476000Y-71494000D02*
X125476000Y-74034000D01*
X156952000Y-93176000D02*
X156952000Y-100646000D01*
X156952000Y-100646000D02*
X169072000Y-100646000D01*
X169072000Y-100646000D02*
X169072000Y-93176000D01*
X169072000Y-93176000D02*
X156952000Y-93176000D01*
X158762000Y-99786000D02*
X158012000Y-99786000D01*
X158012000Y-99786000D02*
X158012000Y-95486000D01*
X158012000Y-95486000D02*
X158762000Y-95486000D01*
X158762000Y-95486000D02*
X158762000Y-95136000D01*
X158762000Y-95136000D02*
X158262000Y-95136000D01*
X158262000Y-95136000D02*
X158012000Y-94136000D01*
X158012000Y-94136000D02*
X161012000Y-94136000D01*
X161012000Y-94136000D02*
X160762000Y-95136000D01*
X160762000Y-95136000D02*
X160262000Y-95136000D01*
X160262000Y-95136000D02*
X160262000Y-95486000D01*
X160262000Y-95486000D02*
X161012000Y-95486000D01*
X161012000Y-95486000D02*
X161012000Y-99786000D01*
X161012000Y-99786000D02*
X160262000Y-99786000D01*
X162262000Y-99786000D02*
X161512000Y-99786000D01*
X161512000Y-99786000D02*
X161512000Y-95486000D01*
X161512000Y-95486000D02*
X162262000Y-95486000D01*
X162262000Y-95486000D02*
X162262000Y-95136000D01*
X162262000Y-95136000D02*
X161762000Y-95136000D01*
X161762000Y-95136000D02*
X161512000Y-94136000D01*
X161512000Y-94136000D02*
X164512000Y-94136000D01*
X164512000Y-94136000D02*
X164262000Y-95136000D01*
X164262000Y-95136000D02*
X163762000Y-95136000D01*
X163762000Y-95136000D02*
X163762000Y-95486000D01*
X163762000Y-95486000D02*
X164512000Y-95486000D01*
X164512000Y-95486000D02*
X164512000Y-99786000D01*
X164512000Y-99786000D02*
X163762000Y-99786000D01*
X165762000Y-99786000D02*
X165012000Y-99786000D01*
X165012000Y-99786000D02*
X165012000Y-95486000D01*
X165012000Y-95486000D02*
X165762000Y-95486000D01*
X165762000Y-95486000D02*
X165762000Y-95136000D01*
X165762000Y-95136000D02*
X165262000Y-95136000D01*
X165262000Y-95136000D02*
X165012000Y-94136000D01*
X165012000Y-94136000D02*
X168012000Y-94136000D01*
X168012000Y-94136000D02*
X167762000Y-95136000D01*
X167762000Y-95136000D02*
X167262000Y-95136000D01*
X167262000Y-95136000D02*
X167262000Y-95486000D01*
X167262000Y-95486000D02*
X168012000Y-95486000D01*
X168012000Y-95486000D02*
X168012000Y-99786000D01*
X168012000Y-99786000D02*
X167262000Y-99786000D01*
X156562000Y-94036000D02*
X156562000Y-92786000D01*
X156562000Y-92786000D02*
X158562000Y-92786000D01*
X167261647Y-99785845D02*
G75*
G03*
X165762000Y-99786000I-749647J-1700155D01*
G01*
X163761647Y-99785845D02*
G75*
G03*
X162262000Y-99786000I-749647J-1700155D01*
G01*
X160261647Y-99785845D02*
G75*
G03*
X158762000Y-99786000I-749647J-1700155D01*
G01*
X157064000Y-105622000D02*
X157064000Y-113092000D01*
X157064000Y-113092000D02*
X169184000Y-113092000D01*
X169184000Y-113092000D02*
X169184000Y-105622000D01*
X169184000Y-105622000D02*
X157064000Y-105622000D01*
X158874000Y-112232000D02*
X158124000Y-112232000D01*
X158124000Y-112232000D02*
X158124000Y-107932000D01*
X158124000Y-107932000D02*
X158874000Y-107932000D01*
X158874000Y-107932000D02*
X158874000Y-107582000D01*
X158874000Y-107582000D02*
X158374000Y-107582000D01*
X158374000Y-107582000D02*
X158124000Y-106582000D01*
X158124000Y-106582000D02*
X161124000Y-106582000D01*
X161124000Y-106582000D02*
X160874000Y-107582000D01*
X160874000Y-107582000D02*
X160374000Y-107582000D01*
X160374000Y-107582000D02*
X160374000Y-107932000D01*
X160374000Y-107932000D02*
X161124000Y-107932000D01*
X161124000Y-107932000D02*
X161124000Y-112232000D01*
X161124000Y-112232000D02*
X160374000Y-112232000D01*
X162374000Y-112232000D02*
X161624000Y-112232000D01*
X161624000Y-112232000D02*
X161624000Y-107932000D01*
X161624000Y-107932000D02*
X162374000Y-107932000D01*
X162374000Y-107932000D02*
X162374000Y-107582000D01*
X162374000Y-107582000D02*
X161874000Y-107582000D01*
X161874000Y-107582000D02*
X161624000Y-106582000D01*
X161624000Y-106582000D02*
X164624000Y-106582000D01*
X164624000Y-106582000D02*
X164374000Y-107582000D01*
X164374000Y-107582000D02*
X163874000Y-107582000D01*
X163874000Y-107582000D02*
X163874000Y-107932000D01*
X163874000Y-107932000D02*
X164624000Y-107932000D01*
X164624000Y-107932000D02*
X164624000Y-112232000D01*
X164624000Y-112232000D02*
X163874000Y-112232000D01*
X165874000Y-112232000D02*
X165124000Y-112232000D01*
X165124000Y-112232000D02*
X165124000Y-107932000D01*
X165124000Y-107932000D02*
X165874000Y-107932000D01*
X165874000Y-107932000D02*
X165874000Y-107582000D01*
X165874000Y-107582000D02*
X165374000Y-107582000D01*
X165374000Y-107582000D02*
X165124000Y-106582000D01*
X165124000Y-106582000D02*
X168124000Y-106582000D01*
X168124000Y-106582000D02*
X167874000Y-107582000D01*
X167874000Y-107582000D02*
X167374000Y-107582000D01*
X167374000Y-107582000D02*
X167374000Y-107932000D01*
X167374000Y-107932000D02*
X168124000Y-107932000D01*
X168124000Y-107932000D02*
X168124000Y-112232000D01*
X168124000Y-112232000D02*
X167374000Y-112232000D01*
X156674000Y-106482000D02*
X156674000Y-105232000D01*
X156674000Y-105232000D02*
X158674000Y-105232000D01*
X167373647Y-112231845D02*
G75*
G03*
X165874000Y-112232000I-749647J-1700155D01*
G01*
X163873647Y-112231845D02*
G75*
G03*
X162374000Y-112232000I-749647J-1700155D01*
G01*
X160373647Y-112231845D02*
G75*
G03*
X158874000Y-112232000I-749647J-1700155D01*
G01*
X134144000Y-85066000D02*
X134144000Y-84736000D01*
X134144000Y-84736000D02*
X140684000Y-84736000D01*
X140684000Y-84736000D02*
X140684000Y-85066000D01*
X134144000Y-87146000D02*
X134144000Y-87476000D01*
X134144000Y-87476000D02*
X140684000Y-87476000D01*
X140684000Y-87476000D02*
X140684000Y-87146000D01*
X131354000Y-87342000D02*
X131354000Y-87186000D01*
X131354000Y-85026000D02*
X131354000Y-84870000D01*
X128752870Y-85026163D02*
G75*
G02*
X130834961Y-85026000I1041130J-1079837D01*
G01*
X128752870Y-87185837D02*
G75*
G03*
X130834961Y-87186000I1041130J1079837D01*
G01*
X128121665Y-85027392D02*
G75*
G02*
X131354000Y-84870484I1672335J-1078608D01*
G01*
X128121665Y-87184608D02*
G75*
G03*
X131354000Y-87341516I1672335J1078608D01*
G01*
X154516000Y-89024000D02*
X154516000Y-91824000D01*
X154516000Y-91824000D02*
X175176000Y-91824000D01*
X175176000Y-91824000D02*
X175176000Y-89024000D01*
X175176000Y-89024000D02*
X154516000Y-89024000D01*
X157226000Y-89024000D02*
X157226000Y-91824000D01*
X132926000Y-89024000D02*
X132926000Y-91824000D01*
X132926000Y-91824000D02*
X153586000Y-91824000D01*
X153586000Y-91824000D02*
X153586000Y-89024000D01*
X153586000Y-89024000D02*
X132926000Y-89024000D01*
X135636000Y-89024000D02*
X135636000Y-91824000D01*
X172108000Y-86718000D02*
X172108000Y-79478000D01*
X174348000Y-86718000D02*
X174348000Y-79478000D01*
X172108000Y-86718000D02*
X174348000Y-86718000D01*
X172108000Y-79478000D02*
X174348000Y-79478000D01*
D15*
G36*
X184418886Y-105334505D02*
G01*
X184493539Y-105371727D01*
X184559431Y-105440261D01*
X184577577Y-105465648D01*
X184597345Y-105498866D01*
X184610172Y-105534945D01*
X184617510Y-105583098D01*
X184620813Y-105652536D01*
X184621538Y-105744206D01*
X184618263Y-105869830D01*
X184606877Y-105964154D01*
X184585041Y-106034523D01*
X184550419Y-106088286D01*
X184500670Y-106132788D01*
X184497014Y-106135423D01*
X184447985Y-106162377D01*
X184388945Y-106175712D01*
X184313859Y-106179000D01*
X184191795Y-106179000D01*
X184191744Y-106297497D01*
X184190608Y-106363492D01*
X184183686Y-106402202D01*
X184165598Y-106425419D01*
X184130962Y-106444933D01*
X184122645Y-106448920D01*
X184083720Y-106467603D01*
X184053583Y-106479403D01*
X184031174Y-106480422D01*
X184015433Y-106466761D01*
X184005302Y-106434522D01*
X183999723Y-106379804D01*
X183997635Y-106298711D01*
X183997981Y-106187344D01*
X183999700Y-106041802D01*
X184000237Y-105998269D01*
X184002172Y-105848205D01*
X184003904Y-105750042D01*
X184191692Y-105750042D01*
X184192748Y-105833364D01*
X184197438Y-105887880D01*
X184208051Y-105923837D01*
X184226872Y-105951482D01*
X184239650Y-105964965D01*
X184291890Y-106004417D01*
X184338142Y-106007628D01*
X184385867Y-105975049D01*
X184387077Y-105973846D01*
X184406494Y-105948668D01*
X184418307Y-105914447D01*
X184424265Y-105861748D01*
X184426120Y-105781131D01*
X184426154Y-105763271D01*
X184421670Y-105652175D01*
X184407074Y-105575161D01*
X184380650Y-105528147D01*
X184340683Y-105507050D01*
X184317584Y-105504923D01*
X184262762Y-105514900D01*
X184225158Y-105547752D01*
X184202523Y-105607857D01*
X184192606Y-105699598D01*
X184191692Y-105750042D01*
X184003904Y-105750042D01*
X184004222Y-105732060D01*
X184006873Y-105644679D01*
X184010606Y-105580905D01*
X184015907Y-105535582D01*
X184023258Y-105503555D01*
X184033143Y-105479668D01*
X184046046Y-105458764D01*
X184051579Y-105450898D01*
X184124969Y-105376595D01*
X184217760Y-105334467D01*
X184325096Y-105322722D01*
X184418886Y-105334505D01*
G37*
X184418886Y-105334505D02*
X184493539Y-105371727D01*
X184559431Y-105440261D01*
X184577577Y-105465648D01*
X184597345Y-105498866D01*
X184610172Y-105534945D01*
X184617510Y-105583098D01*
X184620813Y-105652536D01*
X184621538Y-105744206D01*
X184618263Y-105869830D01*
X184606877Y-105964154D01*
X184585041Y-106034523D01*
X184550419Y-106088286D01*
X184500670Y-106132788D01*
X184497014Y-106135423D01*
X184447985Y-106162377D01*
X184388945Y-106175712D01*
X184313859Y-106179000D01*
X184191795Y-106179000D01*
X184191744Y-106297497D01*
X184190608Y-106363492D01*
X184183686Y-106402202D01*
X184165598Y-106425419D01*
X184130962Y-106444933D01*
X184122645Y-106448920D01*
X184083720Y-106467603D01*
X184053583Y-106479403D01*
X184031174Y-106480422D01*
X184015433Y-106466761D01*
X184005302Y-106434522D01*
X183999723Y-106379804D01*
X183997635Y-106298711D01*
X183997981Y-106187344D01*
X183999700Y-106041802D01*
X184000237Y-105998269D01*
X184002172Y-105848205D01*
X184003904Y-105750042D01*
X184191692Y-105750042D01*
X184192748Y-105833364D01*
X184197438Y-105887880D01*
X184208051Y-105923837D01*
X184226872Y-105951482D01*
X184239650Y-105964965D01*
X184291890Y-106004417D01*
X184338142Y-106007628D01*
X184385867Y-105975049D01*
X184387077Y-105973846D01*
X184406494Y-105948668D01*
X184418307Y-105914447D01*
X184424265Y-105861748D01*
X184426120Y-105781131D01*
X184426154Y-105763271D01*
X184421670Y-105652175D01*
X184407074Y-105575161D01*
X184380650Y-105528147D01*
X184340683Y-105507050D01*
X184317584Y-105504923D01*
X184262762Y-105514900D01*
X184225158Y-105547752D01*
X184202523Y-105607857D01*
X184192606Y-105699598D01*
X184191692Y-105750042D01*
X184003904Y-105750042D01*
X184004222Y-105732060D01*
X184006873Y-105644679D01*
X184010606Y-105580905D01*
X184015907Y-105535582D01*
X184023258Y-105503555D01*
X184033143Y-105479668D01*
X184046046Y-105458764D01*
X184051579Y-105450898D01*
X184124969Y-105376595D01*
X184217760Y-105334467D01*
X184325096Y-105322722D01*
X184418886Y-105334505D01*
G36*
X185921664Y-105345089D02*
G01*
X185984367Y-105381358D01*
X186027961Y-105417358D01*
X186059845Y-105455075D01*
X186081810Y-105501199D01*
X186095649Y-105562421D01*
X186103153Y-105645431D01*
X186106117Y-105756919D01*
X186106461Y-105837062D01*
X186106461Y-106132065D01*
X185940385Y-106206515D01*
X185930615Y-105883402D01*
X185926579Y-105762729D01*
X185922344Y-105675141D01*
X185917097Y-105614650D01*
X185910025Y-105575268D01*
X185900311Y-105551007D01*
X185887144Y-105535880D01*
X185882919Y-105532606D01*
X185818909Y-105507034D01*
X185754208Y-105517153D01*
X185715692Y-105544000D01*
X185700025Y-105563024D01*
X185689180Y-105587988D01*
X185682288Y-105625834D01*
X185678479Y-105683502D01*
X185676883Y-105767935D01*
X185676615Y-105855928D01*
X185676563Y-105966323D01*
X185674672Y-106044463D01*
X185668345Y-106097165D01*
X185654983Y-106131242D01*
X185631985Y-106153511D01*
X185596754Y-106170787D01*
X185549697Y-106188738D01*
X185498303Y-106208278D01*
X185504421Y-105861485D01*
X185506884Y-105736468D01*
X185509767Y-105644082D01*
X185513898Y-105577881D01*
X185520107Y-105531420D01*
X185529226Y-105498256D01*
X185542083Y-105471944D01*
X185557584Y-105448729D01*
X185632371Y-105374569D01*
X185723628Y-105331684D01*
X185822883Y-105321412D01*
X185921664Y-105345089D01*
G37*
X185921664Y-105345089D02*
X185984367Y-105381358D01*
X186027961Y-105417358D01*
X186059845Y-105455075D01*
X186081810Y-105501199D01*
X186095649Y-105562421D01*
X186103153Y-105645431D01*
X186106117Y-105756919D01*
X186106461Y-105837062D01*
X186106461Y-106132065D01*
X185940385Y-106206515D01*
X185930615Y-105883402D01*
X185926579Y-105762729D01*
X185922344Y-105675141D01*
X185917097Y-105614650D01*
X185910025Y-105575268D01*
X185900311Y-105551007D01*
X185887144Y-105535880D01*
X185882919Y-105532606D01*
X185818909Y-105507034D01*
X185754208Y-105517153D01*
X185715692Y-105544000D01*
X185700025Y-105563024D01*
X185689180Y-105587988D01*
X185682288Y-105625834D01*
X185678479Y-105683502D01*
X185676883Y-105767935D01*
X185676615Y-105855928D01*
X185676563Y-105966323D01*
X185674672Y-106044463D01*
X185668345Y-106097165D01*
X185654983Y-106131242D01*
X185631985Y-106153511D01*
X185596754Y-106170787D01*
X185549697Y-106188738D01*
X185498303Y-106208278D01*
X185504421Y-105861485D01*
X185506884Y-105736468D01*
X185509767Y-105644082D01*
X185513898Y-105577881D01*
X185520107Y-105531420D01*
X185529226Y-105498256D01*
X185542083Y-105471944D01*
X185557584Y-105448729D01*
X185632371Y-105374569D01*
X185723628Y-105331684D01*
X185822883Y-105321412D01*
X185921664Y-105345089D01*
G36*
X183666886Y-105337256D02*
G01*
X183758464Y-105385409D01*
X183826049Y-105462905D01*
X183850057Y-105512727D01*
X183868738Y-105587533D01*
X183878301Y-105682052D01*
X183879208Y-105785210D01*
X183871921Y-105885935D01*
X183856903Y-105973153D01*
X183834615Y-106035791D01*
X183827765Y-106046579D01*
X183746632Y-106127105D01*
X183650266Y-106175336D01*
X183545701Y-106189450D01*
X183439968Y-106167629D01*
X183410543Y-106154547D01*
X183353241Y-106114231D01*
X183302950Y-106060775D01*
X183298197Y-106053995D01*
X183278878Y-106021321D01*
X183266108Y-105986394D01*
X183258564Y-105940414D01*
X183254924Y-105874584D01*
X183253865Y-105780105D01*
X183253846Y-105758923D01*
X183253894Y-105752182D01*
X183449231Y-105752182D01*
X183450368Y-105841349D01*
X183454841Y-105900520D01*
X183464246Y-105938741D01*
X183480176Y-105965053D01*
X183488308Y-105973846D01*
X183535058Y-106007261D01*
X183580447Y-106005737D01*
X183626340Y-105976752D01*
X183653712Y-105945809D01*
X183669923Y-105900643D01*
X183679026Y-105829420D01*
X183679651Y-105821114D01*
X183681204Y-105692037D01*
X183664965Y-105596172D01*
X183631152Y-105534107D01*
X183579984Y-105506432D01*
X183561720Y-105504923D01*
X183513760Y-105512513D01*
X183480953Y-105538808D01*
X183460895Y-105589095D01*
X183451178Y-105668664D01*
X183449231Y-105752182D01*
X183253894Y-105752182D01*
X183254574Y-105658249D01*
X183257629Y-105587906D01*
X183264322Y-105539163D01*
X183275960Y-105503288D01*
X183293853Y-105471548D01*
X183297808Y-105465648D01*
X183364267Y-105386104D01*
X183436685Y-105339929D01*
X183524849Y-105321599D01*
X183554787Y-105320703D01*
X183666886Y-105337256D01*
G37*
X183666886Y-105337256D02*
X183758464Y-105385409D01*
X183826049Y-105462905D01*
X183850057Y-105512727D01*
X183868738Y-105587533D01*
X183878301Y-105682052D01*
X183879208Y-105785210D01*
X183871921Y-105885935D01*
X183856903Y-105973153D01*
X183834615Y-106035791D01*
X183827765Y-106046579D01*
X183746632Y-106127105D01*
X183650266Y-106175336D01*
X183545701Y-106189450D01*
X183439968Y-106167629D01*
X183410543Y-106154547D01*
X183353241Y-106114231D01*
X183302950Y-106060775D01*
X183298197Y-106053995D01*
X183278878Y-106021321D01*
X183266108Y-105986394D01*
X183258564Y-105940414D01*
X183254924Y-105874584D01*
X183253865Y-105780105D01*
X183253846Y-105758923D01*
X183253894Y-105752182D01*
X183449231Y-105752182D01*
X183450368Y-105841349D01*
X183454841Y-105900520D01*
X183464246Y-105938741D01*
X183480176Y-105965053D01*
X183488308Y-105973846D01*
X183535058Y-106007261D01*
X183580447Y-106005737D01*
X183626340Y-105976752D01*
X183653712Y-105945809D01*
X183669923Y-105900643D01*
X183679026Y-105829420D01*
X183679651Y-105821114D01*
X183681204Y-105692037D01*
X183664965Y-105596172D01*
X183631152Y-105534107D01*
X183579984Y-105506432D01*
X183561720Y-105504923D01*
X183513760Y-105512513D01*
X183480953Y-105538808D01*
X183460895Y-105589095D01*
X183451178Y-105668664D01*
X183449231Y-105752182D01*
X183253894Y-105752182D01*
X183254574Y-105658249D01*
X183257629Y-105587906D01*
X183264322Y-105539163D01*
X183275960Y-105503288D01*
X183293853Y-105471548D01*
X183297808Y-105465648D01*
X183364267Y-105386104D01*
X183436685Y-105339929D01*
X183524849Y-105321599D01*
X183554787Y-105320703D01*
X183666886Y-105337256D01*
G36*
X185184254Y-105349745D02*
G01*
X185261286Y-105401567D01*
X185320816Y-105476412D01*
X185356378Y-105571654D01*
X185363571Y-105641756D01*
X185362754Y-105671009D01*
X185355914Y-105693407D01*
X185337112Y-105713474D01*
X185300408Y-105735733D01*
X185239862Y-105764709D01*
X185149534Y-105804927D01*
X185149077Y-105805129D01*
X185065933Y-105843210D01*
X184997753Y-105877025D01*
X184951505Y-105902933D01*
X184934158Y-105917295D01*
X184934154Y-105917411D01*
X184949443Y-105948685D01*
X184985196Y-105983157D01*
X185026242Y-106007990D01*
X185047037Y-106012923D01*
X185103770Y-105995862D01*
X185152627Y-105953133D01*
X185176465Y-105906155D01*
X185199397Y-105871522D01*
X185244318Y-105832081D01*
X185297123Y-105798009D01*
X185343710Y-105779480D01*
X185353452Y-105778462D01*
X185364418Y-105795215D01*
X185365079Y-105838039D01*
X185357020Y-105895781D01*
X185341827Y-105957289D01*
X185321086Y-106011409D01*
X185320038Y-106013510D01*
X185257621Y-106100660D01*
X185176726Y-106159939D01*
X185084856Y-106189034D01*
X184989513Y-106185634D01*
X184898198Y-106147428D01*
X184894138Y-106144741D01*
X184822306Y-106079642D01*
X184775073Y-105994705D01*
X184748934Y-105883021D01*
X184745426Y-105851643D01*
X184739213Y-105703536D01*
X184746661Y-105634468D01*
X184934154Y-105634468D01*
X184936590Y-105677552D01*
X184949914Y-105690126D01*
X184983132Y-105680719D01*
X185035494Y-105658483D01*
X185094024Y-105630610D01*
X185095479Y-105629872D01*
X185145089Y-105603777D01*
X185165000Y-105586363D01*
X185160090Y-105568107D01*
X185139416Y-105544120D01*
X185086819Y-105509406D01*
X185030177Y-105506856D01*
X184979369Y-105532119D01*
X184944276Y-105580847D01*
X184934154Y-105634468D01*
X184746661Y-105634468D01*
X184751992Y-105585036D01*
X184784778Y-105491055D01*
X184830421Y-105425215D01*
X184912802Y-105358681D01*
X185003546Y-105325676D01*
X185096185Y-105323573D01*
X185184254Y-105349745D01*
G37*
X185184254Y-105349745D02*
X185261286Y-105401567D01*
X185320816Y-105476412D01*
X185356378Y-105571654D01*
X185363571Y-105641756D01*
X185362754Y-105671009D01*
X185355914Y-105693407D01*
X185337112Y-105713474D01*
X185300408Y-105735733D01*
X185239862Y-105764709D01*
X185149534Y-105804927D01*
X185149077Y-105805129D01*
X185065933Y-105843210D01*
X184997753Y-105877025D01*
X184951505Y-105902933D01*
X184934158Y-105917295D01*
X184934154Y-105917411D01*
X184949443Y-105948685D01*
X184985196Y-105983157D01*
X185026242Y-106007990D01*
X185047037Y-106012923D01*
X185103770Y-105995862D01*
X185152627Y-105953133D01*
X185176465Y-105906155D01*
X185199397Y-105871522D01*
X185244318Y-105832081D01*
X185297123Y-105798009D01*
X185343710Y-105779480D01*
X185353452Y-105778462D01*
X185364418Y-105795215D01*
X185365079Y-105838039D01*
X185357020Y-105895781D01*
X185341827Y-105957289D01*
X185321086Y-106011409D01*
X185320038Y-106013510D01*
X185257621Y-106100660D01*
X185176726Y-106159939D01*
X185084856Y-106189034D01*
X184989513Y-106185634D01*
X184898198Y-106147428D01*
X184894138Y-106144741D01*
X184822306Y-106079642D01*
X184775073Y-105994705D01*
X184748934Y-105883021D01*
X184745426Y-105851643D01*
X184739213Y-105703536D01*
X184746661Y-105634468D01*
X184934154Y-105634468D01*
X184936590Y-105677552D01*
X184949914Y-105690126D01*
X184983132Y-105680719D01*
X185035494Y-105658483D01*
X185094024Y-105630610D01*
X185095479Y-105629872D01*
X185145089Y-105603777D01*
X185165000Y-105586363D01*
X185160090Y-105568107D01*
X185139416Y-105544120D01*
X185086819Y-105509406D01*
X185030177Y-105506856D01*
X184979369Y-105532119D01*
X184944276Y-105580847D01*
X184934154Y-105634468D01*
X184746661Y-105634468D01*
X184751992Y-105585036D01*
X184784778Y-105491055D01*
X184830421Y-105425215D01*
X184912802Y-105358681D01*
X185003546Y-105325676D01*
X185096185Y-105323573D01*
X185184254Y-105349745D01*
G36*
X186809846Y-105242120D02*
G01*
X186815572Y-105321980D01*
X186822149Y-105369039D01*
X186831262Y-105389566D01*
X186844598Y-105389829D01*
X186848923Y-105387378D01*
X186906444Y-105369636D01*
X186981268Y-105370672D01*
X187057339Y-105388910D01*
X187104918Y-105412505D01*
X187153702Y-105450198D01*
X187189364Y-105492855D01*
X187213845Y-105547057D01*
X187229087Y-105619384D01*
X187237030Y-105716419D01*
X187239616Y-105844742D01*
X187239662Y-105869358D01*
X187239692Y-106145870D01*
X187178161Y-106167320D01*
X187134459Y-106181912D01*
X187110482Y-106188706D01*
X187109777Y-106188769D01*
X187107415Y-106170345D01*
X187105406Y-106119526D01*
X187103901Y-106042993D01*
X187103053Y-105947430D01*
X187102923Y-105889329D01*
X187102651Y-105774771D01*
X187101252Y-105692667D01*
X187097849Y-105636393D01*
X187091567Y-105599326D01*
X187081529Y-105574844D01*
X187066861Y-105556325D01*
X187057702Y-105547406D01*
X186994789Y-105511466D01*
X186926136Y-105508775D01*
X186863848Y-105539170D01*
X186852329Y-105550144D01*
X186835433Y-105570779D01*
X186823714Y-105595256D01*
X186816233Y-105630647D01*
X186812054Y-105684026D01*
X186810237Y-105762466D01*
X186809846Y-105870617D01*
X186809846Y-106145870D01*
X186748315Y-106167320D01*
X186704613Y-106181912D01*
X186680636Y-106188706D01*
X186679930Y-106188769D01*
X186678126Y-106170069D01*
X186676500Y-106117322D01*
X186675117Y-106035557D01*
X186674042Y-105929805D01*
X186673340Y-105805094D01*
X186673077Y-105666455D01*
X186673077Y-105131806D01*
X186800077Y-105078236D01*
X186809846Y-105242120D01*
G37*
X186809846Y-105242120D02*
X186815572Y-105321980D01*
X186822149Y-105369039D01*
X186831262Y-105389566D01*
X186844598Y-105389829D01*
X186848923Y-105387378D01*
X186906444Y-105369636D01*
X186981268Y-105370672D01*
X187057339Y-105388910D01*
X187104918Y-105412505D01*
X187153702Y-105450198D01*
X187189364Y-105492855D01*
X187213845Y-105547057D01*
X187229087Y-105619384D01*
X187237030Y-105716419D01*
X187239616Y-105844742D01*
X187239662Y-105869358D01*
X187239692Y-106145870D01*
X187178161Y-106167320D01*
X187134459Y-106181912D01*
X187110482Y-106188706D01*
X187109777Y-106188769D01*
X187107415Y-106170345D01*
X187105406Y-106119526D01*
X187103901Y-106042993D01*
X187103053Y-105947430D01*
X187102923Y-105889329D01*
X187102651Y-105774771D01*
X187101252Y-105692667D01*
X187097849Y-105636393D01*
X187091567Y-105599326D01*
X187081529Y-105574844D01*
X187066861Y-105556325D01*
X187057702Y-105547406D01*
X186994789Y-105511466D01*
X186926136Y-105508775D01*
X186863848Y-105539170D01*
X186852329Y-105550144D01*
X186835433Y-105570779D01*
X186823714Y-105595256D01*
X186816233Y-105630647D01*
X186812054Y-105684026D01*
X186810237Y-105762466D01*
X186809846Y-105870617D01*
X186809846Y-106145870D01*
X186748315Y-106167320D01*
X186704613Y-106181912D01*
X186680636Y-106188706D01*
X186679930Y-106188769D01*
X186678126Y-106170069D01*
X186676500Y-106117322D01*
X186675117Y-106035557D01*
X186674042Y-105929805D01*
X186673340Y-105805094D01*
X186673077Y-105666455D01*
X186673077Y-105131806D01*
X186800077Y-105078236D01*
X186809846Y-105242120D01*
G36*
X187703501Y-105376303D02*
G01*
X187780060Y-105404733D01*
X187780936Y-105405279D01*
X187828285Y-105440127D01*
X187863241Y-105480852D01*
X187887825Y-105533925D01*
X187904062Y-105605814D01*
X187913975Y-105702992D01*
X187919586Y-105831928D01*
X187920077Y-105850298D01*
X187927141Y-106127287D01*
X187867695Y-106158028D01*
X187824681Y-106178802D01*
X187798710Y-106188646D01*
X187797509Y-106188769D01*
X187793014Y-106170606D01*
X187789444Y-106121612D01*
X187787248Y-106050031D01*
X187786769Y-105992068D01*
X187786758Y-105898170D01*
X187782466Y-105839203D01*
X187767503Y-105811079D01*
X187735482Y-105809706D01*
X187680014Y-105830998D01*
X187596269Y-105870136D01*
X187534689Y-105902643D01*
X187503017Y-105930845D01*
X187493706Y-105961582D01*
X187493692Y-105963104D01*
X187509057Y-106016054D01*
X187554547Y-106044660D01*
X187624166Y-106048803D01*
X187674313Y-106048084D01*
X187700754Y-106062527D01*
X187717243Y-106097218D01*
X187726733Y-106141416D01*
X187713057Y-106166493D01*
X187707907Y-106170082D01*
X187659425Y-106184496D01*
X187591531Y-106186537D01*
X187521612Y-106176983D01*
X187472068Y-106159522D01*
X187403570Y-106101364D01*
X187364634Y-106020408D01*
X187356923Y-105957160D01*
X187362807Y-105900111D01*
X187384101Y-105853542D01*
X187426265Y-105812181D01*
X187494759Y-105770755D01*
X187595044Y-105723993D01*
X187601154Y-105721350D01*
X187691490Y-105679617D01*
X187747235Y-105645391D01*
X187771129Y-105614635D01*
X187765913Y-105583311D01*
X187734328Y-105547383D01*
X187724883Y-105539116D01*
X187661617Y-105507058D01*
X187596064Y-105508407D01*
X187538972Y-105539838D01*
X187501093Y-105598024D01*
X187497574Y-105609446D01*
X187463300Y-105664837D01*
X187419809Y-105691518D01*
X187356923Y-105717960D01*
X187356923Y-105649548D01*
X187376052Y-105550110D01*
X187432831Y-105458902D01*
X187462378Y-105428389D01*
X187529542Y-105389228D01*
X187614956Y-105371500D01*
X187703501Y-105376303D01*
G37*
X187703501Y-105376303D02*
X187780060Y-105404733D01*
X187780936Y-105405279D01*
X187828285Y-105440127D01*
X187863241Y-105480852D01*
X187887825Y-105533925D01*
X187904062Y-105605814D01*
X187913975Y-105702992D01*
X187919586Y-105831928D01*
X187920077Y-105850298D01*
X187927141Y-106127287D01*
X187867695Y-106158028D01*
X187824681Y-106178802D01*
X187798710Y-106188646D01*
X187797509Y-106188769D01*
X187793014Y-106170606D01*
X187789444Y-106121612D01*
X187787248Y-106050031D01*
X187786769Y-105992068D01*
X187786758Y-105898170D01*
X187782466Y-105839203D01*
X187767503Y-105811079D01*
X187735482Y-105809706D01*
X187680014Y-105830998D01*
X187596269Y-105870136D01*
X187534689Y-105902643D01*
X187503017Y-105930845D01*
X187493706Y-105961582D01*
X187493692Y-105963104D01*
X187509057Y-106016054D01*
X187554547Y-106044660D01*
X187624166Y-106048803D01*
X187674313Y-106048084D01*
X187700754Y-106062527D01*
X187717243Y-106097218D01*
X187726733Y-106141416D01*
X187713057Y-106166493D01*
X187707907Y-106170082D01*
X187659425Y-106184496D01*
X187591531Y-106186537D01*
X187521612Y-106176983D01*
X187472068Y-106159522D01*
X187403570Y-106101364D01*
X187364634Y-106020408D01*
X187356923Y-105957160D01*
X187362807Y-105900111D01*
X187384101Y-105853542D01*
X187426265Y-105812181D01*
X187494759Y-105770755D01*
X187595044Y-105723993D01*
X187601154Y-105721350D01*
X187691490Y-105679617D01*
X187747235Y-105645391D01*
X187771129Y-105614635D01*
X187765913Y-105583311D01*
X187734328Y-105547383D01*
X187724883Y-105539116D01*
X187661617Y-105507058D01*
X187596064Y-105508407D01*
X187538972Y-105539838D01*
X187501093Y-105598024D01*
X187497574Y-105609446D01*
X187463300Y-105664837D01*
X187419809Y-105691518D01*
X187356923Y-105717960D01*
X187356923Y-105649548D01*
X187376052Y-105550110D01*
X187432831Y-105458902D01*
X187462378Y-105428389D01*
X187529542Y-105389228D01*
X187614956Y-105371500D01*
X187703501Y-105376303D01*
G36*
X188363362Y-105374670D02*
G01*
X188452117Y-105407421D01*
X188524022Y-105465350D01*
X188552144Y-105506128D01*
X188582802Y-105580954D01*
X188582165Y-105635058D01*
X188549987Y-105671446D01*
X188538081Y-105677633D01*
X188486675Y-105696925D01*
X188460422Y-105691982D01*
X188451530Y-105659587D01*
X188451077Y-105641692D01*
X188434797Y-105575859D01*
X188392365Y-105529807D01*
X188333388Y-105507564D01*
X188267475Y-105513161D01*
X188213895Y-105542229D01*
X188195798Y-105558810D01*
X188182971Y-105578925D01*
X188174306Y-105609332D01*
X188168696Y-105656788D01*
X188165035Y-105728050D01*
X188162215Y-105829875D01*
X188161484Y-105862115D01*
X188158820Y-105972410D01*
X188155792Y-106050036D01*
X188151250Y-106101396D01*
X188144046Y-106132890D01*
X188133033Y-106150920D01*
X188117060Y-106161888D01*
X188106834Y-106166733D01*
X188063406Y-106183301D01*
X188037842Y-106188769D01*
X188029395Y-106170507D01*
X188024239Y-106115296D01*
X188022346Y-106022499D01*
X188023689Y-105891478D01*
X188024107Y-105871269D01*
X188027058Y-105751733D01*
X188030548Y-105664449D01*
X188035514Y-105602591D01*
X188042893Y-105559336D01*
X188053624Y-105527860D01*
X188068645Y-105501339D01*
X188076502Y-105489975D01*
X188121553Y-105439692D01*
X188171940Y-105400581D01*
X188178108Y-105397167D01*
X188268458Y-105370212D01*
X188363362Y-105374670D01*
G37*
X188363362Y-105374670D02*
X188452117Y-105407421D01*
X188524022Y-105465350D01*
X188552144Y-105506128D01*
X188582802Y-105580954D01*
X188582165Y-105635058D01*
X188549987Y-105671446D01*
X188538081Y-105677633D01*
X188486675Y-105696925D01*
X188460422Y-105691982D01*
X188451530Y-105659587D01*
X188451077Y-105641692D01*
X188434797Y-105575859D01*
X188392365Y-105529807D01*
X188333388Y-105507564D01*
X188267475Y-105513161D01*
X188213895Y-105542229D01*
X188195798Y-105558810D01*
X188182971Y-105578925D01*
X188174306Y-105609332D01*
X188168696Y-105656788D01*
X188165035Y-105728050D01*
X188162215Y-105829875D01*
X188161484Y-105862115D01*
X188158820Y-105972410D01*
X188155792Y-106050036D01*
X188151250Y-106101396D01*
X188144046Y-106132890D01*
X188133033Y-106150920D01*
X188117060Y-106161888D01*
X188106834Y-106166733D01*
X188063406Y-106183301D01*
X188037842Y-106188769D01*
X188029395Y-106170507D01*
X188024239Y-106115296D01*
X188022346Y-106022499D01*
X188023689Y-105891478D01*
X188024107Y-105871269D01*
X188027058Y-105751733D01*
X188030548Y-105664449D01*
X188035514Y-105602591D01*
X188042893Y-105559336D01*
X188053624Y-105527860D01*
X188068645Y-105501339D01*
X188076502Y-105489975D01*
X188121553Y-105439692D01*
X188171940Y-105400581D01*
X188178108Y-105397167D01*
X188268458Y-105370212D01*
X188363362Y-105374670D01*
G36*
X189252081Y-105530289D02*
G01*
X189251833Y-105676320D01*
X189250872Y-105788655D01*
X189248794Y-105872678D01*
X189245193Y-105933769D01*
X189239665Y-105977309D01*
X189231804Y-106008679D01*
X189221207Y-106033262D01*
X189213182Y-106047294D01*
X189146728Y-106123388D01*
X189062470Y-106171084D01*
X188969249Y-106188199D01*
X188875900Y-106172546D01*
X188820312Y-106144418D01*
X188761957Y-106095760D01*
X188722186Y-106036333D01*
X188698190Y-105958507D01*
X188687161Y-105854652D01*
X188685599Y-105778462D01*
X188685809Y-105772986D01*
X188822308Y-105772986D01*
X188823141Y-105860355D01*
X188826961Y-105918192D01*
X188835746Y-105956029D01*
X188851474Y-105983398D01*
X188870266Y-106004042D01*
X188933375Y-106043890D01*
X189001137Y-106047295D01*
X189065179Y-106014025D01*
X189070164Y-106009517D01*
X189091439Y-105986067D01*
X189104779Y-105958166D01*
X189112001Y-105916641D01*
X189114923Y-105852316D01*
X189115385Y-105781200D01*
X189114383Y-105691858D01*
X189110238Y-105632258D01*
X189101236Y-105593089D01*
X189085667Y-105565040D01*
X189072902Y-105550144D01*
X189013600Y-105512575D01*
X188945301Y-105508057D01*
X188880110Y-105536753D01*
X188867528Y-105547406D01*
X188846111Y-105571063D01*
X188832744Y-105599251D01*
X188825566Y-105641245D01*
X188822719Y-105706319D01*
X188822308Y-105772986D01*
X188685809Y-105772986D01*
X188690322Y-105655765D01*
X188706362Y-105563577D01*
X188736528Y-105494269D01*
X188783629Y-105440211D01*
X188820312Y-105412505D01*
X188886990Y-105382572D01*
X188964272Y-105368678D01*
X189036110Y-105372397D01*
X189076308Y-105387400D01*
X189092082Y-105391670D01*
X189102550Y-105375750D01*
X189109856Y-105333089D01*
X189115385Y-105268106D01*
X189121437Y-105195732D01*
X189129844Y-105152187D01*
X189145141Y-105127287D01*
X189171864Y-105110845D01*
X189188654Y-105103564D01*
X189252154Y-105076963D01*
X189252081Y-105530289D01*
G37*
X189252081Y-105530289D02*
X189251833Y-105676320D01*
X189250872Y-105788655D01*
X189248794Y-105872678D01*
X189245193Y-105933769D01*
X189239665Y-105977309D01*
X189231804Y-106008679D01*
X189221207Y-106033262D01*
X189213182Y-106047294D01*
X189146728Y-106123388D01*
X189062470Y-106171084D01*
X188969249Y-106188199D01*
X188875900Y-106172546D01*
X188820312Y-106144418D01*
X188761957Y-106095760D01*
X188722186Y-106036333D01*
X188698190Y-105958507D01*
X188687161Y-105854652D01*
X188685599Y-105778462D01*
X188685809Y-105772986D01*
X188822308Y-105772986D01*
X188823141Y-105860355D01*
X188826961Y-105918192D01*
X188835746Y-105956029D01*
X188851474Y-105983398D01*
X188870266Y-106004042D01*
X188933375Y-106043890D01*
X189001137Y-106047295D01*
X189065179Y-106014025D01*
X189070164Y-106009517D01*
X189091439Y-105986067D01*
X189104779Y-105958166D01*
X189112001Y-105916641D01*
X189114923Y-105852316D01*
X189115385Y-105781200D01*
X189114383Y-105691858D01*
X189110238Y-105632258D01*
X189101236Y-105593089D01*
X189085667Y-105565040D01*
X189072902Y-105550144D01*
X189013600Y-105512575D01*
X188945301Y-105508057D01*
X188880110Y-105536753D01*
X188867528Y-105547406D01*
X188846111Y-105571063D01*
X188832744Y-105599251D01*
X188825566Y-105641245D01*
X188822719Y-105706319D01*
X188822308Y-105772986D01*
X188685809Y-105772986D01*
X188690322Y-105655765D01*
X188706362Y-105563577D01*
X188736528Y-105494269D01*
X188783629Y-105440211D01*
X188820312Y-105412505D01*
X188886990Y-105382572D01*
X188964272Y-105368678D01*
X189036110Y-105372397D01*
X189076308Y-105387400D01*
X189092082Y-105391670D01*
X189102550Y-105375750D01*
X189109856Y-105333089D01*
X189115385Y-105268106D01*
X189121437Y-105195732D01*
X189129844Y-105152187D01*
X189145141Y-105127287D01*
X189171864Y-105110845D01*
X189188654Y-105103564D01*
X189252154Y-105076963D01*
X189252081Y-105530289D01*
G36*
X190045929Y-105386662D02*
G01*
X190048911Y-105438068D01*
X190051247Y-105516192D01*
X190052749Y-105614857D01*
X190053231Y-105718343D01*
X190053231Y-106068533D01*
X189991401Y-106130363D01*
X189948793Y-106168462D01*
X189911390Y-106183895D01*
X189860270Y-106182918D01*
X189839978Y-106180433D01*
X189776554Y-106173200D01*
X189724095Y-106169055D01*
X189711308Y-106168672D01*
X189668199Y-106171176D01*
X189606544Y-106177462D01*
X189582638Y-106180433D01*
X189523922Y-106185028D01*
X189484464Y-106175046D01*
X189445338Y-106144228D01*
X189431215Y-106130363D01*
X189369385Y-106068533D01*
X189369385Y-105413503D01*
X189419150Y-105390829D01*
X189462002Y-105374034D01*
X189487073Y-105368154D01*
X189493501Y-105386736D01*
X189499509Y-105438655D01*
X189504697Y-105518172D01*
X189508664Y-105619546D01*
X189510577Y-105705192D01*
X189515923Y-106042231D01*
X189562560Y-106048825D01*
X189604976Y-106044214D01*
X189625760Y-106029287D01*
X189631570Y-106001377D01*
X189636530Y-105941925D01*
X189640246Y-105858466D01*
X189642324Y-105758532D01*
X189642624Y-105707104D01*
X189642923Y-105411054D01*
X189704454Y-105389604D01*
X189748004Y-105375020D01*
X189771694Y-105368219D01*
X189772377Y-105368154D01*
X189774754Y-105386642D01*
X189777366Y-105437906D01*
X189779995Y-105515649D01*
X189782421Y-105613574D01*
X189784115Y-105705192D01*
X189789461Y-106042231D01*
X189906692Y-106042231D01*
X189912072Y-105734746D01*
X189917451Y-105427261D01*
X189974601Y-105397707D01*
X190016797Y-105377413D01*
X190041770Y-105368204D01*
X190042491Y-105368154D01*
X190045929Y-105386662D01*
G37*
X190045929Y-105386662D02*
X190048911Y-105438068D01*
X190051247Y-105516192D01*
X190052749Y-105614857D01*
X190053231Y-105718343D01*
X190053231Y-106068533D01*
X189991401Y-106130363D01*
X189948793Y-106168462D01*
X189911390Y-106183895D01*
X189860270Y-106182918D01*
X189839978Y-106180433D01*
X189776554Y-106173200D01*
X189724095Y-106169055D01*
X189711308Y-106168672D01*
X189668199Y-106171176D01*
X189606544Y-106177462D01*
X189582638Y-106180433D01*
X189523922Y-106185028D01*
X189484464Y-106175046D01*
X189445338Y-106144228D01*
X189431215Y-106130363D01*
X189369385Y-106068533D01*
X189369385Y-105413503D01*
X189419150Y-105390829D01*
X189462002Y-105374034D01*
X189487073Y-105368154D01*
X189493501Y-105386736D01*
X189499509Y-105438655D01*
X189504697Y-105518172D01*
X189508664Y-105619546D01*
X189510577Y-105705192D01*
X189515923Y-106042231D01*
X189562560Y-106048825D01*
X189604976Y-106044214D01*
X189625760Y-106029287D01*
X189631570Y-106001377D01*
X189636530Y-105941925D01*
X189640246Y-105858466D01*
X189642324Y-105758532D01*
X189642624Y-105707104D01*
X189642923Y-105411054D01*
X189704454Y-105389604D01*
X189748004Y-105375020D01*
X189771694Y-105368219D01*
X189772377Y-105368154D01*
X189774754Y-105386642D01*
X189777366Y-105437906D01*
X189779995Y-105515649D01*
X189782421Y-105613574D01*
X189784115Y-105705192D01*
X189789461Y-106042231D01*
X189906692Y-106042231D01*
X189912072Y-105734746D01*
X189917451Y-105427261D01*
X189974601Y-105397707D01*
X190016797Y-105377413D01*
X190041770Y-105368204D01*
X190042491Y-105368154D01*
X190045929Y-105386662D01*
G36*
X190537333Y-105383528D02*
G01*
X190593590Y-105409117D01*
X190637747Y-105440124D01*
X190670101Y-105474795D01*
X190692438Y-105519520D01*
X190706546Y-105580692D01*
X190714211Y-105664701D01*
X190717220Y-105777940D01*
X190717538Y-105852509D01*
X190717538Y-106143420D01*
X190667773Y-106166095D01*
X190628576Y-106182667D01*
X190609157Y-106188769D01*
X190605442Y-106170610D01*
X190602495Y-106121648D01*
X190600691Y-106050153D01*
X190600308Y-105993385D01*
X190598661Y-105911371D01*
X190594222Y-105846309D01*
X190587740Y-105806467D01*
X190582590Y-105798000D01*
X190547977Y-105806646D01*
X190493640Y-105828823D01*
X190430722Y-105858886D01*
X190370368Y-105891192D01*
X190323721Y-105920098D01*
X190301926Y-105939961D01*
X190301839Y-105940175D01*
X190303714Y-105976935D01*
X190320525Y-106012026D01*
X190350039Y-106040528D01*
X190393116Y-106050061D01*
X190429932Y-106048950D01*
X190482074Y-106048133D01*
X190509444Y-106060349D01*
X190525882Y-106092624D01*
X190527955Y-106098710D01*
X190535081Y-106144739D01*
X190516024Y-106172687D01*
X190466353Y-106186007D01*
X190412697Y-106188470D01*
X190316142Y-106170210D01*
X190266159Y-106144131D01*
X190204429Y-106082868D01*
X190171690Y-106007670D01*
X190168753Y-105928211D01*
X190196424Y-105854167D01*
X190238047Y-105807769D01*
X190279604Y-105781793D01*
X190344922Y-105748907D01*
X190421038Y-105715557D01*
X190433726Y-105710461D01*
X190517333Y-105673565D01*
X190565530Y-105641046D01*
X190581030Y-105608718D01*
X190566550Y-105572394D01*
X190541692Y-105544000D01*
X190482939Y-105509039D01*
X190418293Y-105506417D01*
X190359008Y-105533358D01*
X190316339Y-105587088D01*
X190310739Y-105600950D01*
X190278133Y-105651936D01*
X190230530Y-105689787D01*
X190170461Y-105720850D01*
X190170461Y-105632768D01*
X190173997Y-105578951D01*
X190189156Y-105536534D01*
X190222768Y-105491279D01*
X190255035Y-105456420D01*
X190305209Y-105407062D01*
X190344193Y-105380547D01*
X190386064Y-105369911D01*
X190433460Y-105368154D01*
X190537333Y-105383528D01*
G37*
X190537333Y-105383528D02*
X190593590Y-105409117D01*
X190637747Y-105440124D01*
X190670101Y-105474795D01*
X190692438Y-105519520D01*
X190706546Y-105580692D01*
X190714211Y-105664701D01*
X190717220Y-105777940D01*
X190717538Y-105852509D01*
X190717538Y-106143420D01*
X190667773Y-106166095D01*
X190628576Y-106182667D01*
X190609157Y-106188769D01*
X190605442Y-106170610D01*
X190602495Y-106121648D01*
X190600691Y-106050153D01*
X190600308Y-105993385D01*
X190598661Y-105911371D01*
X190594222Y-105846309D01*
X190587740Y-105806467D01*
X190582590Y-105798000D01*
X190547977Y-105806646D01*
X190493640Y-105828823D01*
X190430722Y-105858886D01*
X190370368Y-105891192D01*
X190323721Y-105920098D01*
X190301926Y-105939961D01*
X190301839Y-105940175D01*
X190303714Y-105976935D01*
X190320525Y-106012026D01*
X190350039Y-106040528D01*
X190393116Y-106050061D01*
X190429932Y-106048950D01*
X190482074Y-106048133D01*
X190509444Y-106060349D01*
X190525882Y-106092624D01*
X190527955Y-106098710D01*
X190535081Y-106144739D01*
X190516024Y-106172687D01*
X190466353Y-106186007D01*
X190412697Y-106188470D01*
X190316142Y-106170210D01*
X190266159Y-106144131D01*
X190204429Y-106082868D01*
X190171690Y-106007670D01*
X190168753Y-105928211D01*
X190196424Y-105854167D01*
X190238047Y-105807769D01*
X190279604Y-105781793D01*
X190344922Y-105748907D01*
X190421038Y-105715557D01*
X190433726Y-105710461D01*
X190517333Y-105673565D01*
X190565530Y-105641046D01*
X190581030Y-105608718D01*
X190566550Y-105572394D01*
X190541692Y-105544000D01*
X190482939Y-105509039D01*
X190418293Y-105506417D01*
X190359008Y-105533358D01*
X190316339Y-105587088D01*
X190310739Y-105600950D01*
X190278133Y-105651936D01*
X190230530Y-105689787D01*
X190170461Y-105720850D01*
X190170461Y-105632768D01*
X190173997Y-105578951D01*
X190189156Y-105536534D01*
X190222768Y-105491279D01*
X190255035Y-105456420D01*
X190305209Y-105407062D01*
X190344193Y-105380547D01*
X190386064Y-105369911D01*
X190433460Y-105368154D01*
X190537333Y-105383528D01*
G36*
X191220807Y-105386782D02*
G01*
X191244161Y-105396988D01*
X191299902Y-105441134D01*
X191347569Y-105504967D01*
X191377048Y-105573087D01*
X191381846Y-105606670D01*
X191365760Y-105653556D01*
X191330475Y-105678365D01*
X191292644Y-105693387D01*
X191275321Y-105696155D01*
X191266886Y-105676066D01*
X191250230Y-105632351D01*
X191242923Y-105612598D01*
X191201948Y-105544271D01*
X191142622Y-105510191D01*
X191066552Y-105511239D01*
X191060918Y-105512581D01*
X191020305Y-105531836D01*
X190990448Y-105569375D01*
X190970055Y-105629809D01*
X190957836Y-105717751D01*
X190952500Y-105837813D01*
X190952000Y-105901698D01*
X190951752Y-106002403D01*
X190950126Y-106071054D01*
X190945801Y-106114673D01*
X190937454Y-106140282D01*
X190923765Y-106154903D01*
X190903411Y-106165558D01*
X190902234Y-106166095D01*
X190863038Y-106182667D01*
X190843619Y-106188769D01*
X190840635Y-106170319D01*
X190838081Y-106119323D01*
X190836140Y-106042308D01*
X190834997Y-105945805D01*
X190834769Y-105875184D01*
X190835932Y-105738525D01*
X190840479Y-105634851D01*
X190849999Y-105558108D01*
X190866081Y-105502246D01*
X190890313Y-105461212D01*
X190924286Y-105428954D01*
X190957833Y-105406440D01*
X191038499Y-105376476D01*
X191132381Y-105369718D01*
X191220807Y-105386782D01*
G37*
X191220807Y-105386782D02*
X191244161Y-105396988D01*
X191299902Y-105441134D01*
X191347569Y-105504967D01*
X191377048Y-105573087D01*
X191381846Y-105606670D01*
X191365760Y-105653556D01*
X191330475Y-105678365D01*
X191292644Y-105693387D01*
X191275321Y-105696155D01*
X191266886Y-105676066D01*
X191250230Y-105632351D01*
X191242923Y-105612598D01*
X191201948Y-105544271D01*
X191142622Y-105510191D01*
X191066552Y-105511239D01*
X191060918Y-105512581D01*
X191020305Y-105531836D01*
X190990448Y-105569375D01*
X190970055Y-105629809D01*
X190957836Y-105717751D01*
X190952500Y-105837813D01*
X190952000Y-105901698D01*
X190951752Y-106002403D01*
X190950126Y-106071054D01*
X190945801Y-106114673D01*
X190937454Y-106140282D01*
X190923765Y-106154903D01*
X190903411Y-106165558D01*
X190902234Y-106166095D01*
X190863038Y-106182667D01*
X190843619Y-106188769D01*
X190840635Y-106170319D01*
X190838081Y-106119323D01*
X190836140Y-106042308D01*
X190834997Y-105945805D01*
X190834769Y-105875184D01*
X190835932Y-105738525D01*
X190840479Y-105634851D01*
X190849999Y-105558108D01*
X190866081Y-105502246D01*
X190890313Y-105461212D01*
X190924286Y-105428954D01*
X190957833Y-105406440D01*
X191038499Y-105376476D01*
X191132381Y-105369718D01*
X191220807Y-105386782D01*
G36*
X191895224Y-105397838D02*
G01*
X191972528Y-105448361D01*
X192009814Y-105493590D01*
X192039353Y-105575663D01*
X192041699Y-105640607D01*
X192036385Y-105727445D01*
X191836115Y-105815103D01*
X191738739Y-105859887D01*
X191675113Y-105895913D01*
X191642029Y-105927117D01*
X191636280Y-105957436D01*
X191654658Y-105990805D01*
X191674923Y-106012923D01*
X191733889Y-106048393D01*
X191798024Y-106050879D01*
X191856926Y-106023235D01*
X191900197Y-105968320D01*
X191907936Y-105948928D01*
X191945006Y-105888364D01*
X191987654Y-105862552D01*
X192046154Y-105840471D01*
X192046154Y-105924184D01*
X192040982Y-105981150D01*
X192020723Y-106029189D01*
X191978262Y-106084346D01*
X191971951Y-106091514D01*
X191924720Y-106140585D01*
X191884121Y-106166920D01*
X191833328Y-106179035D01*
X191791220Y-106183003D01*
X191715902Y-106183991D01*
X191662286Y-106171466D01*
X191628838Y-106152869D01*
X191576268Y-106111975D01*
X191539879Y-106067748D01*
X191516850Y-106012126D01*
X191504359Y-105937047D01*
X191499587Y-105834449D01*
X191499206Y-105782376D01*
X191500501Y-105719948D01*
X191618471Y-105719948D01*
X191619839Y-105753438D01*
X191623249Y-105758923D01*
X191645753Y-105751472D01*
X191694182Y-105731753D01*
X191758908Y-105703718D01*
X191772443Y-105697692D01*
X191854244Y-105656096D01*
X191899312Y-105619538D01*
X191909217Y-105585296D01*
X191885526Y-105550648D01*
X191865960Y-105535339D01*
X191795360Y-105504721D01*
X191729280Y-105509780D01*
X191673959Y-105547151D01*
X191635636Y-105613473D01*
X191623349Y-105666116D01*
X191618471Y-105719948D01*
X191500501Y-105719948D01*
X191501730Y-105660720D01*
X191511032Y-105570710D01*
X191529460Y-105505167D01*
X191559360Y-105456912D01*
X191603080Y-105418767D01*
X191622141Y-105406440D01*
X191708726Y-105374336D01*
X191803522Y-105372316D01*
X191895224Y-105397838D01*
G37*
X191895224Y-105397838D02*
X191972528Y-105448361D01*
X192009814Y-105493590D01*
X192039353Y-105575663D01*
X192041699Y-105640607D01*
X192036385Y-105727445D01*
X191836115Y-105815103D01*
X191738739Y-105859887D01*
X191675113Y-105895913D01*
X191642029Y-105927117D01*
X191636280Y-105957436D01*
X191654658Y-105990805D01*
X191674923Y-106012923D01*
X191733889Y-106048393D01*
X191798024Y-106050879D01*
X191856926Y-106023235D01*
X191900197Y-105968320D01*
X191907936Y-105948928D01*
X191945006Y-105888364D01*
X191987654Y-105862552D01*
X192046154Y-105840471D01*
X192046154Y-105924184D01*
X192040982Y-105981150D01*
X192020723Y-106029189D01*
X191978262Y-106084346D01*
X191971951Y-106091514D01*
X191924720Y-106140585D01*
X191884121Y-106166920D01*
X191833328Y-106179035D01*
X191791220Y-106183003D01*
X191715902Y-106183991D01*
X191662286Y-106171466D01*
X191628838Y-106152869D01*
X191576268Y-106111975D01*
X191539879Y-106067748D01*
X191516850Y-106012126D01*
X191504359Y-105937047D01*
X191499587Y-105834449D01*
X191499206Y-105782376D01*
X191500501Y-105719948D01*
X191618471Y-105719948D01*
X191619839Y-105753438D01*
X191623249Y-105758923D01*
X191645753Y-105751472D01*
X191694182Y-105731753D01*
X191758908Y-105703718D01*
X191772443Y-105697692D01*
X191854244Y-105656096D01*
X191899312Y-105619538D01*
X191909217Y-105585296D01*
X191885526Y-105550648D01*
X191865960Y-105535339D01*
X191795360Y-105504721D01*
X191729280Y-105509780D01*
X191673959Y-105547151D01*
X191635636Y-105613473D01*
X191623349Y-105666116D01*
X191618471Y-105719948D01*
X191500501Y-105719948D01*
X191501730Y-105660720D01*
X191511032Y-105570710D01*
X191529460Y-105505167D01*
X191559360Y-105456912D01*
X191603080Y-105418767D01*
X191622141Y-105406440D01*
X191708726Y-105374336D01*
X191803522Y-105372316D01*
X191895224Y-105397838D01*
G36*
X187789878Y-99037776D02*
G01*
X187895612Y-99038355D01*
X187972132Y-99039922D01*
X188024372Y-99042972D01*
X188057263Y-99047996D01*
X188075737Y-99055489D01*
X188084727Y-99065944D01*
X188089163Y-99079853D01*
X188089594Y-99081654D01*
X188096333Y-99114145D01*
X188108808Y-99178252D01*
X188125719Y-99267151D01*
X188145771Y-99374019D01*
X188167664Y-99492033D01*
X188168429Y-99496178D01*
X188190359Y-99611831D01*
X188210877Y-99714014D01*
X188228659Y-99796598D01*
X188242381Y-99853456D01*
X188250718Y-99878458D01*
X188251116Y-99878901D01*
X188275677Y-99891110D01*
X188326315Y-99911456D01*
X188392095Y-99935545D01*
X188392461Y-99935674D01*
X188475317Y-99966818D01*
X188573000Y-100006491D01*
X188665077Y-100046381D01*
X188669434Y-100048353D01*
X188819407Y-100116420D01*
X189151498Y-99889639D01*
X189253374Y-99820504D01*
X189345657Y-99758697D01*
X189423003Y-99707733D01*
X189480064Y-99671127D01*
X189511495Y-99652394D01*
X189514479Y-99651004D01*
X189537321Y-99657190D01*
X189579982Y-99687035D01*
X189644128Y-99741947D01*
X189731421Y-99823334D01*
X189820535Y-99909922D01*
X189906441Y-99995247D01*
X189983327Y-100073108D01*
X190046564Y-100138697D01*
X190091523Y-100187205D01*
X190113576Y-100213825D01*
X190114396Y-100215195D01*
X190116834Y-100233463D01*
X190107650Y-100263295D01*
X190084574Y-100308721D01*
X190045337Y-100373770D01*
X189987670Y-100462470D01*
X189910795Y-100576657D01*
X189842570Y-100677162D01*
X189781582Y-100767303D01*
X189731356Y-100841849D01*
X189695416Y-100895565D01*
X189677287Y-100923218D01*
X189676146Y-100925095D01*
X189678359Y-100951590D01*
X189695138Y-101003086D01*
X189723142Y-101069851D01*
X189733122Y-101091172D01*
X189776672Y-101186159D01*
X189823134Y-101293937D01*
X189860877Y-101387192D01*
X189888073Y-101456406D01*
X189909675Y-101509006D01*
X189922158Y-101536497D01*
X189923709Y-101538616D01*
X189946668Y-101542124D01*
X190000786Y-101551738D01*
X190078868Y-101566089D01*
X190173719Y-101583807D01*
X190278143Y-101603525D01*
X190384944Y-101623874D01*
X190486926Y-101643486D01*
X190576894Y-101660991D01*
X190647653Y-101675022D01*
X190692006Y-101684209D01*
X190702885Y-101686807D01*
X190714122Y-101693218D01*
X190722605Y-101707697D01*
X190728714Y-101735133D01*
X190732832Y-101780411D01*
X190735341Y-101848420D01*
X190736621Y-101944047D01*
X190737054Y-102072180D01*
X190737077Y-102124701D01*
X190737077Y-102551845D01*
X190634500Y-102572091D01*
X190577431Y-102583070D01*
X190492269Y-102599095D01*
X190389372Y-102618233D01*
X190279096Y-102638551D01*
X190248615Y-102644132D01*
X190146855Y-102663917D01*
X190058205Y-102683373D01*
X189990108Y-102700697D01*
X189950004Y-102714088D01*
X189943323Y-102718079D01*
X189926919Y-102746342D01*
X189903399Y-102801109D01*
X189877316Y-102871588D01*
X189872142Y-102886769D01*
X189837956Y-102980896D01*
X189795523Y-103087101D01*
X189753997Y-103182473D01*
X189753792Y-103182916D01*
X189684640Y-103332525D01*
X190139512Y-104001617D01*
X189847500Y-104294116D01*
X189759180Y-104381170D01*
X189678625Y-104457909D01*
X189610360Y-104520237D01*
X189558908Y-104564056D01*
X189528794Y-104585270D01*
X189524474Y-104586616D01*
X189499111Y-104576016D01*
X189447358Y-104546547D01*
X189374868Y-104501705D01*
X189287294Y-104444984D01*
X189192612Y-104381462D01*
X189096516Y-104316668D01*
X189010837Y-104260287D01*
X188941016Y-104215788D01*
X188892494Y-104186639D01*
X188870782Y-104176308D01*
X188844293Y-104185050D01*
X188794062Y-104208087D01*
X188730451Y-104240631D01*
X188723708Y-104244249D01*
X188638046Y-104287210D01*
X188579306Y-104308279D01*
X188542772Y-104308503D01*
X188523731Y-104288928D01*
X188523620Y-104288654D01*
X188514102Y-104265472D01*
X188491403Y-104210441D01*
X188457282Y-104127822D01*
X188413500Y-104021872D01*
X188361816Y-103896852D01*
X188303992Y-103757020D01*
X188247991Y-103621637D01*
X188186447Y-103472234D01*
X188129939Y-103333832D01*
X188080161Y-103210673D01*
X188038806Y-103107002D01*
X188007568Y-103027059D01*
X187988141Y-102975088D01*
X187982154Y-102955692D01*
X187997168Y-102933443D01*
X188036439Y-102897982D01*
X188088807Y-102858887D01*
X188237941Y-102735245D01*
X188354511Y-102593522D01*
X188437118Y-102436704D01*
X188484366Y-102267775D01*
X188494857Y-102089722D01*
X188487231Y-102007539D01*
X188445682Y-101837031D01*
X188374123Y-101686459D01*
X188276995Y-101557309D01*
X188158734Y-101451064D01*
X188023780Y-101369210D01*
X187876571Y-101313232D01*
X187721544Y-101284615D01*
X187563139Y-101284844D01*
X187405794Y-101315405D01*
X187253946Y-101377782D01*
X187112035Y-101473460D01*
X187052803Y-101527572D01*
X186939203Y-101666520D01*
X186860106Y-101818361D01*
X186814986Y-101978667D01*
X186803316Y-102143012D01*
X186824569Y-102306971D01*
X186878220Y-102466118D01*
X186963740Y-102616025D01*
X187080605Y-102752267D01*
X187211193Y-102858887D01*
X187265588Y-102899642D01*
X187304014Y-102934718D01*
X187317846Y-102955726D01*
X187310603Y-102978635D01*
X187290005Y-103033365D01*
X187257746Y-103115672D01*
X187215521Y-103221315D01*
X187165023Y-103346050D01*
X187107948Y-103485636D01*
X187051854Y-103621670D01*
X186989967Y-103771201D01*
X186932644Y-103909767D01*
X186881644Y-104033107D01*
X186838727Y-104136964D01*
X186805653Y-104217080D01*
X186784181Y-104269195D01*
X186776225Y-104288654D01*
X186757429Y-104308423D01*
X186721074Y-104308365D01*
X186662479Y-104287441D01*
X186576968Y-104244613D01*
X186576292Y-104244249D01*
X186511907Y-104211012D01*
X186459861Y-104186802D01*
X186430512Y-104176404D01*
X186429217Y-104176308D01*
X186407124Y-104186855D01*
X186358348Y-104216184D01*
X186288331Y-104260827D01*
X186202514Y-104317314D01*
X186107388Y-104381462D01*
X186010540Y-104446411D01*
X185923253Y-104502896D01*
X185851181Y-104547421D01*
X185799977Y-104576490D01*
X185775526Y-104586616D01*
X185753010Y-104573307D01*
X185707742Y-104536112D01*
X185644244Y-104479128D01*
X185567039Y-104406449D01*
X185480651Y-104322171D01*
X185452399Y-104294016D01*
X185160287Y-104001416D01*
X185382631Y-103675104D01*
X185450202Y-103574897D01*
X185509507Y-103484963D01*
X185557217Y-103410510D01*
X185590007Y-103356751D01*
X185604548Y-103328894D01*
X185604974Y-103326912D01*
X185597308Y-103300655D01*
X185576689Y-103247837D01*
X185546685Y-103177310D01*
X185525625Y-103130093D01*
X185486248Y-103039694D01*
X185449165Y-102948366D01*
X185420415Y-102871200D01*
X185412605Y-102847692D01*
X185390417Y-102784916D01*
X185368727Y-102736411D01*
X185356813Y-102718079D01*
X185330523Y-102706859D01*
X185273142Y-102690954D01*
X185192118Y-102672167D01*
X185094895Y-102652299D01*
X185051385Y-102644132D01*
X184940896Y-102623829D01*
X184834916Y-102604170D01*
X184743801Y-102587088D01*
X184677908Y-102574518D01*
X184665500Y-102572091D01*
X184562923Y-102551845D01*
X184562923Y-102124701D01*
X184563153Y-101984246D01*
X184564099Y-101877979D01*
X184566141Y-101801013D01*
X184569662Y-101748460D01*
X184575043Y-101715433D01*
X184582666Y-101697045D01*
X184592912Y-101688408D01*
X184597115Y-101686807D01*
X184622470Y-101681127D01*
X184678484Y-101669795D01*
X184757964Y-101654179D01*
X184853712Y-101635647D01*
X184958533Y-101615569D01*
X185065232Y-101595312D01*
X185166613Y-101576246D01*
X185255479Y-101559739D01*
X185324637Y-101547159D01*
X185366889Y-101539875D01*
X185376290Y-101538616D01*
X185384807Y-101521763D01*
X185403660Y-101476870D01*
X185429324Y-101412430D01*
X185439123Y-101387192D01*
X185478648Y-101289686D01*
X185525192Y-101181959D01*
X185566877Y-101091172D01*
X185597550Y-101021753D01*
X185617956Y-100964710D01*
X185624768Y-100929777D01*
X185623682Y-100925095D01*
X185609285Y-100902991D01*
X185576412Y-100853831D01*
X185528590Y-100782848D01*
X185469348Y-100695278D01*
X185402215Y-100596357D01*
X185388941Y-100576830D01*
X185311046Y-100461140D01*
X185253787Y-100373044D01*
X185214881Y-100308486D01*
X185192044Y-100263411D01*
X185182994Y-100233763D01*
X185185448Y-100215485D01*
X185185511Y-100215369D01*
X185204827Y-100191361D01*
X185247551Y-100144947D01*
X185309051Y-100080937D01*
X185384698Y-100004145D01*
X185469861Y-99919382D01*
X185479465Y-99909922D01*
X185586790Y-99805989D01*
X185669615Y-99729675D01*
X185729605Y-99679571D01*
X185768423Y-99654270D01*
X185785520Y-99651004D01*
X185810473Y-99665250D01*
X185862255Y-99698156D01*
X185935520Y-99746208D01*
X186024920Y-99805890D01*
X186125111Y-99873688D01*
X186148501Y-99889639D01*
X186480593Y-100116420D01*
X186630565Y-100048353D01*
X186721770Y-100008685D01*
X186819669Y-99968791D01*
X186903831Y-99936983D01*
X186907538Y-99935674D01*
X186973369Y-99911576D01*
X187024116Y-99891200D01*
X187048842Y-99878936D01*
X187048884Y-99878901D01*
X187056729Y-99856734D01*
X187070066Y-99802217D01*
X187087570Y-99721480D01*
X187107917Y-99620650D01*
X187129782Y-99505856D01*
X187131571Y-99496178D01*
X187153504Y-99377904D01*
X187173640Y-99270542D01*
X187190680Y-99180917D01*
X187203328Y-99115851D01*
X187210284Y-99082168D01*
X187210406Y-99081654D01*
X187214639Y-99067325D01*
X187222871Y-99056507D01*
X187240033Y-99048706D01*
X187271058Y-99043429D01*
X187320878Y-99040182D01*
X187394424Y-99038472D01*
X187496629Y-99037807D01*
X187632425Y-99037693D01*
X187650000Y-99037692D01*
X187789878Y-99037776D01*
G37*
X187789878Y-99037776D02*
X187895612Y-99038355D01*
X187972132Y-99039922D01*
X188024372Y-99042972D01*
X188057263Y-99047996D01*
X188075737Y-99055489D01*
X188084727Y-99065944D01*
X188089163Y-99079853D01*
X188089594Y-99081654D01*
X188096333Y-99114145D01*
X188108808Y-99178252D01*
X188125719Y-99267151D01*
X188145771Y-99374019D01*
X188167664Y-99492033D01*
X188168429Y-99496178D01*
X188190359Y-99611831D01*
X188210877Y-99714014D01*
X188228659Y-99796598D01*
X188242381Y-99853456D01*
X188250718Y-99878458D01*
X188251116Y-99878901D01*
X188275677Y-99891110D01*
X188326315Y-99911456D01*
X188392095Y-99935545D01*
X188392461Y-99935674D01*
X188475317Y-99966818D01*
X188573000Y-100006491D01*
X188665077Y-100046381D01*
X188669434Y-100048353D01*
X188819407Y-100116420D01*
X189151498Y-99889639D01*
X189253374Y-99820504D01*
X189345657Y-99758697D01*
X189423003Y-99707733D01*
X189480064Y-99671127D01*
X189511495Y-99652394D01*
X189514479Y-99651004D01*
X189537321Y-99657190D01*
X189579982Y-99687035D01*
X189644128Y-99741947D01*
X189731421Y-99823334D01*
X189820535Y-99909922D01*
X189906441Y-99995247D01*
X189983327Y-100073108D01*
X190046564Y-100138697D01*
X190091523Y-100187205D01*
X190113576Y-100213825D01*
X190114396Y-100215195D01*
X190116834Y-100233463D01*
X190107650Y-100263295D01*
X190084574Y-100308721D01*
X190045337Y-100373770D01*
X189987670Y-100462470D01*
X189910795Y-100576657D01*
X189842570Y-100677162D01*
X189781582Y-100767303D01*
X189731356Y-100841849D01*
X189695416Y-100895565D01*
X189677287Y-100923218D01*
X189676146Y-100925095D01*
X189678359Y-100951590D01*
X189695138Y-101003086D01*
X189723142Y-101069851D01*
X189733122Y-101091172D01*
X189776672Y-101186159D01*
X189823134Y-101293937D01*
X189860877Y-101387192D01*
X189888073Y-101456406D01*
X189909675Y-101509006D01*
X189922158Y-101536497D01*
X189923709Y-101538616D01*
X189946668Y-101542124D01*
X190000786Y-101551738D01*
X190078868Y-101566089D01*
X190173719Y-101583807D01*
X190278143Y-101603525D01*
X190384944Y-101623874D01*
X190486926Y-101643486D01*
X190576894Y-101660991D01*
X190647653Y-101675022D01*
X190692006Y-101684209D01*
X190702885Y-101686807D01*
X190714122Y-101693218D01*
X190722605Y-101707697D01*
X190728714Y-101735133D01*
X190732832Y-101780411D01*
X190735341Y-101848420D01*
X190736621Y-101944047D01*
X190737054Y-102072180D01*
X190737077Y-102124701D01*
X190737077Y-102551845D01*
X190634500Y-102572091D01*
X190577431Y-102583070D01*
X190492269Y-102599095D01*
X190389372Y-102618233D01*
X190279096Y-102638551D01*
X190248615Y-102644132D01*
X190146855Y-102663917D01*
X190058205Y-102683373D01*
X189990108Y-102700697D01*
X189950004Y-102714088D01*
X189943323Y-102718079D01*
X189926919Y-102746342D01*
X189903399Y-102801109D01*
X189877316Y-102871588D01*
X189872142Y-102886769D01*
X189837956Y-102980896D01*
X189795523Y-103087101D01*
X189753997Y-103182473D01*
X189753792Y-103182916D01*
X189684640Y-103332525D01*
X190139512Y-104001617D01*
X189847500Y-104294116D01*
X189759180Y-104381170D01*
X189678625Y-104457909D01*
X189610360Y-104520237D01*
X189558908Y-104564056D01*
X189528794Y-104585270D01*
X189524474Y-104586616D01*
X189499111Y-104576016D01*
X189447358Y-104546547D01*
X189374868Y-104501705D01*
X189287294Y-104444984D01*
X189192612Y-104381462D01*
X189096516Y-104316668D01*
X189010837Y-104260287D01*
X188941016Y-104215788D01*
X188892494Y-104186639D01*
X188870782Y-104176308D01*
X188844293Y-104185050D01*
X188794062Y-104208087D01*
X188730451Y-104240631D01*
X188723708Y-104244249D01*
X188638046Y-104287210D01*
X188579306Y-104308279D01*
X188542772Y-104308503D01*
X188523731Y-104288928D01*
X188523620Y-104288654D01*
X188514102Y-104265472D01*
X188491403Y-104210441D01*
X188457282Y-104127822D01*
X188413500Y-104021872D01*
X188361816Y-103896852D01*
X188303992Y-103757020D01*
X188247991Y-103621637D01*
X188186447Y-103472234D01*
X188129939Y-103333832D01*
X188080161Y-103210673D01*
X188038806Y-103107002D01*
X188007568Y-103027059D01*
X187988141Y-102975088D01*
X187982154Y-102955692D01*
X187997168Y-102933443D01*
X188036439Y-102897982D01*
X188088807Y-102858887D01*
X188237941Y-102735245D01*
X188354511Y-102593522D01*
X188437118Y-102436704D01*
X188484366Y-102267775D01*
X188494857Y-102089722D01*
X188487231Y-102007539D01*
X188445682Y-101837031D01*
X188374123Y-101686459D01*
X188276995Y-101557309D01*
X188158734Y-101451064D01*
X188023780Y-101369210D01*
X187876571Y-101313232D01*
X187721544Y-101284615D01*
X187563139Y-101284844D01*
X187405794Y-101315405D01*
X187253946Y-101377782D01*
X187112035Y-101473460D01*
X187052803Y-101527572D01*
X186939203Y-101666520D01*
X186860106Y-101818361D01*
X186814986Y-101978667D01*
X186803316Y-102143012D01*
X186824569Y-102306971D01*
X186878220Y-102466118D01*
X186963740Y-102616025D01*
X187080605Y-102752267D01*
X187211193Y-102858887D01*
X187265588Y-102899642D01*
X187304014Y-102934718D01*
X187317846Y-102955726D01*
X187310603Y-102978635D01*
X187290005Y-103033365D01*
X187257746Y-103115672D01*
X187215521Y-103221315D01*
X187165023Y-103346050D01*
X187107948Y-103485636D01*
X187051854Y-103621670D01*
X186989967Y-103771201D01*
X186932644Y-103909767D01*
X186881644Y-104033107D01*
X186838727Y-104136964D01*
X186805653Y-104217080D01*
X186784181Y-104269195D01*
X186776225Y-104288654D01*
X186757429Y-104308423D01*
X186721074Y-104308365D01*
X186662479Y-104287441D01*
X186576968Y-104244613D01*
X186576292Y-104244249D01*
X186511907Y-104211012D01*
X186459861Y-104186802D01*
X186430512Y-104176404D01*
X186429217Y-104176308D01*
X186407124Y-104186855D01*
X186358348Y-104216184D01*
X186288331Y-104260827D01*
X186202514Y-104317314D01*
X186107388Y-104381462D01*
X186010540Y-104446411D01*
X185923253Y-104502896D01*
X185851181Y-104547421D01*
X185799977Y-104576490D01*
X185775526Y-104586616D01*
X185753010Y-104573307D01*
X185707742Y-104536112D01*
X185644244Y-104479128D01*
X185567039Y-104406449D01*
X185480651Y-104322171D01*
X185452399Y-104294016D01*
X185160287Y-104001416D01*
X185382631Y-103675104D01*
X185450202Y-103574897D01*
X185509507Y-103484963D01*
X185557217Y-103410510D01*
X185590007Y-103356751D01*
X185604548Y-103328894D01*
X185604974Y-103326912D01*
X185597308Y-103300655D01*
X185576689Y-103247837D01*
X185546685Y-103177310D01*
X185525625Y-103130093D01*
X185486248Y-103039694D01*
X185449165Y-102948366D01*
X185420415Y-102871200D01*
X185412605Y-102847692D01*
X185390417Y-102784916D01*
X185368727Y-102736411D01*
X185356813Y-102718079D01*
X185330523Y-102706859D01*
X185273142Y-102690954D01*
X185192118Y-102672167D01*
X185094895Y-102652299D01*
X185051385Y-102644132D01*
X184940896Y-102623829D01*
X184834916Y-102604170D01*
X184743801Y-102587088D01*
X184677908Y-102574518D01*
X184665500Y-102572091D01*
X184562923Y-102551845D01*
X184562923Y-102124701D01*
X184563153Y-101984246D01*
X184564099Y-101877979D01*
X184566141Y-101801013D01*
X184569662Y-101748460D01*
X184575043Y-101715433D01*
X184582666Y-101697045D01*
X184592912Y-101688408D01*
X184597115Y-101686807D01*
X184622470Y-101681127D01*
X184678484Y-101669795D01*
X184757964Y-101654179D01*
X184853712Y-101635647D01*
X184958533Y-101615569D01*
X185065232Y-101595312D01*
X185166613Y-101576246D01*
X185255479Y-101559739D01*
X185324637Y-101547159D01*
X185366889Y-101539875D01*
X185376290Y-101538616D01*
X185384807Y-101521763D01*
X185403660Y-101476870D01*
X185429324Y-101412430D01*
X185439123Y-101387192D01*
X185478648Y-101289686D01*
X185525192Y-101181959D01*
X185566877Y-101091172D01*
X185597550Y-101021753D01*
X185617956Y-100964710D01*
X185624768Y-100929777D01*
X185623682Y-100925095D01*
X185609285Y-100902991D01*
X185576412Y-100853831D01*
X185528590Y-100782848D01*
X185469348Y-100695278D01*
X185402215Y-100596357D01*
X185388941Y-100576830D01*
X185311046Y-100461140D01*
X185253787Y-100373044D01*
X185214881Y-100308486D01*
X185192044Y-100263411D01*
X185182994Y-100233763D01*
X185185448Y-100215485D01*
X185185511Y-100215369D01*
X185204827Y-100191361D01*
X185247551Y-100144947D01*
X185309051Y-100080937D01*
X185384698Y-100004145D01*
X185469861Y-99919382D01*
X185479465Y-99909922D01*
X185586790Y-99805989D01*
X185669615Y-99729675D01*
X185729605Y-99679571D01*
X185768423Y-99654270D01*
X185785520Y-99651004D01*
X185810473Y-99665250D01*
X185862255Y-99698156D01*
X185935520Y-99746208D01*
X186024920Y-99805890D01*
X186125111Y-99873688D01*
X186148501Y-99889639D01*
X186480593Y-100116420D01*
X186630565Y-100048353D01*
X186721770Y-100008685D01*
X186819669Y-99968791D01*
X186903831Y-99936983D01*
X186907538Y-99935674D01*
X186973369Y-99911576D01*
X187024116Y-99891200D01*
X187048842Y-99878936D01*
X187048884Y-99878901D01*
X187056729Y-99856734D01*
X187070066Y-99802217D01*
X187087570Y-99721480D01*
X187107917Y-99620650D01*
X187129782Y-99505856D01*
X187131571Y-99496178D01*
X187153504Y-99377904D01*
X187173640Y-99270542D01*
X187190680Y-99180917D01*
X187203328Y-99115851D01*
X187210284Y-99082168D01*
X187210406Y-99081654D01*
X187214639Y-99067325D01*
X187222871Y-99056507D01*
X187240033Y-99048706D01*
X187271058Y-99043429D01*
X187320878Y-99040182D01*
X187394424Y-99038472D01*
X187496629Y-99037807D01*
X187632425Y-99037693D01*
X187650000Y-99037692D01*
X187789878Y-99037776D01*
D13*
X125870000Y-93750000D02*
G75*
G03*
X125870000Y-93750000I-4120000J0D01*
G01*
X121750000Y-89670000D02*
X121750000Y-97830000D01*
X121790000Y-89670000D02*
X121790000Y-97830000D01*
X121830000Y-89670000D02*
X121830000Y-97830000D01*
X121870000Y-89671000D02*
X121870000Y-97829000D01*
X121910000Y-89673000D02*
X121910000Y-97827000D01*
X121950000Y-89674000D02*
X121950000Y-97826000D01*
X121990000Y-89676000D02*
X121990000Y-97824000D01*
X122030000Y-89679000D02*
X122030000Y-97821000D01*
X122070000Y-89682000D02*
X122070000Y-97818000D01*
X122110000Y-89685000D02*
X122110000Y-97815000D01*
X122150000Y-89689000D02*
X122150000Y-97811000D01*
X122190000Y-89693000D02*
X122190000Y-97807000D01*
X122230000Y-89698000D02*
X122230000Y-97802000D01*
X122270000Y-89702000D02*
X122270000Y-97798000D01*
X122310000Y-89708000D02*
X122310000Y-97792000D01*
X122350000Y-89713000D02*
X122350000Y-97787000D01*
X122390000Y-89720000D02*
X122390000Y-97780000D01*
X122430000Y-89726000D02*
X122430000Y-97774000D01*
X122471000Y-89733000D02*
X122471000Y-92710000D01*
X122471000Y-94790000D02*
X122471000Y-97767000D01*
X122511000Y-89740000D02*
X122511000Y-92710000D01*
X122511000Y-94790000D02*
X122511000Y-97760000D01*
X122551000Y-89748000D02*
X122551000Y-92710000D01*
X122551000Y-94790000D02*
X122551000Y-97752000D01*
X122591000Y-89756000D02*
X122591000Y-92710000D01*
X122591000Y-94790000D02*
X122591000Y-97744000D01*
X122631000Y-89765000D02*
X122631000Y-92710000D01*
X122631000Y-94790000D02*
X122631000Y-97735000D01*
X122671000Y-89774000D02*
X122671000Y-92710000D01*
X122671000Y-94790000D02*
X122671000Y-97726000D01*
X122711000Y-89783000D02*
X122711000Y-92710000D01*
X122711000Y-94790000D02*
X122711000Y-97717000D01*
X122751000Y-89793000D02*
X122751000Y-92710000D01*
X122751000Y-94790000D02*
X122751000Y-97707000D01*
X122791000Y-89803000D02*
X122791000Y-92710000D01*
X122791000Y-94790000D02*
X122791000Y-97697000D01*
X122831000Y-89814000D02*
X122831000Y-92710000D01*
X122831000Y-94790000D02*
X122831000Y-97686000D01*
X122871000Y-89825000D02*
X122871000Y-92710000D01*
X122871000Y-94790000D02*
X122871000Y-97675000D01*
X122911000Y-89836000D02*
X122911000Y-92710000D01*
X122911000Y-94790000D02*
X122911000Y-97664000D01*
X122951000Y-89848000D02*
X122951000Y-92710000D01*
X122951000Y-94790000D02*
X122951000Y-97652000D01*
X122991000Y-89861000D02*
X122991000Y-92710000D01*
X122991000Y-94790000D02*
X122991000Y-97639000D01*
X123031000Y-89873000D02*
X123031000Y-92710000D01*
X123031000Y-94790000D02*
X123031000Y-97627000D01*
X123071000Y-89887000D02*
X123071000Y-92710000D01*
X123071000Y-94790000D02*
X123071000Y-97613000D01*
X123111000Y-89900000D02*
X123111000Y-92710000D01*
X123111000Y-94790000D02*
X123111000Y-97600000D01*
X123151000Y-89915000D02*
X123151000Y-92710000D01*
X123151000Y-94790000D02*
X123151000Y-97585000D01*
X123191000Y-89929000D02*
X123191000Y-92710000D01*
X123191000Y-94790000D02*
X123191000Y-97571000D01*
X123231000Y-89945000D02*
X123231000Y-92710000D01*
X123231000Y-94790000D02*
X123231000Y-97555000D01*
X123271000Y-89960000D02*
X123271000Y-92710000D01*
X123271000Y-94790000D02*
X123271000Y-97540000D01*
X123311000Y-89976000D02*
X123311000Y-92710000D01*
X123311000Y-94790000D02*
X123311000Y-97524000D01*
X123351000Y-89993000D02*
X123351000Y-92710000D01*
X123351000Y-94790000D02*
X123351000Y-97507000D01*
X123391000Y-90010000D02*
X123391000Y-92710000D01*
X123391000Y-94790000D02*
X123391000Y-97490000D01*
X123431000Y-90028000D02*
X123431000Y-92710000D01*
X123431000Y-94790000D02*
X123431000Y-97472000D01*
X123471000Y-90046000D02*
X123471000Y-92710000D01*
X123471000Y-94790000D02*
X123471000Y-97454000D01*
X123511000Y-90064000D02*
X123511000Y-92710000D01*
X123511000Y-94790000D02*
X123511000Y-97436000D01*
X123551000Y-90084000D02*
X123551000Y-92710000D01*
X123551000Y-94790000D02*
X123551000Y-97416000D01*
X123591000Y-90103000D02*
X123591000Y-92710000D01*
X123591000Y-94790000D02*
X123591000Y-97397000D01*
X123631000Y-90123000D02*
X123631000Y-92710000D01*
X123631000Y-94790000D02*
X123631000Y-97377000D01*
X123671000Y-90144000D02*
X123671000Y-92710000D01*
X123671000Y-94790000D02*
X123671000Y-97356000D01*
X123711000Y-90166000D02*
X123711000Y-92710000D01*
X123711000Y-94790000D02*
X123711000Y-97334000D01*
X123751000Y-90188000D02*
X123751000Y-92710000D01*
X123751000Y-94790000D02*
X123751000Y-97312000D01*
X123791000Y-90210000D02*
X123791000Y-92710000D01*
X123791000Y-94790000D02*
X123791000Y-97290000D01*
X123831000Y-90233000D02*
X123831000Y-92710000D01*
X123831000Y-94790000D02*
X123831000Y-97267000D01*
X123871000Y-90257000D02*
X123871000Y-92710000D01*
X123871000Y-94790000D02*
X123871000Y-97243000D01*
X123911000Y-90281000D02*
X123911000Y-92710000D01*
X123911000Y-94790000D02*
X123911000Y-97219000D01*
X123951000Y-90306000D02*
X123951000Y-92710000D01*
X123951000Y-94790000D02*
X123951000Y-97194000D01*
X123991000Y-90332000D02*
X123991000Y-92710000D01*
X123991000Y-94790000D02*
X123991000Y-97168000D01*
X124031000Y-90358000D02*
X124031000Y-92710000D01*
X124031000Y-94790000D02*
X124031000Y-97142000D01*
X124071000Y-90385000D02*
X124071000Y-92710000D01*
X124071000Y-94790000D02*
X124071000Y-97115000D01*
X124111000Y-90412000D02*
X124111000Y-92710000D01*
X124111000Y-94790000D02*
X124111000Y-97088000D01*
X124151000Y-90441000D02*
X124151000Y-92710000D01*
X124151000Y-94790000D02*
X124151000Y-97059000D01*
X124191000Y-90470000D02*
X124191000Y-92710000D01*
X124191000Y-94790000D02*
X124191000Y-97030000D01*
X124231000Y-90500000D02*
X124231000Y-92710000D01*
X124231000Y-94790000D02*
X124231000Y-97000000D01*
X124271000Y-90530000D02*
X124271000Y-92710000D01*
X124271000Y-94790000D02*
X124271000Y-96970000D01*
X124311000Y-90561000D02*
X124311000Y-92710000D01*
X124311000Y-94790000D02*
X124311000Y-96939000D01*
X124351000Y-90594000D02*
X124351000Y-92710000D01*
X124351000Y-94790000D02*
X124351000Y-96906000D01*
X124391000Y-90626000D02*
X124391000Y-92710000D01*
X124391000Y-94790000D02*
X124391000Y-96874000D01*
X124431000Y-90660000D02*
X124431000Y-92710000D01*
X124431000Y-94790000D02*
X124431000Y-96840000D01*
X124471000Y-90695000D02*
X124471000Y-92710000D01*
X124471000Y-94790000D02*
X124471000Y-96805000D01*
X124511000Y-90731000D02*
X124511000Y-92710000D01*
X124511000Y-94790000D02*
X124511000Y-96769000D01*
X124551000Y-90767000D02*
X124551000Y-96733000D01*
X124591000Y-90805000D02*
X124591000Y-96695000D01*
X124631000Y-90843000D02*
X124631000Y-96657000D01*
X124671000Y-90883000D02*
X124671000Y-96617000D01*
X124711000Y-90924000D02*
X124711000Y-96576000D01*
X124751000Y-90966000D02*
X124751000Y-96534000D01*
X124791000Y-91009000D02*
X124791000Y-96491000D01*
X124831000Y-91053000D02*
X124831000Y-96447000D01*
X124871000Y-91099000D02*
X124871000Y-96401000D01*
X124911000Y-91146000D02*
X124911000Y-96354000D01*
X124951000Y-91194000D02*
X124951000Y-96306000D01*
X124991000Y-91245000D02*
X124991000Y-96255000D01*
X125031000Y-91296000D02*
X125031000Y-96204000D01*
X125071000Y-91350000D02*
X125071000Y-96150000D01*
X125111000Y-91405000D02*
X125111000Y-96095000D01*
X125151000Y-91463000D02*
X125151000Y-96037000D01*
X125191000Y-91522000D02*
X125191000Y-95978000D01*
X125231000Y-91584000D02*
X125231000Y-95916000D01*
X125271000Y-91648000D02*
X125271000Y-95852000D01*
X125311000Y-91716000D02*
X125311000Y-95784000D01*
X125351000Y-91786000D02*
X125351000Y-95714000D01*
X125391000Y-91860000D02*
X125391000Y-95640000D01*
X125431000Y-91937000D02*
X125431000Y-95563000D01*
X125471000Y-92019000D02*
X125471000Y-95481000D01*
X125511000Y-92105000D02*
X125511000Y-95395000D01*
X125551000Y-92198000D02*
X125551000Y-95302000D01*
X125591000Y-92297000D02*
X125591000Y-95203000D01*
X125631000Y-92404000D02*
X125631000Y-95096000D01*
X125671000Y-92521000D02*
X125671000Y-94979000D01*
X125711000Y-92652000D02*
X125711000Y-94848000D01*
X125751000Y-92802000D02*
X125751000Y-94698000D01*
X125791000Y-92982000D02*
X125791000Y-94518000D01*
X125831000Y-93217000D02*
X125831000Y-94283000D01*
X117340302Y-91435000D02*
X118140302Y-91435000D01*
X117740302Y-91035000D02*
X117740302Y-91835000D01*
D16*
X117488000Y-122412000D02*
X117488000Y-107712000D01*
X122288000Y-107712000D02*
X122288000Y-122412000D01*
X117488000Y-122412000D02*
X118938000Y-122412000D01*
X120838000Y-122412000D02*
X122288000Y-122412000D01*
X120838000Y-107712000D02*
X122288000Y-107712000D01*
X117488000Y-107712000D02*
X118938000Y-107712000D01*
D11*
X120129420Y-123362000D02*
G75*
G03*
X120129420Y-123362000I-141420J0D01*
G01*
D17*
X143637000Y-79629000D02*
X143637000Y-86487000D01*
X143637000Y-86487000D02*
X144892617Y-86487000D01*
X170815000Y-86487000D02*
X170815000Y-79629000D01*
X170815000Y-79629000D02*
X169636440Y-79629000D01*
X167675560Y-79629000D02*
X167019383Y-79629000D01*
X165212617Y-79629000D02*
X164479383Y-79629000D01*
X162672617Y-79629000D02*
X161939383Y-79629000D01*
X160132617Y-79629000D02*
X159399383Y-79629000D01*
X157592617Y-79629000D02*
X156859383Y-79629000D01*
X155052617Y-79629000D02*
X154319383Y-79629000D01*
X152512617Y-79629000D02*
X151779383Y-79629000D01*
X149972617Y-79629000D02*
X149239383Y-79629000D01*
X147432617Y-79629000D02*
X146699383Y-79629000D01*
X144892617Y-79629000D02*
X143637000Y-79629000D01*
X146699383Y-86487000D02*
X147432617Y-86487000D01*
X149239383Y-86487000D02*
X149972617Y-86487000D01*
X151779383Y-86487000D02*
X152512617Y-86487000D01*
X154319383Y-86487000D02*
X155052617Y-86487000D01*
X156859383Y-86487000D02*
X157592617Y-86487000D01*
X159399383Y-86487000D02*
X160132617Y-86487000D01*
X161939383Y-86487000D02*
X162672617Y-86487000D01*
X164479383Y-86487000D02*
X165212617Y-86487000D01*
X167019383Y-86487000D02*
X167752617Y-86487000D01*
X169559383Y-86487000D02*
X170815000Y-86487000D01*
D13*
X127488000Y-105622000D02*
X127488000Y-113092000D01*
X127488000Y-113092000D02*
X139608000Y-113092000D01*
X139608000Y-113092000D02*
X139608000Y-105622000D01*
X139608000Y-105622000D02*
X127488000Y-105622000D01*
X129298000Y-112232000D02*
X128548000Y-112232000D01*
X128548000Y-112232000D02*
X128548000Y-107932000D01*
X128548000Y-107932000D02*
X129298000Y-107932000D01*
X129298000Y-107932000D02*
X129298000Y-107582000D01*
X129298000Y-107582000D02*
X128798000Y-107582000D01*
X128798000Y-107582000D02*
X128548000Y-106582000D01*
X128548000Y-106582000D02*
X131548000Y-106582000D01*
X131548000Y-106582000D02*
X131298000Y-107582000D01*
X131298000Y-107582000D02*
X130798000Y-107582000D01*
X130798000Y-107582000D02*
X130798000Y-107932000D01*
X130798000Y-107932000D02*
X131548000Y-107932000D01*
X131548000Y-107932000D02*
X131548000Y-112232000D01*
X131548000Y-112232000D02*
X130798000Y-112232000D01*
X132798000Y-112232000D02*
X132048000Y-112232000D01*
X132048000Y-112232000D02*
X132048000Y-107932000D01*
X132048000Y-107932000D02*
X132798000Y-107932000D01*
X132798000Y-107932000D02*
X132798000Y-107582000D01*
X132798000Y-107582000D02*
X132298000Y-107582000D01*
X132298000Y-107582000D02*
X132048000Y-106582000D01*
X132048000Y-106582000D02*
X135048000Y-106582000D01*
X135048000Y-106582000D02*
X134798000Y-107582000D01*
X134798000Y-107582000D02*
X134298000Y-107582000D01*
X134298000Y-107582000D02*
X134298000Y-107932000D01*
X134298000Y-107932000D02*
X135048000Y-107932000D01*
X135048000Y-107932000D02*
X135048000Y-112232000D01*
X135048000Y-112232000D02*
X134298000Y-112232000D01*
X136298000Y-112232000D02*
X135548000Y-112232000D01*
X135548000Y-112232000D02*
X135548000Y-107932000D01*
X135548000Y-107932000D02*
X136298000Y-107932000D01*
X136298000Y-107932000D02*
X136298000Y-107582000D01*
X136298000Y-107582000D02*
X135798000Y-107582000D01*
X135798000Y-107582000D02*
X135548000Y-106582000D01*
X135548000Y-106582000D02*
X138548000Y-106582000D01*
X138548000Y-106582000D02*
X138298000Y-107582000D01*
X138298000Y-107582000D02*
X137798000Y-107582000D01*
X137798000Y-107582000D02*
X137798000Y-107932000D01*
X137798000Y-107932000D02*
X138548000Y-107932000D01*
X138548000Y-107932000D02*
X138548000Y-112232000D01*
X138548000Y-112232000D02*
X137798000Y-112232000D01*
X127098000Y-106482000D02*
X127098000Y-105232000D01*
X127098000Y-105232000D02*
X129098000Y-105232000D01*
X137797647Y-112231845D02*
G75*
G03*
X136298000Y-112232000I-749647J-1700155D01*
G01*
X134297647Y-112231845D02*
G75*
G03*
X132798000Y-112232000I-749647J-1700155D01*
G01*
X130797647Y-112231845D02*
G75*
G03*
X129298000Y-112232000I-749647J-1700155D01*
G01*
D16*
X127140000Y-131810000D02*
X127140000Y-117110000D01*
X131940000Y-117110000D02*
X131940000Y-131810000D01*
X127140000Y-131810000D02*
X128590000Y-131810000D01*
X130490000Y-131810000D02*
X131940000Y-131810000D01*
X130490000Y-117110000D02*
X131940000Y-117110000D01*
X127140000Y-117110000D02*
X128590000Y-117110000D01*
D11*
X129781420Y-132760000D02*
G75*
G03*
X129781420Y-132760000I-141420J0D01*
G01*
D16*
X157620000Y-131810000D02*
X157620000Y-117110000D01*
X162420000Y-117110000D02*
X162420000Y-131810000D01*
X157620000Y-131810000D02*
X159070000Y-131810000D01*
X160970000Y-131810000D02*
X162420000Y-131810000D01*
X160970000Y-117110000D02*
X162420000Y-117110000D01*
X157620000Y-117110000D02*
X159070000Y-117110000D01*
D11*
X160261420Y-132760000D02*
G75*
G03*
X160261420Y-132760000I-141420J0D01*
G01*
D16*
X151270000Y-131810000D02*
X151270000Y-117110000D01*
X156070000Y-117110000D02*
X156070000Y-131810000D01*
X151270000Y-131810000D02*
X152720000Y-131810000D01*
X154620000Y-131810000D02*
X156070000Y-131810000D01*
X154620000Y-117110000D02*
X156070000Y-117110000D01*
X151270000Y-117110000D02*
X152720000Y-117110000D01*
D11*
X153911420Y-132760000D02*
G75*
G03*
X153911420Y-132760000I-141420J0D01*
G01*
D16*
X144920000Y-131810000D02*
X144920000Y-117110000D01*
X149720000Y-117110000D02*
X149720000Y-131810000D01*
X144920000Y-131810000D02*
X146370000Y-131810000D01*
X148270000Y-131810000D02*
X149720000Y-131810000D01*
X148270000Y-117110000D02*
X149720000Y-117110000D01*
X144920000Y-117110000D02*
X146370000Y-117110000D01*
D11*
X147561420Y-132760000D02*
G75*
G03*
X147561420Y-132760000I-141420J0D01*
G01*
D16*
X138824000Y-131810000D02*
X138824000Y-117110000D01*
X143624000Y-117110000D02*
X143624000Y-131810000D01*
X138824000Y-131810000D02*
X140274000Y-131810000D01*
X142174000Y-131810000D02*
X143624000Y-131810000D01*
X142174000Y-117110000D02*
X143624000Y-117110000D01*
X138824000Y-117110000D02*
X140274000Y-117110000D01*
D11*
X141465420Y-132760000D02*
G75*
G03*
X141465420Y-132760000I-141420J0D01*
G01*
D16*
X132982000Y-131810000D02*
X132982000Y-117110000D01*
X137782000Y-117110000D02*
X137782000Y-131810000D01*
X132982000Y-131810000D02*
X134432000Y-131810000D01*
X136332000Y-131810000D02*
X137782000Y-131810000D01*
X136332000Y-117110000D02*
X137782000Y-117110000D01*
X132982000Y-117110000D02*
X134432000Y-117110000D01*
D11*
X135623420Y-132760000D02*
G75*
G03*
X135623420Y-132760000I-141420J0D01*
G01*
D13*
X142220000Y-105622000D02*
X142220000Y-113092000D01*
X142220000Y-113092000D02*
X154340000Y-113092000D01*
X154340000Y-113092000D02*
X154340000Y-105622000D01*
X154340000Y-105622000D02*
X142220000Y-105622000D01*
X144030000Y-112232000D02*
X143280000Y-112232000D01*
X143280000Y-112232000D02*
X143280000Y-107932000D01*
X143280000Y-107932000D02*
X144030000Y-107932000D01*
X144030000Y-107932000D02*
X144030000Y-107582000D01*
X144030000Y-107582000D02*
X143530000Y-107582000D01*
X143530000Y-107582000D02*
X143280000Y-106582000D01*
X143280000Y-106582000D02*
X146280000Y-106582000D01*
X146280000Y-106582000D02*
X146030000Y-107582000D01*
X146030000Y-107582000D02*
X145530000Y-107582000D01*
X145530000Y-107582000D02*
X145530000Y-107932000D01*
X145530000Y-107932000D02*
X146280000Y-107932000D01*
X146280000Y-107932000D02*
X146280000Y-112232000D01*
X146280000Y-112232000D02*
X145530000Y-112232000D01*
X147530000Y-112232000D02*
X146780000Y-112232000D01*
X146780000Y-112232000D02*
X146780000Y-107932000D01*
X146780000Y-107932000D02*
X147530000Y-107932000D01*
X147530000Y-107932000D02*
X147530000Y-107582000D01*
X147530000Y-107582000D02*
X147030000Y-107582000D01*
X147030000Y-107582000D02*
X146780000Y-106582000D01*
X146780000Y-106582000D02*
X149780000Y-106582000D01*
X149780000Y-106582000D02*
X149530000Y-107582000D01*
X149530000Y-107582000D02*
X149030000Y-107582000D01*
X149030000Y-107582000D02*
X149030000Y-107932000D01*
X149030000Y-107932000D02*
X149780000Y-107932000D01*
X149780000Y-107932000D02*
X149780000Y-112232000D01*
X149780000Y-112232000D02*
X149030000Y-112232000D01*
X151030000Y-112232000D02*
X150280000Y-112232000D01*
X150280000Y-112232000D02*
X150280000Y-107932000D01*
X150280000Y-107932000D02*
X151030000Y-107932000D01*
X151030000Y-107932000D02*
X151030000Y-107582000D01*
X151030000Y-107582000D02*
X150530000Y-107582000D01*
X150530000Y-107582000D02*
X150280000Y-106582000D01*
X150280000Y-106582000D02*
X153280000Y-106582000D01*
X153280000Y-106582000D02*
X153030000Y-107582000D01*
X153030000Y-107582000D02*
X152530000Y-107582000D01*
X152530000Y-107582000D02*
X152530000Y-107932000D01*
X152530000Y-107932000D02*
X153280000Y-107932000D01*
X153280000Y-107932000D02*
X153280000Y-112232000D01*
X153280000Y-112232000D02*
X152530000Y-112232000D01*
X141830000Y-106482000D02*
X141830000Y-105232000D01*
X141830000Y-105232000D02*
X143830000Y-105232000D01*
X152529647Y-112231845D02*
G75*
G03*
X151030000Y-112232000I-749647J-1700155D01*
G01*
X149029647Y-112231845D02*
G75*
G03*
X147530000Y-112232000I-749647J-1700155D01*
G01*
X145529647Y-112231845D02*
G75*
G03*
X144030000Y-112232000I-749647J-1700155D01*
G01*
X142220000Y-93176000D02*
X142220000Y-100646000D01*
X142220000Y-100646000D02*
X154340000Y-100646000D01*
X154340000Y-100646000D02*
X154340000Y-93176000D01*
X154340000Y-93176000D02*
X142220000Y-93176000D01*
X144030000Y-99786000D02*
X143280000Y-99786000D01*
X143280000Y-99786000D02*
X143280000Y-95486000D01*
X143280000Y-95486000D02*
X144030000Y-95486000D01*
X144030000Y-95486000D02*
X144030000Y-95136000D01*
X144030000Y-95136000D02*
X143530000Y-95136000D01*
X143530000Y-95136000D02*
X143280000Y-94136000D01*
X143280000Y-94136000D02*
X146280000Y-94136000D01*
X146280000Y-94136000D02*
X146030000Y-95136000D01*
X146030000Y-95136000D02*
X145530000Y-95136000D01*
X145530000Y-95136000D02*
X145530000Y-95486000D01*
X145530000Y-95486000D02*
X146280000Y-95486000D01*
X146280000Y-95486000D02*
X146280000Y-99786000D01*
X146280000Y-99786000D02*
X145530000Y-99786000D01*
X147530000Y-99786000D02*
X146780000Y-99786000D01*
X146780000Y-99786000D02*
X146780000Y-95486000D01*
X146780000Y-95486000D02*
X147530000Y-95486000D01*
X147530000Y-95486000D02*
X147530000Y-95136000D01*
X147530000Y-95136000D02*
X147030000Y-95136000D01*
X147030000Y-95136000D02*
X146780000Y-94136000D01*
X146780000Y-94136000D02*
X149780000Y-94136000D01*
X149780000Y-94136000D02*
X149530000Y-95136000D01*
X149530000Y-95136000D02*
X149030000Y-95136000D01*
X149030000Y-95136000D02*
X149030000Y-95486000D01*
X149030000Y-95486000D02*
X149780000Y-95486000D01*
X149780000Y-95486000D02*
X149780000Y-99786000D01*
X149780000Y-99786000D02*
X149030000Y-99786000D01*
X151030000Y-99786000D02*
X150280000Y-99786000D01*
X150280000Y-99786000D02*
X150280000Y-95486000D01*
X150280000Y-95486000D02*
X151030000Y-95486000D01*
X151030000Y-95486000D02*
X151030000Y-95136000D01*
X151030000Y-95136000D02*
X150530000Y-95136000D01*
X150530000Y-95136000D02*
X150280000Y-94136000D01*
X150280000Y-94136000D02*
X153280000Y-94136000D01*
X153280000Y-94136000D02*
X153030000Y-95136000D01*
X153030000Y-95136000D02*
X152530000Y-95136000D01*
X152530000Y-95136000D02*
X152530000Y-95486000D01*
X152530000Y-95486000D02*
X153280000Y-95486000D01*
X153280000Y-95486000D02*
X153280000Y-99786000D01*
X153280000Y-99786000D02*
X152530000Y-99786000D01*
X141830000Y-94036000D02*
X141830000Y-92786000D01*
X141830000Y-92786000D02*
X143830000Y-92786000D01*
X152529647Y-99785845D02*
G75*
G03*
X151030000Y-99786000I-749647J-1700155D01*
G01*
X149029647Y-99785845D02*
G75*
G03*
X147530000Y-99786000I-749647J-1700155D01*
G01*
X145529647Y-99785845D02*
G75*
G03*
X144030000Y-99786000I-749647J-1700155D01*
G01*
X127488000Y-93176000D02*
X127488000Y-100646000D01*
X127488000Y-100646000D02*
X139608000Y-100646000D01*
X139608000Y-100646000D02*
X139608000Y-93176000D01*
X139608000Y-93176000D02*
X127488000Y-93176000D01*
X129298000Y-99786000D02*
X128548000Y-99786000D01*
X128548000Y-99786000D02*
X128548000Y-95486000D01*
X128548000Y-95486000D02*
X129298000Y-95486000D01*
X129298000Y-95486000D02*
X129298000Y-95136000D01*
X129298000Y-95136000D02*
X128798000Y-95136000D01*
X128798000Y-95136000D02*
X128548000Y-94136000D01*
X128548000Y-94136000D02*
X131548000Y-94136000D01*
X131548000Y-94136000D02*
X131298000Y-95136000D01*
X131298000Y-95136000D02*
X130798000Y-95136000D01*
X130798000Y-95136000D02*
X130798000Y-95486000D01*
X130798000Y-95486000D02*
X131548000Y-95486000D01*
X131548000Y-95486000D02*
X131548000Y-99786000D01*
X131548000Y-99786000D02*
X130798000Y-99786000D01*
X132798000Y-99786000D02*
X132048000Y-99786000D01*
X132048000Y-99786000D02*
X132048000Y-95486000D01*
X132048000Y-95486000D02*
X132798000Y-95486000D01*
X132798000Y-95486000D02*
X132798000Y-95136000D01*
X132798000Y-95136000D02*
X132298000Y-95136000D01*
X132298000Y-95136000D02*
X132048000Y-94136000D01*
X132048000Y-94136000D02*
X135048000Y-94136000D01*
X135048000Y-94136000D02*
X134798000Y-95136000D01*
X134798000Y-95136000D02*
X134298000Y-95136000D01*
X134298000Y-95136000D02*
X134298000Y-95486000D01*
X134298000Y-95486000D02*
X135048000Y-95486000D01*
X135048000Y-95486000D02*
X135048000Y-99786000D01*
X135048000Y-99786000D02*
X134298000Y-99786000D01*
X136298000Y-99786000D02*
X135548000Y-99786000D01*
X135548000Y-99786000D02*
X135548000Y-95486000D01*
X135548000Y-95486000D02*
X136298000Y-95486000D01*
X136298000Y-95486000D02*
X136298000Y-95136000D01*
X136298000Y-95136000D02*
X135798000Y-95136000D01*
X135798000Y-95136000D02*
X135548000Y-94136000D01*
X135548000Y-94136000D02*
X138548000Y-94136000D01*
X138548000Y-94136000D02*
X138298000Y-95136000D01*
X138298000Y-95136000D02*
X137798000Y-95136000D01*
X137798000Y-95136000D02*
X137798000Y-95486000D01*
X137798000Y-95486000D02*
X138548000Y-95486000D01*
X138548000Y-95486000D02*
X138548000Y-99786000D01*
X138548000Y-99786000D02*
X137798000Y-99786000D01*
X127098000Y-94036000D02*
X127098000Y-92786000D01*
X127098000Y-92786000D02*
X129098000Y-92786000D01*
X137797647Y-99785845D02*
G75*
G03*
X136298000Y-99786000I-749647J-1700155D01*
G01*
X134297647Y-99785845D02*
G75*
G03*
X132798000Y-99786000I-749647J-1700155D01*
G01*
X130797647Y-99785845D02*
G75*
G03*
X129298000Y-99786000I-749647J-1700155D01*
G01*
X134700000Y-79232000D02*
G75*
G03*
X134700000Y-79232000I-2620000J0D01*
G01*
X133120000Y-79232000D02*
X134660000Y-79232000D01*
X129500000Y-79232000D02*
X131040000Y-79232000D01*
X133120000Y-79192000D02*
X134660000Y-79192000D01*
X129500000Y-79192000D02*
X131040000Y-79192000D01*
X129501000Y-79152000D02*
X131040000Y-79152000D01*
X133120000Y-79152000D02*
X134659000Y-79152000D01*
X129502000Y-79112000D02*
X131040000Y-79112000D01*
X133120000Y-79112000D02*
X134658000Y-79112000D01*
X129504000Y-79072000D02*
X131040000Y-79072000D01*
X133120000Y-79072000D02*
X134656000Y-79072000D01*
X129507000Y-79032000D02*
X131040000Y-79032000D01*
X133120000Y-79032000D02*
X134653000Y-79032000D01*
X129511000Y-78992000D02*
X131040000Y-78992000D01*
X133120000Y-78992000D02*
X134649000Y-78992000D01*
X129515000Y-78952000D02*
X131040000Y-78952000D01*
X133120000Y-78952000D02*
X134645000Y-78952000D01*
X129519000Y-78912000D02*
X131040000Y-78912000D01*
X133120000Y-78912000D02*
X134641000Y-78912000D01*
X129524000Y-78872000D02*
X131040000Y-78872000D01*
X133120000Y-78872000D02*
X134636000Y-78872000D01*
X129530000Y-78832000D02*
X131040000Y-78832000D01*
X133120000Y-78832000D02*
X134630000Y-78832000D01*
X129537000Y-78792000D02*
X131040000Y-78792000D01*
X133120000Y-78792000D02*
X134623000Y-78792000D01*
X129544000Y-78752000D02*
X131040000Y-78752000D01*
X133120000Y-78752000D02*
X134616000Y-78752000D01*
X129552000Y-78712000D02*
X131040000Y-78712000D01*
X133120000Y-78712000D02*
X134608000Y-78712000D01*
X129560000Y-78672000D02*
X131040000Y-78672000D01*
X133120000Y-78672000D02*
X134600000Y-78672000D01*
X129569000Y-78632000D02*
X131040000Y-78632000D01*
X133120000Y-78632000D02*
X134591000Y-78632000D01*
X129579000Y-78592000D02*
X131040000Y-78592000D01*
X133120000Y-78592000D02*
X134581000Y-78592000D01*
X129589000Y-78552000D02*
X131040000Y-78552000D01*
X133120000Y-78552000D02*
X134571000Y-78552000D01*
X129600000Y-78511000D02*
X131040000Y-78511000D01*
X133120000Y-78511000D02*
X134560000Y-78511000D01*
X129612000Y-78471000D02*
X131040000Y-78471000D01*
X133120000Y-78471000D02*
X134548000Y-78471000D01*
X129625000Y-78431000D02*
X131040000Y-78431000D01*
X133120000Y-78431000D02*
X134535000Y-78431000D01*
X129638000Y-78391000D02*
X131040000Y-78391000D01*
X133120000Y-78391000D02*
X134522000Y-78391000D01*
X129652000Y-78351000D02*
X131040000Y-78351000D01*
X133120000Y-78351000D02*
X134508000Y-78351000D01*
X129666000Y-78311000D02*
X131040000Y-78311000D01*
X133120000Y-78311000D02*
X134494000Y-78311000D01*
X129682000Y-78271000D02*
X131040000Y-78271000D01*
X133120000Y-78271000D02*
X134478000Y-78271000D01*
X129698000Y-78231000D02*
X131040000Y-78231000D01*
X133120000Y-78231000D02*
X134462000Y-78231000D01*
X129715000Y-78191000D02*
X131040000Y-78191000D01*
X133120000Y-78191000D02*
X134445000Y-78191000D01*
X129732000Y-78151000D02*
X131040000Y-78151000D01*
X133120000Y-78151000D02*
X134428000Y-78151000D01*
X129751000Y-78111000D02*
X131040000Y-78111000D01*
X133120000Y-78111000D02*
X134409000Y-78111000D01*
X129770000Y-78071000D02*
X131040000Y-78071000D01*
X133120000Y-78071000D02*
X134390000Y-78071000D01*
X129790000Y-78031000D02*
X131040000Y-78031000D01*
X133120000Y-78031000D02*
X134370000Y-78031000D01*
X129812000Y-77991000D02*
X131040000Y-77991000D01*
X133120000Y-77991000D02*
X134348000Y-77991000D01*
X129833000Y-77951000D02*
X131040000Y-77951000D01*
X133120000Y-77951000D02*
X134327000Y-77951000D01*
X129856000Y-77911000D02*
X131040000Y-77911000D01*
X133120000Y-77911000D02*
X134304000Y-77911000D01*
X129880000Y-77871000D02*
X131040000Y-77871000D01*
X133120000Y-77871000D02*
X134280000Y-77871000D01*
X129905000Y-77831000D02*
X131040000Y-77831000D01*
X133120000Y-77831000D02*
X134255000Y-77831000D01*
X129931000Y-77791000D02*
X131040000Y-77791000D01*
X133120000Y-77791000D02*
X134229000Y-77791000D01*
X129958000Y-77751000D02*
X131040000Y-77751000D01*
X133120000Y-77751000D02*
X134202000Y-77751000D01*
X129985000Y-77711000D02*
X131040000Y-77711000D01*
X133120000Y-77711000D02*
X134175000Y-77711000D01*
X130015000Y-77671000D02*
X131040000Y-77671000D01*
X133120000Y-77671000D02*
X134145000Y-77671000D01*
X130045000Y-77631000D02*
X131040000Y-77631000D01*
X133120000Y-77631000D02*
X134115000Y-77631000D01*
X130076000Y-77591000D02*
X131040000Y-77591000D01*
X133120000Y-77591000D02*
X134084000Y-77591000D01*
X130109000Y-77551000D02*
X131040000Y-77551000D01*
X133120000Y-77551000D02*
X134051000Y-77551000D01*
X130143000Y-77511000D02*
X131040000Y-77511000D01*
X133120000Y-77511000D02*
X134017000Y-77511000D01*
X130179000Y-77471000D02*
X131040000Y-77471000D01*
X133120000Y-77471000D02*
X133981000Y-77471000D01*
X130216000Y-77431000D02*
X131040000Y-77431000D01*
X133120000Y-77431000D02*
X133944000Y-77431000D01*
X130254000Y-77391000D02*
X131040000Y-77391000D01*
X133120000Y-77391000D02*
X133906000Y-77391000D01*
X130295000Y-77351000D02*
X131040000Y-77351000D01*
X133120000Y-77351000D02*
X133865000Y-77351000D01*
X130337000Y-77311000D02*
X131040000Y-77311000D01*
X133120000Y-77311000D02*
X133823000Y-77311000D01*
X130381000Y-77271000D02*
X131040000Y-77271000D01*
X133120000Y-77271000D02*
X133779000Y-77271000D01*
X130427000Y-77231000D02*
X131040000Y-77231000D01*
X133120000Y-77231000D02*
X133733000Y-77231000D01*
X130475000Y-77191000D02*
X133685000Y-77191000D01*
X130526000Y-77151000D02*
X133634000Y-77151000D01*
X130580000Y-77111000D02*
X133580000Y-77111000D01*
X130637000Y-77071000D02*
X133523000Y-77071000D01*
X130697000Y-77031000D02*
X133463000Y-77031000D01*
X130761000Y-76991000D02*
X133399000Y-76991000D01*
X130829000Y-76951000D02*
X133331000Y-76951000D01*
X130902000Y-76911000D02*
X133258000Y-76911000D01*
X130982000Y-76871000D02*
X133178000Y-76871000D01*
X131069000Y-76831000D02*
X133091000Y-76831000D01*
X131165000Y-76791000D02*
X132995000Y-76791000D01*
X131275000Y-76751000D02*
X132885000Y-76751000D01*
X131403000Y-76711000D02*
X132757000Y-76711000D01*
X131562000Y-76671000D02*
X132598000Y-76671000D01*
X131796000Y-76631000D02*
X132364000Y-76631000D01*
X130605000Y-82036775D02*
X130605000Y-81536775D01*
X130355000Y-81786775D02*
X130855000Y-81786775D01*
D18*
X192256333Y-117637238D02*
X193272333Y-117637238D01*
X192764333Y-119669238D02*
X192764333Y-117637238D01*
X194457666Y-118604857D02*
X194711666Y-118701619D01*
X194796333Y-118798380D01*
X194881000Y-118991904D01*
X194881000Y-119282190D01*
X194796333Y-119475714D01*
X194711666Y-119572476D01*
X194542333Y-119669238D01*
X193865000Y-119669238D01*
X193865000Y-117637238D01*
X194457666Y-117637238D01*
X194627000Y-117734000D01*
X194711666Y-117830761D01*
X194796333Y-118024285D01*
X194796333Y-118217809D01*
X194711666Y-118411333D01*
X194627000Y-118508095D01*
X194457666Y-118604857D01*
X193865000Y-118604857D01*
X196574333Y-119669238D02*
X195558333Y-119669238D01*
X196066333Y-119669238D02*
X196066333Y-117637238D01*
X195897000Y-117927523D01*
X195727666Y-118121047D01*
X195558333Y-118217809D01*
D11*
X176678571Y-116178571D02*
X176678571Y-114678571D01*
X177250000Y-114678571D01*
X177392857Y-114750000D01*
X177464285Y-114821428D01*
X177535714Y-114964285D01*
X177535714Y-115178571D01*
X177464285Y-115321428D01*
X177392857Y-115392857D01*
X177250000Y-115464285D01*
X176678571Y-115464285D01*
X178392857Y-116178571D02*
X178250000Y-116107142D01*
X178178571Y-116035714D01*
X178107142Y-115892857D01*
X178107142Y-115464285D01*
X178178571Y-115321428D01*
X178250000Y-115250000D01*
X178392857Y-115178571D01*
X178607142Y-115178571D01*
X178750000Y-115250000D01*
X178821428Y-115321428D01*
X178892857Y-115464285D01*
X178892857Y-115892857D01*
X178821428Y-116035714D01*
X178750000Y-116107142D01*
X178607142Y-116178571D01*
X178392857Y-116178571D01*
X179392857Y-115178571D02*
X179678571Y-116178571D01*
X179964285Y-115464285D01*
X180250000Y-116178571D01*
X180535714Y-115178571D01*
X181678571Y-116107142D02*
X181535714Y-116178571D01*
X181250000Y-116178571D01*
X181107142Y-116107142D01*
X181035714Y-115964285D01*
X181035714Y-115392857D01*
X181107142Y-115250000D01*
X181250000Y-115178571D01*
X181535714Y-115178571D01*
X181678571Y-115250000D01*
X181750000Y-115392857D01*
X181750000Y-115535714D01*
X181035714Y-115678571D01*
X182392857Y-116178571D02*
X182392857Y-115178571D01*
X182392857Y-115464285D02*
X182464285Y-115321428D01*
X182535714Y-115250000D01*
X182678571Y-115178571D01*
X182821428Y-115178571D01*
X182964285Y-116321428D02*
X184107142Y-116321428D01*
X184464285Y-116178571D02*
X184464285Y-114678571D01*
X185178571Y-115178571D02*
X185178571Y-116178571D01*
X185178571Y-115321428D02*
X185250000Y-115250000D01*
X185392857Y-115178571D01*
X185607142Y-115178571D01*
X185750000Y-115250000D01*
X185821428Y-115392857D01*
X185821428Y-116178571D01*
D12*
X156690476Y-63702380D02*
X156690476Y-62702380D01*
X157023809Y-63416666D01*
X157357142Y-62702380D01*
X157357142Y-63702380D01*
X158357142Y-63702380D02*
X157785714Y-63702380D01*
X158071428Y-63702380D02*
X158071428Y-62702380D01*
X157976190Y-62845238D01*
X157880952Y-62940476D01*
X157785714Y-62988095D01*
X139220000Y-53851904D02*
X139172380Y-53947142D01*
X139172380Y-54090000D01*
X139220000Y-54232857D01*
X139315238Y-54328095D01*
X139410476Y-54375714D01*
X139600952Y-54423333D01*
X139743809Y-54423333D01*
X139934285Y-54375714D01*
X140029523Y-54328095D01*
X140124761Y-54232857D01*
X140172380Y-54090000D01*
X140172380Y-53994761D01*
X140124761Y-53851904D01*
X140077142Y-53804285D01*
X139743809Y-53804285D01*
X139743809Y-53994761D01*
X140172380Y-53375714D02*
X139172380Y-53375714D01*
X140172380Y-52804285D01*
X139172380Y-52804285D01*
X140172380Y-52328095D02*
X139172380Y-52328095D01*
X139172380Y-52090000D01*
X139220000Y-51947142D01*
X139315238Y-51851904D01*
X139410476Y-51804285D01*
X139600952Y-51756666D01*
X139743809Y-51756666D01*
X139934285Y-51804285D01*
X140029523Y-51851904D01*
X140124761Y-51947142D01*
X140172380Y-52090000D01*
X140172380Y-52328095D01*
X141807619Y-53851904D02*
X141760000Y-53804285D01*
X141712380Y-53709047D01*
X141712380Y-53470952D01*
X141760000Y-53375714D01*
X141807619Y-53328095D01*
X141902857Y-53280476D01*
X141998095Y-53280476D01*
X142140952Y-53328095D01*
X142712380Y-53899523D01*
X142712380Y-53280476D01*
X141712380Y-52947142D02*
X141712380Y-52328095D01*
X142093333Y-52661428D01*
X142093333Y-52518571D01*
X142140952Y-52423333D01*
X142188571Y-52375714D01*
X142283809Y-52328095D01*
X142521904Y-52328095D01*
X142617142Y-52375714D01*
X142664761Y-52423333D01*
X142712380Y-52518571D01*
X142712380Y-52804285D01*
X142664761Y-52899523D01*
X142617142Y-52947142D01*
X144347619Y-53851904D02*
X144300000Y-53804285D01*
X144252380Y-53709047D01*
X144252380Y-53470952D01*
X144300000Y-53375714D01*
X144347619Y-53328095D01*
X144442857Y-53280476D01*
X144538095Y-53280476D01*
X144680952Y-53328095D01*
X145252380Y-53899523D01*
X145252380Y-53280476D01*
X144347619Y-52899523D02*
X144300000Y-52851904D01*
X144252380Y-52756666D01*
X144252380Y-52518571D01*
X144300000Y-52423333D01*
X144347619Y-52375714D01*
X144442857Y-52328095D01*
X144538095Y-52328095D01*
X144680952Y-52375714D01*
X145252380Y-52947142D01*
X145252380Y-52328095D01*
X146792380Y-53851904D02*
X146792380Y-53280476D01*
X147792380Y-53566190D02*
X146792380Y-53566190D01*
X146792380Y-53042380D02*
X147792380Y-52375714D01*
X146792380Y-52375714D02*
X147792380Y-53042380D01*
X150332380Y-53256666D02*
X149856190Y-53590000D01*
X150332380Y-53828095D02*
X149332380Y-53828095D01*
X149332380Y-53447142D01*
X149380000Y-53351904D01*
X149427619Y-53304285D01*
X149522857Y-53256666D01*
X149665714Y-53256666D01*
X149760952Y-53304285D01*
X149808571Y-53351904D01*
X149856190Y-53447142D01*
X149856190Y-53828095D01*
X149332380Y-52923333D02*
X150332380Y-52256666D01*
X149332380Y-52256666D02*
X150332380Y-52923333D01*
X151967619Y-53851904D02*
X151920000Y-53804285D01*
X151872380Y-53709047D01*
X151872380Y-53470952D01*
X151920000Y-53375714D01*
X151967619Y-53328095D01*
X152062857Y-53280476D01*
X152158095Y-53280476D01*
X152300952Y-53328095D01*
X152872380Y-53899523D01*
X152872380Y-53280476D01*
X152872380Y-52328095D02*
X152872380Y-52899523D01*
X152872380Y-52613809D02*
X151872380Y-52613809D01*
X152015238Y-52709047D01*
X152110476Y-52804285D01*
X152158095Y-52899523D01*
X155412380Y-53280476D02*
X155412380Y-53851904D01*
X155412380Y-53566190D02*
X154412380Y-53566190D01*
X154555238Y-53661428D01*
X154650476Y-53756666D01*
X154698095Y-53851904D01*
X155412380Y-52804285D02*
X155412380Y-52613809D01*
X155364761Y-52518571D01*
X155317142Y-52470952D01*
X155174285Y-52375714D01*
X154983809Y-52328095D01*
X154602857Y-52328095D01*
X154507619Y-52375714D01*
X154460000Y-52423333D01*
X154412380Y-52518571D01*
X154412380Y-52709047D01*
X154460000Y-52804285D01*
X154507619Y-52851904D01*
X154602857Y-52899523D01*
X154840952Y-52899523D01*
X154936190Y-52851904D01*
X154983809Y-52804285D01*
X155031428Y-52709047D01*
X155031428Y-52518571D01*
X154983809Y-52423333D01*
X154936190Y-52375714D01*
X154840952Y-52328095D01*
X157952380Y-53280476D02*
X157952380Y-53851904D01*
X157952380Y-53566190D02*
X156952380Y-53566190D01*
X157095238Y-53661428D01*
X157190476Y-53756666D01*
X157238095Y-53851904D01*
X157380952Y-52709047D02*
X157333333Y-52804285D01*
X157285714Y-52851904D01*
X157190476Y-52899523D01*
X157142857Y-52899523D01*
X157047619Y-52851904D01*
X157000000Y-52804285D01*
X156952380Y-52709047D01*
X156952380Y-52518571D01*
X157000000Y-52423333D01*
X157047619Y-52375714D01*
X157142857Y-52328095D01*
X157190476Y-52328095D01*
X157285714Y-52375714D01*
X157333333Y-52423333D01*
X157380952Y-52518571D01*
X157380952Y-52709047D01*
X157428571Y-52804285D01*
X157476190Y-52851904D01*
X157571428Y-52899523D01*
X157761904Y-52899523D01*
X157857142Y-52851904D01*
X157904761Y-52804285D01*
X157952380Y-52709047D01*
X157952380Y-52518571D01*
X157904761Y-52423333D01*
X157857142Y-52375714D01*
X157761904Y-52328095D01*
X157571428Y-52328095D01*
X157476190Y-52375714D01*
X157428571Y-52423333D01*
X157380952Y-52518571D01*
X159492380Y-52851904D02*
X159492380Y-53328095D01*
X159968571Y-53375714D01*
X159920952Y-53328095D01*
X159873333Y-53232857D01*
X159873333Y-52994761D01*
X159920952Y-52899523D01*
X159968571Y-52851904D01*
X160063809Y-52804285D01*
X160301904Y-52804285D01*
X160397142Y-52851904D01*
X160444761Y-52899523D01*
X160492380Y-52994761D01*
X160492380Y-53232857D01*
X160444761Y-53328095D01*
X160397142Y-53375714D01*
X163032380Y-53280476D02*
X163032380Y-53851904D01*
X163032380Y-53566190D02*
X162032380Y-53566190D01*
X162175238Y-53661428D01*
X162270476Y-53756666D01*
X162318095Y-53851904D01*
X162032380Y-52947142D02*
X162032380Y-52280476D01*
X163032380Y-52709047D01*
X165572380Y-53280476D02*
X165572380Y-53851904D01*
X165572380Y-53566190D02*
X164572380Y-53566190D01*
X164715238Y-53661428D01*
X164810476Y-53756666D01*
X164858095Y-53851904D01*
X164572380Y-52423333D02*
X164572380Y-52613809D01*
X164620000Y-52709047D01*
X164667619Y-52756666D01*
X164810476Y-52851904D01*
X165000952Y-52899523D01*
X165381904Y-52899523D01*
X165477142Y-52851904D01*
X165524761Y-52804285D01*
X165572380Y-52709047D01*
X165572380Y-52518571D01*
X165524761Y-52423333D01*
X165477142Y-52375714D01*
X165381904Y-52328095D01*
X165143809Y-52328095D01*
X165048571Y-52375714D01*
X165000952Y-52423333D01*
X164953333Y-52518571D01*
X164953333Y-52709047D01*
X165000952Y-52804285D01*
X165048571Y-52851904D01*
X165143809Y-52899523D01*
X167445714Y-52899523D02*
X168112380Y-52899523D01*
X167064761Y-53137619D02*
X167779047Y-53375714D01*
X167779047Y-52756666D01*
X169652380Y-53137619D02*
X169652380Y-53042380D01*
X169700000Y-52947142D01*
X169747619Y-52899523D01*
X169842857Y-52851904D01*
X170033333Y-52804285D01*
X170271428Y-52804285D01*
X170461904Y-52851904D01*
X170557142Y-52899523D01*
X170604761Y-52947142D01*
X170652380Y-53042380D01*
X170652380Y-53137619D01*
X170604761Y-53232857D01*
X170557142Y-53280476D01*
X170461904Y-53328095D01*
X170271428Y-53375714D01*
X170033333Y-53375714D01*
X169842857Y-53328095D01*
X169747619Y-53280476D01*
X169700000Y-53232857D01*
X169652380Y-53137619D01*
X173192380Y-52804285D02*
X173240000Y-52851904D01*
X173287619Y-52947142D01*
X173287619Y-53185238D01*
X173240000Y-53280476D01*
X173192380Y-53328095D01*
X173097142Y-53375714D01*
X173001904Y-53375714D01*
X172859047Y-53328095D01*
X172287619Y-52756666D01*
X172287619Y-53375714D01*
X175732380Y-53280476D02*
X175732380Y-53851904D01*
X175732380Y-53566190D02*
X174732380Y-53566190D01*
X174875238Y-53661428D01*
X174970476Y-53756666D01*
X175018095Y-53851904D01*
X174732380Y-52375714D02*
X174732380Y-52851904D01*
X175208571Y-52899523D01*
X175160952Y-52851904D01*
X175113333Y-52756666D01*
X175113333Y-52518571D01*
X175160952Y-52423333D01*
X175208571Y-52375714D01*
X175303809Y-52328095D01*
X175541904Y-52328095D01*
X175637142Y-52375714D01*
X175684761Y-52423333D01*
X175732380Y-52518571D01*
X175732380Y-52756666D01*
X175684761Y-52851904D01*
X175637142Y-52899523D01*
X177320000Y-53851904D02*
X177272380Y-53947142D01*
X177272380Y-54090000D01*
X177320000Y-54232857D01*
X177415238Y-54328095D01*
X177510476Y-54375714D01*
X177700952Y-54423333D01*
X177843809Y-54423333D01*
X178034285Y-54375714D01*
X178129523Y-54328095D01*
X178224761Y-54232857D01*
X178272380Y-54090000D01*
X178272380Y-53994761D01*
X178224761Y-53851904D01*
X178177142Y-53804285D01*
X177843809Y-53804285D01*
X177843809Y-53994761D01*
X178272380Y-53375714D02*
X177272380Y-53375714D01*
X178272380Y-52804285D01*
X177272380Y-52804285D01*
X178272380Y-52328095D02*
X177272380Y-52328095D01*
X177272380Y-52090000D01*
X177320000Y-51947142D01*
X177415238Y-51851904D01*
X177510476Y-51804285D01*
X177700952Y-51756666D01*
X177843809Y-51756666D01*
X178034285Y-51804285D01*
X178129523Y-51851904D01*
X178224761Y-51947142D01*
X178272380Y-52090000D01*
X178272380Y-52328095D01*
X139172380Y-71631904D02*
X139172380Y-71012857D01*
X139553333Y-71346190D01*
X139553333Y-71203333D01*
X139600952Y-71108095D01*
X139648571Y-71060476D01*
X139743809Y-71012857D01*
X139981904Y-71012857D01*
X140077142Y-71060476D01*
X140124761Y-71108095D01*
X140172380Y-71203333D01*
X140172380Y-71489047D01*
X140124761Y-71584285D01*
X140077142Y-71631904D01*
X139172380Y-70727142D02*
X140172380Y-70393809D01*
X139172380Y-70060476D01*
X142712380Y-71036666D02*
X142236190Y-71370000D01*
X142712380Y-71608095D02*
X141712380Y-71608095D01*
X141712380Y-71227142D01*
X141760000Y-71131904D01*
X141807619Y-71084285D01*
X141902857Y-71036666D01*
X142045714Y-71036666D01*
X142140952Y-71084285D01*
X142188571Y-71131904D01*
X142236190Y-71227142D01*
X142236190Y-71608095D01*
X142664761Y-70655714D02*
X142712380Y-70512857D01*
X142712380Y-70274761D01*
X142664761Y-70179523D01*
X142617142Y-70131904D01*
X142521904Y-70084285D01*
X142426666Y-70084285D01*
X142331428Y-70131904D01*
X142283809Y-70179523D01*
X142236190Y-70274761D01*
X142188571Y-70465238D01*
X142140952Y-70560476D01*
X142093333Y-70608095D01*
X141998095Y-70655714D01*
X141902857Y-70655714D01*
X141807619Y-70608095D01*
X141760000Y-70560476D01*
X141712380Y-70465238D01*
X141712380Y-70227142D01*
X141760000Y-70084285D01*
X144252380Y-71703333D02*
X145252380Y-71370000D01*
X144252380Y-71036666D01*
X145252380Y-70703333D02*
X144252380Y-70703333D01*
X144252380Y-70322380D01*
X144300000Y-70227142D01*
X144347619Y-70179523D01*
X144442857Y-70131904D01*
X144585714Y-70131904D01*
X144680952Y-70179523D01*
X144728571Y-70227142D01*
X144776190Y-70322380D01*
X144776190Y-70703333D01*
X146792380Y-71727142D02*
X147792380Y-71393809D01*
X146792380Y-71060476D01*
X147792380Y-70727142D02*
X146792380Y-70727142D01*
X147792380Y-70155714D01*
X146792380Y-70155714D01*
X149332380Y-71679523D02*
X149332380Y-71060476D01*
X149713333Y-71393809D01*
X149713333Y-71250952D01*
X149760952Y-71155714D01*
X149808571Y-71108095D01*
X149903809Y-71060476D01*
X150141904Y-71060476D01*
X150237142Y-71108095D01*
X150284761Y-71155714D01*
X150332380Y-71250952D01*
X150332380Y-71536666D01*
X150284761Y-71631904D01*
X150237142Y-71679523D01*
X149665714Y-70203333D02*
X150332380Y-70203333D01*
X149284761Y-70441428D02*
X149999047Y-70679523D01*
X149999047Y-70060476D01*
X151872380Y-71679523D02*
X151872380Y-71060476D01*
X152253333Y-71393809D01*
X152253333Y-71250952D01*
X152300952Y-71155714D01*
X152348571Y-71108095D01*
X152443809Y-71060476D01*
X152681904Y-71060476D01*
X152777142Y-71108095D01*
X152824761Y-71155714D01*
X152872380Y-71250952D01*
X152872380Y-71536666D01*
X152824761Y-71631904D01*
X152777142Y-71679523D01*
X151967619Y-70679523D02*
X151920000Y-70631904D01*
X151872380Y-70536666D01*
X151872380Y-70298571D01*
X151920000Y-70203333D01*
X151967619Y-70155714D01*
X152062857Y-70108095D01*
X152158095Y-70108095D01*
X152300952Y-70155714D01*
X152872380Y-70727142D01*
X152872380Y-70108095D01*
X154412380Y-71679523D02*
X154412380Y-71060476D01*
X154793333Y-71393809D01*
X154793333Y-71250952D01*
X154840952Y-71155714D01*
X154888571Y-71108095D01*
X154983809Y-71060476D01*
X155221904Y-71060476D01*
X155317142Y-71108095D01*
X155364761Y-71155714D01*
X155412380Y-71250952D01*
X155412380Y-71536666D01*
X155364761Y-71631904D01*
X155317142Y-71679523D01*
X154412380Y-70727142D02*
X154412380Y-70108095D01*
X154793333Y-70441428D01*
X154793333Y-70298571D01*
X154840952Y-70203333D01*
X154888571Y-70155714D01*
X154983809Y-70108095D01*
X155221904Y-70108095D01*
X155317142Y-70155714D01*
X155364761Y-70203333D01*
X155412380Y-70298571D01*
X155412380Y-70584285D01*
X155364761Y-70679523D01*
X155317142Y-70727142D01*
X157047619Y-71631904D02*
X157000000Y-71584285D01*
X156952380Y-71489047D01*
X156952380Y-71250952D01*
X157000000Y-71155714D01*
X157047619Y-71108095D01*
X157142857Y-71060476D01*
X157238095Y-71060476D01*
X157380952Y-71108095D01*
X157952380Y-71679523D01*
X157952380Y-71060476D01*
X156952380Y-70155714D02*
X156952380Y-70631904D01*
X157428571Y-70679523D01*
X157380952Y-70631904D01*
X157333333Y-70536666D01*
X157333333Y-70298571D01*
X157380952Y-70203333D01*
X157428571Y-70155714D01*
X157523809Y-70108095D01*
X157761904Y-70108095D01*
X157857142Y-70155714D01*
X157904761Y-70203333D01*
X157952380Y-70298571D01*
X157952380Y-70536666D01*
X157904761Y-70631904D01*
X157857142Y-70679523D01*
X159587619Y-71631904D02*
X159540000Y-71584285D01*
X159492380Y-71489047D01*
X159492380Y-71250952D01*
X159540000Y-71155714D01*
X159587619Y-71108095D01*
X159682857Y-71060476D01*
X159778095Y-71060476D01*
X159920952Y-71108095D01*
X160492380Y-71679523D01*
X160492380Y-71060476D01*
X159492380Y-70203333D02*
X159492380Y-70393809D01*
X159540000Y-70489047D01*
X159587619Y-70536666D01*
X159730476Y-70631904D01*
X159920952Y-70679523D01*
X160301904Y-70679523D01*
X160397142Y-70631904D01*
X160444761Y-70584285D01*
X160492380Y-70489047D01*
X160492380Y-70298571D01*
X160444761Y-70203333D01*
X160397142Y-70155714D01*
X160301904Y-70108095D01*
X160063809Y-70108095D01*
X159968571Y-70155714D01*
X159920952Y-70203333D01*
X159873333Y-70298571D01*
X159873333Y-70489047D01*
X159920952Y-70584285D01*
X159968571Y-70631904D01*
X160063809Y-70679523D01*
X162127619Y-71631904D02*
X162080000Y-71584285D01*
X162032380Y-71489047D01*
X162032380Y-71250952D01*
X162080000Y-71155714D01*
X162127619Y-71108095D01*
X162222857Y-71060476D01*
X162318095Y-71060476D01*
X162460952Y-71108095D01*
X163032380Y-71679523D01*
X163032380Y-71060476D01*
X162032380Y-70727142D02*
X162032380Y-70060476D01*
X163032380Y-70489047D01*
X165572380Y-71060476D02*
X165572380Y-71631904D01*
X165572380Y-71346190D02*
X164572380Y-71346190D01*
X164715238Y-71441428D01*
X164810476Y-71536666D01*
X164858095Y-71631904D01*
X164905714Y-70203333D02*
X165572380Y-70203333D01*
X164524761Y-70441428D02*
X165239047Y-70679523D01*
X165239047Y-70060476D01*
X168112380Y-71060476D02*
X168112380Y-71631904D01*
X168112380Y-71346190D02*
X167112380Y-71346190D01*
X167255238Y-71441428D01*
X167350476Y-71536666D01*
X167398095Y-71631904D01*
X167207619Y-70679523D02*
X167160000Y-70631904D01*
X167112380Y-70536666D01*
X167112380Y-70298571D01*
X167160000Y-70203333D01*
X167207619Y-70155714D01*
X167302857Y-70108095D01*
X167398095Y-70108095D01*
X167540952Y-70155714D01*
X168112380Y-70727142D01*
X168112380Y-70108095D01*
X170652380Y-71060476D02*
X170652380Y-71631904D01*
X170652380Y-71346190D02*
X169652380Y-71346190D01*
X169795238Y-71441428D01*
X169890476Y-71536666D01*
X169938095Y-71631904D01*
X169652380Y-70727142D02*
X169652380Y-70108095D01*
X170033333Y-70441428D01*
X170033333Y-70298571D01*
X170080952Y-70203333D01*
X170128571Y-70155714D01*
X170223809Y-70108095D01*
X170461904Y-70108095D01*
X170557142Y-70155714D01*
X170604761Y-70203333D01*
X170652380Y-70298571D01*
X170652380Y-70584285D01*
X170604761Y-70679523D01*
X170557142Y-70727142D01*
X172668571Y-71608095D02*
X172668571Y-71274761D01*
X173192380Y-71131904D02*
X173192380Y-71608095D01*
X172192380Y-71608095D01*
X172192380Y-71131904D01*
X173192380Y-70703333D02*
X172192380Y-70703333D01*
X173192380Y-70131904D01*
X172192380Y-70131904D01*
X174732380Y-72131904D02*
X175541904Y-72131904D01*
X175637142Y-72084285D01*
X175684761Y-72036666D01*
X175732380Y-71941428D01*
X175732380Y-71750952D01*
X175684761Y-71655714D01*
X175637142Y-71608095D01*
X175541904Y-71560476D01*
X174732380Y-71560476D01*
X175684761Y-71131904D02*
X175732380Y-70989047D01*
X175732380Y-70750952D01*
X175684761Y-70655714D01*
X175637142Y-70608095D01*
X175541904Y-70560476D01*
X175446666Y-70560476D01*
X175351428Y-70608095D01*
X175303809Y-70655714D01*
X175256190Y-70750952D01*
X175208571Y-70941428D01*
X175160952Y-71036666D01*
X175113333Y-71084285D01*
X175018095Y-71131904D01*
X174922857Y-71131904D01*
X174827619Y-71084285D01*
X174780000Y-71036666D01*
X174732380Y-70941428D01*
X174732380Y-70703333D01*
X174780000Y-70560476D01*
X175208571Y-69798571D02*
X175256190Y-69655714D01*
X175303809Y-69608095D01*
X175399047Y-69560476D01*
X175541904Y-69560476D01*
X175637142Y-69608095D01*
X175684761Y-69655714D01*
X175732380Y-69750952D01*
X175732380Y-70131904D01*
X174732380Y-70131904D01*
X174732380Y-69798571D01*
X174780000Y-69703333D01*
X174827619Y-69655714D01*
X174922857Y-69608095D01*
X175018095Y-69608095D01*
X175113333Y-69655714D01*
X175160952Y-69703333D01*
X175208571Y-69798571D01*
X175208571Y-70131904D01*
X177748571Y-71608095D02*
X177796190Y-71465238D01*
X177843809Y-71417619D01*
X177939047Y-71370000D01*
X178081904Y-71370000D01*
X178177142Y-71417619D01*
X178224761Y-71465238D01*
X178272380Y-71560476D01*
X178272380Y-71941428D01*
X177272380Y-71941428D01*
X177272380Y-71608095D01*
X177320000Y-71512857D01*
X177367619Y-71465238D01*
X177462857Y-71417619D01*
X177558095Y-71417619D01*
X177653333Y-71465238D01*
X177700952Y-71512857D01*
X177748571Y-71608095D01*
X177748571Y-71941428D01*
X177986666Y-70989047D02*
X177986666Y-70512857D01*
X178272380Y-71084285D02*
X177272380Y-70750952D01*
X178272380Y-70417619D01*
X177272380Y-70227142D02*
X177272380Y-69655714D01*
X178272380Y-69941428D02*
X177272380Y-69941428D01*
X120940476Y-87782380D02*
X120940476Y-88496666D01*
X120892857Y-88639523D01*
X120797619Y-88734761D01*
X120654761Y-88782380D01*
X120559523Y-88782380D01*
X121940476Y-88782380D02*
X121369047Y-88782380D01*
X121654761Y-88782380D02*
X121654761Y-87782380D01*
X121559523Y-87925238D01*
X121464285Y-88020476D01*
X121369047Y-88068095D01*
X122559523Y-87782380D02*
X122654761Y-87782380D01*
X122750000Y-87830000D01*
X122797619Y-87877619D01*
X122845238Y-87972857D01*
X122892857Y-88163333D01*
X122892857Y-88401428D01*
X122845238Y-88591904D01*
X122797619Y-88687142D01*
X122750000Y-88734761D01*
X122654761Y-88782380D01*
X122559523Y-88782380D01*
X122464285Y-88734761D01*
X122416666Y-88687142D01*
X122369047Y-88591904D01*
X122321428Y-88401428D01*
X122321428Y-88163333D01*
X122369047Y-87972857D01*
X122416666Y-87877619D01*
X122464285Y-87830000D01*
X122559523Y-87782380D01*
X123902380Y-86630952D02*
X124902380Y-86297619D01*
X123902380Y-85964285D01*
X124902380Y-85488095D02*
X124854761Y-85583333D01*
X124807142Y-85630952D01*
X124711904Y-85678571D01*
X124426190Y-85678571D01*
X124330952Y-85630952D01*
X124283333Y-85583333D01*
X124235714Y-85488095D01*
X124235714Y-85345238D01*
X124283333Y-85250000D01*
X124330952Y-85202380D01*
X124426190Y-85154761D01*
X124711904Y-85154761D01*
X124807142Y-85202380D01*
X124854761Y-85250000D01*
X124902380Y-85345238D01*
X124902380Y-85488095D01*
X124902380Y-84583333D02*
X124854761Y-84678571D01*
X124759523Y-84726190D01*
X123902380Y-84726190D01*
X124235714Y-84345238D02*
X124235714Y-83964285D01*
X123902380Y-84202380D02*
X124759523Y-84202380D01*
X124854761Y-84154761D01*
X124902380Y-84059523D01*
X124902380Y-83964285D01*
X124997619Y-83869047D02*
X124997619Y-83107142D01*
X124854761Y-82916666D02*
X124902380Y-82773809D01*
X124902380Y-82535714D01*
X124854761Y-82440476D01*
X124807142Y-82392857D01*
X124711904Y-82345238D01*
X124616666Y-82345238D01*
X124521428Y-82392857D01*
X124473809Y-82440476D01*
X124426190Y-82535714D01*
X124378571Y-82726190D01*
X124330952Y-82821428D01*
X124283333Y-82869047D01*
X124188095Y-82916666D01*
X124092857Y-82916666D01*
X123997619Y-82869047D01*
X123950000Y-82821428D01*
X123902380Y-82726190D01*
X123902380Y-82488095D01*
X123950000Y-82345238D01*
X124854761Y-81535714D02*
X124902380Y-81630952D01*
X124902380Y-81821428D01*
X124854761Y-81916666D01*
X124759523Y-81964285D01*
X124378571Y-81964285D01*
X124283333Y-81916666D01*
X124235714Y-81821428D01*
X124235714Y-81630952D01*
X124283333Y-81535714D01*
X124378571Y-81488095D01*
X124473809Y-81488095D01*
X124569047Y-81964285D01*
X124902380Y-80916666D02*
X124854761Y-81011904D01*
X124759523Y-81059523D01*
X123902380Y-81059523D01*
X122174095Y-54056380D02*
X122174095Y-54865904D01*
X122221714Y-54961142D01*
X122269333Y-55008761D01*
X122364571Y-55056380D01*
X122555047Y-55056380D01*
X122650285Y-55008761D01*
X122697904Y-54961142D01*
X122745523Y-54865904D01*
X122745523Y-54056380D01*
X123174095Y-54151619D02*
X123221714Y-54104000D01*
X123316952Y-54056380D01*
X123555047Y-54056380D01*
X123650285Y-54104000D01*
X123697904Y-54151619D01*
X123745523Y-54246857D01*
X123745523Y-54342095D01*
X123697904Y-54484952D01*
X123126476Y-55056380D01*
X123745523Y-55056380D01*
X162678666Y-91908380D02*
X162678666Y-92622666D01*
X162631047Y-92765523D01*
X162535809Y-92860761D01*
X162392952Y-92908380D01*
X162297714Y-92908380D01*
X163631047Y-91908380D02*
X163154857Y-91908380D01*
X163107238Y-92384571D01*
X163154857Y-92336952D01*
X163250095Y-92289333D01*
X163488190Y-92289333D01*
X163583428Y-92336952D01*
X163631047Y-92384571D01*
X163678666Y-92479809D01*
X163678666Y-92717904D01*
X163631047Y-92813142D01*
X163583428Y-92860761D01*
X163488190Y-92908380D01*
X163250095Y-92908380D01*
X163154857Y-92860761D01*
X163107238Y-92813142D01*
X162790666Y-103984380D02*
X162790666Y-104698666D01*
X162743047Y-104841523D01*
X162647809Y-104936761D01*
X162504952Y-104984380D01*
X162409714Y-104984380D01*
X163695428Y-103984380D02*
X163504952Y-103984380D01*
X163409714Y-104032000D01*
X163362095Y-104079619D01*
X163266857Y-104222476D01*
X163219238Y-104412952D01*
X163219238Y-104793904D01*
X163266857Y-104889142D01*
X163314476Y-104936761D01*
X163409714Y-104984380D01*
X163600190Y-104984380D01*
X163695428Y-104936761D01*
X163743047Y-104889142D01*
X163790666Y-104793904D01*
X163790666Y-104555809D01*
X163743047Y-104460571D01*
X163695428Y-104412952D01*
X163600190Y-104365333D01*
X163409714Y-104365333D01*
X163314476Y-104412952D01*
X163266857Y-104460571D01*
X163219238Y-104555809D01*
X137483333Y-83002380D02*
X137150000Y-82526190D01*
X136911904Y-83002380D02*
X136911904Y-82002380D01*
X137292857Y-82002380D01*
X137388095Y-82050000D01*
X137435714Y-82097619D01*
X137483333Y-82192857D01*
X137483333Y-82335714D01*
X137435714Y-82430952D01*
X137388095Y-82478571D01*
X137292857Y-82526190D01*
X136911904Y-82526190D01*
X138435714Y-83002380D02*
X137864285Y-83002380D01*
X138150000Y-83002380D02*
X138150000Y-82002380D01*
X138054761Y-82145238D01*
X137959523Y-82240476D01*
X137864285Y-82288095D01*
X136564285Y-83402380D02*
X137183333Y-83402380D01*
X136850000Y-83783333D01*
X136992857Y-83783333D01*
X137088095Y-83830952D01*
X137135714Y-83878571D01*
X137183333Y-83973809D01*
X137183333Y-84211904D01*
X137135714Y-84307142D01*
X137088095Y-84354761D01*
X136992857Y-84402380D01*
X136707142Y-84402380D01*
X136611904Y-84354761D01*
X136564285Y-84307142D01*
X137516666Y-83402380D02*
X138135714Y-83402380D01*
X137802380Y-83783333D01*
X137945238Y-83783333D01*
X138040476Y-83830952D01*
X138088095Y-83878571D01*
X138135714Y-83973809D01*
X138135714Y-84211904D01*
X138088095Y-84307142D01*
X138040476Y-84354761D01*
X137945238Y-84402380D01*
X137659523Y-84402380D01*
X137564285Y-84354761D01*
X137516666Y-84307142D01*
X138754761Y-83402380D02*
X138850000Y-83402380D01*
X138945238Y-83450000D01*
X138992857Y-83497619D01*
X139040476Y-83592857D01*
X139088095Y-83783333D01*
X139088095Y-84021428D01*
X139040476Y-84211904D01*
X138992857Y-84307142D01*
X138945238Y-84354761D01*
X138850000Y-84402380D01*
X138754761Y-84402380D01*
X138659523Y-84354761D01*
X138611904Y-84307142D01*
X138564285Y-84211904D01*
X138516666Y-84021428D01*
X138516666Y-83783333D01*
X138564285Y-83592857D01*
X138611904Y-83497619D01*
X138659523Y-83450000D01*
X138754761Y-83402380D01*
X129055904Y-89518380D02*
X129055904Y-88518380D01*
X129294000Y-88518380D01*
X129436857Y-88566000D01*
X129532095Y-88661238D01*
X129579714Y-88756476D01*
X129627333Y-88946952D01*
X129627333Y-89089809D01*
X129579714Y-89280285D01*
X129532095Y-89375523D01*
X129436857Y-89470761D01*
X129294000Y-89518380D01*
X129055904Y-89518380D01*
X130579714Y-89518380D02*
X130008285Y-89518380D01*
X130294000Y-89518380D02*
X130294000Y-88518380D01*
X130198761Y-88661238D01*
X130103523Y-88756476D01*
X130008285Y-88804095D01*
X129222571Y-83598380D02*
X128889238Y-83122190D01*
X128651142Y-83598380D02*
X128651142Y-82598380D01*
X129032095Y-82598380D01*
X129127333Y-82646000D01*
X129174952Y-82693619D01*
X129222571Y-82788857D01*
X129222571Y-82931714D01*
X129174952Y-83026952D01*
X129127333Y-83074571D01*
X129032095Y-83122190D01*
X128651142Y-83122190D01*
X130032095Y-83550761D02*
X129936857Y-83598380D01*
X129746380Y-83598380D01*
X129651142Y-83550761D01*
X129603523Y-83455523D01*
X129603523Y-83074571D01*
X129651142Y-82979333D01*
X129746380Y-82931714D01*
X129936857Y-82931714D01*
X130032095Y-82979333D01*
X130079714Y-83074571D01*
X130079714Y-83169809D01*
X129603523Y-83265047D01*
X130936857Y-83598380D02*
X130936857Y-82598380D01*
X130936857Y-83550761D02*
X130841619Y-83598380D01*
X130651142Y-83598380D01*
X130555904Y-83550761D01*
X130508285Y-83503142D01*
X130460666Y-83407904D01*
X130460666Y-83122190D01*
X130508285Y-83026952D01*
X130555904Y-82979333D01*
X130651142Y-82931714D01*
X130841619Y-82931714D01*
X130936857Y-82979333D01*
X165425523Y-88476380D02*
X165092190Y-88000190D01*
X164854095Y-88476380D02*
X164854095Y-87476380D01*
X165235047Y-87476380D01*
X165330285Y-87524000D01*
X165377904Y-87571619D01*
X165425523Y-87666857D01*
X165425523Y-87809714D01*
X165377904Y-87904952D01*
X165330285Y-87952571D01*
X165235047Y-88000190D01*
X164854095Y-88000190D01*
X165854095Y-88476380D02*
X165854095Y-87476380D01*
X166425523Y-88476380D01*
X166425523Y-87476380D01*
X166854095Y-87571619D02*
X166901714Y-87524000D01*
X166996952Y-87476380D01*
X167235047Y-87476380D01*
X167330285Y-87524000D01*
X167377904Y-87571619D01*
X167425523Y-87666857D01*
X167425523Y-87762095D01*
X167377904Y-87904952D01*
X166806476Y-88476380D01*
X167425523Y-88476380D01*
X143835523Y-88476380D02*
X143502190Y-88000190D01*
X143264095Y-88476380D02*
X143264095Y-87476380D01*
X143645047Y-87476380D01*
X143740285Y-87524000D01*
X143787904Y-87571619D01*
X143835523Y-87666857D01*
X143835523Y-87809714D01*
X143787904Y-87904952D01*
X143740285Y-87952571D01*
X143645047Y-88000190D01*
X143264095Y-88000190D01*
X144264095Y-88476380D02*
X144264095Y-87476380D01*
X144835523Y-88476380D01*
X144835523Y-87476380D01*
X145835523Y-88476380D02*
X145264095Y-88476380D01*
X145549809Y-88476380D02*
X145549809Y-87476380D01*
X145454571Y-87619238D01*
X145359333Y-87714476D01*
X145264095Y-87762095D01*
X175483333Y-80707142D02*
X175435714Y-80754761D01*
X175292857Y-80802380D01*
X175197619Y-80802380D01*
X175054761Y-80754761D01*
X174959523Y-80659523D01*
X174911904Y-80564285D01*
X174864285Y-80373809D01*
X174864285Y-80230952D01*
X174911904Y-80040476D01*
X174959523Y-79945238D01*
X175054761Y-79850000D01*
X175197619Y-79802380D01*
X175292857Y-79802380D01*
X175435714Y-79850000D01*
X175483333Y-79897619D01*
X175816666Y-79802380D02*
X176435714Y-79802380D01*
X176102380Y-80183333D01*
X176245238Y-80183333D01*
X176340476Y-80230952D01*
X176388095Y-80278571D01*
X176435714Y-80373809D01*
X176435714Y-80611904D01*
X176388095Y-80707142D01*
X176340476Y-80754761D01*
X176245238Y-80802380D01*
X175959523Y-80802380D01*
X175864285Y-80754761D01*
X175816666Y-80707142D01*
X175007142Y-81202380D02*
X175102380Y-81202380D01*
X175197619Y-81250000D01*
X175245238Y-81297619D01*
X175292857Y-81392857D01*
X175340476Y-81583333D01*
X175340476Y-81821428D01*
X175292857Y-82011904D01*
X175245238Y-82107142D01*
X175197619Y-82154761D01*
X175102380Y-82202380D01*
X175007142Y-82202380D01*
X174911904Y-82154761D01*
X174864285Y-82107142D01*
X174816666Y-82011904D01*
X174769047Y-81821428D01*
X174769047Y-81583333D01*
X174816666Y-81392857D01*
X174864285Y-81297619D01*
X174911904Y-81250000D01*
X175007142Y-81202380D01*
X175769047Y-82107142D02*
X175816666Y-82154761D01*
X175769047Y-82202380D01*
X175721428Y-82154761D01*
X175769047Y-82107142D01*
X175769047Y-82202380D01*
X176769047Y-82202380D02*
X176197619Y-82202380D01*
X176483333Y-82202380D02*
X176483333Y-81202380D01*
X176388095Y-81345238D01*
X176292857Y-81440476D01*
X176197619Y-81488095D01*
X177626190Y-81535714D02*
X177626190Y-82202380D01*
X177197619Y-81535714D02*
X177197619Y-82059523D01*
X177245238Y-82154761D01*
X177340476Y-82202380D01*
X177483333Y-82202380D01*
X177578571Y-82154761D01*
X177626190Y-82107142D01*
X178435714Y-81678571D02*
X178102380Y-81678571D01*
X178102380Y-82202380D02*
X178102380Y-81202380D01*
X178578571Y-81202380D01*
X122333333Y-99357142D02*
X122285714Y-99404761D01*
X122142857Y-99452380D01*
X122047619Y-99452380D01*
X121904761Y-99404761D01*
X121809523Y-99309523D01*
X121761904Y-99214285D01*
X121714285Y-99023809D01*
X121714285Y-98880952D01*
X121761904Y-98690476D01*
X121809523Y-98595238D01*
X121904761Y-98500000D01*
X122047619Y-98452380D01*
X122142857Y-98452380D01*
X122285714Y-98500000D01*
X122333333Y-98547619D01*
X123285714Y-99452380D02*
X122714285Y-99452380D01*
X123000000Y-99452380D02*
X123000000Y-98452380D01*
X122904761Y-98595238D01*
X122809523Y-98690476D01*
X122714285Y-98738095D01*
X120952380Y-100702380D02*
X120380952Y-100702380D01*
X120666666Y-100702380D02*
X120666666Y-99702380D01*
X120571428Y-99845238D01*
X120476190Y-99940476D01*
X120380952Y-99988095D01*
X121571428Y-99702380D02*
X121666666Y-99702380D01*
X121761904Y-99750000D01*
X121809523Y-99797619D01*
X121857142Y-99892857D01*
X121904761Y-100083333D01*
X121904761Y-100321428D01*
X121857142Y-100511904D01*
X121809523Y-100607142D01*
X121761904Y-100654761D01*
X121666666Y-100702380D01*
X121571428Y-100702380D01*
X121476190Y-100654761D01*
X121428571Y-100607142D01*
X121380952Y-100511904D01*
X121333333Y-100321428D01*
X121333333Y-100083333D01*
X121380952Y-99892857D01*
X121428571Y-99797619D01*
X121476190Y-99750000D01*
X121571428Y-99702380D01*
X122523809Y-99702380D02*
X122619047Y-99702380D01*
X122714285Y-99750000D01*
X122761904Y-99797619D01*
X122809523Y-99892857D01*
X122857142Y-100083333D01*
X122857142Y-100321428D01*
X122809523Y-100511904D01*
X122761904Y-100607142D01*
X122714285Y-100654761D01*
X122619047Y-100702380D01*
X122523809Y-100702380D01*
X122428571Y-100654761D01*
X122380952Y-100607142D01*
X122333333Y-100511904D01*
X122285714Y-100321428D01*
X122285714Y-100083333D01*
X122333333Y-99892857D01*
X122380952Y-99797619D01*
X122428571Y-99750000D01*
X122523809Y-99702380D01*
X123714285Y-100035714D02*
X123714285Y-100702380D01*
X123285714Y-100035714D02*
X123285714Y-100559523D01*
X123333333Y-100654761D01*
X123428571Y-100702380D01*
X123571428Y-100702380D01*
X123666666Y-100654761D01*
X123714285Y-100607142D01*
X124523809Y-100178571D02*
X124190476Y-100178571D01*
X124190476Y-100702380D02*
X124190476Y-99702380D01*
X124666666Y-99702380D01*
D19*
X116260571Y-120475333D02*
X116260571Y-120808666D01*
X116784380Y-120808666D02*
X115784380Y-120808666D01*
X115784380Y-120332476D01*
X116784380Y-119903904D02*
X116784380Y-119713428D01*
X116736761Y-119618190D01*
X116689142Y-119570571D01*
X116546285Y-119475333D01*
X116355809Y-119427714D01*
X115974857Y-119427714D01*
X115879619Y-119475333D01*
X115832000Y-119522952D01*
X115784380Y-119618190D01*
X115784380Y-119808666D01*
X115832000Y-119903904D01*
X115879619Y-119951523D01*
X115974857Y-119999142D01*
X116212952Y-119999142D01*
X116308190Y-119951523D01*
X116355809Y-119903904D01*
X116403428Y-119808666D01*
X116403428Y-119618190D01*
X116355809Y-119522952D01*
X116308190Y-119475333D01*
X116212952Y-119427714D01*
X122515380Y-122364142D02*
X122515380Y-121745095D01*
X122896333Y-122078428D01*
X122896333Y-121935571D01*
X122943952Y-121840333D01*
X122991571Y-121792714D01*
X123086809Y-121745095D01*
X123324904Y-121745095D01*
X123420142Y-121792714D01*
X123467761Y-121840333D01*
X123515380Y-121935571D01*
X123515380Y-122221285D01*
X123467761Y-122316523D01*
X123420142Y-122364142D01*
X122515380Y-120840333D02*
X122515380Y-121316523D01*
X122991571Y-121364142D01*
X122943952Y-121316523D01*
X122896333Y-121221285D01*
X122896333Y-120983190D01*
X122943952Y-120887952D01*
X122991571Y-120840333D01*
X123086809Y-120792714D01*
X123324904Y-120792714D01*
X123420142Y-120840333D01*
X123467761Y-120887952D01*
X123515380Y-120983190D01*
X123515380Y-121221285D01*
X123467761Y-121316523D01*
X123420142Y-121364142D01*
X122848714Y-119935571D02*
X123515380Y-119935571D01*
X122467761Y-120173666D02*
X123182047Y-120411761D01*
X123182047Y-119792714D01*
X122848714Y-118983190D02*
X123515380Y-118983190D01*
X122467761Y-119221285D02*
X123182047Y-119459380D01*
X123182047Y-118840333D01*
X123134428Y-118459380D02*
X123134428Y-117697476D01*
X122610619Y-117268904D02*
X122563000Y-117221285D01*
X122515380Y-117126047D01*
X122515380Y-116887952D01*
X122563000Y-116792714D01*
X122610619Y-116745095D01*
X122705857Y-116697476D01*
X122801095Y-116697476D01*
X122943952Y-116745095D01*
X123515380Y-117316523D01*
X123515380Y-116697476D01*
D12*
X147988095Y-76952380D02*
X147988095Y-77761904D01*
X148035714Y-77857142D01*
X148083333Y-77904761D01*
X148178571Y-77952380D01*
X148369047Y-77952380D01*
X148464285Y-77904761D01*
X148511904Y-77857142D01*
X148559523Y-77761904D01*
X148559523Y-76952380D01*
X148940476Y-76952380D02*
X149559523Y-76952380D01*
X149226190Y-77333333D01*
X149369047Y-77333333D01*
X149464285Y-77380952D01*
X149511904Y-77428571D01*
X149559523Y-77523809D01*
X149559523Y-77761904D01*
X149511904Y-77857142D01*
X149464285Y-77904761D01*
X149369047Y-77952380D01*
X149083333Y-77952380D01*
X148988095Y-77904761D01*
X148940476Y-77857142D01*
X160630952Y-77904761D02*
X160773809Y-77952380D01*
X161011904Y-77952380D01*
X161107142Y-77904761D01*
X161154761Y-77857142D01*
X161202380Y-77761904D01*
X161202380Y-77666666D01*
X161154761Y-77571428D01*
X161107142Y-77523809D01*
X161011904Y-77476190D01*
X160821428Y-77428571D01*
X160726190Y-77380952D01*
X160678571Y-77333333D01*
X160630952Y-77238095D01*
X160630952Y-77142857D01*
X160678571Y-77047619D01*
X160726190Y-77000000D01*
X160821428Y-76952380D01*
X161059523Y-76952380D01*
X161202380Y-77000000D01*
X161630952Y-77952380D02*
X161630952Y-76952380D01*
X162202380Y-77952380D01*
X162202380Y-76952380D01*
X162583333Y-76952380D02*
X163250000Y-76952380D01*
X162821428Y-77952380D01*
X164059523Y-77285714D02*
X164059523Y-77952380D01*
X163821428Y-76904761D02*
X163583333Y-77619047D01*
X164202380Y-77619047D01*
X164583333Y-77952380D02*
X164583333Y-76952380D01*
X164583333Y-77428571D02*
X165154761Y-77428571D01*
X165154761Y-77952380D02*
X165154761Y-76952380D01*
X166202380Y-77857142D02*
X166154761Y-77904761D01*
X166011904Y-77952380D01*
X165916666Y-77952380D01*
X165773809Y-77904761D01*
X165678571Y-77809523D01*
X165630952Y-77714285D01*
X165583333Y-77523809D01*
X165583333Y-77380952D01*
X165630952Y-77190476D01*
X165678571Y-77095238D01*
X165773809Y-77000000D01*
X165916666Y-76952380D01*
X166011904Y-76952380D01*
X166154761Y-77000000D01*
X166202380Y-77047619D01*
X166488095Y-76952380D02*
X167059523Y-76952380D01*
X166773809Y-77952380D02*
X166773809Y-76952380D01*
X167345238Y-77047619D02*
X167392857Y-77000000D01*
X167488095Y-76952380D01*
X167726190Y-76952380D01*
X167821428Y-77000000D01*
X167869047Y-77047619D01*
X167916666Y-77142857D01*
X167916666Y-77238095D01*
X167869047Y-77380952D01*
X167297619Y-77952380D01*
X167916666Y-77952380D01*
X168773809Y-77285714D02*
X168773809Y-77952380D01*
X168535714Y-76904761D02*
X168297619Y-77619047D01*
X168916666Y-77619047D01*
X169773809Y-76952380D02*
X169297619Y-76952380D01*
X169250000Y-77428571D01*
X169297619Y-77380952D01*
X169392857Y-77333333D01*
X169630952Y-77333333D01*
X169726190Y-77380952D01*
X169773809Y-77428571D01*
X169821428Y-77523809D01*
X169821428Y-77761904D01*
X169773809Y-77857142D01*
X169726190Y-77904761D01*
X169630952Y-77952380D01*
X169392857Y-77952380D01*
X169297619Y-77904761D01*
X169250000Y-77857142D01*
X170250000Y-77952380D02*
X170250000Y-76952380D01*
X170821428Y-77952380D01*
X170821428Y-76952380D01*
X169518080Y-79248000D02*
X169756176Y-79248000D01*
X169660938Y-79486095D02*
X169756176Y-79248000D01*
X169660938Y-79009904D01*
X169946652Y-79390857D02*
X169756176Y-79248000D01*
X169946652Y-79105142D01*
X133214666Y-103984380D02*
X133214666Y-104698666D01*
X133167047Y-104841523D01*
X133071809Y-104936761D01*
X132928952Y-104984380D01*
X132833714Y-104984380D01*
X133643238Y-104079619D02*
X133690857Y-104032000D01*
X133786095Y-103984380D01*
X134024190Y-103984380D01*
X134119428Y-104032000D01*
X134167047Y-104079619D01*
X134214666Y-104174857D01*
X134214666Y-104270095D01*
X134167047Y-104412952D01*
X133595619Y-104984380D01*
X134214666Y-104984380D01*
D19*
X125912571Y-129873333D02*
X125912571Y-130206666D01*
X126436380Y-130206666D02*
X125436380Y-130206666D01*
X125436380Y-129730476D01*
X126436380Y-128825714D02*
X126436380Y-129397142D01*
X126436380Y-129111428D02*
X125436380Y-129111428D01*
X125579238Y-129206666D01*
X125674476Y-129301904D01*
X125722095Y-129397142D01*
X132167380Y-131762142D02*
X132167380Y-131143095D01*
X132548333Y-131476428D01*
X132548333Y-131333571D01*
X132595952Y-131238333D01*
X132643571Y-131190714D01*
X132738809Y-131143095D01*
X132976904Y-131143095D01*
X133072142Y-131190714D01*
X133119761Y-131238333D01*
X133167380Y-131333571D01*
X133167380Y-131619285D01*
X133119761Y-131714523D01*
X133072142Y-131762142D01*
X132167380Y-130238333D02*
X132167380Y-130714523D01*
X132643571Y-130762142D01*
X132595952Y-130714523D01*
X132548333Y-130619285D01*
X132548333Y-130381190D01*
X132595952Y-130285952D01*
X132643571Y-130238333D01*
X132738809Y-130190714D01*
X132976904Y-130190714D01*
X133072142Y-130238333D01*
X133119761Y-130285952D01*
X133167380Y-130381190D01*
X133167380Y-130619285D01*
X133119761Y-130714523D01*
X133072142Y-130762142D01*
X132500714Y-129333571D02*
X133167380Y-129333571D01*
X132119761Y-129571666D02*
X132834047Y-129809761D01*
X132834047Y-129190714D01*
X132500714Y-128381190D02*
X133167380Y-128381190D01*
X132119761Y-128619285D02*
X132834047Y-128857380D01*
X132834047Y-128238333D01*
X132786428Y-127857380D02*
X132786428Y-127095476D01*
X132262619Y-126666904D02*
X132215000Y-126619285D01*
X132167380Y-126524047D01*
X132167380Y-126285952D01*
X132215000Y-126190714D01*
X132262619Y-126143095D01*
X132357857Y-126095476D01*
X132453095Y-126095476D01*
X132595952Y-126143095D01*
X133167380Y-126714523D01*
X133167380Y-126095476D01*
X156392571Y-129873333D02*
X156392571Y-130206666D01*
X156916380Y-130206666D02*
X155916380Y-130206666D01*
X155916380Y-129730476D01*
X155916380Y-128920952D02*
X155916380Y-129111428D01*
X155964000Y-129206666D01*
X156011619Y-129254285D01*
X156154476Y-129349523D01*
X156344952Y-129397142D01*
X156725904Y-129397142D01*
X156821142Y-129349523D01*
X156868761Y-129301904D01*
X156916380Y-129206666D01*
X156916380Y-129016190D01*
X156868761Y-128920952D01*
X156821142Y-128873333D01*
X156725904Y-128825714D01*
X156487809Y-128825714D01*
X156392571Y-128873333D01*
X156344952Y-128920952D01*
X156297333Y-129016190D01*
X156297333Y-129206666D01*
X156344952Y-129301904D01*
X156392571Y-129349523D01*
X156487809Y-129397142D01*
X162647380Y-131762142D02*
X162647380Y-131143095D01*
X163028333Y-131476428D01*
X163028333Y-131333571D01*
X163075952Y-131238333D01*
X163123571Y-131190714D01*
X163218809Y-131143095D01*
X163456904Y-131143095D01*
X163552142Y-131190714D01*
X163599761Y-131238333D01*
X163647380Y-131333571D01*
X163647380Y-131619285D01*
X163599761Y-131714523D01*
X163552142Y-131762142D01*
X162647380Y-130238333D02*
X162647380Y-130714523D01*
X163123571Y-130762142D01*
X163075952Y-130714523D01*
X163028333Y-130619285D01*
X163028333Y-130381190D01*
X163075952Y-130285952D01*
X163123571Y-130238333D01*
X163218809Y-130190714D01*
X163456904Y-130190714D01*
X163552142Y-130238333D01*
X163599761Y-130285952D01*
X163647380Y-130381190D01*
X163647380Y-130619285D01*
X163599761Y-130714523D01*
X163552142Y-130762142D01*
X162980714Y-129333571D02*
X163647380Y-129333571D01*
X162599761Y-129571666D02*
X163314047Y-129809761D01*
X163314047Y-129190714D01*
X162980714Y-128381190D02*
X163647380Y-128381190D01*
X162599761Y-128619285D02*
X163314047Y-128857380D01*
X163314047Y-128238333D01*
X163266428Y-127857380D02*
X163266428Y-127095476D01*
X162742619Y-126666904D02*
X162695000Y-126619285D01*
X162647380Y-126524047D01*
X162647380Y-126285952D01*
X162695000Y-126190714D01*
X162742619Y-126143095D01*
X162837857Y-126095476D01*
X162933095Y-126095476D01*
X163075952Y-126143095D01*
X163647380Y-126714523D01*
X163647380Y-126095476D01*
X150042571Y-129873333D02*
X150042571Y-130206666D01*
X150566380Y-130206666D02*
X149566380Y-130206666D01*
X149566380Y-129730476D01*
X149566380Y-128873333D02*
X149566380Y-129349523D01*
X150042571Y-129397142D01*
X149994952Y-129349523D01*
X149947333Y-129254285D01*
X149947333Y-129016190D01*
X149994952Y-128920952D01*
X150042571Y-128873333D01*
X150137809Y-128825714D01*
X150375904Y-128825714D01*
X150471142Y-128873333D01*
X150518761Y-128920952D01*
X150566380Y-129016190D01*
X150566380Y-129254285D01*
X150518761Y-129349523D01*
X150471142Y-129397142D01*
X156297380Y-131762142D02*
X156297380Y-131143095D01*
X156678333Y-131476428D01*
X156678333Y-131333571D01*
X156725952Y-131238333D01*
X156773571Y-131190714D01*
X156868809Y-131143095D01*
X157106904Y-131143095D01*
X157202142Y-131190714D01*
X157249761Y-131238333D01*
X157297380Y-131333571D01*
X157297380Y-131619285D01*
X157249761Y-131714523D01*
X157202142Y-131762142D01*
X156297380Y-130238333D02*
X156297380Y-130714523D01*
X156773571Y-130762142D01*
X156725952Y-130714523D01*
X156678333Y-130619285D01*
X156678333Y-130381190D01*
X156725952Y-130285952D01*
X156773571Y-130238333D01*
X156868809Y-130190714D01*
X157106904Y-130190714D01*
X157202142Y-130238333D01*
X157249761Y-130285952D01*
X157297380Y-130381190D01*
X157297380Y-130619285D01*
X157249761Y-130714523D01*
X157202142Y-130762142D01*
X156630714Y-129333571D02*
X157297380Y-129333571D01*
X156249761Y-129571666D02*
X156964047Y-129809761D01*
X156964047Y-129190714D01*
X156630714Y-128381190D02*
X157297380Y-128381190D01*
X156249761Y-128619285D02*
X156964047Y-128857380D01*
X156964047Y-128238333D01*
X156916428Y-127857380D02*
X156916428Y-127095476D01*
X156392619Y-126666904D02*
X156345000Y-126619285D01*
X156297380Y-126524047D01*
X156297380Y-126285952D01*
X156345000Y-126190714D01*
X156392619Y-126143095D01*
X156487857Y-126095476D01*
X156583095Y-126095476D01*
X156725952Y-126143095D01*
X157297380Y-126714523D01*
X157297380Y-126095476D01*
X143692571Y-129873333D02*
X143692571Y-130206666D01*
X144216380Y-130206666D02*
X143216380Y-130206666D01*
X143216380Y-129730476D01*
X143549714Y-128920952D02*
X144216380Y-128920952D01*
X143168761Y-129159047D02*
X143883047Y-129397142D01*
X143883047Y-128778095D01*
X149947380Y-131762142D02*
X149947380Y-131143095D01*
X150328333Y-131476428D01*
X150328333Y-131333571D01*
X150375952Y-131238333D01*
X150423571Y-131190714D01*
X150518809Y-131143095D01*
X150756904Y-131143095D01*
X150852142Y-131190714D01*
X150899761Y-131238333D01*
X150947380Y-131333571D01*
X150947380Y-131619285D01*
X150899761Y-131714523D01*
X150852142Y-131762142D01*
X149947380Y-130238333D02*
X149947380Y-130714523D01*
X150423571Y-130762142D01*
X150375952Y-130714523D01*
X150328333Y-130619285D01*
X150328333Y-130381190D01*
X150375952Y-130285952D01*
X150423571Y-130238333D01*
X150518809Y-130190714D01*
X150756904Y-130190714D01*
X150852142Y-130238333D01*
X150899761Y-130285952D01*
X150947380Y-130381190D01*
X150947380Y-130619285D01*
X150899761Y-130714523D01*
X150852142Y-130762142D01*
X150280714Y-129333571D02*
X150947380Y-129333571D01*
X149899761Y-129571666D02*
X150614047Y-129809761D01*
X150614047Y-129190714D01*
X150280714Y-128381190D02*
X150947380Y-128381190D01*
X149899761Y-128619285D02*
X150614047Y-128857380D01*
X150614047Y-128238333D01*
X150566428Y-127857380D02*
X150566428Y-127095476D01*
X150042619Y-126666904D02*
X149995000Y-126619285D01*
X149947380Y-126524047D01*
X149947380Y-126285952D01*
X149995000Y-126190714D01*
X150042619Y-126143095D01*
X150137857Y-126095476D01*
X150233095Y-126095476D01*
X150375952Y-126143095D01*
X150947380Y-126714523D01*
X150947380Y-126095476D01*
X137596571Y-129873333D02*
X137596571Y-130206666D01*
X138120380Y-130206666D02*
X137120380Y-130206666D01*
X137120380Y-129730476D01*
X137120380Y-129444761D02*
X137120380Y-128825714D01*
X137501333Y-129159047D01*
X137501333Y-129016190D01*
X137548952Y-128920952D01*
X137596571Y-128873333D01*
X137691809Y-128825714D01*
X137929904Y-128825714D01*
X138025142Y-128873333D01*
X138072761Y-128920952D01*
X138120380Y-129016190D01*
X138120380Y-129301904D01*
X138072761Y-129397142D01*
X138025142Y-129444761D01*
X143851380Y-131762142D02*
X143851380Y-131143095D01*
X144232333Y-131476428D01*
X144232333Y-131333571D01*
X144279952Y-131238333D01*
X144327571Y-131190714D01*
X144422809Y-131143095D01*
X144660904Y-131143095D01*
X144756142Y-131190714D01*
X144803761Y-131238333D01*
X144851380Y-131333571D01*
X144851380Y-131619285D01*
X144803761Y-131714523D01*
X144756142Y-131762142D01*
X143851380Y-130238333D02*
X143851380Y-130714523D01*
X144327571Y-130762142D01*
X144279952Y-130714523D01*
X144232333Y-130619285D01*
X144232333Y-130381190D01*
X144279952Y-130285952D01*
X144327571Y-130238333D01*
X144422809Y-130190714D01*
X144660904Y-130190714D01*
X144756142Y-130238333D01*
X144803761Y-130285952D01*
X144851380Y-130381190D01*
X144851380Y-130619285D01*
X144803761Y-130714523D01*
X144756142Y-130762142D01*
X144184714Y-129333571D02*
X144851380Y-129333571D01*
X143803761Y-129571666D02*
X144518047Y-129809761D01*
X144518047Y-129190714D01*
X144184714Y-128381190D02*
X144851380Y-128381190D01*
X143803761Y-128619285D02*
X144518047Y-128857380D01*
X144518047Y-128238333D01*
X144470428Y-127857380D02*
X144470428Y-127095476D01*
X143946619Y-126666904D02*
X143899000Y-126619285D01*
X143851380Y-126524047D01*
X143851380Y-126285952D01*
X143899000Y-126190714D01*
X143946619Y-126143095D01*
X144041857Y-126095476D01*
X144137095Y-126095476D01*
X144279952Y-126143095D01*
X144851380Y-126714523D01*
X144851380Y-126095476D01*
X131754571Y-129873333D02*
X131754571Y-130206666D01*
X132278380Y-130206666D02*
X131278380Y-130206666D01*
X131278380Y-129730476D01*
X131373619Y-129397142D02*
X131326000Y-129349523D01*
X131278380Y-129254285D01*
X131278380Y-129016190D01*
X131326000Y-128920952D01*
X131373619Y-128873333D01*
X131468857Y-128825714D01*
X131564095Y-128825714D01*
X131706952Y-128873333D01*
X132278380Y-129444761D01*
X132278380Y-128825714D01*
X138009380Y-131762142D02*
X138009380Y-131143095D01*
X138390333Y-131476428D01*
X138390333Y-131333571D01*
X138437952Y-131238333D01*
X138485571Y-131190714D01*
X138580809Y-131143095D01*
X138818904Y-131143095D01*
X138914142Y-131190714D01*
X138961761Y-131238333D01*
X139009380Y-131333571D01*
X139009380Y-131619285D01*
X138961761Y-131714523D01*
X138914142Y-131762142D01*
X138009380Y-130238333D02*
X138009380Y-130714523D01*
X138485571Y-130762142D01*
X138437952Y-130714523D01*
X138390333Y-130619285D01*
X138390333Y-130381190D01*
X138437952Y-130285952D01*
X138485571Y-130238333D01*
X138580809Y-130190714D01*
X138818904Y-130190714D01*
X138914142Y-130238333D01*
X138961761Y-130285952D01*
X139009380Y-130381190D01*
X139009380Y-130619285D01*
X138961761Y-130714523D01*
X138914142Y-130762142D01*
X138342714Y-129333571D02*
X139009380Y-129333571D01*
X137961761Y-129571666D02*
X138676047Y-129809761D01*
X138676047Y-129190714D01*
X138342714Y-128381190D02*
X139009380Y-128381190D01*
X137961761Y-128619285D02*
X138676047Y-128857380D01*
X138676047Y-128238333D01*
X138628428Y-127857380D02*
X138628428Y-127095476D01*
X138104619Y-126666904D02*
X138057000Y-126619285D01*
X138009380Y-126524047D01*
X138009380Y-126285952D01*
X138057000Y-126190714D01*
X138104619Y-126143095D01*
X138199857Y-126095476D01*
X138295095Y-126095476D01*
X138437952Y-126143095D01*
X139009380Y-126714523D01*
X139009380Y-126095476D01*
D12*
X147946666Y-103984380D02*
X147946666Y-104698666D01*
X147899047Y-104841523D01*
X147803809Y-104936761D01*
X147660952Y-104984380D01*
X147565714Y-104984380D01*
X148851428Y-104317714D02*
X148851428Y-104984380D01*
X148613333Y-103936761D02*
X148375238Y-104651047D01*
X148994285Y-104651047D01*
X147946666Y-91908380D02*
X147946666Y-92622666D01*
X147899047Y-92765523D01*
X147803809Y-92860761D01*
X147660952Y-92908380D01*
X147565714Y-92908380D01*
X148327619Y-91908380D02*
X148946666Y-91908380D01*
X148613333Y-92289333D01*
X148756190Y-92289333D01*
X148851428Y-92336952D01*
X148899047Y-92384571D01*
X148946666Y-92479809D01*
X148946666Y-92717904D01*
X148899047Y-92813142D01*
X148851428Y-92860761D01*
X148756190Y-92908380D01*
X148470476Y-92908380D01*
X148375238Y-92860761D01*
X148327619Y-92813142D01*
X131746666Y-91908380D02*
X131746666Y-92622666D01*
X131699047Y-92765523D01*
X131603809Y-92860761D01*
X131460952Y-92908380D01*
X131365714Y-92908380D01*
X132746666Y-92908380D02*
X132175238Y-92908380D01*
X132460952Y-92908380D02*
X132460952Y-91908380D01*
X132365714Y-92051238D01*
X132270476Y-92146476D01*
X132175238Y-92194095D01*
X136883333Y-78707142D02*
X136835714Y-78754761D01*
X136692857Y-78802380D01*
X136597619Y-78802380D01*
X136454761Y-78754761D01*
X136359523Y-78659523D01*
X136311904Y-78564285D01*
X136264285Y-78373809D01*
X136264285Y-78230952D01*
X136311904Y-78040476D01*
X136359523Y-77945238D01*
X136454761Y-77850000D01*
X136597619Y-77802380D01*
X136692857Y-77802380D01*
X136835714Y-77850000D01*
X136883333Y-77897619D01*
X137264285Y-77897619D02*
X137311904Y-77850000D01*
X137407142Y-77802380D01*
X137645238Y-77802380D01*
X137740476Y-77850000D01*
X137788095Y-77897619D01*
X137835714Y-77992857D01*
X137835714Y-78088095D01*
X137788095Y-78230952D01*
X137216666Y-78802380D01*
X137835714Y-78802380D01*
X135978571Y-80602380D02*
X135407142Y-80602380D01*
X135692857Y-80602380D02*
X135692857Y-79602380D01*
X135597619Y-79745238D01*
X135502380Y-79840476D01*
X135407142Y-79888095D01*
X136597619Y-79602380D02*
X136692857Y-79602380D01*
X136788095Y-79650000D01*
X136835714Y-79697619D01*
X136883333Y-79792857D01*
X136930952Y-79983333D01*
X136930952Y-80221428D01*
X136883333Y-80411904D01*
X136835714Y-80507142D01*
X136788095Y-80554761D01*
X136692857Y-80602380D01*
X136597619Y-80602380D01*
X136502380Y-80554761D01*
X136454761Y-80507142D01*
X136407142Y-80411904D01*
X136359523Y-80221428D01*
X136359523Y-79983333D01*
X136407142Y-79792857D01*
X136454761Y-79697619D01*
X136502380Y-79650000D01*
X136597619Y-79602380D01*
X137788095Y-79935714D02*
X137788095Y-80602380D01*
X137359523Y-79935714D02*
X137359523Y-80459523D01*
X137407142Y-80554761D01*
X137502380Y-80602380D01*
X137645238Y-80602380D01*
X137740476Y-80554761D01*
X137788095Y-80507142D01*
X138597619Y-80078571D02*
X138264285Y-80078571D01*
X138264285Y-80602380D02*
X138264285Y-79602380D01*
X138740476Y-79602380D01*
M02*
