G04 #@! TF.GenerationSoftware,KiCad,Pcbnew,(5.1.10)-1*
G04 #@! TF.CreationDate,2021-09-07T00:33:24-04:00*
G04 #@! TF.ProjectId,LoLin_Pro_Controller,4c6f4c69-6e5f-4507-926f-5f436f6e7472,rev?*
G04 #@! TF.SameCoordinates,Original*
G04 #@! TF.FileFunction,Copper,L2,Bot*
G04 #@! TF.FilePolarity,Positive*
%FSLAX46Y46*%
G04 Gerber Fmt 4.6, Leading zero omitted, Abs format (unit mm)*
G04 Created by KiCad (PCBNEW (5.1.10)-1) date 2021-09-07 00:33:24*
%MOMM*%
%LPD*%
G01*
G04 APERTURE LIST*
G04 #@! TA.AperFunction,ComponentPad*
%ADD10R,3.000000X3.000000*%
G04 #@! TD*
G04 #@! TA.AperFunction,ComponentPad*
%ADD11C,3.000000*%
G04 #@! TD*
G04 #@! TA.AperFunction,ComponentPad*
%ADD12C,2.000000*%
G04 #@! TD*
G04 #@! TA.AperFunction,ComponentPad*
%ADD13O,1.700000X1.700000*%
G04 #@! TD*
G04 #@! TA.AperFunction,ComponentPad*
%ADD14R,1.700000X1.700000*%
G04 #@! TD*
G04 #@! TA.AperFunction,ComponentPad*
%ADD15O,1.905000X2.000000*%
G04 #@! TD*
G04 #@! TA.AperFunction,ComponentPad*
%ADD16R,1.905000X2.000000*%
G04 #@! TD*
G04 #@! TA.AperFunction,ComponentPad*
%ADD17O,1.800000X3.600000*%
G04 #@! TD*
G04 #@! TA.AperFunction,ComponentPad*
%ADD18O,1.600000X1.600000*%
G04 #@! TD*
G04 #@! TA.AperFunction,ComponentPad*
%ADD19C,1.600000*%
G04 #@! TD*
G04 #@! TA.AperFunction,ComponentPad*
%ADD20C,1.800000*%
G04 #@! TD*
G04 #@! TA.AperFunction,ComponentPad*
%ADD21R,1.800000X1.800000*%
G04 #@! TD*
G04 #@! TA.AperFunction,ComponentPad*
%ADD22R,1.600000X1.600000*%
G04 #@! TD*
G04 #@! TA.AperFunction,ComponentPad*
%ADD23C,2.475000*%
G04 #@! TD*
G04 #@! TA.AperFunction,ComponentPad*
%ADD24C,1.295400*%
G04 #@! TD*
G04 #@! TA.AperFunction,ComponentPad*
%ADD25R,1.295400X1.295400*%
G04 #@! TD*
G04 #@! TA.AperFunction,ViaPad*
%ADD26C,0.800000*%
G04 #@! TD*
G04 #@! TA.AperFunction,Conductor*
%ADD27C,0.250000*%
G04 #@! TD*
G04 #@! TA.AperFunction,Conductor*
%ADD28C,0.350000*%
G04 #@! TD*
G04 #@! TA.AperFunction,Conductor*
%ADD29C,0.254000*%
G04 #@! TD*
G04 #@! TA.AperFunction,Conductor*
%ADD30C,0.100000*%
G04 #@! TD*
G04 APERTURE END LIST*
D10*
X178252040Y-119613800D03*
D11*
X186501960Y-119613800D03*
D12*
X139720000Y-50550000D03*
X142260000Y-50550000D03*
X144800000Y-50550000D03*
X147340000Y-50550000D03*
X149880000Y-50550000D03*
X152420000Y-50550000D03*
X154960000Y-50550000D03*
X157500000Y-50550000D03*
X160040000Y-50550000D03*
X162580000Y-50550000D03*
X165120000Y-50550000D03*
X167660000Y-50550000D03*
X170200000Y-50550000D03*
X172740000Y-50550000D03*
X175280000Y-50550000D03*
X177820000Y-50550000D03*
X139720000Y-73410000D03*
X142260000Y-73410000D03*
X144800000Y-73410000D03*
X147340000Y-73410000D03*
X149880000Y-73410000D03*
X152420000Y-73410000D03*
X154960000Y-73410000D03*
X157500000Y-73410000D03*
X160040000Y-73410000D03*
X162580000Y-73410000D03*
X165120000Y-73410000D03*
X167660000Y-73410000D03*
X170200000Y-73410000D03*
X172740000Y-73410000D03*
X175280000Y-73410000D03*
X177820000Y-73410000D03*
D13*
X121750000Y-80920000D03*
X121750000Y-83460000D03*
D14*
X121750000Y-86000000D03*
D15*
X125476000Y-75184000D03*
X122936000Y-75184000D03*
D16*
X120396000Y-75184000D03*
D17*
X166512000Y-97536000D03*
X163012000Y-97536000D03*
G04 #@! TA.AperFunction,ComponentPad*
G36*
G01*
X158612000Y-99086000D02*
X158612000Y-95986000D01*
G75*
G02*
X158862000Y-95736000I250000J0D01*
G01*
X160162000Y-95736000D01*
G75*
G02*
X160412000Y-95986000I0J-250000D01*
G01*
X160412000Y-99086000D01*
G75*
G02*
X160162000Y-99336000I-250000J0D01*
G01*
X158862000Y-99336000D01*
G75*
G02*
X158612000Y-99086000I0J250000D01*
G01*
G37*
G04 #@! TD.AperFunction*
X166624000Y-109982000D03*
X163124000Y-109982000D03*
G04 #@! TA.AperFunction,ComponentPad*
G36*
G01*
X158724000Y-111532000D02*
X158724000Y-108432000D01*
G75*
G02*
X158974000Y-108182000I250000J0D01*
G01*
X160274000Y-108182000D01*
G75*
G02*
X160524000Y-108432000I0J-250000D01*
G01*
X160524000Y-111532000D01*
G75*
G02*
X160274000Y-111782000I-250000J0D01*
G01*
X158974000Y-111782000D01*
G75*
G02*
X158724000Y-111532000I0J250000D01*
G01*
G37*
G04 #@! TD.AperFunction*
D18*
X141224000Y-86106000D03*
D19*
X133604000Y-86106000D03*
D20*
X128524000Y-86106000D03*
D21*
X131064000Y-86106000D03*
D18*
X173736000Y-90424000D03*
X171196000Y-90424000D03*
X168656000Y-90424000D03*
X166116000Y-90424000D03*
X163576000Y-90424000D03*
X161036000Y-90424000D03*
X158496000Y-90424000D03*
D22*
X155956000Y-90424000D03*
D18*
X152146000Y-90424000D03*
X149606000Y-90424000D03*
X147066000Y-90424000D03*
X144526000Y-90424000D03*
X141986000Y-90424000D03*
X139446000Y-90424000D03*
X136906000Y-90424000D03*
D22*
X134366000Y-90424000D03*
D19*
X173228000Y-80598000D03*
X173228000Y-85598000D03*
X123500000Y-93750000D03*
D22*
X120000000Y-93750000D03*
D23*
X119888000Y-109112000D03*
X119888000Y-121012000D03*
X119888000Y-112812000D03*
X119888000Y-117312000D03*
D24*
X168656000Y-86868000D03*
X166116000Y-86868000D03*
X163576000Y-86868000D03*
X161036000Y-86868000D03*
X158496000Y-86868000D03*
X155956000Y-86868000D03*
X153416000Y-86868000D03*
X150876000Y-86868000D03*
X148336000Y-86868000D03*
X145796000Y-86868000D03*
X145796000Y-79248000D03*
X148336000Y-79248000D03*
X150876000Y-79248000D03*
X153416000Y-79248000D03*
X155956000Y-79248000D03*
X158496000Y-79248000D03*
X161036000Y-79248000D03*
X163576000Y-79248000D03*
X166116000Y-79248000D03*
D25*
X168656000Y-79248000D03*
D17*
X137048000Y-109982000D03*
X133548000Y-109982000D03*
G04 #@! TA.AperFunction,ComponentPad*
G36*
G01*
X129148000Y-111532000D02*
X129148000Y-108432000D01*
G75*
G02*
X129398000Y-108182000I250000J0D01*
G01*
X130698000Y-108182000D01*
G75*
G02*
X130948000Y-108432000I0J-250000D01*
G01*
X130948000Y-111532000D01*
G75*
G02*
X130698000Y-111782000I-250000J0D01*
G01*
X129398000Y-111782000D01*
G75*
G02*
X129148000Y-111532000I0J250000D01*
G01*
G37*
G04 #@! TD.AperFunction*
D23*
X129540000Y-118510000D03*
X129540000Y-130410000D03*
X129540000Y-122210000D03*
X129540000Y-126710000D03*
X160020000Y-118510000D03*
X160020000Y-130410000D03*
X160020000Y-122210000D03*
X160020000Y-126710000D03*
X153670000Y-118510000D03*
X153670000Y-130410000D03*
X153670000Y-122210000D03*
X153670000Y-126710000D03*
X147320000Y-118510000D03*
X147320000Y-130410000D03*
X147320000Y-122210000D03*
X147320000Y-126710000D03*
X141224000Y-118510000D03*
X141224000Y-130410000D03*
X141224000Y-122210000D03*
X141224000Y-126710000D03*
X135382000Y-118510000D03*
X135382000Y-130410000D03*
X135382000Y-122210000D03*
X135382000Y-126710000D03*
D17*
X151780000Y-109982000D03*
X148280000Y-109982000D03*
G04 #@! TA.AperFunction,ComponentPad*
G36*
G01*
X143880000Y-111532000D02*
X143880000Y-108432000D01*
G75*
G02*
X144130000Y-108182000I250000J0D01*
G01*
X145430000Y-108182000D01*
G75*
G02*
X145680000Y-108432000I0J-250000D01*
G01*
X145680000Y-111532000D01*
G75*
G02*
X145430000Y-111782000I-250000J0D01*
G01*
X144130000Y-111782000D01*
G75*
G02*
X143880000Y-111532000I0J250000D01*
G01*
G37*
G04 #@! TD.AperFunction*
X151780000Y-97536000D03*
X148280000Y-97536000D03*
G04 #@! TA.AperFunction,ComponentPad*
G36*
G01*
X143880000Y-99086000D02*
X143880000Y-95986000D01*
G75*
G02*
X144130000Y-95736000I250000J0D01*
G01*
X145430000Y-95736000D01*
G75*
G02*
X145680000Y-95986000I0J-250000D01*
G01*
X145680000Y-99086000D01*
G75*
G02*
X145430000Y-99336000I-250000J0D01*
G01*
X144130000Y-99336000D01*
G75*
G02*
X143880000Y-99086000I0J250000D01*
G01*
G37*
G04 #@! TD.AperFunction*
X137048000Y-97536000D03*
X133548000Y-97536000D03*
G04 #@! TA.AperFunction,ComponentPad*
G36*
G01*
X129148000Y-99086000D02*
X129148000Y-95986000D01*
G75*
G02*
X129398000Y-95736000I250000J0D01*
G01*
X130698000Y-95736000D01*
G75*
G02*
X130948000Y-95986000I0J-250000D01*
G01*
X130948000Y-99086000D01*
G75*
G02*
X130698000Y-99336000I-250000J0D01*
G01*
X129398000Y-99336000D01*
G75*
G02*
X129148000Y-99086000I0J250000D01*
G01*
G37*
G04 #@! TD.AperFunction*
D19*
X132080000Y-78232000D03*
D22*
X132080000Y-80232000D03*
D26*
X160500000Y-76825021D03*
X152750000Y-77000000D03*
D27*
X163068000Y-109982000D02*
X163068000Y-109082000D01*
D28*
X152658000Y-73410000D02*
X152420000Y-73410000D01*
X158496000Y-79248000D02*
X152658000Y-73410000D01*
X160798000Y-79248000D02*
X161036000Y-79248000D01*
X154960000Y-73410000D02*
X160798000Y-79248000D01*
X165120000Y-73410000D02*
X161704979Y-76825021D01*
X161704979Y-76825021D02*
X160500000Y-76825021D01*
X152750000Y-78582000D02*
X153416000Y-79248000D01*
X152750000Y-77000000D02*
X152750000Y-78582000D01*
D29*
X180670189Y-116894376D02*
X180833850Y-116944022D01*
X180984672Y-117024638D01*
X181116870Y-117133130D01*
X181225362Y-117265328D01*
X181305978Y-117416150D01*
X181355624Y-117579811D01*
X181373000Y-117756234D01*
X181373000Y-132493766D01*
X181355624Y-132670189D01*
X181349614Y-132690000D01*
X126899916Y-132690000D01*
X126894000Y-132670524D01*
X126876555Y-132494152D01*
X126873446Y-125467568D01*
X126890775Y-125290973D01*
X126940432Y-125127171D01*
X127021119Y-124976210D01*
X127129727Y-124843914D01*
X127262075Y-124735373D01*
X127413073Y-124654761D01*
X127576900Y-124605186D01*
X127753505Y-124587943D01*
X168872186Y-124626413D01*
X168884034Y-124625870D01*
X169069810Y-124608639D01*
X169093097Y-124604259D01*
X169272439Y-124552818D01*
X169294506Y-124544189D01*
X169461170Y-124460329D01*
X169481251Y-124447751D01*
X169629438Y-124334391D01*
X169646832Y-124318301D01*
X169771381Y-124179387D01*
X169785484Y-124160347D01*
X169882061Y-124000714D01*
X169887720Y-123990290D01*
X173088617Y-117375101D01*
X173175883Y-117230833D01*
X173284424Y-117109718D01*
X173413564Y-117010848D01*
X173558807Y-116937667D01*
X173715113Y-116892715D01*
X173882975Y-116877000D01*
X180493766Y-116877000D01*
X180670189Y-116894376D01*
G04 #@! TA.AperFunction,Conductor*
D30*
G36*
X180670189Y-116894376D02*
G01*
X180833850Y-116944022D01*
X180984672Y-117024638D01*
X181116870Y-117133130D01*
X181225362Y-117265328D01*
X181305978Y-117416150D01*
X181355624Y-117579811D01*
X181373000Y-117756234D01*
X181373000Y-132493766D01*
X181355624Y-132670189D01*
X181349614Y-132690000D01*
X126899916Y-132690000D01*
X126894000Y-132670524D01*
X126876555Y-132494152D01*
X126873446Y-125467568D01*
X126890775Y-125290973D01*
X126940432Y-125127171D01*
X127021119Y-124976210D01*
X127129727Y-124843914D01*
X127262075Y-124735373D01*
X127413073Y-124654761D01*
X127576900Y-124605186D01*
X127753505Y-124587943D01*
X168872186Y-124626413D01*
X168884034Y-124625870D01*
X169069810Y-124608639D01*
X169093097Y-124604259D01*
X169272439Y-124552818D01*
X169294506Y-124544189D01*
X169461170Y-124460329D01*
X169481251Y-124447751D01*
X169629438Y-124334391D01*
X169646832Y-124318301D01*
X169771381Y-124179387D01*
X169785484Y-124160347D01*
X169882061Y-124000714D01*
X169887720Y-123990290D01*
X173088617Y-117375101D01*
X173175883Y-117230833D01*
X173284424Y-117109718D01*
X173413564Y-117010848D01*
X173558807Y-116937667D01*
X173715113Y-116892715D01*
X173882975Y-116877000D01*
X180493766Y-116877000D01*
X180670189Y-116894376D01*
G37*
G04 #@! TD.AperFunction*
D29*
X199746001Y-132690000D02*
X183101572Y-132690000D01*
X183094941Y-132667946D01*
X183078028Y-132491125D01*
X183093684Y-127273098D01*
X193703000Y-127273098D01*
X193703000Y-127742902D01*
X193794654Y-128203679D01*
X193974440Y-128637721D01*
X194235450Y-129028349D01*
X194567651Y-129360550D01*
X194958279Y-129621560D01*
X195392321Y-129801346D01*
X195853098Y-129893000D01*
X196322902Y-129893000D01*
X196783679Y-129801346D01*
X197217721Y-129621560D01*
X197608349Y-129360550D01*
X197940550Y-129028349D01*
X198201560Y-128637721D01*
X198381346Y-128203679D01*
X198473000Y-127742902D01*
X198473000Y-127273098D01*
X198381346Y-126812321D01*
X198201560Y-126378279D01*
X197940550Y-125987651D01*
X197608349Y-125655450D01*
X197217721Y-125394440D01*
X196783679Y-125214654D01*
X196322902Y-125123000D01*
X195853098Y-125123000D01*
X195392321Y-125214654D01*
X194958279Y-125394440D01*
X194567651Y-125655450D01*
X194235450Y-125987651D01*
X193974440Y-126378279D01*
X193794654Y-126812321D01*
X193703000Y-127273098D01*
X183093684Y-127273098D01*
X183112238Y-121089513D01*
X185553749Y-121089513D01*
X185747151Y-121287291D01*
X186088136Y-121402391D01*
X186445025Y-121448756D01*
X186804101Y-121424606D01*
X187151566Y-121330867D01*
X187256769Y-121287291D01*
X187450171Y-121089513D01*
X186501960Y-120141302D01*
X185553749Y-121089513D01*
X183112238Y-121089513D01*
X183116837Y-119556865D01*
X184667004Y-119556865D01*
X184691154Y-119915941D01*
X184784893Y-120263406D01*
X184828469Y-120368609D01*
X185026247Y-120562011D01*
X185974458Y-119613800D01*
X187029462Y-119613800D01*
X187977673Y-120562011D01*
X188175451Y-120368609D01*
X188290551Y-120027624D01*
X188336916Y-119670735D01*
X188312766Y-119311659D01*
X188219027Y-118964194D01*
X188175451Y-118858991D01*
X187977673Y-118665589D01*
X187029462Y-119613800D01*
X185974458Y-119613800D01*
X185026247Y-118665589D01*
X184828469Y-118858991D01*
X184713369Y-119199976D01*
X184667004Y-119556865D01*
X183116837Y-119556865D01*
X183121094Y-118138087D01*
X185553749Y-118138087D01*
X186501960Y-119086298D01*
X187450171Y-118138087D01*
X187256769Y-117940309D01*
X186915784Y-117825209D01*
X186558895Y-117778844D01*
X186199819Y-117802994D01*
X185852354Y-117896733D01*
X185747151Y-117940309D01*
X185553749Y-118138087D01*
X183121094Y-118138087D01*
X183123982Y-117175783D01*
X183123404Y-117163291D01*
X183104645Y-116967482D01*
X183099828Y-116942969D01*
X183043102Y-116754621D01*
X183033581Y-116731525D01*
X182941084Y-116557925D01*
X182927225Y-116537140D01*
X182802534Y-116385005D01*
X182784875Y-116367335D01*
X182632816Y-116242552D01*
X182612039Y-116228681D01*
X182438495Y-116136077D01*
X182415406Y-116126541D01*
X182227093Y-116069700D01*
X182202582Y-116064868D01*
X182006785Y-116045990D01*
X181994293Y-116045404D01*
X121390551Y-116190316D01*
X121342466Y-116118351D01*
X121081649Y-115857534D01*
X120774961Y-115652612D01*
X120434188Y-115511459D01*
X120072425Y-115439500D01*
X119703575Y-115439500D01*
X119341812Y-115511459D01*
X119001039Y-115652612D01*
X118694351Y-115857534D01*
X118433534Y-116118351D01*
X118380640Y-116197513D01*
X116258332Y-116202588D01*
X116081598Y-116185581D01*
X115976000Y-116153772D01*
X115976000Y-108927575D01*
X118015500Y-108927575D01*
X118015500Y-109296425D01*
X118087459Y-109658188D01*
X118228612Y-109998961D01*
X118433534Y-110305649D01*
X118694351Y-110566466D01*
X119001039Y-110771388D01*
X119341812Y-110912541D01*
X119590460Y-110962000D01*
X119341812Y-111011459D01*
X119001039Y-111152612D01*
X118694351Y-111357534D01*
X118433534Y-111618351D01*
X118228612Y-111925039D01*
X118087459Y-112265812D01*
X118015500Y-112627575D01*
X118015500Y-112996425D01*
X118087459Y-113358188D01*
X118228612Y-113698961D01*
X118433534Y-114005649D01*
X118694351Y-114266466D01*
X119001039Y-114471388D01*
X119341812Y-114612541D01*
X119703575Y-114684500D01*
X120072425Y-114684500D01*
X120434188Y-114612541D01*
X120774961Y-114471388D01*
X121081649Y-114266466D01*
X121342466Y-114005649D01*
X121547388Y-113698961D01*
X121688541Y-113358188D01*
X121760500Y-112996425D01*
X121760500Y-112627575D01*
X121688541Y-112265812D01*
X121547388Y-111925039D01*
X121451813Y-111782000D01*
X128819418Y-111782000D01*
X128825732Y-111846103D01*
X128844430Y-111907743D01*
X128874794Y-111964550D01*
X128915657Y-112014343D01*
X128965450Y-112055206D01*
X129022257Y-112085570D01*
X129083897Y-112104268D01*
X129148000Y-112110582D01*
X129593250Y-112109000D01*
X129675000Y-112027250D01*
X129675000Y-110355000D01*
X130421000Y-110355000D01*
X130421000Y-112027250D01*
X130502750Y-112109000D01*
X130948000Y-112110582D01*
X131012103Y-112104268D01*
X131073743Y-112085570D01*
X131130550Y-112055206D01*
X131180343Y-112014343D01*
X131221206Y-111964550D01*
X131251570Y-111907743D01*
X131270268Y-111846103D01*
X131276582Y-111782000D01*
X131275000Y-110436750D01*
X131193250Y-110355000D01*
X130421000Y-110355000D01*
X129675000Y-110355000D01*
X128902750Y-110355000D01*
X128821000Y-110436750D01*
X128819418Y-111782000D01*
X121451813Y-111782000D01*
X121342466Y-111618351D01*
X121081649Y-111357534D01*
X120774961Y-111152612D01*
X120434188Y-111011459D01*
X120185540Y-110962000D01*
X120434188Y-110912541D01*
X120774961Y-110771388D01*
X121081649Y-110566466D01*
X121342466Y-110305649D01*
X121547388Y-109998961D01*
X121688541Y-109658188D01*
X121760500Y-109296425D01*
X121760500Y-108927575D01*
X121688541Y-108565812D01*
X121547388Y-108225039D01*
X121518631Y-108182000D01*
X128819418Y-108182000D01*
X128821000Y-109527250D01*
X128902750Y-109609000D01*
X129675000Y-109609000D01*
X129675000Y-107936750D01*
X130421000Y-107936750D01*
X130421000Y-109609000D01*
X131193250Y-109609000D01*
X131275000Y-109527250D01*
X131275612Y-109006593D01*
X132013000Y-109006593D01*
X132013000Y-110957408D01*
X132035211Y-111182913D01*
X132122984Y-111472261D01*
X132265520Y-111738927D01*
X132457340Y-111972661D01*
X132691074Y-112164481D01*
X132957740Y-112307017D01*
X133247088Y-112394790D01*
X133548000Y-112424427D01*
X133848913Y-112394790D01*
X134138261Y-112307017D01*
X134404927Y-112164481D01*
X134638661Y-111972661D01*
X134830481Y-111738927D01*
X134973017Y-111472261D01*
X135060790Y-111182913D01*
X135083000Y-110957408D01*
X135083000Y-109006593D01*
X135513000Y-109006593D01*
X135513000Y-110957408D01*
X135535211Y-111182913D01*
X135622984Y-111472261D01*
X135765520Y-111738927D01*
X135957340Y-111972661D01*
X136191074Y-112164481D01*
X136457740Y-112307017D01*
X136747088Y-112394790D01*
X137048000Y-112424427D01*
X137348913Y-112394790D01*
X137638261Y-112307017D01*
X137904927Y-112164481D01*
X138138661Y-111972661D01*
X138295132Y-111782000D01*
X143551418Y-111782000D01*
X143557732Y-111846103D01*
X143576430Y-111907743D01*
X143606794Y-111964550D01*
X143647657Y-112014343D01*
X143697450Y-112055206D01*
X143754257Y-112085570D01*
X143815897Y-112104268D01*
X143880000Y-112110582D01*
X144325250Y-112109000D01*
X144407000Y-112027250D01*
X144407000Y-110355000D01*
X145153000Y-110355000D01*
X145153000Y-112027250D01*
X145234750Y-112109000D01*
X145680000Y-112110582D01*
X145744103Y-112104268D01*
X145805743Y-112085570D01*
X145862550Y-112055206D01*
X145912343Y-112014343D01*
X145953206Y-111964550D01*
X145983570Y-111907743D01*
X146002268Y-111846103D01*
X146008582Y-111782000D01*
X146007000Y-110436750D01*
X145925250Y-110355000D01*
X145153000Y-110355000D01*
X144407000Y-110355000D01*
X143634750Y-110355000D01*
X143553000Y-110436750D01*
X143551418Y-111782000D01*
X138295132Y-111782000D01*
X138330481Y-111738927D01*
X138473017Y-111472261D01*
X138560790Y-111182913D01*
X138583000Y-110957408D01*
X138583000Y-109006592D01*
X138560790Y-108781087D01*
X138473017Y-108491739D01*
X138330481Y-108225073D01*
X138295133Y-108182000D01*
X143551418Y-108182000D01*
X143553000Y-109527250D01*
X143634750Y-109609000D01*
X144407000Y-109609000D01*
X144407000Y-107936750D01*
X145153000Y-107936750D01*
X145153000Y-109609000D01*
X145925250Y-109609000D01*
X146007000Y-109527250D01*
X146007612Y-109006593D01*
X146745000Y-109006593D01*
X146745000Y-110957408D01*
X146767211Y-111182913D01*
X146854984Y-111472261D01*
X146997520Y-111738927D01*
X147189340Y-111972661D01*
X147423074Y-112164481D01*
X147689740Y-112307017D01*
X147979088Y-112394790D01*
X148280000Y-112424427D01*
X148580913Y-112394790D01*
X148870261Y-112307017D01*
X149136927Y-112164481D01*
X149370661Y-111972661D01*
X149562481Y-111738927D01*
X149705017Y-111472261D01*
X149792790Y-111182913D01*
X149815000Y-110957408D01*
X149815000Y-109006593D01*
X150245000Y-109006593D01*
X150245000Y-110957408D01*
X150267211Y-111182913D01*
X150354984Y-111472261D01*
X150497520Y-111738927D01*
X150689340Y-111972661D01*
X150923074Y-112164481D01*
X151189740Y-112307017D01*
X151479088Y-112394790D01*
X151780000Y-112424427D01*
X152080913Y-112394790D01*
X152370261Y-112307017D01*
X152636927Y-112164481D01*
X152870661Y-111972661D01*
X153027132Y-111782000D01*
X158395418Y-111782000D01*
X158401732Y-111846103D01*
X158420430Y-111907743D01*
X158450794Y-111964550D01*
X158491657Y-112014343D01*
X158541450Y-112055206D01*
X158598257Y-112085570D01*
X158659897Y-112104268D01*
X158724000Y-112110582D01*
X159169250Y-112109000D01*
X159251000Y-112027250D01*
X159251000Y-110355000D01*
X159997000Y-110355000D01*
X159997000Y-112027250D01*
X160078750Y-112109000D01*
X160524000Y-112110582D01*
X160588103Y-112104268D01*
X160649743Y-112085570D01*
X160706550Y-112055206D01*
X160756343Y-112014343D01*
X160797206Y-111964550D01*
X160827570Y-111907743D01*
X160846268Y-111846103D01*
X160852582Y-111782000D01*
X160851000Y-110436750D01*
X160769250Y-110355000D01*
X159997000Y-110355000D01*
X159251000Y-110355000D01*
X158478750Y-110355000D01*
X158397000Y-110436750D01*
X158395418Y-111782000D01*
X153027132Y-111782000D01*
X153062481Y-111738927D01*
X153205017Y-111472261D01*
X153292790Y-111182913D01*
X153315000Y-110957408D01*
X153315000Y-109006592D01*
X153292790Y-108781087D01*
X153205017Y-108491739D01*
X153062481Y-108225073D01*
X153027133Y-108182000D01*
X158395418Y-108182000D01*
X158397000Y-109527250D01*
X158478750Y-109609000D01*
X159251000Y-109609000D01*
X159251000Y-107936750D01*
X159997000Y-107936750D01*
X159997000Y-109609000D01*
X160769250Y-109609000D01*
X160851000Y-109527250D01*
X160851612Y-109006593D01*
X161589000Y-109006593D01*
X161589000Y-110957408D01*
X161611211Y-111182913D01*
X161698984Y-111472261D01*
X161841520Y-111738927D01*
X162033340Y-111972661D01*
X162267074Y-112164481D01*
X162533740Y-112307017D01*
X162823088Y-112394790D01*
X163124000Y-112424427D01*
X163424913Y-112394790D01*
X163714261Y-112307017D01*
X163980927Y-112164481D01*
X164214661Y-111972661D01*
X164406481Y-111738927D01*
X164549017Y-111472261D01*
X164636790Y-111182913D01*
X164659000Y-110957408D01*
X164659000Y-109006593D01*
X165089000Y-109006593D01*
X165089000Y-110957408D01*
X165111211Y-111182913D01*
X165198984Y-111472261D01*
X165341520Y-111738927D01*
X165533340Y-111972661D01*
X165767074Y-112164481D01*
X166033740Y-112307017D01*
X166323088Y-112394790D01*
X166624000Y-112424427D01*
X166924913Y-112394790D01*
X167214261Y-112307017D01*
X167480927Y-112164481D01*
X167714661Y-111972661D01*
X167906481Y-111738927D01*
X168049017Y-111472261D01*
X168136790Y-111182913D01*
X168159000Y-110957408D01*
X168159000Y-109006592D01*
X168136790Y-108781087D01*
X168049017Y-108491739D01*
X167906481Y-108225073D01*
X167714661Y-107991339D01*
X167480926Y-107799519D01*
X167214260Y-107656983D01*
X166924912Y-107569210D01*
X166624000Y-107539573D01*
X166323087Y-107569210D01*
X166033739Y-107656983D01*
X165767073Y-107799519D01*
X165533339Y-107991339D01*
X165341519Y-108225074D01*
X165198983Y-108491740D01*
X165111210Y-108781088D01*
X165089000Y-109006593D01*
X164659000Y-109006593D01*
X164659000Y-109006592D01*
X164636790Y-108781087D01*
X164549017Y-108491739D01*
X164406481Y-108225073D01*
X164214661Y-107991339D01*
X163980926Y-107799519D01*
X163714260Y-107656983D01*
X163424912Y-107569210D01*
X163124000Y-107539573D01*
X162823087Y-107569210D01*
X162533739Y-107656983D01*
X162267073Y-107799519D01*
X162033339Y-107991339D01*
X161841519Y-108225074D01*
X161698983Y-108491740D01*
X161611210Y-108781088D01*
X161589000Y-109006593D01*
X160851612Y-109006593D01*
X160852582Y-108182000D01*
X160846268Y-108117897D01*
X160827570Y-108056257D01*
X160797206Y-107999450D01*
X160756343Y-107949657D01*
X160706550Y-107908794D01*
X160649743Y-107878430D01*
X160588103Y-107859732D01*
X160524000Y-107853418D01*
X160078750Y-107855000D01*
X159997000Y-107936750D01*
X159251000Y-107936750D01*
X159169250Y-107855000D01*
X158724000Y-107853418D01*
X158659897Y-107859732D01*
X158598257Y-107878430D01*
X158541450Y-107908794D01*
X158491657Y-107949657D01*
X158450794Y-107999450D01*
X158420430Y-108056257D01*
X158401732Y-108117897D01*
X158395418Y-108182000D01*
X153027133Y-108182000D01*
X152870661Y-107991339D01*
X152636926Y-107799519D01*
X152370260Y-107656983D01*
X152080912Y-107569210D01*
X151780000Y-107539573D01*
X151479087Y-107569210D01*
X151189739Y-107656983D01*
X150923073Y-107799519D01*
X150689339Y-107991339D01*
X150497519Y-108225074D01*
X150354983Y-108491740D01*
X150267210Y-108781088D01*
X150245000Y-109006593D01*
X149815000Y-109006593D01*
X149815000Y-109006592D01*
X149792790Y-108781087D01*
X149705017Y-108491739D01*
X149562481Y-108225073D01*
X149370661Y-107991339D01*
X149136926Y-107799519D01*
X148870260Y-107656983D01*
X148580912Y-107569210D01*
X148280000Y-107539573D01*
X147979087Y-107569210D01*
X147689739Y-107656983D01*
X147423073Y-107799519D01*
X147189339Y-107991339D01*
X146997519Y-108225074D01*
X146854983Y-108491740D01*
X146767210Y-108781088D01*
X146745000Y-109006593D01*
X146007612Y-109006593D01*
X146008582Y-108182000D01*
X146002268Y-108117897D01*
X145983570Y-108056257D01*
X145953206Y-107999450D01*
X145912343Y-107949657D01*
X145862550Y-107908794D01*
X145805743Y-107878430D01*
X145744103Y-107859732D01*
X145680000Y-107853418D01*
X145234750Y-107855000D01*
X145153000Y-107936750D01*
X144407000Y-107936750D01*
X144325250Y-107855000D01*
X143880000Y-107853418D01*
X143815897Y-107859732D01*
X143754257Y-107878430D01*
X143697450Y-107908794D01*
X143647657Y-107949657D01*
X143606794Y-107999450D01*
X143576430Y-108056257D01*
X143557732Y-108117897D01*
X143551418Y-108182000D01*
X138295133Y-108182000D01*
X138138661Y-107991339D01*
X137904926Y-107799519D01*
X137638260Y-107656983D01*
X137348912Y-107569210D01*
X137048000Y-107539573D01*
X136747087Y-107569210D01*
X136457739Y-107656983D01*
X136191073Y-107799519D01*
X135957339Y-107991339D01*
X135765519Y-108225074D01*
X135622983Y-108491740D01*
X135535210Y-108781088D01*
X135513000Y-109006593D01*
X135083000Y-109006593D01*
X135083000Y-109006592D01*
X135060790Y-108781087D01*
X134973017Y-108491739D01*
X134830481Y-108225073D01*
X134638661Y-107991339D01*
X134404926Y-107799519D01*
X134138260Y-107656983D01*
X133848912Y-107569210D01*
X133548000Y-107539573D01*
X133247087Y-107569210D01*
X132957739Y-107656983D01*
X132691073Y-107799519D01*
X132457339Y-107991339D01*
X132265519Y-108225074D01*
X132122983Y-108491740D01*
X132035210Y-108781088D01*
X132013000Y-109006593D01*
X131275612Y-109006593D01*
X131276582Y-108182000D01*
X131270268Y-108117897D01*
X131251570Y-108056257D01*
X131221206Y-107999450D01*
X131180343Y-107949657D01*
X131130550Y-107908794D01*
X131073743Y-107878430D01*
X131012103Y-107859732D01*
X130948000Y-107853418D01*
X130502750Y-107855000D01*
X130421000Y-107936750D01*
X129675000Y-107936750D01*
X129593250Y-107855000D01*
X129148000Y-107853418D01*
X129083897Y-107859732D01*
X129022257Y-107878430D01*
X128965450Y-107908794D01*
X128915657Y-107949657D01*
X128874794Y-107999450D01*
X128844430Y-108056257D01*
X128825732Y-108117897D01*
X128819418Y-108182000D01*
X121518631Y-108182000D01*
X121342466Y-107918351D01*
X121081649Y-107657534D01*
X120774961Y-107452612D01*
X120434188Y-107311459D01*
X120072425Y-107239500D01*
X119703575Y-107239500D01*
X119341812Y-107311459D01*
X119001039Y-107452612D01*
X118694351Y-107657534D01*
X118433534Y-107918351D01*
X118228612Y-108225039D01*
X118087459Y-108565812D01*
X118015500Y-108927575D01*
X115976000Y-108927575D01*
X115976000Y-99336000D01*
X128819418Y-99336000D01*
X128825732Y-99400103D01*
X128844430Y-99461743D01*
X128874794Y-99518550D01*
X128915657Y-99568343D01*
X128965450Y-99609206D01*
X129022257Y-99639570D01*
X129083897Y-99658268D01*
X129148000Y-99664582D01*
X129593250Y-99663000D01*
X129675000Y-99581250D01*
X129675000Y-97909000D01*
X130421000Y-97909000D01*
X130421000Y-99581250D01*
X130502750Y-99663000D01*
X130948000Y-99664582D01*
X131012103Y-99658268D01*
X131073743Y-99639570D01*
X131130550Y-99609206D01*
X131180343Y-99568343D01*
X131221206Y-99518550D01*
X131251570Y-99461743D01*
X131270268Y-99400103D01*
X131276582Y-99336000D01*
X131275000Y-97990750D01*
X131193250Y-97909000D01*
X130421000Y-97909000D01*
X129675000Y-97909000D01*
X128902750Y-97909000D01*
X128821000Y-97990750D01*
X128819418Y-99336000D01*
X115976000Y-99336000D01*
X115976000Y-95736000D01*
X128819418Y-95736000D01*
X128821000Y-97081250D01*
X128902750Y-97163000D01*
X129675000Y-97163000D01*
X129675000Y-95490750D01*
X130421000Y-95490750D01*
X130421000Y-97163000D01*
X131193250Y-97163000D01*
X131275000Y-97081250D01*
X131275612Y-96560593D01*
X132013000Y-96560593D01*
X132013000Y-98511408D01*
X132035211Y-98736913D01*
X132122984Y-99026261D01*
X132265520Y-99292927D01*
X132457340Y-99526661D01*
X132691074Y-99718481D01*
X132957740Y-99861017D01*
X133247088Y-99948790D01*
X133548000Y-99978427D01*
X133848913Y-99948790D01*
X134138261Y-99861017D01*
X134404927Y-99718481D01*
X134638661Y-99526661D01*
X134830481Y-99292927D01*
X134973017Y-99026261D01*
X135060790Y-98736913D01*
X135083000Y-98511408D01*
X135083000Y-96560593D01*
X135513000Y-96560593D01*
X135513000Y-98511408D01*
X135535211Y-98736913D01*
X135622984Y-99026261D01*
X135765520Y-99292927D01*
X135957340Y-99526661D01*
X136191074Y-99718481D01*
X136457740Y-99861017D01*
X136747088Y-99948790D01*
X137048000Y-99978427D01*
X137348913Y-99948790D01*
X137638261Y-99861017D01*
X137904927Y-99718481D01*
X138138661Y-99526661D01*
X138295132Y-99336000D01*
X143551418Y-99336000D01*
X143557732Y-99400103D01*
X143576430Y-99461743D01*
X143606794Y-99518550D01*
X143647657Y-99568343D01*
X143697450Y-99609206D01*
X143754257Y-99639570D01*
X143815897Y-99658268D01*
X143880000Y-99664582D01*
X144325250Y-99663000D01*
X144407000Y-99581250D01*
X144407000Y-97909000D01*
X145153000Y-97909000D01*
X145153000Y-99581250D01*
X145234750Y-99663000D01*
X145680000Y-99664582D01*
X145744103Y-99658268D01*
X145805743Y-99639570D01*
X145862550Y-99609206D01*
X145912343Y-99568343D01*
X145953206Y-99518550D01*
X145983570Y-99461743D01*
X146002268Y-99400103D01*
X146008582Y-99336000D01*
X146007000Y-97990750D01*
X145925250Y-97909000D01*
X145153000Y-97909000D01*
X144407000Y-97909000D01*
X143634750Y-97909000D01*
X143553000Y-97990750D01*
X143551418Y-99336000D01*
X138295132Y-99336000D01*
X138330481Y-99292927D01*
X138473017Y-99026261D01*
X138560790Y-98736913D01*
X138583000Y-98511408D01*
X138583000Y-96560592D01*
X138560790Y-96335087D01*
X138473017Y-96045739D01*
X138330481Y-95779073D01*
X138295133Y-95736000D01*
X143551418Y-95736000D01*
X143553000Y-97081250D01*
X143634750Y-97163000D01*
X144407000Y-97163000D01*
X144407000Y-95490750D01*
X145153000Y-95490750D01*
X145153000Y-97163000D01*
X145925250Y-97163000D01*
X146007000Y-97081250D01*
X146007612Y-96560593D01*
X146745000Y-96560593D01*
X146745000Y-98511408D01*
X146767211Y-98736913D01*
X146854984Y-99026261D01*
X146997520Y-99292927D01*
X147189340Y-99526661D01*
X147423074Y-99718481D01*
X147689740Y-99861017D01*
X147979088Y-99948790D01*
X148280000Y-99978427D01*
X148580913Y-99948790D01*
X148870261Y-99861017D01*
X149136927Y-99718481D01*
X149370661Y-99526661D01*
X149562481Y-99292927D01*
X149705017Y-99026261D01*
X149792790Y-98736913D01*
X149815000Y-98511408D01*
X149815000Y-96560593D01*
X150245000Y-96560593D01*
X150245000Y-98511408D01*
X150267211Y-98736913D01*
X150354984Y-99026261D01*
X150497520Y-99292927D01*
X150689340Y-99526661D01*
X150923074Y-99718481D01*
X151189740Y-99861017D01*
X151479088Y-99948790D01*
X151780000Y-99978427D01*
X152080913Y-99948790D01*
X152370261Y-99861017D01*
X152636927Y-99718481D01*
X152870661Y-99526661D01*
X153027132Y-99336000D01*
X158283418Y-99336000D01*
X158289732Y-99400103D01*
X158308430Y-99461743D01*
X158338794Y-99518550D01*
X158379657Y-99568343D01*
X158429450Y-99609206D01*
X158486257Y-99639570D01*
X158547897Y-99658268D01*
X158612000Y-99664582D01*
X159057250Y-99663000D01*
X159139000Y-99581250D01*
X159139000Y-97909000D01*
X159885000Y-97909000D01*
X159885000Y-99581250D01*
X159966750Y-99663000D01*
X160412000Y-99664582D01*
X160476103Y-99658268D01*
X160537743Y-99639570D01*
X160594550Y-99609206D01*
X160644343Y-99568343D01*
X160685206Y-99518550D01*
X160715570Y-99461743D01*
X160734268Y-99400103D01*
X160740582Y-99336000D01*
X160739000Y-97990750D01*
X160657250Y-97909000D01*
X159885000Y-97909000D01*
X159139000Y-97909000D01*
X158366750Y-97909000D01*
X158285000Y-97990750D01*
X158283418Y-99336000D01*
X153027132Y-99336000D01*
X153062481Y-99292927D01*
X153205017Y-99026261D01*
X153292790Y-98736913D01*
X153315000Y-98511408D01*
X153315000Y-96560592D01*
X153292790Y-96335087D01*
X153205017Y-96045739D01*
X153062481Y-95779073D01*
X153027133Y-95736000D01*
X158283418Y-95736000D01*
X158285000Y-97081250D01*
X158366750Y-97163000D01*
X159139000Y-97163000D01*
X159139000Y-95490750D01*
X159885000Y-95490750D01*
X159885000Y-97163000D01*
X160657250Y-97163000D01*
X160739000Y-97081250D01*
X160739612Y-96560593D01*
X161477000Y-96560593D01*
X161477000Y-98511408D01*
X161499211Y-98736913D01*
X161586984Y-99026261D01*
X161729520Y-99292927D01*
X161921340Y-99526661D01*
X162155074Y-99718481D01*
X162421740Y-99861017D01*
X162711088Y-99948790D01*
X163012000Y-99978427D01*
X163312913Y-99948790D01*
X163602261Y-99861017D01*
X163868927Y-99718481D01*
X164102661Y-99526661D01*
X164294481Y-99292927D01*
X164437017Y-99026261D01*
X164524790Y-98736913D01*
X164547000Y-98511408D01*
X164547000Y-96560593D01*
X164977000Y-96560593D01*
X164977000Y-98511408D01*
X164999211Y-98736913D01*
X165086984Y-99026261D01*
X165229520Y-99292927D01*
X165421340Y-99526661D01*
X165655074Y-99718481D01*
X165921740Y-99861017D01*
X166211088Y-99948790D01*
X166512000Y-99978427D01*
X166812913Y-99948790D01*
X167102261Y-99861017D01*
X167368927Y-99718481D01*
X167602661Y-99526661D01*
X167794481Y-99292927D01*
X167937017Y-99026261D01*
X168024790Y-98736913D01*
X168047000Y-98511408D01*
X168047000Y-96560592D01*
X168024790Y-96335087D01*
X167937017Y-96045739D01*
X167794481Y-95779073D01*
X167602661Y-95545339D01*
X167368926Y-95353519D01*
X167102260Y-95210983D01*
X166812912Y-95123210D01*
X166512000Y-95093573D01*
X166211087Y-95123210D01*
X165921739Y-95210983D01*
X165655073Y-95353519D01*
X165421339Y-95545339D01*
X165229519Y-95779074D01*
X165086983Y-96045740D01*
X164999210Y-96335088D01*
X164977000Y-96560593D01*
X164547000Y-96560593D01*
X164547000Y-96560592D01*
X164524790Y-96335087D01*
X164437017Y-96045739D01*
X164294481Y-95779073D01*
X164102661Y-95545339D01*
X163868926Y-95353519D01*
X163602260Y-95210983D01*
X163312912Y-95123210D01*
X163012000Y-95093573D01*
X162711087Y-95123210D01*
X162421739Y-95210983D01*
X162155073Y-95353519D01*
X161921339Y-95545339D01*
X161729519Y-95779074D01*
X161586983Y-96045740D01*
X161499210Y-96335088D01*
X161477000Y-96560593D01*
X160739612Y-96560593D01*
X160740582Y-95736000D01*
X160734268Y-95671897D01*
X160715570Y-95610257D01*
X160685206Y-95553450D01*
X160644343Y-95503657D01*
X160594550Y-95462794D01*
X160537743Y-95432430D01*
X160476103Y-95413732D01*
X160412000Y-95407418D01*
X159966750Y-95409000D01*
X159885000Y-95490750D01*
X159139000Y-95490750D01*
X159057250Y-95409000D01*
X158612000Y-95407418D01*
X158547897Y-95413732D01*
X158486257Y-95432430D01*
X158429450Y-95462794D01*
X158379657Y-95503657D01*
X158338794Y-95553450D01*
X158308430Y-95610257D01*
X158289732Y-95671897D01*
X158283418Y-95736000D01*
X153027133Y-95736000D01*
X152870661Y-95545339D01*
X152636926Y-95353519D01*
X152370260Y-95210983D01*
X152080912Y-95123210D01*
X151780000Y-95093573D01*
X151479087Y-95123210D01*
X151189739Y-95210983D01*
X150923073Y-95353519D01*
X150689339Y-95545339D01*
X150497519Y-95779074D01*
X150354983Y-96045740D01*
X150267210Y-96335088D01*
X150245000Y-96560593D01*
X149815000Y-96560593D01*
X149815000Y-96560592D01*
X149792790Y-96335087D01*
X149705017Y-96045739D01*
X149562481Y-95779073D01*
X149370661Y-95545339D01*
X149136926Y-95353519D01*
X148870260Y-95210983D01*
X148580912Y-95123210D01*
X148280000Y-95093573D01*
X147979087Y-95123210D01*
X147689739Y-95210983D01*
X147423073Y-95353519D01*
X147189339Y-95545339D01*
X146997519Y-95779074D01*
X146854983Y-96045740D01*
X146767210Y-96335088D01*
X146745000Y-96560593D01*
X146007612Y-96560593D01*
X146008582Y-95736000D01*
X146002268Y-95671897D01*
X145983570Y-95610257D01*
X145953206Y-95553450D01*
X145912343Y-95503657D01*
X145862550Y-95462794D01*
X145805743Y-95432430D01*
X145744103Y-95413732D01*
X145680000Y-95407418D01*
X145234750Y-95409000D01*
X145153000Y-95490750D01*
X144407000Y-95490750D01*
X144325250Y-95409000D01*
X143880000Y-95407418D01*
X143815897Y-95413732D01*
X143754257Y-95432430D01*
X143697450Y-95462794D01*
X143647657Y-95503657D01*
X143606794Y-95553450D01*
X143576430Y-95610257D01*
X143557732Y-95671897D01*
X143551418Y-95736000D01*
X138295133Y-95736000D01*
X138138661Y-95545339D01*
X137904926Y-95353519D01*
X137638260Y-95210983D01*
X137348912Y-95123210D01*
X137048000Y-95093573D01*
X136747087Y-95123210D01*
X136457739Y-95210983D01*
X136191073Y-95353519D01*
X135957339Y-95545339D01*
X135765519Y-95779074D01*
X135622983Y-96045740D01*
X135535210Y-96335088D01*
X135513000Y-96560593D01*
X135083000Y-96560593D01*
X135083000Y-96560592D01*
X135060790Y-96335087D01*
X134973017Y-96045739D01*
X134830481Y-95779073D01*
X134638661Y-95545339D01*
X134404926Y-95353519D01*
X134138260Y-95210983D01*
X133848912Y-95123210D01*
X133548000Y-95093573D01*
X133247087Y-95123210D01*
X132957739Y-95210983D01*
X132691073Y-95353519D01*
X132457339Y-95545339D01*
X132265519Y-95779074D01*
X132122983Y-96045740D01*
X132035210Y-96335088D01*
X132013000Y-96560593D01*
X131275612Y-96560593D01*
X131276582Y-95736000D01*
X131270268Y-95671897D01*
X131251570Y-95610257D01*
X131221206Y-95553450D01*
X131180343Y-95503657D01*
X131130550Y-95462794D01*
X131073743Y-95432430D01*
X131012103Y-95413732D01*
X130948000Y-95407418D01*
X130502750Y-95409000D01*
X130421000Y-95490750D01*
X129675000Y-95490750D01*
X129593250Y-95409000D01*
X129148000Y-95407418D01*
X129083897Y-95413732D01*
X129022257Y-95432430D01*
X128965450Y-95462794D01*
X128915657Y-95503657D01*
X128874794Y-95553450D01*
X128844430Y-95610257D01*
X128825732Y-95671897D01*
X128819418Y-95736000D01*
X115976000Y-95736000D01*
X115976000Y-92950000D01*
X118561928Y-92950000D01*
X118561928Y-94550000D01*
X118574188Y-94674482D01*
X118610498Y-94794180D01*
X118669463Y-94904494D01*
X118748815Y-95001185D01*
X118845506Y-95080537D01*
X118955820Y-95139502D01*
X119075518Y-95175812D01*
X119200000Y-95188072D01*
X120800000Y-95188072D01*
X120924482Y-95175812D01*
X121044180Y-95139502D01*
X121154494Y-95080537D01*
X121251185Y-95001185D01*
X121330537Y-94904494D01*
X121389502Y-94794180D01*
X121415547Y-94708318D01*
X123069183Y-94708318D01*
X123173266Y-94834295D01*
X123391080Y-94877203D01*
X123613080Y-94876794D01*
X123826734Y-94834295D01*
X123930817Y-94708318D01*
X123500000Y-94277502D01*
X123069183Y-94708318D01*
X121415547Y-94708318D01*
X121425812Y-94674482D01*
X121438072Y-94550000D01*
X121438072Y-93641080D01*
X122372797Y-93641080D01*
X122373206Y-93863080D01*
X122415705Y-94076734D01*
X122541682Y-94180817D01*
X122972498Y-93750000D01*
X124027502Y-93750000D01*
X124458318Y-94180817D01*
X124584295Y-94076734D01*
X124627203Y-93858920D01*
X124626794Y-93636920D01*
X124584295Y-93423266D01*
X124458318Y-93319183D01*
X124027502Y-93750000D01*
X122972498Y-93750000D01*
X122541682Y-93319183D01*
X122415705Y-93423266D01*
X122372797Y-93641080D01*
X121438072Y-93641080D01*
X121438072Y-92950000D01*
X121425812Y-92825518D01*
X121415548Y-92791682D01*
X123069183Y-92791682D01*
X123500000Y-93222498D01*
X123930817Y-92791682D01*
X123826734Y-92665705D01*
X123608920Y-92622797D01*
X123386920Y-92623206D01*
X123173266Y-92665705D01*
X123069183Y-92791682D01*
X121415548Y-92791682D01*
X121389502Y-92705820D01*
X121330537Y-92595506D01*
X121251185Y-92498815D01*
X121154494Y-92419463D01*
X121044180Y-92360498D01*
X120924482Y-92324188D01*
X120800000Y-92311928D01*
X119200000Y-92311928D01*
X119075518Y-92324188D01*
X118955820Y-92360498D01*
X118845506Y-92419463D01*
X118748815Y-92498815D01*
X118669463Y-92595506D01*
X118610498Y-92705820D01*
X118574188Y-92825518D01*
X118561928Y-92950000D01*
X115976000Y-92950000D01*
X115976000Y-89624000D01*
X132927928Y-89624000D01*
X132927928Y-91224000D01*
X132940188Y-91348482D01*
X132976498Y-91468180D01*
X133035463Y-91578494D01*
X133114815Y-91675185D01*
X133211506Y-91754537D01*
X133321820Y-91813502D01*
X133441518Y-91849812D01*
X133566000Y-91862072D01*
X135166000Y-91862072D01*
X135290482Y-91849812D01*
X135410180Y-91813502D01*
X135520494Y-91754537D01*
X135617185Y-91675185D01*
X135696537Y-91578494D01*
X135755502Y-91468180D01*
X135791812Y-91348482D01*
X135792643Y-91340039D01*
X135991241Y-91538637D01*
X136226273Y-91695680D01*
X136487426Y-91803853D01*
X136764665Y-91859000D01*
X137047335Y-91859000D01*
X137324574Y-91803853D01*
X137585727Y-91695680D01*
X137820759Y-91538637D01*
X138020637Y-91338759D01*
X138176000Y-91106241D01*
X138331363Y-91338759D01*
X138531241Y-91538637D01*
X138766273Y-91695680D01*
X139027426Y-91803853D01*
X139304665Y-91859000D01*
X139587335Y-91859000D01*
X139864574Y-91803853D01*
X140125727Y-91695680D01*
X140360759Y-91538637D01*
X140560637Y-91338759D01*
X140716000Y-91106241D01*
X140871363Y-91338759D01*
X141071241Y-91538637D01*
X141306273Y-91695680D01*
X141567426Y-91803853D01*
X141844665Y-91859000D01*
X142127335Y-91859000D01*
X142404574Y-91803853D01*
X142665727Y-91695680D01*
X142900759Y-91538637D01*
X143100637Y-91338759D01*
X143256000Y-91106241D01*
X143411363Y-91338759D01*
X143611241Y-91538637D01*
X143846273Y-91695680D01*
X144107426Y-91803853D01*
X144384665Y-91859000D01*
X144667335Y-91859000D01*
X144944574Y-91803853D01*
X145205727Y-91695680D01*
X145440759Y-91538637D01*
X145640637Y-91338759D01*
X145796000Y-91106241D01*
X145951363Y-91338759D01*
X146151241Y-91538637D01*
X146386273Y-91695680D01*
X146647426Y-91803853D01*
X146924665Y-91859000D01*
X147207335Y-91859000D01*
X147484574Y-91803853D01*
X147745727Y-91695680D01*
X147980759Y-91538637D01*
X148180637Y-91338759D01*
X148336000Y-91106241D01*
X148491363Y-91338759D01*
X148691241Y-91538637D01*
X148926273Y-91695680D01*
X149187426Y-91803853D01*
X149464665Y-91859000D01*
X149747335Y-91859000D01*
X150024574Y-91803853D01*
X150285727Y-91695680D01*
X150520759Y-91538637D01*
X150720637Y-91338759D01*
X150876000Y-91106241D01*
X151031363Y-91338759D01*
X151231241Y-91538637D01*
X151466273Y-91695680D01*
X151727426Y-91803853D01*
X152004665Y-91859000D01*
X152287335Y-91859000D01*
X152564574Y-91803853D01*
X152825727Y-91695680D01*
X153060759Y-91538637D01*
X153260637Y-91338759D01*
X153417680Y-91103727D01*
X153525853Y-90842574D01*
X153581000Y-90565335D01*
X153581000Y-90282665D01*
X153525853Y-90005426D01*
X153417680Y-89744273D01*
X153337317Y-89624000D01*
X154517928Y-89624000D01*
X154517928Y-91224000D01*
X154530188Y-91348482D01*
X154566498Y-91468180D01*
X154625463Y-91578494D01*
X154704815Y-91675185D01*
X154801506Y-91754537D01*
X154911820Y-91813502D01*
X155031518Y-91849812D01*
X155156000Y-91862072D01*
X156756000Y-91862072D01*
X156880482Y-91849812D01*
X157000180Y-91813502D01*
X157110494Y-91754537D01*
X157207185Y-91675185D01*
X157286537Y-91578494D01*
X157345502Y-91468180D01*
X157381812Y-91348482D01*
X157382643Y-91340039D01*
X157581241Y-91538637D01*
X157816273Y-91695680D01*
X158077426Y-91803853D01*
X158354665Y-91859000D01*
X158637335Y-91859000D01*
X158914574Y-91803853D01*
X159175727Y-91695680D01*
X159410759Y-91538637D01*
X159610637Y-91338759D01*
X159766000Y-91106241D01*
X159921363Y-91338759D01*
X160121241Y-91538637D01*
X160356273Y-91695680D01*
X160617426Y-91803853D01*
X160894665Y-91859000D01*
X161177335Y-91859000D01*
X161454574Y-91803853D01*
X161715727Y-91695680D01*
X161950759Y-91538637D01*
X162150637Y-91338759D01*
X162306000Y-91106241D01*
X162461363Y-91338759D01*
X162661241Y-91538637D01*
X162896273Y-91695680D01*
X163157426Y-91803853D01*
X163434665Y-91859000D01*
X163717335Y-91859000D01*
X163994574Y-91803853D01*
X164255727Y-91695680D01*
X164490759Y-91538637D01*
X164690637Y-91338759D01*
X164846000Y-91106241D01*
X165001363Y-91338759D01*
X165201241Y-91538637D01*
X165436273Y-91695680D01*
X165697426Y-91803853D01*
X165974665Y-91859000D01*
X166257335Y-91859000D01*
X166534574Y-91803853D01*
X166795727Y-91695680D01*
X167030759Y-91538637D01*
X167230637Y-91338759D01*
X167386000Y-91106241D01*
X167541363Y-91338759D01*
X167741241Y-91538637D01*
X167976273Y-91695680D01*
X168237426Y-91803853D01*
X168514665Y-91859000D01*
X168797335Y-91859000D01*
X169074574Y-91803853D01*
X169335727Y-91695680D01*
X169570759Y-91538637D01*
X169770637Y-91338759D01*
X169926000Y-91106241D01*
X170081363Y-91338759D01*
X170281241Y-91538637D01*
X170516273Y-91695680D01*
X170777426Y-91803853D01*
X171054665Y-91859000D01*
X171337335Y-91859000D01*
X171614574Y-91803853D01*
X171875727Y-91695680D01*
X172110759Y-91538637D01*
X172310637Y-91338759D01*
X172466000Y-91106241D01*
X172621363Y-91338759D01*
X172821241Y-91538637D01*
X173056273Y-91695680D01*
X173317426Y-91803853D01*
X173594665Y-91859000D01*
X173877335Y-91859000D01*
X174154574Y-91803853D01*
X174415727Y-91695680D01*
X174650759Y-91538637D01*
X174850637Y-91338759D01*
X175007680Y-91103727D01*
X175115853Y-90842574D01*
X175171000Y-90565335D01*
X175171000Y-90282665D01*
X175115853Y-90005426D01*
X175007680Y-89744273D01*
X174850637Y-89509241D01*
X174650759Y-89309363D01*
X174415727Y-89152320D01*
X174154574Y-89044147D01*
X173877335Y-88989000D01*
X173594665Y-88989000D01*
X173317426Y-89044147D01*
X173056273Y-89152320D01*
X172821241Y-89309363D01*
X172621363Y-89509241D01*
X172466000Y-89741759D01*
X172310637Y-89509241D01*
X172110759Y-89309363D01*
X171875727Y-89152320D01*
X171614574Y-89044147D01*
X171337335Y-88989000D01*
X171054665Y-88989000D01*
X170777426Y-89044147D01*
X170516273Y-89152320D01*
X170281241Y-89309363D01*
X170081363Y-89509241D01*
X169926000Y-89741759D01*
X169770637Y-89509241D01*
X169570759Y-89309363D01*
X169335727Y-89152320D01*
X169074574Y-89044147D01*
X168797335Y-88989000D01*
X168514665Y-88989000D01*
X168237426Y-89044147D01*
X167976273Y-89152320D01*
X167741241Y-89309363D01*
X167541363Y-89509241D01*
X167386000Y-89741759D01*
X167230637Y-89509241D01*
X167030759Y-89309363D01*
X166795727Y-89152320D01*
X166534574Y-89044147D01*
X166257335Y-88989000D01*
X165974665Y-88989000D01*
X165697426Y-89044147D01*
X165436273Y-89152320D01*
X165201241Y-89309363D01*
X165001363Y-89509241D01*
X164846000Y-89741759D01*
X164690637Y-89509241D01*
X164490759Y-89309363D01*
X164255727Y-89152320D01*
X163994574Y-89044147D01*
X163717335Y-88989000D01*
X163434665Y-88989000D01*
X163157426Y-89044147D01*
X162896273Y-89152320D01*
X162661241Y-89309363D01*
X162461363Y-89509241D01*
X162306000Y-89741759D01*
X162150637Y-89509241D01*
X161950759Y-89309363D01*
X161715727Y-89152320D01*
X161454574Y-89044147D01*
X161177335Y-88989000D01*
X160894665Y-88989000D01*
X160617426Y-89044147D01*
X160356273Y-89152320D01*
X160121241Y-89309363D01*
X159921363Y-89509241D01*
X159766000Y-89741759D01*
X159610637Y-89509241D01*
X159410759Y-89309363D01*
X159175727Y-89152320D01*
X158914574Y-89044147D01*
X158637335Y-88989000D01*
X158354665Y-88989000D01*
X158077426Y-89044147D01*
X157816273Y-89152320D01*
X157581241Y-89309363D01*
X157382643Y-89507961D01*
X157381812Y-89499518D01*
X157345502Y-89379820D01*
X157286537Y-89269506D01*
X157207185Y-89172815D01*
X157110494Y-89093463D01*
X157000180Y-89034498D01*
X156880482Y-88998188D01*
X156756000Y-88985928D01*
X155156000Y-88985928D01*
X155031518Y-88998188D01*
X154911820Y-89034498D01*
X154801506Y-89093463D01*
X154704815Y-89172815D01*
X154625463Y-89269506D01*
X154566498Y-89379820D01*
X154530188Y-89499518D01*
X154517928Y-89624000D01*
X153337317Y-89624000D01*
X153260637Y-89509241D01*
X153060759Y-89309363D01*
X152825727Y-89152320D01*
X152564574Y-89044147D01*
X152287335Y-88989000D01*
X152004665Y-88989000D01*
X151727426Y-89044147D01*
X151466273Y-89152320D01*
X151231241Y-89309363D01*
X151031363Y-89509241D01*
X150876000Y-89741759D01*
X150720637Y-89509241D01*
X150520759Y-89309363D01*
X150285727Y-89152320D01*
X150024574Y-89044147D01*
X149747335Y-88989000D01*
X149464665Y-88989000D01*
X149187426Y-89044147D01*
X148926273Y-89152320D01*
X148691241Y-89309363D01*
X148491363Y-89509241D01*
X148336000Y-89741759D01*
X148180637Y-89509241D01*
X147980759Y-89309363D01*
X147745727Y-89152320D01*
X147484574Y-89044147D01*
X147207335Y-88989000D01*
X146924665Y-88989000D01*
X146647426Y-89044147D01*
X146386273Y-89152320D01*
X146151241Y-89309363D01*
X145951363Y-89509241D01*
X145796000Y-89741759D01*
X145640637Y-89509241D01*
X145440759Y-89309363D01*
X145205727Y-89152320D01*
X144944574Y-89044147D01*
X144667335Y-88989000D01*
X144384665Y-88989000D01*
X144107426Y-89044147D01*
X143846273Y-89152320D01*
X143611241Y-89309363D01*
X143411363Y-89509241D01*
X143256000Y-89741759D01*
X143100637Y-89509241D01*
X142900759Y-89309363D01*
X142665727Y-89152320D01*
X142404574Y-89044147D01*
X142127335Y-88989000D01*
X141844665Y-88989000D01*
X141567426Y-89044147D01*
X141306273Y-89152320D01*
X141071241Y-89309363D01*
X140871363Y-89509241D01*
X140716000Y-89741759D01*
X140560637Y-89509241D01*
X140360759Y-89309363D01*
X140125727Y-89152320D01*
X139864574Y-89044147D01*
X139587335Y-88989000D01*
X139304665Y-88989000D01*
X139027426Y-89044147D01*
X138766273Y-89152320D01*
X138531241Y-89309363D01*
X138331363Y-89509241D01*
X138176000Y-89741759D01*
X138020637Y-89509241D01*
X137820759Y-89309363D01*
X137585727Y-89152320D01*
X137324574Y-89044147D01*
X137047335Y-88989000D01*
X136764665Y-88989000D01*
X136487426Y-89044147D01*
X136226273Y-89152320D01*
X135991241Y-89309363D01*
X135792643Y-89507961D01*
X135791812Y-89499518D01*
X135755502Y-89379820D01*
X135696537Y-89269506D01*
X135617185Y-89172815D01*
X135520494Y-89093463D01*
X135410180Y-89034498D01*
X135290482Y-88998188D01*
X135166000Y-88985928D01*
X133566000Y-88985928D01*
X133441518Y-88998188D01*
X133321820Y-89034498D01*
X133211506Y-89093463D01*
X133114815Y-89172815D01*
X133035463Y-89269506D01*
X132976498Y-89379820D01*
X132940188Y-89499518D01*
X132927928Y-89624000D01*
X115976000Y-89624000D01*
X115976000Y-85150000D01*
X120261928Y-85150000D01*
X120261928Y-86850000D01*
X120274188Y-86974482D01*
X120310498Y-87094180D01*
X120369463Y-87204494D01*
X120448815Y-87301185D01*
X120545506Y-87380537D01*
X120655820Y-87439502D01*
X120775518Y-87475812D01*
X120900000Y-87488072D01*
X122600000Y-87488072D01*
X122724482Y-87475812D01*
X122844180Y-87439502D01*
X122954494Y-87380537D01*
X123051185Y-87301185D01*
X123130537Y-87204494D01*
X123189502Y-87094180D01*
X123225812Y-86974482D01*
X123238072Y-86850000D01*
X123238072Y-85954816D01*
X126989000Y-85954816D01*
X126989000Y-86257184D01*
X127047989Y-86553743D01*
X127163701Y-86833095D01*
X127331688Y-87084505D01*
X127545495Y-87298312D01*
X127796905Y-87466299D01*
X128076257Y-87582011D01*
X128372816Y-87641000D01*
X128675184Y-87641000D01*
X128971743Y-87582011D01*
X129251095Y-87466299D01*
X129502505Y-87298312D01*
X129568944Y-87231873D01*
X129574498Y-87250180D01*
X129633463Y-87360494D01*
X129712815Y-87457185D01*
X129809506Y-87536537D01*
X129919820Y-87595502D01*
X130039518Y-87631812D01*
X130164000Y-87644072D01*
X131964000Y-87644072D01*
X132088482Y-87631812D01*
X132208180Y-87595502D01*
X132318494Y-87536537D01*
X132415185Y-87457185D01*
X132494537Y-87360494D01*
X132553502Y-87250180D01*
X132589812Y-87130482D01*
X132590643Y-87122039D01*
X132689241Y-87220637D01*
X132924273Y-87377680D01*
X133185426Y-87485853D01*
X133462665Y-87541000D01*
X133745335Y-87541000D01*
X134022574Y-87485853D01*
X134283727Y-87377680D01*
X134518759Y-87220637D01*
X134718637Y-87020759D01*
X134875680Y-86785727D01*
X134935721Y-86640773D01*
X140231958Y-86640773D01*
X140350285Y-86817895D01*
X140505957Y-86974669D01*
X140689223Y-87098061D01*
X140851000Y-87087755D01*
X140851000Y-86479000D01*
X141597000Y-86479000D01*
X141597000Y-87087755D01*
X141758777Y-87098061D01*
X141942043Y-86974669D01*
X142097715Y-86817895D01*
X142148640Y-86741665D01*
X144513300Y-86741665D01*
X144513300Y-86994335D01*
X144562594Y-87242150D01*
X144659286Y-87475586D01*
X144799662Y-87685673D01*
X144978327Y-87864338D01*
X145188414Y-88004714D01*
X145421850Y-88101406D01*
X145669665Y-88150700D01*
X145922335Y-88150700D01*
X146170150Y-88101406D01*
X146403586Y-88004714D01*
X146613673Y-87864338D01*
X146792338Y-87685673D01*
X146932714Y-87475586D01*
X147029406Y-87242150D01*
X147066000Y-87058182D01*
X147102594Y-87242150D01*
X147199286Y-87475586D01*
X147339662Y-87685673D01*
X147518327Y-87864338D01*
X147728414Y-88004714D01*
X147961850Y-88101406D01*
X148209665Y-88150700D01*
X148462335Y-88150700D01*
X148710150Y-88101406D01*
X148943586Y-88004714D01*
X149153673Y-87864338D01*
X149332338Y-87685673D01*
X149472714Y-87475586D01*
X149569406Y-87242150D01*
X149606000Y-87058182D01*
X149642594Y-87242150D01*
X149739286Y-87475586D01*
X149879662Y-87685673D01*
X150058327Y-87864338D01*
X150268414Y-88004714D01*
X150501850Y-88101406D01*
X150749665Y-88150700D01*
X151002335Y-88150700D01*
X151250150Y-88101406D01*
X151483586Y-88004714D01*
X151693673Y-87864338D01*
X151872338Y-87685673D01*
X152012714Y-87475586D01*
X152109406Y-87242150D01*
X152146000Y-87058182D01*
X152182594Y-87242150D01*
X152279286Y-87475586D01*
X152419662Y-87685673D01*
X152598327Y-87864338D01*
X152808414Y-88004714D01*
X153041850Y-88101406D01*
X153289665Y-88150700D01*
X153542335Y-88150700D01*
X153790150Y-88101406D01*
X154023586Y-88004714D01*
X154233673Y-87864338D01*
X154412338Y-87685673D01*
X154552714Y-87475586D01*
X154649406Y-87242150D01*
X154686000Y-87058182D01*
X154722594Y-87242150D01*
X154819286Y-87475586D01*
X154959662Y-87685673D01*
X155138327Y-87864338D01*
X155348414Y-88004714D01*
X155581850Y-88101406D01*
X155829665Y-88150700D01*
X156082335Y-88150700D01*
X156330150Y-88101406D01*
X156563586Y-88004714D01*
X156773673Y-87864338D01*
X156952338Y-87685673D01*
X157092714Y-87475586D01*
X157189406Y-87242150D01*
X157226000Y-87058182D01*
X157262594Y-87242150D01*
X157359286Y-87475586D01*
X157499662Y-87685673D01*
X157678327Y-87864338D01*
X157888414Y-88004714D01*
X158121850Y-88101406D01*
X158369665Y-88150700D01*
X158622335Y-88150700D01*
X158870150Y-88101406D01*
X159103586Y-88004714D01*
X159313673Y-87864338D01*
X159492338Y-87685673D01*
X159632714Y-87475586D01*
X159729406Y-87242150D01*
X159766000Y-87058182D01*
X159802594Y-87242150D01*
X159899286Y-87475586D01*
X160039662Y-87685673D01*
X160218327Y-87864338D01*
X160428414Y-88004714D01*
X160661850Y-88101406D01*
X160909665Y-88150700D01*
X161162335Y-88150700D01*
X161410150Y-88101406D01*
X161643586Y-88004714D01*
X161853673Y-87864338D01*
X162032338Y-87685673D01*
X162172714Y-87475586D01*
X162269406Y-87242150D01*
X162306000Y-87058182D01*
X162342594Y-87242150D01*
X162439286Y-87475586D01*
X162579662Y-87685673D01*
X162758327Y-87864338D01*
X162968414Y-88004714D01*
X163201850Y-88101406D01*
X163449665Y-88150700D01*
X163702335Y-88150700D01*
X163950150Y-88101406D01*
X164183586Y-88004714D01*
X164393673Y-87864338D01*
X164548906Y-87709105D01*
X165802397Y-87709105D01*
X165885461Y-87819896D01*
X166075596Y-87846582D01*
X166267284Y-87835661D01*
X166346539Y-87819896D01*
X166429603Y-87709105D01*
X166116000Y-87395502D01*
X165802397Y-87709105D01*
X164548906Y-87709105D01*
X164572338Y-87685673D01*
X164712714Y-87475586D01*
X164809406Y-87242150D01*
X164858700Y-86994335D01*
X164858700Y-86827596D01*
X165137418Y-86827596D01*
X165148339Y-87019284D01*
X165164104Y-87098539D01*
X165274895Y-87181603D01*
X165588498Y-86868000D01*
X166643502Y-86868000D01*
X166957105Y-87181603D01*
X167067896Y-87098539D01*
X167094582Y-86908404D01*
X167085083Y-86741665D01*
X167373300Y-86741665D01*
X167373300Y-86994335D01*
X167422594Y-87242150D01*
X167519286Y-87475586D01*
X167659662Y-87685673D01*
X167838327Y-87864338D01*
X168048414Y-88004714D01*
X168281850Y-88101406D01*
X168529665Y-88150700D01*
X168782335Y-88150700D01*
X169030150Y-88101406D01*
X169263586Y-88004714D01*
X169473673Y-87864338D01*
X169652338Y-87685673D01*
X169792714Y-87475586D01*
X169889406Y-87242150D01*
X169938700Y-86994335D01*
X169938700Y-86741665D01*
X169889406Y-86493850D01*
X169792714Y-86260414D01*
X169652338Y-86050327D01*
X169473673Y-85871662D01*
X169263586Y-85731286D01*
X169030150Y-85634594D01*
X168782335Y-85585300D01*
X168529665Y-85585300D01*
X168281850Y-85634594D01*
X168048414Y-85731286D01*
X167838327Y-85871662D01*
X167659662Y-86050327D01*
X167519286Y-86260414D01*
X167422594Y-86493850D01*
X167373300Y-86741665D01*
X167085083Y-86741665D01*
X167083661Y-86716716D01*
X167067896Y-86637461D01*
X166957105Y-86554397D01*
X166643502Y-86868000D01*
X165588498Y-86868000D01*
X165274895Y-86554397D01*
X165164104Y-86637461D01*
X165137418Y-86827596D01*
X164858700Y-86827596D01*
X164858700Y-86741665D01*
X164809406Y-86493850D01*
X164712714Y-86260414D01*
X164572338Y-86050327D01*
X164548906Y-86026895D01*
X165802397Y-86026895D01*
X166116000Y-86340498D01*
X166429603Y-86026895D01*
X166346539Y-85916104D01*
X166156404Y-85889418D01*
X165964716Y-85900339D01*
X165885461Y-85916104D01*
X165802397Y-86026895D01*
X164548906Y-86026895D01*
X164393673Y-85871662D01*
X164183586Y-85731286D01*
X163950150Y-85634594D01*
X163702335Y-85585300D01*
X163449665Y-85585300D01*
X163201850Y-85634594D01*
X162968414Y-85731286D01*
X162758327Y-85871662D01*
X162579662Y-86050327D01*
X162439286Y-86260414D01*
X162342594Y-86493850D01*
X162306000Y-86677818D01*
X162269406Y-86493850D01*
X162172714Y-86260414D01*
X162032338Y-86050327D01*
X161853673Y-85871662D01*
X161643586Y-85731286D01*
X161410150Y-85634594D01*
X161162335Y-85585300D01*
X160909665Y-85585300D01*
X160661850Y-85634594D01*
X160428414Y-85731286D01*
X160218327Y-85871662D01*
X160039662Y-86050327D01*
X159899286Y-86260414D01*
X159802594Y-86493850D01*
X159766000Y-86677818D01*
X159729406Y-86493850D01*
X159632714Y-86260414D01*
X159492338Y-86050327D01*
X159313673Y-85871662D01*
X159103586Y-85731286D01*
X158870150Y-85634594D01*
X158622335Y-85585300D01*
X158369665Y-85585300D01*
X158121850Y-85634594D01*
X157888414Y-85731286D01*
X157678327Y-85871662D01*
X157499662Y-86050327D01*
X157359286Y-86260414D01*
X157262594Y-86493850D01*
X157226000Y-86677818D01*
X157189406Y-86493850D01*
X157092714Y-86260414D01*
X156952338Y-86050327D01*
X156773673Y-85871662D01*
X156563586Y-85731286D01*
X156330150Y-85634594D01*
X156082335Y-85585300D01*
X155829665Y-85585300D01*
X155581850Y-85634594D01*
X155348414Y-85731286D01*
X155138327Y-85871662D01*
X154959662Y-86050327D01*
X154819286Y-86260414D01*
X154722594Y-86493850D01*
X154686000Y-86677818D01*
X154649406Y-86493850D01*
X154552714Y-86260414D01*
X154412338Y-86050327D01*
X154233673Y-85871662D01*
X154023586Y-85731286D01*
X153790150Y-85634594D01*
X153542335Y-85585300D01*
X153289665Y-85585300D01*
X153041850Y-85634594D01*
X152808414Y-85731286D01*
X152598327Y-85871662D01*
X152419662Y-86050327D01*
X152279286Y-86260414D01*
X152182594Y-86493850D01*
X152146000Y-86677818D01*
X152109406Y-86493850D01*
X152012714Y-86260414D01*
X151872338Y-86050327D01*
X151693673Y-85871662D01*
X151483586Y-85731286D01*
X151250150Y-85634594D01*
X151002335Y-85585300D01*
X150749665Y-85585300D01*
X150501850Y-85634594D01*
X150268414Y-85731286D01*
X150058327Y-85871662D01*
X149879662Y-86050327D01*
X149739286Y-86260414D01*
X149642594Y-86493850D01*
X149606000Y-86677818D01*
X149569406Y-86493850D01*
X149472714Y-86260414D01*
X149332338Y-86050327D01*
X149153673Y-85871662D01*
X148943586Y-85731286D01*
X148710150Y-85634594D01*
X148462335Y-85585300D01*
X148209665Y-85585300D01*
X147961850Y-85634594D01*
X147728414Y-85731286D01*
X147518327Y-85871662D01*
X147339662Y-86050327D01*
X147199286Y-86260414D01*
X147102594Y-86493850D01*
X147066000Y-86677818D01*
X147029406Y-86493850D01*
X146932714Y-86260414D01*
X146792338Y-86050327D01*
X146613673Y-85871662D01*
X146403586Y-85731286D01*
X146170150Y-85634594D01*
X145922335Y-85585300D01*
X145669665Y-85585300D01*
X145421850Y-85634594D01*
X145188414Y-85731286D01*
X144978327Y-85871662D01*
X144799662Y-86050327D01*
X144659286Y-86260414D01*
X144562594Y-86493850D01*
X144513300Y-86741665D01*
X142148640Y-86741665D01*
X142216042Y-86640773D01*
X142200432Y-86479000D01*
X141597000Y-86479000D01*
X140851000Y-86479000D01*
X140247568Y-86479000D01*
X140231958Y-86640773D01*
X134935721Y-86640773D01*
X134983853Y-86524574D01*
X135039000Y-86247335D01*
X135039000Y-85964665D01*
X134983853Y-85687426D01*
X134935722Y-85571227D01*
X140231958Y-85571227D01*
X140247568Y-85733000D01*
X140851000Y-85733000D01*
X140851000Y-85124245D01*
X141597000Y-85124245D01*
X141597000Y-85733000D01*
X142200432Y-85733000D01*
X142216042Y-85571227D01*
X142139509Y-85456665D01*
X171793000Y-85456665D01*
X171793000Y-85739335D01*
X171848147Y-86016574D01*
X171956320Y-86277727D01*
X172113363Y-86512759D01*
X172313241Y-86712637D01*
X172548273Y-86869680D01*
X172809426Y-86977853D01*
X173086665Y-87033000D01*
X173369335Y-87033000D01*
X173646574Y-86977853D01*
X173907727Y-86869680D01*
X174142759Y-86712637D01*
X174342637Y-86512759D01*
X174499680Y-86277727D01*
X174607853Y-86016574D01*
X174663000Y-85739335D01*
X174663000Y-85456665D01*
X174607853Y-85179426D01*
X174499680Y-84918273D01*
X174342637Y-84683241D01*
X174142759Y-84483363D01*
X173907727Y-84326320D01*
X173646574Y-84218147D01*
X173369335Y-84163000D01*
X173086665Y-84163000D01*
X172809426Y-84218147D01*
X172548273Y-84326320D01*
X172313241Y-84483363D01*
X172113363Y-84683241D01*
X171956320Y-84918273D01*
X171848147Y-85179426D01*
X171793000Y-85456665D01*
X142139509Y-85456665D01*
X142097715Y-85394105D01*
X141942043Y-85237331D01*
X141758777Y-85113939D01*
X141597000Y-85124245D01*
X140851000Y-85124245D01*
X140689223Y-85113939D01*
X140505957Y-85237331D01*
X140350285Y-85394105D01*
X140231958Y-85571227D01*
X134935722Y-85571227D01*
X134875680Y-85426273D01*
X134718637Y-85191241D01*
X134518759Y-84991363D01*
X134283727Y-84834320D01*
X134022574Y-84726147D01*
X133745335Y-84671000D01*
X133462665Y-84671000D01*
X133185426Y-84726147D01*
X132924273Y-84834320D01*
X132689241Y-84991363D01*
X132590643Y-85089961D01*
X132589812Y-85081518D01*
X132553502Y-84961820D01*
X132494537Y-84851506D01*
X132415185Y-84754815D01*
X132318494Y-84675463D01*
X132208180Y-84616498D01*
X132088482Y-84580188D01*
X131964000Y-84567928D01*
X130164000Y-84567928D01*
X130039518Y-84580188D01*
X129919820Y-84616498D01*
X129809506Y-84675463D01*
X129712815Y-84754815D01*
X129633463Y-84851506D01*
X129574498Y-84961820D01*
X129568944Y-84980127D01*
X129502505Y-84913688D01*
X129251095Y-84745701D01*
X128971743Y-84629989D01*
X128675184Y-84571000D01*
X128372816Y-84571000D01*
X128076257Y-84629989D01*
X127796905Y-84745701D01*
X127545495Y-84913688D01*
X127331688Y-85127495D01*
X127163701Y-85378905D01*
X127047989Y-85658257D01*
X126989000Y-85954816D01*
X123238072Y-85954816D01*
X123238072Y-85150000D01*
X123225812Y-85025518D01*
X123189502Y-84905820D01*
X123130537Y-84795506D01*
X123051185Y-84698815D01*
X122954494Y-84619463D01*
X122844180Y-84560498D01*
X122771620Y-84538487D01*
X122903475Y-84406632D01*
X123065990Y-84163411D01*
X123177932Y-83893158D01*
X123235000Y-83606260D01*
X123235000Y-83313740D01*
X123177932Y-83026842D01*
X123065990Y-82756589D01*
X122903475Y-82513368D01*
X122696632Y-82306525D01*
X122522240Y-82190000D01*
X122696632Y-82073475D01*
X122903475Y-81866632D01*
X123065990Y-81623411D01*
X123177932Y-81353158D01*
X123235000Y-81066260D01*
X123235000Y-80773740D01*
X123177932Y-80486842D01*
X123065990Y-80216589D01*
X122903475Y-79973368D01*
X122696632Y-79766525D01*
X122453411Y-79604010D01*
X122183158Y-79492068D01*
X121896260Y-79435000D01*
X121603740Y-79435000D01*
X121316842Y-79492068D01*
X121046589Y-79604010D01*
X120803368Y-79766525D01*
X120596525Y-79973368D01*
X120434010Y-80216589D01*
X120322068Y-80486842D01*
X120265000Y-80773740D01*
X120265000Y-81066260D01*
X120322068Y-81353158D01*
X120434010Y-81623411D01*
X120596525Y-81866632D01*
X120803368Y-82073475D01*
X120977760Y-82190000D01*
X120803368Y-82306525D01*
X120596525Y-82513368D01*
X120434010Y-82756589D01*
X120322068Y-83026842D01*
X120265000Y-83313740D01*
X120265000Y-83606260D01*
X120322068Y-83893158D01*
X120434010Y-84163411D01*
X120596525Y-84406632D01*
X120728380Y-84538487D01*
X120655820Y-84560498D01*
X120545506Y-84619463D01*
X120448815Y-84698815D01*
X120369463Y-84795506D01*
X120310498Y-84905820D01*
X120274188Y-85025518D01*
X120261928Y-85150000D01*
X115976000Y-85150000D01*
X115976000Y-79432000D01*
X130641928Y-79432000D01*
X130641928Y-81032000D01*
X130654188Y-81156482D01*
X130690498Y-81276180D01*
X130749463Y-81386494D01*
X130828815Y-81483185D01*
X130925506Y-81562537D01*
X131035820Y-81621502D01*
X131155518Y-81657812D01*
X131280000Y-81670072D01*
X132880000Y-81670072D01*
X133004482Y-81657812D01*
X133124180Y-81621502D01*
X133234494Y-81562537D01*
X133242071Y-81556318D01*
X172797183Y-81556318D01*
X172901266Y-81682295D01*
X173119080Y-81725203D01*
X173341080Y-81724794D01*
X173554734Y-81682295D01*
X173658817Y-81556318D01*
X173228000Y-81125502D01*
X172797183Y-81556318D01*
X133242071Y-81556318D01*
X133331185Y-81483185D01*
X133410537Y-81386494D01*
X133469502Y-81276180D01*
X133505812Y-81156482D01*
X133518072Y-81032000D01*
X133518072Y-80089105D01*
X145482397Y-80089105D01*
X145565461Y-80199896D01*
X145755596Y-80226582D01*
X145947284Y-80215661D01*
X146026539Y-80199896D01*
X146109603Y-80089105D01*
X145796000Y-79775502D01*
X145482397Y-80089105D01*
X133518072Y-80089105D01*
X133518072Y-79432000D01*
X133505812Y-79307518D01*
X133475501Y-79207596D01*
X144817418Y-79207596D01*
X144828339Y-79399284D01*
X144844104Y-79478539D01*
X144954895Y-79561603D01*
X145268498Y-79248000D01*
X146323502Y-79248000D01*
X146637105Y-79561603D01*
X146747896Y-79478539D01*
X146774582Y-79288404D01*
X146763661Y-79096716D01*
X146747896Y-79017461D01*
X146637105Y-78934397D01*
X146323502Y-79248000D01*
X145268498Y-79248000D01*
X144954895Y-78934397D01*
X144844104Y-79017461D01*
X144817418Y-79207596D01*
X133475501Y-79207596D01*
X133469502Y-79187820D01*
X133410537Y-79077506D01*
X133331185Y-78980815D01*
X133234494Y-78901463D01*
X133124180Y-78842498D01*
X133082736Y-78829926D01*
X133144083Y-78768579D01*
X133038320Y-78662816D01*
X133164295Y-78558734D01*
X133194206Y-78406895D01*
X145482397Y-78406895D01*
X145796000Y-78720498D01*
X146109603Y-78406895D01*
X146026539Y-78296104D01*
X145836404Y-78269418D01*
X145644716Y-78280339D01*
X145565461Y-78296104D01*
X145482397Y-78406895D01*
X133194206Y-78406895D01*
X133207203Y-78340920D01*
X133206794Y-78118920D01*
X133164295Y-77905266D01*
X133038318Y-77801183D01*
X132607502Y-78232000D01*
X132621644Y-78246142D01*
X132094142Y-78773644D01*
X132080000Y-78759502D01*
X132065858Y-78773644D01*
X131538356Y-78246142D01*
X131552498Y-78232000D01*
X131121682Y-77801183D01*
X130995705Y-77905266D01*
X130952797Y-78123080D01*
X130953206Y-78345080D01*
X130995705Y-78558734D01*
X131121680Y-78662816D01*
X131015917Y-78768579D01*
X131077264Y-78829926D01*
X131035820Y-78842498D01*
X130925506Y-78901463D01*
X130828815Y-78980815D01*
X130749463Y-79077506D01*
X130690498Y-79187820D01*
X130654188Y-79307518D01*
X130641928Y-79432000D01*
X115976000Y-79432000D01*
X115976000Y-77273682D01*
X131649183Y-77273682D01*
X132080000Y-77704498D01*
X132510817Y-77273682D01*
X132406734Y-77147705D01*
X132188920Y-77104797D01*
X131966920Y-77105206D01*
X131753266Y-77147705D01*
X131649183Y-77273682D01*
X115976000Y-77273682D01*
X115976000Y-74184000D01*
X118805428Y-74184000D01*
X118805428Y-76184000D01*
X118817688Y-76308482D01*
X118853998Y-76428180D01*
X118912963Y-76538494D01*
X118992315Y-76635185D01*
X119089006Y-76714537D01*
X119199320Y-76773502D01*
X119319018Y-76809812D01*
X119443500Y-76822072D01*
X121348500Y-76822072D01*
X121472982Y-76809812D01*
X121592680Y-76773502D01*
X121702994Y-76714537D01*
X121799685Y-76635185D01*
X121879037Y-76538494D01*
X121938002Y-76428180D01*
X121974312Y-76308482D01*
X121986572Y-76184000D01*
X121986572Y-76071154D01*
X122056340Y-76152312D01*
X122252884Y-76306232D01*
X122376128Y-76382006D01*
X122563000Y-76369690D01*
X122563000Y-75557000D01*
X122543000Y-75557000D01*
X122543000Y-74811000D01*
X122563000Y-74811000D01*
X122563000Y-73998310D01*
X123309000Y-73998310D01*
X123309000Y-74811000D01*
X123329000Y-74811000D01*
X123329000Y-75557000D01*
X123309000Y-75557000D01*
X123309000Y-76369690D01*
X123495872Y-76382006D01*
X123619116Y-76306232D01*
X123815660Y-76152312D01*
X123978399Y-75963006D01*
X124023874Y-75882414D01*
X124149655Y-76117735D01*
X124348037Y-76359463D01*
X124589766Y-76557845D01*
X124865552Y-76705255D01*
X125164797Y-76796030D01*
X125476000Y-76826681D01*
X125787204Y-76796030D01*
X126086449Y-76705255D01*
X126362235Y-76557845D01*
X126603963Y-76359463D01*
X126802345Y-76117734D01*
X126949755Y-75841948D01*
X127040530Y-75542703D01*
X127063500Y-75309485D01*
X127063500Y-75058514D01*
X127040530Y-74825296D01*
X126949755Y-74526051D01*
X126802345Y-74250265D01*
X126603963Y-74008537D01*
X126362234Y-73810155D01*
X126086448Y-73662745D01*
X125787203Y-73571970D01*
X125476000Y-73541319D01*
X125164796Y-73571970D01*
X124865551Y-73662745D01*
X124589765Y-73810155D01*
X124348037Y-74008537D01*
X124149655Y-74250266D01*
X124023874Y-74485587D01*
X123978399Y-74404994D01*
X123815660Y-74215688D01*
X123619116Y-74061768D01*
X123495872Y-73985994D01*
X123309000Y-73998310D01*
X122563000Y-73998310D01*
X122376128Y-73985994D01*
X122252884Y-74061768D01*
X122056340Y-74215688D01*
X121986572Y-74296846D01*
X121986572Y-74184000D01*
X121974312Y-74059518D01*
X121938002Y-73939820D01*
X121879037Y-73829506D01*
X121799685Y-73732815D01*
X121702994Y-73653463D01*
X121592680Y-73594498D01*
X121472982Y-73558188D01*
X121348500Y-73545928D01*
X119443500Y-73545928D01*
X119319018Y-73558188D01*
X119199320Y-73594498D01*
X119089006Y-73653463D01*
X118992315Y-73732815D01*
X118912963Y-73829506D01*
X118853998Y-73939820D01*
X118817688Y-74059518D01*
X118805428Y-74184000D01*
X115976000Y-74184000D01*
X115976000Y-73248967D01*
X138085000Y-73248967D01*
X138085000Y-73571033D01*
X138147832Y-73886912D01*
X138271082Y-74184463D01*
X138450013Y-74452252D01*
X138677748Y-74679987D01*
X138945537Y-74858918D01*
X139243088Y-74982168D01*
X139558967Y-75045000D01*
X139881033Y-75045000D01*
X140196912Y-74982168D01*
X140494463Y-74858918D01*
X140762252Y-74679987D01*
X140989987Y-74452252D01*
X140990000Y-74452233D01*
X140990013Y-74452252D01*
X141217748Y-74679987D01*
X141485537Y-74858918D01*
X141783088Y-74982168D01*
X142098967Y-75045000D01*
X142421033Y-75045000D01*
X142736912Y-74982168D01*
X143034463Y-74858918D01*
X143302252Y-74679987D01*
X143529987Y-74452252D01*
X143530000Y-74452233D01*
X143530013Y-74452252D01*
X143757748Y-74679987D01*
X144025537Y-74858918D01*
X144323088Y-74982168D01*
X144638967Y-75045000D01*
X144961033Y-75045000D01*
X145276912Y-74982168D01*
X145574463Y-74858918D01*
X145842252Y-74679987D01*
X146069987Y-74452252D01*
X146070000Y-74452233D01*
X146070013Y-74452252D01*
X146297748Y-74679987D01*
X146565537Y-74858918D01*
X146863088Y-74982168D01*
X147178967Y-75045000D01*
X147501033Y-75045000D01*
X147816912Y-74982168D01*
X148114463Y-74858918D01*
X148382252Y-74679987D01*
X148609987Y-74452252D01*
X148610000Y-74452233D01*
X148610013Y-74452252D01*
X148837748Y-74679987D01*
X149105537Y-74858918D01*
X149403088Y-74982168D01*
X149718967Y-75045000D01*
X150041033Y-75045000D01*
X150356912Y-74982168D01*
X150654463Y-74858918D01*
X150922252Y-74679987D01*
X151149987Y-74452252D01*
X151150000Y-74452233D01*
X151150013Y-74452252D01*
X151377748Y-74679987D01*
X151645537Y-74858918D01*
X151943088Y-74982168D01*
X152258967Y-75045000D01*
X152581033Y-75045000D01*
X152896912Y-74982168D01*
X153029667Y-74927179D01*
X156067787Y-77965300D01*
X155829665Y-77965300D01*
X155581850Y-78014594D01*
X155348414Y-78111286D01*
X155138327Y-78251662D01*
X154959662Y-78430327D01*
X154819286Y-78640414D01*
X154722594Y-78873850D01*
X154686000Y-79057818D01*
X154649406Y-78873850D01*
X154552714Y-78640414D01*
X154412338Y-78430327D01*
X154233673Y-78251662D01*
X154023586Y-78111286D01*
X153790150Y-78014594D01*
X153560000Y-77968814D01*
X153560000Y-77650700D01*
X153667205Y-77490256D01*
X153745226Y-77301898D01*
X153785000Y-77101939D01*
X153785000Y-76898061D01*
X153745226Y-76698102D01*
X153667205Y-76509744D01*
X153553937Y-76340226D01*
X153409774Y-76196063D01*
X153240256Y-76082795D01*
X153051898Y-76004774D01*
X152851939Y-75965000D01*
X152648061Y-75965000D01*
X152448102Y-76004774D01*
X152259744Y-76082795D01*
X152090226Y-76196063D01*
X151946063Y-76340226D01*
X151832795Y-76509744D01*
X151754774Y-76698102D01*
X151715000Y-76898061D01*
X151715000Y-77101939D01*
X151754774Y-77301898D01*
X151832795Y-77490256D01*
X151940000Y-77650701D01*
X151940001Y-78531591D01*
X151872338Y-78430327D01*
X151693673Y-78251662D01*
X151483586Y-78111286D01*
X151250150Y-78014594D01*
X151002335Y-77965300D01*
X150749665Y-77965300D01*
X150501850Y-78014594D01*
X150268414Y-78111286D01*
X150058327Y-78251662D01*
X149879662Y-78430327D01*
X149739286Y-78640414D01*
X149642594Y-78873850D01*
X149606000Y-79057818D01*
X149569406Y-78873850D01*
X149472714Y-78640414D01*
X149332338Y-78430327D01*
X149153673Y-78251662D01*
X148943586Y-78111286D01*
X148710150Y-78014594D01*
X148462335Y-77965300D01*
X148209665Y-77965300D01*
X147961850Y-78014594D01*
X147728414Y-78111286D01*
X147518327Y-78251662D01*
X147339662Y-78430327D01*
X147199286Y-78640414D01*
X147102594Y-78873850D01*
X147053300Y-79121665D01*
X147053300Y-79374335D01*
X147102594Y-79622150D01*
X147199286Y-79855586D01*
X147339662Y-80065673D01*
X147518327Y-80244338D01*
X147728414Y-80384714D01*
X147961850Y-80481406D01*
X148209665Y-80530700D01*
X148462335Y-80530700D01*
X148710150Y-80481406D01*
X148943586Y-80384714D01*
X149153673Y-80244338D01*
X149332338Y-80065673D01*
X149472714Y-79855586D01*
X149569406Y-79622150D01*
X149606000Y-79438182D01*
X149642594Y-79622150D01*
X149739286Y-79855586D01*
X149879662Y-80065673D01*
X150058327Y-80244338D01*
X150268414Y-80384714D01*
X150501850Y-80481406D01*
X150749665Y-80530700D01*
X151002335Y-80530700D01*
X151250150Y-80481406D01*
X151483586Y-80384714D01*
X151693673Y-80244338D01*
X151872338Y-80065673D01*
X152012714Y-79855586D01*
X152109406Y-79622150D01*
X152146000Y-79438182D01*
X152182594Y-79622150D01*
X152279286Y-79855586D01*
X152419662Y-80065673D01*
X152598327Y-80244338D01*
X152808414Y-80384714D01*
X153041850Y-80481406D01*
X153289665Y-80530700D01*
X153542335Y-80530700D01*
X153790150Y-80481406D01*
X154023586Y-80384714D01*
X154233673Y-80244338D01*
X154412338Y-80065673D01*
X154552714Y-79855586D01*
X154649406Y-79622150D01*
X154686000Y-79438182D01*
X154722594Y-79622150D01*
X154819286Y-79855586D01*
X154959662Y-80065673D01*
X155138327Y-80244338D01*
X155348414Y-80384714D01*
X155581850Y-80481406D01*
X155829665Y-80530700D01*
X156082335Y-80530700D01*
X156330150Y-80481406D01*
X156563586Y-80384714D01*
X156773673Y-80244338D01*
X156952338Y-80065673D01*
X157092714Y-79855586D01*
X157189406Y-79622150D01*
X157226000Y-79438182D01*
X157262594Y-79622150D01*
X157359286Y-79855586D01*
X157499662Y-80065673D01*
X157678327Y-80244338D01*
X157888414Y-80384714D01*
X158121850Y-80481406D01*
X158369665Y-80530700D01*
X158622335Y-80530700D01*
X158870150Y-80481406D01*
X159103586Y-80384714D01*
X159313673Y-80244338D01*
X159492338Y-80065673D01*
X159632714Y-79855586D01*
X159729406Y-79622150D01*
X159766000Y-79438182D01*
X159802594Y-79622150D01*
X159899286Y-79855586D01*
X160039662Y-80065673D01*
X160218327Y-80244338D01*
X160428414Y-80384714D01*
X160661850Y-80481406D01*
X160909665Y-80530700D01*
X161162335Y-80530700D01*
X161410150Y-80481406D01*
X161643586Y-80384714D01*
X161853673Y-80244338D01*
X162032338Y-80065673D01*
X162172714Y-79855586D01*
X162269406Y-79622150D01*
X162306000Y-79438182D01*
X162342594Y-79622150D01*
X162439286Y-79855586D01*
X162579662Y-80065673D01*
X162758327Y-80244338D01*
X162968414Y-80384714D01*
X163201850Y-80481406D01*
X163449665Y-80530700D01*
X163702335Y-80530700D01*
X163950150Y-80481406D01*
X164183586Y-80384714D01*
X164393673Y-80244338D01*
X164572338Y-80065673D01*
X164712714Y-79855586D01*
X164809406Y-79622150D01*
X164846000Y-79438182D01*
X164882594Y-79622150D01*
X164979286Y-79855586D01*
X165119662Y-80065673D01*
X165298327Y-80244338D01*
X165508414Y-80384714D01*
X165741850Y-80481406D01*
X165989665Y-80530700D01*
X166242335Y-80530700D01*
X166490150Y-80481406D01*
X166723586Y-80384714D01*
X166933673Y-80244338D01*
X167112338Y-80065673D01*
X167252714Y-79855586D01*
X167349406Y-79622150D01*
X167370228Y-79517472D01*
X167370228Y-79895700D01*
X167382488Y-80020182D01*
X167418798Y-80139880D01*
X167477763Y-80250194D01*
X167557115Y-80346885D01*
X167653806Y-80426237D01*
X167764120Y-80485202D01*
X167883818Y-80521512D01*
X168008300Y-80533772D01*
X169303700Y-80533772D01*
X169428182Y-80521512D01*
X169535095Y-80489080D01*
X172100797Y-80489080D01*
X172101206Y-80711080D01*
X172143705Y-80924734D01*
X172269682Y-81028817D01*
X172700498Y-80598000D01*
X173755502Y-80598000D01*
X174186318Y-81028817D01*
X174312295Y-80924734D01*
X174355203Y-80706920D01*
X174354794Y-80484920D01*
X174312295Y-80271266D01*
X174186318Y-80167183D01*
X173755502Y-80598000D01*
X172700498Y-80598000D01*
X172269682Y-80167183D01*
X172143705Y-80271266D01*
X172100797Y-80489080D01*
X169535095Y-80489080D01*
X169547880Y-80485202D01*
X169658194Y-80426237D01*
X169754885Y-80346885D01*
X169834237Y-80250194D01*
X169893202Y-80139880D01*
X169929512Y-80020182D01*
X169941772Y-79895700D01*
X169941772Y-79639682D01*
X172797183Y-79639682D01*
X173228000Y-80070498D01*
X173658817Y-79639682D01*
X173554734Y-79513705D01*
X173336920Y-79470797D01*
X173114920Y-79471206D01*
X172901266Y-79513705D01*
X172797183Y-79639682D01*
X169941772Y-79639682D01*
X169941772Y-78600300D01*
X169929512Y-78475818D01*
X169893202Y-78356120D01*
X169834237Y-78245806D01*
X169754885Y-78149115D01*
X169658194Y-78069763D01*
X169547880Y-78010798D01*
X169428182Y-77974488D01*
X169303700Y-77962228D01*
X168008300Y-77962228D01*
X167883818Y-77974488D01*
X167764120Y-78010798D01*
X167653806Y-78069763D01*
X167557115Y-78149115D01*
X167477763Y-78245806D01*
X167418798Y-78356120D01*
X167382488Y-78475818D01*
X167370228Y-78600300D01*
X167370228Y-78978528D01*
X167349406Y-78873850D01*
X167252714Y-78640414D01*
X167112338Y-78430327D01*
X166933673Y-78251662D01*
X166723586Y-78111286D01*
X166490150Y-78014594D01*
X166242335Y-77965300D01*
X165989665Y-77965300D01*
X165741850Y-78014594D01*
X165508414Y-78111286D01*
X165298327Y-78251662D01*
X165119662Y-78430327D01*
X164979286Y-78640414D01*
X164882594Y-78873850D01*
X164846000Y-79057818D01*
X164809406Y-78873850D01*
X164712714Y-78640414D01*
X164572338Y-78430327D01*
X164393673Y-78251662D01*
X164183586Y-78111286D01*
X163950150Y-78014594D01*
X163702335Y-77965300D01*
X163449665Y-77965300D01*
X163201850Y-78014594D01*
X162968414Y-78111286D01*
X162758327Y-78251662D01*
X162579662Y-78430327D01*
X162439286Y-78640414D01*
X162342594Y-78873850D01*
X162306000Y-79057818D01*
X162269406Y-78873850D01*
X162172714Y-78640414D01*
X162032338Y-78430327D01*
X161853673Y-78251662D01*
X161643586Y-78111286D01*
X161410150Y-78014594D01*
X161162335Y-77965300D01*
X160909665Y-77965300D01*
X160702100Y-78006588D01*
X160555534Y-77860021D01*
X160601939Y-77860021D01*
X160801898Y-77820247D01*
X160990256Y-77742226D01*
X161150700Y-77635021D01*
X161665191Y-77635021D01*
X161704979Y-77638940D01*
X161744767Y-77635021D01*
X161744770Y-77635021D01*
X161863767Y-77623301D01*
X162016452Y-77576984D01*
X162157168Y-77501770D01*
X162280507Y-77400549D01*
X162305879Y-77369633D01*
X164685007Y-74990506D01*
X164958967Y-75045000D01*
X165281033Y-75045000D01*
X165596912Y-74982168D01*
X165894463Y-74858918D01*
X166162252Y-74679987D01*
X166389987Y-74452252D01*
X166390000Y-74452233D01*
X166390013Y-74452252D01*
X166617748Y-74679987D01*
X166885537Y-74858918D01*
X167183088Y-74982168D01*
X167498967Y-75045000D01*
X167821033Y-75045000D01*
X168136912Y-74982168D01*
X168434463Y-74858918D01*
X168702252Y-74679987D01*
X168929987Y-74452252D01*
X168930000Y-74452233D01*
X168930013Y-74452252D01*
X169157748Y-74679987D01*
X169425537Y-74858918D01*
X169723088Y-74982168D01*
X170038967Y-75045000D01*
X170361033Y-75045000D01*
X170676912Y-74982168D01*
X170974463Y-74858918D01*
X171242252Y-74679987D01*
X171469987Y-74452252D01*
X171470000Y-74452233D01*
X171470013Y-74452252D01*
X171697748Y-74679987D01*
X171965537Y-74858918D01*
X172263088Y-74982168D01*
X172578967Y-75045000D01*
X172901033Y-75045000D01*
X173216912Y-74982168D01*
X173514463Y-74858918D01*
X173782252Y-74679987D01*
X174009987Y-74452252D01*
X174010000Y-74452233D01*
X174010013Y-74452252D01*
X174237748Y-74679987D01*
X174505537Y-74858918D01*
X174803088Y-74982168D01*
X175118967Y-75045000D01*
X175441033Y-75045000D01*
X175756912Y-74982168D01*
X176054463Y-74858918D01*
X176322252Y-74679987D01*
X176549987Y-74452252D01*
X176550000Y-74452233D01*
X176550013Y-74452252D01*
X176777748Y-74679987D01*
X177045537Y-74858918D01*
X177343088Y-74982168D01*
X177658967Y-75045000D01*
X177981033Y-75045000D01*
X178296912Y-74982168D01*
X178594463Y-74858918D01*
X178862252Y-74679987D01*
X179089987Y-74452252D01*
X179268918Y-74184463D01*
X179392168Y-73886912D01*
X179455000Y-73571033D01*
X179455000Y-73248967D01*
X179392168Y-72933088D01*
X179268918Y-72635537D01*
X179089987Y-72367748D01*
X178862252Y-72140013D01*
X178594463Y-71961082D01*
X178296912Y-71837832D01*
X177981033Y-71775000D01*
X177658967Y-71775000D01*
X177343088Y-71837832D01*
X177045537Y-71961082D01*
X176777748Y-72140013D01*
X176550013Y-72367748D01*
X176550000Y-72367767D01*
X176549987Y-72367748D01*
X176322252Y-72140013D01*
X176054463Y-71961082D01*
X175756912Y-71837832D01*
X175441033Y-71775000D01*
X175118967Y-71775000D01*
X174803088Y-71837832D01*
X174505537Y-71961082D01*
X174237748Y-72140013D01*
X174010013Y-72367748D01*
X174010000Y-72367767D01*
X174009987Y-72367748D01*
X173782252Y-72140013D01*
X173514463Y-71961082D01*
X173216912Y-71837832D01*
X172901033Y-71775000D01*
X172578967Y-71775000D01*
X172263088Y-71837832D01*
X171965537Y-71961082D01*
X171697748Y-72140013D01*
X171470013Y-72367748D01*
X171470000Y-72367767D01*
X171469987Y-72367748D01*
X171242252Y-72140013D01*
X170974463Y-71961082D01*
X170676912Y-71837832D01*
X170361033Y-71775000D01*
X170038967Y-71775000D01*
X169723088Y-71837832D01*
X169425537Y-71961082D01*
X169157748Y-72140013D01*
X168930013Y-72367748D01*
X168930000Y-72367767D01*
X168929987Y-72367748D01*
X168702252Y-72140013D01*
X168434463Y-71961082D01*
X168136912Y-71837832D01*
X167821033Y-71775000D01*
X167498967Y-71775000D01*
X167183088Y-71837832D01*
X166885537Y-71961082D01*
X166617748Y-72140013D01*
X166390013Y-72367748D01*
X166390000Y-72367767D01*
X166389987Y-72367748D01*
X166162252Y-72140013D01*
X165894463Y-71961082D01*
X165596912Y-71837832D01*
X165281033Y-71775000D01*
X164958967Y-71775000D01*
X164643088Y-71837832D01*
X164345537Y-71961082D01*
X164077748Y-72140013D01*
X163850013Y-72367748D01*
X163850000Y-72367767D01*
X163849987Y-72367748D01*
X163622252Y-72140013D01*
X163354463Y-71961082D01*
X163056912Y-71837832D01*
X162741033Y-71775000D01*
X162418967Y-71775000D01*
X162103088Y-71837832D01*
X161805537Y-71961082D01*
X161537748Y-72140013D01*
X161310013Y-72367748D01*
X161310000Y-72367767D01*
X161309987Y-72367748D01*
X161082252Y-72140013D01*
X160814463Y-71961082D01*
X160516912Y-71837832D01*
X160201033Y-71775000D01*
X159878967Y-71775000D01*
X159563088Y-71837832D01*
X159265537Y-71961082D01*
X158997748Y-72140013D01*
X158770013Y-72367748D01*
X158770000Y-72367767D01*
X158769987Y-72367748D01*
X158542252Y-72140013D01*
X158274463Y-71961082D01*
X157976912Y-71837832D01*
X157661033Y-71775000D01*
X157338967Y-71775000D01*
X157023088Y-71837832D01*
X156725537Y-71961082D01*
X156457748Y-72140013D01*
X156230013Y-72367748D01*
X156230000Y-72367767D01*
X156229987Y-72367748D01*
X156002252Y-72140013D01*
X155734463Y-71961082D01*
X155436912Y-71837832D01*
X155121033Y-71775000D01*
X154798967Y-71775000D01*
X154483088Y-71837832D01*
X154185537Y-71961082D01*
X153917748Y-72140013D01*
X153690013Y-72367748D01*
X153690000Y-72367767D01*
X153689987Y-72367748D01*
X153462252Y-72140013D01*
X153194463Y-71961082D01*
X152896912Y-71837832D01*
X152581033Y-71775000D01*
X152258967Y-71775000D01*
X151943088Y-71837832D01*
X151645537Y-71961082D01*
X151377748Y-72140013D01*
X151150013Y-72367748D01*
X151150000Y-72367767D01*
X151149987Y-72367748D01*
X150922252Y-72140013D01*
X150654463Y-71961082D01*
X150356912Y-71837832D01*
X150041033Y-71775000D01*
X149718967Y-71775000D01*
X149403088Y-71837832D01*
X149105537Y-71961082D01*
X148837748Y-72140013D01*
X148610013Y-72367748D01*
X148610000Y-72367767D01*
X148609987Y-72367748D01*
X148382252Y-72140013D01*
X148114463Y-71961082D01*
X147816912Y-71837832D01*
X147501033Y-71775000D01*
X147178967Y-71775000D01*
X146863088Y-71837832D01*
X146565537Y-71961082D01*
X146297748Y-72140013D01*
X146070013Y-72367748D01*
X146070000Y-72367767D01*
X146069987Y-72367748D01*
X145842252Y-72140013D01*
X145574463Y-71961082D01*
X145276912Y-71837832D01*
X144961033Y-71775000D01*
X144638967Y-71775000D01*
X144323088Y-71837832D01*
X144025537Y-71961082D01*
X143757748Y-72140013D01*
X143530013Y-72367748D01*
X143530000Y-72367767D01*
X143529987Y-72367748D01*
X143302252Y-72140013D01*
X143034463Y-71961082D01*
X142736912Y-71837832D01*
X142421033Y-71775000D01*
X142098967Y-71775000D01*
X141783088Y-71837832D01*
X141485537Y-71961082D01*
X141217748Y-72140013D01*
X140990013Y-72367748D01*
X140990000Y-72367767D01*
X140989987Y-72367748D01*
X140762252Y-72140013D01*
X140494463Y-71961082D01*
X140196912Y-71837832D01*
X139881033Y-71775000D01*
X139558967Y-71775000D01*
X139243088Y-71837832D01*
X138945537Y-71961082D01*
X138677748Y-72140013D01*
X138450013Y-72367748D01*
X138271082Y-72635537D01*
X138147832Y-72933088D01*
X138085000Y-73248967D01*
X115976000Y-73248967D01*
X115976000Y-58289098D01*
X120551000Y-58289098D01*
X120551000Y-58758902D01*
X120642654Y-59219679D01*
X120822440Y-59653721D01*
X121083450Y-60044349D01*
X121415651Y-60376550D01*
X121806279Y-60637560D01*
X122240321Y-60817346D01*
X122701098Y-60909000D01*
X123170902Y-60909000D01*
X123631679Y-60817346D01*
X124065721Y-60637560D01*
X124456349Y-60376550D01*
X124788550Y-60044349D01*
X125049560Y-59653721D01*
X125229346Y-59219679D01*
X125321000Y-58758902D01*
X125321000Y-58289098D01*
X125229346Y-57828321D01*
X125049560Y-57394279D01*
X124788550Y-57003651D01*
X124456349Y-56671450D01*
X124065721Y-56410440D01*
X123631679Y-56230654D01*
X123170902Y-56139000D01*
X122701098Y-56139000D01*
X122240321Y-56230654D01*
X121806279Y-56410440D01*
X121415651Y-56671450D01*
X121083450Y-57003651D01*
X120822440Y-57394279D01*
X120642654Y-57828321D01*
X120551000Y-58289098D01*
X115976000Y-58289098D01*
X115976000Y-51073098D01*
X117503000Y-51073098D01*
X117503000Y-51542902D01*
X117594654Y-52003679D01*
X117774440Y-52437721D01*
X118035450Y-52828349D01*
X118367651Y-53160550D01*
X118758279Y-53421560D01*
X119192321Y-53601346D01*
X119653098Y-53693000D01*
X120122902Y-53693000D01*
X120583679Y-53601346D01*
X121017721Y-53421560D01*
X121408349Y-53160550D01*
X121740550Y-52828349D01*
X122001560Y-52437721D01*
X122181346Y-52003679D01*
X122249985Y-51658603D01*
X139138898Y-51658603D01*
X139269287Y-51804938D01*
X139522774Y-51868754D01*
X139783840Y-51881891D01*
X140042453Y-51843845D01*
X140170713Y-51804938D01*
X140301102Y-51658603D01*
X139720000Y-51077502D01*
X139138898Y-51658603D01*
X122249985Y-51658603D01*
X122273000Y-51542902D01*
X122273000Y-51073098D01*
X122181649Y-50613840D01*
X138388109Y-50613840D01*
X138426155Y-50872453D01*
X138465062Y-51000713D01*
X138611397Y-51131102D01*
X139192498Y-50550000D01*
X140247502Y-50550000D01*
X140678749Y-50981248D01*
X140687832Y-51026912D01*
X140811082Y-51324463D01*
X140990013Y-51592252D01*
X141217748Y-51819987D01*
X141485537Y-51998918D01*
X141783088Y-52122168D01*
X142098967Y-52185000D01*
X142421033Y-52185000D01*
X142736912Y-52122168D01*
X143034463Y-51998918D01*
X143302252Y-51819987D01*
X143529987Y-51592252D01*
X143530000Y-51592233D01*
X143530013Y-51592252D01*
X143757748Y-51819987D01*
X144025537Y-51998918D01*
X144323088Y-52122168D01*
X144638967Y-52185000D01*
X144961033Y-52185000D01*
X145276912Y-52122168D01*
X145574463Y-51998918D01*
X145842252Y-51819987D01*
X146069987Y-51592252D01*
X146070000Y-51592233D01*
X146070013Y-51592252D01*
X146297748Y-51819987D01*
X146565537Y-51998918D01*
X146863088Y-52122168D01*
X147178967Y-52185000D01*
X147501033Y-52185000D01*
X147816912Y-52122168D01*
X148114463Y-51998918D01*
X148382252Y-51819987D01*
X148609987Y-51592252D01*
X148610000Y-51592233D01*
X148610013Y-51592252D01*
X148837748Y-51819987D01*
X149105537Y-51998918D01*
X149403088Y-52122168D01*
X149718967Y-52185000D01*
X150041033Y-52185000D01*
X150356912Y-52122168D01*
X150654463Y-51998918D01*
X150922252Y-51819987D01*
X151149987Y-51592252D01*
X151150000Y-51592233D01*
X151150013Y-51592252D01*
X151377748Y-51819987D01*
X151645537Y-51998918D01*
X151943088Y-52122168D01*
X152258967Y-52185000D01*
X152581033Y-52185000D01*
X152896912Y-52122168D01*
X153194463Y-51998918D01*
X153462252Y-51819987D01*
X153689987Y-51592252D01*
X153690000Y-51592233D01*
X153690013Y-51592252D01*
X153917748Y-51819987D01*
X154185537Y-51998918D01*
X154483088Y-52122168D01*
X154798967Y-52185000D01*
X155121033Y-52185000D01*
X155436912Y-52122168D01*
X155734463Y-51998918D01*
X156002252Y-51819987D01*
X156229987Y-51592252D01*
X156230000Y-51592233D01*
X156230013Y-51592252D01*
X156457748Y-51819987D01*
X156725537Y-51998918D01*
X157023088Y-52122168D01*
X157338967Y-52185000D01*
X157661033Y-52185000D01*
X157976912Y-52122168D01*
X158274463Y-51998918D01*
X158542252Y-51819987D01*
X158769987Y-51592252D01*
X158770000Y-51592233D01*
X158770013Y-51592252D01*
X158997748Y-51819987D01*
X159265537Y-51998918D01*
X159563088Y-52122168D01*
X159878967Y-52185000D01*
X160201033Y-52185000D01*
X160516912Y-52122168D01*
X160814463Y-51998918D01*
X161082252Y-51819987D01*
X161309987Y-51592252D01*
X161310000Y-51592233D01*
X161310013Y-51592252D01*
X161537748Y-51819987D01*
X161805537Y-51998918D01*
X162103088Y-52122168D01*
X162418967Y-52185000D01*
X162741033Y-52185000D01*
X163056912Y-52122168D01*
X163354463Y-51998918D01*
X163622252Y-51819987D01*
X163849987Y-51592252D01*
X163850000Y-51592233D01*
X163850013Y-51592252D01*
X164077748Y-51819987D01*
X164345537Y-51998918D01*
X164643088Y-52122168D01*
X164958967Y-52185000D01*
X165281033Y-52185000D01*
X165596912Y-52122168D01*
X165894463Y-51998918D01*
X166162252Y-51819987D01*
X166389987Y-51592252D01*
X166390000Y-51592233D01*
X166390013Y-51592252D01*
X166617748Y-51819987D01*
X166885537Y-51998918D01*
X167183088Y-52122168D01*
X167498967Y-52185000D01*
X167821033Y-52185000D01*
X168136912Y-52122168D01*
X168434463Y-51998918D01*
X168702252Y-51819987D01*
X168929987Y-51592252D01*
X168930000Y-51592233D01*
X168930013Y-51592252D01*
X169157748Y-51819987D01*
X169425537Y-51998918D01*
X169723088Y-52122168D01*
X170038967Y-52185000D01*
X170361033Y-52185000D01*
X170676912Y-52122168D01*
X170974463Y-51998918D01*
X171242252Y-51819987D01*
X171469987Y-51592252D01*
X171470000Y-51592233D01*
X171470013Y-51592252D01*
X171697748Y-51819987D01*
X171965537Y-51998918D01*
X172263088Y-52122168D01*
X172578967Y-52185000D01*
X172901033Y-52185000D01*
X173216912Y-52122168D01*
X173514463Y-51998918D01*
X173782252Y-51819987D01*
X174009987Y-51592252D01*
X174010000Y-51592233D01*
X174010013Y-51592252D01*
X174237748Y-51819987D01*
X174505537Y-51998918D01*
X174803088Y-52122168D01*
X175118967Y-52185000D01*
X175441033Y-52185000D01*
X175756912Y-52122168D01*
X176054463Y-51998918D01*
X176322252Y-51819987D01*
X176483636Y-51658603D01*
X177238898Y-51658603D01*
X177369287Y-51804938D01*
X177622774Y-51868754D01*
X177883840Y-51881891D01*
X178142453Y-51843845D01*
X178270713Y-51804938D01*
X178401102Y-51658603D01*
X177820000Y-51077502D01*
X177238898Y-51658603D01*
X176483636Y-51658603D01*
X176549987Y-51592252D01*
X176728918Y-51324463D01*
X176852168Y-51026912D01*
X176861251Y-50981248D01*
X177292498Y-50550000D01*
X178347502Y-50550000D01*
X178928603Y-51131102D01*
X178993700Y-51073098D01*
X193703000Y-51073098D01*
X193703000Y-51542902D01*
X193794654Y-52003679D01*
X193974440Y-52437721D01*
X194235450Y-52828349D01*
X194567651Y-53160550D01*
X194958279Y-53421560D01*
X195392321Y-53601346D01*
X195853098Y-53693000D01*
X196322902Y-53693000D01*
X196783679Y-53601346D01*
X197217721Y-53421560D01*
X197608349Y-53160550D01*
X197940550Y-52828349D01*
X198201560Y-52437721D01*
X198381346Y-52003679D01*
X198473000Y-51542902D01*
X198473000Y-51073098D01*
X198381346Y-50612321D01*
X198201560Y-50178279D01*
X197940550Y-49787651D01*
X197608349Y-49455450D01*
X197217721Y-49194440D01*
X196783679Y-49014654D01*
X196322902Y-48923000D01*
X195853098Y-48923000D01*
X195392321Y-49014654D01*
X194958279Y-49194440D01*
X194567651Y-49455450D01*
X194235450Y-49787651D01*
X193974440Y-50178279D01*
X193794654Y-50612321D01*
X193703000Y-51073098D01*
X178993700Y-51073098D01*
X179074938Y-51000713D01*
X179138754Y-50747226D01*
X179151891Y-50486160D01*
X179113845Y-50227547D01*
X179074938Y-50099287D01*
X178928603Y-49968898D01*
X178347502Y-50550000D01*
X177292498Y-50550000D01*
X176861251Y-50118752D01*
X176852168Y-50073088D01*
X176728918Y-49775537D01*
X176549987Y-49507748D01*
X176483636Y-49441397D01*
X177238898Y-49441397D01*
X177820000Y-50022498D01*
X178401102Y-49441397D01*
X178270713Y-49295062D01*
X178017226Y-49231246D01*
X177756160Y-49218109D01*
X177497547Y-49256155D01*
X177369287Y-49295062D01*
X177238898Y-49441397D01*
X176483636Y-49441397D01*
X176322252Y-49280013D01*
X176054463Y-49101082D01*
X175756912Y-48977832D01*
X175441033Y-48915000D01*
X175118967Y-48915000D01*
X174803088Y-48977832D01*
X174505537Y-49101082D01*
X174237748Y-49280013D01*
X174010013Y-49507748D01*
X174010000Y-49507767D01*
X174009987Y-49507748D01*
X173782252Y-49280013D01*
X173514463Y-49101082D01*
X173216912Y-48977832D01*
X172901033Y-48915000D01*
X172578967Y-48915000D01*
X172263088Y-48977832D01*
X171965537Y-49101082D01*
X171697748Y-49280013D01*
X171470013Y-49507748D01*
X171470000Y-49507767D01*
X171469987Y-49507748D01*
X171242252Y-49280013D01*
X170974463Y-49101082D01*
X170676912Y-48977832D01*
X170361033Y-48915000D01*
X170038967Y-48915000D01*
X169723088Y-48977832D01*
X169425537Y-49101082D01*
X169157748Y-49280013D01*
X168930013Y-49507748D01*
X168930000Y-49507767D01*
X168929987Y-49507748D01*
X168702252Y-49280013D01*
X168434463Y-49101082D01*
X168136912Y-48977832D01*
X167821033Y-48915000D01*
X167498967Y-48915000D01*
X167183088Y-48977832D01*
X166885537Y-49101082D01*
X166617748Y-49280013D01*
X166390013Y-49507748D01*
X166390000Y-49507767D01*
X166389987Y-49507748D01*
X166162252Y-49280013D01*
X165894463Y-49101082D01*
X165596912Y-48977832D01*
X165281033Y-48915000D01*
X164958967Y-48915000D01*
X164643088Y-48977832D01*
X164345537Y-49101082D01*
X164077748Y-49280013D01*
X163850013Y-49507748D01*
X163850000Y-49507767D01*
X163849987Y-49507748D01*
X163622252Y-49280013D01*
X163354463Y-49101082D01*
X163056912Y-48977832D01*
X162741033Y-48915000D01*
X162418967Y-48915000D01*
X162103088Y-48977832D01*
X161805537Y-49101082D01*
X161537748Y-49280013D01*
X161310013Y-49507748D01*
X161310000Y-49507767D01*
X161309987Y-49507748D01*
X161082252Y-49280013D01*
X160814463Y-49101082D01*
X160516912Y-48977832D01*
X160201033Y-48915000D01*
X159878967Y-48915000D01*
X159563088Y-48977832D01*
X159265537Y-49101082D01*
X158997748Y-49280013D01*
X158770013Y-49507748D01*
X158770000Y-49507767D01*
X158769987Y-49507748D01*
X158542252Y-49280013D01*
X158274463Y-49101082D01*
X157976912Y-48977832D01*
X157661033Y-48915000D01*
X157338967Y-48915000D01*
X157023088Y-48977832D01*
X156725537Y-49101082D01*
X156457748Y-49280013D01*
X156230013Y-49507748D01*
X156230000Y-49507767D01*
X156229987Y-49507748D01*
X156002252Y-49280013D01*
X155734463Y-49101082D01*
X155436912Y-48977832D01*
X155121033Y-48915000D01*
X154798967Y-48915000D01*
X154483088Y-48977832D01*
X154185537Y-49101082D01*
X153917748Y-49280013D01*
X153690013Y-49507748D01*
X153690000Y-49507767D01*
X153689987Y-49507748D01*
X153462252Y-49280013D01*
X153194463Y-49101082D01*
X152896912Y-48977832D01*
X152581033Y-48915000D01*
X152258967Y-48915000D01*
X151943088Y-48977832D01*
X151645537Y-49101082D01*
X151377748Y-49280013D01*
X151150013Y-49507748D01*
X151150000Y-49507767D01*
X151149987Y-49507748D01*
X150922252Y-49280013D01*
X150654463Y-49101082D01*
X150356912Y-48977832D01*
X150041033Y-48915000D01*
X149718967Y-48915000D01*
X149403088Y-48977832D01*
X149105537Y-49101082D01*
X148837748Y-49280013D01*
X148610013Y-49507748D01*
X148610000Y-49507767D01*
X148609987Y-49507748D01*
X148382252Y-49280013D01*
X148114463Y-49101082D01*
X147816912Y-48977832D01*
X147501033Y-48915000D01*
X147178967Y-48915000D01*
X146863088Y-48977832D01*
X146565537Y-49101082D01*
X146297748Y-49280013D01*
X146070013Y-49507748D01*
X146070000Y-49507767D01*
X146069987Y-49507748D01*
X145842252Y-49280013D01*
X145574463Y-49101082D01*
X145276912Y-48977832D01*
X144961033Y-48915000D01*
X144638967Y-48915000D01*
X144323088Y-48977832D01*
X144025537Y-49101082D01*
X143757748Y-49280013D01*
X143530013Y-49507748D01*
X143530000Y-49507767D01*
X143529987Y-49507748D01*
X143302252Y-49280013D01*
X143034463Y-49101082D01*
X142736912Y-48977832D01*
X142421033Y-48915000D01*
X142098967Y-48915000D01*
X141783088Y-48977832D01*
X141485537Y-49101082D01*
X141217748Y-49280013D01*
X140990013Y-49507748D01*
X140811082Y-49775537D01*
X140687832Y-50073088D01*
X140678749Y-50118752D01*
X140247502Y-50550000D01*
X139192498Y-50550000D01*
X138611397Y-49968898D01*
X138465062Y-50099287D01*
X138401246Y-50352774D01*
X138388109Y-50613840D01*
X122181649Y-50613840D01*
X122181346Y-50612321D01*
X122001560Y-50178279D01*
X121740550Y-49787651D01*
X121408349Y-49455450D01*
X121387318Y-49441397D01*
X139138898Y-49441397D01*
X139720000Y-50022498D01*
X140301102Y-49441397D01*
X140170713Y-49295062D01*
X139917226Y-49231246D01*
X139656160Y-49218109D01*
X139397547Y-49256155D01*
X139269287Y-49295062D01*
X139138898Y-49441397D01*
X121387318Y-49441397D01*
X121017721Y-49194440D01*
X120583679Y-49014654D01*
X120122902Y-48923000D01*
X119653098Y-48923000D01*
X119192321Y-49014654D01*
X118758279Y-49194440D01*
X118367651Y-49455450D01*
X118035450Y-49787651D01*
X117774440Y-50178279D01*
X117594654Y-50612321D01*
X117503000Y-51073098D01*
X115976000Y-51073098D01*
X115976000Y-47910000D01*
X199746000Y-47910000D01*
X199746001Y-132690000D01*
G04 #@! TA.AperFunction,Conductor*
D30*
G36*
X199746001Y-132690000D02*
G01*
X183101572Y-132690000D01*
X183094941Y-132667946D01*
X183078028Y-132491125D01*
X183093684Y-127273098D01*
X193703000Y-127273098D01*
X193703000Y-127742902D01*
X193794654Y-128203679D01*
X193974440Y-128637721D01*
X194235450Y-129028349D01*
X194567651Y-129360550D01*
X194958279Y-129621560D01*
X195392321Y-129801346D01*
X195853098Y-129893000D01*
X196322902Y-129893000D01*
X196783679Y-129801346D01*
X197217721Y-129621560D01*
X197608349Y-129360550D01*
X197940550Y-129028349D01*
X198201560Y-128637721D01*
X198381346Y-128203679D01*
X198473000Y-127742902D01*
X198473000Y-127273098D01*
X198381346Y-126812321D01*
X198201560Y-126378279D01*
X197940550Y-125987651D01*
X197608349Y-125655450D01*
X197217721Y-125394440D01*
X196783679Y-125214654D01*
X196322902Y-125123000D01*
X195853098Y-125123000D01*
X195392321Y-125214654D01*
X194958279Y-125394440D01*
X194567651Y-125655450D01*
X194235450Y-125987651D01*
X193974440Y-126378279D01*
X193794654Y-126812321D01*
X193703000Y-127273098D01*
X183093684Y-127273098D01*
X183112238Y-121089513D01*
X185553749Y-121089513D01*
X185747151Y-121287291D01*
X186088136Y-121402391D01*
X186445025Y-121448756D01*
X186804101Y-121424606D01*
X187151566Y-121330867D01*
X187256769Y-121287291D01*
X187450171Y-121089513D01*
X186501960Y-120141302D01*
X185553749Y-121089513D01*
X183112238Y-121089513D01*
X183116837Y-119556865D01*
X184667004Y-119556865D01*
X184691154Y-119915941D01*
X184784893Y-120263406D01*
X184828469Y-120368609D01*
X185026247Y-120562011D01*
X185974458Y-119613800D01*
X187029462Y-119613800D01*
X187977673Y-120562011D01*
X188175451Y-120368609D01*
X188290551Y-120027624D01*
X188336916Y-119670735D01*
X188312766Y-119311659D01*
X188219027Y-118964194D01*
X188175451Y-118858991D01*
X187977673Y-118665589D01*
X187029462Y-119613800D01*
X185974458Y-119613800D01*
X185026247Y-118665589D01*
X184828469Y-118858991D01*
X184713369Y-119199976D01*
X184667004Y-119556865D01*
X183116837Y-119556865D01*
X183121094Y-118138087D01*
X185553749Y-118138087D01*
X186501960Y-119086298D01*
X187450171Y-118138087D01*
X187256769Y-117940309D01*
X186915784Y-117825209D01*
X186558895Y-117778844D01*
X186199819Y-117802994D01*
X185852354Y-117896733D01*
X185747151Y-117940309D01*
X185553749Y-118138087D01*
X183121094Y-118138087D01*
X183123982Y-117175783D01*
X183123404Y-117163291D01*
X183104645Y-116967482D01*
X183099828Y-116942969D01*
X183043102Y-116754621D01*
X183033581Y-116731525D01*
X182941084Y-116557925D01*
X182927225Y-116537140D01*
X182802534Y-116385005D01*
X182784875Y-116367335D01*
X182632816Y-116242552D01*
X182612039Y-116228681D01*
X182438495Y-116136077D01*
X182415406Y-116126541D01*
X182227093Y-116069700D01*
X182202582Y-116064868D01*
X182006785Y-116045990D01*
X181994293Y-116045404D01*
X121390551Y-116190316D01*
X121342466Y-116118351D01*
X121081649Y-115857534D01*
X120774961Y-115652612D01*
X120434188Y-115511459D01*
X120072425Y-115439500D01*
X119703575Y-115439500D01*
X119341812Y-115511459D01*
X119001039Y-115652612D01*
X118694351Y-115857534D01*
X118433534Y-116118351D01*
X118380640Y-116197513D01*
X116258332Y-116202588D01*
X116081598Y-116185581D01*
X115976000Y-116153772D01*
X115976000Y-108927575D01*
X118015500Y-108927575D01*
X118015500Y-109296425D01*
X118087459Y-109658188D01*
X118228612Y-109998961D01*
X118433534Y-110305649D01*
X118694351Y-110566466D01*
X119001039Y-110771388D01*
X119341812Y-110912541D01*
X119590460Y-110962000D01*
X119341812Y-111011459D01*
X119001039Y-111152612D01*
X118694351Y-111357534D01*
X118433534Y-111618351D01*
X118228612Y-111925039D01*
X118087459Y-112265812D01*
X118015500Y-112627575D01*
X118015500Y-112996425D01*
X118087459Y-113358188D01*
X118228612Y-113698961D01*
X118433534Y-114005649D01*
X118694351Y-114266466D01*
X119001039Y-114471388D01*
X119341812Y-114612541D01*
X119703575Y-114684500D01*
X120072425Y-114684500D01*
X120434188Y-114612541D01*
X120774961Y-114471388D01*
X121081649Y-114266466D01*
X121342466Y-114005649D01*
X121547388Y-113698961D01*
X121688541Y-113358188D01*
X121760500Y-112996425D01*
X121760500Y-112627575D01*
X121688541Y-112265812D01*
X121547388Y-111925039D01*
X121451813Y-111782000D01*
X128819418Y-111782000D01*
X128825732Y-111846103D01*
X128844430Y-111907743D01*
X128874794Y-111964550D01*
X128915657Y-112014343D01*
X128965450Y-112055206D01*
X129022257Y-112085570D01*
X129083897Y-112104268D01*
X129148000Y-112110582D01*
X129593250Y-112109000D01*
X129675000Y-112027250D01*
X129675000Y-110355000D01*
X130421000Y-110355000D01*
X130421000Y-112027250D01*
X130502750Y-112109000D01*
X130948000Y-112110582D01*
X131012103Y-112104268D01*
X131073743Y-112085570D01*
X131130550Y-112055206D01*
X131180343Y-112014343D01*
X131221206Y-111964550D01*
X131251570Y-111907743D01*
X131270268Y-111846103D01*
X131276582Y-111782000D01*
X131275000Y-110436750D01*
X131193250Y-110355000D01*
X130421000Y-110355000D01*
X129675000Y-110355000D01*
X128902750Y-110355000D01*
X128821000Y-110436750D01*
X128819418Y-111782000D01*
X121451813Y-111782000D01*
X121342466Y-111618351D01*
X121081649Y-111357534D01*
X120774961Y-111152612D01*
X120434188Y-111011459D01*
X120185540Y-110962000D01*
X120434188Y-110912541D01*
X120774961Y-110771388D01*
X121081649Y-110566466D01*
X121342466Y-110305649D01*
X121547388Y-109998961D01*
X121688541Y-109658188D01*
X121760500Y-109296425D01*
X121760500Y-108927575D01*
X121688541Y-108565812D01*
X121547388Y-108225039D01*
X121518631Y-108182000D01*
X128819418Y-108182000D01*
X128821000Y-109527250D01*
X128902750Y-109609000D01*
X129675000Y-109609000D01*
X129675000Y-107936750D01*
X130421000Y-107936750D01*
X130421000Y-109609000D01*
X131193250Y-109609000D01*
X131275000Y-109527250D01*
X131275612Y-109006593D01*
X132013000Y-109006593D01*
X132013000Y-110957408D01*
X132035211Y-111182913D01*
X132122984Y-111472261D01*
X132265520Y-111738927D01*
X132457340Y-111972661D01*
X132691074Y-112164481D01*
X132957740Y-112307017D01*
X133247088Y-112394790D01*
X133548000Y-112424427D01*
X133848913Y-112394790D01*
X134138261Y-112307017D01*
X134404927Y-112164481D01*
X134638661Y-111972661D01*
X134830481Y-111738927D01*
X134973017Y-111472261D01*
X135060790Y-111182913D01*
X135083000Y-110957408D01*
X135083000Y-109006593D01*
X135513000Y-109006593D01*
X135513000Y-110957408D01*
X135535211Y-111182913D01*
X135622984Y-111472261D01*
X135765520Y-111738927D01*
X135957340Y-111972661D01*
X136191074Y-112164481D01*
X136457740Y-112307017D01*
X136747088Y-112394790D01*
X137048000Y-112424427D01*
X137348913Y-112394790D01*
X137638261Y-112307017D01*
X137904927Y-112164481D01*
X138138661Y-111972661D01*
X138295132Y-111782000D01*
X143551418Y-111782000D01*
X143557732Y-111846103D01*
X143576430Y-111907743D01*
X143606794Y-111964550D01*
X143647657Y-112014343D01*
X143697450Y-112055206D01*
X143754257Y-112085570D01*
X143815897Y-112104268D01*
X143880000Y-112110582D01*
X144325250Y-112109000D01*
X144407000Y-112027250D01*
X144407000Y-110355000D01*
X145153000Y-110355000D01*
X145153000Y-112027250D01*
X145234750Y-112109000D01*
X145680000Y-112110582D01*
X145744103Y-112104268D01*
X145805743Y-112085570D01*
X145862550Y-112055206D01*
X145912343Y-112014343D01*
X145953206Y-111964550D01*
X145983570Y-111907743D01*
X146002268Y-111846103D01*
X146008582Y-111782000D01*
X146007000Y-110436750D01*
X145925250Y-110355000D01*
X145153000Y-110355000D01*
X144407000Y-110355000D01*
X143634750Y-110355000D01*
X143553000Y-110436750D01*
X143551418Y-111782000D01*
X138295132Y-111782000D01*
X138330481Y-111738927D01*
X138473017Y-111472261D01*
X138560790Y-111182913D01*
X138583000Y-110957408D01*
X138583000Y-109006592D01*
X138560790Y-108781087D01*
X138473017Y-108491739D01*
X138330481Y-108225073D01*
X138295133Y-108182000D01*
X143551418Y-108182000D01*
X143553000Y-109527250D01*
X143634750Y-109609000D01*
X144407000Y-109609000D01*
X144407000Y-107936750D01*
X145153000Y-107936750D01*
X145153000Y-109609000D01*
X145925250Y-109609000D01*
X146007000Y-109527250D01*
X146007612Y-109006593D01*
X146745000Y-109006593D01*
X146745000Y-110957408D01*
X146767211Y-111182913D01*
X146854984Y-111472261D01*
X146997520Y-111738927D01*
X147189340Y-111972661D01*
X147423074Y-112164481D01*
X147689740Y-112307017D01*
X147979088Y-112394790D01*
X148280000Y-112424427D01*
X148580913Y-112394790D01*
X148870261Y-112307017D01*
X149136927Y-112164481D01*
X149370661Y-111972661D01*
X149562481Y-111738927D01*
X149705017Y-111472261D01*
X149792790Y-111182913D01*
X149815000Y-110957408D01*
X149815000Y-109006593D01*
X150245000Y-109006593D01*
X150245000Y-110957408D01*
X150267211Y-111182913D01*
X150354984Y-111472261D01*
X150497520Y-111738927D01*
X150689340Y-111972661D01*
X150923074Y-112164481D01*
X151189740Y-112307017D01*
X151479088Y-112394790D01*
X151780000Y-112424427D01*
X152080913Y-112394790D01*
X152370261Y-112307017D01*
X152636927Y-112164481D01*
X152870661Y-111972661D01*
X153027132Y-111782000D01*
X158395418Y-111782000D01*
X158401732Y-111846103D01*
X158420430Y-111907743D01*
X158450794Y-111964550D01*
X158491657Y-112014343D01*
X158541450Y-112055206D01*
X158598257Y-112085570D01*
X158659897Y-112104268D01*
X158724000Y-112110582D01*
X159169250Y-112109000D01*
X159251000Y-112027250D01*
X159251000Y-110355000D01*
X159997000Y-110355000D01*
X159997000Y-112027250D01*
X160078750Y-112109000D01*
X160524000Y-112110582D01*
X160588103Y-112104268D01*
X160649743Y-112085570D01*
X160706550Y-112055206D01*
X160756343Y-112014343D01*
X160797206Y-111964550D01*
X160827570Y-111907743D01*
X160846268Y-111846103D01*
X160852582Y-111782000D01*
X160851000Y-110436750D01*
X160769250Y-110355000D01*
X159997000Y-110355000D01*
X159251000Y-110355000D01*
X158478750Y-110355000D01*
X158397000Y-110436750D01*
X158395418Y-111782000D01*
X153027132Y-111782000D01*
X153062481Y-111738927D01*
X153205017Y-111472261D01*
X153292790Y-111182913D01*
X153315000Y-110957408D01*
X153315000Y-109006592D01*
X153292790Y-108781087D01*
X153205017Y-108491739D01*
X153062481Y-108225073D01*
X153027133Y-108182000D01*
X158395418Y-108182000D01*
X158397000Y-109527250D01*
X158478750Y-109609000D01*
X159251000Y-109609000D01*
X159251000Y-107936750D01*
X159997000Y-107936750D01*
X159997000Y-109609000D01*
X160769250Y-109609000D01*
X160851000Y-109527250D01*
X160851612Y-109006593D01*
X161589000Y-109006593D01*
X161589000Y-110957408D01*
X161611211Y-111182913D01*
X161698984Y-111472261D01*
X161841520Y-111738927D01*
X162033340Y-111972661D01*
X162267074Y-112164481D01*
X162533740Y-112307017D01*
X162823088Y-112394790D01*
X163124000Y-112424427D01*
X163424913Y-112394790D01*
X163714261Y-112307017D01*
X163980927Y-112164481D01*
X164214661Y-111972661D01*
X164406481Y-111738927D01*
X164549017Y-111472261D01*
X164636790Y-111182913D01*
X164659000Y-110957408D01*
X164659000Y-109006593D01*
X165089000Y-109006593D01*
X165089000Y-110957408D01*
X165111211Y-111182913D01*
X165198984Y-111472261D01*
X165341520Y-111738927D01*
X165533340Y-111972661D01*
X165767074Y-112164481D01*
X166033740Y-112307017D01*
X166323088Y-112394790D01*
X166624000Y-112424427D01*
X166924913Y-112394790D01*
X167214261Y-112307017D01*
X167480927Y-112164481D01*
X167714661Y-111972661D01*
X167906481Y-111738927D01*
X168049017Y-111472261D01*
X168136790Y-111182913D01*
X168159000Y-110957408D01*
X168159000Y-109006592D01*
X168136790Y-108781087D01*
X168049017Y-108491739D01*
X167906481Y-108225073D01*
X167714661Y-107991339D01*
X167480926Y-107799519D01*
X167214260Y-107656983D01*
X166924912Y-107569210D01*
X166624000Y-107539573D01*
X166323087Y-107569210D01*
X166033739Y-107656983D01*
X165767073Y-107799519D01*
X165533339Y-107991339D01*
X165341519Y-108225074D01*
X165198983Y-108491740D01*
X165111210Y-108781088D01*
X165089000Y-109006593D01*
X164659000Y-109006593D01*
X164659000Y-109006592D01*
X164636790Y-108781087D01*
X164549017Y-108491739D01*
X164406481Y-108225073D01*
X164214661Y-107991339D01*
X163980926Y-107799519D01*
X163714260Y-107656983D01*
X163424912Y-107569210D01*
X163124000Y-107539573D01*
X162823087Y-107569210D01*
X162533739Y-107656983D01*
X162267073Y-107799519D01*
X162033339Y-107991339D01*
X161841519Y-108225074D01*
X161698983Y-108491740D01*
X161611210Y-108781088D01*
X161589000Y-109006593D01*
X160851612Y-109006593D01*
X160852582Y-108182000D01*
X160846268Y-108117897D01*
X160827570Y-108056257D01*
X160797206Y-107999450D01*
X160756343Y-107949657D01*
X160706550Y-107908794D01*
X160649743Y-107878430D01*
X160588103Y-107859732D01*
X160524000Y-107853418D01*
X160078750Y-107855000D01*
X159997000Y-107936750D01*
X159251000Y-107936750D01*
X159169250Y-107855000D01*
X158724000Y-107853418D01*
X158659897Y-107859732D01*
X158598257Y-107878430D01*
X158541450Y-107908794D01*
X158491657Y-107949657D01*
X158450794Y-107999450D01*
X158420430Y-108056257D01*
X158401732Y-108117897D01*
X158395418Y-108182000D01*
X153027133Y-108182000D01*
X152870661Y-107991339D01*
X152636926Y-107799519D01*
X152370260Y-107656983D01*
X152080912Y-107569210D01*
X151780000Y-107539573D01*
X151479087Y-107569210D01*
X151189739Y-107656983D01*
X150923073Y-107799519D01*
X150689339Y-107991339D01*
X150497519Y-108225074D01*
X150354983Y-108491740D01*
X150267210Y-108781088D01*
X150245000Y-109006593D01*
X149815000Y-109006593D01*
X149815000Y-109006592D01*
X149792790Y-108781087D01*
X149705017Y-108491739D01*
X149562481Y-108225073D01*
X149370661Y-107991339D01*
X149136926Y-107799519D01*
X148870260Y-107656983D01*
X148580912Y-107569210D01*
X148280000Y-107539573D01*
X147979087Y-107569210D01*
X147689739Y-107656983D01*
X147423073Y-107799519D01*
X147189339Y-107991339D01*
X146997519Y-108225074D01*
X146854983Y-108491740D01*
X146767210Y-108781088D01*
X146745000Y-109006593D01*
X146007612Y-109006593D01*
X146008582Y-108182000D01*
X146002268Y-108117897D01*
X145983570Y-108056257D01*
X145953206Y-107999450D01*
X145912343Y-107949657D01*
X145862550Y-107908794D01*
X145805743Y-107878430D01*
X145744103Y-107859732D01*
X145680000Y-107853418D01*
X145234750Y-107855000D01*
X145153000Y-107936750D01*
X144407000Y-107936750D01*
X144325250Y-107855000D01*
X143880000Y-107853418D01*
X143815897Y-107859732D01*
X143754257Y-107878430D01*
X143697450Y-107908794D01*
X143647657Y-107949657D01*
X143606794Y-107999450D01*
X143576430Y-108056257D01*
X143557732Y-108117897D01*
X143551418Y-108182000D01*
X138295133Y-108182000D01*
X138138661Y-107991339D01*
X137904926Y-107799519D01*
X137638260Y-107656983D01*
X137348912Y-107569210D01*
X137048000Y-107539573D01*
X136747087Y-107569210D01*
X136457739Y-107656983D01*
X136191073Y-107799519D01*
X135957339Y-107991339D01*
X135765519Y-108225074D01*
X135622983Y-108491740D01*
X135535210Y-108781088D01*
X135513000Y-109006593D01*
X135083000Y-109006593D01*
X135083000Y-109006592D01*
X135060790Y-108781087D01*
X134973017Y-108491739D01*
X134830481Y-108225073D01*
X134638661Y-107991339D01*
X134404926Y-107799519D01*
X134138260Y-107656983D01*
X133848912Y-107569210D01*
X133548000Y-107539573D01*
X133247087Y-107569210D01*
X132957739Y-107656983D01*
X132691073Y-107799519D01*
X132457339Y-107991339D01*
X132265519Y-108225074D01*
X132122983Y-108491740D01*
X132035210Y-108781088D01*
X132013000Y-109006593D01*
X131275612Y-109006593D01*
X131276582Y-108182000D01*
X131270268Y-108117897D01*
X131251570Y-108056257D01*
X131221206Y-107999450D01*
X131180343Y-107949657D01*
X131130550Y-107908794D01*
X131073743Y-107878430D01*
X131012103Y-107859732D01*
X130948000Y-107853418D01*
X130502750Y-107855000D01*
X130421000Y-107936750D01*
X129675000Y-107936750D01*
X129593250Y-107855000D01*
X129148000Y-107853418D01*
X129083897Y-107859732D01*
X129022257Y-107878430D01*
X128965450Y-107908794D01*
X128915657Y-107949657D01*
X128874794Y-107999450D01*
X128844430Y-108056257D01*
X128825732Y-108117897D01*
X128819418Y-108182000D01*
X121518631Y-108182000D01*
X121342466Y-107918351D01*
X121081649Y-107657534D01*
X120774961Y-107452612D01*
X120434188Y-107311459D01*
X120072425Y-107239500D01*
X119703575Y-107239500D01*
X119341812Y-107311459D01*
X119001039Y-107452612D01*
X118694351Y-107657534D01*
X118433534Y-107918351D01*
X118228612Y-108225039D01*
X118087459Y-108565812D01*
X118015500Y-108927575D01*
X115976000Y-108927575D01*
X115976000Y-99336000D01*
X128819418Y-99336000D01*
X128825732Y-99400103D01*
X128844430Y-99461743D01*
X128874794Y-99518550D01*
X128915657Y-99568343D01*
X128965450Y-99609206D01*
X129022257Y-99639570D01*
X129083897Y-99658268D01*
X129148000Y-99664582D01*
X129593250Y-99663000D01*
X129675000Y-99581250D01*
X129675000Y-97909000D01*
X130421000Y-97909000D01*
X130421000Y-99581250D01*
X130502750Y-99663000D01*
X130948000Y-99664582D01*
X131012103Y-99658268D01*
X131073743Y-99639570D01*
X131130550Y-99609206D01*
X131180343Y-99568343D01*
X131221206Y-99518550D01*
X131251570Y-99461743D01*
X131270268Y-99400103D01*
X131276582Y-99336000D01*
X131275000Y-97990750D01*
X131193250Y-97909000D01*
X130421000Y-97909000D01*
X129675000Y-97909000D01*
X128902750Y-97909000D01*
X128821000Y-97990750D01*
X128819418Y-99336000D01*
X115976000Y-99336000D01*
X115976000Y-95736000D01*
X128819418Y-95736000D01*
X128821000Y-97081250D01*
X128902750Y-97163000D01*
X129675000Y-97163000D01*
X129675000Y-95490750D01*
X130421000Y-95490750D01*
X130421000Y-97163000D01*
X131193250Y-97163000D01*
X131275000Y-97081250D01*
X131275612Y-96560593D01*
X132013000Y-96560593D01*
X132013000Y-98511408D01*
X132035211Y-98736913D01*
X132122984Y-99026261D01*
X132265520Y-99292927D01*
X132457340Y-99526661D01*
X132691074Y-99718481D01*
X132957740Y-99861017D01*
X133247088Y-99948790D01*
X133548000Y-99978427D01*
X133848913Y-99948790D01*
X134138261Y-99861017D01*
X134404927Y-99718481D01*
X134638661Y-99526661D01*
X134830481Y-99292927D01*
X134973017Y-99026261D01*
X135060790Y-98736913D01*
X135083000Y-98511408D01*
X135083000Y-96560593D01*
X135513000Y-96560593D01*
X135513000Y-98511408D01*
X135535211Y-98736913D01*
X135622984Y-99026261D01*
X135765520Y-99292927D01*
X135957340Y-99526661D01*
X136191074Y-99718481D01*
X136457740Y-99861017D01*
X136747088Y-99948790D01*
X137048000Y-99978427D01*
X137348913Y-99948790D01*
X137638261Y-99861017D01*
X137904927Y-99718481D01*
X138138661Y-99526661D01*
X138295132Y-99336000D01*
X143551418Y-99336000D01*
X143557732Y-99400103D01*
X143576430Y-99461743D01*
X143606794Y-99518550D01*
X143647657Y-99568343D01*
X143697450Y-99609206D01*
X143754257Y-99639570D01*
X143815897Y-99658268D01*
X143880000Y-99664582D01*
X144325250Y-99663000D01*
X144407000Y-99581250D01*
X144407000Y-97909000D01*
X145153000Y-97909000D01*
X145153000Y-99581250D01*
X145234750Y-99663000D01*
X145680000Y-99664582D01*
X145744103Y-99658268D01*
X145805743Y-99639570D01*
X145862550Y-99609206D01*
X145912343Y-99568343D01*
X145953206Y-99518550D01*
X145983570Y-99461743D01*
X146002268Y-99400103D01*
X146008582Y-99336000D01*
X146007000Y-97990750D01*
X145925250Y-97909000D01*
X145153000Y-97909000D01*
X144407000Y-97909000D01*
X143634750Y-97909000D01*
X143553000Y-97990750D01*
X143551418Y-99336000D01*
X138295132Y-99336000D01*
X138330481Y-99292927D01*
X138473017Y-99026261D01*
X138560790Y-98736913D01*
X138583000Y-98511408D01*
X138583000Y-96560592D01*
X138560790Y-96335087D01*
X138473017Y-96045739D01*
X138330481Y-95779073D01*
X138295133Y-95736000D01*
X143551418Y-95736000D01*
X143553000Y-97081250D01*
X143634750Y-97163000D01*
X144407000Y-97163000D01*
X144407000Y-95490750D01*
X145153000Y-95490750D01*
X145153000Y-97163000D01*
X145925250Y-97163000D01*
X146007000Y-97081250D01*
X146007612Y-96560593D01*
X146745000Y-96560593D01*
X146745000Y-98511408D01*
X146767211Y-98736913D01*
X146854984Y-99026261D01*
X146997520Y-99292927D01*
X147189340Y-99526661D01*
X147423074Y-99718481D01*
X147689740Y-99861017D01*
X147979088Y-99948790D01*
X148280000Y-99978427D01*
X148580913Y-99948790D01*
X148870261Y-99861017D01*
X149136927Y-99718481D01*
X149370661Y-99526661D01*
X149562481Y-99292927D01*
X149705017Y-99026261D01*
X149792790Y-98736913D01*
X149815000Y-98511408D01*
X149815000Y-96560593D01*
X150245000Y-96560593D01*
X150245000Y-98511408D01*
X150267211Y-98736913D01*
X150354984Y-99026261D01*
X150497520Y-99292927D01*
X150689340Y-99526661D01*
X150923074Y-99718481D01*
X151189740Y-99861017D01*
X151479088Y-99948790D01*
X151780000Y-99978427D01*
X152080913Y-99948790D01*
X152370261Y-99861017D01*
X152636927Y-99718481D01*
X152870661Y-99526661D01*
X153027132Y-99336000D01*
X158283418Y-99336000D01*
X158289732Y-99400103D01*
X158308430Y-99461743D01*
X158338794Y-99518550D01*
X158379657Y-99568343D01*
X158429450Y-99609206D01*
X158486257Y-99639570D01*
X158547897Y-99658268D01*
X158612000Y-99664582D01*
X159057250Y-99663000D01*
X159139000Y-99581250D01*
X159139000Y-97909000D01*
X159885000Y-97909000D01*
X159885000Y-99581250D01*
X159966750Y-99663000D01*
X160412000Y-99664582D01*
X160476103Y-99658268D01*
X160537743Y-99639570D01*
X160594550Y-99609206D01*
X160644343Y-99568343D01*
X160685206Y-99518550D01*
X160715570Y-99461743D01*
X160734268Y-99400103D01*
X160740582Y-99336000D01*
X160739000Y-97990750D01*
X160657250Y-97909000D01*
X159885000Y-97909000D01*
X159139000Y-97909000D01*
X158366750Y-97909000D01*
X158285000Y-97990750D01*
X158283418Y-99336000D01*
X153027132Y-99336000D01*
X153062481Y-99292927D01*
X153205017Y-99026261D01*
X153292790Y-98736913D01*
X153315000Y-98511408D01*
X153315000Y-96560592D01*
X153292790Y-96335087D01*
X153205017Y-96045739D01*
X153062481Y-95779073D01*
X153027133Y-95736000D01*
X158283418Y-95736000D01*
X158285000Y-97081250D01*
X158366750Y-97163000D01*
X159139000Y-97163000D01*
X159139000Y-95490750D01*
X159885000Y-95490750D01*
X159885000Y-97163000D01*
X160657250Y-97163000D01*
X160739000Y-97081250D01*
X160739612Y-96560593D01*
X161477000Y-96560593D01*
X161477000Y-98511408D01*
X161499211Y-98736913D01*
X161586984Y-99026261D01*
X161729520Y-99292927D01*
X161921340Y-99526661D01*
X162155074Y-99718481D01*
X162421740Y-99861017D01*
X162711088Y-99948790D01*
X163012000Y-99978427D01*
X163312913Y-99948790D01*
X163602261Y-99861017D01*
X163868927Y-99718481D01*
X164102661Y-99526661D01*
X164294481Y-99292927D01*
X164437017Y-99026261D01*
X164524790Y-98736913D01*
X164547000Y-98511408D01*
X164547000Y-96560593D01*
X164977000Y-96560593D01*
X164977000Y-98511408D01*
X164999211Y-98736913D01*
X165086984Y-99026261D01*
X165229520Y-99292927D01*
X165421340Y-99526661D01*
X165655074Y-99718481D01*
X165921740Y-99861017D01*
X166211088Y-99948790D01*
X166512000Y-99978427D01*
X166812913Y-99948790D01*
X167102261Y-99861017D01*
X167368927Y-99718481D01*
X167602661Y-99526661D01*
X167794481Y-99292927D01*
X167937017Y-99026261D01*
X168024790Y-98736913D01*
X168047000Y-98511408D01*
X168047000Y-96560592D01*
X168024790Y-96335087D01*
X167937017Y-96045739D01*
X167794481Y-95779073D01*
X167602661Y-95545339D01*
X167368926Y-95353519D01*
X167102260Y-95210983D01*
X166812912Y-95123210D01*
X166512000Y-95093573D01*
X166211087Y-95123210D01*
X165921739Y-95210983D01*
X165655073Y-95353519D01*
X165421339Y-95545339D01*
X165229519Y-95779074D01*
X165086983Y-96045740D01*
X164999210Y-96335088D01*
X164977000Y-96560593D01*
X164547000Y-96560593D01*
X164547000Y-96560592D01*
X164524790Y-96335087D01*
X164437017Y-96045739D01*
X164294481Y-95779073D01*
X164102661Y-95545339D01*
X163868926Y-95353519D01*
X163602260Y-95210983D01*
X163312912Y-95123210D01*
X163012000Y-95093573D01*
X162711087Y-95123210D01*
X162421739Y-95210983D01*
X162155073Y-95353519D01*
X161921339Y-95545339D01*
X161729519Y-95779074D01*
X161586983Y-96045740D01*
X161499210Y-96335088D01*
X161477000Y-96560593D01*
X160739612Y-96560593D01*
X160740582Y-95736000D01*
X160734268Y-95671897D01*
X160715570Y-95610257D01*
X160685206Y-95553450D01*
X160644343Y-95503657D01*
X160594550Y-95462794D01*
X160537743Y-95432430D01*
X160476103Y-95413732D01*
X160412000Y-95407418D01*
X159966750Y-95409000D01*
X159885000Y-95490750D01*
X159139000Y-95490750D01*
X159057250Y-95409000D01*
X158612000Y-95407418D01*
X158547897Y-95413732D01*
X158486257Y-95432430D01*
X158429450Y-95462794D01*
X158379657Y-95503657D01*
X158338794Y-95553450D01*
X158308430Y-95610257D01*
X158289732Y-95671897D01*
X158283418Y-95736000D01*
X153027133Y-95736000D01*
X152870661Y-95545339D01*
X152636926Y-95353519D01*
X152370260Y-95210983D01*
X152080912Y-95123210D01*
X151780000Y-95093573D01*
X151479087Y-95123210D01*
X151189739Y-95210983D01*
X150923073Y-95353519D01*
X150689339Y-95545339D01*
X150497519Y-95779074D01*
X150354983Y-96045740D01*
X150267210Y-96335088D01*
X150245000Y-96560593D01*
X149815000Y-96560593D01*
X149815000Y-96560592D01*
X149792790Y-96335087D01*
X149705017Y-96045739D01*
X149562481Y-95779073D01*
X149370661Y-95545339D01*
X149136926Y-95353519D01*
X148870260Y-95210983D01*
X148580912Y-95123210D01*
X148280000Y-95093573D01*
X147979087Y-95123210D01*
X147689739Y-95210983D01*
X147423073Y-95353519D01*
X147189339Y-95545339D01*
X146997519Y-95779074D01*
X146854983Y-96045740D01*
X146767210Y-96335088D01*
X146745000Y-96560593D01*
X146007612Y-96560593D01*
X146008582Y-95736000D01*
X146002268Y-95671897D01*
X145983570Y-95610257D01*
X145953206Y-95553450D01*
X145912343Y-95503657D01*
X145862550Y-95462794D01*
X145805743Y-95432430D01*
X145744103Y-95413732D01*
X145680000Y-95407418D01*
X145234750Y-95409000D01*
X145153000Y-95490750D01*
X144407000Y-95490750D01*
X144325250Y-95409000D01*
X143880000Y-95407418D01*
X143815897Y-95413732D01*
X143754257Y-95432430D01*
X143697450Y-95462794D01*
X143647657Y-95503657D01*
X143606794Y-95553450D01*
X143576430Y-95610257D01*
X143557732Y-95671897D01*
X143551418Y-95736000D01*
X138295133Y-95736000D01*
X138138661Y-95545339D01*
X137904926Y-95353519D01*
X137638260Y-95210983D01*
X137348912Y-95123210D01*
X137048000Y-95093573D01*
X136747087Y-95123210D01*
X136457739Y-95210983D01*
X136191073Y-95353519D01*
X135957339Y-95545339D01*
X135765519Y-95779074D01*
X135622983Y-96045740D01*
X135535210Y-96335088D01*
X135513000Y-96560593D01*
X135083000Y-96560593D01*
X135083000Y-96560592D01*
X135060790Y-96335087D01*
X134973017Y-96045739D01*
X134830481Y-95779073D01*
X134638661Y-95545339D01*
X134404926Y-95353519D01*
X134138260Y-95210983D01*
X133848912Y-95123210D01*
X133548000Y-95093573D01*
X133247087Y-95123210D01*
X132957739Y-95210983D01*
X132691073Y-95353519D01*
X132457339Y-95545339D01*
X132265519Y-95779074D01*
X132122983Y-96045740D01*
X132035210Y-96335088D01*
X132013000Y-96560593D01*
X131275612Y-96560593D01*
X131276582Y-95736000D01*
X131270268Y-95671897D01*
X131251570Y-95610257D01*
X131221206Y-95553450D01*
X131180343Y-95503657D01*
X131130550Y-95462794D01*
X131073743Y-95432430D01*
X131012103Y-95413732D01*
X130948000Y-95407418D01*
X130502750Y-95409000D01*
X130421000Y-95490750D01*
X129675000Y-95490750D01*
X129593250Y-95409000D01*
X129148000Y-95407418D01*
X129083897Y-95413732D01*
X129022257Y-95432430D01*
X128965450Y-95462794D01*
X128915657Y-95503657D01*
X128874794Y-95553450D01*
X128844430Y-95610257D01*
X128825732Y-95671897D01*
X128819418Y-95736000D01*
X115976000Y-95736000D01*
X115976000Y-92950000D01*
X118561928Y-92950000D01*
X118561928Y-94550000D01*
X118574188Y-94674482D01*
X118610498Y-94794180D01*
X118669463Y-94904494D01*
X118748815Y-95001185D01*
X118845506Y-95080537D01*
X118955820Y-95139502D01*
X119075518Y-95175812D01*
X119200000Y-95188072D01*
X120800000Y-95188072D01*
X120924482Y-95175812D01*
X121044180Y-95139502D01*
X121154494Y-95080537D01*
X121251185Y-95001185D01*
X121330537Y-94904494D01*
X121389502Y-94794180D01*
X121415547Y-94708318D01*
X123069183Y-94708318D01*
X123173266Y-94834295D01*
X123391080Y-94877203D01*
X123613080Y-94876794D01*
X123826734Y-94834295D01*
X123930817Y-94708318D01*
X123500000Y-94277502D01*
X123069183Y-94708318D01*
X121415547Y-94708318D01*
X121425812Y-94674482D01*
X121438072Y-94550000D01*
X121438072Y-93641080D01*
X122372797Y-93641080D01*
X122373206Y-93863080D01*
X122415705Y-94076734D01*
X122541682Y-94180817D01*
X122972498Y-93750000D01*
X124027502Y-93750000D01*
X124458318Y-94180817D01*
X124584295Y-94076734D01*
X124627203Y-93858920D01*
X124626794Y-93636920D01*
X124584295Y-93423266D01*
X124458318Y-93319183D01*
X124027502Y-93750000D01*
X122972498Y-93750000D01*
X122541682Y-93319183D01*
X122415705Y-93423266D01*
X122372797Y-93641080D01*
X121438072Y-93641080D01*
X121438072Y-92950000D01*
X121425812Y-92825518D01*
X121415548Y-92791682D01*
X123069183Y-92791682D01*
X123500000Y-93222498D01*
X123930817Y-92791682D01*
X123826734Y-92665705D01*
X123608920Y-92622797D01*
X123386920Y-92623206D01*
X123173266Y-92665705D01*
X123069183Y-92791682D01*
X121415548Y-92791682D01*
X121389502Y-92705820D01*
X121330537Y-92595506D01*
X121251185Y-92498815D01*
X121154494Y-92419463D01*
X121044180Y-92360498D01*
X120924482Y-92324188D01*
X120800000Y-92311928D01*
X119200000Y-92311928D01*
X119075518Y-92324188D01*
X118955820Y-92360498D01*
X118845506Y-92419463D01*
X118748815Y-92498815D01*
X118669463Y-92595506D01*
X118610498Y-92705820D01*
X118574188Y-92825518D01*
X118561928Y-92950000D01*
X115976000Y-92950000D01*
X115976000Y-89624000D01*
X132927928Y-89624000D01*
X132927928Y-91224000D01*
X132940188Y-91348482D01*
X132976498Y-91468180D01*
X133035463Y-91578494D01*
X133114815Y-91675185D01*
X133211506Y-91754537D01*
X133321820Y-91813502D01*
X133441518Y-91849812D01*
X133566000Y-91862072D01*
X135166000Y-91862072D01*
X135290482Y-91849812D01*
X135410180Y-91813502D01*
X135520494Y-91754537D01*
X135617185Y-91675185D01*
X135696537Y-91578494D01*
X135755502Y-91468180D01*
X135791812Y-91348482D01*
X135792643Y-91340039D01*
X135991241Y-91538637D01*
X136226273Y-91695680D01*
X136487426Y-91803853D01*
X136764665Y-91859000D01*
X137047335Y-91859000D01*
X137324574Y-91803853D01*
X137585727Y-91695680D01*
X137820759Y-91538637D01*
X138020637Y-91338759D01*
X138176000Y-91106241D01*
X138331363Y-91338759D01*
X138531241Y-91538637D01*
X138766273Y-91695680D01*
X139027426Y-91803853D01*
X139304665Y-91859000D01*
X139587335Y-91859000D01*
X139864574Y-91803853D01*
X140125727Y-91695680D01*
X140360759Y-91538637D01*
X140560637Y-91338759D01*
X140716000Y-91106241D01*
X140871363Y-91338759D01*
X141071241Y-91538637D01*
X141306273Y-91695680D01*
X141567426Y-91803853D01*
X141844665Y-91859000D01*
X142127335Y-91859000D01*
X142404574Y-91803853D01*
X142665727Y-91695680D01*
X142900759Y-91538637D01*
X143100637Y-91338759D01*
X143256000Y-91106241D01*
X143411363Y-91338759D01*
X143611241Y-91538637D01*
X143846273Y-91695680D01*
X144107426Y-91803853D01*
X144384665Y-91859000D01*
X144667335Y-91859000D01*
X144944574Y-91803853D01*
X145205727Y-91695680D01*
X145440759Y-91538637D01*
X145640637Y-91338759D01*
X145796000Y-91106241D01*
X145951363Y-91338759D01*
X146151241Y-91538637D01*
X146386273Y-91695680D01*
X146647426Y-91803853D01*
X146924665Y-91859000D01*
X147207335Y-91859000D01*
X147484574Y-91803853D01*
X147745727Y-91695680D01*
X147980759Y-91538637D01*
X148180637Y-91338759D01*
X148336000Y-91106241D01*
X148491363Y-91338759D01*
X148691241Y-91538637D01*
X148926273Y-91695680D01*
X149187426Y-91803853D01*
X149464665Y-91859000D01*
X149747335Y-91859000D01*
X150024574Y-91803853D01*
X150285727Y-91695680D01*
X150520759Y-91538637D01*
X150720637Y-91338759D01*
X150876000Y-91106241D01*
X151031363Y-91338759D01*
X151231241Y-91538637D01*
X151466273Y-91695680D01*
X151727426Y-91803853D01*
X152004665Y-91859000D01*
X152287335Y-91859000D01*
X152564574Y-91803853D01*
X152825727Y-91695680D01*
X153060759Y-91538637D01*
X153260637Y-91338759D01*
X153417680Y-91103727D01*
X153525853Y-90842574D01*
X153581000Y-90565335D01*
X153581000Y-90282665D01*
X153525853Y-90005426D01*
X153417680Y-89744273D01*
X153337317Y-89624000D01*
X154517928Y-89624000D01*
X154517928Y-91224000D01*
X154530188Y-91348482D01*
X154566498Y-91468180D01*
X154625463Y-91578494D01*
X154704815Y-91675185D01*
X154801506Y-91754537D01*
X154911820Y-91813502D01*
X155031518Y-91849812D01*
X155156000Y-91862072D01*
X156756000Y-91862072D01*
X156880482Y-91849812D01*
X157000180Y-91813502D01*
X157110494Y-91754537D01*
X157207185Y-91675185D01*
X157286537Y-91578494D01*
X157345502Y-91468180D01*
X157381812Y-91348482D01*
X157382643Y-91340039D01*
X157581241Y-91538637D01*
X157816273Y-91695680D01*
X158077426Y-91803853D01*
X158354665Y-91859000D01*
X158637335Y-91859000D01*
X158914574Y-91803853D01*
X159175727Y-91695680D01*
X159410759Y-91538637D01*
X159610637Y-91338759D01*
X159766000Y-91106241D01*
X159921363Y-91338759D01*
X160121241Y-91538637D01*
X160356273Y-91695680D01*
X160617426Y-91803853D01*
X160894665Y-91859000D01*
X161177335Y-91859000D01*
X161454574Y-91803853D01*
X161715727Y-91695680D01*
X161950759Y-91538637D01*
X162150637Y-91338759D01*
X162306000Y-91106241D01*
X162461363Y-91338759D01*
X162661241Y-91538637D01*
X162896273Y-91695680D01*
X163157426Y-91803853D01*
X163434665Y-91859000D01*
X163717335Y-91859000D01*
X163994574Y-91803853D01*
X164255727Y-91695680D01*
X164490759Y-91538637D01*
X164690637Y-91338759D01*
X164846000Y-91106241D01*
X165001363Y-91338759D01*
X165201241Y-91538637D01*
X165436273Y-91695680D01*
X165697426Y-91803853D01*
X165974665Y-91859000D01*
X166257335Y-91859000D01*
X166534574Y-91803853D01*
X166795727Y-91695680D01*
X167030759Y-91538637D01*
X167230637Y-91338759D01*
X167386000Y-91106241D01*
X167541363Y-91338759D01*
X167741241Y-91538637D01*
X167976273Y-91695680D01*
X168237426Y-91803853D01*
X168514665Y-91859000D01*
X168797335Y-91859000D01*
X169074574Y-91803853D01*
X169335727Y-91695680D01*
X169570759Y-91538637D01*
X169770637Y-91338759D01*
X169926000Y-91106241D01*
X170081363Y-91338759D01*
X170281241Y-91538637D01*
X170516273Y-91695680D01*
X170777426Y-91803853D01*
X171054665Y-91859000D01*
X171337335Y-91859000D01*
X171614574Y-91803853D01*
X171875727Y-91695680D01*
X172110759Y-91538637D01*
X172310637Y-91338759D01*
X172466000Y-91106241D01*
X172621363Y-91338759D01*
X172821241Y-91538637D01*
X173056273Y-91695680D01*
X173317426Y-91803853D01*
X173594665Y-91859000D01*
X173877335Y-91859000D01*
X174154574Y-91803853D01*
X174415727Y-91695680D01*
X174650759Y-91538637D01*
X174850637Y-91338759D01*
X175007680Y-91103727D01*
X175115853Y-90842574D01*
X175171000Y-90565335D01*
X175171000Y-90282665D01*
X175115853Y-90005426D01*
X175007680Y-89744273D01*
X174850637Y-89509241D01*
X174650759Y-89309363D01*
X174415727Y-89152320D01*
X174154574Y-89044147D01*
X173877335Y-88989000D01*
X173594665Y-88989000D01*
X173317426Y-89044147D01*
X173056273Y-89152320D01*
X172821241Y-89309363D01*
X172621363Y-89509241D01*
X172466000Y-89741759D01*
X172310637Y-89509241D01*
X172110759Y-89309363D01*
X171875727Y-89152320D01*
X171614574Y-89044147D01*
X171337335Y-88989000D01*
X171054665Y-88989000D01*
X170777426Y-89044147D01*
X170516273Y-89152320D01*
X170281241Y-89309363D01*
X170081363Y-89509241D01*
X169926000Y-89741759D01*
X169770637Y-89509241D01*
X169570759Y-89309363D01*
X169335727Y-89152320D01*
X169074574Y-89044147D01*
X168797335Y-88989000D01*
X168514665Y-88989000D01*
X168237426Y-89044147D01*
X167976273Y-89152320D01*
X167741241Y-89309363D01*
X167541363Y-89509241D01*
X167386000Y-89741759D01*
X167230637Y-89509241D01*
X167030759Y-89309363D01*
X166795727Y-89152320D01*
X166534574Y-89044147D01*
X166257335Y-88989000D01*
X165974665Y-88989000D01*
X165697426Y-89044147D01*
X165436273Y-89152320D01*
X165201241Y-89309363D01*
X165001363Y-89509241D01*
X164846000Y-89741759D01*
X164690637Y-89509241D01*
X164490759Y-89309363D01*
X164255727Y-89152320D01*
X163994574Y-89044147D01*
X163717335Y-88989000D01*
X163434665Y-88989000D01*
X163157426Y-89044147D01*
X162896273Y-89152320D01*
X162661241Y-89309363D01*
X162461363Y-89509241D01*
X162306000Y-89741759D01*
X162150637Y-89509241D01*
X161950759Y-89309363D01*
X161715727Y-89152320D01*
X161454574Y-89044147D01*
X161177335Y-88989000D01*
X160894665Y-88989000D01*
X160617426Y-89044147D01*
X160356273Y-89152320D01*
X160121241Y-89309363D01*
X159921363Y-89509241D01*
X159766000Y-89741759D01*
X159610637Y-89509241D01*
X159410759Y-89309363D01*
X159175727Y-89152320D01*
X158914574Y-89044147D01*
X158637335Y-88989000D01*
X158354665Y-88989000D01*
X158077426Y-89044147D01*
X157816273Y-89152320D01*
X157581241Y-89309363D01*
X157382643Y-89507961D01*
X157381812Y-89499518D01*
X157345502Y-89379820D01*
X157286537Y-89269506D01*
X157207185Y-89172815D01*
X157110494Y-89093463D01*
X157000180Y-89034498D01*
X156880482Y-88998188D01*
X156756000Y-88985928D01*
X155156000Y-88985928D01*
X155031518Y-88998188D01*
X154911820Y-89034498D01*
X154801506Y-89093463D01*
X154704815Y-89172815D01*
X154625463Y-89269506D01*
X154566498Y-89379820D01*
X154530188Y-89499518D01*
X154517928Y-89624000D01*
X153337317Y-89624000D01*
X153260637Y-89509241D01*
X153060759Y-89309363D01*
X152825727Y-89152320D01*
X152564574Y-89044147D01*
X152287335Y-88989000D01*
X152004665Y-88989000D01*
X151727426Y-89044147D01*
X151466273Y-89152320D01*
X151231241Y-89309363D01*
X151031363Y-89509241D01*
X150876000Y-89741759D01*
X150720637Y-89509241D01*
X150520759Y-89309363D01*
X150285727Y-89152320D01*
X150024574Y-89044147D01*
X149747335Y-88989000D01*
X149464665Y-88989000D01*
X149187426Y-89044147D01*
X148926273Y-89152320D01*
X148691241Y-89309363D01*
X148491363Y-89509241D01*
X148336000Y-89741759D01*
X148180637Y-89509241D01*
X147980759Y-89309363D01*
X147745727Y-89152320D01*
X147484574Y-89044147D01*
X147207335Y-88989000D01*
X146924665Y-88989000D01*
X146647426Y-89044147D01*
X146386273Y-89152320D01*
X146151241Y-89309363D01*
X145951363Y-89509241D01*
X145796000Y-89741759D01*
X145640637Y-89509241D01*
X145440759Y-89309363D01*
X145205727Y-89152320D01*
X144944574Y-89044147D01*
X144667335Y-88989000D01*
X144384665Y-88989000D01*
X144107426Y-89044147D01*
X143846273Y-89152320D01*
X143611241Y-89309363D01*
X143411363Y-89509241D01*
X143256000Y-89741759D01*
X143100637Y-89509241D01*
X142900759Y-89309363D01*
X142665727Y-89152320D01*
X142404574Y-89044147D01*
X142127335Y-88989000D01*
X141844665Y-88989000D01*
X141567426Y-89044147D01*
X141306273Y-89152320D01*
X141071241Y-89309363D01*
X140871363Y-89509241D01*
X140716000Y-89741759D01*
X140560637Y-89509241D01*
X140360759Y-89309363D01*
X140125727Y-89152320D01*
X139864574Y-89044147D01*
X139587335Y-88989000D01*
X139304665Y-88989000D01*
X139027426Y-89044147D01*
X138766273Y-89152320D01*
X138531241Y-89309363D01*
X138331363Y-89509241D01*
X138176000Y-89741759D01*
X138020637Y-89509241D01*
X137820759Y-89309363D01*
X137585727Y-89152320D01*
X137324574Y-89044147D01*
X137047335Y-88989000D01*
X136764665Y-88989000D01*
X136487426Y-89044147D01*
X136226273Y-89152320D01*
X135991241Y-89309363D01*
X135792643Y-89507961D01*
X135791812Y-89499518D01*
X135755502Y-89379820D01*
X135696537Y-89269506D01*
X135617185Y-89172815D01*
X135520494Y-89093463D01*
X135410180Y-89034498D01*
X135290482Y-88998188D01*
X135166000Y-88985928D01*
X133566000Y-88985928D01*
X133441518Y-88998188D01*
X133321820Y-89034498D01*
X133211506Y-89093463D01*
X133114815Y-89172815D01*
X133035463Y-89269506D01*
X132976498Y-89379820D01*
X132940188Y-89499518D01*
X132927928Y-89624000D01*
X115976000Y-89624000D01*
X115976000Y-85150000D01*
X120261928Y-85150000D01*
X120261928Y-86850000D01*
X120274188Y-86974482D01*
X120310498Y-87094180D01*
X120369463Y-87204494D01*
X120448815Y-87301185D01*
X120545506Y-87380537D01*
X120655820Y-87439502D01*
X120775518Y-87475812D01*
X120900000Y-87488072D01*
X122600000Y-87488072D01*
X122724482Y-87475812D01*
X122844180Y-87439502D01*
X122954494Y-87380537D01*
X123051185Y-87301185D01*
X123130537Y-87204494D01*
X123189502Y-87094180D01*
X123225812Y-86974482D01*
X123238072Y-86850000D01*
X123238072Y-85954816D01*
X126989000Y-85954816D01*
X126989000Y-86257184D01*
X127047989Y-86553743D01*
X127163701Y-86833095D01*
X127331688Y-87084505D01*
X127545495Y-87298312D01*
X127796905Y-87466299D01*
X128076257Y-87582011D01*
X128372816Y-87641000D01*
X128675184Y-87641000D01*
X128971743Y-87582011D01*
X129251095Y-87466299D01*
X129502505Y-87298312D01*
X129568944Y-87231873D01*
X129574498Y-87250180D01*
X129633463Y-87360494D01*
X129712815Y-87457185D01*
X129809506Y-87536537D01*
X129919820Y-87595502D01*
X130039518Y-87631812D01*
X130164000Y-87644072D01*
X131964000Y-87644072D01*
X132088482Y-87631812D01*
X132208180Y-87595502D01*
X132318494Y-87536537D01*
X132415185Y-87457185D01*
X132494537Y-87360494D01*
X132553502Y-87250180D01*
X132589812Y-87130482D01*
X132590643Y-87122039D01*
X132689241Y-87220637D01*
X132924273Y-87377680D01*
X133185426Y-87485853D01*
X133462665Y-87541000D01*
X133745335Y-87541000D01*
X134022574Y-87485853D01*
X134283727Y-87377680D01*
X134518759Y-87220637D01*
X134718637Y-87020759D01*
X134875680Y-86785727D01*
X134935721Y-86640773D01*
X140231958Y-86640773D01*
X140350285Y-86817895D01*
X140505957Y-86974669D01*
X140689223Y-87098061D01*
X140851000Y-87087755D01*
X140851000Y-86479000D01*
X141597000Y-86479000D01*
X141597000Y-87087755D01*
X141758777Y-87098061D01*
X141942043Y-86974669D01*
X142097715Y-86817895D01*
X142148640Y-86741665D01*
X144513300Y-86741665D01*
X144513300Y-86994335D01*
X144562594Y-87242150D01*
X144659286Y-87475586D01*
X144799662Y-87685673D01*
X144978327Y-87864338D01*
X145188414Y-88004714D01*
X145421850Y-88101406D01*
X145669665Y-88150700D01*
X145922335Y-88150700D01*
X146170150Y-88101406D01*
X146403586Y-88004714D01*
X146613673Y-87864338D01*
X146792338Y-87685673D01*
X146932714Y-87475586D01*
X147029406Y-87242150D01*
X147066000Y-87058182D01*
X147102594Y-87242150D01*
X147199286Y-87475586D01*
X147339662Y-87685673D01*
X147518327Y-87864338D01*
X147728414Y-88004714D01*
X147961850Y-88101406D01*
X148209665Y-88150700D01*
X148462335Y-88150700D01*
X148710150Y-88101406D01*
X148943586Y-88004714D01*
X149153673Y-87864338D01*
X149332338Y-87685673D01*
X149472714Y-87475586D01*
X149569406Y-87242150D01*
X149606000Y-87058182D01*
X149642594Y-87242150D01*
X149739286Y-87475586D01*
X149879662Y-87685673D01*
X150058327Y-87864338D01*
X150268414Y-88004714D01*
X150501850Y-88101406D01*
X150749665Y-88150700D01*
X151002335Y-88150700D01*
X151250150Y-88101406D01*
X151483586Y-88004714D01*
X151693673Y-87864338D01*
X151872338Y-87685673D01*
X152012714Y-87475586D01*
X152109406Y-87242150D01*
X152146000Y-87058182D01*
X152182594Y-87242150D01*
X152279286Y-87475586D01*
X152419662Y-87685673D01*
X152598327Y-87864338D01*
X152808414Y-88004714D01*
X153041850Y-88101406D01*
X153289665Y-88150700D01*
X153542335Y-88150700D01*
X153790150Y-88101406D01*
X154023586Y-88004714D01*
X154233673Y-87864338D01*
X154412338Y-87685673D01*
X154552714Y-87475586D01*
X154649406Y-87242150D01*
X154686000Y-87058182D01*
X154722594Y-87242150D01*
X154819286Y-87475586D01*
X154959662Y-87685673D01*
X155138327Y-87864338D01*
X155348414Y-88004714D01*
X155581850Y-88101406D01*
X155829665Y-88150700D01*
X156082335Y-88150700D01*
X156330150Y-88101406D01*
X156563586Y-88004714D01*
X156773673Y-87864338D01*
X156952338Y-87685673D01*
X157092714Y-87475586D01*
X157189406Y-87242150D01*
X157226000Y-87058182D01*
X157262594Y-87242150D01*
X157359286Y-87475586D01*
X157499662Y-87685673D01*
X157678327Y-87864338D01*
X157888414Y-88004714D01*
X158121850Y-88101406D01*
X158369665Y-88150700D01*
X158622335Y-88150700D01*
X158870150Y-88101406D01*
X159103586Y-88004714D01*
X159313673Y-87864338D01*
X159492338Y-87685673D01*
X159632714Y-87475586D01*
X159729406Y-87242150D01*
X159766000Y-87058182D01*
X159802594Y-87242150D01*
X159899286Y-87475586D01*
X160039662Y-87685673D01*
X160218327Y-87864338D01*
X160428414Y-88004714D01*
X160661850Y-88101406D01*
X160909665Y-88150700D01*
X161162335Y-88150700D01*
X161410150Y-88101406D01*
X161643586Y-88004714D01*
X161853673Y-87864338D01*
X162032338Y-87685673D01*
X162172714Y-87475586D01*
X162269406Y-87242150D01*
X162306000Y-87058182D01*
X162342594Y-87242150D01*
X162439286Y-87475586D01*
X162579662Y-87685673D01*
X162758327Y-87864338D01*
X162968414Y-88004714D01*
X163201850Y-88101406D01*
X163449665Y-88150700D01*
X163702335Y-88150700D01*
X163950150Y-88101406D01*
X164183586Y-88004714D01*
X164393673Y-87864338D01*
X164548906Y-87709105D01*
X165802397Y-87709105D01*
X165885461Y-87819896D01*
X166075596Y-87846582D01*
X166267284Y-87835661D01*
X166346539Y-87819896D01*
X166429603Y-87709105D01*
X166116000Y-87395502D01*
X165802397Y-87709105D01*
X164548906Y-87709105D01*
X164572338Y-87685673D01*
X164712714Y-87475586D01*
X164809406Y-87242150D01*
X164858700Y-86994335D01*
X164858700Y-86827596D01*
X165137418Y-86827596D01*
X165148339Y-87019284D01*
X165164104Y-87098539D01*
X165274895Y-87181603D01*
X165588498Y-86868000D01*
X166643502Y-86868000D01*
X166957105Y-87181603D01*
X167067896Y-87098539D01*
X167094582Y-86908404D01*
X167085083Y-86741665D01*
X167373300Y-86741665D01*
X167373300Y-86994335D01*
X167422594Y-87242150D01*
X167519286Y-87475586D01*
X167659662Y-87685673D01*
X167838327Y-87864338D01*
X168048414Y-88004714D01*
X168281850Y-88101406D01*
X168529665Y-88150700D01*
X168782335Y-88150700D01*
X169030150Y-88101406D01*
X169263586Y-88004714D01*
X169473673Y-87864338D01*
X169652338Y-87685673D01*
X169792714Y-87475586D01*
X169889406Y-87242150D01*
X169938700Y-86994335D01*
X169938700Y-86741665D01*
X169889406Y-86493850D01*
X169792714Y-86260414D01*
X169652338Y-86050327D01*
X169473673Y-85871662D01*
X169263586Y-85731286D01*
X169030150Y-85634594D01*
X168782335Y-85585300D01*
X168529665Y-85585300D01*
X168281850Y-85634594D01*
X168048414Y-85731286D01*
X167838327Y-85871662D01*
X167659662Y-86050327D01*
X167519286Y-86260414D01*
X167422594Y-86493850D01*
X167373300Y-86741665D01*
X167085083Y-86741665D01*
X167083661Y-86716716D01*
X167067896Y-86637461D01*
X166957105Y-86554397D01*
X166643502Y-86868000D01*
X165588498Y-86868000D01*
X165274895Y-86554397D01*
X165164104Y-86637461D01*
X165137418Y-86827596D01*
X164858700Y-86827596D01*
X164858700Y-86741665D01*
X164809406Y-86493850D01*
X164712714Y-86260414D01*
X164572338Y-86050327D01*
X164548906Y-86026895D01*
X165802397Y-86026895D01*
X166116000Y-86340498D01*
X166429603Y-86026895D01*
X166346539Y-85916104D01*
X166156404Y-85889418D01*
X165964716Y-85900339D01*
X165885461Y-85916104D01*
X165802397Y-86026895D01*
X164548906Y-86026895D01*
X164393673Y-85871662D01*
X164183586Y-85731286D01*
X163950150Y-85634594D01*
X163702335Y-85585300D01*
X163449665Y-85585300D01*
X163201850Y-85634594D01*
X162968414Y-85731286D01*
X162758327Y-85871662D01*
X162579662Y-86050327D01*
X162439286Y-86260414D01*
X162342594Y-86493850D01*
X162306000Y-86677818D01*
X162269406Y-86493850D01*
X162172714Y-86260414D01*
X162032338Y-86050327D01*
X161853673Y-85871662D01*
X161643586Y-85731286D01*
X161410150Y-85634594D01*
X161162335Y-85585300D01*
X160909665Y-85585300D01*
X160661850Y-85634594D01*
X160428414Y-85731286D01*
X160218327Y-85871662D01*
X160039662Y-86050327D01*
X159899286Y-86260414D01*
X159802594Y-86493850D01*
X159766000Y-86677818D01*
X159729406Y-86493850D01*
X159632714Y-86260414D01*
X159492338Y-86050327D01*
X159313673Y-85871662D01*
X159103586Y-85731286D01*
X158870150Y-85634594D01*
X158622335Y-85585300D01*
X158369665Y-85585300D01*
X158121850Y-85634594D01*
X157888414Y-85731286D01*
X157678327Y-85871662D01*
X157499662Y-86050327D01*
X157359286Y-86260414D01*
X157262594Y-86493850D01*
X157226000Y-86677818D01*
X157189406Y-86493850D01*
X157092714Y-86260414D01*
X156952338Y-86050327D01*
X156773673Y-85871662D01*
X156563586Y-85731286D01*
X156330150Y-85634594D01*
X156082335Y-85585300D01*
X155829665Y-85585300D01*
X155581850Y-85634594D01*
X155348414Y-85731286D01*
X155138327Y-85871662D01*
X154959662Y-86050327D01*
X154819286Y-86260414D01*
X154722594Y-86493850D01*
X154686000Y-86677818D01*
X154649406Y-86493850D01*
X154552714Y-86260414D01*
X154412338Y-86050327D01*
X154233673Y-85871662D01*
X154023586Y-85731286D01*
X153790150Y-85634594D01*
X153542335Y-85585300D01*
X153289665Y-85585300D01*
X153041850Y-85634594D01*
X152808414Y-85731286D01*
X152598327Y-85871662D01*
X152419662Y-86050327D01*
X152279286Y-86260414D01*
X152182594Y-86493850D01*
X152146000Y-86677818D01*
X152109406Y-86493850D01*
X152012714Y-86260414D01*
X151872338Y-86050327D01*
X151693673Y-85871662D01*
X151483586Y-85731286D01*
X151250150Y-85634594D01*
X151002335Y-85585300D01*
X150749665Y-85585300D01*
X150501850Y-85634594D01*
X150268414Y-85731286D01*
X150058327Y-85871662D01*
X149879662Y-86050327D01*
X149739286Y-86260414D01*
X149642594Y-86493850D01*
X149606000Y-86677818D01*
X149569406Y-86493850D01*
X149472714Y-86260414D01*
X149332338Y-86050327D01*
X149153673Y-85871662D01*
X148943586Y-85731286D01*
X148710150Y-85634594D01*
X148462335Y-85585300D01*
X148209665Y-85585300D01*
X147961850Y-85634594D01*
X147728414Y-85731286D01*
X147518327Y-85871662D01*
X147339662Y-86050327D01*
X147199286Y-86260414D01*
X147102594Y-86493850D01*
X147066000Y-86677818D01*
X147029406Y-86493850D01*
X146932714Y-86260414D01*
X146792338Y-86050327D01*
X146613673Y-85871662D01*
X146403586Y-85731286D01*
X146170150Y-85634594D01*
X145922335Y-85585300D01*
X145669665Y-85585300D01*
X145421850Y-85634594D01*
X145188414Y-85731286D01*
X144978327Y-85871662D01*
X144799662Y-86050327D01*
X144659286Y-86260414D01*
X144562594Y-86493850D01*
X144513300Y-86741665D01*
X142148640Y-86741665D01*
X142216042Y-86640773D01*
X142200432Y-86479000D01*
X141597000Y-86479000D01*
X140851000Y-86479000D01*
X140247568Y-86479000D01*
X140231958Y-86640773D01*
X134935721Y-86640773D01*
X134983853Y-86524574D01*
X135039000Y-86247335D01*
X135039000Y-85964665D01*
X134983853Y-85687426D01*
X134935722Y-85571227D01*
X140231958Y-85571227D01*
X140247568Y-85733000D01*
X140851000Y-85733000D01*
X140851000Y-85124245D01*
X141597000Y-85124245D01*
X141597000Y-85733000D01*
X142200432Y-85733000D01*
X142216042Y-85571227D01*
X142139509Y-85456665D01*
X171793000Y-85456665D01*
X171793000Y-85739335D01*
X171848147Y-86016574D01*
X171956320Y-86277727D01*
X172113363Y-86512759D01*
X172313241Y-86712637D01*
X172548273Y-86869680D01*
X172809426Y-86977853D01*
X173086665Y-87033000D01*
X173369335Y-87033000D01*
X173646574Y-86977853D01*
X173907727Y-86869680D01*
X174142759Y-86712637D01*
X174342637Y-86512759D01*
X174499680Y-86277727D01*
X174607853Y-86016574D01*
X174663000Y-85739335D01*
X174663000Y-85456665D01*
X174607853Y-85179426D01*
X174499680Y-84918273D01*
X174342637Y-84683241D01*
X174142759Y-84483363D01*
X173907727Y-84326320D01*
X173646574Y-84218147D01*
X173369335Y-84163000D01*
X173086665Y-84163000D01*
X172809426Y-84218147D01*
X172548273Y-84326320D01*
X172313241Y-84483363D01*
X172113363Y-84683241D01*
X171956320Y-84918273D01*
X171848147Y-85179426D01*
X171793000Y-85456665D01*
X142139509Y-85456665D01*
X142097715Y-85394105D01*
X141942043Y-85237331D01*
X141758777Y-85113939D01*
X141597000Y-85124245D01*
X140851000Y-85124245D01*
X140689223Y-85113939D01*
X140505957Y-85237331D01*
X140350285Y-85394105D01*
X140231958Y-85571227D01*
X134935722Y-85571227D01*
X134875680Y-85426273D01*
X134718637Y-85191241D01*
X134518759Y-84991363D01*
X134283727Y-84834320D01*
X134022574Y-84726147D01*
X133745335Y-84671000D01*
X133462665Y-84671000D01*
X133185426Y-84726147D01*
X132924273Y-84834320D01*
X132689241Y-84991363D01*
X132590643Y-85089961D01*
X132589812Y-85081518D01*
X132553502Y-84961820D01*
X132494537Y-84851506D01*
X132415185Y-84754815D01*
X132318494Y-84675463D01*
X132208180Y-84616498D01*
X132088482Y-84580188D01*
X131964000Y-84567928D01*
X130164000Y-84567928D01*
X130039518Y-84580188D01*
X129919820Y-84616498D01*
X129809506Y-84675463D01*
X129712815Y-84754815D01*
X129633463Y-84851506D01*
X129574498Y-84961820D01*
X129568944Y-84980127D01*
X129502505Y-84913688D01*
X129251095Y-84745701D01*
X128971743Y-84629989D01*
X128675184Y-84571000D01*
X128372816Y-84571000D01*
X128076257Y-84629989D01*
X127796905Y-84745701D01*
X127545495Y-84913688D01*
X127331688Y-85127495D01*
X127163701Y-85378905D01*
X127047989Y-85658257D01*
X126989000Y-85954816D01*
X123238072Y-85954816D01*
X123238072Y-85150000D01*
X123225812Y-85025518D01*
X123189502Y-84905820D01*
X123130537Y-84795506D01*
X123051185Y-84698815D01*
X122954494Y-84619463D01*
X122844180Y-84560498D01*
X122771620Y-84538487D01*
X122903475Y-84406632D01*
X123065990Y-84163411D01*
X123177932Y-83893158D01*
X123235000Y-83606260D01*
X123235000Y-83313740D01*
X123177932Y-83026842D01*
X123065990Y-82756589D01*
X122903475Y-82513368D01*
X122696632Y-82306525D01*
X122522240Y-82190000D01*
X122696632Y-82073475D01*
X122903475Y-81866632D01*
X123065990Y-81623411D01*
X123177932Y-81353158D01*
X123235000Y-81066260D01*
X123235000Y-80773740D01*
X123177932Y-80486842D01*
X123065990Y-80216589D01*
X122903475Y-79973368D01*
X122696632Y-79766525D01*
X122453411Y-79604010D01*
X122183158Y-79492068D01*
X121896260Y-79435000D01*
X121603740Y-79435000D01*
X121316842Y-79492068D01*
X121046589Y-79604010D01*
X120803368Y-79766525D01*
X120596525Y-79973368D01*
X120434010Y-80216589D01*
X120322068Y-80486842D01*
X120265000Y-80773740D01*
X120265000Y-81066260D01*
X120322068Y-81353158D01*
X120434010Y-81623411D01*
X120596525Y-81866632D01*
X120803368Y-82073475D01*
X120977760Y-82190000D01*
X120803368Y-82306525D01*
X120596525Y-82513368D01*
X120434010Y-82756589D01*
X120322068Y-83026842D01*
X120265000Y-83313740D01*
X120265000Y-83606260D01*
X120322068Y-83893158D01*
X120434010Y-84163411D01*
X120596525Y-84406632D01*
X120728380Y-84538487D01*
X120655820Y-84560498D01*
X120545506Y-84619463D01*
X120448815Y-84698815D01*
X120369463Y-84795506D01*
X120310498Y-84905820D01*
X120274188Y-85025518D01*
X120261928Y-85150000D01*
X115976000Y-85150000D01*
X115976000Y-79432000D01*
X130641928Y-79432000D01*
X130641928Y-81032000D01*
X130654188Y-81156482D01*
X130690498Y-81276180D01*
X130749463Y-81386494D01*
X130828815Y-81483185D01*
X130925506Y-81562537D01*
X131035820Y-81621502D01*
X131155518Y-81657812D01*
X131280000Y-81670072D01*
X132880000Y-81670072D01*
X133004482Y-81657812D01*
X133124180Y-81621502D01*
X133234494Y-81562537D01*
X133242071Y-81556318D01*
X172797183Y-81556318D01*
X172901266Y-81682295D01*
X173119080Y-81725203D01*
X173341080Y-81724794D01*
X173554734Y-81682295D01*
X173658817Y-81556318D01*
X173228000Y-81125502D01*
X172797183Y-81556318D01*
X133242071Y-81556318D01*
X133331185Y-81483185D01*
X133410537Y-81386494D01*
X133469502Y-81276180D01*
X133505812Y-81156482D01*
X133518072Y-81032000D01*
X133518072Y-80089105D01*
X145482397Y-80089105D01*
X145565461Y-80199896D01*
X145755596Y-80226582D01*
X145947284Y-80215661D01*
X146026539Y-80199896D01*
X146109603Y-80089105D01*
X145796000Y-79775502D01*
X145482397Y-80089105D01*
X133518072Y-80089105D01*
X133518072Y-79432000D01*
X133505812Y-79307518D01*
X133475501Y-79207596D01*
X144817418Y-79207596D01*
X144828339Y-79399284D01*
X144844104Y-79478539D01*
X144954895Y-79561603D01*
X145268498Y-79248000D01*
X146323502Y-79248000D01*
X146637105Y-79561603D01*
X146747896Y-79478539D01*
X146774582Y-79288404D01*
X146763661Y-79096716D01*
X146747896Y-79017461D01*
X146637105Y-78934397D01*
X146323502Y-79248000D01*
X145268498Y-79248000D01*
X144954895Y-78934397D01*
X144844104Y-79017461D01*
X144817418Y-79207596D01*
X133475501Y-79207596D01*
X133469502Y-79187820D01*
X133410537Y-79077506D01*
X133331185Y-78980815D01*
X133234494Y-78901463D01*
X133124180Y-78842498D01*
X133082736Y-78829926D01*
X133144083Y-78768579D01*
X133038320Y-78662816D01*
X133164295Y-78558734D01*
X133194206Y-78406895D01*
X145482397Y-78406895D01*
X145796000Y-78720498D01*
X146109603Y-78406895D01*
X146026539Y-78296104D01*
X145836404Y-78269418D01*
X145644716Y-78280339D01*
X145565461Y-78296104D01*
X145482397Y-78406895D01*
X133194206Y-78406895D01*
X133207203Y-78340920D01*
X133206794Y-78118920D01*
X133164295Y-77905266D01*
X133038318Y-77801183D01*
X132607502Y-78232000D01*
X132621644Y-78246142D01*
X132094142Y-78773644D01*
X132080000Y-78759502D01*
X132065858Y-78773644D01*
X131538356Y-78246142D01*
X131552498Y-78232000D01*
X131121682Y-77801183D01*
X130995705Y-77905266D01*
X130952797Y-78123080D01*
X130953206Y-78345080D01*
X130995705Y-78558734D01*
X131121680Y-78662816D01*
X131015917Y-78768579D01*
X131077264Y-78829926D01*
X131035820Y-78842498D01*
X130925506Y-78901463D01*
X130828815Y-78980815D01*
X130749463Y-79077506D01*
X130690498Y-79187820D01*
X130654188Y-79307518D01*
X130641928Y-79432000D01*
X115976000Y-79432000D01*
X115976000Y-77273682D01*
X131649183Y-77273682D01*
X132080000Y-77704498D01*
X132510817Y-77273682D01*
X132406734Y-77147705D01*
X132188920Y-77104797D01*
X131966920Y-77105206D01*
X131753266Y-77147705D01*
X131649183Y-77273682D01*
X115976000Y-77273682D01*
X115976000Y-74184000D01*
X118805428Y-74184000D01*
X118805428Y-76184000D01*
X118817688Y-76308482D01*
X118853998Y-76428180D01*
X118912963Y-76538494D01*
X118992315Y-76635185D01*
X119089006Y-76714537D01*
X119199320Y-76773502D01*
X119319018Y-76809812D01*
X119443500Y-76822072D01*
X121348500Y-76822072D01*
X121472982Y-76809812D01*
X121592680Y-76773502D01*
X121702994Y-76714537D01*
X121799685Y-76635185D01*
X121879037Y-76538494D01*
X121938002Y-76428180D01*
X121974312Y-76308482D01*
X121986572Y-76184000D01*
X121986572Y-76071154D01*
X122056340Y-76152312D01*
X122252884Y-76306232D01*
X122376128Y-76382006D01*
X122563000Y-76369690D01*
X122563000Y-75557000D01*
X122543000Y-75557000D01*
X122543000Y-74811000D01*
X122563000Y-74811000D01*
X122563000Y-73998310D01*
X123309000Y-73998310D01*
X123309000Y-74811000D01*
X123329000Y-74811000D01*
X123329000Y-75557000D01*
X123309000Y-75557000D01*
X123309000Y-76369690D01*
X123495872Y-76382006D01*
X123619116Y-76306232D01*
X123815660Y-76152312D01*
X123978399Y-75963006D01*
X124023874Y-75882414D01*
X124149655Y-76117735D01*
X124348037Y-76359463D01*
X124589766Y-76557845D01*
X124865552Y-76705255D01*
X125164797Y-76796030D01*
X125476000Y-76826681D01*
X125787204Y-76796030D01*
X126086449Y-76705255D01*
X126362235Y-76557845D01*
X126603963Y-76359463D01*
X126802345Y-76117734D01*
X126949755Y-75841948D01*
X127040530Y-75542703D01*
X127063500Y-75309485D01*
X127063500Y-75058514D01*
X127040530Y-74825296D01*
X126949755Y-74526051D01*
X126802345Y-74250265D01*
X126603963Y-74008537D01*
X126362234Y-73810155D01*
X126086448Y-73662745D01*
X125787203Y-73571970D01*
X125476000Y-73541319D01*
X125164796Y-73571970D01*
X124865551Y-73662745D01*
X124589765Y-73810155D01*
X124348037Y-74008537D01*
X124149655Y-74250266D01*
X124023874Y-74485587D01*
X123978399Y-74404994D01*
X123815660Y-74215688D01*
X123619116Y-74061768D01*
X123495872Y-73985994D01*
X123309000Y-73998310D01*
X122563000Y-73998310D01*
X122376128Y-73985994D01*
X122252884Y-74061768D01*
X122056340Y-74215688D01*
X121986572Y-74296846D01*
X121986572Y-74184000D01*
X121974312Y-74059518D01*
X121938002Y-73939820D01*
X121879037Y-73829506D01*
X121799685Y-73732815D01*
X121702994Y-73653463D01*
X121592680Y-73594498D01*
X121472982Y-73558188D01*
X121348500Y-73545928D01*
X119443500Y-73545928D01*
X119319018Y-73558188D01*
X119199320Y-73594498D01*
X119089006Y-73653463D01*
X118992315Y-73732815D01*
X118912963Y-73829506D01*
X118853998Y-73939820D01*
X118817688Y-74059518D01*
X118805428Y-74184000D01*
X115976000Y-74184000D01*
X115976000Y-73248967D01*
X138085000Y-73248967D01*
X138085000Y-73571033D01*
X138147832Y-73886912D01*
X138271082Y-74184463D01*
X138450013Y-74452252D01*
X138677748Y-74679987D01*
X138945537Y-74858918D01*
X139243088Y-74982168D01*
X139558967Y-75045000D01*
X139881033Y-75045000D01*
X140196912Y-74982168D01*
X140494463Y-74858918D01*
X140762252Y-74679987D01*
X140989987Y-74452252D01*
X140990000Y-74452233D01*
X140990013Y-74452252D01*
X141217748Y-74679987D01*
X141485537Y-74858918D01*
X141783088Y-74982168D01*
X142098967Y-75045000D01*
X142421033Y-75045000D01*
X142736912Y-74982168D01*
X143034463Y-74858918D01*
X143302252Y-74679987D01*
X143529987Y-74452252D01*
X143530000Y-74452233D01*
X143530013Y-74452252D01*
X143757748Y-74679987D01*
X144025537Y-74858918D01*
X144323088Y-74982168D01*
X144638967Y-75045000D01*
X144961033Y-75045000D01*
X145276912Y-74982168D01*
X145574463Y-74858918D01*
X145842252Y-74679987D01*
X146069987Y-74452252D01*
X146070000Y-74452233D01*
X146070013Y-74452252D01*
X146297748Y-74679987D01*
X146565537Y-74858918D01*
X146863088Y-74982168D01*
X147178967Y-75045000D01*
X147501033Y-75045000D01*
X147816912Y-74982168D01*
X148114463Y-74858918D01*
X148382252Y-74679987D01*
X148609987Y-74452252D01*
X148610000Y-74452233D01*
X148610013Y-74452252D01*
X148837748Y-74679987D01*
X149105537Y-74858918D01*
X149403088Y-74982168D01*
X149718967Y-75045000D01*
X150041033Y-75045000D01*
X150356912Y-74982168D01*
X150654463Y-74858918D01*
X150922252Y-74679987D01*
X151149987Y-74452252D01*
X151150000Y-74452233D01*
X151150013Y-74452252D01*
X151377748Y-74679987D01*
X151645537Y-74858918D01*
X151943088Y-74982168D01*
X152258967Y-75045000D01*
X152581033Y-75045000D01*
X152896912Y-74982168D01*
X153029667Y-74927179D01*
X156067787Y-77965300D01*
X155829665Y-77965300D01*
X155581850Y-78014594D01*
X155348414Y-78111286D01*
X155138327Y-78251662D01*
X154959662Y-78430327D01*
X154819286Y-78640414D01*
X154722594Y-78873850D01*
X154686000Y-79057818D01*
X154649406Y-78873850D01*
X154552714Y-78640414D01*
X154412338Y-78430327D01*
X154233673Y-78251662D01*
X154023586Y-78111286D01*
X153790150Y-78014594D01*
X153560000Y-77968814D01*
X153560000Y-77650700D01*
X153667205Y-77490256D01*
X153745226Y-77301898D01*
X153785000Y-77101939D01*
X153785000Y-76898061D01*
X153745226Y-76698102D01*
X153667205Y-76509744D01*
X153553937Y-76340226D01*
X153409774Y-76196063D01*
X153240256Y-76082795D01*
X153051898Y-76004774D01*
X152851939Y-75965000D01*
X152648061Y-75965000D01*
X152448102Y-76004774D01*
X152259744Y-76082795D01*
X152090226Y-76196063D01*
X151946063Y-76340226D01*
X151832795Y-76509744D01*
X151754774Y-76698102D01*
X151715000Y-76898061D01*
X151715000Y-77101939D01*
X151754774Y-77301898D01*
X151832795Y-77490256D01*
X151940000Y-77650701D01*
X151940001Y-78531591D01*
X151872338Y-78430327D01*
X151693673Y-78251662D01*
X151483586Y-78111286D01*
X151250150Y-78014594D01*
X151002335Y-77965300D01*
X150749665Y-77965300D01*
X150501850Y-78014594D01*
X150268414Y-78111286D01*
X150058327Y-78251662D01*
X149879662Y-78430327D01*
X149739286Y-78640414D01*
X149642594Y-78873850D01*
X149606000Y-79057818D01*
X149569406Y-78873850D01*
X149472714Y-78640414D01*
X149332338Y-78430327D01*
X149153673Y-78251662D01*
X148943586Y-78111286D01*
X148710150Y-78014594D01*
X148462335Y-77965300D01*
X148209665Y-77965300D01*
X147961850Y-78014594D01*
X147728414Y-78111286D01*
X147518327Y-78251662D01*
X147339662Y-78430327D01*
X147199286Y-78640414D01*
X147102594Y-78873850D01*
X147053300Y-79121665D01*
X147053300Y-79374335D01*
X147102594Y-79622150D01*
X147199286Y-79855586D01*
X147339662Y-80065673D01*
X147518327Y-80244338D01*
X147728414Y-80384714D01*
X147961850Y-80481406D01*
X148209665Y-80530700D01*
X148462335Y-80530700D01*
X148710150Y-80481406D01*
X148943586Y-80384714D01*
X149153673Y-80244338D01*
X149332338Y-80065673D01*
X149472714Y-79855586D01*
X149569406Y-79622150D01*
X149606000Y-79438182D01*
X149642594Y-79622150D01*
X149739286Y-79855586D01*
X149879662Y-80065673D01*
X150058327Y-80244338D01*
X150268414Y-80384714D01*
X150501850Y-80481406D01*
X150749665Y-80530700D01*
X151002335Y-80530700D01*
X151250150Y-80481406D01*
X151483586Y-80384714D01*
X151693673Y-80244338D01*
X151872338Y-80065673D01*
X152012714Y-79855586D01*
X152109406Y-79622150D01*
X152146000Y-79438182D01*
X152182594Y-79622150D01*
X152279286Y-79855586D01*
X152419662Y-80065673D01*
X152598327Y-80244338D01*
X152808414Y-80384714D01*
X153041850Y-80481406D01*
X153289665Y-80530700D01*
X153542335Y-80530700D01*
X153790150Y-80481406D01*
X154023586Y-80384714D01*
X154233673Y-80244338D01*
X154412338Y-80065673D01*
X154552714Y-79855586D01*
X154649406Y-79622150D01*
X154686000Y-79438182D01*
X154722594Y-79622150D01*
X154819286Y-79855586D01*
X154959662Y-80065673D01*
X155138327Y-80244338D01*
X155348414Y-80384714D01*
X155581850Y-80481406D01*
X155829665Y-80530700D01*
X156082335Y-80530700D01*
X156330150Y-80481406D01*
X156563586Y-80384714D01*
X156773673Y-80244338D01*
X156952338Y-80065673D01*
X157092714Y-79855586D01*
X157189406Y-79622150D01*
X157226000Y-79438182D01*
X157262594Y-79622150D01*
X157359286Y-79855586D01*
X157499662Y-80065673D01*
X157678327Y-80244338D01*
X157888414Y-80384714D01*
X158121850Y-80481406D01*
X158369665Y-80530700D01*
X158622335Y-80530700D01*
X158870150Y-80481406D01*
X159103586Y-80384714D01*
X159313673Y-80244338D01*
X159492338Y-80065673D01*
X159632714Y-79855586D01*
X159729406Y-79622150D01*
X159766000Y-79438182D01*
X159802594Y-79622150D01*
X159899286Y-79855586D01*
X160039662Y-80065673D01*
X160218327Y-80244338D01*
X160428414Y-80384714D01*
X160661850Y-80481406D01*
X160909665Y-80530700D01*
X161162335Y-80530700D01*
X161410150Y-80481406D01*
X161643586Y-80384714D01*
X161853673Y-80244338D01*
X162032338Y-80065673D01*
X162172714Y-79855586D01*
X162269406Y-79622150D01*
X162306000Y-79438182D01*
X162342594Y-79622150D01*
X162439286Y-79855586D01*
X162579662Y-80065673D01*
X162758327Y-80244338D01*
X162968414Y-80384714D01*
X163201850Y-80481406D01*
X163449665Y-80530700D01*
X163702335Y-80530700D01*
X163950150Y-80481406D01*
X164183586Y-80384714D01*
X164393673Y-80244338D01*
X164572338Y-80065673D01*
X164712714Y-79855586D01*
X164809406Y-79622150D01*
X164846000Y-79438182D01*
X164882594Y-79622150D01*
X164979286Y-79855586D01*
X165119662Y-80065673D01*
X165298327Y-80244338D01*
X165508414Y-80384714D01*
X165741850Y-80481406D01*
X165989665Y-80530700D01*
X166242335Y-80530700D01*
X166490150Y-80481406D01*
X166723586Y-80384714D01*
X166933673Y-80244338D01*
X167112338Y-80065673D01*
X167252714Y-79855586D01*
X167349406Y-79622150D01*
X167370228Y-79517472D01*
X167370228Y-79895700D01*
X167382488Y-80020182D01*
X167418798Y-80139880D01*
X167477763Y-80250194D01*
X167557115Y-80346885D01*
X167653806Y-80426237D01*
X167764120Y-80485202D01*
X167883818Y-80521512D01*
X168008300Y-80533772D01*
X169303700Y-80533772D01*
X169428182Y-80521512D01*
X169535095Y-80489080D01*
X172100797Y-80489080D01*
X172101206Y-80711080D01*
X172143705Y-80924734D01*
X172269682Y-81028817D01*
X172700498Y-80598000D01*
X173755502Y-80598000D01*
X174186318Y-81028817D01*
X174312295Y-80924734D01*
X174355203Y-80706920D01*
X174354794Y-80484920D01*
X174312295Y-80271266D01*
X174186318Y-80167183D01*
X173755502Y-80598000D01*
X172700498Y-80598000D01*
X172269682Y-80167183D01*
X172143705Y-80271266D01*
X172100797Y-80489080D01*
X169535095Y-80489080D01*
X169547880Y-80485202D01*
X169658194Y-80426237D01*
X169754885Y-80346885D01*
X169834237Y-80250194D01*
X169893202Y-80139880D01*
X169929512Y-80020182D01*
X169941772Y-79895700D01*
X169941772Y-79639682D01*
X172797183Y-79639682D01*
X173228000Y-80070498D01*
X173658817Y-79639682D01*
X173554734Y-79513705D01*
X173336920Y-79470797D01*
X173114920Y-79471206D01*
X172901266Y-79513705D01*
X172797183Y-79639682D01*
X169941772Y-79639682D01*
X169941772Y-78600300D01*
X169929512Y-78475818D01*
X169893202Y-78356120D01*
X169834237Y-78245806D01*
X169754885Y-78149115D01*
X169658194Y-78069763D01*
X169547880Y-78010798D01*
X169428182Y-77974488D01*
X169303700Y-77962228D01*
X168008300Y-77962228D01*
X167883818Y-77974488D01*
X167764120Y-78010798D01*
X167653806Y-78069763D01*
X167557115Y-78149115D01*
X167477763Y-78245806D01*
X167418798Y-78356120D01*
X167382488Y-78475818D01*
X167370228Y-78600300D01*
X167370228Y-78978528D01*
X167349406Y-78873850D01*
X167252714Y-78640414D01*
X167112338Y-78430327D01*
X166933673Y-78251662D01*
X166723586Y-78111286D01*
X166490150Y-78014594D01*
X166242335Y-77965300D01*
X165989665Y-77965300D01*
X165741850Y-78014594D01*
X165508414Y-78111286D01*
X165298327Y-78251662D01*
X165119662Y-78430327D01*
X164979286Y-78640414D01*
X164882594Y-78873850D01*
X164846000Y-79057818D01*
X164809406Y-78873850D01*
X164712714Y-78640414D01*
X164572338Y-78430327D01*
X164393673Y-78251662D01*
X164183586Y-78111286D01*
X163950150Y-78014594D01*
X163702335Y-77965300D01*
X163449665Y-77965300D01*
X163201850Y-78014594D01*
X162968414Y-78111286D01*
X162758327Y-78251662D01*
X162579662Y-78430327D01*
X162439286Y-78640414D01*
X162342594Y-78873850D01*
X162306000Y-79057818D01*
X162269406Y-78873850D01*
X162172714Y-78640414D01*
X162032338Y-78430327D01*
X161853673Y-78251662D01*
X161643586Y-78111286D01*
X161410150Y-78014594D01*
X161162335Y-77965300D01*
X160909665Y-77965300D01*
X160702100Y-78006588D01*
X160555534Y-77860021D01*
X160601939Y-77860021D01*
X160801898Y-77820247D01*
X160990256Y-77742226D01*
X161150700Y-77635021D01*
X161665191Y-77635021D01*
X161704979Y-77638940D01*
X161744767Y-77635021D01*
X161744770Y-77635021D01*
X161863767Y-77623301D01*
X162016452Y-77576984D01*
X162157168Y-77501770D01*
X162280507Y-77400549D01*
X162305879Y-77369633D01*
X164685007Y-74990506D01*
X164958967Y-75045000D01*
X165281033Y-75045000D01*
X165596912Y-74982168D01*
X165894463Y-74858918D01*
X166162252Y-74679987D01*
X166389987Y-74452252D01*
X166390000Y-74452233D01*
X166390013Y-74452252D01*
X166617748Y-74679987D01*
X166885537Y-74858918D01*
X167183088Y-74982168D01*
X167498967Y-75045000D01*
X167821033Y-75045000D01*
X168136912Y-74982168D01*
X168434463Y-74858918D01*
X168702252Y-74679987D01*
X168929987Y-74452252D01*
X168930000Y-74452233D01*
X168930013Y-74452252D01*
X169157748Y-74679987D01*
X169425537Y-74858918D01*
X169723088Y-74982168D01*
X170038967Y-75045000D01*
X170361033Y-75045000D01*
X170676912Y-74982168D01*
X170974463Y-74858918D01*
X171242252Y-74679987D01*
X171469987Y-74452252D01*
X171470000Y-74452233D01*
X171470013Y-74452252D01*
X171697748Y-74679987D01*
X171965537Y-74858918D01*
X172263088Y-74982168D01*
X172578967Y-75045000D01*
X172901033Y-75045000D01*
X173216912Y-74982168D01*
X173514463Y-74858918D01*
X173782252Y-74679987D01*
X174009987Y-74452252D01*
X174010000Y-74452233D01*
X174010013Y-74452252D01*
X174237748Y-74679987D01*
X174505537Y-74858918D01*
X174803088Y-74982168D01*
X175118967Y-75045000D01*
X175441033Y-75045000D01*
X175756912Y-74982168D01*
X176054463Y-74858918D01*
X176322252Y-74679987D01*
X176549987Y-74452252D01*
X176550000Y-74452233D01*
X176550013Y-74452252D01*
X176777748Y-74679987D01*
X177045537Y-74858918D01*
X177343088Y-74982168D01*
X177658967Y-75045000D01*
X177981033Y-75045000D01*
X178296912Y-74982168D01*
X178594463Y-74858918D01*
X178862252Y-74679987D01*
X179089987Y-74452252D01*
X179268918Y-74184463D01*
X179392168Y-73886912D01*
X179455000Y-73571033D01*
X179455000Y-73248967D01*
X179392168Y-72933088D01*
X179268918Y-72635537D01*
X179089987Y-72367748D01*
X178862252Y-72140013D01*
X178594463Y-71961082D01*
X178296912Y-71837832D01*
X177981033Y-71775000D01*
X177658967Y-71775000D01*
X177343088Y-71837832D01*
X177045537Y-71961082D01*
X176777748Y-72140013D01*
X176550013Y-72367748D01*
X176550000Y-72367767D01*
X176549987Y-72367748D01*
X176322252Y-72140013D01*
X176054463Y-71961082D01*
X175756912Y-71837832D01*
X175441033Y-71775000D01*
X175118967Y-71775000D01*
X174803088Y-71837832D01*
X174505537Y-71961082D01*
X174237748Y-72140013D01*
X174010013Y-72367748D01*
X174010000Y-72367767D01*
X174009987Y-72367748D01*
X173782252Y-72140013D01*
X173514463Y-71961082D01*
X173216912Y-71837832D01*
X172901033Y-71775000D01*
X172578967Y-71775000D01*
X172263088Y-71837832D01*
X171965537Y-71961082D01*
X171697748Y-72140013D01*
X171470013Y-72367748D01*
X171470000Y-72367767D01*
X171469987Y-72367748D01*
X171242252Y-72140013D01*
X170974463Y-71961082D01*
X170676912Y-71837832D01*
X170361033Y-71775000D01*
X170038967Y-71775000D01*
X169723088Y-71837832D01*
X169425537Y-71961082D01*
X169157748Y-72140013D01*
X168930013Y-72367748D01*
X168930000Y-72367767D01*
X168929987Y-72367748D01*
X168702252Y-72140013D01*
X168434463Y-71961082D01*
X168136912Y-71837832D01*
X167821033Y-71775000D01*
X167498967Y-71775000D01*
X167183088Y-71837832D01*
X166885537Y-71961082D01*
X166617748Y-72140013D01*
X166390013Y-72367748D01*
X166390000Y-72367767D01*
X166389987Y-72367748D01*
X166162252Y-72140013D01*
X165894463Y-71961082D01*
X165596912Y-71837832D01*
X165281033Y-71775000D01*
X164958967Y-71775000D01*
X164643088Y-71837832D01*
X164345537Y-71961082D01*
X164077748Y-72140013D01*
X163850013Y-72367748D01*
X163850000Y-72367767D01*
X163849987Y-72367748D01*
X163622252Y-72140013D01*
X163354463Y-71961082D01*
X163056912Y-71837832D01*
X162741033Y-71775000D01*
X162418967Y-71775000D01*
X162103088Y-71837832D01*
X161805537Y-71961082D01*
X161537748Y-72140013D01*
X161310013Y-72367748D01*
X161310000Y-72367767D01*
X161309987Y-72367748D01*
X161082252Y-72140013D01*
X160814463Y-71961082D01*
X160516912Y-71837832D01*
X160201033Y-71775000D01*
X159878967Y-71775000D01*
X159563088Y-71837832D01*
X159265537Y-71961082D01*
X158997748Y-72140013D01*
X158770013Y-72367748D01*
X158770000Y-72367767D01*
X158769987Y-72367748D01*
X158542252Y-72140013D01*
X158274463Y-71961082D01*
X157976912Y-71837832D01*
X157661033Y-71775000D01*
X157338967Y-71775000D01*
X157023088Y-71837832D01*
X156725537Y-71961082D01*
X156457748Y-72140013D01*
X156230013Y-72367748D01*
X156230000Y-72367767D01*
X156229987Y-72367748D01*
X156002252Y-72140013D01*
X155734463Y-71961082D01*
X155436912Y-71837832D01*
X155121033Y-71775000D01*
X154798967Y-71775000D01*
X154483088Y-71837832D01*
X154185537Y-71961082D01*
X153917748Y-72140013D01*
X153690013Y-72367748D01*
X153690000Y-72367767D01*
X153689987Y-72367748D01*
X153462252Y-72140013D01*
X153194463Y-71961082D01*
X152896912Y-71837832D01*
X152581033Y-71775000D01*
X152258967Y-71775000D01*
X151943088Y-71837832D01*
X151645537Y-71961082D01*
X151377748Y-72140013D01*
X151150013Y-72367748D01*
X151150000Y-72367767D01*
X151149987Y-72367748D01*
X150922252Y-72140013D01*
X150654463Y-71961082D01*
X150356912Y-71837832D01*
X150041033Y-71775000D01*
X149718967Y-71775000D01*
X149403088Y-71837832D01*
X149105537Y-71961082D01*
X148837748Y-72140013D01*
X148610013Y-72367748D01*
X148610000Y-72367767D01*
X148609987Y-72367748D01*
X148382252Y-72140013D01*
X148114463Y-71961082D01*
X147816912Y-71837832D01*
X147501033Y-71775000D01*
X147178967Y-71775000D01*
X146863088Y-71837832D01*
X146565537Y-71961082D01*
X146297748Y-72140013D01*
X146070013Y-72367748D01*
X146070000Y-72367767D01*
X146069987Y-72367748D01*
X145842252Y-72140013D01*
X145574463Y-71961082D01*
X145276912Y-71837832D01*
X144961033Y-71775000D01*
X144638967Y-71775000D01*
X144323088Y-71837832D01*
X144025537Y-71961082D01*
X143757748Y-72140013D01*
X143530013Y-72367748D01*
X143530000Y-72367767D01*
X143529987Y-72367748D01*
X143302252Y-72140013D01*
X143034463Y-71961082D01*
X142736912Y-71837832D01*
X142421033Y-71775000D01*
X142098967Y-71775000D01*
X141783088Y-71837832D01*
X141485537Y-71961082D01*
X141217748Y-72140013D01*
X140990013Y-72367748D01*
X140990000Y-72367767D01*
X140989987Y-72367748D01*
X140762252Y-72140013D01*
X140494463Y-71961082D01*
X140196912Y-71837832D01*
X139881033Y-71775000D01*
X139558967Y-71775000D01*
X139243088Y-71837832D01*
X138945537Y-71961082D01*
X138677748Y-72140013D01*
X138450013Y-72367748D01*
X138271082Y-72635537D01*
X138147832Y-72933088D01*
X138085000Y-73248967D01*
X115976000Y-73248967D01*
X115976000Y-58289098D01*
X120551000Y-58289098D01*
X120551000Y-58758902D01*
X120642654Y-59219679D01*
X120822440Y-59653721D01*
X121083450Y-60044349D01*
X121415651Y-60376550D01*
X121806279Y-60637560D01*
X122240321Y-60817346D01*
X122701098Y-60909000D01*
X123170902Y-60909000D01*
X123631679Y-60817346D01*
X124065721Y-60637560D01*
X124456349Y-60376550D01*
X124788550Y-60044349D01*
X125049560Y-59653721D01*
X125229346Y-59219679D01*
X125321000Y-58758902D01*
X125321000Y-58289098D01*
X125229346Y-57828321D01*
X125049560Y-57394279D01*
X124788550Y-57003651D01*
X124456349Y-56671450D01*
X124065721Y-56410440D01*
X123631679Y-56230654D01*
X123170902Y-56139000D01*
X122701098Y-56139000D01*
X122240321Y-56230654D01*
X121806279Y-56410440D01*
X121415651Y-56671450D01*
X121083450Y-57003651D01*
X120822440Y-57394279D01*
X120642654Y-57828321D01*
X120551000Y-58289098D01*
X115976000Y-58289098D01*
X115976000Y-51073098D01*
X117503000Y-51073098D01*
X117503000Y-51542902D01*
X117594654Y-52003679D01*
X117774440Y-52437721D01*
X118035450Y-52828349D01*
X118367651Y-53160550D01*
X118758279Y-53421560D01*
X119192321Y-53601346D01*
X119653098Y-53693000D01*
X120122902Y-53693000D01*
X120583679Y-53601346D01*
X121017721Y-53421560D01*
X121408349Y-53160550D01*
X121740550Y-52828349D01*
X122001560Y-52437721D01*
X122181346Y-52003679D01*
X122249985Y-51658603D01*
X139138898Y-51658603D01*
X139269287Y-51804938D01*
X139522774Y-51868754D01*
X139783840Y-51881891D01*
X140042453Y-51843845D01*
X140170713Y-51804938D01*
X140301102Y-51658603D01*
X139720000Y-51077502D01*
X139138898Y-51658603D01*
X122249985Y-51658603D01*
X122273000Y-51542902D01*
X122273000Y-51073098D01*
X122181649Y-50613840D01*
X138388109Y-50613840D01*
X138426155Y-50872453D01*
X138465062Y-51000713D01*
X138611397Y-51131102D01*
X139192498Y-50550000D01*
X140247502Y-50550000D01*
X140678749Y-50981248D01*
X140687832Y-51026912D01*
X140811082Y-51324463D01*
X140990013Y-51592252D01*
X141217748Y-51819987D01*
X141485537Y-51998918D01*
X141783088Y-52122168D01*
X142098967Y-52185000D01*
X142421033Y-52185000D01*
X142736912Y-52122168D01*
X143034463Y-51998918D01*
X143302252Y-51819987D01*
X143529987Y-51592252D01*
X143530000Y-51592233D01*
X143530013Y-51592252D01*
X143757748Y-51819987D01*
X144025537Y-51998918D01*
X144323088Y-52122168D01*
X144638967Y-52185000D01*
X144961033Y-52185000D01*
X145276912Y-52122168D01*
X145574463Y-51998918D01*
X145842252Y-51819987D01*
X146069987Y-51592252D01*
X146070000Y-51592233D01*
X146070013Y-51592252D01*
X146297748Y-51819987D01*
X146565537Y-51998918D01*
X146863088Y-52122168D01*
X147178967Y-52185000D01*
X147501033Y-52185000D01*
X147816912Y-52122168D01*
X148114463Y-51998918D01*
X148382252Y-51819987D01*
X148609987Y-51592252D01*
X148610000Y-51592233D01*
X148610013Y-51592252D01*
X148837748Y-51819987D01*
X149105537Y-51998918D01*
X149403088Y-52122168D01*
X149718967Y-52185000D01*
X150041033Y-52185000D01*
X150356912Y-52122168D01*
X150654463Y-51998918D01*
X150922252Y-51819987D01*
X151149987Y-51592252D01*
X151150000Y-51592233D01*
X151150013Y-51592252D01*
X151377748Y-51819987D01*
X151645537Y-51998918D01*
X151943088Y-52122168D01*
X152258967Y-52185000D01*
X152581033Y-52185000D01*
X152896912Y-52122168D01*
X153194463Y-51998918D01*
X153462252Y-51819987D01*
X153689987Y-51592252D01*
X153690000Y-51592233D01*
X153690013Y-51592252D01*
X153917748Y-51819987D01*
X154185537Y-51998918D01*
X154483088Y-52122168D01*
X154798967Y-52185000D01*
X155121033Y-52185000D01*
X155436912Y-52122168D01*
X155734463Y-51998918D01*
X156002252Y-51819987D01*
X156229987Y-51592252D01*
X156230000Y-51592233D01*
X156230013Y-51592252D01*
X156457748Y-51819987D01*
X156725537Y-51998918D01*
X157023088Y-52122168D01*
X157338967Y-52185000D01*
X157661033Y-52185000D01*
X157976912Y-52122168D01*
X158274463Y-51998918D01*
X158542252Y-51819987D01*
X158769987Y-51592252D01*
X158770000Y-51592233D01*
X158770013Y-51592252D01*
X158997748Y-51819987D01*
X159265537Y-51998918D01*
X159563088Y-52122168D01*
X159878967Y-52185000D01*
X160201033Y-52185000D01*
X160516912Y-52122168D01*
X160814463Y-51998918D01*
X161082252Y-51819987D01*
X161309987Y-51592252D01*
X161310000Y-51592233D01*
X161310013Y-51592252D01*
X161537748Y-51819987D01*
X161805537Y-51998918D01*
X162103088Y-52122168D01*
X162418967Y-52185000D01*
X162741033Y-52185000D01*
X163056912Y-52122168D01*
X163354463Y-51998918D01*
X163622252Y-51819987D01*
X163849987Y-51592252D01*
X163850000Y-51592233D01*
X163850013Y-51592252D01*
X164077748Y-51819987D01*
X164345537Y-51998918D01*
X164643088Y-52122168D01*
X164958967Y-52185000D01*
X165281033Y-52185000D01*
X165596912Y-52122168D01*
X165894463Y-51998918D01*
X166162252Y-51819987D01*
X166389987Y-51592252D01*
X166390000Y-51592233D01*
X166390013Y-51592252D01*
X166617748Y-51819987D01*
X166885537Y-51998918D01*
X167183088Y-52122168D01*
X167498967Y-52185000D01*
X167821033Y-52185000D01*
X168136912Y-52122168D01*
X168434463Y-51998918D01*
X168702252Y-51819987D01*
X168929987Y-51592252D01*
X168930000Y-51592233D01*
X168930013Y-51592252D01*
X169157748Y-51819987D01*
X169425537Y-51998918D01*
X169723088Y-52122168D01*
X170038967Y-52185000D01*
X170361033Y-52185000D01*
X170676912Y-52122168D01*
X170974463Y-51998918D01*
X171242252Y-51819987D01*
X171469987Y-51592252D01*
X171470000Y-51592233D01*
X171470013Y-51592252D01*
X171697748Y-51819987D01*
X171965537Y-51998918D01*
X172263088Y-52122168D01*
X172578967Y-52185000D01*
X172901033Y-52185000D01*
X173216912Y-52122168D01*
X173514463Y-51998918D01*
X173782252Y-51819987D01*
X174009987Y-51592252D01*
X174010000Y-51592233D01*
X174010013Y-51592252D01*
X174237748Y-51819987D01*
X174505537Y-51998918D01*
X174803088Y-52122168D01*
X175118967Y-52185000D01*
X175441033Y-52185000D01*
X175756912Y-52122168D01*
X176054463Y-51998918D01*
X176322252Y-51819987D01*
X176483636Y-51658603D01*
X177238898Y-51658603D01*
X177369287Y-51804938D01*
X177622774Y-51868754D01*
X177883840Y-51881891D01*
X178142453Y-51843845D01*
X178270713Y-51804938D01*
X178401102Y-51658603D01*
X177820000Y-51077502D01*
X177238898Y-51658603D01*
X176483636Y-51658603D01*
X176549987Y-51592252D01*
X176728918Y-51324463D01*
X176852168Y-51026912D01*
X176861251Y-50981248D01*
X177292498Y-50550000D01*
X178347502Y-50550000D01*
X178928603Y-51131102D01*
X178993700Y-51073098D01*
X193703000Y-51073098D01*
X193703000Y-51542902D01*
X193794654Y-52003679D01*
X193974440Y-52437721D01*
X194235450Y-52828349D01*
X194567651Y-53160550D01*
X194958279Y-53421560D01*
X195392321Y-53601346D01*
X195853098Y-53693000D01*
X196322902Y-53693000D01*
X196783679Y-53601346D01*
X197217721Y-53421560D01*
X197608349Y-53160550D01*
X197940550Y-52828349D01*
X198201560Y-52437721D01*
X198381346Y-52003679D01*
X198473000Y-51542902D01*
X198473000Y-51073098D01*
X198381346Y-50612321D01*
X198201560Y-50178279D01*
X197940550Y-49787651D01*
X197608349Y-49455450D01*
X197217721Y-49194440D01*
X196783679Y-49014654D01*
X196322902Y-48923000D01*
X195853098Y-48923000D01*
X195392321Y-49014654D01*
X194958279Y-49194440D01*
X194567651Y-49455450D01*
X194235450Y-49787651D01*
X193974440Y-50178279D01*
X193794654Y-50612321D01*
X193703000Y-51073098D01*
X178993700Y-51073098D01*
X179074938Y-51000713D01*
X179138754Y-50747226D01*
X179151891Y-50486160D01*
X179113845Y-50227547D01*
X179074938Y-50099287D01*
X178928603Y-49968898D01*
X178347502Y-50550000D01*
X177292498Y-50550000D01*
X176861251Y-50118752D01*
X176852168Y-50073088D01*
X176728918Y-49775537D01*
X176549987Y-49507748D01*
X176483636Y-49441397D01*
X177238898Y-49441397D01*
X177820000Y-50022498D01*
X178401102Y-49441397D01*
X178270713Y-49295062D01*
X178017226Y-49231246D01*
X177756160Y-49218109D01*
X177497547Y-49256155D01*
X177369287Y-49295062D01*
X177238898Y-49441397D01*
X176483636Y-49441397D01*
X176322252Y-49280013D01*
X176054463Y-49101082D01*
X175756912Y-48977832D01*
X175441033Y-48915000D01*
X175118967Y-48915000D01*
X174803088Y-48977832D01*
X174505537Y-49101082D01*
X174237748Y-49280013D01*
X174010013Y-49507748D01*
X174010000Y-49507767D01*
X174009987Y-49507748D01*
X173782252Y-49280013D01*
X173514463Y-49101082D01*
X173216912Y-48977832D01*
X172901033Y-48915000D01*
X172578967Y-48915000D01*
X172263088Y-48977832D01*
X171965537Y-49101082D01*
X171697748Y-49280013D01*
X171470013Y-49507748D01*
X171470000Y-49507767D01*
X171469987Y-49507748D01*
X171242252Y-49280013D01*
X170974463Y-49101082D01*
X170676912Y-48977832D01*
X170361033Y-48915000D01*
X170038967Y-48915000D01*
X169723088Y-48977832D01*
X169425537Y-49101082D01*
X169157748Y-49280013D01*
X168930013Y-49507748D01*
X168930000Y-49507767D01*
X168929987Y-49507748D01*
X168702252Y-49280013D01*
X168434463Y-49101082D01*
X168136912Y-48977832D01*
X167821033Y-48915000D01*
X167498967Y-48915000D01*
X167183088Y-48977832D01*
X166885537Y-49101082D01*
X166617748Y-49280013D01*
X166390013Y-49507748D01*
X166390000Y-49507767D01*
X166389987Y-49507748D01*
X166162252Y-49280013D01*
X165894463Y-49101082D01*
X165596912Y-48977832D01*
X165281033Y-48915000D01*
X164958967Y-48915000D01*
X164643088Y-48977832D01*
X164345537Y-49101082D01*
X164077748Y-49280013D01*
X163850013Y-49507748D01*
X163850000Y-49507767D01*
X163849987Y-49507748D01*
X163622252Y-49280013D01*
X163354463Y-49101082D01*
X163056912Y-48977832D01*
X162741033Y-48915000D01*
X162418967Y-48915000D01*
X162103088Y-48977832D01*
X161805537Y-49101082D01*
X161537748Y-49280013D01*
X161310013Y-49507748D01*
X161310000Y-49507767D01*
X161309987Y-49507748D01*
X161082252Y-49280013D01*
X160814463Y-49101082D01*
X160516912Y-48977832D01*
X160201033Y-48915000D01*
X159878967Y-48915000D01*
X159563088Y-48977832D01*
X159265537Y-49101082D01*
X158997748Y-49280013D01*
X158770013Y-49507748D01*
X158770000Y-49507767D01*
X158769987Y-49507748D01*
X158542252Y-49280013D01*
X158274463Y-49101082D01*
X157976912Y-48977832D01*
X157661033Y-48915000D01*
X157338967Y-48915000D01*
X157023088Y-48977832D01*
X156725537Y-49101082D01*
X156457748Y-49280013D01*
X156230013Y-49507748D01*
X156230000Y-49507767D01*
X156229987Y-49507748D01*
X156002252Y-49280013D01*
X155734463Y-49101082D01*
X155436912Y-48977832D01*
X155121033Y-48915000D01*
X154798967Y-48915000D01*
X154483088Y-48977832D01*
X154185537Y-49101082D01*
X153917748Y-49280013D01*
X153690013Y-49507748D01*
X153690000Y-49507767D01*
X153689987Y-49507748D01*
X153462252Y-49280013D01*
X153194463Y-49101082D01*
X152896912Y-48977832D01*
X152581033Y-48915000D01*
X152258967Y-48915000D01*
X151943088Y-48977832D01*
X151645537Y-49101082D01*
X151377748Y-49280013D01*
X151150013Y-49507748D01*
X151150000Y-49507767D01*
X151149987Y-49507748D01*
X150922252Y-49280013D01*
X150654463Y-49101082D01*
X150356912Y-48977832D01*
X150041033Y-48915000D01*
X149718967Y-48915000D01*
X149403088Y-48977832D01*
X149105537Y-49101082D01*
X148837748Y-49280013D01*
X148610013Y-49507748D01*
X148610000Y-49507767D01*
X148609987Y-49507748D01*
X148382252Y-49280013D01*
X148114463Y-49101082D01*
X147816912Y-48977832D01*
X147501033Y-48915000D01*
X147178967Y-48915000D01*
X146863088Y-48977832D01*
X146565537Y-49101082D01*
X146297748Y-49280013D01*
X146070013Y-49507748D01*
X146070000Y-49507767D01*
X146069987Y-49507748D01*
X145842252Y-49280013D01*
X145574463Y-49101082D01*
X145276912Y-48977832D01*
X144961033Y-48915000D01*
X144638967Y-48915000D01*
X144323088Y-48977832D01*
X144025537Y-49101082D01*
X143757748Y-49280013D01*
X143530013Y-49507748D01*
X143530000Y-49507767D01*
X143529987Y-49507748D01*
X143302252Y-49280013D01*
X143034463Y-49101082D01*
X142736912Y-48977832D01*
X142421033Y-48915000D01*
X142098967Y-48915000D01*
X141783088Y-48977832D01*
X141485537Y-49101082D01*
X141217748Y-49280013D01*
X140990013Y-49507748D01*
X140811082Y-49775537D01*
X140687832Y-50073088D01*
X140678749Y-50118752D01*
X140247502Y-50550000D01*
X139192498Y-50550000D01*
X138611397Y-49968898D01*
X138465062Y-50099287D01*
X138401246Y-50352774D01*
X138388109Y-50613840D01*
X122181649Y-50613840D01*
X122181346Y-50612321D01*
X122001560Y-50178279D01*
X121740550Y-49787651D01*
X121408349Y-49455450D01*
X121387318Y-49441397D01*
X139138898Y-49441397D01*
X139720000Y-50022498D01*
X140301102Y-49441397D01*
X140170713Y-49295062D01*
X139917226Y-49231246D01*
X139656160Y-49218109D01*
X139397547Y-49256155D01*
X139269287Y-49295062D01*
X139138898Y-49441397D01*
X121387318Y-49441397D01*
X121017721Y-49194440D01*
X120583679Y-49014654D01*
X120122902Y-48923000D01*
X119653098Y-48923000D01*
X119192321Y-49014654D01*
X118758279Y-49194440D01*
X118367651Y-49455450D01*
X118035450Y-49787651D01*
X117774440Y-50178279D01*
X117594654Y-50612321D01*
X117503000Y-51073098D01*
X115976000Y-51073098D01*
X115976000Y-47910000D01*
X199746000Y-47910000D01*
X199746001Y-132690000D01*
G37*
G04 #@! TD.AperFunction*
M02*
