M48
; DRILL file {KiCad (5.1.10)-1} date 08/28/21 15:55:19
; FORMAT={-:-/ absolute / metric / decimal}
; #@! TF.CreationDate,2021-08-28T15:55:19-04:00
; #@! TF.GenerationSoftware,Kicad,Pcbnew,(5.1.10)-1
; #@! TF.FileFunction,Plated,1,2,PTH
FMAT,2
METRIC
T1C0.400
T2C0.800
T3C1.000
T4C1.020
%
G90
G05
T1
X115.0Y-85.0
X115.0Y-95.0
X115.0Y-105.0
X115.0Y-115.0
X115.0Y-125.0
X125.0Y-77.5
X125.0Y-132.5
X125.5Y-88.5
X125.5Y-100.5
X125.5Y-111.5
X125.5Y-122.0
X135.0Y-77.5
X135.0Y-97.0
X135.0Y-125.0
X135.0Y-132.5
X136.0Y-88.0
X139.0Y-85.0
X140.0Y-121.5
X140.0Y-123.5
X142.0Y-88.0
X142.0Y-92.0
X142.5Y-77.5
X143.5Y-123.5
X145.5Y-123.5
X146.5Y-125.0
X146.5Y-126.5
X146.5Y-130.5
X147.5Y-85.0
X148.5Y-125.0
X148.5Y-126.5
X148.5Y-130.5
X150.0Y-77.5
X150.0Y-120.0
X152.0Y-93.0
X152.0Y-100.0
X152.0Y-107.5
X152.5Y-85.0
X157.5Y-77.5
X157.5Y-85.0
X157.5Y-95.0
X157.5Y-105.0
X157.5Y-115.0
X157.5Y-122.5
X157.5Y-132.5
X167.5Y-85.0
X167.5Y-95.0
X167.5Y-105.0
X167.5Y-115.0
X167.5Y-122.5
T2
X134.88Y-85.0
X139.5Y-128.5
X139.5Y-130.5
X142.5Y-85.0
X154.5Y-126.0
X156.5Y-126.0
T3
X127.46Y-80.74
X127.46Y-83.28
X127.46Y-85.82
X127.46Y-88.36
X127.46Y-90.9
X127.46Y-93.44
X127.46Y-95.98
X127.46Y-98.52
X127.46Y-101.06
X127.46Y-103.6
X127.46Y-106.14
X127.46Y-108.68
X127.46Y-111.22
X127.46Y-113.76
X127.46Y-116.3
X127.46Y-118.84
X127.46Y-121.38
X127.46Y-123.92
X127.46Y-126.46
X127.46Y-129.0
X130.0Y-80.74
X130.0Y-83.28
X130.0Y-85.82
X130.0Y-88.36
X130.0Y-90.9
X130.0Y-93.44
X130.0Y-95.98
X130.0Y-98.52
X130.0Y-101.06
X130.0Y-103.6
X130.0Y-106.14
X130.0Y-108.68
X130.0Y-111.22
X130.0Y-113.76
X130.0Y-116.3
X130.0Y-118.84
X130.0Y-121.38
X130.0Y-123.92
X130.0Y-126.46
X130.0Y-129.0
X137.0Y-81.5
X139.54Y-81.5
T4
X147.73Y-88.53
X147.73Y-91.07
X147.73Y-93.61
X147.73Y-96.15
X147.73Y-98.69
X147.73Y-101.23
X147.73Y-103.77
X147.73Y-106.31
X147.73Y-108.85
X147.73Y-111.39
X147.73Y-113.93
X147.73Y-116.47
X150.27Y-88.53
X150.27Y-91.07
X150.27Y-93.61
X150.27Y-96.15
X150.27Y-98.69
X150.27Y-101.23
X150.27Y-103.77
X150.27Y-106.31
X150.27Y-108.85
X150.27Y-111.39
X150.27Y-113.93
X150.27Y-116.47
T0
M30
