%TF.GenerationSoftware,KiCad,Pcbnew,(5.1.10)-1*%
%TF.CreationDate,2021-09-06T21:49:58-04:00*%
%TF.ProjectId,3to4_Adapter,33746f34-5f41-4646-9170-7465722e6b69,v2*%
%TF.SameCoordinates,Original*%
%TF.FileFunction,Soldermask,Top*%
%TF.FilePolarity,Negative*%
%FSLAX46Y46*%
G04 Gerber Fmt 4.6, Leading zero omitted, Abs format (unit mm)*
G04 Created by KiCad (PCBNEW (5.1.10)-1) date 2021-09-06 21:49:58*
%MOMM*%
%LPD*%
G01*
G04 APERTURE LIST*
%ADD10O,1.700000X1.700000*%
%ADD11R,1.700000X1.700000*%
%ADD12R,1.500000X2.000000*%
%ADD13R,3.800000X2.000000*%
%ADD14O,1.600000X1.600000*%
%ADD15C,1.600000*%
%ADD16R,1.600000X1.600000*%
%ADD17C,1.530000*%
%ADD18R,1.530000X1.530000*%
%ADD19C,4.300000*%
%ADD20C,1.700000*%
G04 APERTURE END LIST*
D10*
%TO.C,J4*%
X142460000Y-77000000D03*
D11*
X145000000Y-77000000D03*
%TD*%
D12*
%TO.C,U1*%
X153300000Y-76850000D03*
X148700000Y-76850000D03*
X151000000Y-76850000D03*
D13*
X151000000Y-83150000D03*
%TD*%
D14*
%TO.C,R1*%
X135380000Y-126000000D03*
D15*
X143000000Y-126000000D03*
%TD*%
D10*
%TO.C,J3*%
X142540000Y-131000000D03*
D11*
X140000000Y-131000000D03*
%TD*%
D15*
%TO.C,C2*%
X159000000Y-83000000D03*
D16*
X157000000Y-83000000D03*
%TD*%
D15*
%TO.C,C1*%
X137000000Y-79000000D03*
D16*
X137000000Y-77000000D03*
%TD*%
D17*
%TO.C,J2*%
X151270000Y-118970000D03*
X148730000Y-118970000D03*
X151270000Y-116430000D03*
X148730000Y-116430000D03*
X151270000Y-113890000D03*
X148730000Y-113890000D03*
X151270000Y-111350000D03*
X148730000Y-111350000D03*
X151270000Y-108810000D03*
X148730000Y-108810000D03*
X151270000Y-106270000D03*
X148730000Y-106270000D03*
X151270000Y-103730000D03*
X148730000Y-103730000D03*
X151270000Y-101190000D03*
X148730000Y-101190000D03*
X151270000Y-98650000D03*
X148730000Y-98650000D03*
X151270000Y-96110000D03*
X148730000Y-96110000D03*
X151270000Y-93570000D03*
X148730000Y-93570000D03*
X151270000Y-91030000D03*
D18*
X148730000Y-91030000D03*
%TD*%
D19*
%TO.C,H4*%
X168000000Y-130000000D03*
%TD*%
%TO.C,H3*%
X168000000Y-79000000D03*
%TD*%
%TO.C,H2*%
X117000000Y-130000000D03*
%TD*%
%TO.C,H1*%
X117000000Y-79000000D03*
%TD*%
D20*
%TO.C,J1*%
X129540000Y-128660000D03*
X129540000Y-126120000D03*
X129540000Y-123580000D03*
X129540000Y-121040000D03*
X129540000Y-118500000D03*
X129540000Y-115960000D03*
X129540000Y-113420000D03*
X129540000Y-110880000D03*
X129540000Y-108340000D03*
X129540000Y-105800000D03*
X129540000Y-103260000D03*
X129540000Y-100720000D03*
X129540000Y-98180000D03*
X129540000Y-95640000D03*
X129540000Y-93100000D03*
X129540000Y-90560000D03*
X129540000Y-88020000D03*
X129540000Y-85480000D03*
X129540000Y-82940000D03*
X129540000Y-80400000D03*
X127000000Y-128660000D03*
X127000000Y-126120000D03*
X127000000Y-123580000D03*
X127000000Y-121040000D03*
X127000000Y-118500000D03*
X127000000Y-115960000D03*
X127000000Y-113420000D03*
X127000000Y-110880000D03*
X127000000Y-108340000D03*
X127000000Y-105800000D03*
X127000000Y-103260000D03*
X127000000Y-100720000D03*
X127000000Y-98180000D03*
X127000000Y-95640000D03*
X127000000Y-93100000D03*
X127000000Y-90560000D03*
X127000000Y-88020000D03*
X127000000Y-85480000D03*
X127000000Y-82940000D03*
G36*
G01*
X126150000Y-81000000D02*
X126150000Y-79800000D01*
G75*
G02*
X126400000Y-79550000I250000J0D01*
G01*
X127600000Y-79550000D01*
G75*
G02*
X127850000Y-79800000I0J-250000D01*
G01*
X127850000Y-81000000D01*
G75*
G02*
X127600000Y-81250000I-250000J0D01*
G01*
X126400000Y-81250000D01*
G75*
G02*
X126150000Y-81000000I0J250000D01*
G01*
G37*
%TD*%
M02*
