%TF.GenerationSoftware,KiCad,Pcbnew,(5.1.10)-1*%
%TF.CreationDate,2021-08-28T15:55:22-04:00*%
%TF.ProjectId,3to4_Adapter,33746f34-5f41-4646-9170-7465722e6b69,v1*%
%TF.SameCoordinates,Original*%
%TF.FileFunction,Soldermask,Top*%
%TF.FilePolarity,Negative*%
%FSLAX46Y46*%
G04 Gerber Fmt 4.6, Leading zero omitted, Abs format (unit mm)*
G04 Created by KiCad (PCBNEW (5.1.10)-1) date 2021-08-28 15:55:22*
%MOMM*%
%LPD*%
G01*
G04 APERTURE LIST*
%ADD10R,2.000000X1.500000*%
%ADD11R,2.000000X3.800000*%
%ADD12O,1.600000X1.600000*%
%ADD13C,1.600000*%
%ADD14O,1.700000X1.700000*%
%ADD15R,1.700000X1.700000*%
%ADD16R,1.600000X1.600000*%
%ADD17C,1.530000*%
%ADD18R,1.530000X1.530000*%
%ADD19C,4.300000*%
%ADD20C,1.700000*%
G04 APERTURE END LIST*
D10*
%TO.C,U1*%
X144350000Y-126200000D03*
X144350000Y-130800000D03*
X144350000Y-128500000D03*
D11*
X150650000Y-128500000D03*
%TD*%
D12*
%TO.C,R1*%
X134880000Y-85000000D03*
D13*
X142500000Y-85000000D03*
%TD*%
D14*
%TO.C,J3*%
X139540000Y-81500000D03*
D15*
X137000000Y-81500000D03*
%TD*%
D13*
%TO.C,C2*%
X156500000Y-126000000D03*
D16*
X154500000Y-126000000D03*
%TD*%
D13*
%TO.C,C1*%
X139500000Y-128500000D03*
D16*
X139500000Y-130500000D03*
%TD*%
D17*
%TO.C,J2*%
X147730000Y-88530000D03*
X150270000Y-88530000D03*
X147730000Y-91070000D03*
X150270000Y-91070000D03*
X147730000Y-93610000D03*
X150270000Y-93610000D03*
X147730000Y-96150000D03*
X150270000Y-96150000D03*
X147730000Y-98690000D03*
X150270000Y-98690000D03*
X147730000Y-101230000D03*
X150270000Y-101230000D03*
X147730000Y-103770000D03*
X150270000Y-103770000D03*
X147730000Y-106310000D03*
X150270000Y-106310000D03*
X147730000Y-108850000D03*
X150270000Y-108850000D03*
X147730000Y-111390000D03*
X150270000Y-111390000D03*
X147730000Y-113930000D03*
X150270000Y-113930000D03*
X147730000Y-116470000D03*
D18*
X150270000Y-116470000D03*
%TD*%
D19*
%TO.C,H4*%
X168000000Y-130000000D03*
%TD*%
%TO.C,H3*%
X168000000Y-79000000D03*
%TD*%
%TO.C,H2*%
X117000000Y-130000000D03*
%TD*%
%TO.C,H1*%
X117000000Y-79000000D03*
%TD*%
D20*
%TO.C,J1*%
X127460000Y-80740000D03*
X127460000Y-83280000D03*
X127460000Y-85820000D03*
X127460000Y-88360000D03*
X127460000Y-90900000D03*
X127460000Y-93440000D03*
X127460000Y-95980000D03*
X127460000Y-98520000D03*
X127460000Y-101060000D03*
X127460000Y-103600000D03*
X127460000Y-106140000D03*
X127460000Y-108680000D03*
X127460000Y-111220000D03*
X127460000Y-113760000D03*
X127460000Y-116300000D03*
X127460000Y-118840000D03*
X127460000Y-121380000D03*
X127460000Y-123920000D03*
X127460000Y-126460000D03*
X127460000Y-129000000D03*
X130000000Y-80740000D03*
X130000000Y-83280000D03*
X130000000Y-85820000D03*
X130000000Y-88360000D03*
X130000000Y-90900000D03*
X130000000Y-93440000D03*
X130000000Y-95980000D03*
X130000000Y-98520000D03*
X130000000Y-101060000D03*
X130000000Y-103600000D03*
X130000000Y-106140000D03*
X130000000Y-108680000D03*
X130000000Y-111220000D03*
X130000000Y-113760000D03*
X130000000Y-116300000D03*
X130000000Y-118840000D03*
X130000000Y-121380000D03*
X130000000Y-123920000D03*
X130000000Y-126460000D03*
G36*
G01*
X130850000Y-128400000D02*
X130850000Y-129600000D01*
G75*
G02*
X130600000Y-129850000I-250000J0D01*
G01*
X129400000Y-129850000D01*
G75*
G02*
X129150000Y-129600000I0J250000D01*
G01*
X129150000Y-128400000D01*
G75*
G02*
X129400000Y-128150000I250000J0D01*
G01*
X130600000Y-128150000D01*
G75*
G02*
X130850000Y-128400000I0J-250000D01*
G01*
G37*
%TD*%
M02*
