M48
; DRILL file {KiCad (5.1.10)-1} date 09/06/21 21:49:56
; FORMAT={-:-/ absolute / metric / decimal}
; #@! TF.CreationDate,2021-09-06T21:49:56-04:00
; #@! TF.GenerationSoftware,Kicad,Pcbnew,(5.1.10)-1
; #@! TF.FileFunction,Plated,1,2,PTH
FMAT,2
METRIC
T1C0.400
T2C0.800
T3C1.000
T4C1.020
%
G90
G05
T1
X115.0Y-85.0
X115.0Y-95.0
X115.0Y-105.0
X115.0Y-115.0
X115.0Y-125.0
X121.8Y-75.4
X122.0Y-115.0
X122.0Y-133.0
X122.2Y-84.8
X122.2Y-105.0
X122.2Y-125.0
X122.4Y-95.0
X127.4Y-78.2
X131.0Y-112.0
X131.0Y-115.0
X131.2Y-84.6
X131.4Y-79.0
X132.0Y-109.0
X132.2Y-126.6
X133.4Y-75.2
X133.8Y-101.2
X134.8Y-99.6
X135.0Y-133.0
X136.0Y-98.2
X137.4Y-97.2
X137.6Y-125.0
X138.0Y-115.0
X138.6Y-95.8
X140.0Y-79.0
X140.0Y-112.0
X140.6Y-95.0
X141.0Y-109.0
X141.8Y-88.8
X146.2Y-116.8
X146.8Y-94.0
X148.0Y-74.8
X148.0Y-122.4
X148.0Y-133.0
X148.8Y-80.2
X150.6Y-74.8
X153.2Y-74.8
X153.4Y-79.2
X153.8Y-119.2
X154.0Y-86.8
X154.0Y-94.8
X154.0Y-99.8
X154.0Y-106.2
X154.2Y-112.6
X155.0Y-123.2
X155.2Y-74.8
X155.6Y-76.8
X155.8Y-79.2
X158.0Y-86.4
X158.0Y-93.2
X158.0Y-100.0
X158.0Y-109.2
X158.0Y-133.0
X158.2Y-119.6
X164.0Y-76.0
X170.0Y-85.0
X170.0Y-99.0
X170.0Y-112.0
X170.0Y-123.0
T2
X135.38Y-126.0
X137.0Y-77.0
X137.0Y-79.0
X143.0Y-126.0
X157.0Y-83.0
X159.0Y-83.0
T3
X127.0Y-80.4
X127.0Y-82.94
X127.0Y-85.48
X127.0Y-88.02
X127.0Y-90.56
X127.0Y-93.1
X127.0Y-95.64
X127.0Y-98.18
X127.0Y-100.72
X127.0Y-103.26
X127.0Y-105.8
X127.0Y-108.34
X127.0Y-110.88
X127.0Y-113.42
X127.0Y-115.96
X127.0Y-118.5
X127.0Y-121.04
X127.0Y-123.58
X127.0Y-126.12
X127.0Y-128.66
X129.54Y-80.4
X129.54Y-82.94
X129.54Y-85.48
X129.54Y-88.02
X129.54Y-90.56
X129.54Y-93.1
X129.54Y-95.64
X129.54Y-98.18
X129.54Y-100.72
X129.54Y-103.26
X129.54Y-105.8
X129.54Y-108.34
X129.54Y-110.88
X129.54Y-113.42
X129.54Y-115.96
X129.54Y-118.5
X129.54Y-121.04
X129.54Y-123.58
X129.54Y-126.12
X129.54Y-128.66
X140.0Y-131.0
X142.46Y-77.0
X142.54Y-131.0
X145.0Y-77.0
T4
X148.73Y-91.03
X148.73Y-93.57
X148.73Y-96.11
X148.73Y-98.65
X148.73Y-101.19
X148.73Y-103.73
X148.73Y-106.27
X148.73Y-108.81
X148.73Y-111.35
X148.73Y-113.89
X148.73Y-116.43
X148.73Y-118.97
X151.27Y-91.03
X151.27Y-93.57
X151.27Y-96.11
X151.27Y-98.65
X151.27Y-101.19
X151.27Y-103.73
X151.27Y-106.27
X151.27Y-108.81
X151.27Y-111.35
X151.27Y-113.89
X151.27Y-116.43
X151.27Y-118.97
T0
M30
