M48
; DRILL file {KiCad (5.99.0-13060-g64f77b3596)} date Sun Nov  7 13:13:25 2021
; FORMAT={-:-/ absolute / inch / decimal}
; #@! TF.CreationDate,2021-11-07T13:13:25-05:00
; #@! TF.GenerationSoftware,Kicad,Pcbnew,(5.99.0-13060-g64f77b3596)
; #@! TF.FileFunction,Plated,1,2,PTH
FMAT,2
INCH
; #@! TA.AperFunction,Plated,PTH,ViaDrill
T1C0.0157
; #@! TA.AperFunction,Plated,PTH,ComponentDrill
T2C0.0310
; #@! TA.AperFunction,Plated,PTH,ComponentDrill
T3C0.0315
; #@! TA.AperFunction,Plated,PTH,ComponentDrill
T4C0.0354
; #@! TA.AperFunction,Plated,PTH,ComponentDrill
T5C0.0394
; #@! TA.AperFunction,Plated,PTH,ComponentDrill
T6C0.0433
; #@! TA.AperFunction,Plated,PTH,ComponentDrill
T7C0.0472
; #@! TA.AperFunction,Plated,PTH,ComponentDrill
T8C0.0591
; #@! TA.AperFunction,Plated,PTH,ComponentDrill
T9C0.0650
%
G90
G05
T1
X4.7343Y-2.3917
X4.7343Y-2.7854
X4.7343Y-3.376
X4.7343Y-3.9665
X4.7343Y-4.3602
X4.8406Y-3.7382
X4.8917Y-2.9665
X4.8957Y-3.2028
X4.9311Y-1.998
X5.0374Y-3.5295
X5.0846Y-4.2894
X5.2744Y-1.9634
X5.6398Y-3.6909
X5.6644Y-3.0434
X5.8744Y-1.9634
X6.1909Y-3.7303
X6.2744Y-1.9634
X6.3062Y-3.1943
X6.3844Y-5.1934
X6.4744Y-3.5634
X6.4744Y-3.9634
X6.5044Y-5.1934
X6.5744Y-2.8634
X6.6144Y-5.1934
X6.7344Y-5.1934
X6.8644Y-4.5734
X6.8644Y-4.6634
X6.8644Y-4.7534
X6.8644Y-4.8734
X6.8744Y-2.2634
X6.8744Y-2.5634
X6.8744Y-2.9634
X6.8744Y-3.2634
X6.8744Y-3.6634
X6.8744Y-3.9634
X6.8744Y-5.1934
T2
X5.4694Y-3.1234
X5.4694Y-3.4234
X5.5694Y-3.1234
X5.5694Y-3.4234
X5.6694Y-3.1234
X5.6694Y-3.4234
X5.7694Y-3.1234
X5.7694Y-3.4234
X5.8694Y-3.1234
X5.8694Y-3.4234
X5.9694Y-3.1234
X5.9694Y-3.4234
X6.0694Y-3.1234
X6.0694Y-3.4234
X6.1694Y-3.1234
X6.1694Y-3.4234
X6.2694Y-3.1234
X6.2694Y-3.4234
X6.3694Y-3.1234
X6.3694Y-3.4234
T3
X4.9843Y-3.6909
X5.122Y-3.6909
X5.2544Y-3.2534
X5.2544Y-3.3321
X5.5498Y-3.56
X5.6498Y-3.56
X5.7498Y-3.56
X5.8498Y-3.56
X5.9498Y-3.56
X6.0498Y-3.56
X6.1498Y-3.56
X6.2498Y-3.56
X6.4844Y-2.3234
X6.4844Y-2.6234
X6.5494Y-3.1765
X6.5494Y-3.3734
T4
X6.4844Y-2.0834
X6.4844Y-2.1834
T5
X5.0531Y-3.1858
X5.0531Y-3.2858
X5.0531Y-3.3858
X5.4144Y-2.0834
X5.4144Y-2.1834
X5.4144Y-2.2834
X5.4144Y-2.3834
X5.4144Y-2.4834
X5.4144Y-2.5834
X5.4144Y-2.6834
X5.4144Y-2.7834
X6.3144Y-2.0834
X6.3144Y-2.1834
X6.3144Y-2.2834
X6.3144Y-2.3834
X6.3144Y-2.4834
X6.3144Y-2.5834
X6.3144Y-2.6834
X6.3144Y-2.7834
T6
X4.9998Y-2.96
X5.0998Y-2.96
X5.1998Y-2.96
T7
X5.3798Y-3.84
X5.3798Y-4.33
X5.5176Y-3.84
X5.5176Y-4.33
X5.6554Y-3.84
X5.6554Y-4.33
X5.9598Y-3.84
X5.9598Y-4.33
X6.0976Y-3.84
X6.0976Y-4.33
X6.2354Y-3.84
X6.2354Y-4.33
T8
X6.4914Y-4.326
X6.4914Y-4.6508
T9
X4.9798Y-4.2957
X4.9798Y-4.4414
X4.9798Y-4.6186
X4.9798Y-4.7643
X5.3598Y-4.6657
X5.3598Y-4.8114
X5.3598Y-4.9886
X5.3598Y-5.1343
X5.5898Y-4.6657
X5.5898Y-4.8114
X5.5898Y-4.9886
X5.5898Y-5.1343
X5.8198Y-4.6657
X5.8198Y-4.8114
X5.8198Y-4.9886
X5.8198Y-5.1343
X6.0598Y-4.6657
X6.0598Y-4.8114
X6.0598Y-4.9886
X6.0598Y-5.1343
T0
M30
