G04 #@! TF.GenerationSoftware,KiCad,Pcbnew,(6.0.1)*
G04 #@! TF.CreationDate,2022-02-10T21:28:03-05:00*
G04 #@! TF.ProjectId,PI_W_Controller,50495f57-5f43-46f6-9e74-726f6c6c6572,v2*
G04 #@! TF.SameCoordinates,Original*
G04 #@! TF.FileFunction,Other,User*
%FSLAX46Y46*%
G04 Gerber Fmt 4.6, Leading zero omitted, Abs format (unit mm)*
G04 Created by KiCad (PCBNEW (6.0.1)) date 2022-02-10 21:28:03*
%MOMM*%
%LPD*%
G01*
G04 APERTURE LIST*
%ADD10C,0.050000*%
%ADD11C,0.152400*%
G04 APERTURE END LIST*
D10*
X137550000Y-81800000D02*
G75*
G03*
X137550000Y-81800000I-2750000J0D01*
G01*
X127098000Y-92532000D02*
X127098000Y-100782000D01*
X139998000Y-92532000D02*
X127098000Y-92532000D01*
X139998000Y-100782000D02*
X139998000Y-92532000D01*
X127098000Y-100782000D02*
X139998000Y-100782000D01*
X169462000Y-92532000D02*
X156562000Y-92532000D01*
X156562000Y-92532000D02*
X156562000Y-100782000D01*
X156562000Y-100782000D02*
X169462000Y-100782000D01*
X169462000Y-100782000D02*
X169462000Y-92532000D01*
X171294000Y-105232000D02*
X171294000Y-113482000D01*
X184194000Y-113482000D02*
X184194000Y-105232000D01*
X184194000Y-105232000D02*
X171294000Y-105232000D01*
X171294000Y-113482000D02*
X184194000Y-113482000D01*
X184194000Y-92532000D02*
X171294000Y-92532000D01*
X171294000Y-92532000D02*
X171294000Y-100782000D01*
X184194000Y-100782000D02*
X184194000Y-92532000D01*
X171294000Y-100782000D02*
X184194000Y-100782000D01*
X124150000Y-88050000D02*
G75*
G03*
X124150000Y-88050000I-4250000J0D01*
G01*
X169462000Y-113482000D02*
X169462000Y-105232000D01*
X169462000Y-105232000D02*
X156562000Y-105232000D01*
X156562000Y-113482000D02*
X169462000Y-113482000D01*
X156562000Y-105232000D02*
X156562000Y-113482000D01*
X200038000Y-127508000D02*
G75*
G03*
X200038000Y-127508000I-3950000J0D01*
G01*
X200038000Y-51308000D02*
G75*
G03*
X200038000Y-51308000I-3950000J0D01*
G01*
X123838000Y-127508000D02*
G75*
G03*
X123838000Y-127508000I-3950000J0D01*
G01*
X123838000Y-51308000D02*
G75*
G03*
X123838000Y-51308000I-3950000J0D01*
G01*
X175964000Y-87758000D02*
X154764000Y-87758000D01*
X154764000Y-91058000D02*
X175964000Y-91058000D01*
X154764000Y-87758000D02*
X154764000Y-91058000D01*
X175964000Y-91058000D02*
X175964000Y-87758000D01*
X187682000Y-96300000D02*
X187682000Y-86580000D01*
X187682000Y-86580000D02*
X184682000Y-86580000D01*
X184682000Y-96300000D02*
X187682000Y-96300000D01*
X184682000Y-86580000D02*
X184682000Y-96300000D01*
X141830000Y-113482000D02*
X154730000Y-113482000D01*
X154730000Y-113482000D02*
X154730000Y-105232000D01*
X141830000Y-105232000D02*
X141830000Y-113482000D01*
X154730000Y-105232000D02*
X141830000Y-105232000D01*
X191296000Y-84050000D02*
X191296000Y-81050000D01*
X181576000Y-81050000D02*
X181576000Y-84050000D01*
X181576000Y-84050000D02*
X191296000Y-84050000D01*
X191296000Y-81050000D02*
X181576000Y-81050000D01*
X133174000Y-91058000D02*
X154374000Y-91058000D01*
X154374000Y-91058000D02*
X154374000Y-87758000D01*
X154374000Y-87758000D02*
X133174000Y-87758000D01*
X133174000Y-87758000D02*
X133174000Y-91058000D01*
D11*
X145402300Y-77076300D02*
X145402300Y-78232000D01*
X171450000Y-85344000D02*
X171450000Y-78232000D01*
X170065700Y-77076300D02*
X145402300Y-77076300D01*
X145402300Y-85344000D02*
X145402300Y-86499700D01*
X170065700Y-85344000D02*
X171450000Y-85344000D01*
X144018000Y-78232000D02*
X144018000Y-85344000D01*
X170065700Y-86499700D02*
X170065700Y-85344000D01*
X145402300Y-78232000D02*
X144018000Y-78232000D01*
X145402300Y-86499700D02*
X170065700Y-86499700D01*
X171450000Y-78232000D02*
X170065700Y-78232000D01*
X170065700Y-78232000D02*
X170065700Y-77076300D01*
X144018000Y-85344000D02*
X145402300Y-85344000D01*
D10*
X115912500Y-72782000D02*
X125012500Y-72782000D01*
X125012500Y-72782000D02*
X125012500Y-83682000D01*
X115912500Y-83682000D02*
X115912500Y-72782000D01*
X125012500Y-83682000D02*
X115912500Y-83682000D01*
X127098000Y-113482000D02*
X139998000Y-113482000D01*
X139998000Y-105232000D02*
X127098000Y-105232000D01*
X127098000Y-105232000D02*
X127098000Y-113482000D01*
X139998000Y-113482000D02*
X139998000Y-105232000D01*
X177661000Y-89880000D02*
X182511000Y-89880000D01*
X177661000Y-85380000D02*
X177661000Y-89880000D01*
X182511000Y-85380000D02*
X177661000Y-85380000D01*
X182511000Y-89880000D02*
X182511000Y-85380000D01*
X191296000Y-80748000D02*
X191296000Y-77748000D01*
X181576000Y-77748000D02*
X181576000Y-80748000D01*
X191296000Y-77748000D02*
X181576000Y-77748000D01*
X181576000Y-80748000D02*
X191296000Y-80748000D01*
X193562000Y-88118000D02*
X193562000Y-85618000D01*
X188962000Y-85618000D02*
X193562000Y-85618000D01*
X188962000Y-85618000D02*
X188962000Y-88118000D01*
X193562000Y-88118000D02*
X188962000Y-88118000D01*
X154730000Y-92532000D02*
X141830000Y-92532000D01*
X154730000Y-100782000D02*
X154730000Y-92532000D01*
X141830000Y-92532000D02*
X141830000Y-100782000D01*
X141830000Y-100782000D02*
X154730000Y-100782000D01*
X174859000Y-77316000D02*
X172359000Y-77316000D01*
X172359000Y-77316000D02*
X172359000Y-84816000D01*
X174859000Y-84816000D02*
X174859000Y-77316000D01*
X172359000Y-84816000D02*
X174859000Y-84816000D01*
X133000000Y-85300000D02*
X124350000Y-85300000D01*
X124350000Y-88900000D02*
X133000000Y-88900000D01*
X124350000Y-85300000D02*
X124350000Y-88900000D01*
X133000000Y-88900000D02*
X133000000Y-85300000D01*
X140010000Y-62950000D02*
X178590000Y-62950000D01*
X140010000Y-53400000D02*
X140010000Y-62950000D01*
X178590000Y-62950000D02*
X178590000Y-53400000D01*
X178590000Y-53400000D02*
X140010000Y-53400000D01*
X193532000Y-93452000D02*
X193532000Y-90952000D01*
X193532000Y-93452000D02*
X188932000Y-93452000D01*
X188932000Y-90952000D02*
X188932000Y-93452000D01*
X188932000Y-90952000D02*
X193532000Y-90952000D01*
M02*
