%TF.GenerationSoftware,KiCad,Pcbnew,7.0.10*%
%TF.CreationDate,2024-01-19T02:19:35-05:00*%
%TF.ProjectId,ESP8266_Count2,45535038-3236-4365-9f43-6f756e74322e,v2*%
%TF.SameCoordinates,Original*%
%TF.FileFunction,Other,Comment*%
%FSLAX46Y46*%
G04 Gerber Fmt 4.6, Leading zero omitted, Abs format (unit mm)*
G04 Created by KiCad (PCBNEW 7.0.10) date 2024-01-19 02:19:35*
%MOMM*%
%LPD*%
G01*
G04 APERTURE LIST*
%ADD10C,0.150000*%
G04 APERTURE END LIST*
D10*
X165994819Y-75391190D02*
X164994819Y-75391190D01*
X165994819Y-74819762D02*
X165423390Y-75248333D01*
X164994819Y-74819762D02*
X165566247Y-75391190D01*
X165471009Y-74391190D02*
X165471009Y-74057857D01*
X165994819Y-73915000D02*
X165994819Y-74391190D01*
X165994819Y-74391190D02*
X164994819Y-74391190D01*
X164994819Y-74391190D02*
X164994819Y-73915000D01*
X165471009Y-73486428D02*
X165471009Y-73153095D01*
X165994819Y-73010238D02*
X165994819Y-73486428D01*
X165994819Y-73486428D02*
X164994819Y-73486428D01*
X164994819Y-73486428D02*
X164994819Y-73010238D01*
X165994819Y-72581666D02*
X164994819Y-72581666D01*
X164994819Y-72581666D02*
X164994819Y-72200714D01*
X164994819Y-72200714D02*
X165042438Y-72105476D01*
X165042438Y-72105476D02*
X165090057Y-72057857D01*
X165090057Y-72057857D02*
X165185295Y-72010238D01*
X165185295Y-72010238D02*
X165328152Y-72010238D01*
X165328152Y-72010238D02*
X165423390Y-72057857D01*
X165423390Y-72057857D02*
X165471009Y-72105476D01*
X165471009Y-72105476D02*
X165518628Y-72200714D01*
X165518628Y-72200714D02*
X165518628Y-72581666D01*
X164994819Y-70629285D02*
X164994819Y-70438809D01*
X164994819Y-70438809D02*
X165042438Y-70343571D01*
X165042438Y-70343571D02*
X165137676Y-70248333D01*
X165137676Y-70248333D02*
X165328152Y-70200714D01*
X165328152Y-70200714D02*
X165661485Y-70200714D01*
X165661485Y-70200714D02*
X165851961Y-70248333D01*
X165851961Y-70248333D02*
X165947200Y-70343571D01*
X165947200Y-70343571D02*
X165994819Y-70438809D01*
X165994819Y-70438809D02*
X165994819Y-70629285D01*
X165994819Y-70629285D02*
X165947200Y-70724523D01*
X165947200Y-70724523D02*
X165851961Y-70819761D01*
X165851961Y-70819761D02*
X165661485Y-70867380D01*
X165661485Y-70867380D02*
X165328152Y-70867380D01*
X165328152Y-70867380D02*
X165137676Y-70819761D01*
X165137676Y-70819761D02*
X165042438Y-70724523D01*
X165042438Y-70724523D02*
X164994819Y-70629285D01*
X164994819Y-69772142D02*
X165804342Y-69772142D01*
X165804342Y-69772142D02*
X165899580Y-69724523D01*
X165899580Y-69724523D02*
X165947200Y-69676904D01*
X165947200Y-69676904D02*
X165994819Y-69581666D01*
X165994819Y-69581666D02*
X165994819Y-69391190D01*
X165994819Y-69391190D02*
X165947200Y-69295952D01*
X165947200Y-69295952D02*
X165899580Y-69248333D01*
X165899580Y-69248333D02*
X165804342Y-69200714D01*
X165804342Y-69200714D02*
X164994819Y-69200714D01*
X164994819Y-68867380D02*
X164994819Y-68295952D01*
X165994819Y-68581666D02*
X164994819Y-68581666D01*
X163454819Y-75557857D02*
X162454819Y-75557857D01*
X162454819Y-75557857D02*
X163454819Y-74986429D01*
X163454819Y-74986429D02*
X162454819Y-74986429D01*
X163454819Y-74367381D02*
X163407200Y-74462619D01*
X163407200Y-74462619D02*
X163359580Y-74510238D01*
X163359580Y-74510238D02*
X163264342Y-74557857D01*
X163264342Y-74557857D02*
X162978628Y-74557857D01*
X162978628Y-74557857D02*
X162883390Y-74510238D01*
X162883390Y-74510238D02*
X162835771Y-74462619D01*
X162835771Y-74462619D02*
X162788152Y-74367381D01*
X162788152Y-74367381D02*
X162788152Y-74224524D01*
X162788152Y-74224524D02*
X162835771Y-74129286D01*
X162835771Y-74129286D02*
X162883390Y-74081667D01*
X162883390Y-74081667D02*
X162978628Y-74034048D01*
X162978628Y-74034048D02*
X163264342Y-74034048D01*
X163264342Y-74034048D02*
X163359580Y-74081667D01*
X163359580Y-74081667D02*
X163407200Y-74129286D01*
X163407200Y-74129286D02*
X163454819Y-74224524D01*
X163454819Y-74224524D02*
X163454819Y-74367381D01*
X163407200Y-72415000D02*
X163454819Y-72510238D01*
X163454819Y-72510238D02*
X163454819Y-72700714D01*
X163454819Y-72700714D02*
X163407200Y-72795952D01*
X163407200Y-72795952D02*
X163359580Y-72843571D01*
X163359580Y-72843571D02*
X163264342Y-72891190D01*
X163264342Y-72891190D02*
X162978628Y-72891190D01*
X162978628Y-72891190D02*
X162883390Y-72843571D01*
X162883390Y-72843571D02*
X162835771Y-72795952D01*
X162835771Y-72795952D02*
X162788152Y-72700714D01*
X162788152Y-72700714D02*
X162788152Y-72510238D01*
X162788152Y-72510238D02*
X162835771Y-72415000D01*
X163454819Y-71843571D02*
X163407200Y-71938809D01*
X163407200Y-71938809D02*
X163359580Y-71986428D01*
X163359580Y-71986428D02*
X163264342Y-72034047D01*
X163264342Y-72034047D02*
X162978628Y-72034047D01*
X162978628Y-72034047D02*
X162883390Y-71986428D01*
X162883390Y-71986428D02*
X162835771Y-71938809D01*
X162835771Y-71938809D02*
X162788152Y-71843571D01*
X162788152Y-71843571D02*
X162788152Y-71700714D01*
X162788152Y-71700714D02*
X162835771Y-71605476D01*
X162835771Y-71605476D02*
X162883390Y-71557857D01*
X162883390Y-71557857D02*
X162978628Y-71510238D01*
X162978628Y-71510238D02*
X163264342Y-71510238D01*
X163264342Y-71510238D02*
X163359580Y-71557857D01*
X163359580Y-71557857D02*
X163407200Y-71605476D01*
X163407200Y-71605476D02*
X163454819Y-71700714D01*
X163454819Y-71700714D02*
X163454819Y-71843571D01*
X162788152Y-71081666D02*
X163788152Y-71081666D01*
X162835771Y-71081666D02*
X162788152Y-70986428D01*
X162788152Y-70986428D02*
X162788152Y-70795952D01*
X162788152Y-70795952D02*
X162835771Y-70700714D01*
X162835771Y-70700714D02*
X162883390Y-70653095D01*
X162883390Y-70653095D02*
X162978628Y-70605476D01*
X162978628Y-70605476D02*
X163264342Y-70605476D01*
X163264342Y-70605476D02*
X163359580Y-70653095D01*
X163359580Y-70653095D02*
X163407200Y-70700714D01*
X163407200Y-70700714D02*
X163454819Y-70795952D01*
X163454819Y-70795952D02*
X163454819Y-70986428D01*
X163454819Y-70986428D02*
X163407200Y-71081666D01*
X162788152Y-70176904D02*
X163788152Y-70176904D01*
X162835771Y-70176904D02*
X162788152Y-70081666D01*
X162788152Y-70081666D02*
X162788152Y-69891190D01*
X162788152Y-69891190D02*
X162835771Y-69795952D01*
X162835771Y-69795952D02*
X162883390Y-69748333D01*
X162883390Y-69748333D02*
X162978628Y-69700714D01*
X162978628Y-69700714D02*
X163264342Y-69700714D01*
X163264342Y-69700714D02*
X163359580Y-69748333D01*
X163359580Y-69748333D02*
X163407200Y-69795952D01*
X163407200Y-69795952D02*
X163454819Y-69891190D01*
X163454819Y-69891190D02*
X163454819Y-70081666D01*
X163454819Y-70081666D02*
X163407200Y-70176904D01*
X163407200Y-68891190D02*
X163454819Y-68986428D01*
X163454819Y-68986428D02*
X163454819Y-69176904D01*
X163454819Y-69176904D02*
X163407200Y-69272142D01*
X163407200Y-69272142D02*
X163311961Y-69319761D01*
X163311961Y-69319761D02*
X162931009Y-69319761D01*
X162931009Y-69319761D02*
X162835771Y-69272142D01*
X162835771Y-69272142D02*
X162788152Y-69176904D01*
X162788152Y-69176904D02*
X162788152Y-68986428D01*
X162788152Y-68986428D02*
X162835771Y-68891190D01*
X162835771Y-68891190D02*
X162931009Y-68843571D01*
X162931009Y-68843571D02*
X163026247Y-68843571D01*
X163026247Y-68843571D02*
X163121485Y-69319761D01*
X163454819Y-68414999D02*
X162788152Y-68414999D01*
X162978628Y-68414999D02*
X162883390Y-68367380D01*
X162883390Y-68367380D02*
X162835771Y-68319761D01*
X162835771Y-68319761D02*
X162788152Y-68224523D01*
X162788152Y-68224523D02*
X162788152Y-68129285D01*
%TO.C,H4*%
X200400000Y-80000000D02*
G75*
G03*
X195000000Y-80000000I-2700000J0D01*
G01*
X195000000Y-80000000D02*
G75*
G03*
X200400000Y-80000000I2700000J0D01*
G01*
%TO.C,H1*%
X200400000Y-59150000D02*
G75*
G03*
X195000000Y-59150000I-2700000J0D01*
G01*
X195000000Y-59150000D02*
G75*
G03*
X200400000Y-59150000I2700000J0D01*
G01*
%TD*%
M02*
