%TF.GenerationSoftware,KiCad,Pcbnew,(7.0.0)*%
%TF.CreationDate,2023-03-21T01:24:05-04:00*%
%TF.ProjectId,PicoDMXStepper,5069636f-444d-4585-9374-65707065722e,v1*%
%TF.SameCoordinates,Original*%
%TF.FileFunction,Soldermask,Top*%
%TF.FilePolarity,Negative*%
%FSLAX46Y46*%
G04 Gerber Fmt 4.6, Leading zero omitted, Abs format (unit mm)*
G04 Created by KiCad (PCBNEW (7.0.0)) date 2023-03-21 01:24:05*
%MOMM*%
%LPD*%
G01*
G04 APERTURE LIST*
G04 Aperture macros list*
%AMRoundRect*
0 Rectangle with rounded corners*
0 $1 Rounding radius*
0 $2 $3 $4 $5 $6 $7 $8 $9 X,Y pos of 4 corners*
0 Add a 4 corners polygon primitive as box body*
4,1,4,$2,$3,$4,$5,$6,$7,$8,$9,$2,$3,0*
0 Add four circle primitives for the rounded corners*
1,1,$1+$1,$2,$3*
1,1,$1+$1,$4,$5*
1,1,$1+$1,$6,$7*
1,1,$1+$1,$8,$9*
0 Add four rect primitives between the rounded corners*
20,1,$1+$1,$2,$3,$4,$5,0*
20,1,$1+$1,$4,$5,$6,$7,0*
20,1,$1+$1,$6,$7,$8,$9,0*
20,1,$1+$1,$8,$9,$2,$3,0*%
G04 Aperture macros list end*
%ADD10RoundRect,0.201000X-0.825000X-0.150000X0.825000X-0.150000X0.825000X0.150000X-0.825000X0.150000X0*%
%ADD11RoundRect,0.288500X0.237500X-0.250000X0.237500X0.250000X-0.237500X0.250000X-0.237500X-0.250000X0*%
%ADD12RoundRect,0.051000X0.400000X0.750000X-0.400000X0.750000X-0.400000X-0.750000X0.400000X-0.750000X0*%
%ADD13RoundRect,0.288500X-0.237500X0.250000X-0.237500X-0.250000X0.237500X-0.250000X0.237500X0.250000X0*%
%ADD14RoundRect,0.288500X-0.250000X-0.237500X0.250000X-0.237500X0.250000X0.237500X-0.250000X0.237500X0*%
%ADD15C,3.802000*%
%ADD16RoundRect,0.051000X1.500000X-1.500000X1.500000X1.500000X-1.500000X1.500000X-1.500000X-1.500000X0*%
%ADD17C,3.102000*%
%ADD18RoundRect,0.301001X1.999999X0.799999X-1.999999X0.799999X-1.999999X-0.799999X1.999999X-0.799999X0*%
%ADD19RoundRect,0.288500X-0.300000X-0.237500X0.300000X-0.237500X0.300000X0.237500X-0.300000X0.237500X0*%
%ADD20C,3.402000*%
%ADD21RoundRect,0.051000X-0.750000X0.750000X-0.750000X-0.750000X0.750000X-0.750000X0.750000X0.750000X0*%
%ADD22C,1.602000*%
%ADD23RoundRect,0.051000X0.800000X0.800000X-0.800000X0.800000X-0.800000X-0.800000X0.800000X-0.800000X0*%
%ADD24O,1.702000X1.702000*%
%ADD25O,2.052000X1.802000*%
%ADD26RoundRect,0.301000X0.725000X-0.600000X0.725000X0.600000X-0.725000X0.600000X-0.725000X-0.600000X0*%
%ADD27RoundRect,0.051000X0.750000X-0.500000X0.750000X0.500000X-0.750000X0.500000X-0.750000X-0.500000X0*%
%ADD28RoundRect,0.288500X0.250000X0.237500X-0.250000X0.237500X-0.250000X-0.237500X0.250000X-0.237500X0*%
%ADD29RoundRect,0.051000X1.000000X0.750000X-1.000000X0.750000X-1.000000X-0.750000X1.000000X-0.750000X0*%
%ADD30RoundRect,0.051000X1.000000X1.900000X-1.000000X1.900000X-1.000000X-1.900000X1.000000X-1.900000X0*%
%ADD31RoundRect,0.051000X-0.850000X-0.850000X0.850000X-0.850000X0.850000X0.850000X-0.850000X0.850000X0*%
%ADD32O,1.802000X1.802000*%
%ADD33C,2.702000*%
%ADD34RoundRect,0.051000X1.300000X-1.300000X1.300000X1.300000X-1.300000X1.300000X-1.300000X-1.300000X0*%
%ADD35RoundRect,0.288500X0.237500X-0.287500X0.237500X0.287500X-0.237500X0.287500X-0.237500X-0.287500X0*%
%ADD36RoundRect,0.301000X-1.550000X0.650000X-1.550000X-0.650000X1.550000X-0.650000X1.550000X0.650000X0*%
%ADD37O,3.702000X1.902000*%
%ADD38O,1.902000X1.902000*%
%ADD39O,1.602000X1.602000*%
%ADD40RoundRect,0.051000X1.750000X0.850000X-1.750000X0.850000X-1.750000X-0.850000X1.750000X-0.850000X0*%
%ADD41RoundRect,0.051000X0.850000X0.850000X-0.850000X0.850000X-0.850000X-0.850000X0.850000X-0.850000X0*%
%ADD42RoundRect,0.051000X-0.850000X1.750000X-0.850000X-1.750000X0.850000X-1.750000X0.850000X1.750000X0*%
%ADD43RoundRect,0.051000X-0.800000X0.800000X-0.800000X-0.800000X0.800000X-0.800000X0.800000X0.800000X0*%
G04 APERTURE END LIST*
D10*
%TO.C,U3*%
X124733291Y-111834991D03*
X124733291Y-113104991D03*
X124733291Y-114374991D03*
X124733291Y-115644991D03*
X119783291Y-115644991D03*
X119783291Y-114374991D03*
X119783291Y-113104991D03*
X119783291Y-111834991D03*
%TD*%
D11*
%TO.C,R3*%
X128241491Y-114627091D03*
X128241491Y-112802091D03*
%TD*%
D12*
%TO.C,U5*%
X125404425Y-103151000D03*
X124134425Y-103151000D03*
X124134425Y-96901000D03*
X125404425Y-96901000D03*
%TD*%
%TO.C,U4*%
X128614425Y-96881000D03*
X127344425Y-96881000D03*
X127344425Y-103131000D03*
X128614425Y-103131000D03*
%TD*%
D13*
%TO.C,R11*%
X125524425Y-92638500D03*
X125524425Y-94463500D03*
%TD*%
%TO.C,R10*%
X128674425Y-92598500D03*
X128674425Y-94423500D03*
%TD*%
D14*
%TO.C,R9*%
X137009500Y-90271600D03*
X138834500Y-90271600D03*
%TD*%
%TO.C,R8*%
X136986000Y-88468200D03*
X138811000Y-88468200D03*
%TD*%
%TO.C,R7*%
X138809100Y-86664800D03*
X136984100Y-86664800D03*
%TD*%
D15*
%TO.C,H4*%
X176657000Y-139750800D03*
%TD*%
%TO.C,H1*%
X120520000Y-139725000D03*
%TD*%
D16*
%TO.C,J1*%
X171170600Y-103438960D03*
D17*
X171170600Y-95189040D03*
%TD*%
D18*
%TO.C,C1*%
X158944400Y-105855800D03*
X166144400Y-105855800D03*
%TD*%
D19*
%TO.C,C2*%
X155576100Y-91668600D03*
X157301100Y-91668600D03*
%TD*%
D15*
%TO.C,H3*%
X120520000Y-85090000D03*
%TD*%
%TO.C,H2*%
X176657000Y-85090000D03*
%TD*%
D20*
%TO.C,J2*%
X118003000Y-121015700D03*
X118003000Y-132445700D03*
D21*
X124353000Y-122285700D03*
D22*
X126893000Y-123555700D03*
X124353000Y-124825700D03*
X126893000Y-126095700D03*
X124353000Y-127365700D03*
X126893000Y-128635700D03*
X124353000Y-129905700D03*
X126893000Y-131175700D03*
%TD*%
D11*
%TO.C,R1*%
X156591000Y-140942700D03*
X156591000Y-139117700D03*
%TD*%
D23*
%TO.C,A1*%
X168960800Y-130124200D03*
D24*
X168960799Y-127584199D03*
X168960799Y-125044199D03*
X168960799Y-122504199D03*
X168960799Y-119964199D03*
X168960799Y-117424199D03*
X168960799Y-114884199D03*
X168960799Y-112344199D03*
X156260799Y-112344199D03*
X156260799Y-114884199D03*
X156260799Y-117424199D03*
X156260799Y-119964199D03*
X156260799Y-122504199D03*
X156260799Y-125044199D03*
X156260799Y-127584199D03*
X156260799Y-130124199D03*
%TD*%
D25*
%TO.C,J5*%
X173845799Y-117484199D03*
X173845799Y-119984199D03*
X173845799Y-122484199D03*
D26*
X173845800Y-124984200D03*
%TD*%
D27*
%TO.C,JP4*%
X160045400Y-136281400D03*
X160045400Y-137581400D03*
%TD*%
D13*
%TO.C,R5*%
X117627400Y-115695100D03*
X117627400Y-113870100D03*
%TD*%
D28*
%TO.C,R6*%
X118035700Y-117297200D03*
X119860700Y-117297200D03*
%TD*%
D29*
%TO.C,U1*%
X161950800Y-95032800D03*
D30*
X155650800Y-97332800D03*
D29*
X161950800Y-97332800D03*
X161950800Y-99632800D03*
%TD*%
D31*
%TO.C,J7*%
X146483600Y-83489800D03*
D32*
X146483599Y-86029799D03*
X146483599Y-88569799D03*
%TD*%
D33*
%TO.C,J3*%
X177120800Y-113534200D03*
X177120800Y-118534200D03*
X177120800Y-123534200D03*
D34*
X177120800Y-128534200D03*
%TD*%
D31*
%TO.C,J8*%
X151163600Y-83489800D03*
D32*
X151163599Y-86029799D03*
X151163599Y-88569799D03*
%TD*%
D27*
%TO.C,JP3*%
X162595400Y-136281400D03*
X162595400Y-137581400D03*
%TD*%
%TO.C,JP1*%
X167720400Y-137581400D03*
X167720400Y-136281400D03*
%TD*%
D35*
%TO.C,D1*%
X156591000Y-135505200D03*
X156591000Y-137255200D03*
%TD*%
D28*
%TO.C,R4*%
X128798391Y-111098391D03*
X126973391Y-111098391D03*
%TD*%
D36*
%TO.C,J4*%
X118132525Y-93854750D03*
D37*
X118132524Y-97664749D03*
X118132524Y-101474749D03*
X118132524Y-105284749D03*
%TD*%
D31*
%TO.C,J6*%
X141833600Y-83489800D03*
D32*
X141833599Y-86029799D03*
X141833599Y-88569799D03*
%TD*%
D27*
%TO.C,JP2*%
X165170400Y-136281400D03*
X165170400Y-137581400D03*
%TD*%
D14*
%TO.C,R2*%
X128696791Y-116356191D03*
X126871791Y-116356191D03*
%TD*%
D38*
%TO.C,U2*%
X144939599Y-142008399D03*
D39*
X144639599Y-138978399D03*
X139789599Y-138978399D03*
D38*
X139489599Y-142008399D03*
D32*
X151104599Y-142138399D03*
D40*
X152004600Y-142138400D03*
D32*
X151104599Y-139598399D03*
D40*
X152004600Y-139598400D03*
D41*
X151104600Y-137058400D03*
D40*
X152004600Y-137058400D03*
D32*
X151104599Y-134518399D03*
D40*
X152004600Y-134518400D03*
D32*
X151104599Y-131978399D03*
D40*
X152004600Y-131978400D03*
D32*
X151104599Y-129438399D03*
D40*
X152004600Y-129438400D03*
D32*
X151104599Y-126898399D03*
D40*
X152004600Y-126898400D03*
D41*
X151104600Y-124358400D03*
D40*
X152004600Y-124358400D03*
D32*
X151104599Y-121818399D03*
D40*
X152004600Y-121818400D03*
D32*
X151104599Y-119278399D03*
D40*
X152004600Y-119278400D03*
D32*
X151104599Y-116738399D03*
D40*
X152004600Y-116738400D03*
D32*
X151104599Y-114198399D03*
D40*
X152004600Y-114198400D03*
D41*
X151104600Y-111658400D03*
D40*
X152004600Y-111658400D03*
D32*
X151104599Y-109118399D03*
D40*
X152004600Y-109118400D03*
D32*
X151104599Y-106578399D03*
D40*
X152004600Y-106578400D03*
D32*
X151104599Y-104038399D03*
D40*
X152004600Y-104038400D03*
D32*
X151104599Y-101498399D03*
D40*
X152004600Y-101498400D03*
D41*
X151104600Y-98958400D03*
D40*
X152004600Y-98958400D03*
D32*
X151104599Y-96418399D03*
D40*
X152004600Y-96418400D03*
D32*
X151104599Y-93878399D03*
D40*
X152004600Y-93878400D03*
D32*
X133324599Y-93878399D03*
D40*
X132424600Y-93878400D03*
D32*
X133324599Y-96418399D03*
D40*
X132424600Y-96418400D03*
D41*
X133324600Y-98958400D03*
D40*
X132424600Y-98958400D03*
D32*
X133324599Y-101498399D03*
D40*
X132424600Y-101498400D03*
D32*
X133324599Y-104038399D03*
D40*
X132424600Y-104038400D03*
D32*
X133324599Y-106578399D03*
D40*
X132424600Y-106578400D03*
D32*
X133324599Y-109118399D03*
D40*
X132424600Y-109118400D03*
D41*
X133324600Y-111658400D03*
D40*
X132424600Y-111658400D03*
D32*
X133324599Y-114198399D03*
D40*
X132424600Y-114198400D03*
D32*
X133324599Y-116738399D03*
D40*
X132424600Y-116738400D03*
D32*
X133324599Y-119278399D03*
D40*
X132424600Y-119278400D03*
D32*
X133324599Y-121818399D03*
D40*
X132424600Y-121818400D03*
D41*
X133324600Y-124358400D03*
D40*
X132424600Y-124358400D03*
D32*
X133324599Y-126898399D03*
D40*
X132424600Y-126898400D03*
D32*
X133324599Y-129438399D03*
D40*
X132424600Y-129438400D03*
D32*
X133324599Y-131978399D03*
D40*
X132424600Y-131978400D03*
D32*
X133324599Y-134518399D03*
D40*
X132424600Y-134518400D03*
D41*
X133324600Y-137058400D03*
D40*
X132424600Y-137058400D03*
D32*
X133324599Y-139598399D03*
D40*
X132424600Y-139598400D03*
D32*
X133324599Y-142138399D03*
D40*
X132424600Y-142138400D03*
D32*
X144754599Y-94108399D03*
D42*
X144754600Y-93208400D03*
D41*
X142214600Y-94108400D03*
D42*
X142214600Y-93208400D03*
D32*
X139674599Y-94108399D03*
D42*
X139674600Y-93208400D03*
%TD*%
D24*
%TO.C,SW2*%
X167716199Y-140842999D03*
X165176199Y-140842999D03*
X162636199Y-140842999D03*
X160096199Y-140842999D03*
X160096199Y-133222999D03*
X162636199Y-133222999D03*
X165176199Y-133222999D03*
D43*
X167716200Y-133223000D03*
%TD*%
G36*
X168486589Y-136827810D02*
G01*
X168487388Y-136829220D01*
X168486880Y-136830759D01*
X168448191Y-136873447D01*
X168433674Y-136931400D01*
X168448191Y-136989352D01*
X168486880Y-137032040D01*
X168487388Y-137033579D01*
X168486589Y-137034989D01*
X168485008Y-137035345D01*
X168470201Y-137032400D01*
X166970599Y-137032400D01*
X166955789Y-137035345D01*
X166954208Y-137034989D01*
X166953409Y-137033579D01*
X166953917Y-137032040D01*
X166992608Y-136989351D01*
X167007124Y-136931400D01*
X166992608Y-136873448D01*
X166953917Y-136830759D01*
X166953409Y-136829220D01*
X166954208Y-136827810D01*
X166955789Y-136827454D01*
X166970599Y-136830400D01*
X168470201Y-136830400D01*
X168485008Y-136827454D01*
X168486589Y-136827810D01*
G37*
G36*
X165936589Y-136827810D02*
G01*
X165937388Y-136829220D01*
X165936880Y-136830759D01*
X165898191Y-136873447D01*
X165883674Y-136931400D01*
X165898191Y-136989352D01*
X165936880Y-137032040D01*
X165937388Y-137033579D01*
X165936589Y-137034989D01*
X165935008Y-137035345D01*
X165920201Y-137032400D01*
X164420599Y-137032400D01*
X164405789Y-137035345D01*
X164404208Y-137034989D01*
X164403409Y-137033579D01*
X164403917Y-137032040D01*
X164442608Y-136989351D01*
X164457124Y-136931400D01*
X164442608Y-136873448D01*
X164403917Y-136830759D01*
X164403409Y-136829220D01*
X164404208Y-136827810D01*
X164405789Y-136827454D01*
X164420599Y-136830400D01*
X165920201Y-136830400D01*
X165935008Y-136827454D01*
X165936589Y-136827810D01*
G37*
G36*
X163361589Y-136827810D02*
G01*
X163362388Y-136829220D01*
X163361880Y-136830759D01*
X163323191Y-136873447D01*
X163308674Y-136931400D01*
X163323191Y-136989352D01*
X163361880Y-137032040D01*
X163362388Y-137033579D01*
X163361589Y-137034989D01*
X163360008Y-137035345D01*
X163345201Y-137032400D01*
X161845599Y-137032400D01*
X161830789Y-137035345D01*
X161829208Y-137034989D01*
X161828409Y-137033579D01*
X161828917Y-137032040D01*
X161867608Y-136989351D01*
X161882124Y-136931400D01*
X161867608Y-136873448D01*
X161828917Y-136830759D01*
X161828409Y-136829220D01*
X161829208Y-136827810D01*
X161830789Y-136827454D01*
X161845599Y-136830400D01*
X163345201Y-136830400D01*
X163360008Y-136827454D01*
X163361589Y-136827810D01*
G37*
G36*
X160811589Y-136827810D02*
G01*
X160812388Y-136829220D01*
X160811880Y-136830759D01*
X160773191Y-136873447D01*
X160758674Y-136931400D01*
X160773191Y-136989352D01*
X160811880Y-137032040D01*
X160812388Y-137033579D01*
X160811589Y-137034989D01*
X160810008Y-137035345D01*
X160795201Y-137032400D01*
X159295599Y-137032400D01*
X159280789Y-137035345D01*
X159279208Y-137034989D01*
X159278409Y-137033579D01*
X159278917Y-137032040D01*
X159317608Y-136989351D01*
X159332124Y-136931400D01*
X159317608Y-136873448D01*
X159278917Y-136830759D01*
X159278409Y-136829220D01*
X159279208Y-136827810D01*
X159280789Y-136827454D01*
X159295599Y-136830400D01*
X160795201Y-136830400D01*
X160810008Y-136827454D01*
X160811589Y-136827810D01*
G37*
G36*
X168136242Y-106955705D02*
G01*
X168136399Y-106957603D01*
X168134897Y-106958772D01*
X168134891Y-106958773D01*
X168134562Y-106958800D01*
X164154238Y-106958800D01*
X164152824Y-106958214D01*
X164152823Y-106958213D01*
X164152237Y-106956799D01*
X164152823Y-106955385D01*
X164154237Y-106954799D01*
X168134568Y-106954799D01*
X168136242Y-106955705D01*
G37*
G36*
X160936242Y-106955705D02*
G01*
X160936399Y-106957603D01*
X160934897Y-106958772D01*
X160934891Y-106958773D01*
X160934562Y-106958800D01*
X156954238Y-106958800D01*
X156952824Y-106958214D01*
X156952823Y-106958213D01*
X156952237Y-106956799D01*
X156952823Y-106955385D01*
X156954237Y-106954799D01*
X160934568Y-106954799D01*
X160936242Y-106955705D01*
G37*
M02*
