%TF.GenerationSoftware,KiCad,Pcbnew,7.0.1*%
%TF.CreationDate,2023-04-10T17:38:49-04:00*%
%TF.ProjectId,PicoDMXStepper,5069636f-444d-4585-9374-65707065722e,v1*%
%TF.SameCoordinates,Original*%
%TF.FileFunction,Paste,Top*%
%TF.FilePolarity,Positive*%
%FSLAX46Y46*%
G04 Gerber Fmt 4.6, Leading zero omitted, Abs format (unit mm)*
G04 Created by KiCad (PCBNEW 7.0.1) date 2023-04-10 17:38:49*
%MOMM*%
%LPD*%
G01*
G04 APERTURE LIST*
G04 Aperture macros list*
%AMRoundRect*
0 Rectangle with rounded corners*
0 $1 Rounding radius*
0 $2 $3 $4 $5 $6 $7 $8 $9 X,Y pos of 4 corners*
0 Add a 4 corners polygon primitive as box body*
4,1,4,$2,$3,$4,$5,$6,$7,$8,$9,$2,$3,0*
0 Add four circle primitives for the rounded corners*
1,1,$1+$1,$2,$3*
1,1,$1+$1,$4,$5*
1,1,$1+$1,$6,$7*
1,1,$1+$1,$8,$9*
0 Add four rect primitives between the rounded corners*
20,1,$1+$1,$2,$3,$4,$5,0*
20,1,$1+$1,$4,$5,$6,$7,0*
20,1,$1+$1,$6,$7,$8,$9,0*
20,1,$1+$1,$8,$9,$2,$3,0*%
G04 Aperture macros list end*
%ADD10RoundRect,0.250001X1.999999X0.799999X-1.999999X0.799999X-1.999999X-0.799999X1.999999X-0.799999X0*%
%ADD11RoundRect,0.237500X-0.300000X-0.237500X0.300000X-0.237500X0.300000X0.237500X-0.300000X0.237500X0*%
%ADD12RoundRect,0.237500X-0.250000X-0.237500X0.250000X-0.237500X0.250000X0.237500X-0.250000X0.237500X0*%
%ADD13RoundRect,0.237500X0.237500X-0.250000X0.237500X0.250000X-0.237500X0.250000X-0.237500X-0.250000X0*%
%ADD14RoundRect,0.237500X-0.237500X0.250000X-0.237500X-0.250000X0.237500X-0.250000X0.237500X0.250000X0*%
%ADD15R,0.800000X1.500000*%
%ADD16RoundRect,0.237500X0.250000X0.237500X-0.250000X0.237500X-0.250000X-0.237500X0.250000X-0.237500X0*%
%ADD17RoundRect,0.237500X0.237500X-0.287500X0.237500X0.287500X-0.237500X0.287500X-0.237500X-0.287500X0*%
%ADD18RoundRect,0.150000X-0.825000X-0.150000X0.825000X-0.150000X0.825000X0.150000X-0.825000X0.150000X0*%
G04 APERTURE END LIST*
D10*
%TO.C,C1*%
X166144400Y-105855800D03*
X158944400Y-105855800D03*
%TD*%
D11*
%TO.C,C2*%
X155550700Y-90703400D03*
X157275700Y-90703400D03*
%TD*%
D12*
%TO.C,R9*%
X136526900Y-89789000D03*
X138351900Y-89789000D03*
%TD*%
D13*
%TO.C,R1*%
X156591000Y-140942700D03*
X156591000Y-139117700D03*
%TD*%
D12*
%TO.C,R7*%
X136526900Y-86106000D03*
X138351900Y-86106000D03*
%TD*%
D14*
%TO.C,R10*%
X129387600Y-90171900D03*
X129387600Y-91996900D03*
%TD*%
%TO.C,R5*%
X117627400Y-113133500D03*
X117627400Y-114958500D03*
%TD*%
D15*
%TO.C,U5*%
X126314200Y-93852200D03*
X125044200Y-93852200D03*
X125044200Y-100102200D03*
X126314200Y-100102200D03*
%TD*%
D16*
%TO.C,R6*%
X119860700Y-117297200D03*
X118035700Y-117297200D03*
%TD*%
D14*
%TO.C,R11*%
X126314200Y-90171900D03*
X126314200Y-91996900D03*
%TD*%
D17*
%TO.C,D1*%
X156591000Y-137255200D03*
X156591000Y-135505200D03*
%TD*%
D15*
%TO.C,U4*%
X129387600Y-93852200D03*
X128117600Y-93852200D03*
X128117600Y-100102200D03*
X129387600Y-100102200D03*
%TD*%
D16*
%TO.C,R4*%
X128696791Y-111098391D03*
X126871791Y-111098391D03*
%TD*%
D12*
%TO.C,R8*%
X136526900Y-87655400D03*
X138351900Y-87655400D03*
%TD*%
D18*
%TO.C,U3*%
X119783291Y-111834991D03*
X119783291Y-113104991D03*
X119783291Y-114374991D03*
X119783291Y-115644991D03*
X124733291Y-115644991D03*
X124733291Y-114374991D03*
X124733291Y-113104991D03*
X124733291Y-111834991D03*
%TD*%
D12*
%TO.C,R2*%
X126871791Y-116356191D03*
X128696791Y-116356191D03*
%TD*%
D13*
%TO.C,R3*%
X128397000Y-114627091D03*
X128397000Y-112802091D03*
%TD*%
M02*
