%TF.GenerationSoftware,KiCad,Pcbnew,(7.0.0)*%
%TF.CreationDate,2023-03-12T14:29:51-04:00*%
%TF.ProjectId,PicoDMXStepper,5069636f-444d-4585-9374-65707065722e,v1*%
%TF.SameCoordinates,Original*%
%TF.FileFunction,Soldermask,Top*%
%TF.FilePolarity,Negative*%
%FSLAX46Y46*%
G04 Gerber Fmt 4.6, Leading zero omitted, Abs format (unit mm)*
G04 Created by KiCad (PCBNEW (7.0.0)) date 2023-03-12 14:29:51*
%MOMM*%
%LPD*%
G01*
G04 APERTURE LIST*
G04 Aperture macros list*
%AMRoundRect*
0 Rectangle with rounded corners*
0 $1 Rounding radius*
0 $2 $3 $4 $5 $6 $7 $8 $9 X,Y pos of 4 corners*
0 Add a 4 corners polygon primitive as box body*
4,1,4,$2,$3,$4,$5,$6,$7,$8,$9,$2,$3,0*
0 Add four circle primitives for the rounded corners*
1,1,$1+$1,$2,$3*
1,1,$1+$1,$4,$5*
1,1,$1+$1,$6,$7*
1,1,$1+$1,$8,$9*
0 Add four rect primitives between the rounded corners*
20,1,$1+$1,$2,$3,$4,$5,0*
20,1,$1+$1,$4,$5,$6,$7,0*
20,1,$1+$1,$6,$7,$8,$9,0*
20,1,$1+$1,$8,$9,$2,$3,0*%
G04 Aperture macros list end*
%ADD10RoundRect,0.301001X1.999999X0.799999X-1.999999X0.799999X-1.999999X-0.799999X1.999999X-0.799999X0*%
%ADD11C,3.802000*%
%ADD12O,1.702000X1.702000*%
%ADD13RoundRect,0.051000X0.800000X0.800000X-0.800000X0.800000X-0.800000X-0.800000X0.800000X-0.800000X0*%
%ADD14O,1.902000X1.902000*%
%ADD15O,1.602000X1.602000*%
%ADD16O,1.802000X1.802000*%
%ADD17RoundRect,0.051000X1.750000X0.850000X-1.750000X0.850000X-1.750000X-0.850000X1.750000X-0.850000X0*%
%ADD18RoundRect,0.051000X0.850000X0.850000X-0.850000X0.850000X-0.850000X-0.850000X0.850000X-0.850000X0*%
%ADD19RoundRect,0.051000X-0.850000X1.750000X-0.850000X-1.750000X0.850000X-1.750000X0.850000X1.750000X0*%
%ADD20O,1.902000X3.702000*%
%ADD21RoundRect,0.301000X-0.650000X-1.550000X0.650000X-1.550000X0.650000X1.550000X-0.650000X1.550000X0*%
%ADD22RoundRect,0.288500X-0.237500X0.300000X-0.237500X-0.300000X0.237500X-0.300000X0.237500X0.300000X0*%
%ADD23RoundRect,0.051000X1.000000X0.750000X-1.000000X0.750000X-1.000000X-0.750000X1.000000X-0.750000X0*%
%ADD24RoundRect,0.051000X1.000000X1.900000X-1.000000X1.900000X-1.000000X-1.900000X1.000000X-1.900000X0*%
%ADD25RoundRect,0.201000X-0.825000X-0.150000X0.825000X-0.150000X0.825000X0.150000X-0.825000X0.150000X0*%
%ADD26RoundRect,0.288500X0.250000X0.237500X-0.250000X0.237500X-0.250000X-0.237500X0.250000X-0.237500X0*%
%ADD27RoundRect,0.288500X0.237500X-0.250000X0.237500X0.250000X-0.237500X0.250000X-0.237500X-0.250000X0*%
%ADD28RoundRect,0.288500X-0.250000X-0.237500X0.250000X-0.237500X0.250000X0.237500X-0.250000X0.237500X0*%
%ADD29RoundRect,0.288500X-0.237500X0.250000X-0.237500X-0.250000X0.237500X-0.250000X0.237500X0.250000X0*%
%ADD30RoundRect,0.051000X-0.500000X-0.750000X0.500000X-0.750000X0.500000X0.750000X-0.500000X0.750000X0*%
%ADD31RoundRect,0.051000X1.300000X-1.300000X1.300000X1.300000X-1.300000X1.300000X-1.300000X-1.300000X0*%
%ADD32C,2.702000*%
%ADD33C,3.402000*%
%ADD34RoundRect,0.051000X0.750000X-0.750000X0.750000X0.750000X-0.750000X0.750000X-0.750000X-0.750000X0*%
%ADD35C,1.602000*%
%ADD36C,3.102000*%
%ADD37RoundRect,0.051000X1.500000X-1.500000X1.500000X1.500000X-1.500000X1.500000X-1.500000X-1.500000X0*%
%ADD38RoundRect,0.288500X-0.237500X0.287500X-0.237500X-0.287500X0.237500X-0.287500X0.237500X0.287500X0*%
G04 APERTURE END LIST*
D10*
%TO.C,C1*%
X156775000Y-129975000D03*
X163975000Y-129975000D03*
%TD*%
D11*
%TO.C,H4*%
X3975000Y-12925000D03*
%TD*%
%TO.C,H1*%
X3975000Y-3975000D03*
%TD*%
D12*
%TO.C,A1*%
X156389999Y-113489999D03*
X156389999Y-110949999D03*
X156389999Y-108409999D03*
X156389999Y-105869999D03*
X156389999Y-103329999D03*
X156389999Y-100789999D03*
X156389999Y-98249999D03*
X156389999Y-95709999D03*
X169089999Y-95709999D03*
X169089999Y-98249999D03*
X169089999Y-100789999D03*
X169089999Y-103329999D03*
X169089999Y-105869999D03*
X169089999Y-108409999D03*
X169089999Y-110949999D03*
D13*
X169090000Y-113490000D03*
%TD*%
D14*
%TO.C,U2*%
X140624999Y-133174999D03*
D15*
X140324999Y-130144999D03*
X135474999Y-130144999D03*
D14*
X135174999Y-133174999D03*
D16*
X146789999Y-133304999D03*
D17*
X147690000Y-133305000D03*
D16*
X146789999Y-130764999D03*
D17*
X147690000Y-130765000D03*
D18*
X146790000Y-128225000D03*
D17*
X147690000Y-128225000D03*
D16*
X146789999Y-125684999D03*
D17*
X147690000Y-125685000D03*
D16*
X146789999Y-123144999D03*
D17*
X147690000Y-123145000D03*
D16*
X146789999Y-120604999D03*
D17*
X147690000Y-120605000D03*
D16*
X146789999Y-118064999D03*
D17*
X147690000Y-118065000D03*
D18*
X146790000Y-115525000D03*
D17*
X147690000Y-115525000D03*
D16*
X146789999Y-112984999D03*
D17*
X147690000Y-112985000D03*
D16*
X146789999Y-110444999D03*
D17*
X147690000Y-110445000D03*
D16*
X146789999Y-107904999D03*
D17*
X147690000Y-107905000D03*
D16*
X146789999Y-105364999D03*
D17*
X147690000Y-105365000D03*
D18*
X146790000Y-102825000D03*
D17*
X147690000Y-102825000D03*
D16*
X146789999Y-100284999D03*
D17*
X147690000Y-100285000D03*
D16*
X146789999Y-97744999D03*
D17*
X147690000Y-97745000D03*
D16*
X146789999Y-95204999D03*
D17*
X147690000Y-95205000D03*
D16*
X146789999Y-92664999D03*
D17*
X147690000Y-92665000D03*
D18*
X146790000Y-90125000D03*
D17*
X147690000Y-90125000D03*
D16*
X146789999Y-87584999D03*
D17*
X147690000Y-87585000D03*
D16*
X146789999Y-85044999D03*
D17*
X147690000Y-85045000D03*
D16*
X129009999Y-85044999D03*
D17*
X128110000Y-85045000D03*
D16*
X129009999Y-87584999D03*
D17*
X128110000Y-87585000D03*
D18*
X129010000Y-90125000D03*
D17*
X128110000Y-90125000D03*
D16*
X129009999Y-92664999D03*
D17*
X128110000Y-92665000D03*
D16*
X129009999Y-95204999D03*
D17*
X128110000Y-95205000D03*
D16*
X129009999Y-97744999D03*
D17*
X128110000Y-97745000D03*
D16*
X129009999Y-100284999D03*
D17*
X128110000Y-100285000D03*
D18*
X129010000Y-102825000D03*
D17*
X128110000Y-102825000D03*
D16*
X129009999Y-105364999D03*
D17*
X128110000Y-105365000D03*
D16*
X129009999Y-107904999D03*
D17*
X128110000Y-107905000D03*
D16*
X129009999Y-110444999D03*
D17*
X128110000Y-110445000D03*
D16*
X129009999Y-112984999D03*
D17*
X128110000Y-112985000D03*
D18*
X129010000Y-115525000D03*
D17*
X128110000Y-115525000D03*
D16*
X129009999Y-118064999D03*
D17*
X128110000Y-118065000D03*
D16*
X129009999Y-120604999D03*
D17*
X128110000Y-120605000D03*
D16*
X129009999Y-123144999D03*
D17*
X128110000Y-123145000D03*
D16*
X129009999Y-125684999D03*
D17*
X128110000Y-125685000D03*
D18*
X129010000Y-128225000D03*
D17*
X128110000Y-128225000D03*
D16*
X129009999Y-130764999D03*
D17*
X128110000Y-130765000D03*
D16*
X129009999Y-133304999D03*
D17*
X128110000Y-133305000D03*
D16*
X140439999Y-85274999D03*
D19*
X140440000Y-84375000D03*
D18*
X137900000Y-85275000D03*
D19*
X137900000Y-84375000D03*
D16*
X135359999Y-85274999D03*
D19*
X135360000Y-84375000D03*
%TD*%
D20*
%TO.C,J4*%
X139529999Y-78824999D03*
X135719999Y-78824999D03*
X131909999Y-78824999D03*
D21*
X128100000Y-78825000D03*
%TD*%
D12*
%TO.C,SW2*%
X151804999Y-91299999D03*
X151804999Y-88759999D03*
X151804999Y-86219999D03*
X151804999Y-83679999D03*
X159424999Y-83679999D03*
X159424999Y-86219999D03*
X159424999Y-88759999D03*
D13*
X159425000Y-91300000D03*
%TD*%
D22*
%TO.C,C2*%
X153425000Y-120062500D03*
X153425000Y-121787500D03*
%TD*%
D23*
%TO.C,U1*%
X162350000Y-122350000D03*
D24*
X156050000Y-120050000D03*
D23*
X162350000Y-120050000D03*
X162350000Y-117750000D03*
%TD*%
D25*
%TO.C,U3*%
X149775000Y-75770000D03*
X149775000Y-77040000D03*
X149775000Y-78310000D03*
X149775000Y-79580000D03*
X154725000Y-79580000D03*
X154725000Y-78310000D03*
X154725000Y-77040000D03*
X154725000Y-75770000D03*
%TD*%
D26*
%TO.C,R6*%
X147612500Y-79525000D03*
X145787500Y-79525000D03*
%TD*%
%TO.C,R5*%
X147612500Y-77075000D03*
X145787500Y-77075000D03*
%TD*%
%TO.C,R4*%
X159937500Y-74750000D03*
X158112500Y-74750000D03*
%TD*%
D27*
%TO.C,R3*%
X159900000Y-78187500D03*
X159900000Y-76362500D03*
%TD*%
D28*
%TO.C,R2*%
X158062500Y-79925000D03*
X159887500Y-79925000D03*
%TD*%
D29*
%TO.C,R1*%
X151325000Y-112087500D03*
X151325000Y-113912500D03*
%TD*%
D30*
%TO.C,JP4*%
X154975000Y-83625000D03*
X156275000Y-83625000D03*
%TD*%
%TO.C,JP3*%
X154975000Y-86175000D03*
X156275000Y-86175000D03*
%TD*%
%TO.C,JP2*%
X154975000Y-88750000D03*
X156275000Y-88750000D03*
%TD*%
%TO.C,JP1*%
X156275000Y-91300000D03*
X154975000Y-91300000D03*
%TD*%
D31*
%TO.C,J3*%
X177250000Y-111900000D03*
D32*
X177250000Y-106900000D03*
X177250000Y-101900000D03*
X177250000Y-96900000D03*
%TD*%
D33*
%TO.C,J2*%
X174050000Y-78222500D03*
X174050000Y-89652500D03*
D34*
X167700000Y-88382500D03*
D35*
X165160000Y-87112500D03*
X167700000Y-85842500D03*
X165160000Y-84572500D03*
X167700000Y-83302500D03*
X165160000Y-82032500D03*
X167700000Y-80762500D03*
X165160000Y-79492500D03*
%TD*%
D36*
%TO.C,J1*%
X171463800Y-121698040D03*
D37*
X171463800Y-129947960D03*
%TD*%
D38*
%TO.C,D1*%
X151325000Y-115775000D03*
X151325000Y-117525000D03*
%TD*%
D11*
%TO.C,H3*%
X128175000Y-69525000D03*
%TD*%
%TO.C,H2*%
X177925000Y-69550000D03*
%TD*%
G36*
X169944931Y-128398205D02*
G01*
X169945899Y-128399872D01*
X169945011Y-128401582D01*
X169928472Y-128412632D01*
X169917643Y-128428840D01*
X169914800Y-128443135D01*
X169914801Y-131452982D01*
X169914801Y-131452983D01*
X169913981Y-131454598D01*
X169912193Y-131454888D01*
X169910904Y-131453615D01*
X169910903Y-131453612D01*
X169910800Y-131452980D01*
X169910800Y-128442937D01*
X169910838Y-128442547D01*
X169913797Y-128427670D01*
X169914096Y-128426949D01*
X169925368Y-128410080D01*
X169925920Y-128409528D01*
X169942787Y-128398257D01*
X169943004Y-128398131D01*
X169943006Y-128398130D01*
X169944931Y-128398205D01*
G37*
G36*
X166000368Y-131074905D02*
G01*
X166000525Y-131076803D01*
X165999023Y-131077972D01*
X165999017Y-131077973D01*
X165998688Y-131078000D01*
X161951312Y-131078000D01*
X161949898Y-131077414D01*
X161949897Y-131077413D01*
X161949311Y-131075999D01*
X161949897Y-131074585D01*
X161951311Y-131073999D01*
X165998694Y-131073999D01*
X166000368Y-131074905D01*
G37*
G36*
X158800368Y-131074905D02*
G01*
X158800525Y-131076803D01*
X158799023Y-131077972D01*
X158799017Y-131077973D01*
X158798688Y-131078000D01*
X154751312Y-131078000D01*
X154749898Y-131077414D01*
X154749897Y-131077413D01*
X154749311Y-131075999D01*
X154749897Y-131074585D01*
X154751311Y-131073999D01*
X158798694Y-131073999D01*
X158800368Y-131074905D01*
G37*
G36*
X172970554Y-128395960D02*
G01*
X172970554Y-128397960D01*
X172968822Y-128398960D01*
X169958976Y-128398960D01*
X169949272Y-128400890D01*
X169947378Y-128400247D01*
X169946988Y-128398285D01*
X169948492Y-128396966D01*
X169958389Y-128394998D01*
X169958779Y-128394960D01*
X172968822Y-128394960D01*
X172970554Y-128395960D01*
G37*
G36*
X155031131Y-118100245D02*
G01*
X155032099Y-118101912D01*
X155031211Y-118103622D01*
X155014672Y-118114672D01*
X155003843Y-118130880D01*
X155001000Y-118145175D01*
X155001001Y-121955022D01*
X155001001Y-121955023D01*
X155000181Y-121956638D01*
X154998393Y-121956928D01*
X154997104Y-121955655D01*
X154997103Y-121955652D01*
X154997000Y-121955020D01*
X154997000Y-118144977D01*
X154997038Y-118144587D01*
X154999997Y-118129710D01*
X155000296Y-118128989D01*
X155011568Y-118112120D01*
X155012120Y-118111568D01*
X155028987Y-118100297D01*
X155029204Y-118100171D01*
X155029206Y-118100170D01*
X155031131Y-118100245D01*
G37*
G36*
X175931131Y-110550245D02*
G01*
X175932099Y-110551912D01*
X175931211Y-110553622D01*
X175914672Y-110564672D01*
X175903843Y-110580880D01*
X175901000Y-110595175D01*
X175901001Y-113205022D01*
X175901001Y-113205023D01*
X175900181Y-113206638D01*
X175898393Y-113206928D01*
X175897104Y-113205655D01*
X175897103Y-113205652D01*
X175897000Y-113205020D01*
X175897000Y-110594977D01*
X175897038Y-110594587D01*
X175899997Y-110579710D01*
X175900296Y-110578989D01*
X175911568Y-110562120D01*
X175912120Y-110561568D01*
X175928987Y-110550297D01*
X175929204Y-110550171D01*
X175929206Y-110550170D01*
X175931131Y-110550245D01*
G37*
G36*
X178556754Y-110548000D02*
G01*
X178556754Y-110550000D01*
X178555022Y-110551000D01*
X175945176Y-110551000D01*
X175935472Y-110552930D01*
X175933578Y-110552287D01*
X175933188Y-110550325D01*
X175934692Y-110549006D01*
X175944589Y-110547038D01*
X175944979Y-110547000D01*
X178555022Y-110547000D01*
X178556754Y-110548000D01*
G37*
G36*
X177139727Y-105547906D02*
G01*
X177139885Y-105549803D01*
X177138382Y-105550973D01*
X176917705Y-105587797D01*
X176706255Y-105660388D01*
X176509635Y-105766793D01*
X176333218Y-105904105D01*
X176181799Y-106068588D01*
X176059525Y-106255743D01*
X175969720Y-106460480D01*
X175914838Y-106677203D01*
X175896376Y-106900000D01*
X175914838Y-107122796D01*
X175969720Y-107339519D01*
X176059525Y-107544256D01*
X176181799Y-107731411D01*
X176333218Y-107895894D01*
X176509635Y-108033206D01*
X176706255Y-108139611D01*
X176917705Y-108212202D01*
X177138382Y-108249027D01*
X177139885Y-108250197D01*
X177139727Y-108252094D01*
X177138053Y-108253000D01*
X177138051Y-108253000D01*
X177137722Y-108252973D01*
X176916883Y-108216121D01*
X176916563Y-108216040D01*
X176704800Y-108143342D01*
X176704497Y-108143209D01*
X176507590Y-108036648D01*
X176507314Y-108036467D01*
X176330630Y-107898949D01*
X176330387Y-107898726D01*
X176178744Y-107733998D01*
X176178541Y-107733737D01*
X176056084Y-107546303D01*
X176055926Y-107546012D01*
X175965989Y-107340974D01*
X175965882Y-107340662D01*
X175910919Y-107123620D01*
X175910865Y-107123294D01*
X175892376Y-106900165D01*
X175892376Y-106899835D01*
X175910865Y-106676705D01*
X175910919Y-106676379D01*
X175965882Y-106459337D01*
X175965989Y-106459025D01*
X176055926Y-106253987D01*
X176056084Y-106253696D01*
X176178541Y-106066262D01*
X176178744Y-106066001D01*
X176330387Y-105901273D01*
X176330630Y-105901050D01*
X176507314Y-105763532D01*
X176507590Y-105763351D01*
X176704497Y-105656790D01*
X176704800Y-105656657D01*
X176916563Y-105583959D01*
X176916883Y-105583878D01*
X177137722Y-105547027D01*
X177138051Y-105547000D01*
X177138053Y-105547000D01*
X177139727Y-105547906D01*
G37*
G36*
X177139727Y-100547906D02*
G01*
X177139885Y-100549803D01*
X177138382Y-100550973D01*
X176917705Y-100587797D01*
X176706255Y-100660388D01*
X176509635Y-100766793D01*
X176333218Y-100904105D01*
X176181799Y-101068588D01*
X176059525Y-101255743D01*
X175969720Y-101460480D01*
X175914838Y-101677203D01*
X175896376Y-101899999D01*
X175914838Y-102122796D01*
X175969720Y-102339519D01*
X176059525Y-102544256D01*
X176181799Y-102731411D01*
X176333218Y-102895894D01*
X176509635Y-103033206D01*
X176706255Y-103139611D01*
X176917705Y-103212202D01*
X177138382Y-103249027D01*
X177139885Y-103250197D01*
X177139727Y-103252094D01*
X177138053Y-103253000D01*
X177138051Y-103253000D01*
X177137722Y-103252973D01*
X176916883Y-103216121D01*
X176916563Y-103216040D01*
X176704800Y-103143342D01*
X176704497Y-103143209D01*
X176507590Y-103036648D01*
X176507314Y-103036467D01*
X176330630Y-102898949D01*
X176330387Y-102898726D01*
X176178744Y-102733998D01*
X176178541Y-102733737D01*
X176056084Y-102546303D01*
X176055926Y-102546012D01*
X175965989Y-102340974D01*
X175965882Y-102340662D01*
X175910919Y-102123620D01*
X175910865Y-102123294D01*
X175892376Y-101900164D01*
X175892376Y-101899834D01*
X175910865Y-101676705D01*
X175910919Y-101676379D01*
X175965882Y-101459337D01*
X175965989Y-101459025D01*
X176055926Y-101253987D01*
X176056084Y-101253696D01*
X176178541Y-101066262D01*
X176178744Y-101066001D01*
X176330387Y-100901273D01*
X176330630Y-100901050D01*
X176507314Y-100763532D01*
X176507590Y-100763351D01*
X176704497Y-100656790D01*
X176704800Y-100656657D01*
X176916563Y-100583959D01*
X176916883Y-100583878D01*
X177137722Y-100547027D01*
X177138051Y-100547000D01*
X177138053Y-100547000D01*
X177139727Y-100547906D01*
G37*
G36*
X177139727Y-95547906D02*
G01*
X177139885Y-95549803D01*
X177138382Y-95550973D01*
X176917705Y-95587797D01*
X176706255Y-95660388D01*
X176509635Y-95766793D01*
X176333218Y-95904105D01*
X176181799Y-96068588D01*
X176059525Y-96255743D01*
X175969720Y-96460480D01*
X175914838Y-96677203D01*
X175896376Y-96900000D01*
X175914838Y-97122796D01*
X175969720Y-97339519D01*
X176059525Y-97544256D01*
X176181799Y-97731411D01*
X176333218Y-97895894D01*
X176509635Y-98033206D01*
X176706255Y-98139611D01*
X176917705Y-98212202D01*
X177138382Y-98249027D01*
X177139885Y-98250197D01*
X177139727Y-98252094D01*
X177138053Y-98253000D01*
X177138051Y-98253000D01*
X177137722Y-98252973D01*
X176916883Y-98216121D01*
X176916563Y-98216040D01*
X176704800Y-98143342D01*
X176704497Y-98143209D01*
X176507590Y-98036648D01*
X176507314Y-98036467D01*
X176330630Y-97898949D01*
X176330387Y-97898726D01*
X176178744Y-97733998D01*
X176178541Y-97733737D01*
X176056084Y-97546303D01*
X176055926Y-97546012D01*
X175965989Y-97340974D01*
X175965882Y-97340662D01*
X175910919Y-97123620D01*
X175910865Y-97123294D01*
X175892376Y-96900164D01*
X175892376Y-96899834D01*
X175910865Y-96676705D01*
X175910919Y-96676379D01*
X175965882Y-96459337D01*
X175965989Y-96459025D01*
X176055926Y-96253987D01*
X176056084Y-96253696D01*
X176178541Y-96066262D01*
X176178744Y-96066001D01*
X176330387Y-95901273D01*
X176330630Y-95901050D01*
X176507314Y-95763532D01*
X176507590Y-95763351D01*
X176704497Y-95656790D01*
X176704800Y-95656657D01*
X176916563Y-95583959D01*
X176916883Y-95583878D01*
X177137722Y-95547027D01*
X177138051Y-95547000D01*
X177138053Y-95547000D01*
X177139727Y-95547906D01*
G37*
G36*
X155496010Y-90500296D02*
G01*
X155512881Y-90511568D01*
X155513433Y-90512120D01*
X155522593Y-90525830D01*
X155567047Y-90566121D01*
X155625000Y-90580638D01*
X155682952Y-90566121D01*
X155727406Y-90525830D01*
X155736566Y-90512120D01*
X155737118Y-90511568D01*
X155753987Y-90500297D01*
X155754204Y-90500171D01*
X155754206Y-90500170D01*
X155756131Y-90500245D01*
X155757099Y-90501912D01*
X155756211Y-90503622D01*
X155739672Y-90514672D01*
X155728843Y-90530880D01*
X155726000Y-90545175D01*
X155726000Y-92054823D01*
X155728843Y-92069119D01*
X155730595Y-92071741D01*
X155730792Y-92073587D01*
X155729386Y-92074800D01*
X155727589Y-92074334D01*
X155682952Y-92033877D01*
X155625000Y-92019360D01*
X155567047Y-92033877D01*
X155522410Y-92074334D01*
X155520613Y-92074800D01*
X155519207Y-92073587D01*
X155519404Y-92071741D01*
X155521156Y-92069119D01*
X155523999Y-92054824D01*
X155523999Y-90545176D01*
X155521156Y-90530880D01*
X155510327Y-90514672D01*
X155493788Y-90503622D01*
X155492903Y-90501828D01*
X155494014Y-90500165D01*
X155496010Y-90500296D01*
G37*
G36*
X155496010Y-87950296D02*
G01*
X155512881Y-87961568D01*
X155513433Y-87962120D01*
X155522593Y-87975830D01*
X155567047Y-88016121D01*
X155625000Y-88030638D01*
X155682952Y-88016121D01*
X155727406Y-87975830D01*
X155736566Y-87962120D01*
X155737118Y-87961568D01*
X155753987Y-87950297D01*
X155754204Y-87950171D01*
X155754206Y-87950170D01*
X155756131Y-87950245D01*
X155757099Y-87951912D01*
X155756211Y-87953622D01*
X155739672Y-87964672D01*
X155728843Y-87980880D01*
X155726000Y-87995175D01*
X155726000Y-89504823D01*
X155728843Y-89519119D01*
X155730595Y-89521741D01*
X155730792Y-89523587D01*
X155729386Y-89524800D01*
X155727589Y-89524334D01*
X155682952Y-89483877D01*
X155625000Y-89469360D01*
X155567047Y-89483877D01*
X155522410Y-89524334D01*
X155520613Y-89524800D01*
X155519207Y-89523587D01*
X155519404Y-89521741D01*
X155521156Y-89519119D01*
X155523999Y-89504824D01*
X155523999Y-87995176D01*
X155521156Y-87980880D01*
X155510327Y-87964672D01*
X155493788Y-87953622D01*
X155492903Y-87951828D01*
X155494014Y-87950165D01*
X155496010Y-87950296D01*
G37*
G36*
X155496010Y-85375296D02*
G01*
X155512881Y-85386568D01*
X155513433Y-85387120D01*
X155522593Y-85400830D01*
X155567047Y-85441121D01*
X155625000Y-85455638D01*
X155682952Y-85441121D01*
X155727406Y-85400830D01*
X155736566Y-85387120D01*
X155737118Y-85386568D01*
X155753987Y-85375297D01*
X155754204Y-85375171D01*
X155754206Y-85375170D01*
X155756131Y-85375245D01*
X155757099Y-85376912D01*
X155756211Y-85378622D01*
X155739672Y-85389672D01*
X155728843Y-85405880D01*
X155726000Y-85420175D01*
X155726000Y-86929823D01*
X155728843Y-86944119D01*
X155730595Y-86946741D01*
X155730792Y-86948587D01*
X155729386Y-86949800D01*
X155727589Y-86949334D01*
X155682952Y-86908877D01*
X155625000Y-86894360D01*
X155567047Y-86908877D01*
X155522410Y-86949334D01*
X155520613Y-86949800D01*
X155519207Y-86948587D01*
X155519404Y-86946741D01*
X155521156Y-86944119D01*
X155523999Y-86929824D01*
X155523999Y-85420176D01*
X155521156Y-85405880D01*
X155510327Y-85389672D01*
X155493788Y-85378622D01*
X155492903Y-85376828D01*
X155494014Y-85375165D01*
X155496010Y-85375296D01*
G37*
G36*
X155496010Y-82825296D02*
G01*
X155512881Y-82836568D01*
X155513433Y-82837120D01*
X155522593Y-82850830D01*
X155567047Y-82891121D01*
X155625000Y-82905638D01*
X155682952Y-82891121D01*
X155727406Y-82850830D01*
X155736566Y-82837120D01*
X155737118Y-82836568D01*
X155753987Y-82825297D01*
X155754204Y-82825171D01*
X155754206Y-82825170D01*
X155756131Y-82825245D01*
X155757099Y-82826912D01*
X155756211Y-82828622D01*
X155739672Y-82839672D01*
X155728843Y-82855880D01*
X155726000Y-82870175D01*
X155726000Y-84379823D01*
X155728843Y-84394119D01*
X155730595Y-84396741D01*
X155730792Y-84398587D01*
X155729386Y-84399800D01*
X155727589Y-84399334D01*
X155682952Y-84358877D01*
X155625000Y-84344360D01*
X155567047Y-84358877D01*
X155522410Y-84399334D01*
X155520613Y-84399800D01*
X155519207Y-84398587D01*
X155519404Y-84396741D01*
X155521156Y-84394119D01*
X155523999Y-84379824D01*
X155523999Y-82870176D01*
X155521156Y-82855880D01*
X155510327Y-82839672D01*
X155493788Y-82828622D01*
X155492903Y-82826828D01*
X155494014Y-82825165D01*
X155496010Y-82825296D01*
G37*
M02*
