M48
; DRILL file {KiCad (7.0.0)} date Tue Mar 21 01:24:05 2023
; FORMAT={-:-/ absolute / inch / decimal}
; #@! TF.CreationDate,2023-03-21T01:24:05-04:00
; #@! TF.GenerationSoftware,Kicad,Pcbnew,(7.0.0)
; #@! TF.FileFunction,Plated,1,2,PTH
FMAT,2
INCH
; #@! TA.AperFunction,Plated,PTH,ViaDrill
T1C0.0157
; #@! TA.AperFunction,Plated,PTH,ComponentDrill
T2C0.0299
; #@! TA.AperFunction,Plated,PTH,ComponentDrill
T3C0.0315
; #@! TA.AperFunction,Plated,PTH,ComponentDrill
T4C0.0374
; #@! TA.AperFunction,Plated,PTH,ComponentDrill
T5C0.0394
; #@! TA.AperFunction,Plated,PTH,ComponentDrill
T6C0.0402
; #@! TA.AperFunction,Plated,PTH,ComponentDrill
T7C0.0472
; #@! TA.AperFunction,Plated,PTH,ComponentDrill
T8C0.0512
; #@! TA.AperFunction,Plated,PTH,ComponentDrill
T9C0.0591
%
G90
G05
T1
X4.589Y-4.623
X4.8754Y-4.5962
X4.887Y-4.128
X4.9089Y-4.331
X5.013Y-4.132
X6.1327Y-4.1735
X6.1327Y-4.2266
X6.1336Y-4.1203
X6.1632Y-4.0583
X6.1632Y-4.2719
X6.165Y-5.6114
X6.2212Y-4.0593
X6.2242Y-4.2709
X6.246Y-3.615
X6.2734Y-4.2699
X6.2744Y-4.0583
X6.3266Y-4.0573
X6.3266Y-4.2709
X6.3787Y-4.2739
X6.3797Y-4.1676
X6.3817Y-4.0553
X6.3817Y-4.2177
X6.3846Y-4.1164
T2
X4.8958Y-4.8144
X4.8958Y-4.9144
X4.8958Y-5.0144
X4.8958Y-5.1144
X4.9958Y-4.8644
X4.9958Y-4.9644
X4.9958Y-5.0644
X4.9958Y-5.1644
T3
X6.152Y-4.423
X6.152Y-4.523
X6.152Y-4.623
X6.152Y-4.723
X6.152Y-4.823
X6.152Y-4.923
X6.152Y-5.023
X6.152Y-5.123
X6.303Y-5.245
X6.303Y-5.545
X6.403Y-5.245
X6.403Y-5.545
X6.503Y-5.245
X6.503Y-5.545
X6.603Y-5.245
X6.603Y-5.545
X6.652Y-4.423
X6.652Y-4.523
X6.652Y-4.623
X6.652Y-4.723
X6.652Y-4.823
X6.652Y-4.923
X6.652Y-5.023
X6.652Y-5.123
T4
X6.8443Y-4.6254
X6.8443Y-4.7238
X6.8443Y-4.8222
X6.8443Y-4.9206
T5
X5.584Y-3.287
X5.584Y-3.387
X5.584Y-3.487
X5.7671Y-3.287
X5.7671Y-3.387
X5.7671Y-3.487
X5.9513Y-3.287
X5.9513Y-3.387
X5.9513Y-3.487
T6
X5.249Y-3.696
X5.249Y-3.796
X5.249Y-3.896
X5.249Y-3.996
X5.249Y-4.096
X5.249Y-4.196
X5.249Y-4.296
X5.249Y-4.396
X5.249Y-4.496
X5.249Y-4.596
X5.249Y-4.696
X5.249Y-4.796
X5.249Y-4.896
X5.249Y-4.996
X5.249Y-5.096
X5.249Y-5.196
X5.249Y-5.296
X5.249Y-5.396
X5.249Y-5.496
X5.249Y-5.596
X5.499Y-3.7051
X5.599Y-3.7051
X5.699Y-3.7051
X5.949Y-3.696
X5.949Y-3.796
X5.949Y-3.896
X5.949Y-3.996
X5.949Y-4.096
X5.949Y-4.196
X5.949Y-4.296
X5.949Y-4.396
X5.949Y-4.496
X5.949Y-4.596
X5.949Y-4.696
X5.949Y-4.796
X5.949Y-4.896
X5.949Y-4.996
X5.949Y-5.096
X5.949Y-5.196
X5.949Y-5.296
X5.949Y-5.396
X5.949Y-5.496
X5.949Y-5.596
T7
X4.6509Y-3.6951
X4.6509Y-3.8451
X4.6509Y-3.9951
X4.6509Y-4.1451
T8
X6.9733Y-4.4699
X6.9733Y-4.6667
X6.9733Y-4.8636
X6.9733Y-5.0604
T9
X6.739Y-3.7476
X6.739Y-4.0724
T0
M30
