%TF.GenerationSoftware,KiCad,Pcbnew,(7.0.0)*%
%TF.CreationDate,2023-03-12T14:29:51-04:00*%
%TF.ProjectId,PicoDMXStepper,5069636f-444d-4585-9374-65707065722e,v1*%
%TF.SameCoordinates,Original*%
%TF.FileFunction,Soldermask,Bot*%
%TF.FilePolarity,Negative*%
%FSLAX46Y46*%
G04 Gerber Fmt 4.6, Leading zero omitted, Abs format (unit mm)*
G04 Created by KiCad (PCBNEW (7.0.0)) date 2023-03-12 14:29:51*
%MOMM*%
%LPD*%
G01*
G04 APERTURE LIST*
G04 Aperture macros list*
%AMRoundRect*
0 Rectangle with rounded corners*
0 $1 Rounding radius*
0 $2 $3 $4 $5 $6 $7 $8 $9 X,Y pos of 4 corners*
0 Add a 4 corners polygon primitive as box body*
4,1,4,$2,$3,$4,$5,$6,$7,$8,$9,$2,$3,0*
0 Add four circle primitives for the rounded corners*
1,1,$1+$1,$2,$3*
1,1,$1+$1,$4,$5*
1,1,$1+$1,$6,$7*
1,1,$1+$1,$8,$9*
0 Add four rect primitives between the rounded corners*
20,1,$1+$1,$2,$3,$4,$5,0*
20,1,$1+$1,$4,$5,$6,$7,0*
20,1,$1+$1,$6,$7,$8,$9,0*
20,1,$1+$1,$8,$9,$2,$3,0*%
G04 Aperture macros list end*
%ADD10C,3.802000*%
%ADD11O,1.702000X1.702000*%
%ADD12RoundRect,0.051000X0.800000X0.800000X-0.800000X0.800000X-0.800000X-0.800000X0.800000X-0.800000X0*%
%ADD13O,1.902000X1.902000*%
%ADD14O,1.602000X1.602000*%
%ADD15O,1.802000X1.802000*%
%ADD16RoundRect,0.051000X0.850000X0.850000X-0.850000X0.850000X-0.850000X-0.850000X0.850000X-0.850000X0*%
%ADD17O,1.902000X3.702000*%
%ADD18RoundRect,0.301000X-0.650000X-1.550000X0.650000X-1.550000X0.650000X1.550000X-0.650000X1.550000X0*%
%ADD19RoundRect,0.051000X1.300000X-1.300000X1.300000X1.300000X-1.300000X1.300000X-1.300000X-1.300000X0*%
%ADD20C,2.702000*%
%ADD21C,3.402000*%
%ADD22RoundRect,0.051000X0.750000X-0.750000X0.750000X0.750000X-0.750000X0.750000X-0.750000X-0.750000X0*%
%ADD23C,1.602000*%
%ADD24C,3.102000*%
%ADD25RoundRect,0.051000X1.500000X-1.500000X1.500000X1.500000X-1.500000X1.500000X-1.500000X-1.500000X0*%
G04 APERTURE END LIST*
D10*
%TO.C,H4*%
X3975000Y-12925000D03*
%TD*%
%TO.C,H1*%
X3975000Y-3975000D03*
%TD*%
D11*
%TO.C,A1*%
X156389999Y-113489999D03*
X156389999Y-110949999D03*
X156389999Y-108409999D03*
X156389999Y-105869999D03*
X156389999Y-103329999D03*
X156389999Y-100789999D03*
X156389999Y-98249999D03*
X156389999Y-95709999D03*
X169089999Y-95709999D03*
X169089999Y-98249999D03*
X169089999Y-100789999D03*
X169089999Y-103329999D03*
X169089999Y-105869999D03*
X169089999Y-108409999D03*
X169089999Y-110949999D03*
D12*
X169090000Y-113490000D03*
%TD*%
D13*
%TO.C,U2*%
X140624999Y-133174999D03*
D14*
X140324999Y-130144999D03*
X135474999Y-130144999D03*
D13*
X135174999Y-133174999D03*
D15*
X146789999Y-133304999D03*
X146789999Y-130764999D03*
D16*
X146790000Y-128225000D03*
D15*
X146789999Y-125684999D03*
X146789999Y-123144999D03*
X146789999Y-120604999D03*
X146789999Y-118064999D03*
D16*
X146790000Y-115525000D03*
D15*
X146789999Y-112984999D03*
X146789999Y-110444999D03*
X146789999Y-107904999D03*
X146789999Y-105364999D03*
D16*
X146790000Y-102825000D03*
D15*
X146789999Y-100284999D03*
X146789999Y-97744999D03*
X146789999Y-95204999D03*
X146789999Y-92664999D03*
D16*
X146790000Y-90125000D03*
D15*
X146789999Y-87584999D03*
X146789999Y-85044999D03*
X129009999Y-85044999D03*
X129009999Y-87584999D03*
D16*
X129010000Y-90125000D03*
D15*
X129009999Y-92664999D03*
X129009999Y-95204999D03*
X129009999Y-97744999D03*
X129009999Y-100284999D03*
D16*
X129010000Y-102825000D03*
D15*
X129009999Y-105364999D03*
X129009999Y-107904999D03*
X129009999Y-110444999D03*
X129009999Y-112984999D03*
D16*
X129010000Y-115525000D03*
D15*
X129009999Y-118064999D03*
X129009999Y-120604999D03*
X129009999Y-123144999D03*
X129009999Y-125684999D03*
D16*
X129010000Y-128225000D03*
D15*
X129009999Y-130764999D03*
X129009999Y-133304999D03*
X140439999Y-85274999D03*
D16*
X137900000Y-85275000D03*
D15*
X135359999Y-85274999D03*
%TD*%
D17*
%TO.C,J4*%
X139529999Y-78824999D03*
X135719999Y-78824999D03*
X131909999Y-78824999D03*
D18*
X128100000Y-78825000D03*
%TD*%
D11*
%TO.C,SW2*%
X151804999Y-91299999D03*
X151804999Y-88759999D03*
X151804999Y-86219999D03*
X151804999Y-83679999D03*
X159424999Y-83679999D03*
X159424999Y-86219999D03*
X159424999Y-88759999D03*
D12*
X159425000Y-91300000D03*
%TD*%
D19*
%TO.C,J3*%
X177250000Y-111900000D03*
D20*
X177250000Y-106900000D03*
X177250000Y-101900000D03*
X177250000Y-96900000D03*
%TD*%
D21*
%TO.C,J2*%
X174050000Y-78222500D03*
X174050000Y-89652500D03*
D22*
X167700000Y-88382500D03*
D23*
X165160000Y-87112500D03*
X167700000Y-85842500D03*
X165160000Y-84572500D03*
X167700000Y-83302500D03*
X165160000Y-82032500D03*
X167700000Y-80762500D03*
X165160000Y-79492500D03*
%TD*%
D24*
%TO.C,J1*%
X171463800Y-121698040D03*
D25*
X171463800Y-129947960D03*
%TD*%
D10*
%TO.C,H3*%
X128175000Y-69525000D03*
%TD*%
%TO.C,H2*%
X177925000Y-69550000D03*
%TD*%
G36*
X169944931Y-128398205D02*
G01*
X169945899Y-128399872D01*
X169945011Y-128401582D01*
X169928472Y-128412632D01*
X169917643Y-128428840D01*
X169914800Y-128443135D01*
X169914801Y-131452982D01*
X169914801Y-131452983D01*
X169913981Y-131454598D01*
X169912193Y-131454888D01*
X169910904Y-131453615D01*
X169910903Y-131453612D01*
X169910800Y-131452980D01*
X169910800Y-128442937D01*
X169910838Y-128442547D01*
X169913797Y-128427670D01*
X169914096Y-128426949D01*
X169925368Y-128410080D01*
X169925920Y-128409528D01*
X169942787Y-128398257D01*
X169943004Y-128398131D01*
X169943006Y-128398130D01*
X169944931Y-128398205D01*
G37*
G36*
X172970554Y-128395960D02*
G01*
X172970554Y-128397960D01*
X172968822Y-128398960D01*
X169958976Y-128398960D01*
X169949272Y-128400890D01*
X169947378Y-128400247D01*
X169946988Y-128398285D01*
X169948492Y-128396966D01*
X169958389Y-128394998D01*
X169958779Y-128394960D01*
X172968822Y-128394960D01*
X172970554Y-128395960D01*
G37*
G36*
X175931131Y-110550245D02*
G01*
X175932099Y-110551912D01*
X175931211Y-110553622D01*
X175914672Y-110564672D01*
X175903843Y-110580880D01*
X175901000Y-110595175D01*
X175901001Y-113205022D01*
X175901001Y-113205023D01*
X175900181Y-113206638D01*
X175898393Y-113206928D01*
X175897104Y-113205655D01*
X175897103Y-113205652D01*
X175897000Y-113205020D01*
X175897000Y-110594977D01*
X175897038Y-110594587D01*
X175899997Y-110579710D01*
X175900296Y-110578989D01*
X175911568Y-110562120D01*
X175912120Y-110561568D01*
X175928987Y-110550297D01*
X175929204Y-110550171D01*
X175929206Y-110550170D01*
X175931131Y-110550245D01*
G37*
G36*
X178556754Y-110548000D02*
G01*
X178556754Y-110550000D01*
X178555022Y-110551000D01*
X175945176Y-110551000D01*
X175935472Y-110552930D01*
X175933578Y-110552287D01*
X175933188Y-110550325D01*
X175934692Y-110549006D01*
X175944589Y-110547038D01*
X175944979Y-110547000D01*
X178555022Y-110547000D01*
X178556754Y-110548000D01*
G37*
G36*
X177139727Y-105547906D02*
G01*
X177139885Y-105549803D01*
X177138382Y-105550973D01*
X176917705Y-105587797D01*
X176706255Y-105660388D01*
X176509635Y-105766793D01*
X176333218Y-105904105D01*
X176181799Y-106068588D01*
X176059525Y-106255743D01*
X175969720Y-106460480D01*
X175914838Y-106677203D01*
X175896376Y-106900000D01*
X175914838Y-107122796D01*
X175969720Y-107339519D01*
X176059525Y-107544256D01*
X176181799Y-107731411D01*
X176333218Y-107895894D01*
X176509635Y-108033206D01*
X176706255Y-108139611D01*
X176917705Y-108212202D01*
X177138382Y-108249027D01*
X177139885Y-108250197D01*
X177139727Y-108252094D01*
X177138053Y-108253000D01*
X177138051Y-108253000D01*
X177137722Y-108252973D01*
X176916883Y-108216121D01*
X176916563Y-108216040D01*
X176704800Y-108143342D01*
X176704497Y-108143209D01*
X176507590Y-108036648D01*
X176507314Y-108036467D01*
X176330630Y-107898949D01*
X176330387Y-107898726D01*
X176178744Y-107733998D01*
X176178541Y-107733737D01*
X176056084Y-107546303D01*
X176055926Y-107546012D01*
X175965989Y-107340974D01*
X175965882Y-107340662D01*
X175910919Y-107123620D01*
X175910865Y-107123294D01*
X175892376Y-106900165D01*
X175892376Y-106899835D01*
X175910865Y-106676705D01*
X175910919Y-106676379D01*
X175965882Y-106459337D01*
X175965989Y-106459025D01*
X176055926Y-106253987D01*
X176056084Y-106253696D01*
X176178541Y-106066262D01*
X176178744Y-106066001D01*
X176330387Y-105901273D01*
X176330630Y-105901050D01*
X176507314Y-105763532D01*
X176507590Y-105763351D01*
X176704497Y-105656790D01*
X176704800Y-105656657D01*
X176916563Y-105583959D01*
X176916883Y-105583878D01*
X177137722Y-105547027D01*
X177138051Y-105547000D01*
X177138053Y-105547000D01*
X177139727Y-105547906D01*
G37*
G36*
X177139727Y-100547906D02*
G01*
X177139885Y-100549803D01*
X177138382Y-100550973D01*
X176917705Y-100587797D01*
X176706255Y-100660388D01*
X176509635Y-100766793D01*
X176333218Y-100904105D01*
X176181799Y-101068588D01*
X176059525Y-101255743D01*
X175969720Y-101460480D01*
X175914838Y-101677203D01*
X175896376Y-101899999D01*
X175914838Y-102122796D01*
X175969720Y-102339519D01*
X176059525Y-102544256D01*
X176181799Y-102731411D01*
X176333218Y-102895894D01*
X176509635Y-103033206D01*
X176706255Y-103139611D01*
X176917705Y-103212202D01*
X177138382Y-103249027D01*
X177139885Y-103250197D01*
X177139727Y-103252094D01*
X177138053Y-103253000D01*
X177138051Y-103253000D01*
X177137722Y-103252973D01*
X176916883Y-103216121D01*
X176916563Y-103216040D01*
X176704800Y-103143342D01*
X176704497Y-103143209D01*
X176507590Y-103036648D01*
X176507314Y-103036467D01*
X176330630Y-102898949D01*
X176330387Y-102898726D01*
X176178744Y-102733998D01*
X176178541Y-102733737D01*
X176056084Y-102546303D01*
X176055926Y-102546012D01*
X175965989Y-102340974D01*
X175965882Y-102340662D01*
X175910919Y-102123620D01*
X175910865Y-102123294D01*
X175892376Y-101900164D01*
X175892376Y-101899834D01*
X175910865Y-101676705D01*
X175910919Y-101676379D01*
X175965882Y-101459337D01*
X175965989Y-101459025D01*
X176055926Y-101253987D01*
X176056084Y-101253696D01*
X176178541Y-101066262D01*
X176178744Y-101066001D01*
X176330387Y-100901273D01*
X176330630Y-100901050D01*
X176507314Y-100763532D01*
X176507590Y-100763351D01*
X176704497Y-100656790D01*
X176704800Y-100656657D01*
X176916563Y-100583959D01*
X176916883Y-100583878D01*
X177137722Y-100547027D01*
X177138051Y-100547000D01*
X177138053Y-100547000D01*
X177139727Y-100547906D01*
G37*
G36*
X177139727Y-95547906D02*
G01*
X177139885Y-95549803D01*
X177138382Y-95550973D01*
X176917705Y-95587797D01*
X176706255Y-95660388D01*
X176509635Y-95766793D01*
X176333218Y-95904105D01*
X176181799Y-96068588D01*
X176059525Y-96255743D01*
X175969720Y-96460480D01*
X175914838Y-96677203D01*
X175896376Y-96900000D01*
X175914838Y-97122796D01*
X175969720Y-97339519D01*
X176059525Y-97544256D01*
X176181799Y-97731411D01*
X176333218Y-97895894D01*
X176509635Y-98033206D01*
X176706255Y-98139611D01*
X176917705Y-98212202D01*
X177138382Y-98249027D01*
X177139885Y-98250197D01*
X177139727Y-98252094D01*
X177138053Y-98253000D01*
X177138051Y-98253000D01*
X177137722Y-98252973D01*
X176916883Y-98216121D01*
X176916563Y-98216040D01*
X176704800Y-98143342D01*
X176704497Y-98143209D01*
X176507590Y-98036648D01*
X176507314Y-98036467D01*
X176330630Y-97898949D01*
X176330387Y-97898726D01*
X176178744Y-97733998D01*
X176178541Y-97733737D01*
X176056084Y-97546303D01*
X176055926Y-97546012D01*
X175965989Y-97340974D01*
X175965882Y-97340662D01*
X175910919Y-97123620D01*
X175910865Y-97123294D01*
X175892376Y-96900164D01*
X175892376Y-96899834D01*
X175910865Y-96676705D01*
X175910919Y-96676379D01*
X175965882Y-96459337D01*
X175965989Y-96459025D01*
X176055926Y-96253987D01*
X176056084Y-96253696D01*
X176178541Y-96066262D01*
X176178744Y-96066001D01*
X176330387Y-95901273D01*
X176330630Y-95901050D01*
X176507314Y-95763532D01*
X176507590Y-95763351D01*
X176704497Y-95656790D01*
X176704800Y-95656657D01*
X176916563Y-95583959D01*
X176916883Y-95583878D01*
X177137722Y-95547027D01*
X177138051Y-95547000D01*
X177138053Y-95547000D01*
X177139727Y-95547906D01*
G37*
M02*
