%TF.GenerationSoftware,KiCad,Pcbnew,(7.0.0)*%
%TF.CreationDate,2023-03-26T01:31:24-04:00*%
%TF.ProjectId,PicoDMXStepper,5069636f-444d-4585-9374-65707065722e,v1*%
%TF.SameCoordinates,Original*%
%TF.FileFunction,Other,Comment*%
%FSLAX46Y46*%
G04 Gerber Fmt 4.6, Leading zero omitted, Abs format (unit mm)*
G04 Created by KiCad (PCBNEW (7.0.0)) date 2023-03-26 01:31:24*
%MOMM*%
%LPD*%
G01*
G04 APERTURE LIST*
%ADD10C,0.002000*%
%ADD11C,0.150000*%
G04 APERTURE END LIST*
D10*
%TO.C,U1*%
X160991852Y-97672162D02*
X160985804Y-97678209D01*
X160985804Y-97678209D02*
X160967662Y-97684257D01*
X160967662Y-97684257D02*
X160955566Y-97684257D01*
X160955566Y-97684257D02*
X160937423Y-97678209D01*
X160937423Y-97678209D02*
X160925328Y-97666114D01*
X160925328Y-97666114D02*
X160919281Y-97654019D01*
X160919281Y-97654019D02*
X160913233Y-97629828D01*
X160913233Y-97629828D02*
X160913233Y-97611685D01*
X160913233Y-97611685D02*
X160919281Y-97587495D01*
X160919281Y-97587495D02*
X160925328Y-97575400D01*
X160925328Y-97575400D02*
X160937423Y-97563305D01*
X160937423Y-97563305D02*
X160955566Y-97557257D01*
X160955566Y-97557257D02*
X160967662Y-97557257D01*
X160967662Y-97557257D02*
X160985804Y-97563305D01*
X160985804Y-97563305D02*
X160991852Y-97569352D01*
X161064423Y-97684257D02*
X161052328Y-97678209D01*
X161052328Y-97678209D02*
X161046281Y-97672162D01*
X161046281Y-97672162D02*
X161040233Y-97660066D01*
X161040233Y-97660066D02*
X161040233Y-97623781D01*
X161040233Y-97623781D02*
X161046281Y-97611685D01*
X161046281Y-97611685D02*
X161052328Y-97605638D01*
X161052328Y-97605638D02*
X161064423Y-97599590D01*
X161064423Y-97599590D02*
X161082566Y-97599590D01*
X161082566Y-97599590D02*
X161094662Y-97605638D01*
X161094662Y-97605638D02*
X161100709Y-97611685D01*
X161100709Y-97611685D02*
X161106757Y-97623781D01*
X161106757Y-97623781D02*
X161106757Y-97660066D01*
X161106757Y-97660066D02*
X161100709Y-97672162D01*
X161100709Y-97672162D02*
X161094662Y-97678209D01*
X161094662Y-97678209D02*
X161082566Y-97684257D01*
X161082566Y-97684257D02*
X161064423Y-97684257D01*
X161161186Y-97599590D02*
X161161186Y-97726590D01*
X161161186Y-97605638D02*
X161173281Y-97599590D01*
X161173281Y-97599590D02*
X161197471Y-97599590D01*
X161197471Y-97599590D02*
X161209567Y-97605638D01*
X161209567Y-97605638D02*
X161215614Y-97611685D01*
X161215614Y-97611685D02*
X161221662Y-97623781D01*
X161221662Y-97623781D02*
X161221662Y-97660066D01*
X161221662Y-97660066D02*
X161215614Y-97672162D01*
X161215614Y-97672162D02*
X161209567Y-97678209D01*
X161209567Y-97678209D02*
X161197471Y-97684257D01*
X161197471Y-97684257D02*
X161173281Y-97684257D01*
X161173281Y-97684257D02*
X161161186Y-97678209D01*
X161263995Y-97599590D02*
X161294233Y-97684257D01*
X161324472Y-97599590D02*
X161294233Y-97684257D01*
X161294233Y-97684257D02*
X161282138Y-97714495D01*
X161282138Y-97714495D02*
X161276091Y-97720543D01*
X161276091Y-97720543D02*
X161263995Y-97726590D01*
X161372853Y-97684257D02*
X161372853Y-97599590D01*
X161372853Y-97623781D02*
X161378900Y-97611685D01*
X161378900Y-97611685D02*
X161384948Y-97605638D01*
X161384948Y-97605638D02*
X161397043Y-97599590D01*
X161397043Y-97599590D02*
X161409138Y-97599590D01*
X161451472Y-97684257D02*
X161451472Y-97599590D01*
X161451472Y-97557257D02*
X161445424Y-97563305D01*
X161445424Y-97563305D02*
X161451472Y-97569352D01*
X161451472Y-97569352D02*
X161457519Y-97563305D01*
X161457519Y-97563305D02*
X161451472Y-97557257D01*
X161451472Y-97557257D02*
X161451472Y-97569352D01*
X161566376Y-97599590D02*
X161566376Y-97702400D01*
X161566376Y-97702400D02*
X161560329Y-97714495D01*
X161560329Y-97714495D02*
X161554281Y-97720543D01*
X161554281Y-97720543D02*
X161542186Y-97726590D01*
X161542186Y-97726590D02*
X161524043Y-97726590D01*
X161524043Y-97726590D02*
X161511948Y-97720543D01*
X161566376Y-97678209D02*
X161554281Y-97684257D01*
X161554281Y-97684257D02*
X161530090Y-97684257D01*
X161530090Y-97684257D02*
X161517995Y-97678209D01*
X161517995Y-97678209D02*
X161511948Y-97672162D01*
X161511948Y-97672162D02*
X161505900Y-97660066D01*
X161505900Y-97660066D02*
X161505900Y-97623781D01*
X161505900Y-97623781D02*
X161511948Y-97611685D01*
X161511948Y-97611685D02*
X161517995Y-97605638D01*
X161517995Y-97605638D02*
X161530090Y-97599590D01*
X161530090Y-97599590D02*
X161554281Y-97599590D01*
X161554281Y-97599590D02*
X161566376Y-97605638D01*
X161626853Y-97684257D02*
X161626853Y-97557257D01*
X161681281Y-97684257D02*
X161681281Y-97617733D01*
X161681281Y-97617733D02*
X161675234Y-97605638D01*
X161675234Y-97605638D02*
X161663138Y-97599590D01*
X161663138Y-97599590D02*
X161644995Y-97599590D01*
X161644995Y-97599590D02*
X161632900Y-97605638D01*
X161632900Y-97605638D02*
X161626853Y-97611685D01*
X161723615Y-97599590D02*
X161771996Y-97599590D01*
X161741758Y-97557257D02*
X161741758Y-97666114D01*
X161741758Y-97666114D02*
X161747805Y-97678209D01*
X161747805Y-97678209D02*
X161759900Y-97684257D01*
X161759900Y-97684257D02*
X161771996Y-97684257D01*
X161884481Y-97569352D02*
X161890529Y-97563305D01*
X161890529Y-97563305D02*
X161902624Y-97557257D01*
X161902624Y-97557257D02*
X161932862Y-97557257D01*
X161932862Y-97557257D02*
X161944957Y-97563305D01*
X161944957Y-97563305D02*
X161951005Y-97569352D01*
X161951005Y-97569352D02*
X161957052Y-97581447D01*
X161957052Y-97581447D02*
X161957052Y-97593543D01*
X161957052Y-97593543D02*
X161951005Y-97611685D01*
X161951005Y-97611685D02*
X161878433Y-97684257D01*
X161878433Y-97684257D02*
X161957052Y-97684257D01*
X162035671Y-97557257D02*
X162047766Y-97557257D01*
X162047766Y-97557257D02*
X162059862Y-97563305D01*
X162059862Y-97563305D02*
X162065909Y-97569352D01*
X162065909Y-97569352D02*
X162071957Y-97581447D01*
X162071957Y-97581447D02*
X162078004Y-97605638D01*
X162078004Y-97605638D02*
X162078004Y-97635876D01*
X162078004Y-97635876D02*
X162071957Y-97660066D01*
X162071957Y-97660066D02*
X162065909Y-97672162D01*
X162065909Y-97672162D02*
X162059862Y-97678209D01*
X162059862Y-97678209D02*
X162047766Y-97684257D01*
X162047766Y-97684257D02*
X162035671Y-97684257D01*
X162035671Y-97684257D02*
X162023576Y-97678209D01*
X162023576Y-97678209D02*
X162017528Y-97672162D01*
X162017528Y-97672162D02*
X162011481Y-97660066D01*
X162011481Y-97660066D02*
X162005433Y-97635876D01*
X162005433Y-97635876D02*
X162005433Y-97605638D01*
X162005433Y-97605638D02*
X162011481Y-97581447D01*
X162011481Y-97581447D02*
X162017528Y-97569352D01*
X162017528Y-97569352D02*
X162023576Y-97563305D01*
X162023576Y-97563305D02*
X162035671Y-97557257D01*
X162126385Y-97569352D02*
X162132433Y-97563305D01*
X162132433Y-97563305D02*
X162144528Y-97557257D01*
X162144528Y-97557257D02*
X162174766Y-97557257D01*
X162174766Y-97557257D02*
X162186861Y-97563305D01*
X162186861Y-97563305D02*
X162192909Y-97569352D01*
X162192909Y-97569352D02*
X162198956Y-97581447D01*
X162198956Y-97581447D02*
X162198956Y-97593543D01*
X162198956Y-97593543D02*
X162192909Y-97611685D01*
X162192909Y-97611685D02*
X162120337Y-97684257D01*
X162120337Y-97684257D02*
X162198956Y-97684257D01*
X162319908Y-97684257D02*
X162247337Y-97684257D01*
X162283623Y-97684257D02*
X162283623Y-97557257D01*
X162283623Y-97557257D02*
X162271527Y-97575400D01*
X162271527Y-97575400D02*
X162259432Y-97587495D01*
X162259432Y-97587495D02*
X162247337Y-97593543D01*
X162444489Y-97647971D02*
X162504965Y-97647971D01*
X162432394Y-97684257D02*
X162474727Y-97557257D01*
X162474727Y-97557257D02*
X162517060Y-97684257D01*
X162613822Y-97678209D02*
X162601727Y-97684257D01*
X162601727Y-97684257D02*
X162577536Y-97684257D01*
X162577536Y-97684257D02*
X162565441Y-97678209D01*
X162565441Y-97678209D02*
X162559394Y-97672162D01*
X162559394Y-97672162D02*
X162553346Y-97660066D01*
X162553346Y-97660066D02*
X162553346Y-97623781D01*
X162553346Y-97623781D02*
X162559394Y-97611685D01*
X162559394Y-97611685D02*
X162565441Y-97605638D01*
X162565441Y-97605638D02*
X162577536Y-97599590D01*
X162577536Y-97599590D02*
X162601727Y-97599590D01*
X162601727Y-97599590D02*
X162613822Y-97605638D01*
X162722679Y-97678209D02*
X162710584Y-97684257D01*
X162710584Y-97684257D02*
X162686393Y-97684257D01*
X162686393Y-97684257D02*
X162674298Y-97678209D01*
X162674298Y-97678209D02*
X162668251Y-97672162D01*
X162668251Y-97672162D02*
X162662203Y-97660066D01*
X162662203Y-97660066D02*
X162662203Y-97623781D01*
X162662203Y-97623781D02*
X162668251Y-97611685D01*
X162668251Y-97611685D02*
X162674298Y-97605638D01*
X162674298Y-97605638D02*
X162686393Y-97599590D01*
X162686393Y-97599590D02*
X162710584Y-97599590D01*
X162710584Y-97599590D02*
X162722679Y-97605638D01*
X162825489Y-97678209D02*
X162813393Y-97684257D01*
X162813393Y-97684257D02*
X162789203Y-97684257D01*
X162789203Y-97684257D02*
X162777108Y-97678209D01*
X162777108Y-97678209D02*
X162771060Y-97666114D01*
X162771060Y-97666114D02*
X162771060Y-97617733D01*
X162771060Y-97617733D02*
X162777108Y-97605638D01*
X162777108Y-97605638D02*
X162789203Y-97599590D01*
X162789203Y-97599590D02*
X162813393Y-97599590D01*
X162813393Y-97599590D02*
X162825489Y-97605638D01*
X162825489Y-97605638D02*
X162831536Y-97617733D01*
X162831536Y-97617733D02*
X162831536Y-97629828D01*
X162831536Y-97629828D02*
X162771060Y-97641924D01*
X162904107Y-97684257D02*
X162892012Y-97678209D01*
X162892012Y-97678209D02*
X162885965Y-97666114D01*
X162885965Y-97666114D02*
X162885965Y-97557257D01*
X163000870Y-97678209D02*
X162988774Y-97684257D01*
X162988774Y-97684257D02*
X162964584Y-97684257D01*
X162964584Y-97684257D02*
X162952489Y-97678209D01*
X162952489Y-97678209D02*
X162946441Y-97666114D01*
X162946441Y-97666114D02*
X162946441Y-97617733D01*
X162946441Y-97617733D02*
X162952489Y-97605638D01*
X162952489Y-97605638D02*
X162964584Y-97599590D01*
X162964584Y-97599590D02*
X162988774Y-97599590D01*
X162988774Y-97599590D02*
X163000870Y-97605638D01*
X163000870Y-97605638D02*
X163006917Y-97617733D01*
X163006917Y-97617733D02*
X163006917Y-97629828D01*
X163006917Y-97629828D02*
X162946441Y-97641924D01*
X163061346Y-97684257D02*
X163061346Y-97599590D01*
X163061346Y-97623781D02*
X163067393Y-97611685D01*
X163067393Y-97611685D02*
X163073441Y-97605638D01*
X163073441Y-97605638D02*
X163085536Y-97599590D01*
X163085536Y-97599590D02*
X163097631Y-97599590D01*
X163194393Y-97684257D02*
X163194393Y-97617733D01*
X163194393Y-97617733D02*
X163188346Y-97605638D01*
X163188346Y-97605638D02*
X163176250Y-97599590D01*
X163176250Y-97599590D02*
X163152060Y-97599590D01*
X163152060Y-97599590D02*
X163139965Y-97605638D01*
X163194393Y-97678209D02*
X163182298Y-97684257D01*
X163182298Y-97684257D02*
X163152060Y-97684257D01*
X163152060Y-97684257D02*
X163139965Y-97678209D01*
X163139965Y-97678209D02*
X163133917Y-97666114D01*
X163133917Y-97666114D02*
X163133917Y-97654019D01*
X163133917Y-97654019D02*
X163139965Y-97641924D01*
X163139965Y-97641924D02*
X163152060Y-97635876D01*
X163152060Y-97635876D02*
X163182298Y-97635876D01*
X163182298Y-97635876D02*
X163194393Y-97629828D01*
X163236727Y-97599590D02*
X163285108Y-97599590D01*
X163254870Y-97557257D02*
X163254870Y-97666114D01*
X163254870Y-97666114D02*
X163260917Y-97678209D01*
X163260917Y-97678209D02*
X163273012Y-97684257D01*
X163273012Y-97684257D02*
X163285108Y-97684257D01*
X163375822Y-97678209D02*
X163363726Y-97684257D01*
X163363726Y-97684257D02*
X163339536Y-97684257D01*
X163339536Y-97684257D02*
X163327441Y-97678209D01*
X163327441Y-97678209D02*
X163321393Y-97666114D01*
X163321393Y-97666114D02*
X163321393Y-97617733D01*
X163321393Y-97617733D02*
X163327441Y-97605638D01*
X163327441Y-97605638D02*
X163339536Y-97599590D01*
X163339536Y-97599590D02*
X163363726Y-97599590D01*
X163363726Y-97599590D02*
X163375822Y-97605638D01*
X163375822Y-97605638D02*
X163381869Y-97617733D01*
X163381869Y-97617733D02*
X163381869Y-97629828D01*
X163381869Y-97629828D02*
X163321393Y-97641924D01*
X163490726Y-97684257D02*
X163490726Y-97557257D01*
X163490726Y-97678209D02*
X163478631Y-97684257D01*
X163478631Y-97684257D02*
X163454440Y-97684257D01*
X163454440Y-97684257D02*
X163442345Y-97678209D01*
X163442345Y-97678209D02*
X163436298Y-97672162D01*
X163436298Y-97672162D02*
X163430250Y-97660066D01*
X163430250Y-97660066D02*
X163430250Y-97623781D01*
X163430250Y-97623781D02*
X163436298Y-97611685D01*
X163436298Y-97611685D02*
X163442345Y-97605638D01*
X163442345Y-97605638D02*
X163454440Y-97599590D01*
X163454440Y-97599590D02*
X163478631Y-97599590D01*
X163478631Y-97599590D02*
X163490726Y-97605638D01*
X163627403Y-97684257D02*
X163627403Y-97557257D01*
X163627403Y-97557257D02*
X163657641Y-97557257D01*
X163657641Y-97557257D02*
X163675784Y-97563305D01*
X163675784Y-97563305D02*
X163687879Y-97575400D01*
X163687879Y-97575400D02*
X163693926Y-97587495D01*
X163693926Y-97587495D02*
X163699974Y-97611685D01*
X163699974Y-97611685D02*
X163699974Y-97629828D01*
X163699974Y-97629828D02*
X163693926Y-97654019D01*
X163693926Y-97654019D02*
X163687879Y-97666114D01*
X163687879Y-97666114D02*
X163675784Y-97678209D01*
X163675784Y-97678209D02*
X163657641Y-97684257D01*
X163657641Y-97684257D02*
X163627403Y-97684257D01*
X163802784Y-97678209D02*
X163790688Y-97684257D01*
X163790688Y-97684257D02*
X163766498Y-97684257D01*
X163766498Y-97684257D02*
X163754403Y-97678209D01*
X163754403Y-97678209D02*
X163748355Y-97666114D01*
X163748355Y-97666114D02*
X163748355Y-97617733D01*
X163748355Y-97617733D02*
X163754403Y-97605638D01*
X163754403Y-97605638D02*
X163766498Y-97599590D01*
X163766498Y-97599590D02*
X163790688Y-97599590D01*
X163790688Y-97599590D02*
X163802784Y-97605638D01*
X163802784Y-97605638D02*
X163808831Y-97617733D01*
X163808831Y-97617733D02*
X163808831Y-97629828D01*
X163808831Y-97629828D02*
X163748355Y-97641924D01*
X163857212Y-97678209D02*
X163869307Y-97684257D01*
X163869307Y-97684257D02*
X163893498Y-97684257D01*
X163893498Y-97684257D02*
X163905593Y-97678209D01*
X163905593Y-97678209D02*
X163911641Y-97666114D01*
X163911641Y-97666114D02*
X163911641Y-97660066D01*
X163911641Y-97660066D02*
X163905593Y-97647971D01*
X163905593Y-97647971D02*
X163893498Y-97641924D01*
X163893498Y-97641924D02*
X163875355Y-97641924D01*
X163875355Y-97641924D02*
X163863260Y-97635876D01*
X163863260Y-97635876D02*
X163857212Y-97623781D01*
X163857212Y-97623781D02*
X163857212Y-97617733D01*
X163857212Y-97617733D02*
X163863260Y-97605638D01*
X163863260Y-97605638D02*
X163875355Y-97599590D01*
X163875355Y-97599590D02*
X163893498Y-97599590D01*
X163893498Y-97599590D02*
X163905593Y-97605638D01*
X163966070Y-97684257D02*
X163966070Y-97599590D01*
X163966070Y-97557257D02*
X163960022Y-97563305D01*
X163960022Y-97563305D02*
X163966070Y-97569352D01*
X163966070Y-97569352D02*
X163972117Y-97563305D01*
X163972117Y-97563305D02*
X163966070Y-97557257D01*
X163966070Y-97557257D02*
X163966070Y-97569352D01*
X164080974Y-97599590D02*
X164080974Y-97702400D01*
X164080974Y-97702400D02*
X164074927Y-97714495D01*
X164074927Y-97714495D02*
X164068879Y-97720543D01*
X164068879Y-97720543D02*
X164056784Y-97726590D01*
X164056784Y-97726590D02*
X164038641Y-97726590D01*
X164038641Y-97726590D02*
X164026546Y-97720543D01*
X164080974Y-97678209D02*
X164068879Y-97684257D01*
X164068879Y-97684257D02*
X164044688Y-97684257D01*
X164044688Y-97684257D02*
X164032593Y-97678209D01*
X164032593Y-97678209D02*
X164026546Y-97672162D01*
X164026546Y-97672162D02*
X164020498Y-97660066D01*
X164020498Y-97660066D02*
X164020498Y-97623781D01*
X164020498Y-97623781D02*
X164026546Y-97611685D01*
X164026546Y-97611685D02*
X164032593Y-97605638D01*
X164032593Y-97605638D02*
X164044688Y-97599590D01*
X164044688Y-97599590D02*
X164068879Y-97599590D01*
X164068879Y-97599590D02*
X164080974Y-97605638D01*
X164141451Y-97599590D02*
X164141451Y-97684257D01*
X164141451Y-97611685D02*
X164147498Y-97605638D01*
X164147498Y-97605638D02*
X164159593Y-97599590D01*
X164159593Y-97599590D02*
X164177736Y-97599590D01*
X164177736Y-97599590D02*
X164189832Y-97605638D01*
X164189832Y-97605638D02*
X164195879Y-97617733D01*
X164195879Y-97617733D02*
X164195879Y-97684257D01*
X164250308Y-97678209D02*
X164262403Y-97684257D01*
X164262403Y-97684257D02*
X164286594Y-97684257D01*
X164286594Y-97684257D02*
X164298689Y-97678209D01*
X164298689Y-97678209D02*
X164304737Y-97666114D01*
X164304737Y-97666114D02*
X164304737Y-97660066D01*
X164304737Y-97660066D02*
X164298689Y-97647971D01*
X164298689Y-97647971D02*
X164286594Y-97641924D01*
X164286594Y-97641924D02*
X164268451Y-97641924D01*
X164268451Y-97641924D02*
X164256356Y-97635876D01*
X164256356Y-97635876D02*
X164250308Y-97623781D01*
X164250308Y-97623781D02*
X164250308Y-97617733D01*
X164250308Y-97617733D02*
X164256356Y-97605638D01*
X164256356Y-97605638D02*
X164268451Y-97599590D01*
X164268451Y-97599590D02*
X164286594Y-97599590D01*
X164286594Y-97599590D02*
X164298689Y-97605638D01*
X164359166Y-97672162D02*
X164365213Y-97678209D01*
X164365213Y-97678209D02*
X164359166Y-97684257D01*
X164359166Y-97684257D02*
X164353118Y-97678209D01*
X164353118Y-97678209D02*
X164359166Y-97672162D01*
X164359166Y-97672162D02*
X164359166Y-97684257D01*
X164489794Y-97647971D02*
X164550270Y-97647971D01*
X164477699Y-97684257D02*
X164520032Y-97557257D01*
X164520032Y-97557257D02*
X164562365Y-97684257D01*
X164622841Y-97684257D02*
X164610746Y-97678209D01*
X164610746Y-97678209D02*
X164604699Y-97666114D01*
X164604699Y-97666114D02*
X164604699Y-97557257D01*
X164689365Y-97684257D02*
X164677270Y-97678209D01*
X164677270Y-97678209D02*
X164671223Y-97666114D01*
X164671223Y-97666114D02*
X164671223Y-97557257D01*
X164813947Y-97684257D02*
X164813947Y-97599590D01*
X164813947Y-97623781D02*
X164819994Y-97611685D01*
X164819994Y-97611685D02*
X164826042Y-97605638D01*
X164826042Y-97605638D02*
X164838137Y-97599590D01*
X164838137Y-97599590D02*
X164850232Y-97599590D01*
X164892566Y-97684257D02*
X164892566Y-97599590D01*
X164892566Y-97557257D02*
X164886518Y-97563305D01*
X164886518Y-97563305D02*
X164892566Y-97569352D01*
X164892566Y-97569352D02*
X164898613Y-97563305D01*
X164898613Y-97563305D02*
X164892566Y-97557257D01*
X164892566Y-97557257D02*
X164892566Y-97569352D01*
X165007470Y-97599590D02*
X165007470Y-97702400D01*
X165007470Y-97702400D02*
X165001423Y-97714495D01*
X165001423Y-97714495D02*
X164995375Y-97720543D01*
X164995375Y-97720543D02*
X164983280Y-97726590D01*
X164983280Y-97726590D02*
X164965137Y-97726590D01*
X164965137Y-97726590D02*
X164953042Y-97720543D01*
X165007470Y-97678209D02*
X164995375Y-97684257D01*
X164995375Y-97684257D02*
X164971184Y-97684257D01*
X164971184Y-97684257D02*
X164959089Y-97678209D01*
X164959089Y-97678209D02*
X164953042Y-97672162D01*
X164953042Y-97672162D02*
X164946994Y-97660066D01*
X164946994Y-97660066D02*
X164946994Y-97623781D01*
X164946994Y-97623781D02*
X164953042Y-97611685D01*
X164953042Y-97611685D02*
X164959089Y-97605638D01*
X164959089Y-97605638D02*
X164971184Y-97599590D01*
X164971184Y-97599590D02*
X164995375Y-97599590D01*
X164995375Y-97599590D02*
X165007470Y-97605638D01*
X165067947Y-97684257D02*
X165067947Y-97557257D01*
X165122375Y-97684257D02*
X165122375Y-97617733D01*
X165122375Y-97617733D02*
X165116328Y-97605638D01*
X165116328Y-97605638D02*
X165104232Y-97599590D01*
X165104232Y-97599590D02*
X165086089Y-97599590D01*
X165086089Y-97599590D02*
X165073994Y-97605638D01*
X165073994Y-97605638D02*
X165067947Y-97611685D01*
X165164709Y-97599590D02*
X165213090Y-97599590D01*
X165182852Y-97557257D02*
X165182852Y-97666114D01*
X165182852Y-97666114D02*
X165188899Y-97678209D01*
X165188899Y-97678209D02*
X165200994Y-97684257D01*
X165200994Y-97684257D02*
X165213090Y-97684257D01*
X165249375Y-97678209D02*
X165261470Y-97684257D01*
X165261470Y-97684257D02*
X165285661Y-97684257D01*
X165285661Y-97684257D02*
X165297756Y-97678209D01*
X165297756Y-97678209D02*
X165303804Y-97666114D01*
X165303804Y-97666114D02*
X165303804Y-97660066D01*
X165303804Y-97660066D02*
X165297756Y-97647971D01*
X165297756Y-97647971D02*
X165285661Y-97641924D01*
X165285661Y-97641924D02*
X165267518Y-97641924D01*
X165267518Y-97641924D02*
X165255423Y-97635876D01*
X165255423Y-97635876D02*
X165249375Y-97623781D01*
X165249375Y-97623781D02*
X165249375Y-97617733D01*
X165249375Y-97617733D02*
X165255423Y-97605638D01*
X165255423Y-97605638D02*
X165267518Y-97599590D01*
X165267518Y-97599590D02*
X165285661Y-97599590D01*
X165285661Y-97599590D02*
X165297756Y-97605638D01*
X165434433Y-97684257D02*
X165434433Y-97599590D01*
X165434433Y-97623781D02*
X165440480Y-97611685D01*
X165440480Y-97611685D02*
X165446528Y-97605638D01*
X165446528Y-97605638D02*
X165458623Y-97599590D01*
X165458623Y-97599590D02*
X165470718Y-97599590D01*
X165561433Y-97678209D02*
X165549337Y-97684257D01*
X165549337Y-97684257D02*
X165525147Y-97684257D01*
X165525147Y-97684257D02*
X165513052Y-97678209D01*
X165513052Y-97678209D02*
X165507004Y-97666114D01*
X165507004Y-97666114D02*
X165507004Y-97617733D01*
X165507004Y-97617733D02*
X165513052Y-97605638D01*
X165513052Y-97605638D02*
X165525147Y-97599590D01*
X165525147Y-97599590D02*
X165549337Y-97599590D01*
X165549337Y-97599590D02*
X165561433Y-97605638D01*
X165561433Y-97605638D02*
X165567480Y-97617733D01*
X165567480Y-97617733D02*
X165567480Y-97629828D01*
X165567480Y-97629828D02*
X165507004Y-97641924D01*
X165615861Y-97678209D02*
X165627956Y-97684257D01*
X165627956Y-97684257D02*
X165652147Y-97684257D01*
X165652147Y-97684257D02*
X165664242Y-97678209D01*
X165664242Y-97678209D02*
X165670290Y-97666114D01*
X165670290Y-97666114D02*
X165670290Y-97660066D01*
X165670290Y-97660066D02*
X165664242Y-97647971D01*
X165664242Y-97647971D02*
X165652147Y-97641924D01*
X165652147Y-97641924D02*
X165634004Y-97641924D01*
X165634004Y-97641924D02*
X165621909Y-97635876D01*
X165621909Y-97635876D02*
X165615861Y-97623781D01*
X165615861Y-97623781D02*
X165615861Y-97617733D01*
X165615861Y-97617733D02*
X165621909Y-97605638D01*
X165621909Y-97605638D02*
X165634004Y-97599590D01*
X165634004Y-97599590D02*
X165652147Y-97599590D01*
X165652147Y-97599590D02*
X165664242Y-97605638D01*
X165773100Y-97678209D02*
X165761004Y-97684257D01*
X165761004Y-97684257D02*
X165736814Y-97684257D01*
X165736814Y-97684257D02*
X165724719Y-97678209D01*
X165724719Y-97678209D02*
X165718671Y-97666114D01*
X165718671Y-97666114D02*
X165718671Y-97617733D01*
X165718671Y-97617733D02*
X165724719Y-97605638D01*
X165724719Y-97605638D02*
X165736814Y-97599590D01*
X165736814Y-97599590D02*
X165761004Y-97599590D01*
X165761004Y-97599590D02*
X165773100Y-97605638D01*
X165773100Y-97605638D02*
X165779147Y-97617733D01*
X165779147Y-97617733D02*
X165779147Y-97629828D01*
X165779147Y-97629828D02*
X165718671Y-97641924D01*
X165833576Y-97684257D02*
X165833576Y-97599590D01*
X165833576Y-97623781D02*
X165839623Y-97611685D01*
X165839623Y-97611685D02*
X165845671Y-97605638D01*
X165845671Y-97605638D02*
X165857766Y-97599590D01*
X165857766Y-97599590D02*
X165869861Y-97599590D01*
X165900099Y-97599590D02*
X165930337Y-97684257D01*
X165930337Y-97684257D02*
X165960576Y-97599590D01*
X166057338Y-97678209D02*
X166045242Y-97684257D01*
X166045242Y-97684257D02*
X166021052Y-97684257D01*
X166021052Y-97684257D02*
X166008957Y-97678209D01*
X166008957Y-97678209D02*
X166002909Y-97666114D01*
X166002909Y-97666114D02*
X166002909Y-97617733D01*
X166002909Y-97617733D02*
X166008957Y-97605638D01*
X166008957Y-97605638D02*
X166021052Y-97599590D01*
X166021052Y-97599590D02*
X166045242Y-97599590D01*
X166045242Y-97599590D02*
X166057338Y-97605638D01*
X166057338Y-97605638D02*
X166063385Y-97617733D01*
X166063385Y-97617733D02*
X166063385Y-97629828D01*
X166063385Y-97629828D02*
X166002909Y-97641924D01*
X166172242Y-97684257D02*
X166172242Y-97557257D01*
X166172242Y-97678209D02*
X166160147Y-97684257D01*
X166160147Y-97684257D02*
X166135956Y-97684257D01*
X166135956Y-97684257D02*
X166123861Y-97678209D01*
X166123861Y-97678209D02*
X166117814Y-97672162D01*
X166117814Y-97672162D02*
X166111766Y-97660066D01*
X166111766Y-97660066D02*
X166111766Y-97623781D01*
X166111766Y-97623781D02*
X166117814Y-97611685D01*
X166117814Y-97611685D02*
X166123861Y-97605638D01*
X166123861Y-97605638D02*
X166135956Y-97599590D01*
X166135956Y-97599590D02*
X166160147Y-97599590D01*
X166160147Y-97599590D02*
X166172242Y-97605638D01*
X166232719Y-97672162D02*
X166238766Y-97678209D01*
X166238766Y-97678209D02*
X166232719Y-97684257D01*
X166232719Y-97684257D02*
X166226671Y-97678209D01*
X166226671Y-97678209D02*
X166232719Y-97672162D01*
X166232719Y-97672162D02*
X166232719Y-97684257D01*
D11*
%TO.C,H3*%
X124220000Y-85090000D02*
G75*
G03*
X124220000Y-85090000I-3700000J0D01*
G01*
%TO.C,H2*%
X180357000Y-85090000D02*
G75*
G03*
X180357000Y-85090000I-3700000J0D01*
G01*
%TO.C,H1*%
X124220000Y-139725000D02*
G75*
G03*
X124220000Y-139725000I-3700000J0D01*
G01*
%TO.C,H4*%
X180357000Y-139750800D02*
G75*
G03*
X180357000Y-139750800I-3700000J0D01*
G01*
%TD*%
M02*
