%TF.GenerationSoftware,KiCad,Pcbnew,7.0.1*%
%TF.CreationDate,2023-04-10T17:38:49-04:00*%
%TF.ProjectId,PicoDMXStepper,5069636f-444d-4585-9374-65707065722e,v1*%
%TF.SameCoordinates,Original*%
%TF.FileFunction,Other,Comment*%
%FSLAX46Y46*%
G04 Gerber Fmt 4.6, Leading zero omitted, Abs format (unit mm)*
G04 Created by KiCad (PCBNEW 7.0.1) date 2023-04-10 17:38:49*
%MOMM*%
%LPD*%
G01*
G04 APERTURE LIST*
%ADD10C,0.002000*%
%ADD11C,0.150000*%
G04 APERTURE END LIST*
D10*
%TO.C,U1*%
X160930166Y-97684257D02*
X160924118Y-97690305D01*
X160924118Y-97690305D02*
X160905976Y-97696352D01*
X160905976Y-97696352D02*
X160893880Y-97696352D01*
X160893880Y-97696352D02*
X160875737Y-97690305D01*
X160875737Y-97690305D02*
X160863642Y-97678209D01*
X160863642Y-97678209D02*
X160857595Y-97666114D01*
X160857595Y-97666114D02*
X160851547Y-97641924D01*
X160851547Y-97641924D02*
X160851547Y-97623781D01*
X160851547Y-97623781D02*
X160857595Y-97599590D01*
X160857595Y-97599590D02*
X160863642Y-97587495D01*
X160863642Y-97587495D02*
X160875737Y-97575400D01*
X160875737Y-97575400D02*
X160893880Y-97569352D01*
X160893880Y-97569352D02*
X160905976Y-97569352D01*
X160905976Y-97569352D02*
X160924118Y-97575400D01*
X160924118Y-97575400D02*
X160930166Y-97581447D01*
X161002737Y-97696352D02*
X160990642Y-97690305D01*
X160990642Y-97690305D02*
X160984595Y-97684257D01*
X160984595Y-97684257D02*
X160978547Y-97672162D01*
X160978547Y-97672162D02*
X160978547Y-97635876D01*
X160978547Y-97635876D02*
X160984595Y-97623781D01*
X160984595Y-97623781D02*
X160990642Y-97617733D01*
X160990642Y-97617733D02*
X161002737Y-97611685D01*
X161002737Y-97611685D02*
X161020880Y-97611685D01*
X161020880Y-97611685D02*
X161032976Y-97617733D01*
X161032976Y-97617733D02*
X161039023Y-97623781D01*
X161039023Y-97623781D02*
X161045071Y-97635876D01*
X161045071Y-97635876D02*
X161045071Y-97672162D01*
X161045071Y-97672162D02*
X161039023Y-97684257D01*
X161039023Y-97684257D02*
X161032976Y-97690305D01*
X161032976Y-97690305D02*
X161020880Y-97696352D01*
X161020880Y-97696352D02*
X161002737Y-97696352D01*
X161099500Y-97611685D02*
X161099500Y-97738685D01*
X161099500Y-97617733D02*
X161111595Y-97611685D01*
X161111595Y-97611685D02*
X161135785Y-97611685D01*
X161135785Y-97611685D02*
X161147881Y-97617733D01*
X161147881Y-97617733D02*
X161153928Y-97623781D01*
X161153928Y-97623781D02*
X161159976Y-97635876D01*
X161159976Y-97635876D02*
X161159976Y-97672162D01*
X161159976Y-97672162D02*
X161153928Y-97684257D01*
X161153928Y-97684257D02*
X161147881Y-97690305D01*
X161147881Y-97690305D02*
X161135785Y-97696352D01*
X161135785Y-97696352D02*
X161111595Y-97696352D01*
X161111595Y-97696352D02*
X161099500Y-97690305D01*
X161202309Y-97611685D02*
X161232547Y-97696352D01*
X161262786Y-97611685D02*
X161232547Y-97696352D01*
X161232547Y-97696352D02*
X161220452Y-97726590D01*
X161220452Y-97726590D02*
X161214405Y-97732638D01*
X161214405Y-97732638D02*
X161202309Y-97738685D01*
X161311167Y-97696352D02*
X161311167Y-97611685D01*
X161311167Y-97635876D02*
X161317214Y-97623781D01*
X161317214Y-97623781D02*
X161323262Y-97617733D01*
X161323262Y-97617733D02*
X161335357Y-97611685D01*
X161335357Y-97611685D02*
X161347452Y-97611685D01*
X161389786Y-97696352D02*
X161389786Y-97611685D01*
X161389786Y-97569352D02*
X161383738Y-97575400D01*
X161383738Y-97575400D02*
X161389786Y-97581447D01*
X161389786Y-97581447D02*
X161395833Y-97575400D01*
X161395833Y-97575400D02*
X161389786Y-97569352D01*
X161389786Y-97569352D02*
X161389786Y-97581447D01*
X161504690Y-97611685D02*
X161504690Y-97714495D01*
X161504690Y-97714495D02*
X161498643Y-97726590D01*
X161498643Y-97726590D02*
X161492595Y-97732638D01*
X161492595Y-97732638D02*
X161480500Y-97738685D01*
X161480500Y-97738685D02*
X161462357Y-97738685D01*
X161462357Y-97738685D02*
X161450262Y-97732638D01*
X161504690Y-97690305D02*
X161492595Y-97696352D01*
X161492595Y-97696352D02*
X161468404Y-97696352D01*
X161468404Y-97696352D02*
X161456309Y-97690305D01*
X161456309Y-97690305D02*
X161450262Y-97684257D01*
X161450262Y-97684257D02*
X161444214Y-97672162D01*
X161444214Y-97672162D02*
X161444214Y-97635876D01*
X161444214Y-97635876D02*
X161450262Y-97623781D01*
X161450262Y-97623781D02*
X161456309Y-97617733D01*
X161456309Y-97617733D02*
X161468404Y-97611685D01*
X161468404Y-97611685D02*
X161492595Y-97611685D01*
X161492595Y-97611685D02*
X161504690Y-97617733D01*
X161565167Y-97696352D02*
X161565167Y-97569352D01*
X161619595Y-97696352D02*
X161619595Y-97629828D01*
X161619595Y-97629828D02*
X161613548Y-97617733D01*
X161613548Y-97617733D02*
X161601452Y-97611685D01*
X161601452Y-97611685D02*
X161583309Y-97611685D01*
X161583309Y-97611685D02*
X161571214Y-97617733D01*
X161571214Y-97617733D02*
X161565167Y-97623781D01*
X161661929Y-97611685D02*
X161710310Y-97611685D01*
X161680072Y-97569352D02*
X161680072Y-97678209D01*
X161680072Y-97678209D02*
X161686119Y-97690305D01*
X161686119Y-97690305D02*
X161698214Y-97696352D01*
X161698214Y-97696352D02*
X161710310Y-97696352D01*
X161843357Y-97581447D02*
X161849405Y-97575400D01*
X161849405Y-97575400D02*
X161861500Y-97569352D01*
X161861500Y-97569352D02*
X161891738Y-97569352D01*
X161891738Y-97569352D02*
X161903833Y-97575400D01*
X161903833Y-97575400D02*
X161909881Y-97581447D01*
X161909881Y-97581447D02*
X161915928Y-97593543D01*
X161915928Y-97593543D02*
X161915928Y-97605638D01*
X161915928Y-97605638D02*
X161909881Y-97623781D01*
X161909881Y-97623781D02*
X161837309Y-97696352D01*
X161837309Y-97696352D02*
X161915928Y-97696352D01*
X161994547Y-97569352D02*
X162006642Y-97569352D01*
X162006642Y-97569352D02*
X162018738Y-97575400D01*
X162018738Y-97575400D02*
X162024785Y-97581447D01*
X162024785Y-97581447D02*
X162030833Y-97593543D01*
X162030833Y-97593543D02*
X162036880Y-97617733D01*
X162036880Y-97617733D02*
X162036880Y-97647971D01*
X162036880Y-97647971D02*
X162030833Y-97672162D01*
X162030833Y-97672162D02*
X162024785Y-97684257D01*
X162024785Y-97684257D02*
X162018738Y-97690305D01*
X162018738Y-97690305D02*
X162006642Y-97696352D01*
X162006642Y-97696352D02*
X161994547Y-97696352D01*
X161994547Y-97696352D02*
X161982452Y-97690305D01*
X161982452Y-97690305D02*
X161976404Y-97684257D01*
X161976404Y-97684257D02*
X161970357Y-97672162D01*
X161970357Y-97672162D02*
X161964309Y-97647971D01*
X161964309Y-97647971D02*
X161964309Y-97617733D01*
X161964309Y-97617733D02*
X161970357Y-97593543D01*
X161970357Y-97593543D02*
X161976404Y-97581447D01*
X161976404Y-97581447D02*
X161982452Y-97575400D01*
X161982452Y-97575400D02*
X161994547Y-97569352D01*
X162085261Y-97581447D02*
X162091309Y-97575400D01*
X162091309Y-97575400D02*
X162103404Y-97569352D01*
X162103404Y-97569352D02*
X162133642Y-97569352D01*
X162133642Y-97569352D02*
X162145737Y-97575400D01*
X162145737Y-97575400D02*
X162151785Y-97581447D01*
X162151785Y-97581447D02*
X162157832Y-97593543D01*
X162157832Y-97593543D02*
X162157832Y-97605638D01*
X162157832Y-97605638D02*
X162151785Y-97623781D01*
X162151785Y-97623781D02*
X162079213Y-97696352D01*
X162079213Y-97696352D02*
X162157832Y-97696352D01*
X162278784Y-97696352D02*
X162206213Y-97696352D01*
X162242499Y-97696352D02*
X162242499Y-97569352D01*
X162242499Y-97569352D02*
X162230403Y-97587495D01*
X162230403Y-97587495D02*
X162218308Y-97599590D01*
X162218308Y-97599590D02*
X162206213Y-97605638D01*
X162423927Y-97660066D02*
X162484403Y-97660066D01*
X162411832Y-97696352D02*
X162454165Y-97569352D01*
X162454165Y-97569352D02*
X162496498Y-97696352D01*
X162593260Y-97690305D02*
X162581165Y-97696352D01*
X162581165Y-97696352D02*
X162556974Y-97696352D01*
X162556974Y-97696352D02*
X162544879Y-97690305D01*
X162544879Y-97690305D02*
X162538832Y-97684257D01*
X162538832Y-97684257D02*
X162532784Y-97672162D01*
X162532784Y-97672162D02*
X162532784Y-97635876D01*
X162532784Y-97635876D02*
X162538832Y-97623781D01*
X162538832Y-97623781D02*
X162544879Y-97617733D01*
X162544879Y-97617733D02*
X162556974Y-97611685D01*
X162556974Y-97611685D02*
X162581165Y-97611685D01*
X162581165Y-97611685D02*
X162593260Y-97617733D01*
X162702117Y-97690305D02*
X162690022Y-97696352D01*
X162690022Y-97696352D02*
X162665831Y-97696352D01*
X162665831Y-97696352D02*
X162653736Y-97690305D01*
X162653736Y-97690305D02*
X162647689Y-97684257D01*
X162647689Y-97684257D02*
X162641641Y-97672162D01*
X162641641Y-97672162D02*
X162641641Y-97635876D01*
X162641641Y-97635876D02*
X162647689Y-97623781D01*
X162647689Y-97623781D02*
X162653736Y-97617733D01*
X162653736Y-97617733D02*
X162665831Y-97611685D01*
X162665831Y-97611685D02*
X162690022Y-97611685D01*
X162690022Y-97611685D02*
X162702117Y-97617733D01*
X162804927Y-97690305D02*
X162792831Y-97696352D01*
X162792831Y-97696352D02*
X162768641Y-97696352D01*
X162768641Y-97696352D02*
X162756546Y-97690305D01*
X162756546Y-97690305D02*
X162750498Y-97678209D01*
X162750498Y-97678209D02*
X162750498Y-97629828D01*
X162750498Y-97629828D02*
X162756546Y-97617733D01*
X162756546Y-97617733D02*
X162768641Y-97611685D01*
X162768641Y-97611685D02*
X162792831Y-97611685D01*
X162792831Y-97611685D02*
X162804927Y-97617733D01*
X162804927Y-97617733D02*
X162810974Y-97629828D01*
X162810974Y-97629828D02*
X162810974Y-97641924D01*
X162810974Y-97641924D02*
X162750498Y-97654019D01*
X162883545Y-97696352D02*
X162871450Y-97690305D01*
X162871450Y-97690305D02*
X162865403Y-97678209D01*
X162865403Y-97678209D02*
X162865403Y-97569352D01*
X162980308Y-97690305D02*
X162968212Y-97696352D01*
X162968212Y-97696352D02*
X162944022Y-97696352D01*
X162944022Y-97696352D02*
X162931927Y-97690305D01*
X162931927Y-97690305D02*
X162925879Y-97678209D01*
X162925879Y-97678209D02*
X162925879Y-97629828D01*
X162925879Y-97629828D02*
X162931927Y-97617733D01*
X162931927Y-97617733D02*
X162944022Y-97611685D01*
X162944022Y-97611685D02*
X162968212Y-97611685D01*
X162968212Y-97611685D02*
X162980308Y-97617733D01*
X162980308Y-97617733D02*
X162986355Y-97629828D01*
X162986355Y-97629828D02*
X162986355Y-97641924D01*
X162986355Y-97641924D02*
X162925879Y-97654019D01*
X163040784Y-97696352D02*
X163040784Y-97611685D01*
X163040784Y-97635876D02*
X163046831Y-97623781D01*
X163046831Y-97623781D02*
X163052879Y-97617733D01*
X163052879Y-97617733D02*
X163064974Y-97611685D01*
X163064974Y-97611685D02*
X163077069Y-97611685D01*
X163173831Y-97696352D02*
X163173831Y-97629828D01*
X163173831Y-97629828D02*
X163167784Y-97617733D01*
X163167784Y-97617733D02*
X163155688Y-97611685D01*
X163155688Y-97611685D02*
X163131498Y-97611685D01*
X163131498Y-97611685D02*
X163119403Y-97617733D01*
X163173831Y-97690305D02*
X163161736Y-97696352D01*
X163161736Y-97696352D02*
X163131498Y-97696352D01*
X163131498Y-97696352D02*
X163119403Y-97690305D01*
X163119403Y-97690305D02*
X163113355Y-97678209D01*
X163113355Y-97678209D02*
X163113355Y-97666114D01*
X163113355Y-97666114D02*
X163119403Y-97654019D01*
X163119403Y-97654019D02*
X163131498Y-97647971D01*
X163131498Y-97647971D02*
X163161736Y-97647971D01*
X163161736Y-97647971D02*
X163173831Y-97641924D01*
X163216165Y-97611685D02*
X163264546Y-97611685D01*
X163234308Y-97569352D02*
X163234308Y-97678209D01*
X163234308Y-97678209D02*
X163240355Y-97690305D01*
X163240355Y-97690305D02*
X163252450Y-97696352D01*
X163252450Y-97696352D02*
X163264546Y-97696352D01*
X163355260Y-97690305D02*
X163343164Y-97696352D01*
X163343164Y-97696352D02*
X163318974Y-97696352D01*
X163318974Y-97696352D02*
X163306879Y-97690305D01*
X163306879Y-97690305D02*
X163300831Y-97678209D01*
X163300831Y-97678209D02*
X163300831Y-97629828D01*
X163300831Y-97629828D02*
X163306879Y-97617733D01*
X163306879Y-97617733D02*
X163318974Y-97611685D01*
X163318974Y-97611685D02*
X163343164Y-97611685D01*
X163343164Y-97611685D02*
X163355260Y-97617733D01*
X163355260Y-97617733D02*
X163361307Y-97629828D01*
X163361307Y-97629828D02*
X163361307Y-97641924D01*
X163361307Y-97641924D02*
X163300831Y-97654019D01*
X163470164Y-97696352D02*
X163470164Y-97569352D01*
X163470164Y-97690305D02*
X163458069Y-97696352D01*
X163458069Y-97696352D02*
X163433878Y-97696352D01*
X163433878Y-97696352D02*
X163421783Y-97690305D01*
X163421783Y-97690305D02*
X163415736Y-97684257D01*
X163415736Y-97684257D02*
X163409688Y-97672162D01*
X163409688Y-97672162D02*
X163409688Y-97635876D01*
X163409688Y-97635876D02*
X163415736Y-97623781D01*
X163415736Y-97623781D02*
X163421783Y-97617733D01*
X163421783Y-97617733D02*
X163433878Y-97611685D01*
X163433878Y-97611685D02*
X163458069Y-97611685D01*
X163458069Y-97611685D02*
X163470164Y-97617733D01*
X163627403Y-97696352D02*
X163627403Y-97569352D01*
X163627403Y-97569352D02*
X163657641Y-97569352D01*
X163657641Y-97569352D02*
X163675784Y-97575400D01*
X163675784Y-97575400D02*
X163687879Y-97587495D01*
X163687879Y-97587495D02*
X163693926Y-97599590D01*
X163693926Y-97599590D02*
X163699974Y-97623781D01*
X163699974Y-97623781D02*
X163699974Y-97641924D01*
X163699974Y-97641924D02*
X163693926Y-97666114D01*
X163693926Y-97666114D02*
X163687879Y-97678209D01*
X163687879Y-97678209D02*
X163675784Y-97690305D01*
X163675784Y-97690305D02*
X163657641Y-97696352D01*
X163657641Y-97696352D02*
X163627403Y-97696352D01*
X163802784Y-97690305D02*
X163790688Y-97696352D01*
X163790688Y-97696352D02*
X163766498Y-97696352D01*
X163766498Y-97696352D02*
X163754403Y-97690305D01*
X163754403Y-97690305D02*
X163748355Y-97678209D01*
X163748355Y-97678209D02*
X163748355Y-97629828D01*
X163748355Y-97629828D02*
X163754403Y-97617733D01*
X163754403Y-97617733D02*
X163766498Y-97611685D01*
X163766498Y-97611685D02*
X163790688Y-97611685D01*
X163790688Y-97611685D02*
X163802784Y-97617733D01*
X163802784Y-97617733D02*
X163808831Y-97629828D01*
X163808831Y-97629828D02*
X163808831Y-97641924D01*
X163808831Y-97641924D02*
X163748355Y-97654019D01*
X163857212Y-97690305D02*
X163869307Y-97696352D01*
X163869307Y-97696352D02*
X163893498Y-97696352D01*
X163893498Y-97696352D02*
X163905593Y-97690305D01*
X163905593Y-97690305D02*
X163911641Y-97678209D01*
X163911641Y-97678209D02*
X163911641Y-97672162D01*
X163911641Y-97672162D02*
X163905593Y-97660066D01*
X163905593Y-97660066D02*
X163893498Y-97654019D01*
X163893498Y-97654019D02*
X163875355Y-97654019D01*
X163875355Y-97654019D02*
X163863260Y-97647971D01*
X163863260Y-97647971D02*
X163857212Y-97635876D01*
X163857212Y-97635876D02*
X163857212Y-97629828D01*
X163857212Y-97629828D02*
X163863260Y-97617733D01*
X163863260Y-97617733D02*
X163875355Y-97611685D01*
X163875355Y-97611685D02*
X163893498Y-97611685D01*
X163893498Y-97611685D02*
X163905593Y-97617733D01*
X163966070Y-97696352D02*
X163966070Y-97611685D01*
X163966070Y-97569352D02*
X163960022Y-97575400D01*
X163960022Y-97575400D02*
X163966070Y-97581447D01*
X163966070Y-97581447D02*
X163972117Y-97575400D01*
X163972117Y-97575400D02*
X163966070Y-97569352D01*
X163966070Y-97569352D02*
X163966070Y-97581447D01*
X164080974Y-97611685D02*
X164080974Y-97714495D01*
X164080974Y-97714495D02*
X164074927Y-97726590D01*
X164074927Y-97726590D02*
X164068879Y-97732638D01*
X164068879Y-97732638D02*
X164056784Y-97738685D01*
X164056784Y-97738685D02*
X164038641Y-97738685D01*
X164038641Y-97738685D02*
X164026546Y-97732638D01*
X164080974Y-97690305D02*
X164068879Y-97696352D01*
X164068879Y-97696352D02*
X164044688Y-97696352D01*
X164044688Y-97696352D02*
X164032593Y-97690305D01*
X164032593Y-97690305D02*
X164026546Y-97684257D01*
X164026546Y-97684257D02*
X164020498Y-97672162D01*
X164020498Y-97672162D02*
X164020498Y-97635876D01*
X164020498Y-97635876D02*
X164026546Y-97623781D01*
X164026546Y-97623781D02*
X164032593Y-97617733D01*
X164032593Y-97617733D02*
X164044688Y-97611685D01*
X164044688Y-97611685D02*
X164068879Y-97611685D01*
X164068879Y-97611685D02*
X164080974Y-97617733D01*
X164141451Y-97611685D02*
X164141451Y-97696352D01*
X164141451Y-97623781D02*
X164147498Y-97617733D01*
X164147498Y-97617733D02*
X164159593Y-97611685D01*
X164159593Y-97611685D02*
X164177736Y-97611685D01*
X164177736Y-97611685D02*
X164189832Y-97617733D01*
X164189832Y-97617733D02*
X164195879Y-97629828D01*
X164195879Y-97629828D02*
X164195879Y-97696352D01*
X164250308Y-97690305D02*
X164262403Y-97696352D01*
X164262403Y-97696352D02*
X164286594Y-97696352D01*
X164286594Y-97696352D02*
X164298689Y-97690305D01*
X164298689Y-97690305D02*
X164304737Y-97678209D01*
X164304737Y-97678209D02*
X164304737Y-97672162D01*
X164304737Y-97672162D02*
X164298689Y-97660066D01*
X164298689Y-97660066D02*
X164286594Y-97654019D01*
X164286594Y-97654019D02*
X164268451Y-97654019D01*
X164268451Y-97654019D02*
X164256356Y-97647971D01*
X164256356Y-97647971D02*
X164250308Y-97635876D01*
X164250308Y-97635876D02*
X164250308Y-97629828D01*
X164250308Y-97629828D02*
X164256356Y-97617733D01*
X164256356Y-97617733D02*
X164268451Y-97611685D01*
X164268451Y-97611685D02*
X164286594Y-97611685D01*
X164286594Y-97611685D02*
X164298689Y-97617733D01*
X164359166Y-97684257D02*
X164365213Y-97690305D01*
X164365213Y-97690305D02*
X164359166Y-97696352D01*
X164359166Y-97696352D02*
X164353118Y-97690305D01*
X164353118Y-97690305D02*
X164359166Y-97684257D01*
X164359166Y-97684257D02*
X164359166Y-97696352D01*
X164510356Y-97660066D02*
X164570832Y-97660066D01*
X164498261Y-97696352D02*
X164540594Y-97569352D01*
X164540594Y-97569352D02*
X164582927Y-97696352D01*
X164643403Y-97696352D02*
X164631308Y-97690305D01*
X164631308Y-97690305D02*
X164625261Y-97678209D01*
X164625261Y-97678209D02*
X164625261Y-97569352D01*
X164709927Y-97696352D02*
X164697832Y-97690305D01*
X164697832Y-97690305D02*
X164691785Y-97678209D01*
X164691785Y-97678209D02*
X164691785Y-97569352D01*
X164855071Y-97696352D02*
X164855071Y-97611685D01*
X164855071Y-97635876D02*
X164861118Y-97623781D01*
X164861118Y-97623781D02*
X164867166Y-97617733D01*
X164867166Y-97617733D02*
X164879261Y-97611685D01*
X164879261Y-97611685D02*
X164891356Y-97611685D01*
X164933690Y-97696352D02*
X164933690Y-97611685D01*
X164933690Y-97569352D02*
X164927642Y-97575400D01*
X164927642Y-97575400D02*
X164933690Y-97581447D01*
X164933690Y-97581447D02*
X164939737Y-97575400D01*
X164939737Y-97575400D02*
X164933690Y-97569352D01*
X164933690Y-97569352D02*
X164933690Y-97581447D01*
X165048594Y-97611685D02*
X165048594Y-97714495D01*
X165048594Y-97714495D02*
X165042547Y-97726590D01*
X165042547Y-97726590D02*
X165036499Y-97732638D01*
X165036499Y-97732638D02*
X165024404Y-97738685D01*
X165024404Y-97738685D02*
X165006261Y-97738685D01*
X165006261Y-97738685D02*
X164994166Y-97732638D01*
X165048594Y-97690305D02*
X165036499Y-97696352D01*
X165036499Y-97696352D02*
X165012308Y-97696352D01*
X165012308Y-97696352D02*
X165000213Y-97690305D01*
X165000213Y-97690305D02*
X164994166Y-97684257D01*
X164994166Y-97684257D02*
X164988118Y-97672162D01*
X164988118Y-97672162D02*
X164988118Y-97635876D01*
X164988118Y-97635876D02*
X164994166Y-97623781D01*
X164994166Y-97623781D02*
X165000213Y-97617733D01*
X165000213Y-97617733D02*
X165012308Y-97611685D01*
X165012308Y-97611685D02*
X165036499Y-97611685D01*
X165036499Y-97611685D02*
X165048594Y-97617733D01*
X165109071Y-97696352D02*
X165109071Y-97569352D01*
X165163499Y-97696352D02*
X165163499Y-97629828D01*
X165163499Y-97629828D02*
X165157452Y-97617733D01*
X165157452Y-97617733D02*
X165145356Y-97611685D01*
X165145356Y-97611685D02*
X165127213Y-97611685D01*
X165127213Y-97611685D02*
X165115118Y-97617733D01*
X165115118Y-97617733D02*
X165109071Y-97623781D01*
X165205833Y-97611685D02*
X165254214Y-97611685D01*
X165223976Y-97569352D02*
X165223976Y-97678209D01*
X165223976Y-97678209D02*
X165230023Y-97690305D01*
X165230023Y-97690305D02*
X165242118Y-97696352D01*
X165242118Y-97696352D02*
X165254214Y-97696352D01*
X165290499Y-97690305D02*
X165302594Y-97696352D01*
X165302594Y-97696352D02*
X165326785Y-97696352D01*
X165326785Y-97696352D02*
X165338880Y-97690305D01*
X165338880Y-97690305D02*
X165344928Y-97678209D01*
X165344928Y-97678209D02*
X165344928Y-97672162D01*
X165344928Y-97672162D02*
X165338880Y-97660066D01*
X165338880Y-97660066D02*
X165326785Y-97654019D01*
X165326785Y-97654019D02*
X165308642Y-97654019D01*
X165308642Y-97654019D02*
X165296547Y-97647971D01*
X165296547Y-97647971D02*
X165290499Y-97635876D01*
X165290499Y-97635876D02*
X165290499Y-97629828D01*
X165290499Y-97629828D02*
X165296547Y-97617733D01*
X165296547Y-97617733D02*
X165308642Y-97611685D01*
X165308642Y-97611685D02*
X165326785Y-97611685D01*
X165326785Y-97611685D02*
X165338880Y-97617733D01*
X165496119Y-97696352D02*
X165496119Y-97611685D01*
X165496119Y-97635876D02*
X165502166Y-97623781D01*
X165502166Y-97623781D02*
X165508214Y-97617733D01*
X165508214Y-97617733D02*
X165520309Y-97611685D01*
X165520309Y-97611685D02*
X165532404Y-97611685D01*
X165623119Y-97690305D02*
X165611023Y-97696352D01*
X165611023Y-97696352D02*
X165586833Y-97696352D01*
X165586833Y-97696352D02*
X165574738Y-97690305D01*
X165574738Y-97690305D02*
X165568690Y-97678209D01*
X165568690Y-97678209D02*
X165568690Y-97629828D01*
X165568690Y-97629828D02*
X165574738Y-97617733D01*
X165574738Y-97617733D02*
X165586833Y-97611685D01*
X165586833Y-97611685D02*
X165611023Y-97611685D01*
X165611023Y-97611685D02*
X165623119Y-97617733D01*
X165623119Y-97617733D02*
X165629166Y-97629828D01*
X165629166Y-97629828D02*
X165629166Y-97641924D01*
X165629166Y-97641924D02*
X165568690Y-97654019D01*
X165677547Y-97690305D02*
X165689642Y-97696352D01*
X165689642Y-97696352D02*
X165713833Y-97696352D01*
X165713833Y-97696352D02*
X165725928Y-97690305D01*
X165725928Y-97690305D02*
X165731976Y-97678209D01*
X165731976Y-97678209D02*
X165731976Y-97672162D01*
X165731976Y-97672162D02*
X165725928Y-97660066D01*
X165725928Y-97660066D02*
X165713833Y-97654019D01*
X165713833Y-97654019D02*
X165695690Y-97654019D01*
X165695690Y-97654019D02*
X165683595Y-97647971D01*
X165683595Y-97647971D02*
X165677547Y-97635876D01*
X165677547Y-97635876D02*
X165677547Y-97629828D01*
X165677547Y-97629828D02*
X165683595Y-97617733D01*
X165683595Y-97617733D02*
X165695690Y-97611685D01*
X165695690Y-97611685D02*
X165713833Y-97611685D01*
X165713833Y-97611685D02*
X165725928Y-97617733D01*
X165834786Y-97690305D02*
X165822690Y-97696352D01*
X165822690Y-97696352D02*
X165798500Y-97696352D01*
X165798500Y-97696352D02*
X165786405Y-97690305D01*
X165786405Y-97690305D02*
X165780357Y-97678209D01*
X165780357Y-97678209D02*
X165780357Y-97629828D01*
X165780357Y-97629828D02*
X165786405Y-97617733D01*
X165786405Y-97617733D02*
X165798500Y-97611685D01*
X165798500Y-97611685D02*
X165822690Y-97611685D01*
X165822690Y-97611685D02*
X165834786Y-97617733D01*
X165834786Y-97617733D02*
X165840833Y-97629828D01*
X165840833Y-97629828D02*
X165840833Y-97641924D01*
X165840833Y-97641924D02*
X165780357Y-97654019D01*
X165895262Y-97696352D02*
X165895262Y-97611685D01*
X165895262Y-97635876D02*
X165901309Y-97623781D01*
X165901309Y-97623781D02*
X165907357Y-97617733D01*
X165907357Y-97617733D02*
X165919452Y-97611685D01*
X165919452Y-97611685D02*
X165931547Y-97611685D01*
X165961785Y-97611685D02*
X165992023Y-97696352D01*
X165992023Y-97696352D02*
X166022262Y-97611685D01*
X166119024Y-97690305D02*
X166106928Y-97696352D01*
X166106928Y-97696352D02*
X166082738Y-97696352D01*
X166082738Y-97696352D02*
X166070643Y-97690305D01*
X166070643Y-97690305D02*
X166064595Y-97678209D01*
X166064595Y-97678209D02*
X166064595Y-97629828D01*
X166064595Y-97629828D02*
X166070643Y-97617733D01*
X166070643Y-97617733D02*
X166082738Y-97611685D01*
X166082738Y-97611685D02*
X166106928Y-97611685D01*
X166106928Y-97611685D02*
X166119024Y-97617733D01*
X166119024Y-97617733D02*
X166125071Y-97629828D01*
X166125071Y-97629828D02*
X166125071Y-97641924D01*
X166125071Y-97641924D02*
X166064595Y-97654019D01*
X166233928Y-97696352D02*
X166233928Y-97569352D01*
X166233928Y-97690305D02*
X166221833Y-97696352D01*
X166221833Y-97696352D02*
X166197642Y-97696352D01*
X166197642Y-97696352D02*
X166185547Y-97690305D01*
X166185547Y-97690305D02*
X166179500Y-97684257D01*
X166179500Y-97684257D02*
X166173452Y-97672162D01*
X166173452Y-97672162D02*
X166173452Y-97635876D01*
X166173452Y-97635876D02*
X166179500Y-97623781D01*
X166179500Y-97623781D02*
X166185547Y-97617733D01*
X166185547Y-97617733D02*
X166197642Y-97611685D01*
X166197642Y-97611685D02*
X166221833Y-97611685D01*
X166221833Y-97611685D02*
X166233928Y-97617733D01*
X166294405Y-97684257D02*
X166300452Y-97690305D01*
X166300452Y-97690305D02*
X166294405Y-97696352D01*
X166294405Y-97696352D02*
X166288357Y-97690305D01*
X166288357Y-97690305D02*
X166294405Y-97684257D01*
X166294405Y-97684257D02*
X166294405Y-97696352D01*
D11*
%TO.C,H3*%
X124220000Y-85090000D02*
G75*
G03*
X124220000Y-85090000I-3700000J0D01*
G01*
%TO.C,H2*%
X180357000Y-85090000D02*
G75*
G03*
X180357000Y-85090000I-3700000J0D01*
G01*
%TO.C,H1*%
X124220000Y-139725000D02*
G75*
G03*
X124220000Y-139725000I-3700000J0D01*
G01*
%TO.C,H4*%
X180357000Y-139750800D02*
G75*
G03*
X180357000Y-139750800I-3700000J0D01*
G01*
%TD*%
M02*
