%TF.GenerationSoftware,KiCad,Pcbnew,(7.0.0)*%
%TF.CreationDate,2023-03-21T01:24:05-04:00*%
%TF.ProjectId,PicoDMXStepper,5069636f-444d-4585-9374-65707065722e,v1*%
%TF.SameCoordinates,Original*%
%TF.FileFunction,Paste,Top*%
%TF.FilePolarity,Positive*%
%FSLAX46Y46*%
G04 Gerber Fmt 4.6, Leading zero omitted, Abs format (unit mm)*
G04 Created by KiCad (PCBNEW (7.0.0)) date 2023-03-21 01:24:05*
%MOMM*%
%LPD*%
G01*
G04 APERTURE LIST*
G04 Aperture macros list*
%AMRoundRect*
0 Rectangle with rounded corners*
0 $1 Rounding radius*
0 $2 $3 $4 $5 $6 $7 $8 $9 X,Y pos of 4 corners*
0 Add a 4 corners polygon primitive as box body*
4,1,4,$2,$3,$4,$5,$6,$7,$8,$9,$2,$3,0*
0 Add four circle primitives for the rounded corners*
1,1,$1+$1,$2,$3*
1,1,$1+$1,$4,$5*
1,1,$1+$1,$6,$7*
1,1,$1+$1,$8,$9*
0 Add four rect primitives between the rounded corners*
20,1,$1+$1,$2,$3,$4,$5,0*
20,1,$1+$1,$4,$5,$6,$7,0*
20,1,$1+$1,$6,$7,$8,$9,0*
20,1,$1+$1,$8,$9,$2,$3,0*%
G04 Aperture macros list end*
%ADD10RoundRect,0.150000X-0.825000X-0.150000X0.825000X-0.150000X0.825000X0.150000X-0.825000X0.150000X0*%
%ADD11RoundRect,0.237500X0.237500X-0.250000X0.237500X0.250000X-0.237500X0.250000X-0.237500X-0.250000X0*%
%ADD12R,0.800000X1.500000*%
%ADD13RoundRect,0.237500X-0.237500X0.250000X-0.237500X-0.250000X0.237500X-0.250000X0.237500X0.250000X0*%
%ADD14RoundRect,0.237500X-0.250000X-0.237500X0.250000X-0.237500X0.250000X0.237500X-0.250000X0.237500X0*%
%ADD15RoundRect,0.250001X1.999999X0.799999X-1.999999X0.799999X-1.999999X-0.799999X1.999999X-0.799999X0*%
%ADD16RoundRect,0.237500X-0.300000X-0.237500X0.300000X-0.237500X0.300000X0.237500X-0.300000X0.237500X0*%
%ADD17RoundRect,0.237500X0.250000X0.237500X-0.250000X0.237500X-0.250000X-0.237500X0.250000X-0.237500X0*%
%ADD18R,2.000000X1.500000*%
%ADD19R,2.000000X3.800000*%
%ADD20RoundRect,0.237500X0.237500X-0.287500X0.237500X0.287500X-0.237500X0.287500X-0.237500X-0.287500X0*%
G04 APERTURE END LIST*
D10*
%TO.C,U3*%
X124733291Y-111834991D03*
X124733291Y-113104991D03*
X124733291Y-114374991D03*
X124733291Y-115644991D03*
X119783291Y-115644991D03*
X119783291Y-114374991D03*
X119783291Y-113104991D03*
X119783291Y-111834991D03*
%TD*%
D11*
%TO.C,R3*%
X128241491Y-114627091D03*
X128241491Y-112802091D03*
%TD*%
D12*
%TO.C,U5*%
X125404424Y-103150999D03*
X124134424Y-103150999D03*
X124134424Y-96900999D03*
X125404424Y-96900999D03*
%TD*%
%TO.C,U4*%
X128614424Y-96880999D03*
X127344424Y-96880999D03*
X127344424Y-103130999D03*
X128614424Y-103130999D03*
%TD*%
D13*
%TO.C,R11*%
X125524425Y-92638500D03*
X125524425Y-94463500D03*
%TD*%
%TO.C,R10*%
X128674425Y-92598500D03*
X128674425Y-94423500D03*
%TD*%
D14*
%TO.C,R9*%
X137009500Y-90271600D03*
X138834500Y-90271600D03*
%TD*%
%TO.C,R8*%
X136986000Y-88468200D03*
X138811000Y-88468200D03*
%TD*%
%TO.C,R7*%
X138809100Y-86664800D03*
X136984100Y-86664800D03*
%TD*%
D15*
%TO.C,C1*%
X158944400Y-105855800D03*
X166144400Y-105855800D03*
%TD*%
D16*
%TO.C,C2*%
X155576100Y-91668600D03*
X157301100Y-91668600D03*
%TD*%
D11*
%TO.C,R1*%
X156591000Y-140942700D03*
X156591000Y-139117700D03*
%TD*%
D13*
%TO.C,R5*%
X117627400Y-115695100D03*
X117627400Y-113870100D03*
%TD*%
D17*
%TO.C,R6*%
X118035700Y-117297200D03*
X119860700Y-117297200D03*
%TD*%
D18*
%TO.C,U1*%
X161950799Y-95032799D03*
D19*
X155650799Y-97332799D03*
D18*
X161950799Y-97332799D03*
X161950799Y-99632799D03*
%TD*%
D20*
%TO.C,D1*%
X156591000Y-135505200D03*
X156591000Y-137255200D03*
%TD*%
D17*
%TO.C,R4*%
X128798391Y-111098391D03*
X126973391Y-111098391D03*
%TD*%
D14*
%TO.C,R2*%
X128696791Y-116356191D03*
X126871791Y-116356191D03*
%TD*%
M02*
