G04 #@! TF.GenerationSoftware,KiCad,Pcbnew,(6.0.4)*
G04 #@! TF.CreationDate,2022-05-02T19:54:18-04:00*
G04 #@! TF.ProjectId,Power_Breakout,506f7765-725f-4427-9265-616b6f75742e,v1*
G04 #@! TF.SameCoordinates,Original*
G04 #@! TF.FileFunction,Soldermask,Top*
G04 #@! TF.FilePolarity,Negative*
%FSLAX46Y46*%
G04 Gerber Fmt 4.6, Leading zero omitted, Abs format (unit mm)*
G04 Created by KiCad (PCBNEW (6.0.4)) date 2022-05-02 19:54:18*
%MOMM*%
%LPD*%
G01*
G04 APERTURE LIST*
G04 Aperture macros list*
%AMRoundRect*
0 Rectangle with rounded corners*
0 $1 Rounding radius*
0 $2 $3 $4 $5 $6 $7 $8 $9 X,Y pos of 4 corners*
0 Add a 4 corners polygon primitive as box body*
4,1,4,$2,$3,$4,$5,$6,$7,$8,$9,$2,$3,0*
0 Add four circle primitives for the rounded corners*
1,1,$1+$1,$2,$3*
1,1,$1+$1,$4,$5*
1,1,$1+$1,$6,$7*
1,1,$1+$1,$8,$9*
0 Add four rect primitives between the rounded corners*
20,1,$1+$1,$2,$3,$4,$5,0*
20,1,$1+$1,$4,$5,$6,$7,0*
20,1,$1+$1,$6,$7,$8,$9,0*
20,1,$1+$1,$8,$9,$2,$3,0*%
G04 Aperture macros list end*
%ADD10RoundRect,0.301000X0.450000X-0.350000X0.450000X0.350000X-0.450000X0.350000X-0.450000X-0.350000X0*%
%ADD11RoundRect,0.301000X0.450000X-0.325000X0.450000X0.325000X-0.450000X0.325000X-0.450000X-0.325000X0*%
%ADD12RoundRect,0.301000X-0.450000X0.350000X-0.450000X-0.350000X0.450000X-0.350000X0.450000X0.350000X0*%
%ADD13RoundRect,0.051000X-0.765000X-0.765000X0.765000X-0.765000X0.765000X0.765000X-0.765000X0.765000X0*%
%ADD14C,1.632000*%
%ADD15RoundRect,0.301000X-0.650000X-1.550000X0.650000X-1.550000X0.650000X1.550000X-0.650000X1.550000X0*%
%ADD16O,1.902000X3.702000*%
%ADD17C,2.577000*%
%ADD18RoundRect,0.051000X0.850000X0.850000X-0.850000X0.850000X-0.850000X-0.850000X0.850000X-0.850000X0*%
%ADD19O,1.802000X1.802000*%
%ADD20RoundRect,0.051000X0.750000X-0.500000X0.750000X0.500000X-0.750000X0.500000X-0.750000X-0.500000X0*%
G04 APERTURE END LIST*
D10*
X191700000Y-150250000D03*
X191700000Y-148250000D03*
D11*
X160400000Y-146850000D03*
X160400000Y-144800000D03*
D12*
X160400000Y-140900000D03*
X160400000Y-142900000D03*
D13*
X120396000Y-159671400D03*
D14*
X122936000Y-159671400D03*
X125476000Y-159671400D03*
X128016000Y-159671400D03*
X130556000Y-159671400D03*
X133096000Y-159671400D03*
X135636000Y-159671400D03*
X138176000Y-159671400D03*
X140716000Y-159671400D03*
X143256000Y-159671400D03*
X145796000Y-159671400D03*
X148336000Y-159671400D03*
X150876000Y-159671400D03*
X153416000Y-159671400D03*
X155956000Y-159671400D03*
X158496000Y-159671400D03*
X161036000Y-159671400D03*
X163576000Y-159671400D03*
X166116000Y-159671400D03*
X168656000Y-159671400D03*
X171196000Y-159671400D03*
X173736000Y-159671400D03*
X176276000Y-159671400D03*
X178816000Y-159671400D03*
X181356000Y-159671400D03*
X183896000Y-159671400D03*
X186436000Y-159671400D03*
X188976000Y-159671400D03*
X191516000Y-159671400D03*
X194056000Y-159671400D03*
X196596000Y-159671400D03*
X199136000Y-159671400D03*
X199136000Y-154831400D03*
X196596000Y-154831400D03*
X194056000Y-154831400D03*
X191516000Y-154831400D03*
X188976000Y-154831400D03*
X186436000Y-154831400D03*
X183896000Y-154831400D03*
X181356000Y-154831400D03*
X178816000Y-154831400D03*
X176276000Y-154831400D03*
X173736000Y-154831400D03*
X171196000Y-154831400D03*
X168656000Y-154831400D03*
X166116000Y-154831400D03*
X163576000Y-154831400D03*
X161036000Y-154831400D03*
X158496000Y-154831400D03*
X155956000Y-154831400D03*
X153416000Y-154831400D03*
X150876000Y-154831400D03*
X148336000Y-154831400D03*
X145796000Y-154831400D03*
X143256000Y-154831400D03*
X140716000Y-154831400D03*
X138176000Y-154831400D03*
X135636000Y-154831400D03*
X133096000Y-154831400D03*
X130556000Y-154831400D03*
X128016000Y-154831400D03*
X125476000Y-154831400D03*
X122936000Y-154831400D03*
X120396000Y-154831400D03*
D15*
X163687500Y-127950000D03*
D16*
X168767500Y-127950000D03*
X173847500Y-127950000D03*
X178927500Y-127950000D03*
X184007500Y-127950000D03*
X189087500Y-127950000D03*
X194167500Y-127950000D03*
X199247500Y-127950000D03*
D17*
X135200000Y-147350000D03*
X135200000Y-143650000D03*
X135200000Y-139150000D03*
X135200000Y-135450000D03*
X124800000Y-147350000D03*
X124800000Y-143650000D03*
X124800000Y-139150000D03*
X124800000Y-135450000D03*
X150800000Y-147366790D03*
X150800000Y-143666790D03*
X150800000Y-139166790D03*
X150800000Y-135466790D03*
D15*
X120000000Y-127950000D03*
D16*
X125080000Y-127950000D03*
X130160000Y-127950000D03*
X135240000Y-127950000D03*
X140320000Y-127950000D03*
X145400000Y-127950000D03*
X150480000Y-127950000D03*
X155560000Y-127950000D03*
D17*
X140400000Y-147366790D03*
X140400000Y-143666790D03*
X140400000Y-139166790D03*
X140400000Y-135466790D03*
X145600000Y-147366790D03*
X145600000Y-143666790D03*
X145600000Y-139166790D03*
X145600000Y-135466790D03*
X119600000Y-147350000D03*
X119600000Y-143650000D03*
X119600000Y-139150000D03*
X119600000Y-135450000D03*
X156000000Y-147366790D03*
X156000000Y-143666790D03*
X156000000Y-139166790D03*
X156000000Y-135466790D03*
D18*
X200650000Y-149875000D03*
D19*
X200650000Y-147335000D03*
D17*
X130000000Y-147350000D03*
X130000000Y-143650000D03*
X130000000Y-139150000D03*
X130000000Y-135450000D03*
D20*
X197500000Y-149450000D03*
X197500000Y-148150000D03*
G36*
X198266668Y-148696665D02*
G01*
X198267058Y-148698627D01*
X198266699Y-148699267D01*
X198223511Y-148750946D01*
X198214880Y-148819661D01*
X198244844Y-148882291D01*
X198265682Y-148900348D01*
X198266336Y-148902238D01*
X198265026Y-148903749D01*
X198263982Y-148903821D01*
X198249801Y-148901000D01*
X196750199Y-148901000D01*
X196735226Y-148903978D01*
X196733332Y-148903335D01*
X196732942Y-148901373D01*
X196733301Y-148900733D01*
X196776489Y-148849054D01*
X196785120Y-148780339D01*
X196755156Y-148717709D01*
X196734318Y-148699652D01*
X196733664Y-148697762D01*
X196734974Y-148696251D01*
X196736018Y-148696179D01*
X196750199Y-148699000D01*
X198249801Y-148699000D01*
X198264774Y-148696022D01*
X198266668Y-148696665D01*
G37*
M02*
