M48
; DRILL file {KiCad (6.0.4)} date Mon May  2 19:54:16 2022
; FORMAT={-:-/ absolute / metric / decimal}
; #@! TF.CreationDate,2022-05-02T19:54:16-04:00
; #@! TF.GenerationSoftware,Kicad,Pcbnew,(6.0.4)
; #@! TF.FileFunction,Plated,1,2,PTH
FMAT,2
METRIC
; #@! TA.AperFunction,Plated,PTH,ComponentDrill
T1C1.000
; #@! TA.AperFunction,Plated,PTH,ComponentDrill
T2C1.020
; #@! TA.AperFunction,Plated,PTH,ComponentDrill
T3C1.200
; #@! TA.AperFunction,Plated,PTH,ComponentDrill
T4C1.650
%
G90
G05
T1
X200.65Y-147.335
X200.65Y-149.875
T2
X120.396Y-154.831
X120.396Y-159.671
X122.936Y-154.831
X122.936Y-159.671
X125.476Y-154.831
X125.476Y-159.671
X128.016Y-154.831
X128.016Y-159.671
X130.556Y-154.831
X130.556Y-159.671
X133.096Y-154.831
X133.096Y-159.671
X135.636Y-154.831
X135.636Y-159.671
X138.176Y-154.831
X138.176Y-159.671
X140.716Y-154.831
X140.716Y-159.671
X143.256Y-154.831
X143.256Y-159.671
X145.796Y-154.831
X145.796Y-159.671
X148.336Y-154.831
X148.336Y-159.671
X150.876Y-154.831
X150.876Y-159.671
X153.416Y-154.831
X153.416Y-159.671
X155.956Y-154.831
X155.956Y-159.671
X158.496Y-154.831
X158.496Y-159.671
X161.036Y-154.831
X161.036Y-159.671
X163.576Y-154.831
X163.576Y-159.671
X166.116Y-154.831
X166.116Y-159.671
X168.656Y-154.831
X168.656Y-159.671
X171.196Y-154.831
X171.196Y-159.671
X173.736Y-154.831
X173.736Y-159.671
X176.276Y-154.831
X176.276Y-159.671
X178.816Y-154.831
X178.816Y-159.671
X181.356Y-154.831
X181.356Y-159.671
X183.896Y-154.831
X183.896Y-159.671
X186.436Y-154.831
X186.436Y-159.671
X188.976Y-154.831
X188.976Y-159.671
X191.516Y-154.831
X191.516Y-159.671
X194.056Y-154.831
X194.056Y-159.671
X196.596Y-154.831
X196.596Y-159.671
X199.136Y-154.831
X199.136Y-159.671
T3
X120.0Y-127.95
X125.08Y-127.95
X130.16Y-127.95
X135.24Y-127.95
X140.32Y-127.95
X145.4Y-127.95
X150.48Y-127.95
X155.56Y-127.95
X163.688Y-127.95
X168.767Y-127.95
X173.847Y-127.95
X178.927Y-127.95
X184.007Y-127.95
X189.087Y-127.95
X194.167Y-127.95
X199.248Y-127.95
T4
X119.6Y-135.45
X119.6Y-139.15
X119.6Y-143.65
X119.6Y-147.35
X124.8Y-135.45
X124.8Y-139.15
X124.8Y-143.65
X124.8Y-147.35
X130.0Y-135.45
X130.0Y-139.15
X130.0Y-143.65
X130.0Y-147.35
X135.2Y-135.45
X135.2Y-139.15
X135.2Y-143.65
X135.2Y-147.35
X140.4Y-135.467
X140.4Y-139.167
X140.4Y-143.667
X140.4Y-147.367
X145.6Y-135.467
X145.6Y-139.167
X145.6Y-143.667
X145.6Y-147.367
X150.8Y-135.467
X150.8Y-139.167
X150.8Y-143.667
X150.8Y-147.367
X156.0Y-135.467
X156.0Y-139.167
X156.0Y-143.667
X156.0Y-147.367
T0
M30
