G04 #@! TF.GenerationSoftware,KiCad,Pcbnew,(5.1.5)-3*
G04 #@! TF.CreationDate,2020-03-05T21:03:10-05:00*
G04 #@! TF.ProjectId,Power_Breakout,506f7765-725f-4427-9265-616b6f75742e,v1*
G04 #@! TF.SameCoordinates,Original*
G04 #@! TF.FileFunction,Copper,L1,Top*
G04 #@! TF.FilePolarity,Positive*
%FSLAX46Y46*%
G04 Gerber Fmt 4.6, Leading zero omitted, Abs format (unit mm)*
G04 Created by KiCad (PCBNEW (5.1.5)-3) date 2020-03-05 21:03:10*
%MOMM*%
%LPD*%
G04 APERTURE LIST*
%ADD10C,1.998980*%
%ADD11O,1.600000X1.600000*%
%ADD12C,1.600000*%
%ADD13C,1.530000*%
%ADD14R,1.530000X1.530000*%
%ADD15C,4.000000*%
%ADD16R,4.000000X4.000000*%
%ADD17C,0.250000*%
%ADD18C,0.200000*%
G04 APERTURE END LIST*
D10*
X116078000Y-146263360D03*
X116078000Y-143764000D03*
X116078000Y-141264640D03*
D11*
X119507000Y-140716000D03*
D12*
X119507000Y-148336000D03*
D13*
X197739000Y-154933000D03*
X195199000Y-154933000D03*
X192659000Y-154933000D03*
X190119000Y-154933000D03*
X187579000Y-154933000D03*
X185039000Y-154933000D03*
X182499000Y-154933000D03*
X179959000Y-154933000D03*
X177419000Y-154933000D03*
X174879000Y-154933000D03*
X172339000Y-154933000D03*
X169799000Y-154933000D03*
X167259000Y-154933000D03*
X164719000Y-154933000D03*
X162179000Y-154933000D03*
X159639000Y-154933000D03*
X157099000Y-154933000D03*
X154559000Y-154933000D03*
X152019000Y-154933000D03*
X149479000Y-154933000D03*
X146939000Y-154933000D03*
X144399000Y-154933000D03*
X141859000Y-154933000D03*
X139319000Y-154933000D03*
X136779000Y-154933000D03*
X134239000Y-154933000D03*
X131699000Y-154933000D03*
X129159000Y-154933000D03*
X126619000Y-154933000D03*
X124079000Y-154933000D03*
X121539000Y-154933000D03*
X118999000Y-154933000D03*
X118999000Y-159773000D03*
X121539000Y-159773000D03*
X124079000Y-159773000D03*
X126619000Y-159773000D03*
X129159000Y-159773000D03*
X131699000Y-159773000D03*
X134239000Y-159773000D03*
X136779000Y-159773000D03*
X139319000Y-159773000D03*
X141859000Y-159773000D03*
X144399000Y-159773000D03*
X146939000Y-159773000D03*
X149479000Y-159773000D03*
X152019000Y-159773000D03*
X154559000Y-159773000D03*
X157099000Y-159773000D03*
X159639000Y-159773000D03*
X162179000Y-159773000D03*
X164719000Y-159773000D03*
X167259000Y-159773000D03*
X169799000Y-159773000D03*
X172339000Y-159773000D03*
X174879000Y-159773000D03*
X177419000Y-159773000D03*
X179959000Y-159773000D03*
X182499000Y-159773000D03*
X185039000Y-159773000D03*
X187579000Y-159773000D03*
X190119000Y-159773000D03*
X192659000Y-159773000D03*
X195199000Y-159773000D03*
D14*
X197739000Y-159773000D03*
D15*
X155993000Y-144300000D03*
X146493000Y-144300000D03*
X136993000Y-144300000D03*
D16*
X127493000Y-144300000D03*
D15*
X196760000Y-144300000D03*
X187260000Y-144300000D03*
X177760000Y-144300000D03*
D16*
X168260000Y-144300000D03*
D17*
X120022000Y-148336000D02*
X126619000Y-154933000D01*
X119507000Y-148336000D02*
X120022000Y-148336000D01*
X118234001Y-154168001D02*
X118999000Y-154933000D01*
X114173000Y-150107000D02*
X118234001Y-154168001D01*
X116078000Y-141264640D02*
X114173000Y-143169640D01*
X114173000Y-143169640D02*
X114173000Y-150107000D01*
X116459000Y-143764000D02*
X119507000Y-140716000D01*
X116078000Y-143764000D02*
X116459000Y-143764000D01*
D18*
G36*
X202227080Y-136672834D02*
G01*
X202444065Y-136835267D01*
X202635733Y-137026935D01*
X202798166Y-137243920D01*
X202925001Y-137476200D01*
X202925000Y-161354801D01*
X202798166Y-161587080D01*
X202635733Y-161804065D01*
X202444065Y-161995733D01*
X202227080Y-162158166D01*
X201994801Y-162285000D01*
X167702199Y-162285000D01*
X167469920Y-162158166D01*
X167252935Y-161995733D01*
X167061267Y-161804065D01*
X166898834Y-161587080D01*
X166768931Y-161349181D01*
X166674210Y-161095223D01*
X166623856Y-160863755D01*
X166678895Y-160918794D01*
X166810918Y-160786770D01*
X166904600Y-160941309D01*
X167139336Y-160988001D01*
X167378670Y-160988001D01*
X167613400Y-160941309D01*
X167707083Y-160786768D01*
X169350917Y-160786768D01*
X169444600Y-160941309D01*
X169679336Y-160988001D01*
X169918670Y-160988001D01*
X170153400Y-160941309D01*
X170247083Y-160786768D01*
X171890917Y-160786768D01*
X171984600Y-160941309D01*
X172219336Y-160988001D01*
X172458670Y-160988001D01*
X172693400Y-160941309D01*
X172787083Y-160786768D01*
X174430917Y-160786768D01*
X174524600Y-160941309D01*
X174759336Y-160988001D01*
X174998670Y-160988001D01*
X175233400Y-160941309D01*
X175327083Y-160786768D01*
X176970917Y-160786768D01*
X177064600Y-160941309D01*
X177299336Y-160988001D01*
X177538670Y-160988001D01*
X177773400Y-160941309D01*
X177867083Y-160786768D01*
X179510917Y-160786768D01*
X179604600Y-160941309D01*
X179839336Y-160988001D01*
X180078670Y-160988001D01*
X180313400Y-160941309D01*
X180407083Y-160786768D01*
X182050917Y-160786768D01*
X182144600Y-160941309D01*
X182379336Y-160988001D01*
X182618670Y-160988001D01*
X182853400Y-160941309D01*
X182947083Y-160786768D01*
X184590917Y-160786768D01*
X184684600Y-160941309D01*
X184919336Y-160988001D01*
X185158670Y-160988001D01*
X185393400Y-160941309D01*
X185487083Y-160786768D01*
X187130917Y-160786768D01*
X187224600Y-160941309D01*
X187459336Y-160988001D01*
X187698670Y-160988001D01*
X187933400Y-160941309D01*
X188027083Y-160786768D01*
X189670917Y-160786768D01*
X189764600Y-160941309D01*
X189999336Y-160988001D01*
X190238670Y-160988001D01*
X190473400Y-160941309D01*
X190567083Y-160786768D01*
X192210917Y-160786768D01*
X192304600Y-160941309D01*
X192539336Y-160988001D01*
X192778670Y-160988001D01*
X193013400Y-160941309D01*
X193107083Y-160786768D01*
X194750917Y-160786768D01*
X194844600Y-160941309D01*
X195079336Y-160988001D01*
X195318670Y-160988001D01*
X195553400Y-160941309D01*
X195647083Y-160786768D01*
X195398315Y-160538000D01*
X196521823Y-160538000D01*
X196530511Y-160626215D01*
X196556243Y-160711041D01*
X196598029Y-160789216D01*
X196654263Y-160857737D01*
X196722784Y-160913971D01*
X196800959Y-160955757D01*
X196885785Y-160981489D01*
X196974000Y-160990177D01*
X197226500Y-160988000D01*
X197339000Y-160875500D01*
X197339000Y-160173000D01*
X198139000Y-160173000D01*
X198139000Y-160875500D01*
X198251500Y-160988000D01*
X198504000Y-160990177D01*
X198592215Y-160981489D01*
X198677041Y-160955757D01*
X198755216Y-160913971D01*
X198823737Y-160857737D01*
X198879971Y-160789216D01*
X198921757Y-160711041D01*
X198947489Y-160626215D01*
X198956177Y-160538000D01*
X198954000Y-160285500D01*
X198841500Y-160173000D01*
X198139000Y-160173000D01*
X197339000Y-160173000D01*
X196636500Y-160173000D01*
X196524000Y-160285500D01*
X196521823Y-160538000D01*
X195398315Y-160538000D01*
X195199000Y-160338685D01*
X194750917Y-160786768D01*
X193107083Y-160786768D01*
X192659000Y-160338685D01*
X192210917Y-160786768D01*
X190567083Y-160786768D01*
X190119000Y-160338685D01*
X189670917Y-160786768D01*
X188027083Y-160786768D01*
X187579000Y-160338685D01*
X187130917Y-160786768D01*
X185487083Y-160786768D01*
X185039000Y-160338685D01*
X184590917Y-160786768D01*
X182947083Y-160786768D01*
X182499000Y-160338685D01*
X182050917Y-160786768D01*
X180407083Y-160786768D01*
X179959000Y-160338685D01*
X179510917Y-160786768D01*
X177867083Y-160786768D01*
X177419000Y-160338685D01*
X176970917Y-160786768D01*
X175327083Y-160786768D01*
X174879000Y-160338685D01*
X174430917Y-160786768D01*
X172787083Y-160786768D01*
X172339000Y-160338685D01*
X171890917Y-160786768D01*
X170247083Y-160786768D01*
X169799000Y-160338685D01*
X169350917Y-160786768D01*
X167707083Y-160786768D01*
X167259000Y-160338685D01*
X167244858Y-160352828D01*
X166679173Y-159787143D01*
X166693315Y-159773000D01*
X167824685Y-159773000D01*
X168272768Y-160221083D01*
X168427309Y-160127400D01*
X168474001Y-159892664D01*
X168474001Y-159653336D01*
X168583999Y-159653336D01*
X168583999Y-159892670D01*
X168630691Y-160127400D01*
X168785232Y-160221083D01*
X169233315Y-159773000D01*
X170364685Y-159773000D01*
X170812768Y-160221083D01*
X170967309Y-160127400D01*
X171014001Y-159892664D01*
X171014001Y-159653336D01*
X171123999Y-159653336D01*
X171123999Y-159892670D01*
X171170691Y-160127400D01*
X171325232Y-160221083D01*
X171773315Y-159773000D01*
X172904685Y-159773000D01*
X173352768Y-160221083D01*
X173507309Y-160127400D01*
X173554001Y-159892664D01*
X173554001Y-159653336D01*
X173663999Y-159653336D01*
X173663999Y-159892670D01*
X173710691Y-160127400D01*
X173865232Y-160221083D01*
X174313315Y-159773000D01*
X175444685Y-159773000D01*
X175892768Y-160221083D01*
X176047309Y-160127400D01*
X176094001Y-159892664D01*
X176094001Y-159653336D01*
X176203999Y-159653336D01*
X176203999Y-159892670D01*
X176250691Y-160127400D01*
X176405232Y-160221083D01*
X176853315Y-159773000D01*
X177984685Y-159773000D01*
X178432768Y-160221083D01*
X178587309Y-160127400D01*
X178634001Y-159892664D01*
X178634001Y-159653336D01*
X178743999Y-159653336D01*
X178743999Y-159892670D01*
X178790691Y-160127400D01*
X178945232Y-160221083D01*
X179393315Y-159773000D01*
X180524685Y-159773000D01*
X180972768Y-160221083D01*
X181127309Y-160127400D01*
X181174001Y-159892664D01*
X181174001Y-159653336D01*
X181283999Y-159653336D01*
X181283999Y-159892670D01*
X181330691Y-160127400D01*
X181485232Y-160221083D01*
X181933315Y-159773000D01*
X183064685Y-159773000D01*
X183512768Y-160221083D01*
X183667309Y-160127400D01*
X183714001Y-159892664D01*
X183714001Y-159653336D01*
X183823999Y-159653336D01*
X183823999Y-159892670D01*
X183870691Y-160127400D01*
X184025232Y-160221083D01*
X184473315Y-159773000D01*
X185604685Y-159773000D01*
X186052768Y-160221083D01*
X186207309Y-160127400D01*
X186254001Y-159892664D01*
X186254001Y-159653336D01*
X186363999Y-159653336D01*
X186363999Y-159892670D01*
X186410691Y-160127400D01*
X186565232Y-160221083D01*
X187013315Y-159773000D01*
X188144685Y-159773000D01*
X188592768Y-160221083D01*
X188747309Y-160127400D01*
X188794001Y-159892664D01*
X188794001Y-159653336D01*
X188903999Y-159653336D01*
X188903999Y-159892670D01*
X188950691Y-160127400D01*
X189105232Y-160221083D01*
X189553315Y-159773000D01*
X190684685Y-159773000D01*
X191132768Y-160221083D01*
X191287309Y-160127400D01*
X191334001Y-159892664D01*
X191334001Y-159653336D01*
X191443999Y-159653336D01*
X191443999Y-159892670D01*
X191490691Y-160127400D01*
X191645232Y-160221083D01*
X192093315Y-159773000D01*
X193224685Y-159773000D01*
X193672768Y-160221083D01*
X193827309Y-160127400D01*
X193874001Y-159892664D01*
X193874001Y-159653336D01*
X193983999Y-159653336D01*
X193983999Y-159892670D01*
X194030691Y-160127400D01*
X194185232Y-160221083D01*
X194633315Y-159773000D01*
X195764685Y-159773000D01*
X196212768Y-160221083D01*
X196367309Y-160127400D01*
X196414001Y-159892664D01*
X196414001Y-159653330D01*
X196367309Y-159418600D01*
X196212768Y-159324917D01*
X195764685Y-159773000D01*
X194633315Y-159773000D01*
X194185232Y-159324917D01*
X194030691Y-159418600D01*
X193983999Y-159653336D01*
X193874001Y-159653336D01*
X193874001Y-159653330D01*
X193827309Y-159418600D01*
X193672768Y-159324917D01*
X193224685Y-159773000D01*
X192093315Y-159773000D01*
X191645232Y-159324917D01*
X191490691Y-159418600D01*
X191443999Y-159653336D01*
X191334001Y-159653336D01*
X191334001Y-159653330D01*
X191287309Y-159418600D01*
X191132768Y-159324917D01*
X190684685Y-159773000D01*
X189553315Y-159773000D01*
X189105232Y-159324917D01*
X188950691Y-159418600D01*
X188903999Y-159653336D01*
X188794001Y-159653336D01*
X188794001Y-159653330D01*
X188747309Y-159418600D01*
X188592768Y-159324917D01*
X188144685Y-159773000D01*
X187013315Y-159773000D01*
X186565232Y-159324917D01*
X186410691Y-159418600D01*
X186363999Y-159653336D01*
X186254001Y-159653336D01*
X186254001Y-159653330D01*
X186207309Y-159418600D01*
X186052768Y-159324917D01*
X185604685Y-159773000D01*
X184473315Y-159773000D01*
X184025232Y-159324917D01*
X183870691Y-159418600D01*
X183823999Y-159653336D01*
X183714001Y-159653336D01*
X183714001Y-159653330D01*
X183667309Y-159418600D01*
X183512768Y-159324917D01*
X183064685Y-159773000D01*
X181933315Y-159773000D01*
X181485232Y-159324917D01*
X181330691Y-159418600D01*
X181283999Y-159653336D01*
X181174001Y-159653336D01*
X181174001Y-159653330D01*
X181127309Y-159418600D01*
X180972768Y-159324917D01*
X180524685Y-159773000D01*
X179393315Y-159773000D01*
X178945232Y-159324917D01*
X178790691Y-159418600D01*
X178743999Y-159653336D01*
X178634001Y-159653336D01*
X178634001Y-159653330D01*
X178587309Y-159418600D01*
X178432768Y-159324917D01*
X177984685Y-159773000D01*
X176853315Y-159773000D01*
X176405232Y-159324917D01*
X176250691Y-159418600D01*
X176203999Y-159653336D01*
X176094001Y-159653336D01*
X176094001Y-159653330D01*
X176047309Y-159418600D01*
X175892768Y-159324917D01*
X175444685Y-159773000D01*
X174313315Y-159773000D01*
X173865232Y-159324917D01*
X173710691Y-159418600D01*
X173663999Y-159653336D01*
X173554001Y-159653336D01*
X173554001Y-159653330D01*
X173507309Y-159418600D01*
X173352768Y-159324917D01*
X172904685Y-159773000D01*
X171773315Y-159773000D01*
X171325232Y-159324917D01*
X171170691Y-159418600D01*
X171123999Y-159653336D01*
X171014001Y-159653336D01*
X171014001Y-159653330D01*
X170967309Y-159418600D01*
X170812768Y-159324917D01*
X170364685Y-159773000D01*
X169233315Y-159773000D01*
X168785232Y-159324917D01*
X168630691Y-159418600D01*
X168583999Y-159653336D01*
X168474001Y-159653336D01*
X168474001Y-159653330D01*
X168427309Y-159418600D01*
X168272768Y-159324917D01*
X167824685Y-159773000D01*
X166693315Y-159773000D01*
X166679173Y-159758858D01*
X167244858Y-159193173D01*
X167259000Y-159207315D01*
X167707083Y-158759232D01*
X169350917Y-158759232D01*
X169799000Y-159207315D01*
X170247083Y-158759232D01*
X171890917Y-158759232D01*
X172339000Y-159207315D01*
X172787083Y-158759232D01*
X174430917Y-158759232D01*
X174879000Y-159207315D01*
X175327083Y-158759232D01*
X176970917Y-158759232D01*
X177419000Y-159207315D01*
X177867083Y-158759232D01*
X179510917Y-158759232D01*
X179959000Y-159207315D01*
X180407083Y-158759232D01*
X182050917Y-158759232D01*
X182499000Y-159207315D01*
X182947083Y-158759232D01*
X184590917Y-158759232D01*
X185039000Y-159207315D01*
X185487083Y-158759232D01*
X187130917Y-158759232D01*
X187579000Y-159207315D01*
X188027083Y-158759232D01*
X189670917Y-158759232D01*
X190119000Y-159207315D01*
X190567083Y-158759232D01*
X192210917Y-158759232D01*
X192659000Y-159207315D01*
X193107083Y-158759232D01*
X194750917Y-158759232D01*
X195199000Y-159207315D01*
X195398315Y-159008000D01*
X196521823Y-159008000D01*
X196524000Y-159260500D01*
X196636500Y-159373000D01*
X197339000Y-159373000D01*
X197339000Y-158670500D01*
X198139000Y-158670500D01*
X198139000Y-159373000D01*
X198841500Y-159373000D01*
X198954000Y-159260500D01*
X198956177Y-159008000D01*
X198947489Y-158919785D01*
X198921757Y-158834959D01*
X198879971Y-158756784D01*
X198823737Y-158688263D01*
X198755216Y-158632029D01*
X198677041Y-158590243D01*
X198592215Y-158564511D01*
X198504000Y-158555823D01*
X198251500Y-158558000D01*
X198139000Y-158670500D01*
X197339000Y-158670500D01*
X197226500Y-158558000D01*
X196974000Y-158555823D01*
X196885785Y-158564511D01*
X196800959Y-158590243D01*
X196722784Y-158632029D01*
X196654263Y-158688263D01*
X196598029Y-158756784D01*
X196556243Y-158834959D01*
X196530511Y-158919785D01*
X196521823Y-159008000D01*
X195398315Y-159008000D01*
X195647083Y-158759232D01*
X195553400Y-158604691D01*
X195318664Y-158557999D01*
X195079330Y-158557999D01*
X194844600Y-158604691D01*
X194750917Y-158759232D01*
X193107083Y-158759232D01*
X193013400Y-158604691D01*
X192778664Y-158557999D01*
X192539330Y-158557999D01*
X192304600Y-158604691D01*
X192210917Y-158759232D01*
X190567083Y-158759232D01*
X190473400Y-158604691D01*
X190238664Y-158557999D01*
X189999330Y-158557999D01*
X189764600Y-158604691D01*
X189670917Y-158759232D01*
X188027083Y-158759232D01*
X187933400Y-158604691D01*
X187698664Y-158557999D01*
X187459330Y-158557999D01*
X187224600Y-158604691D01*
X187130917Y-158759232D01*
X185487083Y-158759232D01*
X185393400Y-158604691D01*
X185158664Y-158557999D01*
X184919330Y-158557999D01*
X184684600Y-158604691D01*
X184590917Y-158759232D01*
X182947083Y-158759232D01*
X182853400Y-158604691D01*
X182618664Y-158557999D01*
X182379330Y-158557999D01*
X182144600Y-158604691D01*
X182050917Y-158759232D01*
X180407083Y-158759232D01*
X180313400Y-158604691D01*
X180078664Y-158557999D01*
X179839330Y-158557999D01*
X179604600Y-158604691D01*
X179510917Y-158759232D01*
X177867083Y-158759232D01*
X177773400Y-158604691D01*
X177538664Y-158557999D01*
X177299330Y-158557999D01*
X177064600Y-158604691D01*
X176970917Y-158759232D01*
X175327083Y-158759232D01*
X175233400Y-158604691D01*
X174998664Y-158557999D01*
X174759330Y-158557999D01*
X174524600Y-158604691D01*
X174430917Y-158759232D01*
X172787083Y-158759232D01*
X172693400Y-158604691D01*
X172458664Y-158557999D01*
X172219330Y-158557999D01*
X171984600Y-158604691D01*
X171890917Y-158759232D01*
X170247083Y-158759232D01*
X170153400Y-158604691D01*
X169918664Y-158557999D01*
X169679330Y-158557999D01*
X169444600Y-158604691D01*
X169350917Y-158759232D01*
X167707083Y-158759232D01*
X167613400Y-158604691D01*
X167378664Y-158557999D01*
X167139330Y-158557999D01*
X166904600Y-158604691D01*
X166810918Y-158759230D01*
X166678895Y-158627206D01*
X166597000Y-158709101D01*
X166597000Y-155996899D01*
X166678895Y-156078794D01*
X166810918Y-155946770D01*
X166904600Y-156101309D01*
X167139336Y-156148001D01*
X167378670Y-156148001D01*
X167613400Y-156101309D01*
X167707083Y-155946768D01*
X169350917Y-155946768D01*
X169444600Y-156101309D01*
X169679336Y-156148001D01*
X169918670Y-156148001D01*
X170153400Y-156101309D01*
X170247083Y-155946768D01*
X171890917Y-155946768D01*
X171984600Y-156101309D01*
X172219336Y-156148001D01*
X172458670Y-156148001D01*
X172693400Y-156101309D01*
X172787083Y-155946768D01*
X174430917Y-155946768D01*
X174524600Y-156101309D01*
X174759336Y-156148001D01*
X174998670Y-156148001D01*
X175233400Y-156101309D01*
X175327083Y-155946768D01*
X176970917Y-155946768D01*
X177064600Y-156101309D01*
X177299336Y-156148001D01*
X177538670Y-156148001D01*
X177773400Y-156101309D01*
X177867083Y-155946768D01*
X179510917Y-155946768D01*
X179604600Y-156101309D01*
X179839336Y-156148001D01*
X180078670Y-156148001D01*
X180313400Y-156101309D01*
X180407083Y-155946768D01*
X182050917Y-155946768D01*
X182144600Y-156101309D01*
X182379336Y-156148001D01*
X182618670Y-156148001D01*
X182853400Y-156101309D01*
X182947083Y-155946768D01*
X184590917Y-155946768D01*
X184684600Y-156101309D01*
X184919336Y-156148001D01*
X185158670Y-156148001D01*
X185393400Y-156101309D01*
X185487083Y-155946768D01*
X187130917Y-155946768D01*
X187224600Y-156101309D01*
X187459336Y-156148001D01*
X187698670Y-156148001D01*
X187933400Y-156101309D01*
X188027083Y-155946768D01*
X189670917Y-155946768D01*
X189764600Y-156101309D01*
X189999336Y-156148001D01*
X190238670Y-156148001D01*
X190473400Y-156101309D01*
X190567083Y-155946768D01*
X192210917Y-155946768D01*
X192304600Y-156101309D01*
X192539336Y-156148001D01*
X192778670Y-156148001D01*
X193013400Y-156101309D01*
X193107083Y-155946768D01*
X194750917Y-155946768D01*
X194844600Y-156101309D01*
X195079336Y-156148001D01*
X195318670Y-156148001D01*
X195553400Y-156101309D01*
X195647083Y-155946768D01*
X197290917Y-155946768D01*
X197384600Y-156101309D01*
X197619336Y-156148001D01*
X197858670Y-156148001D01*
X198093400Y-156101309D01*
X198187083Y-155946768D01*
X197739000Y-155498685D01*
X197290917Y-155946768D01*
X195647083Y-155946768D01*
X195199000Y-155498685D01*
X194750917Y-155946768D01*
X193107083Y-155946768D01*
X192659000Y-155498685D01*
X192210917Y-155946768D01*
X190567083Y-155946768D01*
X190119000Y-155498685D01*
X189670917Y-155946768D01*
X188027083Y-155946768D01*
X187579000Y-155498685D01*
X187130917Y-155946768D01*
X185487083Y-155946768D01*
X185039000Y-155498685D01*
X184590917Y-155946768D01*
X182947083Y-155946768D01*
X182499000Y-155498685D01*
X182050917Y-155946768D01*
X180407083Y-155946768D01*
X179959000Y-155498685D01*
X179510917Y-155946768D01*
X177867083Y-155946768D01*
X177419000Y-155498685D01*
X176970917Y-155946768D01*
X175327083Y-155946768D01*
X174879000Y-155498685D01*
X174430917Y-155946768D01*
X172787083Y-155946768D01*
X172339000Y-155498685D01*
X171890917Y-155946768D01*
X170247083Y-155946768D01*
X169799000Y-155498685D01*
X169350917Y-155946768D01*
X167707083Y-155946768D01*
X167259000Y-155498685D01*
X167244858Y-155512828D01*
X166679173Y-154947143D01*
X166693315Y-154933000D01*
X167824685Y-154933000D01*
X168272768Y-155381083D01*
X168427309Y-155287400D01*
X168474001Y-155052664D01*
X168474001Y-154813336D01*
X168583999Y-154813336D01*
X168583999Y-155052670D01*
X168630691Y-155287400D01*
X168785232Y-155381083D01*
X169233315Y-154933000D01*
X170364685Y-154933000D01*
X170812768Y-155381083D01*
X170967309Y-155287400D01*
X171014001Y-155052664D01*
X171014001Y-154813336D01*
X171123999Y-154813336D01*
X171123999Y-155052670D01*
X171170691Y-155287400D01*
X171325232Y-155381083D01*
X171773315Y-154933000D01*
X172904685Y-154933000D01*
X173352768Y-155381083D01*
X173507309Y-155287400D01*
X173554001Y-155052664D01*
X173554001Y-154813336D01*
X173663999Y-154813336D01*
X173663999Y-155052670D01*
X173710691Y-155287400D01*
X173865232Y-155381083D01*
X174313315Y-154933000D01*
X175444685Y-154933000D01*
X175892768Y-155381083D01*
X176047309Y-155287400D01*
X176094001Y-155052664D01*
X176094001Y-154813336D01*
X176203999Y-154813336D01*
X176203999Y-155052670D01*
X176250691Y-155287400D01*
X176405232Y-155381083D01*
X176853315Y-154933000D01*
X177984685Y-154933000D01*
X178432768Y-155381083D01*
X178587309Y-155287400D01*
X178634001Y-155052664D01*
X178634001Y-154813336D01*
X178743999Y-154813336D01*
X178743999Y-155052670D01*
X178790691Y-155287400D01*
X178945232Y-155381083D01*
X179393315Y-154933000D01*
X180524685Y-154933000D01*
X180972768Y-155381083D01*
X181127309Y-155287400D01*
X181174001Y-155052664D01*
X181174001Y-154813336D01*
X181283999Y-154813336D01*
X181283999Y-155052670D01*
X181330691Y-155287400D01*
X181485232Y-155381083D01*
X181933315Y-154933000D01*
X183064685Y-154933000D01*
X183512768Y-155381083D01*
X183667309Y-155287400D01*
X183714001Y-155052664D01*
X183714001Y-154813336D01*
X183823999Y-154813336D01*
X183823999Y-155052670D01*
X183870691Y-155287400D01*
X184025232Y-155381083D01*
X184473315Y-154933000D01*
X185604685Y-154933000D01*
X186052768Y-155381083D01*
X186207309Y-155287400D01*
X186254001Y-155052664D01*
X186254001Y-154813336D01*
X186363999Y-154813336D01*
X186363999Y-155052670D01*
X186410691Y-155287400D01*
X186565232Y-155381083D01*
X187013315Y-154933000D01*
X188144685Y-154933000D01*
X188592768Y-155381083D01*
X188747309Y-155287400D01*
X188794001Y-155052664D01*
X188794001Y-154813336D01*
X188903999Y-154813336D01*
X188903999Y-155052670D01*
X188950691Y-155287400D01*
X189105232Y-155381083D01*
X189553315Y-154933000D01*
X190684685Y-154933000D01*
X191132768Y-155381083D01*
X191287309Y-155287400D01*
X191334001Y-155052664D01*
X191334001Y-154813336D01*
X191443999Y-154813336D01*
X191443999Y-155052670D01*
X191490691Y-155287400D01*
X191645232Y-155381083D01*
X192093315Y-154933000D01*
X193224685Y-154933000D01*
X193672768Y-155381083D01*
X193827309Y-155287400D01*
X193874001Y-155052664D01*
X193874001Y-154813336D01*
X193983999Y-154813336D01*
X193983999Y-155052670D01*
X194030691Y-155287400D01*
X194185232Y-155381083D01*
X194633315Y-154933000D01*
X195764685Y-154933000D01*
X196212768Y-155381083D01*
X196367309Y-155287400D01*
X196414001Y-155052664D01*
X196414001Y-154813336D01*
X196523999Y-154813336D01*
X196523999Y-155052670D01*
X196570691Y-155287400D01*
X196725232Y-155381083D01*
X197173315Y-154933000D01*
X198304685Y-154933000D01*
X198752768Y-155381083D01*
X198907309Y-155287400D01*
X198954001Y-155052664D01*
X198954001Y-154813330D01*
X198907309Y-154578600D01*
X198752768Y-154484917D01*
X198304685Y-154933000D01*
X197173315Y-154933000D01*
X196725232Y-154484917D01*
X196570691Y-154578600D01*
X196523999Y-154813336D01*
X196414001Y-154813336D01*
X196414001Y-154813330D01*
X196367309Y-154578600D01*
X196212768Y-154484917D01*
X195764685Y-154933000D01*
X194633315Y-154933000D01*
X194185232Y-154484917D01*
X194030691Y-154578600D01*
X193983999Y-154813336D01*
X193874001Y-154813336D01*
X193874001Y-154813330D01*
X193827309Y-154578600D01*
X193672768Y-154484917D01*
X193224685Y-154933000D01*
X192093315Y-154933000D01*
X191645232Y-154484917D01*
X191490691Y-154578600D01*
X191443999Y-154813336D01*
X191334001Y-154813336D01*
X191334001Y-154813330D01*
X191287309Y-154578600D01*
X191132768Y-154484917D01*
X190684685Y-154933000D01*
X189553315Y-154933000D01*
X189105232Y-154484917D01*
X188950691Y-154578600D01*
X188903999Y-154813336D01*
X188794001Y-154813336D01*
X188794001Y-154813330D01*
X188747309Y-154578600D01*
X188592768Y-154484917D01*
X188144685Y-154933000D01*
X187013315Y-154933000D01*
X186565232Y-154484917D01*
X186410691Y-154578600D01*
X186363999Y-154813336D01*
X186254001Y-154813336D01*
X186254001Y-154813330D01*
X186207309Y-154578600D01*
X186052768Y-154484917D01*
X185604685Y-154933000D01*
X184473315Y-154933000D01*
X184025232Y-154484917D01*
X183870691Y-154578600D01*
X183823999Y-154813336D01*
X183714001Y-154813336D01*
X183714001Y-154813330D01*
X183667309Y-154578600D01*
X183512768Y-154484917D01*
X183064685Y-154933000D01*
X181933315Y-154933000D01*
X181485232Y-154484917D01*
X181330691Y-154578600D01*
X181283999Y-154813336D01*
X181174001Y-154813336D01*
X181174001Y-154813330D01*
X181127309Y-154578600D01*
X180972768Y-154484917D01*
X180524685Y-154933000D01*
X179393315Y-154933000D01*
X178945232Y-154484917D01*
X178790691Y-154578600D01*
X178743999Y-154813336D01*
X178634001Y-154813336D01*
X178634001Y-154813330D01*
X178587309Y-154578600D01*
X178432768Y-154484917D01*
X177984685Y-154933000D01*
X176853315Y-154933000D01*
X176405232Y-154484917D01*
X176250691Y-154578600D01*
X176203999Y-154813336D01*
X176094001Y-154813336D01*
X176094001Y-154813330D01*
X176047309Y-154578600D01*
X175892768Y-154484917D01*
X175444685Y-154933000D01*
X174313315Y-154933000D01*
X173865232Y-154484917D01*
X173710691Y-154578600D01*
X173663999Y-154813336D01*
X173554001Y-154813336D01*
X173554001Y-154813330D01*
X173507309Y-154578600D01*
X173352768Y-154484917D01*
X172904685Y-154933000D01*
X171773315Y-154933000D01*
X171325232Y-154484917D01*
X171170691Y-154578600D01*
X171123999Y-154813336D01*
X171014001Y-154813336D01*
X171014001Y-154813330D01*
X170967309Y-154578600D01*
X170812768Y-154484917D01*
X170364685Y-154933000D01*
X169233315Y-154933000D01*
X168785232Y-154484917D01*
X168630691Y-154578600D01*
X168583999Y-154813336D01*
X168474001Y-154813336D01*
X168474001Y-154813330D01*
X168427309Y-154578600D01*
X168272768Y-154484917D01*
X167824685Y-154933000D01*
X166693315Y-154933000D01*
X166679173Y-154918858D01*
X167244858Y-154353173D01*
X167259000Y-154367315D01*
X167707083Y-153919232D01*
X169350917Y-153919232D01*
X169799000Y-154367315D01*
X170247083Y-153919232D01*
X171890917Y-153919232D01*
X172339000Y-154367315D01*
X172787083Y-153919232D01*
X174430917Y-153919232D01*
X174879000Y-154367315D01*
X175327083Y-153919232D01*
X176970917Y-153919232D01*
X177419000Y-154367315D01*
X177867083Y-153919232D01*
X179510917Y-153919232D01*
X179959000Y-154367315D01*
X180407083Y-153919232D01*
X182050917Y-153919232D01*
X182499000Y-154367315D01*
X182947083Y-153919232D01*
X184590917Y-153919232D01*
X185039000Y-154367315D01*
X185487083Y-153919232D01*
X187130917Y-153919232D01*
X187579000Y-154367315D01*
X188027083Y-153919232D01*
X189670917Y-153919232D01*
X190119000Y-154367315D01*
X190567083Y-153919232D01*
X192210917Y-153919232D01*
X192659000Y-154367315D01*
X193107083Y-153919232D01*
X194750917Y-153919232D01*
X195199000Y-154367315D01*
X195647083Y-153919232D01*
X197290917Y-153919232D01*
X197739000Y-154367315D01*
X198187083Y-153919232D01*
X198093400Y-153764691D01*
X197858664Y-153717999D01*
X197619330Y-153717999D01*
X197384600Y-153764691D01*
X197290917Y-153919232D01*
X195647083Y-153919232D01*
X195553400Y-153764691D01*
X195318664Y-153717999D01*
X195079330Y-153717999D01*
X194844600Y-153764691D01*
X194750917Y-153919232D01*
X193107083Y-153919232D01*
X193013400Y-153764691D01*
X192778664Y-153717999D01*
X192539330Y-153717999D01*
X192304600Y-153764691D01*
X192210917Y-153919232D01*
X190567083Y-153919232D01*
X190473400Y-153764691D01*
X190238664Y-153717999D01*
X189999330Y-153717999D01*
X189764600Y-153764691D01*
X189670917Y-153919232D01*
X188027083Y-153919232D01*
X187933400Y-153764691D01*
X187698664Y-153717999D01*
X187459330Y-153717999D01*
X187224600Y-153764691D01*
X187130917Y-153919232D01*
X185487083Y-153919232D01*
X185393400Y-153764691D01*
X185158664Y-153717999D01*
X184919330Y-153717999D01*
X184684600Y-153764691D01*
X184590917Y-153919232D01*
X182947083Y-153919232D01*
X182853400Y-153764691D01*
X182618664Y-153717999D01*
X182379330Y-153717999D01*
X182144600Y-153764691D01*
X182050917Y-153919232D01*
X180407083Y-153919232D01*
X180313400Y-153764691D01*
X180078664Y-153717999D01*
X179839330Y-153717999D01*
X179604600Y-153764691D01*
X179510917Y-153919232D01*
X177867083Y-153919232D01*
X177773400Y-153764691D01*
X177538664Y-153717999D01*
X177299330Y-153717999D01*
X177064600Y-153764691D01*
X176970917Y-153919232D01*
X175327083Y-153919232D01*
X175233400Y-153764691D01*
X174998664Y-153717999D01*
X174759330Y-153717999D01*
X174524600Y-153764691D01*
X174430917Y-153919232D01*
X172787083Y-153919232D01*
X172693400Y-153764691D01*
X172458664Y-153717999D01*
X172219330Y-153717999D01*
X171984600Y-153764691D01*
X171890917Y-153919232D01*
X170247083Y-153919232D01*
X170153400Y-153764691D01*
X169918664Y-153717999D01*
X169679330Y-153717999D01*
X169444600Y-153764691D01*
X169350917Y-153919232D01*
X167707083Y-153919232D01*
X167613400Y-153764691D01*
X167378664Y-153717999D01*
X167139330Y-153717999D01*
X166904600Y-153764691D01*
X166810918Y-153919230D01*
X166678895Y-153787206D01*
X166597000Y-153869101D01*
X166597000Y-150939500D01*
X166596692Y-150931654D01*
X166575584Y-150663447D01*
X166573129Y-150647948D01*
X166510323Y-150386345D01*
X166505474Y-150371422D01*
X166402519Y-150122865D01*
X166395395Y-150108883D01*
X166254824Y-149879492D01*
X166245601Y-149866797D01*
X166070876Y-149662220D01*
X166059780Y-149651124D01*
X165855203Y-149476399D01*
X165842508Y-149467176D01*
X165613117Y-149326605D01*
X165599135Y-149319481D01*
X165350578Y-149216526D01*
X165335655Y-149211677D01*
X165074052Y-149148871D01*
X165058553Y-149146416D01*
X164529984Y-149104817D01*
X164283686Y-149045686D01*
X164049673Y-148948755D01*
X163833704Y-148816409D01*
X163641095Y-148651905D01*
X163476591Y-148459296D01*
X163344245Y-148243327D01*
X163247314Y-148009314D01*
X163188183Y-147763016D01*
X163168000Y-147506568D01*
X163168000Y-146300000D01*
X165807823Y-146300000D01*
X165816511Y-146388215D01*
X165842243Y-146473041D01*
X165884029Y-146551216D01*
X165940263Y-146619737D01*
X166008784Y-146675971D01*
X166086959Y-146717757D01*
X166171785Y-146743489D01*
X166260000Y-146752177D01*
X167747500Y-146750000D01*
X167860000Y-146637500D01*
X167860000Y-144700000D01*
X168660000Y-144700000D01*
X168660000Y-146637500D01*
X168772500Y-146750000D01*
X170260000Y-146752177D01*
X170348215Y-146743489D01*
X170433041Y-146717757D01*
X170511216Y-146675971D01*
X170579737Y-146619737D01*
X170635971Y-146551216D01*
X170677757Y-146473041D01*
X170703489Y-146388215D01*
X170712177Y-146300000D01*
X170712060Y-146219832D01*
X176405853Y-146219832D01*
X176655793Y-146500331D01*
X177106273Y-146673473D01*
X177581876Y-146755402D01*
X178064324Y-146742973D01*
X178535077Y-146636661D01*
X178864207Y-146500331D01*
X179114147Y-146219832D01*
X185905853Y-146219832D01*
X186155793Y-146500331D01*
X186606273Y-146673473D01*
X187081876Y-146755402D01*
X187564324Y-146742973D01*
X188035077Y-146636661D01*
X188364207Y-146500331D01*
X188614147Y-146219832D01*
X195405853Y-146219832D01*
X195655793Y-146500331D01*
X196106273Y-146673473D01*
X196581876Y-146755402D01*
X197064324Y-146742973D01*
X197535077Y-146636661D01*
X197864207Y-146500331D01*
X198114147Y-146219832D01*
X196760000Y-144865685D01*
X195405853Y-146219832D01*
X188614147Y-146219832D01*
X187260000Y-144865685D01*
X185905853Y-146219832D01*
X179114147Y-146219832D01*
X177760000Y-144865685D01*
X176405853Y-146219832D01*
X170712060Y-146219832D01*
X170710000Y-144812500D01*
X170597500Y-144700000D01*
X168660000Y-144700000D01*
X167860000Y-144700000D01*
X165922500Y-144700000D01*
X165810000Y-144812500D01*
X165807823Y-146300000D01*
X163168000Y-146300000D01*
X163168000Y-144121876D01*
X175304598Y-144121876D01*
X175317027Y-144604324D01*
X175423339Y-145075077D01*
X175559669Y-145404207D01*
X175840168Y-145654147D01*
X177194315Y-144300000D01*
X178325685Y-144300000D01*
X179679832Y-145654147D01*
X179960331Y-145404207D01*
X180133473Y-144953727D01*
X180215402Y-144478124D01*
X180206225Y-144121876D01*
X184804598Y-144121876D01*
X184817027Y-144604324D01*
X184923339Y-145075077D01*
X185059669Y-145404207D01*
X185340168Y-145654147D01*
X186694315Y-144300000D01*
X187825685Y-144300000D01*
X189179832Y-145654147D01*
X189460331Y-145404207D01*
X189633473Y-144953727D01*
X189715402Y-144478124D01*
X189706225Y-144121876D01*
X194304598Y-144121876D01*
X194317027Y-144604324D01*
X194423339Y-145075077D01*
X194559669Y-145404207D01*
X194840168Y-145654147D01*
X196194315Y-144300000D01*
X197325685Y-144300000D01*
X198679832Y-145654147D01*
X198960331Y-145404207D01*
X199133473Y-144953727D01*
X199215402Y-144478124D01*
X199202973Y-143995676D01*
X199096661Y-143524923D01*
X198960331Y-143195793D01*
X198679832Y-142945853D01*
X197325685Y-144300000D01*
X196194315Y-144300000D01*
X194840168Y-142945853D01*
X194559669Y-143195793D01*
X194386527Y-143646273D01*
X194304598Y-144121876D01*
X189706225Y-144121876D01*
X189702973Y-143995676D01*
X189596661Y-143524923D01*
X189460331Y-143195793D01*
X189179832Y-142945853D01*
X187825685Y-144300000D01*
X186694315Y-144300000D01*
X185340168Y-142945853D01*
X185059669Y-143195793D01*
X184886527Y-143646273D01*
X184804598Y-144121876D01*
X180206225Y-144121876D01*
X180202973Y-143995676D01*
X180096661Y-143524923D01*
X179960331Y-143195793D01*
X179679832Y-142945853D01*
X178325685Y-144300000D01*
X177194315Y-144300000D01*
X175840168Y-142945853D01*
X175559669Y-143195793D01*
X175386527Y-143646273D01*
X175304598Y-144121876D01*
X163168000Y-144121876D01*
X163168000Y-142300000D01*
X165807823Y-142300000D01*
X165810000Y-143787500D01*
X165922500Y-143900000D01*
X167860000Y-143900000D01*
X167860000Y-141962500D01*
X168660000Y-141962500D01*
X168660000Y-143900000D01*
X170597500Y-143900000D01*
X170710000Y-143787500D01*
X170712059Y-142380168D01*
X176405853Y-142380168D01*
X177760000Y-143734315D01*
X179114147Y-142380168D01*
X185905853Y-142380168D01*
X187260000Y-143734315D01*
X188614147Y-142380168D01*
X195405853Y-142380168D01*
X196760000Y-143734315D01*
X198114147Y-142380168D01*
X197864207Y-142099669D01*
X197413727Y-141926527D01*
X196938124Y-141844598D01*
X196455676Y-141857027D01*
X195984923Y-141963339D01*
X195655793Y-142099669D01*
X195405853Y-142380168D01*
X188614147Y-142380168D01*
X188364207Y-142099669D01*
X187913727Y-141926527D01*
X187438124Y-141844598D01*
X186955676Y-141857027D01*
X186484923Y-141963339D01*
X186155793Y-142099669D01*
X185905853Y-142380168D01*
X179114147Y-142380168D01*
X178864207Y-142099669D01*
X178413727Y-141926527D01*
X177938124Y-141844598D01*
X177455676Y-141857027D01*
X176984923Y-141963339D01*
X176655793Y-142099669D01*
X176405853Y-142380168D01*
X170712059Y-142380168D01*
X170712177Y-142300000D01*
X170703489Y-142211785D01*
X170677757Y-142126959D01*
X170635971Y-142048784D01*
X170579737Y-141980263D01*
X170511216Y-141924029D01*
X170433041Y-141882243D01*
X170348215Y-141856511D01*
X170260000Y-141847823D01*
X168772500Y-141850000D01*
X168660000Y-141962500D01*
X167860000Y-141962500D01*
X167747500Y-141850000D01*
X166260000Y-141847823D01*
X166171785Y-141856511D01*
X166086959Y-141882243D01*
X166008784Y-141924029D01*
X165940263Y-141980263D01*
X165884029Y-142048784D01*
X165842243Y-142126959D01*
X165816511Y-142211785D01*
X165807823Y-142300000D01*
X163168000Y-142300000D01*
X163168000Y-138274569D01*
X163187591Y-138000642D01*
X163245210Y-137735777D01*
X163339931Y-137481819D01*
X163469834Y-137243920D01*
X163632267Y-137026935D01*
X163823935Y-136835267D01*
X164040920Y-136672834D01*
X164273199Y-136546000D01*
X201994801Y-136546000D01*
X202227080Y-136672834D01*
G37*
X202227080Y-136672834D02*
X202444065Y-136835267D01*
X202635733Y-137026935D01*
X202798166Y-137243920D01*
X202925001Y-137476200D01*
X202925000Y-161354801D01*
X202798166Y-161587080D01*
X202635733Y-161804065D01*
X202444065Y-161995733D01*
X202227080Y-162158166D01*
X201994801Y-162285000D01*
X167702199Y-162285000D01*
X167469920Y-162158166D01*
X167252935Y-161995733D01*
X167061267Y-161804065D01*
X166898834Y-161587080D01*
X166768931Y-161349181D01*
X166674210Y-161095223D01*
X166623856Y-160863755D01*
X166678895Y-160918794D01*
X166810918Y-160786770D01*
X166904600Y-160941309D01*
X167139336Y-160988001D01*
X167378670Y-160988001D01*
X167613400Y-160941309D01*
X167707083Y-160786768D01*
X169350917Y-160786768D01*
X169444600Y-160941309D01*
X169679336Y-160988001D01*
X169918670Y-160988001D01*
X170153400Y-160941309D01*
X170247083Y-160786768D01*
X171890917Y-160786768D01*
X171984600Y-160941309D01*
X172219336Y-160988001D01*
X172458670Y-160988001D01*
X172693400Y-160941309D01*
X172787083Y-160786768D01*
X174430917Y-160786768D01*
X174524600Y-160941309D01*
X174759336Y-160988001D01*
X174998670Y-160988001D01*
X175233400Y-160941309D01*
X175327083Y-160786768D01*
X176970917Y-160786768D01*
X177064600Y-160941309D01*
X177299336Y-160988001D01*
X177538670Y-160988001D01*
X177773400Y-160941309D01*
X177867083Y-160786768D01*
X179510917Y-160786768D01*
X179604600Y-160941309D01*
X179839336Y-160988001D01*
X180078670Y-160988001D01*
X180313400Y-160941309D01*
X180407083Y-160786768D01*
X182050917Y-160786768D01*
X182144600Y-160941309D01*
X182379336Y-160988001D01*
X182618670Y-160988001D01*
X182853400Y-160941309D01*
X182947083Y-160786768D01*
X184590917Y-160786768D01*
X184684600Y-160941309D01*
X184919336Y-160988001D01*
X185158670Y-160988001D01*
X185393400Y-160941309D01*
X185487083Y-160786768D01*
X187130917Y-160786768D01*
X187224600Y-160941309D01*
X187459336Y-160988001D01*
X187698670Y-160988001D01*
X187933400Y-160941309D01*
X188027083Y-160786768D01*
X189670917Y-160786768D01*
X189764600Y-160941309D01*
X189999336Y-160988001D01*
X190238670Y-160988001D01*
X190473400Y-160941309D01*
X190567083Y-160786768D01*
X192210917Y-160786768D01*
X192304600Y-160941309D01*
X192539336Y-160988001D01*
X192778670Y-160988001D01*
X193013400Y-160941309D01*
X193107083Y-160786768D01*
X194750917Y-160786768D01*
X194844600Y-160941309D01*
X195079336Y-160988001D01*
X195318670Y-160988001D01*
X195553400Y-160941309D01*
X195647083Y-160786768D01*
X195398315Y-160538000D01*
X196521823Y-160538000D01*
X196530511Y-160626215D01*
X196556243Y-160711041D01*
X196598029Y-160789216D01*
X196654263Y-160857737D01*
X196722784Y-160913971D01*
X196800959Y-160955757D01*
X196885785Y-160981489D01*
X196974000Y-160990177D01*
X197226500Y-160988000D01*
X197339000Y-160875500D01*
X197339000Y-160173000D01*
X198139000Y-160173000D01*
X198139000Y-160875500D01*
X198251500Y-160988000D01*
X198504000Y-160990177D01*
X198592215Y-160981489D01*
X198677041Y-160955757D01*
X198755216Y-160913971D01*
X198823737Y-160857737D01*
X198879971Y-160789216D01*
X198921757Y-160711041D01*
X198947489Y-160626215D01*
X198956177Y-160538000D01*
X198954000Y-160285500D01*
X198841500Y-160173000D01*
X198139000Y-160173000D01*
X197339000Y-160173000D01*
X196636500Y-160173000D01*
X196524000Y-160285500D01*
X196521823Y-160538000D01*
X195398315Y-160538000D01*
X195199000Y-160338685D01*
X194750917Y-160786768D01*
X193107083Y-160786768D01*
X192659000Y-160338685D01*
X192210917Y-160786768D01*
X190567083Y-160786768D01*
X190119000Y-160338685D01*
X189670917Y-160786768D01*
X188027083Y-160786768D01*
X187579000Y-160338685D01*
X187130917Y-160786768D01*
X185487083Y-160786768D01*
X185039000Y-160338685D01*
X184590917Y-160786768D01*
X182947083Y-160786768D01*
X182499000Y-160338685D01*
X182050917Y-160786768D01*
X180407083Y-160786768D01*
X179959000Y-160338685D01*
X179510917Y-160786768D01*
X177867083Y-160786768D01*
X177419000Y-160338685D01*
X176970917Y-160786768D01*
X175327083Y-160786768D01*
X174879000Y-160338685D01*
X174430917Y-160786768D01*
X172787083Y-160786768D01*
X172339000Y-160338685D01*
X171890917Y-160786768D01*
X170247083Y-160786768D01*
X169799000Y-160338685D01*
X169350917Y-160786768D01*
X167707083Y-160786768D01*
X167259000Y-160338685D01*
X167244858Y-160352828D01*
X166679173Y-159787143D01*
X166693315Y-159773000D01*
X167824685Y-159773000D01*
X168272768Y-160221083D01*
X168427309Y-160127400D01*
X168474001Y-159892664D01*
X168474001Y-159653336D01*
X168583999Y-159653336D01*
X168583999Y-159892670D01*
X168630691Y-160127400D01*
X168785232Y-160221083D01*
X169233315Y-159773000D01*
X170364685Y-159773000D01*
X170812768Y-160221083D01*
X170967309Y-160127400D01*
X171014001Y-159892664D01*
X171014001Y-159653336D01*
X171123999Y-159653336D01*
X171123999Y-159892670D01*
X171170691Y-160127400D01*
X171325232Y-160221083D01*
X171773315Y-159773000D01*
X172904685Y-159773000D01*
X173352768Y-160221083D01*
X173507309Y-160127400D01*
X173554001Y-159892664D01*
X173554001Y-159653336D01*
X173663999Y-159653336D01*
X173663999Y-159892670D01*
X173710691Y-160127400D01*
X173865232Y-160221083D01*
X174313315Y-159773000D01*
X175444685Y-159773000D01*
X175892768Y-160221083D01*
X176047309Y-160127400D01*
X176094001Y-159892664D01*
X176094001Y-159653336D01*
X176203999Y-159653336D01*
X176203999Y-159892670D01*
X176250691Y-160127400D01*
X176405232Y-160221083D01*
X176853315Y-159773000D01*
X177984685Y-159773000D01*
X178432768Y-160221083D01*
X178587309Y-160127400D01*
X178634001Y-159892664D01*
X178634001Y-159653336D01*
X178743999Y-159653336D01*
X178743999Y-159892670D01*
X178790691Y-160127400D01*
X178945232Y-160221083D01*
X179393315Y-159773000D01*
X180524685Y-159773000D01*
X180972768Y-160221083D01*
X181127309Y-160127400D01*
X181174001Y-159892664D01*
X181174001Y-159653336D01*
X181283999Y-159653336D01*
X181283999Y-159892670D01*
X181330691Y-160127400D01*
X181485232Y-160221083D01*
X181933315Y-159773000D01*
X183064685Y-159773000D01*
X183512768Y-160221083D01*
X183667309Y-160127400D01*
X183714001Y-159892664D01*
X183714001Y-159653336D01*
X183823999Y-159653336D01*
X183823999Y-159892670D01*
X183870691Y-160127400D01*
X184025232Y-160221083D01*
X184473315Y-159773000D01*
X185604685Y-159773000D01*
X186052768Y-160221083D01*
X186207309Y-160127400D01*
X186254001Y-159892664D01*
X186254001Y-159653336D01*
X186363999Y-159653336D01*
X186363999Y-159892670D01*
X186410691Y-160127400D01*
X186565232Y-160221083D01*
X187013315Y-159773000D01*
X188144685Y-159773000D01*
X188592768Y-160221083D01*
X188747309Y-160127400D01*
X188794001Y-159892664D01*
X188794001Y-159653336D01*
X188903999Y-159653336D01*
X188903999Y-159892670D01*
X188950691Y-160127400D01*
X189105232Y-160221083D01*
X189553315Y-159773000D01*
X190684685Y-159773000D01*
X191132768Y-160221083D01*
X191287309Y-160127400D01*
X191334001Y-159892664D01*
X191334001Y-159653336D01*
X191443999Y-159653336D01*
X191443999Y-159892670D01*
X191490691Y-160127400D01*
X191645232Y-160221083D01*
X192093315Y-159773000D01*
X193224685Y-159773000D01*
X193672768Y-160221083D01*
X193827309Y-160127400D01*
X193874001Y-159892664D01*
X193874001Y-159653336D01*
X193983999Y-159653336D01*
X193983999Y-159892670D01*
X194030691Y-160127400D01*
X194185232Y-160221083D01*
X194633315Y-159773000D01*
X195764685Y-159773000D01*
X196212768Y-160221083D01*
X196367309Y-160127400D01*
X196414001Y-159892664D01*
X196414001Y-159653330D01*
X196367309Y-159418600D01*
X196212768Y-159324917D01*
X195764685Y-159773000D01*
X194633315Y-159773000D01*
X194185232Y-159324917D01*
X194030691Y-159418600D01*
X193983999Y-159653336D01*
X193874001Y-159653336D01*
X193874001Y-159653330D01*
X193827309Y-159418600D01*
X193672768Y-159324917D01*
X193224685Y-159773000D01*
X192093315Y-159773000D01*
X191645232Y-159324917D01*
X191490691Y-159418600D01*
X191443999Y-159653336D01*
X191334001Y-159653336D01*
X191334001Y-159653330D01*
X191287309Y-159418600D01*
X191132768Y-159324917D01*
X190684685Y-159773000D01*
X189553315Y-159773000D01*
X189105232Y-159324917D01*
X188950691Y-159418600D01*
X188903999Y-159653336D01*
X188794001Y-159653336D01*
X188794001Y-159653330D01*
X188747309Y-159418600D01*
X188592768Y-159324917D01*
X188144685Y-159773000D01*
X187013315Y-159773000D01*
X186565232Y-159324917D01*
X186410691Y-159418600D01*
X186363999Y-159653336D01*
X186254001Y-159653336D01*
X186254001Y-159653330D01*
X186207309Y-159418600D01*
X186052768Y-159324917D01*
X185604685Y-159773000D01*
X184473315Y-159773000D01*
X184025232Y-159324917D01*
X183870691Y-159418600D01*
X183823999Y-159653336D01*
X183714001Y-159653336D01*
X183714001Y-159653330D01*
X183667309Y-159418600D01*
X183512768Y-159324917D01*
X183064685Y-159773000D01*
X181933315Y-159773000D01*
X181485232Y-159324917D01*
X181330691Y-159418600D01*
X181283999Y-159653336D01*
X181174001Y-159653336D01*
X181174001Y-159653330D01*
X181127309Y-159418600D01*
X180972768Y-159324917D01*
X180524685Y-159773000D01*
X179393315Y-159773000D01*
X178945232Y-159324917D01*
X178790691Y-159418600D01*
X178743999Y-159653336D01*
X178634001Y-159653336D01*
X178634001Y-159653330D01*
X178587309Y-159418600D01*
X178432768Y-159324917D01*
X177984685Y-159773000D01*
X176853315Y-159773000D01*
X176405232Y-159324917D01*
X176250691Y-159418600D01*
X176203999Y-159653336D01*
X176094001Y-159653336D01*
X176094001Y-159653330D01*
X176047309Y-159418600D01*
X175892768Y-159324917D01*
X175444685Y-159773000D01*
X174313315Y-159773000D01*
X173865232Y-159324917D01*
X173710691Y-159418600D01*
X173663999Y-159653336D01*
X173554001Y-159653336D01*
X173554001Y-159653330D01*
X173507309Y-159418600D01*
X173352768Y-159324917D01*
X172904685Y-159773000D01*
X171773315Y-159773000D01*
X171325232Y-159324917D01*
X171170691Y-159418600D01*
X171123999Y-159653336D01*
X171014001Y-159653336D01*
X171014001Y-159653330D01*
X170967309Y-159418600D01*
X170812768Y-159324917D01*
X170364685Y-159773000D01*
X169233315Y-159773000D01*
X168785232Y-159324917D01*
X168630691Y-159418600D01*
X168583999Y-159653336D01*
X168474001Y-159653336D01*
X168474001Y-159653330D01*
X168427309Y-159418600D01*
X168272768Y-159324917D01*
X167824685Y-159773000D01*
X166693315Y-159773000D01*
X166679173Y-159758858D01*
X167244858Y-159193173D01*
X167259000Y-159207315D01*
X167707083Y-158759232D01*
X169350917Y-158759232D01*
X169799000Y-159207315D01*
X170247083Y-158759232D01*
X171890917Y-158759232D01*
X172339000Y-159207315D01*
X172787083Y-158759232D01*
X174430917Y-158759232D01*
X174879000Y-159207315D01*
X175327083Y-158759232D01*
X176970917Y-158759232D01*
X177419000Y-159207315D01*
X177867083Y-158759232D01*
X179510917Y-158759232D01*
X179959000Y-159207315D01*
X180407083Y-158759232D01*
X182050917Y-158759232D01*
X182499000Y-159207315D01*
X182947083Y-158759232D01*
X184590917Y-158759232D01*
X185039000Y-159207315D01*
X185487083Y-158759232D01*
X187130917Y-158759232D01*
X187579000Y-159207315D01*
X188027083Y-158759232D01*
X189670917Y-158759232D01*
X190119000Y-159207315D01*
X190567083Y-158759232D01*
X192210917Y-158759232D01*
X192659000Y-159207315D01*
X193107083Y-158759232D01*
X194750917Y-158759232D01*
X195199000Y-159207315D01*
X195398315Y-159008000D01*
X196521823Y-159008000D01*
X196524000Y-159260500D01*
X196636500Y-159373000D01*
X197339000Y-159373000D01*
X197339000Y-158670500D01*
X198139000Y-158670500D01*
X198139000Y-159373000D01*
X198841500Y-159373000D01*
X198954000Y-159260500D01*
X198956177Y-159008000D01*
X198947489Y-158919785D01*
X198921757Y-158834959D01*
X198879971Y-158756784D01*
X198823737Y-158688263D01*
X198755216Y-158632029D01*
X198677041Y-158590243D01*
X198592215Y-158564511D01*
X198504000Y-158555823D01*
X198251500Y-158558000D01*
X198139000Y-158670500D01*
X197339000Y-158670500D01*
X197226500Y-158558000D01*
X196974000Y-158555823D01*
X196885785Y-158564511D01*
X196800959Y-158590243D01*
X196722784Y-158632029D01*
X196654263Y-158688263D01*
X196598029Y-158756784D01*
X196556243Y-158834959D01*
X196530511Y-158919785D01*
X196521823Y-159008000D01*
X195398315Y-159008000D01*
X195647083Y-158759232D01*
X195553400Y-158604691D01*
X195318664Y-158557999D01*
X195079330Y-158557999D01*
X194844600Y-158604691D01*
X194750917Y-158759232D01*
X193107083Y-158759232D01*
X193013400Y-158604691D01*
X192778664Y-158557999D01*
X192539330Y-158557999D01*
X192304600Y-158604691D01*
X192210917Y-158759232D01*
X190567083Y-158759232D01*
X190473400Y-158604691D01*
X190238664Y-158557999D01*
X189999330Y-158557999D01*
X189764600Y-158604691D01*
X189670917Y-158759232D01*
X188027083Y-158759232D01*
X187933400Y-158604691D01*
X187698664Y-158557999D01*
X187459330Y-158557999D01*
X187224600Y-158604691D01*
X187130917Y-158759232D01*
X185487083Y-158759232D01*
X185393400Y-158604691D01*
X185158664Y-158557999D01*
X184919330Y-158557999D01*
X184684600Y-158604691D01*
X184590917Y-158759232D01*
X182947083Y-158759232D01*
X182853400Y-158604691D01*
X182618664Y-158557999D01*
X182379330Y-158557999D01*
X182144600Y-158604691D01*
X182050917Y-158759232D01*
X180407083Y-158759232D01*
X180313400Y-158604691D01*
X180078664Y-158557999D01*
X179839330Y-158557999D01*
X179604600Y-158604691D01*
X179510917Y-158759232D01*
X177867083Y-158759232D01*
X177773400Y-158604691D01*
X177538664Y-158557999D01*
X177299330Y-158557999D01*
X177064600Y-158604691D01*
X176970917Y-158759232D01*
X175327083Y-158759232D01*
X175233400Y-158604691D01*
X174998664Y-158557999D01*
X174759330Y-158557999D01*
X174524600Y-158604691D01*
X174430917Y-158759232D01*
X172787083Y-158759232D01*
X172693400Y-158604691D01*
X172458664Y-158557999D01*
X172219330Y-158557999D01*
X171984600Y-158604691D01*
X171890917Y-158759232D01*
X170247083Y-158759232D01*
X170153400Y-158604691D01*
X169918664Y-158557999D01*
X169679330Y-158557999D01*
X169444600Y-158604691D01*
X169350917Y-158759232D01*
X167707083Y-158759232D01*
X167613400Y-158604691D01*
X167378664Y-158557999D01*
X167139330Y-158557999D01*
X166904600Y-158604691D01*
X166810918Y-158759230D01*
X166678895Y-158627206D01*
X166597000Y-158709101D01*
X166597000Y-155996899D01*
X166678895Y-156078794D01*
X166810918Y-155946770D01*
X166904600Y-156101309D01*
X167139336Y-156148001D01*
X167378670Y-156148001D01*
X167613400Y-156101309D01*
X167707083Y-155946768D01*
X169350917Y-155946768D01*
X169444600Y-156101309D01*
X169679336Y-156148001D01*
X169918670Y-156148001D01*
X170153400Y-156101309D01*
X170247083Y-155946768D01*
X171890917Y-155946768D01*
X171984600Y-156101309D01*
X172219336Y-156148001D01*
X172458670Y-156148001D01*
X172693400Y-156101309D01*
X172787083Y-155946768D01*
X174430917Y-155946768D01*
X174524600Y-156101309D01*
X174759336Y-156148001D01*
X174998670Y-156148001D01*
X175233400Y-156101309D01*
X175327083Y-155946768D01*
X176970917Y-155946768D01*
X177064600Y-156101309D01*
X177299336Y-156148001D01*
X177538670Y-156148001D01*
X177773400Y-156101309D01*
X177867083Y-155946768D01*
X179510917Y-155946768D01*
X179604600Y-156101309D01*
X179839336Y-156148001D01*
X180078670Y-156148001D01*
X180313400Y-156101309D01*
X180407083Y-155946768D01*
X182050917Y-155946768D01*
X182144600Y-156101309D01*
X182379336Y-156148001D01*
X182618670Y-156148001D01*
X182853400Y-156101309D01*
X182947083Y-155946768D01*
X184590917Y-155946768D01*
X184684600Y-156101309D01*
X184919336Y-156148001D01*
X185158670Y-156148001D01*
X185393400Y-156101309D01*
X185487083Y-155946768D01*
X187130917Y-155946768D01*
X187224600Y-156101309D01*
X187459336Y-156148001D01*
X187698670Y-156148001D01*
X187933400Y-156101309D01*
X188027083Y-155946768D01*
X189670917Y-155946768D01*
X189764600Y-156101309D01*
X189999336Y-156148001D01*
X190238670Y-156148001D01*
X190473400Y-156101309D01*
X190567083Y-155946768D01*
X192210917Y-155946768D01*
X192304600Y-156101309D01*
X192539336Y-156148001D01*
X192778670Y-156148001D01*
X193013400Y-156101309D01*
X193107083Y-155946768D01*
X194750917Y-155946768D01*
X194844600Y-156101309D01*
X195079336Y-156148001D01*
X195318670Y-156148001D01*
X195553400Y-156101309D01*
X195647083Y-155946768D01*
X197290917Y-155946768D01*
X197384600Y-156101309D01*
X197619336Y-156148001D01*
X197858670Y-156148001D01*
X198093400Y-156101309D01*
X198187083Y-155946768D01*
X197739000Y-155498685D01*
X197290917Y-155946768D01*
X195647083Y-155946768D01*
X195199000Y-155498685D01*
X194750917Y-155946768D01*
X193107083Y-155946768D01*
X192659000Y-155498685D01*
X192210917Y-155946768D01*
X190567083Y-155946768D01*
X190119000Y-155498685D01*
X189670917Y-155946768D01*
X188027083Y-155946768D01*
X187579000Y-155498685D01*
X187130917Y-155946768D01*
X185487083Y-155946768D01*
X185039000Y-155498685D01*
X184590917Y-155946768D01*
X182947083Y-155946768D01*
X182499000Y-155498685D01*
X182050917Y-155946768D01*
X180407083Y-155946768D01*
X179959000Y-155498685D01*
X179510917Y-155946768D01*
X177867083Y-155946768D01*
X177419000Y-155498685D01*
X176970917Y-155946768D01*
X175327083Y-155946768D01*
X174879000Y-155498685D01*
X174430917Y-155946768D01*
X172787083Y-155946768D01*
X172339000Y-155498685D01*
X171890917Y-155946768D01*
X170247083Y-155946768D01*
X169799000Y-155498685D01*
X169350917Y-155946768D01*
X167707083Y-155946768D01*
X167259000Y-155498685D01*
X167244858Y-155512828D01*
X166679173Y-154947143D01*
X166693315Y-154933000D01*
X167824685Y-154933000D01*
X168272768Y-155381083D01*
X168427309Y-155287400D01*
X168474001Y-155052664D01*
X168474001Y-154813336D01*
X168583999Y-154813336D01*
X168583999Y-155052670D01*
X168630691Y-155287400D01*
X168785232Y-155381083D01*
X169233315Y-154933000D01*
X170364685Y-154933000D01*
X170812768Y-155381083D01*
X170967309Y-155287400D01*
X171014001Y-155052664D01*
X171014001Y-154813336D01*
X171123999Y-154813336D01*
X171123999Y-155052670D01*
X171170691Y-155287400D01*
X171325232Y-155381083D01*
X171773315Y-154933000D01*
X172904685Y-154933000D01*
X173352768Y-155381083D01*
X173507309Y-155287400D01*
X173554001Y-155052664D01*
X173554001Y-154813336D01*
X173663999Y-154813336D01*
X173663999Y-155052670D01*
X173710691Y-155287400D01*
X173865232Y-155381083D01*
X174313315Y-154933000D01*
X175444685Y-154933000D01*
X175892768Y-155381083D01*
X176047309Y-155287400D01*
X176094001Y-155052664D01*
X176094001Y-154813336D01*
X176203999Y-154813336D01*
X176203999Y-155052670D01*
X176250691Y-155287400D01*
X176405232Y-155381083D01*
X176853315Y-154933000D01*
X177984685Y-154933000D01*
X178432768Y-155381083D01*
X178587309Y-155287400D01*
X178634001Y-155052664D01*
X178634001Y-154813336D01*
X178743999Y-154813336D01*
X178743999Y-155052670D01*
X178790691Y-155287400D01*
X178945232Y-155381083D01*
X179393315Y-154933000D01*
X180524685Y-154933000D01*
X180972768Y-155381083D01*
X181127309Y-155287400D01*
X181174001Y-155052664D01*
X181174001Y-154813336D01*
X181283999Y-154813336D01*
X181283999Y-155052670D01*
X181330691Y-155287400D01*
X181485232Y-155381083D01*
X181933315Y-154933000D01*
X183064685Y-154933000D01*
X183512768Y-155381083D01*
X183667309Y-155287400D01*
X183714001Y-155052664D01*
X183714001Y-154813336D01*
X183823999Y-154813336D01*
X183823999Y-155052670D01*
X183870691Y-155287400D01*
X184025232Y-155381083D01*
X184473315Y-154933000D01*
X185604685Y-154933000D01*
X186052768Y-155381083D01*
X186207309Y-155287400D01*
X186254001Y-155052664D01*
X186254001Y-154813336D01*
X186363999Y-154813336D01*
X186363999Y-155052670D01*
X186410691Y-155287400D01*
X186565232Y-155381083D01*
X187013315Y-154933000D01*
X188144685Y-154933000D01*
X188592768Y-155381083D01*
X188747309Y-155287400D01*
X188794001Y-155052664D01*
X188794001Y-154813336D01*
X188903999Y-154813336D01*
X188903999Y-155052670D01*
X188950691Y-155287400D01*
X189105232Y-155381083D01*
X189553315Y-154933000D01*
X190684685Y-154933000D01*
X191132768Y-155381083D01*
X191287309Y-155287400D01*
X191334001Y-155052664D01*
X191334001Y-154813336D01*
X191443999Y-154813336D01*
X191443999Y-155052670D01*
X191490691Y-155287400D01*
X191645232Y-155381083D01*
X192093315Y-154933000D01*
X193224685Y-154933000D01*
X193672768Y-155381083D01*
X193827309Y-155287400D01*
X193874001Y-155052664D01*
X193874001Y-154813336D01*
X193983999Y-154813336D01*
X193983999Y-155052670D01*
X194030691Y-155287400D01*
X194185232Y-155381083D01*
X194633315Y-154933000D01*
X195764685Y-154933000D01*
X196212768Y-155381083D01*
X196367309Y-155287400D01*
X196414001Y-155052664D01*
X196414001Y-154813336D01*
X196523999Y-154813336D01*
X196523999Y-155052670D01*
X196570691Y-155287400D01*
X196725232Y-155381083D01*
X197173315Y-154933000D01*
X198304685Y-154933000D01*
X198752768Y-155381083D01*
X198907309Y-155287400D01*
X198954001Y-155052664D01*
X198954001Y-154813330D01*
X198907309Y-154578600D01*
X198752768Y-154484917D01*
X198304685Y-154933000D01*
X197173315Y-154933000D01*
X196725232Y-154484917D01*
X196570691Y-154578600D01*
X196523999Y-154813336D01*
X196414001Y-154813336D01*
X196414001Y-154813330D01*
X196367309Y-154578600D01*
X196212768Y-154484917D01*
X195764685Y-154933000D01*
X194633315Y-154933000D01*
X194185232Y-154484917D01*
X194030691Y-154578600D01*
X193983999Y-154813336D01*
X193874001Y-154813336D01*
X193874001Y-154813330D01*
X193827309Y-154578600D01*
X193672768Y-154484917D01*
X193224685Y-154933000D01*
X192093315Y-154933000D01*
X191645232Y-154484917D01*
X191490691Y-154578600D01*
X191443999Y-154813336D01*
X191334001Y-154813336D01*
X191334001Y-154813330D01*
X191287309Y-154578600D01*
X191132768Y-154484917D01*
X190684685Y-154933000D01*
X189553315Y-154933000D01*
X189105232Y-154484917D01*
X188950691Y-154578600D01*
X188903999Y-154813336D01*
X188794001Y-154813336D01*
X188794001Y-154813330D01*
X188747309Y-154578600D01*
X188592768Y-154484917D01*
X188144685Y-154933000D01*
X187013315Y-154933000D01*
X186565232Y-154484917D01*
X186410691Y-154578600D01*
X186363999Y-154813336D01*
X186254001Y-154813336D01*
X186254001Y-154813330D01*
X186207309Y-154578600D01*
X186052768Y-154484917D01*
X185604685Y-154933000D01*
X184473315Y-154933000D01*
X184025232Y-154484917D01*
X183870691Y-154578600D01*
X183823999Y-154813336D01*
X183714001Y-154813336D01*
X183714001Y-154813330D01*
X183667309Y-154578600D01*
X183512768Y-154484917D01*
X183064685Y-154933000D01*
X181933315Y-154933000D01*
X181485232Y-154484917D01*
X181330691Y-154578600D01*
X181283999Y-154813336D01*
X181174001Y-154813336D01*
X181174001Y-154813330D01*
X181127309Y-154578600D01*
X180972768Y-154484917D01*
X180524685Y-154933000D01*
X179393315Y-154933000D01*
X178945232Y-154484917D01*
X178790691Y-154578600D01*
X178743999Y-154813336D01*
X178634001Y-154813336D01*
X178634001Y-154813330D01*
X178587309Y-154578600D01*
X178432768Y-154484917D01*
X177984685Y-154933000D01*
X176853315Y-154933000D01*
X176405232Y-154484917D01*
X176250691Y-154578600D01*
X176203999Y-154813336D01*
X176094001Y-154813336D01*
X176094001Y-154813330D01*
X176047309Y-154578600D01*
X175892768Y-154484917D01*
X175444685Y-154933000D01*
X174313315Y-154933000D01*
X173865232Y-154484917D01*
X173710691Y-154578600D01*
X173663999Y-154813336D01*
X173554001Y-154813336D01*
X173554001Y-154813330D01*
X173507309Y-154578600D01*
X173352768Y-154484917D01*
X172904685Y-154933000D01*
X171773315Y-154933000D01*
X171325232Y-154484917D01*
X171170691Y-154578600D01*
X171123999Y-154813336D01*
X171014001Y-154813336D01*
X171014001Y-154813330D01*
X170967309Y-154578600D01*
X170812768Y-154484917D01*
X170364685Y-154933000D01*
X169233315Y-154933000D01*
X168785232Y-154484917D01*
X168630691Y-154578600D01*
X168583999Y-154813336D01*
X168474001Y-154813336D01*
X168474001Y-154813330D01*
X168427309Y-154578600D01*
X168272768Y-154484917D01*
X167824685Y-154933000D01*
X166693315Y-154933000D01*
X166679173Y-154918858D01*
X167244858Y-154353173D01*
X167259000Y-154367315D01*
X167707083Y-153919232D01*
X169350917Y-153919232D01*
X169799000Y-154367315D01*
X170247083Y-153919232D01*
X171890917Y-153919232D01*
X172339000Y-154367315D01*
X172787083Y-153919232D01*
X174430917Y-153919232D01*
X174879000Y-154367315D01*
X175327083Y-153919232D01*
X176970917Y-153919232D01*
X177419000Y-154367315D01*
X177867083Y-153919232D01*
X179510917Y-153919232D01*
X179959000Y-154367315D01*
X180407083Y-153919232D01*
X182050917Y-153919232D01*
X182499000Y-154367315D01*
X182947083Y-153919232D01*
X184590917Y-153919232D01*
X185039000Y-154367315D01*
X185487083Y-153919232D01*
X187130917Y-153919232D01*
X187579000Y-154367315D01*
X188027083Y-153919232D01*
X189670917Y-153919232D01*
X190119000Y-154367315D01*
X190567083Y-153919232D01*
X192210917Y-153919232D01*
X192659000Y-154367315D01*
X193107083Y-153919232D01*
X194750917Y-153919232D01*
X195199000Y-154367315D01*
X195647083Y-153919232D01*
X197290917Y-153919232D01*
X197739000Y-154367315D01*
X198187083Y-153919232D01*
X198093400Y-153764691D01*
X197858664Y-153717999D01*
X197619330Y-153717999D01*
X197384600Y-153764691D01*
X197290917Y-153919232D01*
X195647083Y-153919232D01*
X195553400Y-153764691D01*
X195318664Y-153717999D01*
X195079330Y-153717999D01*
X194844600Y-153764691D01*
X194750917Y-153919232D01*
X193107083Y-153919232D01*
X193013400Y-153764691D01*
X192778664Y-153717999D01*
X192539330Y-153717999D01*
X192304600Y-153764691D01*
X192210917Y-153919232D01*
X190567083Y-153919232D01*
X190473400Y-153764691D01*
X190238664Y-153717999D01*
X189999330Y-153717999D01*
X189764600Y-153764691D01*
X189670917Y-153919232D01*
X188027083Y-153919232D01*
X187933400Y-153764691D01*
X187698664Y-153717999D01*
X187459330Y-153717999D01*
X187224600Y-153764691D01*
X187130917Y-153919232D01*
X185487083Y-153919232D01*
X185393400Y-153764691D01*
X185158664Y-153717999D01*
X184919330Y-153717999D01*
X184684600Y-153764691D01*
X184590917Y-153919232D01*
X182947083Y-153919232D01*
X182853400Y-153764691D01*
X182618664Y-153717999D01*
X182379330Y-153717999D01*
X182144600Y-153764691D01*
X182050917Y-153919232D01*
X180407083Y-153919232D01*
X180313400Y-153764691D01*
X180078664Y-153717999D01*
X179839330Y-153717999D01*
X179604600Y-153764691D01*
X179510917Y-153919232D01*
X177867083Y-153919232D01*
X177773400Y-153764691D01*
X177538664Y-153717999D01*
X177299330Y-153717999D01*
X177064600Y-153764691D01*
X176970917Y-153919232D01*
X175327083Y-153919232D01*
X175233400Y-153764691D01*
X174998664Y-153717999D01*
X174759330Y-153717999D01*
X174524600Y-153764691D01*
X174430917Y-153919232D01*
X172787083Y-153919232D01*
X172693400Y-153764691D01*
X172458664Y-153717999D01*
X172219330Y-153717999D01*
X171984600Y-153764691D01*
X171890917Y-153919232D01*
X170247083Y-153919232D01*
X170153400Y-153764691D01*
X169918664Y-153717999D01*
X169679330Y-153717999D01*
X169444600Y-153764691D01*
X169350917Y-153919232D01*
X167707083Y-153919232D01*
X167613400Y-153764691D01*
X167378664Y-153717999D01*
X167139330Y-153717999D01*
X166904600Y-153764691D01*
X166810918Y-153919230D01*
X166678895Y-153787206D01*
X166597000Y-153869101D01*
X166597000Y-150939500D01*
X166596692Y-150931654D01*
X166575584Y-150663447D01*
X166573129Y-150647948D01*
X166510323Y-150386345D01*
X166505474Y-150371422D01*
X166402519Y-150122865D01*
X166395395Y-150108883D01*
X166254824Y-149879492D01*
X166245601Y-149866797D01*
X166070876Y-149662220D01*
X166059780Y-149651124D01*
X165855203Y-149476399D01*
X165842508Y-149467176D01*
X165613117Y-149326605D01*
X165599135Y-149319481D01*
X165350578Y-149216526D01*
X165335655Y-149211677D01*
X165074052Y-149148871D01*
X165058553Y-149146416D01*
X164529984Y-149104817D01*
X164283686Y-149045686D01*
X164049673Y-148948755D01*
X163833704Y-148816409D01*
X163641095Y-148651905D01*
X163476591Y-148459296D01*
X163344245Y-148243327D01*
X163247314Y-148009314D01*
X163188183Y-147763016D01*
X163168000Y-147506568D01*
X163168000Y-146300000D01*
X165807823Y-146300000D01*
X165816511Y-146388215D01*
X165842243Y-146473041D01*
X165884029Y-146551216D01*
X165940263Y-146619737D01*
X166008784Y-146675971D01*
X166086959Y-146717757D01*
X166171785Y-146743489D01*
X166260000Y-146752177D01*
X167747500Y-146750000D01*
X167860000Y-146637500D01*
X167860000Y-144700000D01*
X168660000Y-144700000D01*
X168660000Y-146637500D01*
X168772500Y-146750000D01*
X170260000Y-146752177D01*
X170348215Y-146743489D01*
X170433041Y-146717757D01*
X170511216Y-146675971D01*
X170579737Y-146619737D01*
X170635971Y-146551216D01*
X170677757Y-146473041D01*
X170703489Y-146388215D01*
X170712177Y-146300000D01*
X170712060Y-146219832D01*
X176405853Y-146219832D01*
X176655793Y-146500331D01*
X177106273Y-146673473D01*
X177581876Y-146755402D01*
X178064324Y-146742973D01*
X178535077Y-146636661D01*
X178864207Y-146500331D01*
X179114147Y-146219832D01*
X185905853Y-146219832D01*
X186155793Y-146500331D01*
X186606273Y-146673473D01*
X187081876Y-146755402D01*
X187564324Y-146742973D01*
X188035077Y-146636661D01*
X188364207Y-146500331D01*
X188614147Y-146219832D01*
X195405853Y-146219832D01*
X195655793Y-146500331D01*
X196106273Y-146673473D01*
X196581876Y-146755402D01*
X197064324Y-146742973D01*
X197535077Y-146636661D01*
X197864207Y-146500331D01*
X198114147Y-146219832D01*
X196760000Y-144865685D01*
X195405853Y-146219832D01*
X188614147Y-146219832D01*
X187260000Y-144865685D01*
X185905853Y-146219832D01*
X179114147Y-146219832D01*
X177760000Y-144865685D01*
X176405853Y-146219832D01*
X170712060Y-146219832D01*
X170710000Y-144812500D01*
X170597500Y-144700000D01*
X168660000Y-144700000D01*
X167860000Y-144700000D01*
X165922500Y-144700000D01*
X165810000Y-144812500D01*
X165807823Y-146300000D01*
X163168000Y-146300000D01*
X163168000Y-144121876D01*
X175304598Y-144121876D01*
X175317027Y-144604324D01*
X175423339Y-145075077D01*
X175559669Y-145404207D01*
X175840168Y-145654147D01*
X177194315Y-144300000D01*
X178325685Y-144300000D01*
X179679832Y-145654147D01*
X179960331Y-145404207D01*
X180133473Y-144953727D01*
X180215402Y-144478124D01*
X180206225Y-144121876D01*
X184804598Y-144121876D01*
X184817027Y-144604324D01*
X184923339Y-145075077D01*
X185059669Y-145404207D01*
X185340168Y-145654147D01*
X186694315Y-144300000D01*
X187825685Y-144300000D01*
X189179832Y-145654147D01*
X189460331Y-145404207D01*
X189633473Y-144953727D01*
X189715402Y-144478124D01*
X189706225Y-144121876D01*
X194304598Y-144121876D01*
X194317027Y-144604324D01*
X194423339Y-145075077D01*
X194559669Y-145404207D01*
X194840168Y-145654147D01*
X196194315Y-144300000D01*
X197325685Y-144300000D01*
X198679832Y-145654147D01*
X198960331Y-145404207D01*
X199133473Y-144953727D01*
X199215402Y-144478124D01*
X199202973Y-143995676D01*
X199096661Y-143524923D01*
X198960331Y-143195793D01*
X198679832Y-142945853D01*
X197325685Y-144300000D01*
X196194315Y-144300000D01*
X194840168Y-142945853D01*
X194559669Y-143195793D01*
X194386527Y-143646273D01*
X194304598Y-144121876D01*
X189706225Y-144121876D01*
X189702973Y-143995676D01*
X189596661Y-143524923D01*
X189460331Y-143195793D01*
X189179832Y-142945853D01*
X187825685Y-144300000D01*
X186694315Y-144300000D01*
X185340168Y-142945853D01*
X185059669Y-143195793D01*
X184886527Y-143646273D01*
X184804598Y-144121876D01*
X180206225Y-144121876D01*
X180202973Y-143995676D01*
X180096661Y-143524923D01*
X179960331Y-143195793D01*
X179679832Y-142945853D01*
X178325685Y-144300000D01*
X177194315Y-144300000D01*
X175840168Y-142945853D01*
X175559669Y-143195793D01*
X175386527Y-143646273D01*
X175304598Y-144121876D01*
X163168000Y-144121876D01*
X163168000Y-142300000D01*
X165807823Y-142300000D01*
X165810000Y-143787500D01*
X165922500Y-143900000D01*
X167860000Y-143900000D01*
X167860000Y-141962500D01*
X168660000Y-141962500D01*
X168660000Y-143900000D01*
X170597500Y-143900000D01*
X170710000Y-143787500D01*
X170712059Y-142380168D01*
X176405853Y-142380168D01*
X177760000Y-143734315D01*
X179114147Y-142380168D01*
X185905853Y-142380168D01*
X187260000Y-143734315D01*
X188614147Y-142380168D01*
X195405853Y-142380168D01*
X196760000Y-143734315D01*
X198114147Y-142380168D01*
X197864207Y-142099669D01*
X197413727Y-141926527D01*
X196938124Y-141844598D01*
X196455676Y-141857027D01*
X195984923Y-141963339D01*
X195655793Y-142099669D01*
X195405853Y-142380168D01*
X188614147Y-142380168D01*
X188364207Y-142099669D01*
X187913727Y-141926527D01*
X187438124Y-141844598D01*
X186955676Y-141857027D01*
X186484923Y-141963339D01*
X186155793Y-142099669D01*
X185905853Y-142380168D01*
X179114147Y-142380168D01*
X178864207Y-142099669D01*
X178413727Y-141926527D01*
X177938124Y-141844598D01*
X177455676Y-141857027D01*
X176984923Y-141963339D01*
X176655793Y-142099669D01*
X176405853Y-142380168D01*
X170712059Y-142380168D01*
X170712177Y-142300000D01*
X170703489Y-142211785D01*
X170677757Y-142126959D01*
X170635971Y-142048784D01*
X170579737Y-141980263D01*
X170511216Y-141924029D01*
X170433041Y-141882243D01*
X170348215Y-141856511D01*
X170260000Y-141847823D01*
X168772500Y-141850000D01*
X168660000Y-141962500D01*
X167860000Y-141962500D01*
X167747500Y-141850000D01*
X166260000Y-141847823D01*
X166171785Y-141856511D01*
X166086959Y-141882243D01*
X166008784Y-141924029D01*
X165940263Y-141980263D01*
X165884029Y-142048784D01*
X165842243Y-142126959D01*
X165816511Y-142211785D01*
X165807823Y-142300000D01*
X163168000Y-142300000D01*
X163168000Y-138274569D01*
X163187591Y-138000642D01*
X163245210Y-137735777D01*
X163339931Y-137481819D01*
X163469834Y-137243920D01*
X163632267Y-137026935D01*
X163823935Y-136835267D01*
X164040920Y-136672834D01*
X164273199Y-136546000D01*
X201994801Y-136546000D01*
X202227080Y-136672834D01*
G36*
X160444080Y-136672834D02*
G01*
X160661065Y-136835267D01*
X160852733Y-137026935D01*
X161015166Y-137243920D01*
X161145069Y-137481819D01*
X161239790Y-137735777D01*
X161297409Y-138000642D01*
X161317000Y-138274569D01*
X161317000Y-148876000D01*
X161317255Y-148883134D01*
X161337612Y-149167764D01*
X161339642Y-149181887D01*
X161400299Y-149460722D01*
X161404319Y-149474411D01*
X161504041Y-149741776D01*
X161509968Y-149754755D01*
X161646725Y-150005207D01*
X161654439Y-150017210D01*
X161825447Y-150245649D01*
X161834790Y-150256432D01*
X162036568Y-150458210D01*
X162047351Y-150467553D01*
X162275790Y-150638561D01*
X162287793Y-150646275D01*
X162538245Y-150783032D01*
X162551224Y-150788959D01*
X162818589Y-150888681D01*
X162832278Y-150892701D01*
X163111113Y-150953358D01*
X163125236Y-150955388D01*
X163409866Y-150975745D01*
X163417000Y-150976000D01*
X163477431Y-150976000D01*
X163751358Y-150995591D01*
X164016223Y-151053210D01*
X164270181Y-151147931D01*
X164508080Y-151277834D01*
X164725065Y-151440267D01*
X164916733Y-151631935D01*
X165079166Y-151848920D01*
X165209069Y-152086819D01*
X165303790Y-152340777D01*
X165361409Y-152605642D01*
X165381000Y-152879569D01*
X165381000Y-153869101D01*
X165299105Y-153787206D01*
X165167082Y-153919230D01*
X165073400Y-153764691D01*
X164838664Y-153717999D01*
X164599330Y-153717999D01*
X164364600Y-153764691D01*
X164270917Y-153919232D01*
X164719000Y-154367315D01*
X164733143Y-154353173D01*
X165298828Y-154918858D01*
X165284685Y-154933000D01*
X165298828Y-154947143D01*
X164733143Y-155512828D01*
X164719000Y-155498685D01*
X164270917Y-155946768D01*
X164364600Y-156101309D01*
X164599336Y-156148001D01*
X164838670Y-156148001D01*
X165073400Y-156101309D01*
X165167082Y-155946770D01*
X165299105Y-156078794D01*
X165381000Y-155996899D01*
X165381000Y-158709101D01*
X165299105Y-158627206D01*
X165167082Y-158759230D01*
X165073400Y-158604691D01*
X164838664Y-158557999D01*
X164599330Y-158557999D01*
X164364600Y-158604691D01*
X164270917Y-158759232D01*
X164719000Y-159207315D01*
X164733143Y-159193173D01*
X165298828Y-159758858D01*
X165284685Y-159773000D01*
X165298828Y-159787143D01*
X164733143Y-160352828D01*
X164719000Y-160338685D01*
X164270917Y-160786768D01*
X164364600Y-160941309D01*
X164599336Y-160988001D01*
X164838670Y-160988001D01*
X165073400Y-160941309D01*
X165167082Y-160786770D01*
X165299105Y-160918794D01*
X165354144Y-160863755D01*
X165303790Y-161095223D01*
X165209069Y-161349181D01*
X165079166Y-161587080D01*
X164916733Y-161804065D01*
X164725065Y-161995733D01*
X164508080Y-162158166D01*
X164275801Y-162285000D01*
X114743199Y-162285000D01*
X114510920Y-162158166D01*
X114293935Y-161995733D01*
X114102267Y-161804065D01*
X113939834Y-161587080D01*
X113813000Y-161354801D01*
X113813000Y-159668107D01*
X117934000Y-159668107D01*
X117934000Y-159877893D01*
X117974927Y-160083649D01*
X118055209Y-160277467D01*
X118171761Y-160451898D01*
X118320102Y-160600239D01*
X118494533Y-160716791D01*
X118688351Y-160797073D01*
X118894107Y-160838000D01*
X119103893Y-160838000D01*
X119309649Y-160797073D01*
X119503467Y-160716791D01*
X119677898Y-160600239D01*
X119826239Y-160451898D01*
X119942791Y-160277467D01*
X120023073Y-160083649D01*
X120064000Y-159877893D01*
X120064000Y-159668107D01*
X120474000Y-159668107D01*
X120474000Y-159877893D01*
X120514927Y-160083649D01*
X120595209Y-160277467D01*
X120711761Y-160451898D01*
X120860102Y-160600239D01*
X121034533Y-160716791D01*
X121228351Y-160797073D01*
X121434107Y-160838000D01*
X121643893Y-160838000D01*
X121849649Y-160797073D01*
X122043467Y-160716791D01*
X122217898Y-160600239D01*
X122366239Y-160451898D01*
X122482791Y-160277467D01*
X122563073Y-160083649D01*
X122604000Y-159877893D01*
X122604000Y-159668107D01*
X123014000Y-159668107D01*
X123014000Y-159877893D01*
X123054927Y-160083649D01*
X123135209Y-160277467D01*
X123251761Y-160451898D01*
X123400102Y-160600239D01*
X123574533Y-160716791D01*
X123768351Y-160797073D01*
X123974107Y-160838000D01*
X124183893Y-160838000D01*
X124389649Y-160797073D01*
X124583467Y-160716791D01*
X124757898Y-160600239D01*
X124906239Y-160451898D01*
X125022791Y-160277467D01*
X125103073Y-160083649D01*
X125144000Y-159877893D01*
X125144000Y-159668107D01*
X125554000Y-159668107D01*
X125554000Y-159877893D01*
X125594927Y-160083649D01*
X125675209Y-160277467D01*
X125791761Y-160451898D01*
X125940102Y-160600239D01*
X126114533Y-160716791D01*
X126308351Y-160797073D01*
X126514107Y-160838000D01*
X126723893Y-160838000D01*
X126929649Y-160797073D01*
X127123467Y-160716791D01*
X127297898Y-160600239D01*
X127446239Y-160451898D01*
X127562791Y-160277467D01*
X127643073Y-160083649D01*
X127684000Y-159877893D01*
X127684000Y-159668107D01*
X128094000Y-159668107D01*
X128094000Y-159877893D01*
X128134927Y-160083649D01*
X128215209Y-160277467D01*
X128331761Y-160451898D01*
X128480102Y-160600239D01*
X128654533Y-160716791D01*
X128848351Y-160797073D01*
X129054107Y-160838000D01*
X129263893Y-160838000D01*
X129469649Y-160797073D01*
X129663467Y-160716791D01*
X129837898Y-160600239D01*
X129986239Y-160451898D01*
X130102791Y-160277467D01*
X130183073Y-160083649D01*
X130224000Y-159877893D01*
X130224000Y-159668107D01*
X130634000Y-159668107D01*
X130634000Y-159877893D01*
X130674927Y-160083649D01*
X130755209Y-160277467D01*
X130871761Y-160451898D01*
X131020102Y-160600239D01*
X131194533Y-160716791D01*
X131388351Y-160797073D01*
X131594107Y-160838000D01*
X131803893Y-160838000D01*
X132009649Y-160797073D01*
X132034527Y-160786768D01*
X133790917Y-160786768D01*
X133884600Y-160941309D01*
X134119336Y-160988001D01*
X134358670Y-160988001D01*
X134593400Y-160941309D01*
X134687083Y-160786768D01*
X136330917Y-160786768D01*
X136424600Y-160941309D01*
X136659336Y-160988001D01*
X136898670Y-160988001D01*
X137133400Y-160941309D01*
X137227083Y-160786768D01*
X138870917Y-160786768D01*
X138964600Y-160941309D01*
X139199336Y-160988001D01*
X139438670Y-160988001D01*
X139673400Y-160941309D01*
X139767083Y-160786768D01*
X141410917Y-160786768D01*
X141504600Y-160941309D01*
X141739336Y-160988001D01*
X141978670Y-160988001D01*
X142213400Y-160941309D01*
X142307083Y-160786768D01*
X143950917Y-160786768D01*
X144044600Y-160941309D01*
X144279336Y-160988001D01*
X144518670Y-160988001D01*
X144753400Y-160941309D01*
X144847083Y-160786768D01*
X146490917Y-160786768D01*
X146584600Y-160941309D01*
X146819336Y-160988001D01*
X147058670Y-160988001D01*
X147293400Y-160941309D01*
X147387083Y-160786768D01*
X149030917Y-160786768D01*
X149124600Y-160941309D01*
X149359336Y-160988001D01*
X149598670Y-160988001D01*
X149833400Y-160941309D01*
X149927083Y-160786768D01*
X151570917Y-160786768D01*
X151664600Y-160941309D01*
X151899336Y-160988001D01*
X152138670Y-160988001D01*
X152373400Y-160941309D01*
X152467083Y-160786768D01*
X154110917Y-160786768D01*
X154204600Y-160941309D01*
X154439336Y-160988001D01*
X154678670Y-160988001D01*
X154913400Y-160941309D01*
X155007083Y-160786768D01*
X156650917Y-160786768D01*
X156744600Y-160941309D01*
X156979336Y-160988001D01*
X157218670Y-160988001D01*
X157453400Y-160941309D01*
X157547083Y-160786768D01*
X159190917Y-160786768D01*
X159284600Y-160941309D01*
X159519336Y-160988001D01*
X159758670Y-160988001D01*
X159993400Y-160941309D01*
X160087083Y-160786768D01*
X161730917Y-160786768D01*
X161824600Y-160941309D01*
X162059336Y-160988001D01*
X162298670Y-160988001D01*
X162533400Y-160941309D01*
X162627083Y-160786768D01*
X162179000Y-160338685D01*
X161730917Y-160786768D01*
X160087083Y-160786768D01*
X159639000Y-160338685D01*
X159190917Y-160786768D01*
X157547083Y-160786768D01*
X157099000Y-160338685D01*
X156650917Y-160786768D01*
X155007083Y-160786768D01*
X154559000Y-160338685D01*
X154110917Y-160786768D01*
X152467083Y-160786768D01*
X152019000Y-160338685D01*
X151570917Y-160786768D01*
X149927083Y-160786768D01*
X149479000Y-160338685D01*
X149030917Y-160786768D01*
X147387083Y-160786768D01*
X146939000Y-160338685D01*
X146490917Y-160786768D01*
X144847083Y-160786768D01*
X144399000Y-160338685D01*
X143950917Y-160786768D01*
X142307083Y-160786768D01*
X141859000Y-160338685D01*
X141410917Y-160786768D01*
X139767083Y-160786768D01*
X139319000Y-160338685D01*
X138870917Y-160786768D01*
X137227083Y-160786768D01*
X136779000Y-160338685D01*
X136330917Y-160786768D01*
X134687083Y-160786768D01*
X134239000Y-160338685D01*
X133790917Y-160786768D01*
X132034527Y-160786768D01*
X132203467Y-160716791D01*
X132377898Y-160600239D01*
X132526239Y-160451898D01*
X132642791Y-160277467D01*
X132723073Y-160083649D01*
X132764000Y-159877893D01*
X132764000Y-159668107D01*
X132761062Y-159653336D01*
X133023999Y-159653336D01*
X133023999Y-159892670D01*
X133070691Y-160127400D01*
X133225232Y-160221083D01*
X133673315Y-159773000D01*
X134804685Y-159773000D01*
X135252768Y-160221083D01*
X135407309Y-160127400D01*
X135454001Y-159892664D01*
X135454001Y-159653336D01*
X135563999Y-159653336D01*
X135563999Y-159892670D01*
X135610691Y-160127400D01*
X135765232Y-160221083D01*
X136213315Y-159773000D01*
X137344685Y-159773000D01*
X137792768Y-160221083D01*
X137947309Y-160127400D01*
X137994001Y-159892664D01*
X137994001Y-159653336D01*
X138103999Y-159653336D01*
X138103999Y-159892670D01*
X138150691Y-160127400D01*
X138305232Y-160221083D01*
X138753315Y-159773000D01*
X139884685Y-159773000D01*
X140332768Y-160221083D01*
X140487309Y-160127400D01*
X140534001Y-159892664D01*
X140534001Y-159653336D01*
X140643999Y-159653336D01*
X140643999Y-159892670D01*
X140690691Y-160127400D01*
X140845232Y-160221083D01*
X141293315Y-159773000D01*
X142424685Y-159773000D01*
X142872768Y-160221083D01*
X143027309Y-160127400D01*
X143074001Y-159892664D01*
X143074001Y-159653336D01*
X143183999Y-159653336D01*
X143183999Y-159892670D01*
X143230691Y-160127400D01*
X143385232Y-160221083D01*
X143833315Y-159773000D01*
X144964685Y-159773000D01*
X145412768Y-160221083D01*
X145567309Y-160127400D01*
X145614001Y-159892664D01*
X145614001Y-159653336D01*
X145723999Y-159653336D01*
X145723999Y-159892670D01*
X145770691Y-160127400D01*
X145925232Y-160221083D01*
X146373315Y-159773000D01*
X147504685Y-159773000D01*
X147952768Y-160221083D01*
X148107309Y-160127400D01*
X148154001Y-159892664D01*
X148154001Y-159653336D01*
X148263999Y-159653336D01*
X148263999Y-159892670D01*
X148310691Y-160127400D01*
X148465232Y-160221083D01*
X148913315Y-159773000D01*
X150044685Y-159773000D01*
X150492768Y-160221083D01*
X150647309Y-160127400D01*
X150694001Y-159892664D01*
X150694001Y-159653336D01*
X150803999Y-159653336D01*
X150803999Y-159892670D01*
X150850691Y-160127400D01*
X151005232Y-160221083D01*
X151453315Y-159773000D01*
X152584685Y-159773000D01*
X153032768Y-160221083D01*
X153187309Y-160127400D01*
X153234001Y-159892664D01*
X153234001Y-159653336D01*
X153343999Y-159653336D01*
X153343999Y-159892670D01*
X153390691Y-160127400D01*
X153545232Y-160221083D01*
X153993315Y-159773000D01*
X155124685Y-159773000D01*
X155572768Y-160221083D01*
X155727309Y-160127400D01*
X155774001Y-159892664D01*
X155774001Y-159653336D01*
X155883999Y-159653336D01*
X155883999Y-159892670D01*
X155930691Y-160127400D01*
X156085232Y-160221083D01*
X156533315Y-159773000D01*
X157664685Y-159773000D01*
X158112768Y-160221083D01*
X158267309Y-160127400D01*
X158314001Y-159892664D01*
X158314001Y-159653336D01*
X158423999Y-159653336D01*
X158423999Y-159892670D01*
X158470691Y-160127400D01*
X158625232Y-160221083D01*
X159073315Y-159773000D01*
X160204685Y-159773000D01*
X160652768Y-160221083D01*
X160807309Y-160127400D01*
X160854001Y-159892664D01*
X160854001Y-159653336D01*
X160963999Y-159653336D01*
X160963999Y-159892670D01*
X161010691Y-160127400D01*
X161165232Y-160221083D01*
X161613315Y-159773000D01*
X162744685Y-159773000D01*
X163192768Y-160221083D01*
X163347309Y-160127400D01*
X163394001Y-159892664D01*
X163394001Y-159653336D01*
X163503999Y-159653336D01*
X163503999Y-159892670D01*
X163550691Y-160127400D01*
X163705232Y-160221083D01*
X164153315Y-159773000D01*
X163705232Y-159324917D01*
X163550691Y-159418600D01*
X163503999Y-159653336D01*
X163394001Y-159653336D01*
X163394001Y-159653330D01*
X163347309Y-159418600D01*
X163192768Y-159324917D01*
X162744685Y-159773000D01*
X161613315Y-159773000D01*
X161165232Y-159324917D01*
X161010691Y-159418600D01*
X160963999Y-159653336D01*
X160854001Y-159653336D01*
X160854001Y-159653330D01*
X160807309Y-159418600D01*
X160652768Y-159324917D01*
X160204685Y-159773000D01*
X159073315Y-159773000D01*
X158625232Y-159324917D01*
X158470691Y-159418600D01*
X158423999Y-159653336D01*
X158314001Y-159653336D01*
X158314001Y-159653330D01*
X158267309Y-159418600D01*
X158112768Y-159324917D01*
X157664685Y-159773000D01*
X156533315Y-159773000D01*
X156085232Y-159324917D01*
X155930691Y-159418600D01*
X155883999Y-159653336D01*
X155774001Y-159653336D01*
X155774001Y-159653330D01*
X155727309Y-159418600D01*
X155572768Y-159324917D01*
X155124685Y-159773000D01*
X153993315Y-159773000D01*
X153545232Y-159324917D01*
X153390691Y-159418600D01*
X153343999Y-159653336D01*
X153234001Y-159653336D01*
X153234001Y-159653330D01*
X153187309Y-159418600D01*
X153032768Y-159324917D01*
X152584685Y-159773000D01*
X151453315Y-159773000D01*
X151005232Y-159324917D01*
X150850691Y-159418600D01*
X150803999Y-159653336D01*
X150694001Y-159653336D01*
X150694001Y-159653330D01*
X150647309Y-159418600D01*
X150492768Y-159324917D01*
X150044685Y-159773000D01*
X148913315Y-159773000D01*
X148465232Y-159324917D01*
X148310691Y-159418600D01*
X148263999Y-159653336D01*
X148154001Y-159653336D01*
X148154001Y-159653330D01*
X148107309Y-159418600D01*
X147952768Y-159324917D01*
X147504685Y-159773000D01*
X146373315Y-159773000D01*
X145925232Y-159324917D01*
X145770691Y-159418600D01*
X145723999Y-159653336D01*
X145614001Y-159653336D01*
X145614001Y-159653330D01*
X145567309Y-159418600D01*
X145412768Y-159324917D01*
X144964685Y-159773000D01*
X143833315Y-159773000D01*
X143385232Y-159324917D01*
X143230691Y-159418600D01*
X143183999Y-159653336D01*
X143074001Y-159653336D01*
X143074001Y-159653330D01*
X143027309Y-159418600D01*
X142872768Y-159324917D01*
X142424685Y-159773000D01*
X141293315Y-159773000D01*
X140845232Y-159324917D01*
X140690691Y-159418600D01*
X140643999Y-159653336D01*
X140534001Y-159653336D01*
X140534001Y-159653330D01*
X140487309Y-159418600D01*
X140332768Y-159324917D01*
X139884685Y-159773000D01*
X138753315Y-159773000D01*
X138305232Y-159324917D01*
X138150691Y-159418600D01*
X138103999Y-159653336D01*
X137994001Y-159653336D01*
X137994001Y-159653330D01*
X137947309Y-159418600D01*
X137792768Y-159324917D01*
X137344685Y-159773000D01*
X136213315Y-159773000D01*
X135765232Y-159324917D01*
X135610691Y-159418600D01*
X135563999Y-159653336D01*
X135454001Y-159653336D01*
X135454001Y-159653330D01*
X135407309Y-159418600D01*
X135252768Y-159324917D01*
X134804685Y-159773000D01*
X133673315Y-159773000D01*
X133225232Y-159324917D01*
X133070691Y-159418600D01*
X133023999Y-159653336D01*
X132761062Y-159653336D01*
X132723073Y-159462351D01*
X132642791Y-159268533D01*
X132526239Y-159094102D01*
X132377898Y-158945761D01*
X132203467Y-158829209D01*
X132034528Y-158759232D01*
X133790917Y-158759232D01*
X134239000Y-159207315D01*
X134687083Y-158759232D01*
X136330917Y-158759232D01*
X136779000Y-159207315D01*
X137227083Y-158759232D01*
X138870917Y-158759232D01*
X139319000Y-159207315D01*
X139767083Y-158759232D01*
X141410917Y-158759232D01*
X141859000Y-159207315D01*
X142307083Y-158759232D01*
X143950917Y-158759232D01*
X144399000Y-159207315D01*
X144847083Y-158759232D01*
X146490917Y-158759232D01*
X146939000Y-159207315D01*
X147387083Y-158759232D01*
X149030917Y-158759232D01*
X149479000Y-159207315D01*
X149927083Y-158759232D01*
X151570917Y-158759232D01*
X152019000Y-159207315D01*
X152467083Y-158759232D01*
X154110917Y-158759232D01*
X154559000Y-159207315D01*
X155007083Y-158759232D01*
X156650917Y-158759232D01*
X157099000Y-159207315D01*
X157547083Y-158759232D01*
X159190917Y-158759232D01*
X159639000Y-159207315D01*
X160087083Y-158759232D01*
X161730917Y-158759232D01*
X162179000Y-159207315D01*
X162627083Y-158759232D01*
X162533400Y-158604691D01*
X162298664Y-158557999D01*
X162059330Y-158557999D01*
X161824600Y-158604691D01*
X161730917Y-158759232D01*
X160087083Y-158759232D01*
X159993400Y-158604691D01*
X159758664Y-158557999D01*
X159519330Y-158557999D01*
X159284600Y-158604691D01*
X159190917Y-158759232D01*
X157547083Y-158759232D01*
X157453400Y-158604691D01*
X157218664Y-158557999D01*
X156979330Y-158557999D01*
X156744600Y-158604691D01*
X156650917Y-158759232D01*
X155007083Y-158759232D01*
X154913400Y-158604691D01*
X154678664Y-158557999D01*
X154439330Y-158557999D01*
X154204600Y-158604691D01*
X154110917Y-158759232D01*
X152467083Y-158759232D01*
X152373400Y-158604691D01*
X152138664Y-158557999D01*
X151899330Y-158557999D01*
X151664600Y-158604691D01*
X151570917Y-158759232D01*
X149927083Y-158759232D01*
X149833400Y-158604691D01*
X149598664Y-158557999D01*
X149359330Y-158557999D01*
X149124600Y-158604691D01*
X149030917Y-158759232D01*
X147387083Y-158759232D01*
X147293400Y-158604691D01*
X147058664Y-158557999D01*
X146819330Y-158557999D01*
X146584600Y-158604691D01*
X146490917Y-158759232D01*
X144847083Y-158759232D01*
X144753400Y-158604691D01*
X144518664Y-158557999D01*
X144279330Y-158557999D01*
X144044600Y-158604691D01*
X143950917Y-158759232D01*
X142307083Y-158759232D01*
X142213400Y-158604691D01*
X141978664Y-158557999D01*
X141739330Y-158557999D01*
X141504600Y-158604691D01*
X141410917Y-158759232D01*
X139767083Y-158759232D01*
X139673400Y-158604691D01*
X139438664Y-158557999D01*
X139199330Y-158557999D01*
X138964600Y-158604691D01*
X138870917Y-158759232D01*
X137227083Y-158759232D01*
X137133400Y-158604691D01*
X136898664Y-158557999D01*
X136659330Y-158557999D01*
X136424600Y-158604691D01*
X136330917Y-158759232D01*
X134687083Y-158759232D01*
X134593400Y-158604691D01*
X134358664Y-158557999D01*
X134119330Y-158557999D01*
X133884600Y-158604691D01*
X133790917Y-158759232D01*
X132034528Y-158759232D01*
X132009649Y-158748927D01*
X131803893Y-158708000D01*
X131594107Y-158708000D01*
X131388351Y-158748927D01*
X131194533Y-158829209D01*
X131020102Y-158945761D01*
X130871761Y-159094102D01*
X130755209Y-159268533D01*
X130674927Y-159462351D01*
X130634000Y-159668107D01*
X130224000Y-159668107D01*
X130183073Y-159462351D01*
X130102791Y-159268533D01*
X129986239Y-159094102D01*
X129837898Y-158945761D01*
X129663467Y-158829209D01*
X129469649Y-158748927D01*
X129263893Y-158708000D01*
X129054107Y-158708000D01*
X128848351Y-158748927D01*
X128654533Y-158829209D01*
X128480102Y-158945761D01*
X128331761Y-159094102D01*
X128215209Y-159268533D01*
X128134927Y-159462351D01*
X128094000Y-159668107D01*
X127684000Y-159668107D01*
X127643073Y-159462351D01*
X127562791Y-159268533D01*
X127446239Y-159094102D01*
X127297898Y-158945761D01*
X127123467Y-158829209D01*
X126929649Y-158748927D01*
X126723893Y-158708000D01*
X126514107Y-158708000D01*
X126308351Y-158748927D01*
X126114533Y-158829209D01*
X125940102Y-158945761D01*
X125791761Y-159094102D01*
X125675209Y-159268533D01*
X125594927Y-159462351D01*
X125554000Y-159668107D01*
X125144000Y-159668107D01*
X125103073Y-159462351D01*
X125022791Y-159268533D01*
X124906239Y-159094102D01*
X124757898Y-158945761D01*
X124583467Y-158829209D01*
X124389649Y-158748927D01*
X124183893Y-158708000D01*
X123974107Y-158708000D01*
X123768351Y-158748927D01*
X123574533Y-158829209D01*
X123400102Y-158945761D01*
X123251761Y-159094102D01*
X123135209Y-159268533D01*
X123054927Y-159462351D01*
X123014000Y-159668107D01*
X122604000Y-159668107D01*
X122563073Y-159462351D01*
X122482791Y-159268533D01*
X122366239Y-159094102D01*
X122217898Y-158945761D01*
X122043467Y-158829209D01*
X121849649Y-158748927D01*
X121643893Y-158708000D01*
X121434107Y-158708000D01*
X121228351Y-158748927D01*
X121034533Y-158829209D01*
X120860102Y-158945761D01*
X120711761Y-159094102D01*
X120595209Y-159268533D01*
X120514927Y-159462351D01*
X120474000Y-159668107D01*
X120064000Y-159668107D01*
X120023073Y-159462351D01*
X119942791Y-159268533D01*
X119826239Y-159094102D01*
X119677898Y-158945761D01*
X119503467Y-158829209D01*
X119309649Y-158748927D01*
X119103893Y-158708000D01*
X118894107Y-158708000D01*
X118688351Y-158748927D01*
X118494533Y-158829209D01*
X118320102Y-158945761D01*
X118171761Y-159094102D01*
X118055209Y-159268533D01*
X117974927Y-159462351D01*
X117934000Y-159668107D01*
X113813000Y-159668107D01*
X113813000Y-150335061D01*
X113817917Y-150344260D01*
X113871027Y-150408974D01*
X113887239Y-150422279D01*
X117948240Y-154483281D01*
X117948245Y-154483285D01*
X118007843Y-154542884D01*
X117974927Y-154622351D01*
X117934000Y-154828107D01*
X117934000Y-155037893D01*
X117974927Y-155243649D01*
X118055209Y-155437467D01*
X118171761Y-155611898D01*
X118320102Y-155760239D01*
X118494533Y-155876791D01*
X118688351Y-155957073D01*
X118894107Y-155998000D01*
X119103893Y-155998000D01*
X119309649Y-155957073D01*
X119503467Y-155876791D01*
X119677898Y-155760239D01*
X119826239Y-155611898D01*
X119942791Y-155437467D01*
X120023073Y-155243649D01*
X120064000Y-155037893D01*
X120064000Y-154828107D01*
X120474000Y-154828107D01*
X120474000Y-155037893D01*
X120514927Y-155243649D01*
X120595209Y-155437467D01*
X120711761Y-155611898D01*
X120860102Y-155760239D01*
X121034533Y-155876791D01*
X121228351Y-155957073D01*
X121434107Y-155998000D01*
X121643893Y-155998000D01*
X121849649Y-155957073D01*
X122043467Y-155876791D01*
X122217898Y-155760239D01*
X122366239Y-155611898D01*
X122482791Y-155437467D01*
X122563073Y-155243649D01*
X122604000Y-155037893D01*
X122604000Y-154828107D01*
X123014000Y-154828107D01*
X123014000Y-155037893D01*
X123054927Y-155243649D01*
X123135209Y-155437467D01*
X123251761Y-155611898D01*
X123400102Y-155760239D01*
X123574533Y-155876791D01*
X123768351Y-155957073D01*
X123974107Y-155998000D01*
X124183893Y-155998000D01*
X124389649Y-155957073D01*
X124583467Y-155876791D01*
X124757898Y-155760239D01*
X124906239Y-155611898D01*
X125022791Y-155437467D01*
X125103073Y-155243649D01*
X125144000Y-155037893D01*
X125144000Y-154828107D01*
X125103073Y-154622351D01*
X125022791Y-154428533D01*
X124906239Y-154254102D01*
X124757898Y-154105761D01*
X124583467Y-153989209D01*
X124389649Y-153908927D01*
X124183893Y-153868000D01*
X123974107Y-153868000D01*
X123768351Y-153908927D01*
X123574533Y-153989209D01*
X123400102Y-154105761D01*
X123251761Y-154254102D01*
X123135209Y-154428533D01*
X123054927Y-154622351D01*
X123014000Y-154828107D01*
X122604000Y-154828107D01*
X122563073Y-154622351D01*
X122482791Y-154428533D01*
X122366239Y-154254102D01*
X122217898Y-154105761D01*
X122043467Y-153989209D01*
X121849649Y-153908927D01*
X121643893Y-153868000D01*
X121434107Y-153868000D01*
X121228351Y-153908927D01*
X121034533Y-153989209D01*
X120860102Y-154105761D01*
X120711761Y-154254102D01*
X120595209Y-154428533D01*
X120514927Y-154622351D01*
X120474000Y-154828107D01*
X120064000Y-154828107D01*
X120023073Y-154622351D01*
X119942791Y-154428533D01*
X119826239Y-154254102D01*
X119677898Y-154105761D01*
X119503467Y-153989209D01*
X119309649Y-153908927D01*
X119103893Y-153868000D01*
X118894107Y-153868000D01*
X118688351Y-153908927D01*
X118608884Y-153941843D01*
X118549285Y-153882245D01*
X118549281Y-153882240D01*
X114598000Y-149930960D01*
X114598000Y-148227659D01*
X118407000Y-148227659D01*
X118407000Y-148444341D01*
X118449273Y-148656858D01*
X118532193Y-148857045D01*
X118652575Y-149037209D01*
X118805791Y-149190425D01*
X118985955Y-149310807D01*
X119186142Y-149393727D01*
X119398659Y-149436000D01*
X119615341Y-149436000D01*
X119827858Y-149393727D01*
X120028045Y-149310807D01*
X120208209Y-149190425D01*
X120241797Y-149156837D01*
X125627843Y-154542884D01*
X125594927Y-154622351D01*
X125554000Y-154828107D01*
X125554000Y-155037893D01*
X125594927Y-155243649D01*
X125675209Y-155437467D01*
X125791761Y-155611898D01*
X125940102Y-155760239D01*
X126114533Y-155876791D01*
X126308351Y-155957073D01*
X126514107Y-155998000D01*
X126723893Y-155998000D01*
X126929649Y-155957073D01*
X127123467Y-155876791D01*
X127297898Y-155760239D01*
X127446239Y-155611898D01*
X127562791Y-155437467D01*
X127643073Y-155243649D01*
X127684000Y-155037893D01*
X127684000Y-154828107D01*
X128094000Y-154828107D01*
X128094000Y-155037893D01*
X128134927Y-155243649D01*
X128215209Y-155437467D01*
X128331761Y-155611898D01*
X128480102Y-155760239D01*
X128654533Y-155876791D01*
X128848351Y-155957073D01*
X129054107Y-155998000D01*
X129263893Y-155998000D01*
X129469649Y-155957073D01*
X129663467Y-155876791D01*
X129837898Y-155760239D01*
X129986239Y-155611898D01*
X130102791Y-155437467D01*
X130183073Y-155243649D01*
X130224000Y-155037893D01*
X130224000Y-154828107D01*
X130634000Y-154828107D01*
X130634000Y-155037893D01*
X130674927Y-155243649D01*
X130755209Y-155437467D01*
X130871761Y-155611898D01*
X131020102Y-155760239D01*
X131194533Y-155876791D01*
X131388351Y-155957073D01*
X131594107Y-155998000D01*
X131803893Y-155998000D01*
X132009649Y-155957073D01*
X132034527Y-155946768D01*
X133790917Y-155946768D01*
X133884600Y-156101309D01*
X134119336Y-156148001D01*
X134358670Y-156148001D01*
X134593400Y-156101309D01*
X134687083Y-155946768D01*
X136330917Y-155946768D01*
X136424600Y-156101309D01*
X136659336Y-156148001D01*
X136898670Y-156148001D01*
X137133400Y-156101309D01*
X137227083Y-155946768D01*
X138870917Y-155946768D01*
X138964600Y-156101309D01*
X139199336Y-156148001D01*
X139438670Y-156148001D01*
X139673400Y-156101309D01*
X139767083Y-155946768D01*
X141410917Y-155946768D01*
X141504600Y-156101309D01*
X141739336Y-156148001D01*
X141978670Y-156148001D01*
X142213400Y-156101309D01*
X142307083Y-155946768D01*
X143950917Y-155946768D01*
X144044600Y-156101309D01*
X144279336Y-156148001D01*
X144518670Y-156148001D01*
X144753400Y-156101309D01*
X144847083Y-155946768D01*
X146490917Y-155946768D01*
X146584600Y-156101309D01*
X146819336Y-156148001D01*
X147058670Y-156148001D01*
X147293400Y-156101309D01*
X147387083Y-155946768D01*
X149030917Y-155946768D01*
X149124600Y-156101309D01*
X149359336Y-156148001D01*
X149598670Y-156148001D01*
X149833400Y-156101309D01*
X149927083Y-155946768D01*
X151570917Y-155946768D01*
X151664600Y-156101309D01*
X151899336Y-156148001D01*
X152138670Y-156148001D01*
X152373400Y-156101309D01*
X152467083Y-155946768D01*
X154110917Y-155946768D01*
X154204600Y-156101309D01*
X154439336Y-156148001D01*
X154678670Y-156148001D01*
X154913400Y-156101309D01*
X155007083Y-155946768D01*
X156650917Y-155946768D01*
X156744600Y-156101309D01*
X156979336Y-156148001D01*
X157218670Y-156148001D01*
X157453400Y-156101309D01*
X157547083Y-155946768D01*
X159190917Y-155946768D01*
X159284600Y-156101309D01*
X159519336Y-156148001D01*
X159758670Y-156148001D01*
X159993400Y-156101309D01*
X160087083Y-155946768D01*
X161730917Y-155946768D01*
X161824600Y-156101309D01*
X162059336Y-156148001D01*
X162298670Y-156148001D01*
X162533400Y-156101309D01*
X162627083Y-155946768D01*
X162179000Y-155498685D01*
X161730917Y-155946768D01*
X160087083Y-155946768D01*
X159639000Y-155498685D01*
X159190917Y-155946768D01*
X157547083Y-155946768D01*
X157099000Y-155498685D01*
X156650917Y-155946768D01*
X155007083Y-155946768D01*
X154559000Y-155498685D01*
X154110917Y-155946768D01*
X152467083Y-155946768D01*
X152019000Y-155498685D01*
X151570917Y-155946768D01*
X149927083Y-155946768D01*
X149479000Y-155498685D01*
X149030917Y-155946768D01*
X147387083Y-155946768D01*
X146939000Y-155498685D01*
X146490917Y-155946768D01*
X144847083Y-155946768D01*
X144399000Y-155498685D01*
X143950917Y-155946768D01*
X142307083Y-155946768D01*
X141859000Y-155498685D01*
X141410917Y-155946768D01*
X139767083Y-155946768D01*
X139319000Y-155498685D01*
X138870917Y-155946768D01*
X137227083Y-155946768D01*
X136779000Y-155498685D01*
X136330917Y-155946768D01*
X134687083Y-155946768D01*
X134239000Y-155498685D01*
X133790917Y-155946768D01*
X132034527Y-155946768D01*
X132203467Y-155876791D01*
X132377898Y-155760239D01*
X132526239Y-155611898D01*
X132642791Y-155437467D01*
X132723073Y-155243649D01*
X132764000Y-155037893D01*
X132764000Y-154828107D01*
X132761062Y-154813336D01*
X133023999Y-154813336D01*
X133023999Y-155052670D01*
X133070691Y-155287400D01*
X133225232Y-155381083D01*
X133673315Y-154933000D01*
X134804685Y-154933000D01*
X135252768Y-155381083D01*
X135407309Y-155287400D01*
X135454001Y-155052664D01*
X135454001Y-154813336D01*
X135563999Y-154813336D01*
X135563999Y-155052670D01*
X135610691Y-155287400D01*
X135765232Y-155381083D01*
X136213315Y-154933000D01*
X137344685Y-154933000D01*
X137792768Y-155381083D01*
X137947309Y-155287400D01*
X137994001Y-155052664D01*
X137994001Y-154813336D01*
X138103999Y-154813336D01*
X138103999Y-155052670D01*
X138150691Y-155287400D01*
X138305232Y-155381083D01*
X138753315Y-154933000D01*
X139884685Y-154933000D01*
X140332768Y-155381083D01*
X140487309Y-155287400D01*
X140534001Y-155052664D01*
X140534001Y-154813336D01*
X140643999Y-154813336D01*
X140643999Y-155052670D01*
X140690691Y-155287400D01*
X140845232Y-155381083D01*
X141293315Y-154933000D01*
X142424685Y-154933000D01*
X142872768Y-155381083D01*
X143027309Y-155287400D01*
X143074001Y-155052664D01*
X143074001Y-154813336D01*
X143183999Y-154813336D01*
X143183999Y-155052670D01*
X143230691Y-155287400D01*
X143385232Y-155381083D01*
X143833315Y-154933000D01*
X144964685Y-154933000D01*
X145412768Y-155381083D01*
X145567309Y-155287400D01*
X145614001Y-155052664D01*
X145614001Y-154813336D01*
X145723999Y-154813336D01*
X145723999Y-155052670D01*
X145770691Y-155287400D01*
X145925232Y-155381083D01*
X146373315Y-154933000D01*
X147504685Y-154933000D01*
X147952768Y-155381083D01*
X148107309Y-155287400D01*
X148154001Y-155052664D01*
X148154001Y-154813336D01*
X148263999Y-154813336D01*
X148263999Y-155052670D01*
X148310691Y-155287400D01*
X148465232Y-155381083D01*
X148913315Y-154933000D01*
X150044685Y-154933000D01*
X150492768Y-155381083D01*
X150647309Y-155287400D01*
X150694001Y-155052664D01*
X150694001Y-154813336D01*
X150803999Y-154813336D01*
X150803999Y-155052670D01*
X150850691Y-155287400D01*
X151005232Y-155381083D01*
X151453315Y-154933000D01*
X152584685Y-154933000D01*
X153032768Y-155381083D01*
X153187309Y-155287400D01*
X153234001Y-155052664D01*
X153234001Y-154813336D01*
X153343999Y-154813336D01*
X153343999Y-155052670D01*
X153390691Y-155287400D01*
X153545232Y-155381083D01*
X153993315Y-154933000D01*
X155124685Y-154933000D01*
X155572768Y-155381083D01*
X155727309Y-155287400D01*
X155774001Y-155052664D01*
X155774001Y-154813336D01*
X155883999Y-154813336D01*
X155883999Y-155052670D01*
X155930691Y-155287400D01*
X156085232Y-155381083D01*
X156533315Y-154933000D01*
X157664685Y-154933000D01*
X158112768Y-155381083D01*
X158267309Y-155287400D01*
X158314001Y-155052664D01*
X158314001Y-154813336D01*
X158423999Y-154813336D01*
X158423999Y-155052670D01*
X158470691Y-155287400D01*
X158625232Y-155381083D01*
X159073315Y-154933000D01*
X160204685Y-154933000D01*
X160652768Y-155381083D01*
X160807309Y-155287400D01*
X160854001Y-155052664D01*
X160854001Y-154813336D01*
X160963999Y-154813336D01*
X160963999Y-155052670D01*
X161010691Y-155287400D01*
X161165232Y-155381083D01*
X161613315Y-154933000D01*
X162744685Y-154933000D01*
X163192768Y-155381083D01*
X163347309Y-155287400D01*
X163394001Y-155052664D01*
X163394001Y-154813336D01*
X163503999Y-154813336D01*
X163503999Y-155052670D01*
X163550691Y-155287400D01*
X163705232Y-155381083D01*
X164153315Y-154933000D01*
X163705232Y-154484917D01*
X163550691Y-154578600D01*
X163503999Y-154813336D01*
X163394001Y-154813336D01*
X163394001Y-154813330D01*
X163347309Y-154578600D01*
X163192768Y-154484917D01*
X162744685Y-154933000D01*
X161613315Y-154933000D01*
X161165232Y-154484917D01*
X161010691Y-154578600D01*
X160963999Y-154813336D01*
X160854001Y-154813336D01*
X160854001Y-154813330D01*
X160807309Y-154578600D01*
X160652768Y-154484917D01*
X160204685Y-154933000D01*
X159073315Y-154933000D01*
X158625232Y-154484917D01*
X158470691Y-154578600D01*
X158423999Y-154813336D01*
X158314001Y-154813336D01*
X158314001Y-154813330D01*
X158267309Y-154578600D01*
X158112768Y-154484917D01*
X157664685Y-154933000D01*
X156533315Y-154933000D01*
X156085232Y-154484917D01*
X155930691Y-154578600D01*
X155883999Y-154813336D01*
X155774001Y-154813336D01*
X155774001Y-154813330D01*
X155727309Y-154578600D01*
X155572768Y-154484917D01*
X155124685Y-154933000D01*
X153993315Y-154933000D01*
X153545232Y-154484917D01*
X153390691Y-154578600D01*
X153343999Y-154813336D01*
X153234001Y-154813336D01*
X153234001Y-154813330D01*
X153187309Y-154578600D01*
X153032768Y-154484917D01*
X152584685Y-154933000D01*
X151453315Y-154933000D01*
X151005232Y-154484917D01*
X150850691Y-154578600D01*
X150803999Y-154813336D01*
X150694001Y-154813336D01*
X150694001Y-154813330D01*
X150647309Y-154578600D01*
X150492768Y-154484917D01*
X150044685Y-154933000D01*
X148913315Y-154933000D01*
X148465232Y-154484917D01*
X148310691Y-154578600D01*
X148263999Y-154813336D01*
X148154001Y-154813336D01*
X148154001Y-154813330D01*
X148107309Y-154578600D01*
X147952768Y-154484917D01*
X147504685Y-154933000D01*
X146373315Y-154933000D01*
X145925232Y-154484917D01*
X145770691Y-154578600D01*
X145723999Y-154813336D01*
X145614001Y-154813336D01*
X145614001Y-154813330D01*
X145567309Y-154578600D01*
X145412768Y-154484917D01*
X144964685Y-154933000D01*
X143833315Y-154933000D01*
X143385232Y-154484917D01*
X143230691Y-154578600D01*
X143183999Y-154813336D01*
X143074001Y-154813336D01*
X143074001Y-154813330D01*
X143027309Y-154578600D01*
X142872768Y-154484917D01*
X142424685Y-154933000D01*
X141293315Y-154933000D01*
X140845232Y-154484917D01*
X140690691Y-154578600D01*
X140643999Y-154813336D01*
X140534001Y-154813336D01*
X140534001Y-154813330D01*
X140487309Y-154578600D01*
X140332768Y-154484917D01*
X139884685Y-154933000D01*
X138753315Y-154933000D01*
X138305232Y-154484917D01*
X138150691Y-154578600D01*
X138103999Y-154813336D01*
X137994001Y-154813336D01*
X137994001Y-154813330D01*
X137947309Y-154578600D01*
X137792768Y-154484917D01*
X137344685Y-154933000D01*
X136213315Y-154933000D01*
X135765232Y-154484917D01*
X135610691Y-154578600D01*
X135563999Y-154813336D01*
X135454001Y-154813336D01*
X135454001Y-154813330D01*
X135407309Y-154578600D01*
X135252768Y-154484917D01*
X134804685Y-154933000D01*
X133673315Y-154933000D01*
X133225232Y-154484917D01*
X133070691Y-154578600D01*
X133023999Y-154813336D01*
X132761062Y-154813336D01*
X132723073Y-154622351D01*
X132642791Y-154428533D01*
X132526239Y-154254102D01*
X132377898Y-154105761D01*
X132203467Y-153989209D01*
X132034528Y-153919232D01*
X133790917Y-153919232D01*
X134239000Y-154367315D01*
X134687083Y-153919232D01*
X136330917Y-153919232D01*
X136779000Y-154367315D01*
X137227083Y-153919232D01*
X138870917Y-153919232D01*
X139319000Y-154367315D01*
X139767083Y-153919232D01*
X141410917Y-153919232D01*
X141859000Y-154367315D01*
X142307083Y-153919232D01*
X143950917Y-153919232D01*
X144399000Y-154367315D01*
X144847083Y-153919232D01*
X146490917Y-153919232D01*
X146939000Y-154367315D01*
X147387083Y-153919232D01*
X149030917Y-153919232D01*
X149479000Y-154367315D01*
X149927083Y-153919232D01*
X151570917Y-153919232D01*
X152019000Y-154367315D01*
X152467083Y-153919232D01*
X154110917Y-153919232D01*
X154559000Y-154367315D01*
X155007083Y-153919232D01*
X156650917Y-153919232D01*
X157099000Y-154367315D01*
X157547083Y-153919232D01*
X159190917Y-153919232D01*
X159639000Y-154367315D01*
X160087083Y-153919232D01*
X161730917Y-153919232D01*
X162179000Y-154367315D01*
X162627083Y-153919232D01*
X162533400Y-153764691D01*
X162298664Y-153717999D01*
X162059330Y-153717999D01*
X161824600Y-153764691D01*
X161730917Y-153919232D01*
X160087083Y-153919232D01*
X159993400Y-153764691D01*
X159758664Y-153717999D01*
X159519330Y-153717999D01*
X159284600Y-153764691D01*
X159190917Y-153919232D01*
X157547083Y-153919232D01*
X157453400Y-153764691D01*
X157218664Y-153717999D01*
X156979330Y-153717999D01*
X156744600Y-153764691D01*
X156650917Y-153919232D01*
X155007083Y-153919232D01*
X154913400Y-153764691D01*
X154678664Y-153717999D01*
X154439330Y-153717999D01*
X154204600Y-153764691D01*
X154110917Y-153919232D01*
X152467083Y-153919232D01*
X152373400Y-153764691D01*
X152138664Y-153717999D01*
X151899330Y-153717999D01*
X151664600Y-153764691D01*
X151570917Y-153919232D01*
X149927083Y-153919232D01*
X149833400Y-153764691D01*
X149598664Y-153717999D01*
X149359330Y-153717999D01*
X149124600Y-153764691D01*
X149030917Y-153919232D01*
X147387083Y-153919232D01*
X147293400Y-153764691D01*
X147058664Y-153717999D01*
X146819330Y-153717999D01*
X146584600Y-153764691D01*
X146490917Y-153919232D01*
X144847083Y-153919232D01*
X144753400Y-153764691D01*
X144518664Y-153717999D01*
X144279330Y-153717999D01*
X144044600Y-153764691D01*
X143950917Y-153919232D01*
X142307083Y-153919232D01*
X142213400Y-153764691D01*
X141978664Y-153717999D01*
X141739330Y-153717999D01*
X141504600Y-153764691D01*
X141410917Y-153919232D01*
X139767083Y-153919232D01*
X139673400Y-153764691D01*
X139438664Y-153717999D01*
X139199330Y-153717999D01*
X138964600Y-153764691D01*
X138870917Y-153919232D01*
X137227083Y-153919232D01*
X137133400Y-153764691D01*
X136898664Y-153717999D01*
X136659330Y-153717999D01*
X136424600Y-153764691D01*
X136330917Y-153919232D01*
X134687083Y-153919232D01*
X134593400Y-153764691D01*
X134358664Y-153717999D01*
X134119330Y-153717999D01*
X133884600Y-153764691D01*
X133790917Y-153919232D01*
X132034528Y-153919232D01*
X132009649Y-153908927D01*
X131803893Y-153868000D01*
X131594107Y-153868000D01*
X131388351Y-153908927D01*
X131194533Y-153989209D01*
X131020102Y-154105761D01*
X130871761Y-154254102D01*
X130755209Y-154428533D01*
X130674927Y-154622351D01*
X130634000Y-154828107D01*
X130224000Y-154828107D01*
X130183073Y-154622351D01*
X130102791Y-154428533D01*
X129986239Y-154254102D01*
X129837898Y-154105761D01*
X129663467Y-153989209D01*
X129469649Y-153908927D01*
X129263893Y-153868000D01*
X129054107Y-153868000D01*
X128848351Y-153908927D01*
X128654533Y-153989209D01*
X128480102Y-154105761D01*
X128331761Y-154254102D01*
X128215209Y-154428533D01*
X128134927Y-154622351D01*
X128094000Y-154828107D01*
X127684000Y-154828107D01*
X127643073Y-154622351D01*
X127562791Y-154428533D01*
X127446239Y-154254102D01*
X127297898Y-154105761D01*
X127123467Y-153989209D01*
X126929649Y-153908927D01*
X126723893Y-153868000D01*
X126514107Y-153868000D01*
X126308351Y-153908927D01*
X126228884Y-153941843D01*
X120607000Y-148319960D01*
X120607000Y-148227659D01*
X120564727Y-148015142D01*
X120481807Y-147814955D01*
X120361425Y-147634791D01*
X120208209Y-147481575D01*
X120028045Y-147361193D01*
X119827858Y-147278273D01*
X119615341Y-147236000D01*
X119398659Y-147236000D01*
X119186142Y-147278273D01*
X118985955Y-147361193D01*
X118805791Y-147481575D01*
X118652575Y-147634791D01*
X118532193Y-147814955D01*
X118449273Y-148015142D01*
X118407000Y-148227659D01*
X114598000Y-148227659D01*
X114598000Y-143345680D01*
X115508413Y-142435267D01*
X115698953Y-142514192D01*
X115699597Y-142514320D01*
X115698953Y-142514448D01*
X115462461Y-142612407D01*
X115249623Y-142754620D01*
X115068620Y-142935623D01*
X114926407Y-143148461D01*
X114828448Y-143384953D01*
X114778510Y-143636011D01*
X114778510Y-143891989D01*
X114828448Y-144143047D01*
X114926407Y-144379539D01*
X115068620Y-144592377D01*
X115249623Y-144773380D01*
X115462461Y-144915593D01*
X115698953Y-145013552D01*
X115699597Y-145013680D01*
X115698953Y-145013808D01*
X115462461Y-145111767D01*
X115249623Y-145253980D01*
X115068620Y-145434983D01*
X114926407Y-145647821D01*
X114828448Y-145884313D01*
X114778510Y-146135371D01*
X114778510Y-146391349D01*
X114828448Y-146642407D01*
X114926407Y-146878899D01*
X115068620Y-147091737D01*
X115249623Y-147272740D01*
X115462461Y-147414953D01*
X115698953Y-147512912D01*
X115950011Y-147562850D01*
X116205989Y-147562850D01*
X116457047Y-147512912D01*
X116693539Y-147414953D01*
X116906377Y-147272740D01*
X117087380Y-147091737D01*
X117229593Y-146878899D01*
X117327552Y-146642407D01*
X117377490Y-146391349D01*
X117377490Y-146300000D01*
X125040823Y-146300000D01*
X125049511Y-146388215D01*
X125075243Y-146473041D01*
X125117029Y-146551216D01*
X125173263Y-146619737D01*
X125241784Y-146675971D01*
X125319959Y-146717757D01*
X125404785Y-146743489D01*
X125493000Y-146752177D01*
X126980500Y-146750000D01*
X127093000Y-146637500D01*
X127093000Y-144700000D01*
X127893000Y-144700000D01*
X127893000Y-146637500D01*
X128005500Y-146750000D01*
X129493000Y-146752177D01*
X129581215Y-146743489D01*
X129666041Y-146717757D01*
X129744216Y-146675971D01*
X129812737Y-146619737D01*
X129868971Y-146551216D01*
X129910757Y-146473041D01*
X129936489Y-146388215D01*
X129945177Y-146300000D01*
X129945060Y-146219832D01*
X135638853Y-146219832D01*
X135888793Y-146500331D01*
X136339273Y-146673473D01*
X136814876Y-146755402D01*
X137297324Y-146742973D01*
X137768077Y-146636661D01*
X138097207Y-146500331D01*
X138347147Y-146219832D01*
X145138853Y-146219832D01*
X145388793Y-146500331D01*
X145839273Y-146673473D01*
X146314876Y-146755402D01*
X146797324Y-146742973D01*
X147268077Y-146636661D01*
X147597207Y-146500331D01*
X147847147Y-146219832D01*
X154638853Y-146219832D01*
X154888793Y-146500331D01*
X155339273Y-146673473D01*
X155814876Y-146755402D01*
X156297324Y-146742973D01*
X156768077Y-146636661D01*
X157097207Y-146500331D01*
X157347147Y-146219832D01*
X155993000Y-144865685D01*
X154638853Y-146219832D01*
X147847147Y-146219832D01*
X146493000Y-144865685D01*
X145138853Y-146219832D01*
X138347147Y-146219832D01*
X136993000Y-144865685D01*
X135638853Y-146219832D01*
X129945060Y-146219832D01*
X129943000Y-144812500D01*
X129830500Y-144700000D01*
X127893000Y-144700000D01*
X127093000Y-144700000D01*
X125155500Y-144700000D01*
X125043000Y-144812500D01*
X125040823Y-146300000D01*
X117377490Y-146300000D01*
X117377490Y-146135371D01*
X117327552Y-145884313D01*
X117229593Y-145647821D01*
X117087380Y-145434983D01*
X116906377Y-145253980D01*
X116693539Y-145111767D01*
X116457047Y-145013808D01*
X116456403Y-145013680D01*
X116457047Y-145013552D01*
X116693539Y-144915593D01*
X116906377Y-144773380D01*
X117087380Y-144592377D01*
X117229593Y-144379539D01*
X117327552Y-144143047D01*
X117331763Y-144121876D01*
X134537598Y-144121876D01*
X134550027Y-144604324D01*
X134656339Y-145075077D01*
X134792669Y-145404207D01*
X135073168Y-145654147D01*
X136427315Y-144300000D01*
X137558685Y-144300000D01*
X138912832Y-145654147D01*
X139193331Y-145404207D01*
X139366473Y-144953727D01*
X139448402Y-144478124D01*
X139439225Y-144121876D01*
X144037598Y-144121876D01*
X144050027Y-144604324D01*
X144156339Y-145075077D01*
X144292669Y-145404207D01*
X144573168Y-145654147D01*
X145927315Y-144300000D01*
X147058685Y-144300000D01*
X148412832Y-145654147D01*
X148693331Y-145404207D01*
X148866473Y-144953727D01*
X148948402Y-144478124D01*
X148939225Y-144121876D01*
X153537598Y-144121876D01*
X153550027Y-144604324D01*
X153656339Y-145075077D01*
X153792669Y-145404207D01*
X154073168Y-145654147D01*
X155427315Y-144300000D01*
X156558685Y-144300000D01*
X157912832Y-145654147D01*
X158193331Y-145404207D01*
X158366473Y-144953727D01*
X158448402Y-144478124D01*
X158435973Y-143995676D01*
X158329661Y-143524923D01*
X158193331Y-143195793D01*
X157912832Y-142945853D01*
X156558685Y-144300000D01*
X155427315Y-144300000D01*
X154073168Y-142945853D01*
X153792669Y-143195793D01*
X153619527Y-143646273D01*
X153537598Y-144121876D01*
X148939225Y-144121876D01*
X148935973Y-143995676D01*
X148829661Y-143524923D01*
X148693331Y-143195793D01*
X148412832Y-142945853D01*
X147058685Y-144300000D01*
X145927315Y-144300000D01*
X144573168Y-142945853D01*
X144292669Y-143195793D01*
X144119527Y-143646273D01*
X144037598Y-144121876D01*
X139439225Y-144121876D01*
X139435973Y-143995676D01*
X139329661Y-143524923D01*
X139193331Y-143195793D01*
X138912832Y-142945853D01*
X137558685Y-144300000D01*
X136427315Y-144300000D01*
X135073168Y-142945853D01*
X134792669Y-143195793D01*
X134619527Y-143646273D01*
X134537598Y-144121876D01*
X117331763Y-144121876D01*
X117377490Y-143891989D01*
X117377490Y-143636011D01*
X117346057Y-143477983D01*
X118524040Y-142300000D01*
X125040823Y-142300000D01*
X125043000Y-143787500D01*
X125155500Y-143900000D01*
X127093000Y-143900000D01*
X127093000Y-141962500D01*
X127893000Y-141962500D01*
X127893000Y-143900000D01*
X129830500Y-143900000D01*
X129943000Y-143787500D01*
X129945059Y-142380168D01*
X135638853Y-142380168D01*
X136993000Y-143734315D01*
X138347147Y-142380168D01*
X145138853Y-142380168D01*
X146493000Y-143734315D01*
X147847147Y-142380168D01*
X154638853Y-142380168D01*
X155993000Y-143734315D01*
X157347147Y-142380168D01*
X157097207Y-142099669D01*
X156646727Y-141926527D01*
X156171124Y-141844598D01*
X155688676Y-141857027D01*
X155217923Y-141963339D01*
X154888793Y-142099669D01*
X154638853Y-142380168D01*
X147847147Y-142380168D01*
X147597207Y-142099669D01*
X147146727Y-141926527D01*
X146671124Y-141844598D01*
X146188676Y-141857027D01*
X145717923Y-141963339D01*
X145388793Y-142099669D01*
X145138853Y-142380168D01*
X138347147Y-142380168D01*
X138097207Y-142099669D01*
X137646727Y-141926527D01*
X137171124Y-141844598D01*
X136688676Y-141857027D01*
X136217923Y-141963339D01*
X135888793Y-142099669D01*
X135638853Y-142380168D01*
X129945059Y-142380168D01*
X129945177Y-142300000D01*
X129936489Y-142211785D01*
X129910757Y-142126959D01*
X129868971Y-142048784D01*
X129812737Y-141980263D01*
X129744216Y-141924029D01*
X129666041Y-141882243D01*
X129581215Y-141856511D01*
X129493000Y-141847823D01*
X128005500Y-141850000D01*
X127893000Y-141962500D01*
X127093000Y-141962500D01*
X126980500Y-141850000D01*
X125493000Y-141847823D01*
X125404785Y-141856511D01*
X125319959Y-141882243D01*
X125241784Y-141924029D01*
X125173263Y-141980263D01*
X125117029Y-142048784D01*
X125075243Y-142126959D01*
X125049511Y-142211785D01*
X125040823Y-142300000D01*
X118524040Y-142300000D01*
X119090097Y-141733944D01*
X119186142Y-141773727D01*
X119398659Y-141816000D01*
X119615341Y-141816000D01*
X119827858Y-141773727D01*
X120028045Y-141690807D01*
X120208209Y-141570425D01*
X120361425Y-141417209D01*
X120481807Y-141237045D01*
X120564727Y-141036858D01*
X120607000Y-140824341D01*
X120607000Y-140607659D01*
X120564727Y-140395142D01*
X120481807Y-140194955D01*
X120361425Y-140014791D01*
X120208209Y-139861575D01*
X120028045Y-139741193D01*
X119827858Y-139658273D01*
X119615341Y-139616000D01*
X119398659Y-139616000D01*
X119186142Y-139658273D01*
X118985955Y-139741193D01*
X118805791Y-139861575D01*
X118652575Y-140014791D01*
X118532193Y-140194955D01*
X118449273Y-140395142D01*
X118407000Y-140607659D01*
X118407000Y-140824341D01*
X118449273Y-141036858D01*
X118489056Y-141132903D01*
X116882976Y-142738984D01*
X116693539Y-142612407D01*
X116457047Y-142514448D01*
X116456403Y-142514320D01*
X116457047Y-142514192D01*
X116693539Y-142416233D01*
X116906377Y-142274020D01*
X117087380Y-142093017D01*
X117229593Y-141880179D01*
X117327552Y-141643687D01*
X117377490Y-141392629D01*
X117377490Y-141136651D01*
X117327552Y-140885593D01*
X117229593Y-140649101D01*
X117087380Y-140436263D01*
X116906377Y-140255260D01*
X116693539Y-140113047D01*
X116457047Y-140015088D01*
X116205989Y-139965150D01*
X115950011Y-139965150D01*
X115698953Y-140015088D01*
X115462461Y-140113047D01*
X115249623Y-140255260D01*
X115068620Y-140436263D01*
X114926407Y-140649101D01*
X114828448Y-140885593D01*
X114778510Y-141136651D01*
X114778510Y-141392629D01*
X114828448Y-141643687D01*
X114907373Y-141834227D01*
X113887243Y-142854357D01*
X113871026Y-142867666D01*
X113817916Y-142932381D01*
X113813000Y-142941578D01*
X113813000Y-137476199D01*
X113939834Y-137243920D01*
X114102267Y-137026935D01*
X114293935Y-136835267D01*
X114510920Y-136672834D01*
X114743199Y-136546000D01*
X160211801Y-136546000D01*
X160444080Y-136672834D01*
G37*
X160444080Y-136672834D02*
X160661065Y-136835267D01*
X160852733Y-137026935D01*
X161015166Y-137243920D01*
X161145069Y-137481819D01*
X161239790Y-137735777D01*
X161297409Y-138000642D01*
X161317000Y-138274569D01*
X161317000Y-148876000D01*
X161317255Y-148883134D01*
X161337612Y-149167764D01*
X161339642Y-149181887D01*
X161400299Y-149460722D01*
X161404319Y-149474411D01*
X161504041Y-149741776D01*
X161509968Y-149754755D01*
X161646725Y-150005207D01*
X161654439Y-150017210D01*
X161825447Y-150245649D01*
X161834790Y-150256432D01*
X162036568Y-150458210D01*
X162047351Y-150467553D01*
X162275790Y-150638561D01*
X162287793Y-150646275D01*
X162538245Y-150783032D01*
X162551224Y-150788959D01*
X162818589Y-150888681D01*
X162832278Y-150892701D01*
X163111113Y-150953358D01*
X163125236Y-150955388D01*
X163409866Y-150975745D01*
X163417000Y-150976000D01*
X163477431Y-150976000D01*
X163751358Y-150995591D01*
X164016223Y-151053210D01*
X164270181Y-151147931D01*
X164508080Y-151277834D01*
X164725065Y-151440267D01*
X164916733Y-151631935D01*
X165079166Y-151848920D01*
X165209069Y-152086819D01*
X165303790Y-152340777D01*
X165361409Y-152605642D01*
X165381000Y-152879569D01*
X165381000Y-153869101D01*
X165299105Y-153787206D01*
X165167082Y-153919230D01*
X165073400Y-153764691D01*
X164838664Y-153717999D01*
X164599330Y-153717999D01*
X164364600Y-153764691D01*
X164270917Y-153919232D01*
X164719000Y-154367315D01*
X164733143Y-154353173D01*
X165298828Y-154918858D01*
X165284685Y-154933000D01*
X165298828Y-154947143D01*
X164733143Y-155512828D01*
X164719000Y-155498685D01*
X164270917Y-155946768D01*
X164364600Y-156101309D01*
X164599336Y-156148001D01*
X164838670Y-156148001D01*
X165073400Y-156101309D01*
X165167082Y-155946770D01*
X165299105Y-156078794D01*
X165381000Y-155996899D01*
X165381000Y-158709101D01*
X165299105Y-158627206D01*
X165167082Y-158759230D01*
X165073400Y-158604691D01*
X164838664Y-158557999D01*
X164599330Y-158557999D01*
X164364600Y-158604691D01*
X164270917Y-158759232D01*
X164719000Y-159207315D01*
X164733143Y-159193173D01*
X165298828Y-159758858D01*
X165284685Y-159773000D01*
X165298828Y-159787143D01*
X164733143Y-160352828D01*
X164719000Y-160338685D01*
X164270917Y-160786768D01*
X164364600Y-160941309D01*
X164599336Y-160988001D01*
X164838670Y-160988001D01*
X165073400Y-160941309D01*
X165167082Y-160786770D01*
X165299105Y-160918794D01*
X165354144Y-160863755D01*
X165303790Y-161095223D01*
X165209069Y-161349181D01*
X165079166Y-161587080D01*
X164916733Y-161804065D01*
X164725065Y-161995733D01*
X164508080Y-162158166D01*
X164275801Y-162285000D01*
X114743199Y-162285000D01*
X114510920Y-162158166D01*
X114293935Y-161995733D01*
X114102267Y-161804065D01*
X113939834Y-161587080D01*
X113813000Y-161354801D01*
X113813000Y-159668107D01*
X117934000Y-159668107D01*
X117934000Y-159877893D01*
X117974927Y-160083649D01*
X118055209Y-160277467D01*
X118171761Y-160451898D01*
X118320102Y-160600239D01*
X118494533Y-160716791D01*
X118688351Y-160797073D01*
X118894107Y-160838000D01*
X119103893Y-160838000D01*
X119309649Y-160797073D01*
X119503467Y-160716791D01*
X119677898Y-160600239D01*
X119826239Y-160451898D01*
X119942791Y-160277467D01*
X120023073Y-160083649D01*
X120064000Y-159877893D01*
X120064000Y-159668107D01*
X120474000Y-159668107D01*
X120474000Y-159877893D01*
X120514927Y-160083649D01*
X120595209Y-160277467D01*
X120711761Y-160451898D01*
X120860102Y-160600239D01*
X121034533Y-160716791D01*
X121228351Y-160797073D01*
X121434107Y-160838000D01*
X121643893Y-160838000D01*
X121849649Y-160797073D01*
X122043467Y-160716791D01*
X122217898Y-160600239D01*
X122366239Y-160451898D01*
X122482791Y-160277467D01*
X122563073Y-160083649D01*
X122604000Y-159877893D01*
X122604000Y-159668107D01*
X123014000Y-159668107D01*
X123014000Y-159877893D01*
X123054927Y-160083649D01*
X123135209Y-160277467D01*
X123251761Y-160451898D01*
X123400102Y-160600239D01*
X123574533Y-160716791D01*
X123768351Y-160797073D01*
X123974107Y-160838000D01*
X124183893Y-160838000D01*
X124389649Y-160797073D01*
X124583467Y-160716791D01*
X124757898Y-160600239D01*
X124906239Y-160451898D01*
X125022791Y-160277467D01*
X125103073Y-160083649D01*
X125144000Y-159877893D01*
X125144000Y-159668107D01*
X125554000Y-159668107D01*
X125554000Y-159877893D01*
X125594927Y-160083649D01*
X125675209Y-160277467D01*
X125791761Y-160451898D01*
X125940102Y-160600239D01*
X126114533Y-160716791D01*
X126308351Y-160797073D01*
X126514107Y-160838000D01*
X126723893Y-160838000D01*
X126929649Y-160797073D01*
X127123467Y-160716791D01*
X127297898Y-160600239D01*
X127446239Y-160451898D01*
X127562791Y-160277467D01*
X127643073Y-160083649D01*
X127684000Y-159877893D01*
X127684000Y-159668107D01*
X128094000Y-159668107D01*
X128094000Y-159877893D01*
X128134927Y-160083649D01*
X128215209Y-160277467D01*
X128331761Y-160451898D01*
X128480102Y-160600239D01*
X128654533Y-160716791D01*
X128848351Y-160797073D01*
X129054107Y-160838000D01*
X129263893Y-160838000D01*
X129469649Y-160797073D01*
X129663467Y-160716791D01*
X129837898Y-160600239D01*
X129986239Y-160451898D01*
X130102791Y-160277467D01*
X130183073Y-160083649D01*
X130224000Y-159877893D01*
X130224000Y-159668107D01*
X130634000Y-159668107D01*
X130634000Y-159877893D01*
X130674927Y-160083649D01*
X130755209Y-160277467D01*
X130871761Y-160451898D01*
X131020102Y-160600239D01*
X131194533Y-160716791D01*
X131388351Y-160797073D01*
X131594107Y-160838000D01*
X131803893Y-160838000D01*
X132009649Y-160797073D01*
X132034527Y-160786768D01*
X133790917Y-160786768D01*
X133884600Y-160941309D01*
X134119336Y-160988001D01*
X134358670Y-160988001D01*
X134593400Y-160941309D01*
X134687083Y-160786768D01*
X136330917Y-160786768D01*
X136424600Y-160941309D01*
X136659336Y-160988001D01*
X136898670Y-160988001D01*
X137133400Y-160941309D01*
X137227083Y-160786768D01*
X138870917Y-160786768D01*
X138964600Y-160941309D01*
X139199336Y-160988001D01*
X139438670Y-160988001D01*
X139673400Y-160941309D01*
X139767083Y-160786768D01*
X141410917Y-160786768D01*
X141504600Y-160941309D01*
X141739336Y-160988001D01*
X141978670Y-160988001D01*
X142213400Y-160941309D01*
X142307083Y-160786768D01*
X143950917Y-160786768D01*
X144044600Y-160941309D01*
X144279336Y-160988001D01*
X144518670Y-160988001D01*
X144753400Y-160941309D01*
X144847083Y-160786768D01*
X146490917Y-160786768D01*
X146584600Y-160941309D01*
X146819336Y-160988001D01*
X147058670Y-160988001D01*
X147293400Y-160941309D01*
X147387083Y-160786768D01*
X149030917Y-160786768D01*
X149124600Y-160941309D01*
X149359336Y-160988001D01*
X149598670Y-160988001D01*
X149833400Y-160941309D01*
X149927083Y-160786768D01*
X151570917Y-160786768D01*
X151664600Y-160941309D01*
X151899336Y-160988001D01*
X152138670Y-160988001D01*
X152373400Y-160941309D01*
X152467083Y-160786768D01*
X154110917Y-160786768D01*
X154204600Y-160941309D01*
X154439336Y-160988001D01*
X154678670Y-160988001D01*
X154913400Y-160941309D01*
X155007083Y-160786768D01*
X156650917Y-160786768D01*
X156744600Y-160941309D01*
X156979336Y-160988001D01*
X157218670Y-160988001D01*
X157453400Y-160941309D01*
X157547083Y-160786768D01*
X159190917Y-160786768D01*
X159284600Y-160941309D01*
X159519336Y-160988001D01*
X159758670Y-160988001D01*
X159993400Y-160941309D01*
X160087083Y-160786768D01*
X161730917Y-160786768D01*
X161824600Y-160941309D01*
X162059336Y-160988001D01*
X162298670Y-160988001D01*
X162533400Y-160941309D01*
X162627083Y-160786768D01*
X162179000Y-160338685D01*
X161730917Y-160786768D01*
X160087083Y-160786768D01*
X159639000Y-160338685D01*
X159190917Y-160786768D01*
X157547083Y-160786768D01*
X157099000Y-160338685D01*
X156650917Y-160786768D01*
X155007083Y-160786768D01*
X154559000Y-160338685D01*
X154110917Y-160786768D01*
X152467083Y-160786768D01*
X152019000Y-160338685D01*
X151570917Y-160786768D01*
X149927083Y-160786768D01*
X149479000Y-160338685D01*
X149030917Y-160786768D01*
X147387083Y-160786768D01*
X146939000Y-160338685D01*
X146490917Y-160786768D01*
X144847083Y-160786768D01*
X144399000Y-160338685D01*
X143950917Y-160786768D01*
X142307083Y-160786768D01*
X141859000Y-160338685D01*
X141410917Y-160786768D01*
X139767083Y-160786768D01*
X139319000Y-160338685D01*
X138870917Y-160786768D01*
X137227083Y-160786768D01*
X136779000Y-160338685D01*
X136330917Y-160786768D01*
X134687083Y-160786768D01*
X134239000Y-160338685D01*
X133790917Y-160786768D01*
X132034527Y-160786768D01*
X132203467Y-160716791D01*
X132377898Y-160600239D01*
X132526239Y-160451898D01*
X132642791Y-160277467D01*
X132723073Y-160083649D01*
X132764000Y-159877893D01*
X132764000Y-159668107D01*
X132761062Y-159653336D01*
X133023999Y-159653336D01*
X133023999Y-159892670D01*
X133070691Y-160127400D01*
X133225232Y-160221083D01*
X133673315Y-159773000D01*
X134804685Y-159773000D01*
X135252768Y-160221083D01*
X135407309Y-160127400D01*
X135454001Y-159892664D01*
X135454001Y-159653336D01*
X135563999Y-159653336D01*
X135563999Y-159892670D01*
X135610691Y-160127400D01*
X135765232Y-160221083D01*
X136213315Y-159773000D01*
X137344685Y-159773000D01*
X137792768Y-160221083D01*
X137947309Y-160127400D01*
X137994001Y-159892664D01*
X137994001Y-159653336D01*
X138103999Y-159653336D01*
X138103999Y-159892670D01*
X138150691Y-160127400D01*
X138305232Y-160221083D01*
X138753315Y-159773000D01*
X139884685Y-159773000D01*
X140332768Y-160221083D01*
X140487309Y-160127400D01*
X140534001Y-159892664D01*
X140534001Y-159653336D01*
X140643999Y-159653336D01*
X140643999Y-159892670D01*
X140690691Y-160127400D01*
X140845232Y-160221083D01*
X141293315Y-159773000D01*
X142424685Y-159773000D01*
X142872768Y-160221083D01*
X143027309Y-160127400D01*
X143074001Y-159892664D01*
X143074001Y-159653336D01*
X143183999Y-159653336D01*
X143183999Y-159892670D01*
X143230691Y-160127400D01*
X143385232Y-160221083D01*
X143833315Y-159773000D01*
X144964685Y-159773000D01*
X145412768Y-160221083D01*
X145567309Y-160127400D01*
X145614001Y-159892664D01*
X145614001Y-159653336D01*
X145723999Y-159653336D01*
X145723999Y-159892670D01*
X145770691Y-160127400D01*
X145925232Y-160221083D01*
X146373315Y-159773000D01*
X147504685Y-159773000D01*
X147952768Y-160221083D01*
X148107309Y-160127400D01*
X148154001Y-159892664D01*
X148154001Y-159653336D01*
X148263999Y-159653336D01*
X148263999Y-159892670D01*
X148310691Y-160127400D01*
X148465232Y-160221083D01*
X148913315Y-159773000D01*
X150044685Y-159773000D01*
X150492768Y-160221083D01*
X150647309Y-160127400D01*
X150694001Y-159892664D01*
X150694001Y-159653336D01*
X150803999Y-159653336D01*
X150803999Y-159892670D01*
X150850691Y-160127400D01*
X151005232Y-160221083D01*
X151453315Y-159773000D01*
X152584685Y-159773000D01*
X153032768Y-160221083D01*
X153187309Y-160127400D01*
X153234001Y-159892664D01*
X153234001Y-159653336D01*
X153343999Y-159653336D01*
X153343999Y-159892670D01*
X153390691Y-160127400D01*
X153545232Y-160221083D01*
X153993315Y-159773000D01*
X155124685Y-159773000D01*
X155572768Y-160221083D01*
X155727309Y-160127400D01*
X155774001Y-159892664D01*
X155774001Y-159653336D01*
X155883999Y-159653336D01*
X155883999Y-159892670D01*
X155930691Y-160127400D01*
X156085232Y-160221083D01*
X156533315Y-159773000D01*
X157664685Y-159773000D01*
X158112768Y-160221083D01*
X158267309Y-160127400D01*
X158314001Y-159892664D01*
X158314001Y-159653336D01*
X158423999Y-159653336D01*
X158423999Y-159892670D01*
X158470691Y-160127400D01*
X158625232Y-160221083D01*
X159073315Y-159773000D01*
X160204685Y-159773000D01*
X160652768Y-160221083D01*
X160807309Y-160127400D01*
X160854001Y-159892664D01*
X160854001Y-159653336D01*
X160963999Y-159653336D01*
X160963999Y-159892670D01*
X161010691Y-160127400D01*
X161165232Y-160221083D01*
X161613315Y-159773000D01*
X162744685Y-159773000D01*
X163192768Y-160221083D01*
X163347309Y-160127400D01*
X163394001Y-159892664D01*
X163394001Y-159653336D01*
X163503999Y-159653336D01*
X163503999Y-159892670D01*
X163550691Y-160127400D01*
X163705232Y-160221083D01*
X164153315Y-159773000D01*
X163705232Y-159324917D01*
X163550691Y-159418600D01*
X163503999Y-159653336D01*
X163394001Y-159653336D01*
X163394001Y-159653330D01*
X163347309Y-159418600D01*
X163192768Y-159324917D01*
X162744685Y-159773000D01*
X161613315Y-159773000D01*
X161165232Y-159324917D01*
X161010691Y-159418600D01*
X160963999Y-159653336D01*
X160854001Y-159653336D01*
X160854001Y-159653330D01*
X160807309Y-159418600D01*
X160652768Y-159324917D01*
X160204685Y-159773000D01*
X159073315Y-159773000D01*
X158625232Y-159324917D01*
X158470691Y-159418600D01*
X158423999Y-159653336D01*
X158314001Y-159653336D01*
X158314001Y-159653330D01*
X158267309Y-159418600D01*
X158112768Y-159324917D01*
X157664685Y-159773000D01*
X156533315Y-159773000D01*
X156085232Y-159324917D01*
X155930691Y-159418600D01*
X155883999Y-159653336D01*
X155774001Y-159653336D01*
X155774001Y-159653330D01*
X155727309Y-159418600D01*
X155572768Y-159324917D01*
X155124685Y-159773000D01*
X153993315Y-159773000D01*
X153545232Y-159324917D01*
X153390691Y-159418600D01*
X153343999Y-159653336D01*
X153234001Y-159653336D01*
X153234001Y-159653330D01*
X153187309Y-159418600D01*
X153032768Y-159324917D01*
X152584685Y-159773000D01*
X151453315Y-159773000D01*
X151005232Y-159324917D01*
X150850691Y-159418600D01*
X150803999Y-159653336D01*
X150694001Y-159653336D01*
X150694001Y-159653330D01*
X150647309Y-159418600D01*
X150492768Y-159324917D01*
X150044685Y-159773000D01*
X148913315Y-159773000D01*
X148465232Y-159324917D01*
X148310691Y-159418600D01*
X148263999Y-159653336D01*
X148154001Y-159653336D01*
X148154001Y-159653330D01*
X148107309Y-159418600D01*
X147952768Y-159324917D01*
X147504685Y-159773000D01*
X146373315Y-159773000D01*
X145925232Y-159324917D01*
X145770691Y-159418600D01*
X145723999Y-159653336D01*
X145614001Y-159653336D01*
X145614001Y-159653330D01*
X145567309Y-159418600D01*
X145412768Y-159324917D01*
X144964685Y-159773000D01*
X143833315Y-159773000D01*
X143385232Y-159324917D01*
X143230691Y-159418600D01*
X143183999Y-159653336D01*
X143074001Y-159653336D01*
X143074001Y-159653330D01*
X143027309Y-159418600D01*
X142872768Y-159324917D01*
X142424685Y-159773000D01*
X141293315Y-159773000D01*
X140845232Y-159324917D01*
X140690691Y-159418600D01*
X140643999Y-159653336D01*
X140534001Y-159653336D01*
X140534001Y-159653330D01*
X140487309Y-159418600D01*
X140332768Y-159324917D01*
X139884685Y-159773000D01*
X138753315Y-159773000D01*
X138305232Y-159324917D01*
X138150691Y-159418600D01*
X138103999Y-159653336D01*
X137994001Y-159653336D01*
X137994001Y-159653330D01*
X137947309Y-159418600D01*
X137792768Y-159324917D01*
X137344685Y-159773000D01*
X136213315Y-159773000D01*
X135765232Y-159324917D01*
X135610691Y-159418600D01*
X135563999Y-159653336D01*
X135454001Y-159653336D01*
X135454001Y-159653330D01*
X135407309Y-159418600D01*
X135252768Y-159324917D01*
X134804685Y-159773000D01*
X133673315Y-159773000D01*
X133225232Y-159324917D01*
X133070691Y-159418600D01*
X133023999Y-159653336D01*
X132761062Y-159653336D01*
X132723073Y-159462351D01*
X132642791Y-159268533D01*
X132526239Y-159094102D01*
X132377898Y-158945761D01*
X132203467Y-158829209D01*
X132034528Y-158759232D01*
X133790917Y-158759232D01*
X134239000Y-159207315D01*
X134687083Y-158759232D01*
X136330917Y-158759232D01*
X136779000Y-159207315D01*
X137227083Y-158759232D01*
X138870917Y-158759232D01*
X139319000Y-159207315D01*
X139767083Y-158759232D01*
X141410917Y-158759232D01*
X141859000Y-159207315D01*
X142307083Y-158759232D01*
X143950917Y-158759232D01*
X144399000Y-159207315D01*
X144847083Y-158759232D01*
X146490917Y-158759232D01*
X146939000Y-159207315D01*
X147387083Y-158759232D01*
X149030917Y-158759232D01*
X149479000Y-159207315D01*
X149927083Y-158759232D01*
X151570917Y-158759232D01*
X152019000Y-159207315D01*
X152467083Y-158759232D01*
X154110917Y-158759232D01*
X154559000Y-159207315D01*
X155007083Y-158759232D01*
X156650917Y-158759232D01*
X157099000Y-159207315D01*
X157547083Y-158759232D01*
X159190917Y-158759232D01*
X159639000Y-159207315D01*
X160087083Y-158759232D01*
X161730917Y-158759232D01*
X162179000Y-159207315D01*
X162627083Y-158759232D01*
X162533400Y-158604691D01*
X162298664Y-158557999D01*
X162059330Y-158557999D01*
X161824600Y-158604691D01*
X161730917Y-158759232D01*
X160087083Y-158759232D01*
X159993400Y-158604691D01*
X159758664Y-158557999D01*
X159519330Y-158557999D01*
X159284600Y-158604691D01*
X159190917Y-158759232D01*
X157547083Y-158759232D01*
X157453400Y-158604691D01*
X157218664Y-158557999D01*
X156979330Y-158557999D01*
X156744600Y-158604691D01*
X156650917Y-158759232D01*
X155007083Y-158759232D01*
X154913400Y-158604691D01*
X154678664Y-158557999D01*
X154439330Y-158557999D01*
X154204600Y-158604691D01*
X154110917Y-158759232D01*
X152467083Y-158759232D01*
X152373400Y-158604691D01*
X152138664Y-158557999D01*
X151899330Y-158557999D01*
X151664600Y-158604691D01*
X151570917Y-158759232D01*
X149927083Y-158759232D01*
X149833400Y-158604691D01*
X149598664Y-158557999D01*
X149359330Y-158557999D01*
X149124600Y-158604691D01*
X149030917Y-158759232D01*
X147387083Y-158759232D01*
X147293400Y-158604691D01*
X147058664Y-158557999D01*
X146819330Y-158557999D01*
X146584600Y-158604691D01*
X146490917Y-158759232D01*
X144847083Y-158759232D01*
X144753400Y-158604691D01*
X144518664Y-158557999D01*
X144279330Y-158557999D01*
X144044600Y-158604691D01*
X143950917Y-158759232D01*
X142307083Y-158759232D01*
X142213400Y-158604691D01*
X141978664Y-158557999D01*
X141739330Y-158557999D01*
X141504600Y-158604691D01*
X141410917Y-158759232D01*
X139767083Y-158759232D01*
X139673400Y-158604691D01*
X139438664Y-158557999D01*
X139199330Y-158557999D01*
X138964600Y-158604691D01*
X138870917Y-158759232D01*
X137227083Y-158759232D01*
X137133400Y-158604691D01*
X136898664Y-158557999D01*
X136659330Y-158557999D01*
X136424600Y-158604691D01*
X136330917Y-158759232D01*
X134687083Y-158759232D01*
X134593400Y-158604691D01*
X134358664Y-158557999D01*
X134119330Y-158557999D01*
X133884600Y-158604691D01*
X133790917Y-158759232D01*
X132034528Y-158759232D01*
X132009649Y-158748927D01*
X131803893Y-158708000D01*
X131594107Y-158708000D01*
X131388351Y-158748927D01*
X131194533Y-158829209D01*
X131020102Y-158945761D01*
X130871761Y-159094102D01*
X130755209Y-159268533D01*
X130674927Y-159462351D01*
X130634000Y-159668107D01*
X130224000Y-159668107D01*
X130183073Y-159462351D01*
X130102791Y-159268533D01*
X129986239Y-159094102D01*
X129837898Y-158945761D01*
X129663467Y-158829209D01*
X129469649Y-158748927D01*
X129263893Y-158708000D01*
X129054107Y-158708000D01*
X128848351Y-158748927D01*
X128654533Y-158829209D01*
X128480102Y-158945761D01*
X128331761Y-159094102D01*
X128215209Y-159268533D01*
X128134927Y-159462351D01*
X128094000Y-159668107D01*
X127684000Y-159668107D01*
X127643073Y-159462351D01*
X127562791Y-159268533D01*
X127446239Y-159094102D01*
X127297898Y-158945761D01*
X127123467Y-158829209D01*
X126929649Y-158748927D01*
X126723893Y-158708000D01*
X126514107Y-158708000D01*
X126308351Y-158748927D01*
X126114533Y-158829209D01*
X125940102Y-158945761D01*
X125791761Y-159094102D01*
X125675209Y-159268533D01*
X125594927Y-159462351D01*
X125554000Y-159668107D01*
X125144000Y-159668107D01*
X125103073Y-159462351D01*
X125022791Y-159268533D01*
X124906239Y-159094102D01*
X124757898Y-158945761D01*
X124583467Y-158829209D01*
X124389649Y-158748927D01*
X124183893Y-158708000D01*
X123974107Y-158708000D01*
X123768351Y-158748927D01*
X123574533Y-158829209D01*
X123400102Y-158945761D01*
X123251761Y-159094102D01*
X123135209Y-159268533D01*
X123054927Y-159462351D01*
X123014000Y-159668107D01*
X122604000Y-159668107D01*
X122563073Y-159462351D01*
X122482791Y-159268533D01*
X122366239Y-159094102D01*
X122217898Y-158945761D01*
X122043467Y-158829209D01*
X121849649Y-158748927D01*
X121643893Y-158708000D01*
X121434107Y-158708000D01*
X121228351Y-158748927D01*
X121034533Y-158829209D01*
X120860102Y-158945761D01*
X120711761Y-159094102D01*
X120595209Y-159268533D01*
X120514927Y-159462351D01*
X120474000Y-159668107D01*
X120064000Y-159668107D01*
X120023073Y-159462351D01*
X119942791Y-159268533D01*
X119826239Y-159094102D01*
X119677898Y-158945761D01*
X119503467Y-158829209D01*
X119309649Y-158748927D01*
X119103893Y-158708000D01*
X118894107Y-158708000D01*
X118688351Y-158748927D01*
X118494533Y-158829209D01*
X118320102Y-158945761D01*
X118171761Y-159094102D01*
X118055209Y-159268533D01*
X117974927Y-159462351D01*
X117934000Y-159668107D01*
X113813000Y-159668107D01*
X113813000Y-150335061D01*
X113817917Y-150344260D01*
X113871027Y-150408974D01*
X113887239Y-150422279D01*
X117948240Y-154483281D01*
X117948245Y-154483285D01*
X118007843Y-154542884D01*
X117974927Y-154622351D01*
X117934000Y-154828107D01*
X117934000Y-155037893D01*
X117974927Y-155243649D01*
X118055209Y-155437467D01*
X118171761Y-155611898D01*
X118320102Y-155760239D01*
X118494533Y-155876791D01*
X118688351Y-155957073D01*
X118894107Y-155998000D01*
X119103893Y-155998000D01*
X119309649Y-155957073D01*
X119503467Y-155876791D01*
X119677898Y-155760239D01*
X119826239Y-155611898D01*
X119942791Y-155437467D01*
X120023073Y-155243649D01*
X120064000Y-155037893D01*
X120064000Y-154828107D01*
X120474000Y-154828107D01*
X120474000Y-155037893D01*
X120514927Y-155243649D01*
X120595209Y-155437467D01*
X120711761Y-155611898D01*
X120860102Y-155760239D01*
X121034533Y-155876791D01*
X121228351Y-155957073D01*
X121434107Y-155998000D01*
X121643893Y-155998000D01*
X121849649Y-155957073D01*
X122043467Y-155876791D01*
X122217898Y-155760239D01*
X122366239Y-155611898D01*
X122482791Y-155437467D01*
X122563073Y-155243649D01*
X122604000Y-155037893D01*
X122604000Y-154828107D01*
X123014000Y-154828107D01*
X123014000Y-155037893D01*
X123054927Y-155243649D01*
X123135209Y-155437467D01*
X123251761Y-155611898D01*
X123400102Y-155760239D01*
X123574533Y-155876791D01*
X123768351Y-155957073D01*
X123974107Y-155998000D01*
X124183893Y-155998000D01*
X124389649Y-155957073D01*
X124583467Y-155876791D01*
X124757898Y-155760239D01*
X124906239Y-155611898D01*
X125022791Y-155437467D01*
X125103073Y-155243649D01*
X125144000Y-155037893D01*
X125144000Y-154828107D01*
X125103073Y-154622351D01*
X125022791Y-154428533D01*
X124906239Y-154254102D01*
X124757898Y-154105761D01*
X124583467Y-153989209D01*
X124389649Y-153908927D01*
X124183893Y-153868000D01*
X123974107Y-153868000D01*
X123768351Y-153908927D01*
X123574533Y-153989209D01*
X123400102Y-154105761D01*
X123251761Y-154254102D01*
X123135209Y-154428533D01*
X123054927Y-154622351D01*
X123014000Y-154828107D01*
X122604000Y-154828107D01*
X122563073Y-154622351D01*
X122482791Y-154428533D01*
X122366239Y-154254102D01*
X122217898Y-154105761D01*
X122043467Y-153989209D01*
X121849649Y-153908927D01*
X121643893Y-153868000D01*
X121434107Y-153868000D01*
X121228351Y-153908927D01*
X121034533Y-153989209D01*
X120860102Y-154105761D01*
X120711761Y-154254102D01*
X120595209Y-154428533D01*
X120514927Y-154622351D01*
X120474000Y-154828107D01*
X120064000Y-154828107D01*
X120023073Y-154622351D01*
X119942791Y-154428533D01*
X119826239Y-154254102D01*
X119677898Y-154105761D01*
X119503467Y-153989209D01*
X119309649Y-153908927D01*
X119103893Y-153868000D01*
X118894107Y-153868000D01*
X118688351Y-153908927D01*
X118608884Y-153941843D01*
X118549285Y-153882245D01*
X118549281Y-153882240D01*
X114598000Y-149930960D01*
X114598000Y-148227659D01*
X118407000Y-148227659D01*
X118407000Y-148444341D01*
X118449273Y-148656858D01*
X118532193Y-148857045D01*
X118652575Y-149037209D01*
X118805791Y-149190425D01*
X118985955Y-149310807D01*
X119186142Y-149393727D01*
X119398659Y-149436000D01*
X119615341Y-149436000D01*
X119827858Y-149393727D01*
X120028045Y-149310807D01*
X120208209Y-149190425D01*
X120241797Y-149156837D01*
X125627843Y-154542884D01*
X125594927Y-154622351D01*
X125554000Y-154828107D01*
X125554000Y-155037893D01*
X125594927Y-155243649D01*
X125675209Y-155437467D01*
X125791761Y-155611898D01*
X125940102Y-155760239D01*
X126114533Y-155876791D01*
X126308351Y-155957073D01*
X126514107Y-155998000D01*
X126723893Y-155998000D01*
X126929649Y-155957073D01*
X127123467Y-155876791D01*
X127297898Y-155760239D01*
X127446239Y-155611898D01*
X127562791Y-155437467D01*
X127643073Y-155243649D01*
X127684000Y-155037893D01*
X127684000Y-154828107D01*
X128094000Y-154828107D01*
X128094000Y-155037893D01*
X128134927Y-155243649D01*
X128215209Y-155437467D01*
X128331761Y-155611898D01*
X128480102Y-155760239D01*
X128654533Y-155876791D01*
X128848351Y-155957073D01*
X129054107Y-155998000D01*
X129263893Y-155998000D01*
X129469649Y-155957073D01*
X129663467Y-155876791D01*
X129837898Y-155760239D01*
X129986239Y-155611898D01*
X130102791Y-155437467D01*
X130183073Y-155243649D01*
X130224000Y-155037893D01*
X130224000Y-154828107D01*
X130634000Y-154828107D01*
X130634000Y-155037893D01*
X130674927Y-155243649D01*
X130755209Y-155437467D01*
X130871761Y-155611898D01*
X131020102Y-155760239D01*
X131194533Y-155876791D01*
X131388351Y-155957073D01*
X131594107Y-155998000D01*
X131803893Y-155998000D01*
X132009649Y-155957073D01*
X132034527Y-155946768D01*
X133790917Y-155946768D01*
X133884600Y-156101309D01*
X134119336Y-156148001D01*
X134358670Y-156148001D01*
X134593400Y-156101309D01*
X134687083Y-155946768D01*
X136330917Y-155946768D01*
X136424600Y-156101309D01*
X136659336Y-156148001D01*
X136898670Y-156148001D01*
X137133400Y-156101309D01*
X137227083Y-155946768D01*
X138870917Y-155946768D01*
X138964600Y-156101309D01*
X139199336Y-156148001D01*
X139438670Y-156148001D01*
X139673400Y-156101309D01*
X139767083Y-155946768D01*
X141410917Y-155946768D01*
X141504600Y-156101309D01*
X141739336Y-156148001D01*
X141978670Y-156148001D01*
X142213400Y-156101309D01*
X142307083Y-155946768D01*
X143950917Y-155946768D01*
X144044600Y-156101309D01*
X144279336Y-156148001D01*
X144518670Y-156148001D01*
X144753400Y-156101309D01*
X144847083Y-155946768D01*
X146490917Y-155946768D01*
X146584600Y-156101309D01*
X146819336Y-156148001D01*
X147058670Y-156148001D01*
X147293400Y-156101309D01*
X147387083Y-155946768D01*
X149030917Y-155946768D01*
X149124600Y-156101309D01*
X149359336Y-156148001D01*
X149598670Y-156148001D01*
X149833400Y-156101309D01*
X149927083Y-155946768D01*
X151570917Y-155946768D01*
X151664600Y-156101309D01*
X151899336Y-156148001D01*
X152138670Y-156148001D01*
X152373400Y-156101309D01*
X152467083Y-155946768D01*
X154110917Y-155946768D01*
X154204600Y-156101309D01*
X154439336Y-156148001D01*
X154678670Y-156148001D01*
X154913400Y-156101309D01*
X155007083Y-155946768D01*
X156650917Y-155946768D01*
X156744600Y-156101309D01*
X156979336Y-156148001D01*
X157218670Y-156148001D01*
X157453400Y-156101309D01*
X157547083Y-155946768D01*
X159190917Y-155946768D01*
X159284600Y-156101309D01*
X159519336Y-156148001D01*
X159758670Y-156148001D01*
X159993400Y-156101309D01*
X160087083Y-155946768D01*
X161730917Y-155946768D01*
X161824600Y-156101309D01*
X162059336Y-156148001D01*
X162298670Y-156148001D01*
X162533400Y-156101309D01*
X162627083Y-155946768D01*
X162179000Y-155498685D01*
X161730917Y-155946768D01*
X160087083Y-155946768D01*
X159639000Y-155498685D01*
X159190917Y-155946768D01*
X157547083Y-155946768D01*
X157099000Y-155498685D01*
X156650917Y-155946768D01*
X155007083Y-155946768D01*
X154559000Y-155498685D01*
X154110917Y-155946768D01*
X152467083Y-155946768D01*
X152019000Y-155498685D01*
X151570917Y-155946768D01*
X149927083Y-155946768D01*
X149479000Y-155498685D01*
X149030917Y-155946768D01*
X147387083Y-155946768D01*
X146939000Y-155498685D01*
X146490917Y-155946768D01*
X144847083Y-155946768D01*
X144399000Y-155498685D01*
X143950917Y-155946768D01*
X142307083Y-155946768D01*
X141859000Y-155498685D01*
X141410917Y-155946768D01*
X139767083Y-155946768D01*
X139319000Y-155498685D01*
X138870917Y-155946768D01*
X137227083Y-155946768D01*
X136779000Y-155498685D01*
X136330917Y-155946768D01*
X134687083Y-155946768D01*
X134239000Y-155498685D01*
X133790917Y-155946768D01*
X132034527Y-155946768D01*
X132203467Y-155876791D01*
X132377898Y-155760239D01*
X132526239Y-155611898D01*
X132642791Y-155437467D01*
X132723073Y-155243649D01*
X132764000Y-155037893D01*
X132764000Y-154828107D01*
X132761062Y-154813336D01*
X133023999Y-154813336D01*
X133023999Y-155052670D01*
X133070691Y-155287400D01*
X133225232Y-155381083D01*
X133673315Y-154933000D01*
X134804685Y-154933000D01*
X135252768Y-155381083D01*
X135407309Y-155287400D01*
X135454001Y-155052664D01*
X135454001Y-154813336D01*
X135563999Y-154813336D01*
X135563999Y-155052670D01*
X135610691Y-155287400D01*
X135765232Y-155381083D01*
X136213315Y-154933000D01*
X137344685Y-154933000D01*
X137792768Y-155381083D01*
X137947309Y-155287400D01*
X137994001Y-155052664D01*
X137994001Y-154813336D01*
X138103999Y-154813336D01*
X138103999Y-155052670D01*
X138150691Y-155287400D01*
X138305232Y-155381083D01*
X138753315Y-154933000D01*
X139884685Y-154933000D01*
X140332768Y-155381083D01*
X140487309Y-155287400D01*
X140534001Y-155052664D01*
X140534001Y-154813336D01*
X140643999Y-154813336D01*
X140643999Y-155052670D01*
X140690691Y-155287400D01*
X140845232Y-155381083D01*
X141293315Y-154933000D01*
X142424685Y-154933000D01*
X142872768Y-155381083D01*
X143027309Y-155287400D01*
X143074001Y-155052664D01*
X143074001Y-154813336D01*
X143183999Y-154813336D01*
X143183999Y-155052670D01*
X143230691Y-155287400D01*
X143385232Y-155381083D01*
X143833315Y-154933000D01*
X144964685Y-154933000D01*
X145412768Y-155381083D01*
X145567309Y-155287400D01*
X145614001Y-155052664D01*
X145614001Y-154813336D01*
X145723999Y-154813336D01*
X145723999Y-155052670D01*
X145770691Y-155287400D01*
X145925232Y-155381083D01*
X146373315Y-154933000D01*
X147504685Y-154933000D01*
X147952768Y-155381083D01*
X148107309Y-155287400D01*
X148154001Y-155052664D01*
X148154001Y-154813336D01*
X148263999Y-154813336D01*
X148263999Y-155052670D01*
X148310691Y-155287400D01*
X148465232Y-155381083D01*
X148913315Y-154933000D01*
X150044685Y-154933000D01*
X150492768Y-155381083D01*
X150647309Y-155287400D01*
X150694001Y-155052664D01*
X150694001Y-154813336D01*
X150803999Y-154813336D01*
X150803999Y-155052670D01*
X150850691Y-155287400D01*
X151005232Y-155381083D01*
X151453315Y-154933000D01*
X152584685Y-154933000D01*
X153032768Y-155381083D01*
X153187309Y-155287400D01*
X153234001Y-155052664D01*
X153234001Y-154813336D01*
X153343999Y-154813336D01*
X153343999Y-155052670D01*
X153390691Y-155287400D01*
X153545232Y-155381083D01*
X153993315Y-154933000D01*
X155124685Y-154933000D01*
X155572768Y-155381083D01*
X155727309Y-155287400D01*
X155774001Y-155052664D01*
X155774001Y-154813336D01*
X155883999Y-154813336D01*
X155883999Y-155052670D01*
X155930691Y-155287400D01*
X156085232Y-155381083D01*
X156533315Y-154933000D01*
X157664685Y-154933000D01*
X158112768Y-155381083D01*
X158267309Y-155287400D01*
X158314001Y-155052664D01*
X158314001Y-154813336D01*
X158423999Y-154813336D01*
X158423999Y-155052670D01*
X158470691Y-155287400D01*
X158625232Y-155381083D01*
X159073315Y-154933000D01*
X160204685Y-154933000D01*
X160652768Y-155381083D01*
X160807309Y-155287400D01*
X160854001Y-155052664D01*
X160854001Y-154813336D01*
X160963999Y-154813336D01*
X160963999Y-155052670D01*
X161010691Y-155287400D01*
X161165232Y-155381083D01*
X161613315Y-154933000D01*
X162744685Y-154933000D01*
X163192768Y-155381083D01*
X163347309Y-155287400D01*
X163394001Y-155052664D01*
X163394001Y-154813336D01*
X163503999Y-154813336D01*
X163503999Y-155052670D01*
X163550691Y-155287400D01*
X163705232Y-155381083D01*
X164153315Y-154933000D01*
X163705232Y-154484917D01*
X163550691Y-154578600D01*
X163503999Y-154813336D01*
X163394001Y-154813336D01*
X163394001Y-154813330D01*
X163347309Y-154578600D01*
X163192768Y-154484917D01*
X162744685Y-154933000D01*
X161613315Y-154933000D01*
X161165232Y-154484917D01*
X161010691Y-154578600D01*
X160963999Y-154813336D01*
X160854001Y-154813336D01*
X160854001Y-154813330D01*
X160807309Y-154578600D01*
X160652768Y-154484917D01*
X160204685Y-154933000D01*
X159073315Y-154933000D01*
X158625232Y-154484917D01*
X158470691Y-154578600D01*
X158423999Y-154813336D01*
X158314001Y-154813336D01*
X158314001Y-154813330D01*
X158267309Y-154578600D01*
X158112768Y-154484917D01*
X157664685Y-154933000D01*
X156533315Y-154933000D01*
X156085232Y-154484917D01*
X155930691Y-154578600D01*
X155883999Y-154813336D01*
X155774001Y-154813336D01*
X155774001Y-154813330D01*
X155727309Y-154578600D01*
X155572768Y-154484917D01*
X155124685Y-154933000D01*
X153993315Y-154933000D01*
X153545232Y-154484917D01*
X153390691Y-154578600D01*
X153343999Y-154813336D01*
X153234001Y-154813336D01*
X153234001Y-154813330D01*
X153187309Y-154578600D01*
X153032768Y-154484917D01*
X152584685Y-154933000D01*
X151453315Y-154933000D01*
X151005232Y-154484917D01*
X150850691Y-154578600D01*
X150803999Y-154813336D01*
X150694001Y-154813336D01*
X150694001Y-154813330D01*
X150647309Y-154578600D01*
X150492768Y-154484917D01*
X150044685Y-154933000D01*
X148913315Y-154933000D01*
X148465232Y-154484917D01*
X148310691Y-154578600D01*
X148263999Y-154813336D01*
X148154001Y-154813336D01*
X148154001Y-154813330D01*
X148107309Y-154578600D01*
X147952768Y-154484917D01*
X147504685Y-154933000D01*
X146373315Y-154933000D01*
X145925232Y-154484917D01*
X145770691Y-154578600D01*
X145723999Y-154813336D01*
X145614001Y-154813336D01*
X145614001Y-154813330D01*
X145567309Y-154578600D01*
X145412768Y-154484917D01*
X144964685Y-154933000D01*
X143833315Y-154933000D01*
X143385232Y-154484917D01*
X143230691Y-154578600D01*
X143183999Y-154813336D01*
X143074001Y-154813336D01*
X143074001Y-154813330D01*
X143027309Y-154578600D01*
X142872768Y-154484917D01*
X142424685Y-154933000D01*
X141293315Y-154933000D01*
X140845232Y-154484917D01*
X140690691Y-154578600D01*
X140643999Y-154813336D01*
X140534001Y-154813336D01*
X140534001Y-154813330D01*
X140487309Y-154578600D01*
X140332768Y-154484917D01*
X139884685Y-154933000D01*
X138753315Y-154933000D01*
X138305232Y-154484917D01*
X138150691Y-154578600D01*
X138103999Y-154813336D01*
X137994001Y-154813336D01*
X137994001Y-154813330D01*
X137947309Y-154578600D01*
X137792768Y-154484917D01*
X137344685Y-154933000D01*
X136213315Y-154933000D01*
X135765232Y-154484917D01*
X135610691Y-154578600D01*
X135563999Y-154813336D01*
X135454001Y-154813336D01*
X135454001Y-154813330D01*
X135407309Y-154578600D01*
X135252768Y-154484917D01*
X134804685Y-154933000D01*
X133673315Y-154933000D01*
X133225232Y-154484917D01*
X133070691Y-154578600D01*
X133023999Y-154813336D01*
X132761062Y-154813336D01*
X132723073Y-154622351D01*
X132642791Y-154428533D01*
X132526239Y-154254102D01*
X132377898Y-154105761D01*
X132203467Y-153989209D01*
X132034528Y-153919232D01*
X133790917Y-153919232D01*
X134239000Y-154367315D01*
X134687083Y-153919232D01*
X136330917Y-153919232D01*
X136779000Y-154367315D01*
X137227083Y-153919232D01*
X138870917Y-153919232D01*
X139319000Y-154367315D01*
X139767083Y-153919232D01*
X141410917Y-153919232D01*
X141859000Y-154367315D01*
X142307083Y-153919232D01*
X143950917Y-153919232D01*
X144399000Y-154367315D01*
X144847083Y-153919232D01*
X146490917Y-153919232D01*
X146939000Y-154367315D01*
X147387083Y-153919232D01*
X149030917Y-153919232D01*
X149479000Y-154367315D01*
X149927083Y-153919232D01*
X151570917Y-153919232D01*
X152019000Y-154367315D01*
X152467083Y-153919232D01*
X154110917Y-153919232D01*
X154559000Y-154367315D01*
X155007083Y-153919232D01*
X156650917Y-153919232D01*
X157099000Y-154367315D01*
X157547083Y-153919232D01*
X159190917Y-153919232D01*
X159639000Y-154367315D01*
X160087083Y-153919232D01*
X161730917Y-153919232D01*
X162179000Y-154367315D01*
X162627083Y-153919232D01*
X162533400Y-153764691D01*
X162298664Y-153717999D01*
X162059330Y-153717999D01*
X161824600Y-153764691D01*
X161730917Y-153919232D01*
X160087083Y-153919232D01*
X159993400Y-153764691D01*
X159758664Y-153717999D01*
X159519330Y-153717999D01*
X159284600Y-153764691D01*
X159190917Y-153919232D01*
X157547083Y-153919232D01*
X157453400Y-153764691D01*
X157218664Y-153717999D01*
X156979330Y-153717999D01*
X156744600Y-153764691D01*
X156650917Y-153919232D01*
X155007083Y-153919232D01*
X154913400Y-153764691D01*
X154678664Y-153717999D01*
X154439330Y-153717999D01*
X154204600Y-153764691D01*
X154110917Y-153919232D01*
X152467083Y-153919232D01*
X152373400Y-153764691D01*
X152138664Y-153717999D01*
X151899330Y-153717999D01*
X151664600Y-153764691D01*
X151570917Y-153919232D01*
X149927083Y-153919232D01*
X149833400Y-153764691D01*
X149598664Y-153717999D01*
X149359330Y-153717999D01*
X149124600Y-153764691D01*
X149030917Y-153919232D01*
X147387083Y-153919232D01*
X147293400Y-153764691D01*
X147058664Y-153717999D01*
X146819330Y-153717999D01*
X146584600Y-153764691D01*
X146490917Y-153919232D01*
X144847083Y-153919232D01*
X144753400Y-153764691D01*
X144518664Y-153717999D01*
X144279330Y-153717999D01*
X144044600Y-153764691D01*
X143950917Y-153919232D01*
X142307083Y-153919232D01*
X142213400Y-153764691D01*
X141978664Y-153717999D01*
X141739330Y-153717999D01*
X141504600Y-153764691D01*
X141410917Y-153919232D01*
X139767083Y-153919232D01*
X139673400Y-153764691D01*
X139438664Y-153717999D01*
X139199330Y-153717999D01*
X138964600Y-153764691D01*
X138870917Y-153919232D01*
X137227083Y-153919232D01*
X137133400Y-153764691D01*
X136898664Y-153717999D01*
X136659330Y-153717999D01*
X136424600Y-153764691D01*
X136330917Y-153919232D01*
X134687083Y-153919232D01*
X134593400Y-153764691D01*
X134358664Y-153717999D01*
X134119330Y-153717999D01*
X133884600Y-153764691D01*
X133790917Y-153919232D01*
X132034528Y-153919232D01*
X132009649Y-153908927D01*
X131803893Y-153868000D01*
X131594107Y-153868000D01*
X131388351Y-153908927D01*
X131194533Y-153989209D01*
X131020102Y-154105761D01*
X130871761Y-154254102D01*
X130755209Y-154428533D01*
X130674927Y-154622351D01*
X130634000Y-154828107D01*
X130224000Y-154828107D01*
X130183073Y-154622351D01*
X130102791Y-154428533D01*
X129986239Y-154254102D01*
X129837898Y-154105761D01*
X129663467Y-153989209D01*
X129469649Y-153908927D01*
X129263893Y-153868000D01*
X129054107Y-153868000D01*
X128848351Y-153908927D01*
X128654533Y-153989209D01*
X128480102Y-154105761D01*
X128331761Y-154254102D01*
X128215209Y-154428533D01*
X128134927Y-154622351D01*
X128094000Y-154828107D01*
X127684000Y-154828107D01*
X127643073Y-154622351D01*
X127562791Y-154428533D01*
X127446239Y-154254102D01*
X127297898Y-154105761D01*
X127123467Y-153989209D01*
X126929649Y-153908927D01*
X126723893Y-153868000D01*
X126514107Y-153868000D01*
X126308351Y-153908927D01*
X126228884Y-153941843D01*
X120607000Y-148319960D01*
X120607000Y-148227659D01*
X120564727Y-148015142D01*
X120481807Y-147814955D01*
X120361425Y-147634791D01*
X120208209Y-147481575D01*
X120028045Y-147361193D01*
X119827858Y-147278273D01*
X119615341Y-147236000D01*
X119398659Y-147236000D01*
X119186142Y-147278273D01*
X118985955Y-147361193D01*
X118805791Y-147481575D01*
X118652575Y-147634791D01*
X118532193Y-147814955D01*
X118449273Y-148015142D01*
X118407000Y-148227659D01*
X114598000Y-148227659D01*
X114598000Y-143345680D01*
X115508413Y-142435267D01*
X115698953Y-142514192D01*
X115699597Y-142514320D01*
X115698953Y-142514448D01*
X115462461Y-142612407D01*
X115249623Y-142754620D01*
X115068620Y-142935623D01*
X114926407Y-143148461D01*
X114828448Y-143384953D01*
X114778510Y-143636011D01*
X114778510Y-143891989D01*
X114828448Y-144143047D01*
X114926407Y-144379539D01*
X115068620Y-144592377D01*
X115249623Y-144773380D01*
X115462461Y-144915593D01*
X115698953Y-145013552D01*
X115699597Y-145013680D01*
X115698953Y-145013808D01*
X115462461Y-145111767D01*
X115249623Y-145253980D01*
X115068620Y-145434983D01*
X114926407Y-145647821D01*
X114828448Y-145884313D01*
X114778510Y-146135371D01*
X114778510Y-146391349D01*
X114828448Y-146642407D01*
X114926407Y-146878899D01*
X115068620Y-147091737D01*
X115249623Y-147272740D01*
X115462461Y-147414953D01*
X115698953Y-147512912D01*
X115950011Y-147562850D01*
X116205989Y-147562850D01*
X116457047Y-147512912D01*
X116693539Y-147414953D01*
X116906377Y-147272740D01*
X117087380Y-147091737D01*
X117229593Y-146878899D01*
X117327552Y-146642407D01*
X117377490Y-146391349D01*
X117377490Y-146300000D01*
X125040823Y-146300000D01*
X125049511Y-146388215D01*
X125075243Y-146473041D01*
X125117029Y-146551216D01*
X125173263Y-146619737D01*
X125241784Y-146675971D01*
X125319959Y-146717757D01*
X125404785Y-146743489D01*
X125493000Y-146752177D01*
X126980500Y-146750000D01*
X127093000Y-146637500D01*
X127093000Y-144700000D01*
X127893000Y-144700000D01*
X127893000Y-146637500D01*
X128005500Y-146750000D01*
X129493000Y-146752177D01*
X129581215Y-146743489D01*
X129666041Y-146717757D01*
X129744216Y-146675971D01*
X129812737Y-146619737D01*
X129868971Y-146551216D01*
X129910757Y-146473041D01*
X129936489Y-146388215D01*
X129945177Y-146300000D01*
X129945060Y-146219832D01*
X135638853Y-146219832D01*
X135888793Y-146500331D01*
X136339273Y-146673473D01*
X136814876Y-146755402D01*
X137297324Y-146742973D01*
X137768077Y-146636661D01*
X138097207Y-146500331D01*
X138347147Y-146219832D01*
X145138853Y-146219832D01*
X145388793Y-146500331D01*
X145839273Y-146673473D01*
X146314876Y-146755402D01*
X146797324Y-146742973D01*
X147268077Y-146636661D01*
X147597207Y-146500331D01*
X147847147Y-146219832D01*
X154638853Y-146219832D01*
X154888793Y-146500331D01*
X155339273Y-146673473D01*
X155814876Y-146755402D01*
X156297324Y-146742973D01*
X156768077Y-146636661D01*
X157097207Y-146500331D01*
X157347147Y-146219832D01*
X155993000Y-144865685D01*
X154638853Y-146219832D01*
X147847147Y-146219832D01*
X146493000Y-144865685D01*
X145138853Y-146219832D01*
X138347147Y-146219832D01*
X136993000Y-144865685D01*
X135638853Y-146219832D01*
X129945060Y-146219832D01*
X129943000Y-144812500D01*
X129830500Y-144700000D01*
X127893000Y-144700000D01*
X127093000Y-144700000D01*
X125155500Y-144700000D01*
X125043000Y-144812500D01*
X125040823Y-146300000D01*
X117377490Y-146300000D01*
X117377490Y-146135371D01*
X117327552Y-145884313D01*
X117229593Y-145647821D01*
X117087380Y-145434983D01*
X116906377Y-145253980D01*
X116693539Y-145111767D01*
X116457047Y-145013808D01*
X116456403Y-145013680D01*
X116457047Y-145013552D01*
X116693539Y-144915593D01*
X116906377Y-144773380D01*
X117087380Y-144592377D01*
X117229593Y-144379539D01*
X117327552Y-144143047D01*
X117331763Y-144121876D01*
X134537598Y-144121876D01*
X134550027Y-144604324D01*
X134656339Y-145075077D01*
X134792669Y-145404207D01*
X135073168Y-145654147D01*
X136427315Y-144300000D01*
X137558685Y-144300000D01*
X138912832Y-145654147D01*
X139193331Y-145404207D01*
X139366473Y-144953727D01*
X139448402Y-144478124D01*
X139439225Y-144121876D01*
X144037598Y-144121876D01*
X144050027Y-144604324D01*
X144156339Y-145075077D01*
X144292669Y-145404207D01*
X144573168Y-145654147D01*
X145927315Y-144300000D01*
X147058685Y-144300000D01*
X148412832Y-145654147D01*
X148693331Y-145404207D01*
X148866473Y-144953727D01*
X148948402Y-144478124D01*
X148939225Y-144121876D01*
X153537598Y-144121876D01*
X153550027Y-144604324D01*
X153656339Y-145075077D01*
X153792669Y-145404207D01*
X154073168Y-145654147D01*
X155427315Y-144300000D01*
X156558685Y-144300000D01*
X157912832Y-145654147D01*
X158193331Y-145404207D01*
X158366473Y-144953727D01*
X158448402Y-144478124D01*
X158435973Y-143995676D01*
X158329661Y-143524923D01*
X158193331Y-143195793D01*
X157912832Y-142945853D01*
X156558685Y-144300000D01*
X155427315Y-144300000D01*
X154073168Y-142945853D01*
X153792669Y-143195793D01*
X153619527Y-143646273D01*
X153537598Y-144121876D01*
X148939225Y-144121876D01*
X148935973Y-143995676D01*
X148829661Y-143524923D01*
X148693331Y-143195793D01*
X148412832Y-142945853D01*
X147058685Y-144300000D01*
X145927315Y-144300000D01*
X144573168Y-142945853D01*
X144292669Y-143195793D01*
X144119527Y-143646273D01*
X144037598Y-144121876D01*
X139439225Y-144121876D01*
X139435973Y-143995676D01*
X139329661Y-143524923D01*
X139193331Y-143195793D01*
X138912832Y-142945853D01*
X137558685Y-144300000D01*
X136427315Y-144300000D01*
X135073168Y-142945853D01*
X134792669Y-143195793D01*
X134619527Y-143646273D01*
X134537598Y-144121876D01*
X117331763Y-144121876D01*
X117377490Y-143891989D01*
X117377490Y-143636011D01*
X117346057Y-143477983D01*
X118524040Y-142300000D01*
X125040823Y-142300000D01*
X125043000Y-143787500D01*
X125155500Y-143900000D01*
X127093000Y-143900000D01*
X127093000Y-141962500D01*
X127893000Y-141962500D01*
X127893000Y-143900000D01*
X129830500Y-143900000D01*
X129943000Y-143787500D01*
X129945059Y-142380168D01*
X135638853Y-142380168D01*
X136993000Y-143734315D01*
X138347147Y-142380168D01*
X145138853Y-142380168D01*
X146493000Y-143734315D01*
X147847147Y-142380168D01*
X154638853Y-142380168D01*
X155993000Y-143734315D01*
X157347147Y-142380168D01*
X157097207Y-142099669D01*
X156646727Y-141926527D01*
X156171124Y-141844598D01*
X155688676Y-141857027D01*
X155217923Y-141963339D01*
X154888793Y-142099669D01*
X154638853Y-142380168D01*
X147847147Y-142380168D01*
X147597207Y-142099669D01*
X147146727Y-141926527D01*
X146671124Y-141844598D01*
X146188676Y-141857027D01*
X145717923Y-141963339D01*
X145388793Y-142099669D01*
X145138853Y-142380168D01*
X138347147Y-142380168D01*
X138097207Y-142099669D01*
X137646727Y-141926527D01*
X137171124Y-141844598D01*
X136688676Y-141857027D01*
X136217923Y-141963339D01*
X135888793Y-142099669D01*
X135638853Y-142380168D01*
X129945059Y-142380168D01*
X129945177Y-142300000D01*
X129936489Y-142211785D01*
X129910757Y-142126959D01*
X129868971Y-142048784D01*
X129812737Y-141980263D01*
X129744216Y-141924029D01*
X129666041Y-141882243D01*
X129581215Y-141856511D01*
X129493000Y-141847823D01*
X128005500Y-141850000D01*
X127893000Y-141962500D01*
X127093000Y-141962500D01*
X126980500Y-141850000D01*
X125493000Y-141847823D01*
X125404785Y-141856511D01*
X125319959Y-141882243D01*
X125241784Y-141924029D01*
X125173263Y-141980263D01*
X125117029Y-142048784D01*
X125075243Y-142126959D01*
X125049511Y-142211785D01*
X125040823Y-142300000D01*
X118524040Y-142300000D01*
X119090097Y-141733944D01*
X119186142Y-141773727D01*
X119398659Y-141816000D01*
X119615341Y-141816000D01*
X119827858Y-141773727D01*
X120028045Y-141690807D01*
X120208209Y-141570425D01*
X120361425Y-141417209D01*
X120481807Y-141237045D01*
X120564727Y-141036858D01*
X120607000Y-140824341D01*
X120607000Y-140607659D01*
X120564727Y-140395142D01*
X120481807Y-140194955D01*
X120361425Y-140014791D01*
X120208209Y-139861575D01*
X120028045Y-139741193D01*
X119827858Y-139658273D01*
X119615341Y-139616000D01*
X119398659Y-139616000D01*
X119186142Y-139658273D01*
X118985955Y-139741193D01*
X118805791Y-139861575D01*
X118652575Y-140014791D01*
X118532193Y-140194955D01*
X118449273Y-140395142D01*
X118407000Y-140607659D01*
X118407000Y-140824341D01*
X118449273Y-141036858D01*
X118489056Y-141132903D01*
X116882976Y-142738984D01*
X116693539Y-142612407D01*
X116457047Y-142514448D01*
X116456403Y-142514320D01*
X116457047Y-142514192D01*
X116693539Y-142416233D01*
X116906377Y-142274020D01*
X117087380Y-142093017D01*
X117229593Y-141880179D01*
X117327552Y-141643687D01*
X117377490Y-141392629D01*
X117377490Y-141136651D01*
X117327552Y-140885593D01*
X117229593Y-140649101D01*
X117087380Y-140436263D01*
X116906377Y-140255260D01*
X116693539Y-140113047D01*
X116457047Y-140015088D01*
X116205989Y-139965150D01*
X115950011Y-139965150D01*
X115698953Y-140015088D01*
X115462461Y-140113047D01*
X115249623Y-140255260D01*
X115068620Y-140436263D01*
X114926407Y-140649101D01*
X114828448Y-140885593D01*
X114778510Y-141136651D01*
X114778510Y-141392629D01*
X114828448Y-141643687D01*
X114907373Y-141834227D01*
X113887243Y-142854357D01*
X113871026Y-142867666D01*
X113817916Y-142932381D01*
X113813000Y-142941578D01*
X113813000Y-137476199D01*
X113939834Y-137243920D01*
X114102267Y-137026935D01*
X114293935Y-136835267D01*
X114510920Y-136672834D01*
X114743199Y-136546000D01*
X160211801Y-136546000D01*
X160444080Y-136672834D01*
M02*
