M48
; DRILL file {KiCad (5.1.5)-3} date 3/13/2020 11:39:12 PM
; FORMAT={-:-/ absolute / inch / decimal}
; #@! TF.CreationDate,2020-03-13T23:39:12-04:00
; #@! TF.GenerationSoftware,Kicad,Pcbnew,(5.1.5)-3
; #@! TF.FileFunction,Plated,1,2,PTH
FMAT,2
INCH
T1C0.0315
T2C0.0354
T3C0.0393
T4C0.0402
T5C0.0591
T6C0.0701
%
G90
G05
T1
X6.006Y-5.863
X6.306Y-5.863
X4.859Y-5.648
X4.859Y-5.948
T2
X6.421Y-5.863
X6.521Y-5.863
T3
X4.711Y-5.6586
X4.711Y-5.757
X4.711Y-5.8554
T4
X4.74Y-6.0957
X4.74Y-6.2863
X4.84Y-6.0957
X4.84Y-6.2863
X4.94Y-6.0957
X4.94Y-6.2863
X5.04Y-6.0957
X5.04Y-6.2863
X5.14Y-6.0957
X5.14Y-6.2863
X5.24Y-6.0957
X5.24Y-6.2863
X5.34Y-6.0957
X5.34Y-6.2863
X5.44Y-6.0957
X5.44Y-6.2863
X5.54Y-6.0957
X5.54Y-6.2863
X5.64Y-6.0957
X5.64Y-6.2863
X5.74Y-6.0957
X5.74Y-6.2863
X5.84Y-6.0957
X5.84Y-6.2863
X5.94Y-6.0957
X5.94Y-6.2863
X6.04Y-6.0957
X6.04Y-6.2863
X6.14Y-6.0957
X6.14Y-6.2863
X6.24Y-6.0957
X6.24Y-6.2863
X6.34Y-6.0957
X6.34Y-6.2863
X6.44Y-6.0957
X6.44Y-6.2863
X6.54Y-6.0957
X6.54Y-6.2863
X6.64Y-6.0957
X6.64Y-6.2863
X6.74Y-6.0957
X6.74Y-6.2863
X6.84Y-6.0957
X6.84Y-6.2863
X6.94Y-6.0957
X6.94Y-6.2863
X7.04Y-6.0957
X7.04Y-6.2863
X7.14Y-6.0957
X7.14Y-6.2863
X7.24Y-6.0957
X7.24Y-6.2863
X7.34Y-6.0957
X7.34Y-6.2863
X7.44Y-6.0957
X7.44Y-6.2863
X7.54Y-6.0957
X7.54Y-6.2863
X7.64Y-6.0957
X7.64Y-6.2863
X7.74Y-6.0957
X7.74Y-6.2863
X7.84Y-6.0957
X7.84Y-6.2863
T5
X6.6244Y-5.0461
X6.9984Y-5.0461
X7.3724Y-5.0461
X7.7465Y-5.0461
X5.0194Y-5.0461
X5.3934Y-5.0461
X5.7674Y-5.0461
X6.1415Y-5.0461
T6
X6.6621Y-5.515
X6.6621Y-5.9056
X6.796Y-5.515
X6.796Y-5.9056
X7.3411Y-5.515
X7.3411Y-5.9056
X7.475Y-5.515
X7.475Y-5.9056
X7.6961Y-5.515
X7.6961Y-5.9056
X7.83Y-5.515
X7.83Y-5.9056
X6.9881Y-5.514
X6.9881Y-5.9046
X7.122Y-5.514
X7.122Y-5.9046
T0
M30
