G04 #@! TF.GenerationSoftware,KiCad,Pcbnew,(5.1.5)-3*
G04 #@! TF.CreationDate,2020-03-13T23:39:14-04:00*
G04 #@! TF.ProjectId,Power_Breakout,506f7765-725f-4427-9265-616b6f75742e,rev?*
G04 #@! TF.SameCoordinates,Original*
G04 #@! TF.FileFunction,Legend,Bot*
G04 #@! TF.FilePolarity,Positive*
%FSLAX46Y46*%
G04 Gerber Fmt 4.6, Leading zero omitted, Abs format (unit mm)*
G04 Created by KiCad (PCBNEW (5.1.5)-3) date 2020-03-13 23:39:14*
%MOMM*%
%LPD*%
G04 APERTURE LIST*
%ADD10C,0.300000*%
%ADD11C,0.127000*%
%ADD12C,0.200000*%
%ADD13C,0.150000*%
%ADD14C,0.015000*%
G04 APERTURE END LIST*
D10*
X120079971Y-139513571D02*
X119794257Y-139513571D01*
X119651400Y-139585000D01*
X119508542Y-139727857D01*
X119437114Y-140013571D01*
X119437114Y-140513571D01*
X119508542Y-140799285D01*
X119651400Y-140942142D01*
X119794257Y-141013571D01*
X120079971Y-141013571D01*
X120222828Y-140942142D01*
X120365685Y-140799285D01*
X120437114Y-140513571D01*
X120437114Y-140013571D01*
X120365685Y-139727857D01*
X120222828Y-139585000D01*
X120079971Y-139513571D01*
X118794257Y-141013571D02*
X118794257Y-139513571D01*
X117937114Y-141013571D01*
X117937114Y-139513571D01*
X144831142Y-122440000D02*
X144974000Y-122368571D01*
X145188285Y-122368571D01*
X145402571Y-122440000D01*
X145545428Y-122582857D01*
X145616857Y-122725714D01*
X145688285Y-123011428D01*
X145688285Y-123225714D01*
X145616857Y-123511428D01*
X145545428Y-123654285D01*
X145402571Y-123797142D01*
X145188285Y-123868571D01*
X145045428Y-123868571D01*
X144831142Y-123797142D01*
X144759714Y-123725714D01*
X144759714Y-123225714D01*
X145045428Y-123225714D01*
X144116857Y-123868571D02*
X144116857Y-122368571D01*
X143259714Y-123868571D01*
X143259714Y-122368571D01*
X142545428Y-123868571D02*
X142545428Y-122368571D01*
X142188285Y-122368571D01*
X141974000Y-122440000D01*
X141831142Y-122582857D01*
X141759714Y-122725714D01*
X141688285Y-123011428D01*
X141688285Y-123225714D01*
X141759714Y-123511428D01*
X141831142Y-123654285D01*
X141974000Y-123797142D01*
X142188285Y-123868571D01*
X142545428Y-123868571D01*
X139616857Y-122368571D02*
X139331142Y-122368571D01*
X139188285Y-122440000D01*
X139045428Y-122582857D01*
X138974000Y-122868571D01*
X138974000Y-123368571D01*
X139045428Y-123654285D01*
X139188285Y-123797142D01*
X139331142Y-123868571D01*
X139616857Y-123868571D01*
X139759714Y-123797142D01*
X139902571Y-123654285D01*
X139974000Y-123368571D01*
X139974000Y-122868571D01*
X139902571Y-122582857D01*
X139759714Y-122440000D01*
X139616857Y-122368571D01*
X137688285Y-122868571D02*
X137688285Y-123868571D01*
X138331142Y-122868571D02*
X138331142Y-123654285D01*
X138259714Y-123797142D01*
X138116857Y-123868571D01*
X137902571Y-123868571D01*
X137759714Y-123797142D01*
X137688285Y-123725714D01*
X137188285Y-122868571D02*
X136616857Y-122868571D01*
X136974000Y-122368571D02*
X136974000Y-123654285D01*
X136902571Y-123797142D01*
X136759714Y-123868571D01*
X136616857Y-123868571D01*
X185820428Y-123741571D02*
X186677571Y-123741571D01*
X186249000Y-123741571D02*
X186249000Y-122241571D01*
X186391857Y-122455857D01*
X186534714Y-122598714D01*
X186677571Y-122670142D01*
X185249000Y-122384428D02*
X185177571Y-122313000D01*
X185034714Y-122241571D01*
X184677571Y-122241571D01*
X184534714Y-122313000D01*
X184463285Y-122384428D01*
X184391857Y-122527285D01*
X184391857Y-122670142D01*
X184463285Y-122884428D01*
X185320428Y-123741571D01*
X184391857Y-123741571D01*
X183891857Y-122741571D02*
X183534714Y-123741571D01*
X183177571Y-122741571D01*
X181177571Y-122241571D02*
X180891857Y-122241571D01*
X180749000Y-122313000D01*
X180606142Y-122455857D01*
X180534714Y-122741571D01*
X180534714Y-123241571D01*
X180606142Y-123527285D01*
X180749000Y-123670142D01*
X180891857Y-123741571D01*
X181177571Y-123741571D01*
X181320428Y-123670142D01*
X181463285Y-123527285D01*
X181534714Y-123241571D01*
X181534714Y-122741571D01*
X181463285Y-122455857D01*
X181320428Y-122313000D01*
X181177571Y-122241571D01*
X179249000Y-122741571D02*
X179249000Y-123741571D01*
X179891857Y-122741571D02*
X179891857Y-123527285D01*
X179820428Y-123670142D01*
X179677571Y-123741571D01*
X179463285Y-123741571D01*
X179320428Y-123670142D01*
X179249000Y-123598714D01*
X178749000Y-122741571D02*
X178177571Y-122741571D01*
X178534714Y-122241571D02*
X178534714Y-123527285D01*
X178463285Y-123670142D01*
X178320428Y-123741571D01*
X178177571Y-123741571D01*
D11*
X117221000Y-154226400D02*
X117221000Y-160276400D01*
X202311000Y-152576400D02*
X202311000Y-161926400D01*
D12*
X202986000Y-159881400D02*
G75*
G03X202986000Y-159881400I-100000J0D01*
G01*
D11*
X117221000Y-161926400D02*
X202311000Y-161926400D01*
D13*
X117221000Y-152576400D02*
X117221000Y-161926400D01*
D11*
X202311000Y-152576400D02*
X117221000Y-152576400D01*
D14*
X203667515Y-152582624D02*
X203667515Y-153040157D01*
X203698017Y-153131664D01*
X203759021Y-153192668D01*
X203850528Y-153223170D01*
X203911532Y-153223170D01*
X203423497Y-152582624D02*
X203026969Y-152582624D01*
X203240484Y-152826642D01*
X203148978Y-152826642D01*
X203087973Y-152857144D01*
X203057471Y-152887646D01*
X203026969Y-152948651D01*
X203026969Y-153101162D01*
X203057471Y-153162166D01*
X203087973Y-153192668D01*
X203148978Y-153223170D01*
X203331991Y-153223170D01*
X203392995Y-153192668D01*
X203423497Y-153162166D01*
M02*
