M48
; DRILL file {KiCad (5.1.10)-1} date 06/03/21 16:28:02
; FORMAT={-:-/ absolute / metric / decimal}
; #@! TF.CreationDate,2021-06-03T16:28:02-04:00
; #@! TF.GenerationSoftware,Kicad,Pcbnew,(5.1.10)-1
; #@! TF.FileFunction,Plated,1,2,PTH
FMAT,2
METRIC
T1C0.400
T2C1.000
T3C1.020
T4C1.100
%
G90
G05
T1
X115.0Y-85.0
X115.0Y-95.0
X115.0Y-105.0
X115.0Y-115.0
X115.0Y-125.0
X125.0Y-75.0
X125.0Y-85.0
X125.0Y-95.0
X125.0Y-105.0
X125.0Y-115.0
X125.0Y-125.0
X136.87Y-86.87
X138.46Y-91.034
X139.26Y-89.41
X139.584Y-96.684
X140.0Y-75.0
X140.0Y-85.0
X140.7Y-96.8
X140.8Y-93.5
X140.85Y-102.15
X141.34Y-99.61
X142.54Y-107.884
X142.558Y-106.392
X143.2Y-119.7
X143.5Y-101.2
X143.5Y-104.3
X144.4Y-106.05
X145.0Y-85.0
X145.0Y-95.0
X145.0Y-125.0
X145.15Y-103.55
X145.2Y-107.05
X146.452Y-104.421
X155.0Y-75.0
X155.0Y-85.0
X155.0Y-95.0
X155.0Y-105.0
X155.0Y-115.0
X155.0Y-125.0
X165.0Y-85.0
X165.0Y-95.0
X165.0Y-105.0
X165.0Y-115.0
X165.0Y-125.0
T2
X132.36Y-80.54
X132.36Y-83.08
X132.36Y-85.62
X132.36Y-88.16
X132.36Y-90.7
X132.36Y-93.24
X132.36Y-95.78
X132.36Y-98.32
X132.36Y-100.86
X132.36Y-103.4
X132.36Y-105.94
X132.36Y-108.48
X132.36Y-111.02
X132.36Y-113.56
X132.36Y-116.1
X132.36Y-118.64
X132.36Y-121.18
X132.36Y-123.72
X132.36Y-126.26
X132.36Y-128.8
X134.9Y-80.54
X134.9Y-83.08
X134.9Y-85.62
X134.9Y-88.16
X134.9Y-90.7
X134.9Y-93.24
X134.9Y-95.78
X134.9Y-98.32
X134.9Y-100.86
X134.9Y-103.4
X134.9Y-105.94
X134.9Y-108.48
X134.9Y-111.02
X134.9Y-113.56
X134.9Y-116.1
X134.9Y-118.64
X134.9Y-121.18
X134.9Y-123.72
X134.9Y-126.26
X134.9Y-128.8
X143.36Y-77.8
X145.9Y-77.8
T3
X149.63Y-91.83
X149.63Y-94.37
X149.63Y-96.91
X149.63Y-99.45
X149.63Y-101.99
X149.63Y-104.53
X149.63Y-107.07
X149.63Y-109.61
X149.63Y-112.15
X149.63Y-114.69
X149.63Y-117.23
X149.63Y-119.77
X152.17Y-91.83
X152.17Y-94.37
X152.17Y-96.91
X152.17Y-99.45
X152.17Y-101.99
X152.17Y-104.53
X152.17Y-107.07
X152.17Y-109.61
X152.17Y-112.15
X152.17Y-114.69
X152.17Y-117.23
X152.17Y-119.77
T4
X152.094Y-79.65
X155.904Y-79.65
T0
M30
