%TF.GenerationSoftware,KiCad,Pcbnew,(5.1.10)-1*%
%TF.CreationDate,2021-06-03T16:28:04-04:00*%
%TF.ProjectId,Flex_Adapter,466c6578-5f41-4646-9170-7465722e6b69,v1*%
%TF.SameCoordinates,Original*%
%TF.FileFunction,Copper,L2,Bot*%
%TF.FilePolarity,Positive*%
%FSLAX46Y46*%
G04 Gerber Fmt 4.6, Leading zero omitted, Abs format (unit mm)*
G04 Created by KiCad (PCBNEW (5.1.10)-1) date 2021-06-03 16:28:04*
%MOMM*%
%LPD*%
G01*
G04 APERTURE LIST*
%TA.AperFunction,ComponentPad*%
%ADD10C,1.530000*%
%TD*%
%TA.AperFunction,ComponentPad*%
%ADD11R,1.530000X1.530000*%
%TD*%
%TA.AperFunction,ComponentPad*%
%ADD12C,1.904000*%
%TD*%
%TA.AperFunction,ComponentPad*%
%ADD13O,1.700000X1.700000*%
%TD*%
%TA.AperFunction,ComponentPad*%
%ADD14R,1.700000X1.700000*%
%TD*%
%TA.AperFunction,ComponentPad*%
%ADD15C,1.700000*%
%TD*%
%TA.AperFunction,ViaPad*%
%ADD16C,0.800000*%
%TD*%
%TA.AperFunction,Conductor*%
%ADD17C,1.000000*%
%TD*%
%TA.AperFunction,Conductor*%
%ADD18C,0.400000*%
%TD*%
%TA.AperFunction,Conductor*%
%ADD19C,0.254000*%
%TD*%
%TA.AperFunction,Conductor*%
%ADD20C,0.100000*%
%TD*%
G04 APERTURE END LIST*
D10*
%TO.P,J2,24*%
%TO.N,OUT16*%
X152170000Y-119770000D03*
%TO.P,J2,23*%
%TO.N,OUT15*%
X149630000Y-119770000D03*
%TO.P,J2,22*%
%TO.N,OUT14*%
X152170000Y-117230000D03*
%TO.P,J2,21*%
%TO.N,OUT13*%
X149630000Y-117230000D03*
%TO.P,J2,20*%
%TO.N,OUT12*%
X152170000Y-114690000D03*
%TO.P,J2,19*%
%TO.N,OUT11*%
X149630000Y-114690000D03*
%TO.P,J2,18*%
%TO.N,OUT10*%
X152170000Y-112150000D03*
%TO.P,J2,17*%
%TO.N,OUT9*%
X149630000Y-112150000D03*
%TO.P,J2,16*%
%TO.N,OUT8*%
X152170000Y-109610000D03*
%TO.P,J2,15*%
%TO.N,OUT7*%
X149630000Y-109610000D03*
%TO.P,J2,14*%
%TO.N,OUT6*%
X152170000Y-107070000D03*
%TO.P,J2,13*%
%TO.N,OUT5*%
X149630000Y-107070000D03*
%TO.P,J2,12*%
%TO.N,OUT4*%
X152170000Y-104530000D03*
%TO.P,J2,11*%
%TO.N,OUT3*%
X149630000Y-104530000D03*
%TO.P,J2,10*%
%TO.N,OUT2*%
X152170000Y-101990000D03*
%TO.P,J2,9*%
%TO.N,OUT1*%
X149630000Y-101990000D03*
%TO.P,J2,8*%
%TO.N,GND*%
X152170000Y-99450000D03*
%TO.P,J2,7*%
X149630000Y-99450000D03*
%TO.P,J2,6*%
%TO.N,Net-(J2-Pad6)*%
X152170000Y-96910000D03*
%TO.P,J2,5*%
%TO.N,Net-(J2-Pad5)*%
X149630000Y-96910000D03*
%TO.P,J2,4*%
%TO.N,Net-(J2-Pad4)*%
X152170000Y-94370000D03*
%TO.P,J2,3*%
%TO.N,Net-(J2-Pad3)*%
X149630000Y-94370000D03*
%TO.P,J2,2*%
%TO.N,PWR_HINKS*%
X152170000Y-91830000D03*
D11*
%TO.P,J2,1*%
X149630000Y-91830000D03*
%TD*%
D12*
%TO.P,J4,2*%
%TO.N,GND*%
X155904440Y-79650459D03*
%TO.P,J4,1*%
%TO.N,PWR_HINKS*%
X152094440Y-79650459D03*
%TD*%
D13*
%TO.P,J3,2*%
%TO.N,+5V*%
X143360000Y-77800000D03*
D14*
%TO.P,J3,1*%
%TO.N,PWR_HINKS*%
X145900000Y-77800000D03*
%TD*%
D15*
%TO.P,J1,40*%
%TO.N,+5V*%
X132360000Y-80540000D03*
%TO.P,J1,38*%
%TO.N,GND*%
X132360000Y-83080000D03*
%TO.P,J1,36*%
%TO.N,OUT16*%
X132360000Y-85620000D03*
%TO.P,J1,34*%
%TO.N,OUT15*%
X132360000Y-88160000D03*
%TO.P,J1,32*%
%TO.N,OUT14*%
X132360000Y-90700000D03*
%TO.P,J1,30*%
%TO.N,Net-(J1-Pad30)*%
X132360000Y-93240000D03*
%TO.P,J1,28*%
%TO.N,OUT12*%
X132360000Y-95780000D03*
%TO.P,J1,26*%
%TO.N,OUT11*%
X132360000Y-98320000D03*
%TO.P,J1,24*%
%TO.N,OUT10*%
X132360000Y-100860000D03*
%TO.P,J1,22*%
%TO.N,OUT9*%
X132360000Y-103400000D03*
%TO.P,J1,20*%
%TO.N,OUT8*%
X132360000Y-105940000D03*
%TO.P,J1,18*%
%TO.N,OUT7*%
X132360000Y-108480000D03*
%TO.P,J1,16*%
%TO.N,OUT6*%
X132360000Y-111020000D03*
%TO.P,J1,14*%
%TO.N,OUT5*%
X132360000Y-113560000D03*
%TO.P,J1,12*%
%TO.N,OUT4*%
X132360000Y-116100000D03*
%TO.P,J1,10*%
%TO.N,OUT3*%
X132360000Y-118640000D03*
%TO.P,J1,8*%
%TO.N,OUT2*%
X132360000Y-121180000D03*
%TO.P,J1,6*%
%TO.N,OUT1*%
X132360000Y-123720000D03*
%TO.P,J1,4*%
%TO.N,+5V*%
X132360000Y-126260000D03*
%TO.P,J1,2*%
X132360000Y-128800000D03*
%TO.P,J1,39*%
X134900000Y-80540000D03*
%TO.P,J1,37*%
%TO.N,GND*%
X134900000Y-83080000D03*
%TO.P,J1,35*%
X134900000Y-85620000D03*
%TO.P,J1,33*%
X134900000Y-88160000D03*
%TO.P,J1,31*%
%TO.N,OUT13*%
X134900000Y-90700000D03*
%TO.P,J1,29*%
%TO.N,GND*%
X134900000Y-93240000D03*
%TO.P,J1,27*%
X134900000Y-95780000D03*
%TO.P,J1,25*%
X134900000Y-98320000D03*
%TO.P,J1,23*%
X134900000Y-100860000D03*
%TO.P,J1,21*%
X134900000Y-103400000D03*
%TO.P,J1,19*%
X134900000Y-105940000D03*
%TO.P,J1,17*%
X134900000Y-108480000D03*
%TO.P,J1,15*%
X134900000Y-111020000D03*
%TO.P,J1,13*%
X134900000Y-113560000D03*
%TO.P,J1,11*%
X134900000Y-116100000D03*
%TO.P,J1,9*%
X134900000Y-118640000D03*
%TO.P,J1,7*%
X134900000Y-121180000D03*
%TO.P,J1,5*%
X134900000Y-123720000D03*
%TO.P,J1,3*%
X134900000Y-126260000D03*
%TO.P,J1,1*%
%TO.N,Net-(J1-Pad1)*%
%TA.AperFunction,ComponentPad*%
G36*
G01*
X135750000Y-128200000D02*
X135750000Y-129400000D01*
G75*
G02*
X135500000Y-129650000I-250000J0D01*
G01*
X134300000Y-129650000D01*
G75*
G02*
X134050000Y-129400000I0J250000D01*
G01*
X134050000Y-128200000D01*
G75*
G02*
X134300000Y-127950000I250000J0D01*
G01*
X135500000Y-127950000D01*
G75*
G02*
X135750000Y-128200000I0J-250000D01*
G01*
G37*
%TD.AperFunction*%
%TD*%
D16*
%TO.N,GND*%
X143200000Y-119700000D03*
X143500000Y-104300000D03*
X143500000Y-101200000D03*
X140800000Y-93500000D03*
X165000000Y-125000000D03*
X155000000Y-125000000D03*
X145000000Y-125000000D03*
X125000000Y-125000000D03*
X125000000Y-115000000D03*
X125000000Y-105000000D03*
X125000000Y-95000000D03*
X125000000Y-85000000D03*
X165000000Y-115000000D03*
X165000000Y-105000000D03*
X165000000Y-95000000D03*
X165000000Y-85000000D03*
X155000000Y-85000000D03*
X145000000Y-85000000D03*
X155000000Y-115000000D03*
X155000000Y-105000000D03*
X155000000Y-95000000D03*
X145000000Y-95000000D03*
X115000000Y-85000000D03*
X115000000Y-95000000D03*
X115000000Y-105000000D03*
X115000000Y-115000000D03*
X115000000Y-125000000D03*
X155000000Y-75000000D03*
X125000000Y-75000000D03*
X140000000Y-75000000D03*
X140000000Y-85000000D03*
%TO.N,OUT15*%
X136870004Y-86870004D03*
%TO.N,OUT14*%
X139260005Y-89410005D03*
%TO.N,OUT12*%
X140699998Y-96799998D03*
%TO.N,OUT11*%
X139584306Y-96684306D03*
%TO.N,OUT10*%
X141340001Y-99609999D03*
%TO.N,OUT9*%
X140849990Y-102149999D03*
%TO.N,OUT8*%
X142557847Y-106392153D03*
%TO.N,OUT7*%
X142540010Y-107884312D03*
%TO.N,OUT6*%
X144400000Y-106050000D03*
%TO.N,OUT5*%
X145200010Y-107050000D03*
%TO.N,OUT4*%
X145150000Y-103550000D03*
%TO.N,OUT3*%
X146452410Y-104421024D03*
%TO.N,OUT13*%
X138459990Y-91034311D03*
%TD*%
D17*
%TO.N,+5V*%
X132360000Y-126260000D02*
X132360000Y-128800000D01*
X134900000Y-80540000D02*
X132360000Y-80540000D01*
X129900000Y-81800000D02*
X131160000Y-80540000D01*
X129900000Y-124800000D02*
X129900000Y-81800000D01*
X131360000Y-126260000D02*
X129900000Y-124800000D01*
X131160000Y-80540000D02*
X132360000Y-80540000D01*
X132360000Y-126260000D02*
X131360000Y-126260000D01*
X137640000Y-77800000D02*
X134900000Y-80540000D01*
X143360000Y-77800000D02*
X137640000Y-77800000D01*
D18*
%TO.N,OUT16*%
X150640000Y-121300000D02*
X152170000Y-119770000D01*
X148458742Y-121300000D02*
X150640000Y-121300000D01*
X136899990Y-109741248D02*
X148458742Y-121300000D01*
X136899990Y-88123998D02*
X136899990Y-109741248D01*
X135685991Y-86909999D02*
X136899990Y-88123998D01*
X133649999Y-86909999D02*
X135685991Y-86909999D01*
X132360000Y-85620000D02*
X133649999Y-86909999D01*
%TO.N,OUT15*%
X149630000Y-119770000D02*
X147777285Y-119770000D01*
X137529996Y-109522711D02*
X137529996Y-87529996D01*
X147777285Y-119770000D02*
X137529996Y-109522711D01*
X137529996Y-87529996D02*
X136870004Y-86870004D01*
%TO.N,OUT14*%
X138799989Y-109094161D02*
X138799989Y-97083991D01*
X139260005Y-91639995D02*
X139260005Y-89410005D01*
X138799989Y-97083991D02*
X138784305Y-97068307D01*
X151004999Y-116064999D02*
X145770827Y-116064999D01*
X138784305Y-92115695D02*
X139260005Y-91639995D01*
X138784305Y-97068307D02*
X138784305Y-92115695D01*
X145770827Y-116064999D02*
X138799989Y-109094161D01*
X152170000Y-117230000D02*
X151004999Y-116064999D01*
%TO.N,OUT12*%
X140000011Y-108597097D02*
X140000011Y-97499985D01*
X151004999Y-113524999D02*
X144927913Y-113524999D01*
X140000011Y-97499985D02*
X140699998Y-96799998D01*
X152170000Y-114690000D02*
X151004999Y-113524999D01*
X144927913Y-113524999D02*
X140000011Y-108597097D01*
%TO.N,OUT11*%
X139400000Y-96868612D02*
X139584306Y-96684306D01*
X149630000Y-114690000D02*
X145244371Y-114690000D01*
X139400000Y-108845629D02*
X139400000Y-96868612D01*
X145244371Y-114690000D02*
X139400000Y-108845629D01*
%TO.N,OUT10*%
X141740000Y-100009998D02*
X141340001Y-99609999D01*
X141740000Y-108374014D02*
X141740000Y-100009998D01*
X151004999Y-110984999D02*
X144350985Y-110984999D01*
X152170000Y-112150000D02*
X151004999Y-110984999D01*
X144350985Y-110984999D02*
X141740000Y-108374014D01*
%TO.N,OUT9*%
X140849990Y-102715684D02*
X140849990Y-102149999D01*
X149630000Y-112150000D02*
X144401457Y-112150000D01*
X140849990Y-108598533D02*
X140849990Y-102715684D01*
X144401457Y-112150000D02*
X140849990Y-108598533D01*
%TO.N,OUT8*%
X152170000Y-109610000D02*
X150860000Y-108300000D01*
X150860000Y-108300000D02*
X144465694Y-108300000D01*
X144465694Y-108300000D02*
X142557847Y-106392153D01*
%TO.N,OUT7*%
X144265698Y-109610000D02*
X142540010Y-107884312D01*
X149630000Y-109610000D02*
X144265698Y-109610000D01*
%TO.N,OUT6*%
X144650000Y-105800000D02*
X144400000Y-106050000D01*
X150900000Y-105800000D02*
X144650000Y-105800000D01*
X152170000Y-107070000D02*
X150900000Y-105800000D01*
%TO.N,OUT5*%
X145220010Y-107070000D02*
X145200010Y-107050000D01*
X149630000Y-107070000D02*
X145220010Y-107070000D01*
%TO.N,OUT4*%
X150889998Y-103249998D02*
X145450002Y-103249998D01*
X152170000Y-104530000D02*
X150889998Y-103249998D01*
X145450002Y-103249998D02*
X145150000Y-103550000D01*
%TO.N,OUT3*%
X146561386Y-104530000D02*
X146452410Y-104421024D01*
X149630000Y-104530000D02*
X146561386Y-104530000D01*
%TO.N,OUT13*%
X149630000Y-117230000D02*
X146085828Y-117230000D01*
X138144254Y-109288426D02*
X138144254Y-91350047D01*
X138144254Y-91350047D02*
X138459990Y-91034311D01*
X146085828Y-117230000D02*
X138144254Y-109288426D01*
D17*
%TO.N,PWR_HINKS*%
X152170000Y-91830000D02*
X149630000Y-91830000D01*
X152150000Y-91810000D02*
X152170000Y-91830000D01*
X152150000Y-79706019D02*
X152150000Y-91810000D01*
X150243981Y-77800000D02*
X152150000Y-79706019D01*
X145900000Y-77800000D02*
X150243981Y-77800000D01*
%TD*%
D19*
%TO.N,GND*%
X172640001Y-134640000D02*
X112360000Y-134640000D01*
X112360000Y-129755249D01*
X114515000Y-129755249D01*
X114515000Y-130244751D01*
X114610497Y-130724848D01*
X114797821Y-131177089D01*
X115069774Y-131584095D01*
X115415905Y-131930226D01*
X115822911Y-132202179D01*
X116275152Y-132389503D01*
X116755249Y-132485000D01*
X117244751Y-132485000D01*
X117724848Y-132389503D01*
X118177089Y-132202179D01*
X118584095Y-131930226D01*
X118930226Y-131584095D01*
X119202179Y-131177089D01*
X119389503Y-130724848D01*
X119485000Y-130244751D01*
X119485000Y-129755249D01*
X119389503Y-129275152D01*
X119202179Y-128822911D01*
X118930226Y-128415905D01*
X118584095Y-128069774D01*
X118177089Y-127797821D01*
X117724848Y-127610497D01*
X117244751Y-127515000D01*
X116755249Y-127515000D01*
X116275152Y-127610497D01*
X115822911Y-127797821D01*
X115415905Y-128069774D01*
X115069774Y-128415905D01*
X114797821Y-128822911D01*
X114610497Y-129275152D01*
X114515000Y-129755249D01*
X112360000Y-129755249D01*
X112360000Y-81800000D01*
X129060960Y-81800000D01*
X129065001Y-81841029D01*
X129065000Y-124758982D01*
X129060960Y-124800000D01*
X129065000Y-124841018D01*
X129077082Y-124963688D01*
X129124828Y-125121086D01*
X129202364Y-125266145D01*
X129306709Y-125393291D01*
X129338578Y-125419446D01*
X130740563Y-126821432D01*
X130766709Y-126853291D01*
X130798568Y-126879437D01*
X130798570Y-126879439D01*
X130893854Y-126957636D01*
X131038913Y-127035172D01*
X131196311Y-127082918D01*
X131360000Y-127099040D01*
X131401018Y-127095000D01*
X131519156Y-127095000D01*
X131525000Y-127100844D01*
X131525001Y-127959155D01*
X131439550Y-128044606D01*
X131309866Y-128238692D01*
X131220539Y-128454348D01*
X131175000Y-128683288D01*
X131175000Y-128916712D01*
X131220539Y-129145652D01*
X131309866Y-129361308D01*
X131439550Y-129555394D01*
X131604606Y-129720450D01*
X131798692Y-129850134D01*
X132014348Y-129939461D01*
X132243288Y-129985000D01*
X132476712Y-129985000D01*
X132705652Y-129939461D01*
X132921308Y-129850134D01*
X133115394Y-129720450D01*
X133280450Y-129555394D01*
X133410134Y-129361308D01*
X133499461Y-129145652D01*
X133545000Y-128916712D01*
X133545000Y-128683288D01*
X133499461Y-128454348D01*
X133410134Y-128238692D01*
X133384281Y-128200000D01*
X133713380Y-128200000D01*
X133713380Y-129400000D01*
X133724652Y-129514444D01*
X133758034Y-129624490D01*
X133812243Y-129725909D01*
X133885197Y-129814803D01*
X133974091Y-129887757D01*
X134075510Y-129941966D01*
X134185556Y-129975348D01*
X134300000Y-129986620D01*
X135500000Y-129986620D01*
X135614444Y-129975348D01*
X135724490Y-129941966D01*
X135825909Y-129887757D01*
X135914803Y-129814803D01*
X135963678Y-129755249D01*
X165515000Y-129755249D01*
X165515000Y-130244751D01*
X165610497Y-130724848D01*
X165797821Y-131177089D01*
X166069774Y-131584095D01*
X166415905Y-131930226D01*
X166822911Y-132202179D01*
X167275152Y-132389503D01*
X167755249Y-132485000D01*
X168244751Y-132485000D01*
X168724848Y-132389503D01*
X169177089Y-132202179D01*
X169584095Y-131930226D01*
X169930226Y-131584095D01*
X170202179Y-131177089D01*
X170389503Y-130724848D01*
X170485000Y-130244751D01*
X170485000Y-129755249D01*
X170389503Y-129275152D01*
X170202179Y-128822911D01*
X169930226Y-128415905D01*
X169584095Y-128069774D01*
X169177089Y-127797821D01*
X168724848Y-127610497D01*
X168244751Y-127515000D01*
X167755249Y-127515000D01*
X167275152Y-127610497D01*
X166822911Y-127797821D01*
X166415905Y-128069774D01*
X166069774Y-128415905D01*
X165797821Y-128822911D01*
X165610497Y-129275152D01*
X165515000Y-129755249D01*
X135963678Y-129755249D01*
X135987757Y-129725909D01*
X136041966Y-129624490D01*
X136075348Y-129514444D01*
X136086620Y-129400000D01*
X136086620Y-128200000D01*
X136075348Y-128085556D01*
X136041966Y-127975510D01*
X135987757Y-127874091D01*
X135914803Y-127785197D01*
X135825909Y-127712243D01*
X135724490Y-127658034D01*
X135614444Y-127624652D01*
X135500000Y-127613380D01*
X134300000Y-127613380D01*
X134185556Y-127624652D01*
X134075510Y-127658034D01*
X133974091Y-127712243D01*
X133885197Y-127785197D01*
X133812243Y-127874091D01*
X133758034Y-127975510D01*
X133724652Y-128085556D01*
X133713380Y-128200000D01*
X133384281Y-128200000D01*
X133280450Y-128044606D01*
X133195000Y-127959156D01*
X133195000Y-127181097D01*
X134158508Y-127181097D01*
X134247466Y-127374201D01*
X134477374Y-127480095D01*
X134723524Y-127539102D01*
X134976455Y-127548952D01*
X135226449Y-127509270D01*
X135463896Y-127421578D01*
X135552534Y-127374201D01*
X135641492Y-127181097D01*
X134900000Y-126439605D01*
X134158508Y-127181097D01*
X133195000Y-127181097D01*
X133195000Y-127100844D01*
X133280450Y-127015394D01*
X133410134Y-126821308D01*
X133499461Y-126605652D01*
X133545000Y-126376712D01*
X133545000Y-126336455D01*
X133611048Y-126336455D01*
X133650730Y-126586449D01*
X133738422Y-126823896D01*
X133785799Y-126912534D01*
X133978903Y-127001492D01*
X134720395Y-126260000D01*
X135079605Y-126260000D01*
X135821097Y-127001492D01*
X136014201Y-126912534D01*
X136120095Y-126682626D01*
X136179102Y-126436476D01*
X136188952Y-126183545D01*
X136149270Y-125933551D01*
X136061578Y-125696104D01*
X136014201Y-125607466D01*
X135821097Y-125518508D01*
X135079605Y-126260000D01*
X134720395Y-126260000D01*
X133978903Y-125518508D01*
X133785799Y-125607466D01*
X133679905Y-125837374D01*
X133620898Y-126083524D01*
X133611048Y-126336455D01*
X133545000Y-126336455D01*
X133545000Y-126143288D01*
X133499461Y-125914348D01*
X133410134Y-125698692D01*
X133280450Y-125504606D01*
X133115394Y-125339550D01*
X132921308Y-125209866D01*
X132705652Y-125120539D01*
X132476712Y-125075000D01*
X132243288Y-125075000D01*
X132014348Y-125120539D01*
X131798692Y-125209866D01*
X131614085Y-125333216D01*
X130735000Y-124454133D01*
X130735000Y-123603288D01*
X131175000Y-123603288D01*
X131175000Y-123836712D01*
X131220539Y-124065652D01*
X131309866Y-124281308D01*
X131439550Y-124475394D01*
X131604606Y-124640450D01*
X131798692Y-124770134D01*
X132014348Y-124859461D01*
X132243288Y-124905000D01*
X132476712Y-124905000D01*
X132705652Y-124859461D01*
X132921308Y-124770134D01*
X133114425Y-124641097D01*
X134158508Y-124641097D01*
X134247466Y-124834201D01*
X134477374Y-124940095D01*
X134692962Y-124991776D01*
X134573551Y-125010730D01*
X134336104Y-125098422D01*
X134247466Y-125145799D01*
X134158508Y-125338903D01*
X134900000Y-126080395D01*
X135641492Y-125338903D01*
X135552534Y-125145799D01*
X135322626Y-125039905D01*
X135107038Y-124988224D01*
X135226449Y-124969270D01*
X135463896Y-124881578D01*
X135552534Y-124834201D01*
X135641492Y-124641097D01*
X134900000Y-123899605D01*
X134158508Y-124641097D01*
X133114425Y-124641097D01*
X133115394Y-124640450D01*
X133280450Y-124475394D01*
X133410134Y-124281308D01*
X133499461Y-124065652D01*
X133545000Y-123836712D01*
X133545000Y-123796455D01*
X133611048Y-123796455D01*
X133650730Y-124046449D01*
X133738422Y-124283896D01*
X133785799Y-124372534D01*
X133978903Y-124461492D01*
X134720395Y-123720000D01*
X135079605Y-123720000D01*
X135821097Y-124461492D01*
X136014201Y-124372534D01*
X136120095Y-124142626D01*
X136179102Y-123896476D01*
X136188952Y-123643545D01*
X136149270Y-123393551D01*
X136061578Y-123156104D01*
X136014201Y-123067466D01*
X135821097Y-122978508D01*
X135079605Y-123720000D01*
X134720395Y-123720000D01*
X133978903Y-122978508D01*
X133785799Y-123067466D01*
X133679905Y-123297374D01*
X133620898Y-123543524D01*
X133611048Y-123796455D01*
X133545000Y-123796455D01*
X133545000Y-123603288D01*
X133499461Y-123374348D01*
X133410134Y-123158692D01*
X133280450Y-122964606D01*
X133115394Y-122799550D01*
X132921308Y-122669866D01*
X132705652Y-122580539D01*
X132476712Y-122535000D01*
X132243288Y-122535000D01*
X132014348Y-122580539D01*
X131798692Y-122669866D01*
X131604606Y-122799550D01*
X131439550Y-122964606D01*
X131309866Y-123158692D01*
X131220539Y-123374348D01*
X131175000Y-123603288D01*
X130735000Y-123603288D01*
X130735000Y-121063288D01*
X131175000Y-121063288D01*
X131175000Y-121296712D01*
X131220539Y-121525652D01*
X131309866Y-121741308D01*
X131439550Y-121935394D01*
X131604606Y-122100450D01*
X131798692Y-122230134D01*
X132014348Y-122319461D01*
X132243288Y-122365000D01*
X132476712Y-122365000D01*
X132705652Y-122319461D01*
X132921308Y-122230134D01*
X133114425Y-122101097D01*
X134158508Y-122101097D01*
X134247466Y-122294201D01*
X134477374Y-122400095D01*
X134692962Y-122451776D01*
X134573551Y-122470730D01*
X134336104Y-122558422D01*
X134247466Y-122605799D01*
X134158508Y-122798903D01*
X134900000Y-123540395D01*
X135641492Y-122798903D01*
X135552534Y-122605799D01*
X135322626Y-122499905D01*
X135107038Y-122448224D01*
X135226449Y-122429270D01*
X135463896Y-122341578D01*
X135552534Y-122294201D01*
X135641492Y-122101097D01*
X134900000Y-121359605D01*
X134158508Y-122101097D01*
X133114425Y-122101097D01*
X133115394Y-122100450D01*
X133280450Y-121935394D01*
X133410134Y-121741308D01*
X133499461Y-121525652D01*
X133545000Y-121296712D01*
X133545000Y-121256455D01*
X133611048Y-121256455D01*
X133650730Y-121506449D01*
X133738422Y-121743896D01*
X133785799Y-121832534D01*
X133978903Y-121921492D01*
X134720395Y-121180000D01*
X135079605Y-121180000D01*
X135821097Y-121921492D01*
X136014201Y-121832534D01*
X136120095Y-121602626D01*
X136179102Y-121356476D01*
X136188952Y-121103545D01*
X136149270Y-120853551D01*
X136061578Y-120616104D01*
X136014201Y-120527466D01*
X135821097Y-120438508D01*
X135079605Y-121180000D01*
X134720395Y-121180000D01*
X133978903Y-120438508D01*
X133785799Y-120527466D01*
X133679905Y-120757374D01*
X133620898Y-121003524D01*
X133611048Y-121256455D01*
X133545000Y-121256455D01*
X133545000Y-121063288D01*
X133499461Y-120834348D01*
X133410134Y-120618692D01*
X133280450Y-120424606D01*
X133115394Y-120259550D01*
X132921308Y-120129866D01*
X132705652Y-120040539D01*
X132476712Y-119995000D01*
X132243288Y-119995000D01*
X132014348Y-120040539D01*
X131798692Y-120129866D01*
X131604606Y-120259550D01*
X131439550Y-120424606D01*
X131309866Y-120618692D01*
X131220539Y-120834348D01*
X131175000Y-121063288D01*
X130735000Y-121063288D01*
X130735000Y-118523288D01*
X131175000Y-118523288D01*
X131175000Y-118756712D01*
X131220539Y-118985652D01*
X131309866Y-119201308D01*
X131439550Y-119395394D01*
X131604606Y-119560450D01*
X131798692Y-119690134D01*
X132014348Y-119779461D01*
X132243288Y-119825000D01*
X132476712Y-119825000D01*
X132705652Y-119779461D01*
X132921308Y-119690134D01*
X133114425Y-119561097D01*
X134158508Y-119561097D01*
X134247466Y-119754201D01*
X134477374Y-119860095D01*
X134692962Y-119911776D01*
X134573551Y-119930730D01*
X134336104Y-120018422D01*
X134247466Y-120065799D01*
X134158508Y-120258903D01*
X134900000Y-121000395D01*
X135641492Y-120258903D01*
X135552534Y-120065799D01*
X135322626Y-119959905D01*
X135107038Y-119908224D01*
X135226449Y-119889270D01*
X135463896Y-119801578D01*
X135552534Y-119754201D01*
X135641492Y-119561097D01*
X134900000Y-118819605D01*
X134158508Y-119561097D01*
X133114425Y-119561097D01*
X133115394Y-119560450D01*
X133280450Y-119395394D01*
X133410134Y-119201308D01*
X133499461Y-118985652D01*
X133545000Y-118756712D01*
X133545000Y-118716455D01*
X133611048Y-118716455D01*
X133650730Y-118966449D01*
X133738422Y-119203896D01*
X133785799Y-119292534D01*
X133978903Y-119381492D01*
X134720395Y-118640000D01*
X135079605Y-118640000D01*
X135821097Y-119381492D01*
X136014201Y-119292534D01*
X136120095Y-119062626D01*
X136179102Y-118816476D01*
X136188952Y-118563545D01*
X136149270Y-118313551D01*
X136061578Y-118076104D01*
X136014201Y-117987466D01*
X135821097Y-117898508D01*
X135079605Y-118640000D01*
X134720395Y-118640000D01*
X133978903Y-117898508D01*
X133785799Y-117987466D01*
X133679905Y-118217374D01*
X133620898Y-118463524D01*
X133611048Y-118716455D01*
X133545000Y-118716455D01*
X133545000Y-118523288D01*
X133499461Y-118294348D01*
X133410134Y-118078692D01*
X133280450Y-117884606D01*
X133115394Y-117719550D01*
X132921308Y-117589866D01*
X132705652Y-117500539D01*
X132476712Y-117455000D01*
X132243288Y-117455000D01*
X132014348Y-117500539D01*
X131798692Y-117589866D01*
X131604606Y-117719550D01*
X131439550Y-117884606D01*
X131309866Y-118078692D01*
X131220539Y-118294348D01*
X131175000Y-118523288D01*
X130735000Y-118523288D01*
X130735000Y-115983288D01*
X131175000Y-115983288D01*
X131175000Y-116216712D01*
X131220539Y-116445652D01*
X131309866Y-116661308D01*
X131439550Y-116855394D01*
X131604606Y-117020450D01*
X131798692Y-117150134D01*
X132014348Y-117239461D01*
X132243288Y-117285000D01*
X132476712Y-117285000D01*
X132705652Y-117239461D01*
X132921308Y-117150134D01*
X133114425Y-117021097D01*
X134158508Y-117021097D01*
X134247466Y-117214201D01*
X134477374Y-117320095D01*
X134692962Y-117371776D01*
X134573551Y-117390730D01*
X134336104Y-117478422D01*
X134247466Y-117525799D01*
X134158508Y-117718903D01*
X134900000Y-118460395D01*
X135641492Y-117718903D01*
X135552534Y-117525799D01*
X135322626Y-117419905D01*
X135107038Y-117368224D01*
X135226449Y-117349270D01*
X135463896Y-117261578D01*
X135552534Y-117214201D01*
X135641492Y-117021097D01*
X134900000Y-116279605D01*
X134158508Y-117021097D01*
X133114425Y-117021097D01*
X133115394Y-117020450D01*
X133280450Y-116855394D01*
X133410134Y-116661308D01*
X133499461Y-116445652D01*
X133545000Y-116216712D01*
X133545000Y-116176455D01*
X133611048Y-116176455D01*
X133650730Y-116426449D01*
X133738422Y-116663896D01*
X133785799Y-116752534D01*
X133978903Y-116841492D01*
X134720395Y-116100000D01*
X135079605Y-116100000D01*
X135821097Y-116841492D01*
X136014201Y-116752534D01*
X136120095Y-116522626D01*
X136179102Y-116276476D01*
X136188952Y-116023545D01*
X136149270Y-115773551D01*
X136061578Y-115536104D01*
X136014201Y-115447466D01*
X135821097Y-115358508D01*
X135079605Y-116100000D01*
X134720395Y-116100000D01*
X133978903Y-115358508D01*
X133785799Y-115447466D01*
X133679905Y-115677374D01*
X133620898Y-115923524D01*
X133611048Y-116176455D01*
X133545000Y-116176455D01*
X133545000Y-115983288D01*
X133499461Y-115754348D01*
X133410134Y-115538692D01*
X133280450Y-115344606D01*
X133115394Y-115179550D01*
X132921308Y-115049866D01*
X132705652Y-114960539D01*
X132476712Y-114915000D01*
X132243288Y-114915000D01*
X132014348Y-114960539D01*
X131798692Y-115049866D01*
X131604606Y-115179550D01*
X131439550Y-115344606D01*
X131309866Y-115538692D01*
X131220539Y-115754348D01*
X131175000Y-115983288D01*
X130735000Y-115983288D01*
X130735000Y-113443288D01*
X131175000Y-113443288D01*
X131175000Y-113676712D01*
X131220539Y-113905652D01*
X131309866Y-114121308D01*
X131439550Y-114315394D01*
X131604606Y-114480450D01*
X131798692Y-114610134D01*
X132014348Y-114699461D01*
X132243288Y-114745000D01*
X132476712Y-114745000D01*
X132705652Y-114699461D01*
X132921308Y-114610134D01*
X133114425Y-114481097D01*
X134158508Y-114481097D01*
X134247466Y-114674201D01*
X134477374Y-114780095D01*
X134692962Y-114831776D01*
X134573551Y-114850730D01*
X134336104Y-114938422D01*
X134247466Y-114985799D01*
X134158508Y-115178903D01*
X134900000Y-115920395D01*
X135641492Y-115178903D01*
X135552534Y-114985799D01*
X135322626Y-114879905D01*
X135107038Y-114828224D01*
X135226449Y-114809270D01*
X135463896Y-114721578D01*
X135552534Y-114674201D01*
X135641492Y-114481097D01*
X134900000Y-113739605D01*
X134158508Y-114481097D01*
X133114425Y-114481097D01*
X133115394Y-114480450D01*
X133280450Y-114315394D01*
X133410134Y-114121308D01*
X133499461Y-113905652D01*
X133545000Y-113676712D01*
X133545000Y-113636455D01*
X133611048Y-113636455D01*
X133650730Y-113886449D01*
X133738422Y-114123896D01*
X133785799Y-114212534D01*
X133978903Y-114301492D01*
X134720395Y-113560000D01*
X135079605Y-113560000D01*
X135821097Y-114301492D01*
X136014201Y-114212534D01*
X136120095Y-113982626D01*
X136179102Y-113736476D01*
X136188952Y-113483545D01*
X136149270Y-113233551D01*
X136061578Y-112996104D01*
X136014201Y-112907466D01*
X135821097Y-112818508D01*
X135079605Y-113560000D01*
X134720395Y-113560000D01*
X133978903Y-112818508D01*
X133785799Y-112907466D01*
X133679905Y-113137374D01*
X133620898Y-113383524D01*
X133611048Y-113636455D01*
X133545000Y-113636455D01*
X133545000Y-113443288D01*
X133499461Y-113214348D01*
X133410134Y-112998692D01*
X133280450Y-112804606D01*
X133115394Y-112639550D01*
X132921308Y-112509866D01*
X132705652Y-112420539D01*
X132476712Y-112375000D01*
X132243288Y-112375000D01*
X132014348Y-112420539D01*
X131798692Y-112509866D01*
X131604606Y-112639550D01*
X131439550Y-112804606D01*
X131309866Y-112998692D01*
X131220539Y-113214348D01*
X131175000Y-113443288D01*
X130735000Y-113443288D01*
X130735000Y-110903288D01*
X131175000Y-110903288D01*
X131175000Y-111136712D01*
X131220539Y-111365652D01*
X131309866Y-111581308D01*
X131439550Y-111775394D01*
X131604606Y-111940450D01*
X131798692Y-112070134D01*
X132014348Y-112159461D01*
X132243288Y-112205000D01*
X132476712Y-112205000D01*
X132705652Y-112159461D01*
X132921308Y-112070134D01*
X133114425Y-111941097D01*
X134158508Y-111941097D01*
X134247466Y-112134201D01*
X134477374Y-112240095D01*
X134692962Y-112291776D01*
X134573551Y-112310730D01*
X134336104Y-112398422D01*
X134247466Y-112445799D01*
X134158508Y-112638903D01*
X134900000Y-113380395D01*
X135641492Y-112638903D01*
X135552534Y-112445799D01*
X135322626Y-112339905D01*
X135107038Y-112288224D01*
X135226449Y-112269270D01*
X135463896Y-112181578D01*
X135552534Y-112134201D01*
X135641492Y-111941097D01*
X134900000Y-111199605D01*
X134158508Y-111941097D01*
X133114425Y-111941097D01*
X133115394Y-111940450D01*
X133280450Y-111775394D01*
X133410134Y-111581308D01*
X133499461Y-111365652D01*
X133545000Y-111136712D01*
X133545000Y-111096455D01*
X133611048Y-111096455D01*
X133650730Y-111346449D01*
X133738422Y-111583896D01*
X133785799Y-111672534D01*
X133978903Y-111761492D01*
X134720395Y-111020000D01*
X135079605Y-111020000D01*
X135821097Y-111761492D01*
X136014201Y-111672534D01*
X136120095Y-111442626D01*
X136179102Y-111196476D01*
X136188952Y-110943545D01*
X136149270Y-110693551D01*
X136061578Y-110456104D01*
X136014201Y-110367466D01*
X135821097Y-110278508D01*
X135079605Y-111020000D01*
X134720395Y-111020000D01*
X133978903Y-110278508D01*
X133785799Y-110367466D01*
X133679905Y-110597374D01*
X133620898Y-110843524D01*
X133611048Y-111096455D01*
X133545000Y-111096455D01*
X133545000Y-110903288D01*
X133499461Y-110674348D01*
X133410134Y-110458692D01*
X133280450Y-110264606D01*
X133115394Y-110099550D01*
X132921308Y-109969866D01*
X132705652Y-109880539D01*
X132476712Y-109835000D01*
X132243288Y-109835000D01*
X132014348Y-109880539D01*
X131798692Y-109969866D01*
X131604606Y-110099550D01*
X131439550Y-110264606D01*
X131309866Y-110458692D01*
X131220539Y-110674348D01*
X131175000Y-110903288D01*
X130735000Y-110903288D01*
X130735000Y-108363288D01*
X131175000Y-108363288D01*
X131175000Y-108596712D01*
X131220539Y-108825652D01*
X131309866Y-109041308D01*
X131439550Y-109235394D01*
X131604606Y-109400450D01*
X131798692Y-109530134D01*
X132014348Y-109619461D01*
X132243288Y-109665000D01*
X132476712Y-109665000D01*
X132705652Y-109619461D01*
X132921308Y-109530134D01*
X133114425Y-109401097D01*
X134158508Y-109401097D01*
X134247466Y-109594201D01*
X134477374Y-109700095D01*
X134692962Y-109751776D01*
X134573551Y-109770730D01*
X134336104Y-109858422D01*
X134247466Y-109905799D01*
X134158508Y-110098903D01*
X134900000Y-110840395D01*
X135641492Y-110098903D01*
X135552534Y-109905799D01*
X135322626Y-109799905D01*
X135107038Y-109748224D01*
X135226449Y-109729270D01*
X135463896Y-109641578D01*
X135552534Y-109594201D01*
X135641492Y-109401097D01*
X134900000Y-108659605D01*
X134158508Y-109401097D01*
X133114425Y-109401097D01*
X133115394Y-109400450D01*
X133280450Y-109235394D01*
X133410134Y-109041308D01*
X133499461Y-108825652D01*
X133545000Y-108596712D01*
X133545000Y-108556455D01*
X133611048Y-108556455D01*
X133650730Y-108806449D01*
X133738422Y-109043896D01*
X133785799Y-109132534D01*
X133978903Y-109221492D01*
X134720395Y-108480000D01*
X135079605Y-108480000D01*
X135821097Y-109221492D01*
X136014201Y-109132534D01*
X136120095Y-108902626D01*
X136179102Y-108656476D01*
X136188952Y-108403545D01*
X136149270Y-108153551D01*
X136061578Y-107916104D01*
X136014201Y-107827466D01*
X135821097Y-107738508D01*
X135079605Y-108480000D01*
X134720395Y-108480000D01*
X133978903Y-107738508D01*
X133785799Y-107827466D01*
X133679905Y-108057374D01*
X133620898Y-108303524D01*
X133611048Y-108556455D01*
X133545000Y-108556455D01*
X133545000Y-108363288D01*
X133499461Y-108134348D01*
X133410134Y-107918692D01*
X133280450Y-107724606D01*
X133115394Y-107559550D01*
X132921308Y-107429866D01*
X132705652Y-107340539D01*
X132476712Y-107295000D01*
X132243288Y-107295000D01*
X132014348Y-107340539D01*
X131798692Y-107429866D01*
X131604606Y-107559550D01*
X131439550Y-107724606D01*
X131309866Y-107918692D01*
X131220539Y-108134348D01*
X131175000Y-108363288D01*
X130735000Y-108363288D01*
X130735000Y-105823288D01*
X131175000Y-105823288D01*
X131175000Y-106056712D01*
X131220539Y-106285652D01*
X131309866Y-106501308D01*
X131439550Y-106695394D01*
X131604606Y-106860450D01*
X131798692Y-106990134D01*
X132014348Y-107079461D01*
X132243288Y-107125000D01*
X132476712Y-107125000D01*
X132705652Y-107079461D01*
X132921308Y-106990134D01*
X133114425Y-106861097D01*
X134158508Y-106861097D01*
X134247466Y-107054201D01*
X134477374Y-107160095D01*
X134692962Y-107211776D01*
X134573551Y-107230730D01*
X134336104Y-107318422D01*
X134247466Y-107365799D01*
X134158508Y-107558903D01*
X134900000Y-108300395D01*
X135641492Y-107558903D01*
X135552534Y-107365799D01*
X135322626Y-107259905D01*
X135107038Y-107208224D01*
X135226449Y-107189270D01*
X135463896Y-107101578D01*
X135552534Y-107054201D01*
X135641492Y-106861097D01*
X134900000Y-106119605D01*
X134158508Y-106861097D01*
X133114425Y-106861097D01*
X133115394Y-106860450D01*
X133280450Y-106695394D01*
X133410134Y-106501308D01*
X133499461Y-106285652D01*
X133545000Y-106056712D01*
X133545000Y-106016455D01*
X133611048Y-106016455D01*
X133650730Y-106266449D01*
X133738422Y-106503896D01*
X133785799Y-106592534D01*
X133978903Y-106681492D01*
X134720395Y-105940000D01*
X135079605Y-105940000D01*
X135821097Y-106681492D01*
X136014201Y-106592534D01*
X136120095Y-106362626D01*
X136179102Y-106116476D01*
X136188952Y-105863545D01*
X136149270Y-105613551D01*
X136061578Y-105376104D01*
X136014201Y-105287466D01*
X135821097Y-105198508D01*
X135079605Y-105940000D01*
X134720395Y-105940000D01*
X133978903Y-105198508D01*
X133785799Y-105287466D01*
X133679905Y-105517374D01*
X133620898Y-105763524D01*
X133611048Y-106016455D01*
X133545000Y-106016455D01*
X133545000Y-105823288D01*
X133499461Y-105594348D01*
X133410134Y-105378692D01*
X133280450Y-105184606D01*
X133115394Y-105019550D01*
X132921308Y-104889866D01*
X132705652Y-104800539D01*
X132476712Y-104755000D01*
X132243288Y-104755000D01*
X132014348Y-104800539D01*
X131798692Y-104889866D01*
X131604606Y-105019550D01*
X131439550Y-105184606D01*
X131309866Y-105378692D01*
X131220539Y-105594348D01*
X131175000Y-105823288D01*
X130735000Y-105823288D01*
X130735000Y-103283288D01*
X131175000Y-103283288D01*
X131175000Y-103516712D01*
X131220539Y-103745652D01*
X131309866Y-103961308D01*
X131439550Y-104155394D01*
X131604606Y-104320450D01*
X131798692Y-104450134D01*
X132014348Y-104539461D01*
X132243288Y-104585000D01*
X132476712Y-104585000D01*
X132705652Y-104539461D01*
X132921308Y-104450134D01*
X133114425Y-104321097D01*
X134158508Y-104321097D01*
X134247466Y-104514201D01*
X134477374Y-104620095D01*
X134692962Y-104671776D01*
X134573551Y-104690730D01*
X134336104Y-104778422D01*
X134247466Y-104825799D01*
X134158508Y-105018903D01*
X134900000Y-105760395D01*
X135641492Y-105018903D01*
X135552534Y-104825799D01*
X135322626Y-104719905D01*
X135107038Y-104668224D01*
X135226449Y-104649270D01*
X135463896Y-104561578D01*
X135552534Y-104514201D01*
X135641492Y-104321097D01*
X134900000Y-103579605D01*
X134158508Y-104321097D01*
X133114425Y-104321097D01*
X133115394Y-104320450D01*
X133280450Y-104155394D01*
X133410134Y-103961308D01*
X133499461Y-103745652D01*
X133545000Y-103516712D01*
X133545000Y-103476455D01*
X133611048Y-103476455D01*
X133650730Y-103726449D01*
X133738422Y-103963896D01*
X133785799Y-104052534D01*
X133978903Y-104141492D01*
X134720395Y-103400000D01*
X135079605Y-103400000D01*
X135821097Y-104141492D01*
X136014201Y-104052534D01*
X136120095Y-103822626D01*
X136179102Y-103576476D01*
X136188952Y-103323545D01*
X136149270Y-103073551D01*
X136061578Y-102836104D01*
X136014201Y-102747466D01*
X135821097Y-102658508D01*
X135079605Y-103400000D01*
X134720395Y-103400000D01*
X133978903Y-102658508D01*
X133785799Y-102747466D01*
X133679905Y-102977374D01*
X133620898Y-103223524D01*
X133611048Y-103476455D01*
X133545000Y-103476455D01*
X133545000Y-103283288D01*
X133499461Y-103054348D01*
X133410134Y-102838692D01*
X133280450Y-102644606D01*
X133115394Y-102479550D01*
X132921308Y-102349866D01*
X132705652Y-102260539D01*
X132476712Y-102215000D01*
X132243288Y-102215000D01*
X132014348Y-102260539D01*
X131798692Y-102349866D01*
X131604606Y-102479550D01*
X131439550Y-102644606D01*
X131309866Y-102838692D01*
X131220539Y-103054348D01*
X131175000Y-103283288D01*
X130735000Y-103283288D01*
X130735000Y-100743288D01*
X131175000Y-100743288D01*
X131175000Y-100976712D01*
X131220539Y-101205652D01*
X131309866Y-101421308D01*
X131439550Y-101615394D01*
X131604606Y-101780450D01*
X131798692Y-101910134D01*
X132014348Y-101999461D01*
X132243288Y-102045000D01*
X132476712Y-102045000D01*
X132705652Y-101999461D01*
X132921308Y-101910134D01*
X133114425Y-101781097D01*
X134158508Y-101781097D01*
X134247466Y-101974201D01*
X134477374Y-102080095D01*
X134692962Y-102131776D01*
X134573551Y-102150730D01*
X134336104Y-102238422D01*
X134247466Y-102285799D01*
X134158508Y-102478903D01*
X134900000Y-103220395D01*
X135641492Y-102478903D01*
X135552534Y-102285799D01*
X135322626Y-102179905D01*
X135107038Y-102128224D01*
X135226449Y-102109270D01*
X135463896Y-102021578D01*
X135552534Y-101974201D01*
X135641492Y-101781097D01*
X134900000Y-101039605D01*
X134158508Y-101781097D01*
X133114425Y-101781097D01*
X133115394Y-101780450D01*
X133280450Y-101615394D01*
X133410134Y-101421308D01*
X133499461Y-101205652D01*
X133545000Y-100976712D01*
X133545000Y-100936455D01*
X133611048Y-100936455D01*
X133650730Y-101186449D01*
X133738422Y-101423896D01*
X133785799Y-101512534D01*
X133978903Y-101601492D01*
X134720395Y-100860000D01*
X135079605Y-100860000D01*
X135821097Y-101601492D01*
X136014201Y-101512534D01*
X136120095Y-101282626D01*
X136179102Y-101036476D01*
X136188952Y-100783545D01*
X136149270Y-100533551D01*
X136061578Y-100296104D01*
X136014201Y-100207466D01*
X135821097Y-100118508D01*
X135079605Y-100860000D01*
X134720395Y-100860000D01*
X133978903Y-100118508D01*
X133785799Y-100207466D01*
X133679905Y-100437374D01*
X133620898Y-100683524D01*
X133611048Y-100936455D01*
X133545000Y-100936455D01*
X133545000Y-100743288D01*
X133499461Y-100514348D01*
X133410134Y-100298692D01*
X133280450Y-100104606D01*
X133115394Y-99939550D01*
X132921308Y-99809866D01*
X132705652Y-99720539D01*
X132476712Y-99675000D01*
X132243288Y-99675000D01*
X132014348Y-99720539D01*
X131798692Y-99809866D01*
X131604606Y-99939550D01*
X131439550Y-100104606D01*
X131309866Y-100298692D01*
X131220539Y-100514348D01*
X131175000Y-100743288D01*
X130735000Y-100743288D01*
X130735000Y-98203288D01*
X131175000Y-98203288D01*
X131175000Y-98436712D01*
X131220539Y-98665652D01*
X131309866Y-98881308D01*
X131439550Y-99075394D01*
X131604606Y-99240450D01*
X131798692Y-99370134D01*
X132014348Y-99459461D01*
X132243288Y-99505000D01*
X132476712Y-99505000D01*
X132705652Y-99459461D01*
X132921308Y-99370134D01*
X133114425Y-99241097D01*
X134158508Y-99241097D01*
X134247466Y-99434201D01*
X134477374Y-99540095D01*
X134692962Y-99591776D01*
X134573551Y-99610730D01*
X134336104Y-99698422D01*
X134247466Y-99745799D01*
X134158508Y-99938903D01*
X134900000Y-100680395D01*
X135641492Y-99938903D01*
X135552534Y-99745799D01*
X135322626Y-99639905D01*
X135107038Y-99588224D01*
X135226449Y-99569270D01*
X135463896Y-99481578D01*
X135552534Y-99434201D01*
X135641492Y-99241097D01*
X134900000Y-98499605D01*
X134158508Y-99241097D01*
X133114425Y-99241097D01*
X133115394Y-99240450D01*
X133280450Y-99075394D01*
X133410134Y-98881308D01*
X133499461Y-98665652D01*
X133545000Y-98436712D01*
X133545000Y-98396455D01*
X133611048Y-98396455D01*
X133650730Y-98646449D01*
X133738422Y-98883896D01*
X133785799Y-98972534D01*
X133978903Y-99061492D01*
X134720395Y-98320000D01*
X135079605Y-98320000D01*
X135821097Y-99061492D01*
X136014201Y-98972534D01*
X136120095Y-98742626D01*
X136179102Y-98496476D01*
X136188952Y-98243545D01*
X136149270Y-97993551D01*
X136061578Y-97756104D01*
X136014201Y-97667466D01*
X135821097Y-97578508D01*
X135079605Y-98320000D01*
X134720395Y-98320000D01*
X133978903Y-97578508D01*
X133785799Y-97667466D01*
X133679905Y-97897374D01*
X133620898Y-98143524D01*
X133611048Y-98396455D01*
X133545000Y-98396455D01*
X133545000Y-98203288D01*
X133499461Y-97974348D01*
X133410134Y-97758692D01*
X133280450Y-97564606D01*
X133115394Y-97399550D01*
X132921308Y-97269866D01*
X132705652Y-97180539D01*
X132476712Y-97135000D01*
X132243288Y-97135000D01*
X132014348Y-97180539D01*
X131798692Y-97269866D01*
X131604606Y-97399550D01*
X131439550Y-97564606D01*
X131309866Y-97758692D01*
X131220539Y-97974348D01*
X131175000Y-98203288D01*
X130735000Y-98203288D01*
X130735000Y-95663288D01*
X131175000Y-95663288D01*
X131175000Y-95896712D01*
X131220539Y-96125652D01*
X131309866Y-96341308D01*
X131439550Y-96535394D01*
X131604606Y-96700450D01*
X131798692Y-96830134D01*
X132014348Y-96919461D01*
X132243288Y-96965000D01*
X132476712Y-96965000D01*
X132705652Y-96919461D01*
X132921308Y-96830134D01*
X133114425Y-96701097D01*
X134158508Y-96701097D01*
X134247466Y-96894201D01*
X134477374Y-97000095D01*
X134692962Y-97051776D01*
X134573551Y-97070730D01*
X134336104Y-97158422D01*
X134247466Y-97205799D01*
X134158508Y-97398903D01*
X134900000Y-98140395D01*
X135641492Y-97398903D01*
X135552534Y-97205799D01*
X135322626Y-97099905D01*
X135107038Y-97048224D01*
X135226449Y-97029270D01*
X135463896Y-96941578D01*
X135552534Y-96894201D01*
X135641492Y-96701097D01*
X134900000Y-95959605D01*
X134158508Y-96701097D01*
X133114425Y-96701097D01*
X133115394Y-96700450D01*
X133280450Y-96535394D01*
X133410134Y-96341308D01*
X133499461Y-96125652D01*
X133545000Y-95896712D01*
X133545000Y-95856455D01*
X133611048Y-95856455D01*
X133650730Y-96106449D01*
X133738422Y-96343896D01*
X133785799Y-96432534D01*
X133978903Y-96521492D01*
X134720395Y-95780000D01*
X135079605Y-95780000D01*
X135821097Y-96521492D01*
X136014201Y-96432534D01*
X136120095Y-96202626D01*
X136179102Y-95956476D01*
X136188952Y-95703545D01*
X136149270Y-95453551D01*
X136061578Y-95216104D01*
X136014201Y-95127466D01*
X135821097Y-95038508D01*
X135079605Y-95780000D01*
X134720395Y-95780000D01*
X133978903Y-95038508D01*
X133785799Y-95127466D01*
X133679905Y-95357374D01*
X133620898Y-95603524D01*
X133611048Y-95856455D01*
X133545000Y-95856455D01*
X133545000Y-95663288D01*
X133499461Y-95434348D01*
X133410134Y-95218692D01*
X133280450Y-95024606D01*
X133115394Y-94859550D01*
X132921308Y-94729866D01*
X132705652Y-94640539D01*
X132476712Y-94595000D01*
X132243288Y-94595000D01*
X132014348Y-94640539D01*
X131798692Y-94729866D01*
X131604606Y-94859550D01*
X131439550Y-95024606D01*
X131309866Y-95218692D01*
X131220539Y-95434348D01*
X131175000Y-95663288D01*
X130735000Y-95663288D01*
X130735000Y-93123288D01*
X131175000Y-93123288D01*
X131175000Y-93356712D01*
X131220539Y-93585652D01*
X131309866Y-93801308D01*
X131439550Y-93995394D01*
X131604606Y-94160450D01*
X131798692Y-94290134D01*
X132014348Y-94379461D01*
X132243288Y-94425000D01*
X132476712Y-94425000D01*
X132705652Y-94379461D01*
X132921308Y-94290134D01*
X133114425Y-94161097D01*
X134158508Y-94161097D01*
X134247466Y-94354201D01*
X134477374Y-94460095D01*
X134692962Y-94511776D01*
X134573551Y-94530730D01*
X134336104Y-94618422D01*
X134247466Y-94665799D01*
X134158508Y-94858903D01*
X134900000Y-95600395D01*
X135641492Y-94858903D01*
X135552534Y-94665799D01*
X135322626Y-94559905D01*
X135107038Y-94508224D01*
X135226449Y-94489270D01*
X135463896Y-94401578D01*
X135552534Y-94354201D01*
X135641492Y-94161097D01*
X134900000Y-93419605D01*
X134158508Y-94161097D01*
X133114425Y-94161097D01*
X133115394Y-94160450D01*
X133280450Y-93995394D01*
X133410134Y-93801308D01*
X133499461Y-93585652D01*
X133545000Y-93356712D01*
X133545000Y-93316455D01*
X133611048Y-93316455D01*
X133650730Y-93566449D01*
X133738422Y-93803896D01*
X133785799Y-93892534D01*
X133978903Y-93981492D01*
X134720395Y-93240000D01*
X135079605Y-93240000D01*
X135821097Y-93981492D01*
X136014201Y-93892534D01*
X136120095Y-93662626D01*
X136179102Y-93416476D01*
X136188952Y-93163545D01*
X136149270Y-92913551D01*
X136061578Y-92676104D01*
X136014201Y-92587466D01*
X135821097Y-92498508D01*
X135079605Y-93240000D01*
X134720395Y-93240000D01*
X133978903Y-92498508D01*
X133785799Y-92587466D01*
X133679905Y-92817374D01*
X133620898Y-93063524D01*
X133611048Y-93316455D01*
X133545000Y-93316455D01*
X133545000Y-93123288D01*
X133499461Y-92894348D01*
X133410134Y-92678692D01*
X133280450Y-92484606D01*
X133115394Y-92319550D01*
X133114426Y-92318903D01*
X134158508Y-92318903D01*
X134900000Y-93060395D01*
X135641492Y-92318903D01*
X135552534Y-92125799D01*
X135322626Y-92019905D01*
X135076476Y-91960898D01*
X134823545Y-91951048D01*
X134573551Y-91990730D01*
X134336104Y-92078422D01*
X134247466Y-92125799D01*
X134158508Y-92318903D01*
X133114426Y-92318903D01*
X132921308Y-92189866D01*
X132705652Y-92100539D01*
X132476712Y-92055000D01*
X132243288Y-92055000D01*
X132014348Y-92100539D01*
X131798692Y-92189866D01*
X131604606Y-92319550D01*
X131439550Y-92484606D01*
X131309866Y-92678692D01*
X131220539Y-92894348D01*
X131175000Y-93123288D01*
X130735000Y-93123288D01*
X130735000Y-90583288D01*
X131175000Y-90583288D01*
X131175000Y-90816712D01*
X131220539Y-91045652D01*
X131309866Y-91261308D01*
X131439550Y-91455394D01*
X131604606Y-91620450D01*
X131798692Y-91750134D01*
X132014348Y-91839461D01*
X132243288Y-91885000D01*
X132476712Y-91885000D01*
X132705652Y-91839461D01*
X132921308Y-91750134D01*
X133115394Y-91620450D01*
X133280450Y-91455394D01*
X133410134Y-91261308D01*
X133499461Y-91045652D01*
X133545000Y-90816712D01*
X133545000Y-90583288D01*
X133715000Y-90583288D01*
X133715000Y-90816712D01*
X133760539Y-91045652D01*
X133849866Y-91261308D01*
X133979550Y-91455394D01*
X134144606Y-91620450D01*
X134338692Y-91750134D01*
X134554348Y-91839461D01*
X134783288Y-91885000D01*
X135016712Y-91885000D01*
X135245652Y-91839461D01*
X135461308Y-91750134D01*
X135655394Y-91620450D01*
X135820450Y-91455394D01*
X135950134Y-91261308D01*
X136039461Y-91045652D01*
X136085000Y-90816712D01*
X136085000Y-90583288D01*
X136039461Y-90354348D01*
X135950134Y-90138692D01*
X135820450Y-89944606D01*
X135655394Y-89779550D01*
X135461308Y-89649866D01*
X135245652Y-89560539D01*
X135016712Y-89515000D01*
X134783288Y-89515000D01*
X134554348Y-89560539D01*
X134338692Y-89649866D01*
X134144606Y-89779550D01*
X133979550Y-89944606D01*
X133849866Y-90138692D01*
X133760539Y-90354348D01*
X133715000Y-90583288D01*
X133545000Y-90583288D01*
X133499461Y-90354348D01*
X133410134Y-90138692D01*
X133280450Y-89944606D01*
X133115394Y-89779550D01*
X132921308Y-89649866D01*
X132705652Y-89560539D01*
X132476712Y-89515000D01*
X132243288Y-89515000D01*
X132014348Y-89560539D01*
X131798692Y-89649866D01*
X131604606Y-89779550D01*
X131439550Y-89944606D01*
X131309866Y-90138692D01*
X131220539Y-90354348D01*
X131175000Y-90583288D01*
X130735000Y-90583288D01*
X130735000Y-88043288D01*
X131175000Y-88043288D01*
X131175000Y-88276712D01*
X131220539Y-88505652D01*
X131309866Y-88721308D01*
X131439550Y-88915394D01*
X131604606Y-89080450D01*
X131798692Y-89210134D01*
X132014348Y-89299461D01*
X132243288Y-89345000D01*
X132476712Y-89345000D01*
X132705652Y-89299461D01*
X132921308Y-89210134D01*
X133114425Y-89081097D01*
X134158508Y-89081097D01*
X134247466Y-89274201D01*
X134477374Y-89380095D01*
X134723524Y-89439102D01*
X134976455Y-89448952D01*
X135226449Y-89409270D01*
X135463896Y-89321578D01*
X135552534Y-89274201D01*
X135641492Y-89081097D01*
X134900000Y-88339605D01*
X134158508Y-89081097D01*
X133114425Y-89081097D01*
X133115394Y-89080450D01*
X133280450Y-88915394D01*
X133410134Y-88721308D01*
X133499461Y-88505652D01*
X133545000Y-88276712D01*
X133545000Y-88043288D01*
X133499461Y-87814348D01*
X133410134Y-87598692D01*
X133280450Y-87404606D01*
X133115394Y-87239550D01*
X132921308Y-87109866D01*
X132705652Y-87020539D01*
X132476712Y-86975000D01*
X132243288Y-86975000D01*
X132014348Y-87020539D01*
X131798692Y-87109866D01*
X131604606Y-87239550D01*
X131439550Y-87404606D01*
X131309866Y-87598692D01*
X131220539Y-87814348D01*
X131175000Y-88043288D01*
X130735000Y-88043288D01*
X130735000Y-85503288D01*
X131175000Y-85503288D01*
X131175000Y-85736712D01*
X131220539Y-85965652D01*
X131309866Y-86181308D01*
X131439550Y-86375394D01*
X131604606Y-86540450D01*
X131798692Y-86670134D01*
X132014348Y-86759461D01*
X132243288Y-86805000D01*
X132476712Y-86805000D01*
X132705652Y-86759461D01*
X132731960Y-86748564D01*
X133253116Y-87269720D01*
X133269867Y-87290131D01*
X133351331Y-87356987D01*
X133444273Y-87406666D01*
X133505103Y-87425118D01*
X133545120Y-87437257D01*
X133555933Y-87438322D01*
X133623724Y-87444999D01*
X133623730Y-87444999D01*
X133649998Y-87447586D01*
X133676266Y-87444999D01*
X133921398Y-87444999D01*
X133785799Y-87507466D01*
X133679905Y-87737374D01*
X133620898Y-87983524D01*
X133611048Y-88236455D01*
X133650730Y-88486449D01*
X133738422Y-88723896D01*
X133785799Y-88812534D01*
X133978903Y-88901492D01*
X134720395Y-88160000D01*
X134706253Y-88145858D01*
X134885858Y-87966253D01*
X134900000Y-87980395D01*
X134914143Y-87966253D01*
X135093748Y-88145858D01*
X135079605Y-88160000D01*
X135821097Y-88901492D01*
X136014201Y-88812534D01*
X136120095Y-88582626D01*
X136179102Y-88336476D01*
X136185728Y-88166339D01*
X136364990Y-88345602D01*
X136364991Y-109714970D01*
X136362403Y-109741248D01*
X136372732Y-109846126D01*
X136383746Y-109882433D01*
X136403324Y-109946974D01*
X136453003Y-110039916D01*
X136519859Y-110121380D01*
X136540270Y-110138131D01*
X148061859Y-121659721D01*
X148078610Y-121680132D01*
X148160074Y-121746988D01*
X148253016Y-121796667D01*
X148353864Y-121827258D01*
X148432467Y-121835000D01*
X148432474Y-121835000D01*
X148458742Y-121837587D01*
X148485010Y-121835000D01*
X150613732Y-121835000D01*
X150640000Y-121837587D01*
X150666268Y-121835000D01*
X150666275Y-121835000D01*
X150744878Y-121827258D01*
X150845726Y-121796667D01*
X150938668Y-121746988D01*
X151020132Y-121680132D01*
X151036887Y-121659716D01*
X151865602Y-120831001D01*
X152061659Y-120870000D01*
X152278341Y-120870000D01*
X152490858Y-120827727D01*
X152691045Y-120744807D01*
X152871209Y-120624425D01*
X153024425Y-120471209D01*
X153144807Y-120291045D01*
X153227727Y-120090858D01*
X153270000Y-119878341D01*
X153270000Y-119661659D01*
X153227727Y-119449142D01*
X153144807Y-119248955D01*
X153024425Y-119068791D01*
X152871209Y-118915575D01*
X152691045Y-118795193D01*
X152490858Y-118712273D01*
X152278341Y-118670000D01*
X152061659Y-118670000D01*
X151849142Y-118712273D01*
X151648955Y-118795193D01*
X151468791Y-118915575D01*
X151315575Y-119068791D01*
X151195193Y-119248955D01*
X151112273Y-119449142D01*
X151070000Y-119661659D01*
X151070000Y-119878341D01*
X151108999Y-120074398D01*
X150418397Y-120765000D01*
X150102295Y-120765000D01*
X150151045Y-120744807D01*
X150331209Y-120624425D01*
X150484425Y-120471209D01*
X150604807Y-120291045D01*
X150687727Y-120090858D01*
X150730000Y-119878341D01*
X150730000Y-119661659D01*
X150687727Y-119449142D01*
X150604807Y-119248955D01*
X150484425Y-119068791D01*
X150331209Y-118915575D01*
X150151045Y-118795193D01*
X149950858Y-118712273D01*
X149738341Y-118670000D01*
X149521659Y-118670000D01*
X149309142Y-118712273D01*
X149108955Y-118795193D01*
X148928791Y-118915575D01*
X148775575Y-119068791D01*
X148664517Y-119235000D01*
X147998889Y-119235000D01*
X146528889Y-117765000D01*
X148664517Y-117765000D01*
X148775575Y-117931209D01*
X148928791Y-118084425D01*
X149108955Y-118204807D01*
X149309142Y-118287727D01*
X149521659Y-118330000D01*
X149738341Y-118330000D01*
X149950858Y-118287727D01*
X150151045Y-118204807D01*
X150331209Y-118084425D01*
X150484425Y-117931209D01*
X150604807Y-117751045D01*
X150687727Y-117550858D01*
X150730000Y-117338341D01*
X150730000Y-117121659D01*
X150687727Y-116909142D01*
X150604807Y-116708955D01*
X150532005Y-116599999D01*
X150783396Y-116599999D01*
X151108999Y-116925603D01*
X151070000Y-117121659D01*
X151070000Y-117338341D01*
X151112273Y-117550858D01*
X151195193Y-117751045D01*
X151315575Y-117931209D01*
X151468791Y-118084425D01*
X151648955Y-118204807D01*
X151849142Y-118287727D01*
X152061659Y-118330000D01*
X152278341Y-118330000D01*
X152490858Y-118287727D01*
X152691045Y-118204807D01*
X152871209Y-118084425D01*
X153024425Y-117931209D01*
X153144807Y-117751045D01*
X153227727Y-117550858D01*
X153270000Y-117338341D01*
X153270000Y-117121659D01*
X153227727Y-116909142D01*
X153144807Y-116708955D01*
X153024425Y-116528791D01*
X152871209Y-116375575D01*
X152691045Y-116255193D01*
X152490858Y-116172273D01*
X152278341Y-116130000D01*
X152061659Y-116130000D01*
X151865603Y-116168999D01*
X151401886Y-115705283D01*
X151385131Y-115684867D01*
X151303667Y-115618011D01*
X151210725Y-115568332D01*
X151109877Y-115537741D01*
X151031274Y-115529999D01*
X151031267Y-115529999D01*
X151004999Y-115527412D01*
X150978731Y-115529999D01*
X150345635Y-115529999D01*
X150484425Y-115391209D01*
X150604807Y-115211045D01*
X150687727Y-115010858D01*
X150730000Y-114798341D01*
X150730000Y-114581659D01*
X150687727Y-114369142D01*
X150604807Y-114168955D01*
X150532005Y-114059999D01*
X150783396Y-114059999D01*
X151108999Y-114385603D01*
X151070000Y-114581659D01*
X151070000Y-114798341D01*
X151112273Y-115010858D01*
X151195193Y-115211045D01*
X151315575Y-115391209D01*
X151468791Y-115544425D01*
X151648955Y-115664807D01*
X151849142Y-115747727D01*
X152061659Y-115790000D01*
X152278341Y-115790000D01*
X152490858Y-115747727D01*
X152691045Y-115664807D01*
X152871209Y-115544425D01*
X153024425Y-115391209D01*
X153144807Y-115211045D01*
X153227727Y-115010858D01*
X153270000Y-114798341D01*
X153270000Y-114581659D01*
X153227727Y-114369142D01*
X153144807Y-114168955D01*
X153024425Y-113988791D01*
X152871209Y-113835575D01*
X152691045Y-113715193D01*
X152490858Y-113632273D01*
X152278341Y-113590000D01*
X152061659Y-113590000D01*
X151865603Y-113628999D01*
X151401886Y-113165283D01*
X151385131Y-113144867D01*
X151303667Y-113078011D01*
X151210725Y-113028332D01*
X151109877Y-112997741D01*
X151031274Y-112989999D01*
X151031267Y-112989999D01*
X151004999Y-112987412D01*
X150978731Y-112989999D01*
X150345635Y-112989999D01*
X150484425Y-112851209D01*
X150604807Y-112671045D01*
X150687727Y-112470858D01*
X150730000Y-112258341D01*
X150730000Y-112041659D01*
X150687727Y-111829142D01*
X150604807Y-111628955D01*
X150532005Y-111519999D01*
X150783396Y-111519999D01*
X151108999Y-111845603D01*
X151070000Y-112041659D01*
X151070000Y-112258341D01*
X151112273Y-112470858D01*
X151195193Y-112671045D01*
X151315575Y-112851209D01*
X151468791Y-113004425D01*
X151648955Y-113124807D01*
X151849142Y-113207727D01*
X152061659Y-113250000D01*
X152278341Y-113250000D01*
X152490858Y-113207727D01*
X152691045Y-113124807D01*
X152871209Y-113004425D01*
X153024425Y-112851209D01*
X153144807Y-112671045D01*
X153227727Y-112470858D01*
X153270000Y-112258341D01*
X153270000Y-112041659D01*
X153227727Y-111829142D01*
X153144807Y-111628955D01*
X153024425Y-111448791D01*
X152871209Y-111295575D01*
X152691045Y-111175193D01*
X152490858Y-111092273D01*
X152278341Y-111050000D01*
X152061659Y-111050000D01*
X151865603Y-111088999D01*
X151401886Y-110625283D01*
X151385131Y-110604867D01*
X151303667Y-110538011D01*
X151210725Y-110488332D01*
X151109877Y-110457741D01*
X151031274Y-110449999D01*
X151031267Y-110449999D01*
X151004999Y-110447412D01*
X150978731Y-110449999D01*
X150345635Y-110449999D01*
X150484425Y-110311209D01*
X150604807Y-110131045D01*
X150687727Y-109930858D01*
X150730000Y-109718341D01*
X150730000Y-109501659D01*
X150687727Y-109289142D01*
X150604807Y-109088955D01*
X150484425Y-108908791D01*
X150410634Y-108835000D01*
X150638397Y-108835000D01*
X151108999Y-109305602D01*
X151070000Y-109501659D01*
X151070000Y-109718341D01*
X151112273Y-109930858D01*
X151195193Y-110131045D01*
X151315575Y-110311209D01*
X151468791Y-110464425D01*
X151648955Y-110584807D01*
X151849142Y-110667727D01*
X152061659Y-110710000D01*
X152278341Y-110710000D01*
X152490858Y-110667727D01*
X152691045Y-110584807D01*
X152871209Y-110464425D01*
X153024425Y-110311209D01*
X153144807Y-110131045D01*
X153227727Y-109930858D01*
X153270000Y-109718341D01*
X153270000Y-109501659D01*
X153227727Y-109289142D01*
X153144807Y-109088955D01*
X153024425Y-108908791D01*
X152871209Y-108755575D01*
X152691045Y-108635193D01*
X152490858Y-108552273D01*
X152278341Y-108510000D01*
X152061659Y-108510000D01*
X151865602Y-108548999D01*
X151256887Y-107940284D01*
X151240132Y-107919868D01*
X151158668Y-107853012D01*
X151065726Y-107803333D01*
X150964878Y-107772742D01*
X150886275Y-107765000D01*
X150886268Y-107765000D01*
X150860000Y-107762413D01*
X150833732Y-107765000D01*
X150488574Y-107765000D01*
X150604807Y-107591045D01*
X150687727Y-107390858D01*
X150730000Y-107178341D01*
X150730000Y-106961659D01*
X150687727Y-106749142D01*
X150604807Y-106548955D01*
X150484425Y-106368791D01*
X150450634Y-106335000D01*
X150678397Y-106335000D01*
X151108999Y-106765603D01*
X151070000Y-106961659D01*
X151070000Y-107178341D01*
X151112273Y-107390858D01*
X151195193Y-107591045D01*
X151315575Y-107771209D01*
X151468791Y-107924425D01*
X151648955Y-108044807D01*
X151849142Y-108127727D01*
X152061659Y-108170000D01*
X152278341Y-108170000D01*
X152490858Y-108127727D01*
X152691045Y-108044807D01*
X152871209Y-107924425D01*
X153024425Y-107771209D01*
X153144807Y-107591045D01*
X153227727Y-107390858D01*
X153270000Y-107178341D01*
X153270000Y-106961659D01*
X153227727Y-106749142D01*
X153144807Y-106548955D01*
X153024425Y-106368791D01*
X152871209Y-106215575D01*
X152691045Y-106095193D01*
X152490858Y-106012273D01*
X152278341Y-105970000D01*
X152061659Y-105970000D01*
X151865603Y-106008999D01*
X151296887Y-105440284D01*
X151280132Y-105419868D01*
X151198668Y-105353012D01*
X151105726Y-105303333D01*
X151004878Y-105272742D01*
X150926275Y-105265000D01*
X150926268Y-105265000D01*
X150900000Y-105262413D01*
X150873732Y-105265000D01*
X150450634Y-105265000D01*
X150484425Y-105231209D01*
X150604807Y-105051045D01*
X150687727Y-104850858D01*
X150730000Y-104638341D01*
X150730000Y-104421659D01*
X150687727Y-104209142D01*
X150604807Y-104008955D01*
X150484425Y-103828791D01*
X150440632Y-103784998D01*
X150668395Y-103784998D01*
X151108999Y-104225603D01*
X151070000Y-104421659D01*
X151070000Y-104638341D01*
X151112273Y-104850858D01*
X151195193Y-105051045D01*
X151315575Y-105231209D01*
X151468791Y-105384425D01*
X151648955Y-105504807D01*
X151849142Y-105587727D01*
X152061659Y-105630000D01*
X152278341Y-105630000D01*
X152490858Y-105587727D01*
X152691045Y-105504807D01*
X152871209Y-105384425D01*
X153024425Y-105231209D01*
X153144807Y-105051045D01*
X153227727Y-104850858D01*
X153270000Y-104638341D01*
X153270000Y-104421659D01*
X153227727Y-104209142D01*
X153144807Y-104008955D01*
X153024425Y-103828791D01*
X152871209Y-103675575D01*
X152691045Y-103555193D01*
X152490858Y-103472273D01*
X152278341Y-103430000D01*
X152061659Y-103430000D01*
X151865603Y-103468999D01*
X151286885Y-102890282D01*
X151270130Y-102869866D01*
X151188666Y-102803010D01*
X151095724Y-102753331D01*
X150994876Y-102722740D01*
X150916273Y-102714998D01*
X150916266Y-102714998D01*
X150889998Y-102712411D01*
X150863730Y-102714998D01*
X150460636Y-102714998D01*
X150484425Y-102691209D01*
X150604807Y-102511045D01*
X150687727Y-102310858D01*
X150730000Y-102098341D01*
X150730000Y-101881659D01*
X151070000Y-101881659D01*
X151070000Y-102098341D01*
X151112273Y-102310858D01*
X151195193Y-102511045D01*
X151315575Y-102691209D01*
X151468791Y-102844425D01*
X151648955Y-102964807D01*
X151849142Y-103047727D01*
X152061659Y-103090000D01*
X152278341Y-103090000D01*
X152490858Y-103047727D01*
X152691045Y-102964807D01*
X152871209Y-102844425D01*
X153024425Y-102691209D01*
X153144807Y-102511045D01*
X153227727Y-102310858D01*
X153270000Y-102098341D01*
X153270000Y-101881659D01*
X153227727Y-101669142D01*
X153144807Y-101468955D01*
X153024425Y-101288791D01*
X152871209Y-101135575D01*
X152691045Y-101015193D01*
X152490858Y-100932273D01*
X152278341Y-100890000D01*
X152061659Y-100890000D01*
X151849142Y-100932273D01*
X151648955Y-101015193D01*
X151468791Y-101135575D01*
X151315575Y-101288791D01*
X151195193Y-101468955D01*
X151112273Y-101669142D01*
X151070000Y-101881659D01*
X150730000Y-101881659D01*
X150687727Y-101669142D01*
X150604807Y-101468955D01*
X150484425Y-101288791D01*
X150331209Y-101135575D01*
X150151045Y-101015193D01*
X149950858Y-100932273D01*
X149738341Y-100890000D01*
X149521659Y-100890000D01*
X149309142Y-100932273D01*
X149108955Y-101015193D01*
X148928791Y-101135575D01*
X148775575Y-101288791D01*
X148655193Y-101468955D01*
X148572273Y-101669142D01*
X148530000Y-101881659D01*
X148530000Y-102098341D01*
X148572273Y-102310858D01*
X148655193Y-102511045D01*
X148775575Y-102691209D01*
X148799364Y-102714998D01*
X145476270Y-102714998D01*
X145450002Y-102712411D01*
X145423734Y-102714998D01*
X145423727Y-102714998D01*
X145354926Y-102721775D01*
X145345123Y-102722740D01*
X145314532Y-102732020D01*
X145244276Y-102753331D01*
X145151334Y-102803010D01*
X145136724Y-102815000D01*
X145077609Y-102815000D01*
X144935609Y-102843246D01*
X144801847Y-102898652D01*
X144681465Y-102979088D01*
X144579088Y-103081465D01*
X144498652Y-103201847D01*
X144443246Y-103335609D01*
X144415000Y-103477609D01*
X144415000Y-103622391D01*
X144443246Y-103764391D01*
X144498652Y-103898153D01*
X144579088Y-104018535D01*
X144681465Y-104120912D01*
X144801847Y-104201348D01*
X144935609Y-104256754D01*
X145077609Y-104285000D01*
X145222391Y-104285000D01*
X145364391Y-104256754D01*
X145498153Y-104201348D01*
X145618535Y-104120912D01*
X145720912Y-104018535D01*
X145801348Y-103898153D01*
X145848218Y-103784998D01*
X146081326Y-103784998D01*
X145983875Y-103850112D01*
X145881498Y-103952489D01*
X145801062Y-104072871D01*
X145745656Y-104206633D01*
X145717410Y-104348633D01*
X145717410Y-104493415D01*
X145745656Y-104635415D01*
X145801062Y-104769177D01*
X145881498Y-104889559D01*
X145983875Y-104991936D01*
X146104257Y-105072372D01*
X146238019Y-105127778D01*
X146380019Y-105156024D01*
X146524801Y-105156024D01*
X146666801Y-105127778D01*
X146800563Y-105072372D01*
X146811596Y-105065000D01*
X148664517Y-105065000D01*
X148775575Y-105231209D01*
X148809366Y-105265000D01*
X144676267Y-105265000D01*
X144649999Y-105262413D01*
X144623731Y-105265000D01*
X144623725Y-105265000D01*
X144555934Y-105271677D01*
X144545121Y-105272742D01*
X144514530Y-105282022D01*
X144444274Y-105303333D01*
X144422447Y-105315000D01*
X144327609Y-105315000D01*
X144185609Y-105343246D01*
X144051847Y-105398652D01*
X143931465Y-105479088D01*
X143829088Y-105581465D01*
X143748652Y-105701847D01*
X143693246Y-105835609D01*
X143665000Y-105977609D01*
X143665000Y-106122391D01*
X143693246Y-106264391D01*
X143748652Y-106398153D01*
X143829088Y-106518535D01*
X143931465Y-106620912D01*
X144051847Y-106701348D01*
X144185609Y-106756754D01*
X144327609Y-106785000D01*
X144472391Y-106785000D01*
X144517975Y-106775933D01*
X144493256Y-106835609D01*
X144465010Y-106977609D01*
X144465010Y-107122391D01*
X144493256Y-107264391D01*
X144548662Y-107398153D01*
X144629098Y-107518535D01*
X144731475Y-107620912D01*
X144851857Y-107701348D01*
X144985619Y-107756754D01*
X145027074Y-107765000D01*
X144687298Y-107765000D01*
X143292847Y-106370550D01*
X143292847Y-106319762D01*
X143264601Y-106177762D01*
X143209195Y-106044000D01*
X143128759Y-105923618D01*
X143026382Y-105821241D01*
X142906000Y-105740805D01*
X142772238Y-105685399D01*
X142630238Y-105657153D01*
X142485456Y-105657153D01*
X142343456Y-105685399D01*
X142275000Y-105713754D01*
X142275000Y-100310323D01*
X148949282Y-100310323D01*
X149027933Y-100494740D01*
X149243320Y-100592123D01*
X149473567Y-100645615D01*
X149709826Y-100653160D01*
X149943017Y-100614468D01*
X150164179Y-100531027D01*
X150232067Y-100494740D01*
X150310718Y-100310323D01*
X151489282Y-100310323D01*
X151567933Y-100494740D01*
X151783320Y-100592123D01*
X152013567Y-100645615D01*
X152249826Y-100653160D01*
X152483017Y-100614468D01*
X152704179Y-100531027D01*
X152772067Y-100494740D01*
X152850718Y-100310323D01*
X152170000Y-99629605D01*
X151489282Y-100310323D01*
X150310718Y-100310323D01*
X149630000Y-99629605D01*
X148949282Y-100310323D01*
X142275000Y-100310323D01*
X142275000Y-100036265D01*
X142277587Y-100009997D01*
X142275000Y-99983729D01*
X142275000Y-99983723D01*
X142267258Y-99905120D01*
X142236667Y-99804272D01*
X142186988Y-99711330D01*
X142120132Y-99629866D01*
X142099721Y-99613115D01*
X142075001Y-99588395D01*
X142075001Y-99537608D01*
X142073454Y-99529826D01*
X148426840Y-99529826D01*
X148465532Y-99763017D01*
X148548973Y-99984179D01*
X148585260Y-100052067D01*
X148769677Y-100130718D01*
X149450395Y-99450000D01*
X149809605Y-99450000D01*
X150490323Y-100130718D01*
X150674740Y-100052067D01*
X150772123Y-99836680D01*
X150825615Y-99606433D01*
X150828061Y-99529826D01*
X150966840Y-99529826D01*
X151005532Y-99763017D01*
X151088973Y-99984179D01*
X151125260Y-100052067D01*
X151309677Y-100130718D01*
X151990395Y-99450000D01*
X152349605Y-99450000D01*
X153030323Y-100130718D01*
X153214740Y-100052067D01*
X153312123Y-99836680D01*
X153365615Y-99606433D01*
X153373160Y-99370174D01*
X153334468Y-99136983D01*
X153251027Y-98915821D01*
X153214740Y-98847933D01*
X153030323Y-98769282D01*
X152349605Y-99450000D01*
X151990395Y-99450000D01*
X151309677Y-98769282D01*
X151125260Y-98847933D01*
X151027877Y-99063320D01*
X150974385Y-99293567D01*
X150966840Y-99529826D01*
X150828061Y-99529826D01*
X150833160Y-99370174D01*
X150794468Y-99136983D01*
X150711027Y-98915821D01*
X150674740Y-98847933D01*
X150490323Y-98769282D01*
X149809605Y-99450000D01*
X149450395Y-99450000D01*
X148769677Y-98769282D01*
X148585260Y-98847933D01*
X148487877Y-99063320D01*
X148434385Y-99293567D01*
X148426840Y-99529826D01*
X142073454Y-99529826D01*
X142046755Y-99395608D01*
X141991349Y-99261846D01*
X141910913Y-99141464D01*
X141808536Y-99039087D01*
X141688154Y-98958651D01*
X141554392Y-98903245D01*
X141412392Y-98874999D01*
X141267610Y-98874999D01*
X141125610Y-98903245D01*
X140991848Y-98958651D01*
X140871466Y-99039087D01*
X140769089Y-99141464D01*
X140688653Y-99261846D01*
X140633247Y-99395608D01*
X140605001Y-99537608D01*
X140605001Y-99682390D01*
X140633247Y-99824390D01*
X140688653Y-99958152D01*
X140769089Y-100078534D01*
X140871466Y-100180911D01*
X140991848Y-100261347D01*
X141125610Y-100316753D01*
X141205001Y-100332545D01*
X141205001Y-101503233D01*
X141198143Y-101498651D01*
X141064381Y-101443245D01*
X140922381Y-101414999D01*
X140777599Y-101414999D01*
X140635599Y-101443245D01*
X140535011Y-101484910D01*
X140535011Y-98589677D01*
X148949282Y-98589677D01*
X149630000Y-99270395D01*
X150310718Y-98589677D01*
X151489282Y-98589677D01*
X152170000Y-99270395D01*
X152850718Y-98589677D01*
X152772067Y-98405260D01*
X152556680Y-98307877D01*
X152326433Y-98254385D01*
X152090174Y-98246840D01*
X151856983Y-98285532D01*
X151635821Y-98368973D01*
X151567933Y-98405260D01*
X151489282Y-98589677D01*
X150310718Y-98589677D01*
X150232067Y-98405260D01*
X150016680Y-98307877D01*
X149786433Y-98254385D01*
X149550174Y-98246840D01*
X149316983Y-98285532D01*
X149095821Y-98368973D01*
X149027933Y-98405260D01*
X148949282Y-98589677D01*
X140535011Y-98589677D01*
X140535011Y-97721588D01*
X140721601Y-97534998D01*
X140772389Y-97534998D01*
X140914389Y-97506752D01*
X141048151Y-97451346D01*
X141168533Y-97370910D01*
X141270910Y-97268533D01*
X141351346Y-97148151D01*
X141406752Y-97014389D01*
X141434998Y-96872389D01*
X141434998Y-96801659D01*
X148530000Y-96801659D01*
X148530000Y-97018341D01*
X148572273Y-97230858D01*
X148655193Y-97431045D01*
X148775575Y-97611209D01*
X148928791Y-97764425D01*
X149108955Y-97884807D01*
X149309142Y-97967727D01*
X149521659Y-98010000D01*
X149738341Y-98010000D01*
X149950858Y-97967727D01*
X150151045Y-97884807D01*
X150331209Y-97764425D01*
X150484425Y-97611209D01*
X150604807Y-97431045D01*
X150687727Y-97230858D01*
X150730000Y-97018341D01*
X150730000Y-96801659D01*
X151070000Y-96801659D01*
X151070000Y-97018341D01*
X151112273Y-97230858D01*
X151195193Y-97431045D01*
X151315575Y-97611209D01*
X151468791Y-97764425D01*
X151648955Y-97884807D01*
X151849142Y-97967727D01*
X152061659Y-98010000D01*
X152278341Y-98010000D01*
X152490858Y-97967727D01*
X152691045Y-97884807D01*
X152871209Y-97764425D01*
X153024425Y-97611209D01*
X153144807Y-97431045D01*
X153227727Y-97230858D01*
X153270000Y-97018341D01*
X153270000Y-96801659D01*
X153227727Y-96589142D01*
X153144807Y-96388955D01*
X153024425Y-96208791D01*
X152871209Y-96055575D01*
X152691045Y-95935193D01*
X152490858Y-95852273D01*
X152278341Y-95810000D01*
X152061659Y-95810000D01*
X151849142Y-95852273D01*
X151648955Y-95935193D01*
X151468791Y-96055575D01*
X151315575Y-96208791D01*
X151195193Y-96388955D01*
X151112273Y-96589142D01*
X151070000Y-96801659D01*
X150730000Y-96801659D01*
X150687727Y-96589142D01*
X150604807Y-96388955D01*
X150484425Y-96208791D01*
X150331209Y-96055575D01*
X150151045Y-95935193D01*
X149950858Y-95852273D01*
X149738341Y-95810000D01*
X149521659Y-95810000D01*
X149309142Y-95852273D01*
X149108955Y-95935193D01*
X148928791Y-96055575D01*
X148775575Y-96208791D01*
X148655193Y-96388955D01*
X148572273Y-96589142D01*
X148530000Y-96801659D01*
X141434998Y-96801659D01*
X141434998Y-96727607D01*
X141406752Y-96585607D01*
X141351346Y-96451845D01*
X141270910Y-96331463D01*
X141168533Y-96229086D01*
X141048151Y-96148650D01*
X140914389Y-96093244D01*
X140772389Y-96064998D01*
X140627607Y-96064998D01*
X140485607Y-96093244D01*
X140351845Y-96148650D01*
X140231463Y-96229086D01*
X140191091Y-96269458D01*
X140155218Y-96215771D01*
X140052841Y-96113394D01*
X139932459Y-96032958D01*
X139798697Y-95977552D01*
X139656697Y-95949306D01*
X139511915Y-95949306D01*
X139369915Y-95977552D01*
X139319305Y-95998515D01*
X139319305Y-94261659D01*
X148530000Y-94261659D01*
X148530000Y-94478341D01*
X148572273Y-94690858D01*
X148655193Y-94891045D01*
X148775575Y-95071209D01*
X148928791Y-95224425D01*
X149108955Y-95344807D01*
X149309142Y-95427727D01*
X149521659Y-95470000D01*
X149738341Y-95470000D01*
X149950858Y-95427727D01*
X150151045Y-95344807D01*
X150331209Y-95224425D01*
X150484425Y-95071209D01*
X150604807Y-94891045D01*
X150687727Y-94690858D01*
X150730000Y-94478341D01*
X150730000Y-94261659D01*
X151070000Y-94261659D01*
X151070000Y-94478341D01*
X151112273Y-94690858D01*
X151195193Y-94891045D01*
X151315575Y-95071209D01*
X151468791Y-95224425D01*
X151648955Y-95344807D01*
X151849142Y-95427727D01*
X152061659Y-95470000D01*
X152278341Y-95470000D01*
X152490858Y-95427727D01*
X152691045Y-95344807D01*
X152871209Y-95224425D01*
X153024425Y-95071209D01*
X153144807Y-94891045D01*
X153227727Y-94690858D01*
X153270000Y-94478341D01*
X153270000Y-94261659D01*
X153227727Y-94049142D01*
X153144807Y-93848955D01*
X153024425Y-93668791D01*
X152871209Y-93515575D01*
X152691045Y-93395193D01*
X152490858Y-93312273D01*
X152278341Y-93270000D01*
X152061659Y-93270000D01*
X151849142Y-93312273D01*
X151648955Y-93395193D01*
X151468791Y-93515575D01*
X151315575Y-93668791D01*
X151195193Y-93848955D01*
X151112273Y-94049142D01*
X151070000Y-94261659D01*
X150730000Y-94261659D01*
X150687727Y-94049142D01*
X150604807Y-93848955D01*
X150484425Y-93668791D01*
X150331209Y-93515575D01*
X150151045Y-93395193D01*
X149950858Y-93312273D01*
X149738341Y-93270000D01*
X149521659Y-93270000D01*
X149309142Y-93312273D01*
X149108955Y-93395193D01*
X148928791Y-93515575D01*
X148775575Y-93668791D01*
X148655193Y-93848955D01*
X148572273Y-94049142D01*
X148530000Y-94261659D01*
X139319305Y-94261659D01*
X139319305Y-92337299D01*
X139619731Y-92036874D01*
X139640137Y-92020127D01*
X139656883Y-91999722D01*
X139656886Y-91999719D01*
X139706992Y-91938664D01*
X139722330Y-91909969D01*
X139756672Y-91845721D01*
X139787263Y-91744873D01*
X139795005Y-91666270D01*
X139795005Y-91666264D01*
X139797592Y-91639996D01*
X139795005Y-91613728D01*
X139795005Y-89914452D01*
X139830917Y-89878540D01*
X139911353Y-89758158D01*
X139966759Y-89624396D01*
X139995005Y-89482396D01*
X139995005Y-89337614D01*
X139966759Y-89195614D01*
X139911353Y-89061852D01*
X139830917Y-88941470D01*
X139728540Y-88839093D01*
X139608158Y-88758657D01*
X139474396Y-88703251D01*
X139332396Y-88675005D01*
X139187614Y-88675005D01*
X139045614Y-88703251D01*
X138911852Y-88758657D01*
X138791470Y-88839093D01*
X138689093Y-88941470D01*
X138608657Y-89061852D01*
X138553251Y-89195614D01*
X138525005Y-89337614D01*
X138525005Y-89482396D01*
X138553251Y-89624396D01*
X138608657Y-89758158D01*
X138689093Y-89878540D01*
X138725006Y-89914453D01*
X138725006Y-90348526D01*
X138674381Y-90327557D01*
X138532381Y-90299311D01*
X138387599Y-90299311D01*
X138245599Y-90327557D01*
X138111837Y-90382963D01*
X138064996Y-90414261D01*
X138064996Y-87556271D01*
X138067584Y-87529996D01*
X138057254Y-87425118D01*
X138026663Y-87324269D01*
X138008415Y-87290131D01*
X137976984Y-87231328D01*
X137910128Y-87149864D01*
X137889717Y-87133113D01*
X137605004Y-86848400D01*
X137605004Y-86797613D01*
X137576758Y-86655613D01*
X137521352Y-86521851D01*
X137440916Y-86401469D01*
X137338539Y-86299092D01*
X137218157Y-86218656D01*
X137084395Y-86163250D01*
X136942395Y-86135004D01*
X136797613Y-86135004D01*
X136655613Y-86163250D01*
X136521851Y-86218656D01*
X136401469Y-86299092D01*
X136299092Y-86401469D01*
X136218656Y-86521851D01*
X136170560Y-86637965D01*
X136082878Y-86550283D01*
X136066123Y-86529867D01*
X135984659Y-86463011D01*
X135891717Y-86413332D01*
X135864764Y-86405156D01*
X135821099Y-86361491D01*
X136014201Y-86272534D01*
X136120095Y-86042626D01*
X136179102Y-85796476D01*
X136188952Y-85543545D01*
X136149270Y-85293551D01*
X136061578Y-85056104D01*
X136014201Y-84967466D01*
X135821097Y-84878508D01*
X135079605Y-85620000D01*
X135093748Y-85634143D01*
X134914143Y-85813748D01*
X134900000Y-85799605D01*
X134885858Y-85813748D01*
X134706253Y-85634143D01*
X134720395Y-85620000D01*
X133978903Y-84878508D01*
X133785799Y-84967466D01*
X133679905Y-85197374D01*
X133620898Y-85443524D01*
X133611048Y-85696455D01*
X133650730Y-85946449D01*
X133738422Y-86183896D01*
X133785799Y-86272534D01*
X133978901Y-86361491D01*
X133965393Y-86374999D01*
X133871603Y-86374999D01*
X133488564Y-85991960D01*
X133499461Y-85965652D01*
X133545000Y-85736712D01*
X133545000Y-85503288D01*
X133499461Y-85274348D01*
X133410134Y-85058692D01*
X133280450Y-84864606D01*
X133115394Y-84699550D01*
X132921308Y-84569866D01*
X132705652Y-84480539D01*
X132476712Y-84435000D01*
X132243288Y-84435000D01*
X132014348Y-84480539D01*
X131798692Y-84569866D01*
X131604606Y-84699550D01*
X131439550Y-84864606D01*
X131309866Y-85058692D01*
X131220539Y-85274348D01*
X131175000Y-85503288D01*
X130735000Y-85503288D01*
X130735000Y-84001097D01*
X131618508Y-84001097D01*
X131707466Y-84194201D01*
X131937374Y-84300095D01*
X132183524Y-84359102D01*
X132436455Y-84368952D01*
X132686449Y-84329270D01*
X132923896Y-84241578D01*
X133012534Y-84194201D01*
X133101492Y-84001097D01*
X134158508Y-84001097D01*
X134247466Y-84194201D01*
X134477374Y-84300095D01*
X134692962Y-84351776D01*
X134573551Y-84370730D01*
X134336104Y-84458422D01*
X134247466Y-84505799D01*
X134158508Y-84698903D01*
X134900000Y-85440395D01*
X135641492Y-84698903D01*
X135552534Y-84505799D01*
X135322626Y-84399905D01*
X135107038Y-84348224D01*
X135226449Y-84329270D01*
X135463896Y-84241578D01*
X135552534Y-84194201D01*
X135641492Y-84001097D01*
X134900000Y-83259605D01*
X134158508Y-84001097D01*
X133101492Y-84001097D01*
X132360000Y-83259605D01*
X131618508Y-84001097D01*
X130735000Y-84001097D01*
X130735000Y-83156455D01*
X131071048Y-83156455D01*
X131110730Y-83406449D01*
X131198422Y-83643896D01*
X131245799Y-83732534D01*
X131438903Y-83821492D01*
X132180395Y-83080000D01*
X132539605Y-83080000D01*
X133281097Y-83821492D01*
X133474201Y-83732534D01*
X133580095Y-83502626D01*
X133631776Y-83287038D01*
X133650730Y-83406449D01*
X133738422Y-83643896D01*
X133785799Y-83732534D01*
X133978903Y-83821492D01*
X134720395Y-83080000D01*
X135079605Y-83080000D01*
X135821097Y-83821492D01*
X136014201Y-83732534D01*
X136120095Y-83502626D01*
X136179102Y-83256476D01*
X136188952Y-83003545D01*
X136149270Y-82753551D01*
X136061578Y-82516104D01*
X136014201Y-82427466D01*
X135821097Y-82338508D01*
X135079605Y-83080000D01*
X134720395Y-83080000D01*
X133978903Y-82338508D01*
X133785799Y-82427466D01*
X133679905Y-82657374D01*
X133628224Y-82872962D01*
X133609270Y-82753551D01*
X133521578Y-82516104D01*
X133474201Y-82427466D01*
X133281097Y-82338508D01*
X132539605Y-83080000D01*
X132180395Y-83080000D01*
X131438903Y-82338508D01*
X131245799Y-82427466D01*
X131139905Y-82657374D01*
X131080898Y-82903524D01*
X131071048Y-83156455D01*
X130735000Y-83156455D01*
X130735000Y-82158903D01*
X131618508Y-82158903D01*
X132360000Y-82900395D01*
X133101492Y-82158903D01*
X134158508Y-82158903D01*
X134900000Y-82900395D01*
X135641492Y-82158903D01*
X135552534Y-81965799D01*
X135322626Y-81859905D01*
X135076476Y-81800898D01*
X134823545Y-81791048D01*
X134573551Y-81830730D01*
X134336104Y-81918422D01*
X134247466Y-81965799D01*
X134158508Y-82158903D01*
X133101492Y-82158903D01*
X133012534Y-81965799D01*
X132782626Y-81859905D01*
X132536476Y-81800898D01*
X132283545Y-81791048D01*
X132033551Y-81830730D01*
X131796104Y-81918422D01*
X131707466Y-81965799D01*
X131618508Y-82158903D01*
X130735000Y-82158903D01*
X130735000Y-82145867D01*
X131505868Y-81375000D01*
X131519156Y-81375000D01*
X131604606Y-81460450D01*
X131798692Y-81590134D01*
X132014348Y-81679461D01*
X132243288Y-81725000D01*
X132476712Y-81725000D01*
X132705652Y-81679461D01*
X132921308Y-81590134D01*
X133115394Y-81460450D01*
X133200844Y-81375000D01*
X134059156Y-81375000D01*
X134144606Y-81460450D01*
X134338692Y-81590134D01*
X134554348Y-81679461D01*
X134783288Y-81725000D01*
X135016712Y-81725000D01*
X135245652Y-81679461D01*
X135461308Y-81590134D01*
X135655394Y-81460450D01*
X135820450Y-81295394D01*
X135950134Y-81101308D01*
X136039461Y-80885652D01*
X136085000Y-80656712D01*
X136085000Y-80535867D01*
X137985868Y-78635000D01*
X142519156Y-78635000D01*
X142604606Y-78720450D01*
X142798692Y-78850134D01*
X143014348Y-78939461D01*
X143243288Y-78985000D01*
X143476712Y-78985000D01*
X143705652Y-78939461D01*
X143921308Y-78850134D01*
X144115394Y-78720450D01*
X144280450Y-78555394D01*
X144410134Y-78361308D01*
X144499461Y-78145652D01*
X144545000Y-77916712D01*
X144545000Y-77683288D01*
X144499461Y-77454348D01*
X144410134Y-77238692D01*
X144280450Y-77044606D01*
X144185844Y-76950000D01*
X144713380Y-76950000D01*
X144713380Y-78650000D01*
X144719848Y-78715671D01*
X144739004Y-78778819D01*
X144770111Y-78837016D01*
X144811974Y-78888026D01*
X144862984Y-78929889D01*
X144921181Y-78960996D01*
X144984329Y-78980152D01*
X145050000Y-78986620D01*
X146750000Y-78986620D01*
X146815671Y-78980152D01*
X146878819Y-78960996D01*
X146937016Y-78929889D01*
X146988026Y-78888026D01*
X147029889Y-78837016D01*
X147060996Y-78778819D01*
X147080152Y-78715671D01*
X147086620Y-78650000D01*
X147086620Y-78635000D01*
X149898114Y-78635000D01*
X150807440Y-79544327D01*
X150807440Y-79777217D01*
X150856899Y-80025863D01*
X150953916Y-80260082D01*
X151094762Y-80470874D01*
X151274025Y-80650137D01*
X151315000Y-80677516D01*
X151315001Y-90995000D01*
X150723839Y-90995000D01*
X150705996Y-90936181D01*
X150674889Y-90877984D01*
X150633026Y-90826974D01*
X150582016Y-90785111D01*
X150523819Y-90754004D01*
X150460671Y-90734848D01*
X150395000Y-90728380D01*
X148865000Y-90728380D01*
X148799329Y-90734848D01*
X148736181Y-90754004D01*
X148677984Y-90785111D01*
X148626974Y-90826974D01*
X148585111Y-90877984D01*
X148554004Y-90936181D01*
X148534848Y-90999329D01*
X148528380Y-91065000D01*
X148528380Y-92595000D01*
X148534848Y-92660671D01*
X148554004Y-92723819D01*
X148585111Y-92782016D01*
X148626974Y-92833026D01*
X148677984Y-92874889D01*
X148736181Y-92905996D01*
X148799329Y-92925152D01*
X148865000Y-92931620D01*
X150395000Y-92931620D01*
X150460671Y-92925152D01*
X150523819Y-92905996D01*
X150582016Y-92874889D01*
X150633026Y-92833026D01*
X150674889Y-92782016D01*
X150705996Y-92723819D01*
X150723839Y-92665000D01*
X151449366Y-92665000D01*
X151468791Y-92684425D01*
X151648955Y-92804807D01*
X151849142Y-92887727D01*
X152061659Y-92930000D01*
X152278341Y-92930000D01*
X152490858Y-92887727D01*
X152691045Y-92804807D01*
X152871209Y-92684425D01*
X153024425Y-92531209D01*
X153144807Y-92351045D01*
X153227727Y-92150858D01*
X153270000Y-91938341D01*
X153270000Y-91721659D01*
X153227727Y-91509142D01*
X153144807Y-91308955D01*
X153024425Y-91128791D01*
X152985000Y-91089366D01*
X152985000Y-80644418D01*
X155090086Y-80644418D01*
X155191391Y-80847953D01*
X155438711Y-80964053D01*
X155703929Y-81029671D01*
X155976853Y-81042288D01*
X156246994Y-81001418D01*
X156503971Y-80908630D01*
X156617489Y-80847953D01*
X156718794Y-80644418D01*
X155904440Y-79830064D01*
X155090086Y-80644418D01*
X152985000Y-80644418D01*
X152985000Y-80579992D01*
X153094118Y-80470874D01*
X153234964Y-80260082D01*
X153331981Y-80025863D01*
X153381440Y-79777217D01*
X153381440Y-79722872D01*
X154512611Y-79722872D01*
X154553481Y-79993013D01*
X154646269Y-80249990D01*
X154706946Y-80363508D01*
X154910481Y-80464813D01*
X155724835Y-79650459D01*
X156084045Y-79650459D01*
X156898399Y-80464813D01*
X157101934Y-80363508D01*
X157218034Y-80116188D01*
X157283652Y-79850970D01*
X157296269Y-79578046D01*
X157255399Y-79307905D01*
X157162611Y-79050928D01*
X157101934Y-78937410D01*
X156898399Y-78836105D01*
X156084045Y-79650459D01*
X155724835Y-79650459D01*
X154910481Y-78836105D01*
X154706946Y-78937410D01*
X154590846Y-79184730D01*
X154525228Y-79449948D01*
X154512611Y-79722872D01*
X153381440Y-79722872D01*
X153381440Y-79523701D01*
X153331981Y-79275055D01*
X153234964Y-79040836D01*
X153094118Y-78830044D01*
X152920574Y-78656500D01*
X155090086Y-78656500D01*
X155904440Y-79470854D01*
X156620045Y-78755249D01*
X165515000Y-78755249D01*
X165515000Y-79244751D01*
X165610497Y-79724848D01*
X165797821Y-80177089D01*
X166069774Y-80584095D01*
X166415905Y-80930226D01*
X166822911Y-81202179D01*
X167275152Y-81389503D01*
X167755249Y-81485000D01*
X168244751Y-81485000D01*
X168724848Y-81389503D01*
X169177089Y-81202179D01*
X169584095Y-80930226D01*
X169930226Y-80584095D01*
X170202179Y-80177089D01*
X170389503Y-79724848D01*
X170485000Y-79244751D01*
X170485000Y-78755249D01*
X170389503Y-78275152D01*
X170202179Y-77822911D01*
X169930226Y-77415905D01*
X169584095Y-77069774D01*
X169177089Y-76797821D01*
X168724848Y-76610497D01*
X168244751Y-76515000D01*
X167755249Y-76515000D01*
X167275152Y-76610497D01*
X166822911Y-76797821D01*
X166415905Y-77069774D01*
X166069774Y-77415905D01*
X165797821Y-77822911D01*
X165610497Y-78275152D01*
X165515000Y-78755249D01*
X156620045Y-78755249D01*
X156718794Y-78656500D01*
X156617489Y-78452965D01*
X156370169Y-78336865D01*
X156104951Y-78271247D01*
X155832027Y-78258630D01*
X155561886Y-78299500D01*
X155304909Y-78392288D01*
X155191391Y-78452965D01*
X155090086Y-78656500D01*
X152920574Y-78656500D01*
X152914855Y-78650781D01*
X152704063Y-78509935D01*
X152469844Y-78412918D01*
X152221198Y-78363459D01*
X151988308Y-78363459D01*
X150863427Y-77238579D01*
X150837272Y-77206709D01*
X150710127Y-77102364D01*
X150565068Y-77024828D01*
X150407670Y-76977082D01*
X150285000Y-76965000D01*
X150284999Y-76965000D01*
X150243981Y-76960960D01*
X150202963Y-76965000D01*
X147086620Y-76965000D01*
X147086620Y-76950000D01*
X147080152Y-76884329D01*
X147060996Y-76821181D01*
X147029889Y-76762984D01*
X146988026Y-76711974D01*
X146937016Y-76670111D01*
X146878819Y-76639004D01*
X146815671Y-76619848D01*
X146750000Y-76613380D01*
X145050000Y-76613380D01*
X144984329Y-76619848D01*
X144921181Y-76639004D01*
X144862984Y-76670111D01*
X144811974Y-76711974D01*
X144770111Y-76762984D01*
X144739004Y-76821181D01*
X144719848Y-76884329D01*
X144713380Y-76950000D01*
X144185844Y-76950000D01*
X144115394Y-76879550D01*
X143921308Y-76749866D01*
X143705652Y-76660539D01*
X143476712Y-76615000D01*
X143243288Y-76615000D01*
X143014348Y-76660539D01*
X142798692Y-76749866D01*
X142604606Y-76879550D01*
X142519156Y-76965000D01*
X137681018Y-76965000D01*
X137639999Y-76960960D01*
X137598981Y-76965000D01*
X137476311Y-76977082D01*
X137318913Y-77024828D01*
X137173854Y-77102364D01*
X137046709Y-77206709D01*
X137020559Y-77238573D01*
X134904133Y-79355000D01*
X134783288Y-79355000D01*
X134554348Y-79400539D01*
X134338692Y-79489866D01*
X134144606Y-79619550D01*
X134059156Y-79705000D01*
X133200844Y-79705000D01*
X133115394Y-79619550D01*
X132921308Y-79489866D01*
X132705652Y-79400539D01*
X132476712Y-79355000D01*
X132243288Y-79355000D01*
X132014348Y-79400539D01*
X131798692Y-79489866D01*
X131604606Y-79619550D01*
X131519156Y-79705000D01*
X131201018Y-79705000D01*
X131159999Y-79700960D01*
X131118981Y-79705000D01*
X130996311Y-79717082D01*
X130838913Y-79764828D01*
X130693854Y-79842364D01*
X130566709Y-79946709D01*
X130540561Y-79978571D01*
X129338574Y-81180559D01*
X129306710Y-81206709D01*
X129280562Y-81238571D01*
X129202364Y-81333855D01*
X129124828Y-81478914D01*
X129077082Y-81636312D01*
X129060960Y-81800000D01*
X112360000Y-81800000D01*
X112360000Y-78755249D01*
X114515000Y-78755249D01*
X114515000Y-79244751D01*
X114610497Y-79724848D01*
X114797821Y-80177089D01*
X115069774Y-80584095D01*
X115415905Y-80930226D01*
X115822911Y-81202179D01*
X116275152Y-81389503D01*
X116755249Y-81485000D01*
X117244751Y-81485000D01*
X117724848Y-81389503D01*
X118177089Y-81202179D01*
X118584095Y-80930226D01*
X118930226Y-80584095D01*
X119202179Y-80177089D01*
X119389503Y-79724848D01*
X119485000Y-79244751D01*
X119485000Y-78755249D01*
X119389503Y-78275152D01*
X119202179Y-77822911D01*
X118930226Y-77415905D01*
X118584095Y-77069774D01*
X118177089Y-76797821D01*
X117724848Y-76610497D01*
X117244751Y-76515000D01*
X116755249Y-76515000D01*
X116275152Y-76610497D01*
X115822911Y-76797821D01*
X115415905Y-77069774D01*
X115069774Y-77415905D01*
X114797821Y-77822911D01*
X114610497Y-78275152D01*
X114515000Y-78755249D01*
X112360000Y-78755249D01*
X112360000Y-74360000D01*
X172640000Y-74360000D01*
X172640001Y-134640000D01*
%TA.AperFunction,Conductor*%
D20*
G36*
X172640001Y-134640000D02*
G01*
X112360000Y-134640000D01*
X112360000Y-129755249D01*
X114515000Y-129755249D01*
X114515000Y-130244751D01*
X114610497Y-130724848D01*
X114797821Y-131177089D01*
X115069774Y-131584095D01*
X115415905Y-131930226D01*
X115822911Y-132202179D01*
X116275152Y-132389503D01*
X116755249Y-132485000D01*
X117244751Y-132485000D01*
X117724848Y-132389503D01*
X118177089Y-132202179D01*
X118584095Y-131930226D01*
X118930226Y-131584095D01*
X119202179Y-131177089D01*
X119389503Y-130724848D01*
X119485000Y-130244751D01*
X119485000Y-129755249D01*
X119389503Y-129275152D01*
X119202179Y-128822911D01*
X118930226Y-128415905D01*
X118584095Y-128069774D01*
X118177089Y-127797821D01*
X117724848Y-127610497D01*
X117244751Y-127515000D01*
X116755249Y-127515000D01*
X116275152Y-127610497D01*
X115822911Y-127797821D01*
X115415905Y-128069774D01*
X115069774Y-128415905D01*
X114797821Y-128822911D01*
X114610497Y-129275152D01*
X114515000Y-129755249D01*
X112360000Y-129755249D01*
X112360000Y-81800000D01*
X129060960Y-81800000D01*
X129065001Y-81841029D01*
X129065000Y-124758982D01*
X129060960Y-124800000D01*
X129065000Y-124841018D01*
X129077082Y-124963688D01*
X129124828Y-125121086D01*
X129202364Y-125266145D01*
X129306709Y-125393291D01*
X129338578Y-125419446D01*
X130740563Y-126821432D01*
X130766709Y-126853291D01*
X130798568Y-126879437D01*
X130798570Y-126879439D01*
X130893854Y-126957636D01*
X131038913Y-127035172D01*
X131196311Y-127082918D01*
X131360000Y-127099040D01*
X131401018Y-127095000D01*
X131519156Y-127095000D01*
X131525000Y-127100844D01*
X131525001Y-127959155D01*
X131439550Y-128044606D01*
X131309866Y-128238692D01*
X131220539Y-128454348D01*
X131175000Y-128683288D01*
X131175000Y-128916712D01*
X131220539Y-129145652D01*
X131309866Y-129361308D01*
X131439550Y-129555394D01*
X131604606Y-129720450D01*
X131798692Y-129850134D01*
X132014348Y-129939461D01*
X132243288Y-129985000D01*
X132476712Y-129985000D01*
X132705652Y-129939461D01*
X132921308Y-129850134D01*
X133115394Y-129720450D01*
X133280450Y-129555394D01*
X133410134Y-129361308D01*
X133499461Y-129145652D01*
X133545000Y-128916712D01*
X133545000Y-128683288D01*
X133499461Y-128454348D01*
X133410134Y-128238692D01*
X133384281Y-128200000D01*
X133713380Y-128200000D01*
X133713380Y-129400000D01*
X133724652Y-129514444D01*
X133758034Y-129624490D01*
X133812243Y-129725909D01*
X133885197Y-129814803D01*
X133974091Y-129887757D01*
X134075510Y-129941966D01*
X134185556Y-129975348D01*
X134300000Y-129986620D01*
X135500000Y-129986620D01*
X135614444Y-129975348D01*
X135724490Y-129941966D01*
X135825909Y-129887757D01*
X135914803Y-129814803D01*
X135963678Y-129755249D01*
X165515000Y-129755249D01*
X165515000Y-130244751D01*
X165610497Y-130724848D01*
X165797821Y-131177089D01*
X166069774Y-131584095D01*
X166415905Y-131930226D01*
X166822911Y-132202179D01*
X167275152Y-132389503D01*
X167755249Y-132485000D01*
X168244751Y-132485000D01*
X168724848Y-132389503D01*
X169177089Y-132202179D01*
X169584095Y-131930226D01*
X169930226Y-131584095D01*
X170202179Y-131177089D01*
X170389503Y-130724848D01*
X170485000Y-130244751D01*
X170485000Y-129755249D01*
X170389503Y-129275152D01*
X170202179Y-128822911D01*
X169930226Y-128415905D01*
X169584095Y-128069774D01*
X169177089Y-127797821D01*
X168724848Y-127610497D01*
X168244751Y-127515000D01*
X167755249Y-127515000D01*
X167275152Y-127610497D01*
X166822911Y-127797821D01*
X166415905Y-128069774D01*
X166069774Y-128415905D01*
X165797821Y-128822911D01*
X165610497Y-129275152D01*
X165515000Y-129755249D01*
X135963678Y-129755249D01*
X135987757Y-129725909D01*
X136041966Y-129624490D01*
X136075348Y-129514444D01*
X136086620Y-129400000D01*
X136086620Y-128200000D01*
X136075348Y-128085556D01*
X136041966Y-127975510D01*
X135987757Y-127874091D01*
X135914803Y-127785197D01*
X135825909Y-127712243D01*
X135724490Y-127658034D01*
X135614444Y-127624652D01*
X135500000Y-127613380D01*
X134300000Y-127613380D01*
X134185556Y-127624652D01*
X134075510Y-127658034D01*
X133974091Y-127712243D01*
X133885197Y-127785197D01*
X133812243Y-127874091D01*
X133758034Y-127975510D01*
X133724652Y-128085556D01*
X133713380Y-128200000D01*
X133384281Y-128200000D01*
X133280450Y-128044606D01*
X133195000Y-127959156D01*
X133195000Y-127181097D01*
X134158508Y-127181097D01*
X134247466Y-127374201D01*
X134477374Y-127480095D01*
X134723524Y-127539102D01*
X134976455Y-127548952D01*
X135226449Y-127509270D01*
X135463896Y-127421578D01*
X135552534Y-127374201D01*
X135641492Y-127181097D01*
X134900000Y-126439605D01*
X134158508Y-127181097D01*
X133195000Y-127181097D01*
X133195000Y-127100844D01*
X133280450Y-127015394D01*
X133410134Y-126821308D01*
X133499461Y-126605652D01*
X133545000Y-126376712D01*
X133545000Y-126336455D01*
X133611048Y-126336455D01*
X133650730Y-126586449D01*
X133738422Y-126823896D01*
X133785799Y-126912534D01*
X133978903Y-127001492D01*
X134720395Y-126260000D01*
X135079605Y-126260000D01*
X135821097Y-127001492D01*
X136014201Y-126912534D01*
X136120095Y-126682626D01*
X136179102Y-126436476D01*
X136188952Y-126183545D01*
X136149270Y-125933551D01*
X136061578Y-125696104D01*
X136014201Y-125607466D01*
X135821097Y-125518508D01*
X135079605Y-126260000D01*
X134720395Y-126260000D01*
X133978903Y-125518508D01*
X133785799Y-125607466D01*
X133679905Y-125837374D01*
X133620898Y-126083524D01*
X133611048Y-126336455D01*
X133545000Y-126336455D01*
X133545000Y-126143288D01*
X133499461Y-125914348D01*
X133410134Y-125698692D01*
X133280450Y-125504606D01*
X133115394Y-125339550D01*
X132921308Y-125209866D01*
X132705652Y-125120539D01*
X132476712Y-125075000D01*
X132243288Y-125075000D01*
X132014348Y-125120539D01*
X131798692Y-125209866D01*
X131614085Y-125333216D01*
X130735000Y-124454133D01*
X130735000Y-123603288D01*
X131175000Y-123603288D01*
X131175000Y-123836712D01*
X131220539Y-124065652D01*
X131309866Y-124281308D01*
X131439550Y-124475394D01*
X131604606Y-124640450D01*
X131798692Y-124770134D01*
X132014348Y-124859461D01*
X132243288Y-124905000D01*
X132476712Y-124905000D01*
X132705652Y-124859461D01*
X132921308Y-124770134D01*
X133114425Y-124641097D01*
X134158508Y-124641097D01*
X134247466Y-124834201D01*
X134477374Y-124940095D01*
X134692962Y-124991776D01*
X134573551Y-125010730D01*
X134336104Y-125098422D01*
X134247466Y-125145799D01*
X134158508Y-125338903D01*
X134900000Y-126080395D01*
X135641492Y-125338903D01*
X135552534Y-125145799D01*
X135322626Y-125039905D01*
X135107038Y-124988224D01*
X135226449Y-124969270D01*
X135463896Y-124881578D01*
X135552534Y-124834201D01*
X135641492Y-124641097D01*
X134900000Y-123899605D01*
X134158508Y-124641097D01*
X133114425Y-124641097D01*
X133115394Y-124640450D01*
X133280450Y-124475394D01*
X133410134Y-124281308D01*
X133499461Y-124065652D01*
X133545000Y-123836712D01*
X133545000Y-123796455D01*
X133611048Y-123796455D01*
X133650730Y-124046449D01*
X133738422Y-124283896D01*
X133785799Y-124372534D01*
X133978903Y-124461492D01*
X134720395Y-123720000D01*
X135079605Y-123720000D01*
X135821097Y-124461492D01*
X136014201Y-124372534D01*
X136120095Y-124142626D01*
X136179102Y-123896476D01*
X136188952Y-123643545D01*
X136149270Y-123393551D01*
X136061578Y-123156104D01*
X136014201Y-123067466D01*
X135821097Y-122978508D01*
X135079605Y-123720000D01*
X134720395Y-123720000D01*
X133978903Y-122978508D01*
X133785799Y-123067466D01*
X133679905Y-123297374D01*
X133620898Y-123543524D01*
X133611048Y-123796455D01*
X133545000Y-123796455D01*
X133545000Y-123603288D01*
X133499461Y-123374348D01*
X133410134Y-123158692D01*
X133280450Y-122964606D01*
X133115394Y-122799550D01*
X132921308Y-122669866D01*
X132705652Y-122580539D01*
X132476712Y-122535000D01*
X132243288Y-122535000D01*
X132014348Y-122580539D01*
X131798692Y-122669866D01*
X131604606Y-122799550D01*
X131439550Y-122964606D01*
X131309866Y-123158692D01*
X131220539Y-123374348D01*
X131175000Y-123603288D01*
X130735000Y-123603288D01*
X130735000Y-121063288D01*
X131175000Y-121063288D01*
X131175000Y-121296712D01*
X131220539Y-121525652D01*
X131309866Y-121741308D01*
X131439550Y-121935394D01*
X131604606Y-122100450D01*
X131798692Y-122230134D01*
X132014348Y-122319461D01*
X132243288Y-122365000D01*
X132476712Y-122365000D01*
X132705652Y-122319461D01*
X132921308Y-122230134D01*
X133114425Y-122101097D01*
X134158508Y-122101097D01*
X134247466Y-122294201D01*
X134477374Y-122400095D01*
X134692962Y-122451776D01*
X134573551Y-122470730D01*
X134336104Y-122558422D01*
X134247466Y-122605799D01*
X134158508Y-122798903D01*
X134900000Y-123540395D01*
X135641492Y-122798903D01*
X135552534Y-122605799D01*
X135322626Y-122499905D01*
X135107038Y-122448224D01*
X135226449Y-122429270D01*
X135463896Y-122341578D01*
X135552534Y-122294201D01*
X135641492Y-122101097D01*
X134900000Y-121359605D01*
X134158508Y-122101097D01*
X133114425Y-122101097D01*
X133115394Y-122100450D01*
X133280450Y-121935394D01*
X133410134Y-121741308D01*
X133499461Y-121525652D01*
X133545000Y-121296712D01*
X133545000Y-121256455D01*
X133611048Y-121256455D01*
X133650730Y-121506449D01*
X133738422Y-121743896D01*
X133785799Y-121832534D01*
X133978903Y-121921492D01*
X134720395Y-121180000D01*
X135079605Y-121180000D01*
X135821097Y-121921492D01*
X136014201Y-121832534D01*
X136120095Y-121602626D01*
X136179102Y-121356476D01*
X136188952Y-121103545D01*
X136149270Y-120853551D01*
X136061578Y-120616104D01*
X136014201Y-120527466D01*
X135821097Y-120438508D01*
X135079605Y-121180000D01*
X134720395Y-121180000D01*
X133978903Y-120438508D01*
X133785799Y-120527466D01*
X133679905Y-120757374D01*
X133620898Y-121003524D01*
X133611048Y-121256455D01*
X133545000Y-121256455D01*
X133545000Y-121063288D01*
X133499461Y-120834348D01*
X133410134Y-120618692D01*
X133280450Y-120424606D01*
X133115394Y-120259550D01*
X132921308Y-120129866D01*
X132705652Y-120040539D01*
X132476712Y-119995000D01*
X132243288Y-119995000D01*
X132014348Y-120040539D01*
X131798692Y-120129866D01*
X131604606Y-120259550D01*
X131439550Y-120424606D01*
X131309866Y-120618692D01*
X131220539Y-120834348D01*
X131175000Y-121063288D01*
X130735000Y-121063288D01*
X130735000Y-118523288D01*
X131175000Y-118523288D01*
X131175000Y-118756712D01*
X131220539Y-118985652D01*
X131309866Y-119201308D01*
X131439550Y-119395394D01*
X131604606Y-119560450D01*
X131798692Y-119690134D01*
X132014348Y-119779461D01*
X132243288Y-119825000D01*
X132476712Y-119825000D01*
X132705652Y-119779461D01*
X132921308Y-119690134D01*
X133114425Y-119561097D01*
X134158508Y-119561097D01*
X134247466Y-119754201D01*
X134477374Y-119860095D01*
X134692962Y-119911776D01*
X134573551Y-119930730D01*
X134336104Y-120018422D01*
X134247466Y-120065799D01*
X134158508Y-120258903D01*
X134900000Y-121000395D01*
X135641492Y-120258903D01*
X135552534Y-120065799D01*
X135322626Y-119959905D01*
X135107038Y-119908224D01*
X135226449Y-119889270D01*
X135463896Y-119801578D01*
X135552534Y-119754201D01*
X135641492Y-119561097D01*
X134900000Y-118819605D01*
X134158508Y-119561097D01*
X133114425Y-119561097D01*
X133115394Y-119560450D01*
X133280450Y-119395394D01*
X133410134Y-119201308D01*
X133499461Y-118985652D01*
X133545000Y-118756712D01*
X133545000Y-118716455D01*
X133611048Y-118716455D01*
X133650730Y-118966449D01*
X133738422Y-119203896D01*
X133785799Y-119292534D01*
X133978903Y-119381492D01*
X134720395Y-118640000D01*
X135079605Y-118640000D01*
X135821097Y-119381492D01*
X136014201Y-119292534D01*
X136120095Y-119062626D01*
X136179102Y-118816476D01*
X136188952Y-118563545D01*
X136149270Y-118313551D01*
X136061578Y-118076104D01*
X136014201Y-117987466D01*
X135821097Y-117898508D01*
X135079605Y-118640000D01*
X134720395Y-118640000D01*
X133978903Y-117898508D01*
X133785799Y-117987466D01*
X133679905Y-118217374D01*
X133620898Y-118463524D01*
X133611048Y-118716455D01*
X133545000Y-118716455D01*
X133545000Y-118523288D01*
X133499461Y-118294348D01*
X133410134Y-118078692D01*
X133280450Y-117884606D01*
X133115394Y-117719550D01*
X132921308Y-117589866D01*
X132705652Y-117500539D01*
X132476712Y-117455000D01*
X132243288Y-117455000D01*
X132014348Y-117500539D01*
X131798692Y-117589866D01*
X131604606Y-117719550D01*
X131439550Y-117884606D01*
X131309866Y-118078692D01*
X131220539Y-118294348D01*
X131175000Y-118523288D01*
X130735000Y-118523288D01*
X130735000Y-115983288D01*
X131175000Y-115983288D01*
X131175000Y-116216712D01*
X131220539Y-116445652D01*
X131309866Y-116661308D01*
X131439550Y-116855394D01*
X131604606Y-117020450D01*
X131798692Y-117150134D01*
X132014348Y-117239461D01*
X132243288Y-117285000D01*
X132476712Y-117285000D01*
X132705652Y-117239461D01*
X132921308Y-117150134D01*
X133114425Y-117021097D01*
X134158508Y-117021097D01*
X134247466Y-117214201D01*
X134477374Y-117320095D01*
X134692962Y-117371776D01*
X134573551Y-117390730D01*
X134336104Y-117478422D01*
X134247466Y-117525799D01*
X134158508Y-117718903D01*
X134900000Y-118460395D01*
X135641492Y-117718903D01*
X135552534Y-117525799D01*
X135322626Y-117419905D01*
X135107038Y-117368224D01*
X135226449Y-117349270D01*
X135463896Y-117261578D01*
X135552534Y-117214201D01*
X135641492Y-117021097D01*
X134900000Y-116279605D01*
X134158508Y-117021097D01*
X133114425Y-117021097D01*
X133115394Y-117020450D01*
X133280450Y-116855394D01*
X133410134Y-116661308D01*
X133499461Y-116445652D01*
X133545000Y-116216712D01*
X133545000Y-116176455D01*
X133611048Y-116176455D01*
X133650730Y-116426449D01*
X133738422Y-116663896D01*
X133785799Y-116752534D01*
X133978903Y-116841492D01*
X134720395Y-116100000D01*
X135079605Y-116100000D01*
X135821097Y-116841492D01*
X136014201Y-116752534D01*
X136120095Y-116522626D01*
X136179102Y-116276476D01*
X136188952Y-116023545D01*
X136149270Y-115773551D01*
X136061578Y-115536104D01*
X136014201Y-115447466D01*
X135821097Y-115358508D01*
X135079605Y-116100000D01*
X134720395Y-116100000D01*
X133978903Y-115358508D01*
X133785799Y-115447466D01*
X133679905Y-115677374D01*
X133620898Y-115923524D01*
X133611048Y-116176455D01*
X133545000Y-116176455D01*
X133545000Y-115983288D01*
X133499461Y-115754348D01*
X133410134Y-115538692D01*
X133280450Y-115344606D01*
X133115394Y-115179550D01*
X132921308Y-115049866D01*
X132705652Y-114960539D01*
X132476712Y-114915000D01*
X132243288Y-114915000D01*
X132014348Y-114960539D01*
X131798692Y-115049866D01*
X131604606Y-115179550D01*
X131439550Y-115344606D01*
X131309866Y-115538692D01*
X131220539Y-115754348D01*
X131175000Y-115983288D01*
X130735000Y-115983288D01*
X130735000Y-113443288D01*
X131175000Y-113443288D01*
X131175000Y-113676712D01*
X131220539Y-113905652D01*
X131309866Y-114121308D01*
X131439550Y-114315394D01*
X131604606Y-114480450D01*
X131798692Y-114610134D01*
X132014348Y-114699461D01*
X132243288Y-114745000D01*
X132476712Y-114745000D01*
X132705652Y-114699461D01*
X132921308Y-114610134D01*
X133114425Y-114481097D01*
X134158508Y-114481097D01*
X134247466Y-114674201D01*
X134477374Y-114780095D01*
X134692962Y-114831776D01*
X134573551Y-114850730D01*
X134336104Y-114938422D01*
X134247466Y-114985799D01*
X134158508Y-115178903D01*
X134900000Y-115920395D01*
X135641492Y-115178903D01*
X135552534Y-114985799D01*
X135322626Y-114879905D01*
X135107038Y-114828224D01*
X135226449Y-114809270D01*
X135463896Y-114721578D01*
X135552534Y-114674201D01*
X135641492Y-114481097D01*
X134900000Y-113739605D01*
X134158508Y-114481097D01*
X133114425Y-114481097D01*
X133115394Y-114480450D01*
X133280450Y-114315394D01*
X133410134Y-114121308D01*
X133499461Y-113905652D01*
X133545000Y-113676712D01*
X133545000Y-113636455D01*
X133611048Y-113636455D01*
X133650730Y-113886449D01*
X133738422Y-114123896D01*
X133785799Y-114212534D01*
X133978903Y-114301492D01*
X134720395Y-113560000D01*
X135079605Y-113560000D01*
X135821097Y-114301492D01*
X136014201Y-114212534D01*
X136120095Y-113982626D01*
X136179102Y-113736476D01*
X136188952Y-113483545D01*
X136149270Y-113233551D01*
X136061578Y-112996104D01*
X136014201Y-112907466D01*
X135821097Y-112818508D01*
X135079605Y-113560000D01*
X134720395Y-113560000D01*
X133978903Y-112818508D01*
X133785799Y-112907466D01*
X133679905Y-113137374D01*
X133620898Y-113383524D01*
X133611048Y-113636455D01*
X133545000Y-113636455D01*
X133545000Y-113443288D01*
X133499461Y-113214348D01*
X133410134Y-112998692D01*
X133280450Y-112804606D01*
X133115394Y-112639550D01*
X132921308Y-112509866D01*
X132705652Y-112420539D01*
X132476712Y-112375000D01*
X132243288Y-112375000D01*
X132014348Y-112420539D01*
X131798692Y-112509866D01*
X131604606Y-112639550D01*
X131439550Y-112804606D01*
X131309866Y-112998692D01*
X131220539Y-113214348D01*
X131175000Y-113443288D01*
X130735000Y-113443288D01*
X130735000Y-110903288D01*
X131175000Y-110903288D01*
X131175000Y-111136712D01*
X131220539Y-111365652D01*
X131309866Y-111581308D01*
X131439550Y-111775394D01*
X131604606Y-111940450D01*
X131798692Y-112070134D01*
X132014348Y-112159461D01*
X132243288Y-112205000D01*
X132476712Y-112205000D01*
X132705652Y-112159461D01*
X132921308Y-112070134D01*
X133114425Y-111941097D01*
X134158508Y-111941097D01*
X134247466Y-112134201D01*
X134477374Y-112240095D01*
X134692962Y-112291776D01*
X134573551Y-112310730D01*
X134336104Y-112398422D01*
X134247466Y-112445799D01*
X134158508Y-112638903D01*
X134900000Y-113380395D01*
X135641492Y-112638903D01*
X135552534Y-112445799D01*
X135322626Y-112339905D01*
X135107038Y-112288224D01*
X135226449Y-112269270D01*
X135463896Y-112181578D01*
X135552534Y-112134201D01*
X135641492Y-111941097D01*
X134900000Y-111199605D01*
X134158508Y-111941097D01*
X133114425Y-111941097D01*
X133115394Y-111940450D01*
X133280450Y-111775394D01*
X133410134Y-111581308D01*
X133499461Y-111365652D01*
X133545000Y-111136712D01*
X133545000Y-111096455D01*
X133611048Y-111096455D01*
X133650730Y-111346449D01*
X133738422Y-111583896D01*
X133785799Y-111672534D01*
X133978903Y-111761492D01*
X134720395Y-111020000D01*
X135079605Y-111020000D01*
X135821097Y-111761492D01*
X136014201Y-111672534D01*
X136120095Y-111442626D01*
X136179102Y-111196476D01*
X136188952Y-110943545D01*
X136149270Y-110693551D01*
X136061578Y-110456104D01*
X136014201Y-110367466D01*
X135821097Y-110278508D01*
X135079605Y-111020000D01*
X134720395Y-111020000D01*
X133978903Y-110278508D01*
X133785799Y-110367466D01*
X133679905Y-110597374D01*
X133620898Y-110843524D01*
X133611048Y-111096455D01*
X133545000Y-111096455D01*
X133545000Y-110903288D01*
X133499461Y-110674348D01*
X133410134Y-110458692D01*
X133280450Y-110264606D01*
X133115394Y-110099550D01*
X132921308Y-109969866D01*
X132705652Y-109880539D01*
X132476712Y-109835000D01*
X132243288Y-109835000D01*
X132014348Y-109880539D01*
X131798692Y-109969866D01*
X131604606Y-110099550D01*
X131439550Y-110264606D01*
X131309866Y-110458692D01*
X131220539Y-110674348D01*
X131175000Y-110903288D01*
X130735000Y-110903288D01*
X130735000Y-108363288D01*
X131175000Y-108363288D01*
X131175000Y-108596712D01*
X131220539Y-108825652D01*
X131309866Y-109041308D01*
X131439550Y-109235394D01*
X131604606Y-109400450D01*
X131798692Y-109530134D01*
X132014348Y-109619461D01*
X132243288Y-109665000D01*
X132476712Y-109665000D01*
X132705652Y-109619461D01*
X132921308Y-109530134D01*
X133114425Y-109401097D01*
X134158508Y-109401097D01*
X134247466Y-109594201D01*
X134477374Y-109700095D01*
X134692962Y-109751776D01*
X134573551Y-109770730D01*
X134336104Y-109858422D01*
X134247466Y-109905799D01*
X134158508Y-110098903D01*
X134900000Y-110840395D01*
X135641492Y-110098903D01*
X135552534Y-109905799D01*
X135322626Y-109799905D01*
X135107038Y-109748224D01*
X135226449Y-109729270D01*
X135463896Y-109641578D01*
X135552534Y-109594201D01*
X135641492Y-109401097D01*
X134900000Y-108659605D01*
X134158508Y-109401097D01*
X133114425Y-109401097D01*
X133115394Y-109400450D01*
X133280450Y-109235394D01*
X133410134Y-109041308D01*
X133499461Y-108825652D01*
X133545000Y-108596712D01*
X133545000Y-108556455D01*
X133611048Y-108556455D01*
X133650730Y-108806449D01*
X133738422Y-109043896D01*
X133785799Y-109132534D01*
X133978903Y-109221492D01*
X134720395Y-108480000D01*
X135079605Y-108480000D01*
X135821097Y-109221492D01*
X136014201Y-109132534D01*
X136120095Y-108902626D01*
X136179102Y-108656476D01*
X136188952Y-108403545D01*
X136149270Y-108153551D01*
X136061578Y-107916104D01*
X136014201Y-107827466D01*
X135821097Y-107738508D01*
X135079605Y-108480000D01*
X134720395Y-108480000D01*
X133978903Y-107738508D01*
X133785799Y-107827466D01*
X133679905Y-108057374D01*
X133620898Y-108303524D01*
X133611048Y-108556455D01*
X133545000Y-108556455D01*
X133545000Y-108363288D01*
X133499461Y-108134348D01*
X133410134Y-107918692D01*
X133280450Y-107724606D01*
X133115394Y-107559550D01*
X132921308Y-107429866D01*
X132705652Y-107340539D01*
X132476712Y-107295000D01*
X132243288Y-107295000D01*
X132014348Y-107340539D01*
X131798692Y-107429866D01*
X131604606Y-107559550D01*
X131439550Y-107724606D01*
X131309866Y-107918692D01*
X131220539Y-108134348D01*
X131175000Y-108363288D01*
X130735000Y-108363288D01*
X130735000Y-105823288D01*
X131175000Y-105823288D01*
X131175000Y-106056712D01*
X131220539Y-106285652D01*
X131309866Y-106501308D01*
X131439550Y-106695394D01*
X131604606Y-106860450D01*
X131798692Y-106990134D01*
X132014348Y-107079461D01*
X132243288Y-107125000D01*
X132476712Y-107125000D01*
X132705652Y-107079461D01*
X132921308Y-106990134D01*
X133114425Y-106861097D01*
X134158508Y-106861097D01*
X134247466Y-107054201D01*
X134477374Y-107160095D01*
X134692962Y-107211776D01*
X134573551Y-107230730D01*
X134336104Y-107318422D01*
X134247466Y-107365799D01*
X134158508Y-107558903D01*
X134900000Y-108300395D01*
X135641492Y-107558903D01*
X135552534Y-107365799D01*
X135322626Y-107259905D01*
X135107038Y-107208224D01*
X135226449Y-107189270D01*
X135463896Y-107101578D01*
X135552534Y-107054201D01*
X135641492Y-106861097D01*
X134900000Y-106119605D01*
X134158508Y-106861097D01*
X133114425Y-106861097D01*
X133115394Y-106860450D01*
X133280450Y-106695394D01*
X133410134Y-106501308D01*
X133499461Y-106285652D01*
X133545000Y-106056712D01*
X133545000Y-106016455D01*
X133611048Y-106016455D01*
X133650730Y-106266449D01*
X133738422Y-106503896D01*
X133785799Y-106592534D01*
X133978903Y-106681492D01*
X134720395Y-105940000D01*
X135079605Y-105940000D01*
X135821097Y-106681492D01*
X136014201Y-106592534D01*
X136120095Y-106362626D01*
X136179102Y-106116476D01*
X136188952Y-105863545D01*
X136149270Y-105613551D01*
X136061578Y-105376104D01*
X136014201Y-105287466D01*
X135821097Y-105198508D01*
X135079605Y-105940000D01*
X134720395Y-105940000D01*
X133978903Y-105198508D01*
X133785799Y-105287466D01*
X133679905Y-105517374D01*
X133620898Y-105763524D01*
X133611048Y-106016455D01*
X133545000Y-106016455D01*
X133545000Y-105823288D01*
X133499461Y-105594348D01*
X133410134Y-105378692D01*
X133280450Y-105184606D01*
X133115394Y-105019550D01*
X132921308Y-104889866D01*
X132705652Y-104800539D01*
X132476712Y-104755000D01*
X132243288Y-104755000D01*
X132014348Y-104800539D01*
X131798692Y-104889866D01*
X131604606Y-105019550D01*
X131439550Y-105184606D01*
X131309866Y-105378692D01*
X131220539Y-105594348D01*
X131175000Y-105823288D01*
X130735000Y-105823288D01*
X130735000Y-103283288D01*
X131175000Y-103283288D01*
X131175000Y-103516712D01*
X131220539Y-103745652D01*
X131309866Y-103961308D01*
X131439550Y-104155394D01*
X131604606Y-104320450D01*
X131798692Y-104450134D01*
X132014348Y-104539461D01*
X132243288Y-104585000D01*
X132476712Y-104585000D01*
X132705652Y-104539461D01*
X132921308Y-104450134D01*
X133114425Y-104321097D01*
X134158508Y-104321097D01*
X134247466Y-104514201D01*
X134477374Y-104620095D01*
X134692962Y-104671776D01*
X134573551Y-104690730D01*
X134336104Y-104778422D01*
X134247466Y-104825799D01*
X134158508Y-105018903D01*
X134900000Y-105760395D01*
X135641492Y-105018903D01*
X135552534Y-104825799D01*
X135322626Y-104719905D01*
X135107038Y-104668224D01*
X135226449Y-104649270D01*
X135463896Y-104561578D01*
X135552534Y-104514201D01*
X135641492Y-104321097D01*
X134900000Y-103579605D01*
X134158508Y-104321097D01*
X133114425Y-104321097D01*
X133115394Y-104320450D01*
X133280450Y-104155394D01*
X133410134Y-103961308D01*
X133499461Y-103745652D01*
X133545000Y-103516712D01*
X133545000Y-103476455D01*
X133611048Y-103476455D01*
X133650730Y-103726449D01*
X133738422Y-103963896D01*
X133785799Y-104052534D01*
X133978903Y-104141492D01*
X134720395Y-103400000D01*
X135079605Y-103400000D01*
X135821097Y-104141492D01*
X136014201Y-104052534D01*
X136120095Y-103822626D01*
X136179102Y-103576476D01*
X136188952Y-103323545D01*
X136149270Y-103073551D01*
X136061578Y-102836104D01*
X136014201Y-102747466D01*
X135821097Y-102658508D01*
X135079605Y-103400000D01*
X134720395Y-103400000D01*
X133978903Y-102658508D01*
X133785799Y-102747466D01*
X133679905Y-102977374D01*
X133620898Y-103223524D01*
X133611048Y-103476455D01*
X133545000Y-103476455D01*
X133545000Y-103283288D01*
X133499461Y-103054348D01*
X133410134Y-102838692D01*
X133280450Y-102644606D01*
X133115394Y-102479550D01*
X132921308Y-102349866D01*
X132705652Y-102260539D01*
X132476712Y-102215000D01*
X132243288Y-102215000D01*
X132014348Y-102260539D01*
X131798692Y-102349866D01*
X131604606Y-102479550D01*
X131439550Y-102644606D01*
X131309866Y-102838692D01*
X131220539Y-103054348D01*
X131175000Y-103283288D01*
X130735000Y-103283288D01*
X130735000Y-100743288D01*
X131175000Y-100743288D01*
X131175000Y-100976712D01*
X131220539Y-101205652D01*
X131309866Y-101421308D01*
X131439550Y-101615394D01*
X131604606Y-101780450D01*
X131798692Y-101910134D01*
X132014348Y-101999461D01*
X132243288Y-102045000D01*
X132476712Y-102045000D01*
X132705652Y-101999461D01*
X132921308Y-101910134D01*
X133114425Y-101781097D01*
X134158508Y-101781097D01*
X134247466Y-101974201D01*
X134477374Y-102080095D01*
X134692962Y-102131776D01*
X134573551Y-102150730D01*
X134336104Y-102238422D01*
X134247466Y-102285799D01*
X134158508Y-102478903D01*
X134900000Y-103220395D01*
X135641492Y-102478903D01*
X135552534Y-102285799D01*
X135322626Y-102179905D01*
X135107038Y-102128224D01*
X135226449Y-102109270D01*
X135463896Y-102021578D01*
X135552534Y-101974201D01*
X135641492Y-101781097D01*
X134900000Y-101039605D01*
X134158508Y-101781097D01*
X133114425Y-101781097D01*
X133115394Y-101780450D01*
X133280450Y-101615394D01*
X133410134Y-101421308D01*
X133499461Y-101205652D01*
X133545000Y-100976712D01*
X133545000Y-100936455D01*
X133611048Y-100936455D01*
X133650730Y-101186449D01*
X133738422Y-101423896D01*
X133785799Y-101512534D01*
X133978903Y-101601492D01*
X134720395Y-100860000D01*
X135079605Y-100860000D01*
X135821097Y-101601492D01*
X136014201Y-101512534D01*
X136120095Y-101282626D01*
X136179102Y-101036476D01*
X136188952Y-100783545D01*
X136149270Y-100533551D01*
X136061578Y-100296104D01*
X136014201Y-100207466D01*
X135821097Y-100118508D01*
X135079605Y-100860000D01*
X134720395Y-100860000D01*
X133978903Y-100118508D01*
X133785799Y-100207466D01*
X133679905Y-100437374D01*
X133620898Y-100683524D01*
X133611048Y-100936455D01*
X133545000Y-100936455D01*
X133545000Y-100743288D01*
X133499461Y-100514348D01*
X133410134Y-100298692D01*
X133280450Y-100104606D01*
X133115394Y-99939550D01*
X132921308Y-99809866D01*
X132705652Y-99720539D01*
X132476712Y-99675000D01*
X132243288Y-99675000D01*
X132014348Y-99720539D01*
X131798692Y-99809866D01*
X131604606Y-99939550D01*
X131439550Y-100104606D01*
X131309866Y-100298692D01*
X131220539Y-100514348D01*
X131175000Y-100743288D01*
X130735000Y-100743288D01*
X130735000Y-98203288D01*
X131175000Y-98203288D01*
X131175000Y-98436712D01*
X131220539Y-98665652D01*
X131309866Y-98881308D01*
X131439550Y-99075394D01*
X131604606Y-99240450D01*
X131798692Y-99370134D01*
X132014348Y-99459461D01*
X132243288Y-99505000D01*
X132476712Y-99505000D01*
X132705652Y-99459461D01*
X132921308Y-99370134D01*
X133114425Y-99241097D01*
X134158508Y-99241097D01*
X134247466Y-99434201D01*
X134477374Y-99540095D01*
X134692962Y-99591776D01*
X134573551Y-99610730D01*
X134336104Y-99698422D01*
X134247466Y-99745799D01*
X134158508Y-99938903D01*
X134900000Y-100680395D01*
X135641492Y-99938903D01*
X135552534Y-99745799D01*
X135322626Y-99639905D01*
X135107038Y-99588224D01*
X135226449Y-99569270D01*
X135463896Y-99481578D01*
X135552534Y-99434201D01*
X135641492Y-99241097D01*
X134900000Y-98499605D01*
X134158508Y-99241097D01*
X133114425Y-99241097D01*
X133115394Y-99240450D01*
X133280450Y-99075394D01*
X133410134Y-98881308D01*
X133499461Y-98665652D01*
X133545000Y-98436712D01*
X133545000Y-98396455D01*
X133611048Y-98396455D01*
X133650730Y-98646449D01*
X133738422Y-98883896D01*
X133785799Y-98972534D01*
X133978903Y-99061492D01*
X134720395Y-98320000D01*
X135079605Y-98320000D01*
X135821097Y-99061492D01*
X136014201Y-98972534D01*
X136120095Y-98742626D01*
X136179102Y-98496476D01*
X136188952Y-98243545D01*
X136149270Y-97993551D01*
X136061578Y-97756104D01*
X136014201Y-97667466D01*
X135821097Y-97578508D01*
X135079605Y-98320000D01*
X134720395Y-98320000D01*
X133978903Y-97578508D01*
X133785799Y-97667466D01*
X133679905Y-97897374D01*
X133620898Y-98143524D01*
X133611048Y-98396455D01*
X133545000Y-98396455D01*
X133545000Y-98203288D01*
X133499461Y-97974348D01*
X133410134Y-97758692D01*
X133280450Y-97564606D01*
X133115394Y-97399550D01*
X132921308Y-97269866D01*
X132705652Y-97180539D01*
X132476712Y-97135000D01*
X132243288Y-97135000D01*
X132014348Y-97180539D01*
X131798692Y-97269866D01*
X131604606Y-97399550D01*
X131439550Y-97564606D01*
X131309866Y-97758692D01*
X131220539Y-97974348D01*
X131175000Y-98203288D01*
X130735000Y-98203288D01*
X130735000Y-95663288D01*
X131175000Y-95663288D01*
X131175000Y-95896712D01*
X131220539Y-96125652D01*
X131309866Y-96341308D01*
X131439550Y-96535394D01*
X131604606Y-96700450D01*
X131798692Y-96830134D01*
X132014348Y-96919461D01*
X132243288Y-96965000D01*
X132476712Y-96965000D01*
X132705652Y-96919461D01*
X132921308Y-96830134D01*
X133114425Y-96701097D01*
X134158508Y-96701097D01*
X134247466Y-96894201D01*
X134477374Y-97000095D01*
X134692962Y-97051776D01*
X134573551Y-97070730D01*
X134336104Y-97158422D01*
X134247466Y-97205799D01*
X134158508Y-97398903D01*
X134900000Y-98140395D01*
X135641492Y-97398903D01*
X135552534Y-97205799D01*
X135322626Y-97099905D01*
X135107038Y-97048224D01*
X135226449Y-97029270D01*
X135463896Y-96941578D01*
X135552534Y-96894201D01*
X135641492Y-96701097D01*
X134900000Y-95959605D01*
X134158508Y-96701097D01*
X133114425Y-96701097D01*
X133115394Y-96700450D01*
X133280450Y-96535394D01*
X133410134Y-96341308D01*
X133499461Y-96125652D01*
X133545000Y-95896712D01*
X133545000Y-95856455D01*
X133611048Y-95856455D01*
X133650730Y-96106449D01*
X133738422Y-96343896D01*
X133785799Y-96432534D01*
X133978903Y-96521492D01*
X134720395Y-95780000D01*
X135079605Y-95780000D01*
X135821097Y-96521492D01*
X136014201Y-96432534D01*
X136120095Y-96202626D01*
X136179102Y-95956476D01*
X136188952Y-95703545D01*
X136149270Y-95453551D01*
X136061578Y-95216104D01*
X136014201Y-95127466D01*
X135821097Y-95038508D01*
X135079605Y-95780000D01*
X134720395Y-95780000D01*
X133978903Y-95038508D01*
X133785799Y-95127466D01*
X133679905Y-95357374D01*
X133620898Y-95603524D01*
X133611048Y-95856455D01*
X133545000Y-95856455D01*
X133545000Y-95663288D01*
X133499461Y-95434348D01*
X133410134Y-95218692D01*
X133280450Y-95024606D01*
X133115394Y-94859550D01*
X132921308Y-94729866D01*
X132705652Y-94640539D01*
X132476712Y-94595000D01*
X132243288Y-94595000D01*
X132014348Y-94640539D01*
X131798692Y-94729866D01*
X131604606Y-94859550D01*
X131439550Y-95024606D01*
X131309866Y-95218692D01*
X131220539Y-95434348D01*
X131175000Y-95663288D01*
X130735000Y-95663288D01*
X130735000Y-93123288D01*
X131175000Y-93123288D01*
X131175000Y-93356712D01*
X131220539Y-93585652D01*
X131309866Y-93801308D01*
X131439550Y-93995394D01*
X131604606Y-94160450D01*
X131798692Y-94290134D01*
X132014348Y-94379461D01*
X132243288Y-94425000D01*
X132476712Y-94425000D01*
X132705652Y-94379461D01*
X132921308Y-94290134D01*
X133114425Y-94161097D01*
X134158508Y-94161097D01*
X134247466Y-94354201D01*
X134477374Y-94460095D01*
X134692962Y-94511776D01*
X134573551Y-94530730D01*
X134336104Y-94618422D01*
X134247466Y-94665799D01*
X134158508Y-94858903D01*
X134900000Y-95600395D01*
X135641492Y-94858903D01*
X135552534Y-94665799D01*
X135322626Y-94559905D01*
X135107038Y-94508224D01*
X135226449Y-94489270D01*
X135463896Y-94401578D01*
X135552534Y-94354201D01*
X135641492Y-94161097D01*
X134900000Y-93419605D01*
X134158508Y-94161097D01*
X133114425Y-94161097D01*
X133115394Y-94160450D01*
X133280450Y-93995394D01*
X133410134Y-93801308D01*
X133499461Y-93585652D01*
X133545000Y-93356712D01*
X133545000Y-93316455D01*
X133611048Y-93316455D01*
X133650730Y-93566449D01*
X133738422Y-93803896D01*
X133785799Y-93892534D01*
X133978903Y-93981492D01*
X134720395Y-93240000D01*
X135079605Y-93240000D01*
X135821097Y-93981492D01*
X136014201Y-93892534D01*
X136120095Y-93662626D01*
X136179102Y-93416476D01*
X136188952Y-93163545D01*
X136149270Y-92913551D01*
X136061578Y-92676104D01*
X136014201Y-92587466D01*
X135821097Y-92498508D01*
X135079605Y-93240000D01*
X134720395Y-93240000D01*
X133978903Y-92498508D01*
X133785799Y-92587466D01*
X133679905Y-92817374D01*
X133620898Y-93063524D01*
X133611048Y-93316455D01*
X133545000Y-93316455D01*
X133545000Y-93123288D01*
X133499461Y-92894348D01*
X133410134Y-92678692D01*
X133280450Y-92484606D01*
X133115394Y-92319550D01*
X133114426Y-92318903D01*
X134158508Y-92318903D01*
X134900000Y-93060395D01*
X135641492Y-92318903D01*
X135552534Y-92125799D01*
X135322626Y-92019905D01*
X135076476Y-91960898D01*
X134823545Y-91951048D01*
X134573551Y-91990730D01*
X134336104Y-92078422D01*
X134247466Y-92125799D01*
X134158508Y-92318903D01*
X133114426Y-92318903D01*
X132921308Y-92189866D01*
X132705652Y-92100539D01*
X132476712Y-92055000D01*
X132243288Y-92055000D01*
X132014348Y-92100539D01*
X131798692Y-92189866D01*
X131604606Y-92319550D01*
X131439550Y-92484606D01*
X131309866Y-92678692D01*
X131220539Y-92894348D01*
X131175000Y-93123288D01*
X130735000Y-93123288D01*
X130735000Y-90583288D01*
X131175000Y-90583288D01*
X131175000Y-90816712D01*
X131220539Y-91045652D01*
X131309866Y-91261308D01*
X131439550Y-91455394D01*
X131604606Y-91620450D01*
X131798692Y-91750134D01*
X132014348Y-91839461D01*
X132243288Y-91885000D01*
X132476712Y-91885000D01*
X132705652Y-91839461D01*
X132921308Y-91750134D01*
X133115394Y-91620450D01*
X133280450Y-91455394D01*
X133410134Y-91261308D01*
X133499461Y-91045652D01*
X133545000Y-90816712D01*
X133545000Y-90583288D01*
X133715000Y-90583288D01*
X133715000Y-90816712D01*
X133760539Y-91045652D01*
X133849866Y-91261308D01*
X133979550Y-91455394D01*
X134144606Y-91620450D01*
X134338692Y-91750134D01*
X134554348Y-91839461D01*
X134783288Y-91885000D01*
X135016712Y-91885000D01*
X135245652Y-91839461D01*
X135461308Y-91750134D01*
X135655394Y-91620450D01*
X135820450Y-91455394D01*
X135950134Y-91261308D01*
X136039461Y-91045652D01*
X136085000Y-90816712D01*
X136085000Y-90583288D01*
X136039461Y-90354348D01*
X135950134Y-90138692D01*
X135820450Y-89944606D01*
X135655394Y-89779550D01*
X135461308Y-89649866D01*
X135245652Y-89560539D01*
X135016712Y-89515000D01*
X134783288Y-89515000D01*
X134554348Y-89560539D01*
X134338692Y-89649866D01*
X134144606Y-89779550D01*
X133979550Y-89944606D01*
X133849866Y-90138692D01*
X133760539Y-90354348D01*
X133715000Y-90583288D01*
X133545000Y-90583288D01*
X133499461Y-90354348D01*
X133410134Y-90138692D01*
X133280450Y-89944606D01*
X133115394Y-89779550D01*
X132921308Y-89649866D01*
X132705652Y-89560539D01*
X132476712Y-89515000D01*
X132243288Y-89515000D01*
X132014348Y-89560539D01*
X131798692Y-89649866D01*
X131604606Y-89779550D01*
X131439550Y-89944606D01*
X131309866Y-90138692D01*
X131220539Y-90354348D01*
X131175000Y-90583288D01*
X130735000Y-90583288D01*
X130735000Y-88043288D01*
X131175000Y-88043288D01*
X131175000Y-88276712D01*
X131220539Y-88505652D01*
X131309866Y-88721308D01*
X131439550Y-88915394D01*
X131604606Y-89080450D01*
X131798692Y-89210134D01*
X132014348Y-89299461D01*
X132243288Y-89345000D01*
X132476712Y-89345000D01*
X132705652Y-89299461D01*
X132921308Y-89210134D01*
X133114425Y-89081097D01*
X134158508Y-89081097D01*
X134247466Y-89274201D01*
X134477374Y-89380095D01*
X134723524Y-89439102D01*
X134976455Y-89448952D01*
X135226449Y-89409270D01*
X135463896Y-89321578D01*
X135552534Y-89274201D01*
X135641492Y-89081097D01*
X134900000Y-88339605D01*
X134158508Y-89081097D01*
X133114425Y-89081097D01*
X133115394Y-89080450D01*
X133280450Y-88915394D01*
X133410134Y-88721308D01*
X133499461Y-88505652D01*
X133545000Y-88276712D01*
X133545000Y-88043288D01*
X133499461Y-87814348D01*
X133410134Y-87598692D01*
X133280450Y-87404606D01*
X133115394Y-87239550D01*
X132921308Y-87109866D01*
X132705652Y-87020539D01*
X132476712Y-86975000D01*
X132243288Y-86975000D01*
X132014348Y-87020539D01*
X131798692Y-87109866D01*
X131604606Y-87239550D01*
X131439550Y-87404606D01*
X131309866Y-87598692D01*
X131220539Y-87814348D01*
X131175000Y-88043288D01*
X130735000Y-88043288D01*
X130735000Y-85503288D01*
X131175000Y-85503288D01*
X131175000Y-85736712D01*
X131220539Y-85965652D01*
X131309866Y-86181308D01*
X131439550Y-86375394D01*
X131604606Y-86540450D01*
X131798692Y-86670134D01*
X132014348Y-86759461D01*
X132243288Y-86805000D01*
X132476712Y-86805000D01*
X132705652Y-86759461D01*
X132731960Y-86748564D01*
X133253116Y-87269720D01*
X133269867Y-87290131D01*
X133351331Y-87356987D01*
X133444273Y-87406666D01*
X133505103Y-87425118D01*
X133545120Y-87437257D01*
X133555933Y-87438322D01*
X133623724Y-87444999D01*
X133623730Y-87444999D01*
X133649998Y-87447586D01*
X133676266Y-87444999D01*
X133921398Y-87444999D01*
X133785799Y-87507466D01*
X133679905Y-87737374D01*
X133620898Y-87983524D01*
X133611048Y-88236455D01*
X133650730Y-88486449D01*
X133738422Y-88723896D01*
X133785799Y-88812534D01*
X133978903Y-88901492D01*
X134720395Y-88160000D01*
X134706253Y-88145858D01*
X134885858Y-87966253D01*
X134900000Y-87980395D01*
X134914143Y-87966253D01*
X135093748Y-88145858D01*
X135079605Y-88160000D01*
X135821097Y-88901492D01*
X136014201Y-88812534D01*
X136120095Y-88582626D01*
X136179102Y-88336476D01*
X136185728Y-88166339D01*
X136364990Y-88345602D01*
X136364991Y-109714970D01*
X136362403Y-109741248D01*
X136372732Y-109846126D01*
X136383746Y-109882433D01*
X136403324Y-109946974D01*
X136453003Y-110039916D01*
X136519859Y-110121380D01*
X136540270Y-110138131D01*
X148061859Y-121659721D01*
X148078610Y-121680132D01*
X148160074Y-121746988D01*
X148253016Y-121796667D01*
X148353864Y-121827258D01*
X148432467Y-121835000D01*
X148432474Y-121835000D01*
X148458742Y-121837587D01*
X148485010Y-121835000D01*
X150613732Y-121835000D01*
X150640000Y-121837587D01*
X150666268Y-121835000D01*
X150666275Y-121835000D01*
X150744878Y-121827258D01*
X150845726Y-121796667D01*
X150938668Y-121746988D01*
X151020132Y-121680132D01*
X151036887Y-121659716D01*
X151865602Y-120831001D01*
X152061659Y-120870000D01*
X152278341Y-120870000D01*
X152490858Y-120827727D01*
X152691045Y-120744807D01*
X152871209Y-120624425D01*
X153024425Y-120471209D01*
X153144807Y-120291045D01*
X153227727Y-120090858D01*
X153270000Y-119878341D01*
X153270000Y-119661659D01*
X153227727Y-119449142D01*
X153144807Y-119248955D01*
X153024425Y-119068791D01*
X152871209Y-118915575D01*
X152691045Y-118795193D01*
X152490858Y-118712273D01*
X152278341Y-118670000D01*
X152061659Y-118670000D01*
X151849142Y-118712273D01*
X151648955Y-118795193D01*
X151468791Y-118915575D01*
X151315575Y-119068791D01*
X151195193Y-119248955D01*
X151112273Y-119449142D01*
X151070000Y-119661659D01*
X151070000Y-119878341D01*
X151108999Y-120074398D01*
X150418397Y-120765000D01*
X150102295Y-120765000D01*
X150151045Y-120744807D01*
X150331209Y-120624425D01*
X150484425Y-120471209D01*
X150604807Y-120291045D01*
X150687727Y-120090858D01*
X150730000Y-119878341D01*
X150730000Y-119661659D01*
X150687727Y-119449142D01*
X150604807Y-119248955D01*
X150484425Y-119068791D01*
X150331209Y-118915575D01*
X150151045Y-118795193D01*
X149950858Y-118712273D01*
X149738341Y-118670000D01*
X149521659Y-118670000D01*
X149309142Y-118712273D01*
X149108955Y-118795193D01*
X148928791Y-118915575D01*
X148775575Y-119068791D01*
X148664517Y-119235000D01*
X147998889Y-119235000D01*
X146528889Y-117765000D01*
X148664517Y-117765000D01*
X148775575Y-117931209D01*
X148928791Y-118084425D01*
X149108955Y-118204807D01*
X149309142Y-118287727D01*
X149521659Y-118330000D01*
X149738341Y-118330000D01*
X149950858Y-118287727D01*
X150151045Y-118204807D01*
X150331209Y-118084425D01*
X150484425Y-117931209D01*
X150604807Y-117751045D01*
X150687727Y-117550858D01*
X150730000Y-117338341D01*
X150730000Y-117121659D01*
X150687727Y-116909142D01*
X150604807Y-116708955D01*
X150532005Y-116599999D01*
X150783396Y-116599999D01*
X151108999Y-116925603D01*
X151070000Y-117121659D01*
X151070000Y-117338341D01*
X151112273Y-117550858D01*
X151195193Y-117751045D01*
X151315575Y-117931209D01*
X151468791Y-118084425D01*
X151648955Y-118204807D01*
X151849142Y-118287727D01*
X152061659Y-118330000D01*
X152278341Y-118330000D01*
X152490858Y-118287727D01*
X152691045Y-118204807D01*
X152871209Y-118084425D01*
X153024425Y-117931209D01*
X153144807Y-117751045D01*
X153227727Y-117550858D01*
X153270000Y-117338341D01*
X153270000Y-117121659D01*
X153227727Y-116909142D01*
X153144807Y-116708955D01*
X153024425Y-116528791D01*
X152871209Y-116375575D01*
X152691045Y-116255193D01*
X152490858Y-116172273D01*
X152278341Y-116130000D01*
X152061659Y-116130000D01*
X151865603Y-116168999D01*
X151401886Y-115705283D01*
X151385131Y-115684867D01*
X151303667Y-115618011D01*
X151210725Y-115568332D01*
X151109877Y-115537741D01*
X151031274Y-115529999D01*
X151031267Y-115529999D01*
X151004999Y-115527412D01*
X150978731Y-115529999D01*
X150345635Y-115529999D01*
X150484425Y-115391209D01*
X150604807Y-115211045D01*
X150687727Y-115010858D01*
X150730000Y-114798341D01*
X150730000Y-114581659D01*
X150687727Y-114369142D01*
X150604807Y-114168955D01*
X150532005Y-114059999D01*
X150783396Y-114059999D01*
X151108999Y-114385603D01*
X151070000Y-114581659D01*
X151070000Y-114798341D01*
X151112273Y-115010858D01*
X151195193Y-115211045D01*
X151315575Y-115391209D01*
X151468791Y-115544425D01*
X151648955Y-115664807D01*
X151849142Y-115747727D01*
X152061659Y-115790000D01*
X152278341Y-115790000D01*
X152490858Y-115747727D01*
X152691045Y-115664807D01*
X152871209Y-115544425D01*
X153024425Y-115391209D01*
X153144807Y-115211045D01*
X153227727Y-115010858D01*
X153270000Y-114798341D01*
X153270000Y-114581659D01*
X153227727Y-114369142D01*
X153144807Y-114168955D01*
X153024425Y-113988791D01*
X152871209Y-113835575D01*
X152691045Y-113715193D01*
X152490858Y-113632273D01*
X152278341Y-113590000D01*
X152061659Y-113590000D01*
X151865603Y-113628999D01*
X151401886Y-113165283D01*
X151385131Y-113144867D01*
X151303667Y-113078011D01*
X151210725Y-113028332D01*
X151109877Y-112997741D01*
X151031274Y-112989999D01*
X151031267Y-112989999D01*
X151004999Y-112987412D01*
X150978731Y-112989999D01*
X150345635Y-112989999D01*
X150484425Y-112851209D01*
X150604807Y-112671045D01*
X150687727Y-112470858D01*
X150730000Y-112258341D01*
X150730000Y-112041659D01*
X150687727Y-111829142D01*
X150604807Y-111628955D01*
X150532005Y-111519999D01*
X150783396Y-111519999D01*
X151108999Y-111845603D01*
X151070000Y-112041659D01*
X151070000Y-112258341D01*
X151112273Y-112470858D01*
X151195193Y-112671045D01*
X151315575Y-112851209D01*
X151468791Y-113004425D01*
X151648955Y-113124807D01*
X151849142Y-113207727D01*
X152061659Y-113250000D01*
X152278341Y-113250000D01*
X152490858Y-113207727D01*
X152691045Y-113124807D01*
X152871209Y-113004425D01*
X153024425Y-112851209D01*
X153144807Y-112671045D01*
X153227727Y-112470858D01*
X153270000Y-112258341D01*
X153270000Y-112041659D01*
X153227727Y-111829142D01*
X153144807Y-111628955D01*
X153024425Y-111448791D01*
X152871209Y-111295575D01*
X152691045Y-111175193D01*
X152490858Y-111092273D01*
X152278341Y-111050000D01*
X152061659Y-111050000D01*
X151865603Y-111088999D01*
X151401886Y-110625283D01*
X151385131Y-110604867D01*
X151303667Y-110538011D01*
X151210725Y-110488332D01*
X151109877Y-110457741D01*
X151031274Y-110449999D01*
X151031267Y-110449999D01*
X151004999Y-110447412D01*
X150978731Y-110449999D01*
X150345635Y-110449999D01*
X150484425Y-110311209D01*
X150604807Y-110131045D01*
X150687727Y-109930858D01*
X150730000Y-109718341D01*
X150730000Y-109501659D01*
X150687727Y-109289142D01*
X150604807Y-109088955D01*
X150484425Y-108908791D01*
X150410634Y-108835000D01*
X150638397Y-108835000D01*
X151108999Y-109305602D01*
X151070000Y-109501659D01*
X151070000Y-109718341D01*
X151112273Y-109930858D01*
X151195193Y-110131045D01*
X151315575Y-110311209D01*
X151468791Y-110464425D01*
X151648955Y-110584807D01*
X151849142Y-110667727D01*
X152061659Y-110710000D01*
X152278341Y-110710000D01*
X152490858Y-110667727D01*
X152691045Y-110584807D01*
X152871209Y-110464425D01*
X153024425Y-110311209D01*
X153144807Y-110131045D01*
X153227727Y-109930858D01*
X153270000Y-109718341D01*
X153270000Y-109501659D01*
X153227727Y-109289142D01*
X153144807Y-109088955D01*
X153024425Y-108908791D01*
X152871209Y-108755575D01*
X152691045Y-108635193D01*
X152490858Y-108552273D01*
X152278341Y-108510000D01*
X152061659Y-108510000D01*
X151865602Y-108548999D01*
X151256887Y-107940284D01*
X151240132Y-107919868D01*
X151158668Y-107853012D01*
X151065726Y-107803333D01*
X150964878Y-107772742D01*
X150886275Y-107765000D01*
X150886268Y-107765000D01*
X150860000Y-107762413D01*
X150833732Y-107765000D01*
X150488574Y-107765000D01*
X150604807Y-107591045D01*
X150687727Y-107390858D01*
X150730000Y-107178341D01*
X150730000Y-106961659D01*
X150687727Y-106749142D01*
X150604807Y-106548955D01*
X150484425Y-106368791D01*
X150450634Y-106335000D01*
X150678397Y-106335000D01*
X151108999Y-106765603D01*
X151070000Y-106961659D01*
X151070000Y-107178341D01*
X151112273Y-107390858D01*
X151195193Y-107591045D01*
X151315575Y-107771209D01*
X151468791Y-107924425D01*
X151648955Y-108044807D01*
X151849142Y-108127727D01*
X152061659Y-108170000D01*
X152278341Y-108170000D01*
X152490858Y-108127727D01*
X152691045Y-108044807D01*
X152871209Y-107924425D01*
X153024425Y-107771209D01*
X153144807Y-107591045D01*
X153227727Y-107390858D01*
X153270000Y-107178341D01*
X153270000Y-106961659D01*
X153227727Y-106749142D01*
X153144807Y-106548955D01*
X153024425Y-106368791D01*
X152871209Y-106215575D01*
X152691045Y-106095193D01*
X152490858Y-106012273D01*
X152278341Y-105970000D01*
X152061659Y-105970000D01*
X151865603Y-106008999D01*
X151296887Y-105440284D01*
X151280132Y-105419868D01*
X151198668Y-105353012D01*
X151105726Y-105303333D01*
X151004878Y-105272742D01*
X150926275Y-105265000D01*
X150926268Y-105265000D01*
X150900000Y-105262413D01*
X150873732Y-105265000D01*
X150450634Y-105265000D01*
X150484425Y-105231209D01*
X150604807Y-105051045D01*
X150687727Y-104850858D01*
X150730000Y-104638341D01*
X150730000Y-104421659D01*
X150687727Y-104209142D01*
X150604807Y-104008955D01*
X150484425Y-103828791D01*
X150440632Y-103784998D01*
X150668395Y-103784998D01*
X151108999Y-104225603D01*
X151070000Y-104421659D01*
X151070000Y-104638341D01*
X151112273Y-104850858D01*
X151195193Y-105051045D01*
X151315575Y-105231209D01*
X151468791Y-105384425D01*
X151648955Y-105504807D01*
X151849142Y-105587727D01*
X152061659Y-105630000D01*
X152278341Y-105630000D01*
X152490858Y-105587727D01*
X152691045Y-105504807D01*
X152871209Y-105384425D01*
X153024425Y-105231209D01*
X153144807Y-105051045D01*
X153227727Y-104850858D01*
X153270000Y-104638341D01*
X153270000Y-104421659D01*
X153227727Y-104209142D01*
X153144807Y-104008955D01*
X153024425Y-103828791D01*
X152871209Y-103675575D01*
X152691045Y-103555193D01*
X152490858Y-103472273D01*
X152278341Y-103430000D01*
X152061659Y-103430000D01*
X151865603Y-103468999D01*
X151286885Y-102890282D01*
X151270130Y-102869866D01*
X151188666Y-102803010D01*
X151095724Y-102753331D01*
X150994876Y-102722740D01*
X150916273Y-102714998D01*
X150916266Y-102714998D01*
X150889998Y-102712411D01*
X150863730Y-102714998D01*
X150460636Y-102714998D01*
X150484425Y-102691209D01*
X150604807Y-102511045D01*
X150687727Y-102310858D01*
X150730000Y-102098341D01*
X150730000Y-101881659D01*
X151070000Y-101881659D01*
X151070000Y-102098341D01*
X151112273Y-102310858D01*
X151195193Y-102511045D01*
X151315575Y-102691209D01*
X151468791Y-102844425D01*
X151648955Y-102964807D01*
X151849142Y-103047727D01*
X152061659Y-103090000D01*
X152278341Y-103090000D01*
X152490858Y-103047727D01*
X152691045Y-102964807D01*
X152871209Y-102844425D01*
X153024425Y-102691209D01*
X153144807Y-102511045D01*
X153227727Y-102310858D01*
X153270000Y-102098341D01*
X153270000Y-101881659D01*
X153227727Y-101669142D01*
X153144807Y-101468955D01*
X153024425Y-101288791D01*
X152871209Y-101135575D01*
X152691045Y-101015193D01*
X152490858Y-100932273D01*
X152278341Y-100890000D01*
X152061659Y-100890000D01*
X151849142Y-100932273D01*
X151648955Y-101015193D01*
X151468791Y-101135575D01*
X151315575Y-101288791D01*
X151195193Y-101468955D01*
X151112273Y-101669142D01*
X151070000Y-101881659D01*
X150730000Y-101881659D01*
X150687727Y-101669142D01*
X150604807Y-101468955D01*
X150484425Y-101288791D01*
X150331209Y-101135575D01*
X150151045Y-101015193D01*
X149950858Y-100932273D01*
X149738341Y-100890000D01*
X149521659Y-100890000D01*
X149309142Y-100932273D01*
X149108955Y-101015193D01*
X148928791Y-101135575D01*
X148775575Y-101288791D01*
X148655193Y-101468955D01*
X148572273Y-101669142D01*
X148530000Y-101881659D01*
X148530000Y-102098341D01*
X148572273Y-102310858D01*
X148655193Y-102511045D01*
X148775575Y-102691209D01*
X148799364Y-102714998D01*
X145476270Y-102714998D01*
X145450002Y-102712411D01*
X145423734Y-102714998D01*
X145423727Y-102714998D01*
X145354926Y-102721775D01*
X145345123Y-102722740D01*
X145314532Y-102732020D01*
X145244276Y-102753331D01*
X145151334Y-102803010D01*
X145136724Y-102815000D01*
X145077609Y-102815000D01*
X144935609Y-102843246D01*
X144801847Y-102898652D01*
X144681465Y-102979088D01*
X144579088Y-103081465D01*
X144498652Y-103201847D01*
X144443246Y-103335609D01*
X144415000Y-103477609D01*
X144415000Y-103622391D01*
X144443246Y-103764391D01*
X144498652Y-103898153D01*
X144579088Y-104018535D01*
X144681465Y-104120912D01*
X144801847Y-104201348D01*
X144935609Y-104256754D01*
X145077609Y-104285000D01*
X145222391Y-104285000D01*
X145364391Y-104256754D01*
X145498153Y-104201348D01*
X145618535Y-104120912D01*
X145720912Y-104018535D01*
X145801348Y-103898153D01*
X145848218Y-103784998D01*
X146081326Y-103784998D01*
X145983875Y-103850112D01*
X145881498Y-103952489D01*
X145801062Y-104072871D01*
X145745656Y-104206633D01*
X145717410Y-104348633D01*
X145717410Y-104493415D01*
X145745656Y-104635415D01*
X145801062Y-104769177D01*
X145881498Y-104889559D01*
X145983875Y-104991936D01*
X146104257Y-105072372D01*
X146238019Y-105127778D01*
X146380019Y-105156024D01*
X146524801Y-105156024D01*
X146666801Y-105127778D01*
X146800563Y-105072372D01*
X146811596Y-105065000D01*
X148664517Y-105065000D01*
X148775575Y-105231209D01*
X148809366Y-105265000D01*
X144676267Y-105265000D01*
X144649999Y-105262413D01*
X144623731Y-105265000D01*
X144623725Y-105265000D01*
X144555934Y-105271677D01*
X144545121Y-105272742D01*
X144514530Y-105282022D01*
X144444274Y-105303333D01*
X144422447Y-105315000D01*
X144327609Y-105315000D01*
X144185609Y-105343246D01*
X144051847Y-105398652D01*
X143931465Y-105479088D01*
X143829088Y-105581465D01*
X143748652Y-105701847D01*
X143693246Y-105835609D01*
X143665000Y-105977609D01*
X143665000Y-106122391D01*
X143693246Y-106264391D01*
X143748652Y-106398153D01*
X143829088Y-106518535D01*
X143931465Y-106620912D01*
X144051847Y-106701348D01*
X144185609Y-106756754D01*
X144327609Y-106785000D01*
X144472391Y-106785000D01*
X144517975Y-106775933D01*
X144493256Y-106835609D01*
X144465010Y-106977609D01*
X144465010Y-107122391D01*
X144493256Y-107264391D01*
X144548662Y-107398153D01*
X144629098Y-107518535D01*
X144731475Y-107620912D01*
X144851857Y-107701348D01*
X144985619Y-107756754D01*
X145027074Y-107765000D01*
X144687298Y-107765000D01*
X143292847Y-106370550D01*
X143292847Y-106319762D01*
X143264601Y-106177762D01*
X143209195Y-106044000D01*
X143128759Y-105923618D01*
X143026382Y-105821241D01*
X142906000Y-105740805D01*
X142772238Y-105685399D01*
X142630238Y-105657153D01*
X142485456Y-105657153D01*
X142343456Y-105685399D01*
X142275000Y-105713754D01*
X142275000Y-100310323D01*
X148949282Y-100310323D01*
X149027933Y-100494740D01*
X149243320Y-100592123D01*
X149473567Y-100645615D01*
X149709826Y-100653160D01*
X149943017Y-100614468D01*
X150164179Y-100531027D01*
X150232067Y-100494740D01*
X150310718Y-100310323D01*
X151489282Y-100310323D01*
X151567933Y-100494740D01*
X151783320Y-100592123D01*
X152013567Y-100645615D01*
X152249826Y-100653160D01*
X152483017Y-100614468D01*
X152704179Y-100531027D01*
X152772067Y-100494740D01*
X152850718Y-100310323D01*
X152170000Y-99629605D01*
X151489282Y-100310323D01*
X150310718Y-100310323D01*
X149630000Y-99629605D01*
X148949282Y-100310323D01*
X142275000Y-100310323D01*
X142275000Y-100036265D01*
X142277587Y-100009997D01*
X142275000Y-99983729D01*
X142275000Y-99983723D01*
X142267258Y-99905120D01*
X142236667Y-99804272D01*
X142186988Y-99711330D01*
X142120132Y-99629866D01*
X142099721Y-99613115D01*
X142075001Y-99588395D01*
X142075001Y-99537608D01*
X142073454Y-99529826D01*
X148426840Y-99529826D01*
X148465532Y-99763017D01*
X148548973Y-99984179D01*
X148585260Y-100052067D01*
X148769677Y-100130718D01*
X149450395Y-99450000D01*
X149809605Y-99450000D01*
X150490323Y-100130718D01*
X150674740Y-100052067D01*
X150772123Y-99836680D01*
X150825615Y-99606433D01*
X150828061Y-99529826D01*
X150966840Y-99529826D01*
X151005532Y-99763017D01*
X151088973Y-99984179D01*
X151125260Y-100052067D01*
X151309677Y-100130718D01*
X151990395Y-99450000D01*
X152349605Y-99450000D01*
X153030323Y-100130718D01*
X153214740Y-100052067D01*
X153312123Y-99836680D01*
X153365615Y-99606433D01*
X153373160Y-99370174D01*
X153334468Y-99136983D01*
X153251027Y-98915821D01*
X153214740Y-98847933D01*
X153030323Y-98769282D01*
X152349605Y-99450000D01*
X151990395Y-99450000D01*
X151309677Y-98769282D01*
X151125260Y-98847933D01*
X151027877Y-99063320D01*
X150974385Y-99293567D01*
X150966840Y-99529826D01*
X150828061Y-99529826D01*
X150833160Y-99370174D01*
X150794468Y-99136983D01*
X150711027Y-98915821D01*
X150674740Y-98847933D01*
X150490323Y-98769282D01*
X149809605Y-99450000D01*
X149450395Y-99450000D01*
X148769677Y-98769282D01*
X148585260Y-98847933D01*
X148487877Y-99063320D01*
X148434385Y-99293567D01*
X148426840Y-99529826D01*
X142073454Y-99529826D01*
X142046755Y-99395608D01*
X141991349Y-99261846D01*
X141910913Y-99141464D01*
X141808536Y-99039087D01*
X141688154Y-98958651D01*
X141554392Y-98903245D01*
X141412392Y-98874999D01*
X141267610Y-98874999D01*
X141125610Y-98903245D01*
X140991848Y-98958651D01*
X140871466Y-99039087D01*
X140769089Y-99141464D01*
X140688653Y-99261846D01*
X140633247Y-99395608D01*
X140605001Y-99537608D01*
X140605001Y-99682390D01*
X140633247Y-99824390D01*
X140688653Y-99958152D01*
X140769089Y-100078534D01*
X140871466Y-100180911D01*
X140991848Y-100261347D01*
X141125610Y-100316753D01*
X141205001Y-100332545D01*
X141205001Y-101503233D01*
X141198143Y-101498651D01*
X141064381Y-101443245D01*
X140922381Y-101414999D01*
X140777599Y-101414999D01*
X140635599Y-101443245D01*
X140535011Y-101484910D01*
X140535011Y-98589677D01*
X148949282Y-98589677D01*
X149630000Y-99270395D01*
X150310718Y-98589677D01*
X151489282Y-98589677D01*
X152170000Y-99270395D01*
X152850718Y-98589677D01*
X152772067Y-98405260D01*
X152556680Y-98307877D01*
X152326433Y-98254385D01*
X152090174Y-98246840D01*
X151856983Y-98285532D01*
X151635821Y-98368973D01*
X151567933Y-98405260D01*
X151489282Y-98589677D01*
X150310718Y-98589677D01*
X150232067Y-98405260D01*
X150016680Y-98307877D01*
X149786433Y-98254385D01*
X149550174Y-98246840D01*
X149316983Y-98285532D01*
X149095821Y-98368973D01*
X149027933Y-98405260D01*
X148949282Y-98589677D01*
X140535011Y-98589677D01*
X140535011Y-97721588D01*
X140721601Y-97534998D01*
X140772389Y-97534998D01*
X140914389Y-97506752D01*
X141048151Y-97451346D01*
X141168533Y-97370910D01*
X141270910Y-97268533D01*
X141351346Y-97148151D01*
X141406752Y-97014389D01*
X141434998Y-96872389D01*
X141434998Y-96801659D01*
X148530000Y-96801659D01*
X148530000Y-97018341D01*
X148572273Y-97230858D01*
X148655193Y-97431045D01*
X148775575Y-97611209D01*
X148928791Y-97764425D01*
X149108955Y-97884807D01*
X149309142Y-97967727D01*
X149521659Y-98010000D01*
X149738341Y-98010000D01*
X149950858Y-97967727D01*
X150151045Y-97884807D01*
X150331209Y-97764425D01*
X150484425Y-97611209D01*
X150604807Y-97431045D01*
X150687727Y-97230858D01*
X150730000Y-97018341D01*
X150730000Y-96801659D01*
X151070000Y-96801659D01*
X151070000Y-97018341D01*
X151112273Y-97230858D01*
X151195193Y-97431045D01*
X151315575Y-97611209D01*
X151468791Y-97764425D01*
X151648955Y-97884807D01*
X151849142Y-97967727D01*
X152061659Y-98010000D01*
X152278341Y-98010000D01*
X152490858Y-97967727D01*
X152691045Y-97884807D01*
X152871209Y-97764425D01*
X153024425Y-97611209D01*
X153144807Y-97431045D01*
X153227727Y-97230858D01*
X153270000Y-97018341D01*
X153270000Y-96801659D01*
X153227727Y-96589142D01*
X153144807Y-96388955D01*
X153024425Y-96208791D01*
X152871209Y-96055575D01*
X152691045Y-95935193D01*
X152490858Y-95852273D01*
X152278341Y-95810000D01*
X152061659Y-95810000D01*
X151849142Y-95852273D01*
X151648955Y-95935193D01*
X151468791Y-96055575D01*
X151315575Y-96208791D01*
X151195193Y-96388955D01*
X151112273Y-96589142D01*
X151070000Y-96801659D01*
X150730000Y-96801659D01*
X150687727Y-96589142D01*
X150604807Y-96388955D01*
X150484425Y-96208791D01*
X150331209Y-96055575D01*
X150151045Y-95935193D01*
X149950858Y-95852273D01*
X149738341Y-95810000D01*
X149521659Y-95810000D01*
X149309142Y-95852273D01*
X149108955Y-95935193D01*
X148928791Y-96055575D01*
X148775575Y-96208791D01*
X148655193Y-96388955D01*
X148572273Y-96589142D01*
X148530000Y-96801659D01*
X141434998Y-96801659D01*
X141434998Y-96727607D01*
X141406752Y-96585607D01*
X141351346Y-96451845D01*
X141270910Y-96331463D01*
X141168533Y-96229086D01*
X141048151Y-96148650D01*
X140914389Y-96093244D01*
X140772389Y-96064998D01*
X140627607Y-96064998D01*
X140485607Y-96093244D01*
X140351845Y-96148650D01*
X140231463Y-96229086D01*
X140191091Y-96269458D01*
X140155218Y-96215771D01*
X140052841Y-96113394D01*
X139932459Y-96032958D01*
X139798697Y-95977552D01*
X139656697Y-95949306D01*
X139511915Y-95949306D01*
X139369915Y-95977552D01*
X139319305Y-95998515D01*
X139319305Y-94261659D01*
X148530000Y-94261659D01*
X148530000Y-94478341D01*
X148572273Y-94690858D01*
X148655193Y-94891045D01*
X148775575Y-95071209D01*
X148928791Y-95224425D01*
X149108955Y-95344807D01*
X149309142Y-95427727D01*
X149521659Y-95470000D01*
X149738341Y-95470000D01*
X149950858Y-95427727D01*
X150151045Y-95344807D01*
X150331209Y-95224425D01*
X150484425Y-95071209D01*
X150604807Y-94891045D01*
X150687727Y-94690858D01*
X150730000Y-94478341D01*
X150730000Y-94261659D01*
X151070000Y-94261659D01*
X151070000Y-94478341D01*
X151112273Y-94690858D01*
X151195193Y-94891045D01*
X151315575Y-95071209D01*
X151468791Y-95224425D01*
X151648955Y-95344807D01*
X151849142Y-95427727D01*
X152061659Y-95470000D01*
X152278341Y-95470000D01*
X152490858Y-95427727D01*
X152691045Y-95344807D01*
X152871209Y-95224425D01*
X153024425Y-95071209D01*
X153144807Y-94891045D01*
X153227727Y-94690858D01*
X153270000Y-94478341D01*
X153270000Y-94261659D01*
X153227727Y-94049142D01*
X153144807Y-93848955D01*
X153024425Y-93668791D01*
X152871209Y-93515575D01*
X152691045Y-93395193D01*
X152490858Y-93312273D01*
X152278341Y-93270000D01*
X152061659Y-93270000D01*
X151849142Y-93312273D01*
X151648955Y-93395193D01*
X151468791Y-93515575D01*
X151315575Y-93668791D01*
X151195193Y-93848955D01*
X151112273Y-94049142D01*
X151070000Y-94261659D01*
X150730000Y-94261659D01*
X150687727Y-94049142D01*
X150604807Y-93848955D01*
X150484425Y-93668791D01*
X150331209Y-93515575D01*
X150151045Y-93395193D01*
X149950858Y-93312273D01*
X149738341Y-93270000D01*
X149521659Y-93270000D01*
X149309142Y-93312273D01*
X149108955Y-93395193D01*
X148928791Y-93515575D01*
X148775575Y-93668791D01*
X148655193Y-93848955D01*
X148572273Y-94049142D01*
X148530000Y-94261659D01*
X139319305Y-94261659D01*
X139319305Y-92337299D01*
X139619731Y-92036874D01*
X139640137Y-92020127D01*
X139656883Y-91999722D01*
X139656886Y-91999719D01*
X139706992Y-91938664D01*
X139722330Y-91909969D01*
X139756672Y-91845721D01*
X139787263Y-91744873D01*
X139795005Y-91666270D01*
X139795005Y-91666264D01*
X139797592Y-91639996D01*
X139795005Y-91613728D01*
X139795005Y-89914452D01*
X139830917Y-89878540D01*
X139911353Y-89758158D01*
X139966759Y-89624396D01*
X139995005Y-89482396D01*
X139995005Y-89337614D01*
X139966759Y-89195614D01*
X139911353Y-89061852D01*
X139830917Y-88941470D01*
X139728540Y-88839093D01*
X139608158Y-88758657D01*
X139474396Y-88703251D01*
X139332396Y-88675005D01*
X139187614Y-88675005D01*
X139045614Y-88703251D01*
X138911852Y-88758657D01*
X138791470Y-88839093D01*
X138689093Y-88941470D01*
X138608657Y-89061852D01*
X138553251Y-89195614D01*
X138525005Y-89337614D01*
X138525005Y-89482396D01*
X138553251Y-89624396D01*
X138608657Y-89758158D01*
X138689093Y-89878540D01*
X138725006Y-89914453D01*
X138725006Y-90348526D01*
X138674381Y-90327557D01*
X138532381Y-90299311D01*
X138387599Y-90299311D01*
X138245599Y-90327557D01*
X138111837Y-90382963D01*
X138064996Y-90414261D01*
X138064996Y-87556271D01*
X138067584Y-87529996D01*
X138057254Y-87425118D01*
X138026663Y-87324269D01*
X138008415Y-87290131D01*
X137976984Y-87231328D01*
X137910128Y-87149864D01*
X137889717Y-87133113D01*
X137605004Y-86848400D01*
X137605004Y-86797613D01*
X137576758Y-86655613D01*
X137521352Y-86521851D01*
X137440916Y-86401469D01*
X137338539Y-86299092D01*
X137218157Y-86218656D01*
X137084395Y-86163250D01*
X136942395Y-86135004D01*
X136797613Y-86135004D01*
X136655613Y-86163250D01*
X136521851Y-86218656D01*
X136401469Y-86299092D01*
X136299092Y-86401469D01*
X136218656Y-86521851D01*
X136170560Y-86637965D01*
X136082878Y-86550283D01*
X136066123Y-86529867D01*
X135984659Y-86463011D01*
X135891717Y-86413332D01*
X135864764Y-86405156D01*
X135821099Y-86361491D01*
X136014201Y-86272534D01*
X136120095Y-86042626D01*
X136179102Y-85796476D01*
X136188952Y-85543545D01*
X136149270Y-85293551D01*
X136061578Y-85056104D01*
X136014201Y-84967466D01*
X135821097Y-84878508D01*
X135079605Y-85620000D01*
X135093748Y-85634143D01*
X134914143Y-85813748D01*
X134900000Y-85799605D01*
X134885858Y-85813748D01*
X134706253Y-85634143D01*
X134720395Y-85620000D01*
X133978903Y-84878508D01*
X133785799Y-84967466D01*
X133679905Y-85197374D01*
X133620898Y-85443524D01*
X133611048Y-85696455D01*
X133650730Y-85946449D01*
X133738422Y-86183896D01*
X133785799Y-86272534D01*
X133978901Y-86361491D01*
X133965393Y-86374999D01*
X133871603Y-86374999D01*
X133488564Y-85991960D01*
X133499461Y-85965652D01*
X133545000Y-85736712D01*
X133545000Y-85503288D01*
X133499461Y-85274348D01*
X133410134Y-85058692D01*
X133280450Y-84864606D01*
X133115394Y-84699550D01*
X132921308Y-84569866D01*
X132705652Y-84480539D01*
X132476712Y-84435000D01*
X132243288Y-84435000D01*
X132014348Y-84480539D01*
X131798692Y-84569866D01*
X131604606Y-84699550D01*
X131439550Y-84864606D01*
X131309866Y-85058692D01*
X131220539Y-85274348D01*
X131175000Y-85503288D01*
X130735000Y-85503288D01*
X130735000Y-84001097D01*
X131618508Y-84001097D01*
X131707466Y-84194201D01*
X131937374Y-84300095D01*
X132183524Y-84359102D01*
X132436455Y-84368952D01*
X132686449Y-84329270D01*
X132923896Y-84241578D01*
X133012534Y-84194201D01*
X133101492Y-84001097D01*
X134158508Y-84001097D01*
X134247466Y-84194201D01*
X134477374Y-84300095D01*
X134692962Y-84351776D01*
X134573551Y-84370730D01*
X134336104Y-84458422D01*
X134247466Y-84505799D01*
X134158508Y-84698903D01*
X134900000Y-85440395D01*
X135641492Y-84698903D01*
X135552534Y-84505799D01*
X135322626Y-84399905D01*
X135107038Y-84348224D01*
X135226449Y-84329270D01*
X135463896Y-84241578D01*
X135552534Y-84194201D01*
X135641492Y-84001097D01*
X134900000Y-83259605D01*
X134158508Y-84001097D01*
X133101492Y-84001097D01*
X132360000Y-83259605D01*
X131618508Y-84001097D01*
X130735000Y-84001097D01*
X130735000Y-83156455D01*
X131071048Y-83156455D01*
X131110730Y-83406449D01*
X131198422Y-83643896D01*
X131245799Y-83732534D01*
X131438903Y-83821492D01*
X132180395Y-83080000D01*
X132539605Y-83080000D01*
X133281097Y-83821492D01*
X133474201Y-83732534D01*
X133580095Y-83502626D01*
X133631776Y-83287038D01*
X133650730Y-83406449D01*
X133738422Y-83643896D01*
X133785799Y-83732534D01*
X133978903Y-83821492D01*
X134720395Y-83080000D01*
X135079605Y-83080000D01*
X135821097Y-83821492D01*
X136014201Y-83732534D01*
X136120095Y-83502626D01*
X136179102Y-83256476D01*
X136188952Y-83003545D01*
X136149270Y-82753551D01*
X136061578Y-82516104D01*
X136014201Y-82427466D01*
X135821097Y-82338508D01*
X135079605Y-83080000D01*
X134720395Y-83080000D01*
X133978903Y-82338508D01*
X133785799Y-82427466D01*
X133679905Y-82657374D01*
X133628224Y-82872962D01*
X133609270Y-82753551D01*
X133521578Y-82516104D01*
X133474201Y-82427466D01*
X133281097Y-82338508D01*
X132539605Y-83080000D01*
X132180395Y-83080000D01*
X131438903Y-82338508D01*
X131245799Y-82427466D01*
X131139905Y-82657374D01*
X131080898Y-82903524D01*
X131071048Y-83156455D01*
X130735000Y-83156455D01*
X130735000Y-82158903D01*
X131618508Y-82158903D01*
X132360000Y-82900395D01*
X133101492Y-82158903D01*
X134158508Y-82158903D01*
X134900000Y-82900395D01*
X135641492Y-82158903D01*
X135552534Y-81965799D01*
X135322626Y-81859905D01*
X135076476Y-81800898D01*
X134823545Y-81791048D01*
X134573551Y-81830730D01*
X134336104Y-81918422D01*
X134247466Y-81965799D01*
X134158508Y-82158903D01*
X133101492Y-82158903D01*
X133012534Y-81965799D01*
X132782626Y-81859905D01*
X132536476Y-81800898D01*
X132283545Y-81791048D01*
X132033551Y-81830730D01*
X131796104Y-81918422D01*
X131707466Y-81965799D01*
X131618508Y-82158903D01*
X130735000Y-82158903D01*
X130735000Y-82145867D01*
X131505868Y-81375000D01*
X131519156Y-81375000D01*
X131604606Y-81460450D01*
X131798692Y-81590134D01*
X132014348Y-81679461D01*
X132243288Y-81725000D01*
X132476712Y-81725000D01*
X132705652Y-81679461D01*
X132921308Y-81590134D01*
X133115394Y-81460450D01*
X133200844Y-81375000D01*
X134059156Y-81375000D01*
X134144606Y-81460450D01*
X134338692Y-81590134D01*
X134554348Y-81679461D01*
X134783288Y-81725000D01*
X135016712Y-81725000D01*
X135245652Y-81679461D01*
X135461308Y-81590134D01*
X135655394Y-81460450D01*
X135820450Y-81295394D01*
X135950134Y-81101308D01*
X136039461Y-80885652D01*
X136085000Y-80656712D01*
X136085000Y-80535867D01*
X137985868Y-78635000D01*
X142519156Y-78635000D01*
X142604606Y-78720450D01*
X142798692Y-78850134D01*
X143014348Y-78939461D01*
X143243288Y-78985000D01*
X143476712Y-78985000D01*
X143705652Y-78939461D01*
X143921308Y-78850134D01*
X144115394Y-78720450D01*
X144280450Y-78555394D01*
X144410134Y-78361308D01*
X144499461Y-78145652D01*
X144545000Y-77916712D01*
X144545000Y-77683288D01*
X144499461Y-77454348D01*
X144410134Y-77238692D01*
X144280450Y-77044606D01*
X144185844Y-76950000D01*
X144713380Y-76950000D01*
X144713380Y-78650000D01*
X144719848Y-78715671D01*
X144739004Y-78778819D01*
X144770111Y-78837016D01*
X144811974Y-78888026D01*
X144862984Y-78929889D01*
X144921181Y-78960996D01*
X144984329Y-78980152D01*
X145050000Y-78986620D01*
X146750000Y-78986620D01*
X146815671Y-78980152D01*
X146878819Y-78960996D01*
X146937016Y-78929889D01*
X146988026Y-78888026D01*
X147029889Y-78837016D01*
X147060996Y-78778819D01*
X147080152Y-78715671D01*
X147086620Y-78650000D01*
X147086620Y-78635000D01*
X149898114Y-78635000D01*
X150807440Y-79544327D01*
X150807440Y-79777217D01*
X150856899Y-80025863D01*
X150953916Y-80260082D01*
X151094762Y-80470874D01*
X151274025Y-80650137D01*
X151315000Y-80677516D01*
X151315001Y-90995000D01*
X150723839Y-90995000D01*
X150705996Y-90936181D01*
X150674889Y-90877984D01*
X150633026Y-90826974D01*
X150582016Y-90785111D01*
X150523819Y-90754004D01*
X150460671Y-90734848D01*
X150395000Y-90728380D01*
X148865000Y-90728380D01*
X148799329Y-90734848D01*
X148736181Y-90754004D01*
X148677984Y-90785111D01*
X148626974Y-90826974D01*
X148585111Y-90877984D01*
X148554004Y-90936181D01*
X148534848Y-90999329D01*
X148528380Y-91065000D01*
X148528380Y-92595000D01*
X148534848Y-92660671D01*
X148554004Y-92723819D01*
X148585111Y-92782016D01*
X148626974Y-92833026D01*
X148677984Y-92874889D01*
X148736181Y-92905996D01*
X148799329Y-92925152D01*
X148865000Y-92931620D01*
X150395000Y-92931620D01*
X150460671Y-92925152D01*
X150523819Y-92905996D01*
X150582016Y-92874889D01*
X150633026Y-92833026D01*
X150674889Y-92782016D01*
X150705996Y-92723819D01*
X150723839Y-92665000D01*
X151449366Y-92665000D01*
X151468791Y-92684425D01*
X151648955Y-92804807D01*
X151849142Y-92887727D01*
X152061659Y-92930000D01*
X152278341Y-92930000D01*
X152490858Y-92887727D01*
X152691045Y-92804807D01*
X152871209Y-92684425D01*
X153024425Y-92531209D01*
X153144807Y-92351045D01*
X153227727Y-92150858D01*
X153270000Y-91938341D01*
X153270000Y-91721659D01*
X153227727Y-91509142D01*
X153144807Y-91308955D01*
X153024425Y-91128791D01*
X152985000Y-91089366D01*
X152985000Y-80644418D01*
X155090086Y-80644418D01*
X155191391Y-80847953D01*
X155438711Y-80964053D01*
X155703929Y-81029671D01*
X155976853Y-81042288D01*
X156246994Y-81001418D01*
X156503971Y-80908630D01*
X156617489Y-80847953D01*
X156718794Y-80644418D01*
X155904440Y-79830064D01*
X155090086Y-80644418D01*
X152985000Y-80644418D01*
X152985000Y-80579992D01*
X153094118Y-80470874D01*
X153234964Y-80260082D01*
X153331981Y-80025863D01*
X153381440Y-79777217D01*
X153381440Y-79722872D01*
X154512611Y-79722872D01*
X154553481Y-79993013D01*
X154646269Y-80249990D01*
X154706946Y-80363508D01*
X154910481Y-80464813D01*
X155724835Y-79650459D01*
X156084045Y-79650459D01*
X156898399Y-80464813D01*
X157101934Y-80363508D01*
X157218034Y-80116188D01*
X157283652Y-79850970D01*
X157296269Y-79578046D01*
X157255399Y-79307905D01*
X157162611Y-79050928D01*
X157101934Y-78937410D01*
X156898399Y-78836105D01*
X156084045Y-79650459D01*
X155724835Y-79650459D01*
X154910481Y-78836105D01*
X154706946Y-78937410D01*
X154590846Y-79184730D01*
X154525228Y-79449948D01*
X154512611Y-79722872D01*
X153381440Y-79722872D01*
X153381440Y-79523701D01*
X153331981Y-79275055D01*
X153234964Y-79040836D01*
X153094118Y-78830044D01*
X152920574Y-78656500D01*
X155090086Y-78656500D01*
X155904440Y-79470854D01*
X156620045Y-78755249D01*
X165515000Y-78755249D01*
X165515000Y-79244751D01*
X165610497Y-79724848D01*
X165797821Y-80177089D01*
X166069774Y-80584095D01*
X166415905Y-80930226D01*
X166822911Y-81202179D01*
X167275152Y-81389503D01*
X167755249Y-81485000D01*
X168244751Y-81485000D01*
X168724848Y-81389503D01*
X169177089Y-81202179D01*
X169584095Y-80930226D01*
X169930226Y-80584095D01*
X170202179Y-80177089D01*
X170389503Y-79724848D01*
X170485000Y-79244751D01*
X170485000Y-78755249D01*
X170389503Y-78275152D01*
X170202179Y-77822911D01*
X169930226Y-77415905D01*
X169584095Y-77069774D01*
X169177089Y-76797821D01*
X168724848Y-76610497D01*
X168244751Y-76515000D01*
X167755249Y-76515000D01*
X167275152Y-76610497D01*
X166822911Y-76797821D01*
X166415905Y-77069774D01*
X166069774Y-77415905D01*
X165797821Y-77822911D01*
X165610497Y-78275152D01*
X165515000Y-78755249D01*
X156620045Y-78755249D01*
X156718794Y-78656500D01*
X156617489Y-78452965D01*
X156370169Y-78336865D01*
X156104951Y-78271247D01*
X155832027Y-78258630D01*
X155561886Y-78299500D01*
X155304909Y-78392288D01*
X155191391Y-78452965D01*
X155090086Y-78656500D01*
X152920574Y-78656500D01*
X152914855Y-78650781D01*
X152704063Y-78509935D01*
X152469844Y-78412918D01*
X152221198Y-78363459D01*
X151988308Y-78363459D01*
X150863427Y-77238579D01*
X150837272Y-77206709D01*
X150710127Y-77102364D01*
X150565068Y-77024828D01*
X150407670Y-76977082D01*
X150285000Y-76965000D01*
X150284999Y-76965000D01*
X150243981Y-76960960D01*
X150202963Y-76965000D01*
X147086620Y-76965000D01*
X147086620Y-76950000D01*
X147080152Y-76884329D01*
X147060996Y-76821181D01*
X147029889Y-76762984D01*
X146988026Y-76711974D01*
X146937016Y-76670111D01*
X146878819Y-76639004D01*
X146815671Y-76619848D01*
X146750000Y-76613380D01*
X145050000Y-76613380D01*
X144984329Y-76619848D01*
X144921181Y-76639004D01*
X144862984Y-76670111D01*
X144811974Y-76711974D01*
X144770111Y-76762984D01*
X144739004Y-76821181D01*
X144719848Y-76884329D01*
X144713380Y-76950000D01*
X144185844Y-76950000D01*
X144115394Y-76879550D01*
X143921308Y-76749866D01*
X143705652Y-76660539D01*
X143476712Y-76615000D01*
X143243288Y-76615000D01*
X143014348Y-76660539D01*
X142798692Y-76749866D01*
X142604606Y-76879550D01*
X142519156Y-76965000D01*
X137681018Y-76965000D01*
X137639999Y-76960960D01*
X137598981Y-76965000D01*
X137476311Y-76977082D01*
X137318913Y-77024828D01*
X137173854Y-77102364D01*
X137046709Y-77206709D01*
X137020559Y-77238573D01*
X134904133Y-79355000D01*
X134783288Y-79355000D01*
X134554348Y-79400539D01*
X134338692Y-79489866D01*
X134144606Y-79619550D01*
X134059156Y-79705000D01*
X133200844Y-79705000D01*
X133115394Y-79619550D01*
X132921308Y-79489866D01*
X132705652Y-79400539D01*
X132476712Y-79355000D01*
X132243288Y-79355000D01*
X132014348Y-79400539D01*
X131798692Y-79489866D01*
X131604606Y-79619550D01*
X131519156Y-79705000D01*
X131201018Y-79705000D01*
X131159999Y-79700960D01*
X131118981Y-79705000D01*
X130996311Y-79717082D01*
X130838913Y-79764828D01*
X130693854Y-79842364D01*
X130566709Y-79946709D01*
X130540561Y-79978571D01*
X129338574Y-81180559D01*
X129306710Y-81206709D01*
X129280562Y-81238571D01*
X129202364Y-81333855D01*
X129124828Y-81478914D01*
X129077082Y-81636312D01*
X129060960Y-81800000D01*
X112360000Y-81800000D01*
X112360000Y-78755249D01*
X114515000Y-78755249D01*
X114515000Y-79244751D01*
X114610497Y-79724848D01*
X114797821Y-80177089D01*
X115069774Y-80584095D01*
X115415905Y-80930226D01*
X115822911Y-81202179D01*
X116275152Y-81389503D01*
X116755249Y-81485000D01*
X117244751Y-81485000D01*
X117724848Y-81389503D01*
X118177089Y-81202179D01*
X118584095Y-80930226D01*
X118930226Y-80584095D01*
X119202179Y-80177089D01*
X119389503Y-79724848D01*
X119485000Y-79244751D01*
X119485000Y-78755249D01*
X119389503Y-78275152D01*
X119202179Y-77822911D01*
X118930226Y-77415905D01*
X118584095Y-77069774D01*
X118177089Y-76797821D01*
X117724848Y-76610497D01*
X117244751Y-76515000D01*
X116755249Y-76515000D01*
X116275152Y-76610497D01*
X115822911Y-76797821D01*
X115415905Y-77069774D01*
X115069774Y-77415905D01*
X114797821Y-77822911D01*
X114610497Y-78275152D01*
X114515000Y-78755249D01*
X112360000Y-78755249D01*
X112360000Y-74360000D01*
X172640000Y-74360000D01*
X172640001Y-134640000D01*
G37*
%TD.AperFunction*%
%TD*%
M02*
