M48
; DRILL file {KiCad 7.0.5} date Mon Jul  3 18:28:24 2023
; FORMAT={-:-/ absolute / inch / decimal}
; #@! TF.CreationDate,2023-07-03T18:28:24-04:00
; #@! TF.GenerationSoftware,Kicad,Pcbnew,7.0.5
; #@! TF.FileFunction,Plated,1,2,PTH
FMAT,2
INCH
; #@! TA.AperFunction,Plated,PTH,ViaDrill
T1C0.0157
; #@! TA.AperFunction,Plated,PTH,ComponentDrill
T2C0.0299
; #@! TA.AperFunction,Plated,PTH,ComponentDrill
T3C0.0300
; #@! TA.AperFunction,Plated,PTH,ComponentDrill
T4C0.0315
; #@! TA.AperFunction,Plated,PTH,ComponentDrill
T5C0.0354
; #@! TA.AperFunction,Plated,PTH,ComponentDrill
T6C0.0374
; #@! TA.AperFunction,Plated,PTH,ComponentDrill
T7C0.0394
; #@! TA.AperFunction,Plated,PTH,ComponentDrill
T8C0.0433
; #@! TA.AperFunction,Plated,PTH,ComponentDrill
T9C0.0512
%
G90
G05
T1
X4.7283Y-4.6811
X4.7283Y-4.8543
X4.7283Y-5.122
X4.7717Y-3.6575
X4.7795Y-3.4646
X4.7874Y-3.126
X4.811Y-4.7638
X4.8228Y-5.0039
X4.8602Y-2.8701
X4.9715Y-4.4508
X4.9793Y-4.2638
X4.9803Y-4.7244
X4.9872Y-4.3602
X4.9902Y-3.7559
X5.0079Y-3.563
X5.0236Y-3.3189
X5.0236Y-5.3543
X5.0276Y-3.2008
X5.1024Y-5.122
X5.1181Y-2.4016
X5.1181Y-2.6772
X5.1181Y-2.8602
X5.1191Y-3.565
X5.1299Y-3.7884
X5.1614Y-3.6496
X5.1969Y-4.5512
X5.2008Y-4.0148
X5.2165Y-4.7835
X5.2244Y-4.6732
X5.2283Y-5.1969
X5.248Y-5.3504
X5.2756Y-2.874
X5.2904Y-3.9872
X5.3248Y-3.565
X5.3396Y-3.9065
X5.374Y-4.9331
X5.4291Y-4.3602
X5.437Y-4.4547
X5.44Y-3.6486
X5.4449Y-2.9724
X5.4508Y-4.2697
X5.4606Y-3.189
X5.5157Y-4.2146
X5.5512Y-2.4016
X5.5512Y-2.6772
X5.5787Y-3.1102
X5.5817Y-4.1594
X5.5827Y-3.6693
X5.5906Y-4.6063
X5.6024Y-5.3504
X5.6417Y-3.6024
X5.6693Y-2.874
X5.7087Y-4.6063
X5.7283Y-3.4803
X5.748Y-3.2539
X5.748Y-3.8976
X5.7874Y-4.3307
X5.7992Y-4.9409
X5.8071Y-4.6063
X5.8898Y-3.689
X5.8976Y-5.0551
X5.9075Y-5.3484
X5.9134Y-4.6102
X5.9409Y-3.6181
X5.9449Y-3.3071
X5.9843Y-2.874
X6.0236Y-3.8976
X6.0236Y-4.2126
X6.0354Y-3.7165
X6.0433Y-4.6102
X6.063Y-2.4016
X6.063Y-2.6772
X6.0984Y-5.0512
X6.1063Y-5.1614
X6.1181Y-4.9331
X6.1575Y-3.5984
X6.1811Y-4.2126
X6.1811Y-4.4882
X6.2008Y-5.2913
X6.2402Y-3.5945
X6.3386Y-2.874
X6.3386Y-3.3071
X6.3386Y-3.8976
X6.3386Y-4.2126
X6.3386Y-4.4882
X6.4547Y-4.9459
X6.4567Y-2.4016
X6.4567Y-2.6772
X6.4685Y-5.0984
X6.4803Y-5.2756
X6.4882Y-3.5197
X6.5148Y-4.7913
X6.5276Y-3.6693
X6.5354Y-4.2126
X6.5354Y-4.4882
X6.5354Y-5.3543
X6.6142Y-2.874
X6.6142Y-3.3071
X6.6496Y-5.1614
X6.6772Y-3.6654
X6.7323Y-2.4016
X6.7323Y-2.6772
X6.7323Y-3.8976
X6.7323Y-4.2126
X6.7323Y-4.4882
X6.8268Y-3.6614
X6.9291Y-3.8976
X6.9291Y-4.2126
X6.9291Y-4.4882
X6.9291Y-4.8031
X7.0079Y-2.874
X7.0079Y-3.3071
X7.126Y-3.435
X7.126Y-3.6614
X7.126Y-3.8976
X7.126Y-4.2126
X7.126Y-4.4882
X7.126Y-4.8031
T2
X5.3193Y-3.4858
X5.3693Y-3.3858
X5.4193Y-3.4858
X5.4693Y-3.3858
X5.5193Y-3.4858
X5.5693Y-3.3858
X5.6193Y-3.4858
X5.6693Y-3.3858
X6.0492Y-3.4039
X6.0992Y-3.5039
X6.1492Y-3.4039
X6.1992Y-3.5039
X6.2492Y-3.4039
X6.2992Y-3.5039
X6.6791Y-3.4039
X6.7291Y-3.5039
X6.7791Y-3.4039
X6.8291Y-3.5039
X6.8791Y-3.4039
X6.9291Y-3.5039
T3
X5.3441Y-3.7924
X5.3441Y-4.6924
X5.4441Y-3.7924
X5.4441Y-4.6924
X5.5441Y-3.7924
X5.5441Y-4.6924
X5.6441Y-3.7924
X5.6441Y-4.6924
X5.7441Y-3.7924
X5.7441Y-4.6924
X5.8441Y-3.7924
X5.8441Y-4.6924
X5.9441Y-3.7924
X5.9441Y-4.6924
X6.0441Y-3.7924
X6.0441Y-4.6924
X6.1441Y-3.7924
X6.1441Y-4.6924
X6.2441Y-3.7924
X6.2441Y-4.6924
X6.3441Y-3.7924
X6.3441Y-4.6924
X6.4441Y-3.7924
X6.4441Y-4.6924
X6.5441Y-3.7924
X6.5441Y-4.6924
T4
X5.0632Y-3.6496
X5.3632Y-3.6496
X5.4878Y-4.8465
X5.7878Y-4.8465
X6.2835Y-4.8583
X6.2835Y-4.9567
X6.2835Y-5.122
X6.2835Y-5.2205
X6.4474Y-3.6673
X6.7474Y-3.6673
T5
X5.913Y-4.8465
X6.013Y-4.8465
T6
X4.873Y-3.7008
X4.873Y-3.7992
X4.873Y-3.8976
T7
X4.8799Y-4.3094
X4.8799Y-4.4094
X4.8799Y-4.5094
X4.8799Y-4.6094
T8
X5.837Y-5.1654
X5.937Y-5.1654
X6.037Y-5.1654
T9
X4.8819Y-3.0315
X4.8819Y-3.2283
X4.8819Y-3.4252
X4.9604Y-5.0354
X4.9604Y-5.2323
T7
G00X6.6339Y-5.0692
M15
G01X6.6339Y-4.9905
M16
G05
G00X6.7913Y-4.8448
M15
G01X6.7126Y-4.8448
M16
G05
G00X6.8701Y-5.0692
M15
G01X6.8701Y-4.9905
M16
G05
T0
M30
