%TF.GenerationSoftware,KiCad,Pcbnew,7.0.5*%
%TF.CreationDate,2023-07-03T18:28:24-04:00*%
%TF.ProjectId,Weather_ESP32,57656174-6865-4725-9f45-535033322e6b,v2*%
%TF.SameCoordinates,Original*%
%TF.FileFunction,Legend,Bot*%
%TF.FilePolarity,Positive*%
%FSLAX46Y46*%
G04 Gerber Fmt 4.6, Leading zero omitted, Abs format (unit mm)*
G04 Created by KiCad (PCBNEW 7.0.5) date 2023-07-03 18:28:24*
%MOMM*%
%LPD*%
G01*
G04 APERTURE LIST*
G04 Aperture macros list*
%AMRoundRect*
0 Rectangle with rounded corners*
0 $1 Rounding radius*
0 $2 $3 $4 $5 $6 $7 $8 $9 X,Y pos of 4 corners*
0 Add a 4 corners polygon primitive as box body*
4,1,4,$2,$3,$4,$5,$6,$7,$8,$9,$2,$3,0*
0 Add four circle primitives for the rounded corners*
1,1,$1+$1,$2,$3*
1,1,$1+$1,$4,$5*
1,1,$1+$1,$6,$7*
1,1,$1+$1,$8,$9*
0 Add four rect primitives between the rounded corners*
20,1,$1+$1,$2,$3,$4,$5,0*
20,1,$1+$1,$4,$5,$6,$7,0*
20,1,$1+$1,$6,$7,$8,$9,0*
20,1,$1+$1,$8,$9,$2,$3,0*%
%AMFreePoly0*
4,1,35,0.586062,0.786062,0.601000,0.750000,0.601000,-0.750000,0.586062,-0.786062,0.550000,-0.801000,0.000000,-0.801000,-0.012285,-0.795911,-0.071157,-0.795911,-0.085525,-0.793845,-0.222076,-0.753750,-0.235281,-0.747720,-0.355003,-0.670779,-0.365973,-0.661273,-0.459170,-0.553718,-0.467018,-0.541506,-0.526137,-0.412052,-0.530227,-0.398124,-0.550481,-0.257258,-0.551000,-0.250000,-0.551000,0.250000,
-0.550481,0.257258,-0.530227,0.398124,-0.526137,0.412052,-0.467018,0.541506,-0.459170,0.553718,-0.365973,0.661273,-0.355003,0.670779,-0.235281,0.747720,-0.222076,0.753750,-0.085525,0.793845,-0.071157,0.795911,-0.012285,0.795911,0.000000,0.801000,0.550000,0.801000,0.586062,0.786062,0.586062,0.786062,$1*%
%AMFreePoly1*
4,1,35,0.012285,0.795911,0.071157,0.795911,0.085525,0.793845,0.222076,0.753750,0.235281,0.747720,0.355003,0.670779,0.365973,0.661273,0.459170,0.553718,0.467018,0.541506,0.526137,0.412052,0.530227,0.398124,0.550481,0.257258,0.551000,0.250000,0.551000,-0.250000,0.550481,-0.257258,0.530227,-0.398124,0.526137,-0.412052,0.467018,-0.541506,0.459170,-0.553718,0.365973,-0.661273,
0.355003,-0.670779,0.235281,-0.747720,0.222076,-0.753750,0.085525,-0.793845,0.071157,-0.795911,0.012285,-0.795911,0.000000,-0.801000,-0.550000,-0.801000,-0.586062,-0.786062,-0.601000,-0.750000,-0.601000,0.750000,-0.586062,0.786062,-0.550000,0.801000,0.000000,0.801000,0.012285,0.795911,0.012285,0.795911,$1*%
G04 Aperture macros list end*
%ADD10C,0.150000*%
%ADD11C,0.120000*%
%ADD12C,1.702000*%
%ADD13O,1.702000X1.702000*%
%ADD14C,3.302000*%
%ADD15RoundRect,0.051000X0.750000X0.750000X-0.750000X0.750000X-0.750000X-0.750000X0.750000X-0.750000X0*%
%ADD16C,1.602000*%
%ADD17C,1.626000*%
%ADD18RoundRect,0.051000X0.762000X-0.762000X0.762000X0.762000X-0.762000X0.762000X-0.762000X-0.762000X0*%
%ADD19FreePoly0,180.000000*%
%ADD20RoundRect,0.051000X0.500000X0.750000X-0.500000X0.750000X-0.500000X-0.750000X0.500000X-0.750000X0*%
%ADD21FreePoly1,180.000000*%
%ADD22RoundRect,0.051000X-1.300000X1.300000X-1.300000X-1.300000X1.300000X-1.300000X1.300000X1.300000X0*%
%ADD23C,2.702000*%
%ADD24RoundRect,0.051000X0.800000X-0.800000X0.800000X0.800000X-0.800000X0.800000X-0.800000X-0.800000X0*%
%ADD25RoundRect,0.051000X-0.800000X0.800000X-0.800000X-0.800000X0.800000X-0.800000X0.800000X0.800000X0*%
%ADD26C,3.802000*%
%ADD27C,3.352000*%
%ADD28RoundRect,0.051000X0.760000X0.760000X-0.760000X0.760000X-0.760000X-0.760000X0.760000X-0.760000X0*%
%ADD29C,1.622000*%
%ADD30RoundRect,0.051000X0.952500X1.000000X-0.952500X1.000000X-0.952500X-1.000000X0.952500X-1.000000X0*%
%ADD31O,2.007000X2.102000*%
%ADD32RoundRect,0.051000X1.750000X1.750000X-1.750000X1.750000X-1.750000X-1.750000X1.750000X-1.750000X0*%
%ADD33RoundRect,0.801000X0.750000X1.000000X-0.750000X1.000000X-0.750000X-1.000000X0.750000X-1.000000X0*%
%ADD34RoundRect,0.926000X0.875000X0.875000X-0.875000X0.875000X-0.875000X-0.875000X0.875000X-0.875000X0*%
%ADD35RoundRect,0.301000X-0.725000X0.600000X-0.725000X-0.600000X0.725000X-0.600000X0.725000X0.600000X0*%
%ADD36O,2.052000X1.802000*%
%ADD37O,1.802000X1.802000*%
%ADD38RoundRect,0.051000X0.850000X0.850000X-0.850000X0.850000X-0.850000X-0.850000X0.850000X-0.850000X0*%
%ADD39RoundRect,0.051000X-0.900000X-0.900000X0.900000X-0.900000X0.900000X0.900000X-0.900000X0.900000X0*%
%ADD40C,1.902000*%
G04 APERTURE END LIST*
D10*
X124039411Y-124769819D02*
X124610839Y-124769819D01*
X124325125Y-124769819D02*
X124325125Y-123769819D01*
X124325125Y-123769819D02*
X124420363Y-123912676D01*
X124420363Y-123912676D02*
X124515601Y-124007914D01*
X124515601Y-124007914D02*
X124610839Y-124055533D01*
X123658458Y-123865057D02*
X123610839Y-123817438D01*
X123610839Y-123817438D02*
X123515601Y-123769819D01*
X123515601Y-123769819D02*
X123277506Y-123769819D01*
X123277506Y-123769819D02*
X123182268Y-123817438D01*
X123182268Y-123817438D02*
X123134649Y-123865057D01*
X123134649Y-123865057D02*
X123087030Y-123960295D01*
X123087030Y-123960295D02*
X123087030Y-124055533D01*
X123087030Y-124055533D02*
X123134649Y-124198390D01*
X123134649Y-124198390D02*
X123706077Y-124769819D01*
X123706077Y-124769819D02*
X123087030Y-124769819D01*
X122801315Y-123769819D02*
X122467982Y-124769819D01*
X122467982Y-124769819D02*
X122134649Y-123769819D01*
X126487030Y-123869819D02*
X126963220Y-123869819D01*
X126963220Y-123869819D02*
X127010839Y-124346009D01*
X127010839Y-124346009D02*
X126963220Y-124298390D01*
X126963220Y-124298390D02*
X126867982Y-124250771D01*
X126867982Y-124250771D02*
X126629887Y-124250771D01*
X126629887Y-124250771D02*
X126534649Y-124298390D01*
X126534649Y-124298390D02*
X126487030Y-124346009D01*
X126487030Y-124346009D02*
X126439411Y-124441247D01*
X126439411Y-124441247D02*
X126439411Y-124679342D01*
X126439411Y-124679342D02*
X126487030Y-124774580D01*
X126487030Y-124774580D02*
X126534649Y-124822200D01*
X126534649Y-124822200D02*
X126629887Y-124869819D01*
X126629887Y-124869819D02*
X126867982Y-124869819D01*
X126867982Y-124869819D02*
X126963220Y-124822200D01*
X126963220Y-124822200D02*
X127010839Y-124774580D01*
X126153696Y-123869819D02*
X125820363Y-124869819D01*
X125820363Y-124869819D02*
X125487030Y-123869819D01*
%TO.C,JP1*%
X125733333Y-120054819D02*
X125733333Y-120769104D01*
X125733333Y-120769104D02*
X125780952Y-120911961D01*
X125780952Y-120911961D02*
X125876190Y-121007200D01*
X125876190Y-121007200D02*
X126019047Y-121054819D01*
X126019047Y-121054819D02*
X126114285Y-121054819D01*
X125257142Y-121054819D02*
X125257142Y-120054819D01*
X125257142Y-120054819D02*
X124876190Y-120054819D01*
X124876190Y-120054819D02*
X124780952Y-120102438D01*
X124780952Y-120102438D02*
X124733333Y-120150057D01*
X124733333Y-120150057D02*
X124685714Y-120245295D01*
X124685714Y-120245295D02*
X124685714Y-120388152D01*
X124685714Y-120388152D02*
X124733333Y-120483390D01*
X124733333Y-120483390D02*
X124780952Y-120531009D01*
X124780952Y-120531009D02*
X124876190Y-120578628D01*
X124876190Y-120578628D02*
X125257142Y-120578628D01*
X123733333Y-121054819D02*
X124304761Y-121054819D01*
X124019047Y-121054819D02*
X124019047Y-120054819D01*
X124019047Y-120054819D02*
X124114285Y-120197676D01*
X124114285Y-120197676D02*
X124209523Y-120292914D01*
X124209523Y-120292914D02*
X124304761Y-120340533D01*
X122633332Y-121854819D02*
X122014285Y-121854819D01*
X122014285Y-121854819D02*
X122347618Y-122235771D01*
X122347618Y-122235771D02*
X122204761Y-122235771D01*
X122204761Y-122235771D02*
X122109523Y-122283390D01*
X122109523Y-122283390D02*
X122061904Y-122331009D01*
X122061904Y-122331009D02*
X122014285Y-122426247D01*
X122014285Y-122426247D02*
X122014285Y-122664342D01*
X122014285Y-122664342D02*
X122061904Y-122759580D01*
X122061904Y-122759580D02*
X122109523Y-122807200D01*
X122109523Y-122807200D02*
X122204761Y-122854819D01*
X122204761Y-122854819D02*
X122490475Y-122854819D01*
X122490475Y-122854819D02*
X122585713Y-122807200D01*
X122585713Y-122807200D02*
X122633332Y-122759580D01*
X127214285Y-122854819D02*
X127785713Y-122854819D01*
X127499999Y-122854819D02*
X127499999Y-121854819D01*
X127499999Y-121854819D02*
X127595237Y-121997676D01*
X127595237Y-121997676D02*
X127690475Y-122092914D01*
X127690475Y-122092914D02*
X127785713Y-122140533D01*
D11*
X126300000Y-121400000D02*
X123500000Y-121400000D01*
X122850000Y-122100000D02*
X122850000Y-122700000D01*
X123500000Y-123400000D02*
X126300000Y-123400000D01*
X126950000Y-122700000D02*
X126950000Y-122100000D01*
X123550000Y-121400000D02*
G75*
G03*
X122850000Y-122100000I0J-700000D01*
G01*
X126250000Y-123400000D02*
G75*
G03*
X126950000Y-122700000I1J699999D01*
G01*
X126950000Y-122100000D02*
G75*
G03*
X126250000Y-121400000I-699999J1D01*
G01*
X122850000Y-122700000D02*
G75*
G03*
X123550000Y-123400000I700000J0D01*
G01*
%TD*%
%LPC*%
D12*
%TO.C,R3*%
X136225000Y-92700000D03*
D13*
X128605000Y-92700000D03*
%TD*%
D14*
%TO.C,J6*%
X145270000Y-79650000D03*
X133840000Y-79650000D03*
D15*
X144000000Y-86000000D03*
D16*
X142730000Y-88540000D03*
X141460000Y-86000000D03*
X140190000Y-88540000D03*
X138920000Y-86000000D03*
X137650000Y-88540000D03*
X136380000Y-86000000D03*
X135110000Y-88540000D03*
%TD*%
D17*
%TO.C,U1*%
X135739680Y-119186120D03*
D18*
X138279680Y-119186120D03*
D17*
X140819680Y-119186120D03*
X143359680Y-119186120D03*
X145899680Y-119186120D03*
X148439680Y-119186120D03*
X150979680Y-119186120D03*
X153519680Y-119186120D03*
D18*
X156059680Y-119186120D03*
D17*
X158599680Y-119186120D03*
D18*
X161139680Y-119186120D03*
D17*
X163679680Y-119186120D03*
X166219680Y-119186120D03*
X135739680Y-96326120D03*
X138279680Y-96326120D03*
X140819680Y-96326120D03*
D18*
X143359680Y-96326120D03*
D17*
X145899680Y-96326120D03*
X148439680Y-96326120D03*
X150979680Y-96326120D03*
X153519680Y-96326120D03*
X156059680Y-96326120D03*
X158599680Y-96326120D03*
X161139680Y-96326120D03*
X163679680Y-96326120D03*
D18*
X166219680Y-96326120D03*
%TD*%
D19*
%TO.C,JP1*%
X126200000Y-122400000D03*
D20*
X124900000Y-122400000D03*
D21*
X123600000Y-122400000D03*
%TD*%
D22*
%TO.C,J3*%
X124000000Y-77000000D03*
D23*
X124000000Y-82000000D03*
X124000000Y-87000000D03*
%TD*%
D12*
%TO.C,R1*%
X171385000Y-93150000D03*
D13*
X163765000Y-93150000D03*
%TD*%
D23*
%TO.C,J1*%
X125995000Y-132900000D03*
D22*
X125995000Y-127900000D03*
%TD*%
D12*
%TO.C,C1*%
X159600000Y-130100000D03*
D24*
X159600000Y-132600000D03*
%TD*%
D25*
%TO.C,C2*%
X159600000Y-123400000D03*
D12*
X159600000Y-125900000D03*
%TD*%
D26*
%TO.C,H1*%
X176000000Y-140000000D03*
%TD*%
%TO.C,H2*%
X125000000Y-63000000D03*
%TD*%
%TO.C,H3*%
X176000000Y-63000000D03*
%TD*%
%TO.C,H4*%
X125000000Y-140000000D03*
%TD*%
D27*
%TO.C,J4*%
X177910000Y-80110000D03*
X167750000Y-80110000D03*
D28*
X176000000Y-89000000D03*
D29*
X174730000Y-86460000D03*
X173460000Y-89000000D03*
X172190000Y-86460000D03*
X170920000Y-89000000D03*
X169650000Y-86460000D03*
%TD*%
D27*
%TO.C,J5*%
X161910000Y-80110000D03*
X151750000Y-80110000D03*
D28*
X160000000Y-89000000D03*
D29*
X158730000Y-86460000D03*
X157460000Y-89000000D03*
X156190000Y-86460000D03*
X154920000Y-89000000D03*
X153650000Y-86460000D03*
%TD*%
D30*
%TO.C,U2*%
X153340000Y-131200000D03*
D31*
X150800000Y-131200000D03*
X148260000Y-131200000D03*
%TD*%
D32*
%TO.C,J2*%
X168500000Y-127757500D03*
D33*
X174500000Y-127757500D03*
D34*
X171500000Y-123057500D03*
%TD*%
D12*
%TO.C,R2*%
X139390000Y-123100000D03*
D13*
X147010000Y-123100000D03*
%TD*%
D35*
%TO.C,J8*%
X123775000Y-94000000D03*
D36*
X123775000Y-96500000D03*
X123775000Y-99000000D03*
%TD*%
D37*
%TO.C,J7*%
X123950000Y-109460000D03*
X123950000Y-112000000D03*
X123950000Y-114540000D03*
D38*
X123950000Y-117080000D03*
%TD*%
D39*
%TO.C,D1*%
X150190000Y-123100000D03*
D40*
X152730000Y-123100000D03*
%TD*%
%LPD*%
M02*
