M48
; DRILL file {KiCad (6.0.11)} date Mon Feb 20 01:39:33 2023
; FORMAT={-:-/ absolute / inch / decimal}
; #@! TF.CreationDate,2023-02-20T01:39:33-05:00
; #@! TF.GenerationSoftware,Kicad,Pcbnew,(6.0.11)
; #@! TF.FileFunction,Plated,1,2,PTH
FMAT,2
INCH
; #@! TA.AperFunction,Plated,PTH,ViaDrill
T1C0.0157
; #@! TA.AperFunction,Plated,PTH,ComponentDrill
T2C0.0299
; #@! TA.AperFunction,Plated,PTH,ComponentDrill
T3C0.0315
; #@! TA.AperFunction,Plated,PTH,ComponentDrill
T4C0.0354
; #@! TA.AperFunction,Plated,PTH,ComponentDrill
T5C0.0394
; #@! TA.AperFunction,Plated,PTH,ComponentDrill
T6C0.0402
; #@! TA.AperFunction,Plated,PTH,ComponentDrill
T7C0.0433
; #@! TA.AperFunction,Plated,PTH,ComponentDrill
T8C0.0512
%
G90
G05
T1
X4.7874Y-4.8622
X5.3071Y-3.6457
X5.374Y-5.2008
X5.4094Y-3.7283
X5.5394Y-3.6299
X5.7874Y-4.7913
X5.9016Y-5.1969
X5.9449Y-3.5236
X6.1024Y-4.9016
X6.1693Y-4.4291
X6.2205Y-3.6693
X6.2323Y-3.5906
X6.4882Y-3.5866
X6.8504Y-4.4331
X6.8661Y-4.2323
X6.8661Y-4.3307
X6.8701Y-4.0394
X6.9528Y-3.7913
X6.9843Y-3.8858
T2
X5.3193Y-3.4858
X5.3693Y-3.3858
X5.4193Y-3.4858
X5.4693Y-3.3858
X5.5193Y-3.4858
X5.5693Y-3.3858
X5.6193Y-3.4858
X5.6693Y-3.3858
X6.0492Y-3.4039
X6.0992Y-3.5039
X6.1492Y-3.4039
X6.1992Y-3.5039
X6.2492Y-3.4039
X6.2992Y-3.5039
X6.6791Y-3.4039
X6.7291Y-3.5039
X6.7791Y-3.4039
X6.8291Y-3.5039
X6.8791Y-3.4039
X6.9291Y-3.5039
T3
X5.4134Y-4.8819
X5.5118Y-4.8819
X5.7087Y-5.0197
X5.7087Y-5.1181
X5.8343Y-3.6378
X6.1343Y-3.6378
X6.1492Y-4.8031
X6.4492Y-4.8031
T4
X5.9291Y-4.8031
X6.0291Y-4.8031
T6
X4.9398Y-3.8665
X4.9398Y-4.5665
X5.0398Y-3.8665
X5.0398Y-4.5665
X5.1398Y-3.8665
X5.1398Y-4.5665
X5.2398Y-3.8665
X5.2398Y-4.5665
X5.3398Y-3.8665
X5.3398Y-4.5665
X5.4398Y-3.8665
X5.4398Y-4.5665
X5.5398Y-3.8665
X5.5398Y-4.5665
X5.6398Y-3.8665
X5.6398Y-4.5665
X5.7398Y-3.8665
X5.7398Y-4.5665
X5.8398Y-3.8665
X5.8398Y-4.5665
X5.9398Y-3.8665
X5.9398Y-4.5665
X6.0398Y-3.8665
X6.0398Y-4.5665
X6.1398Y-3.8665
X6.1398Y-4.5665
X6.2398Y-3.8665
X6.2398Y-4.5665
X6.3398Y-3.8665
X6.3398Y-4.5665
X6.4398Y-3.8665
X6.4398Y-4.5665
X6.5398Y-3.8665
X6.5398Y-4.5665
X6.6398Y-3.8665
X6.6398Y-4.5665
X6.7398Y-3.8665
X6.7398Y-4.5665
X6.8398Y-3.8665
X6.8398Y-4.5665
T7
X6.0992Y-5.0
X6.1992Y-5.0
X6.2992Y-5.0
X6.3878Y-2.4547
X6.3878Y-2.6319
X6.6437Y-2.4547
X6.6437Y-2.6319
T8
X4.8819Y-3.0315
X4.8819Y-3.2283
X4.8819Y-3.4252
X6.811Y-4.8031
X6.811Y-5.0
T5
G00X5.0Y-4.9606
M15
G01X5.0Y-5.0394
M16
G05
G00X5.0787Y-5.185
M15
G01X5.1575Y-5.185
M16
G05
G00X5.2362Y-4.9606
M15
G01X5.2362Y-5.0394
M16
G05
T0
M30
