%TF.GenerationSoftware,KiCad,Pcbnew,(6.0.11)*%
%TF.CreationDate,2023-02-20T01:39:33-05:00*%
%TF.ProjectId,Weather_Pico,57656174-6865-4725-9f50-69636f2e6b69,v1*%
%TF.SameCoordinates,Original*%
%TF.FileFunction,Legend,Bot*%
%TF.FilePolarity,Positive*%
%FSLAX46Y46*%
G04 Gerber Fmt 4.6, Leading zero omitted, Abs format (unit mm)*
G04 Created by KiCad (PCBNEW (6.0.11)) date 2023-02-20 01:39:33*
%MOMM*%
%LPD*%
G01*
G04 APERTURE LIST*
G04 Aperture macros list*
%AMRoundRect*
0 Rectangle with rounded corners*
0 $1 Rounding radius*
0 $2 $3 $4 $5 $6 $7 $8 $9 X,Y pos of 4 corners*
0 Add a 4 corners polygon primitive as box body*
4,1,4,$2,$3,$4,$5,$6,$7,$8,$9,$2,$3,0*
0 Add four circle primitives for the rounded corners*
1,1,$1+$1,$2,$3*
1,1,$1+$1,$4,$5*
1,1,$1+$1,$6,$7*
1,1,$1+$1,$8,$9*
0 Add four rect primitives between the rounded corners*
20,1,$1+$1,$2,$3,$4,$5,0*
20,1,$1+$1,$4,$5,$6,$7,0*
20,1,$1+$1,$6,$7,$8,$9,0*
20,1,$1+$1,$8,$9,$2,$3,0*%
G04 Aperture macros list end*
%ADD10O,1.902000X1.902000*%
%ADD11O,1.602000X1.602000*%
%ADD12O,1.802000X1.802000*%
%ADD13RoundRect,0.051000X0.850000X-0.850000X0.850000X0.850000X-0.850000X0.850000X-0.850000X-0.850000X0*%
%ADD14C,2.102000*%
%ADD15C,1.702000*%
%ADD16O,1.702000X1.702000*%
%ADD17RoundRect,0.051000X0.900000X0.900000X-0.900000X0.900000X-0.900000X-0.900000X0.900000X-0.900000X0*%
%ADD18C,1.902000*%
%ADD19RoundRect,0.051000X-1.300000X1.300000X-1.300000X-1.300000X1.300000X-1.300000X1.300000X1.300000X0*%
%ADD20C,2.702000*%
%ADD21RoundRect,0.051000X1.300000X-1.300000X1.300000X1.300000X-1.300000X1.300000X-1.300000X-1.300000X0*%
%ADD22RoundRect,0.051000X0.800000X-0.800000X0.800000X0.800000X-0.800000X0.800000X-0.800000X-0.800000X0*%
%ADD23RoundRect,0.051000X0.800000X0.800000X-0.800000X0.800000X-0.800000X-0.800000X0.800000X-0.800000X0*%
%ADD24C,3.802000*%
%ADD25C,3.352000*%
%ADD26RoundRect,0.051000X0.760000X0.760000X-0.760000X0.760000X-0.760000X-0.760000X0.760000X-0.760000X0*%
%ADD27C,1.622000*%
%ADD28C,3.302000*%
%ADD29RoundRect,0.051000X0.750000X0.750000X-0.750000X0.750000X-0.750000X-0.750000X0.750000X-0.750000X0*%
%ADD30C,1.602000*%
%ADD31RoundRect,0.051000X0.952500X1.000000X-0.952500X1.000000X-0.952500X-1.000000X0.952500X-1.000000X0*%
%ADD32O,2.007000X2.102000*%
%ADD33RoundRect,0.051000X-1.750000X-1.750000X1.750000X-1.750000X1.750000X1.750000X-1.750000X1.750000X0*%
%ADD34RoundRect,0.801000X-0.750000X-1.000000X0.750000X-1.000000X0.750000X1.000000X-0.750000X1.000000X0*%
%ADD35RoundRect,0.926000X-0.875000X-0.875000X0.875000X-0.875000X0.875000X0.875000X-0.875000X0.875000X0*%
G04 APERTURE END LIST*
%LPC*%
D10*
%TO.C,U1*%
X125600000Y-104375000D03*
D11*
X128630000Y-109525000D03*
D10*
X125600000Y-109825000D03*
D11*
X128630000Y-104675000D03*
D12*
X125470000Y-115990000D03*
X128010000Y-115990000D03*
D13*
X130550000Y-115990000D03*
D12*
X133090000Y-115990000D03*
X135630000Y-115990000D03*
X138170000Y-115990000D03*
X140710000Y-115990000D03*
D13*
X143250000Y-115990000D03*
D12*
X145790000Y-115990000D03*
X148330000Y-115990000D03*
X150870000Y-115990000D03*
X153410000Y-115990000D03*
D13*
X155950000Y-115990000D03*
D12*
X158490000Y-115990000D03*
X161030000Y-115990000D03*
X163570000Y-115990000D03*
X166110000Y-115990000D03*
D13*
X168650000Y-115990000D03*
D12*
X171190000Y-115990000D03*
X173730000Y-115990000D03*
X173730000Y-98210000D03*
X171190000Y-98210000D03*
D13*
X168650000Y-98210000D03*
D12*
X166110000Y-98210000D03*
X163570000Y-98210000D03*
X161030000Y-98210000D03*
X158490000Y-98210000D03*
D13*
X155950000Y-98210000D03*
D12*
X153410000Y-98210000D03*
X150870000Y-98210000D03*
X148330000Y-98210000D03*
X145790000Y-98210000D03*
D13*
X143250000Y-98210000D03*
D12*
X140710000Y-98210000D03*
X138170000Y-98210000D03*
X135630000Y-98210000D03*
X133090000Y-98210000D03*
D13*
X130550000Y-98210000D03*
D12*
X128010000Y-98210000D03*
X125470000Y-98210000D03*
%TD*%
D14*
%TO.C,SW1*%
X162250000Y-66850000D03*
X168750000Y-66850000D03*
X162250000Y-62350000D03*
X168750000Y-62350000D03*
%TD*%
D15*
%TO.C,R2*%
X163810000Y-122000000D03*
D16*
X156190000Y-122000000D03*
%TD*%
D17*
%TO.C,D1*%
X153140000Y-122000000D03*
D18*
X150600000Y-122000000D03*
%TD*%
D19*
%TO.C,J3*%
X124000000Y-77000000D03*
D20*
X124000000Y-82000000D03*
X124000000Y-87000000D03*
%TD*%
D15*
%TO.C,R1*%
X148190000Y-92400000D03*
D16*
X155810000Y-92400000D03*
%TD*%
D21*
%TO.C,J1*%
X173000000Y-127000000D03*
D20*
X173000000Y-122000000D03*
%TD*%
D22*
%TO.C,C1*%
X145000000Y-130000000D03*
D15*
X145000000Y-127500000D03*
%TD*%
D23*
%TO.C,C2*%
X140000000Y-124000000D03*
D15*
X137500000Y-124000000D03*
%TD*%
D24*
%TO.C,H1*%
X176000000Y-140000000D03*
%TD*%
%TO.C,H2*%
X125000000Y-63000000D03*
%TD*%
%TO.C,H3*%
X176000000Y-63000000D03*
%TD*%
%TO.C,H4*%
X125000000Y-140000000D03*
%TD*%
D25*
%TO.C,J4*%
X167750000Y-80110000D03*
X177910000Y-80110000D03*
D26*
X176000000Y-89000000D03*
D27*
X174730000Y-86460000D03*
X173460000Y-89000000D03*
X172190000Y-86460000D03*
X170920000Y-89000000D03*
X169650000Y-86460000D03*
%TD*%
D25*
%TO.C,J5*%
X151750000Y-80110000D03*
X161910000Y-80110000D03*
D26*
X160000000Y-89000000D03*
D27*
X158730000Y-86460000D03*
X157460000Y-89000000D03*
X156190000Y-86460000D03*
X154920000Y-89000000D03*
X153650000Y-86460000D03*
%TD*%
D28*
%TO.C,J6*%
X145270000Y-79650000D03*
X133840000Y-79650000D03*
D29*
X144000000Y-86000000D03*
D30*
X142730000Y-88540000D03*
X141460000Y-86000000D03*
X140190000Y-88540000D03*
X138920000Y-86000000D03*
X137650000Y-88540000D03*
X136380000Y-86000000D03*
X135110000Y-88540000D03*
%TD*%
D31*
%TO.C,U2*%
X160000000Y-127000000D03*
D32*
X157460000Y-127000000D03*
X154920000Y-127000000D03*
%TD*%
D33*
%TO.C,J2*%
X133000000Y-127000000D03*
D34*
X127000000Y-127000000D03*
D35*
X130000000Y-131700000D03*
%TD*%
M02*
