M48
; DRILL file {KiCad (7.0.0)} date Sun Feb 26 16:33:45 2023
; FORMAT={-:-/ absolute / inch / decimal}
; #@! TF.CreationDate,2023-02-26T16:33:45-05:00
; #@! TF.GenerationSoftware,Kicad,Pcbnew,(7.0.0)
; #@! TF.FileFunction,Plated,1,2,PTH
FMAT,2
INCH
; #@! TA.AperFunction,Plated,PTH,ViaDrill
T1C0.0157
; #@! TA.AperFunction,Plated,PTH,ComponentDrill
T2C0.0299
; #@! TA.AperFunction,Plated,PTH,ComponentDrill
T3C0.0315
; #@! TA.AperFunction,Plated,PTH,ComponentDrill
T4C0.0354
; #@! TA.AperFunction,Plated,PTH,ComponentDrill
T5C0.0374
; #@! TA.AperFunction,Plated,PTH,ComponentDrill
T6C0.0394
; #@! TA.AperFunction,Plated,PTH,ComponentDrill
T7C0.0402
; #@! TA.AperFunction,Plated,PTH,ComponentDrill
T8C0.0433
; #@! TA.AperFunction,Plated,PTH,ComponentDrill
T9C0.0512
%
G90
G05
T1
X4.8661Y-4.7126
X5.3071Y-3.6457
X5.374Y-5.2008
X5.4094Y-3.7283
X5.5394Y-3.6299
X5.7874Y-4.7913
X5.9035Y-5.2618
X5.9449Y-3.5236
X6.0Y-3.5984
X6.0945Y-4.9173
X6.1142Y-3.6674
X6.126Y-3.5669
X6.4882Y-3.5866
T2
X5.3193Y-3.4858
X5.3693Y-3.3858
X5.4193Y-3.4858
X5.4693Y-3.3858
X5.5193Y-3.4858
X5.5693Y-3.3858
X5.6193Y-3.4858
X5.6693Y-3.3858
X6.0492Y-3.4039
X6.0992Y-3.5039
X6.1492Y-3.4039
X6.1992Y-3.5039
X6.2492Y-3.4039
X6.2992Y-3.5039
X6.6791Y-3.4039
X6.7291Y-3.5039
X6.7791Y-3.4039
X6.8291Y-3.5039
X6.8791Y-3.4039
X6.9291Y-3.5039
T3
X5.4134Y-4.8819
X5.5118Y-4.8819
X5.6299Y-3.6339
X5.7087Y-5.0197
X5.7087Y-5.1181
X5.9299Y-3.6339
X6.1469Y-4.8386
X6.4469Y-4.8386
X6.8425Y-3.6291
X6.8425Y-3.9291
T4
X5.9236Y-4.8248
X6.0236Y-4.8248
T5
X7.063Y-3.7323
X7.063Y-3.8307
X7.063Y-3.9291
T6
X7.0276Y-4.2134
X7.0276Y-4.3134
X7.0276Y-4.4134
X7.0276Y-4.5134
T7
X4.8059Y-3.8587
X4.8059Y-4.5587
X4.9059Y-3.8587
X4.9059Y-4.5587
X5.0059Y-3.8587
X5.0059Y-4.5587
X5.1059Y-3.8587
X5.1059Y-4.5587
X5.2059Y-3.8587
X5.2059Y-4.5587
X5.3059Y-3.8587
X5.3059Y-4.5587
X5.4059Y-3.8587
X5.4059Y-4.5587
X5.5059Y-3.8587
X5.5059Y-4.5587
X5.6059Y-3.8587
X5.6059Y-4.5587
X5.7059Y-3.8587
X5.7059Y-4.5587
X5.8059Y-3.8587
X5.8059Y-4.5587
X5.9059Y-3.8587
X5.9059Y-4.5587
X6.0059Y-3.8587
X6.0059Y-4.5587
X6.1059Y-3.8587
X6.1059Y-4.5587
X6.2059Y-3.8587
X6.2059Y-4.5587
X6.3059Y-3.8587
X6.3059Y-4.5587
X6.4059Y-3.8587
X6.4059Y-4.5587
X6.5059Y-3.8587
X6.5059Y-4.5587
X6.6059Y-3.8587
X6.6059Y-4.5587
X6.6969Y-4.1087
X6.6969Y-4.2087
X6.6969Y-4.3087
X6.7059Y-3.8587
X6.7059Y-4.5587
T8
X6.1051Y-5.0433
X6.2051Y-5.0433
X6.3051Y-5.0433
X6.3878Y-2.4547
X6.3878Y-2.6319
X6.6437Y-2.4547
X6.6437Y-2.6319
T9
X4.8819Y-3.0315
X4.8819Y-3.2283
X4.8819Y-3.4252
X6.811Y-4.8031
X6.811Y-5.0
T6
G00X5.0Y-4.9606
M15
G01X5.0Y-5.0394
M16
G05
G00X5.0787Y-5.185
M15
G01X5.1575Y-5.185
M16
G05
G00X5.2362Y-4.9606
M15
G01X5.2362Y-5.0394
M16
G05
T0
M30
