%TF.GenerationSoftware,KiCad,Pcbnew,7.0.7*%
%TF.CreationDate,2023-09-12T20:42:17-04:00*%
%TF.ProjectId,Lora_Keypad2,4c6f7261-5f4b-4657-9970-6164322e6b69,v1*%
%TF.SameCoordinates,Original*%
%TF.FileFunction,Copper,L2,Bot*%
%TF.FilePolarity,Positive*%
%FSLAX46Y46*%
G04 Gerber Fmt 4.6, Leading zero omitted, Abs format (unit mm)*
G04 Created by KiCad (PCBNEW 7.0.7) date 2023-09-12 20:42:17*
%MOMM*%
%LPD*%
G01*
G04 APERTURE LIST*
%TA.AperFunction,ComponentPad*%
%ADD10R,1.700000X1.700000*%
%TD*%
%TA.AperFunction,ComponentPad*%
%ADD11O,1.700000X1.700000*%
%TD*%
%TA.AperFunction,ComponentPad*%
%ADD12C,1.700000*%
%TD*%
%TA.AperFunction,ComponentPad*%
%ADD13C,1.600000*%
%TD*%
%TA.AperFunction,ComponentPad*%
%ADD14O,1.600000X1.600000*%
%TD*%
%TA.AperFunction,ComponentPad*%
%ADD15C,1.524000*%
%TD*%
%TA.AperFunction,ComponentPad*%
%ADD16R,1.600000X1.600000*%
%TD*%
%TA.AperFunction,ViaPad*%
%ADD17C,0.800000*%
%TD*%
%TA.AperFunction,Conductor*%
%ADD18C,0.400000*%
%TD*%
G04 APERTURE END LIST*
D10*
%TO.P,U1,A1,C1*%
%TO.N,C1*%
X189547500Y-71355000D03*
D11*
%TO.P,U1,A2,C2*%
%TO.N,C2*%
X192087500Y-71355000D03*
%TO.P,U1,A3,C3*%
%TO.N,C3*%
X194627500Y-71355000D03*
%TO.P,U1,A4,R1*%
%TO.N,R1*%
X197167500Y-71355000D03*
%TO.P,U1,A5,R2*%
%TO.N,R2*%
X199707500Y-71355000D03*
%TO.P,U1,A6,R3*%
%TO.N,R3*%
X202247500Y-71355000D03*
%TO.P,U1,A7,R4*%
%TO.N,R4*%
X204787500Y-71355000D03*
%TO.P,U1,A8,NC*%
%TO.N,unconnected-(U1-NC-PadA8)*%
X207327500Y-71355000D03*
D10*
%TO.P,U1,B1,NC*%
%TO.N,unconnected-(U1-NC-PadB1)*%
X189230000Y-128505000D03*
D11*
%TO.P,U1,B2,C2*%
%TO.N,C2*%
X191770000Y-128505000D03*
%TO.P,U1,B3,R1*%
%TO.N,R1*%
X194310000Y-128505000D03*
%TO.P,U1,B4,C1*%
%TO.N,C1*%
X196850000Y-128505000D03*
%TO.P,U1,B5,R4*%
%TO.N,R4*%
X199390000Y-128505000D03*
%TO.P,U1,B6,C3*%
%TO.N,C3*%
X201930000Y-128505000D03*
%TO.P,U1,B7,R3*%
%TO.N,R3*%
X204470000Y-128505000D03*
%TO.P,U1,B8,R2*%
%TO.N,R2*%
X207010000Y-128505000D03*
%TO.P,U1,B9,NC*%
%TO.N,unconnected-(U1-NC-PadB9)*%
X209550000Y-128505000D03*
%TD*%
D12*
%TO.P,J1,1,Pin_1*%
%TO.N,I2C_SDA*%
X195971000Y-63500000D03*
%TO.P,J1,2,Pin_2*%
%TO.N,I2C_SCL*%
X198471000Y-63500000D03*
%TO.P,J1,3,Pin_3*%
%TO.N,+3.3V*%
X201071000Y-63500000D03*
%TO.P,J1,4,Pin_4*%
%TO.N,GND*%
X203571000Y-63500000D03*
%TD*%
D13*
%TO.P,R3,1*%
%TO.N,+3.3V*%
X203454000Y-60452000D03*
D14*
%TO.P,R3,2*%
%TO.N,I2C_SCL*%
X195834000Y-60452000D03*
%TD*%
D13*
%TO.P,R4,1*%
%TO.N,+3.3V*%
X203454000Y-57404000D03*
D14*
%TO.P,R4,2*%
%TO.N,I2C_SDA*%
X195834000Y-57404000D03*
%TD*%
D15*
%TO.P,A2,1,VCC*%
%TO.N,+3.3V*%
X211551520Y-122326400D03*
%TO.P,A2,2,DOUT/DIO13*%
%TO.N,RX*%
X209550000Y-122326400D03*
%TO.P,A2,3,DIN/~{CONFIG}/DIO14*%
%TO.N,TX*%
X207551020Y-122326400D03*
%TO.P,A2,4,DIO12/SPI_MISO*%
%TO.N,unconnected-(A2-DIO12{slash}SPI_MISO-Pad4)*%
X205549500Y-122326400D03*
%TO.P,A2,5,~{RESET}*%
%TO.N,unconnected-(A2-~{RESET}-Pad5)*%
X203550520Y-122326400D03*
%TO.P,A2,6,RSSI_PWM/DIO10*%
%TO.N,unconnected-(A2-RSSI_PWM{slash}DIO10-Pad6)*%
X201551540Y-122326400D03*
%TO.P,A2,7,PWM1/DIO11/I2C_SDA*%
%TO.N,unconnected-(A2-PWM1{slash}DIO11{slash}I2C_SDA-Pad7)*%
X199550020Y-122326400D03*
%TO.P,A2,8,NC*%
%TO.N,unconnected-(A2-NC-Pad8)*%
X197551040Y-122326400D03*
%TO.P,A2,9,~{DTR}/SLEEP_RQ/DIO8*%
%TO.N,unconnected-(A2-~{DTR}{slash}SLEEP_RQ{slash}DIO8-Pad9)*%
X195549520Y-122326400D03*
%TO.P,A2,10,GND*%
%TO.N,GND*%
X193550540Y-122326400D03*
%TO.P,A2,11,DIO4/SPI_MOSI*%
%TO.N,unconnected-(A2-DIO4{slash}SPI_MOSI-Pad11)*%
X193550540Y-100330000D03*
%TO.P,A2,12,~{CTS}/DIO7*%
%TO.N,unconnected-(A2-~{CTS}{slash}DIO7-Pad12)*%
X195549520Y-100330000D03*
%TO.P,A2,13,ON/~{SLEEP}/DIO9*%
%TO.N,unconnected-(A2-ON{slash}~{SLEEP}{slash}DIO9-Pad13)*%
X197551040Y-100330000D03*
%TO.P,A2,14,NC*%
%TO.N,unconnected-(A2-NC-Pad14)*%
X199550020Y-100330000D03*
%TO.P,A2,15,ASSOCIATE/DIO5*%
%TO.N,unconnected-(A2-ASSOCIATE{slash}DIO5-Pad15)*%
X201551540Y-100330000D03*
%TO.P,A2,16,~{RTS}/DIO6*%
%TO.N,unconnected-(A2-~{RTS}{slash}DIO6-Pad16)*%
X203550520Y-100330000D03*
%TO.P,A2,17,AD3/DIO3/SPI_~{SSEL}*%
%TO.N,unconnected-(A2-AD3{slash}DIO3{slash}SPI_~{SSEL}-Pad17)*%
X205549500Y-100330000D03*
%TO.P,A2,18,AD2/DIO2/SPI_CLK*%
%TO.N,unconnected-(A2-AD2{slash}DIO2{slash}SPI_CLK-Pad18)*%
X207551020Y-100330000D03*
%TO.P,A2,19,AD1/DIO1/SPI_~{ATTN}/I2C_SCL*%
%TO.N,unconnected-(A2-AD1{slash}DIO1{slash}SPI_~{ATTN}{slash}I2C_SCL-Pad19)*%
X209550000Y-100330000D03*
%TO.P,A2,20,AD0/DIO0*%
%TO.N,unconnected-(A2-AD0{slash}DIO0-Pad20)*%
X211551520Y-100330000D03*
%TD*%
D16*
%TO.P,A1,1,~{RESET}*%
%TO.N,unconnected-(A1-~{RESET}-Pad1)*%
X218440000Y-95250000D03*
D13*
%TO.P,A1,2,3V3*%
%TO.N,+3.3V*%
X215900000Y-95250000D03*
%TO.P,A1,3,AREF*%
%TO.N,unconnected-(A1-AREF-Pad3)*%
X213360000Y-95250000D03*
%TO.P,A1,4,GND*%
%TO.N,GND*%
X210820000Y-95250000D03*
%TO.P,A1,5,A0*%
%TO.N,unconnected-(A1-A0-Pad5)*%
X208280000Y-95250000D03*
%TO.P,A1,6,A1*%
%TO.N,TX*%
X205740000Y-95250000D03*
%TO.P,A1,7,A2*%
%TO.N,RX*%
X203200000Y-95250000D03*
%TO.P,A1,8,A3*%
%TO.N,unconnected-(A1-A3-Pad8)*%
X200660000Y-95250000D03*
%TO.P,A1,9,A4*%
%TO.N,unconnected-(A1-A4-Pad9)*%
X198120000Y-95250000D03*
%TO.P,A1,10,A5*%
%TO.N,unconnected-(A1-A5-Pad10)*%
X195580000Y-95250000D03*
%TO.P,A1,11,SCK*%
%TO.N,unconnected-(A1-SCK-Pad11)*%
X193040000Y-95250000D03*
%TO.P,A1,12,MOSI*%
%TO.N,unconnected-(A1-MOSI-Pad12)*%
X190500000Y-95250000D03*
%TO.P,A1,13,MISO*%
%TO.N,unconnected-(A1-MISO-Pad13)*%
X187960000Y-95250000D03*
%TO.P,A1,14,RX*%
%TO.N,unconnected-(A1-RX-Pad14)*%
X185420000Y-95250000D03*
%TO.P,A1,15,TX*%
%TO.N,unconnected-(A1-TX-Pad15)*%
X182880000Y-95250000D03*
%TO.P,A1,16,SPARE*%
%TO.N,unconnected-(A1-SPARE-Pad16)*%
X180340000Y-95250000D03*
%TO.P,A1,17,SDA*%
%TO.N,I2C_SDA*%
X180340000Y-74930000D03*
%TO.P,A1,18,SCL*%
%TO.N,I2C_SCL*%
X182880000Y-74930000D03*
%TO.P,A1,19,D0*%
%TO.N,C1*%
X185420000Y-74930000D03*
%TO.P,A1,20,D1*%
%TO.N,C2*%
X187960000Y-74930000D03*
%TO.P,A1,21,D2*%
%TO.N,C3*%
X190500000Y-74930000D03*
%TO.P,A1,22,D3*%
%TO.N,R1*%
X193040000Y-74930000D03*
%TO.P,A1,23,D4*%
%TO.N,R2*%
X195580000Y-74930000D03*
%TO.P,A1,24,D5*%
%TO.N,R3*%
X198120000Y-74930000D03*
%TO.P,A1,25,D6*%
%TO.N,R4*%
X200660000Y-74930000D03*
%TO.P,A1,26,USB*%
%TO.N,unconnected-(A1-USB-Pad26)*%
X203200000Y-74930000D03*
%TO.P,A1,27,EN*%
%TO.N,unconnected-(A1-EN-Pad27)*%
X205740000Y-74930000D03*
%TO.P,A1,28,VBAT*%
%TO.N,unconnected-(A1-VBAT-Pad28)*%
X208280000Y-74930000D03*
%TD*%
D17*
%TO.N,GND*%
X211582000Y-120396000D03*
%TO.N,C3*%
X193040000Y-126999996D03*
%TO.N,R2*%
X196850000Y-125730006D03*
%TO.N,R3*%
X198431686Y-125533686D03*
%TD*%
D18*
%TO.N,R4*%
X204235000Y-71355000D02*
X200660000Y-74930000D01*
X204787500Y-71355000D02*
X204235000Y-71355000D01*
%TO.N,R1*%
X196615000Y-71355000D02*
X193040000Y-74930000D01*
X197167500Y-71355000D02*
X196615000Y-71355000D01*
%TO.N,R3*%
X201695000Y-71355000D02*
X198120000Y-74930000D01*
X202247500Y-71355000D02*
X201695000Y-71355000D01*
%TO.N,R2*%
X199155000Y-71355000D02*
X195580000Y-74930000D01*
X199707500Y-71355000D02*
X199155000Y-71355000D01*
%TO.N,C2*%
X188512500Y-74930000D02*
X187960000Y-74930000D01*
X192087500Y-71355000D02*
X188512500Y-74930000D01*
%TO.N,C3*%
X194075000Y-71355000D02*
X190500000Y-74930000D01*
X194627500Y-71355000D02*
X194075000Y-71355000D01*
%TO.N,C1*%
X188995000Y-71355000D02*
X185420000Y-74930000D01*
X189547500Y-71355000D02*
X188995000Y-71355000D01*
%TO.N,+3.3V*%
X204216000Y-61976000D02*
X202595000Y-61976000D01*
X215900000Y-117977920D02*
X211551520Y-122326400D01*
X215900000Y-95250000D02*
X215900000Y-73660000D01*
X202595000Y-61976000D02*
X201071000Y-63500000D01*
X215900000Y-73660000D02*
X204216000Y-61976000D01*
X215900000Y-95250000D02*
X215900000Y-117977920D01*
%TO.N,GND*%
X214560000Y-98562944D02*
X214560000Y-117418000D01*
X210820000Y-95250000D02*
X211247056Y-95250000D01*
X214560000Y-117418000D02*
X211582000Y-120396000D01*
X211247056Y-95250000D02*
X214560000Y-98562944D01*
X210820000Y-70749000D02*
X210820000Y-95250000D01*
X203571000Y-63500000D02*
X210820000Y-70749000D01*
%TO.N,I2C_SDA*%
X188472377Y-67056000D02*
X180598377Y-74930000D01*
X193294000Y-67056000D02*
X188472377Y-67056000D01*
X180598377Y-74930000D02*
X180340000Y-74930000D01*
X195971000Y-64379000D02*
X193294000Y-67056000D01*
X195971000Y-63500000D02*
X195971000Y-64379000D01*
%TO.N,I2C_SCL*%
X194818000Y-68072000D02*
X189738000Y-68072000D01*
X189738000Y-68072000D02*
X182880000Y-74930000D01*
X198471000Y-64419000D02*
X194818000Y-68072000D01*
X198471000Y-63500000D02*
X198471000Y-64419000D01*
%TO.N,TX*%
X207748630Y-98390000D02*
X212690000Y-98390000D01*
X212690000Y-98390000D02*
X213360000Y-99060000D01*
X213360000Y-116517420D02*
X207551020Y-122326400D01*
X205740000Y-95250000D02*
X205740000Y-96381370D01*
X205740000Y-96381370D02*
X207748630Y-98390000D01*
X213360000Y-99060000D02*
X213360000Y-116517420D01*
%TO.N,RX*%
X204724000Y-93726000D02*
X203200000Y-95250000D01*
X213960000Y-116838770D02*
X213960000Y-98811472D01*
X212938528Y-97790000D02*
X208280000Y-97790000D01*
X206248000Y-93726000D02*
X204724000Y-93726000D01*
X207010000Y-96520000D02*
X207010000Y-94488000D01*
X209550000Y-121248770D02*
X213960000Y-116838770D01*
X207010000Y-94488000D02*
X206248000Y-93726000D01*
X213960000Y-98811472D02*
X212938528Y-97790000D01*
X208280000Y-97790000D02*
X207010000Y-96520000D01*
X209550000Y-122326400D02*
X209550000Y-121248770D01*
%TO.N,C1*%
X195326000Y-130048000D02*
X196852500Y-128521500D01*
X178054000Y-82296000D02*
X178054000Y-119888000D01*
X185420000Y-74930000D02*
X178054000Y-82296000D01*
X196852500Y-128521500D02*
X196852500Y-128505000D01*
X178054000Y-119888000D02*
X188214000Y-130048000D01*
X188214000Y-130048000D02*
X195326000Y-130048000D01*
%TO.N,C2*%
X178816000Y-84074000D02*
X178816000Y-115305250D01*
X187960000Y-74930000D02*
X178816000Y-84074000D01*
X191772500Y-128261750D02*
X191772500Y-128505000D01*
X178816000Y-115305250D02*
X191772500Y-128261750D01*
%TO.N,C3*%
X190500000Y-74930000D02*
X181610000Y-83820000D01*
X191515996Y-126999996D02*
X193040000Y-126999996D01*
X181610000Y-117094000D02*
X191515996Y-126999996D01*
X181610000Y-83820000D02*
X181610000Y-117094000D01*
%TO.N,R1*%
X184150000Y-118618000D02*
X184150000Y-83820000D01*
X194312500Y-126748500D02*
X193548000Y-125984000D01*
X194312500Y-128505000D02*
X194312500Y-126748500D01*
X191516000Y-125984000D02*
X184150000Y-118618000D01*
X184150000Y-83820000D02*
X193040000Y-74930000D01*
X193548000Y-125984000D02*
X191516000Y-125984000D01*
%TO.N,R2*%
X191932000Y-125384000D02*
X196503994Y-125384000D01*
X186690000Y-83820000D02*
X186690000Y-120142000D01*
X195580000Y-74930000D02*
X186690000Y-83820000D01*
X186690000Y-120142000D02*
X191932000Y-125384000D01*
X196503994Y-125384000D02*
X196850000Y-125730006D01*
%TO.N,R3*%
X192197056Y-124714000D02*
X197612000Y-124714000D01*
X198120000Y-74930000D02*
X189230000Y-83820000D01*
X197612000Y-124714000D02*
X198431686Y-125533686D01*
X189230000Y-121746944D02*
X192197056Y-124714000D01*
X189230000Y-83820000D02*
X189230000Y-121746944D01*
%TO.N,R4*%
X191770000Y-83820000D02*
X191770000Y-123438416D01*
X192283584Y-123952000D02*
X198374000Y-123952000D01*
X198374000Y-123952000D02*
X199392500Y-124970500D01*
X200660000Y-74930000D02*
X191770000Y-83820000D01*
X191770000Y-123438416D02*
X192283584Y-123952000D01*
X199392500Y-124970500D02*
X199392500Y-128505000D01*
%TD*%
M02*
