G04 #@! TF.GenerationSoftware,KiCad,Pcbnew,(5.1.5)-3*
G04 #@! TF.CreationDate,2020-04-11T23:24:35-04:00*
G04 #@! TF.ProjectId,Doorbell,446f6f72-6265-46c6-9c2e-6b696361645f,v1*
G04 #@! TF.SameCoordinates,Original*
G04 #@! TF.FileFunction,Copper,L1,Top*
G04 #@! TF.FilePolarity,Positive*
%FSLAX46Y46*%
G04 Gerber Fmt 4.6, Leading zero omitted, Abs format (unit mm)*
G04 Created by KiCad (PCBNEW (5.1.5)-3) date 2020-04-11 23:24:35*
%MOMM*%
%LPD*%
G04 APERTURE LIST*
%ADD10R,1.300000X1.300000*%
%ADD11C,1.300000*%
%ADD12C,1.600000*%
%ADD13R,1.600000X1.600000*%
%ADD14C,2.000000*%
%ADD15R,2.000000X2.000000*%
%ADD16O,1.400000X1.400000*%
%ADD17C,1.400000*%
%ADD18R,1.400000X1.400000*%
%ADD19O,1.727200X1.727200*%
%ADD20R,1.727200X1.727200*%
%ADD21O,2.300000X1.500000*%
%ADD22R,2.300000X1.500000*%
%ADD23C,2.600000*%
%ADD24R,2.600000X2.600000*%
%ADD25O,2.000000X2.000000*%
%ADD26C,0.750000*%
%ADD27C,0.350000*%
%ADD28C,0.254000*%
G04 APERTURE END LIST*
D10*
X157226000Y-76835000D03*
D11*
X157226000Y-79375000D03*
X158496000Y-78105000D03*
D10*
X157226000Y-84836000D03*
D11*
X157226000Y-87376000D03*
X158496000Y-86106000D03*
D12*
X153289000Y-95781500D03*
D13*
X153289000Y-93281500D03*
D14*
X149399000Y-100520500D03*
D15*
X144399000Y-100520500D03*
D16*
X160586500Y-65976500D03*
D17*
X158686500Y-65976500D03*
D12*
X162814000Y-79208000D03*
D13*
X162814000Y-76708000D03*
D16*
X161168000Y-83820000D03*
D17*
X163068000Y-83820000D03*
D16*
X144125000Y-79325000D03*
D17*
X144125000Y-77425000D03*
D16*
X158242000Y-90170000D03*
D17*
X156342000Y-90170000D03*
X153924000Y-84328000D03*
X153924000Y-86868000D03*
X153924000Y-89408000D03*
X146304000Y-89408000D03*
X146304000Y-86868000D03*
D18*
X146304000Y-84328000D03*
D12*
X162814000Y-89114000D03*
D13*
X162814000Y-86614000D03*
D19*
X153924000Y-66548000D03*
X153924000Y-69088000D03*
X151384000Y-66548000D03*
X151384000Y-69088000D03*
X148844000Y-66548000D03*
X148844000Y-69088000D03*
X146304000Y-66548000D03*
D20*
X146304000Y-69088000D03*
D21*
X163576000Y-94996000D03*
X163576000Y-97536000D03*
D22*
X163576000Y-100076000D03*
D17*
X153935000Y-75310000D03*
X153935000Y-77850000D03*
X153935000Y-80390000D03*
X146315000Y-80390000D03*
X146315000Y-77850000D03*
D18*
X146315000Y-75310000D03*
D16*
X153294000Y-72199500D03*
D17*
X155194000Y-72199500D03*
D16*
X151188500Y-72199500D03*
D17*
X149288500Y-72199500D03*
D16*
X157294500Y-74168000D03*
D17*
X159194500Y-74168000D03*
D16*
X158242000Y-82042000D03*
D17*
X156342000Y-82042000D03*
D16*
X144125000Y-73350000D03*
D17*
X144125000Y-75250000D03*
D16*
X144081500Y-88768000D03*
D17*
X144081500Y-86868000D03*
D16*
X144145000Y-82428000D03*
D17*
X144145000Y-84328000D03*
D23*
X136918700Y-90565000D03*
X136918700Y-85565000D03*
X136918700Y-80565000D03*
D24*
X136918700Y-75565000D03*
D15*
X134302500Y-101346000D03*
D25*
X139382500Y-96266000D03*
X139382500Y-101346000D03*
X134302500Y-96266000D03*
D12*
X161504000Y-70231000D03*
D13*
X159004000Y-70231000D03*
D26*
X144399000Y-102270500D02*
X144399000Y-100520500D01*
X145760500Y-103632000D02*
X144399000Y-102270500D01*
X158374000Y-103632000D02*
X145760500Y-103632000D01*
X161930000Y-100076000D02*
X158374000Y-103632000D01*
X163830000Y-100076000D02*
X161930000Y-100076000D01*
X142529500Y-104140000D02*
X144399000Y-102270500D01*
X135346500Y-104140000D02*
X142529500Y-104140000D01*
X134302500Y-103096000D02*
X135346500Y-104140000D01*
X134302500Y-101346000D02*
X134302500Y-103096000D01*
X163576000Y-93496000D02*
X163576000Y-94996000D01*
X163552000Y-93472000D02*
X163576000Y-93496000D01*
X160554051Y-93472000D02*
X161290000Y-93472000D01*
X158242000Y-91159949D02*
X160554051Y-93472000D01*
X158242000Y-90170000D02*
X158242000Y-91159949D01*
X153162000Y-93472000D02*
X161290000Y-93472000D01*
X161290000Y-93472000D02*
X163552000Y-93472000D01*
X158242000Y-88392000D02*
X157356010Y-87506010D01*
X158242000Y-90170000D02*
X158242000Y-88392000D01*
X163576000Y-93496000D02*
X165100000Y-91972000D01*
X159231949Y-82042000D02*
X158242000Y-82042000D01*
X163621002Y-82042000D02*
X159231949Y-82042000D01*
X165100000Y-83520998D02*
X163621002Y-82042000D01*
X165100000Y-91972000D02*
X165100000Y-83520998D01*
X157226000Y-80036051D02*
X157226000Y-79505010D01*
X158242000Y-82042000D02*
X158242000Y-81052051D01*
X158242000Y-81052051D02*
X157226000Y-80036051D01*
X159004000Y-68707000D02*
X159004000Y-70231000D01*
X160586500Y-65976500D02*
X160586500Y-67124500D01*
X160586500Y-67124500D02*
X159004000Y-68707000D01*
X159422500Y-72199500D02*
X155194000Y-72199500D01*
X163004500Y-72199500D02*
X159422500Y-72199500D01*
X165100000Y-83520998D02*
X165100000Y-74295000D01*
X165100000Y-74295000D02*
X163004500Y-72199500D01*
X155194000Y-70358000D02*
X155194000Y-72199500D01*
X153924000Y-69088000D02*
X155194000Y-70358000D01*
X159004000Y-71781000D02*
X159004000Y-70231000D01*
X159422500Y-72199500D02*
X159004000Y-71781000D01*
X151188500Y-73189449D02*
X151188500Y-72199500D01*
X151773552Y-73774501D02*
X151188500Y-73189449D01*
X154608948Y-73774501D02*
X151773552Y-73774501D01*
X155194000Y-73189449D02*
X154608948Y-73774501D01*
X155194000Y-72199500D02*
X155194000Y-73189449D01*
D27*
X157226000Y-83961000D02*
X157226000Y-84836000D01*
X157367000Y-83820000D02*
X157226000Y-83961000D01*
X161168000Y-83820000D02*
X157367000Y-83820000D01*
X161168000Y-84643000D02*
X161168000Y-83820000D01*
X162814000Y-86614000D02*
X162814000Y-86289000D01*
X162814000Y-86289000D02*
X161168000Y-84643000D01*
X157367000Y-83820000D02*
X157113000Y-83566000D01*
X157113000Y-83566000D02*
X154756000Y-83566000D01*
X146304000Y-72233998D02*
X146304000Y-68834000D01*
X147940001Y-73869999D02*
X146304000Y-72233998D01*
X154756000Y-83566000D02*
X147940001Y-76750001D01*
X147940001Y-76750001D02*
X147940001Y-73869999D01*
X157104000Y-76713000D02*
X157226000Y-76835000D01*
X157104000Y-74168000D02*
X157104000Y-74607500D01*
X157294500Y-76766500D02*
X157226000Y-76835000D01*
X157294500Y-74168000D02*
X157294500Y-76766500D01*
X157353000Y-76708000D02*
X157226000Y-76835000D01*
X163068000Y-76708000D02*
X157353000Y-76708000D01*
X147605399Y-72757564D02*
X151422835Y-76575000D01*
X147605399Y-68493471D02*
X147605399Y-72757564D01*
X148280870Y-67818000D02*
X147605399Y-68493471D01*
X152654000Y-67818000D02*
X148280870Y-67818000D01*
X156226000Y-76835000D02*
X157226000Y-76835000D01*
X155966000Y-76575000D02*
X156226000Y-76835000D01*
X151422835Y-76575000D02*
X155966000Y-76575000D01*
X153924000Y-66548000D02*
X152654000Y-67818000D01*
D26*
X136918700Y-98564700D02*
X139700000Y-101346000D01*
X136918700Y-90565000D02*
X136918700Y-98564700D01*
X140121700Y-88768000D02*
X144081500Y-88768000D01*
X136918700Y-85565000D02*
X140121700Y-88768000D01*
X141809000Y-79325000D02*
X144125000Y-79325000D01*
X140462000Y-77978000D02*
X141809000Y-79325000D01*
X135636000Y-77978000D02*
X140462000Y-77978000D01*
X134112000Y-79502000D02*
X135636000Y-77978000D01*
X136918700Y-85565000D02*
X134112000Y-82758300D01*
X134112000Y-82758300D02*
X134112000Y-79502000D01*
X133230010Y-88638990D02*
X136304000Y-85565000D01*
X136304000Y-85565000D02*
X136918700Y-85565000D01*
X134302500Y-96266000D02*
X133230010Y-95193510D01*
X133230010Y-95193510D02*
X133230010Y-88638990D01*
D27*
X144140000Y-73660000D02*
X144145000Y-73665000D01*
X136935000Y-75565000D02*
X136918700Y-75565000D01*
D26*
X144125000Y-73350000D02*
X139150000Y-73350000D01*
X139150000Y-73350000D02*
X136935000Y-75565000D01*
X138781700Y-82428000D02*
X136918700Y-80565000D01*
X144145000Y-82428000D02*
X138781700Y-82428000D01*
D27*
X156342000Y-89286000D02*
X153924000Y-86868000D01*
X156342000Y-90170000D02*
X156342000Y-89286000D01*
X154825700Y-85966300D02*
X153924000Y-86868000D01*
X158496000Y-86106000D02*
X158356300Y-85966300D01*
X158356300Y-85966300D02*
X154825700Y-85966300D01*
X155575000Y-80285051D02*
X155575000Y-78105000D01*
X156342000Y-81052051D02*
X155575000Y-80285051D01*
X156342000Y-82042000D02*
X156342000Y-81052051D01*
X153935000Y-77850000D02*
X154050300Y-77965300D01*
X154063000Y-77978000D02*
X153935000Y-77850000D01*
X158496000Y-78105000D02*
X158369000Y-77978000D01*
X158369000Y-77978000D02*
X154063000Y-77978000D01*
D26*
X146304000Y-84328000D02*
X144145000Y-84328000D01*
X146304000Y-86868000D02*
X144081500Y-86868000D01*
D27*
X146060000Y-75565000D02*
X146315000Y-75310000D01*
X146255000Y-75250000D02*
X146315000Y-75310000D01*
D26*
X144125000Y-75250000D02*
X146255000Y-75250000D01*
D27*
X146315000Y-78094000D02*
X146304000Y-78105000D01*
X146315000Y-77850000D02*
X146315000Y-78094000D01*
D26*
X145890000Y-77425000D02*
X146315000Y-77850000D01*
X144125000Y-77425000D02*
X145890000Y-77425000D01*
D27*
X149288500Y-69532500D02*
X148844000Y-69088000D01*
X149288500Y-72199500D02*
X149288500Y-69532500D01*
X151384000Y-69850000D02*
X151384000Y-69088000D01*
X153294000Y-72199500D02*
X153294000Y-71760000D01*
X153294000Y-71760000D02*
X151384000Y-69850000D01*
X157543500Y-64833500D02*
X153098500Y-64833500D01*
X158686500Y-65976500D02*
X157543500Y-64833500D01*
X152247599Y-65684401D02*
X151384000Y-66548000D01*
X153098500Y-64833500D02*
X152247599Y-65684401D01*
D28*
G36*
X153242917Y-83187116D02*
G01*
X153078087Y-83297252D01*
X152893252Y-83482087D01*
X152748028Y-83699430D01*
X152647996Y-83940928D01*
X152597000Y-84197302D01*
X152597000Y-84458698D01*
X152647996Y-84715072D01*
X152748028Y-84956570D01*
X152893252Y-85173913D01*
X153078087Y-85358748D01*
X153295430Y-85503972D01*
X153522433Y-85598000D01*
X153295430Y-85692028D01*
X153078087Y-85837252D01*
X152893252Y-86022087D01*
X152748028Y-86239430D01*
X152647996Y-86480928D01*
X152597000Y-86737302D01*
X152597000Y-86998698D01*
X152647996Y-87255072D01*
X152748028Y-87496570D01*
X152893252Y-87713913D01*
X153078087Y-87898748D01*
X153295430Y-88043972D01*
X153513843Y-88134442D01*
X153472820Y-88144692D01*
X153349739Y-88195674D01*
X153281654Y-88414929D01*
X153924000Y-89057275D01*
X153938143Y-89043133D01*
X154288868Y-89393858D01*
X154274725Y-89408000D01*
X154917071Y-90050346D01*
X155019106Y-90018661D01*
X155015000Y-90039302D01*
X155015000Y-90300698D01*
X155065996Y-90557072D01*
X155166028Y-90798570D01*
X155311252Y-91015913D01*
X155496087Y-91200748D01*
X155713430Y-91345972D01*
X155954928Y-91446004D01*
X156211302Y-91497000D01*
X156472698Y-91497000D01*
X156729072Y-91446004D01*
X156970570Y-91345972D01*
X157187913Y-91200748D01*
X157235857Y-91152804D01*
X157235153Y-91159949D01*
X157254498Y-91356375D01*
X157311794Y-91545252D01*
X157311795Y-91545253D01*
X157404837Y-91719324D01*
X157530052Y-91871898D01*
X157568286Y-91903276D01*
X158135010Y-92470000D01*
X154717900Y-92470000D01*
X154706927Y-92358587D01*
X154671075Y-92240397D01*
X154612853Y-92131472D01*
X154534501Y-92035999D01*
X154439028Y-91957647D01*
X154330103Y-91899425D01*
X154211913Y-91863573D01*
X154089000Y-91851467D01*
X152489000Y-91851467D01*
X152366087Y-91863573D01*
X152247897Y-91899425D01*
X152138972Y-91957647D01*
X152043499Y-92035999D01*
X151965147Y-92131472D01*
X151906925Y-92240397D01*
X151871073Y-92358587D01*
X151858967Y-92481500D01*
X151858967Y-94081500D01*
X151871073Y-94204413D01*
X151906925Y-94322603D01*
X151965147Y-94431528D01*
X152043499Y-94527001D01*
X152138972Y-94605353D01*
X152247897Y-94663575D01*
X152366087Y-94699427D01*
X152489000Y-94711533D01*
X152575646Y-94711533D01*
X152574115Y-94715890D01*
X153289000Y-95430775D01*
X154003885Y-94715890D01*
X154002354Y-94711533D01*
X154089000Y-94711533D01*
X154211913Y-94699427D01*
X154330103Y-94663575D01*
X154439028Y-94605353D01*
X154534501Y-94527001D01*
X154577997Y-94474000D01*
X160504827Y-94474000D01*
X160554051Y-94478848D01*
X160603274Y-94474000D01*
X161895386Y-94474000D01*
X161818925Y-94726061D01*
X161792338Y-94996000D01*
X161818925Y-95265939D01*
X161897663Y-95525505D01*
X162025527Y-95764721D01*
X162197603Y-95974397D01*
X162407279Y-96146473D01*
X162606349Y-96252878D01*
X162574867Y-96264133D01*
X162338289Y-96405847D01*
X162133903Y-96590992D01*
X161969565Y-96812453D01*
X161868957Y-97077893D01*
X161975090Y-97288000D01*
X163328000Y-97288000D01*
X163328000Y-97268000D01*
X163824000Y-97268000D01*
X163824000Y-97288000D01*
X165176910Y-97288000D01*
X165283043Y-97077893D01*
X165182435Y-96812453D01*
X165018097Y-96590992D01*
X164813711Y-96405847D01*
X164577133Y-96264133D01*
X164545651Y-96252878D01*
X164744721Y-96146473D01*
X164954397Y-95974397D01*
X165126473Y-95764721D01*
X165254337Y-95525505D01*
X165333075Y-95265939D01*
X165359662Y-94996000D01*
X165333075Y-94726061D01*
X165254337Y-94466495D01*
X165126473Y-94227279D01*
X164954397Y-94017603D01*
X164744721Y-93845527D01*
X164678767Y-93810274D01*
X165527500Y-92961541D01*
X165527500Y-105202500D01*
X142201900Y-105202500D01*
X142201900Y-105142000D01*
X142480284Y-105142000D01*
X142529500Y-105146847D01*
X142578716Y-105142000D01*
X142578723Y-105142000D01*
X142725926Y-105127502D01*
X142914804Y-105070206D01*
X143088875Y-104977164D01*
X143241449Y-104851949D01*
X143272832Y-104813710D01*
X144399000Y-103687542D01*
X145017173Y-104305715D01*
X145048551Y-104343949D01*
X145201125Y-104469164D01*
X145306155Y-104525303D01*
X145375196Y-104562206D01*
X145564073Y-104619502D01*
X145760500Y-104638848D01*
X145809723Y-104634000D01*
X158324784Y-104634000D01*
X158374000Y-104638847D01*
X158423216Y-104634000D01*
X158423223Y-104634000D01*
X158570426Y-104619502D01*
X158759304Y-104562206D01*
X158933375Y-104469164D01*
X159085949Y-104343949D01*
X159117332Y-104305709D01*
X162074443Y-101348598D01*
X162075972Y-101349853D01*
X162184897Y-101408075D01*
X162303087Y-101443927D01*
X162426000Y-101456033D01*
X164726000Y-101456033D01*
X164848913Y-101443927D01*
X164967103Y-101408075D01*
X165076028Y-101349853D01*
X165171501Y-101271501D01*
X165249853Y-101176028D01*
X165308075Y-101067103D01*
X165343927Y-100948913D01*
X165356033Y-100826000D01*
X165356033Y-99326000D01*
X165343927Y-99203087D01*
X165308075Y-99084897D01*
X165249853Y-98975972D01*
X165171501Y-98880499D01*
X165076028Y-98802147D01*
X164967103Y-98743925D01*
X164848913Y-98708073D01*
X164758582Y-98699176D01*
X164813711Y-98666153D01*
X165018097Y-98481008D01*
X165182435Y-98259547D01*
X165283043Y-97994107D01*
X165176910Y-97784000D01*
X163824000Y-97784000D01*
X163824000Y-97804000D01*
X163328000Y-97804000D01*
X163328000Y-97784000D01*
X161975090Y-97784000D01*
X161868957Y-97994107D01*
X161969565Y-98259547D01*
X162133903Y-98481008D01*
X162338289Y-98666153D01*
X162393418Y-98699176D01*
X162303087Y-98708073D01*
X162184897Y-98743925D01*
X162075972Y-98802147D01*
X161980499Y-98880499D01*
X161902147Y-98975972D01*
X161848025Y-99077226D01*
X161733574Y-99088498D01*
X161544696Y-99145794D01*
X161370625Y-99238836D01*
X161218051Y-99364051D01*
X161186673Y-99402285D01*
X157958959Y-102630000D01*
X146175542Y-102630000D01*
X145645325Y-102099784D01*
X145749028Y-102044353D01*
X145844501Y-101966001D01*
X145922853Y-101870528D01*
X145981075Y-101761603D01*
X145990489Y-101730568D01*
X148539657Y-101730568D01*
X148645023Y-101980183D01*
X148944281Y-102099229D01*
X149261013Y-102157606D01*
X149583048Y-102153069D01*
X149898010Y-102085793D01*
X150152977Y-101980183D01*
X150258343Y-101730568D01*
X149399000Y-100871225D01*
X148539657Y-101730568D01*
X145990489Y-101730568D01*
X146016927Y-101643413D01*
X146029033Y-101520500D01*
X146029033Y-100382513D01*
X147761894Y-100382513D01*
X147766431Y-100704548D01*
X147833707Y-101019510D01*
X147939317Y-101274477D01*
X148188932Y-101379843D01*
X149048275Y-100520500D01*
X149749725Y-100520500D01*
X150609068Y-101379843D01*
X150858683Y-101274477D01*
X150977729Y-100975219D01*
X151036106Y-100658487D01*
X151031569Y-100336452D01*
X150964293Y-100021490D01*
X150858683Y-99766523D01*
X150609068Y-99661157D01*
X149749725Y-100520500D01*
X149048275Y-100520500D01*
X148188932Y-99661157D01*
X147939317Y-99766523D01*
X147820271Y-100065781D01*
X147761894Y-100382513D01*
X146029033Y-100382513D01*
X146029033Y-99520500D01*
X146016927Y-99397587D01*
X145990490Y-99310432D01*
X148539657Y-99310432D01*
X149399000Y-100169775D01*
X150258343Y-99310432D01*
X150152977Y-99060817D01*
X149853719Y-98941771D01*
X149536987Y-98883394D01*
X149214952Y-98887931D01*
X148899990Y-98955207D01*
X148645023Y-99060817D01*
X148539657Y-99310432D01*
X145990490Y-99310432D01*
X145981075Y-99279397D01*
X145922853Y-99170472D01*
X145844501Y-99074999D01*
X145749028Y-98996647D01*
X145640103Y-98938425D01*
X145521913Y-98902573D01*
X145399000Y-98890467D01*
X143399000Y-98890467D01*
X143276087Y-98902573D01*
X143157897Y-98938425D01*
X143048972Y-98996647D01*
X142953499Y-99074999D01*
X142875147Y-99170472D01*
X142816925Y-99279397D01*
X142781073Y-99397587D01*
X142768967Y-99520500D01*
X142768967Y-101520500D01*
X142781073Y-101643413D01*
X142816925Y-101761603D01*
X142875147Y-101870528D01*
X142953499Y-101966001D01*
X143048972Y-102044353D01*
X143152675Y-102099784D01*
X142201900Y-103050559D01*
X142201900Y-99306000D01*
X142200814Y-99289423D01*
X142183777Y-99160013D01*
X142175196Y-99127989D01*
X142125246Y-99007399D01*
X142108668Y-98978687D01*
X142029208Y-98875134D01*
X142005766Y-98851692D01*
X141902213Y-98772232D01*
X141873501Y-98755654D01*
X141752911Y-98705704D01*
X141720887Y-98697123D01*
X141591477Y-98680086D01*
X141574900Y-98679000D01*
X138803595Y-98679000D01*
X138170700Y-98046105D01*
X138170700Y-97357356D01*
X138364111Y-97545116D01*
X138633222Y-97719216D01*
X138884742Y-97823390D01*
X139134500Y-97721270D01*
X139134500Y-96514000D01*
X139630500Y-96514000D01*
X139630500Y-97721270D01*
X139880258Y-97823390D01*
X140131778Y-97719216D01*
X140400889Y-97545116D01*
X140630864Y-97321860D01*
X140812865Y-97058028D01*
X140903916Y-96847110D01*
X152574115Y-96847110D01*
X152654713Y-97076444D01*
X152919532Y-97175305D01*
X153198549Y-97220603D01*
X153481042Y-97210597D01*
X153756155Y-97145672D01*
X153923287Y-97076444D01*
X154003885Y-96847110D01*
X153289000Y-96132225D01*
X152574115Y-96847110D01*
X140903916Y-96847110D01*
X140939898Y-96763759D01*
X140839841Y-96514000D01*
X139630500Y-96514000D01*
X139134500Y-96514000D01*
X139114500Y-96514000D01*
X139114500Y-96018000D01*
X139134500Y-96018000D01*
X139134500Y-94810730D01*
X139630500Y-94810730D01*
X139630500Y-96018000D01*
X140839841Y-96018000D01*
X140939898Y-95768241D01*
X140906575Y-95691049D01*
X151849897Y-95691049D01*
X151859903Y-95973542D01*
X151924828Y-96248655D01*
X151994056Y-96415787D01*
X152223390Y-96496385D01*
X152938275Y-95781500D01*
X153639725Y-95781500D01*
X154354610Y-96496385D01*
X154583944Y-96415787D01*
X154682805Y-96150968D01*
X154728103Y-95871951D01*
X154718097Y-95589458D01*
X154653172Y-95314345D01*
X154583944Y-95147213D01*
X154354610Y-95066615D01*
X153639725Y-95781500D01*
X152938275Y-95781500D01*
X152223390Y-95066615D01*
X151994056Y-95147213D01*
X151895195Y-95412032D01*
X151849897Y-95691049D01*
X140906575Y-95691049D01*
X140812865Y-95473972D01*
X140630864Y-95210140D01*
X140400889Y-94986884D01*
X140131778Y-94812784D01*
X139880258Y-94708610D01*
X139630500Y-94810730D01*
X139134500Y-94810730D01*
X138884742Y-94708610D01*
X138633222Y-94812784D01*
X138364111Y-94986884D01*
X138170700Y-95174644D01*
X138170700Y-93765454D01*
X141021399Y-93785889D01*
X141038053Y-93784912D01*
X141168116Y-93768663D01*
X141200325Y-93760242D01*
X141321697Y-93710750D01*
X141350612Y-93694246D01*
X141454950Y-93614912D01*
X141478582Y-93591462D01*
X141558718Y-93487737D01*
X141575444Y-93458950D01*
X141625869Y-93337963D01*
X141634538Y-93305819D01*
X141651788Y-93175885D01*
X141652893Y-93159239D01*
X141654563Y-90020000D01*
X143116725Y-90020000D01*
X143334511Y-90165519D01*
X143621506Y-90284396D01*
X143926179Y-90345000D01*
X144236821Y-90345000D01*
X144541494Y-90284396D01*
X144828489Y-90165519D01*
X145086779Y-89992936D01*
X145103166Y-89976549D01*
X145128028Y-90036570D01*
X145273252Y-90253913D01*
X145458087Y-90438748D01*
X145675430Y-90583972D01*
X145916928Y-90684004D01*
X146173302Y-90735000D01*
X146434698Y-90735000D01*
X146691072Y-90684004D01*
X146932570Y-90583972D01*
X147149913Y-90438748D01*
X147187590Y-90401071D01*
X153281654Y-90401071D01*
X153349739Y-90620326D01*
X153597286Y-90709064D01*
X153857389Y-90747803D01*
X154120052Y-90735055D01*
X154375180Y-90671308D01*
X154498261Y-90620326D01*
X154566346Y-90401071D01*
X153924000Y-89758725D01*
X153281654Y-90401071D01*
X147187590Y-90401071D01*
X147334748Y-90253913D01*
X147479972Y-90036570D01*
X147580004Y-89795072D01*
X147631000Y-89538698D01*
X147631000Y-89341389D01*
X152584197Y-89341389D01*
X152596945Y-89604052D01*
X152660692Y-89859180D01*
X152711674Y-89982261D01*
X152930929Y-90050346D01*
X153573275Y-89408000D01*
X152930929Y-88765654D01*
X152711674Y-88833739D01*
X152622936Y-89081286D01*
X152584197Y-89341389D01*
X147631000Y-89341389D01*
X147631000Y-89277302D01*
X147580004Y-89020928D01*
X147479972Y-88779430D01*
X147334748Y-88562087D01*
X147149913Y-88377252D01*
X147008829Y-88282982D01*
X147050989Y-88265519D01*
X147309279Y-88092936D01*
X147528936Y-87873279D01*
X147701519Y-87614989D01*
X147820396Y-87327994D01*
X147881000Y-87023321D01*
X147881000Y-86712679D01*
X147820396Y-86408006D01*
X147701519Y-86121011D01*
X147528936Y-85862721D01*
X147450158Y-85783943D01*
X147493592Y-85760727D01*
X147627133Y-85651133D01*
X147736727Y-85517592D01*
X147818162Y-85365237D01*
X147868310Y-85199922D01*
X147885243Y-85028000D01*
X147885243Y-83628000D01*
X147868310Y-83456078D01*
X147818162Y-83290763D01*
X147736727Y-83138408D01*
X147627133Y-83004867D01*
X147493592Y-82895273D01*
X147341237Y-82813838D01*
X147175922Y-82763690D01*
X147004000Y-82746757D01*
X145689490Y-82746757D01*
X145722000Y-82583321D01*
X145722000Y-82272679D01*
X145661396Y-81968006D01*
X145542519Y-81681011D01*
X145369936Y-81422721D01*
X145150279Y-81203064D01*
X144891989Y-81030481D01*
X144604994Y-80911604D01*
X144418517Y-80874511D01*
X144584994Y-80841396D01*
X144871989Y-80722519D01*
X145009825Y-80630420D01*
X145038996Y-80777072D01*
X145139028Y-81018570D01*
X145284252Y-81235913D01*
X145469087Y-81420748D01*
X145686430Y-81565972D01*
X145927928Y-81666004D01*
X146184302Y-81717000D01*
X146445698Y-81717000D01*
X146702072Y-81666004D01*
X146943570Y-81565972D01*
X147160913Y-81420748D01*
X147345748Y-81235913D01*
X147490972Y-81018570D01*
X147591004Y-80777072D01*
X147642000Y-80520698D01*
X147642000Y-80259302D01*
X147591004Y-80002928D01*
X147490972Y-79761430D01*
X147345748Y-79544087D01*
X147160913Y-79359252D01*
X147019829Y-79264982D01*
X147061989Y-79247519D01*
X147320279Y-79074936D01*
X147539936Y-78855279D01*
X147712519Y-78596989D01*
X147831396Y-78309994D01*
X147892000Y-78005321D01*
X147892000Y-77836198D01*
X153242917Y-83187116D01*
G37*
X153242917Y-83187116D02*
X153078087Y-83297252D01*
X152893252Y-83482087D01*
X152748028Y-83699430D01*
X152647996Y-83940928D01*
X152597000Y-84197302D01*
X152597000Y-84458698D01*
X152647996Y-84715072D01*
X152748028Y-84956570D01*
X152893252Y-85173913D01*
X153078087Y-85358748D01*
X153295430Y-85503972D01*
X153522433Y-85598000D01*
X153295430Y-85692028D01*
X153078087Y-85837252D01*
X152893252Y-86022087D01*
X152748028Y-86239430D01*
X152647996Y-86480928D01*
X152597000Y-86737302D01*
X152597000Y-86998698D01*
X152647996Y-87255072D01*
X152748028Y-87496570D01*
X152893252Y-87713913D01*
X153078087Y-87898748D01*
X153295430Y-88043972D01*
X153513843Y-88134442D01*
X153472820Y-88144692D01*
X153349739Y-88195674D01*
X153281654Y-88414929D01*
X153924000Y-89057275D01*
X153938143Y-89043133D01*
X154288868Y-89393858D01*
X154274725Y-89408000D01*
X154917071Y-90050346D01*
X155019106Y-90018661D01*
X155015000Y-90039302D01*
X155015000Y-90300698D01*
X155065996Y-90557072D01*
X155166028Y-90798570D01*
X155311252Y-91015913D01*
X155496087Y-91200748D01*
X155713430Y-91345972D01*
X155954928Y-91446004D01*
X156211302Y-91497000D01*
X156472698Y-91497000D01*
X156729072Y-91446004D01*
X156970570Y-91345972D01*
X157187913Y-91200748D01*
X157235857Y-91152804D01*
X157235153Y-91159949D01*
X157254498Y-91356375D01*
X157311794Y-91545252D01*
X157311795Y-91545253D01*
X157404837Y-91719324D01*
X157530052Y-91871898D01*
X157568286Y-91903276D01*
X158135010Y-92470000D01*
X154717900Y-92470000D01*
X154706927Y-92358587D01*
X154671075Y-92240397D01*
X154612853Y-92131472D01*
X154534501Y-92035999D01*
X154439028Y-91957647D01*
X154330103Y-91899425D01*
X154211913Y-91863573D01*
X154089000Y-91851467D01*
X152489000Y-91851467D01*
X152366087Y-91863573D01*
X152247897Y-91899425D01*
X152138972Y-91957647D01*
X152043499Y-92035999D01*
X151965147Y-92131472D01*
X151906925Y-92240397D01*
X151871073Y-92358587D01*
X151858967Y-92481500D01*
X151858967Y-94081500D01*
X151871073Y-94204413D01*
X151906925Y-94322603D01*
X151965147Y-94431528D01*
X152043499Y-94527001D01*
X152138972Y-94605353D01*
X152247897Y-94663575D01*
X152366087Y-94699427D01*
X152489000Y-94711533D01*
X152575646Y-94711533D01*
X152574115Y-94715890D01*
X153289000Y-95430775D01*
X154003885Y-94715890D01*
X154002354Y-94711533D01*
X154089000Y-94711533D01*
X154211913Y-94699427D01*
X154330103Y-94663575D01*
X154439028Y-94605353D01*
X154534501Y-94527001D01*
X154577997Y-94474000D01*
X160504827Y-94474000D01*
X160554051Y-94478848D01*
X160603274Y-94474000D01*
X161895386Y-94474000D01*
X161818925Y-94726061D01*
X161792338Y-94996000D01*
X161818925Y-95265939D01*
X161897663Y-95525505D01*
X162025527Y-95764721D01*
X162197603Y-95974397D01*
X162407279Y-96146473D01*
X162606349Y-96252878D01*
X162574867Y-96264133D01*
X162338289Y-96405847D01*
X162133903Y-96590992D01*
X161969565Y-96812453D01*
X161868957Y-97077893D01*
X161975090Y-97288000D01*
X163328000Y-97288000D01*
X163328000Y-97268000D01*
X163824000Y-97268000D01*
X163824000Y-97288000D01*
X165176910Y-97288000D01*
X165283043Y-97077893D01*
X165182435Y-96812453D01*
X165018097Y-96590992D01*
X164813711Y-96405847D01*
X164577133Y-96264133D01*
X164545651Y-96252878D01*
X164744721Y-96146473D01*
X164954397Y-95974397D01*
X165126473Y-95764721D01*
X165254337Y-95525505D01*
X165333075Y-95265939D01*
X165359662Y-94996000D01*
X165333075Y-94726061D01*
X165254337Y-94466495D01*
X165126473Y-94227279D01*
X164954397Y-94017603D01*
X164744721Y-93845527D01*
X164678767Y-93810274D01*
X165527500Y-92961541D01*
X165527500Y-105202500D01*
X142201900Y-105202500D01*
X142201900Y-105142000D01*
X142480284Y-105142000D01*
X142529500Y-105146847D01*
X142578716Y-105142000D01*
X142578723Y-105142000D01*
X142725926Y-105127502D01*
X142914804Y-105070206D01*
X143088875Y-104977164D01*
X143241449Y-104851949D01*
X143272832Y-104813710D01*
X144399000Y-103687542D01*
X145017173Y-104305715D01*
X145048551Y-104343949D01*
X145201125Y-104469164D01*
X145306155Y-104525303D01*
X145375196Y-104562206D01*
X145564073Y-104619502D01*
X145760500Y-104638848D01*
X145809723Y-104634000D01*
X158324784Y-104634000D01*
X158374000Y-104638847D01*
X158423216Y-104634000D01*
X158423223Y-104634000D01*
X158570426Y-104619502D01*
X158759304Y-104562206D01*
X158933375Y-104469164D01*
X159085949Y-104343949D01*
X159117332Y-104305709D01*
X162074443Y-101348598D01*
X162075972Y-101349853D01*
X162184897Y-101408075D01*
X162303087Y-101443927D01*
X162426000Y-101456033D01*
X164726000Y-101456033D01*
X164848913Y-101443927D01*
X164967103Y-101408075D01*
X165076028Y-101349853D01*
X165171501Y-101271501D01*
X165249853Y-101176028D01*
X165308075Y-101067103D01*
X165343927Y-100948913D01*
X165356033Y-100826000D01*
X165356033Y-99326000D01*
X165343927Y-99203087D01*
X165308075Y-99084897D01*
X165249853Y-98975972D01*
X165171501Y-98880499D01*
X165076028Y-98802147D01*
X164967103Y-98743925D01*
X164848913Y-98708073D01*
X164758582Y-98699176D01*
X164813711Y-98666153D01*
X165018097Y-98481008D01*
X165182435Y-98259547D01*
X165283043Y-97994107D01*
X165176910Y-97784000D01*
X163824000Y-97784000D01*
X163824000Y-97804000D01*
X163328000Y-97804000D01*
X163328000Y-97784000D01*
X161975090Y-97784000D01*
X161868957Y-97994107D01*
X161969565Y-98259547D01*
X162133903Y-98481008D01*
X162338289Y-98666153D01*
X162393418Y-98699176D01*
X162303087Y-98708073D01*
X162184897Y-98743925D01*
X162075972Y-98802147D01*
X161980499Y-98880499D01*
X161902147Y-98975972D01*
X161848025Y-99077226D01*
X161733574Y-99088498D01*
X161544696Y-99145794D01*
X161370625Y-99238836D01*
X161218051Y-99364051D01*
X161186673Y-99402285D01*
X157958959Y-102630000D01*
X146175542Y-102630000D01*
X145645325Y-102099784D01*
X145749028Y-102044353D01*
X145844501Y-101966001D01*
X145922853Y-101870528D01*
X145981075Y-101761603D01*
X145990489Y-101730568D01*
X148539657Y-101730568D01*
X148645023Y-101980183D01*
X148944281Y-102099229D01*
X149261013Y-102157606D01*
X149583048Y-102153069D01*
X149898010Y-102085793D01*
X150152977Y-101980183D01*
X150258343Y-101730568D01*
X149399000Y-100871225D01*
X148539657Y-101730568D01*
X145990489Y-101730568D01*
X146016927Y-101643413D01*
X146029033Y-101520500D01*
X146029033Y-100382513D01*
X147761894Y-100382513D01*
X147766431Y-100704548D01*
X147833707Y-101019510D01*
X147939317Y-101274477D01*
X148188932Y-101379843D01*
X149048275Y-100520500D01*
X149749725Y-100520500D01*
X150609068Y-101379843D01*
X150858683Y-101274477D01*
X150977729Y-100975219D01*
X151036106Y-100658487D01*
X151031569Y-100336452D01*
X150964293Y-100021490D01*
X150858683Y-99766523D01*
X150609068Y-99661157D01*
X149749725Y-100520500D01*
X149048275Y-100520500D01*
X148188932Y-99661157D01*
X147939317Y-99766523D01*
X147820271Y-100065781D01*
X147761894Y-100382513D01*
X146029033Y-100382513D01*
X146029033Y-99520500D01*
X146016927Y-99397587D01*
X145990490Y-99310432D01*
X148539657Y-99310432D01*
X149399000Y-100169775D01*
X150258343Y-99310432D01*
X150152977Y-99060817D01*
X149853719Y-98941771D01*
X149536987Y-98883394D01*
X149214952Y-98887931D01*
X148899990Y-98955207D01*
X148645023Y-99060817D01*
X148539657Y-99310432D01*
X145990490Y-99310432D01*
X145981075Y-99279397D01*
X145922853Y-99170472D01*
X145844501Y-99074999D01*
X145749028Y-98996647D01*
X145640103Y-98938425D01*
X145521913Y-98902573D01*
X145399000Y-98890467D01*
X143399000Y-98890467D01*
X143276087Y-98902573D01*
X143157897Y-98938425D01*
X143048972Y-98996647D01*
X142953499Y-99074999D01*
X142875147Y-99170472D01*
X142816925Y-99279397D01*
X142781073Y-99397587D01*
X142768967Y-99520500D01*
X142768967Y-101520500D01*
X142781073Y-101643413D01*
X142816925Y-101761603D01*
X142875147Y-101870528D01*
X142953499Y-101966001D01*
X143048972Y-102044353D01*
X143152675Y-102099784D01*
X142201900Y-103050559D01*
X142201900Y-99306000D01*
X142200814Y-99289423D01*
X142183777Y-99160013D01*
X142175196Y-99127989D01*
X142125246Y-99007399D01*
X142108668Y-98978687D01*
X142029208Y-98875134D01*
X142005766Y-98851692D01*
X141902213Y-98772232D01*
X141873501Y-98755654D01*
X141752911Y-98705704D01*
X141720887Y-98697123D01*
X141591477Y-98680086D01*
X141574900Y-98679000D01*
X138803595Y-98679000D01*
X138170700Y-98046105D01*
X138170700Y-97357356D01*
X138364111Y-97545116D01*
X138633222Y-97719216D01*
X138884742Y-97823390D01*
X139134500Y-97721270D01*
X139134500Y-96514000D01*
X139630500Y-96514000D01*
X139630500Y-97721270D01*
X139880258Y-97823390D01*
X140131778Y-97719216D01*
X140400889Y-97545116D01*
X140630864Y-97321860D01*
X140812865Y-97058028D01*
X140903916Y-96847110D01*
X152574115Y-96847110D01*
X152654713Y-97076444D01*
X152919532Y-97175305D01*
X153198549Y-97220603D01*
X153481042Y-97210597D01*
X153756155Y-97145672D01*
X153923287Y-97076444D01*
X154003885Y-96847110D01*
X153289000Y-96132225D01*
X152574115Y-96847110D01*
X140903916Y-96847110D01*
X140939898Y-96763759D01*
X140839841Y-96514000D01*
X139630500Y-96514000D01*
X139134500Y-96514000D01*
X139114500Y-96514000D01*
X139114500Y-96018000D01*
X139134500Y-96018000D01*
X139134500Y-94810730D01*
X139630500Y-94810730D01*
X139630500Y-96018000D01*
X140839841Y-96018000D01*
X140939898Y-95768241D01*
X140906575Y-95691049D01*
X151849897Y-95691049D01*
X151859903Y-95973542D01*
X151924828Y-96248655D01*
X151994056Y-96415787D01*
X152223390Y-96496385D01*
X152938275Y-95781500D01*
X153639725Y-95781500D01*
X154354610Y-96496385D01*
X154583944Y-96415787D01*
X154682805Y-96150968D01*
X154728103Y-95871951D01*
X154718097Y-95589458D01*
X154653172Y-95314345D01*
X154583944Y-95147213D01*
X154354610Y-95066615D01*
X153639725Y-95781500D01*
X152938275Y-95781500D01*
X152223390Y-95066615D01*
X151994056Y-95147213D01*
X151895195Y-95412032D01*
X151849897Y-95691049D01*
X140906575Y-95691049D01*
X140812865Y-95473972D01*
X140630864Y-95210140D01*
X140400889Y-94986884D01*
X140131778Y-94812784D01*
X139880258Y-94708610D01*
X139630500Y-94810730D01*
X139134500Y-94810730D01*
X138884742Y-94708610D01*
X138633222Y-94812784D01*
X138364111Y-94986884D01*
X138170700Y-95174644D01*
X138170700Y-93765454D01*
X141021399Y-93785889D01*
X141038053Y-93784912D01*
X141168116Y-93768663D01*
X141200325Y-93760242D01*
X141321697Y-93710750D01*
X141350612Y-93694246D01*
X141454950Y-93614912D01*
X141478582Y-93591462D01*
X141558718Y-93487737D01*
X141575444Y-93458950D01*
X141625869Y-93337963D01*
X141634538Y-93305819D01*
X141651788Y-93175885D01*
X141652893Y-93159239D01*
X141654563Y-90020000D01*
X143116725Y-90020000D01*
X143334511Y-90165519D01*
X143621506Y-90284396D01*
X143926179Y-90345000D01*
X144236821Y-90345000D01*
X144541494Y-90284396D01*
X144828489Y-90165519D01*
X145086779Y-89992936D01*
X145103166Y-89976549D01*
X145128028Y-90036570D01*
X145273252Y-90253913D01*
X145458087Y-90438748D01*
X145675430Y-90583972D01*
X145916928Y-90684004D01*
X146173302Y-90735000D01*
X146434698Y-90735000D01*
X146691072Y-90684004D01*
X146932570Y-90583972D01*
X147149913Y-90438748D01*
X147187590Y-90401071D01*
X153281654Y-90401071D01*
X153349739Y-90620326D01*
X153597286Y-90709064D01*
X153857389Y-90747803D01*
X154120052Y-90735055D01*
X154375180Y-90671308D01*
X154498261Y-90620326D01*
X154566346Y-90401071D01*
X153924000Y-89758725D01*
X153281654Y-90401071D01*
X147187590Y-90401071D01*
X147334748Y-90253913D01*
X147479972Y-90036570D01*
X147580004Y-89795072D01*
X147631000Y-89538698D01*
X147631000Y-89341389D01*
X152584197Y-89341389D01*
X152596945Y-89604052D01*
X152660692Y-89859180D01*
X152711674Y-89982261D01*
X152930929Y-90050346D01*
X153573275Y-89408000D01*
X152930929Y-88765654D01*
X152711674Y-88833739D01*
X152622936Y-89081286D01*
X152584197Y-89341389D01*
X147631000Y-89341389D01*
X147631000Y-89277302D01*
X147580004Y-89020928D01*
X147479972Y-88779430D01*
X147334748Y-88562087D01*
X147149913Y-88377252D01*
X147008829Y-88282982D01*
X147050989Y-88265519D01*
X147309279Y-88092936D01*
X147528936Y-87873279D01*
X147701519Y-87614989D01*
X147820396Y-87327994D01*
X147881000Y-87023321D01*
X147881000Y-86712679D01*
X147820396Y-86408006D01*
X147701519Y-86121011D01*
X147528936Y-85862721D01*
X147450158Y-85783943D01*
X147493592Y-85760727D01*
X147627133Y-85651133D01*
X147736727Y-85517592D01*
X147818162Y-85365237D01*
X147868310Y-85199922D01*
X147885243Y-85028000D01*
X147885243Y-83628000D01*
X147868310Y-83456078D01*
X147818162Y-83290763D01*
X147736727Y-83138408D01*
X147627133Y-83004867D01*
X147493592Y-82895273D01*
X147341237Y-82813838D01*
X147175922Y-82763690D01*
X147004000Y-82746757D01*
X145689490Y-82746757D01*
X145722000Y-82583321D01*
X145722000Y-82272679D01*
X145661396Y-81968006D01*
X145542519Y-81681011D01*
X145369936Y-81422721D01*
X145150279Y-81203064D01*
X144891989Y-81030481D01*
X144604994Y-80911604D01*
X144418517Y-80874511D01*
X144584994Y-80841396D01*
X144871989Y-80722519D01*
X145009825Y-80630420D01*
X145038996Y-80777072D01*
X145139028Y-81018570D01*
X145284252Y-81235913D01*
X145469087Y-81420748D01*
X145686430Y-81565972D01*
X145927928Y-81666004D01*
X146184302Y-81717000D01*
X146445698Y-81717000D01*
X146702072Y-81666004D01*
X146943570Y-81565972D01*
X147160913Y-81420748D01*
X147345748Y-81235913D01*
X147490972Y-81018570D01*
X147591004Y-80777072D01*
X147642000Y-80520698D01*
X147642000Y-80259302D01*
X147591004Y-80002928D01*
X147490972Y-79761430D01*
X147345748Y-79544087D01*
X147160913Y-79359252D01*
X147019829Y-79264982D01*
X147061989Y-79247519D01*
X147320279Y-79074936D01*
X147539936Y-78855279D01*
X147712519Y-78596989D01*
X147831396Y-78309994D01*
X147892000Y-78005321D01*
X147892000Y-77836198D01*
X153242917Y-83187116D01*
G36*
X160137252Y-84665913D02*
G01*
X160322087Y-84850748D01*
X160410943Y-84910120D01*
X160423464Y-84951396D01*
X160497935Y-85090722D01*
X160598157Y-85212843D01*
X160628762Y-85237960D01*
X161383967Y-85993165D01*
X161383967Y-87414000D01*
X161396073Y-87536913D01*
X161431925Y-87655103D01*
X161490147Y-87764028D01*
X161568499Y-87859501D01*
X161663972Y-87937853D01*
X161772897Y-87996075D01*
X161891087Y-88031927D01*
X162014000Y-88044033D01*
X162100646Y-88044033D01*
X162099115Y-88048390D01*
X162814000Y-88763275D01*
X163528885Y-88048390D01*
X163527354Y-88044033D01*
X163614000Y-88044033D01*
X163736913Y-88031927D01*
X163855103Y-87996075D01*
X163964028Y-87937853D01*
X164059501Y-87859501D01*
X164098000Y-87812589D01*
X164098000Y-88475867D01*
X163879610Y-88399115D01*
X163164725Y-89114000D01*
X163879610Y-89828885D01*
X164098000Y-89752133D01*
X164098000Y-91556958D01*
X163184959Y-92470000D01*
X160969092Y-92470000D01*
X159369783Y-90870691D01*
X159417972Y-90798570D01*
X159518004Y-90557072D01*
X159569000Y-90300698D01*
X159569000Y-90179610D01*
X162099115Y-90179610D01*
X162179713Y-90408944D01*
X162444532Y-90507805D01*
X162723549Y-90553103D01*
X163006042Y-90543097D01*
X163281155Y-90478172D01*
X163448287Y-90408944D01*
X163528885Y-90179610D01*
X162814000Y-89464725D01*
X162099115Y-90179610D01*
X159569000Y-90179610D01*
X159569000Y-90039302D01*
X159518004Y-89782928D01*
X159417972Y-89541430D01*
X159272748Y-89324087D01*
X159244000Y-89295339D01*
X159244000Y-89023549D01*
X161374897Y-89023549D01*
X161384903Y-89306042D01*
X161449828Y-89581155D01*
X161519056Y-89748287D01*
X161748390Y-89828885D01*
X162463275Y-89114000D01*
X161748390Y-88399115D01*
X161519056Y-88479713D01*
X161420195Y-88744532D01*
X161374897Y-89023549D01*
X159244000Y-89023549D01*
X159244000Y-88441215D01*
X159248847Y-88391999D01*
X159244000Y-88342783D01*
X159244000Y-88342777D01*
X159229502Y-88195574D01*
X159227824Y-88190040D01*
X159210216Y-88131996D01*
X159172206Y-88006696D01*
X159079164Y-87832625D01*
X158953949Y-87680051D01*
X158915714Y-87648673D01*
X158645352Y-87378310D01*
X158868487Y-87333926D01*
X159100886Y-87237663D01*
X159310040Y-87097911D01*
X159487911Y-86920040D01*
X159627663Y-86710886D01*
X159723926Y-86478487D01*
X159773000Y-86231774D01*
X159773000Y-85980226D01*
X159723926Y-85733513D01*
X159627663Y-85501114D01*
X159487911Y-85291960D01*
X159310040Y-85114089D01*
X159100886Y-84974337D01*
X158868487Y-84878074D01*
X158621774Y-84829000D01*
X158506033Y-84829000D01*
X158506033Y-84622000D01*
X160107910Y-84622000D01*
X160137252Y-84665913D01*
G37*
X160137252Y-84665913D02*
X160322087Y-84850748D01*
X160410943Y-84910120D01*
X160423464Y-84951396D01*
X160497935Y-85090722D01*
X160598157Y-85212843D01*
X160628762Y-85237960D01*
X161383967Y-85993165D01*
X161383967Y-87414000D01*
X161396073Y-87536913D01*
X161431925Y-87655103D01*
X161490147Y-87764028D01*
X161568499Y-87859501D01*
X161663972Y-87937853D01*
X161772897Y-87996075D01*
X161891087Y-88031927D01*
X162014000Y-88044033D01*
X162100646Y-88044033D01*
X162099115Y-88048390D01*
X162814000Y-88763275D01*
X163528885Y-88048390D01*
X163527354Y-88044033D01*
X163614000Y-88044033D01*
X163736913Y-88031927D01*
X163855103Y-87996075D01*
X163964028Y-87937853D01*
X164059501Y-87859501D01*
X164098000Y-87812589D01*
X164098000Y-88475867D01*
X163879610Y-88399115D01*
X163164725Y-89114000D01*
X163879610Y-89828885D01*
X164098000Y-89752133D01*
X164098000Y-91556958D01*
X163184959Y-92470000D01*
X160969092Y-92470000D01*
X159369783Y-90870691D01*
X159417972Y-90798570D01*
X159518004Y-90557072D01*
X159569000Y-90300698D01*
X159569000Y-90179610D01*
X162099115Y-90179610D01*
X162179713Y-90408944D01*
X162444532Y-90507805D01*
X162723549Y-90553103D01*
X163006042Y-90543097D01*
X163281155Y-90478172D01*
X163448287Y-90408944D01*
X163528885Y-90179610D01*
X162814000Y-89464725D01*
X162099115Y-90179610D01*
X159569000Y-90179610D01*
X159569000Y-90039302D01*
X159518004Y-89782928D01*
X159417972Y-89541430D01*
X159272748Y-89324087D01*
X159244000Y-89295339D01*
X159244000Y-89023549D01*
X161374897Y-89023549D01*
X161384903Y-89306042D01*
X161449828Y-89581155D01*
X161519056Y-89748287D01*
X161748390Y-89828885D01*
X162463275Y-89114000D01*
X161748390Y-88399115D01*
X161519056Y-88479713D01*
X161420195Y-88744532D01*
X161374897Y-89023549D01*
X159244000Y-89023549D01*
X159244000Y-88441215D01*
X159248847Y-88391999D01*
X159244000Y-88342783D01*
X159244000Y-88342777D01*
X159229502Y-88195574D01*
X159227824Y-88190040D01*
X159210216Y-88131996D01*
X159172206Y-88006696D01*
X159079164Y-87832625D01*
X158953949Y-87680051D01*
X158915714Y-87648673D01*
X158645352Y-87378310D01*
X158868487Y-87333926D01*
X159100886Y-87237663D01*
X159310040Y-87097911D01*
X159487911Y-86920040D01*
X159627663Y-86710886D01*
X159723926Y-86478487D01*
X159773000Y-86231774D01*
X159773000Y-85980226D01*
X159723926Y-85733513D01*
X159627663Y-85501114D01*
X159487911Y-85291960D01*
X159310040Y-85114089D01*
X159100886Y-84974337D01*
X158868487Y-84878074D01*
X158621774Y-84829000D01*
X158506033Y-84829000D01*
X158506033Y-84622000D01*
X160107910Y-84622000D01*
X160137252Y-84665913D01*
G36*
X163432868Y-83805858D02*
G01*
X163418725Y-83820000D01*
X164061071Y-84462346D01*
X164098001Y-84450878D01*
X164098001Y-85415412D01*
X164059501Y-85368499D01*
X163964028Y-85290147D01*
X163855103Y-85231925D01*
X163736913Y-85196073D01*
X163614000Y-85183967D01*
X162843166Y-85183967D01*
X162787084Y-85127885D01*
X163001389Y-85159803D01*
X163264052Y-85147055D01*
X163519180Y-85083308D01*
X163642261Y-85032326D01*
X163710346Y-84813071D01*
X163068000Y-84170725D01*
X163053858Y-84184868D01*
X162703133Y-83834143D01*
X162717275Y-83820000D01*
X162703133Y-83805858D01*
X163053858Y-83455133D01*
X163068000Y-83469275D01*
X163082143Y-83455133D01*
X163432868Y-83805858D01*
G37*
X163432868Y-83805858D02*
X163418725Y-83820000D01*
X164061071Y-84462346D01*
X164098001Y-84450878D01*
X164098001Y-85415412D01*
X164059501Y-85368499D01*
X163964028Y-85290147D01*
X163855103Y-85231925D01*
X163736913Y-85196073D01*
X163614000Y-85183967D01*
X162843166Y-85183967D01*
X162787084Y-85127885D01*
X163001389Y-85159803D01*
X163264052Y-85147055D01*
X163519180Y-85083308D01*
X163642261Y-85032326D01*
X163710346Y-84813071D01*
X163068000Y-84170725D01*
X163053858Y-84184868D01*
X162703133Y-83834143D01*
X162717275Y-83820000D01*
X162703133Y-83805858D01*
X163053858Y-83455133D01*
X163068000Y-83469275D01*
X163082143Y-83455133D01*
X163432868Y-83805858D01*
G36*
X150827879Y-77114243D02*
G01*
X150852992Y-77144843D01*
X150975112Y-77245065D01*
X151088633Y-77305743D01*
X151114438Y-77319536D01*
X151265615Y-77365395D01*
X151279050Y-77366718D01*
X151383441Y-77377000D01*
X151383449Y-77377000D01*
X151422835Y-77380879D01*
X151462221Y-77377000D01*
X152694589Y-77377000D01*
X152658996Y-77462928D01*
X152608000Y-77719302D01*
X152608000Y-77980698D01*
X152658996Y-78237072D01*
X152759028Y-78478570D01*
X152904252Y-78695913D01*
X153089087Y-78880748D01*
X153306430Y-79025972D01*
X153524843Y-79116442D01*
X153483820Y-79126692D01*
X153360739Y-79177674D01*
X153292654Y-79396929D01*
X153935000Y-80039275D01*
X153949143Y-80025133D01*
X154299868Y-80375858D01*
X154285725Y-80390000D01*
X154928071Y-81032346D01*
X155126484Y-80970733D01*
X155331545Y-81175794D01*
X155311252Y-81196087D01*
X155166028Y-81413430D01*
X155065996Y-81654928D01*
X155015000Y-81911302D01*
X155015000Y-82172698D01*
X155065996Y-82429072D01*
X155166028Y-82670570D01*
X155228456Y-82764000D01*
X155088200Y-82764000D01*
X154045411Y-81721211D01*
X154131052Y-81717055D01*
X154386180Y-81653308D01*
X154509261Y-81602326D01*
X154577346Y-81383071D01*
X153935000Y-80740725D01*
X153920858Y-80754868D01*
X153570133Y-80404143D01*
X153584275Y-80390000D01*
X152941929Y-79747654D01*
X152722674Y-79815739D01*
X152633936Y-80063286D01*
X152601988Y-80277789D01*
X148742001Y-76417803D01*
X148742001Y-75028364D01*
X150827879Y-77114243D01*
G37*
X150827879Y-77114243D02*
X150852992Y-77144843D01*
X150975112Y-77245065D01*
X151088633Y-77305743D01*
X151114438Y-77319536D01*
X151265615Y-77365395D01*
X151279050Y-77366718D01*
X151383441Y-77377000D01*
X151383449Y-77377000D01*
X151422835Y-77380879D01*
X151462221Y-77377000D01*
X152694589Y-77377000D01*
X152658996Y-77462928D01*
X152608000Y-77719302D01*
X152608000Y-77980698D01*
X152658996Y-78237072D01*
X152759028Y-78478570D01*
X152904252Y-78695913D01*
X153089087Y-78880748D01*
X153306430Y-79025972D01*
X153524843Y-79116442D01*
X153483820Y-79126692D01*
X153360739Y-79177674D01*
X153292654Y-79396929D01*
X153935000Y-80039275D01*
X153949143Y-80025133D01*
X154299868Y-80375858D01*
X154285725Y-80390000D01*
X154928071Y-81032346D01*
X155126484Y-80970733D01*
X155331545Y-81175794D01*
X155311252Y-81196087D01*
X155166028Y-81413430D01*
X155065996Y-81654928D01*
X155015000Y-81911302D01*
X155015000Y-82172698D01*
X155065996Y-82429072D01*
X155166028Y-82670570D01*
X155228456Y-82764000D01*
X155088200Y-82764000D01*
X154045411Y-81721211D01*
X154131052Y-81717055D01*
X154386180Y-81653308D01*
X154509261Y-81602326D01*
X154577346Y-81383071D01*
X153935000Y-80740725D01*
X153920858Y-80754868D01*
X153570133Y-80404143D01*
X153584275Y-80390000D01*
X152941929Y-79747654D01*
X152722674Y-79815739D01*
X152633936Y-80063286D01*
X152601988Y-80277789D01*
X148742001Y-76417803D01*
X148742001Y-75028364D01*
X150827879Y-77114243D01*
G36*
X161396073Y-77630913D02*
G01*
X161431925Y-77749103D01*
X161490147Y-77858028D01*
X161568499Y-77953501D01*
X161663972Y-78031853D01*
X161772897Y-78090075D01*
X161891087Y-78125927D01*
X162014000Y-78138033D01*
X162100646Y-78138033D01*
X162099115Y-78142390D01*
X162814000Y-78857275D01*
X163528885Y-78142390D01*
X163527354Y-78138033D01*
X163614000Y-78138033D01*
X163736913Y-78125927D01*
X163855103Y-78090075D01*
X163964028Y-78031853D01*
X164059501Y-77953501D01*
X164098001Y-77906589D01*
X164098001Y-78569867D01*
X163879610Y-78493115D01*
X163164725Y-79208000D01*
X163879610Y-79922885D01*
X164098000Y-79846133D01*
X164098000Y-81160805D01*
X164006306Y-81111794D01*
X163817428Y-81054498D01*
X163670225Y-81040000D01*
X163670218Y-81040000D01*
X163621002Y-81035153D01*
X163571786Y-81040000D01*
X159247660Y-81040000D01*
X159244000Y-81002835D01*
X159244000Y-81002829D01*
X159229502Y-80855625D01*
X159229281Y-80854894D01*
X159172206Y-80666747D01*
X159127473Y-80583057D01*
X159079164Y-80492676D01*
X158953949Y-80340102D01*
X158915715Y-80308724D01*
X158880601Y-80273610D01*
X162099115Y-80273610D01*
X162179713Y-80502944D01*
X162444532Y-80601805D01*
X162723549Y-80647103D01*
X163006042Y-80637097D01*
X163281155Y-80572172D01*
X163448287Y-80502944D01*
X163528885Y-80273610D01*
X162814000Y-79558725D01*
X162099115Y-80273610D01*
X158880601Y-80273610D01*
X158424798Y-79817808D01*
X158453926Y-79747487D01*
X158503000Y-79500774D01*
X158503000Y-79382000D01*
X158621774Y-79382000D01*
X158868487Y-79332926D01*
X159100886Y-79236663D01*
X159279152Y-79117549D01*
X161374897Y-79117549D01*
X161384903Y-79400042D01*
X161449828Y-79675155D01*
X161519056Y-79842287D01*
X161748390Y-79922885D01*
X162463275Y-79208000D01*
X161748390Y-78493115D01*
X161519056Y-78573713D01*
X161420195Y-78838532D01*
X161374897Y-79117549D01*
X159279152Y-79117549D01*
X159310040Y-79096911D01*
X159487911Y-78919040D01*
X159627663Y-78709886D01*
X159723926Y-78477487D01*
X159773000Y-78230774D01*
X159773000Y-77979226D01*
X159723926Y-77732513D01*
X159631758Y-77510000D01*
X161384164Y-77510000D01*
X161396073Y-77630913D01*
G37*
X161396073Y-77630913D02*
X161431925Y-77749103D01*
X161490147Y-77858028D01*
X161568499Y-77953501D01*
X161663972Y-78031853D01*
X161772897Y-78090075D01*
X161891087Y-78125927D01*
X162014000Y-78138033D01*
X162100646Y-78138033D01*
X162099115Y-78142390D01*
X162814000Y-78857275D01*
X163528885Y-78142390D01*
X163527354Y-78138033D01*
X163614000Y-78138033D01*
X163736913Y-78125927D01*
X163855103Y-78090075D01*
X163964028Y-78031853D01*
X164059501Y-77953501D01*
X164098001Y-77906589D01*
X164098001Y-78569867D01*
X163879610Y-78493115D01*
X163164725Y-79208000D01*
X163879610Y-79922885D01*
X164098000Y-79846133D01*
X164098000Y-81160805D01*
X164006306Y-81111794D01*
X163817428Y-81054498D01*
X163670225Y-81040000D01*
X163670218Y-81040000D01*
X163621002Y-81035153D01*
X163571786Y-81040000D01*
X159247660Y-81040000D01*
X159244000Y-81002835D01*
X159244000Y-81002829D01*
X159229502Y-80855625D01*
X159229281Y-80854894D01*
X159172206Y-80666747D01*
X159127473Y-80583057D01*
X159079164Y-80492676D01*
X158953949Y-80340102D01*
X158915715Y-80308724D01*
X158880601Y-80273610D01*
X162099115Y-80273610D01*
X162179713Y-80502944D01*
X162444532Y-80601805D01*
X162723549Y-80647103D01*
X163006042Y-80637097D01*
X163281155Y-80572172D01*
X163448287Y-80502944D01*
X163528885Y-80273610D01*
X162814000Y-79558725D01*
X162099115Y-80273610D01*
X158880601Y-80273610D01*
X158424798Y-79817808D01*
X158453926Y-79747487D01*
X158503000Y-79500774D01*
X158503000Y-79382000D01*
X158621774Y-79382000D01*
X158868487Y-79332926D01*
X159100886Y-79236663D01*
X159279152Y-79117549D01*
X161374897Y-79117549D01*
X161384903Y-79400042D01*
X161449828Y-79675155D01*
X161519056Y-79842287D01*
X161748390Y-79922885D01*
X162463275Y-79208000D01*
X161748390Y-78493115D01*
X161519056Y-78573713D01*
X161420195Y-78838532D01*
X161374897Y-79117549D01*
X159279152Y-79117549D01*
X159310040Y-79096911D01*
X159487911Y-78919040D01*
X159627663Y-78709886D01*
X159723926Y-78477487D01*
X159773000Y-78230774D01*
X159773000Y-77979226D01*
X159723926Y-77732513D01*
X159631758Y-77510000D01*
X161384164Y-77510000D01*
X161396073Y-77630913D01*
G36*
X159194500Y-73817275D02*
G01*
X159810275Y-73201500D01*
X162589459Y-73201500D01*
X164098001Y-74710043D01*
X164098001Y-75509412D01*
X164059501Y-75462499D01*
X163964028Y-75384147D01*
X163855103Y-75325925D01*
X163736913Y-75290073D01*
X163614000Y-75277967D01*
X162014000Y-75277967D01*
X161891087Y-75290073D01*
X161772897Y-75325925D01*
X161663972Y-75384147D01*
X161568499Y-75462499D01*
X161490147Y-75557972D01*
X161431925Y-75666897D01*
X161396073Y-75785087D01*
X161384164Y-75906000D01*
X158437819Y-75906000D01*
X158399853Y-75834972D01*
X158321501Y-75739499D01*
X158226028Y-75661147D01*
X158117103Y-75602925D01*
X158096500Y-75596675D01*
X158096500Y-75228090D01*
X158140413Y-75198748D01*
X158178090Y-75161071D01*
X158552154Y-75161071D01*
X158620239Y-75380326D01*
X158867786Y-75469064D01*
X159127889Y-75507803D01*
X159390552Y-75495055D01*
X159645680Y-75431308D01*
X159768761Y-75380326D01*
X159836846Y-75161071D01*
X159194500Y-74518725D01*
X158552154Y-75161071D01*
X158178090Y-75161071D01*
X158325248Y-75013913D01*
X158470472Y-74796570D01*
X158570504Y-74555072D01*
X158598761Y-74413014D01*
X158843775Y-74168000D01*
X159545225Y-74168000D01*
X160187571Y-74810346D01*
X160406826Y-74742261D01*
X160495564Y-74494714D01*
X160534303Y-74234611D01*
X160521555Y-73971948D01*
X160457808Y-73716820D01*
X160406826Y-73593739D01*
X160187571Y-73525654D01*
X159545225Y-74168000D01*
X158843775Y-74168000D01*
X158598761Y-73922986D01*
X158570504Y-73780928D01*
X158470472Y-73539430D01*
X158325248Y-73322087D01*
X158204661Y-73201500D01*
X158578725Y-73201500D01*
X159194500Y-73817275D01*
G37*
X159194500Y-73817275D02*
X159810275Y-73201500D01*
X162589459Y-73201500D01*
X164098001Y-74710043D01*
X164098001Y-75509412D01*
X164059501Y-75462499D01*
X163964028Y-75384147D01*
X163855103Y-75325925D01*
X163736913Y-75290073D01*
X163614000Y-75277967D01*
X162014000Y-75277967D01*
X161891087Y-75290073D01*
X161772897Y-75325925D01*
X161663972Y-75384147D01*
X161568499Y-75462499D01*
X161490147Y-75557972D01*
X161431925Y-75666897D01*
X161396073Y-75785087D01*
X161384164Y-75906000D01*
X158437819Y-75906000D01*
X158399853Y-75834972D01*
X158321501Y-75739499D01*
X158226028Y-75661147D01*
X158117103Y-75602925D01*
X158096500Y-75596675D01*
X158096500Y-75228090D01*
X158140413Y-75198748D01*
X158178090Y-75161071D01*
X158552154Y-75161071D01*
X158620239Y-75380326D01*
X158867786Y-75469064D01*
X159127889Y-75507803D01*
X159390552Y-75495055D01*
X159645680Y-75431308D01*
X159768761Y-75380326D01*
X159836846Y-75161071D01*
X159194500Y-74518725D01*
X158552154Y-75161071D01*
X158178090Y-75161071D01*
X158325248Y-75013913D01*
X158470472Y-74796570D01*
X158570504Y-74555072D01*
X158598761Y-74413014D01*
X158843775Y-74168000D01*
X159545225Y-74168000D01*
X160187571Y-74810346D01*
X160406826Y-74742261D01*
X160495564Y-74494714D01*
X160534303Y-74234611D01*
X160521555Y-73971948D01*
X160457808Y-73716820D01*
X160406826Y-73593739D01*
X160187571Y-73525654D01*
X159545225Y-74168000D01*
X158843775Y-74168000D01*
X158598761Y-73922986D01*
X158570504Y-73780928D01*
X158470472Y-73539430D01*
X158325248Y-73322087D01*
X158204661Y-73201500D01*
X158578725Y-73201500D01*
X159194500Y-73817275D01*
G36*
X151708365Y-65089437D02*
G01*
X151708354Y-65089446D01*
X151705627Y-65092173D01*
X151530811Y-65057400D01*
X151237189Y-65057400D01*
X150949208Y-65114683D01*
X150677936Y-65227048D01*
X150433798Y-65390176D01*
X150226176Y-65597798D01*
X150114000Y-65765681D01*
X150001824Y-65597798D01*
X149794202Y-65390176D01*
X149550064Y-65227048D01*
X149278792Y-65114683D01*
X148990811Y-65057400D01*
X148697189Y-65057400D01*
X148409208Y-65114683D01*
X148137936Y-65227048D01*
X147893798Y-65390176D01*
X147686176Y-65597798D01*
X147575783Y-65763012D01*
X147434577Y-65564320D01*
X147220947Y-65362657D01*
X146972079Y-65206546D01*
X146780147Y-65127055D01*
X146552000Y-65231302D01*
X146552000Y-66300000D01*
X146572000Y-66300000D01*
X146572000Y-66796000D01*
X146552000Y-66796000D01*
X146552000Y-66816000D01*
X146056000Y-66816000D01*
X146056000Y-66796000D01*
X144984803Y-66796000D01*
X144883045Y-67024149D01*
X145003240Y-67292214D01*
X145173423Y-67531680D01*
X145268421Y-67621357D01*
X145199297Y-67642325D01*
X145090372Y-67700547D01*
X144994899Y-67778899D01*
X144916547Y-67874372D01*
X144858325Y-67983297D01*
X144822473Y-68101487D01*
X144810367Y-68224400D01*
X144810367Y-69951600D01*
X144822473Y-70074513D01*
X144858325Y-70192703D01*
X144916547Y-70301628D01*
X144994899Y-70397101D01*
X145090372Y-70475453D01*
X145199297Y-70533675D01*
X145317487Y-70569527D01*
X145440400Y-70581633D01*
X145502000Y-70581633D01*
X145502000Y-72194612D01*
X145498121Y-72233998D01*
X145502000Y-72273384D01*
X145502000Y-72273391D01*
X145509026Y-72344721D01*
X145513605Y-72391217D01*
X145559464Y-72542394D01*
X145633935Y-72681720D01*
X145734157Y-72803841D01*
X145764762Y-72828958D01*
X146664560Y-73728757D01*
X145657555Y-73728757D01*
X145702000Y-73505321D01*
X145702000Y-73194679D01*
X145641396Y-72890006D01*
X145522519Y-72603011D01*
X145349936Y-72344721D01*
X145130279Y-72125064D01*
X144871989Y-71952481D01*
X144584994Y-71833604D01*
X144280321Y-71773000D01*
X143969679Y-71773000D01*
X143665006Y-71833604D01*
X143378011Y-71952481D01*
X143160225Y-72098000D01*
X141664096Y-72098000D01*
X141667300Y-66071851D01*
X144883045Y-66071851D01*
X144984803Y-66300000D01*
X146056000Y-66300000D01*
X146056000Y-65231302D01*
X145827853Y-65127055D01*
X145635921Y-65206546D01*
X145387053Y-65362657D01*
X145173423Y-65564320D01*
X145003240Y-65803786D01*
X144883045Y-66071851D01*
X141667300Y-66071851D01*
X141668153Y-64469500D01*
X152328301Y-64469500D01*
X151708365Y-65089437D01*
G37*
X151708365Y-65089437D02*
X151708354Y-65089446D01*
X151705627Y-65092173D01*
X151530811Y-65057400D01*
X151237189Y-65057400D01*
X150949208Y-65114683D01*
X150677936Y-65227048D01*
X150433798Y-65390176D01*
X150226176Y-65597798D01*
X150114000Y-65765681D01*
X150001824Y-65597798D01*
X149794202Y-65390176D01*
X149550064Y-65227048D01*
X149278792Y-65114683D01*
X148990811Y-65057400D01*
X148697189Y-65057400D01*
X148409208Y-65114683D01*
X148137936Y-65227048D01*
X147893798Y-65390176D01*
X147686176Y-65597798D01*
X147575783Y-65763012D01*
X147434577Y-65564320D01*
X147220947Y-65362657D01*
X146972079Y-65206546D01*
X146780147Y-65127055D01*
X146552000Y-65231302D01*
X146552000Y-66300000D01*
X146572000Y-66300000D01*
X146572000Y-66796000D01*
X146552000Y-66796000D01*
X146552000Y-66816000D01*
X146056000Y-66816000D01*
X146056000Y-66796000D01*
X144984803Y-66796000D01*
X144883045Y-67024149D01*
X145003240Y-67292214D01*
X145173423Y-67531680D01*
X145268421Y-67621357D01*
X145199297Y-67642325D01*
X145090372Y-67700547D01*
X144994899Y-67778899D01*
X144916547Y-67874372D01*
X144858325Y-67983297D01*
X144822473Y-68101487D01*
X144810367Y-68224400D01*
X144810367Y-69951600D01*
X144822473Y-70074513D01*
X144858325Y-70192703D01*
X144916547Y-70301628D01*
X144994899Y-70397101D01*
X145090372Y-70475453D01*
X145199297Y-70533675D01*
X145317487Y-70569527D01*
X145440400Y-70581633D01*
X145502000Y-70581633D01*
X145502000Y-72194612D01*
X145498121Y-72233998D01*
X145502000Y-72273384D01*
X145502000Y-72273391D01*
X145509026Y-72344721D01*
X145513605Y-72391217D01*
X145559464Y-72542394D01*
X145633935Y-72681720D01*
X145734157Y-72803841D01*
X145764762Y-72828958D01*
X146664560Y-73728757D01*
X145657555Y-73728757D01*
X145702000Y-73505321D01*
X145702000Y-73194679D01*
X145641396Y-72890006D01*
X145522519Y-72603011D01*
X145349936Y-72344721D01*
X145130279Y-72125064D01*
X144871989Y-71952481D01*
X144584994Y-71833604D01*
X144280321Y-71773000D01*
X143969679Y-71773000D01*
X143665006Y-71833604D01*
X143378011Y-71952481D01*
X143160225Y-72098000D01*
X141664096Y-72098000D01*
X141667300Y-66071851D01*
X144883045Y-66071851D01*
X144984803Y-66300000D01*
X146056000Y-66300000D01*
X146056000Y-65231302D01*
X145827853Y-65127055D01*
X145635921Y-65206546D01*
X145387053Y-65362657D01*
X145173423Y-65564320D01*
X145003240Y-65803786D01*
X144883045Y-66071851D01*
X141667300Y-66071851D01*
X141668153Y-64469500D01*
X152328301Y-64469500D01*
X151708365Y-65089437D01*
G36*
X165527501Y-73305459D02*
G01*
X163747832Y-71525791D01*
X163716449Y-71487551D01*
X163563875Y-71362336D01*
X163389804Y-71269294D01*
X163200926Y-71211998D01*
X163053723Y-71197500D01*
X163053716Y-71197500D01*
X163004500Y-71192653D01*
X162955284Y-71197500D01*
X162575847Y-71197500D01*
X162698537Y-71074810D01*
X162569612Y-70945884D01*
X162798944Y-70865287D01*
X162897805Y-70600468D01*
X162943103Y-70321451D01*
X162933097Y-70038958D01*
X162868172Y-69763845D01*
X162798944Y-69596713D01*
X162569610Y-69516115D01*
X161854725Y-70231000D01*
X161868868Y-70245143D01*
X161518143Y-70595868D01*
X161504000Y-70581725D01*
X161489858Y-70595868D01*
X161139133Y-70245143D01*
X161153275Y-70231000D01*
X160438390Y-69516115D01*
X160434033Y-69517646D01*
X160434033Y-69431000D01*
X160421927Y-69308087D01*
X160386075Y-69189897D01*
X160372976Y-69165390D01*
X160789115Y-69165390D01*
X161504000Y-69880275D01*
X162218885Y-69165390D01*
X162138287Y-68936056D01*
X161873468Y-68837195D01*
X161594451Y-68791897D01*
X161311958Y-68801903D01*
X161036845Y-68866828D01*
X160869713Y-68936056D01*
X160789115Y-69165390D01*
X160372976Y-69165390D01*
X160327853Y-69080972D01*
X160249501Y-68985499D01*
X160190754Y-68937287D01*
X161260215Y-67867827D01*
X161298449Y-67836449D01*
X161423664Y-67683875D01*
X161516706Y-67509804D01*
X161559031Y-67370278D01*
X161574002Y-67320927D01*
X161583642Y-67223045D01*
X161588500Y-67173723D01*
X161588500Y-67173716D01*
X161593347Y-67124500D01*
X161588500Y-67075284D01*
X161588500Y-66851161D01*
X161617248Y-66822413D01*
X161762472Y-66605070D01*
X161862504Y-66363572D01*
X161913500Y-66107198D01*
X161913500Y-65845802D01*
X161862504Y-65589428D01*
X161762472Y-65347930D01*
X161617248Y-65130587D01*
X161432413Y-64945752D01*
X161215070Y-64800528D01*
X160973572Y-64700496D01*
X160717198Y-64649500D01*
X160455802Y-64649500D01*
X160199428Y-64700496D01*
X159957930Y-64800528D01*
X159740587Y-64945752D01*
X159636500Y-65049839D01*
X159532413Y-64945752D01*
X159315070Y-64800528D01*
X159073572Y-64700496D01*
X158817198Y-64649500D01*
X158555802Y-64649500D01*
X158504002Y-64659804D01*
X158313698Y-64469500D01*
X165527501Y-64469500D01*
X165527501Y-73305459D01*
G37*
X165527501Y-73305459D02*
X163747832Y-71525791D01*
X163716449Y-71487551D01*
X163563875Y-71362336D01*
X163389804Y-71269294D01*
X163200926Y-71211998D01*
X163053723Y-71197500D01*
X163053716Y-71197500D01*
X163004500Y-71192653D01*
X162955284Y-71197500D01*
X162575847Y-71197500D01*
X162698537Y-71074810D01*
X162569612Y-70945884D01*
X162798944Y-70865287D01*
X162897805Y-70600468D01*
X162943103Y-70321451D01*
X162933097Y-70038958D01*
X162868172Y-69763845D01*
X162798944Y-69596713D01*
X162569610Y-69516115D01*
X161854725Y-70231000D01*
X161868868Y-70245143D01*
X161518143Y-70595868D01*
X161504000Y-70581725D01*
X161489858Y-70595868D01*
X161139133Y-70245143D01*
X161153275Y-70231000D01*
X160438390Y-69516115D01*
X160434033Y-69517646D01*
X160434033Y-69431000D01*
X160421927Y-69308087D01*
X160386075Y-69189897D01*
X160372976Y-69165390D01*
X160789115Y-69165390D01*
X161504000Y-69880275D01*
X162218885Y-69165390D01*
X162138287Y-68936056D01*
X161873468Y-68837195D01*
X161594451Y-68791897D01*
X161311958Y-68801903D01*
X161036845Y-68866828D01*
X160869713Y-68936056D01*
X160789115Y-69165390D01*
X160372976Y-69165390D01*
X160327853Y-69080972D01*
X160249501Y-68985499D01*
X160190754Y-68937287D01*
X161260215Y-67867827D01*
X161298449Y-67836449D01*
X161423664Y-67683875D01*
X161516706Y-67509804D01*
X161559031Y-67370278D01*
X161574002Y-67320927D01*
X161583642Y-67223045D01*
X161588500Y-67173723D01*
X161588500Y-67173716D01*
X161593347Y-67124500D01*
X161588500Y-67075284D01*
X161588500Y-66851161D01*
X161617248Y-66822413D01*
X161762472Y-66605070D01*
X161862504Y-66363572D01*
X161913500Y-66107198D01*
X161913500Y-65845802D01*
X161862504Y-65589428D01*
X161762472Y-65347930D01*
X161617248Y-65130587D01*
X161432413Y-64945752D01*
X161215070Y-64800528D01*
X160973572Y-64700496D01*
X160717198Y-64649500D01*
X160455802Y-64649500D01*
X160199428Y-64700496D01*
X159957930Y-64800528D01*
X159740587Y-64945752D01*
X159636500Y-65049839D01*
X159532413Y-64945752D01*
X159315070Y-64800528D01*
X159073572Y-64700496D01*
X158817198Y-64649500D01*
X158555802Y-64649500D01*
X158504002Y-64659804D01*
X158313698Y-64469500D01*
X165527501Y-64469500D01*
X165527501Y-73305459D01*
M02*
