M48
; DRILL file {KiCad (5.1.5)-3} date 4/11/2020 11:24:32 PM
; FORMAT={-:-/ absolute / inch / decimal}
; #@! TF.CreationDate,2020-04-11T23:24:32-04:00
; #@! TF.GenerationSoftware,Kicad,Pcbnew,(5.1.5)-3
; #@! TF.FileFunction,Plated,1,2,PTH
FMAT,2
INCH
T1C0.0276
T2C0.0295
T3C0.0315
T4C0.0354
T5C0.0394
T6C0.0400
T7C0.0512
%
G90
G05
T1
X6.2475Y-2.5975
X5.9523Y-2.8425
X6.0352Y-2.8425
X6.11Y-2.8425
X6.3452Y-3.3
X6.42Y-3.3
X6.1552Y-3.55
X6.23Y-3.55
X5.6742Y-2.8878
X5.6742Y-2.9626
X5.675Y-3.2452
X5.675Y-3.32
X5.6742Y-3.0482
X5.6742Y-3.123
X6.1552Y-3.23
X6.23Y-3.23
X5.6725Y-3.42
X5.6725Y-3.4948
X6.3223Y-2.5975
X6.1927Y-2.92
X6.2675Y-2.92
X5.8775Y-2.8425
T2
X6.19Y-3.34
X6.19Y-3.44
X6.24Y-3.39
X6.19Y-3.025
X6.19Y-3.125
X6.24Y-3.075
T3
X6.41Y-3.02
X6.41Y-3.1184
X6.035Y-3.6725
X6.035Y-3.7709
X6.26Y-2.765
X6.3584Y-2.765
X6.41Y-3.41
X6.41Y-3.5084
T4
X5.76Y-3.32
X5.76Y-3.42
X5.76Y-3.52
X6.06Y-3.32
X6.06Y-3.42
X6.06Y-3.52
X5.7604Y-2.965
X5.7604Y-3.065
X5.7604Y-3.165
X6.0604Y-2.965
X6.0604Y-3.065
X6.0604Y-3.165
T5
X6.44Y-3.74
X6.44Y-3.84
X6.44Y-3.94
X5.685Y-3.9575
X5.8819Y-3.9575
X5.2875Y-3.79
X5.2875Y-3.99
X5.4875Y-3.79
X5.4875Y-3.99
T6
X5.76Y-2.62
X5.76Y-2.72
X5.86Y-2.62
X5.86Y-2.72
X5.96Y-2.62
X5.96Y-2.72
X6.06Y-2.62
X6.06Y-2.72
T7
X5.3905Y-2.975
X5.3905Y-3.1719
X5.3905Y-3.3687
X5.3905Y-3.5656
T0
M30
