G04 #@! TF.GenerationSoftware,KiCad,Pcbnew,(5.1.5)-3*
G04 #@! TF.CreationDate,2020-04-11T23:24:35-04:00*
G04 #@! TF.ProjectId,Doorbell,446f6f72-6265-46c6-9c2e-6b696361645f,v1*
G04 #@! TF.SameCoordinates,Original*
G04 #@! TF.FileFunction,Soldermask,Top*
G04 #@! TF.FilePolarity,Negative*
%FSLAX46Y46*%
G04 Gerber Fmt 4.6, Leading zero omitted, Abs format (unit mm)*
G04 Created by KiCad (PCBNEW (5.1.5)-3) date 2020-04-11 23:24:35*
%MOMM*%
%LPD*%
G04 APERTURE LIST*
%ADD10C,0.100000*%
G04 APERTURE END LIST*
D10*
G36*
X139689064Y-100335389D02*
G01*
X139880333Y-100414615D01*
X139880335Y-100414616D01*
X140052473Y-100529635D01*
X140198865Y-100676027D01*
X140299785Y-100827064D01*
X140313885Y-100848167D01*
X140393111Y-101039436D01*
X140433500Y-101242484D01*
X140433500Y-101449516D01*
X140393111Y-101652564D01*
X140313885Y-101843833D01*
X140313884Y-101843835D01*
X140198865Y-102015973D01*
X140052473Y-102162365D01*
X139880335Y-102277384D01*
X139880334Y-102277385D01*
X139880333Y-102277385D01*
X139689064Y-102356611D01*
X139486016Y-102397000D01*
X139278984Y-102397000D01*
X139075936Y-102356611D01*
X138884667Y-102277385D01*
X138884666Y-102277385D01*
X138884665Y-102277384D01*
X138712527Y-102162365D01*
X138566135Y-102015973D01*
X138451116Y-101843835D01*
X138451115Y-101843833D01*
X138371889Y-101652564D01*
X138331500Y-101449516D01*
X138331500Y-101242484D01*
X138371889Y-101039436D01*
X138451115Y-100848167D01*
X138465216Y-100827064D01*
X138566135Y-100676027D01*
X138712527Y-100529635D01*
X138884665Y-100414616D01*
X138884667Y-100414615D01*
X139075936Y-100335389D01*
X139278984Y-100295000D01*
X139486016Y-100295000D01*
X139689064Y-100335389D01*
G37*
G36*
X135353500Y-102397000D02*
G01*
X133251500Y-102397000D01*
X133251500Y-100295000D01*
X135353500Y-100295000D01*
X135353500Y-102397000D01*
G37*
G36*
X145450000Y-101571500D02*
G01*
X143348000Y-101571500D01*
X143348000Y-99469500D01*
X145450000Y-99469500D01*
X145450000Y-101571500D01*
G37*
G36*
X149705564Y-99509889D02*
G01*
X149896833Y-99589115D01*
X149896835Y-99589116D01*
X150068973Y-99704135D01*
X150215365Y-99850527D01*
X150330385Y-100022667D01*
X150409611Y-100213936D01*
X150450000Y-100416984D01*
X150450000Y-100624016D01*
X150409611Y-100827064D01*
X150330385Y-101018333D01*
X150330384Y-101018335D01*
X150215365Y-101190473D01*
X150068973Y-101336865D01*
X149896835Y-101451884D01*
X149896834Y-101451885D01*
X149896833Y-101451885D01*
X149705564Y-101531111D01*
X149502516Y-101571500D01*
X149295484Y-101571500D01*
X149092436Y-101531111D01*
X148901167Y-101451885D01*
X148901166Y-101451885D01*
X148901165Y-101451884D01*
X148729027Y-101336865D01*
X148582635Y-101190473D01*
X148467616Y-101018335D01*
X148467615Y-101018333D01*
X148388389Y-100827064D01*
X148348000Y-100624016D01*
X148348000Y-100416984D01*
X148388389Y-100213936D01*
X148467615Y-100022667D01*
X148582635Y-99850527D01*
X148729027Y-99704135D01*
X148901165Y-99589116D01*
X148901167Y-99589115D01*
X149092436Y-99509889D01*
X149295484Y-99469500D01*
X149502516Y-99469500D01*
X149705564Y-99509889D01*
G37*
G36*
X164777000Y-100877000D02*
G01*
X162375000Y-100877000D01*
X162375000Y-99275000D01*
X164777000Y-99275000D01*
X164777000Y-100877000D01*
G37*
G36*
X164054571Y-96738863D02*
G01*
X164133023Y-96746590D01*
X164233682Y-96777125D01*
X164284013Y-96792392D01*
X164423165Y-96866771D01*
X164545133Y-96966867D01*
X164645229Y-97088835D01*
X164719608Y-97227987D01*
X164719608Y-97227988D01*
X164765410Y-97378977D01*
X164780875Y-97536000D01*
X164765410Y-97693023D01*
X164734875Y-97793682D01*
X164719608Y-97844013D01*
X164645229Y-97983165D01*
X164545133Y-98105133D01*
X164423165Y-98205229D01*
X164284013Y-98279608D01*
X164233682Y-98294875D01*
X164133023Y-98325410D01*
X164054571Y-98333137D01*
X164015346Y-98337000D01*
X163136654Y-98337000D01*
X163097429Y-98333137D01*
X163018977Y-98325410D01*
X162918318Y-98294875D01*
X162867987Y-98279608D01*
X162728835Y-98205229D01*
X162606867Y-98105133D01*
X162506771Y-97983165D01*
X162432392Y-97844013D01*
X162417125Y-97793682D01*
X162386590Y-97693023D01*
X162371125Y-97536000D01*
X162386590Y-97378977D01*
X162432392Y-97227988D01*
X162432392Y-97227987D01*
X162506771Y-97088835D01*
X162606867Y-96966867D01*
X162728835Y-96866771D01*
X162867987Y-96792392D01*
X162918318Y-96777125D01*
X163018977Y-96746590D01*
X163097429Y-96738863D01*
X163136654Y-96735000D01*
X164015346Y-96735000D01*
X164054571Y-96738863D01*
G37*
G36*
X134609064Y-95255389D02*
G01*
X134800333Y-95334615D01*
X134800335Y-95334616D01*
X134865862Y-95378400D01*
X134972473Y-95449635D01*
X135118865Y-95596027D01*
X135233885Y-95768167D01*
X135313111Y-95959436D01*
X135353500Y-96162484D01*
X135353500Y-96369516D01*
X135313111Y-96572564D01*
X135245828Y-96735000D01*
X135233884Y-96763835D01*
X135118865Y-96935973D01*
X134972473Y-97082365D01*
X134800335Y-97197384D01*
X134800334Y-97197385D01*
X134800333Y-97197385D01*
X134609064Y-97276611D01*
X134406016Y-97317000D01*
X134198984Y-97317000D01*
X133995936Y-97276611D01*
X133804667Y-97197385D01*
X133804666Y-97197385D01*
X133804665Y-97197384D01*
X133632527Y-97082365D01*
X133486135Y-96935973D01*
X133371116Y-96763835D01*
X133359172Y-96735000D01*
X133291889Y-96572564D01*
X133251500Y-96369516D01*
X133251500Y-96162484D01*
X133291889Y-95959436D01*
X133371115Y-95768167D01*
X133486135Y-95596027D01*
X133632527Y-95449635D01*
X133739138Y-95378400D01*
X133804665Y-95334616D01*
X133804667Y-95334615D01*
X133995936Y-95255389D01*
X134198984Y-95215000D01*
X134406016Y-95215000D01*
X134609064Y-95255389D01*
G37*
G36*
X139689064Y-95255389D02*
G01*
X139880333Y-95334615D01*
X139880335Y-95334616D01*
X139945862Y-95378400D01*
X140052473Y-95449635D01*
X140198865Y-95596027D01*
X140313885Y-95768167D01*
X140393111Y-95959436D01*
X140433500Y-96162484D01*
X140433500Y-96369516D01*
X140393111Y-96572564D01*
X140325828Y-96735000D01*
X140313884Y-96763835D01*
X140198865Y-96935973D01*
X140052473Y-97082365D01*
X139880335Y-97197384D01*
X139880334Y-97197385D01*
X139880333Y-97197385D01*
X139689064Y-97276611D01*
X139486016Y-97317000D01*
X139278984Y-97317000D01*
X139075936Y-97276611D01*
X138884667Y-97197385D01*
X138884666Y-97197385D01*
X138884665Y-97197384D01*
X138712527Y-97082365D01*
X138566135Y-96935973D01*
X138451116Y-96763835D01*
X138439172Y-96735000D01*
X138371889Y-96572564D01*
X138331500Y-96369516D01*
X138331500Y-96162484D01*
X138371889Y-95959436D01*
X138451115Y-95768167D01*
X138566135Y-95596027D01*
X138712527Y-95449635D01*
X138819138Y-95378400D01*
X138884665Y-95334616D01*
X138884667Y-95334615D01*
X139075936Y-95255389D01*
X139278984Y-95215000D01*
X139486016Y-95215000D01*
X139689064Y-95255389D01*
G37*
G36*
X153537228Y-94963203D02*
G01*
X153692100Y-95027353D01*
X153831481Y-95120485D01*
X153950015Y-95239019D01*
X154043147Y-95378400D01*
X154107297Y-95533272D01*
X154140000Y-95697684D01*
X154140000Y-95865316D01*
X154107297Y-96029728D01*
X154043147Y-96184600D01*
X153950015Y-96323981D01*
X153831481Y-96442515D01*
X153692100Y-96535647D01*
X153537228Y-96599797D01*
X153372816Y-96632500D01*
X153205184Y-96632500D01*
X153040772Y-96599797D01*
X152885900Y-96535647D01*
X152746519Y-96442515D01*
X152627985Y-96323981D01*
X152534853Y-96184600D01*
X152470703Y-96029728D01*
X152438000Y-95865316D01*
X152438000Y-95697684D01*
X152470703Y-95533272D01*
X152534853Y-95378400D01*
X152627985Y-95239019D01*
X152746519Y-95120485D01*
X152885900Y-95027353D01*
X153040772Y-94963203D01*
X153205184Y-94930500D01*
X153372816Y-94930500D01*
X153537228Y-94963203D01*
G37*
G36*
X164054571Y-94198863D02*
G01*
X164133023Y-94206590D01*
X164233682Y-94237125D01*
X164284013Y-94252392D01*
X164423165Y-94326771D01*
X164545133Y-94426867D01*
X164645229Y-94548835D01*
X164719608Y-94687987D01*
X164719608Y-94687988D01*
X164765410Y-94838977D01*
X164780875Y-94996000D01*
X164765410Y-95153023D01*
X164746609Y-95215000D01*
X164719608Y-95304013D01*
X164645229Y-95443165D01*
X164545133Y-95565133D01*
X164423165Y-95665229D01*
X164284013Y-95739608D01*
X164233682Y-95754875D01*
X164133023Y-95785410D01*
X164054571Y-95793137D01*
X164015346Y-95797000D01*
X163136654Y-95797000D01*
X163097429Y-95793137D01*
X163018977Y-95785410D01*
X162918318Y-95754875D01*
X162867987Y-95739608D01*
X162728835Y-95665229D01*
X162606867Y-95565133D01*
X162506771Y-95443165D01*
X162432392Y-95304013D01*
X162405391Y-95215000D01*
X162386590Y-95153023D01*
X162371125Y-94996000D01*
X162386590Y-94838977D01*
X162432392Y-94687988D01*
X162432392Y-94687987D01*
X162506771Y-94548835D01*
X162606867Y-94426867D01*
X162728835Y-94326771D01*
X162867987Y-94252392D01*
X162918318Y-94237125D01*
X163018977Y-94206590D01*
X163097429Y-94198863D01*
X163136654Y-94195000D01*
X164015346Y-94195000D01*
X164054571Y-94198863D01*
G37*
G36*
X154140000Y-94132500D02*
G01*
X152438000Y-94132500D01*
X152438000Y-92430500D01*
X154140000Y-92430500D01*
X154140000Y-94132500D01*
G37*
G36*
X137312772Y-89265918D02*
G01*
X137545289Y-89362229D01*
X137558639Y-89367759D01*
X137657070Y-89433529D01*
X137763242Y-89504471D01*
X137779912Y-89515610D01*
X137968090Y-89703788D01*
X138077913Y-89868148D01*
X138115942Y-89925063D01*
X138217782Y-90170928D01*
X138269700Y-90431937D01*
X138269700Y-90698063D01*
X138242356Y-90835528D01*
X138217782Y-90959072D01*
X138115941Y-91204939D01*
X137968090Y-91426212D01*
X137779912Y-91614390D01*
X137558639Y-91762241D01*
X137558638Y-91762242D01*
X137558637Y-91762242D01*
X137312772Y-91864082D01*
X137051763Y-91916000D01*
X136785637Y-91916000D01*
X136524628Y-91864082D01*
X136278763Y-91762242D01*
X136278762Y-91762242D01*
X136278761Y-91762241D01*
X136057488Y-91614390D01*
X135869310Y-91426212D01*
X135721459Y-91204939D01*
X135619618Y-90959072D01*
X135595044Y-90835528D01*
X135567700Y-90698063D01*
X135567700Y-90431937D01*
X135619618Y-90170928D01*
X135721458Y-89925063D01*
X135759488Y-89868148D01*
X135869310Y-89703788D01*
X136057488Y-89515610D01*
X136074159Y-89504471D01*
X136180330Y-89433529D01*
X136278761Y-89367759D01*
X136292112Y-89362229D01*
X136524628Y-89265918D01*
X136785637Y-89214000D01*
X137051763Y-89214000D01*
X137312772Y-89265918D01*
G37*
G36*
X158461059Y-89447860D02*
G01*
X158543401Y-89481967D01*
X158597732Y-89504472D01*
X158720735Y-89586660D01*
X158825340Y-89691265D01*
X158873761Y-89763732D01*
X158907529Y-89814270D01*
X158929846Y-89868148D01*
X158964140Y-89950941D01*
X158993000Y-90096033D01*
X158993000Y-90243967D01*
X158964140Y-90389059D01*
X158907528Y-90525732D01*
X158825340Y-90648735D01*
X158720735Y-90753340D01*
X158597732Y-90835528D01*
X158597731Y-90835529D01*
X158597730Y-90835529D01*
X158461059Y-90892140D01*
X158315968Y-90921000D01*
X158168032Y-90921000D01*
X158022941Y-90892140D01*
X157886270Y-90835529D01*
X157886269Y-90835529D01*
X157886268Y-90835528D01*
X157763265Y-90753340D01*
X157658660Y-90648735D01*
X157576472Y-90525732D01*
X157519860Y-90389059D01*
X157491000Y-90243967D01*
X157491000Y-90096033D01*
X157519860Y-89950941D01*
X157554154Y-89868148D01*
X157576471Y-89814270D01*
X157610239Y-89763732D01*
X157658660Y-89691265D01*
X157763265Y-89586660D01*
X157886268Y-89504472D01*
X157940600Y-89481967D01*
X158022941Y-89447860D01*
X158168032Y-89419000D01*
X158315968Y-89419000D01*
X158461059Y-89447860D01*
G37*
G36*
X156561059Y-89447860D02*
G01*
X156643401Y-89481967D01*
X156697732Y-89504472D01*
X156820735Y-89586660D01*
X156925340Y-89691265D01*
X156973761Y-89763732D01*
X157007529Y-89814270D01*
X157029846Y-89868148D01*
X157064140Y-89950941D01*
X157093000Y-90096033D01*
X157093000Y-90243967D01*
X157064140Y-90389059D01*
X157007528Y-90525732D01*
X156925340Y-90648735D01*
X156820735Y-90753340D01*
X156697732Y-90835528D01*
X156697731Y-90835529D01*
X156697730Y-90835529D01*
X156561059Y-90892140D01*
X156415968Y-90921000D01*
X156268032Y-90921000D01*
X156122941Y-90892140D01*
X155986270Y-90835529D01*
X155986269Y-90835529D01*
X155986268Y-90835528D01*
X155863265Y-90753340D01*
X155758660Y-90648735D01*
X155676472Y-90525732D01*
X155619860Y-90389059D01*
X155591000Y-90243967D01*
X155591000Y-90096033D01*
X155619860Y-89950941D01*
X155654154Y-89868148D01*
X155676471Y-89814270D01*
X155710239Y-89763732D01*
X155758660Y-89691265D01*
X155863265Y-89586660D01*
X155986268Y-89504472D01*
X156040600Y-89481967D01*
X156122941Y-89447860D01*
X156268032Y-89419000D01*
X156415968Y-89419000D01*
X156561059Y-89447860D01*
G37*
G36*
X146523059Y-88685860D02*
G01*
X146659732Y-88742472D01*
X146782735Y-88824660D01*
X146887340Y-88929265D01*
X146969528Y-89052268D01*
X146969529Y-89052270D01*
X147026140Y-89188941D01*
X147055000Y-89334032D01*
X147055000Y-89481968D01*
X147048012Y-89517100D01*
X147026140Y-89627059D01*
X146969528Y-89763732D01*
X146887340Y-89886735D01*
X146782735Y-89991340D01*
X146659732Y-90073528D01*
X146659731Y-90073529D01*
X146659730Y-90073529D01*
X146523059Y-90130140D01*
X146377968Y-90159000D01*
X146230032Y-90159000D01*
X146084941Y-90130140D01*
X145948270Y-90073529D01*
X145948269Y-90073529D01*
X145948268Y-90073528D01*
X145825265Y-89991340D01*
X145720660Y-89886735D01*
X145638472Y-89763732D01*
X145581860Y-89627059D01*
X145559988Y-89517100D01*
X145553000Y-89481968D01*
X145553000Y-89334032D01*
X145581860Y-89188941D01*
X145638471Y-89052270D01*
X145638472Y-89052268D01*
X145720660Y-88929265D01*
X145825265Y-88824660D01*
X145948268Y-88742472D01*
X146084941Y-88685860D01*
X146230032Y-88657000D01*
X146377968Y-88657000D01*
X146523059Y-88685860D01*
G37*
G36*
X154143059Y-88685860D02*
G01*
X154279732Y-88742472D01*
X154402735Y-88824660D01*
X154507340Y-88929265D01*
X154589528Y-89052268D01*
X154589529Y-89052270D01*
X154646140Y-89188941D01*
X154675000Y-89334032D01*
X154675000Y-89481968D01*
X154668012Y-89517100D01*
X154646140Y-89627059D01*
X154589528Y-89763732D01*
X154507340Y-89886735D01*
X154402735Y-89991340D01*
X154279732Y-90073528D01*
X154279731Y-90073529D01*
X154279730Y-90073529D01*
X154143059Y-90130140D01*
X153997968Y-90159000D01*
X153850032Y-90159000D01*
X153704941Y-90130140D01*
X153568270Y-90073529D01*
X153568269Y-90073529D01*
X153568268Y-90073528D01*
X153445265Y-89991340D01*
X153340660Y-89886735D01*
X153258472Y-89763732D01*
X153201860Y-89627059D01*
X153179988Y-89517100D01*
X153173000Y-89481968D01*
X153173000Y-89334032D01*
X153201860Y-89188941D01*
X153258471Y-89052270D01*
X153258472Y-89052268D01*
X153340660Y-88929265D01*
X153445265Y-88824660D01*
X153568268Y-88742472D01*
X153704941Y-88685860D01*
X153850032Y-88657000D01*
X153997968Y-88657000D01*
X154143059Y-88685860D01*
G37*
G36*
X163062228Y-88295703D02*
G01*
X163217100Y-88359853D01*
X163356481Y-88452985D01*
X163475015Y-88571519D01*
X163568147Y-88710900D01*
X163632297Y-88865772D01*
X163665000Y-89030184D01*
X163665000Y-89197816D01*
X163632297Y-89362228D01*
X163568147Y-89517100D01*
X163475015Y-89656481D01*
X163356481Y-89775015D01*
X163217100Y-89868147D01*
X163062228Y-89932297D01*
X162897816Y-89965000D01*
X162730184Y-89965000D01*
X162565772Y-89932297D01*
X162410900Y-89868147D01*
X162271519Y-89775015D01*
X162152985Y-89656481D01*
X162059853Y-89517100D01*
X161995703Y-89362228D01*
X161963000Y-89197816D01*
X161963000Y-89030184D01*
X161995703Y-88865772D01*
X162059853Y-88710900D01*
X162152985Y-88571519D01*
X162271519Y-88452985D01*
X162410900Y-88359853D01*
X162565772Y-88295703D01*
X162730184Y-88263000D01*
X162897816Y-88263000D01*
X163062228Y-88295703D01*
G37*
G36*
X144300559Y-88045860D02*
G01*
X144375738Y-88077000D01*
X144437232Y-88102472D01*
X144560235Y-88184660D01*
X144664840Y-88289265D01*
X144712005Y-88359853D01*
X144747029Y-88412270D01*
X144803640Y-88548941D01*
X144832500Y-88694032D01*
X144832500Y-88841968D01*
X144803640Y-88987059D01*
X144776630Y-89052268D01*
X144747028Y-89123732D01*
X144664840Y-89246735D01*
X144560235Y-89351340D01*
X144437232Y-89433528D01*
X144437231Y-89433529D01*
X144437230Y-89433529D01*
X144300559Y-89490140D01*
X144155468Y-89519000D01*
X144007532Y-89519000D01*
X143862441Y-89490140D01*
X143725770Y-89433529D01*
X143725769Y-89433529D01*
X143725768Y-89433528D01*
X143602765Y-89351340D01*
X143498160Y-89246735D01*
X143415972Y-89123732D01*
X143386371Y-89052268D01*
X143359360Y-88987059D01*
X143330500Y-88841968D01*
X143330500Y-88694032D01*
X143359360Y-88548941D01*
X143415971Y-88412270D01*
X143450995Y-88359853D01*
X143498160Y-88289265D01*
X143602765Y-88184660D01*
X143725768Y-88102472D01*
X143787263Y-88077000D01*
X143862441Y-88045860D01*
X144007532Y-88017000D01*
X144155468Y-88017000D01*
X144300559Y-88045860D01*
G37*
G36*
X157430473Y-86701938D02*
G01*
X157558049Y-86754782D01*
X157672859Y-86831495D01*
X157770505Y-86929141D01*
X157847218Y-87043951D01*
X157900062Y-87171527D01*
X157927000Y-87306956D01*
X157927000Y-87445044D01*
X157900062Y-87580473D01*
X157847218Y-87708049D01*
X157770505Y-87822859D01*
X157672859Y-87920505D01*
X157558049Y-87997218D01*
X157430473Y-88050062D01*
X157295044Y-88077000D01*
X157156956Y-88077000D01*
X157021527Y-88050062D01*
X156893951Y-87997218D01*
X156779141Y-87920505D01*
X156681495Y-87822859D01*
X156604782Y-87708049D01*
X156551938Y-87580473D01*
X156525000Y-87445044D01*
X156525000Y-87306956D01*
X156551938Y-87171527D01*
X156604782Y-87043951D01*
X156681495Y-86929141D01*
X156779141Y-86831495D01*
X156893951Y-86754782D01*
X157021527Y-86701938D01*
X157156956Y-86675000D01*
X157295044Y-86675000D01*
X157430473Y-86701938D01*
G37*
G36*
X144300559Y-86145860D02*
G01*
X144371011Y-86175042D01*
X144437232Y-86202472D01*
X144560235Y-86284660D01*
X144664840Y-86389265D01*
X144697436Y-86438049D01*
X144747029Y-86512270D01*
X144789329Y-86614391D01*
X144803640Y-86648941D01*
X144832500Y-86794033D01*
X144832500Y-86941967D01*
X144803640Y-87087059D01*
X144747028Y-87223732D01*
X144664840Y-87346735D01*
X144560235Y-87451340D01*
X144437232Y-87533528D01*
X144437231Y-87533529D01*
X144437230Y-87533529D01*
X144300559Y-87590140D01*
X144155468Y-87619000D01*
X144007532Y-87619000D01*
X143862441Y-87590140D01*
X143725770Y-87533529D01*
X143725769Y-87533529D01*
X143725768Y-87533528D01*
X143602765Y-87451340D01*
X143498160Y-87346735D01*
X143415972Y-87223732D01*
X143359360Y-87087059D01*
X143330500Y-86941967D01*
X143330500Y-86794033D01*
X143359360Y-86648941D01*
X143373671Y-86614391D01*
X143415971Y-86512270D01*
X143465564Y-86438049D01*
X143498160Y-86389265D01*
X143602765Y-86284660D01*
X143725768Y-86202472D01*
X143791990Y-86175042D01*
X143862441Y-86145860D01*
X144007532Y-86117000D01*
X144155468Y-86117000D01*
X144300559Y-86145860D01*
G37*
G36*
X146523059Y-86145860D02*
G01*
X146593511Y-86175042D01*
X146659732Y-86202472D01*
X146782735Y-86284660D01*
X146887340Y-86389265D01*
X146919936Y-86438049D01*
X146969529Y-86512270D01*
X147011829Y-86614391D01*
X147026140Y-86648941D01*
X147055000Y-86794033D01*
X147055000Y-86941967D01*
X147026140Y-87087059D01*
X146969528Y-87223732D01*
X146887340Y-87346735D01*
X146782735Y-87451340D01*
X146659732Y-87533528D01*
X146659731Y-87533529D01*
X146659730Y-87533529D01*
X146523059Y-87590140D01*
X146377968Y-87619000D01*
X146230032Y-87619000D01*
X146084941Y-87590140D01*
X145948270Y-87533529D01*
X145948269Y-87533529D01*
X145948268Y-87533528D01*
X145825265Y-87451340D01*
X145720660Y-87346735D01*
X145638472Y-87223732D01*
X145581860Y-87087059D01*
X145553000Y-86941967D01*
X145553000Y-86794033D01*
X145581860Y-86648941D01*
X145596171Y-86614391D01*
X145638471Y-86512270D01*
X145688064Y-86438049D01*
X145720660Y-86389265D01*
X145825265Y-86284660D01*
X145948268Y-86202472D01*
X146014490Y-86175042D01*
X146084941Y-86145860D01*
X146230032Y-86117000D01*
X146377968Y-86117000D01*
X146523059Y-86145860D01*
G37*
G36*
X154143059Y-86145860D02*
G01*
X154213511Y-86175042D01*
X154279732Y-86202472D01*
X154402735Y-86284660D01*
X154507340Y-86389265D01*
X154539936Y-86438049D01*
X154589529Y-86512270D01*
X154631829Y-86614391D01*
X154646140Y-86648941D01*
X154675000Y-86794033D01*
X154675000Y-86941967D01*
X154646140Y-87087059D01*
X154589528Y-87223732D01*
X154507340Y-87346735D01*
X154402735Y-87451340D01*
X154279732Y-87533528D01*
X154279731Y-87533529D01*
X154279730Y-87533529D01*
X154143059Y-87590140D01*
X153997968Y-87619000D01*
X153850032Y-87619000D01*
X153704941Y-87590140D01*
X153568270Y-87533529D01*
X153568269Y-87533529D01*
X153568268Y-87533528D01*
X153445265Y-87451340D01*
X153340660Y-87346735D01*
X153258472Y-87223732D01*
X153201860Y-87087059D01*
X153173000Y-86941967D01*
X153173000Y-86794033D01*
X153201860Y-86648941D01*
X153216171Y-86614391D01*
X153258471Y-86512270D01*
X153308064Y-86438049D01*
X153340660Y-86389265D01*
X153445265Y-86284660D01*
X153568268Y-86202472D01*
X153634490Y-86175042D01*
X153704941Y-86145860D01*
X153850032Y-86117000D01*
X153997968Y-86117000D01*
X154143059Y-86145860D01*
G37*
G36*
X163665000Y-87465000D02*
G01*
X161963000Y-87465000D01*
X161963000Y-85763000D01*
X163665000Y-85763000D01*
X163665000Y-87465000D01*
G37*
G36*
X137253017Y-84254032D02*
G01*
X137312772Y-84265918D01*
X137558639Y-84367759D01*
X137609836Y-84401968D01*
X137734892Y-84485528D01*
X137779912Y-84515610D01*
X137968090Y-84703788D01*
X138106774Y-84911341D01*
X138115942Y-84925063D01*
X138217782Y-85170928D01*
X138269700Y-85431937D01*
X138269700Y-85698063D01*
X138217782Y-85959072D01*
X138115942Y-86204937D01*
X137968091Y-86426211D01*
X137779911Y-86614391D01*
X137689203Y-86675000D01*
X137558639Y-86762241D01*
X137558638Y-86762242D01*
X137558637Y-86762242D01*
X137312772Y-86864082D01*
X137051763Y-86916000D01*
X136785637Y-86916000D01*
X136524628Y-86864082D01*
X136278763Y-86762242D01*
X136278762Y-86762242D01*
X136278761Y-86762241D01*
X136148197Y-86675000D01*
X136057489Y-86614391D01*
X135869309Y-86426211D01*
X135721458Y-86204937D01*
X135619618Y-85959072D01*
X135567700Y-85698063D01*
X135567700Y-85431937D01*
X135619618Y-85170928D01*
X135721458Y-84925063D01*
X135730627Y-84911341D01*
X135869310Y-84703788D01*
X136057488Y-84515610D01*
X136102509Y-84485528D01*
X136227564Y-84401968D01*
X136278761Y-84367759D01*
X136524628Y-84265918D01*
X136584383Y-84254032D01*
X136785637Y-84214000D01*
X137051763Y-84214000D01*
X137253017Y-84254032D01*
G37*
G36*
X157927000Y-85409251D02*
G01*
X157929402Y-85433637D01*
X157936515Y-85457086D01*
X157948066Y-85478697D01*
X157963611Y-85497639D01*
X157982553Y-85513184D01*
X158004164Y-85524735D01*
X158027613Y-85531848D01*
X158051999Y-85534250D01*
X158076385Y-85531848D01*
X158099834Y-85524735D01*
X158121444Y-85513184D01*
X158163951Y-85484782D01*
X158291527Y-85431938D01*
X158426956Y-85405000D01*
X158565044Y-85405000D01*
X158700473Y-85431938D01*
X158828049Y-85484782D01*
X158942859Y-85561495D01*
X159040505Y-85659141D01*
X159117218Y-85773951D01*
X159170062Y-85901527D01*
X159197000Y-86036956D01*
X159197000Y-86175044D01*
X159170062Y-86310473D01*
X159117218Y-86438049D01*
X159040505Y-86552859D01*
X158942859Y-86650505D01*
X158828049Y-86727218D01*
X158700473Y-86780062D01*
X158565044Y-86807000D01*
X158426956Y-86807000D01*
X158291527Y-86780062D01*
X158163951Y-86727218D01*
X158049141Y-86650505D01*
X157951495Y-86552859D01*
X157874782Y-86438049D01*
X157821938Y-86310473D01*
X157795000Y-86175044D01*
X157795000Y-86036956D01*
X157821938Y-85901527D01*
X157874782Y-85773951D01*
X157903184Y-85731444D01*
X157914735Y-85709833D01*
X157921848Y-85686384D01*
X157924250Y-85661998D01*
X157921848Y-85637612D01*
X157914735Y-85614163D01*
X157903183Y-85592553D01*
X157887638Y-85573611D01*
X157868696Y-85558066D01*
X157847085Y-85546515D01*
X157823636Y-85539402D01*
X157799251Y-85537000D01*
X156525000Y-85537000D01*
X156525000Y-84135000D01*
X157927000Y-84135000D01*
X157927000Y-85409251D01*
G37*
G36*
X147055000Y-85079000D02*
G01*
X145553000Y-85079000D01*
X145553000Y-83577000D01*
X147055000Y-83577000D01*
X147055000Y-85079000D01*
G37*
G36*
X144339329Y-83600941D02*
G01*
X144364059Y-83605860D01*
X144500732Y-83662472D01*
X144623735Y-83744660D01*
X144728340Y-83849265D01*
X144810528Y-83972268D01*
X144810529Y-83972270D01*
X144867140Y-84108941D01*
X144896000Y-84254032D01*
X144896000Y-84401968D01*
X144868118Y-84542140D01*
X144867140Y-84547059D01*
X144810528Y-84683732D01*
X144728340Y-84806735D01*
X144623735Y-84911340D01*
X144500732Y-84993528D01*
X144500731Y-84993529D01*
X144500730Y-84993529D01*
X144364059Y-85050140D01*
X144218968Y-85079000D01*
X144071032Y-85079000D01*
X143925941Y-85050140D01*
X143789270Y-84993529D01*
X143789269Y-84993529D01*
X143789268Y-84993528D01*
X143666265Y-84911340D01*
X143561660Y-84806735D01*
X143479472Y-84683732D01*
X143422860Y-84547059D01*
X143421882Y-84542140D01*
X143394000Y-84401968D01*
X143394000Y-84254032D01*
X143422860Y-84108941D01*
X143479471Y-83972270D01*
X143479472Y-83972268D01*
X143561660Y-83849265D01*
X143666265Y-83744660D01*
X143789268Y-83662472D01*
X143925941Y-83605860D01*
X143950671Y-83600941D01*
X144071032Y-83577000D01*
X144218968Y-83577000D01*
X144339329Y-83600941D01*
G37*
G36*
X154118329Y-83600941D02*
G01*
X154143059Y-83605860D01*
X154279732Y-83662472D01*
X154402735Y-83744660D01*
X154507340Y-83849265D01*
X154589528Y-83972268D01*
X154589529Y-83972270D01*
X154646140Y-84108941D01*
X154675000Y-84254032D01*
X154675000Y-84401968D01*
X154647118Y-84542140D01*
X154646140Y-84547059D01*
X154589528Y-84683732D01*
X154507340Y-84806735D01*
X154402735Y-84911340D01*
X154279732Y-84993528D01*
X154279731Y-84993529D01*
X154279730Y-84993529D01*
X154143059Y-85050140D01*
X153997968Y-85079000D01*
X153850032Y-85079000D01*
X153704941Y-85050140D01*
X153568270Y-84993529D01*
X153568269Y-84993529D01*
X153568268Y-84993528D01*
X153445265Y-84911340D01*
X153340660Y-84806735D01*
X153258472Y-84683732D01*
X153201860Y-84547059D01*
X153200882Y-84542140D01*
X153173000Y-84401968D01*
X153173000Y-84254032D01*
X153201860Y-84108941D01*
X153258471Y-83972270D01*
X153258472Y-83972268D01*
X153340660Y-83849265D01*
X153445265Y-83744660D01*
X153568268Y-83662472D01*
X153704941Y-83605860D01*
X153729671Y-83600941D01*
X153850032Y-83577000D01*
X153997968Y-83577000D01*
X154118329Y-83600941D01*
G37*
G36*
X163265280Y-83093528D02*
G01*
X163287059Y-83097860D01*
X163423732Y-83154472D01*
X163546735Y-83236660D01*
X163651340Y-83341265D01*
X163733528Y-83464268D01*
X163790140Y-83600941D01*
X163819000Y-83746033D01*
X163819000Y-83893967D01*
X163790140Y-84039059D01*
X163733528Y-84175732D01*
X163651340Y-84298735D01*
X163546735Y-84403340D01*
X163423732Y-84485528D01*
X163423731Y-84485529D01*
X163423730Y-84485529D01*
X163287059Y-84542140D01*
X163141968Y-84571000D01*
X162994032Y-84571000D01*
X162848941Y-84542140D01*
X162712270Y-84485529D01*
X162712269Y-84485529D01*
X162712268Y-84485528D01*
X162589265Y-84403340D01*
X162484660Y-84298735D01*
X162402472Y-84175732D01*
X162345860Y-84039059D01*
X162317000Y-83893967D01*
X162317000Y-83746033D01*
X162345860Y-83600941D01*
X162402472Y-83464268D01*
X162484660Y-83341265D01*
X162589265Y-83236660D01*
X162712268Y-83154472D01*
X162848941Y-83097860D01*
X162870720Y-83093528D01*
X162994032Y-83069000D01*
X163141968Y-83069000D01*
X163265280Y-83093528D01*
G37*
G36*
X161365280Y-83093528D02*
G01*
X161387059Y-83097860D01*
X161523732Y-83154472D01*
X161646735Y-83236660D01*
X161751340Y-83341265D01*
X161833528Y-83464268D01*
X161890140Y-83600941D01*
X161919000Y-83746033D01*
X161919000Y-83893967D01*
X161890140Y-84039059D01*
X161833528Y-84175732D01*
X161751340Y-84298735D01*
X161646735Y-84403340D01*
X161523732Y-84485528D01*
X161523731Y-84485529D01*
X161523730Y-84485529D01*
X161387059Y-84542140D01*
X161241968Y-84571000D01*
X161094032Y-84571000D01*
X160948941Y-84542140D01*
X160812270Y-84485529D01*
X160812269Y-84485529D01*
X160812268Y-84485528D01*
X160689265Y-84403340D01*
X160584660Y-84298735D01*
X160502472Y-84175732D01*
X160445860Y-84039059D01*
X160417000Y-83893967D01*
X160417000Y-83746033D01*
X160445860Y-83600941D01*
X160502472Y-83464268D01*
X160584660Y-83341265D01*
X160689265Y-83236660D01*
X160812268Y-83154472D01*
X160948941Y-83097860D01*
X160970720Y-83093528D01*
X161094032Y-83069000D01*
X161241968Y-83069000D01*
X161365280Y-83093528D01*
G37*
G36*
X144364059Y-81705860D02*
G01*
X144500175Y-81762241D01*
X144500732Y-81762472D01*
X144623735Y-81844660D01*
X144728340Y-81949265D01*
X144810528Y-82072268D01*
X144867140Y-82208941D01*
X144896000Y-82354033D01*
X144896000Y-82501967D01*
X144867140Y-82647059D01*
X144810528Y-82783732D01*
X144728340Y-82906735D01*
X144623735Y-83011340D01*
X144500732Y-83093528D01*
X144500731Y-83093529D01*
X144500730Y-83093529D01*
X144364059Y-83150140D01*
X144218968Y-83179000D01*
X144071032Y-83179000D01*
X143925941Y-83150140D01*
X143789270Y-83093529D01*
X143789269Y-83093529D01*
X143789268Y-83093528D01*
X143666265Y-83011340D01*
X143561660Y-82906735D01*
X143479472Y-82783732D01*
X143422860Y-82647059D01*
X143394000Y-82501967D01*
X143394000Y-82354033D01*
X143422860Y-82208941D01*
X143479472Y-82072268D01*
X143561660Y-81949265D01*
X143666265Y-81844660D01*
X143789268Y-81762472D01*
X143789826Y-81762241D01*
X143925941Y-81705860D01*
X144071032Y-81677000D01*
X144218968Y-81677000D01*
X144364059Y-81705860D01*
G37*
G36*
X156561059Y-81319860D02*
G01*
X156697732Y-81376472D01*
X156820735Y-81458660D01*
X156925340Y-81563265D01*
X157007528Y-81686268D01*
X157064140Y-81822941D01*
X157093000Y-81968033D01*
X157093000Y-82115967D01*
X157064140Y-82261059D01*
X157007528Y-82397732D01*
X156925340Y-82520735D01*
X156820735Y-82625340D01*
X156697732Y-82707528D01*
X156697731Y-82707529D01*
X156697730Y-82707529D01*
X156561059Y-82764140D01*
X156415968Y-82793000D01*
X156268032Y-82793000D01*
X156122941Y-82764140D01*
X155986270Y-82707529D01*
X155986269Y-82707529D01*
X155986268Y-82707528D01*
X155863265Y-82625340D01*
X155758660Y-82520735D01*
X155676472Y-82397732D01*
X155619860Y-82261059D01*
X155591000Y-82115967D01*
X155591000Y-81968033D01*
X155619860Y-81822941D01*
X155676472Y-81686268D01*
X155758660Y-81563265D01*
X155863265Y-81458660D01*
X155986268Y-81376472D01*
X156122941Y-81319860D01*
X156268032Y-81291000D01*
X156415968Y-81291000D01*
X156561059Y-81319860D01*
G37*
G36*
X158461059Y-81319860D02*
G01*
X158597732Y-81376472D01*
X158720735Y-81458660D01*
X158825340Y-81563265D01*
X158907528Y-81686268D01*
X158964140Y-81822941D01*
X158993000Y-81968033D01*
X158993000Y-82115967D01*
X158964140Y-82261059D01*
X158907528Y-82397732D01*
X158825340Y-82520735D01*
X158720735Y-82625340D01*
X158597732Y-82707528D01*
X158597731Y-82707529D01*
X158597730Y-82707529D01*
X158461059Y-82764140D01*
X158315968Y-82793000D01*
X158168032Y-82793000D01*
X158022941Y-82764140D01*
X157886270Y-82707529D01*
X157886269Y-82707529D01*
X157886268Y-82707528D01*
X157763265Y-82625340D01*
X157658660Y-82520735D01*
X157576472Y-82397732D01*
X157519860Y-82261059D01*
X157491000Y-82115967D01*
X157491000Y-81968033D01*
X157519860Y-81822941D01*
X157576472Y-81686268D01*
X157658660Y-81563265D01*
X157763265Y-81458660D01*
X157886268Y-81376472D01*
X158022941Y-81319860D01*
X158168032Y-81291000D01*
X158315968Y-81291000D01*
X158461059Y-81319860D01*
G37*
G36*
X137237935Y-79251032D02*
G01*
X137312772Y-79265918D01*
X137558639Y-79367759D01*
X137605346Y-79398968D01*
X137779911Y-79515609D01*
X137968091Y-79703789D01*
X138034872Y-79803733D01*
X138112229Y-79919505D01*
X138115942Y-79925063D01*
X138217782Y-80170928D01*
X138269700Y-80431937D01*
X138269700Y-80698063D01*
X138217782Y-80959072D01*
X138115942Y-81204937D01*
X138001326Y-81376472D01*
X137968090Y-81426212D01*
X137779912Y-81614390D01*
X137558639Y-81762241D01*
X137558638Y-81762242D01*
X137558637Y-81762242D01*
X137312772Y-81864082D01*
X137051763Y-81916000D01*
X136785637Y-81916000D01*
X136524628Y-81864082D01*
X136278763Y-81762242D01*
X136278762Y-81762242D01*
X136278761Y-81762241D01*
X136057488Y-81614390D01*
X135869310Y-81426212D01*
X135836075Y-81376472D01*
X135721458Y-81204937D01*
X135619618Y-80959072D01*
X135567700Y-80698063D01*
X135567700Y-80431937D01*
X135619618Y-80170928D01*
X135721458Y-79925063D01*
X135725172Y-79919505D01*
X135802528Y-79803733D01*
X135869309Y-79703789D01*
X136057489Y-79515609D01*
X136232054Y-79398968D01*
X136278761Y-79367759D01*
X136524628Y-79265918D01*
X136599465Y-79251032D01*
X136785637Y-79214000D01*
X137051763Y-79214000D01*
X137237935Y-79251032D01*
G37*
G36*
X146534059Y-79667860D02*
G01*
X146628670Y-79707049D01*
X146670732Y-79724472D01*
X146793735Y-79806660D01*
X146898340Y-79911265D01*
X146975202Y-80026297D01*
X146980529Y-80034270D01*
X146997814Y-80076000D01*
X147037140Y-80170941D01*
X147066000Y-80316033D01*
X147066000Y-80463967D01*
X147037140Y-80609059D01*
X146980528Y-80745732D01*
X146898340Y-80868735D01*
X146793735Y-80973340D01*
X146670732Y-81055528D01*
X146670731Y-81055529D01*
X146670730Y-81055529D01*
X146534059Y-81112140D01*
X146388968Y-81141000D01*
X146241032Y-81141000D01*
X146095941Y-81112140D01*
X145959270Y-81055529D01*
X145959269Y-81055529D01*
X145959268Y-81055528D01*
X145836265Y-80973340D01*
X145731660Y-80868735D01*
X145649472Y-80745732D01*
X145592860Y-80609059D01*
X145564000Y-80463967D01*
X145564000Y-80316033D01*
X145592860Y-80170941D01*
X145632186Y-80076000D01*
X145649471Y-80034270D01*
X145654798Y-80026297D01*
X145731660Y-79911265D01*
X145836265Y-79806660D01*
X145959268Y-79724472D01*
X146001331Y-79707049D01*
X146095941Y-79667860D01*
X146241032Y-79639000D01*
X146388968Y-79639000D01*
X146534059Y-79667860D01*
G37*
G36*
X154154059Y-79667860D02*
G01*
X154248670Y-79707049D01*
X154290732Y-79724472D01*
X154413735Y-79806660D01*
X154518340Y-79911265D01*
X154595202Y-80026297D01*
X154600529Y-80034270D01*
X154617814Y-80076000D01*
X154657140Y-80170941D01*
X154686000Y-80316033D01*
X154686000Y-80463967D01*
X154657140Y-80609059D01*
X154600528Y-80745732D01*
X154518340Y-80868735D01*
X154413735Y-80973340D01*
X154290732Y-81055528D01*
X154290731Y-81055529D01*
X154290730Y-81055529D01*
X154154059Y-81112140D01*
X154008968Y-81141000D01*
X153861032Y-81141000D01*
X153715941Y-81112140D01*
X153579270Y-81055529D01*
X153579269Y-81055529D01*
X153579268Y-81055528D01*
X153456265Y-80973340D01*
X153351660Y-80868735D01*
X153269472Y-80745732D01*
X153212860Y-80609059D01*
X153184000Y-80463967D01*
X153184000Y-80316033D01*
X153212860Y-80170941D01*
X153252186Y-80076000D01*
X153269471Y-80034270D01*
X153274798Y-80026297D01*
X153351660Y-79911265D01*
X153456265Y-79806660D01*
X153579268Y-79724472D01*
X153621331Y-79707049D01*
X153715941Y-79667860D01*
X153861032Y-79639000D01*
X154008968Y-79639000D01*
X154154059Y-79667860D01*
G37*
G36*
X144344059Y-78602860D02*
G01*
X144456663Y-78649502D01*
X144480732Y-78659472D01*
X144603735Y-78741660D01*
X144708340Y-78846265D01*
X144784182Y-78959771D01*
X144790529Y-78969270D01*
X144847140Y-79105941D01*
X144859987Y-79170526D01*
X144876000Y-79251033D01*
X144876000Y-79398967D01*
X144847140Y-79544059D01*
X144790528Y-79680732D01*
X144708340Y-79803735D01*
X144603735Y-79908340D01*
X144480732Y-79990528D01*
X144480731Y-79990529D01*
X144480730Y-79990529D01*
X144344059Y-80047140D01*
X144198968Y-80076000D01*
X144051032Y-80076000D01*
X143905941Y-80047140D01*
X143769270Y-79990529D01*
X143769269Y-79990529D01*
X143769268Y-79990528D01*
X143646265Y-79908340D01*
X143541660Y-79803735D01*
X143459472Y-79680732D01*
X143402860Y-79544059D01*
X143374000Y-79398967D01*
X143374000Y-79251033D01*
X143390014Y-79170526D01*
X143402860Y-79105941D01*
X143459471Y-78969270D01*
X143465818Y-78959771D01*
X143541660Y-78846265D01*
X143646265Y-78741660D01*
X143769268Y-78659472D01*
X143793338Y-78649502D01*
X143905941Y-78602860D01*
X144051032Y-78574000D01*
X144198968Y-78574000D01*
X144344059Y-78602860D01*
G37*
G36*
X157430473Y-78700938D02*
G01*
X157558049Y-78753782D01*
X157672859Y-78830495D01*
X157770505Y-78928141D01*
X157847218Y-79042951D01*
X157900062Y-79170527D01*
X157927000Y-79305956D01*
X157927000Y-79444044D01*
X157900062Y-79579473D01*
X157847218Y-79707049D01*
X157770505Y-79821859D01*
X157672859Y-79919505D01*
X157558049Y-79996218D01*
X157430473Y-80049062D01*
X157295044Y-80076000D01*
X157156956Y-80076000D01*
X157021527Y-80049062D01*
X156893951Y-79996218D01*
X156779141Y-79919505D01*
X156681495Y-79821859D01*
X156604782Y-79707049D01*
X156551938Y-79579473D01*
X156525000Y-79444044D01*
X156525000Y-79305956D01*
X156551938Y-79170527D01*
X156604782Y-79042951D01*
X156681495Y-78928141D01*
X156779141Y-78830495D01*
X156893951Y-78753782D01*
X157021527Y-78700938D01*
X157156956Y-78674000D01*
X157295044Y-78674000D01*
X157430473Y-78700938D01*
G37*
G36*
X163062228Y-78389703D02*
G01*
X163217100Y-78453853D01*
X163356481Y-78546985D01*
X163475015Y-78665519D01*
X163568147Y-78804900D01*
X163632297Y-78959772D01*
X163665000Y-79124184D01*
X163665000Y-79291816D01*
X163632297Y-79456228D01*
X163568147Y-79611100D01*
X163475015Y-79750481D01*
X163356481Y-79869015D01*
X163217100Y-79962147D01*
X163062228Y-80026297D01*
X162897816Y-80059000D01*
X162730184Y-80059000D01*
X162565772Y-80026297D01*
X162410900Y-79962147D01*
X162271519Y-79869015D01*
X162152985Y-79750481D01*
X162059853Y-79611100D01*
X161995703Y-79456228D01*
X161963000Y-79291816D01*
X161963000Y-79124184D01*
X161995703Y-78959772D01*
X162059853Y-78804900D01*
X162152985Y-78665519D01*
X162271519Y-78546985D01*
X162410900Y-78453853D01*
X162565772Y-78389703D01*
X162730184Y-78357000D01*
X162897816Y-78357000D01*
X163062228Y-78389703D01*
G37*
G36*
X157927000Y-77408251D02*
G01*
X157929402Y-77432637D01*
X157936515Y-77456086D01*
X157948066Y-77477697D01*
X157963611Y-77496639D01*
X157982553Y-77512184D01*
X158004164Y-77523735D01*
X158027613Y-77530848D01*
X158051999Y-77533250D01*
X158076385Y-77530848D01*
X158099834Y-77523735D01*
X158121444Y-77512184D01*
X158163951Y-77483782D01*
X158291527Y-77430938D01*
X158426956Y-77404000D01*
X158565044Y-77404000D01*
X158700473Y-77430938D01*
X158828049Y-77483782D01*
X158942859Y-77560495D01*
X159040505Y-77658141D01*
X159117218Y-77772951D01*
X159170062Y-77900527D01*
X159197000Y-78035956D01*
X159197000Y-78174044D01*
X159170062Y-78309473D01*
X159117218Y-78437049D01*
X159040505Y-78551859D01*
X158942859Y-78649505D01*
X158828049Y-78726218D01*
X158700473Y-78779062D01*
X158565044Y-78806000D01*
X158426956Y-78806000D01*
X158291527Y-78779062D01*
X158163951Y-78726218D01*
X158049141Y-78649505D01*
X157951495Y-78551859D01*
X157874782Y-78437049D01*
X157821938Y-78309473D01*
X157795000Y-78174044D01*
X157795000Y-78035956D01*
X157821938Y-77900527D01*
X157874782Y-77772951D01*
X157903184Y-77730444D01*
X157914735Y-77708833D01*
X157921848Y-77685384D01*
X157924250Y-77660998D01*
X157921848Y-77636612D01*
X157914735Y-77613163D01*
X157903183Y-77591553D01*
X157887638Y-77572611D01*
X157868696Y-77557066D01*
X157847085Y-77545515D01*
X157823636Y-77538402D01*
X157799251Y-77536000D01*
X156525000Y-77536000D01*
X156525000Y-76134000D01*
X157927000Y-76134000D01*
X157927000Y-77408251D01*
G37*
G36*
X154154059Y-77127860D02*
G01*
X154290732Y-77184472D01*
X154413735Y-77266660D01*
X154518340Y-77371265D01*
X154593521Y-77483782D01*
X154600529Y-77494270D01*
X154657140Y-77630941D01*
X154686000Y-77776032D01*
X154686000Y-77923968D01*
X154657140Y-78069059D01*
X154612844Y-78176000D01*
X154600528Y-78205732D01*
X154518340Y-78328735D01*
X154413735Y-78433340D01*
X154290732Y-78515528D01*
X154290731Y-78515529D01*
X154290730Y-78515529D01*
X154154059Y-78572140D01*
X154008968Y-78601000D01*
X153861032Y-78601000D01*
X153715941Y-78572140D01*
X153579270Y-78515529D01*
X153579269Y-78515529D01*
X153579268Y-78515528D01*
X153456265Y-78433340D01*
X153351660Y-78328735D01*
X153269472Y-78205732D01*
X153257157Y-78176000D01*
X153212860Y-78069059D01*
X153184000Y-77923968D01*
X153184000Y-77776032D01*
X153212860Y-77630941D01*
X153269471Y-77494270D01*
X153276479Y-77483782D01*
X153351660Y-77371265D01*
X153456265Y-77266660D01*
X153579268Y-77184472D01*
X153715941Y-77127860D01*
X153861032Y-77099000D01*
X154008968Y-77099000D01*
X154154059Y-77127860D01*
G37*
G36*
X146534059Y-77127860D02*
G01*
X146670732Y-77184472D01*
X146793735Y-77266660D01*
X146898340Y-77371265D01*
X146973521Y-77483782D01*
X146980529Y-77494270D01*
X147037140Y-77630941D01*
X147066000Y-77776032D01*
X147066000Y-77923968D01*
X147037140Y-78069059D01*
X146992844Y-78176000D01*
X146980528Y-78205732D01*
X146898340Y-78328735D01*
X146793735Y-78433340D01*
X146670732Y-78515528D01*
X146670731Y-78515529D01*
X146670730Y-78515529D01*
X146534059Y-78572140D01*
X146388968Y-78601000D01*
X146241032Y-78601000D01*
X146095941Y-78572140D01*
X145959270Y-78515529D01*
X145959269Y-78515529D01*
X145959268Y-78515528D01*
X145836265Y-78433340D01*
X145731660Y-78328735D01*
X145649472Y-78205732D01*
X145637157Y-78176000D01*
X145592860Y-78069059D01*
X145564000Y-77923968D01*
X145564000Y-77776032D01*
X145592860Y-77630941D01*
X145649471Y-77494270D01*
X145656479Y-77483782D01*
X145731660Y-77371265D01*
X145836265Y-77266660D01*
X145959268Y-77184472D01*
X146095941Y-77127860D01*
X146241032Y-77099000D01*
X146388968Y-77099000D01*
X146534059Y-77127860D01*
G37*
G36*
X144344059Y-76702860D02*
G01*
X144480732Y-76759472D01*
X144603735Y-76841660D01*
X144708340Y-76946265D01*
X144708341Y-76946267D01*
X144790529Y-77069270D01*
X144847140Y-77205941D01*
X144876000Y-77351032D01*
X144876000Y-77498968D01*
X144847140Y-77644059D01*
X144792475Y-77776033D01*
X144790528Y-77780732D01*
X144708340Y-77903735D01*
X144603735Y-78008340D01*
X144480732Y-78090528D01*
X144480731Y-78090529D01*
X144480730Y-78090529D01*
X144344059Y-78147140D01*
X144198968Y-78176000D01*
X144051032Y-78176000D01*
X143905941Y-78147140D01*
X143769270Y-78090529D01*
X143769269Y-78090529D01*
X143769268Y-78090528D01*
X143646265Y-78008340D01*
X143541660Y-77903735D01*
X143459472Y-77780732D01*
X143457526Y-77776033D01*
X143402860Y-77644059D01*
X143374000Y-77498968D01*
X143374000Y-77351032D01*
X143402860Y-77205941D01*
X143459471Y-77069270D01*
X143541659Y-76946267D01*
X143541660Y-76946265D01*
X143646265Y-76841660D01*
X143769268Y-76759472D01*
X143905941Y-76702860D01*
X144051032Y-76674000D01*
X144198968Y-76674000D01*
X144344059Y-76702860D01*
G37*
G36*
X163665000Y-77559000D02*
G01*
X161963000Y-77559000D01*
X161963000Y-75857000D01*
X163665000Y-75857000D01*
X163665000Y-77559000D01*
G37*
G36*
X138269700Y-76916000D02*
G01*
X135567700Y-76916000D01*
X135567700Y-74214000D01*
X138269700Y-74214000D01*
X138269700Y-76916000D01*
G37*
G36*
X154137021Y-74584471D02*
G01*
X154154059Y-74587860D01*
X154290732Y-74644472D01*
X154413735Y-74726660D01*
X154518340Y-74831265D01*
X154600528Y-74954268D01*
X154600529Y-74954270D01*
X154657140Y-75090941D01*
X154686000Y-75236032D01*
X154686000Y-75383968D01*
X154657140Y-75529059D01*
X154600528Y-75665732D01*
X154518340Y-75788735D01*
X154413735Y-75893340D01*
X154290732Y-75975528D01*
X154290731Y-75975529D01*
X154290730Y-75975529D01*
X154154059Y-76032140D01*
X154008968Y-76061000D01*
X153861032Y-76061000D01*
X153715941Y-76032140D01*
X153579270Y-75975529D01*
X153579269Y-75975529D01*
X153579268Y-75975528D01*
X153456265Y-75893340D01*
X153351660Y-75788735D01*
X153269472Y-75665732D01*
X153212860Y-75529059D01*
X153184000Y-75383968D01*
X153184000Y-75236032D01*
X153212860Y-75090941D01*
X153269471Y-74954270D01*
X153269472Y-74954268D01*
X153351660Y-74831265D01*
X153456265Y-74726660D01*
X153579268Y-74644472D01*
X153715941Y-74587860D01*
X153732979Y-74584471D01*
X153861032Y-74559000D01*
X154008968Y-74559000D01*
X154137021Y-74584471D01*
G37*
G36*
X147066000Y-76061000D02*
G01*
X145564000Y-76061000D01*
X145564000Y-74559000D01*
X147066000Y-74559000D01*
X147066000Y-76061000D01*
G37*
G36*
X144344059Y-74527860D02*
G01*
X144419238Y-74559000D01*
X144480732Y-74584472D01*
X144603735Y-74666660D01*
X144708340Y-74771265D01*
X144790528Y-74894268D01*
X144790529Y-74894270D01*
X144847140Y-75030941D01*
X144859075Y-75090941D01*
X144876000Y-75176033D01*
X144876000Y-75323967D01*
X144847140Y-75469059D01*
X144790528Y-75605732D01*
X144708340Y-75728735D01*
X144603735Y-75833340D01*
X144480732Y-75915528D01*
X144480731Y-75915529D01*
X144480730Y-75915529D01*
X144344059Y-75972140D01*
X144198968Y-76001000D01*
X144051032Y-76001000D01*
X143905941Y-75972140D01*
X143769270Y-75915529D01*
X143769269Y-75915529D01*
X143769268Y-75915528D01*
X143646265Y-75833340D01*
X143541660Y-75728735D01*
X143459472Y-75605732D01*
X143402860Y-75469059D01*
X143374000Y-75323967D01*
X143374000Y-75176033D01*
X143390926Y-75090941D01*
X143402860Y-75030941D01*
X143459471Y-74894270D01*
X143459472Y-74894268D01*
X143541660Y-74771265D01*
X143646265Y-74666660D01*
X143769268Y-74584472D01*
X143830763Y-74559000D01*
X143905941Y-74527860D01*
X144051032Y-74499000D01*
X144198968Y-74499000D01*
X144344059Y-74527860D01*
G37*
G36*
X159413559Y-73445860D02*
G01*
X159550232Y-73502472D01*
X159673235Y-73584660D01*
X159777840Y-73689265D01*
X159788843Y-73705732D01*
X159860029Y-73812270D01*
X159916640Y-73948941D01*
X159945500Y-74094032D01*
X159945500Y-74241968D01*
X159916640Y-74387059D01*
X159870273Y-74499000D01*
X159860028Y-74523732D01*
X159777840Y-74646735D01*
X159673235Y-74751340D01*
X159550232Y-74833528D01*
X159550231Y-74833529D01*
X159550230Y-74833529D01*
X159413559Y-74890140D01*
X159268468Y-74919000D01*
X159120532Y-74919000D01*
X158975441Y-74890140D01*
X158838770Y-74833529D01*
X158838769Y-74833529D01*
X158838768Y-74833528D01*
X158715765Y-74751340D01*
X158611160Y-74646735D01*
X158528972Y-74523732D01*
X158518728Y-74499000D01*
X158472360Y-74387059D01*
X158443500Y-74241968D01*
X158443500Y-74094032D01*
X158472360Y-73948941D01*
X158528971Y-73812270D01*
X158600157Y-73705732D01*
X158611160Y-73689265D01*
X158715765Y-73584660D01*
X158838768Y-73502472D01*
X158975441Y-73445860D01*
X159120532Y-73417000D01*
X159268468Y-73417000D01*
X159413559Y-73445860D01*
G37*
G36*
X157513559Y-73445860D02*
G01*
X157650232Y-73502472D01*
X157773235Y-73584660D01*
X157877840Y-73689265D01*
X157888843Y-73705732D01*
X157960029Y-73812270D01*
X158016640Y-73948941D01*
X158045500Y-74094032D01*
X158045500Y-74241968D01*
X158016640Y-74387059D01*
X157970273Y-74499000D01*
X157960028Y-74523732D01*
X157877840Y-74646735D01*
X157773235Y-74751340D01*
X157650232Y-74833528D01*
X157650231Y-74833529D01*
X157650230Y-74833529D01*
X157513559Y-74890140D01*
X157368468Y-74919000D01*
X157220532Y-74919000D01*
X157075441Y-74890140D01*
X156938770Y-74833529D01*
X156938769Y-74833529D01*
X156938768Y-74833528D01*
X156815765Y-74751340D01*
X156711160Y-74646735D01*
X156628972Y-74523732D01*
X156618728Y-74499000D01*
X156572360Y-74387059D01*
X156543500Y-74241968D01*
X156543500Y-74094032D01*
X156572360Y-73948941D01*
X156628971Y-73812270D01*
X156700157Y-73705732D01*
X156711160Y-73689265D01*
X156815765Y-73584660D01*
X156938768Y-73502472D01*
X157075441Y-73445860D01*
X157220532Y-73417000D01*
X157368468Y-73417000D01*
X157513559Y-73445860D01*
G37*
G36*
X144344059Y-72627860D02*
G01*
X144480732Y-72684472D01*
X144603735Y-72766660D01*
X144708340Y-72871265D01*
X144790528Y-72994268D01*
X144847140Y-73130941D01*
X144876000Y-73276033D01*
X144876000Y-73423967D01*
X144847140Y-73569059D01*
X144790528Y-73705732D01*
X144708340Y-73828735D01*
X144603735Y-73933340D01*
X144480732Y-74015528D01*
X144480731Y-74015529D01*
X144480730Y-74015529D01*
X144344059Y-74072140D01*
X144198968Y-74101000D01*
X144051032Y-74101000D01*
X143905941Y-74072140D01*
X143769270Y-74015529D01*
X143769269Y-74015529D01*
X143769268Y-74015528D01*
X143646265Y-73933340D01*
X143541660Y-73828735D01*
X143459472Y-73705732D01*
X143402860Y-73569059D01*
X143374000Y-73423967D01*
X143374000Y-73276033D01*
X143402860Y-73130941D01*
X143459472Y-72994268D01*
X143541660Y-72871265D01*
X143646265Y-72766660D01*
X143769268Y-72684472D01*
X143905941Y-72627860D01*
X144051032Y-72599000D01*
X144198968Y-72599000D01*
X144344059Y-72627860D01*
G37*
G36*
X153513059Y-71477360D02*
G01*
X153649732Y-71533972D01*
X153772735Y-71616160D01*
X153877340Y-71720765D01*
X153959528Y-71843768D01*
X154016140Y-71980441D01*
X154045000Y-72125533D01*
X154045000Y-72273467D01*
X154016140Y-72418559D01*
X153959528Y-72555232D01*
X153877340Y-72678235D01*
X153772735Y-72782840D01*
X153649732Y-72865028D01*
X153649731Y-72865029D01*
X153649730Y-72865029D01*
X153513059Y-72921640D01*
X153367968Y-72950500D01*
X153220032Y-72950500D01*
X153074941Y-72921640D01*
X152938270Y-72865029D01*
X152938269Y-72865029D01*
X152938268Y-72865028D01*
X152815265Y-72782840D01*
X152710660Y-72678235D01*
X152628472Y-72555232D01*
X152571860Y-72418559D01*
X152543000Y-72273467D01*
X152543000Y-72125533D01*
X152571860Y-71980441D01*
X152628472Y-71843768D01*
X152710660Y-71720765D01*
X152815265Y-71616160D01*
X152938268Y-71533972D01*
X153074941Y-71477360D01*
X153220032Y-71448500D01*
X153367968Y-71448500D01*
X153513059Y-71477360D01*
G37*
G36*
X149507559Y-71477360D02*
G01*
X149644232Y-71533972D01*
X149767235Y-71616160D01*
X149871840Y-71720765D01*
X149954028Y-71843768D01*
X150010640Y-71980441D01*
X150039500Y-72125533D01*
X150039500Y-72273467D01*
X150010640Y-72418559D01*
X149954028Y-72555232D01*
X149871840Y-72678235D01*
X149767235Y-72782840D01*
X149644232Y-72865028D01*
X149644231Y-72865029D01*
X149644230Y-72865029D01*
X149507559Y-72921640D01*
X149362468Y-72950500D01*
X149214532Y-72950500D01*
X149069441Y-72921640D01*
X148932770Y-72865029D01*
X148932769Y-72865029D01*
X148932768Y-72865028D01*
X148809765Y-72782840D01*
X148705160Y-72678235D01*
X148622972Y-72555232D01*
X148566360Y-72418559D01*
X148537500Y-72273467D01*
X148537500Y-72125533D01*
X148566360Y-71980441D01*
X148622972Y-71843768D01*
X148705160Y-71720765D01*
X148809765Y-71616160D01*
X148932768Y-71533972D01*
X149069441Y-71477360D01*
X149214532Y-71448500D01*
X149362468Y-71448500D01*
X149507559Y-71477360D01*
G37*
G36*
X155413059Y-71477360D02*
G01*
X155549732Y-71533972D01*
X155672735Y-71616160D01*
X155777340Y-71720765D01*
X155859528Y-71843768D01*
X155916140Y-71980441D01*
X155945000Y-72125533D01*
X155945000Y-72273467D01*
X155916140Y-72418559D01*
X155859528Y-72555232D01*
X155777340Y-72678235D01*
X155672735Y-72782840D01*
X155549732Y-72865028D01*
X155549731Y-72865029D01*
X155549730Y-72865029D01*
X155413059Y-72921640D01*
X155267968Y-72950500D01*
X155120032Y-72950500D01*
X154974941Y-72921640D01*
X154838270Y-72865029D01*
X154838269Y-72865029D01*
X154838268Y-72865028D01*
X154715265Y-72782840D01*
X154610660Y-72678235D01*
X154528472Y-72555232D01*
X154471860Y-72418559D01*
X154443000Y-72273467D01*
X154443000Y-72125533D01*
X154471860Y-71980441D01*
X154528472Y-71843768D01*
X154610660Y-71720765D01*
X154715265Y-71616160D01*
X154838268Y-71533972D01*
X154974941Y-71477360D01*
X155120032Y-71448500D01*
X155267968Y-71448500D01*
X155413059Y-71477360D01*
G37*
G36*
X151407559Y-71477360D02*
G01*
X151544232Y-71533972D01*
X151667235Y-71616160D01*
X151771840Y-71720765D01*
X151854028Y-71843768D01*
X151910640Y-71980441D01*
X151939500Y-72125533D01*
X151939500Y-72273467D01*
X151910640Y-72418559D01*
X151854028Y-72555232D01*
X151771840Y-72678235D01*
X151667235Y-72782840D01*
X151544232Y-72865028D01*
X151544231Y-72865029D01*
X151544230Y-72865029D01*
X151407559Y-72921640D01*
X151262468Y-72950500D01*
X151114532Y-72950500D01*
X150969441Y-72921640D01*
X150832770Y-72865029D01*
X150832769Y-72865029D01*
X150832768Y-72865028D01*
X150709765Y-72782840D01*
X150605160Y-72678235D01*
X150522972Y-72555232D01*
X150466360Y-72418559D01*
X150437500Y-72273467D01*
X150437500Y-72125533D01*
X150466360Y-71980441D01*
X150522972Y-71843768D01*
X150605160Y-71720765D01*
X150709765Y-71616160D01*
X150832768Y-71533972D01*
X150969441Y-71477360D01*
X151114532Y-71448500D01*
X151262468Y-71448500D01*
X151407559Y-71477360D01*
G37*
G36*
X161752228Y-69412703D02*
G01*
X161907100Y-69476853D01*
X162046481Y-69569985D01*
X162165015Y-69688519D01*
X162258147Y-69827900D01*
X162322297Y-69982772D01*
X162355000Y-70147184D01*
X162355000Y-70314816D01*
X162322297Y-70479228D01*
X162258147Y-70634100D01*
X162165015Y-70773481D01*
X162046481Y-70892015D01*
X161907100Y-70985147D01*
X161752228Y-71049297D01*
X161587816Y-71082000D01*
X161420184Y-71082000D01*
X161255772Y-71049297D01*
X161100900Y-70985147D01*
X160961519Y-70892015D01*
X160842985Y-70773481D01*
X160749853Y-70634100D01*
X160685703Y-70479228D01*
X160653000Y-70314816D01*
X160653000Y-70147184D01*
X160685703Y-69982772D01*
X160749853Y-69827900D01*
X160842985Y-69688519D01*
X160961519Y-69569985D01*
X161100900Y-69476853D01*
X161255772Y-69412703D01*
X161420184Y-69380000D01*
X161587816Y-69380000D01*
X161752228Y-69412703D01*
G37*
G36*
X159855000Y-71082000D02*
G01*
X158153000Y-71082000D01*
X158153000Y-69380000D01*
X159855000Y-69380000D01*
X159855000Y-71082000D01*
G37*
G36*
X154190778Y-68208547D02*
G01*
X154357224Y-68277491D01*
X154507022Y-68377583D01*
X154634417Y-68504978D01*
X154734509Y-68654776D01*
X154803453Y-68821222D01*
X154838600Y-68997918D01*
X154838600Y-69178082D01*
X154803453Y-69354778D01*
X154734509Y-69521224D01*
X154634417Y-69671022D01*
X154507022Y-69798417D01*
X154357224Y-69898509D01*
X154190778Y-69967453D01*
X154014082Y-70002600D01*
X153833918Y-70002600D01*
X153657222Y-69967453D01*
X153490776Y-69898509D01*
X153340978Y-69798417D01*
X153213583Y-69671022D01*
X153113491Y-69521224D01*
X153044547Y-69354778D01*
X153009400Y-69178082D01*
X153009400Y-68997918D01*
X153044547Y-68821222D01*
X153113491Y-68654776D01*
X153213583Y-68504978D01*
X153340978Y-68377583D01*
X153490776Y-68277491D01*
X153657222Y-68208547D01*
X153833918Y-68173400D01*
X154014082Y-68173400D01*
X154190778Y-68208547D01*
G37*
G36*
X151650778Y-68208547D02*
G01*
X151817224Y-68277491D01*
X151967022Y-68377583D01*
X152094417Y-68504978D01*
X152194509Y-68654776D01*
X152263453Y-68821222D01*
X152298600Y-68997918D01*
X152298600Y-69178082D01*
X152263453Y-69354778D01*
X152194509Y-69521224D01*
X152094417Y-69671022D01*
X151967022Y-69798417D01*
X151817224Y-69898509D01*
X151650778Y-69967453D01*
X151474082Y-70002600D01*
X151293918Y-70002600D01*
X151117222Y-69967453D01*
X150950776Y-69898509D01*
X150800978Y-69798417D01*
X150673583Y-69671022D01*
X150573491Y-69521224D01*
X150504547Y-69354778D01*
X150469400Y-69178082D01*
X150469400Y-68997918D01*
X150504547Y-68821222D01*
X150573491Y-68654776D01*
X150673583Y-68504978D01*
X150800978Y-68377583D01*
X150950776Y-68277491D01*
X151117222Y-68208547D01*
X151293918Y-68173400D01*
X151474082Y-68173400D01*
X151650778Y-68208547D01*
G37*
G36*
X149110778Y-68208547D02*
G01*
X149277224Y-68277491D01*
X149427022Y-68377583D01*
X149554417Y-68504978D01*
X149654509Y-68654776D01*
X149723453Y-68821222D01*
X149758600Y-68997918D01*
X149758600Y-69178082D01*
X149723453Y-69354778D01*
X149654509Y-69521224D01*
X149554417Y-69671022D01*
X149427022Y-69798417D01*
X149277224Y-69898509D01*
X149110778Y-69967453D01*
X148934082Y-70002600D01*
X148753918Y-70002600D01*
X148577222Y-69967453D01*
X148410776Y-69898509D01*
X148260978Y-69798417D01*
X148133583Y-69671022D01*
X148033491Y-69521224D01*
X147964547Y-69354778D01*
X147929400Y-69178082D01*
X147929400Y-68997918D01*
X147964547Y-68821222D01*
X148033491Y-68654776D01*
X148133583Y-68504978D01*
X148260978Y-68377583D01*
X148410776Y-68277491D01*
X148577222Y-68208547D01*
X148753918Y-68173400D01*
X148934082Y-68173400D01*
X149110778Y-68208547D01*
G37*
G36*
X147218600Y-70002600D02*
G01*
X145389400Y-70002600D01*
X145389400Y-68173400D01*
X147218600Y-68173400D01*
X147218600Y-70002600D01*
G37*
G36*
X149110778Y-65668547D02*
G01*
X149277224Y-65737491D01*
X149427022Y-65837583D01*
X149554417Y-65964978D01*
X149654509Y-66114776D01*
X149723453Y-66281222D01*
X149758600Y-66457918D01*
X149758600Y-66638082D01*
X149723453Y-66814778D01*
X149654509Y-66981224D01*
X149554417Y-67131022D01*
X149427022Y-67258417D01*
X149277224Y-67358509D01*
X149110778Y-67427453D01*
X148934082Y-67462600D01*
X148753918Y-67462600D01*
X148577222Y-67427453D01*
X148410776Y-67358509D01*
X148260978Y-67258417D01*
X148133583Y-67131022D01*
X148033491Y-66981224D01*
X147964547Y-66814778D01*
X147929400Y-66638082D01*
X147929400Y-66457918D01*
X147964547Y-66281222D01*
X148033491Y-66114776D01*
X148133583Y-65964978D01*
X148260978Y-65837583D01*
X148410776Y-65737491D01*
X148577222Y-65668547D01*
X148753918Y-65633400D01*
X148934082Y-65633400D01*
X149110778Y-65668547D01*
G37*
G36*
X146570778Y-65668547D02*
G01*
X146737224Y-65737491D01*
X146887022Y-65837583D01*
X147014417Y-65964978D01*
X147114509Y-66114776D01*
X147183453Y-66281222D01*
X147218600Y-66457918D01*
X147218600Y-66638082D01*
X147183453Y-66814778D01*
X147114509Y-66981224D01*
X147014417Y-67131022D01*
X146887022Y-67258417D01*
X146737224Y-67358509D01*
X146570778Y-67427453D01*
X146394082Y-67462600D01*
X146213918Y-67462600D01*
X146037222Y-67427453D01*
X145870776Y-67358509D01*
X145720978Y-67258417D01*
X145593583Y-67131022D01*
X145493491Y-66981224D01*
X145424547Y-66814778D01*
X145389400Y-66638082D01*
X145389400Y-66457918D01*
X145424547Y-66281222D01*
X145493491Y-66114776D01*
X145593583Y-65964978D01*
X145720978Y-65837583D01*
X145870776Y-65737491D01*
X146037222Y-65668547D01*
X146213918Y-65633400D01*
X146394082Y-65633400D01*
X146570778Y-65668547D01*
G37*
G36*
X154190778Y-65668547D02*
G01*
X154357224Y-65737491D01*
X154507022Y-65837583D01*
X154634417Y-65964978D01*
X154734509Y-66114776D01*
X154803453Y-66281222D01*
X154838600Y-66457918D01*
X154838600Y-66638082D01*
X154803453Y-66814778D01*
X154734509Y-66981224D01*
X154634417Y-67131022D01*
X154507022Y-67258417D01*
X154357224Y-67358509D01*
X154190778Y-67427453D01*
X154014082Y-67462600D01*
X153833918Y-67462600D01*
X153657222Y-67427453D01*
X153490776Y-67358509D01*
X153340978Y-67258417D01*
X153213583Y-67131022D01*
X153113491Y-66981224D01*
X153044547Y-66814778D01*
X153009400Y-66638082D01*
X153009400Y-66457918D01*
X153044547Y-66281222D01*
X153113491Y-66114776D01*
X153213583Y-65964978D01*
X153340978Y-65837583D01*
X153490776Y-65737491D01*
X153657222Y-65668547D01*
X153833918Y-65633400D01*
X154014082Y-65633400D01*
X154190778Y-65668547D01*
G37*
G36*
X151650778Y-65668547D02*
G01*
X151817224Y-65737491D01*
X151967022Y-65837583D01*
X152094417Y-65964978D01*
X152194509Y-66114776D01*
X152263453Y-66281222D01*
X152298600Y-66457918D01*
X152298600Y-66638082D01*
X152263453Y-66814778D01*
X152194509Y-66981224D01*
X152094417Y-67131022D01*
X151967022Y-67258417D01*
X151817224Y-67358509D01*
X151650778Y-67427453D01*
X151474082Y-67462600D01*
X151293918Y-67462600D01*
X151117222Y-67427453D01*
X150950776Y-67358509D01*
X150800978Y-67258417D01*
X150673583Y-67131022D01*
X150573491Y-66981224D01*
X150504547Y-66814778D01*
X150469400Y-66638082D01*
X150469400Y-66457918D01*
X150504547Y-66281222D01*
X150573491Y-66114776D01*
X150673583Y-65964978D01*
X150800978Y-65837583D01*
X150950776Y-65737491D01*
X151117222Y-65668547D01*
X151293918Y-65633400D01*
X151474082Y-65633400D01*
X151650778Y-65668547D01*
G37*
G36*
X160805559Y-65254360D02*
G01*
X160942232Y-65310972D01*
X161065235Y-65393160D01*
X161169840Y-65497765D01*
X161169841Y-65497767D01*
X161252029Y-65620770D01*
X161308640Y-65757441D01*
X161337500Y-65902532D01*
X161337500Y-66050468D01*
X161308640Y-66195559D01*
X161252028Y-66332232D01*
X161169840Y-66455235D01*
X161065235Y-66559840D01*
X160942232Y-66642028D01*
X160942231Y-66642029D01*
X160942230Y-66642029D01*
X160805559Y-66698640D01*
X160660468Y-66727500D01*
X160512532Y-66727500D01*
X160367441Y-66698640D01*
X160230770Y-66642029D01*
X160230769Y-66642029D01*
X160230768Y-66642028D01*
X160107765Y-66559840D01*
X160003160Y-66455235D01*
X159920972Y-66332232D01*
X159864360Y-66195559D01*
X159835500Y-66050468D01*
X159835500Y-65902532D01*
X159864360Y-65757441D01*
X159920971Y-65620770D01*
X160003159Y-65497767D01*
X160003160Y-65497765D01*
X160107765Y-65393160D01*
X160230768Y-65310972D01*
X160367441Y-65254360D01*
X160512532Y-65225500D01*
X160660468Y-65225500D01*
X160805559Y-65254360D01*
G37*
G36*
X158905559Y-65254360D02*
G01*
X159042232Y-65310972D01*
X159165235Y-65393160D01*
X159269840Y-65497765D01*
X159269841Y-65497767D01*
X159352029Y-65620770D01*
X159408640Y-65757441D01*
X159437500Y-65902532D01*
X159437500Y-66050468D01*
X159408640Y-66195559D01*
X159352028Y-66332232D01*
X159269840Y-66455235D01*
X159165235Y-66559840D01*
X159042232Y-66642028D01*
X159042231Y-66642029D01*
X159042230Y-66642029D01*
X158905559Y-66698640D01*
X158760468Y-66727500D01*
X158612532Y-66727500D01*
X158467441Y-66698640D01*
X158330770Y-66642029D01*
X158330769Y-66642029D01*
X158330768Y-66642028D01*
X158207765Y-66559840D01*
X158103160Y-66455235D01*
X158020972Y-66332232D01*
X157964360Y-66195559D01*
X157935500Y-66050468D01*
X157935500Y-65902532D01*
X157964360Y-65757441D01*
X158020971Y-65620770D01*
X158103159Y-65497767D01*
X158103160Y-65497765D01*
X158207765Y-65393160D01*
X158330768Y-65310972D01*
X158467441Y-65254360D01*
X158612532Y-65225500D01*
X158760468Y-65225500D01*
X158905559Y-65254360D01*
G37*
M02*
