%TF.GenerationSoftware,KiCad,Pcbnew,(6.0.9)*%
%TF.CreationDate,2022-12-24T15:46:51-05:00*%
%TF.ProjectId,Pixel_Boost,50697865-6c5f-4426-9f6f-73742e6b6963,v1*%
%TF.SameCoordinates,Original*%
%TF.FileFunction,Legend,Top*%
%TF.FilePolarity,Positive*%
%FSLAX46Y46*%
G04 Gerber Fmt 4.6, Leading zero omitted, Abs format (unit mm)*
G04 Created by KiCad (PCBNEW (6.0.9)) date 2022-12-24 15:46:51*
%MOMM*%
%LPD*%
G01*
G04 APERTURE LIST*
G04 Aperture macros list*
%AMRoundRect*
0 Rectangle with rounded corners*
0 $1 Rounding radius*
0 $2 $3 $4 $5 $6 $7 $8 $9 X,Y pos of 4 corners*
0 Add a 4 corners polygon primitive as box body*
4,1,4,$2,$3,$4,$5,$6,$7,$8,$9,$2,$3,0*
0 Add four circle primitives for the rounded corners*
1,1,$1+$1,$2,$3*
1,1,$1+$1,$4,$5*
1,1,$1+$1,$6,$7*
1,1,$1+$1,$8,$9*
0 Add four rect primitives between the rounded corners*
20,1,$1+$1,$2,$3,$4,$5,0*
20,1,$1+$1,$4,$5,$6,$7,0*
20,1,$1+$1,$6,$7,$8,$9,0*
20,1,$1+$1,$8,$9,$2,$3,0*%
%AMFreePoly0*
4,1,9,3.862500,-0.866500,0.737500,-0.866500,0.737500,-0.450000,-0.737500,-0.450000,-0.737500,0.450000,0.737500,0.450000,0.737500,0.866500,3.862500,0.866500,3.862500,-0.866500,3.862500,-0.866500,$1*%
G04 Aperture macros list end*
%ADD10C,0.100000*%
%ADD11C,0.120000*%
%ADD12RoundRect,0.250000X1.550000X-0.650000X1.550000X0.650000X-1.550000X0.650000X-1.550000X-0.650000X0*%
%ADD13O,3.600000X1.800000*%
%ADD14RoundRect,0.250000X-1.550000X0.650000X-1.550000X-0.650000X1.550000X-0.650000X1.550000X0.650000X0*%
%ADD15RoundRect,0.200000X-0.275000X0.200000X-0.275000X-0.200000X0.275000X-0.200000X0.275000X0.200000X0*%
%ADD16R,1.300000X0.900000*%
%ADD17FreePoly0,180.000000*%
%ADD18RoundRect,0.200000X0.275000X-0.200000X0.275000X0.200000X-0.275000X0.200000X-0.275000X-0.200000X0*%
%ADD19RoundRect,0.150000X-0.512500X-0.150000X0.512500X-0.150000X0.512500X0.150000X-0.512500X0.150000X0*%
G04 APERTURE END LIST*
D10*
X141753571Y-118575000D02*
X141682142Y-118539285D01*
X141575000Y-118539285D01*
X141467857Y-118575000D01*
X141396428Y-118646428D01*
X141360714Y-118717857D01*
X141325000Y-118860714D01*
X141325000Y-118967857D01*
X141360714Y-119110714D01*
X141396428Y-119182142D01*
X141467857Y-119253571D01*
X141575000Y-119289285D01*
X141646428Y-119289285D01*
X141753571Y-119253571D01*
X141789285Y-119217857D01*
X141789285Y-118967857D01*
X141646428Y-118967857D01*
X142110714Y-119289285D02*
X142110714Y-118539285D01*
X142539285Y-119289285D01*
X142539285Y-118539285D01*
X142896428Y-119289285D02*
X142896428Y-118539285D01*
X143075000Y-118539285D01*
X143182142Y-118575000D01*
X143253571Y-118646428D01*
X143289285Y-118717857D01*
X143325000Y-118860714D01*
X143325000Y-118967857D01*
X143289285Y-119110714D01*
X143253571Y-119182142D01*
X143182142Y-119253571D01*
X143075000Y-119289285D01*
X142896428Y-119289285D01*
X139425000Y-113489285D02*
X139425000Y-112739285D01*
X139603571Y-112739285D01*
X139710714Y-112775000D01*
X139782142Y-112846428D01*
X139817857Y-112917857D01*
X139853571Y-113060714D01*
X139853571Y-113167857D01*
X139817857Y-113310714D01*
X139782142Y-113382142D01*
X139710714Y-113453571D01*
X139603571Y-113489285D01*
X139425000Y-113489285D01*
X140175000Y-113489285D02*
X140175000Y-112739285D01*
X162080714Y-113464285D02*
X162080714Y-112714285D01*
X162259285Y-112714285D01*
X162366428Y-112750000D01*
X162437857Y-112821428D01*
X162473571Y-112892857D01*
X162509285Y-113035714D01*
X162509285Y-113142857D01*
X162473571Y-113285714D01*
X162437857Y-113357142D01*
X162366428Y-113428571D01*
X162259285Y-113464285D01*
X162080714Y-113464285D01*
X162973571Y-112714285D02*
X163116428Y-112714285D01*
X163187857Y-112750000D01*
X163259285Y-112821428D01*
X163295000Y-112964285D01*
X163295000Y-113214285D01*
X163259285Y-113357142D01*
X163187857Y-113428571D01*
X163116428Y-113464285D01*
X162973571Y-113464285D01*
X162902142Y-113428571D01*
X162830714Y-113357142D01*
X162795000Y-113214285D01*
X162795000Y-112964285D01*
X162830714Y-112821428D01*
X162902142Y-112750000D01*
X162973571Y-112714285D01*
X141835714Y-107539285D02*
X141407142Y-107539285D01*
X141621428Y-107539285D02*
X141621428Y-106789285D01*
X141550000Y-106896428D01*
X141478571Y-106967857D01*
X141407142Y-107003571D01*
X142121428Y-106860714D02*
X142157142Y-106825000D01*
X142228571Y-106789285D01*
X142407142Y-106789285D01*
X142478571Y-106825000D01*
X142514285Y-106860714D01*
X142550000Y-106932142D01*
X142550000Y-107003571D01*
X142514285Y-107110714D01*
X142085714Y-107539285D01*
X142550000Y-107539285D01*
X142764285Y-106789285D02*
X143014285Y-107539285D01*
X143264285Y-106789285D01*
X159468571Y-118595000D02*
X159397142Y-118559285D01*
X159290000Y-118559285D01*
X159182857Y-118595000D01*
X159111428Y-118666428D01*
X159075714Y-118737857D01*
X159040000Y-118880714D01*
X159040000Y-118987857D01*
X159075714Y-119130714D01*
X159111428Y-119202142D01*
X159182857Y-119273571D01*
X159290000Y-119309285D01*
X159361428Y-119309285D01*
X159468571Y-119273571D01*
X159504285Y-119237857D01*
X159504285Y-118987857D01*
X159361428Y-118987857D01*
X159825714Y-119309285D02*
X159825714Y-118559285D01*
X160254285Y-119309285D01*
X160254285Y-118559285D01*
X160611428Y-119309285D02*
X160611428Y-118559285D01*
X160790000Y-118559285D01*
X160897142Y-118595000D01*
X160968571Y-118666428D01*
X161004285Y-118737857D01*
X161040000Y-118880714D01*
X161040000Y-118987857D01*
X161004285Y-119130714D01*
X160968571Y-119202142D01*
X160897142Y-119273571D01*
X160790000Y-119309285D01*
X160611428Y-119309285D01*
X159715714Y-107589285D02*
X159287142Y-107589285D01*
X159501428Y-107589285D02*
X159501428Y-106839285D01*
X159430000Y-106946428D01*
X159358571Y-107017857D01*
X159287142Y-107053571D01*
X160001428Y-106910714D02*
X160037142Y-106875000D01*
X160108571Y-106839285D01*
X160287142Y-106839285D01*
X160358571Y-106875000D01*
X160394285Y-106910714D01*
X160430000Y-106982142D01*
X160430000Y-107053571D01*
X160394285Y-107160714D01*
X159965714Y-107589285D01*
X160430000Y-107589285D01*
X160644285Y-106839285D02*
X160894285Y-107589285D01*
X161144285Y-106839285D01*
%TO.C,R1*%
X146706666Y-113856190D02*
X146540000Y-113618095D01*
X146420952Y-113856190D02*
X146420952Y-113356190D01*
X146611428Y-113356190D01*
X146659047Y-113380000D01*
X146682857Y-113403809D01*
X146706666Y-113451428D01*
X146706666Y-113522857D01*
X146682857Y-113570476D01*
X146659047Y-113594285D01*
X146611428Y-113618095D01*
X146420952Y-113618095D01*
X147182857Y-113856190D02*
X146897142Y-113856190D01*
X147040000Y-113856190D02*
X147040000Y-113356190D01*
X146992380Y-113427619D01*
X146944761Y-113475238D01*
X146897142Y-113499047D01*
X146405238Y-116946190D02*
X146714761Y-116946190D01*
X146548095Y-117136666D01*
X146619523Y-117136666D01*
X146667142Y-117160476D01*
X146690952Y-117184285D01*
X146714761Y-117231904D01*
X146714761Y-117350952D01*
X146690952Y-117398571D01*
X146667142Y-117422380D01*
X146619523Y-117446190D01*
X146476666Y-117446190D01*
X146429047Y-117422380D01*
X146405238Y-117398571D01*
X146881428Y-116946190D02*
X147190952Y-116946190D01*
X147024285Y-117136666D01*
X147095714Y-117136666D01*
X147143333Y-117160476D01*
X147167142Y-117184285D01*
X147190952Y-117231904D01*
X147190952Y-117350952D01*
X147167142Y-117398571D01*
X147143333Y-117422380D01*
X147095714Y-117446190D01*
X146952857Y-117446190D01*
X146905238Y-117422380D01*
X146881428Y-117398571D01*
%TO.C,C3*%
X153211666Y-113718571D02*
X153187857Y-113742380D01*
X153116428Y-113766190D01*
X153068809Y-113766190D01*
X152997380Y-113742380D01*
X152949761Y-113694761D01*
X152925952Y-113647142D01*
X152902142Y-113551904D01*
X152902142Y-113480476D01*
X152925952Y-113385238D01*
X152949761Y-113337619D01*
X152997380Y-113290000D01*
X153068809Y-113266190D01*
X153116428Y-113266190D01*
X153187857Y-113290000D01*
X153211666Y-113313809D01*
X153378333Y-113266190D02*
X153687857Y-113266190D01*
X153521190Y-113456666D01*
X153592619Y-113456666D01*
X153640238Y-113480476D01*
X153664047Y-113504285D01*
X153687857Y-113551904D01*
X153687857Y-113670952D01*
X153664047Y-113718571D01*
X153640238Y-113742380D01*
X153592619Y-113766190D01*
X153449761Y-113766190D01*
X153402142Y-113742380D01*
X153378333Y-113718571D01*
X152493571Y-116856190D02*
X152541190Y-116856190D01*
X152588809Y-116880000D01*
X152612619Y-116903809D01*
X152636428Y-116951428D01*
X152660238Y-117046666D01*
X152660238Y-117165714D01*
X152636428Y-117260952D01*
X152612619Y-117308571D01*
X152588809Y-117332380D01*
X152541190Y-117356190D01*
X152493571Y-117356190D01*
X152445952Y-117332380D01*
X152422142Y-117308571D01*
X152398333Y-117260952D01*
X152374523Y-117165714D01*
X152374523Y-117046666D01*
X152398333Y-116951428D01*
X152422142Y-116903809D01*
X152445952Y-116880000D01*
X152493571Y-116856190D01*
X152874523Y-117308571D02*
X152898333Y-117332380D01*
X152874523Y-117356190D01*
X152850714Y-117332380D01*
X152874523Y-117308571D01*
X152874523Y-117356190D01*
X153374523Y-117356190D02*
X153088809Y-117356190D01*
X153231666Y-117356190D02*
X153231666Y-116856190D01*
X153184047Y-116927619D01*
X153136428Y-116975238D01*
X153088809Y-116999047D01*
X153803095Y-117022857D02*
X153803095Y-117356190D01*
X153588809Y-117022857D02*
X153588809Y-117284761D01*
X153612619Y-117332380D01*
X153660238Y-117356190D01*
X153731666Y-117356190D01*
X153779285Y-117332380D01*
X153803095Y-117308571D01*
X154207857Y-117094285D02*
X154041190Y-117094285D01*
X154041190Y-117356190D02*
X154041190Y-116856190D01*
X154279285Y-116856190D01*
%TO.C,U1*%
X149749047Y-106316190D02*
X149749047Y-106720952D01*
X149772857Y-106768571D01*
X149796666Y-106792380D01*
X149844285Y-106816190D01*
X149939523Y-106816190D01*
X149987142Y-106792380D01*
X150010952Y-106768571D01*
X150034761Y-106720952D01*
X150034761Y-106316190D01*
X150534761Y-106816190D02*
X150249047Y-106816190D01*
X150391904Y-106816190D02*
X150391904Y-106316190D01*
X150344285Y-106387619D01*
X150296666Y-106435238D01*
X150249047Y-106459047D01*
X148276666Y-112416190D02*
X148276666Y-111916190D01*
X148443333Y-112273333D01*
X148610000Y-111916190D01*
X148610000Y-112416190D01*
X149133809Y-112368571D02*
X149110000Y-112392380D01*
X149038571Y-112416190D01*
X148990952Y-112416190D01*
X148919523Y-112392380D01*
X148871904Y-112344761D01*
X148848095Y-112297142D01*
X148824285Y-112201904D01*
X148824285Y-112130476D01*
X148848095Y-112035238D01*
X148871904Y-111987619D01*
X148919523Y-111940000D01*
X148990952Y-111916190D01*
X149038571Y-111916190D01*
X149110000Y-111940000D01*
X149133809Y-111963809D01*
X149348095Y-112416190D02*
X149348095Y-111916190D01*
X149538571Y-111916190D01*
X149586190Y-111940000D01*
X149610000Y-111963809D01*
X149633809Y-112011428D01*
X149633809Y-112082857D01*
X149610000Y-112130476D01*
X149586190Y-112154285D01*
X149538571Y-112178095D01*
X149348095Y-112178095D01*
X150110000Y-112416190D02*
X149824285Y-112416190D01*
X149967142Y-112416190D02*
X149967142Y-111916190D01*
X149919523Y-111987619D01*
X149871904Y-112035238D01*
X149824285Y-112059047D01*
X150276666Y-111916190D02*
X150610000Y-111916190D01*
X150395714Y-112416190D01*
X150895714Y-111916190D02*
X150943333Y-111916190D01*
X150990952Y-111940000D01*
X151014761Y-111963809D01*
X151038571Y-112011428D01*
X151062380Y-112106666D01*
X151062380Y-112225714D01*
X151038571Y-112320952D01*
X151014761Y-112368571D01*
X150990952Y-112392380D01*
X150943333Y-112416190D01*
X150895714Y-112416190D01*
X150848095Y-112392380D01*
X150824285Y-112368571D01*
X150800476Y-112320952D01*
X150776666Y-112225714D01*
X150776666Y-112106666D01*
X150800476Y-112011428D01*
X150824285Y-111963809D01*
X150848095Y-111940000D01*
X150895714Y-111916190D01*
X151229047Y-111916190D02*
X151538571Y-111916190D01*
X151371904Y-112106666D01*
X151443333Y-112106666D01*
X151490952Y-112130476D01*
X151514761Y-112154285D01*
X151538571Y-112201904D01*
X151538571Y-112320952D01*
X151514761Y-112368571D01*
X151490952Y-112392380D01*
X151443333Y-112416190D01*
X151300476Y-112416190D01*
X151252857Y-112392380D01*
X151229047Y-112368571D01*
X151729047Y-112273333D02*
X151967142Y-112273333D01*
X151681428Y-112416190D02*
X151848095Y-111916190D01*
X152014761Y-112416190D01*
%TO.C,R2*%
X155576666Y-114006190D02*
X155410000Y-113768095D01*
X155290952Y-114006190D02*
X155290952Y-113506190D01*
X155481428Y-113506190D01*
X155529047Y-113530000D01*
X155552857Y-113553809D01*
X155576666Y-113601428D01*
X155576666Y-113672857D01*
X155552857Y-113720476D01*
X155529047Y-113744285D01*
X155481428Y-113768095D01*
X155290952Y-113768095D01*
X155767142Y-113553809D02*
X155790952Y-113530000D01*
X155838571Y-113506190D01*
X155957619Y-113506190D01*
X156005238Y-113530000D01*
X156029047Y-113553809D01*
X156052857Y-113601428D01*
X156052857Y-113649047D01*
X156029047Y-113720476D01*
X155743333Y-114006190D01*
X156052857Y-114006190D01*
X155345238Y-117146190D02*
X155654761Y-117146190D01*
X155488095Y-117336666D01*
X155559523Y-117336666D01*
X155607142Y-117360476D01*
X155630952Y-117384285D01*
X155654761Y-117431904D01*
X155654761Y-117550952D01*
X155630952Y-117598571D01*
X155607142Y-117622380D01*
X155559523Y-117646190D01*
X155416666Y-117646190D01*
X155369047Y-117622380D01*
X155345238Y-117598571D01*
X155821428Y-117146190D02*
X156130952Y-117146190D01*
X155964285Y-117336666D01*
X156035714Y-117336666D01*
X156083333Y-117360476D01*
X156107142Y-117384285D01*
X156130952Y-117431904D01*
X156130952Y-117550952D01*
X156107142Y-117598571D01*
X156083333Y-117622380D01*
X156035714Y-117646190D01*
X155892857Y-117646190D01*
X155845238Y-117622380D01*
X155821428Y-117598571D01*
%TO.C,U2*%
X149349047Y-113986190D02*
X149349047Y-114390952D01*
X149372857Y-114438571D01*
X149396666Y-114462380D01*
X149444285Y-114486190D01*
X149539523Y-114486190D01*
X149587142Y-114462380D01*
X149610952Y-114438571D01*
X149634761Y-114390952D01*
X149634761Y-113986190D01*
X149849047Y-114033809D02*
X149872857Y-114010000D01*
X149920476Y-113986190D01*
X150039523Y-113986190D01*
X150087142Y-114010000D01*
X150110952Y-114033809D01*
X150134761Y-114081428D01*
X150134761Y-114129047D01*
X150110952Y-114200476D01*
X149825238Y-114486190D01*
X150134761Y-114486190D01*
X147644285Y-117986190D02*
X147977619Y-117986190D01*
X147763333Y-118486190D01*
X148382380Y-118152857D02*
X148382380Y-118486190D01*
X148263333Y-117962380D02*
X148144285Y-118319523D01*
X148453809Y-118319523D01*
X148882380Y-118486190D02*
X148644285Y-118486190D01*
X148644285Y-117986190D01*
X148977619Y-117986190D02*
X149144285Y-118486190D01*
X149310952Y-117986190D01*
X149763333Y-118438571D02*
X149739523Y-118462380D01*
X149668095Y-118486190D01*
X149620476Y-118486190D01*
X149549047Y-118462380D01*
X149501428Y-118414761D01*
X149477619Y-118367142D01*
X149453809Y-118271904D01*
X149453809Y-118200476D01*
X149477619Y-118105238D01*
X149501428Y-118057619D01*
X149549047Y-118010000D01*
X149620476Y-117986190D01*
X149668095Y-117986190D01*
X149739523Y-118010000D01*
X149763333Y-118033809D01*
X150239523Y-118486190D02*
X149953809Y-118486190D01*
X150096666Y-118486190D02*
X150096666Y-117986190D01*
X150049047Y-118057619D01*
X150001428Y-118105238D01*
X149953809Y-118129047D01*
X150715714Y-118010000D02*
X150668095Y-117986190D01*
X150596666Y-117986190D01*
X150525238Y-118010000D01*
X150477619Y-118057619D01*
X150453809Y-118105238D01*
X150430000Y-118200476D01*
X150430000Y-118271904D01*
X150453809Y-118367142D01*
X150477619Y-118414761D01*
X150525238Y-118462380D01*
X150596666Y-118486190D01*
X150644285Y-118486190D01*
X150715714Y-118462380D01*
X150739523Y-118438571D01*
X150739523Y-118271904D01*
X150644285Y-118271904D01*
X151215714Y-118486190D02*
X150930000Y-118486190D01*
X151072857Y-118486190D02*
X151072857Y-117986190D01*
X151025238Y-118057619D01*
X150977619Y-118105238D01*
X150930000Y-118129047D01*
X151382380Y-117986190D02*
X151715714Y-117986190D01*
X151501428Y-118486190D01*
%TO.C,C1*%
X146776666Y-109418571D02*
X146752857Y-109442380D01*
X146681428Y-109466190D01*
X146633809Y-109466190D01*
X146562380Y-109442380D01*
X146514761Y-109394761D01*
X146490952Y-109347142D01*
X146467142Y-109251904D01*
X146467142Y-109180476D01*
X146490952Y-109085238D01*
X146514761Y-109037619D01*
X146562380Y-108990000D01*
X146633809Y-108966190D01*
X146681428Y-108966190D01*
X146752857Y-108990000D01*
X146776666Y-109013809D01*
X147252857Y-109466190D02*
X146967142Y-109466190D01*
X147110000Y-109466190D02*
X147110000Y-108966190D01*
X147062380Y-109037619D01*
X147014761Y-109085238D01*
X146967142Y-109109047D01*
X146542380Y-113016190D02*
X146256666Y-113016190D01*
X146399523Y-113016190D02*
X146399523Y-112516190D01*
X146351904Y-112587619D01*
X146304285Y-112635238D01*
X146256666Y-112659047D01*
X146970952Y-112682857D02*
X146970952Y-113016190D01*
X146756666Y-112682857D02*
X146756666Y-112944761D01*
X146780476Y-112992380D01*
X146828095Y-113016190D01*
X146899523Y-113016190D01*
X146947142Y-112992380D01*
X146970952Y-112968571D01*
X147375714Y-112754285D02*
X147209047Y-112754285D01*
X147209047Y-113016190D02*
X147209047Y-112516190D01*
X147447142Y-112516190D01*
%TO.C,C2*%
X153906666Y-107068571D02*
X153882857Y-107092380D01*
X153811428Y-107116190D01*
X153763809Y-107116190D01*
X153692380Y-107092380D01*
X153644761Y-107044761D01*
X153620952Y-106997142D01*
X153597142Y-106901904D01*
X153597142Y-106830476D01*
X153620952Y-106735238D01*
X153644761Y-106687619D01*
X153692380Y-106640000D01*
X153763809Y-106616190D01*
X153811428Y-106616190D01*
X153882857Y-106640000D01*
X153906666Y-106663809D01*
X154097142Y-106663809D02*
X154120952Y-106640000D01*
X154168571Y-106616190D01*
X154287619Y-106616190D01*
X154335238Y-106640000D01*
X154359047Y-106663809D01*
X154382857Y-106711428D01*
X154382857Y-106759047D01*
X154359047Y-106830476D01*
X154073333Y-107116190D01*
X154382857Y-107116190D01*
X153099523Y-110293809D02*
X153123333Y-110270000D01*
X153170952Y-110246190D01*
X153290000Y-110246190D01*
X153337619Y-110270000D01*
X153361428Y-110293809D01*
X153385238Y-110341428D01*
X153385238Y-110389047D01*
X153361428Y-110460476D01*
X153075714Y-110746190D01*
X153385238Y-110746190D01*
X153599523Y-110698571D02*
X153623333Y-110722380D01*
X153599523Y-110746190D01*
X153575714Y-110722380D01*
X153599523Y-110698571D01*
X153599523Y-110746190D01*
X153813809Y-110293809D02*
X153837619Y-110270000D01*
X153885238Y-110246190D01*
X154004285Y-110246190D01*
X154051904Y-110270000D01*
X154075714Y-110293809D01*
X154099523Y-110341428D01*
X154099523Y-110389047D01*
X154075714Y-110460476D01*
X153790000Y-110746190D01*
X154099523Y-110746190D01*
X154528095Y-110412857D02*
X154528095Y-110746190D01*
X154313809Y-110412857D02*
X154313809Y-110674761D01*
X154337619Y-110722380D01*
X154385238Y-110746190D01*
X154456666Y-110746190D01*
X154504285Y-110722380D01*
X154528095Y-110698571D01*
X154932857Y-110484285D02*
X154766190Y-110484285D01*
X154766190Y-110746190D02*
X154766190Y-110246190D01*
X155004285Y-110246190D01*
D11*
%TO.C,J1*%
X145577500Y-119552500D02*
X145577500Y-106512500D01*
X140417500Y-112282500D02*
X140417500Y-111532500D01*
X140417500Y-110722500D02*
X140417500Y-109972500D01*
X144717500Y-114532500D02*
X140417500Y-114532500D01*
X140417500Y-114532500D02*
X140417500Y-113782500D01*
X140417500Y-115342500D02*
X144717500Y-115342500D01*
X144717500Y-117592500D02*
X144717500Y-118342500D01*
X140067500Y-109972500D02*
X140067500Y-110472500D01*
X139067500Y-114532500D02*
X139067500Y-111532500D01*
X139067500Y-111532500D02*
X140067500Y-111782500D01*
X144717500Y-113782500D02*
X144717500Y-114532500D01*
X140067500Y-108472500D02*
X140417500Y-108472500D01*
X140067500Y-117592500D02*
X140067500Y-118092500D01*
X144717500Y-110722500D02*
X140417500Y-110722500D01*
X144717500Y-107722500D02*
X144717500Y-108472500D01*
X140417500Y-109972500D02*
X140067500Y-109972500D01*
X139067500Y-115342500D02*
X140067500Y-115592500D01*
X140417500Y-116092500D02*
X140417500Y-115342500D01*
X144717500Y-111532500D02*
X144717500Y-112282500D01*
X144717500Y-109972500D02*
X144717500Y-110722500D01*
X139067500Y-118342500D02*
X139067500Y-115342500D01*
X140067500Y-112282500D02*
X140417500Y-112282500D01*
X140067500Y-118092500D02*
X139067500Y-118342500D01*
X140067500Y-115592500D02*
X140067500Y-116092500D01*
X144717500Y-118342500D02*
X140417500Y-118342500D01*
X140067500Y-113782500D02*
X140067500Y-114282500D01*
X140417500Y-107722500D02*
X144717500Y-107722500D01*
X140417500Y-118342500D02*
X140417500Y-117592500D01*
X140067500Y-116092500D02*
X140417500Y-116092500D01*
X138107500Y-119552500D02*
X145577500Y-119552500D01*
X138107500Y-106512500D02*
X138107500Y-119552500D01*
X145577500Y-106512500D02*
X138107500Y-106512500D01*
X139067500Y-110722500D02*
X139067500Y-107722500D01*
X140417500Y-117592500D02*
X140067500Y-117592500D01*
X140417500Y-108472500D02*
X140417500Y-107722500D01*
X144717500Y-115342500D02*
X144717500Y-116092500D01*
X140067500Y-107972500D02*
X140067500Y-108472500D01*
X140067500Y-111782500D02*
X140067500Y-112282500D01*
X140417500Y-113782500D02*
X140067500Y-113782500D01*
X140067500Y-110472500D02*
X139067500Y-110722500D01*
X140417500Y-111532500D02*
X144717500Y-111532500D01*
X139067500Y-107722500D02*
X140067500Y-107972500D01*
X140067500Y-114282500D02*
X139067500Y-114532500D01*
X144717345Y-116092853D02*
G75*
G03*
X144717500Y-117592500I1700155J-749647D01*
G01*
X144717345Y-108472853D02*
G75*
G03*
X144717500Y-109972500I1700155J-749647D01*
G01*
X144717345Y-112282853D02*
G75*
G03*
X144717500Y-113782500I1700155J-749647D01*
G01*
%TO.C,J2*%
X162070000Y-110010000D02*
X162070000Y-110760000D01*
X162070000Y-108510000D02*
X162420000Y-108510000D01*
X162420000Y-111820000D02*
X163420000Y-111570000D01*
X162420000Y-118130000D02*
X162420000Y-117630000D01*
X164380000Y-106550000D02*
X156910000Y-106550000D01*
X163420000Y-118380000D02*
X162420000Y-118130000D01*
X162420000Y-114320000D02*
X162420000Y-113820000D01*
X162420000Y-113820000D02*
X162070000Y-113820000D01*
X157770000Y-108510000D02*
X157770000Y-107760000D01*
X157770000Y-116130000D02*
X157770000Y-115380000D01*
X162070000Y-113820000D02*
X162070000Y-114570000D01*
X162070000Y-117630000D02*
X162070000Y-118380000D01*
X163420000Y-115380000D02*
X163420000Y-118380000D01*
X162420000Y-115630000D02*
X163420000Y-115380000D01*
X157770000Y-112320000D02*
X157770000Y-111570000D01*
X157770000Y-115380000D02*
X162070000Y-115380000D01*
X162070000Y-111570000D02*
X162070000Y-112320000D01*
X156910000Y-106550000D02*
X156910000Y-119590000D01*
X157770000Y-110760000D02*
X157770000Y-110010000D01*
X162070000Y-115380000D02*
X162070000Y-116130000D01*
X162420000Y-112320000D02*
X162420000Y-111820000D01*
X163420000Y-111570000D02*
X163420000Y-114570000D01*
X162070000Y-114570000D02*
X157770000Y-114570000D01*
X157770000Y-114570000D02*
X157770000Y-113820000D01*
X162420000Y-117630000D02*
X162070000Y-117630000D01*
X162070000Y-107760000D02*
X162070000Y-108510000D01*
X162420000Y-108510000D02*
X162420000Y-108010000D01*
X157770000Y-111570000D02*
X162070000Y-111570000D01*
X162420000Y-116130000D02*
X162420000Y-115630000D01*
X163420000Y-107760000D02*
X163420000Y-110760000D01*
X162070000Y-110760000D02*
X157770000Y-110760000D01*
X163420000Y-114570000D02*
X162420000Y-114320000D01*
X163420000Y-110760000D02*
X162420000Y-110510000D01*
X162070000Y-116130000D02*
X162420000Y-116130000D01*
X162420000Y-108010000D02*
X163420000Y-107760000D01*
X162420000Y-110510000D02*
X162420000Y-110010000D01*
X162070000Y-118380000D02*
X157770000Y-118380000D01*
X156910000Y-119590000D02*
X164380000Y-119590000D01*
X162070000Y-112320000D02*
X162420000Y-112320000D01*
X164380000Y-119590000D02*
X164380000Y-106550000D01*
X157770000Y-118380000D02*
X157770000Y-117630000D01*
X157770000Y-107760000D02*
X162070000Y-107760000D01*
X162420000Y-110010000D02*
X162070000Y-110010000D01*
X157770155Y-113819647D02*
G75*
G03*
X157770000Y-112320000I-1700155J749647D01*
G01*
X157770155Y-110009647D02*
G75*
G03*
X157770000Y-108510000I-1700155J749647D01*
G01*
X157770155Y-117629647D02*
G75*
G03*
X157770000Y-116130000I-1700155J749647D01*
G01*
%TO.C,R1*%
X146277500Y-115162742D02*
X146277500Y-115637258D01*
X147322500Y-115162742D02*
X147322500Y-115637258D01*
%TO.C,C3*%
X152807500Y-115102742D02*
X152807500Y-115577258D01*
X153852500Y-115102742D02*
X153852500Y-115577258D01*
%TO.C,U1*%
X148740000Y-108300000D02*
X148740000Y-106990000D01*
X151460000Y-111710000D02*
X151460000Y-111480000D01*
X148740000Y-111710000D02*
X148740000Y-110400000D01*
X151460000Y-111710000D02*
X148740000Y-111710000D01*
X151460000Y-106990000D02*
X151460000Y-107220000D01*
X148740000Y-106990000D02*
X151460000Y-106990000D01*
X152600000Y-111480000D02*
X151460000Y-111480000D01*
%TO.C,R2*%
X156232500Y-115787258D02*
X156232500Y-115312742D01*
X155187500Y-115787258D02*
X155187500Y-115312742D01*
%TO.C,U2*%
X149725000Y-114665000D02*
X147925000Y-114665000D01*
X149725000Y-117785000D02*
X150525000Y-117785000D01*
X149725000Y-114665000D02*
X150525000Y-114665000D01*
X149725000Y-117785000D02*
X148925000Y-117785000D01*
%TO.C,C1*%
X146377500Y-110762742D02*
X146377500Y-111237258D01*
X147422500Y-110762742D02*
X147422500Y-111237258D01*
%TO.C,C2*%
X154542500Y-108432742D02*
X154542500Y-108907258D01*
X153497500Y-108432742D02*
X153497500Y-108907258D01*
%TD*%
%LPC*%
D12*
%TO.C,J1*%
X142467500Y-116842500D03*
D13*
X142467500Y-113032500D03*
X142467500Y-109222500D03*
%TD*%
D14*
%TO.C,J2*%
X160020000Y-109260000D03*
D13*
X160020000Y-113070000D03*
X160020000Y-116880000D03*
%TD*%
D15*
%TO.C,R1*%
X146800000Y-114575000D03*
X146800000Y-116225000D03*
%TD*%
%TO.C,C3*%
X153330000Y-114515000D03*
X153330000Y-116165000D03*
%TD*%
D16*
%TO.C,U1*%
X152050000Y-110850000D03*
D17*
X151962500Y-109350000D03*
D16*
X152050000Y-107850000D03*
%TD*%
D18*
%TO.C,R2*%
X155710000Y-114725000D03*
X155710000Y-116375000D03*
%TD*%
D19*
%TO.C,U2*%
X148587500Y-115275000D03*
X148587500Y-116225000D03*
X148587500Y-117175000D03*
X150862500Y-117175000D03*
X150862500Y-115275000D03*
%TD*%
D15*
%TO.C,C1*%
X146900000Y-110175000D03*
X146900000Y-111825000D03*
%TD*%
%TO.C,C2*%
X154020000Y-107845000D03*
X154020000Y-109495000D03*
%TD*%
M02*
