%TF.GenerationSoftware,KiCad,Pcbnew,9.0.7*%
%TF.CreationDate,2026-04-10T16:46:06-04:00*%
%TF.ProjectId,ESP32C6_buttons,45535033-3243-4365-9f62-7574746f6e73,rev?*%
%TF.SameCoordinates,PX94de5a0PY4d70380*%
%TF.FileFunction,Copper,L1,Top*%
%TF.FilePolarity,Positive*%
%FSLAX46Y46*%
G04 Gerber Fmt 4.6, Leading zero omitted, Abs format (unit mm)*
G04 Created by KiCad (PCBNEW 9.0.7) date 2026-04-10 16:46:06*
%MOMM*%
%LPD*%
G01*
G04 APERTURE LIST*
G04 Aperture macros list*
%AMRoundRect*
0 Rectangle with rounded corners*
0 $1 Rounding radius*
0 $2 $3 $4 $5 $6 $7 $8 $9 X,Y pos of 4 corners*
0 Add a 4 corners polygon primitive as box body*
4,1,4,$2,$3,$4,$5,$6,$7,$8,$9,$2,$3,0*
0 Add four circle primitives for the rounded corners*
1,1,$1+$1,$2,$3*
1,1,$1+$1,$4,$5*
1,1,$1+$1,$6,$7*
1,1,$1+$1,$8,$9*
0 Add four rect primitives between the rounded corners*
20,1,$1+$1,$2,$3,$4,$5,0*
20,1,$1+$1,$4,$5,$6,$7,0*
20,1,$1+$1,$6,$7,$8,$9,0*
20,1,$1+$1,$8,$9,$2,$3,0*%
G04 Aperture macros list end*
%TA.AperFunction,ComponentPad*%
%ADD10C,2.000000*%
%TD*%
%TA.AperFunction,ComponentPad*%
%ADD11RoundRect,0.250000X-0.750000X0.600000X-0.750000X-0.600000X0.750000X-0.600000X0.750000X0.600000X0*%
%TD*%
%TA.AperFunction,ComponentPad*%
%ADD12O,2.000000X1.700000*%
%TD*%
%TA.AperFunction,SMDPad,CuDef*%
%ADD13RoundRect,0.152400X-0.609600X1.063600X-0.609600X-1.063600X0.609600X-1.063600X0.609600X1.063600X0*%
%TD*%
%TA.AperFunction,ComponentPad*%
%ADD14C,1.524000*%
%TD*%
%TA.AperFunction,SMDPad,CuDef*%
%ADD15RoundRect,0.152400X0.609600X-1.063600X0.609600X1.063600X-0.609600X1.063600X-0.609600X-1.063600X0*%
%TD*%
G04 APERTURE END LIST*
D10*
%TO.P,SW1,2,2*%
%TO.N,Net-(U1-GPIO0{slash}A0{slash}D0)*%
X6000000Y-22500000D03*
X6000000Y-29000000D03*
%TO.P,SW1,1,1*%
%TO.N,GND*%
X1500000Y-22500000D03*
X1500000Y-29000000D03*
%TD*%
%TO.P,SW2,2,2*%
%TO.N,Net-(U1-GPIO1{slash}A1{slash}D1)*%
X10000000Y-29000000D03*
X10000000Y-22500000D03*
%TO.P,SW2,1,1*%
%TO.N,GND*%
X14500000Y-29000000D03*
X14500000Y-22500000D03*
%TD*%
%TO.P,SW3,2,2*%
%TO.N,Net-(U1-GPIO2{slash}A2{slash}D2)*%
X18550000Y-29000000D03*
X18550000Y-22500000D03*
%TO.P,SW3,1,1*%
%TO.N,GND*%
X23050000Y-29000000D03*
X23050000Y-22500000D03*
%TD*%
%TO.P,SW4,1,1*%
%TO.N,GND*%
X31600000Y-22500000D03*
X31600000Y-29000000D03*
%TO.P,SW4,2,2*%
%TO.N,Net-(U1-GPIO21{slash}D3)*%
X27100000Y-22500000D03*
X27100000Y-29000000D03*
%TD*%
D11*
%TO.P,J1,1,Pin_1*%
%TO.N,+3V3*%
X28800000Y-4300000D03*
D12*
%TO.P,J1,2,Pin_2*%
%TO.N,GND*%
X28800000Y-6800000D03*
%TD*%
D13*
%TO.P,U1,1,GPIO0/A0/D0*%
%TO.N,Net-(U1-GPIO0{slash}A0{slash}D0)*%
X3882500Y-18271000D03*
D14*
X3882500Y-17436000D03*
D13*
%TO.P,U1,2,GPIO1/A1/D1*%
%TO.N,Net-(U1-GPIO1{slash}A1{slash}D1)*%
X6422500Y-18271000D03*
D14*
X6422500Y-17436000D03*
D13*
%TO.P,U1,3,GPIO2/A2/D2*%
%TO.N,Net-(U1-GPIO2{slash}A2{slash}D2)*%
X8962500Y-18271000D03*
D14*
X8962500Y-17436000D03*
D13*
%TO.P,U1,4,GPIO21/D3*%
%TO.N,Net-(U1-GPIO21{slash}D3)*%
X11502500Y-18271000D03*
D14*
X11502500Y-17436000D03*
D13*
%TO.P,U1,5,GPIO22/D4/SDA*%
%TO.N,unconnected-(U1-GPIO22{slash}D4{slash}SDA-Pad5)*%
X14042500Y-18271000D03*
D14*
X14042500Y-17436000D03*
D13*
%TO.P,U1,6,GPIO23/D5/SCL*%
%TO.N,unconnected-(U1-GPIO23{slash}D5{slash}SCL-Pad6)*%
X16582500Y-18271000D03*
D14*
X16582500Y-17436000D03*
D13*
%TO.P,U1,7,GPIO16/D6/TX*%
%TO.N,unconnected-(U1-GPIO16{slash}D6{slash}TX-Pad7)*%
X19122500Y-18271000D03*
D14*
X19122500Y-17436000D03*
%TO.P,U1,8,GPIO17/D7/RX*%
%TO.N,unconnected-(U1-GPIO17{slash}D7{slash}RX-Pad8)*%
X19122500Y-2196000D03*
D15*
X19122500Y-1361000D03*
D14*
%TO.P,U1,9,GPIO19/D8/SCK*%
%TO.N,unconnected-(U1-GPIO19{slash}D8{slash}SCK-Pad9)*%
X16582500Y-2196000D03*
D15*
X16582500Y-1361000D03*
D14*
%TO.P,U1,10,GPIO20/D9/MISO*%
%TO.N,unconnected-(U1-GPIO20{slash}D9{slash}MISO-Pad10)*%
X14042500Y-2196000D03*
D15*
X14042500Y-1361000D03*
D14*
%TO.P,U1,11,GPIO18/D10/MOSI*%
%TO.N,unconnected-(U1-GPIO18{slash}D10{slash}MOSI-Pad11)*%
X11502500Y-2196000D03*
D15*
X11502500Y-1361000D03*
D14*
%TO.P,U1,12,3V3*%
%TO.N,+3V3*%
X8962500Y-2196000D03*
D15*
X8962500Y-1361000D03*
D14*
%TO.P,U1,13,GND*%
%TO.N,GND*%
X6422500Y-2196000D03*
D15*
X6422500Y-1361000D03*
D14*
%TO.P,U1,14,VBUS*%
%TO.N,unconnected-(U1-VBUS-Pad14)*%
X3882500Y-2196000D03*
D15*
X3882500Y-1361000D03*
%TD*%
M02*
