%TF.GenerationSoftware,KiCad,Pcbnew,9.0.7*%
%TF.CreationDate,2026-05-01T16:19:37-04:00*%
%TF.ProjectId,ESP32C6_buttons,45535033-3243-4365-9f62-7574746f6e73,rev?*%
%TF.SameCoordinates,PX94de5a0PY4d70380*%
%TF.FileFunction,Copper,L1,Top*%
%TF.FilePolarity,Positive*%
%FSLAX46Y46*%
G04 Gerber Fmt 4.6, Leading zero omitted, Abs format (unit mm)*
G04 Created by KiCad (PCBNEW 9.0.7) date 2026-05-01 16:19:37*
%MOMM*%
%LPD*%
G01*
G04 APERTURE LIST*
G04 Aperture macros list*
%AMRoundRect*
0 Rectangle with rounded corners*
0 $1 Rounding radius*
0 $2 $3 $4 $5 $6 $7 $8 $9 X,Y pos of 4 corners*
0 Add a 4 corners polygon primitive as box body*
4,1,4,$2,$3,$4,$5,$6,$7,$8,$9,$2,$3,0*
0 Add four circle primitives for the rounded corners*
1,1,$1+$1,$2,$3*
1,1,$1+$1,$4,$5*
1,1,$1+$1,$6,$7*
1,1,$1+$1,$8,$9*
0 Add four rect primitives between the rounded corners*
20,1,$1+$1,$2,$3,$4,$5,0*
20,1,$1+$1,$4,$5,$6,$7,0*
20,1,$1+$1,$6,$7,$8,$9,0*
20,1,$1+$1,$8,$9,$2,$3,0*%
G04 Aperture macros list end*
%TA.AperFunction,ComponentPad*%
%ADD10O,3.600000X1.800000*%
%TD*%
%TA.AperFunction,ComponentPad*%
%ADD11RoundRect,0.250000X-1.550000X0.650000X-1.550000X-0.650000X1.550000X-0.650000X1.550000X0.650000X0*%
%TD*%
%TA.AperFunction,ComponentPad*%
%ADD12O,1.600000X1.600000*%
%TD*%
%TA.AperFunction,ComponentPad*%
%ADD13R,1.600000X1.600000*%
%TD*%
%TA.AperFunction,ComponentPad*%
%ADD14C,2.000000*%
%TD*%
%TA.AperFunction,ComponentPad*%
%ADD15RoundRect,0.250000X0.600000X0.750000X-0.600000X0.750000X-0.600000X-0.750000X0.600000X-0.750000X0*%
%TD*%
%TA.AperFunction,ComponentPad*%
%ADD16O,1.700000X2.000000*%
%TD*%
%TA.AperFunction,SMDPad,CuDef*%
%ADD17RoundRect,0.152400X-0.609600X1.063600X-0.609600X-1.063600X0.609600X-1.063600X0.609600X1.063600X0*%
%TD*%
%TA.AperFunction,ComponentPad*%
%ADD18C,1.524000*%
%TD*%
%TA.AperFunction,SMDPad,CuDef*%
%ADD19RoundRect,0.152400X0.609600X-1.063600X0.609600X1.063600X-0.609600X1.063600X-0.609600X-1.063600X0*%
%TD*%
%TA.AperFunction,ComponentPad*%
%ADD20R,1.800000X1.800000*%
%TD*%
%TA.AperFunction,ComponentPad*%
%ADD21C,1.800000*%
%TD*%
%TA.AperFunction,Conductor*%
%ADD22C,1.000000*%
%TD*%
%TA.AperFunction,Conductor*%
%ADD23C,0.500000*%
%TD*%
G04 APERTURE END LIST*
D10*
%TO.P,J2,2,Pin_2*%
%TO.N,/AC-*%
X39900000Y-8380000D03*
D11*
%TO.P,J2,1,Pin_1*%
%TO.N,/AC+*%
X39900000Y-3300000D03*
%TD*%
D12*
%TO.P,D1,4*%
%TO.N,/AC+*%
X36000000Y-12529001D03*
%TO.P,D1,3*%
%TO.N,/AC-*%
X41080000Y-12529001D03*
%TO.P,D1,2,-*%
%TO.N,GND*%
X41080000Y-20149001D03*
D13*
%TO.P,D1,1,+*%
%TO.N,+12V*%
X36000000Y-20149001D03*
%TD*%
D14*
%TO.P,SW2,1,1*%
%TO.N,GND*%
X18716667Y-23750000D03*
X18716667Y-30250000D03*
%TO.P,SW2,2,2*%
%TO.N,Net-(U1-GPIO1{slash}A1{slash}D1)*%
X14216667Y-23750000D03*
X14216667Y-30250000D03*
%TD*%
%TO.P,SW4,1,1*%
%TO.N,GND*%
X44150000Y-23700000D03*
X44150000Y-30200000D03*
%TO.P,SW4,2,2*%
%TO.N,Net-(U1-GPIO21{slash}D3)*%
X39650000Y-23700000D03*
X39650000Y-30200000D03*
%TD*%
D15*
%TO.P,J1,1,Pin_1*%
%TO.N,GND*%
X28100000Y-4700000D03*
D16*
%TO.P,J1,2,Pin_2*%
%TO.N,+3V3*%
X25600000Y-4700000D03*
%TD*%
D14*
%TO.P,SW1,1,1*%
%TO.N,GND*%
X1500000Y-30250000D03*
X1500000Y-23750000D03*
%TO.P,SW1,2,2*%
%TO.N,Net-(U1-GPIO0{slash}A0{slash}D0)*%
X6000000Y-30250000D03*
X6000000Y-23750000D03*
%TD*%
%TO.P,SW3,1,1*%
%TO.N,GND*%
X31433333Y-23750000D03*
X31433333Y-30250000D03*
%TO.P,SW3,2,2*%
%TO.N,Net-(U1-GPIO2{slash}A2{slash}D2)*%
X26933333Y-23750000D03*
X26933333Y-30250000D03*
%TD*%
D17*
%TO.P,U1,1,GPIO0/A0/D0*%
%TO.N,Net-(U1-GPIO0{slash}A0{slash}D0)*%
X3882500Y-18271000D03*
D18*
X3882500Y-17436000D03*
D17*
%TO.P,U1,2,GPIO1/A1/D1*%
%TO.N,Net-(U1-GPIO1{slash}A1{slash}D1)*%
X6422500Y-18271000D03*
D18*
X6422500Y-17436000D03*
D17*
%TO.P,U1,3,GPIO2/A2/D2*%
%TO.N,Net-(U1-GPIO2{slash}A2{slash}D2)*%
X8962500Y-18271000D03*
D18*
X8962500Y-17436000D03*
D17*
%TO.P,U1,4,GPIO21/D3*%
%TO.N,Net-(U1-GPIO21{slash}D3)*%
X11502500Y-18271000D03*
D18*
X11502500Y-17436000D03*
D17*
%TO.P,U1,5,GPIO22/D4/SDA*%
%TO.N,unconnected-(U1-GPIO22{slash}D4{slash}SDA-Pad5)*%
X14042500Y-18271000D03*
D18*
X14042500Y-17436000D03*
D17*
%TO.P,U1,6,GPIO23/D5/SCL*%
%TO.N,unconnected-(U1-GPIO23{slash}D5{slash}SCL-Pad6)*%
X16582500Y-18271000D03*
D18*
X16582500Y-17436000D03*
D17*
%TO.P,U1,7,GPIO16/D6/TX*%
%TO.N,unconnected-(U1-GPIO16{slash}D6{slash}TX-Pad7)*%
X19122500Y-18271000D03*
D18*
X19122500Y-17436000D03*
%TO.P,U1,8,GPIO17/D7/RX*%
%TO.N,unconnected-(U1-GPIO17{slash}D7{slash}RX-Pad8)*%
X19122500Y-2196000D03*
D19*
X19122500Y-1361000D03*
D18*
%TO.P,U1,9,GPIO19/D8/SCK*%
%TO.N,unconnected-(U1-GPIO19{slash}D8{slash}SCK-Pad9)*%
X16582500Y-2196000D03*
D19*
X16582500Y-1361000D03*
D18*
%TO.P,U1,10,GPIO20/D9/MISO*%
%TO.N,unconnected-(U1-GPIO20{slash}D9{slash}MISO-Pad10)*%
X14042500Y-2196000D03*
D19*
X14042500Y-1361000D03*
D18*
%TO.P,U1,11,GPIO18/D10/MOSI*%
%TO.N,unconnected-(U1-GPIO18{slash}D10{slash}MOSI-Pad11)*%
X11502500Y-2196000D03*
D19*
X11502500Y-1361000D03*
D18*
%TO.P,U1,12,3V3*%
%TO.N,+3V3*%
X8962500Y-2196000D03*
D19*
X8962500Y-1361000D03*
D18*
%TO.P,U1,13,GND*%
%TO.N,GND*%
X6422500Y-2196000D03*
D19*
X6422500Y-1361000D03*
D18*
%TO.P,U1,14,VBUS*%
%TO.N,+5V*%
X3882500Y-2196000D03*
D19*
X3882500Y-1361000D03*
%TD*%
D20*
%TO.P,U3,1,IN*%
%TO.N,+12V*%
X30500000Y-15600000D03*
D21*
%TO.P,U3,2,GND*%
%TO.N,GND*%
X27960000Y-15600000D03*
%TO.P,U3,3,OUT*%
%TO.N,+5V*%
X25420000Y-15600000D03*
%TD*%
D22*
%TO.N,GND*%
X27960000Y-11840000D02*
X27960000Y-15600000D01*
X28000000Y-11800000D02*
X27960000Y-11840000D01*
X25122500Y-8922500D02*
X28000000Y-11800000D01*
X6422500Y-8922500D02*
X25122500Y-8922500D01*
X39379000Y-18448001D02*
X41080000Y-20149001D01*
X29535209Y-18448001D02*
X39379000Y-18448001D01*
X27960000Y-16872792D02*
X29535209Y-18448001D01*
X27960000Y-15600000D02*
X27960000Y-16872792D01*
D23*
%TO.N,Net-(U1-GPIO21{slash}D3)*%
X39650000Y-23700000D02*
X39650000Y-30200000D01*
D22*
%TO.N,GND*%
X1500000Y-13845000D02*
X6422500Y-8922500D01*
X1500000Y-23750000D02*
X1500000Y-13845000D01*
X1500000Y-23750000D02*
X1500000Y-30250000D01*
D23*
%TO.N,Net-(U1-GPIO0{slash}A0{slash}D0)*%
X6000000Y-23750000D02*
X6000000Y-30250000D01*
%TO.N,Net-(U1-GPIO1{slash}A1{slash}D1)*%
X14216667Y-23750000D02*
X14216667Y-30250000D01*
%TO.N,Net-(U1-GPIO2{slash}A2{slash}D2)*%
X26933333Y-23750000D02*
X26933333Y-30250000D01*
D22*
%TO.N,GND*%
X18716667Y-23750000D02*
X18716667Y-30250000D01*
X44150000Y-23700000D02*
X44150000Y-30200000D01*
X31433333Y-23750000D02*
X31433333Y-30250000D01*
X6422500Y-2196000D02*
X6422500Y-8922500D01*
%TD*%
M02*
