G04 #@! TF.GenerationSoftware,KiCad,Pcbnew,(6.0.5)*
G04 #@! TF.CreationDate,2022-05-05T21:27:21-04:00*
G04 #@! TF.ProjectId,Weather_Wemos,57656174-6865-4725-9f57-656d6f732e6b,v1*
G04 #@! TF.SameCoordinates,Original*
G04 #@! TF.FileFunction,Soldermask,Top*
G04 #@! TF.FilePolarity,Negative*
%FSLAX45Y45*%
G04 Gerber Fmt 4.5, Leading zero omitted, Abs format (unit mm)*
G04 Created by KiCad (PCBNEW (6.0.5)) date 2022-05-05 21:27:21*
%MOMM*%
%LPD*%
G01*
G04 APERTURE LIST*
G04 #@! TA.AperFunction,Profile*
%ADD10C,0.050000*%
G04 #@! TD*
%ADD11C,2.702000*%
%ADD12C,1.702000*%
%ADD13O,1.702000X1.702000*%
%ADD14C,1.902000*%
%ADD15C,3.802000*%
%ADD16C,3.352000*%
%ADD17C,1.622000*%
%ADD18C,3.302000*%
%ADD19C,1.602000*%
%ADD20O,2.007000X2.102000*%
G04 APERTURE END LIST*
D10*
X18100000Y-5900000D02*
X11900000Y-5900000D01*
X18100000Y-14400000D02*
X18100000Y-5900000D01*
X11900000Y-14400000D02*
X18100000Y-14400000D01*
X11900000Y-5900000D02*
X11900000Y-14400000D01*
X18100000Y-5900000D02*
X11900000Y-5900000D01*
X18100000Y-14400000D02*
X18100000Y-5900000D01*
X11900000Y-14400000D02*
X18100000Y-14400000D01*
X11900000Y-5900000D02*
X11900000Y-14400000D01*
G36*
G01*
X12270000Y-7564900D02*
X12530000Y-7564900D01*
G75*
G02*
X12535100Y-7570000I0J-5100D01*
G01*
X12535100Y-7830000D01*
G75*
G02*
X12530000Y-7835100I-5100J0D01*
G01*
X12270000Y-7835100D01*
G75*
G02*
X12264900Y-7830000I0J5100D01*
G01*
X12264900Y-7570000D01*
G75*
G02*
X12270000Y-7564900I5100J0D01*
G01*
G37*
D11*
X12400000Y-8200000D03*
X12400000Y-8700000D03*
D12*
X13800000Y-9800000D03*
D13*
X14562000Y-9800000D03*
D14*
X15489000Y-9457000D03*
X15235000Y-9457000D03*
X14981000Y-9457000D03*
X14727000Y-9457000D03*
X14473000Y-9457000D03*
X14219000Y-9457000D03*
X13965000Y-9457000D03*
X13711000Y-9457000D03*
X13711000Y-11743000D03*
X13965000Y-11743000D03*
X14219000Y-11743000D03*
X14473000Y-11743000D03*
X14727000Y-11743000D03*
X14981000Y-11743000D03*
X15235000Y-11743000D03*
X15489000Y-11743000D03*
G36*
G01*
X17430000Y-12835100D02*
X17170000Y-12835100D01*
G75*
G02*
X17164900Y-12830000I0J5100D01*
G01*
X17164900Y-12570000D01*
G75*
G02*
X17170000Y-12564900I5100J0D01*
G01*
X17430000Y-12564900D01*
G75*
G02*
X17435100Y-12570000I0J-5100D01*
G01*
X17435100Y-12830000D01*
G75*
G02*
X17430000Y-12835100I-5100J0D01*
G01*
G37*
D11*
X17300000Y-12200000D03*
G36*
G01*
X14580000Y-13085100D02*
X14420000Y-13085100D01*
G75*
G02*
X14414900Y-13080000I0J5100D01*
G01*
X14414900Y-12920000D01*
G75*
G02*
X14420000Y-12914900I5100J0D01*
G01*
X14580000Y-12914900D01*
G75*
G02*
X14585100Y-12920000I0J-5100D01*
G01*
X14585100Y-13080000D01*
G75*
G02*
X14580000Y-13085100I-5100J0D01*
G01*
G37*
D12*
X14500000Y-12750000D03*
G36*
G01*
X14085100Y-12320000D02*
X14085100Y-12480000D01*
G75*
G02*
X14080000Y-12485100I-5100J0D01*
G01*
X13920000Y-12485100D01*
G75*
G02*
X13914900Y-12480000I0J5100D01*
G01*
X13914900Y-12320000D01*
G75*
G02*
X13920000Y-12314900I5100J0D01*
G01*
X14080000Y-12314900D01*
G75*
G02*
X14085100Y-12320000I0J-5100D01*
G01*
G37*
X13750000Y-12400000D03*
G36*
G01*
X14904900Y-12290000D02*
X14904900Y-12110000D01*
G75*
G02*
X14910000Y-12104900I5100J0D01*
G01*
X15090000Y-12104900D01*
G75*
G02*
X15095100Y-12110000I0J-5100D01*
G01*
X15095100Y-12290000D01*
G75*
G02*
X15090000Y-12295100I-5100J0D01*
G01*
X14910000Y-12295100D01*
G75*
G02*
X14904900Y-12290000I0J5100D01*
G01*
G37*
D14*
X15254000Y-12200000D03*
D15*
X17600000Y-14000000D03*
X12500000Y-6300000D03*
X17600000Y-6300000D03*
X12500000Y-14000000D03*
D16*
X16775000Y-8011000D03*
X17791000Y-8011000D03*
G36*
G01*
X17681100Y-8824000D02*
X17681100Y-8976000D01*
G75*
G02*
X17676000Y-8981100I-5100J0D01*
G01*
X17524000Y-8981100D01*
G75*
G02*
X17518900Y-8976000I0J5100D01*
G01*
X17518900Y-8824000D01*
G75*
G02*
X17524000Y-8818900I5100J0D01*
G01*
X17676000Y-8818900D01*
G75*
G02*
X17681100Y-8824000I0J-5100D01*
G01*
G37*
D17*
X17473000Y-8646000D03*
X17346000Y-8900000D03*
X17219000Y-8646000D03*
X17092000Y-8900000D03*
X16965000Y-8646000D03*
D16*
X15175000Y-8011000D03*
X16191000Y-8011000D03*
G36*
G01*
X16081100Y-8824000D02*
X16081100Y-8976000D01*
G75*
G02*
X16076000Y-8981100I-5100J0D01*
G01*
X15924000Y-8981100D01*
G75*
G02*
X15918900Y-8976000I0J5100D01*
G01*
X15918900Y-8824000D01*
G75*
G02*
X15924000Y-8818900I5100J0D01*
G01*
X16076000Y-8818900D01*
G75*
G02*
X16081100Y-8824000I0J-5100D01*
G01*
G37*
D17*
X15873000Y-8646000D03*
X15746000Y-8900000D03*
X15619000Y-8646000D03*
X15492000Y-8900000D03*
X15365000Y-8646000D03*
D18*
X14527000Y-7965000D03*
X13384000Y-7965000D03*
G36*
G01*
X14480100Y-8525000D02*
X14480100Y-8675000D01*
G75*
G02*
X14475000Y-8680100I-5100J0D01*
G01*
X14325000Y-8680100D01*
G75*
G02*
X14319900Y-8675000I0J5100D01*
G01*
X14319900Y-8525000D01*
G75*
G02*
X14325000Y-8519900I5100J0D01*
G01*
X14475000Y-8519900D01*
G75*
G02*
X14480100Y-8525000I0J-5100D01*
G01*
G37*
D19*
X14273000Y-8854000D03*
X14146000Y-8600000D03*
X14019000Y-8854000D03*
X13892000Y-8600000D03*
X13765000Y-8854000D03*
X13638000Y-8600000D03*
X13511000Y-8854000D03*
D12*
X15600000Y-12200000D03*
D13*
X16362000Y-12200000D03*
G36*
G01*
X16100350Y-12600000D02*
X16100350Y-12800000D01*
G75*
G02*
X16095250Y-12805100I-5100J0D01*
G01*
X15904750Y-12805100D01*
G75*
G02*
X15899650Y-12800000I0J5100D01*
G01*
X15899650Y-12600000D01*
G75*
G02*
X15904750Y-12594900I5100J0D01*
G01*
X16095250Y-12594900D01*
G75*
G02*
X16100350Y-12600000I0J-5100D01*
G01*
G37*
D20*
X15746000Y-12700000D03*
X15492000Y-12700000D03*
G36*
G01*
X13119900Y-12875000D02*
X13119900Y-12525000D01*
G75*
G02*
X13125000Y-12519900I5100J0D01*
G01*
X13475000Y-12519900D01*
G75*
G02*
X13480100Y-12525000I0J-5100D01*
G01*
X13480100Y-12875000D01*
G75*
G02*
X13475000Y-12880100I-5100J0D01*
G01*
X13125000Y-12880100D01*
G75*
G02*
X13119900Y-12875000I0J5100D01*
G01*
G37*
G36*
G01*
X12544900Y-12800000D02*
X12544900Y-12600000D01*
G75*
G02*
X12625000Y-12519900I80100J0D01*
G01*
X12775000Y-12519900D01*
G75*
G02*
X12855100Y-12600000I0J-80100D01*
G01*
X12855100Y-12800000D01*
G75*
G02*
X12775000Y-12880100I-80100J0D01*
G01*
X12625000Y-12880100D01*
G75*
G02*
X12544900Y-12800000I0J80100D01*
G01*
G37*
G36*
G01*
X12819900Y-13257500D02*
X12819900Y-13082500D01*
G75*
G02*
X12912500Y-12989900I92600J0D01*
G01*
X13087500Y-12989900D01*
G75*
G02*
X13180100Y-13082500I0J-92600D01*
G01*
X13180100Y-13257500D01*
G75*
G02*
X13087500Y-13350100I-92600J0D01*
G01*
X12912500Y-13350100D01*
G75*
G02*
X12819900Y-13257500I0J92600D01*
G01*
G37*
M02*
