G04 #@! TF.GenerationSoftware,KiCad,Pcbnew,(6.0.5)*
G04 #@! TF.CreationDate,2022-05-05T21:27:21-04:00*
G04 #@! TF.ProjectId,Weather_Wemos,57656174-6865-4725-9f57-656d6f732e6b,v1*
G04 #@! TF.SameCoordinates,Original*
G04 #@! TF.FileFunction,Legend,Top*
G04 #@! TF.FilePolarity,Positive*
%FSLAX45Y45*%
G04 Gerber Fmt 4.5, Leading zero omitted, Abs format (unit mm)*
G04 Created by KiCad (PCBNEW (6.0.5)) date 2022-05-05 21:27:21*
%MOMM*%
%LPD*%
G01*
G04 APERTURE LIST*
G04 #@! TA.AperFunction,Profile*
%ADD10C,0.050000*%
G04 #@! TD*
%ADD11C,0.150000*%
%ADD12C,0.300000*%
%ADD13C,0.120000*%
%ADD14C,0.100000*%
%ADD15C,0.010000*%
%ADD16C,2.702000*%
%ADD17C,1.702000*%
%ADD18O,1.702000X1.702000*%
%ADD19C,1.902000*%
%ADD20C,3.802000*%
%ADD21C,3.352000*%
%ADD22C,1.622000*%
%ADD23C,3.302000*%
%ADD24C,1.602000*%
%ADD25O,2.007000X2.102000*%
G04 APERTURE END LIST*
D10*
X18100000Y-5900000D02*
X11900000Y-5900000D01*
X18100000Y-14400000D02*
X18100000Y-5900000D01*
X11900000Y-14400000D02*
X18100000Y-14400000D01*
X11900000Y-5900000D02*
X11900000Y-14400000D01*
D11*
X12323809Y-9050000D02*
X12314286Y-9045238D01*
X12300000Y-9045238D01*
X12285714Y-9050000D01*
X12276190Y-9059524D01*
X12271428Y-9069048D01*
X12266667Y-9088095D01*
X12266667Y-9102381D01*
X12271428Y-9121429D01*
X12276190Y-9130952D01*
X12285714Y-9140476D01*
X12300000Y-9145238D01*
X12309524Y-9145238D01*
X12323809Y-9140476D01*
X12328571Y-9135714D01*
X12328571Y-9102381D01*
X12309524Y-9102381D01*
X12371428Y-9145238D02*
X12371428Y-9045238D01*
X12428571Y-9145238D01*
X12428571Y-9045238D01*
X12476190Y-9145238D02*
X12476190Y-9045238D01*
X12500000Y-9045238D01*
X12514286Y-9050000D01*
X12523809Y-9059524D01*
X12528571Y-9069048D01*
X12533333Y-9088095D01*
X12533333Y-9102381D01*
X12528571Y-9121429D01*
X12523809Y-9130952D01*
X12514286Y-9140476D01*
X12500000Y-9145238D01*
X12476190Y-9145238D01*
X12042857Y-7345238D02*
X11985714Y-7345238D01*
X12014286Y-7345238D02*
X12014286Y-7245238D01*
X12004762Y-7259524D01*
X11995238Y-7269048D01*
X11985714Y-7273809D01*
X12080952Y-7254762D02*
X12085714Y-7250000D01*
X12095238Y-7245238D01*
X12119048Y-7245238D01*
X12128571Y-7250000D01*
X12133333Y-7254762D01*
X12138095Y-7264286D01*
X12138095Y-7273809D01*
X12133333Y-7288095D01*
X12076190Y-7345238D01*
X12138095Y-7345238D01*
X12171428Y-7278571D02*
X12195238Y-7345238D01*
X12219048Y-7278571D01*
X17888095Y-12745238D02*
X17830952Y-12745238D01*
X17859524Y-12745238D02*
X17859524Y-12645238D01*
X17850000Y-12659524D01*
X17840476Y-12669048D01*
X17830952Y-12673809D01*
X17926190Y-12654762D02*
X17930952Y-12650000D01*
X17940476Y-12645238D01*
X17964286Y-12645238D01*
X17973810Y-12650000D01*
X17978571Y-12654762D01*
X17983333Y-12664286D01*
X17983333Y-12673809D01*
X17978571Y-12688095D01*
X17921429Y-12745238D01*
X17983333Y-12745238D01*
X18011905Y-12645238D02*
X18045238Y-12745238D01*
X18078571Y-12645238D01*
X14811905Y-12057143D02*
X14888095Y-12057143D01*
X14850000Y-12095238D02*
X14850000Y-12019048D01*
X13095238Y-8283333D02*
X13047619Y-8316667D01*
X13095238Y-8340476D02*
X12995238Y-8340476D01*
X12995238Y-8302381D01*
X13000000Y-8292857D01*
X13004762Y-8288095D01*
X13014286Y-8283333D01*
X13028571Y-8283333D01*
X13038095Y-8288095D01*
X13042857Y-8292857D01*
X13047619Y-8302381D01*
X13047619Y-8340476D01*
X13095238Y-8197619D02*
X13042857Y-8197619D01*
X13033333Y-8202381D01*
X13028571Y-8211905D01*
X13028571Y-8230952D01*
X13033333Y-8240476D01*
X13090476Y-8197619D02*
X13095238Y-8207143D01*
X13095238Y-8230952D01*
X13090476Y-8240476D01*
X13080952Y-8245238D01*
X13071428Y-8245238D01*
X13061905Y-8240476D01*
X13057143Y-8230952D01*
X13057143Y-8207143D01*
X13052381Y-8197619D01*
X13095238Y-8150000D02*
X13028571Y-8150000D01*
X12995238Y-8150000D02*
X13000000Y-8154762D01*
X13004762Y-8150000D01*
X13000000Y-8145238D01*
X12995238Y-8150000D01*
X13004762Y-8150000D01*
X13028571Y-8102381D02*
X13095238Y-8102381D01*
X13038095Y-8102381D02*
X13033333Y-8097619D01*
X13028571Y-8088095D01*
X13028571Y-8073809D01*
X13033333Y-8064286D01*
X13042857Y-8059524D01*
X13095238Y-8059524D01*
D12*
X13360714Y-13647107D02*
X13396428Y-13797107D01*
X13425000Y-13689964D01*
X13453571Y-13797107D01*
X13489286Y-13647107D01*
X13603571Y-13789964D02*
X13589286Y-13797107D01*
X13560714Y-13797107D01*
X13546428Y-13789964D01*
X13539286Y-13775678D01*
X13539286Y-13718536D01*
X13546428Y-13704250D01*
X13560714Y-13697107D01*
X13589286Y-13697107D01*
X13603571Y-13704250D01*
X13610714Y-13718536D01*
X13610714Y-13732821D01*
X13539286Y-13747107D01*
X13739286Y-13797107D02*
X13739286Y-13718536D01*
X13732143Y-13704250D01*
X13717857Y-13697107D01*
X13689286Y-13697107D01*
X13675000Y-13704250D01*
X13739286Y-13789964D02*
X13725000Y-13797107D01*
X13689286Y-13797107D01*
X13675000Y-13789964D01*
X13667857Y-13775678D01*
X13667857Y-13761393D01*
X13675000Y-13747107D01*
X13689286Y-13739964D01*
X13725000Y-13739964D01*
X13739286Y-13732821D01*
X13789286Y-13697107D02*
X13846428Y-13697107D01*
X13810714Y-13647107D02*
X13810714Y-13775678D01*
X13817857Y-13789964D01*
X13832143Y-13797107D01*
X13846428Y-13797107D01*
X13896428Y-13797107D02*
X13896428Y-13647107D01*
X13960714Y-13797107D02*
X13960714Y-13718536D01*
X13953571Y-13704250D01*
X13939286Y-13697107D01*
X13917857Y-13697107D01*
X13903571Y-13704250D01*
X13896428Y-13711393D01*
X14089286Y-13789964D02*
X14075000Y-13797107D01*
X14046428Y-13797107D01*
X14032143Y-13789964D01*
X14025000Y-13775678D01*
X14025000Y-13718536D01*
X14032143Y-13704250D01*
X14046428Y-13697107D01*
X14075000Y-13697107D01*
X14089286Y-13704250D01*
X14096428Y-13718536D01*
X14096428Y-13732821D01*
X14025000Y-13747107D01*
X14160714Y-13797107D02*
X14160714Y-13697107D01*
X14160714Y-13725678D02*
X14167857Y-13711393D01*
X14175000Y-13704250D01*
X14189286Y-13697107D01*
X14203571Y-13697107D01*
X14353571Y-13647107D02*
X14389286Y-13797107D01*
X14417857Y-13689964D01*
X14446428Y-13797107D01*
X14482143Y-13647107D01*
X14596428Y-13789964D02*
X14582143Y-13797107D01*
X14553571Y-13797107D01*
X14539286Y-13789964D01*
X14532143Y-13775678D01*
X14532143Y-13718536D01*
X14539286Y-13704250D01*
X14553571Y-13697107D01*
X14582143Y-13697107D01*
X14596428Y-13704250D01*
X14603571Y-13718536D01*
X14603571Y-13732821D01*
X14532143Y-13747107D01*
X14667857Y-13797107D02*
X14667857Y-13697107D01*
X14667857Y-13711393D02*
X14675000Y-13704250D01*
X14689286Y-13697107D01*
X14710714Y-13697107D01*
X14725000Y-13704250D01*
X14732143Y-13718536D01*
X14732143Y-13797107D01*
X14732143Y-13718536D02*
X14739286Y-13704250D01*
X14753571Y-13697107D01*
X14775000Y-13697107D01*
X14789286Y-13704250D01*
X14796428Y-13718536D01*
X14796428Y-13797107D01*
X14889286Y-13797107D02*
X14875000Y-13789964D01*
X14867857Y-13782821D01*
X14860714Y-13768536D01*
X14860714Y-13725678D01*
X14867857Y-13711393D01*
X14875000Y-13704250D01*
X14889286Y-13697107D01*
X14910714Y-13697107D01*
X14925000Y-13704250D01*
X14932143Y-13711393D01*
X14939286Y-13725678D01*
X14939286Y-13768536D01*
X14932143Y-13782821D01*
X14925000Y-13789964D01*
X14910714Y-13797107D01*
X14889286Y-13797107D01*
X14996428Y-13789964D02*
X15010714Y-13797107D01*
X15039286Y-13797107D01*
X15053571Y-13789964D01*
X15060714Y-13775678D01*
X15060714Y-13768536D01*
X15053571Y-13754250D01*
X15039286Y-13747107D01*
X15017857Y-13747107D01*
X15003571Y-13739964D01*
X14996428Y-13725678D01*
X14996428Y-13718536D01*
X15003571Y-13704250D01*
X15017857Y-13697107D01*
X15039286Y-13697107D01*
X15053571Y-13704250D01*
X15225000Y-13697107D02*
X15260714Y-13797107D01*
X15296428Y-13697107D01*
X15346428Y-13661393D02*
X15353571Y-13654250D01*
X15367857Y-13647107D01*
X15403571Y-13647107D01*
X15417857Y-13654250D01*
X15425000Y-13661393D01*
X15432143Y-13675678D01*
X15432143Y-13689964D01*
X15425000Y-13711393D01*
X15339286Y-13797107D01*
X15432143Y-13797107D01*
X13539286Y-13960036D02*
X13560714Y-13967178D01*
X13567857Y-13974321D01*
X13575000Y-13988607D01*
X13575000Y-14010036D01*
X13567857Y-14024321D01*
X13560714Y-14031464D01*
X13546428Y-14038607D01*
X13489286Y-14038607D01*
X13489286Y-13888607D01*
X13539286Y-13888607D01*
X13553571Y-13895750D01*
X13560714Y-13902893D01*
X13567857Y-13917178D01*
X13567857Y-13931464D01*
X13560714Y-13945750D01*
X13553571Y-13952893D01*
X13539286Y-13960036D01*
X13489286Y-13960036D01*
X13625000Y-13938607D02*
X13660714Y-14038607D01*
X13696428Y-13938607D02*
X13660714Y-14038607D01*
X13646428Y-14074321D01*
X13639286Y-14081464D01*
X13625000Y-14088607D01*
X13860714Y-14031464D02*
X13882143Y-14038607D01*
X13917857Y-14038607D01*
X13932143Y-14031464D01*
X13939286Y-14024321D01*
X13946428Y-14010036D01*
X13946428Y-13995750D01*
X13939286Y-13981464D01*
X13932143Y-13974321D01*
X13917857Y-13967178D01*
X13889286Y-13960036D01*
X13875000Y-13952893D01*
X13867857Y-13945750D01*
X13860714Y-13931464D01*
X13860714Y-13917178D01*
X13867857Y-13902893D01*
X13875000Y-13895750D01*
X13889286Y-13888607D01*
X13925000Y-13888607D01*
X13946428Y-13895750D01*
X14075000Y-14031464D02*
X14060714Y-14038607D01*
X14032143Y-14038607D01*
X14017857Y-14031464D01*
X14010714Y-14024321D01*
X14003571Y-14010036D01*
X14003571Y-13967178D01*
X14010714Y-13952893D01*
X14017857Y-13945750D01*
X14032143Y-13938607D01*
X14060714Y-13938607D01*
X14075000Y-13945750D01*
X14160714Y-14038607D02*
X14146428Y-14031464D01*
X14139286Y-14024321D01*
X14132143Y-14010036D01*
X14132143Y-13967178D01*
X14139286Y-13952893D01*
X14146428Y-13945750D01*
X14160714Y-13938607D01*
X14182143Y-13938607D01*
X14196428Y-13945750D01*
X14203571Y-13952893D01*
X14210714Y-13967178D01*
X14210714Y-14010036D01*
X14203571Y-14024321D01*
X14196428Y-14031464D01*
X14182143Y-14038607D01*
X14160714Y-14038607D01*
X14253571Y-13938607D02*
X14310714Y-13938607D01*
X14275000Y-13888607D02*
X14275000Y-14017178D01*
X14282143Y-14031464D01*
X14296428Y-14038607D01*
X14310714Y-14038607D01*
X14339286Y-13938607D02*
X14396428Y-13938607D01*
X14360714Y-13888607D02*
X14360714Y-14017178D01*
X14367857Y-14031464D01*
X14382143Y-14038607D01*
X14396428Y-14038607D01*
X14560714Y-14038607D02*
X14560714Y-13888607D01*
X14560714Y-13960036D02*
X14646428Y-13960036D01*
X14646428Y-14038607D02*
X14646428Y-13888607D01*
X14782143Y-14038607D02*
X14782143Y-13960036D01*
X14775000Y-13945750D01*
X14760714Y-13938607D01*
X14732143Y-13938607D01*
X14717857Y-13945750D01*
X14782143Y-14031464D02*
X14767857Y-14038607D01*
X14732143Y-14038607D01*
X14717857Y-14031464D01*
X14710714Y-14017178D01*
X14710714Y-14002893D01*
X14717857Y-13988607D01*
X14732143Y-13981464D01*
X14767857Y-13981464D01*
X14782143Y-13974321D01*
X14853571Y-13938607D02*
X14853571Y-14038607D01*
X14853571Y-13952893D02*
X14860714Y-13945750D01*
X14875000Y-13938607D01*
X14896428Y-13938607D01*
X14910714Y-13945750D01*
X14917857Y-13960036D01*
X14917857Y-14038607D01*
X14982143Y-14031464D02*
X14996428Y-14038607D01*
X15025000Y-14038607D01*
X15039286Y-14031464D01*
X15046428Y-14017178D01*
X15046428Y-14010036D01*
X15039286Y-13995750D01*
X15025000Y-13988607D01*
X15003571Y-13988607D01*
X14989286Y-13981464D01*
X14982143Y-13967178D01*
X14982143Y-13960036D01*
X14989286Y-13945750D01*
X15003571Y-13938607D01*
X15025000Y-13938607D01*
X15039286Y-13945750D01*
X15132143Y-14038607D02*
X15117857Y-14031464D01*
X15110714Y-14024321D01*
X15103571Y-14010036D01*
X15103571Y-13967178D01*
X15110714Y-13952893D01*
X15117857Y-13945750D01*
X15132143Y-13938607D01*
X15153571Y-13938607D01*
X15167857Y-13945750D01*
X15175000Y-13952893D01*
X15182143Y-13967178D01*
X15182143Y-14010036D01*
X15175000Y-14024321D01*
X15167857Y-14031464D01*
X15153571Y-14038607D01*
X15132143Y-14038607D01*
X15246428Y-13938607D02*
X15246428Y-14038607D01*
X15246428Y-13952893D02*
X15253571Y-13945750D01*
X15267857Y-13938607D01*
X15289286Y-13938607D01*
X15303571Y-13945750D01*
X15310714Y-13960036D01*
X15310714Y-14038607D01*
D11*
X17873810Y-12150000D02*
X17864286Y-12145238D01*
X17850000Y-12145238D01*
X17835714Y-12150000D01*
X17826190Y-12159524D01*
X17821429Y-12169048D01*
X17816667Y-12188095D01*
X17816667Y-12202381D01*
X17821429Y-12221428D01*
X17826190Y-12230952D01*
X17835714Y-12240476D01*
X17850000Y-12245238D01*
X17859524Y-12245238D01*
X17873810Y-12240476D01*
X17878571Y-12235714D01*
X17878571Y-12202381D01*
X17859524Y-12202381D01*
X17921429Y-12245238D02*
X17921429Y-12145238D01*
X17978571Y-12245238D01*
X17978571Y-12145238D01*
X18026190Y-12245238D02*
X18026190Y-12145238D01*
X18050000Y-12145238D01*
X18064286Y-12150000D01*
X18073810Y-12159524D01*
X18078571Y-12169048D01*
X18083333Y-12188095D01*
X18083333Y-12202381D01*
X18078571Y-12221428D01*
X18073810Y-12230952D01*
X18064286Y-12240476D01*
X18050000Y-12245238D01*
X18026190Y-12245238D01*
X12816667Y-7295238D02*
X12816667Y-7366667D01*
X12811905Y-7380952D01*
X12802381Y-7390476D01*
X12788095Y-7395238D01*
X12778571Y-7395238D01*
X12854762Y-7295238D02*
X12916667Y-7295238D01*
X12883333Y-7333333D01*
X12897619Y-7333333D01*
X12907143Y-7338095D01*
X12911905Y-7342857D01*
X12916667Y-7352381D01*
X12916667Y-7376190D01*
X12911905Y-7385714D01*
X12907143Y-7390476D01*
X12897619Y-7395238D01*
X12869048Y-7395238D01*
X12859524Y-7390476D01*
X12854762Y-7385714D01*
X12166667Y-7145238D02*
X12133333Y-7097619D01*
X12109524Y-7145238D02*
X12109524Y-7045238D01*
X12147619Y-7045238D01*
X12157143Y-7050000D01*
X12161905Y-7054762D01*
X12166667Y-7064286D01*
X12166667Y-7078571D01*
X12161905Y-7088095D01*
X12157143Y-7092857D01*
X12147619Y-7097619D01*
X12109524Y-7097619D01*
X12252381Y-7145238D02*
X12252381Y-7092857D01*
X12247619Y-7083333D01*
X12238095Y-7078571D01*
X12219048Y-7078571D01*
X12209524Y-7083333D01*
X12252381Y-7140476D02*
X12242857Y-7145238D01*
X12219048Y-7145238D01*
X12209524Y-7140476D01*
X12204762Y-7130952D01*
X12204762Y-7121428D01*
X12209524Y-7111905D01*
X12219048Y-7107143D01*
X12242857Y-7107143D01*
X12252381Y-7102381D01*
X12300000Y-7145238D02*
X12300000Y-7078571D01*
X12300000Y-7045238D02*
X12295238Y-7050000D01*
X12300000Y-7054762D01*
X12304762Y-7050000D01*
X12300000Y-7045238D01*
X12300000Y-7054762D01*
X12347619Y-7078571D02*
X12347619Y-7145238D01*
X12347619Y-7088095D02*
X12352381Y-7083333D01*
X12361905Y-7078571D01*
X12376190Y-7078571D01*
X12385714Y-7083333D01*
X12390476Y-7092857D01*
X12390476Y-7145238D01*
X12504762Y-7045238D02*
X12566667Y-7045238D01*
X12533333Y-7083333D01*
X12547619Y-7083333D01*
X12557143Y-7088095D01*
X12561905Y-7092857D01*
X12566667Y-7102381D01*
X12566667Y-7126190D01*
X12561905Y-7135714D01*
X12557143Y-7140476D01*
X12547619Y-7145238D01*
X12519048Y-7145238D01*
X12509524Y-7140476D01*
X12504762Y-7135714D01*
X12680952Y-7116667D02*
X12728571Y-7116667D01*
X12671428Y-7145238D02*
X12704762Y-7045238D01*
X12738095Y-7145238D01*
X12814286Y-7145238D02*
X12814286Y-7045238D01*
X12814286Y-7140476D02*
X12804762Y-7145238D01*
X12785714Y-7145238D01*
X12776190Y-7140476D01*
X12771428Y-7135714D01*
X12766667Y-7126190D01*
X12766667Y-7097619D01*
X12771428Y-7088095D01*
X12776190Y-7083333D01*
X12785714Y-7078571D01*
X12804762Y-7078571D01*
X12814286Y-7083333D01*
X12852381Y-7078571D02*
X12876190Y-7145238D01*
X12900000Y-7078571D01*
X13883333Y-10095238D02*
X13850000Y-10047619D01*
X13826190Y-10095238D02*
X13826190Y-9995238D01*
X13864286Y-9995238D01*
X13873809Y-10000000D01*
X13878571Y-10004762D01*
X13883333Y-10014286D01*
X13883333Y-10028571D01*
X13878571Y-10038095D01*
X13873809Y-10042857D01*
X13864286Y-10047619D01*
X13826190Y-10047619D01*
X13978571Y-10095238D02*
X13921428Y-10095238D01*
X13950000Y-10095238D02*
X13950000Y-9995238D01*
X13940476Y-10009524D01*
X13930952Y-10019048D01*
X13921428Y-10023810D01*
X13830952Y-10245238D02*
X13773809Y-10245238D01*
X13802381Y-10245238D02*
X13802381Y-10145238D01*
X13792857Y-10159524D01*
X13783333Y-10169048D01*
X13773809Y-10173810D01*
X13892857Y-10145238D02*
X13902381Y-10145238D01*
X13911905Y-10150000D01*
X13916667Y-10154762D01*
X13921428Y-10164286D01*
X13926190Y-10183333D01*
X13926190Y-10207143D01*
X13921428Y-10226190D01*
X13916667Y-10235714D01*
X13911905Y-10240476D01*
X13902381Y-10245238D01*
X13892857Y-10245238D01*
X13883333Y-10240476D01*
X13878571Y-10235714D01*
X13873809Y-10226190D01*
X13869048Y-10207143D01*
X13869048Y-10183333D01*
X13873809Y-10164286D01*
X13878571Y-10154762D01*
X13883333Y-10150000D01*
X13892857Y-10145238D01*
X13969048Y-10245238D02*
X13969048Y-10145238D01*
X14026190Y-10245238D02*
X13983333Y-10188095D01*
X14026190Y-10145238D02*
X13969048Y-10202381D01*
X12823809Y-9295238D02*
X12823809Y-9376190D01*
X12828571Y-9385714D01*
X12833333Y-9390476D01*
X12842857Y-9395238D01*
X12861905Y-9395238D01*
X12871428Y-9390476D01*
X12876190Y-9385714D01*
X12880952Y-9376190D01*
X12880952Y-9295238D01*
X12980952Y-9395238D02*
X12923809Y-9395238D01*
X12952381Y-9395238D02*
X12952381Y-9295238D01*
X12942857Y-9309524D01*
X12933333Y-9319048D01*
X12923809Y-9323810D01*
X12938095Y-11345238D02*
X12961905Y-11445238D01*
X12980952Y-11373809D01*
X13000000Y-11445238D01*
X13023809Y-11345238D01*
X13100000Y-11440476D02*
X13090476Y-11445238D01*
X13071428Y-11445238D01*
X13061905Y-11440476D01*
X13057143Y-11430952D01*
X13057143Y-11392857D01*
X13061905Y-11383333D01*
X13071428Y-11378571D01*
X13090476Y-11378571D01*
X13100000Y-11383333D01*
X13104762Y-11392857D01*
X13104762Y-11402381D01*
X13057143Y-11411905D01*
X13147619Y-11445238D02*
X13147619Y-11345238D01*
X13180952Y-11416667D01*
X13214286Y-11345238D01*
X13214286Y-11445238D01*
X13276190Y-11445238D02*
X13266667Y-11440476D01*
X13261905Y-11435714D01*
X13257143Y-11426190D01*
X13257143Y-11397619D01*
X13261905Y-11388095D01*
X13266667Y-11383333D01*
X13276190Y-11378571D01*
X13290476Y-11378571D01*
X13300000Y-11383333D01*
X13304762Y-11388095D01*
X13309524Y-11397619D01*
X13309524Y-11426190D01*
X13304762Y-11435714D01*
X13300000Y-11440476D01*
X13290476Y-11445238D01*
X13276190Y-11445238D01*
X13347619Y-11440476D02*
X13357143Y-11445238D01*
X13376190Y-11445238D01*
X13385714Y-11440476D01*
X13390476Y-11430952D01*
X13390476Y-11426190D01*
X13385714Y-11416667D01*
X13376190Y-11411905D01*
X13361905Y-11411905D01*
X13352381Y-11407143D01*
X13347619Y-11397619D01*
X13347619Y-11392857D01*
X13352381Y-11383333D01*
X13361905Y-11378571D01*
X13376190Y-11378571D01*
X13385714Y-11383333D01*
X13409524Y-11454762D02*
X13485714Y-11454762D01*
X13509524Y-11445238D02*
X13509524Y-11345238D01*
X13533333Y-11345238D01*
X13547619Y-11350000D01*
X13557143Y-11359524D01*
X13561905Y-11369048D01*
X13566667Y-11388095D01*
X13566667Y-11402381D01*
X13561905Y-11421428D01*
X13557143Y-11430952D01*
X13547619Y-11440476D01*
X13533333Y-11445238D01*
X13509524Y-11445238D01*
X13661905Y-11445238D02*
X13604762Y-11445238D01*
X13633333Y-11445238D02*
X13633333Y-11345238D01*
X13623809Y-11359524D01*
X13614286Y-11369048D01*
X13604762Y-11373809D01*
X13680952Y-11454762D02*
X13757143Y-11454762D01*
X13780952Y-11445238D02*
X13780952Y-11378571D01*
X13780952Y-11388095D02*
X13785714Y-11383333D01*
X13795238Y-11378571D01*
X13809524Y-11378571D01*
X13819048Y-11383333D01*
X13823809Y-11392857D01*
X13823809Y-11445238D01*
X13823809Y-11392857D02*
X13828571Y-11383333D01*
X13838095Y-11378571D01*
X13852381Y-11378571D01*
X13861905Y-11383333D01*
X13866667Y-11392857D01*
X13866667Y-11445238D01*
X13914286Y-11445238D02*
X13914286Y-11378571D01*
X13914286Y-11345238D02*
X13909524Y-11350000D01*
X13914286Y-11354762D01*
X13919048Y-11350000D01*
X13914286Y-11345238D01*
X13914286Y-11354762D01*
X13961905Y-11378571D02*
X13961905Y-11445238D01*
X13961905Y-11388095D02*
X13966667Y-11383333D01*
X13976190Y-11378571D01*
X13990476Y-11378571D01*
X14000000Y-11383333D01*
X14004762Y-11392857D01*
X14004762Y-11445238D01*
X14052381Y-11445238D02*
X14052381Y-11378571D01*
X14052381Y-11345238D02*
X14047619Y-11350000D01*
X14052381Y-11354762D01*
X14057143Y-11350000D01*
X14052381Y-11345238D01*
X14052381Y-11354762D01*
X17081667Y-11776137D02*
X17081667Y-11847565D01*
X17076905Y-11861851D01*
X17067381Y-11871375D01*
X17053095Y-11876137D01*
X17043571Y-11876137D01*
X17181667Y-11876137D02*
X17124524Y-11876137D01*
X17153095Y-11876137D02*
X17153095Y-11776137D01*
X17143571Y-11790423D01*
X17134048Y-11799946D01*
X17124524Y-11804708D01*
X16773333Y-13086137D02*
X16773333Y-12986137D01*
X16811429Y-12986137D01*
X16820952Y-12990899D01*
X16825714Y-12995661D01*
X16830476Y-13005184D01*
X16830476Y-13019470D01*
X16825714Y-13028994D01*
X16820952Y-13033756D01*
X16811429Y-13038518D01*
X16773333Y-13038518D01*
X16863810Y-13019470D02*
X16882857Y-13086137D01*
X16901905Y-13038518D01*
X16920952Y-13086137D01*
X16940000Y-13019470D01*
X16978095Y-13086137D02*
X16978095Y-13019470D01*
X16978095Y-13038518D02*
X16982857Y-13028994D01*
X16987619Y-13024232D01*
X16997143Y-13019470D01*
X17006667Y-13019470D01*
X17116190Y-13086137D02*
X17116190Y-12986137D01*
X17163810Y-13019470D02*
X17163810Y-13086137D01*
X17163810Y-13028994D02*
X17168571Y-13024232D01*
X17178095Y-13019470D01*
X17192381Y-13019470D01*
X17201905Y-13024232D01*
X17206667Y-13033756D01*
X17206667Y-13086137D01*
X14483333Y-12535714D02*
X14478571Y-12540476D01*
X14464286Y-12545238D01*
X14454762Y-12545238D01*
X14440476Y-12540476D01*
X14430952Y-12530952D01*
X14426190Y-12521428D01*
X14421428Y-12502381D01*
X14421428Y-12488095D01*
X14426190Y-12469048D01*
X14430952Y-12459524D01*
X14440476Y-12450000D01*
X14454762Y-12445238D01*
X14464286Y-12445238D01*
X14478571Y-12450000D01*
X14483333Y-12454762D01*
X14578571Y-12545238D02*
X14521428Y-12545238D01*
X14550000Y-12545238D02*
X14550000Y-12445238D01*
X14540476Y-12459524D01*
X14530952Y-12469048D01*
X14521428Y-12473809D01*
X14340238Y-13310238D02*
X14283095Y-13310238D01*
X14311667Y-13310238D02*
X14311667Y-13210238D01*
X14302143Y-13224524D01*
X14292619Y-13234048D01*
X14283095Y-13238809D01*
X14402143Y-13210238D02*
X14411667Y-13210238D01*
X14421190Y-13215000D01*
X14425952Y-13219762D01*
X14430714Y-13229286D01*
X14435476Y-13248333D01*
X14435476Y-13272143D01*
X14430714Y-13291190D01*
X14425952Y-13300714D01*
X14421190Y-13305476D01*
X14411667Y-13310238D01*
X14402143Y-13310238D01*
X14392619Y-13305476D01*
X14387857Y-13300714D01*
X14383095Y-13291190D01*
X14378333Y-13272143D01*
X14378333Y-13248333D01*
X14383095Y-13229286D01*
X14387857Y-13219762D01*
X14392619Y-13215000D01*
X14402143Y-13210238D01*
X14497381Y-13210238D02*
X14506905Y-13210238D01*
X14516428Y-13215000D01*
X14521190Y-13219762D01*
X14525952Y-13229286D01*
X14530714Y-13248333D01*
X14530714Y-13272143D01*
X14525952Y-13291190D01*
X14521190Y-13300714D01*
X14516428Y-13305476D01*
X14506905Y-13310238D01*
X14497381Y-13310238D01*
X14487857Y-13305476D01*
X14483095Y-13300714D01*
X14478333Y-13291190D01*
X14473571Y-13272143D01*
X14473571Y-13248333D01*
X14478333Y-13229286D01*
X14483095Y-13219762D01*
X14487857Y-13215000D01*
X14497381Y-13210238D01*
X14616428Y-13243571D02*
X14616428Y-13310238D01*
X14573571Y-13243571D02*
X14573571Y-13295952D01*
X14578333Y-13305476D01*
X14587857Y-13310238D01*
X14602143Y-13310238D01*
X14611667Y-13305476D01*
X14616428Y-13300714D01*
X14697381Y-13257857D02*
X14664048Y-13257857D01*
X14664048Y-13310238D02*
X14664048Y-13210238D01*
X14711667Y-13210238D01*
X13883333Y-12085714D02*
X13878571Y-12090476D01*
X13864286Y-12095238D01*
X13854762Y-12095238D01*
X13840476Y-12090476D01*
X13830952Y-12080952D01*
X13826190Y-12071428D01*
X13821428Y-12052381D01*
X13821428Y-12038095D01*
X13826190Y-12019048D01*
X13830952Y-12009524D01*
X13840476Y-12000000D01*
X13854762Y-11995238D01*
X13864286Y-11995238D01*
X13878571Y-12000000D01*
X13883333Y-12004762D01*
X13921428Y-12004762D02*
X13926190Y-12000000D01*
X13935714Y-11995238D01*
X13959524Y-11995238D01*
X13969048Y-12000000D01*
X13973809Y-12004762D01*
X13978571Y-12014286D01*
X13978571Y-12023809D01*
X13973809Y-12038095D01*
X13916667Y-12095238D01*
X13978571Y-12095238D01*
X13742857Y-12795238D02*
X13685714Y-12795238D01*
X13714286Y-12795238D02*
X13714286Y-12695238D01*
X13704762Y-12709524D01*
X13695238Y-12719048D01*
X13685714Y-12723809D01*
X13804762Y-12695238D02*
X13814286Y-12695238D01*
X13823809Y-12700000D01*
X13828571Y-12704762D01*
X13833333Y-12714286D01*
X13838095Y-12733333D01*
X13838095Y-12757143D01*
X13833333Y-12776190D01*
X13828571Y-12785714D01*
X13823809Y-12790476D01*
X13814286Y-12795238D01*
X13804762Y-12795238D01*
X13795238Y-12790476D01*
X13790476Y-12785714D01*
X13785714Y-12776190D01*
X13780952Y-12757143D01*
X13780952Y-12733333D01*
X13785714Y-12714286D01*
X13790476Y-12704762D01*
X13795238Y-12700000D01*
X13804762Y-12695238D01*
X13923809Y-12728571D02*
X13923809Y-12795238D01*
X13880952Y-12728571D02*
X13880952Y-12780952D01*
X13885714Y-12790476D01*
X13895238Y-12795238D01*
X13909524Y-12795238D01*
X13919048Y-12790476D01*
X13923809Y-12785714D01*
X14004762Y-12742857D02*
X13971428Y-12742857D01*
X13971428Y-12795238D02*
X13971428Y-12695238D01*
X14019048Y-12695238D01*
X14626190Y-12145238D02*
X14626190Y-12045238D01*
X14650000Y-12045238D01*
X14664286Y-12050000D01*
X14673809Y-12059524D01*
X14678571Y-12069048D01*
X14683333Y-12088095D01*
X14683333Y-12102381D01*
X14678571Y-12121428D01*
X14673809Y-12130952D01*
X14664286Y-12140476D01*
X14650000Y-12145238D01*
X14626190Y-12145238D01*
X14778571Y-12145238D02*
X14721428Y-12145238D01*
X14750000Y-12145238D02*
X14750000Y-12045238D01*
X14740476Y-12059524D01*
X14730952Y-12069048D01*
X14721428Y-12073809D01*
X14635714Y-12295238D02*
X14588095Y-12295238D01*
X14588095Y-12195238D01*
X14669048Y-12242857D02*
X14702381Y-12242857D01*
X14716667Y-12295238D02*
X14669048Y-12295238D01*
X14669048Y-12195238D01*
X14716667Y-12195238D01*
X14759524Y-12295238D02*
X14759524Y-12195238D01*
X14783333Y-12195238D01*
X14797619Y-12200000D01*
X14807143Y-12209524D01*
X14811905Y-12219048D01*
X14816667Y-12238095D01*
X14816667Y-12252381D01*
X14811905Y-12271428D01*
X14807143Y-12280952D01*
X14797619Y-12290476D01*
X14783333Y-12295238D01*
X14759524Y-12295238D01*
X17733667Y-9061238D02*
X17733667Y-9132667D01*
X17728905Y-9146952D01*
X17719381Y-9156476D01*
X17705095Y-9161238D01*
X17695571Y-9161238D01*
X17824143Y-9094571D02*
X17824143Y-9161238D01*
X17800333Y-9056476D02*
X17776524Y-9127905D01*
X17838429Y-9127905D01*
X17076952Y-7015238D02*
X17100762Y-7115238D01*
X17119810Y-7043809D01*
X17138857Y-7115238D01*
X17162667Y-7015238D01*
X17200762Y-7115238D02*
X17200762Y-7015238D01*
X17248381Y-7115238D02*
X17248381Y-7015238D01*
X17305524Y-7115238D01*
X17305524Y-7015238D01*
X17353143Y-7115238D02*
X17353143Y-7015238D01*
X17376952Y-7015238D01*
X17391238Y-7020000D01*
X17400762Y-7029524D01*
X17405524Y-7039048D01*
X17410286Y-7058095D01*
X17410286Y-7072381D01*
X17405524Y-7091428D01*
X17400762Y-7100952D01*
X17391238Y-7110476D01*
X17376952Y-7115238D01*
X17353143Y-7115238D01*
X16133667Y-9061238D02*
X16133667Y-9132667D01*
X16128905Y-9146952D01*
X16119381Y-9156476D01*
X16105095Y-9161238D01*
X16095571Y-9161238D01*
X16228905Y-9061238D02*
X16181286Y-9061238D01*
X16176524Y-9108857D01*
X16181286Y-9104095D01*
X16190809Y-9099333D01*
X16214619Y-9099333D01*
X16224143Y-9104095D01*
X16228905Y-9108857D01*
X16233667Y-9118381D01*
X16233667Y-9142190D01*
X16228905Y-9151714D01*
X16224143Y-9156476D01*
X16214619Y-9161238D01*
X16190809Y-9161238D01*
X16181286Y-9156476D01*
X16176524Y-9151714D01*
X15472190Y-7115238D02*
X15438857Y-7067619D01*
X15415048Y-7115238D02*
X15415048Y-7015238D01*
X15453143Y-7015238D01*
X15462667Y-7020000D01*
X15467428Y-7024762D01*
X15472190Y-7034286D01*
X15472190Y-7048571D01*
X15467428Y-7058095D01*
X15462667Y-7062857D01*
X15453143Y-7067619D01*
X15415048Y-7067619D01*
X15510286Y-7086667D02*
X15557905Y-7086667D01*
X15500762Y-7115238D02*
X15534095Y-7015238D01*
X15567428Y-7115238D01*
X15600762Y-7115238D02*
X15600762Y-7015238D01*
X15648381Y-7115238D02*
X15648381Y-7015238D01*
X15705524Y-7115238D01*
X15705524Y-7015238D01*
X15881714Y-7115238D02*
X15824571Y-7115238D01*
X15853143Y-7115238D02*
X15853143Y-7015238D01*
X15843619Y-7029524D01*
X15834095Y-7039048D01*
X15824571Y-7043809D01*
X13922167Y-9045238D02*
X13922167Y-9116667D01*
X13917405Y-9130952D01*
X13907881Y-9140476D01*
X13893595Y-9145238D01*
X13884071Y-9145238D01*
X14012643Y-9045238D02*
X13993595Y-9045238D01*
X13984071Y-9050000D01*
X13979309Y-9054762D01*
X13969786Y-9069048D01*
X13965024Y-9088095D01*
X13965024Y-9126190D01*
X13969786Y-9135714D01*
X13974548Y-9140476D01*
X13984071Y-9145238D01*
X14003119Y-9145238D01*
X14012643Y-9140476D01*
X14017405Y-9135714D01*
X14022167Y-9126190D01*
X14022167Y-9102381D01*
X14017405Y-9092857D01*
X14012643Y-9088095D01*
X14003119Y-9083333D01*
X13984071Y-9083333D01*
X13974548Y-9088095D01*
X13969786Y-9092857D01*
X13965024Y-9102381D01*
X13576190Y-7045238D02*
X13542857Y-6997619D01*
X13519048Y-7045238D02*
X13519048Y-6945238D01*
X13557143Y-6945238D01*
X13566667Y-6950000D01*
X13571428Y-6954762D01*
X13576190Y-6964286D01*
X13576190Y-6978571D01*
X13571428Y-6988095D01*
X13566667Y-6992857D01*
X13557143Y-6997619D01*
X13519048Y-6997619D01*
X13661905Y-7045238D02*
X13661905Y-6992857D01*
X13657143Y-6983333D01*
X13647619Y-6978571D01*
X13628571Y-6978571D01*
X13619048Y-6983333D01*
X13661905Y-7040476D02*
X13652381Y-7045238D01*
X13628571Y-7045238D01*
X13619048Y-7040476D01*
X13614286Y-7030952D01*
X13614286Y-7021428D01*
X13619048Y-7011905D01*
X13628571Y-7007143D01*
X13652381Y-7007143D01*
X13661905Y-7002381D01*
X13709524Y-7045238D02*
X13709524Y-6978571D01*
X13709524Y-6945238D02*
X13704762Y-6950000D01*
X13709524Y-6954762D01*
X13714286Y-6950000D01*
X13709524Y-6945238D01*
X13709524Y-6954762D01*
X13757143Y-6978571D02*
X13757143Y-7045238D01*
X13757143Y-6988095D02*
X13761905Y-6983333D01*
X13771428Y-6978571D01*
X13785714Y-6978571D01*
X13795238Y-6983333D01*
X13800000Y-6992857D01*
X13800000Y-7045238D01*
X13919048Y-6954762D02*
X13923809Y-6950000D01*
X13933333Y-6945238D01*
X13957143Y-6945238D01*
X13966667Y-6950000D01*
X13971428Y-6954762D01*
X13976190Y-6964286D01*
X13976190Y-6973809D01*
X13971428Y-6988095D01*
X13914286Y-7045238D01*
X13976190Y-7045238D01*
X14090476Y-7040476D02*
X14104762Y-7045238D01*
X14128571Y-7045238D01*
X14138095Y-7040476D01*
X14142857Y-7035714D01*
X14147619Y-7026190D01*
X14147619Y-7016667D01*
X14142857Y-7007143D01*
X14138095Y-7002381D01*
X14128571Y-6997619D01*
X14109524Y-6992857D01*
X14100000Y-6988095D01*
X14095238Y-6983333D01*
X14090476Y-6973809D01*
X14090476Y-6964286D01*
X14095238Y-6954762D01*
X14100000Y-6950000D01*
X14109524Y-6945238D01*
X14133333Y-6945238D01*
X14147619Y-6950000D01*
X14228571Y-7040476D02*
X14219048Y-7045238D01*
X14200000Y-7045238D01*
X14190476Y-7040476D01*
X14185714Y-7030952D01*
X14185714Y-6992857D01*
X14190476Y-6983333D01*
X14200000Y-6978571D01*
X14219048Y-6978571D01*
X14228571Y-6983333D01*
X14233333Y-6992857D01*
X14233333Y-7002381D01*
X14185714Y-7011905D01*
X14276190Y-7045238D02*
X14276190Y-6978571D01*
X14276190Y-6997619D02*
X14280952Y-6988095D01*
X14285714Y-6983333D01*
X14295238Y-6978571D01*
X14304762Y-6978571D01*
X14338095Y-7045238D02*
X14338095Y-6978571D01*
X14338095Y-6945238D02*
X14333333Y-6950000D01*
X14338095Y-6954762D01*
X14342857Y-6950000D01*
X14338095Y-6945238D01*
X14338095Y-6954762D01*
X14428571Y-7045238D02*
X14428571Y-6992857D01*
X14423809Y-6983333D01*
X14414286Y-6978571D01*
X14395238Y-6978571D01*
X14385714Y-6983333D01*
X14428571Y-7040476D02*
X14419048Y-7045238D01*
X14395238Y-7045238D01*
X14385714Y-7040476D01*
X14380952Y-7030952D01*
X14380952Y-7021428D01*
X14385714Y-7011905D01*
X14395238Y-7007143D01*
X14419048Y-7007143D01*
X14428571Y-7002381D01*
X14490476Y-7045238D02*
X14480952Y-7040476D01*
X14476190Y-7030952D01*
X14476190Y-6945238D01*
X15833333Y-12495238D02*
X15800000Y-12447619D01*
X15776190Y-12495238D02*
X15776190Y-12395238D01*
X15814286Y-12395238D01*
X15823809Y-12400000D01*
X15828571Y-12404762D01*
X15833333Y-12414286D01*
X15833333Y-12428571D01*
X15828571Y-12438095D01*
X15823809Y-12442857D01*
X15814286Y-12447619D01*
X15776190Y-12447619D01*
X15871428Y-12404762D02*
X15876190Y-12400000D01*
X15885714Y-12395238D01*
X15909524Y-12395238D01*
X15919048Y-12400000D01*
X15923809Y-12404762D01*
X15928571Y-12414286D01*
X15928571Y-12423809D01*
X15923809Y-12438095D01*
X15866667Y-12495238D01*
X15928571Y-12495238D01*
X16071428Y-12395238D02*
X16133333Y-12395238D01*
X16100000Y-12433333D01*
X16114286Y-12433333D01*
X16123809Y-12438095D01*
X16128571Y-12442857D01*
X16133333Y-12452381D01*
X16133333Y-12476190D01*
X16128571Y-12485714D01*
X16123809Y-12490476D01*
X16114286Y-12495238D01*
X16085714Y-12495238D01*
X16076190Y-12490476D01*
X16071428Y-12485714D01*
X16166667Y-12395238D02*
X16228571Y-12395238D01*
X16195238Y-12433333D01*
X16209524Y-12433333D01*
X16219048Y-12438095D01*
X16223809Y-12442857D01*
X16228571Y-12452381D01*
X16228571Y-12476190D01*
X16223809Y-12485714D01*
X16219048Y-12490476D01*
X16209524Y-12495238D01*
X16180952Y-12495238D01*
X16171428Y-12490476D01*
X16166667Y-12485714D01*
X16290476Y-12395238D02*
X16300000Y-12395238D01*
X16309524Y-12400000D01*
X16314286Y-12404762D01*
X16319048Y-12414286D01*
X16323809Y-12433333D01*
X16323809Y-12457143D01*
X16319048Y-12476190D01*
X16314286Y-12485714D01*
X16309524Y-12490476D01*
X16300000Y-12495238D01*
X16290476Y-12495238D01*
X16280952Y-12490476D01*
X16276190Y-12485714D01*
X16271428Y-12476190D01*
X16266667Y-12457143D01*
X16266667Y-12433333D01*
X16271428Y-12414286D01*
X16276190Y-12404762D01*
X16280952Y-12400000D01*
X16290476Y-12395238D01*
X15669809Y-13072238D02*
X15669809Y-13153190D01*
X15674571Y-13162714D01*
X15679333Y-13167476D01*
X15688857Y-13172238D01*
X15707905Y-13172238D01*
X15717428Y-13167476D01*
X15722190Y-13162714D01*
X15726952Y-13153190D01*
X15726952Y-13072238D01*
X15769809Y-13081762D02*
X15774571Y-13077000D01*
X15784095Y-13072238D01*
X15807905Y-13072238D01*
X15817428Y-13077000D01*
X15822190Y-13081762D01*
X15826952Y-13091286D01*
X15826952Y-13100809D01*
X15822190Y-13115095D01*
X15765048Y-13172238D01*
X15826952Y-13172238D01*
X15586476Y-13295238D02*
X15538857Y-13295238D01*
X15538857Y-13195238D01*
X15610286Y-13195238D02*
X15676952Y-13195238D01*
X15634095Y-13295238D01*
X15729333Y-13238095D02*
X15719809Y-13233333D01*
X15715048Y-13228571D01*
X15710286Y-13219048D01*
X15710286Y-13214286D01*
X15715048Y-13204762D01*
X15719809Y-13200000D01*
X15729333Y-13195238D01*
X15748381Y-13195238D01*
X15757905Y-13200000D01*
X15762667Y-13204762D01*
X15767428Y-13214286D01*
X15767428Y-13219048D01*
X15762667Y-13228571D01*
X15757905Y-13233333D01*
X15748381Y-13238095D01*
X15729333Y-13238095D01*
X15719809Y-13242857D01*
X15715048Y-13247619D01*
X15710286Y-13257143D01*
X15710286Y-13276190D01*
X15715048Y-13285714D01*
X15719809Y-13290476D01*
X15729333Y-13295238D01*
X15748381Y-13295238D01*
X15757905Y-13290476D01*
X15762667Y-13285714D01*
X15767428Y-13276190D01*
X15767428Y-13257143D01*
X15762667Y-13247619D01*
X15757905Y-13242857D01*
X15748381Y-13238095D01*
X15829333Y-13195238D02*
X15838857Y-13195238D01*
X15848381Y-13200000D01*
X15853143Y-13204762D01*
X15857905Y-13214286D01*
X15862667Y-13233333D01*
X15862667Y-13257143D01*
X15857905Y-13276190D01*
X15853143Y-13285714D01*
X15848381Y-13290476D01*
X15838857Y-13295238D01*
X15829333Y-13295238D01*
X15819809Y-13290476D01*
X15815048Y-13285714D01*
X15810286Y-13276190D01*
X15805524Y-13257143D01*
X15805524Y-13233333D01*
X15810286Y-13214286D01*
X15815048Y-13204762D01*
X15819809Y-13200000D01*
X15829333Y-13195238D01*
X15953143Y-13195238D02*
X15905524Y-13195238D01*
X15900762Y-13242857D01*
X15905524Y-13238095D01*
X15915048Y-13233333D01*
X15938857Y-13233333D01*
X15948381Y-13238095D01*
X15953143Y-13242857D01*
X15957905Y-13252381D01*
X15957905Y-13276190D01*
X15953143Y-13285714D01*
X15948381Y-13290476D01*
X15938857Y-13295238D01*
X15915048Y-13295238D01*
X15905524Y-13290476D01*
X15900762Y-13285714D01*
X12421667Y-13220238D02*
X12421667Y-13291667D01*
X12416905Y-13305952D01*
X12407381Y-13315476D01*
X12393095Y-13320238D01*
X12383571Y-13320238D01*
X12464524Y-13229762D02*
X12469286Y-13225000D01*
X12478809Y-13220238D01*
X12502619Y-13220238D01*
X12512143Y-13225000D01*
X12516905Y-13229762D01*
X12521667Y-13239286D01*
X12521667Y-13248809D01*
X12516905Y-13263095D01*
X12459762Y-13320238D01*
X12521667Y-13320238D01*
X12088095Y-12145238D02*
X12030952Y-12145238D01*
X12059524Y-12145238D02*
X12059524Y-12045238D01*
X12050000Y-12059524D01*
X12040476Y-12069048D01*
X12030952Y-12073809D01*
X12126190Y-12054762D02*
X12130952Y-12050000D01*
X12140476Y-12045238D01*
X12164286Y-12045238D01*
X12173809Y-12050000D01*
X12178571Y-12054762D01*
X12183333Y-12064286D01*
X12183333Y-12073809D01*
X12178571Y-12088095D01*
X12121428Y-12145238D01*
X12183333Y-12145238D01*
X12211905Y-12045238D02*
X12245238Y-12145238D01*
X12278571Y-12045238D01*
D13*
X12630100Y-7444000D02*
X12630100Y-8956000D01*
X12297700Y-8577300D02*
X12293100Y-8572600D01*
X11934000Y-7444000D02*
X11934000Y-8956000D01*
X12926100Y-7444000D02*
X11934000Y-7444000D01*
X12527500Y-8307000D02*
X12523900Y-8303500D01*
X11984000Y-7420000D02*
X11910000Y-7420000D01*
X11990000Y-7444000D02*
X11990000Y-8956000D01*
X12506900Y-8827500D02*
X12502300Y-8822800D01*
X12276100Y-8596600D02*
X12272600Y-8593100D01*
X12506900Y-8327500D02*
X12502300Y-8322800D01*
X12926100Y-8956000D02*
X11934000Y-8956000D01*
X12276100Y-8096600D02*
X12272600Y-8093100D01*
X12926100Y-7444000D02*
X12926100Y-8956000D01*
X12297700Y-8077300D02*
X12293100Y-8072600D01*
X12140000Y-7444000D02*
X12140000Y-8956000D01*
X12527500Y-8807000D02*
X12523900Y-8803500D01*
X11910000Y-7420000D02*
X11910000Y-7470000D01*
X12331600Y-7853500D02*
G75*
G03*
X12468304Y-7853543I68400J153500D01*
G01*
X12553500Y-7768400D02*
G75*
G03*
X12553543Y-7631696I-153499J68400D01*
G01*
X12468400Y-7546500D02*
G75*
G03*
X12331696Y-7546457I-68400J-153499D01*
G01*
X12232000Y-7700000D02*
G75*
G03*
X12246524Y-7768332I168000J0D01*
G01*
X12246500Y-7631600D02*
G75*
G03*
X12231975Y-7702880I153500J-68400D01*
G01*
X12568000Y-8700000D02*
G75*
G03*
X12568000Y-8700000I-168000J0D01*
G01*
X12568000Y-8200000D02*
G75*
G03*
X12568000Y-8200000I-168000J0D01*
G01*
X13854000Y-9937000D02*
X14508000Y-9937000D01*
X13854000Y-9663000D02*
X14508000Y-9663000D01*
X13854000Y-9696000D02*
X13854000Y-9663000D01*
X14508000Y-9663000D02*
X14508000Y-9696000D01*
X14508000Y-9937000D02*
X14508000Y-9904000D01*
X13854000Y-9904000D02*
X13854000Y-9937000D01*
D11*
X16278000Y-11733000D02*
X16278000Y-9467000D01*
X12770000Y-9482000D02*
X13370000Y-9482000D01*
X13470000Y-9267000D02*
X13470000Y-9267000D01*
X12770000Y-11090000D02*
X12770000Y-11933000D01*
X16078000Y-9267000D02*
X13470000Y-9267000D01*
X13470000Y-9383000D02*
X13470000Y-9267000D01*
X12770000Y-11933000D02*
X16078000Y-11933000D01*
X12770000Y-9482000D02*
X12770000Y-10268000D01*
X12870000Y-10268000D02*
X12870000Y-11090000D01*
X12870000Y-11090000D02*
X12770000Y-11090000D01*
X12770000Y-10268000D02*
X12870000Y-10268000D01*
X16078000Y-11933000D02*
G75*
G03*
X16278000Y-11733000I0J200000D01*
G01*
X16278000Y-9467000D02*
G75*
G03*
X16078000Y-9267000I-200000J0D01*
G01*
X13370000Y-9482000D02*
G75*
G03*
X13470000Y-9382000I0J100000D01*
G01*
D13*
X16773900Y-12956000D02*
X16773900Y-11944000D01*
X17716000Y-12980000D02*
X17790000Y-12980000D01*
X17560000Y-12956000D02*
X17560000Y-11944000D01*
X17710000Y-12956000D02*
X17710000Y-11944000D01*
X17193100Y-12072500D02*
X17197700Y-12077200D01*
X16773900Y-11944000D02*
X17766000Y-11944000D01*
X17766000Y-12956000D02*
X17766000Y-11944000D01*
X17790000Y-12980000D02*
X17790000Y-12930000D01*
X17423900Y-12303400D02*
X17427400Y-12306900D01*
X17069900Y-12956000D02*
X17069900Y-11944000D01*
X17402300Y-12322700D02*
X17406900Y-12327400D01*
X17172500Y-12093000D02*
X17176100Y-12096500D01*
X16773900Y-12956000D02*
X17766000Y-12956000D01*
X17468000Y-12700000D02*
G75*
G03*
X17453476Y-12631668I-168000J0D01*
G01*
X17146500Y-12631600D02*
G75*
G03*
X17146457Y-12768304I153499J-68400D01*
G01*
X17231600Y-12853500D02*
G75*
G03*
X17368304Y-12853543I68400J153499D01*
G01*
X17453500Y-12768400D02*
G75*
G03*
X17468025Y-12697119I-153500J68400D01*
G01*
X17368400Y-12546500D02*
G75*
G03*
X17231696Y-12546457I-68400J-153500D01*
G01*
X17468000Y-12200000D02*
G75*
G03*
X17468000Y-12200000I-168000J0D01*
G01*
X14604000Y-12666900D02*
X14655400Y-12666900D01*
X14604000Y-12738900D02*
X14720000Y-12738900D01*
X14246400Y-12827000D02*
X14396000Y-12827000D01*
X14604000Y-12843000D02*
X14756100Y-12843000D01*
X14317400Y-12690900D02*
X14396000Y-12690900D01*
X14604000Y-12811000D02*
X14750100Y-12811000D01*
X14604000Y-12790900D02*
X14744200Y-12790900D01*
X14334700Y-12674900D02*
X14396000Y-12674900D01*
X14419500Y-12626900D02*
X14580500Y-12626900D01*
X14242200Y-12863000D02*
X14757800Y-12863000D01*
X14243500Y-12847000D02*
X14396000Y-12847000D01*
X14604000Y-12714900D02*
X14703500Y-12714900D01*
X14352500Y-13155477D02*
X14352500Y-13105477D01*
X14604000Y-12662900D02*
X14650000Y-12662900D01*
X14604000Y-12718900D02*
X14706500Y-12718900D01*
X14390200Y-12638900D02*
X14609800Y-12638900D01*
X14302900Y-12706900D02*
X14396000Y-12706900D01*
X14604000Y-12654900D02*
X14638300Y-12654900D01*
X14604000Y-12815000D02*
X14751100Y-12815000D01*
X14267100Y-12762900D02*
X14396000Y-12762900D01*
X14258600Y-12782900D02*
X14396000Y-12782900D01*
X14248900Y-12815000D02*
X14396000Y-12815000D01*
X14243900Y-12843000D02*
X14396000Y-12843000D01*
X14398900Y-12634900D02*
X14601100Y-12634900D01*
X14604000Y-12646900D02*
X14625100Y-12646900D01*
X14327500Y-13130477D02*
X14377500Y-13130477D01*
X14253200Y-12798900D02*
X14396000Y-12798900D01*
X14604000Y-12847000D02*
X14756500Y-12847000D01*
X14604000Y-12686900D02*
X14678500Y-12686900D01*
X14306300Y-12702900D02*
X14396000Y-12702900D01*
X14248000Y-12819000D02*
X14396000Y-12819000D01*
X14242400Y-12859000D02*
X14757600Y-12859000D01*
X14242000Y-12875000D02*
X14758000Y-12875000D01*
X14604000Y-12802900D02*
X14748000Y-12802900D01*
X14263500Y-12770900D02*
X14396000Y-12770900D01*
X14273200Y-12750900D02*
X14396000Y-12750900D01*
X14408500Y-12630900D02*
X14591500Y-12630900D01*
X14604000Y-12742900D02*
X14722400Y-12742900D01*
X14249900Y-12811000D02*
X14396000Y-12811000D01*
X14604000Y-12750900D02*
X14726800Y-12750900D01*
X14325700Y-12682900D02*
X14396000Y-12682900D01*
X14604000Y-12762900D02*
X14732900Y-12762900D01*
X14382200Y-12642900D02*
X14617800Y-12642900D01*
X14269000Y-12758900D02*
X14396000Y-12758900D01*
X14285100Y-12730900D02*
X14396000Y-12730900D01*
X14604000Y-12839000D02*
X14755600Y-12839000D01*
X14604000Y-12831000D02*
X14754300Y-12831000D01*
X14265200Y-12766900D02*
X14396000Y-12766900D01*
X14242100Y-12867000D02*
X14757900Y-12867000D01*
X14261800Y-12774900D02*
X14396000Y-12774900D01*
X14604000Y-12798900D02*
X14746800Y-12798900D01*
X14275300Y-12746900D02*
X14396000Y-12746900D01*
X14350000Y-12662900D02*
X14396000Y-12662900D01*
X14604000Y-12670900D02*
X14660500Y-12670900D01*
X14245000Y-12835000D02*
X14396000Y-12835000D01*
X14604000Y-12694900D02*
X14686400Y-12694900D01*
X14244400Y-12839000D02*
X14396000Y-12839000D01*
X14604000Y-12851000D02*
X14756900Y-12851000D01*
X14604000Y-12746900D02*
X14724700Y-12746900D01*
X14604000Y-12706900D02*
X14697100Y-12706900D01*
X14604000Y-12702900D02*
X14693700Y-12702900D01*
X14309900Y-12698900D02*
X14396000Y-12698900D01*
X14247200Y-12823000D02*
X14396000Y-12823000D01*
X14321500Y-12686900D02*
X14396000Y-12686900D01*
X14245700Y-12831000D02*
X14396000Y-12831000D01*
X14282500Y-12734900D02*
X14396000Y-12734900D01*
X14604000Y-12722900D02*
X14709500Y-12722900D01*
X14432300Y-12622900D02*
X14567700Y-12622900D01*
X14252000Y-12802900D02*
X14396000Y-12802900D01*
X14604000Y-12698900D02*
X14690100Y-12698900D01*
X14604000Y-12734900D02*
X14717500Y-12734900D01*
X14604000Y-12766900D02*
X14734800Y-12766900D01*
X14604000Y-12726900D02*
X14712200Y-12726900D01*
X14604000Y-12782900D02*
X14741400Y-12782900D01*
X14254500Y-12794900D02*
X14396000Y-12794900D01*
X14290500Y-12722900D02*
X14396000Y-12722900D01*
X14250900Y-12807000D02*
X14396000Y-12807000D01*
X14374900Y-12646900D02*
X14396000Y-12646900D01*
X14260200Y-12778900D02*
X14396000Y-12778900D01*
X14339500Y-12670900D02*
X14396000Y-12670900D01*
X14604000Y-12754900D02*
X14729000Y-12754900D01*
X14243100Y-12851000D02*
X14396000Y-12851000D01*
X14471600Y-12614900D02*
X14528400Y-12614900D01*
X14604000Y-12835000D02*
X14755000Y-12835000D01*
X14604000Y-12823000D02*
X14752800Y-12823000D01*
X14604000Y-12770900D02*
X14736500Y-12770900D01*
X14280000Y-12738900D02*
X14396000Y-12738900D01*
X14344600Y-12666900D02*
X14396000Y-12666900D01*
X14604000Y-12682900D02*
X14674300Y-12682900D01*
X14604000Y-12674900D02*
X14665300Y-12674900D01*
X14604000Y-12730900D02*
X14714900Y-12730900D01*
X14604000Y-12794900D02*
X14745500Y-12794900D01*
X14604000Y-12650900D02*
X14631900Y-12650900D01*
X14604000Y-12819000D02*
X14752000Y-12819000D01*
X14255800Y-12790900D02*
X14396000Y-12790900D01*
X14604000Y-12827000D02*
X14753600Y-12827000D01*
X14361700Y-12654900D02*
X14396000Y-12654900D01*
X14313600Y-12694900D02*
X14396000Y-12694900D01*
X14604000Y-12758900D02*
X14731000Y-12758900D01*
X14277600Y-12742900D02*
X14396000Y-12742900D01*
X14604000Y-12658900D02*
X14644300Y-12658900D01*
X14368100Y-12650900D02*
X14396000Y-12650900D01*
X14604000Y-12774900D02*
X14738200Y-12774900D01*
X14604000Y-12807000D02*
X14749100Y-12807000D01*
X14293500Y-12718900D02*
X14396000Y-12718900D01*
X14296500Y-12714900D02*
X14396000Y-12714900D01*
X14330100Y-12678900D02*
X14396000Y-12678900D01*
X14299600Y-12710900D02*
X14396000Y-12710900D01*
X14604000Y-12710900D02*
X14700400Y-12710900D01*
X14604000Y-12778900D02*
X14739800Y-12778900D01*
X14604000Y-12786900D02*
X14742800Y-12786900D01*
X14448200Y-12618900D02*
X14551800Y-12618900D01*
X14355700Y-12658900D02*
X14396000Y-12658900D01*
X14242700Y-12855000D02*
X14757300Y-12855000D01*
X14271000Y-12754900D02*
X14396000Y-12754900D01*
X14257200Y-12786900D02*
X14396000Y-12786900D01*
X14604000Y-12678900D02*
X14669900Y-12678900D01*
X14287800Y-12726900D02*
X14396000Y-12726900D01*
X14242000Y-12871000D02*
X14758000Y-12871000D01*
X14604000Y-12690900D02*
X14682600Y-12690900D01*
X14762000Y-12875000D02*
G75*
G03*
X14762000Y-12875000I-262000J0D01*
G01*
X13851000Y-12296000D02*
X13851000Y-12143100D01*
X13831000Y-12654300D02*
X13831000Y-12504000D01*
X13658900Y-12296000D02*
X13658900Y-12255700D01*
X13698900Y-12296000D02*
X13698900Y-12209900D01*
X13678900Y-12569900D02*
X13678900Y-12504000D01*
X13827000Y-12653600D02*
X13827000Y-12504000D01*
X13694900Y-12296000D02*
X13694900Y-12213600D01*
X13682900Y-12296000D02*
X13682900Y-12225700D01*
X13750900Y-12296000D02*
X13750900Y-12173200D01*
X13650900Y-12296000D02*
X13650900Y-12268100D01*
X13666900Y-12296000D02*
X13666900Y-12244600D01*
X13706900Y-12296000D02*
X13706900Y-12202900D01*
X13626900Y-12480500D02*
X13626900Y-12319500D01*
X13794900Y-12645500D02*
X13794900Y-12504000D01*
X13746900Y-12296000D02*
X13746900Y-12175300D01*
X13646900Y-12296000D02*
X13646900Y-12274900D01*
X13754900Y-12629000D02*
X13754900Y-12504000D01*
X13819000Y-12652000D02*
X13819000Y-12504000D01*
X13758900Y-12631000D02*
X13758900Y-12504000D01*
X13670900Y-12296000D02*
X13670900Y-12239500D01*
X13774900Y-12296000D02*
X13774900Y-12161800D01*
X13634900Y-12501100D02*
X13634900Y-12298900D01*
X13714900Y-12603500D02*
X13714900Y-12504000D01*
X13710900Y-12296000D02*
X13710900Y-12199600D01*
X13638900Y-12509800D02*
X13638900Y-12290200D01*
X13738900Y-12620000D02*
X13738900Y-12504000D01*
X13690900Y-12296000D02*
X13690900Y-12217400D01*
X13670900Y-12560500D02*
X13670900Y-12504000D01*
X13815000Y-12651100D02*
X13815000Y-12504000D01*
X13798900Y-12646800D02*
X13798900Y-12504000D01*
X13778900Y-12296000D02*
X13778900Y-12160200D01*
X13686900Y-12296000D02*
X13686900Y-12221500D01*
X13794900Y-12296000D02*
X13794900Y-12154500D01*
X13839000Y-12655600D02*
X13839000Y-12504000D01*
X13718900Y-12606500D02*
X13718900Y-12504000D01*
X13867000Y-12657900D02*
X13867000Y-12142100D01*
X13738900Y-12296000D02*
X13738900Y-12180000D01*
X13618900Y-12451800D02*
X13618900Y-12348200D01*
X13770900Y-12636500D02*
X13770900Y-12504000D01*
X13742900Y-12296000D02*
X13742900Y-12177600D01*
X13730900Y-12296000D02*
X13730900Y-12185100D01*
X13815000Y-12296000D02*
X13815000Y-12148900D01*
X13790900Y-12296000D02*
X13790900Y-12155800D01*
X13847000Y-12656500D02*
X13847000Y-12504000D01*
X13622900Y-12467700D02*
X13622900Y-12332300D01*
X13798900Y-12296000D02*
X13798900Y-12153200D01*
X13726900Y-12612200D02*
X13726900Y-12504000D01*
X13827000Y-12296000D02*
X13827000Y-12146400D01*
X13782900Y-12296000D02*
X13782900Y-12158600D01*
X13686900Y-12578500D02*
X13686900Y-12504000D01*
X13754900Y-12296000D02*
X13754900Y-12171000D01*
X13694900Y-12586400D02*
X13694900Y-12504000D01*
X13742900Y-12622400D02*
X13742900Y-12504000D01*
X14155477Y-12547500D02*
X14105477Y-12547500D01*
X13650900Y-12531900D02*
X13650900Y-12504000D01*
X13674900Y-12565300D02*
X13674900Y-12504000D01*
X13766900Y-12296000D02*
X13766900Y-12165200D01*
X13654900Y-12296000D02*
X13654900Y-12261700D01*
X13786900Y-12642800D02*
X13786900Y-12504000D01*
X13706900Y-12597100D02*
X13706900Y-12504000D01*
X13762900Y-12632900D02*
X13762900Y-12504000D01*
X13807000Y-12649100D02*
X13807000Y-12504000D01*
X13630900Y-12491500D02*
X13630900Y-12308500D01*
X13851000Y-12656900D02*
X13851000Y-12504000D01*
X13770900Y-12296000D02*
X13770900Y-12163500D01*
X13722900Y-12609500D02*
X13722900Y-12504000D01*
X13875000Y-12658000D02*
X13875000Y-12142000D01*
X13863000Y-12657800D02*
X13863000Y-12142200D01*
X13762900Y-12296000D02*
X13762900Y-12167100D01*
X13807000Y-12296000D02*
X13807000Y-12150900D01*
X13871000Y-12658000D02*
X13871000Y-12142000D01*
X13758900Y-12296000D02*
X13758900Y-12169000D01*
X13855000Y-12657300D02*
X13855000Y-12142700D01*
X13718900Y-12296000D02*
X13718900Y-12193500D01*
X13802900Y-12296000D02*
X13802900Y-12152000D01*
X13702900Y-12296000D02*
X13702900Y-12206300D01*
X13714900Y-12296000D02*
X13714900Y-12196500D01*
X13746900Y-12624700D02*
X13746900Y-12504000D01*
X13614900Y-12428400D02*
X13614900Y-12371600D01*
X13658900Y-12544300D02*
X13658900Y-12504000D01*
X13678900Y-12296000D02*
X13678900Y-12230100D01*
X13674900Y-12296000D02*
X13674900Y-12234700D01*
X13766900Y-12634800D02*
X13766900Y-12504000D01*
X13734900Y-12296000D02*
X13734900Y-12182500D01*
X13646900Y-12525100D02*
X13646900Y-12504000D01*
X13666900Y-12555400D02*
X13666900Y-12504000D01*
X13802900Y-12648000D02*
X13802900Y-12504000D01*
X13690900Y-12582600D02*
X13690900Y-12504000D01*
X13790900Y-12644200D02*
X13790900Y-12504000D01*
X13642900Y-12517800D02*
X13642900Y-12282200D01*
X13847000Y-12296000D02*
X13847000Y-12143500D01*
X14130477Y-12572500D02*
X14130477Y-12522500D01*
X13859000Y-12657600D02*
X13859000Y-12142400D01*
X13823000Y-12652800D02*
X13823000Y-12504000D01*
X13774900Y-12638200D02*
X13774900Y-12504000D01*
X13823000Y-12296000D02*
X13823000Y-12147200D01*
X13811000Y-12650100D02*
X13811000Y-12504000D01*
X13778900Y-12639800D02*
X13778900Y-12504000D01*
X13734900Y-12617500D02*
X13734900Y-12504000D01*
X13662900Y-12550000D02*
X13662900Y-12504000D01*
X13786900Y-12296000D02*
X13786900Y-12157200D01*
X13682900Y-12574300D02*
X13682900Y-12504000D01*
X13811000Y-12296000D02*
X13811000Y-12149900D01*
X13782900Y-12641400D02*
X13782900Y-12504000D01*
X13710900Y-12600400D02*
X13710900Y-12504000D01*
X13835000Y-12296000D02*
X13835000Y-12145000D01*
X13843000Y-12656100D02*
X13843000Y-12504000D01*
X13702900Y-12593700D02*
X13702900Y-12504000D01*
X13839000Y-12296000D02*
X13839000Y-12144400D01*
X13722900Y-12296000D02*
X13722900Y-12190500D01*
X13819000Y-12296000D02*
X13819000Y-12148000D01*
X13843000Y-12296000D02*
X13843000Y-12143900D01*
X13730900Y-12614900D02*
X13730900Y-12504000D01*
X13662900Y-12296000D02*
X13662900Y-12250000D01*
X13750900Y-12626800D02*
X13750900Y-12504000D01*
X13726900Y-12296000D02*
X13726900Y-12187800D01*
X13835000Y-12655000D02*
X13835000Y-12504000D01*
X13698900Y-12590100D02*
X13698900Y-12504000D01*
X13831000Y-12296000D02*
X13831000Y-12145700D01*
X13654900Y-12538300D02*
X13654900Y-12504000D01*
X14137000Y-12400000D02*
G75*
G03*
X14137000Y-12400000I-262000J0D01*
G01*
X14971000Y-12308000D02*
X14971000Y-12323600D01*
X14971000Y-12076400D02*
X14971000Y-12092000D01*
X15231113Y-12092016D02*
G75*
G03*
X15022904Y-12092000I-104113J-107984D01*
G01*
X15294233Y-12092139D02*
G75*
G03*
X14971000Y-12076448I-167234J-107861D01*
G01*
X15022904Y-12308000D02*
G75*
G03*
X15231113Y-12307984I104096J108000D01*
G01*
X14971000Y-12323552D02*
G75*
G03*
X15294233Y-12307861I156000J123552D01*
G01*
D14*
X17943000Y-8128000D02*
X17943000Y-8121000D01*
D13*
X17943000Y-7223000D02*
X17943000Y-7901000D01*
D14*
X16623000Y-7224000D02*
X16623000Y-7223000D01*
D13*
X17943000Y-9023000D02*
X16623000Y-9023000D01*
D14*
X16623000Y-7235000D02*
X16623000Y-7223000D01*
D13*
X17990000Y-8823000D02*
X17990000Y-8976000D01*
X17943000Y-8121000D02*
X17943000Y-9023000D01*
X16623000Y-7223000D02*
X17943000Y-7223000D01*
X16623000Y-9023000D02*
X16623000Y-8121000D01*
X16623000Y-7223000D02*
X16623000Y-7901000D01*
X16390000Y-8823000D02*
X16390000Y-8976000D01*
D14*
X15023000Y-7224000D02*
X15023000Y-7223000D01*
D13*
X15023000Y-9023000D02*
X15023000Y-8121000D01*
X16343000Y-8121000D02*
X16343000Y-9023000D01*
D14*
X15023000Y-7235000D02*
X15023000Y-7223000D01*
D13*
X16343000Y-9023000D02*
X15023000Y-9023000D01*
D14*
X16343000Y-8128000D02*
X16343000Y-8121000D01*
D13*
X15023000Y-7223000D02*
X15023000Y-7901000D01*
X15023000Y-7223000D02*
X16343000Y-7223000D01*
X16343000Y-7223000D02*
X16343000Y-7901000D01*
X13179500Y-8988000D02*
X13179500Y-7192000D01*
X13179500Y-8988000D02*
X14731500Y-8988000D01*
X14731500Y-8988000D02*
X14731500Y-7192000D01*
X14750000Y-8600000D02*
X14800000Y-8650000D01*
X14800000Y-8650000D02*
X14800000Y-8550000D01*
X14731500Y-7192000D02*
X13179500Y-7192000D01*
X14800000Y-8550000D02*
X14750000Y-8600000D01*
X15654000Y-12304000D02*
X15654000Y-12337000D01*
X15654000Y-12096000D02*
X15654000Y-12063000D01*
X15654000Y-12337000D02*
X16308000Y-12337000D01*
X16308000Y-12063000D02*
X16308000Y-12096000D01*
X15654000Y-12063000D02*
X16308000Y-12063000D01*
X16308000Y-12337000D02*
X16308000Y-12304000D01*
X16258000Y-13027000D02*
X15234000Y-13027000D01*
X16258000Y-12876000D02*
X15234000Y-12876000D01*
X15560900Y-13027000D02*
X15560900Y-12876000D01*
X16258000Y-13027000D02*
X16258000Y-12562900D01*
X16258000Y-12562900D02*
X15234000Y-12562900D01*
X15931000Y-13027000D02*
X15931000Y-12876000D01*
X15234000Y-13027000D02*
X15234000Y-12562900D01*
X11920000Y-12240000D02*
X13390000Y-12240000D01*
X13390000Y-12890000D02*
X13390000Y-13160000D01*
X13390000Y-13160000D02*
X13200000Y-13160000D01*
X12800000Y-13160000D02*
X11920000Y-13160000D01*
X13305000Y-12220000D02*
X13410000Y-12220000D01*
X13410000Y-12325000D02*
X13410000Y-12220000D01*
X13390000Y-12240000D02*
X13390000Y-12500000D01*
X11920000Y-13160000D02*
X11920000Y-12240000D01*
G36*
X16365985Y-14049212D02*
G01*
X16366557Y-14057198D01*
X16367215Y-14061904D01*
X16368126Y-14063957D01*
X16369460Y-14063983D01*
X16369892Y-14063738D01*
X16375644Y-14061964D01*
X16383127Y-14062067D01*
X16390734Y-14063891D01*
X16395492Y-14066250D01*
X16400370Y-14070020D01*
X16403936Y-14074285D01*
X16406384Y-14079706D01*
X16407909Y-14086938D01*
X16408703Y-14096642D01*
X16408962Y-14109474D01*
X16408966Y-14111936D01*
X16408969Y-14139587D01*
X16402816Y-14141732D01*
X16398446Y-14143191D01*
X16396048Y-14143871D01*
X16395978Y-14143877D01*
X16395741Y-14142034D01*
X16395541Y-14136953D01*
X16395390Y-14129299D01*
X16395305Y-14119743D01*
X16395292Y-14113933D01*
X16395265Y-14102477D01*
X16395125Y-14094267D01*
X16394785Y-14088639D01*
X16394157Y-14084933D01*
X16393153Y-14082484D01*
X16391686Y-14080632D01*
X16390770Y-14079741D01*
X16384479Y-14076147D01*
X16377614Y-14075877D01*
X16371385Y-14078917D01*
X16370233Y-14080014D01*
X16368543Y-14082078D01*
X16367371Y-14084526D01*
X16366623Y-14088065D01*
X16366205Y-14093403D01*
X16366024Y-14101247D01*
X16365985Y-14112062D01*
X16365985Y-14139587D01*
X16359831Y-14141732D01*
X16355461Y-14143191D01*
X16353064Y-14143871D01*
X16352993Y-14143877D01*
X16352813Y-14142007D01*
X16352650Y-14136732D01*
X16352512Y-14128556D01*
X16352404Y-14117980D01*
X16352334Y-14105509D01*
X16352308Y-14091645D01*
X16352308Y-14038181D01*
X16365008Y-14032824D01*
X16365985Y-14049212D01*
G37*
D15*
X16365985Y-14049212D02*
X16366557Y-14057198D01*
X16367215Y-14061904D01*
X16368126Y-14063957D01*
X16369460Y-14063983D01*
X16369892Y-14063738D01*
X16375644Y-14061964D01*
X16383127Y-14062067D01*
X16390734Y-14063891D01*
X16395492Y-14066250D01*
X16400370Y-14070020D01*
X16403936Y-14074285D01*
X16406384Y-14079706D01*
X16407909Y-14086938D01*
X16408703Y-14096642D01*
X16408962Y-14109474D01*
X16408966Y-14111936D01*
X16408969Y-14139587D01*
X16402816Y-14141732D01*
X16398446Y-14143191D01*
X16396048Y-14143871D01*
X16395978Y-14143877D01*
X16395741Y-14142034D01*
X16395541Y-14136953D01*
X16395390Y-14129299D01*
X16395305Y-14119743D01*
X16395292Y-14113933D01*
X16395265Y-14102477D01*
X16395125Y-14094267D01*
X16394785Y-14088639D01*
X16394157Y-14084933D01*
X16393153Y-14082484D01*
X16391686Y-14080632D01*
X16390770Y-14079741D01*
X16384479Y-14076147D01*
X16377614Y-14075877D01*
X16371385Y-14078917D01*
X16370233Y-14080014D01*
X16368543Y-14082078D01*
X16367371Y-14084526D01*
X16366623Y-14088065D01*
X16366205Y-14093403D01*
X16366024Y-14101247D01*
X16365985Y-14112062D01*
X16365985Y-14139587D01*
X16359831Y-14141732D01*
X16355461Y-14143191D01*
X16353064Y-14143871D01*
X16352993Y-14143877D01*
X16352813Y-14142007D01*
X16352650Y-14136732D01*
X16352512Y-14128556D01*
X16352404Y-14117980D01*
X16352334Y-14105509D01*
X16352308Y-14091645D01*
X16352308Y-14038181D01*
X16365008Y-14032824D01*
X16365985Y-14049212D01*
G36*
X16521336Y-14062467D02*
G01*
X16530212Y-14065742D01*
X16537402Y-14071535D01*
X16540214Y-14075613D01*
X16543280Y-14083095D01*
X16543216Y-14088506D01*
X16539999Y-14092145D01*
X16538808Y-14092763D01*
X16533667Y-14094692D01*
X16531042Y-14094198D01*
X16530153Y-14090959D01*
X16530108Y-14089169D01*
X16528480Y-14082586D01*
X16524236Y-14077981D01*
X16518339Y-14075756D01*
X16511747Y-14076316D01*
X16506389Y-14079223D01*
X16504580Y-14080881D01*
X16503297Y-14082892D01*
X16502431Y-14085933D01*
X16501870Y-14090679D01*
X16501503Y-14097805D01*
X16501221Y-14107987D01*
X16501148Y-14111211D01*
X16500882Y-14122241D01*
X16500579Y-14130004D01*
X16500125Y-14135140D01*
X16499405Y-14138289D01*
X16498303Y-14140092D01*
X16496706Y-14141189D01*
X16495683Y-14141673D01*
X16491341Y-14143330D01*
X16488784Y-14143877D01*
X16487939Y-14142051D01*
X16487424Y-14136530D01*
X16487235Y-14127250D01*
X16487369Y-14114148D01*
X16487411Y-14112127D01*
X16487706Y-14100173D01*
X16488055Y-14091445D01*
X16488551Y-14085259D01*
X16489289Y-14080934D01*
X16490362Y-14077786D01*
X16491864Y-14075134D01*
X16492650Y-14073997D01*
X16497155Y-14068969D01*
X16502194Y-14065058D01*
X16502811Y-14064717D01*
X16511846Y-14062021D01*
X16521336Y-14062467D01*
G37*
X16521336Y-14062467D02*
X16530212Y-14065742D01*
X16537402Y-14071535D01*
X16540214Y-14075613D01*
X16543280Y-14083095D01*
X16543216Y-14088506D01*
X16539999Y-14092145D01*
X16538808Y-14092763D01*
X16533667Y-14094692D01*
X16531042Y-14094198D01*
X16530153Y-14090959D01*
X16530108Y-14089169D01*
X16528480Y-14082586D01*
X16524236Y-14077981D01*
X16518339Y-14075756D01*
X16511747Y-14076316D01*
X16506389Y-14079223D01*
X16504580Y-14080881D01*
X16503297Y-14082892D01*
X16502431Y-14085933D01*
X16501870Y-14090679D01*
X16501503Y-14097805D01*
X16501221Y-14107987D01*
X16501148Y-14111211D01*
X16500882Y-14122241D01*
X16500579Y-14130004D01*
X16500125Y-14135140D01*
X16499405Y-14138289D01*
X16498303Y-14140092D01*
X16496706Y-14141189D01*
X16495683Y-14141673D01*
X16491341Y-14143330D01*
X16488784Y-14143877D01*
X16487939Y-14142051D01*
X16487424Y-14136530D01*
X16487235Y-14127250D01*
X16487369Y-14114148D01*
X16487411Y-14112127D01*
X16487706Y-14100173D01*
X16488055Y-14091445D01*
X16488551Y-14085259D01*
X16489289Y-14080934D01*
X16490362Y-14077786D01*
X16491864Y-14075134D01*
X16492650Y-14073997D01*
X16497155Y-14068969D01*
X16502194Y-14065058D01*
X16502811Y-14064717D01*
X16511846Y-14062021D01*
X16521336Y-14062467D01*
G36*
X16463988Y-13428778D02*
G01*
X16474561Y-13428835D01*
X16482213Y-13428992D01*
X16487437Y-13429297D01*
X16490726Y-13429800D01*
X16492574Y-13430549D01*
X16493473Y-13431594D01*
X16493916Y-13432985D01*
X16493959Y-13433165D01*
X16494633Y-13436414D01*
X16495881Y-13442825D01*
X16497572Y-13451715D01*
X16499577Y-13462402D01*
X16501766Y-13474203D01*
X16501843Y-13474618D01*
X16504036Y-13486183D01*
X16506088Y-13496401D01*
X16507866Y-13504660D01*
X16509238Y-13510346D01*
X16510072Y-13512846D01*
X16510112Y-13512890D01*
X16512568Y-13514111D01*
X16517631Y-13516146D01*
X16524209Y-13518554D01*
X16524246Y-13518567D01*
X16532532Y-13521682D01*
X16542300Y-13525649D01*
X16551508Y-13529638D01*
X16551943Y-13529835D01*
X16566941Y-13536642D01*
X16600150Y-13513964D01*
X16610337Y-13507050D01*
X16619566Y-13500870D01*
X16627300Y-13495773D01*
X16633006Y-13492113D01*
X16636149Y-13490239D01*
X16636448Y-13490100D01*
X16638732Y-13490719D01*
X16642998Y-13493703D01*
X16649413Y-13499195D01*
X16658142Y-13507333D01*
X16667053Y-13515992D01*
X16675644Y-13524525D01*
X16683333Y-13532311D01*
X16689656Y-13538870D01*
X16694152Y-13543720D01*
X16696358Y-13546382D01*
X16696440Y-13546519D01*
X16696683Y-13548346D01*
X16695765Y-13551329D01*
X16693457Y-13555872D01*
X16689534Y-13562377D01*
X16683767Y-13571247D01*
X16676079Y-13582666D01*
X16669257Y-13592716D01*
X16663158Y-13601730D01*
X16658136Y-13609185D01*
X16654542Y-13614556D01*
X16652729Y-13617322D01*
X16652615Y-13617509D01*
X16652836Y-13620159D01*
X16654514Y-13625309D01*
X16657314Y-13631985D01*
X16658312Y-13634117D01*
X16662667Y-13643616D01*
X16667313Y-13654394D01*
X16671088Y-13663719D01*
X16673807Y-13670641D01*
X16675967Y-13675901D01*
X16677216Y-13678650D01*
X16677371Y-13678862D01*
X16679667Y-13679212D01*
X16685079Y-13680174D01*
X16692887Y-13681609D01*
X16702372Y-13683381D01*
X16712814Y-13685352D01*
X16723494Y-13687387D01*
X16733693Y-13689349D01*
X16742689Y-13691099D01*
X16749765Y-13692502D01*
X16754201Y-13693421D01*
X16755288Y-13693681D01*
X16756412Y-13694322D01*
X16757260Y-13695770D01*
X16757871Y-13698513D01*
X16758283Y-13703041D01*
X16758534Y-13709842D01*
X16758662Y-13719405D01*
X16758705Y-13732218D01*
X16758708Y-13737470D01*
X16758708Y-13780184D01*
X16748450Y-13782209D01*
X16742743Y-13783307D01*
X16734227Y-13784909D01*
X16723937Y-13786823D01*
X16712910Y-13788855D01*
X16709861Y-13789413D01*
X16699685Y-13791392D01*
X16690820Y-13793337D01*
X16684011Y-13795070D01*
X16680000Y-13796409D01*
X16679332Y-13796808D01*
X16677692Y-13799634D01*
X16675340Y-13805111D01*
X16672732Y-13812159D01*
X16672214Y-13813677D01*
X16668796Y-13823090D01*
X16664552Y-13833710D01*
X16660400Y-13843247D01*
X16660379Y-13843292D01*
X16653464Y-13858252D01*
X16698951Y-13925162D01*
X16669750Y-13954412D01*
X16660918Y-13963117D01*
X16652862Y-13970791D01*
X16646036Y-13977024D01*
X16640891Y-13981406D01*
X16637879Y-13983527D01*
X16637447Y-13983662D01*
X16634911Y-13982602D01*
X16629736Y-13979655D01*
X16622487Y-13975170D01*
X16613729Y-13969498D01*
X16604261Y-13963146D01*
X16594652Y-13956667D01*
X16586084Y-13951029D01*
X16579102Y-13946579D01*
X16574249Y-13943664D01*
X16572078Y-13942631D01*
X16569429Y-13943505D01*
X16564406Y-13945809D01*
X16558045Y-13949063D01*
X16557371Y-13949425D01*
X16548805Y-13953721D01*
X16542931Y-13955828D01*
X16539277Y-13955850D01*
X16537373Y-13953893D01*
X16537362Y-13953865D01*
X16536410Y-13951547D01*
X16534140Y-13946044D01*
X16530728Y-13937782D01*
X16526350Y-13927187D01*
X16521182Y-13914685D01*
X16515399Y-13900702D01*
X16509799Y-13887164D01*
X16503645Y-13872223D01*
X16497994Y-13858383D01*
X16493016Y-13846067D01*
X16488881Y-13835700D01*
X16485757Y-13827706D01*
X16483814Y-13822509D01*
X16483215Y-13820569D01*
X16484717Y-13818344D01*
X16488644Y-13814798D01*
X16493881Y-13810889D01*
X16508794Y-13798524D01*
X16520451Y-13784352D01*
X16528712Y-13768670D01*
X16533437Y-13751777D01*
X16534486Y-13733972D01*
X16533723Y-13725754D01*
X16529568Y-13708703D01*
X16522412Y-13693646D01*
X16512699Y-13680731D01*
X16500873Y-13670106D01*
X16487378Y-13661921D01*
X16472657Y-13656323D01*
X16457154Y-13653461D01*
X16441314Y-13653484D01*
X16425579Y-13656540D01*
X16410395Y-13662778D01*
X16396203Y-13672346D01*
X16390280Y-13677757D01*
X16378920Y-13691652D01*
X16371011Y-13706836D01*
X16366499Y-13722867D01*
X16365332Y-13739301D01*
X16367457Y-13755697D01*
X16372822Y-13771612D01*
X16381374Y-13786602D01*
X16393060Y-13800227D01*
X16406119Y-13810889D01*
X16411559Y-13814964D01*
X16415401Y-13818472D01*
X16416785Y-13820573D01*
X16416060Y-13822863D01*
X16414000Y-13828336D01*
X16410775Y-13836567D01*
X16406552Y-13847131D01*
X16401502Y-13859605D01*
X16395795Y-13873564D01*
X16390185Y-13887167D01*
X16383997Y-13902120D01*
X16378264Y-13915977D01*
X16373164Y-13928311D01*
X16368873Y-13938696D01*
X16365565Y-13946708D01*
X16363418Y-13951919D01*
X16362622Y-13953865D01*
X16360743Y-13955842D01*
X16357107Y-13955836D01*
X16351248Y-13953744D01*
X16342697Y-13949461D01*
X16342629Y-13949425D01*
X16336191Y-13946101D01*
X16330986Y-13943680D01*
X16328051Y-13942640D01*
X16327922Y-13942631D01*
X16325712Y-13943685D01*
X16320835Y-13946618D01*
X16313833Y-13951083D01*
X16305251Y-13956731D01*
X16295739Y-13963146D01*
X16286054Y-13969641D01*
X16277325Y-13975290D01*
X16270118Y-13979742D01*
X16264998Y-13982649D01*
X16262553Y-13983662D01*
X16260301Y-13982331D01*
X16255774Y-13978611D01*
X16249424Y-13972913D01*
X16241704Y-13965645D01*
X16233065Y-13957217D01*
X16230240Y-13954402D01*
X16201029Y-13925142D01*
X16223263Y-13892510D01*
X16230020Y-13882490D01*
X16235951Y-13873496D01*
X16240722Y-13866051D01*
X16244001Y-13860675D01*
X16245455Y-13857889D01*
X16245497Y-13857691D01*
X16244731Y-13855065D01*
X16242669Y-13849784D01*
X16239668Y-13842731D01*
X16237562Y-13838009D01*
X16233625Y-13828969D01*
X16229916Y-13819837D01*
X16227041Y-13812120D01*
X16226260Y-13809769D01*
X16224042Y-13803492D01*
X16221873Y-13798641D01*
X16220681Y-13796808D01*
X16218052Y-13795686D01*
X16212314Y-13794095D01*
X16204212Y-13792217D01*
X16194489Y-13790230D01*
X16190138Y-13789413D01*
X16179090Y-13787383D01*
X16168492Y-13785417D01*
X16159380Y-13783709D01*
X16152791Y-13782452D01*
X16151550Y-13782209D01*
X16141292Y-13780184D01*
X16141292Y-13737470D01*
X16141315Y-13723425D01*
X16141410Y-13712798D01*
X16141614Y-13705101D01*
X16141966Y-13699846D01*
X16142504Y-13696543D01*
X16143267Y-13694704D01*
X16144291Y-13693841D01*
X16144711Y-13693681D01*
X16147247Y-13693113D01*
X16152848Y-13691979D01*
X16160796Y-13690418D01*
X16170371Y-13688565D01*
X16180853Y-13686557D01*
X16191523Y-13684531D01*
X16201661Y-13682625D01*
X16210548Y-13680974D01*
X16217464Y-13679716D01*
X16221689Y-13678987D01*
X16222629Y-13678862D01*
X16223481Y-13677176D01*
X16225366Y-13672687D01*
X16227932Y-13666243D01*
X16228912Y-13663719D01*
X16232865Y-13653969D01*
X16237519Y-13643196D01*
X16241688Y-13634117D01*
X16244755Y-13627175D01*
X16246796Y-13621471D01*
X16247477Y-13617978D01*
X16247368Y-13617509D01*
X16245928Y-13615299D01*
X16242641Y-13610383D01*
X16237859Y-13603285D01*
X16231935Y-13594528D01*
X16225221Y-13584636D01*
X16223894Y-13582683D01*
X16216105Y-13571114D01*
X16210379Y-13562304D01*
X16206488Y-13555849D01*
X16204204Y-13551341D01*
X16203299Y-13548376D01*
X16203545Y-13546548D01*
X16203551Y-13546537D01*
X16205483Y-13544136D01*
X16209755Y-13539495D01*
X16215905Y-13533094D01*
X16223470Y-13525414D01*
X16231986Y-13516938D01*
X16232946Y-13515992D01*
X16243679Y-13505599D01*
X16251961Y-13497967D01*
X16257960Y-13492957D01*
X16261842Y-13490427D01*
X16263552Y-13490100D01*
X16266047Y-13491525D01*
X16271225Y-13494816D01*
X16278552Y-13499621D01*
X16287492Y-13505589D01*
X16297511Y-13512369D01*
X16299850Y-13513964D01*
X16333059Y-13536642D01*
X16348056Y-13529835D01*
X16357177Y-13525868D01*
X16366967Y-13521879D01*
X16375383Y-13518698D01*
X16375754Y-13518567D01*
X16382337Y-13516158D01*
X16387412Y-13514120D01*
X16389884Y-13512894D01*
X16389888Y-13512890D01*
X16390673Y-13510673D01*
X16392007Y-13505222D01*
X16393757Y-13497148D01*
X16395792Y-13487065D01*
X16397978Y-13475586D01*
X16398157Y-13474618D01*
X16400350Y-13462790D01*
X16402364Y-13452054D01*
X16404068Y-13443092D01*
X16405333Y-13436585D01*
X16406028Y-13433217D01*
X16406041Y-13433165D01*
X16406464Y-13431732D01*
X16407287Y-13430651D01*
X16409003Y-13429871D01*
X16412106Y-13429343D01*
X16417088Y-13429018D01*
X16424442Y-13428847D01*
X16434663Y-13428781D01*
X16448242Y-13428769D01*
X16450000Y-13428769D01*
X16463988Y-13428778D01*
G37*
X16463988Y-13428778D02*
X16474561Y-13428835D01*
X16482213Y-13428992D01*
X16487437Y-13429297D01*
X16490726Y-13429800D01*
X16492574Y-13430549D01*
X16493473Y-13431594D01*
X16493916Y-13432985D01*
X16493959Y-13433165D01*
X16494633Y-13436414D01*
X16495881Y-13442825D01*
X16497572Y-13451715D01*
X16499577Y-13462402D01*
X16501766Y-13474203D01*
X16501843Y-13474618D01*
X16504036Y-13486183D01*
X16506088Y-13496401D01*
X16507866Y-13504660D01*
X16509238Y-13510346D01*
X16510072Y-13512846D01*
X16510112Y-13512890D01*
X16512568Y-13514111D01*
X16517631Y-13516146D01*
X16524209Y-13518554D01*
X16524246Y-13518567D01*
X16532532Y-13521682D01*
X16542300Y-13525649D01*
X16551508Y-13529638D01*
X16551943Y-13529835D01*
X16566941Y-13536642D01*
X16600150Y-13513964D01*
X16610337Y-13507050D01*
X16619566Y-13500870D01*
X16627300Y-13495773D01*
X16633006Y-13492113D01*
X16636149Y-13490239D01*
X16636448Y-13490100D01*
X16638732Y-13490719D01*
X16642998Y-13493703D01*
X16649413Y-13499195D01*
X16658142Y-13507333D01*
X16667053Y-13515992D01*
X16675644Y-13524525D01*
X16683333Y-13532311D01*
X16689656Y-13538870D01*
X16694152Y-13543720D01*
X16696358Y-13546382D01*
X16696440Y-13546519D01*
X16696683Y-13548346D01*
X16695765Y-13551329D01*
X16693457Y-13555872D01*
X16689534Y-13562377D01*
X16683767Y-13571247D01*
X16676079Y-13582666D01*
X16669257Y-13592716D01*
X16663158Y-13601730D01*
X16658136Y-13609185D01*
X16654542Y-13614556D01*
X16652729Y-13617322D01*
X16652615Y-13617509D01*
X16652836Y-13620159D01*
X16654514Y-13625309D01*
X16657314Y-13631985D01*
X16658312Y-13634117D01*
X16662667Y-13643616D01*
X16667313Y-13654394D01*
X16671088Y-13663719D01*
X16673807Y-13670641D01*
X16675967Y-13675901D01*
X16677216Y-13678650D01*
X16677371Y-13678862D01*
X16679667Y-13679212D01*
X16685079Y-13680174D01*
X16692887Y-13681609D01*
X16702372Y-13683381D01*
X16712814Y-13685352D01*
X16723494Y-13687387D01*
X16733693Y-13689349D01*
X16742689Y-13691099D01*
X16749765Y-13692502D01*
X16754201Y-13693421D01*
X16755288Y-13693681D01*
X16756412Y-13694322D01*
X16757260Y-13695770D01*
X16757871Y-13698513D01*
X16758283Y-13703041D01*
X16758534Y-13709842D01*
X16758662Y-13719405D01*
X16758705Y-13732218D01*
X16758708Y-13737470D01*
X16758708Y-13780184D01*
X16748450Y-13782209D01*
X16742743Y-13783307D01*
X16734227Y-13784909D01*
X16723937Y-13786823D01*
X16712910Y-13788855D01*
X16709861Y-13789413D01*
X16699685Y-13791392D01*
X16690820Y-13793337D01*
X16684011Y-13795070D01*
X16680000Y-13796409D01*
X16679332Y-13796808D01*
X16677692Y-13799634D01*
X16675340Y-13805111D01*
X16672732Y-13812159D01*
X16672214Y-13813677D01*
X16668796Y-13823090D01*
X16664552Y-13833710D01*
X16660400Y-13843247D01*
X16660379Y-13843292D01*
X16653464Y-13858252D01*
X16698951Y-13925162D01*
X16669750Y-13954412D01*
X16660918Y-13963117D01*
X16652862Y-13970791D01*
X16646036Y-13977024D01*
X16640891Y-13981406D01*
X16637879Y-13983527D01*
X16637447Y-13983662D01*
X16634911Y-13982602D01*
X16629736Y-13979655D01*
X16622487Y-13975170D01*
X16613729Y-13969498D01*
X16604261Y-13963146D01*
X16594652Y-13956667D01*
X16586084Y-13951029D01*
X16579102Y-13946579D01*
X16574249Y-13943664D01*
X16572078Y-13942631D01*
X16569429Y-13943505D01*
X16564406Y-13945809D01*
X16558045Y-13949063D01*
X16557371Y-13949425D01*
X16548805Y-13953721D01*
X16542931Y-13955828D01*
X16539277Y-13955850D01*
X16537373Y-13953893D01*
X16537362Y-13953865D01*
X16536410Y-13951547D01*
X16534140Y-13946044D01*
X16530728Y-13937782D01*
X16526350Y-13927187D01*
X16521182Y-13914685D01*
X16515399Y-13900702D01*
X16509799Y-13887164D01*
X16503645Y-13872223D01*
X16497994Y-13858383D01*
X16493016Y-13846067D01*
X16488881Y-13835700D01*
X16485757Y-13827706D01*
X16483814Y-13822509D01*
X16483215Y-13820569D01*
X16484717Y-13818344D01*
X16488644Y-13814798D01*
X16493881Y-13810889D01*
X16508794Y-13798524D01*
X16520451Y-13784352D01*
X16528712Y-13768670D01*
X16533437Y-13751777D01*
X16534486Y-13733972D01*
X16533723Y-13725754D01*
X16529568Y-13708703D01*
X16522412Y-13693646D01*
X16512699Y-13680731D01*
X16500873Y-13670106D01*
X16487378Y-13661921D01*
X16472657Y-13656323D01*
X16457154Y-13653461D01*
X16441314Y-13653484D01*
X16425579Y-13656540D01*
X16410395Y-13662778D01*
X16396203Y-13672346D01*
X16390280Y-13677757D01*
X16378920Y-13691652D01*
X16371011Y-13706836D01*
X16366499Y-13722867D01*
X16365332Y-13739301D01*
X16367457Y-13755697D01*
X16372822Y-13771612D01*
X16381374Y-13786602D01*
X16393060Y-13800227D01*
X16406119Y-13810889D01*
X16411559Y-13814964D01*
X16415401Y-13818472D01*
X16416785Y-13820573D01*
X16416060Y-13822863D01*
X16414000Y-13828336D01*
X16410775Y-13836567D01*
X16406552Y-13847131D01*
X16401502Y-13859605D01*
X16395795Y-13873564D01*
X16390185Y-13887167D01*
X16383997Y-13902120D01*
X16378264Y-13915977D01*
X16373164Y-13928311D01*
X16368873Y-13938696D01*
X16365565Y-13946708D01*
X16363418Y-13951919D01*
X16362622Y-13953865D01*
X16360743Y-13955842D01*
X16357107Y-13955836D01*
X16351248Y-13953744D01*
X16342697Y-13949461D01*
X16342629Y-13949425D01*
X16336191Y-13946101D01*
X16330986Y-13943680D01*
X16328051Y-13942640D01*
X16327922Y-13942631D01*
X16325712Y-13943685D01*
X16320835Y-13946618D01*
X16313833Y-13951083D01*
X16305251Y-13956731D01*
X16295739Y-13963146D01*
X16286054Y-13969641D01*
X16277325Y-13975290D01*
X16270118Y-13979742D01*
X16264998Y-13982649D01*
X16262553Y-13983662D01*
X16260301Y-13982331D01*
X16255774Y-13978611D01*
X16249424Y-13972913D01*
X16241704Y-13965645D01*
X16233065Y-13957217D01*
X16230240Y-13954402D01*
X16201029Y-13925142D01*
X16223263Y-13892510D01*
X16230020Y-13882490D01*
X16235951Y-13873496D01*
X16240722Y-13866051D01*
X16244001Y-13860675D01*
X16245455Y-13857889D01*
X16245497Y-13857691D01*
X16244731Y-13855065D01*
X16242669Y-13849784D01*
X16239668Y-13842731D01*
X16237562Y-13838009D01*
X16233625Y-13828969D01*
X16229916Y-13819837D01*
X16227041Y-13812120D01*
X16226260Y-13809769D01*
X16224042Y-13803492D01*
X16221873Y-13798641D01*
X16220681Y-13796808D01*
X16218052Y-13795686D01*
X16212314Y-13794095D01*
X16204212Y-13792217D01*
X16194489Y-13790230D01*
X16190138Y-13789413D01*
X16179090Y-13787383D01*
X16168492Y-13785417D01*
X16159380Y-13783709D01*
X16152791Y-13782452D01*
X16151550Y-13782209D01*
X16141292Y-13780184D01*
X16141292Y-13737470D01*
X16141315Y-13723425D01*
X16141410Y-13712798D01*
X16141614Y-13705101D01*
X16141966Y-13699846D01*
X16142504Y-13696543D01*
X16143267Y-13694704D01*
X16144291Y-13693841D01*
X16144711Y-13693681D01*
X16147247Y-13693113D01*
X16152848Y-13691979D01*
X16160796Y-13690418D01*
X16170371Y-13688565D01*
X16180853Y-13686557D01*
X16191523Y-13684531D01*
X16201661Y-13682625D01*
X16210548Y-13680974D01*
X16217464Y-13679716D01*
X16221689Y-13678987D01*
X16222629Y-13678862D01*
X16223481Y-13677176D01*
X16225366Y-13672687D01*
X16227932Y-13666243D01*
X16228912Y-13663719D01*
X16232865Y-13653969D01*
X16237519Y-13643196D01*
X16241688Y-13634117D01*
X16244755Y-13627175D01*
X16246796Y-13621471D01*
X16247477Y-13617978D01*
X16247368Y-13617509D01*
X16245928Y-13615299D01*
X16242641Y-13610383D01*
X16237859Y-13603285D01*
X16231935Y-13594528D01*
X16225221Y-13584636D01*
X16223894Y-13582683D01*
X16216105Y-13571114D01*
X16210379Y-13562304D01*
X16206488Y-13555849D01*
X16204204Y-13551341D01*
X16203299Y-13548376D01*
X16203545Y-13546548D01*
X16203551Y-13546537D01*
X16205483Y-13544136D01*
X16209755Y-13539495D01*
X16215905Y-13533094D01*
X16223470Y-13525414D01*
X16231986Y-13516938D01*
X16232946Y-13515992D01*
X16243679Y-13505599D01*
X16251961Y-13497967D01*
X16257960Y-13492957D01*
X16261842Y-13490427D01*
X16263552Y-13490100D01*
X16266047Y-13491525D01*
X16271225Y-13494816D01*
X16278552Y-13499621D01*
X16287492Y-13505589D01*
X16297511Y-13512369D01*
X16299850Y-13513964D01*
X16333059Y-13536642D01*
X16348056Y-13529835D01*
X16357177Y-13525868D01*
X16366967Y-13521879D01*
X16375383Y-13518698D01*
X16375754Y-13518567D01*
X16382337Y-13516158D01*
X16387412Y-13514120D01*
X16389884Y-13512894D01*
X16389888Y-13512890D01*
X16390673Y-13510673D01*
X16392007Y-13505222D01*
X16393757Y-13497148D01*
X16395792Y-13487065D01*
X16397978Y-13475586D01*
X16398157Y-13474618D01*
X16400350Y-13462790D01*
X16402364Y-13452054D01*
X16404068Y-13443092D01*
X16405333Y-13436585D01*
X16406028Y-13433217D01*
X16406041Y-13433165D01*
X16406464Y-13431732D01*
X16407287Y-13430651D01*
X16409003Y-13429871D01*
X16412106Y-13429343D01*
X16417088Y-13429018D01*
X16424442Y-13428847D01*
X16434663Y-13428781D01*
X16448242Y-13428769D01*
X16450000Y-13428769D01*
X16463988Y-13428778D01*
G36*
X16085687Y-14089468D02*
G01*
X16086061Y-14083090D01*
X16086591Y-14078558D01*
X16087326Y-14075355D01*
X16088314Y-14072967D01*
X16089605Y-14070876D01*
X16090158Y-14070090D01*
X16097497Y-14062659D01*
X16106776Y-14058447D01*
X16117510Y-14057272D01*
X16126889Y-14058450D01*
X16134354Y-14062173D01*
X16140943Y-14069026D01*
X16142758Y-14071565D01*
X16144734Y-14074887D01*
X16146017Y-14078494D01*
X16146751Y-14083310D01*
X16147081Y-14090254D01*
X16147154Y-14099421D01*
X16146826Y-14111983D01*
X16145688Y-14121415D01*
X16143504Y-14128452D01*
X16140042Y-14133829D01*
X16135067Y-14138279D01*
X16134701Y-14138542D01*
X16129798Y-14141238D01*
X16123894Y-14142571D01*
X16116386Y-14142900D01*
X16104179Y-14142900D01*
X16104174Y-14154750D01*
X16104061Y-14161349D01*
X16103369Y-14165220D01*
X16101560Y-14167542D01*
X16098096Y-14169493D01*
X16097264Y-14169892D01*
X16093372Y-14171760D01*
X16090358Y-14172940D01*
X16088117Y-14173042D01*
X16086543Y-14171676D01*
X16085530Y-14168452D01*
X16084972Y-14162980D01*
X16084763Y-14154871D01*
X16084798Y-14143734D01*
X16084970Y-14129180D01*
X16085024Y-14124827D01*
X16085217Y-14109820D01*
X16085390Y-14100004D01*
X16104169Y-14100004D01*
X16104275Y-14108336D01*
X16104744Y-14113788D01*
X16105805Y-14117384D01*
X16107687Y-14120148D01*
X16108965Y-14121496D01*
X16114189Y-14125442D01*
X16118814Y-14125763D01*
X16123587Y-14122505D01*
X16123708Y-14122385D01*
X16125649Y-14119867D01*
X16126831Y-14116445D01*
X16127426Y-14111175D01*
X16127612Y-14103113D01*
X16127615Y-14101327D01*
X16127167Y-14090217D01*
X16125707Y-14082516D01*
X16123065Y-14077815D01*
X16119068Y-14075705D01*
X16116758Y-14075492D01*
X16111276Y-14076490D01*
X16107516Y-14079775D01*
X16105252Y-14085786D01*
X16104261Y-14094960D01*
X16104169Y-14100004D01*
X16085390Y-14100004D01*
X16085422Y-14098206D01*
X16085687Y-14089468D01*
G37*
X16085687Y-14089468D02*
X16086061Y-14083090D01*
X16086591Y-14078558D01*
X16087326Y-14075355D01*
X16088314Y-14072967D01*
X16089605Y-14070876D01*
X16090158Y-14070090D01*
X16097497Y-14062659D01*
X16106776Y-14058447D01*
X16117510Y-14057272D01*
X16126889Y-14058450D01*
X16134354Y-14062173D01*
X16140943Y-14069026D01*
X16142758Y-14071565D01*
X16144734Y-14074887D01*
X16146017Y-14078494D01*
X16146751Y-14083310D01*
X16147081Y-14090254D01*
X16147154Y-14099421D01*
X16146826Y-14111983D01*
X16145688Y-14121415D01*
X16143504Y-14128452D01*
X16140042Y-14133829D01*
X16135067Y-14138279D01*
X16134701Y-14138542D01*
X16129798Y-14141238D01*
X16123894Y-14142571D01*
X16116386Y-14142900D01*
X16104179Y-14142900D01*
X16104174Y-14154750D01*
X16104061Y-14161349D01*
X16103369Y-14165220D01*
X16101560Y-14167542D01*
X16098096Y-14169493D01*
X16097264Y-14169892D01*
X16093372Y-14171760D01*
X16090358Y-14172940D01*
X16088117Y-14173042D01*
X16086543Y-14171676D01*
X16085530Y-14168452D01*
X16084972Y-14162980D01*
X16084763Y-14154871D01*
X16084798Y-14143734D01*
X16084970Y-14129180D01*
X16085024Y-14124827D01*
X16085217Y-14109820D01*
X16085390Y-14100004D01*
X16104169Y-14100004D01*
X16104275Y-14108336D01*
X16104744Y-14113788D01*
X16105805Y-14117384D01*
X16107687Y-14120148D01*
X16108965Y-14121496D01*
X16114189Y-14125442D01*
X16118814Y-14125763D01*
X16123587Y-14122505D01*
X16123708Y-14122385D01*
X16125649Y-14119867D01*
X16126831Y-14116445D01*
X16127426Y-14111175D01*
X16127612Y-14103113D01*
X16127615Y-14101327D01*
X16127167Y-14090217D01*
X16125707Y-14082516D01*
X16123065Y-14077815D01*
X16119068Y-14075705D01*
X16116758Y-14075492D01*
X16111276Y-14076490D01*
X16107516Y-14079775D01*
X16105252Y-14085786D01*
X16104261Y-14094960D01*
X16104169Y-14100004D01*
X16085390Y-14100004D01*
X16085422Y-14098206D01*
X16085687Y-14089468D01*
G36*
X16836103Y-14082071D02*
G01*
X16837946Y-14075517D01*
X16840936Y-14070691D01*
X16845308Y-14066877D01*
X16847214Y-14065644D01*
X16855873Y-14062434D01*
X16865352Y-14062232D01*
X16874522Y-14064784D01*
X16882253Y-14069836D01*
X16885981Y-14074359D01*
X16888935Y-14082566D01*
X16889170Y-14089061D01*
X16888639Y-14097744D01*
X16868612Y-14106510D01*
X16858874Y-14110989D01*
X16852511Y-14114591D01*
X16849203Y-14117712D01*
X16848628Y-14120744D01*
X16850466Y-14124080D01*
X16852492Y-14126292D01*
X16858389Y-14129839D01*
X16864802Y-14130088D01*
X16870693Y-14127323D01*
X16875020Y-14121832D01*
X16875794Y-14119893D01*
X16879501Y-14113836D01*
X16883765Y-14111255D01*
X16889615Y-14109047D01*
X16889615Y-14117418D01*
X16889098Y-14123115D01*
X16887072Y-14127919D01*
X16882826Y-14133435D01*
X16882195Y-14134151D01*
X16877472Y-14139058D01*
X16873412Y-14141692D01*
X16868333Y-14142903D01*
X16864122Y-14143300D01*
X16856590Y-14143399D01*
X16851229Y-14142147D01*
X16847884Y-14140287D01*
X16842627Y-14136197D01*
X16838988Y-14131775D01*
X16836685Y-14126213D01*
X16835436Y-14118705D01*
X16834959Y-14108445D01*
X16834921Y-14103238D01*
X16835050Y-14096995D01*
X16846847Y-14096995D01*
X16846984Y-14100344D01*
X16847325Y-14100892D01*
X16849575Y-14100147D01*
X16854418Y-14098175D01*
X16860891Y-14095372D01*
X16862244Y-14094769D01*
X16870424Y-14090610D01*
X16874931Y-14086954D01*
X16875922Y-14083530D01*
X16873553Y-14080065D01*
X16871596Y-14078534D01*
X16864536Y-14075472D01*
X16857928Y-14075978D01*
X16852396Y-14079715D01*
X16848564Y-14086347D01*
X16847335Y-14091612D01*
X16846847Y-14096995D01*
X16835050Y-14096995D01*
X16835173Y-14091072D01*
X16836103Y-14082071D01*
G37*
X16836103Y-14082071D02*
X16837946Y-14075517D01*
X16840936Y-14070691D01*
X16845308Y-14066877D01*
X16847214Y-14065644D01*
X16855873Y-14062434D01*
X16865352Y-14062232D01*
X16874522Y-14064784D01*
X16882253Y-14069836D01*
X16885981Y-14074359D01*
X16888935Y-14082566D01*
X16889170Y-14089061D01*
X16888639Y-14097744D01*
X16868612Y-14106510D01*
X16858874Y-14110989D01*
X16852511Y-14114591D01*
X16849203Y-14117712D01*
X16848628Y-14120744D01*
X16850466Y-14124080D01*
X16852492Y-14126292D01*
X16858389Y-14129839D01*
X16864802Y-14130088D01*
X16870693Y-14127323D01*
X16875020Y-14121832D01*
X16875794Y-14119893D01*
X16879501Y-14113836D01*
X16883765Y-14111255D01*
X16889615Y-14109047D01*
X16889615Y-14117418D01*
X16889098Y-14123115D01*
X16887072Y-14127919D01*
X16882826Y-14133435D01*
X16882195Y-14134151D01*
X16877472Y-14139058D01*
X16873412Y-14141692D01*
X16868333Y-14142903D01*
X16864122Y-14143300D01*
X16856590Y-14143399D01*
X16851229Y-14142147D01*
X16847884Y-14140287D01*
X16842627Y-14136197D01*
X16838988Y-14131775D01*
X16836685Y-14126213D01*
X16835436Y-14118705D01*
X16834959Y-14108445D01*
X16834921Y-14103238D01*
X16835050Y-14096995D01*
X16846847Y-14096995D01*
X16846984Y-14100344D01*
X16847325Y-14100892D01*
X16849575Y-14100147D01*
X16854418Y-14098175D01*
X16860891Y-14095372D01*
X16862244Y-14094769D01*
X16870424Y-14090610D01*
X16874931Y-14086954D01*
X16875922Y-14083530D01*
X16873553Y-14080065D01*
X16871596Y-14078534D01*
X16864536Y-14075472D01*
X16857928Y-14075978D01*
X16852396Y-14079715D01*
X16848564Y-14086347D01*
X16847335Y-14091612D01*
X16846847Y-14096995D01*
X16835050Y-14096995D01*
X16835173Y-14091072D01*
X16836103Y-14082071D01*
G36*
X16277166Y-14059509D02*
G01*
X16283437Y-14063136D01*
X16287796Y-14066736D01*
X16290984Y-14070507D01*
X16293181Y-14075120D01*
X16294565Y-14081242D01*
X16295315Y-14089543D01*
X16295612Y-14100692D01*
X16295646Y-14108706D01*
X16295646Y-14138206D01*
X16279038Y-14145651D01*
X16278061Y-14113340D01*
X16277658Y-14101273D01*
X16277234Y-14092514D01*
X16276710Y-14086465D01*
X16276002Y-14082527D01*
X16275031Y-14080101D01*
X16273714Y-14078588D01*
X16273292Y-14078261D01*
X16266891Y-14075703D01*
X16260421Y-14076715D01*
X16256569Y-14079400D01*
X16255002Y-14081302D01*
X16253918Y-14083799D01*
X16253229Y-14087583D01*
X16252848Y-14093350D01*
X16252688Y-14101793D01*
X16252661Y-14110593D01*
X16252656Y-14121632D01*
X16252467Y-14129446D01*
X16251834Y-14134716D01*
X16250498Y-14138124D01*
X16248198Y-14140351D01*
X16244675Y-14142079D01*
X16239970Y-14143874D01*
X16234830Y-14145828D01*
X16235442Y-14111148D01*
X16235688Y-14098647D01*
X16235977Y-14089408D01*
X16236390Y-14082788D01*
X16237011Y-14078142D01*
X16237923Y-14074826D01*
X16239208Y-14072194D01*
X16240758Y-14069873D01*
X16248237Y-14062457D01*
X16257363Y-14058168D01*
X16267288Y-14057141D01*
X16277166Y-14059509D01*
G37*
X16277166Y-14059509D02*
X16283437Y-14063136D01*
X16287796Y-14066736D01*
X16290984Y-14070507D01*
X16293181Y-14075120D01*
X16294565Y-14081242D01*
X16295315Y-14089543D01*
X16295612Y-14100692D01*
X16295646Y-14108706D01*
X16295646Y-14138206D01*
X16279038Y-14145651D01*
X16278061Y-14113340D01*
X16277658Y-14101273D01*
X16277234Y-14092514D01*
X16276710Y-14086465D01*
X16276002Y-14082527D01*
X16275031Y-14080101D01*
X16273714Y-14078588D01*
X16273292Y-14078261D01*
X16266891Y-14075703D01*
X16260421Y-14076715D01*
X16256569Y-14079400D01*
X16255002Y-14081302D01*
X16253918Y-14083799D01*
X16253229Y-14087583D01*
X16252848Y-14093350D01*
X16252688Y-14101793D01*
X16252661Y-14110593D01*
X16252656Y-14121632D01*
X16252467Y-14129446D01*
X16251834Y-14134716D01*
X16250498Y-14138124D01*
X16248198Y-14140351D01*
X16244675Y-14142079D01*
X16239970Y-14143874D01*
X16234830Y-14145828D01*
X16235442Y-14111148D01*
X16235688Y-14098647D01*
X16235977Y-14089408D01*
X16236390Y-14082788D01*
X16237011Y-14078142D01*
X16237923Y-14074826D01*
X16239208Y-14072194D01*
X16240758Y-14069873D01*
X16248237Y-14062457D01*
X16257363Y-14058168D01*
X16267288Y-14057141D01*
X16277166Y-14059509D01*
G36*
X16738733Y-14063353D02*
G01*
X16744359Y-14065912D01*
X16748775Y-14069012D01*
X16752010Y-14072479D01*
X16754244Y-14076952D01*
X16755655Y-14083069D01*
X16756421Y-14091470D01*
X16756722Y-14102794D01*
X16756754Y-14110251D01*
X16756754Y-14139342D01*
X16751777Y-14141609D01*
X16747858Y-14143267D01*
X16745916Y-14143877D01*
X16745544Y-14142061D01*
X16745249Y-14137165D01*
X16745069Y-14130015D01*
X16745031Y-14124338D01*
X16744866Y-14116137D01*
X16744422Y-14109631D01*
X16743774Y-14105647D01*
X16743259Y-14104800D01*
X16739798Y-14105665D01*
X16734364Y-14107882D01*
X16728072Y-14110889D01*
X16722037Y-14114119D01*
X16717372Y-14117010D01*
X16715193Y-14118996D01*
X16715184Y-14119017D01*
X16715371Y-14122693D01*
X16717052Y-14126203D01*
X16720004Y-14129053D01*
X16724312Y-14130006D01*
X16727993Y-14129895D01*
X16733207Y-14129813D01*
X16735944Y-14131035D01*
X16737588Y-14134262D01*
X16737795Y-14134871D01*
X16738508Y-14139474D01*
X16736602Y-14142269D01*
X16731635Y-14143601D01*
X16726270Y-14143847D01*
X16716614Y-14142021D01*
X16711616Y-14139413D01*
X16705443Y-14133287D01*
X16702169Y-14125767D01*
X16701875Y-14117821D01*
X16704642Y-14110417D01*
X16708805Y-14105777D01*
X16712960Y-14103179D01*
X16719492Y-14099891D01*
X16727104Y-14096556D01*
X16728373Y-14096046D01*
X16736733Y-14092356D01*
X16741553Y-14089105D01*
X16743103Y-14085872D01*
X16741655Y-14082239D01*
X16739169Y-14079400D01*
X16733294Y-14075904D01*
X16726829Y-14075642D01*
X16720901Y-14078336D01*
X16716634Y-14083709D01*
X16716074Y-14085095D01*
X16712813Y-14090194D01*
X16708053Y-14093979D01*
X16702046Y-14097085D01*
X16702046Y-14088277D01*
X16702400Y-14082895D01*
X16703916Y-14078653D01*
X16707277Y-14074128D01*
X16710503Y-14070642D01*
X16715521Y-14065706D01*
X16719419Y-14063055D01*
X16723606Y-14061991D01*
X16728346Y-14061815D01*
X16738733Y-14063353D01*
G37*
X16738733Y-14063353D02*
X16744359Y-14065912D01*
X16748775Y-14069012D01*
X16752010Y-14072479D01*
X16754244Y-14076952D01*
X16755655Y-14083069D01*
X16756421Y-14091470D01*
X16756722Y-14102794D01*
X16756754Y-14110251D01*
X16756754Y-14139342D01*
X16751777Y-14141609D01*
X16747858Y-14143267D01*
X16745916Y-14143877D01*
X16745544Y-14142061D01*
X16745249Y-14137165D01*
X16745069Y-14130015D01*
X16745031Y-14124338D01*
X16744866Y-14116137D01*
X16744422Y-14109631D01*
X16743774Y-14105647D01*
X16743259Y-14104800D01*
X16739798Y-14105665D01*
X16734364Y-14107882D01*
X16728072Y-14110889D01*
X16722037Y-14114119D01*
X16717372Y-14117010D01*
X16715193Y-14118996D01*
X16715184Y-14119017D01*
X16715371Y-14122693D01*
X16717052Y-14126203D01*
X16720004Y-14129053D01*
X16724312Y-14130006D01*
X16727993Y-14129895D01*
X16733207Y-14129813D01*
X16735944Y-14131035D01*
X16737588Y-14134262D01*
X16737795Y-14134871D01*
X16738508Y-14139474D01*
X16736602Y-14142269D01*
X16731635Y-14143601D01*
X16726270Y-14143847D01*
X16716614Y-14142021D01*
X16711616Y-14139413D01*
X16705443Y-14133287D01*
X16702169Y-14125767D01*
X16701875Y-14117821D01*
X16704642Y-14110417D01*
X16708805Y-14105777D01*
X16712960Y-14103179D01*
X16719492Y-14099891D01*
X16727104Y-14096556D01*
X16728373Y-14096046D01*
X16736733Y-14092356D01*
X16741553Y-14089105D01*
X16743103Y-14085872D01*
X16741655Y-14082239D01*
X16739169Y-14079400D01*
X16733294Y-14075904D01*
X16726829Y-14075642D01*
X16720901Y-14078336D01*
X16716634Y-14083709D01*
X16716074Y-14085095D01*
X16712813Y-14090194D01*
X16708053Y-14093979D01*
X16702046Y-14097085D01*
X16702046Y-14088277D01*
X16702400Y-14082895D01*
X16703916Y-14078653D01*
X16707277Y-14074128D01*
X16710503Y-14070642D01*
X16715521Y-14065706D01*
X16719419Y-14063055D01*
X16723606Y-14061991D01*
X16728346Y-14061815D01*
X16738733Y-14063353D01*
G36*
X16455350Y-14062630D02*
G01*
X16463006Y-14065473D01*
X16463094Y-14065528D01*
X16467828Y-14069013D01*
X16471324Y-14073085D01*
X16473782Y-14078392D01*
X16475406Y-14085581D01*
X16476397Y-14095299D01*
X16476959Y-14108193D01*
X16477008Y-14110030D01*
X16477714Y-14137729D01*
X16471769Y-14140803D01*
X16467468Y-14142880D01*
X16464871Y-14143865D01*
X16464751Y-14143877D01*
X16464301Y-14142061D01*
X16463944Y-14137161D01*
X16463725Y-14130003D01*
X16463677Y-14124207D01*
X16463676Y-14114817D01*
X16463247Y-14108920D01*
X16461750Y-14106108D01*
X16458548Y-14105971D01*
X16453001Y-14108100D01*
X16444627Y-14112014D01*
X16438469Y-14115264D01*
X16435302Y-14118084D01*
X16434371Y-14121158D01*
X16434369Y-14121310D01*
X16435906Y-14126605D01*
X16440455Y-14129466D01*
X16447417Y-14129880D01*
X16452431Y-14129808D01*
X16455075Y-14131253D01*
X16456724Y-14134722D01*
X16457673Y-14139142D01*
X16456306Y-14141649D01*
X16455791Y-14142008D01*
X16450942Y-14143450D01*
X16444153Y-14143654D01*
X16437161Y-14142698D01*
X16432207Y-14140952D01*
X16425357Y-14135136D01*
X16421463Y-14127041D01*
X16420692Y-14120716D01*
X16421281Y-14115011D01*
X16423410Y-14110354D01*
X16427626Y-14106218D01*
X16434476Y-14102075D01*
X16444504Y-14097399D01*
X16445115Y-14097135D01*
X16454149Y-14092962D01*
X16459723Y-14089539D01*
X16462113Y-14086463D01*
X16461591Y-14083331D01*
X16458433Y-14079738D01*
X16457488Y-14078912D01*
X16451162Y-14075706D01*
X16444606Y-14075841D01*
X16438897Y-14078984D01*
X16435109Y-14084802D01*
X16434757Y-14085945D01*
X16431330Y-14091484D01*
X16426981Y-14094152D01*
X16420692Y-14096796D01*
X16420692Y-14089955D01*
X16422605Y-14080011D01*
X16428283Y-14070890D01*
X16431238Y-14067839D01*
X16437954Y-14063923D01*
X16446496Y-14062150D01*
X16455350Y-14062630D01*
G37*
X16455350Y-14062630D02*
X16463006Y-14065473D01*
X16463094Y-14065528D01*
X16467828Y-14069013D01*
X16471324Y-14073085D01*
X16473782Y-14078392D01*
X16475406Y-14085581D01*
X16476397Y-14095299D01*
X16476959Y-14108193D01*
X16477008Y-14110030D01*
X16477714Y-14137729D01*
X16471769Y-14140803D01*
X16467468Y-14142880D01*
X16464871Y-14143865D01*
X16464751Y-14143877D01*
X16464301Y-14142061D01*
X16463944Y-14137161D01*
X16463725Y-14130003D01*
X16463677Y-14124207D01*
X16463676Y-14114817D01*
X16463247Y-14108920D01*
X16461750Y-14106108D01*
X16458548Y-14105971D01*
X16453001Y-14108100D01*
X16444627Y-14112014D01*
X16438469Y-14115264D01*
X16435302Y-14118084D01*
X16434371Y-14121158D01*
X16434369Y-14121310D01*
X16435906Y-14126605D01*
X16440455Y-14129466D01*
X16447417Y-14129880D01*
X16452431Y-14129808D01*
X16455075Y-14131253D01*
X16456724Y-14134722D01*
X16457673Y-14139142D01*
X16456306Y-14141649D01*
X16455791Y-14142008D01*
X16450942Y-14143450D01*
X16444153Y-14143654D01*
X16437161Y-14142698D01*
X16432207Y-14140952D01*
X16425357Y-14135136D01*
X16421463Y-14127041D01*
X16420692Y-14120716D01*
X16421281Y-14115011D01*
X16423410Y-14110354D01*
X16427626Y-14106218D01*
X16434476Y-14102075D01*
X16444504Y-14097399D01*
X16445115Y-14097135D01*
X16454149Y-14092962D01*
X16459723Y-14089539D01*
X16462113Y-14086463D01*
X16461591Y-14083331D01*
X16458433Y-14079738D01*
X16457488Y-14078912D01*
X16451162Y-14075706D01*
X16444606Y-14075841D01*
X16438897Y-14078984D01*
X16435109Y-14084802D01*
X16434757Y-14085945D01*
X16431330Y-14091484D01*
X16426981Y-14094152D01*
X16420692Y-14096796D01*
X16420692Y-14089955D01*
X16422605Y-14080011D01*
X16428283Y-14070890D01*
X16431238Y-14067839D01*
X16437954Y-14063923D01*
X16446496Y-14062150D01*
X16455350Y-14062630D01*
G36*
X16807081Y-14063678D02*
G01*
X16809416Y-14064699D01*
X16814990Y-14069113D01*
X16819757Y-14075497D01*
X16822705Y-14082309D01*
X16823185Y-14085667D01*
X16821576Y-14090356D01*
X16818048Y-14092836D01*
X16814264Y-14094339D01*
X16812532Y-14094615D01*
X16811689Y-14092607D01*
X16810023Y-14088235D01*
X16809292Y-14086260D01*
X16805195Y-14079427D01*
X16799262Y-14076019D01*
X16791655Y-14076124D01*
X16791092Y-14076258D01*
X16787031Y-14078184D01*
X16784045Y-14081937D01*
X16782006Y-14087981D01*
X16780784Y-14096775D01*
X16780250Y-14108781D01*
X16780200Y-14115170D01*
X16780175Y-14125240D01*
X16780013Y-14132105D01*
X16779580Y-14136467D01*
X16778745Y-14139028D01*
X16777377Y-14140490D01*
X16775341Y-14141556D01*
X16775223Y-14141609D01*
X16771304Y-14143267D01*
X16769362Y-14143877D01*
X16769063Y-14142032D01*
X16768808Y-14136932D01*
X16768614Y-14129231D01*
X16768500Y-14119580D01*
X16768477Y-14112518D01*
X16768593Y-14098852D01*
X16769048Y-14088485D01*
X16770000Y-14080811D01*
X16771608Y-14075225D01*
X16774031Y-14071121D01*
X16777429Y-14067895D01*
X16780783Y-14065644D01*
X16788850Y-14062648D01*
X16798238Y-14061972D01*
X16807081Y-14063678D01*
G37*
X16807081Y-14063678D02*
X16809416Y-14064699D01*
X16814990Y-14069113D01*
X16819757Y-14075497D01*
X16822705Y-14082309D01*
X16823185Y-14085667D01*
X16821576Y-14090356D01*
X16818048Y-14092836D01*
X16814264Y-14094339D01*
X16812532Y-14094615D01*
X16811689Y-14092607D01*
X16810023Y-14088235D01*
X16809292Y-14086260D01*
X16805195Y-14079427D01*
X16799262Y-14076019D01*
X16791655Y-14076124D01*
X16791092Y-14076258D01*
X16787031Y-14078184D01*
X16784045Y-14081937D01*
X16782006Y-14087981D01*
X16780784Y-14096775D01*
X16780250Y-14108781D01*
X16780200Y-14115170D01*
X16780175Y-14125240D01*
X16780013Y-14132105D01*
X16779580Y-14136467D01*
X16778745Y-14139028D01*
X16777377Y-14140490D01*
X16775341Y-14141556D01*
X16775223Y-14141609D01*
X16771304Y-14143267D01*
X16769362Y-14143877D01*
X16769063Y-14142032D01*
X16768808Y-14136932D01*
X16768614Y-14129231D01*
X16768500Y-14119580D01*
X16768477Y-14112518D01*
X16768593Y-14098852D01*
X16769048Y-14088485D01*
X16770000Y-14080811D01*
X16771608Y-14075225D01*
X16774031Y-14071121D01*
X16777429Y-14067895D01*
X16780783Y-14065644D01*
X16788850Y-14062648D01*
X16798238Y-14061972D01*
X16807081Y-14063678D01*
G36*
X16163478Y-14074105D02*
G01*
X16168042Y-14067521D01*
X16176280Y-14060868D01*
X16185355Y-14057568D01*
X16194618Y-14057357D01*
X16203425Y-14059974D01*
X16211129Y-14065157D01*
X16217082Y-14072641D01*
X16220638Y-14082165D01*
X16221357Y-14089176D01*
X16221275Y-14092101D01*
X16220591Y-14094341D01*
X16218711Y-14096347D01*
X16215041Y-14098573D01*
X16208986Y-14101471D01*
X16199953Y-14105493D01*
X16199908Y-14105513D01*
X16191593Y-14109321D01*
X16184775Y-14112702D01*
X16180150Y-14115293D01*
X16178416Y-14116729D01*
X16178415Y-14116741D01*
X16179944Y-14119868D01*
X16183520Y-14123316D01*
X16187624Y-14125799D01*
X16189704Y-14126292D01*
X16195377Y-14124586D01*
X16200263Y-14120313D01*
X16202646Y-14115615D01*
X16204940Y-14112152D01*
X16209432Y-14108208D01*
X16214712Y-14104801D01*
X16219371Y-14102948D01*
X16220345Y-14102846D01*
X16221442Y-14104521D01*
X16221508Y-14108804D01*
X16220702Y-14114578D01*
X16219183Y-14120729D01*
X16217109Y-14126141D01*
X16217004Y-14126351D01*
X16210762Y-14135066D01*
X16202673Y-14140994D01*
X16193486Y-14143903D01*
X16183951Y-14143563D01*
X16174820Y-14139743D01*
X16174414Y-14139474D01*
X16167231Y-14132964D01*
X16162507Y-14124470D01*
X16159893Y-14113302D01*
X16159543Y-14110164D01*
X16158921Y-14095354D01*
X16159666Y-14088447D01*
X16178415Y-14088447D01*
X16178659Y-14092755D01*
X16179991Y-14094013D01*
X16183313Y-14093072D01*
X16188549Y-14090848D01*
X16194402Y-14088061D01*
X16194548Y-14087987D01*
X16199509Y-14085378D01*
X16201500Y-14083636D01*
X16201009Y-14081811D01*
X16198942Y-14079412D01*
X16193682Y-14075941D01*
X16188018Y-14075686D01*
X16182937Y-14078212D01*
X16179428Y-14083085D01*
X16178415Y-14088447D01*
X16159666Y-14088447D01*
X16160199Y-14083504D01*
X16163478Y-14074105D01*
G37*
X16163478Y-14074105D02*
X16168042Y-14067521D01*
X16176280Y-14060868D01*
X16185355Y-14057568D01*
X16194618Y-14057357D01*
X16203425Y-14059974D01*
X16211129Y-14065157D01*
X16217082Y-14072641D01*
X16220638Y-14082165D01*
X16221357Y-14089176D01*
X16221275Y-14092101D01*
X16220591Y-14094341D01*
X16218711Y-14096347D01*
X16215041Y-14098573D01*
X16208986Y-14101471D01*
X16199953Y-14105493D01*
X16199908Y-14105513D01*
X16191593Y-14109321D01*
X16184775Y-14112702D01*
X16180150Y-14115293D01*
X16178416Y-14116729D01*
X16178415Y-14116741D01*
X16179944Y-14119868D01*
X16183520Y-14123316D01*
X16187624Y-14125799D01*
X16189704Y-14126292D01*
X16195377Y-14124586D01*
X16200263Y-14120313D01*
X16202646Y-14115615D01*
X16204940Y-14112152D01*
X16209432Y-14108208D01*
X16214712Y-14104801D01*
X16219371Y-14102948D01*
X16220345Y-14102846D01*
X16221442Y-14104521D01*
X16221508Y-14108804D01*
X16220702Y-14114578D01*
X16219183Y-14120729D01*
X16217109Y-14126141D01*
X16217004Y-14126351D01*
X16210762Y-14135066D01*
X16202673Y-14140994D01*
X16193486Y-14143903D01*
X16183951Y-14143563D01*
X16174820Y-14139743D01*
X16174414Y-14139474D01*
X16167231Y-14132964D01*
X16162507Y-14124470D01*
X16159893Y-14113302D01*
X16159543Y-14110164D01*
X16158921Y-14095354D01*
X16159666Y-14088447D01*
X16178415Y-14088447D01*
X16178659Y-14092755D01*
X16179991Y-14094013D01*
X16183313Y-14093072D01*
X16188549Y-14090848D01*
X16194402Y-14088061D01*
X16194548Y-14087987D01*
X16199509Y-14085378D01*
X16201500Y-14083636D01*
X16201009Y-14081811D01*
X16198942Y-14079412D01*
X16193682Y-14075941D01*
X16188018Y-14075686D01*
X16182937Y-14078212D01*
X16179428Y-14083085D01*
X16178415Y-14088447D01*
X16159666Y-14088447D01*
X16160199Y-14083504D01*
X16163478Y-14074105D01*
G36*
X16555636Y-14081358D02*
G01*
X16558653Y-14074427D01*
X16563363Y-14069021D01*
X16567031Y-14066250D01*
X16573699Y-14063257D01*
X16581427Y-14061868D01*
X16588611Y-14062240D01*
X16592631Y-14063740D01*
X16594208Y-14064167D01*
X16595255Y-14062575D01*
X16595986Y-14058309D01*
X16596538Y-14051811D01*
X16597144Y-14044573D01*
X16597984Y-14040219D01*
X16599514Y-14037729D01*
X16602186Y-14036084D01*
X16603865Y-14035356D01*
X16610215Y-14032696D01*
X16610208Y-14078029D01*
X16610183Y-14092632D01*
X16610087Y-14103865D01*
X16609879Y-14112268D01*
X16609519Y-14118377D01*
X16608966Y-14122731D01*
X16608180Y-14125868D01*
X16607121Y-14128326D01*
X16606318Y-14129729D01*
X16599673Y-14137339D01*
X16591247Y-14142108D01*
X16581925Y-14143820D01*
X16572590Y-14142255D01*
X16567031Y-14139442D01*
X16561196Y-14134576D01*
X16557219Y-14128633D01*
X16554819Y-14120851D01*
X16553716Y-14110465D01*
X16553560Y-14102846D01*
X16553581Y-14102299D01*
X16567231Y-14102299D01*
X16567314Y-14111035D01*
X16567696Y-14116819D01*
X16568575Y-14120603D01*
X16570147Y-14123340D01*
X16572027Y-14125404D01*
X16578337Y-14129389D01*
X16585114Y-14129729D01*
X16591518Y-14126402D01*
X16592016Y-14125952D01*
X16594144Y-14123607D01*
X16595478Y-14120817D01*
X16596200Y-14116664D01*
X16596492Y-14110232D01*
X16596538Y-14103120D01*
X16596438Y-14094186D01*
X16596024Y-14088226D01*
X16595124Y-14084309D01*
X16593567Y-14081504D01*
X16592290Y-14080014D01*
X16586360Y-14076257D01*
X16579530Y-14075806D01*
X16573011Y-14078675D01*
X16571753Y-14079741D01*
X16569611Y-14082106D01*
X16568274Y-14084925D01*
X16567557Y-14089124D01*
X16567272Y-14095632D01*
X16567231Y-14102299D01*
X16553581Y-14102299D01*
X16554032Y-14090576D01*
X16555636Y-14081358D01*
G37*
X16555636Y-14081358D02*
X16558653Y-14074427D01*
X16563363Y-14069021D01*
X16567031Y-14066250D01*
X16573699Y-14063257D01*
X16581427Y-14061868D01*
X16588611Y-14062240D01*
X16592631Y-14063740D01*
X16594208Y-14064167D01*
X16595255Y-14062575D01*
X16595986Y-14058309D01*
X16596538Y-14051811D01*
X16597144Y-14044573D01*
X16597984Y-14040219D01*
X16599514Y-14037729D01*
X16602186Y-14036084D01*
X16603865Y-14035356D01*
X16610215Y-14032696D01*
X16610208Y-14078029D01*
X16610183Y-14092632D01*
X16610087Y-14103865D01*
X16609879Y-14112268D01*
X16609519Y-14118377D01*
X16608966Y-14122731D01*
X16608180Y-14125868D01*
X16607121Y-14128326D01*
X16606318Y-14129729D01*
X16599673Y-14137339D01*
X16591247Y-14142108D01*
X16581925Y-14143820D01*
X16572590Y-14142255D01*
X16567031Y-14139442D01*
X16561196Y-14134576D01*
X16557219Y-14128633D01*
X16554819Y-14120851D01*
X16553716Y-14110465D01*
X16553560Y-14102846D01*
X16553581Y-14102299D01*
X16567231Y-14102299D01*
X16567314Y-14111035D01*
X16567696Y-14116819D01*
X16568575Y-14120603D01*
X16570147Y-14123340D01*
X16572027Y-14125404D01*
X16578337Y-14129389D01*
X16585114Y-14129729D01*
X16591518Y-14126402D01*
X16592016Y-14125952D01*
X16594144Y-14123607D01*
X16595478Y-14120817D01*
X16596200Y-14116664D01*
X16596492Y-14110232D01*
X16596538Y-14103120D01*
X16596438Y-14094186D01*
X16596024Y-14088226D01*
X16595124Y-14084309D01*
X16593567Y-14081504D01*
X16592290Y-14080014D01*
X16586360Y-14076257D01*
X16579530Y-14075806D01*
X16573011Y-14078675D01*
X16571753Y-14079741D01*
X16569611Y-14082106D01*
X16568274Y-14084925D01*
X16567557Y-14089124D01*
X16567272Y-14095632D01*
X16567231Y-14102299D01*
X16553581Y-14102299D01*
X16554032Y-14090576D01*
X16555636Y-14081358D01*
G36*
X16689593Y-14063666D02*
G01*
X16689891Y-14068807D01*
X16690125Y-14076619D01*
X16690275Y-14086486D01*
X16690323Y-14096834D01*
X16690323Y-14131853D01*
X16684140Y-14138036D01*
X16679879Y-14141846D01*
X16676139Y-14143389D01*
X16671027Y-14143292D01*
X16668998Y-14143043D01*
X16662655Y-14142320D01*
X16657409Y-14141905D01*
X16656131Y-14141867D01*
X16651820Y-14142118D01*
X16645654Y-14142746D01*
X16643264Y-14143043D01*
X16637392Y-14143503D01*
X16633446Y-14142505D01*
X16629534Y-14139423D01*
X16628121Y-14138036D01*
X16621938Y-14131853D01*
X16621938Y-14066350D01*
X16626915Y-14064083D01*
X16631200Y-14062403D01*
X16633707Y-14061815D01*
X16634350Y-14063674D01*
X16634951Y-14068865D01*
X16635470Y-14076817D01*
X16635866Y-14086955D01*
X16636058Y-14095519D01*
X16636592Y-14129223D01*
X16641256Y-14129882D01*
X16645498Y-14129421D01*
X16647576Y-14127929D01*
X16648157Y-14125138D01*
X16648653Y-14119192D01*
X16649025Y-14110847D01*
X16649232Y-14100853D01*
X16649262Y-14095710D01*
X16649292Y-14066105D01*
X16655445Y-14063960D01*
X16659800Y-14062502D01*
X16662169Y-14061822D01*
X16662238Y-14061815D01*
X16662475Y-14063664D01*
X16662737Y-14068791D01*
X16662999Y-14076565D01*
X16663242Y-14086357D01*
X16663411Y-14095519D01*
X16663946Y-14129223D01*
X16675669Y-14129223D01*
X16676207Y-14098475D01*
X16676745Y-14067726D01*
X16682460Y-14064771D01*
X16686680Y-14062741D01*
X16689177Y-14061820D01*
X16689249Y-14061815D01*
X16689593Y-14063666D01*
G37*
X16689593Y-14063666D02*
X16689891Y-14068807D01*
X16690125Y-14076619D01*
X16690275Y-14086486D01*
X16690323Y-14096834D01*
X16690323Y-14131853D01*
X16684140Y-14138036D01*
X16679879Y-14141846D01*
X16676139Y-14143389D01*
X16671027Y-14143292D01*
X16668998Y-14143043D01*
X16662655Y-14142320D01*
X16657409Y-14141905D01*
X16656131Y-14141867D01*
X16651820Y-14142118D01*
X16645654Y-14142746D01*
X16643264Y-14143043D01*
X16637392Y-14143503D01*
X16633446Y-14142505D01*
X16629534Y-14139423D01*
X16628121Y-14138036D01*
X16621938Y-14131853D01*
X16621938Y-14066350D01*
X16626915Y-14064083D01*
X16631200Y-14062403D01*
X16633707Y-14061815D01*
X16634350Y-14063674D01*
X16634951Y-14068865D01*
X16635470Y-14076817D01*
X16635866Y-14086955D01*
X16636058Y-14095519D01*
X16636592Y-14129223D01*
X16641256Y-14129882D01*
X16645498Y-14129421D01*
X16647576Y-14127929D01*
X16648157Y-14125138D01*
X16648653Y-14119192D01*
X16649025Y-14110847D01*
X16649232Y-14100853D01*
X16649262Y-14095710D01*
X16649292Y-14066105D01*
X16655445Y-14063960D01*
X16659800Y-14062502D01*
X16662169Y-14061822D01*
X16662238Y-14061815D01*
X16662475Y-14063664D01*
X16662737Y-14068791D01*
X16662999Y-14076565D01*
X16663242Y-14086357D01*
X16663411Y-14095519D01*
X16663946Y-14129223D01*
X16675669Y-14129223D01*
X16676207Y-14098475D01*
X16676745Y-14067726D01*
X16682460Y-14064771D01*
X16686680Y-14062741D01*
X16689177Y-14061820D01*
X16689249Y-14061815D01*
X16689593Y-14063666D01*
G36*
X16010763Y-14083791D02*
G01*
X16011432Y-14078916D01*
X16012596Y-14075329D01*
X16014385Y-14072155D01*
X16014781Y-14071565D01*
X16021427Y-14063610D01*
X16028668Y-14058993D01*
X16037485Y-14057160D01*
X16040479Y-14057070D01*
X16051689Y-14058726D01*
X16060846Y-14063541D01*
X16067605Y-14071290D01*
X16070006Y-14076273D01*
X16071874Y-14083753D01*
X16072830Y-14093205D01*
X16072921Y-14103521D01*
X16072192Y-14113593D01*
X16070690Y-14122315D01*
X16068461Y-14128579D01*
X16067776Y-14129658D01*
X16059663Y-14137710D01*
X16050027Y-14142534D01*
X16039570Y-14143945D01*
X16028997Y-14141763D01*
X16026054Y-14140455D01*
X16020324Y-14136423D01*
X16015295Y-14131077D01*
X16014820Y-14130399D01*
X16012888Y-14127132D01*
X16011611Y-14123639D01*
X16010856Y-14119041D01*
X16010492Y-14112458D01*
X16010386Y-14103010D01*
X16010385Y-14100892D01*
X16010389Y-14100218D01*
X16029923Y-14100218D01*
X16030037Y-14109135D01*
X16030484Y-14115052D01*
X16031425Y-14118874D01*
X16033018Y-14121505D01*
X16033831Y-14122385D01*
X16038506Y-14125726D01*
X16043045Y-14125574D01*
X16047634Y-14122675D01*
X16050371Y-14119581D01*
X16051992Y-14115064D01*
X16052903Y-14107942D01*
X16052965Y-14107111D01*
X16053120Y-14094204D01*
X16051496Y-14084617D01*
X16048115Y-14078411D01*
X16042998Y-14075643D01*
X16041172Y-14075492D01*
X16036376Y-14076251D01*
X16033095Y-14078881D01*
X16031089Y-14083909D01*
X16030118Y-14091866D01*
X16029923Y-14100218D01*
X16010389Y-14100218D01*
X16010457Y-14090825D01*
X16010763Y-14083791D01*
G37*
X16010763Y-14083791D02*
X16011432Y-14078916D01*
X16012596Y-14075329D01*
X16014385Y-14072155D01*
X16014781Y-14071565D01*
X16021427Y-14063610D01*
X16028668Y-14058993D01*
X16037485Y-14057160D01*
X16040479Y-14057070D01*
X16051689Y-14058726D01*
X16060846Y-14063541D01*
X16067605Y-14071290D01*
X16070006Y-14076273D01*
X16071874Y-14083753D01*
X16072830Y-14093205D01*
X16072921Y-14103521D01*
X16072192Y-14113593D01*
X16070690Y-14122315D01*
X16068461Y-14128579D01*
X16067776Y-14129658D01*
X16059663Y-14137710D01*
X16050027Y-14142534D01*
X16039570Y-14143945D01*
X16028997Y-14141763D01*
X16026054Y-14140455D01*
X16020324Y-14136423D01*
X16015295Y-14131077D01*
X16014820Y-14130399D01*
X16012888Y-14127132D01*
X16011611Y-14123639D01*
X16010856Y-14119041D01*
X16010492Y-14112458D01*
X16010386Y-14103010D01*
X16010385Y-14100892D01*
X16010389Y-14100218D01*
X16029923Y-14100218D01*
X16030037Y-14109135D01*
X16030484Y-14115052D01*
X16031425Y-14118874D01*
X16033018Y-14121505D01*
X16033831Y-14122385D01*
X16038506Y-14125726D01*
X16043045Y-14125574D01*
X16047634Y-14122675D01*
X16050371Y-14119581D01*
X16051992Y-14115064D01*
X16052903Y-14107942D01*
X16052965Y-14107111D01*
X16053120Y-14094204D01*
X16051496Y-14084617D01*
X16048115Y-14078411D01*
X16042998Y-14075643D01*
X16041172Y-14075492D01*
X16036376Y-14076251D01*
X16033095Y-14078881D01*
X16031089Y-14083909D01*
X16030118Y-14091866D01*
X16029923Y-14100218D01*
X16010389Y-14100218D01*
X16010457Y-14090825D01*
X16010763Y-14083791D01*
G36*
X14777392Y-6003649D02*
G01*
X14787703Y-6007224D01*
X14797302Y-6012851D01*
X14805875Y-6020529D01*
X14813107Y-6030257D01*
X14816355Y-6036389D01*
X14819167Y-6044966D01*
X14820529Y-6054868D01*
X14820379Y-6065047D01*
X14818703Y-6074271D01*
X14814124Y-6085543D01*
X14807483Y-6095321D01*
X14799119Y-6103411D01*
X14789369Y-6109623D01*
X14778570Y-6113763D01*
X14767060Y-6115640D01*
X14755177Y-6115060D01*
X14749319Y-6113821D01*
X14737903Y-6109380D01*
X14727763Y-6102603D01*
X14719145Y-6093700D01*
X14712293Y-6082879D01*
X14711714Y-6081697D01*
X14709710Y-6077263D01*
X14708451Y-6073528D01*
X14707768Y-6069588D01*
X14707489Y-6064538D01*
X14707443Y-6059043D01*
X14707520Y-6052441D01*
X14707865Y-6047669D01*
X14708652Y-6043810D01*
X14710056Y-6039951D01*
X14711788Y-6036143D01*
X14718249Y-6025333D01*
X14726207Y-6016580D01*
X14735344Y-6009884D01*
X14745346Y-6005244D01*
X14755899Y-6002658D01*
X14766686Y-6002127D01*
X14777392Y-6003649D01*
G37*
X14777392Y-6003649D02*
X14787703Y-6007224D01*
X14797302Y-6012851D01*
X14805875Y-6020529D01*
X14813107Y-6030257D01*
X14816355Y-6036389D01*
X14819167Y-6044966D01*
X14820529Y-6054868D01*
X14820379Y-6065047D01*
X14818703Y-6074271D01*
X14814124Y-6085543D01*
X14807483Y-6095321D01*
X14799119Y-6103411D01*
X14789369Y-6109623D01*
X14778570Y-6113763D01*
X14767060Y-6115640D01*
X14755177Y-6115060D01*
X14749319Y-6113821D01*
X14737903Y-6109380D01*
X14727763Y-6102603D01*
X14719145Y-6093700D01*
X14712293Y-6082879D01*
X14711714Y-6081697D01*
X14709710Y-6077263D01*
X14708451Y-6073528D01*
X14707768Y-6069588D01*
X14707489Y-6064538D01*
X14707443Y-6059043D01*
X14707520Y-6052441D01*
X14707865Y-6047669D01*
X14708652Y-6043810D01*
X14710056Y-6039951D01*
X14711788Y-6036143D01*
X14718249Y-6025333D01*
X14726207Y-6016580D01*
X14735344Y-6009884D01*
X14745346Y-6005244D01*
X14755899Y-6002658D01*
X14766686Y-6002127D01*
X14777392Y-6003649D01*
G36*
X15132476Y-6714050D02*
G01*
X15132453Y-6706172D01*
X15132451Y-6700011D01*
X15132451Y-6669068D01*
X15135222Y-6666297D01*
X15136451Y-6665174D01*
X15137781Y-6664404D01*
X15139638Y-6663923D01*
X15142449Y-6663664D01*
X15146642Y-6663560D01*
X15152644Y-6663546D01*
X15153002Y-6663547D01*
X15165900Y-6663983D01*
X15176870Y-6665305D01*
X15186093Y-6667593D01*
X15193751Y-6670926D01*
X15200023Y-6675383D01*
X15205092Y-6681043D01*
X15209137Y-6687985D01*
X15209217Y-6688154D01*
X15211631Y-6694367D01*
X15212491Y-6699870D01*
X15211794Y-6705408D01*
X15209536Y-6711726D01*
X15209108Y-6712688D01*
X15206188Y-6718316D01*
X15202906Y-6722664D01*
X15198671Y-6726361D01*
X15192890Y-6730033D01*
X15192554Y-6730224D01*
X15187521Y-6732642D01*
X15181833Y-6734447D01*
X15175123Y-6735703D01*
X15167027Y-6736471D01*
X15157179Y-6736814D01*
X15153699Y-6736844D01*
X15137130Y-6736904D01*
X15134790Y-6733929D01*
X15134096Y-6732951D01*
X15133555Y-6731809D01*
X15133147Y-6730229D01*
X15132854Y-6727937D01*
X15132657Y-6724659D01*
X15132593Y-6722228D01*
X15148255Y-6722228D01*
X15157643Y-6722228D01*
X15163137Y-6722067D01*
X15168777Y-6721645D01*
X15173405Y-6721048D01*
X15173685Y-6720998D01*
X15181906Y-6718793D01*
X15188282Y-6715479D01*
X15193016Y-6710904D01*
X15196309Y-6704913D01*
X15196882Y-6703325D01*
X15197443Y-6700852D01*
X15197200Y-6698409D01*
X15196017Y-6695159D01*
X15195305Y-6693563D01*
X15192971Y-6689320D01*
X15190159Y-6686343D01*
X15187065Y-6684270D01*
X15180867Y-6681573D01*
X15172936Y-6679619D01*
X15163696Y-6678494D01*
X15157004Y-6678246D01*
X15148255Y-6678201D01*
X15148255Y-6722228D01*
X15132593Y-6722228D01*
X15132538Y-6720121D01*
X15132476Y-6714050D01*
G37*
X15132476Y-6714050D02*
X15132453Y-6706172D01*
X15132451Y-6700011D01*
X15132451Y-6669068D01*
X15135222Y-6666297D01*
X15136451Y-6665174D01*
X15137781Y-6664404D01*
X15139638Y-6663923D01*
X15142449Y-6663664D01*
X15146642Y-6663560D01*
X15152644Y-6663546D01*
X15153002Y-6663547D01*
X15165900Y-6663983D01*
X15176870Y-6665305D01*
X15186093Y-6667593D01*
X15193751Y-6670926D01*
X15200023Y-6675383D01*
X15205092Y-6681043D01*
X15209137Y-6687985D01*
X15209217Y-6688154D01*
X15211631Y-6694367D01*
X15212491Y-6699870D01*
X15211794Y-6705408D01*
X15209536Y-6711726D01*
X15209108Y-6712688D01*
X15206188Y-6718316D01*
X15202906Y-6722664D01*
X15198671Y-6726361D01*
X15192890Y-6730033D01*
X15192554Y-6730224D01*
X15187521Y-6732642D01*
X15181833Y-6734447D01*
X15175123Y-6735703D01*
X15167027Y-6736471D01*
X15157179Y-6736814D01*
X15153699Y-6736844D01*
X15137130Y-6736904D01*
X15134790Y-6733929D01*
X15134096Y-6732951D01*
X15133555Y-6731809D01*
X15133147Y-6730229D01*
X15132854Y-6727937D01*
X15132657Y-6724659D01*
X15132593Y-6722228D01*
X15148255Y-6722228D01*
X15157643Y-6722228D01*
X15163137Y-6722067D01*
X15168777Y-6721645D01*
X15173405Y-6721048D01*
X15173685Y-6720998D01*
X15181906Y-6718793D01*
X15188282Y-6715479D01*
X15193016Y-6710904D01*
X15196309Y-6704913D01*
X15196882Y-6703325D01*
X15197443Y-6700852D01*
X15197200Y-6698409D01*
X15196017Y-6695159D01*
X15195305Y-6693563D01*
X15192971Y-6689320D01*
X15190159Y-6686343D01*
X15187065Y-6684270D01*
X15180867Y-6681573D01*
X15172936Y-6679619D01*
X15163696Y-6678494D01*
X15157004Y-6678246D01*
X15148255Y-6678201D01*
X15148255Y-6722228D01*
X15132593Y-6722228D01*
X15132538Y-6720121D01*
X15132476Y-6714050D01*
G36*
X15674053Y-6664072D02*
G01*
X15677191Y-6666297D01*
X15679962Y-6669068D01*
X15679962Y-6700011D01*
X15679955Y-6709199D01*
X15679920Y-6716403D01*
X15679840Y-6721897D01*
X15679695Y-6725955D01*
X15679466Y-6728851D01*
X15679134Y-6730858D01*
X15678681Y-6732251D01*
X15678088Y-6733304D01*
X15677622Y-6733929D01*
X15674549Y-6736386D01*
X15671020Y-6736653D01*
X15667795Y-6735146D01*
X15666730Y-6734257D01*
X15666017Y-6733075D01*
X15665587Y-6731172D01*
X15665370Y-6728118D01*
X15665294Y-6723485D01*
X15665286Y-6719906D01*
X15665286Y-6706424D01*
X15615615Y-6706424D01*
X15615615Y-6718689D01*
X15615564Y-6724298D01*
X15615358Y-6728152D01*
X15614922Y-6730755D01*
X15614176Y-6732609D01*
X15613275Y-6733929D01*
X15610185Y-6736380D01*
X15606690Y-6736670D01*
X15603345Y-6734928D01*
X15602431Y-6734015D01*
X15601786Y-6732805D01*
X15601360Y-6730919D01*
X15601106Y-6727981D01*
X15600974Y-6723613D01*
X15600915Y-6717437D01*
X15600908Y-6716019D01*
X15600860Y-6704382D01*
X15600835Y-6694792D01*
X15600843Y-6687037D01*
X15600894Y-6680906D01*
X15600997Y-6676188D01*
X15601162Y-6672672D01*
X15601399Y-6670147D01*
X15601716Y-6668401D01*
X15602125Y-6667223D01*
X15602634Y-6666403D01*
X15603197Y-6665784D01*
X15606384Y-6663804D01*
X15609706Y-6664072D01*
X15612844Y-6666297D01*
X15614114Y-6667732D01*
X15614923Y-6669317D01*
X15615375Y-6671575D01*
X15615571Y-6675027D01*
X15615615Y-6680197D01*
X15615615Y-6691748D01*
X15665286Y-6691748D01*
X15665286Y-6679895D01*
X15665337Y-6674434D01*
X15665541Y-6670747D01*
X15665974Y-6668350D01*
X15666715Y-6666761D01*
X15667544Y-6665784D01*
X15670730Y-6663804D01*
X15674053Y-6664072D01*
G37*
X15674053Y-6664072D02*
X15677191Y-6666297D01*
X15679962Y-6669068D01*
X15679962Y-6700011D01*
X15679955Y-6709199D01*
X15679920Y-6716403D01*
X15679840Y-6721897D01*
X15679695Y-6725955D01*
X15679466Y-6728851D01*
X15679134Y-6730858D01*
X15678681Y-6732251D01*
X15678088Y-6733304D01*
X15677622Y-6733929D01*
X15674549Y-6736386D01*
X15671020Y-6736653D01*
X15667795Y-6735146D01*
X15666730Y-6734257D01*
X15666017Y-6733075D01*
X15665587Y-6731172D01*
X15665370Y-6728118D01*
X15665294Y-6723485D01*
X15665286Y-6719906D01*
X15665286Y-6706424D01*
X15615615Y-6706424D01*
X15615615Y-6718689D01*
X15615564Y-6724298D01*
X15615358Y-6728152D01*
X15614922Y-6730755D01*
X15614176Y-6732609D01*
X15613275Y-6733929D01*
X15610185Y-6736380D01*
X15606690Y-6736670D01*
X15603345Y-6734928D01*
X15602431Y-6734015D01*
X15601786Y-6732805D01*
X15601360Y-6730919D01*
X15601106Y-6727981D01*
X15600974Y-6723613D01*
X15600915Y-6717437D01*
X15600908Y-6716019D01*
X15600860Y-6704382D01*
X15600835Y-6694792D01*
X15600843Y-6687037D01*
X15600894Y-6680906D01*
X15600997Y-6676188D01*
X15601162Y-6672672D01*
X15601399Y-6670147D01*
X15601716Y-6668401D01*
X15602125Y-6667223D01*
X15602634Y-6666403D01*
X15603197Y-6665784D01*
X15606384Y-6663804D01*
X15609706Y-6664072D01*
X15612844Y-6666297D01*
X15614114Y-6667732D01*
X15614923Y-6669317D01*
X15615375Y-6671575D01*
X15615571Y-6675027D01*
X15615615Y-6680197D01*
X15615615Y-6691748D01*
X15665286Y-6691748D01*
X15665286Y-6679895D01*
X15665337Y-6674434D01*
X15665541Y-6670747D01*
X15665974Y-6668350D01*
X15666715Y-6666761D01*
X15667544Y-6665784D01*
X15670730Y-6663804D01*
X15674053Y-6664072D01*
G36*
X14424071Y-6671125D02*
G01*
X14424888Y-6667797D01*
X14426215Y-6665595D01*
X14428173Y-6664293D01*
X14430882Y-6663665D01*
X14434463Y-6663484D01*
X14439034Y-6663526D01*
X14442982Y-6663566D01*
X14454551Y-6663845D01*
X14464240Y-6664674D01*
X14472379Y-6666142D01*
X14479298Y-6668338D01*
X14485329Y-6671351D01*
X14490800Y-6675270D01*
X14492754Y-6676972D01*
X14495996Y-6680955D01*
X14498919Y-6686360D01*
X14501172Y-6692351D01*
X14502403Y-6698093D01*
X14502531Y-6700215D01*
X14501729Y-6706096D01*
X14499581Y-6712520D01*
X14496471Y-6718601D01*
X14492784Y-6723452D01*
X14492185Y-6724037D01*
X14487113Y-6728151D01*
X14481558Y-6731363D01*
X14475201Y-6733756D01*
X14467721Y-6735414D01*
X14458799Y-6736423D01*
X14448113Y-6736866D01*
X14443218Y-6736904D01*
X14436995Y-6736874D01*
X14432618Y-6736748D01*
X14429678Y-6736475D01*
X14427763Y-6735999D01*
X14426463Y-6735269D01*
X14425766Y-6734646D01*
X14425108Y-6733889D01*
X14424592Y-6732912D01*
X14424200Y-6731453D01*
X14423916Y-6729252D01*
X14423723Y-6726046D01*
X14423620Y-6722228D01*
X14438184Y-6722228D01*
X14447497Y-6722220D01*
X14453101Y-6722059D01*
X14458971Y-6721645D01*
X14463868Y-6721066D01*
X14464017Y-6721042D01*
X14471932Y-6719128D01*
X14478071Y-6716148D01*
X14482740Y-6711907D01*
X14485707Y-6707315D01*
X14487535Y-6702222D01*
X14487394Y-6697439D01*
X14485272Y-6692312D01*
X14481122Y-6687009D01*
X14475371Y-6683079D01*
X14467896Y-6680452D01*
X14462900Y-6679523D01*
X14457229Y-6678870D01*
X14451219Y-6678397D01*
X14446107Y-6678201D01*
X14445804Y-6678200D01*
X14438184Y-6678201D01*
X14438184Y-6722228D01*
X14423620Y-6722228D01*
X14423602Y-6721573D01*
X14423538Y-6715572D01*
X14423512Y-6707781D01*
X14423509Y-6700215D01*
X14423484Y-6690123D01*
X14423489Y-6682062D01*
X14423585Y-6678201D01*
X14423645Y-6675804D01*
X14424071Y-6671125D01*
G37*
X14424071Y-6671125D02*
X14424888Y-6667797D01*
X14426215Y-6665595D01*
X14428173Y-6664293D01*
X14430882Y-6663665D01*
X14434463Y-6663484D01*
X14439034Y-6663526D01*
X14442982Y-6663566D01*
X14454551Y-6663845D01*
X14464240Y-6664674D01*
X14472379Y-6666142D01*
X14479298Y-6668338D01*
X14485329Y-6671351D01*
X14490800Y-6675270D01*
X14492754Y-6676972D01*
X14495996Y-6680955D01*
X14498919Y-6686360D01*
X14501172Y-6692351D01*
X14502403Y-6698093D01*
X14502531Y-6700215D01*
X14501729Y-6706096D01*
X14499581Y-6712520D01*
X14496471Y-6718601D01*
X14492784Y-6723452D01*
X14492185Y-6724037D01*
X14487113Y-6728151D01*
X14481558Y-6731363D01*
X14475201Y-6733756D01*
X14467721Y-6735414D01*
X14458799Y-6736423D01*
X14448113Y-6736866D01*
X14443218Y-6736904D01*
X14436995Y-6736874D01*
X14432618Y-6736748D01*
X14429678Y-6736475D01*
X14427763Y-6735999D01*
X14426463Y-6735269D01*
X14425766Y-6734646D01*
X14425108Y-6733889D01*
X14424592Y-6732912D01*
X14424200Y-6731453D01*
X14423916Y-6729252D01*
X14423723Y-6726046D01*
X14423620Y-6722228D01*
X14438184Y-6722228D01*
X14447497Y-6722220D01*
X14453101Y-6722059D01*
X14458971Y-6721645D01*
X14463868Y-6721066D01*
X14464017Y-6721042D01*
X14471932Y-6719128D01*
X14478071Y-6716148D01*
X14482740Y-6711907D01*
X14485707Y-6707315D01*
X14487535Y-6702222D01*
X14487394Y-6697439D01*
X14485272Y-6692312D01*
X14481122Y-6687009D01*
X14475371Y-6683079D01*
X14467896Y-6680452D01*
X14462900Y-6679523D01*
X14457229Y-6678870D01*
X14451219Y-6678397D01*
X14446107Y-6678201D01*
X14445804Y-6678200D01*
X14438184Y-6678201D01*
X14438184Y-6722228D01*
X14423620Y-6722228D01*
X14423602Y-6721573D01*
X14423538Y-6715572D01*
X14423512Y-6707781D01*
X14423509Y-6700215D01*
X14423484Y-6690123D01*
X14423489Y-6682062D01*
X14423585Y-6678201D01*
X14423645Y-6675804D01*
X14424071Y-6671125D01*
G36*
X15093996Y-6116050D02*
G01*
X15108801Y-6117671D01*
X15123145Y-6120572D01*
X15137611Y-6124904D01*
X15152782Y-6130820D01*
X15169243Y-6138470D01*
X15172207Y-6139952D01*
X15179010Y-6143303D01*
X15185426Y-6146321D01*
X15190821Y-6148717D01*
X15194564Y-6150202D01*
X15195139Y-6150389D01*
X15200649Y-6152040D01*
X15175985Y-6187920D01*
X15169955Y-6196689D01*
X15164442Y-6204701D01*
X15159634Y-6211684D01*
X15155717Y-6217365D01*
X15152879Y-6221472D01*
X15151309Y-6223735D01*
X15151054Y-6224093D01*
X15150017Y-6223344D01*
X15147466Y-6221092D01*
X15143856Y-6217746D01*
X15141864Y-6215855D01*
X15130577Y-6206878D01*
X15117901Y-6200056D01*
X15106978Y-6196319D01*
X15100421Y-6195146D01*
X15092212Y-6194431D01*
X15083314Y-6194187D01*
X15074696Y-6194429D01*
X15067320Y-6195168D01*
X15064378Y-6195735D01*
X15051113Y-6200298D01*
X15039161Y-6207266D01*
X15028528Y-6216626D01*
X15019225Y-6228365D01*
X15011260Y-6242470D01*
X15004643Y-6258929D01*
X14999381Y-6277728D01*
X14996253Y-6293822D01*
X14995437Y-6300926D01*
X14994881Y-6310105D01*
X14994580Y-6320697D01*
X14994528Y-6332043D01*
X14994720Y-6343485D01*
X14995150Y-6354362D01*
X14995814Y-6364014D01*
X14996705Y-6371783D01*
X14996898Y-6372982D01*
X15001150Y-6392289D01*
X15006943Y-6409377D01*
X15014313Y-6424322D01*
X15023295Y-6437201D01*
X15029671Y-6444164D01*
X15041129Y-6453617D01*
X15053694Y-6460625D01*
X15067156Y-6465148D01*
X15081301Y-6467148D01*
X15095918Y-6466588D01*
X15110795Y-6463430D01*
X15119591Y-6460339D01*
X15131763Y-6454151D01*
X15144308Y-6445273D01*
X15151335Y-6439269D01*
X15155281Y-6435795D01*
X15158381Y-6433245D01*
X15160146Y-6432017D01*
X15160365Y-6431979D01*
X15161152Y-6433235D01*
X15163193Y-6436552D01*
X15166313Y-6441646D01*
X15170339Y-6448233D01*
X15175096Y-6456029D01*
X15180410Y-6464749D01*
X15183369Y-6469607D01*
X15205965Y-6506721D01*
X15177753Y-6520664D01*
X15167552Y-6525672D01*
X15159289Y-6529621D01*
X15152458Y-6532707D01*
X15146554Y-6535127D01*
X15141071Y-6537076D01*
X15135506Y-6538750D01*
X15129352Y-6540346D01*
X15123454Y-6541748D01*
X15118211Y-6542833D01*
X15112729Y-6543653D01*
X15106457Y-6544253D01*
X15098848Y-6544679D01*
X15089352Y-6544977D01*
X15082951Y-6545105D01*
X15073819Y-6545193D01*
X15065063Y-6545149D01*
X15057261Y-6544985D01*
X15050994Y-6544715D01*
X15046841Y-6544350D01*
X15046595Y-6544314D01*
X15025030Y-6539649D01*
X15004779Y-6532573D01*
X14985849Y-6523091D01*
X14968248Y-6511209D01*
X14951982Y-6496930D01*
X14937058Y-6480259D01*
X14926250Y-6465443D01*
X14914743Y-6446050D01*
X14905442Y-6425570D01*
X14898301Y-6403838D01*
X14893276Y-6380691D01*
X14890320Y-6355964D01*
X14889389Y-6330856D01*
X14890155Y-6306567D01*
X14892561Y-6284157D01*
X14896685Y-6263248D01*
X14902603Y-6243461D01*
X14910390Y-6224420D01*
X14911320Y-6222447D01*
X14921565Y-6204006D01*
X14934147Y-6186458D01*
X14948711Y-6170165D01*
X14964900Y-6155491D01*
X14982358Y-6142800D01*
X14998624Y-6133490D01*
X15015057Y-6126199D01*
X15031525Y-6120917D01*
X15048665Y-6117501D01*
X15067115Y-6115808D01*
X15078146Y-6115558D01*
X15093996Y-6116050D01*
G37*
X15093996Y-6116050D02*
X15108801Y-6117671D01*
X15123145Y-6120572D01*
X15137611Y-6124904D01*
X15152782Y-6130820D01*
X15169243Y-6138470D01*
X15172207Y-6139952D01*
X15179010Y-6143303D01*
X15185426Y-6146321D01*
X15190821Y-6148717D01*
X15194564Y-6150202D01*
X15195139Y-6150389D01*
X15200649Y-6152040D01*
X15175985Y-6187920D01*
X15169955Y-6196689D01*
X15164442Y-6204701D01*
X15159634Y-6211684D01*
X15155717Y-6217365D01*
X15152879Y-6221472D01*
X15151309Y-6223735D01*
X15151054Y-6224093D01*
X15150017Y-6223344D01*
X15147466Y-6221092D01*
X15143856Y-6217746D01*
X15141864Y-6215855D01*
X15130577Y-6206878D01*
X15117901Y-6200056D01*
X15106978Y-6196319D01*
X15100421Y-6195146D01*
X15092212Y-6194431D01*
X15083314Y-6194187D01*
X15074696Y-6194429D01*
X15067320Y-6195168D01*
X15064378Y-6195735D01*
X15051113Y-6200298D01*
X15039161Y-6207266D01*
X15028528Y-6216626D01*
X15019225Y-6228365D01*
X15011260Y-6242470D01*
X15004643Y-6258929D01*
X14999381Y-6277728D01*
X14996253Y-6293822D01*
X14995437Y-6300926D01*
X14994881Y-6310105D01*
X14994580Y-6320697D01*
X14994528Y-6332043D01*
X14994720Y-6343485D01*
X14995150Y-6354362D01*
X14995814Y-6364014D01*
X14996705Y-6371783D01*
X14996898Y-6372982D01*
X15001150Y-6392289D01*
X15006943Y-6409377D01*
X15014313Y-6424322D01*
X15023295Y-6437201D01*
X15029671Y-6444164D01*
X15041129Y-6453617D01*
X15053694Y-6460625D01*
X15067156Y-6465148D01*
X15081301Y-6467148D01*
X15095918Y-6466588D01*
X15110795Y-6463430D01*
X15119591Y-6460339D01*
X15131763Y-6454151D01*
X15144308Y-6445273D01*
X15151335Y-6439269D01*
X15155281Y-6435795D01*
X15158381Y-6433245D01*
X15160146Y-6432017D01*
X15160365Y-6431979D01*
X15161152Y-6433235D01*
X15163193Y-6436552D01*
X15166313Y-6441646D01*
X15170339Y-6448233D01*
X15175096Y-6456029D01*
X15180410Y-6464749D01*
X15183369Y-6469607D01*
X15205965Y-6506721D01*
X15177753Y-6520664D01*
X15167552Y-6525672D01*
X15159289Y-6529621D01*
X15152458Y-6532707D01*
X15146554Y-6535127D01*
X15141071Y-6537076D01*
X15135506Y-6538750D01*
X15129352Y-6540346D01*
X15123454Y-6541748D01*
X15118211Y-6542833D01*
X15112729Y-6543653D01*
X15106457Y-6544253D01*
X15098848Y-6544679D01*
X15089352Y-6544977D01*
X15082951Y-6545105D01*
X15073819Y-6545193D01*
X15065063Y-6545149D01*
X15057261Y-6544985D01*
X15050994Y-6544715D01*
X15046841Y-6544350D01*
X15046595Y-6544314D01*
X15025030Y-6539649D01*
X15004779Y-6532573D01*
X14985849Y-6523091D01*
X14968248Y-6511209D01*
X14951982Y-6496930D01*
X14937058Y-6480259D01*
X14926250Y-6465443D01*
X14914743Y-6446050D01*
X14905442Y-6425570D01*
X14898301Y-6403838D01*
X14893276Y-6380691D01*
X14890320Y-6355964D01*
X14889389Y-6330856D01*
X14890155Y-6306567D01*
X14892561Y-6284157D01*
X14896685Y-6263248D01*
X14902603Y-6243461D01*
X14910390Y-6224420D01*
X14911320Y-6222447D01*
X14921565Y-6204006D01*
X14934147Y-6186458D01*
X14948711Y-6170165D01*
X14964900Y-6155491D01*
X14982358Y-6142800D01*
X14998624Y-6133490D01*
X15015057Y-6126199D01*
X15031525Y-6120917D01*
X15048665Y-6117501D01*
X15067115Y-6115808D01*
X15078146Y-6115558D01*
X15093996Y-6116050D01*
G36*
X15425637Y-6663723D02*
G01*
X15427596Y-6664423D01*
X15427672Y-6664457D01*
X15430332Y-6666487D01*
X15431798Y-6668575D01*
X15432085Y-6669554D01*
X15432070Y-6670855D01*
X15431667Y-6672709D01*
X15430785Y-6675345D01*
X15429338Y-6678994D01*
X15427235Y-6683888D01*
X15424390Y-6690256D01*
X15420712Y-6698328D01*
X15418688Y-6702741D01*
X15415033Y-6710618D01*
X15411602Y-6717861D01*
X15408526Y-6724207D01*
X15405936Y-6729390D01*
X15403962Y-6733145D01*
X15402736Y-6735208D01*
X15402493Y-6735492D01*
X15399389Y-6736749D01*
X15395883Y-6736581D01*
X15393071Y-6735052D01*
X15392956Y-6734928D01*
X15391838Y-6733235D01*
X15389961Y-6729936D01*
X15387558Y-6725457D01*
X15384860Y-6720222D01*
X15383891Y-6718293D01*
X15376572Y-6703634D01*
X15368595Y-6719558D01*
X15365747Y-6725061D01*
X15363106Y-6729832D01*
X15360886Y-6733508D01*
X15359303Y-6735724D01*
X15358766Y-6736193D01*
X15354596Y-6736829D01*
X15351156Y-6735492D01*
X15350144Y-6734064D01*
X15348392Y-6730888D01*
X15346044Y-6726279D01*
X15343243Y-6720548D01*
X15340131Y-6714007D01*
X15336851Y-6706970D01*
X15333546Y-6699748D01*
X15330359Y-6692655D01*
X15327433Y-6686002D01*
X15324910Y-6680102D01*
X15322934Y-6675267D01*
X15321648Y-6671811D01*
X15321194Y-6670044D01*
X15321198Y-6669980D01*
X15322303Y-6667758D01*
X15324512Y-6665494D01*
X15324642Y-6665396D01*
X15327356Y-6663862D01*
X15329867Y-6663877D01*
X15330808Y-6664166D01*
X15331954Y-6664791D01*
X15333172Y-6666021D01*
X15334606Y-6668110D01*
X15336404Y-6671314D01*
X15338711Y-6675888D01*
X15341674Y-6682087D01*
X15344345Y-6687809D01*
X15347419Y-6694442D01*
X15350173Y-6700407D01*
X15352465Y-6705392D01*
X15354151Y-6709086D01*
X15355088Y-6711176D01*
X15355225Y-6711504D01*
X15355840Y-6710969D01*
X15357253Y-6708730D01*
X15359276Y-6705114D01*
X15361722Y-6700447D01*
X15362696Y-6698521D01*
X15365992Y-6692020D01*
X15368535Y-6687285D01*
X15370532Y-6684041D01*
X15372192Y-6682014D01*
X15373723Y-6680927D01*
X15375335Y-6680507D01*
X15376385Y-6680459D01*
X15378238Y-6680623D01*
X15379861Y-6681302D01*
X15381474Y-6682776D01*
X15383296Y-6685324D01*
X15385545Y-6689225D01*
X15388440Y-6694761D01*
X15390037Y-6697909D01*
X15392628Y-6702928D01*
X15394887Y-6707090D01*
X15396617Y-6710043D01*
X15397616Y-6711438D01*
X15397752Y-6711496D01*
X15398397Y-6710398D01*
X15399842Y-6707548D01*
X15401941Y-6703244D01*
X15404550Y-6697783D01*
X15407525Y-6691465D01*
X15408989Y-6688326D01*
X15412796Y-6680227D01*
X15415861Y-6673995D01*
X15418344Y-6669426D01*
X15420404Y-6666318D01*
X15422201Y-6664467D01*
X15423892Y-6663670D01*
X15425637Y-6663723D01*
G37*
X15425637Y-6663723D02*
X15427596Y-6664423D01*
X15427672Y-6664457D01*
X15430332Y-6666487D01*
X15431798Y-6668575D01*
X15432085Y-6669554D01*
X15432070Y-6670855D01*
X15431667Y-6672709D01*
X15430785Y-6675345D01*
X15429338Y-6678994D01*
X15427235Y-6683888D01*
X15424390Y-6690256D01*
X15420712Y-6698328D01*
X15418688Y-6702741D01*
X15415033Y-6710618D01*
X15411602Y-6717861D01*
X15408526Y-6724207D01*
X15405936Y-6729390D01*
X15403962Y-6733145D01*
X15402736Y-6735208D01*
X15402493Y-6735492D01*
X15399389Y-6736749D01*
X15395883Y-6736581D01*
X15393071Y-6735052D01*
X15392956Y-6734928D01*
X15391838Y-6733235D01*
X15389961Y-6729936D01*
X15387558Y-6725457D01*
X15384860Y-6720222D01*
X15383891Y-6718293D01*
X15376572Y-6703634D01*
X15368595Y-6719558D01*
X15365747Y-6725061D01*
X15363106Y-6729832D01*
X15360886Y-6733508D01*
X15359303Y-6735724D01*
X15358766Y-6736193D01*
X15354596Y-6736829D01*
X15351156Y-6735492D01*
X15350144Y-6734064D01*
X15348392Y-6730888D01*
X15346044Y-6726279D01*
X15343243Y-6720548D01*
X15340131Y-6714007D01*
X15336851Y-6706970D01*
X15333546Y-6699748D01*
X15330359Y-6692655D01*
X15327433Y-6686002D01*
X15324910Y-6680102D01*
X15322934Y-6675267D01*
X15321648Y-6671811D01*
X15321194Y-6670044D01*
X15321198Y-6669980D01*
X15322303Y-6667758D01*
X15324512Y-6665494D01*
X15324642Y-6665396D01*
X15327356Y-6663862D01*
X15329867Y-6663877D01*
X15330808Y-6664166D01*
X15331954Y-6664791D01*
X15333172Y-6666021D01*
X15334606Y-6668110D01*
X15336404Y-6671314D01*
X15338711Y-6675888D01*
X15341674Y-6682087D01*
X15344345Y-6687809D01*
X15347419Y-6694442D01*
X15350173Y-6700407D01*
X15352465Y-6705392D01*
X15354151Y-6709086D01*
X15355088Y-6711176D01*
X15355225Y-6711504D01*
X15355840Y-6710969D01*
X15357253Y-6708730D01*
X15359276Y-6705114D01*
X15361722Y-6700447D01*
X15362696Y-6698521D01*
X15365992Y-6692020D01*
X15368535Y-6687285D01*
X15370532Y-6684041D01*
X15372192Y-6682014D01*
X15373723Y-6680927D01*
X15375335Y-6680507D01*
X15376385Y-6680459D01*
X15378238Y-6680623D01*
X15379861Y-6681302D01*
X15381474Y-6682776D01*
X15383296Y-6685324D01*
X15385545Y-6689225D01*
X15388440Y-6694761D01*
X15390037Y-6697909D01*
X15392628Y-6702928D01*
X15394887Y-6707090D01*
X15396617Y-6710043D01*
X15397616Y-6711438D01*
X15397752Y-6711496D01*
X15398397Y-6710398D01*
X15399842Y-6707548D01*
X15401941Y-6703244D01*
X15404550Y-6697783D01*
X15407525Y-6691465D01*
X15408989Y-6688326D01*
X15412796Y-6680227D01*
X15415861Y-6673995D01*
X15418344Y-6669426D01*
X15420404Y-6666318D01*
X15422201Y-6664467D01*
X15423892Y-6663670D01*
X15425637Y-6663723D01*
G36*
X15074205Y-6663545D02*
G01*
X15081841Y-6663637D01*
X15087692Y-6663850D01*
X15091996Y-6664237D01*
X15094989Y-6664846D01*
X15096908Y-6665728D01*
X15097988Y-6666934D01*
X15098468Y-6668513D01*
X15098583Y-6670516D01*
X15098584Y-6670753D01*
X15098484Y-6673018D01*
X15098010Y-6674769D01*
X15096904Y-6676077D01*
X15094906Y-6677010D01*
X15091755Y-6677642D01*
X15087194Y-6678041D01*
X15080962Y-6678280D01*
X15072800Y-6678428D01*
X15070298Y-6678461D01*
X15046091Y-6678766D01*
X15045752Y-6685257D01*
X15045414Y-6691748D01*
X15062228Y-6691748D01*
X15068797Y-6691772D01*
X15073488Y-6691875D01*
X15076679Y-6692100D01*
X15078750Y-6692493D01*
X15080079Y-6693099D01*
X15081046Y-6693962D01*
X15081052Y-6693968D01*
X15082806Y-6697330D01*
X15082743Y-6700964D01*
X15080902Y-6704061D01*
X15080538Y-6704380D01*
X15079245Y-6705200D01*
X15077473Y-6705771D01*
X15074828Y-6706135D01*
X15070914Y-6706336D01*
X15065337Y-6706416D01*
X15061770Y-6706424D01*
X15045526Y-6706424D01*
X15045526Y-6722228D01*
X15070187Y-6722228D01*
X15078329Y-6722242D01*
X15084512Y-6722301D01*
X15089034Y-6722426D01*
X15092196Y-6722642D01*
X15094294Y-6722971D01*
X15095628Y-6723438D01*
X15096497Y-6724065D01*
X15096716Y-6724292D01*
X15098332Y-6727447D01*
X15098450Y-6731036D01*
X15097124Y-6734148D01*
X15096075Y-6735146D01*
X15094984Y-6735696D01*
X15093292Y-6736121D01*
X15090734Y-6736437D01*
X15087041Y-6736658D01*
X15081945Y-6736800D01*
X15075180Y-6736876D01*
X15066478Y-6736903D01*
X15064510Y-6736904D01*
X15055662Y-6736898D01*
X15048793Y-6736866D01*
X15043627Y-6736786D01*
X15039885Y-6736636D01*
X15037290Y-6736394D01*
X15035563Y-6736039D01*
X15034427Y-6735547D01*
X15033604Y-6734899D01*
X15033152Y-6734433D01*
X15032473Y-6733608D01*
X15031942Y-6732586D01*
X15031541Y-6731099D01*
X15031253Y-6728879D01*
X15031058Y-6725658D01*
X15030939Y-6721169D01*
X15030877Y-6715142D01*
X15030854Y-6707310D01*
X15030851Y-6700719D01*
X15030858Y-6691482D01*
X15030892Y-6684231D01*
X15030971Y-6678693D01*
X15031113Y-6674596D01*
X15031339Y-6671667D01*
X15031665Y-6669634D01*
X15032111Y-6668226D01*
X15032696Y-6667169D01*
X15033190Y-6666500D01*
X15035530Y-6663526D01*
X15064548Y-6663526D01*
X15074205Y-6663545D01*
G37*
X15074205Y-6663545D02*
X15081841Y-6663637D01*
X15087692Y-6663850D01*
X15091996Y-6664237D01*
X15094989Y-6664846D01*
X15096908Y-6665728D01*
X15097988Y-6666934D01*
X15098468Y-6668513D01*
X15098583Y-6670516D01*
X15098584Y-6670753D01*
X15098484Y-6673018D01*
X15098010Y-6674769D01*
X15096904Y-6676077D01*
X15094906Y-6677010D01*
X15091755Y-6677642D01*
X15087194Y-6678041D01*
X15080962Y-6678280D01*
X15072800Y-6678428D01*
X15070298Y-6678461D01*
X15046091Y-6678766D01*
X15045752Y-6685257D01*
X15045414Y-6691748D01*
X15062228Y-6691748D01*
X15068797Y-6691772D01*
X15073488Y-6691875D01*
X15076679Y-6692100D01*
X15078750Y-6692493D01*
X15080079Y-6693099D01*
X15081046Y-6693962D01*
X15081052Y-6693968D01*
X15082806Y-6697330D01*
X15082743Y-6700964D01*
X15080902Y-6704061D01*
X15080538Y-6704380D01*
X15079245Y-6705200D01*
X15077473Y-6705771D01*
X15074828Y-6706135D01*
X15070914Y-6706336D01*
X15065337Y-6706416D01*
X15061770Y-6706424D01*
X15045526Y-6706424D01*
X15045526Y-6722228D01*
X15070187Y-6722228D01*
X15078329Y-6722242D01*
X15084512Y-6722301D01*
X15089034Y-6722426D01*
X15092196Y-6722642D01*
X15094294Y-6722971D01*
X15095628Y-6723438D01*
X15096497Y-6724065D01*
X15096716Y-6724292D01*
X15098332Y-6727447D01*
X15098450Y-6731036D01*
X15097124Y-6734148D01*
X15096075Y-6735146D01*
X15094984Y-6735696D01*
X15093292Y-6736121D01*
X15090734Y-6736437D01*
X15087041Y-6736658D01*
X15081945Y-6736800D01*
X15075180Y-6736876D01*
X15066478Y-6736903D01*
X15064510Y-6736904D01*
X15055662Y-6736898D01*
X15048793Y-6736866D01*
X15043627Y-6736786D01*
X15039885Y-6736636D01*
X15037290Y-6736394D01*
X15035563Y-6736039D01*
X15034427Y-6735547D01*
X15033604Y-6734899D01*
X15033152Y-6734433D01*
X15032473Y-6733608D01*
X15031942Y-6732586D01*
X15031541Y-6731099D01*
X15031253Y-6728879D01*
X15031058Y-6725658D01*
X15030939Y-6721169D01*
X15030877Y-6715142D01*
X15030854Y-6707310D01*
X15030851Y-6700719D01*
X15030858Y-6691482D01*
X15030892Y-6684231D01*
X15030971Y-6678693D01*
X15031113Y-6674596D01*
X15031339Y-6671667D01*
X15031665Y-6669634D01*
X15032111Y-6668226D01*
X15032696Y-6667169D01*
X15033190Y-6666500D01*
X15035530Y-6663526D01*
X15064548Y-6663526D01*
X15074205Y-6663545D01*
G36*
X15516965Y-6364605D02*
G01*
X15519292Y-6344219D01*
X15522850Y-6325751D01*
X15527701Y-6308905D01*
X15533906Y-6293383D01*
X15536120Y-6288781D01*
X15545038Y-6273774D01*
X15555816Y-6260438D01*
X15568199Y-6248988D01*
X15581934Y-6239639D01*
X15596768Y-6232607D01*
X15605660Y-6229706D01*
X15614393Y-6227984D01*
X15624901Y-6226959D01*
X15636303Y-6226632D01*
X15647718Y-6227001D01*
X15658265Y-6228066D01*
X15666733Y-6229737D01*
X15676813Y-6233014D01*
X15686582Y-6237228D01*
X15695130Y-6241952D01*
X15699679Y-6245158D01*
X15702817Y-6247542D01*
X15705014Y-6248994D01*
X15705514Y-6249200D01*
X15705669Y-6247872D01*
X15705813Y-6244066D01*
X15705944Y-6238052D01*
X15706058Y-6230097D01*
X15706152Y-6220471D01*
X15706223Y-6209442D01*
X15706267Y-6197278D01*
X15706281Y-6184888D01*
X15706273Y-6169020D01*
X15706233Y-6155641D01*
X15706139Y-6144496D01*
X15705968Y-6135329D01*
X15705696Y-6127885D01*
X15705300Y-6121907D01*
X15704757Y-6117140D01*
X15704044Y-6113327D01*
X15703138Y-6110213D01*
X15702017Y-6107542D01*
X15700656Y-6105058D01*
X15699033Y-6102504D01*
X15698824Y-6102188D01*
X15696731Y-6098881D01*
X15695467Y-6096607D01*
X15695297Y-6096127D01*
X15696622Y-6095976D01*
X15700400Y-6095853D01*
X15706342Y-6095760D01*
X15714154Y-6095699D01*
X15723546Y-6095673D01*
X15734227Y-6095682D01*
X15745904Y-6095730D01*
X15749873Y-6095754D01*
X15804449Y-6096113D01*
X15805135Y-6305492D01*
X15805226Y-6333884D01*
X15805306Y-6359664D01*
X15805381Y-6382965D01*
X15805457Y-6403919D01*
X15805537Y-6422662D01*
X15805628Y-6439325D01*
X15805735Y-6454042D01*
X15805862Y-6466948D01*
X15806016Y-6478174D01*
X15806200Y-6487854D01*
X15806420Y-6496123D01*
X15806682Y-6503112D01*
X15806991Y-6508956D01*
X15807351Y-6513787D01*
X15807768Y-6517740D01*
X15808247Y-6520947D01*
X15808793Y-6523542D01*
X15809412Y-6525659D01*
X15810108Y-6527430D01*
X15810887Y-6528989D01*
X15811754Y-6530469D01*
X15812713Y-6532004D01*
X15813771Y-6533728D01*
X15813988Y-6534095D01*
X15817627Y-6540303D01*
X15765043Y-6539943D01*
X15712459Y-6539584D01*
X15711773Y-6528033D01*
X15711399Y-6522490D01*
X15711010Y-6519285D01*
X15710481Y-6518013D01*
X15709690Y-6518270D01*
X15709027Y-6519002D01*
X15706137Y-6521671D01*
X15701428Y-6525102D01*
X15695562Y-6528885D01*
X15689203Y-6532609D01*
X15683015Y-6535865D01*
X15678263Y-6538008D01*
X15667132Y-6541528D01*
X15654360Y-6544022D01*
X15640890Y-6545394D01*
X15627666Y-6545549D01*
X15615631Y-6544391D01*
X15615433Y-6544357D01*
X15598964Y-6540225D01*
X15583548Y-6533641D01*
X15569333Y-6524747D01*
X15556467Y-6513685D01*
X15545101Y-6500596D01*
X15535381Y-6485622D01*
X15527457Y-6468903D01*
X15523143Y-6456519D01*
X15520298Y-6446158D01*
X15518188Y-6436125D01*
X15516749Y-6425811D01*
X15515916Y-6414606D01*
X15515624Y-6401900D01*
X15515753Y-6391525D01*
X15617065Y-6391525D01*
X15617544Y-6408922D01*
X15619057Y-6423889D01*
X15621648Y-6436560D01*
X15625366Y-6447066D01*
X15630256Y-6455541D01*
X15636366Y-6462117D01*
X15643418Y-6466766D01*
X15647087Y-6468501D01*
X15650270Y-6469542D01*
X15653818Y-6470018D01*
X15658584Y-6470060D01*
X15663719Y-6469875D01*
X15673817Y-6468984D01*
X15681803Y-6467240D01*
X15684313Y-6466366D01*
X15690045Y-6463786D01*
X15696090Y-6460545D01*
X15698730Y-6458923D01*
X15705595Y-6454420D01*
X15705595Y-6311698D01*
X15698043Y-6307172D01*
X15687512Y-6302057D01*
X15676752Y-6299032D01*
X15666158Y-6298079D01*
X15656122Y-6299181D01*
X15647039Y-6302318D01*
X15639301Y-6307474D01*
X15636804Y-6309949D01*
X15630786Y-6318058D01*
X15625914Y-6327873D01*
X15622150Y-6339564D01*
X15619451Y-6353298D01*
X15617777Y-6369244D01*
X15617088Y-6387570D01*
X15617065Y-6391525D01*
X15515753Y-6391525D01*
X15515807Y-6387207D01*
X15516965Y-6364605D01*
G37*
X15516965Y-6364605D02*
X15519292Y-6344219D01*
X15522850Y-6325751D01*
X15527701Y-6308905D01*
X15533906Y-6293383D01*
X15536120Y-6288781D01*
X15545038Y-6273774D01*
X15555816Y-6260438D01*
X15568199Y-6248988D01*
X15581934Y-6239639D01*
X15596768Y-6232607D01*
X15605660Y-6229706D01*
X15614393Y-6227984D01*
X15624901Y-6226959D01*
X15636303Y-6226632D01*
X15647718Y-6227001D01*
X15658265Y-6228066D01*
X15666733Y-6229737D01*
X15676813Y-6233014D01*
X15686582Y-6237228D01*
X15695130Y-6241952D01*
X15699679Y-6245158D01*
X15702817Y-6247542D01*
X15705014Y-6248994D01*
X15705514Y-6249200D01*
X15705669Y-6247872D01*
X15705813Y-6244066D01*
X15705944Y-6238052D01*
X15706058Y-6230097D01*
X15706152Y-6220471D01*
X15706223Y-6209442D01*
X15706267Y-6197278D01*
X15706281Y-6184888D01*
X15706273Y-6169020D01*
X15706233Y-6155641D01*
X15706139Y-6144496D01*
X15705968Y-6135329D01*
X15705696Y-6127885D01*
X15705300Y-6121907D01*
X15704757Y-6117140D01*
X15704044Y-6113327D01*
X15703138Y-6110213D01*
X15702017Y-6107542D01*
X15700656Y-6105058D01*
X15699033Y-6102504D01*
X15698824Y-6102188D01*
X15696731Y-6098881D01*
X15695467Y-6096607D01*
X15695297Y-6096127D01*
X15696622Y-6095976D01*
X15700400Y-6095853D01*
X15706342Y-6095760D01*
X15714154Y-6095699D01*
X15723546Y-6095673D01*
X15734227Y-6095682D01*
X15745904Y-6095730D01*
X15749873Y-6095754D01*
X15804449Y-6096113D01*
X15805135Y-6305492D01*
X15805226Y-6333884D01*
X15805306Y-6359664D01*
X15805381Y-6382965D01*
X15805457Y-6403919D01*
X15805537Y-6422662D01*
X15805628Y-6439325D01*
X15805735Y-6454042D01*
X15805862Y-6466948D01*
X15806016Y-6478174D01*
X15806200Y-6487854D01*
X15806420Y-6496123D01*
X15806682Y-6503112D01*
X15806991Y-6508956D01*
X15807351Y-6513787D01*
X15807768Y-6517740D01*
X15808247Y-6520947D01*
X15808793Y-6523542D01*
X15809412Y-6525659D01*
X15810108Y-6527430D01*
X15810887Y-6528989D01*
X15811754Y-6530469D01*
X15812713Y-6532004D01*
X15813771Y-6533728D01*
X15813988Y-6534095D01*
X15817627Y-6540303D01*
X15765043Y-6539943D01*
X15712459Y-6539584D01*
X15711773Y-6528033D01*
X15711399Y-6522490D01*
X15711010Y-6519285D01*
X15710481Y-6518013D01*
X15709690Y-6518270D01*
X15709027Y-6519002D01*
X15706137Y-6521671D01*
X15701428Y-6525102D01*
X15695562Y-6528885D01*
X15689203Y-6532609D01*
X15683015Y-6535865D01*
X15678263Y-6538008D01*
X15667132Y-6541528D01*
X15654360Y-6544022D01*
X15640890Y-6545394D01*
X15627666Y-6545549D01*
X15615631Y-6544391D01*
X15615433Y-6544357D01*
X15598964Y-6540225D01*
X15583548Y-6533641D01*
X15569333Y-6524747D01*
X15556467Y-6513685D01*
X15545101Y-6500596D01*
X15535381Y-6485622D01*
X15527457Y-6468903D01*
X15523143Y-6456519D01*
X15520298Y-6446158D01*
X15518188Y-6436125D01*
X15516749Y-6425811D01*
X15515916Y-6414606D01*
X15515624Y-6401900D01*
X15515753Y-6391525D01*
X15617065Y-6391525D01*
X15617544Y-6408922D01*
X15619057Y-6423889D01*
X15621648Y-6436560D01*
X15625366Y-6447066D01*
X15630256Y-6455541D01*
X15636366Y-6462117D01*
X15643418Y-6466766D01*
X15647087Y-6468501D01*
X15650270Y-6469542D01*
X15653818Y-6470018D01*
X15658584Y-6470060D01*
X15663719Y-6469875D01*
X15673817Y-6468984D01*
X15681803Y-6467240D01*
X15684313Y-6466366D01*
X15690045Y-6463786D01*
X15696090Y-6460545D01*
X15698730Y-6458923D01*
X15705595Y-6454420D01*
X15705595Y-6311698D01*
X15698043Y-6307172D01*
X15687512Y-6302057D01*
X15676752Y-6299032D01*
X15666158Y-6298079D01*
X15656122Y-6299181D01*
X15647039Y-6302318D01*
X15639301Y-6307474D01*
X15636804Y-6309949D01*
X15630786Y-6318058D01*
X15625914Y-6327873D01*
X15622150Y-6339564D01*
X15619451Y-6353298D01*
X15617777Y-6369244D01*
X15617088Y-6387570D01*
X15617065Y-6391525D01*
X15515753Y-6391525D01*
X15515807Y-6387207D01*
X15516965Y-6364605D01*
G36*
X14921159Y-6663964D02*
G01*
X14923516Y-6665346D01*
X14926597Y-6667607D01*
X14930563Y-6670853D01*
X14935573Y-6675190D01*
X14941786Y-6680725D01*
X14949364Y-6687564D01*
X14958037Y-6695428D01*
X14976100Y-6711807D01*
X14976664Y-6689822D01*
X14976868Y-6682254D01*
X14977064Y-6676619D01*
X14977297Y-6672590D01*
X14977610Y-6669843D01*
X14978046Y-6668052D01*
X14978649Y-6666893D01*
X14979462Y-6666040D01*
X14979894Y-6665681D01*
X14983347Y-6663786D01*
X14986632Y-6664063D01*
X14989239Y-6665682D01*
X14991904Y-6667839D01*
X14992236Y-6699334D01*
X14992327Y-6708597D01*
X14992374Y-6715874D01*
X14992359Y-6721435D01*
X14992268Y-6725553D01*
X14992082Y-6728499D01*
X14991787Y-6730545D01*
X14991366Y-6731960D01*
X14990803Y-6733018D01*
X14990178Y-6733867D01*
X14988827Y-6735440D01*
X14987482Y-6736483D01*
X14985958Y-6736883D01*
X14984068Y-6736529D01*
X14981625Y-6735307D01*
X14978443Y-6733106D01*
X14974336Y-6729814D01*
X14969117Y-6725318D01*
X14962599Y-6719507D01*
X14955215Y-6712829D01*
X14928686Y-6688765D01*
X14928122Y-6710678D01*
X14927918Y-6718232D01*
X14927721Y-6723855D01*
X14927487Y-6727872D01*
X14927173Y-6730609D01*
X14926734Y-6732392D01*
X14926128Y-6733547D01*
X14925311Y-6734400D01*
X14924892Y-6734747D01*
X14921194Y-6736656D01*
X14917700Y-6736368D01*
X14914657Y-6733929D01*
X14913961Y-6732948D01*
X14913418Y-6731802D01*
X14913010Y-6730216D01*
X14912718Y-6727915D01*
X14912522Y-6724625D01*
X14912402Y-6720071D01*
X14912342Y-6713976D01*
X14912320Y-6706068D01*
X14912317Y-6700215D01*
X14912325Y-6691060D01*
X14912359Y-6683888D01*
X14912441Y-6678424D01*
X14912587Y-6674392D01*
X14912819Y-6671519D01*
X14913154Y-6669528D01*
X14913612Y-6668146D01*
X14914212Y-6667096D01*
X14914657Y-6666500D01*
X14915786Y-6665088D01*
X14916841Y-6664022D01*
X14917981Y-6663408D01*
X14919368Y-6663353D01*
X14921159Y-6663964D01*
G37*
X14921159Y-6663964D02*
X14923516Y-6665346D01*
X14926597Y-6667607D01*
X14930563Y-6670853D01*
X14935573Y-6675190D01*
X14941786Y-6680725D01*
X14949364Y-6687564D01*
X14958037Y-6695428D01*
X14976100Y-6711807D01*
X14976664Y-6689822D01*
X14976868Y-6682254D01*
X14977064Y-6676619D01*
X14977297Y-6672590D01*
X14977610Y-6669843D01*
X14978046Y-6668052D01*
X14978649Y-6666893D01*
X14979462Y-6666040D01*
X14979894Y-6665681D01*
X14983347Y-6663786D01*
X14986632Y-6664063D01*
X14989239Y-6665682D01*
X14991904Y-6667839D01*
X14992236Y-6699334D01*
X14992327Y-6708597D01*
X14992374Y-6715874D01*
X14992359Y-6721435D01*
X14992268Y-6725553D01*
X14992082Y-6728499D01*
X14991787Y-6730545D01*
X14991366Y-6731960D01*
X14990803Y-6733018D01*
X14990178Y-6733867D01*
X14988827Y-6735440D01*
X14987482Y-6736483D01*
X14985958Y-6736883D01*
X14984068Y-6736529D01*
X14981625Y-6735307D01*
X14978443Y-6733106D01*
X14974336Y-6729814D01*
X14969117Y-6725318D01*
X14962599Y-6719507D01*
X14955215Y-6712829D01*
X14928686Y-6688765D01*
X14928122Y-6710678D01*
X14927918Y-6718232D01*
X14927721Y-6723855D01*
X14927487Y-6727872D01*
X14927173Y-6730609D01*
X14926734Y-6732392D01*
X14926128Y-6733547D01*
X14925311Y-6734400D01*
X14924892Y-6734747D01*
X14921194Y-6736656D01*
X14917700Y-6736368D01*
X14914657Y-6733929D01*
X14913961Y-6732948D01*
X14913418Y-6731802D01*
X14913010Y-6730216D01*
X14912718Y-6727915D01*
X14912522Y-6724625D01*
X14912402Y-6720071D01*
X14912342Y-6713976D01*
X14912320Y-6706068D01*
X14912317Y-6700215D01*
X14912325Y-6691060D01*
X14912359Y-6683888D01*
X14912441Y-6678424D01*
X14912587Y-6674392D01*
X14912819Y-6671519D01*
X14913154Y-6669528D01*
X14913612Y-6668146D01*
X14914212Y-6667096D01*
X14914657Y-6666500D01*
X14915786Y-6665088D01*
X14916841Y-6664022D01*
X14917981Y-6663408D01*
X14919368Y-6663353D01*
X14921159Y-6663964D01*
G36*
X14856163Y-6664079D02*
G01*
X14863014Y-6665229D01*
X14868276Y-6667016D01*
X14871700Y-6669369D01*
X14872633Y-6670712D01*
X14873581Y-6673834D01*
X14872943Y-6676659D01*
X14870928Y-6679337D01*
X14867796Y-6680590D01*
X14863252Y-6680489D01*
X14859738Y-6679810D01*
X14851929Y-6678516D01*
X14843948Y-6678393D01*
X14835015Y-6679443D01*
X14832548Y-6679888D01*
X14824242Y-6682230D01*
X14817743Y-6685714D01*
X14813125Y-6690280D01*
X14810456Y-6695869D01*
X14809904Y-6698758D01*
X14810266Y-6704620D01*
X14812598Y-6709807D01*
X14816688Y-6714217D01*
X14822325Y-6717749D01*
X14829295Y-6720302D01*
X14837386Y-6721775D01*
X14846385Y-6722067D01*
X14856080Y-6721077D01*
X14856627Y-6720983D01*
X14860483Y-6720265D01*
X14862621Y-6719571D01*
X14863548Y-6718542D01*
X14863770Y-6716817D01*
X14863775Y-6715903D01*
X14863775Y-6712068D01*
X14856928Y-6712068D01*
X14850881Y-6711654D01*
X14846754Y-6710334D01*
X14844353Y-6707992D01*
X14843483Y-6704513D01*
X14843472Y-6704059D01*
X14843982Y-6701085D01*
X14845727Y-6698961D01*
X14848977Y-6697556D01*
X14853996Y-6696736D01*
X14858858Y-6696435D01*
X14865925Y-6696262D01*
X14871051Y-6696526D01*
X14874547Y-6697499D01*
X14876724Y-6699454D01*
X14877893Y-6702665D01*
X14878365Y-6707403D01*
X14878451Y-6713626D01*
X14878310Y-6720573D01*
X14877886Y-6725298D01*
X14877177Y-6727820D01*
X14877040Y-6728018D01*
X14873148Y-6731170D01*
X14867442Y-6733666D01*
X14860284Y-6735453D01*
X14852035Y-6736478D01*
X14843057Y-6736686D01*
X14833712Y-6736026D01*
X14828215Y-6735215D01*
X14819594Y-6732775D01*
X14811582Y-6728785D01*
X14804873Y-6723608D01*
X14803853Y-6722573D01*
X14800541Y-6718223D01*
X14797551Y-6712831D01*
X14795235Y-6707178D01*
X14793941Y-6702045D01*
X14793785Y-6700074D01*
X14794449Y-6695961D01*
X14796214Y-6690844D01*
X14798741Y-6685459D01*
X14801692Y-6680539D01*
X14804299Y-6677253D01*
X14810394Y-6672364D01*
X14818274Y-6668474D01*
X14827655Y-6665669D01*
X14838256Y-6664037D01*
X14847971Y-6663638D01*
X14856163Y-6664079D01*
G37*
X14856163Y-6664079D02*
X14863014Y-6665229D01*
X14868276Y-6667016D01*
X14871700Y-6669369D01*
X14872633Y-6670712D01*
X14873581Y-6673834D01*
X14872943Y-6676659D01*
X14870928Y-6679337D01*
X14867796Y-6680590D01*
X14863252Y-6680489D01*
X14859738Y-6679810D01*
X14851929Y-6678516D01*
X14843948Y-6678393D01*
X14835015Y-6679443D01*
X14832548Y-6679888D01*
X14824242Y-6682230D01*
X14817743Y-6685714D01*
X14813125Y-6690280D01*
X14810456Y-6695869D01*
X14809904Y-6698758D01*
X14810266Y-6704620D01*
X14812598Y-6709807D01*
X14816688Y-6714217D01*
X14822325Y-6717749D01*
X14829295Y-6720302D01*
X14837386Y-6721775D01*
X14846385Y-6722067D01*
X14856080Y-6721077D01*
X14856627Y-6720983D01*
X14860483Y-6720265D01*
X14862621Y-6719571D01*
X14863548Y-6718542D01*
X14863770Y-6716817D01*
X14863775Y-6715903D01*
X14863775Y-6712068D01*
X14856928Y-6712068D01*
X14850881Y-6711654D01*
X14846754Y-6710334D01*
X14844353Y-6707992D01*
X14843483Y-6704513D01*
X14843472Y-6704059D01*
X14843982Y-6701085D01*
X14845727Y-6698961D01*
X14848977Y-6697556D01*
X14853996Y-6696736D01*
X14858858Y-6696435D01*
X14865925Y-6696262D01*
X14871051Y-6696526D01*
X14874547Y-6697499D01*
X14876724Y-6699454D01*
X14877893Y-6702665D01*
X14878365Y-6707403D01*
X14878451Y-6713626D01*
X14878310Y-6720573D01*
X14877886Y-6725298D01*
X14877177Y-6727820D01*
X14877040Y-6728018D01*
X14873148Y-6731170D01*
X14867442Y-6733666D01*
X14860284Y-6735453D01*
X14852035Y-6736478D01*
X14843057Y-6736686D01*
X14833712Y-6736026D01*
X14828215Y-6735215D01*
X14819594Y-6732775D01*
X14811582Y-6728785D01*
X14804873Y-6723608D01*
X14803853Y-6722573D01*
X14800541Y-6718223D01*
X14797551Y-6712831D01*
X14795235Y-6707178D01*
X14793941Y-6702045D01*
X14793785Y-6700074D01*
X14794449Y-6695961D01*
X14796214Y-6690844D01*
X14798741Y-6685459D01*
X14801692Y-6680539D01*
X14804299Y-6677253D01*
X14810394Y-6672364D01*
X14818274Y-6668474D01*
X14827655Y-6665669D01*
X14838256Y-6664037D01*
X14847971Y-6663638D01*
X14856163Y-6664079D01*
G36*
X14682000Y-6663654D02*
G01*
X14689482Y-6664177D01*
X14696440Y-6664994D01*
X14702471Y-6666074D01*
X14707169Y-6667386D01*
X14710130Y-6668900D01*
X14710585Y-6669346D01*
X14712165Y-6672804D01*
X14711686Y-6676354D01*
X14709234Y-6679392D01*
X14709117Y-6679479D01*
X14707675Y-6680415D01*
X14706170Y-6680907D01*
X14704070Y-6680966D01*
X14700845Y-6680605D01*
X14695963Y-6679835D01*
X14695571Y-6679770D01*
X14688297Y-6678876D01*
X14680449Y-6678435D01*
X14672578Y-6678431D01*
X14665235Y-6678847D01*
X14658970Y-6679667D01*
X14654334Y-6680875D01*
X14654029Y-6680996D01*
X14650666Y-6682881D01*
X14649484Y-6684788D01*
X14650409Y-6686663D01*
X14653366Y-6688453D01*
X14658280Y-6690103D01*
X14665075Y-6691559D01*
X14669606Y-6692260D01*
X14679025Y-6693608D01*
X14686516Y-6694841D01*
X14692399Y-6696064D01*
X14696992Y-6697385D01*
X14700615Y-6698911D01*
X14703587Y-6700748D01*
X14706227Y-6703002D01*
X14708348Y-6705216D01*
X14710864Y-6708301D01*
X14712103Y-6710954D01*
X14712490Y-6714222D01*
X14712504Y-6715419D01*
X14712213Y-6719390D01*
X14711051Y-6722345D01*
X14709038Y-6724968D01*
X14704949Y-6728977D01*
X14700389Y-6732034D01*
X14695019Y-6734239D01*
X14688502Y-6735693D01*
X14680496Y-6736493D01*
X14670665Y-6736741D01*
X14669042Y-6736737D01*
X14662486Y-6736601D01*
X14655984Y-6736292D01*
X14650246Y-6735855D01*
X14645979Y-6735333D01*
X14645634Y-6735273D01*
X14641391Y-6734268D01*
X14637793Y-6732999D01*
X14635756Y-6731838D01*
X14633860Y-6728776D01*
X14633728Y-6725211D01*
X14635362Y-6722034D01*
X14635728Y-6721674D01*
X14637239Y-6720607D01*
X14639129Y-6720147D01*
X14642055Y-6720225D01*
X14645606Y-6720632D01*
X14649574Y-6720995D01*
X14655136Y-6721302D01*
X14661630Y-6721524D01*
X14668392Y-6721636D01*
X14670171Y-6721643D01*
X14676958Y-6721616D01*
X14681925Y-6721484D01*
X14685510Y-6721202D01*
X14688148Y-6720724D01*
X14690278Y-6720005D01*
X14691558Y-6719406D01*
X14694371Y-6717742D01*
X14696164Y-6716236D01*
X14696426Y-6715809D01*
X14695873Y-6714045D01*
X14693245Y-6712338D01*
X14688723Y-6710765D01*
X14682490Y-6709403D01*
X14680654Y-6709100D01*
X14671062Y-6707593D01*
X14663407Y-6706334D01*
X14657393Y-6705230D01*
X14652725Y-6704191D01*
X14649107Y-6703125D01*
X14646244Y-6701940D01*
X14643841Y-6700544D01*
X14641602Y-6698847D01*
X14639231Y-6696757D01*
X14638433Y-6696024D01*
X14635635Y-6693289D01*
X14634155Y-6691122D01*
X14633576Y-6688642D01*
X14633482Y-6685517D01*
X14634513Y-6679390D01*
X14637596Y-6674183D01*
X14642711Y-6669915D01*
X14649842Y-6666602D01*
X14654931Y-6665116D01*
X14660461Y-6664156D01*
X14667085Y-6663613D01*
X14674400Y-6663456D01*
X14682000Y-6663654D01*
G37*
X14682000Y-6663654D02*
X14689482Y-6664177D01*
X14696440Y-6664994D01*
X14702471Y-6666074D01*
X14707169Y-6667386D01*
X14710130Y-6668900D01*
X14710585Y-6669346D01*
X14712165Y-6672804D01*
X14711686Y-6676354D01*
X14709234Y-6679392D01*
X14709117Y-6679479D01*
X14707675Y-6680415D01*
X14706170Y-6680907D01*
X14704070Y-6680966D01*
X14700845Y-6680605D01*
X14695963Y-6679835D01*
X14695571Y-6679770D01*
X14688297Y-6678876D01*
X14680449Y-6678435D01*
X14672578Y-6678431D01*
X14665235Y-6678847D01*
X14658970Y-6679667D01*
X14654334Y-6680875D01*
X14654029Y-6680996D01*
X14650666Y-6682881D01*
X14649484Y-6684788D01*
X14650409Y-6686663D01*
X14653366Y-6688453D01*
X14658280Y-6690103D01*
X14665075Y-6691559D01*
X14669606Y-6692260D01*
X14679025Y-6693608D01*
X14686516Y-6694841D01*
X14692399Y-6696064D01*
X14696992Y-6697385D01*
X14700615Y-6698911D01*
X14703587Y-6700748D01*
X14706227Y-6703002D01*
X14708348Y-6705216D01*
X14710864Y-6708301D01*
X14712103Y-6710954D01*
X14712490Y-6714222D01*
X14712504Y-6715419D01*
X14712213Y-6719390D01*
X14711051Y-6722345D01*
X14709038Y-6724968D01*
X14704949Y-6728977D01*
X14700389Y-6732034D01*
X14695019Y-6734239D01*
X14688502Y-6735693D01*
X14680496Y-6736493D01*
X14670665Y-6736741D01*
X14669042Y-6736737D01*
X14662486Y-6736601D01*
X14655984Y-6736292D01*
X14650246Y-6735855D01*
X14645979Y-6735333D01*
X14645634Y-6735273D01*
X14641391Y-6734268D01*
X14637793Y-6732999D01*
X14635756Y-6731838D01*
X14633860Y-6728776D01*
X14633728Y-6725211D01*
X14635362Y-6722034D01*
X14635728Y-6721674D01*
X14637239Y-6720607D01*
X14639129Y-6720147D01*
X14642055Y-6720225D01*
X14645606Y-6720632D01*
X14649574Y-6720995D01*
X14655136Y-6721302D01*
X14661630Y-6721524D01*
X14668392Y-6721636D01*
X14670171Y-6721643D01*
X14676958Y-6721616D01*
X14681925Y-6721484D01*
X14685510Y-6721202D01*
X14688148Y-6720724D01*
X14690278Y-6720005D01*
X14691558Y-6719406D01*
X14694371Y-6717742D01*
X14696164Y-6716236D01*
X14696426Y-6715809D01*
X14695873Y-6714045D01*
X14693245Y-6712338D01*
X14688723Y-6710765D01*
X14682490Y-6709403D01*
X14680654Y-6709100D01*
X14671062Y-6707593D01*
X14663407Y-6706334D01*
X14657393Y-6705230D01*
X14652725Y-6704191D01*
X14649107Y-6703125D01*
X14646244Y-6701940D01*
X14643841Y-6700544D01*
X14641602Y-6698847D01*
X14639231Y-6696757D01*
X14638433Y-6696024D01*
X14635635Y-6693289D01*
X14634155Y-6691122D01*
X14633576Y-6688642D01*
X14633482Y-6685517D01*
X14634513Y-6679390D01*
X14637596Y-6674183D01*
X14642711Y-6669915D01*
X14649842Y-6666602D01*
X14654931Y-6665116D01*
X14660461Y-6664156D01*
X14667085Y-6663613D01*
X14674400Y-6663456D01*
X14682000Y-6663654D01*
G36*
X15206353Y-6424454D02*
G01*
X15207078Y-6420510D01*
X15211704Y-6405870D01*
X15218738Y-6392399D01*
X15228048Y-6380228D01*
X15239501Y-6369485D01*
X15252964Y-6360299D01*
X15268304Y-6352800D01*
X15281346Y-6348246D01*
X15290062Y-6345853D01*
X15298400Y-6343994D01*
X15306898Y-6342608D01*
X15316096Y-6341635D01*
X15326536Y-6341014D01*
X15338757Y-6340685D01*
X15349805Y-6340592D01*
X15382568Y-6340503D01*
X15381940Y-6330655D01*
X15380158Y-6319969D01*
X15376367Y-6310785D01*
X15370728Y-6303331D01*
X15363403Y-6297836D01*
X15356953Y-6295155D01*
X15347712Y-6293465D01*
X15336711Y-6293223D01*
X15324466Y-6294338D01*
X15311491Y-6296721D01*
X15298304Y-6300283D01*
X15285420Y-6304934D01*
X15276057Y-6309188D01*
X15271552Y-6311373D01*
X15268116Y-6312898D01*
X15266368Y-6313494D01*
X15266273Y-6313475D01*
X15265670Y-6312141D01*
X15264164Y-6308607D01*
X15261898Y-6303210D01*
X15259011Y-6296290D01*
X15255648Y-6288184D01*
X15252228Y-6279912D01*
X15238559Y-6246780D01*
X15248282Y-6245183D01*
X15252496Y-6244382D01*
X15258832Y-6243036D01*
X15266746Y-6241268D01*
X15275695Y-6239200D01*
X15285137Y-6236953D01*
X15288897Y-6236040D01*
X15305164Y-6232267D01*
X15319405Y-6229439D01*
X15332153Y-6227497D01*
X15343938Y-6226385D01*
X15355294Y-6226046D01*
X15366750Y-6226423D01*
X15373553Y-6226938D01*
X15393016Y-6229527D01*
X15410253Y-6233657D01*
X15425347Y-6239385D01*
X15438382Y-6246767D01*
X15449443Y-6255861D01*
X15458613Y-6266722D01*
X15465977Y-6279408D01*
X15471354Y-6293135D01*
X15472719Y-6297514D01*
X15473907Y-6301614D01*
X15474933Y-6305657D01*
X15475811Y-6309863D01*
X15476555Y-6314453D01*
X15477178Y-6319648D01*
X15477695Y-6325668D01*
X15478120Y-6332735D01*
X15478466Y-6341069D01*
X15478748Y-6350890D01*
X15478980Y-6362420D01*
X15479176Y-6375880D01*
X15479349Y-6391489D01*
X15479514Y-6409469D01*
X15479632Y-6423568D01*
X15480427Y-6520362D01*
X15485576Y-6529677D01*
X15488014Y-6534164D01*
X15489828Y-6537650D01*
X15490693Y-6539505D01*
X15490724Y-6539631D01*
X15489401Y-6539775D01*
X15485633Y-6539907D01*
X15479718Y-6540025D01*
X15471959Y-6540124D01*
X15462654Y-6540200D01*
X15452103Y-6540250D01*
X15440608Y-6540270D01*
X15439238Y-6540270D01*
X15387751Y-6540270D01*
X15387751Y-6528600D01*
X15387663Y-6523326D01*
X15387429Y-6519293D01*
X15387092Y-6517130D01*
X15386943Y-6516930D01*
X15385580Y-6517768D01*
X15382776Y-6519969D01*
X15379130Y-6523060D01*
X15379048Y-6523132D01*
X15372396Y-6528084D01*
X15363995Y-6533057D01*
X15354794Y-6537563D01*
X15345742Y-6541111D01*
X15341757Y-6542324D01*
X15333825Y-6543864D01*
X15324093Y-6544846D01*
X15313452Y-6545258D01*
X15302791Y-6545084D01*
X15293002Y-6544311D01*
X15286151Y-6543198D01*
X15269352Y-6538265D01*
X15254228Y-6531234D01*
X15240878Y-6522193D01*
X15229401Y-6511229D01*
X15219894Y-6498430D01*
X15212456Y-6483882D01*
X15209247Y-6475054D01*
X15207236Y-6466474D01*
X15205904Y-6456174D01*
X15205287Y-6445103D01*
X15205307Y-6443492D01*
X15298165Y-6443492D01*
X15298935Y-6451718D01*
X15301499Y-6458555D01*
X15306238Y-6464897D01*
X15308058Y-6466757D01*
X15314528Y-6471785D01*
X15322007Y-6475006D01*
X15330966Y-6476565D01*
X15340401Y-6476680D01*
X15349350Y-6475922D01*
X15356202Y-6474439D01*
X15359177Y-6473325D01*
X15364541Y-6470290D01*
X15370223Y-6466022D01*
X15375408Y-6461232D01*
X15379278Y-6456630D01*
X15380305Y-6454942D01*
X15381104Y-6452578D01*
X15381672Y-6448817D01*
X15382036Y-6443298D01*
X15382221Y-6435664D01*
X15382259Y-6428398D01*
X15382233Y-6419927D01*
X15382129Y-6413802D01*
X15381904Y-6409623D01*
X15381521Y-6406990D01*
X15380936Y-6405503D01*
X15380112Y-6404764D01*
X15379857Y-6404646D01*
X15377640Y-6404283D01*
X15373268Y-6403987D01*
X15367331Y-6403783D01*
X15360420Y-6403698D01*
X15358919Y-6403698D01*
X15349680Y-6403846D01*
X15342543Y-6404284D01*
X15336872Y-6405074D01*
X15332187Y-6406227D01*
X15320567Y-6410621D01*
X15311454Y-6416024D01*
X15304770Y-6422522D01*
X15300436Y-6430200D01*
X15298373Y-6439147D01*
X15298165Y-6443492D01*
X15205307Y-6443492D01*
X15205424Y-6434213D01*
X15206353Y-6424454D01*
G37*
X15206353Y-6424454D02*
X15207078Y-6420510D01*
X15211704Y-6405870D01*
X15218738Y-6392399D01*
X15228048Y-6380228D01*
X15239501Y-6369485D01*
X15252964Y-6360299D01*
X15268304Y-6352800D01*
X15281346Y-6348246D01*
X15290062Y-6345853D01*
X15298400Y-6343994D01*
X15306898Y-6342608D01*
X15316096Y-6341635D01*
X15326536Y-6341014D01*
X15338757Y-6340685D01*
X15349805Y-6340592D01*
X15382568Y-6340503D01*
X15381940Y-6330655D01*
X15380158Y-6319969D01*
X15376367Y-6310785D01*
X15370728Y-6303331D01*
X15363403Y-6297836D01*
X15356953Y-6295155D01*
X15347712Y-6293465D01*
X15336711Y-6293223D01*
X15324466Y-6294338D01*
X15311491Y-6296721D01*
X15298304Y-6300283D01*
X15285420Y-6304934D01*
X15276057Y-6309188D01*
X15271552Y-6311373D01*
X15268116Y-6312898D01*
X15266368Y-6313494D01*
X15266273Y-6313475D01*
X15265670Y-6312141D01*
X15264164Y-6308607D01*
X15261898Y-6303210D01*
X15259011Y-6296290D01*
X15255648Y-6288184D01*
X15252228Y-6279912D01*
X15238559Y-6246780D01*
X15248282Y-6245183D01*
X15252496Y-6244382D01*
X15258832Y-6243036D01*
X15266746Y-6241268D01*
X15275695Y-6239200D01*
X15285137Y-6236953D01*
X15288897Y-6236040D01*
X15305164Y-6232267D01*
X15319405Y-6229439D01*
X15332153Y-6227497D01*
X15343938Y-6226385D01*
X15355294Y-6226046D01*
X15366750Y-6226423D01*
X15373553Y-6226938D01*
X15393016Y-6229527D01*
X15410253Y-6233657D01*
X15425347Y-6239385D01*
X15438382Y-6246767D01*
X15449443Y-6255861D01*
X15458613Y-6266722D01*
X15465977Y-6279408D01*
X15471354Y-6293135D01*
X15472719Y-6297514D01*
X15473907Y-6301614D01*
X15474933Y-6305657D01*
X15475811Y-6309863D01*
X15476555Y-6314453D01*
X15477178Y-6319648D01*
X15477695Y-6325668D01*
X15478120Y-6332735D01*
X15478466Y-6341069D01*
X15478748Y-6350890D01*
X15478980Y-6362420D01*
X15479176Y-6375880D01*
X15479349Y-6391489D01*
X15479514Y-6409469D01*
X15479632Y-6423568D01*
X15480427Y-6520362D01*
X15485576Y-6529677D01*
X15488014Y-6534164D01*
X15489828Y-6537650D01*
X15490693Y-6539505D01*
X15490724Y-6539631D01*
X15489401Y-6539775D01*
X15485633Y-6539907D01*
X15479718Y-6540025D01*
X15471959Y-6540124D01*
X15462654Y-6540200D01*
X15452103Y-6540250D01*
X15440608Y-6540270D01*
X15439238Y-6540270D01*
X15387751Y-6540270D01*
X15387751Y-6528600D01*
X15387663Y-6523326D01*
X15387429Y-6519293D01*
X15387092Y-6517130D01*
X15386943Y-6516930D01*
X15385580Y-6517768D01*
X15382776Y-6519969D01*
X15379130Y-6523060D01*
X15379048Y-6523132D01*
X15372396Y-6528084D01*
X15363995Y-6533057D01*
X15354794Y-6537563D01*
X15345742Y-6541111D01*
X15341757Y-6542324D01*
X15333825Y-6543864D01*
X15324093Y-6544846D01*
X15313452Y-6545258D01*
X15302791Y-6545084D01*
X15293002Y-6544311D01*
X15286151Y-6543198D01*
X15269352Y-6538265D01*
X15254228Y-6531234D01*
X15240878Y-6522193D01*
X15229401Y-6511229D01*
X15219894Y-6498430D01*
X15212456Y-6483882D01*
X15209247Y-6475054D01*
X15207236Y-6466474D01*
X15205904Y-6456174D01*
X15205287Y-6445103D01*
X15205307Y-6443492D01*
X15298165Y-6443492D01*
X15298935Y-6451718D01*
X15301499Y-6458555D01*
X15306238Y-6464897D01*
X15308058Y-6466757D01*
X15314528Y-6471785D01*
X15322007Y-6475006D01*
X15330966Y-6476565D01*
X15340401Y-6476680D01*
X15349350Y-6475922D01*
X15356202Y-6474439D01*
X15359177Y-6473325D01*
X15364541Y-6470290D01*
X15370223Y-6466022D01*
X15375408Y-6461232D01*
X15379278Y-6456630D01*
X15380305Y-6454942D01*
X15381104Y-6452578D01*
X15381672Y-6448817D01*
X15382036Y-6443298D01*
X15382221Y-6435664D01*
X15382259Y-6428398D01*
X15382233Y-6419927D01*
X15382129Y-6413802D01*
X15381904Y-6409623D01*
X15381521Y-6406990D01*
X15380936Y-6405503D01*
X15380112Y-6404764D01*
X15379857Y-6404646D01*
X15377640Y-6404283D01*
X15373268Y-6403987D01*
X15367331Y-6403783D01*
X15360420Y-6403698D01*
X15358919Y-6403698D01*
X15349680Y-6403846D01*
X15342543Y-6404284D01*
X15336872Y-6405074D01*
X15332187Y-6406227D01*
X15320567Y-6410621D01*
X15311454Y-6416024D01*
X15304770Y-6422522D01*
X15300436Y-6430200D01*
X15298373Y-6439147D01*
X15298165Y-6443492D01*
X15205307Y-6443492D01*
X15205424Y-6434213D01*
X15206353Y-6424454D01*
G36*
X15470032Y-6664207D02*
G01*
X15472403Y-6665684D01*
X15475069Y-6667842D01*
X15475069Y-6699996D01*
X15475060Y-6709402D01*
X15475024Y-6716812D01*
X15474943Y-6722490D01*
X15474802Y-6726696D01*
X15474584Y-6729694D01*
X15474273Y-6731746D01*
X15473852Y-6733114D01*
X15473306Y-6734061D01*
X15472918Y-6734527D01*
X15469774Y-6736577D01*
X15466194Y-6736493D01*
X15463058Y-6734746D01*
X15460393Y-6732588D01*
X15460393Y-6667842D01*
X15463058Y-6665684D01*
X15465630Y-6664114D01*
X15467731Y-6663526D01*
X15470032Y-6664207D01*
G37*
X15470032Y-6664207D02*
X15472403Y-6665684D01*
X15475069Y-6667842D01*
X15475069Y-6699996D01*
X15475060Y-6709402D01*
X15475024Y-6716812D01*
X15474943Y-6722490D01*
X15474802Y-6726696D01*
X15474584Y-6729694D01*
X15474273Y-6731746D01*
X15473852Y-6733114D01*
X15473306Y-6734061D01*
X15472918Y-6734527D01*
X15469774Y-6736577D01*
X15466194Y-6736493D01*
X15463058Y-6734746D01*
X15460393Y-6732588D01*
X15460393Y-6667842D01*
X15463058Y-6665684D01*
X15465630Y-6664114D01*
X15467731Y-6663526D01*
X15470032Y-6664207D01*
G36*
X14284011Y-6516809D02*
G01*
X14283950Y-6501054D01*
X14283909Y-6483369D01*
X14283885Y-6463641D01*
X14283873Y-6441756D01*
X14283870Y-6417601D01*
X14283873Y-6391061D01*
X14283878Y-6362025D01*
X14283881Y-6330377D01*
X14283881Y-6324095D01*
X14283883Y-6292114D01*
X14283889Y-6262766D01*
X14283900Y-6235939D01*
X14283917Y-6211520D01*
X14283940Y-6189396D01*
X14283972Y-6169454D01*
X14284011Y-6151582D01*
X14284061Y-6135667D01*
X14284120Y-6121597D01*
X14284191Y-6109258D01*
X14284274Y-6098538D01*
X14284369Y-6089324D01*
X14284479Y-6081503D01*
X14284603Y-6074964D01*
X14284742Y-6069593D01*
X14284898Y-6065277D01*
X14285071Y-6061904D01*
X14285263Y-6059360D01*
X14285473Y-6057535D01*
X14285703Y-6056313D01*
X14285954Y-6055584D01*
X14285964Y-6055566D01*
X14286481Y-6054452D01*
X14286911Y-6053443D01*
X14287388Y-6052535D01*
X14288042Y-6051721D01*
X14289006Y-6050998D01*
X14290413Y-6050359D01*
X14292394Y-6049799D01*
X14295081Y-6049313D01*
X14298607Y-6048897D01*
X14303103Y-6048544D01*
X14308703Y-6048249D01*
X14315537Y-6048008D01*
X14323739Y-6047814D01*
X14333439Y-6047664D01*
X14344772Y-6047551D01*
X14357868Y-6047470D01*
X14372859Y-6047417D01*
X14389879Y-6047385D01*
X14409058Y-6047370D01*
X14430530Y-6047366D01*
X14454426Y-6047369D01*
X14480878Y-6047372D01*
X14493191Y-6047373D01*
X14690281Y-6047373D01*
X14690281Y-6058991D01*
X14691521Y-6073129D01*
X14695264Y-6086168D01*
X14701542Y-6098186D01*
X14710391Y-6109260D01*
X14713384Y-6112251D01*
X14724153Y-6120735D01*
X14736027Y-6126922D01*
X14748654Y-6130816D01*
X14761680Y-6132419D01*
X14774753Y-6131734D01*
X14787521Y-6128764D01*
X14799630Y-6123512D01*
X14810729Y-6115980D01*
X14815713Y-6111436D01*
X14825002Y-6100295D01*
X14831813Y-6088043D01*
X14836087Y-6074821D01*
X14837765Y-6060769D01*
X14837788Y-6059387D01*
X14837876Y-6047373D01*
X14843156Y-6047373D01*
X14847840Y-6048009D01*
X14852118Y-6049556D01*
X14852401Y-6049715D01*
X14853367Y-6050217D01*
X14854255Y-6050607D01*
X14855066Y-6051001D01*
X14855806Y-6051511D01*
X14856475Y-6052251D01*
X14857079Y-6053335D01*
X14857620Y-6054877D01*
X14858101Y-6056991D01*
X14858525Y-6059790D01*
X14858897Y-6063388D01*
X14859218Y-6067899D01*
X14859492Y-6073436D01*
X14859723Y-6080114D01*
X14859913Y-6088045D01*
X14860066Y-6097345D01*
X14860185Y-6108126D01*
X14860273Y-6120502D01*
X14860333Y-6134587D01*
X14860369Y-6150495D01*
X14860383Y-6168339D01*
X14860380Y-6188234D01*
X14860362Y-6210293D01*
X14860332Y-6234629D01*
X14860294Y-6261357D01*
X14860251Y-6290590D01*
X14860205Y-6322442D01*
X14860200Y-6326323D01*
X14860160Y-6358378D01*
X14860125Y-6387801D01*
X14860093Y-6414706D01*
X14860060Y-6439205D01*
X14860022Y-6461414D01*
X14859976Y-6481445D01*
X14859917Y-6499412D01*
X14859843Y-6515429D01*
X14859749Y-6529610D01*
X14859633Y-6542068D01*
X14859489Y-6552917D01*
X14859316Y-6562271D01*
X14859108Y-6570243D01*
X14858862Y-6576947D01*
X14858576Y-6582497D01*
X14858244Y-6587007D01*
X14857864Y-6590589D01*
X14857431Y-6593359D01*
X14856942Y-6595429D01*
X14856394Y-6596914D01*
X14855783Y-6597926D01*
X14855105Y-6598580D01*
X14854356Y-6598989D01*
X14853533Y-6599268D01*
X14852633Y-6599529D01*
X14851650Y-6599886D01*
X14851411Y-6599995D01*
X14850656Y-6600240D01*
X14849394Y-6600464D01*
X14847514Y-6600670D01*
X14844905Y-6600857D01*
X14841458Y-6601027D01*
X14837061Y-6601180D01*
X14831606Y-6601318D01*
X14824981Y-6601440D01*
X14817077Y-6601548D01*
X14807784Y-6601643D01*
X14796990Y-6601725D01*
X14784586Y-6601795D01*
X14770462Y-6601854D01*
X14754508Y-6601902D01*
X14736613Y-6601942D01*
X14716667Y-6601972D01*
X14694560Y-6601995D01*
X14670181Y-6602011D01*
X14643421Y-6602020D01*
X14614170Y-6602024D01*
X14582316Y-6602024D01*
X14571998Y-6602023D01*
X14539438Y-6602018D01*
X14509512Y-6602009D01*
X14482109Y-6601996D01*
X14457118Y-6601978D01*
X14434426Y-6601955D01*
X14413923Y-6601924D01*
X14395496Y-6601886D01*
X14379035Y-6601839D01*
X14364427Y-6601783D01*
X14351562Y-6601716D01*
X14340328Y-6601639D01*
X14330613Y-6601549D01*
X14322305Y-6601446D01*
X14315294Y-6601330D01*
X14309467Y-6601199D01*
X14304713Y-6601052D01*
X14300921Y-6600890D01*
X14297979Y-6600709D01*
X14295775Y-6600511D01*
X14294199Y-6600294D01*
X14293138Y-6600056D01*
X14292560Y-6599839D01*
X14291532Y-6599406D01*
X14290588Y-6599086D01*
X14289724Y-6598766D01*
X14288938Y-6598334D01*
X14288225Y-6597674D01*
X14287582Y-6596675D01*
X14287005Y-6595221D01*
X14286491Y-6593200D01*
X14286036Y-6590498D01*
X14285636Y-6587002D01*
X14285289Y-6582598D01*
X14284990Y-6577172D01*
X14284735Y-6570612D01*
X14284522Y-6562802D01*
X14284347Y-6553631D01*
X14284205Y-6542984D01*
X14284168Y-6538897D01*
X14320812Y-6538897D01*
X14450327Y-6538897D01*
X14447834Y-6535122D01*
X14445355Y-6531242D01*
X14443256Y-6527547D01*
X14441506Y-6523779D01*
X14440077Y-6519679D01*
X14438938Y-6514988D01*
X14438059Y-6509449D01*
X14437410Y-6502802D01*
X14436962Y-6494788D01*
X14436685Y-6485150D01*
X14436549Y-6473629D01*
X14436523Y-6459966D01*
X14436579Y-6443902D01*
X14436611Y-6437938D01*
X14436967Y-6374004D01*
X14477470Y-6429145D01*
X14488945Y-6444788D01*
X14498886Y-6458409D01*
X14507401Y-6470189D01*
X14514598Y-6480308D01*
X14520583Y-6488948D01*
X14525465Y-6496287D01*
X14529350Y-6502508D01*
X14532347Y-6507789D01*
X14534561Y-6512312D01*
X14536101Y-6516258D01*
X14537073Y-6519806D01*
X14537586Y-6523137D01*
X14537747Y-6526431D01*
X14537662Y-6529870D01*
X14537640Y-6530302D01*
X14537195Y-6538903D01*
X14679131Y-6538897D01*
X14668573Y-6528252D01*
X14665709Y-6525341D01*
X14662991Y-6522508D01*
X14660301Y-6519597D01*
X14657520Y-6516452D01*
X14654527Y-6512917D01*
X14651205Y-6508835D01*
X14647434Y-6504051D01*
X14643094Y-6498408D01*
X14638066Y-6491749D01*
X14632231Y-6483919D01*
X14625470Y-6474762D01*
X14617663Y-6464120D01*
X14608691Y-6451839D01*
X14598435Y-6437760D01*
X14586776Y-6421730D01*
X14577219Y-6408580D01*
X14565225Y-6392060D01*
X14554762Y-6377615D01*
X14545735Y-6365109D01*
X14538050Y-6354405D01*
X14531611Y-6345365D01*
X14526324Y-6337853D01*
X14522094Y-6331730D01*
X14518826Y-6326861D01*
X14516426Y-6323107D01*
X14514799Y-6320332D01*
X14513849Y-6318399D01*
X14513483Y-6317170D01*
X14513593Y-6316524D01*
X14514928Y-6314805D01*
X14517813Y-6311165D01*
X14522076Y-6305822D01*
X14527541Y-6298992D01*
X14534036Y-6290890D01*
X14541384Y-6281734D01*
X14549413Y-6271739D01*
X14557948Y-6261122D01*
X14566816Y-6250100D01*
X14575841Y-6238888D01*
X14580806Y-6232724D01*
X14704063Y-6232724D01*
X14709185Y-6241992D01*
X14714308Y-6251259D01*
X14714308Y-6520362D01*
X14709185Y-6529630D01*
X14704063Y-6538897D01*
X14764660Y-6538897D01*
X14779127Y-6538893D01*
X14791076Y-6538874D01*
X14800736Y-6538831D01*
X14808336Y-6538754D01*
X14814104Y-6538633D01*
X14818270Y-6538459D01*
X14821061Y-6538223D01*
X14822706Y-6537915D01*
X14823435Y-6537525D01*
X14823474Y-6537044D01*
X14823054Y-6536462D01*
X14823050Y-6536457D01*
X14821319Y-6533953D01*
X14819026Y-6529881D01*
X14817002Y-6525817D01*
X14813162Y-6517616D01*
X14812379Y-6232724D01*
X14704063Y-6232724D01*
X14580806Y-6232724D01*
X14584851Y-6227702D01*
X14593670Y-6216760D01*
X14602125Y-6206278D01*
X14610041Y-6196471D01*
X14617244Y-6187557D01*
X14623561Y-6179750D01*
X14628817Y-6173269D01*
X14632838Y-6168329D01*
X14635200Y-6165449D01*
X14644371Y-6154678D01*
X14653194Y-6144958D01*
X14661360Y-6136608D01*
X14668559Y-6129945D01*
X14673668Y-6125860D01*
X14679709Y-6121513D01*
X14540770Y-6121513D01*
X14540809Y-6129667D01*
X14540421Y-6135661D01*
X14538961Y-6141218D01*
X14536701Y-6146485D01*
X14535232Y-6149461D01*
X14533653Y-6152410D01*
X14531819Y-6155528D01*
X14529585Y-6159009D01*
X14526809Y-6163051D01*
X14523345Y-6167849D01*
X14519049Y-6173598D01*
X14513777Y-6180494D01*
X14507385Y-6188734D01*
X14499728Y-6198512D01*
X14490662Y-6210025D01*
X14480043Y-6223469D01*
X14478843Y-6224986D01*
X14436967Y-6277941D01*
X14436562Y-6219292D01*
X14436480Y-6201725D01*
X14436498Y-6186853D01*
X14436615Y-6174627D01*
X14436833Y-6164999D01*
X14437153Y-6157918D01*
X14437574Y-6153337D01*
X14437716Y-6152468D01*
X14439941Y-6143313D01*
X14442856Y-6135061D01*
X14446182Y-6128425D01*
X14448180Y-6125611D01*
X14451628Y-6121513D01*
X14386209Y-6121513D01*
X14370603Y-6121527D01*
X14357553Y-6121570D01*
X14346869Y-6121649D01*
X14338360Y-6121768D01*
X14331836Y-6121932D01*
X14327108Y-6122146D01*
X14323984Y-6122416D01*
X14322275Y-6122746D01*
X14321791Y-6123142D01*
X14321825Y-6123230D01*
X14323211Y-6125323D01*
X14325527Y-6128641D01*
X14326725Y-6130319D01*
X14327963Y-6131994D01*
X14329076Y-6133491D01*
X14330071Y-6134959D01*
X14330955Y-6136545D01*
X14331734Y-6138395D01*
X14332416Y-6140658D01*
X14333008Y-6143481D01*
X14333517Y-6147011D01*
X14333950Y-6151396D01*
X14334313Y-6156782D01*
X14334614Y-6163318D01*
X14334860Y-6171150D01*
X14335058Y-6180427D01*
X14335214Y-6191295D01*
X14335337Y-6203901D01*
X14335432Y-6218394D01*
X14335507Y-6234921D01*
X14335569Y-6253628D01*
X14335625Y-6274663D01*
X14335681Y-6298175D01*
X14335734Y-6319774D01*
X14335784Y-6343853D01*
X14335810Y-6366827D01*
X14335813Y-6388549D01*
X14335793Y-6408872D01*
X14335751Y-6427650D01*
X14335688Y-6444734D01*
X14335604Y-6459980D01*
X14335501Y-6473240D01*
X14335378Y-6484368D01*
X14335237Y-6493216D01*
X14335077Y-6499637D01*
X14334901Y-6503486D01*
X14334868Y-6503893D01*
X14333653Y-6513225D01*
X14331757Y-6520719D01*
X14328870Y-6527259D01*
X14324681Y-6533729D01*
X14324157Y-6534435D01*
X14320812Y-6538897D01*
X14284168Y-6538897D01*
X14284095Y-6530748D01*
X14284011Y-6516809D01*
G37*
X14284011Y-6516809D02*
X14283950Y-6501054D01*
X14283909Y-6483369D01*
X14283885Y-6463641D01*
X14283873Y-6441756D01*
X14283870Y-6417601D01*
X14283873Y-6391061D01*
X14283878Y-6362025D01*
X14283881Y-6330377D01*
X14283881Y-6324095D01*
X14283883Y-6292114D01*
X14283889Y-6262766D01*
X14283900Y-6235939D01*
X14283917Y-6211520D01*
X14283940Y-6189396D01*
X14283972Y-6169454D01*
X14284011Y-6151582D01*
X14284061Y-6135667D01*
X14284120Y-6121597D01*
X14284191Y-6109258D01*
X14284274Y-6098538D01*
X14284369Y-6089324D01*
X14284479Y-6081503D01*
X14284603Y-6074964D01*
X14284742Y-6069593D01*
X14284898Y-6065277D01*
X14285071Y-6061904D01*
X14285263Y-6059360D01*
X14285473Y-6057535D01*
X14285703Y-6056313D01*
X14285954Y-6055584D01*
X14285964Y-6055566D01*
X14286481Y-6054452D01*
X14286911Y-6053443D01*
X14287388Y-6052535D01*
X14288042Y-6051721D01*
X14289006Y-6050998D01*
X14290413Y-6050359D01*
X14292394Y-6049799D01*
X14295081Y-6049313D01*
X14298607Y-6048897D01*
X14303103Y-6048544D01*
X14308703Y-6048249D01*
X14315537Y-6048008D01*
X14323739Y-6047814D01*
X14333439Y-6047664D01*
X14344772Y-6047551D01*
X14357868Y-6047470D01*
X14372859Y-6047417D01*
X14389879Y-6047385D01*
X14409058Y-6047370D01*
X14430530Y-6047366D01*
X14454426Y-6047369D01*
X14480878Y-6047372D01*
X14493191Y-6047373D01*
X14690281Y-6047373D01*
X14690281Y-6058991D01*
X14691521Y-6073129D01*
X14695264Y-6086168D01*
X14701542Y-6098186D01*
X14710391Y-6109260D01*
X14713384Y-6112251D01*
X14724153Y-6120735D01*
X14736027Y-6126922D01*
X14748654Y-6130816D01*
X14761680Y-6132419D01*
X14774753Y-6131734D01*
X14787521Y-6128764D01*
X14799630Y-6123512D01*
X14810729Y-6115980D01*
X14815713Y-6111436D01*
X14825002Y-6100295D01*
X14831813Y-6088043D01*
X14836087Y-6074821D01*
X14837765Y-6060769D01*
X14837788Y-6059387D01*
X14837876Y-6047373D01*
X14843156Y-6047373D01*
X14847840Y-6048009D01*
X14852118Y-6049556D01*
X14852401Y-6049715D01*
X14853367Y-6050217D01*
X14854255Y-6050607D01*
X14855066Y-6051001D01*
X14855806Y-6051511D01*
X14856475Y-6052251D01*
X14857079Y-6053335D01*
X14857620Y-6054877D01*
X14858101Y-6056991D01*
X14858525Y-6059790D01*
X14858897Y-6063388D01*
X14859218Y-6067899D01*
X14859492Y-6073436D01*
X14859723Y-6080114D01*
X14859913Y-6088045D01*
X14860066Y-6097345D01*
X14860185Y-6108126D01*
X14860273Y-6120502D01*
X14860333Y-6134587D01*
X14860369Y-6150495D01*
X14860383Y-6168339D01*
X14860380Y-6188234D01*
X14860362Y-6210293D01*
X14860332Y-6234629D01*
X14860294Y-6261357D01*
X14860251Y-6290590D01*
X14860205Y-6322442D01*
X14860200Y-6326323D01*
X14860160Y-6358378D01*
X14860125Y-6387801D01*
X14860093Y-6414706D01*
X14860060Y-6439205D01*
X14860022Y-6461414D01*
X14859976Y-6481445D01*
X14859917Y-6499412D01*
X14859843Y-6515429D01*
X14859749Y-6529610D01*
X14859633Y-6542068D01*
X14859489Y-6552917D01*
X14859316Y-6562271D01*
X14859108Y-6570243D01*
X14858862Y-6576947D01*
X14858576Y-6582497D01*
X14858244Y-6587007D01*
X14857864Y-6590589D01*
X14857431Y-6593359D01*
X14856942Y-6595429D01*
X14856394Y-6596914D01*
X14855783Y-6597926D01*
X14855105Y-6598580D01*
X14854356Y-6598989D01*
X14853533Y-6599268D01*
X14852633Y-6599529D01*
X14851650Y-6599886D01*
X14851411Y-6599995D01*
X14850656Y-6600240D01*
X14849394Y-6600464D01*
X14847514Y-6600670D01*
X14844905Y-6600857D01*
X14841458Y-6601027D01*
X14837061Y-6601180D01*
X14831606Y-6601318D01*
X14824981Y-6601440D01*
X14817077Y-6601548D01*
X14807784Y-6601643D01*
X14796990Y-6601725D01*
X14784586Y-6601795D01*
X14770462Y-6601854D01*
X14754508Y-6601902D01*
X14736613Y-6601942D01*
X14716667Y-6601972D01*
X14694560Y-6601995D01*
X14670181Y-6602011D01*
X14643421Y-6602020D01*
X14614170Y-6602024D01*
X14582316Y-6602024D01*
X14571998Y-6602023D01*
X14539438Y-6602018D01*
X14509512Y-6602009D01*
X14482109Y-6601996D01*
X14457118Y-6601978D01*
X14434426Y-6601955D01*
X14413923Y-6601924D01*
X14395496Y-6601886D01*
X14379035Y-6601839D01*
X14364427Y-6601783D01*
X14351562Y-6601716D01*
X14340328Y-6601639D01*
X14330613Y-6601549D01*
X14322305Y-6601446D01*
X14315294Y-6601330D01*
X14309467Y-6601199D01*
X14304713Y-6601052D01*
X14300921Y-6600890D01*
X14297979Y-6600709D01*
X14295775Y-6600511D01*
X14294199Y-6600294D01*
X14293138Y-6600056D01*
X14292560Y-6599839D01*
X14291532Y-6599406D01*
X14290588Y-6599086D01*
X14289724Y-6598766D01*
X14288938Y-6598334D01*
X14288225Y-6597674D01*
X14287582Y-6596675D01*
X14287005Y-6595221D01*
X14286491Y-6593200D01*
X14286036Y-6590498D01*
X14285636Y-6587002D01*
X14285289Y-6582598D01*
X14284990Y-6577172D01*
X14284735Y-6570612D01*
X14284522Y-6562802D01*
X14284347Y-6553631D01*
X14284205Y-6542984D01*
X14284168Y-6538897D01*
X14320812Y-6538897D01*
X14450327Y-6538897D01*
X14447834Y-6535122D01*
X14445355Y-6531242D01*
X14443256Y-6527547D01*
X14441506Y-6523779D01*
X14440077Y-6519679D01*
X14438938Y-6514988D01*
X14438059Y-6509449D01*
X14437410Y-6502802D01*
X14436962Y-6494788D01*
X14436685Y-6485150D01*
X14436549Y-6473629D01*
X14436523Y-6459966D01*
X14436579Y-6443902D01*
X14436611Y-6437938D01*
X14436967Y-6374004D01*
X14477470Y-6429145D01*
X14488945Y-6444788D01*
X14498886Y-6458409D01*
X14507401Y-6470189D01*
X14514598Y-6480308D01*
X14520583Y-6488948D01*
X14525465Y-6496287D01*
X14529350Y-6502508D01*
X14532347Y-6507789D01*
X14534561Y-6512312D01*
X14536101Y-6516258D01*
X14537073Y-6519806D01*
X14537586Y-6523137D01*
X14537747Y-6526431D01*
X14537662Y-6529870D01*
X14537640Y-6530302D01*
X14537195Y-6538903D01*
X14679131Y-6538897D01*
X14668573Y-6528252D01*
X14665709Y-6525341D01*
X14662991Y-6522508D01*
X14660301Y-6519597D01*
X14657520Y-6516452D01*
X14654527Y-6512917D01*
X14651205Y-6508835D01*
X14647434Y-6504051D01*
X14643094Y-6498408D01*
X14638066Y-6491749D01*
X14632231Y-6483919D01*
X14625470Y-6474762D01*
X14617663Y-6464120D01*
X14608691Y-6451839D01*
X14598435Y-6437760D01*
X14586776Y-6421730D01*
X14577219Y-6408580D01*
X14565225Y-6392060D01*
X14554762Y-6377615D01*
X14545735Y-6365109D01*
X14538050Y-6354405D01*
X14531611Y-6345365D01*
X14526324Y-6337853D01*
X14522094Y-6331730D01*
X14518826Y-6326861D01*
X14516426Y-6323107D01*
X14514799Y-6320332D01*
X14513849Y-6318399D01*
X14513483Y-6317170D01*
X14513593Y-6316524D01*
X14514928Y-6314805D01*
X14517813Y-6311165D01*
X14522076Y-6305822D01*
X14527541Y-6298992D01*
X14534036Y-6290890D01*
X14541384Y-6281734D01*
X14549413Y-6271739D01*
X14557948Y-6261122D01*
X14566816Y-6250100D01*
X14575841Y-6238888D01*
X14580806Y-6232724D01*
X14704063Y-6232724D01*
X14709185Y-6241992D01*
X14714308Y-6251259D01*
X14714308Y-6520362D01*
X14709185Y-6529630D01*
X14704063Y-6538897D01*
X14764660Y-6538897D01*
X14779127Y-6538893D01*
X14791076Y-6538874D01*
X14800736Y-6538831D01*
X14808336Y-6538754D01*
X14814104Y-6538633D01*
X14818270Y-6538459D01*
X14821061Y-6538223D01*
X14822706Y-6537915D01*
X14823435Y-6537525D01*
X14823474Y-6537044D01*
X14823054Y-6536462D01*
X14823050Y-6536457D01*
X14821319Y-6533953D01*
X14819026Y-6529881D01*
X14817002Y-6525817D01*
X14813162Y-6517616D01*
X14812379Y-6232724D01*
X14704063Y-6232724D01*
X14580806Y-6232724D01*
X14584851Y-6227702D01*
X14593670Y-6216760D01*
X14602125Y-6206278D01*
X14610041Y-6196471D01*
X14617244Y-6187557D01*
X14623561Y-6179750D01*
X14628817Y-6173269D01*
X14632838Y-6168329D01*
X14635200Y-6165449D01*
X14644371Y-6154678D01*
X14653194Y-6144958D01*
X14661360Y-6136608D01*
X14668559Y-6129945D01*
X14673668Y-6125860D01*
X14679709Y-6121513D01*
X14540770Y-6121513D01*
X14540809Y-6129667D01*
X14540421Y-6135661D01*
X14538961Y-6141218D01*
X14536701Y-6146485D01*
X14535232Y-6149461D01*
X14533653Y-6152410D01*
X14531819Y-6155528D01*
X14529585Y-6159009D01*
X14526809Y-6163051D01*
X14523345Y-6167849D01*
X14519049Y-6173598D01*
X14513777Y-6180494D01*
X14507385Y-6188734D01*
X14499728Y-6198512D01*
X14490662Y-6210025D01*
X14480043Y-6223469D01*
X14478843Y-6224986D01*
X14436967Y-6277941D01*
X14436562Y-6219292D01*
X14436480Y-6201725D01*
X14436498Y-6186853D01*
X14436615Y-6174627D01*
X14436833Y-6164999D01*
X14437153Y-6157918D01*
X14437574Y-6153337D01*
X14437716Y-6152468D01*
X14439941Y-6143313D01*
X14442856Y-6135061D01*
X14446182Y-6128425D01*
X14448180Y-6125611D01*
X14451628Y-6121513D01*
X14386209Y-6121513D01*
X14370603Y-6121527D01*
X14357553Y-6121570D01*
X14346869Y-6121649D01*
X14338360Y-6121768D01*
X14331836Y-6121932D01*
X14327108Y-6122146D01*
X14323984Y-6122416D01*
X14322275Y-6122746D01*
X14321791Y-6123142D01*
X14321825Y-6123230D01*
X14323211Y-6125323D01*
X14325527Y-6128641D01*
X14326725Y-6130319D01*
X14327963Y-6131994D01*
X14329076Y-6133491D01*
X14330071Y-6134959D01*
X14330955Y-6136545D01*
X14331734Y-6138395D01*
X14332416Y-6140658D01*
X14333008Y-6143481D01*
X14333517Y-6147011D01*
X14333950Y-6151396D01*
X14334313Y-6156782D01*
X14334614Y-6163318D01*
X14334860Y-6171150D01*
X14335058Y-6180427D01*
X14335214Y-6191295D01*
X14335337Y-6203901D01*
X14335432Y-6218394D01*
X14335507Y-6234921D01*
X14335569Y-6253628D01*
X14335625Y-6274663D01*
X14335681Y-6298175D01*
X14335734Y-6319774D01*
X14335784Y-6343853D01*
X14335810Y-6366827D01*
X14335813Y-6388549D01*
X14335793Y-6408872D01*
X14335751Y-6427650D01*
X14335688Y-6444734D01*
X14335604Y-6459980D01*
X14335501Y-6473240D01*
X14335378Y-6484368D01*
X14335237Y-6493216D01*
X14335077Y-6499637D01*
X14334901Y-6503486D01*
X14334868Y-6503893D01*
X14333653Y-6513225D01*
X14331757Y-6520719D01*
X14328870Y-6527259D01*
X14324681Y-6533729D01*
X14324157Y-6534435D01*
X14320812Y-6538897D01*
X14284168Y-6538897D01*
X14284095Y-6530748D01*
X14284011Y-6516809D01*
G36*
X14758789Y-6665784D02*
G01*
X14759447Y-6666541D01*
X14759963Y-6667518D01*
X14760354Y-6668976D01*
X14760638Y-6671178D01*
X14760832Y-6674384D01*
X14760952Y-6678857D01*
X14761017Y-6684858D01*
X14761042Y-6692649D01*
X14761046Y-6700215D01*
X14761039Y-6709599D01*
X14761007Y-6716988D01*
X14760932Y-6722642D01*
X14760798Y-6726824D01*
X14760586Y-6729795D01*
X14760281Y-6731816D01*
X14759864Y-6733151D01*
X14759319Y-6734059D01*
X14758789Y-6734646D01*
X14755488Y-6736614D01*
X14751972Y-6736437D01*
X14748825Y-6734291D01*
X14748102Y-6733453D01*
X14747537Y-6732481D01*
X14747111Y-6731105D01*
X14746803Y-6729058D01*
X14746596Y-6726070D01*
X14746468Y-6721873D01*
X14746401Y-6716198D01*
X14746375Y-6708776D01*
X14746371Y-6700373D01*
X14746371Y-6669068D01*
X14749142Y-6666297D01*
X14752557Y-6663965D01*
X14755870Y-6663881D01*
X14758789Y-6665784D01*
G37*
X14758789Y-6665784D02*
X14759447Y-6666541D01*
X14759963Y-6667518D01*
X14760354Y-6668976D01*
X14760638Y-6671178D01*
X14760832Y-6674384D01*
X14760952Y-6678857D01*
X14761017Y-6684858D01*
X14761042Y-6692649D01*
X14761046Y-6700215D01*
X14761039Y-6709599D01*
X14761007Y-6716988D01*
X14760932Y-6722642D01*
X14760798Y-6726824D01*
X14760586Y-6729795D01*
X14760281Y-6731816D01*
X14759864Y-6733151D01*
X14759319Y-6734059D01*
X14758789Y-6734646D01*
X14755488Y-6736614D01*
X14751972Y-6736437D01*
X14748825Y-6734291D01*
X14748102Y-6733453D01*
X14747537Y-6732481D01*
X14747111Y-6731105D01*
X14746803Y-6729058D01*
X14746596Y-6726070D01*
X14746468Y-6721873D01*
X14746401Y-6716198D01*
X14746375Y-6708776D01*
X14746371Y-6700373D01*
X14746371Y-6669068D01*
X14749142Y-6666297D01*
X14752557Y-6663965D01*
X14755870Y-6663881D01*
X14758789Y-6665784D01*
G36*
X14579891Y-6663534D02*
G01*
X14586832Y-6663571D01*
X14592071Y-6663658D01*
X14595886Y-6663814D01*
X14598555Y-6664059D01*
X14600355Y-6664415D01*
X14601566Y-6664900D01*
X14602464Y-6665535D01*
X14602789Y-6665828D01*
X14604766Y-6668933D01*
X14605123Y-6672502D01*
X14603822Y-6675670D01*
X14603220Y-6676310D01*
X14602247Y-6676931D01*
X14600681Y-6677410D01*
X14598230Y-6677771D01*
X14594605Y-6678036D01*
X14589514Y-6678229D01*
X14582668Y-6678373D01*
X14576409Y-6678461D01*
X14551637Y-6678766D01*
X14551299Y-6685257D01*
X14550960Y-6691748D01*
X14567775Y-6691748D01*
X14575075Y-6691811D01*
X14580419Y-6692074D01*
X14584108Y-6692650D01*
X14586442Y-6693650D01*
X14587721Y-6695185D01*
X14588247Y-6697367D01*
X14588326Y-6699393D01*
X14588078Y-6701878D01*
X14587143Y-6703710D01*
X14585232Y-6704983D01*
X14582059Y-6705793D01*
X14577335Y-6706237D01*
X14570772Y-6706409D01*
X14567191Y-6706424D01*
X14551073Y-6706424D01*
X14551073Y-6722228D01*
X14575909Y-6722228D01*
X14584049Y-6722239D01*
X14590237Y-6722290D01*
X14594774Y-6722406D01*
X14597965Y-6722612D01*
X14600115Y-6722934D01*
X14601526Y-6723396D01*
X14602504Y-6724025D01*
X14603002Y-6724486D01*
X14604710Y-6727175D01*
X14605260Y-6729566D01*
X14604474Y-6732486D01*
X14603002Y-6734646D01*
X14602216Y-6735326D01*
X14601202Y-6735854D01*
X14599686Y-6736249D01*
X14597397Y-6736530D01*
X14594060Y-6736717D01*
X14589403Y-6736829D01*
X14583154Y-6736884D01*
X14575039Y-6736902D01*
X14570829Y-6736904D01*
X14561811Y-6736896D01*
X14554778Y-6736859D01*
X14549458Y-6736774D01*
X14545577Y-6736623D01*
X14542862Y-6736385D01*
X14541041Y-6736042D01*
X14539841Y-6735575D01*
X14538989Y-6734964D01*
X14538655Y-6734646D01*
X14537995Y-6733886D01*
X14537478Y-6732906D01*
X14537086Y-6731443D01*
X14536802Y-6729234D01*
X14536609Y-6726017D01*
X14536490Y-6721529D01*
X14536426Y-6715508D01*
X14536401Y-6707690D01*
X14536397Y-6700411D01*
X14536401Y-6691090D01*
X14536424Y-6683762D01*
X14536488Y-6678165D01*
X14536611Y-6674034D01*
X14536815Y-6671106D01*
X14537119Y-6669118D01*
X14537543Y-6667804D01*
X14538107Y-6666902D01*
X14538832Y-6666148D01*
X14539010Y-6665980D01*
X14539876Y-6665236D01*
X14540883Y-6664660D01*
X14542308Y-6664230D01*
X14544432Y-6663926D01*
X14547534Y-6663724D01*
X14551893Y-6663605D01*
X14557788Y-6663547D01*
X14565497Y-6663527D01*
X14570971Y-6663526D01*
X14579891Y-6663534D01*
G37*
X14579891Y-6663534D02*
X14586832Y-6663571D01*
X14592071Y-6663658D01*
X14595886Y-6663814D01*
X14598555Y-6664059D01*
X14600355Y-6664415D01*
X14601566Y-6664900D01*
X14602464Y-6665535D01*
X14602789Y-6665828D01*
X14604766Y-6668933D01*
X14605123Y-6672502D01*
X14603822Y-6675670D01*
X14603220Y-6676310D01*
X14602247Y-6676931D01*
X14600681Y-6677410D01*
X14598230Y-6677771D01*
X14594605Y-6678036D01*
X14589514Y-6678229D01*
X14582668Y-6678373D01*
X14576409Y-6678461D01*
X14551637Y-6678766D01*
X14551299Y-6685257D01*
X14550960Y-6691748D01*
X14567775Y-6691748D01*
X14575075Y-6691811D01*
X14580419Y-6692074D01*
X14584108Y-6692650D01*
X14586442Y-6693650D01*
X14587721Y-6695185D01*
X14588247Y-6697367D01*
X14588326Y-6699393D01*
X14588078Y-6701878D01*
X14587143Y-6703710D01*
X14585232Y-6704983D01*
X14582059Y-6705793D01*
X14577335Y-6706237D01*
X14570772Y-6706409D01*
X14567191Y-6706424D01*
X14551073Y-6706424D01*
X14551073Y-6722228D01*
X14575909Y-6722228D01*
X14584049Y-6722239D01*
X14590237Y-6722290D01*
X14594774Y-6722406D01*
X14597965Y-6722612D01*
X14600115Y-6722934D01*
X14601526Y-6723396D01*
X14602504Y-6724025D01*
X14603002Y-6724486D01*
X14604710Y-6727175D01*
X14605260Y-6729566D01*
X14604474Y-6732486D01*
X14603002Y-6734646D01*
X14602216Y-6735326D01*
X14601202Y-6735854D01*
X14599686Y-6736249D01*
X14597397Y-6736530D01*
X14594060Y-6736717D01*
X14589403Y-6736829D01*
X14583154Y-6736884D01*
X14575039Y-6736902D01*
X14570829Y-6736904D01*
X14561811Y-6736896D01*
X14554778Y-6736859D01*
X14549458Y-6736774D01*
X14545577Y-6736623D01*
X14542862Y-6736385D01*
X14541041Y-6736042D01*
X14539841Y-6735575D01*
X14538989Y-6734964D01*
X14538655Y-6734646D01*
X14537995Y-6733886D01*
X14537478Y-6732906D01*
X14537086Y-6731443D01*
X14536802Y-6729234D01*
X14536609Y-6726017D01*
X14536490Y-6721529D01*
X14536426Y-6715508D01*
X14536401Y-6707690D01*
X14536397Y-6700411D01*
X14536401Y-6691090D01*
X14536424Y-6683762D01*
X14536488Y-6678165D01*
X14536611Y-6674034D01*
X14536815Y-6671106D01*
X14537119Y-6669118D01*
X14537543Y-6667804D01*
X14538107Y-6666902D01*
X14538832Y-6666148D01*
X14539010Y-6665980D01*
X14539876Y-6665236D01*
X14540883Y-6664660D01*
X14542308Y-6664230D01*
X14544432Y-6663926D01*
X14547534Y-6663724D01*
X14551893Y-6663605D01*
X14557788Y-6663547D01*
X14565497Y-6663527D01*
X14570971Y-6663526D01*
X14579891Y-6663534D01*
G36*
X15547477Y-6663535D02*
G01*
X15555348Y-6663573D01*
X15561457Y-6663652D01*
X15566052Y-6663786D01*
X15569382Y-6663987D01*
X15571694Y-6664270D01*
X15573237Y-6664646D01*
X15574258Y-6665130D01*
X15574752Y-6665501D01*
X15577316Y-6668755D01*
X15577627Y-6672133D01*
X15576042Y-6675202D01*
X15575006Y-6676428D01*
X15573890Y-6677264D01*
X15572274Y-6677785D01*
X15569735Y-6678065D01*
X15565851Y-6678179D01*
X15560199Y-6678201D01*
X15559089Y-6678201D01*
X15544495Y-6678201D01*
X15544495Y-6705295D01*
X15544486Y-6713835D01*
X15544442Y-6720406D01*
X15544342Y-6725297D01*
X15544164Y-6728796D01*
X15543884Y-6731194D01*
X15543482Y-6732778D01*
X15542935Y-6733838D01*
X15542237Y-6734646D01*
X15538944Y-6736630D01*
X15535506Y-6736474D01*
X15532388Y-6734210D01*
X15532159Y-6733929D01*
X15531414Y-6732868D01*
X15530845Y-6731627D01*
X15530431Y-6729904D01*
X15530146Y-6727398D01*
X15529966Y-6723806D01*
X15529868Y-6718827D01*
X15529827Y-6712161D01*
X15529820Y-6704578D01*
X15529820Y-6678201D01*
X15515883Y-6678201D01*
X15509903Y-6678161D01*
X15505763Y-6678003D01*
X15503046Y-6677674D01*
X15501335Y-6677118D01*
X15500215Y-6676282D01*
X15500079Y-6676137D01*
X15498443Y-6672813D01*
X15498588Y-6669055D01*
X15500469Y-6665784D01*
X15501196Y-6665149D01*
X15502133Y-6664646D01*
X15503532Y-6664259D01*
X15505640Y-6663973D01*
X15508710Y-6663773D01*
X15512990Y-6663643D01*
X15518730Y-6663569D01*
X15526182Y-6663535D01*
X15535594Y-6663526D01*
X15537597Y-6663526D01*
X15547477Y-6663535D01*
G37*
X15547477Y-6663535D02*
X15555348Y-6663573D01*
X15561457Y-6663652D01*
X15566052Y-6663786D01*
X15569382Y-6663987D01*
X15571694Y-6664270D01*
X15573237Y-6664646D01*
X15574258Y-6665130D01*
X15574752Y-6665501D01*
X15577316Y-6668755D01*
X15577627Y-6672133D01*
X15576042Y-6675202D01*
X15575006Y-6676428D01*
X15573890Y-6677264D01*
X15572274Y-6677785D01*
X15569735Y-6678065D01*
X15565851Y-6678179D01*
X15560199Y-6678201D01*
X15559089Y-6678201D01*
X15544495Y-6678201D01*
X15544495Y-6705295D01*
X15544486Y-6713835D01*
X15544442Y-6720406D01*
X15544342Y-6725297D01*
X15544164Y-6728796D01*
X15543884Y-6731194D01*
X15543482Y-6732778D01*
X15542935Y-6733838D01*
X15542237Y-6734646D01*
X15538944Y-6736630D01*
X15535506Y-6736474D01*
X15532388Y-6734210D01*
X15532159Y-6733929D01*
X15531414Y-6732868D01*
X15530845Y-6731627D01*
X15530431Y-6729904D01*
X15530146Y-6727398D01*
X15529966Y-6723806D01*
X15529868Y-6718827D01*
X15529827Y-6712161D01*
X15529820Y-6704578D01*
X15529820Y-6678201D01*
X15515883Y-6678201D01*
X15509903Y-6678161D01*
X15505763Y-6678003D01*
X15503046Y-6677674D01*
X15501335Y-6677118D01*
X15500215Y-6676282D01*
X15500079Y-6676137D01*
X15498443Y-6672813D01*
X15498588Y-6669055D01*
X15500469Y-6665784D01*
X15501196Y-6665149D01*
X15502133Y-6664646D01*
X15503532Y-6664259D01*
X15505640Y-6663973D01*
X15508710Y-6663773D01*
X15512990Y-6663643D01*
X15518730Y-6663569D01*
X15526182Y-6663535D01*
X15535594Y-6663526D01*
X15537597Y-6663526D01*
X15547477Y-6663535D01*
%LPC*%
G36*
G01*
X12270000Y-7564900D02*
X12530000Y-7564900D01*
G75*
G02*
X12535100Y-7570000I0J-5100D01*
G01*
X12535100Y-7830000D01*
G75*
G02*
X12530000Y-7835100I-5100J0D01*
G01*
X12270000Y-7835100D01*
G75*
G02*
X12264900Y-7830000I0J5100D01*
G01*
X12264900Y-7570000D01*
G75*
G02*
X12270000Y-7564900I5100J0D01*
G01*
G37*
D16*
X12400000Y-8200000D03*
X12400000Y-8700000D03*
D17*
X13800000Y-9800000D03*
D18*
X14562000Y-9800000D03*
D19*
X15489000Y-9457000D03*
X15235000Y-9457000D03*
X14981000Y-9457000D03*
X14727000Y-9457000D03*
X14473000Y-9457000D03*
X14219000Y-9457000D03*
X13965000Y-9457000D03*
X13711000Y-9457000D03*
X13711000Y-11743000D03*
X13965000Y-11743000D03*
X14219000Y-11743000D03*
X14473000Y-11743000D03*
X14727000Y-11743000D03*
X14981000Y-11743000D03*
X15235000Y-11743000D03*
X15489000Y-11743000D03*
G36*
G01*
X17430000Y-12835100D02*
X17170000Y-12835100D01*
G75*
G02*
X17164900Y-12830000I0J5100D01*
G01*
X17164900Y-12570000D01*
G75*
G02*
X17170000Y-12564900I5100J0D01*
G01*
X17430000Y-12564900D01*
G75*
G02*
X17435100Y-12570000I0J-5100D01*
G01*
X17435100Y-12830000D01*
G75*
G02*
X17430000Y-12835100I-5100J0D01*
G01*
G37*
D16*
X17300000Y-12200000D03*
G36*
G01*
X14580000Y-13085100D02*
X14420000Y-13085100D01*
G75*
G02*
X14414900Y-13080000I0J5100D01*
G01*
X14414900Y-12920000D01*
G75*
G02*
X14420000Y-12914900I5100J0D01*
G01*
X14580000Y-12914900D01*
G75*
G02*
X14585100Y-12920000I0J-5100D01*
G01*
X14585100Y-13080000D01*
G75*
G02*
X14580000Y-13085100I-5100J0D01*
G01*
G37*
D17*
X14500000Y-12750000D03*
G36*
G01*
X14085100Y-12320000D02*
X14085100Y-12480000D01*
G75*
G02*
X14080000Y-12485100I-5100J0D01*
G01*
X13920000Y-12485100D01*
G75*
G02*
X13914900Y-12480000I0J5100D01*
G01*
X13914900Y-12320000D01*
G75*
G02*
X13920000Y-12314900I5100J0D01*
G01*
X14080000Y-12314900D01*
G75*
G02*
X14085100Y-12320000I0J-5100D01*
G01*
G37*
X13750000Y-12400000D03*
G36*
G01*
X14904900Y-12290000D02*
X14904900Y-12110000D01*
G75*
G02*
X14910000Y-12104900I5100J0D01*
G01*
X15090000Y-12104900D01*
G75*
G02*
X15095100Y-12110000I0J-5100D01*
G01*
X15095100Y-12290000D01*
G75*
G02*
X15090000Y-12295100I-5100J0D01*
G01*
X14910000Y-12295100D01*
G75*
G02*
X14904900Y-12290000I0J5100D01*
G01*
G37*
D19*
X15254000Y-12200000D03*
D20*
X17600000Y-14000000D03*
X12500000Y-6300000D03*
X17600000Y-6300000D03*
X12500000Y-14000000D03*
D21*
X16775000Y-8011000D03*
X17791000Y-8011000D03*
G36*
G01*
X17681100Y-8824000D02*
X17681100Y-8976000D01*
G75*
G02*
X17676000Y-8981100I-5100J0D01*
G01*
X17524000Y-8981100D01*
G75*
G02*
X17518900Y-8976000I0J5100D01*
G01*
X17518900Y-8824000D01*
G75*
G02*
X17524000Y-8818900I5100J0D01*
G01*
X17676000Y-8818900D01*
G75*
G02*
X17681100Y-8824000I0J-5100D01*
G01*
G37*
D22*
X17473000Y-8646000D03*
X17346000Y-8900000D03*
X17219000Y-8646000D03*
X17092000Y-8900000D03*
X16965000Y-8646000D03*
D21*
X15175000Y-8011000D03*
X16191000Y-8011000D03*
G36*
G01*
X16081100Y-8824000D02*
X16081100Y-8976000D01*
G75*
G02*
X16076000Y-8981100I-5100J0D01*
G01*
X15924000Y-8981100D01*
G75*
G02*
X15918900Y-8976000I0J5100D01*
G01*
X15918900Y-8824000D01*
G75*
G02*
X15924000Y-8818900I5100J0D01*
G01*
X16076000Y-8818900D01*
G75*
G02*
X16081100Y-8824000I0J-5100D01*
G01*
G37*
D22*
X15873000Y-8646000D03*
X15746000Y-8900000D03*
X15619000Y-8646000D03*
X15492000Y-8900000D03*
X15365000Y-8646000D03*
D23*
X14527000Y-7965000D03*
X13384000Y-7965000D03*
G36*
G01*
X14480100Y-8525000D02*
X14480100Y-8675000D01*
G75*
G02*
X14475000Y-8680100I-5100J0D01*
G01*
X14325000Y-8680100D01*
G75*
G02*
X14319900Y-8675000I0J5100D01*
G01*
X14319900Y-8525000D01*
G75*
G02*
X14325000Y-8519900I5100J0D01*
G01*
X14475000Y-8519900D01*
G75*
G02*
X14480100Y-8525000I0J-5100D01*
G01*
G37*
D24*
X14273000Y-8854000D03*
X14146000Y-8600000D03*
X14019000Y-8854000D03*
X13892000Y-8600000D03*
X13765000Y-8854000D03*
X13638000Y-8600000D03*
X13511000Y-8854000D03*
D17*
X15600000Y-12200000D03*
D18*
X16362000Y-12200000D03*
G36*
G01*
X16100350Y-12600000D02*
X16100350Y-12800000D01*
G75*
G02*
X16095250Y-12805100I-5100J0D01*
G01*
X15904750Y-12805100D01*
G75*
G02*
X15899650Y-12800000I0J5100D01*
G01*
X15899650Y-12600000D01*
G75*
G02*
X15904750Y-12594900I5100J0D01*
G01*
X16095250Y-12594900D01*
G75*
G02*
X16100350Y-12600000I0J-5100D01*
G01*
G37*
D25*
X15746000Y-12700000D03*
X15492000Y-12700000D03*
G36*
G01*
X13119900Y-12875000D02*
X13119900Y-12525000D01*
G75*
G02*
X13125000Y-12519900I5100J0D01*
G01*
X13475000Y-12519900D01*
G75*
G02*
X13480100Y-12525000I0J-5100D01*
G01*
X13480100Y-12875000D01*
G75*
G02*
X13475000Y-12880100I-5100J0D01*
G01*
X13125000Y-12880100D01*
G75*
G02*
X13119900Y-12875000I0J5100D01*
G01*
G37*
G36*
G01*
X12544900Y-12800000D02*
X12544900Y-12600000D01*
G75*
G02*
X12625000Y-12519900I80100J0D01*
G01*
X12775000Y-12519900D01*
G75*
G02*
X12855100Y-12600000I0J-80100D01*
G01*
X12855100Y-12800000D01*
G75*
G02*
X12775000Y-12880100I-80100J0D01*
G01*
X12625000Y-12880100D01*
G75*
G02*
X12544900Y-12800000I0J80100D01*
G01*
G37*
G36*
G01*
X12819900Y-13257500D02*
X12819900Y-13082500D01*
G75*
G02*
X12912500Y-12989900I92600J0D01*
G01*
X13087500Y-12989900D01*
G75*
G02*
X13180100Y-13082500I0J-92600D01*
G01*
X13180100Y-13257500D01*
G75*
G02*
X13087500Y-13350100I-92600J0D01*
G01*
X12912500Y-13350100D01*
G75*
G02*
X12819900Y-13257500I0J92600D01*
G01*
G37*
M02*
