%TF.GenerationSoftware,KiCad,Pcbnew,7.0.7*%
%TF.CreationDate,2023-11-08T00:53:50-05:00*%
%TF.ProjectId,Pixel_Boost2,50697865-6c5f-4426-9f6f-7374322e6b69,v3*%
%TF.SameCoordinates,Original*%
%TF.FileFunction,Copper,L1,Top*%
%TF.FilePolarity,Positive*%
%FSLAX46Y46*%
G04 Gerber Fmt 4.6, Leading zero omitted, Abs format (unit mm)*
G04 Created by KiCad (PCBNEW 7.0.7) date 2023-11-08 00:53:50*
%MOMM*%
%LPD*%
G01*
G04 APERTURE LIST*
G04 Aperture macros list*
%AMRoundRect*
0 Rectangle with rounded corners*
0 $1 Rounding radius*
0 $2 $3 $4 $5 $6 $7 $8 $9 X,Y pos of 4 corners*
0 Add a 4 corners polygon primitive as box body*
4,1,4,$2,$3,$4,$5,$6,$7,$8,$9,$2,$3,0*
0 Add four circle primitives for the rounded corners*
1,1,$1+$1,$2,$3*
1,1,$1+$1,$4,$5*
1,1,$1+$1,$6,$7*
1,1,$1+$1,$8,$9*
0 Add four rect primitives between the rounded corners*
20,1,$1+$1,$2,$3,$4,$5,0*
20,1,$1+$1,$4,$5,$6,$7,0*
20,1,$1+$1,$6,$7,$8,$9,0*
20,1,$1+$1,$8,$9,$2,$3,0*%
%AMFreePoly0*
4,1,9,3.862500,-0.866500,0.737500,-0.866500,0.737500,-0.450000,-0.737500,-0.450000,-0.737500,0.450000,0.737500,0.450000,0.737500,0.866500,3.862500,0.866500,3.862500,-0.866500,3.862500,-0.866500,$1*%
G04 Aperture macros list end*
%TA.AperFunction,SMDPad,CuDef*%
%ADD10RoundRect,0.200000X-0.275000X0.200000X-0.275000X-0.200000X0.275000X-0.200000X0.275000X0.200000X0*%
%TD*%
%TA.AperFunction,ComponentPad*%
%ADD11RoundRect,0.416667X2.083333X-1.083333X2.083333X1.083333X-2.083333X1.083333X-2.083333X-1.083333X0*%
%TD*%
%TA.AperFunction,ComponentPad*%
%ADD12O,3.600000X3.000000*%
%TD*%
%TA.AperFunction,ComponentPad*%
%ADD13O,5.000000X3.000000*%
%TD*%
%TA.AperFunction,ComponentPad*%
%ADD14RoundRect,0.416667X-2.083333X1.083333X-2.083333X-1.083333X2.083333X-1.083333X2.083333X1.083333X0*%
%TD*%
%TA.AperFunction,SMDPad,CuDef*%
%ADD15RoundRect,0.200000X0.275000X-0.200000X0.275000X0.200000X-0.275000X0.200000X-0.275000X-0.200000X0*%
%TD*%
%TA.AperFunction,SMDPad,CuDef*%
%ADD16R,1.300000X0.900000*%
%TD*%
%TA.AperFunction,SMDPad,CuDef*%
%ADD17FreePoly0,180.000000*%
%TD*%
%TA.AperFunction,SMDPad,CuDef*%
%ADD18RoundRect,0.150000X-0.512500X-0.150000X0.512500X-0.150000X0.512500X0.150000X-0.512500X0.150000X0*%
%TD*%
%TA.AperFunction,ViaPad*%
%ADD19C,0.800000*%
%TD*%
%TA.AperFunction,Conductor*%
%ADD20C,0.600000*%
%TD*%
%TA.AperFunction,Conductor*%
%ADD21C,0.500000*%
%TD*%
%TA.AperFunction,Conductor*%
%ADD22C,1.000000*%
%TD*%
%TA.AperFunction,Conductor*%
%ADD23C,0.350000*%
%TD*%
G04 APERTURE END LIST*
D10*
%TO.P,R1,1*%
%TO.N,Net-(J1-Pin_2)*%
X146800000Y-114575000D03*
%TO.P,R1,2*%
%TO.N,Net-(R1-Pad2)*%
X146800000Y-116225000D03*
%TD*%
D11*
%TO.P,J1,1,Pin_1*%
%TO.N,GND*%
X142467500Y-116842500D03*
D12*
%TO.P,J1,2,Pin_2*%
%TO.N,Net-(J1-Pin_2)*%
X142467500Y-113032500D03*
D13*
%TO.P,J1,3,Pin_3*%
%TO.N,+12V*%
X142467500Y-109222500D03*
%TD*%
D14*
%TO.P,J2,1,Pin_1*%
%TO.N,+12V*%
X160020000Y-109260000D03*
D12*
%TO.P,J2,2,Pin_2*%
%TO.N,Net-(J2-Pin_2)*%
X160020000Y-113070000D03*
D13*
%TO.P,J2,3,Pin_3*%
%TO.N,GND*%
X160020000Y-116880000D03*
%TD*%
D15*
%TO.P,C3,1*%
%TO.N,+5V*%
X153000000Y-116225000D03*
%TO.P,C3,2*%
%TO.N,GND*%
X153000000Y-114575000D03*
%TD*%
D16*
%TO.P,U1,1,GND*%
%TO.N,GND*%
X152050000Y-111485000D03*
D17*
%TO.P,U1,2,VI*%
%TO.N,+12V*%
X151962500Y-109985000D03*
D16*
%TO.P,U1,3,VO*%
%TO.N,+5V*%
X152050000Y-108485000D03*
%TD*%
D15*
%TO.P,R2,1*%
%TO.N,Net-(R2-Pad1)*%
X155710000Y-116375000D03*
%TO.P,R2,2*%
%TO.N,Net-(J2-Pin_2)*%
X155710000Y-114725000D03*
%TD*%
D18*
%TO.P,U3,1*%
%TO.N,GND*%
X148662500Y-115250000D03*
%TO.P,U3,2,GND*%
X148662500Y-116200000D03*
%TO.P,U3,3*%
%TO.N,Net-(R1-Pad2)*%
X148662500Y-117150000D03*
%TO.P,U3,4*%
%TO.N,Net-(R2-Pad1)*%
X150937500Y-117150000D03*
%TO.P,U3,5,VCC*%
%TO.N,+5V*%
X150937500Y-116200000D03*
%TO.P,U3,6*%
%TO.N,unconnected-(U3-Pad6)*%
X150937500Y-115250000D03*
%TD*%
D10*
%TO.P,C1,1*%
%TO.N,+12V*%
X146900000Y-110175000D03*
%TO.P,C1,2*%
%TO.N,GND*%
X146900000Y-111825000D03*
%TD*%
%TO.P,C2,1*%
%TO.N,+5V*%
X154020000Y-108480000D03*
%TO.P,C2,2*%
%TO.N,GND*%
X154020000Y-110130000D03*
%TD*%
D19*
%TO.N,GND*%
X155310000Y-118220000D03*
X151000000Y-114190000D03*
X152300000Y-118300000D03*
X149700000Y-118330000D03*
X148700000Y-114200000D03*
X146825000Y-118300000D03*
%TO.N,+12V*%
X156260000Y-106960000D03*
X148475000Y-111506000D03*
X150400000Y-111506000D03*
X156300000Y-111390000D03*
X148625000Y-108210000D03*
X150425000Y-108210000D03*
X146875000Y-108925000D03*
%TD*%
D20*
%TO.N,+5V*%
X152050000Y-108485000D02*
X154015000Y-108485000D01*
D21*
X154015000Y-108485000D02*
X154020000Y-108480000D01*
D20*
X153800000Y-116200000D02*
X150937500Y-116200000D01*
X154500000Y-115500000D02*
X153800000Y-116200000D01*
X155110000Y-109390000D02*
X155110000Y-112340000D01*
X154200000Y-108480000D02*
X155110000Y-109390000D01*
D21*
X154020000Y-108480000D02*
X154200000Y-108480000D01*
D20*
X155110000Y-112340000D02*
X154500000Y-112950000D01*
X154500000Y-112950000D02*
X154500000Y-115500000D01*
D22*
%TO.N,GND*%
X152050000Y-113150000D02*
X151925000Y-113275000D01*
X154020000Y-110130000D02*
X154020000Y-111216498D01*
X151925000Y-113275000D02*
X148600000Y-113275000D01*
X152050000Y-111485000D02*
X152050000Y-113150000D01*
X146900000Y-111825000D02*
X146900000Y-113075000D01*
X154020000Y-111216498D02*
X153751498Y-111485000D01*
X153751498Y-111485000D02*
X152050000Y-111485000D01*
X146900000Y-113075000D02*
X147100000Y-113275000D01*
X147100000Y-113275000D02*
X149250000Y-113275000D01*
D21*
%TO.N,Net-(J1-Pin_2)*%
X145257500Y-113032500D02*
X142467500Y-113032500D01*
X146800000Y-114575000D02*
X145257500Y-113032500D01*
%TO.N,Net-(J2-Pin_2)*%
X157332500Y-113067500D02*
X155710000Y-114690000D01*
X160017500Y-113067500D02*
X157332500Y-113067500D01*
D23*
X160020000Y-113070000D02*
X160017500Y-113067500D01*
D21*
X155710000Y-114690000D02*
X155710000Y-114725000D01*
%TO.N,Net-(R1-Pad2)*%
X146800000Y-116600000D02*
X147350000Y-117150000D01*
X147350000Y-117150000D02*
X148662500Y-117150000D01*
X146800000Y-116225000D02*
X146800000Y-116600000D01*
%TO.N,Net-(R2-Pad1)*%
X155710000Y-116375000D02*
X154885000Y-117200000D01*
X150887500Y-117200000D02*
X150862500Y-117175000D01*
X154885000Y-117200000D02*
X150887500Y-117200000D01*
%TD*%
%TA.AperFunction,Conductor*%
%TO.N,GND*%
G36*
X153858366Y-111619289D02*
G01*
X153895057Y-111669789D01*
X153900000Y-111701000D01*
X153900000Y-112842235D01*
X153899567Y-112848834D01*
X153891201Y-112912380D01*
X153891200Y-112912396D01*
X153886250Y-112949997D01*
X153886250Y-112949999D01*
X153891068Y-112986594D01*
X153891500Y-112993193D01*
X153891500Y-115206114D01*
X153872211Y-115265480D01*
X153861918Y-115277532D01*
X153599247Y-115540203D01*
X153543629Y-115568542D01*
X153492533Y-115563417D01*
X153384199Y-115523010D01*
X153323646Y-115516500D01*
X153323638Y-115516500D01*
X152676362Y-115516500D01*
X152676353Y-115516500D01*
X152615802Y-115523010D01*
X152615799Y-115523010D01*
X152615799Y-115523011D01*
X152478796Y-115574111D01*
X152478794Y-115574112D01*
X152478792Y-115574113D01*
X152472452Y-115577575D01*
X152471160Y-115575210D01*
X152423400Y-115591490D01*
X152421951Y-115591500D01*
X152006635Y-115591500D01*
X151947269Y-115572211D01*
X151910578Y-115521711D01*
X151906076Y-115481070D01*
X151908500Y-115455226D01*
X151908500Y-115044774D01*
X151905595Y-115013797D01*
X151892020Y-114975000D01*
X152368994Y-114975000D01*
X152390804Y-115017803D01*
X152390806Y-115017806D01*
X152482190Y-115109191D01*
X152597348Y-115167867D01*
X152600000Y-115168286D01*
X152600000Y-114975000D01*
X153400000Y-114975000D01*
X153400000Y-115168286D01*
X153402651Y-115167867D01*
X153517809Y-115109191D01*
X153609193Y-115017806D01*
X153609195Y-115017803D01*
X153631005Y-114975000D01*
X153400000Y-114975000D01*
X152600000Y-114975000D01*
X152368994Y-114975000D01*
X151892020Y-114975000D01*
X151859946Y-114883337D01*
X151777871Y-114772129D01*
X151666663Y-114690054D01*
X151666661Y-114690053D01*
X151599265Y-114666471D01*
X151536203Y-114644405D01*
X151505226Y-114641500D01*
X150369774Y-114641500D01*
X150338797Y-114644405D01*
X150208338Y-114690053D01*
X150097129Y-114772129D01*
X150015053Y-114883338D01*
X149969405Y-115013797D01*
X149966500Y-115044778D01*
X149966500Y-115455221D01*
X149969405Y-115486202D01*
X150015053Y-115616662D01*
X150015055Y-115616665D01*
X150050745Y-115665023D01*
X150070478Y-115724243D01*
X150051634Y-115783752D01*
X150050746Y-115784973D01*
X150015056Y-115833331D01*
X150015053Y-115833337D01*
X149969404Y-115963797D01*
X149969405Y-115963797D01*
X149966500Y-115994774D01*
X149966500Y-116405226D01*
X149969405Y-116436203D01*
X149979463Y-116464947D01*
X150015053Y-116566662D01*
X150015054Y-116566664D01*
X150050746Y-116615025D01*
X150070478Y-116674245D01*
X150051633Y-116733754D01*
X150050746Y-116734975D01*
X150015054Y-116783335D01*
X150015053Y-116783337D01*
X149976711Y-116892916D01*
X149969405Y-116913797D01*
X149966500Y-116944774D01*
X149966500Y-117355226D01*
X149968782Y-117379563D01*
X149969405Y-117386202D01*
X150014211Y-117514256D01*
X150015054Y-117516663D01*
X150097129Y-117627871D01*
X150208337Y-117709946D01*
X150338797Y-117755595D01*
X150369774Y-117758500D01*
X150810736Y-117758500D01*
X150856273Y-117758500D01*
X150861440Y-117758765D01*
X150871846Y-117759834D01*
X150906747Y-117763422D01*
X150926774Y-117759968D01*
X150943935Y-117758500D01*
X154875462Y-117758500D01*
X154942649Y-117760795D01*
X154942649Y-117760794D01*
X154942652Y-117760795D01*
X154986924Y-117750006D01*
X154991959Y-117749049D01*
X155037098Y-117742846D01*
X155055739Y-117734748D01*
X155072067Y-117729258D01*
X155091815Y-117724446D01*
X155131510Y-117702126D01*
X155136138Y-117699826D01*
X155177916Y-117681680D01*
X155193685Y-117668849D01*
X155207924Y-117659159D01*
X155225639Y-117649199D01*
X155257845Y-117616991D01*
X155261669Y-117613541D01*
X155297010Y-117584790D01*
X155308737Y-117568175D01*
X155319822Y-117555014D01*
X155494836Y-117380000D01*
X157384759Y-117380000D01*
X157456854Y-117580737D01*
X157456857Y-117580743D01*
X157582145Y-117811145D01*
X157741132Y-118019716D01*
X157930106Y-118201586D01*
X158144606Y-118352461D01*
X158144613Y-118352465D01*
X158379643Y-118468836D01*
X158379642Y-118468836D01*
X158629677Y-118547964D01*
X158629685Y-118547966D01*
X158888869Y-118588000D01*
X159520000Y-118588000D01*
X159520000Y-117631908D01*
X159539289Y-117572542D01*
X159589789Y-117535851D01*
X159652211Y-117535851D01*
X159666324Y-117541649D01*
X159761739Y-117589568D01*
X159932338Y-117630000D01*
X159932340Y-117630000D01*
X160063679Y-117630000D01*
X160063684Y-117630000D01*
X160194139Y-117614752D01*
X160358891Y-117554787D01*
X160361124Y-117553317D01*
X160363500Y-117551756D01*
X160423699Y-117535249D01*
X160482104Y-117557280D01*
X160516405Y-117609432D01*
X160520000Y-117636140D01*
X160520000Y-118588000D01*
X161085467Y-118588000D01*
X161281496Y-118572949D01*
X161536848Y-118513194D01*
X161536860Y-118513190D01*
X161780103Y-118415155D01*
X161780106Y-118415154D01*
X162005532Y-118281136D01*
X162005539Y-118281131D01*
X162207867Y-118114271D01*
X162382358Y-117918479D01*
X162524910Y-117698351D01*
X162524915Y-117698341D01*
X162632198Y-117459026D01*
X162653916Y-117380000D01*
X160772287Y-117380000D01*
X160712921Y-117360711D01*
X160676230Y-117310211D01*
X160676230Y-117247789D01*
X160684815Y-117228505D01*
X160713350Y-117179082D01*
X160763634Y-117011123D01*
X160773828Y-116836094D01*
X160743384Y-116663433D01*
X160690787Y-116541500D01*
X160681946Y-116521004D01*
X160676144Y-116458853D01*
X160707982Y-116405161D01*
X160765298Y-116380437D01*
X160774686Y-116380000D01*
X162655241Y-116380000D01*
X162655241Y-116379999D01*
X162583145Y-116179262D01*
X162583142Y-116179256D01*
X162457854Y-115948854D01*
X162298867Y-115740283D01*
X162109893Y-115558413D01*
X161895393Y-115407538D01*
X161895386Y-115407534D01*
X161660356Y-115291163D01*
X161660357Y-115291163D01*
X161410322Y-115212035D01*
X161410314Y-115212033D01*
X161151131Y-115172000D01*
X160520000Y-115172000D01*
X160520000Y-116128091D01*
X160500711Y-116187457D01*
X160450211Y-116224148D01*
X160387789Y-116224148D01*
X160373672Y-116218348D01*
X160278263Y-116170433D01*
X160278264Y-116170433D01*
X160278262Y-116170432D01*
X160278261Y-116170432D01*
X160107662Y-116130000D01*
X159976316Y-116130000D01*
X159976313Y-116130000D01*
X159845860Y-116145248D01*
X159681107Y-116205213D01*
X159681105Y-116205214D01*
X159676494Y-116208247D01*
X159616293Y-116224749D01*
X159557890Y-116202714D01*
X159523593Y-116150559D01*
X159520000Y-116123859D01*
X159520000Y-115172000D01*
X158954533Y-115172000D01*
X158758503Y-115187050D01*
X158503151Y-115246805D01*
X158503139Y-115246809D01*
X158259896Y-115344844D01*
X158259893Y-115344845D01*
X158034467Y-115478863D01*
X158034460Y-115478868D01*
X157832132Y-115645728D01*
X157657641Y-115841520D01*
X157515089Y-116061648D01*
X157515084Y-116061658D01*
X157407801Y-116300973D01*
X157386084Y-116380000D01*
X159267713Y-116380000D01*
X159327079Y-116399289D01*
X159363770Y-116449789D01*
X159363770Y-116512211D01*
X159355184Y-116531494D01*
X159334669Y-116567027D01*
X159326648Y-116580921D01*
X159276366Y-116748873D01*
X159276365Y-116748880D01*
X159266172Y-116923904D01*
X159266172Y-116923906D01*
X159294531Y-117084743D01*
X159296617Y-117096570D01*
X159358054Y-117238996D01*
X159363856Y-117301147D01*
X159332018Y-117354839D01*
X159274702Y-117379563D01*
X159265314Y-117380000D01*
X157384759Y-117380000D01*
X155494836Y-117380000D01*
X155761755Y-117113082D01*
X155817374Y-117084743D01*
X155833174Y-117083500D01*
X156033630Y-117083500D01*
X156033638Y-117083500D01*
X156094201Y-117076989D01*
X156231204Y-117025889D01*
X156348261Y-116938261D01*
X156435889Y-116821204D01*
X156486989Y-116684201D01*
X156493500Y-116623638D01*
X156493500Y-116298335D01*
X156500000Y-116278329D01*
X156500000Y-114927781D01*
X156494743Y-114917464D01*
X156493500Y-114901664D01*
X156493500Y-114738174D01*
X156512789Y-114678808D01*
X156523082Y-114666756D01*
X157090257Y-114099582D01*
X157145875Y-114071243D01*
X157161675Y-114070000D01*
X158159574Y-114070000D01*
X158218940Y-114089289D01*
X158243024Y-114114105D01*
X158302091Y-114200740D01*
X158302098Y-114200749D01*
X158486455Y-114399440D01*
X158677453Y-114551755D01*
X158698379Y-114568443D01*
X158933121Y-114703971D01*
X158933126Y-114703973D01*
X158933128Y-114703974D01*
X159055849Y-114752138D01*
X159185441Y-114802999D01*
X159449701Y-114863315D01*
X159603083Y-114874809D01*
X159652329Y-114878500D01*
X159652332Y-114878500D01*
X160387671Y-114878500D01*
X160433225Y-114875085D01*
X160590299Y-114863315D01*
X160854559Y-114802999D01*
X161106879Y-114703971D01*
X161341621Y-114568443D01*
X161553542Y-114399442D01*
X161737907Y-114200743D01*
X161796976Y-114114104D01*
X161846356Y-114075920D01*
X161880426Y-114070000D01*
X162998500Y-114070000D01*
X163057866Y-114089289D01*
X163094557Y-114139789D01*
X163099500Y-114171000D01*
X163099500Y-119498500D01*
X163080211Y-119557866D01*
X163029711Y-119594557D01*
X162998500Y-119599500D01*
X139501500Y-119599500D01*
X139442134Y-119580211D01*
X139405443Y-119529711D01*
X139400500Y-119498500D01*
X139400500Y-117988915D01*
X139759500Y-117988915D01*
X139762286Y-118024326D01*
X139806318Y-118175888D01*
X139806319Y-118175891D01*
X139886661Y-118311740D01*
X139998259Y-118423338D01*
X140134108Y-118503680D01*
X140134111Y-118503681D01*
X140285673Y-118547713D01*
X140321085Y-118550500D01*
X141967500Y-118550500D01*
X141967500Y-117594408D01*
X141986789Y-117535042D01*
X142037289Y-117498351D01*
X142099711Y-117498351D01*
X142113824Y-117504149D01*
X142209239Y-117552068D01*
X142379838Y-117592500D01*
X142379840Y-117592500D01*
X142511179Y-117592500D01*
X142511184Y-117592500D01*
X142641639Y-117577252D01*
X142806391Y-117517287D01*
X142808624Y-117515817D01*
X142811000Y-117514256D01*
X142871199Y-117497749D01*
X142929604Y-117519780D01*
X142963905Y-117571932D01*
X142967500Y-117598640D01*
X142967500Y-118550500D01*
X144613915Y-118550500D01*
X144649326Y-118547713D01*
X144800888Y-118503681D01*
X144800891Y-118503680D01*
X144936740Y-118423338D01*
X145048338Y-118311740D01*
X145128680Y-118175891D01*
X145128681Y-118175888D01*
X145172713Y-118024326D01*
X145175500Y-117988915D01*
X145175500Y-117342500D01*
X143219787Y-117342500D01*
X143160421Y-117323211D01*
X143123730Y-117272711D01*
X143123730Y-117210289D01*
X143132315Y-117191005D01*
X143160850Y-117141582D01*
X143211134Y-116973623D01*
X143221328Y-116798594D01*
X143190884Y-116625933D01*
X143141829Y-116512211D01*
X143129446Y-116483504D01*
X143128526Y-116473646D01*
X146016500Y-116473646D01*
X146023010Y-116534197D01*
X146023010Y-116534199D01*
X146023011Y-116534201D01*
X146056370Y-116623638D01*
X146074112Y-116671206D01*
X146161738Y-116788260D01*
X146161739Y-116788261D01*
X146278796Y-116875889D01*
X146278799Y-116875890D01*
X146289209Y-116879773D01*
X146338092Y-116918591D01*
X146341951Y-116924901D01*
X146350800Y-116940637D01*
X146350801Y-116940639D01*
X146382998Y-116972837D01*
X146386465Y-116976678D01*
X146414490Y-117011126D01*
X146415210Y-117012010D01*
X146431817Y-117023732D01*
X146444990Y-117034828D01*
X146948331Y-117538169D01*
X146994225Y-117587309D01*
X147033131Y-117610968D01*
X147037407Y-117613878D01*
X147073699Y-117641399D01*
X147092608Y-117648855D01*
X147108031Y-117656516D01*
X147125397Y-117667077D01*
X147125401Y-117667079D01*
X147169251Y-117679365D01*
X147174157Y-117681015D01*
X147211538Y-117695756D01*
X147216523Y-117697722D01*
X147236749Y-117699800D01*
X147253667Y-117703017D01*
X147273232Y-117708499D01*
X147273236Y-117708500D01*
X147318773Y-117708500D01*
X147323940Y-117708765D01*
X147334346Y-117709834D01*
X147369247Y-117713422D01*
X147389274Y-117709968D01*
X147406435Y-117708500D01*
X147912045Y-117708500D01*
X147945403Y-117714168D01*
X148063797Y-117755595D01*
X148094774Y-117758500D01*
X148094779Y-117758500D01*
X149230221Y-117758500D01*
X149230226Y-117758500D01*
X149261203Y-117755595D01*
X149391663Y-117709946D01*
X149502871Y-117627871D01*
X149584946Y-117516663D01*
X149630595Y-117386203D01*
X149633500Y-117355226D01*
X149633500Y-116944774D01*
X149630595Y-116913797D01*
X149584946Y-116783337D01*
X149502871Y-116672129D01*
X149502869Y-116672128D01*
X149502869Y-116672127D01*
X149497519Y-116666777D01*
X149499481Y-116664814D01*
X149470461Y-116624226D01*
X149470935Y-116561806D01*
X149476015Y-116549387D01*
X149500159Y-116500000D01*
X147824841Y-116500000D01*
X147797386Y-116543982D01*
X147749587Y-116584128D01*
X147711709Y-116591500D01*
X147683269Y-116591500D01*
X147623903Y-116572211D01*
X147587212Y-116521711D01*
X147582847Y-116479709D01*
X147583500Y-116473638D01*
X147583500Y-115976362D01*
X147576989Y-115915799D01*
X147525889Y-115778796D01*
X147497445Y-115740800D01*
X147438261Y-115661739D01*
X147438260Y-115661738D01*
X147321206Y-115574112D01*
X147321204Y-115574111D01*
X147256561Y-115550000D01*
X147824842Y-115550000D01*
X147854615Y-115610903D01*
X147897294Y-115653582D01*
X147925633Y-115709200D01*
X147915868Y-115770853D01*
X147897294Y-115796418D01*
X147854615Y-115839096D01*
X147824842Y-115900000D01*
X148362500Y-115900000D01*
X148362500Y-115550000D01*
X148962500Y-115550000D01*
X148962500Y-115900000D01*
X149500158Y-115900000D01*
X149470384Y-115839096D01*
X149427706Y-115796418D01*
X149399367Y-115740800D01*
X149409132Y-115679147D01*
X149427706Y-115653582D01*
X149470384Y-115610903D01*
X149500158Y-115550000D01*
X148962500Y-115550000D01*
X148362500Y-115550000D01*
X147824842Y-115550000D01*
X147256561Y-115550000D01*
X147184201Y-115523011D01*
X147184199Y-115523010D01*
X147184197Y-115523010D01*
X147123646Y-115516500D01*
X147123638Y-115516500D01*
X146476362Y-115516500D01*
X146476353Y-115516500D01*
X146415802Y-115523010D01*
X146278793Y-115574112D01*
X146161739Y-115661738D01*
X146161738Y-115661739D01*
X146074112Y-115778793D01*
X146023010Y-115915802D01*
X146016500Y-115976353D01*
X146016500Y-116473646D01*
X143128526Y-116473646D01*
X143123644Y-116421353D01*
X143155482Y-116367661D01*
X143212798Y-116342937D01*
X143222186Y-116342500D01*
X145175500Y-116342500D01*
X145175500Y-115696085D01*
X145172713Y-115660673D01*
X145128681Y-115509111D01*
X145128680Y-115509108D01*
X145048338Y-115373259D01*
X144936740Y-115261661D01*
X144800891Y-115181319D01*
X144800888Y-115181318D01*
X144649326Y-115137286D01*
X144613915Y-115134500D01*
X142967500Y-115134500D01*
X142967500Y-116090591D01*
X142948211Y-116149957D01*
X142897711Y-116186648D01*
X142835289Y-116186648D01*
X142821172Y-116180848D01*
X142725763Y-116132933D01*
X142725764Y-116132933D01*
X142725762Y-116132932D01*
X142725761Y-116132932D01*
X142555162Y-116092500D01*
X142423816Y-116092500D01*
X142423813Y-116092500D01*
X142293360Y-116107748D01*
X142128607Y-116167713D01*
X142128605Y-116167714D01*
X142123994Y-116170747D01*
X142063793Y-116187249D01*
X142005390Y-116165214D01*
X141971093Y-116113059D01*
X141967500Y-116086359D01*
X141967500Y-115134500D01*
X140321085Y-115134500D01*
X140285673Y-115137286D01*
X140134111Y-115181318D01*
X140134108Y-115181319D01*
X139998259Y-115261661D01*
X139886661Y-115373259D01*
X139806319Y-115509108D01*
X139806318Y-115509111D01*
X139762286Y-115660673D01*
X139759500Y-115696085D01*
X139759500Y-116342500D01*
X141715213Y-116342500D01*
X141774579Y-116361789D01*
X141811270Y-116412289D01*
X141811270Y-116474711D01*
X141802684Y-116493994D01*
X141782169Y-116529527D01*
X141774148Y-116543421D01*
X141723866Y-116711373D01*
X141723865Y-116711380D01*
X141714284Y-116875890D01*
X141713672Y-116886406D01*
X141739842Y-117034828D01*
X141744117Y-117059070D01*
X141805554Y-117201496D01*
X141811356Y-117263647D01*
X141779518Y-117317339D01*
X141722202Y-117342063D01*
X141712814Y-117342500D01*
X139759500Y-117342500D01*
X139759500Y-117988915D01*
X139400500Y-117988915D01*
X139400500Y-114171000D01*
X139419789Y-114111634D01*
X139470289Y-114074943D01*
X139501500Y-114070000D01*
X140632641Y-114070000D01*
X140692007Y-114089289D01*
X140716091Y-114114105D01*
X140749591Y-114163240D01*
X140749598Y-114163249D01*
X140933955Y-114361940D01*
X140980982Y-114399442D01*
X141145879Y-114530943D01*
X141380621Y-114666471D01*
X141380626Y-114666473D01*
X141380628Y-114666474D01*
X141456721Y-114696338D01*
X141632941Y-114765499D01*
X141897201Y-114825815D01*
X142050583Y-114837309D01*
X142099829Y-114841000D01*
X142099832Y-114841000D01*
X142835171Y-114841000D01*
X142880726Y-114837585D01*
X143037799Y-114825815D01*
X143302059Y-114765499D01*
X143554379Y-114666471D01*
X143789121Y-114530943D01*
X144001042Y-114361942D01*
X144185407Y-114163243D01*
X144218908Y-114114105D01*
X144268289Y-114075920D01*
X144302359Y-114070000D01*
X145463326Y-114070000D01*
X145522692Y-114089289D01*
X145534744Y-114099582D01*
X145986918Y-114551755D01*
X146015257Y-114607373D01*
X146016500Y-114623173D01*
X146016500Y-114823646D01*
X146023010Y-114884197D01*
X146023010Y-114884199D01*
X146023011Y-114884201D01*
X146072844Y-115017806D01*
X146074112Y-115021206D01*
X146161738Y-115138260D01*
X146161739Y-115138261D01*
X146260286Y-115212033D01*
X146278796Y-115225889D01*
X146415799Y-115276989D01*
X146476362Y-115283500D01*
X146476370Y-115283500D01*
X147123630Y-115283500D01*
X147123638Y-115283500D01*
X147184201Y-115276989D01*
X147321204Y-115225889D01*
X147438261Y-115138261D01*
X147525889Y-115021204D01*
X147552447Y-114950000D01*
X147824842Y-114950000D01*
X148362500Y-114950000D01*
X148362500Y-114742000D01*
X148962500Y-114742000D01*
X148962500Y-114950000D01*
X149500158Y-114950000D01*
X149470384Y-114889096D01*
X149385901Y-114804613D01*
X149278561Y-114752138D01*
X149278562Y-114752138D01*
X149208974Y-114742000D01*
X148962500Y-114742000D01*
X148362500Y-114742000D01*
X148116026Y-114742000D01*
X148046438Y-114752138D01*
X147939098Y-114804613D01*
X147854615Y-114889096D01*
X147824842Y-114950000D01*
X147552447Y-114950000D01*
X147576989Y-114884201D01*
X147583500Y-114823638D01*
X147583500Y-114326362D01*
X147576989Y-114265799D01*
X147543122Y-114174999D01*
X152368994Y-114174999D01*
X152368995Y-114175000D01*
X152600000Y-114175000D01*
X152600000Y-113981712D01*
X153400000Y-113981712D01*
X153400000Y-114175000D01*
X153631005Y-114175000D01*
X153631005Y-114174999D01*
X153609195Y-114132196D01*
X153609193Y-114132193D01*
X153517809Y-114040808D01*
X153402651Y-113982132D01*
X153400000Y-113981712D01*
X152600000Y-113981712D01*
X152597348Y-113982132D01*
X152482190Y-114040808D01*
X152390806Y-114132193D01*
X152390804Y-114132196D01*
X152368994Y-114174999D01*
X147543122Y-114174999D01*
X147525889Y-114128796D01*
X147514891Y-114114105D01*
X147438261Y-114011739D01*
X147438260Y-114011738D01*
X147321206Y-113924112D01*
X147321204Y-113924111D01*
X147184201Y-113873011D01*
X147184199Y-113873010D01*
X147184197Y-113873010D01*
X147123646Y-113866500D01*
X147123638Y-113866500D01*
X146923174Y-113866500D01*
X146863808Y-113847211D01*
X146851756Y-113836918D01*
X146427508Y-113412670D01*
X146399169Y-113357052D01*
X146397932Y-113340166D01*
X146398914Y-113249900D01*
X146418848Y-113190748D01*
X146469744Y-113154609D01*
X146499908Y-113150000D01*
X152100000Y-113150000D01*
X152100000Y-112243999D01*
X152119289Y-112184633D01*
X152169789Y-112147942D01*
X152201000Y-112142999D01*
X152720486Y-112142999D01*
X152781158Y-112130931D01*
X152849959Y-112084960D01*
X152849960Y-112084959D01*
X152895931Y-112016157D01*
X152908000Y-111955482D01*
X152908000Y-111701000D01*
X152927289Y-111641634D01*
X152977789Y-111604943D01*
X153009000Y-111600000D01*
X153799000Y-111600000D01*
X153858366Y-111619289D01*
G37*
%TD.AperFunction*%
%TD*%
%TA.AperFunction,Conductor*%
%TO.N,+12V*%
G36*
X163057866Y-106519789D02*
G01*
X163094557Y-106570289D01*
X163099500Y-106601500D01*
X163099500Y-111959000D01*
X163080211Y-112018366D01*
X163029711Y-112055057D01*
X162998500Y-112060000D01*
X161873608Y-112060000D01*
X161814242Y-112040711D01*
X161790158Y-112015895D01*
X161737908Y-111939258D01*
X161737901Y-111939250D01*
X161553544Y-111740559D01*
X161341623Y-111571558D01*
X161245045Y-111515799D01*
X161106879Y-111436029D01*
X161106875Y-111436027D01*
X161106871Y-111436025D01*
X160854565Y-111337003D01*
X160854557Y-111337000D01*
X160590302Y-111276685D01*
X160387671Y-111261500D01*
X160387668Y-111261500D01*
X159652332Y-111261500D01*
X159652329Y-111261500D01*
X159449697Y-111276685D01*
X159185442Y-111337000D01*
X159185434Y-111337003D01*
X158933128Y-111436025D01*
X158698376Y-111571558D01*
X158486455Y-111740559D01*
X158302098Y-111939250D01*
X158302095Y-111939253D01*
X158249841Y-112015896D01*
X158200461Y-112054080D01*
X158166391Y-112060000D01*
X155819500Y-112060000D01*
X155760134Y-112040711D01*
X155723443Y-111990211D01*
X155718500Y-111959000D01*
X155718500Y-110406415D01*
X157312000Y-110406415D01*
X157314786Y-110441826D01*
X157358818Y-110593388D01*
X157358819Y-110593391D01*
X157439161Y-110729240D01*
X157550759Y-110840838D01*
X157686608Y-110921180D01*
X157686611Y-110921181D01*
X157838173Y-110965213D01*
X157873585Y-110968000D01*
X159520000Y-110968000D01*
X159520000Y-110011908D01*
X159539289Y-109952542D01*
X159589789Y-109915851D01*
X159652211Y-109915851D01*
X159666324Y-109921649D01*
X159761739Y-109969568D01*
X159932338Y-110010000D01*
X159932340Y-110010000D01*
X160063679Y-110010000D01*
X160063684Y-110010000D01*
X160194139Y-109994752D01*
X160358891Y-109934787D01*
X160361124Y-109933317D01*
X160363500Y-109931756D01*
X160423699Y-109915249D01*
X160482104Y-109937280D01*
X160516405Y-109989432D01*
X160520000Y-110016140D01*
X160520000Y-110968000D01*
X162166415Y-110968000D01*
X162201826Y-110965213D01*
X162353388Y-110921181D01*
X162353391Y-110921180D01*
X162489240Y-110840838D01*
X162600838Y-110729240D01*
X162681180Y-110593391D01*
X162681181Y-110593388D01*
X162725213Y-110441826D01*
X162728000Y-110406415D01*
X162728000Y-109760000D01*
X160772287Y-109760000D01*
X160712921Y-109740711D01*
X160676230Y-109690211D01*
X160676230Y-109627789D01*
X160684815Y-109608505D01*
X160713350Y-109559082D01*
X160763634Y-109391123D01*
X160773828Y-109216094D01*
X160743384Y-109043433D01*
X160705676Y-108956017D01*
X160681946Y-108901004D01*
X160676144Y-108838853D01*
X160707982Y-108785161D01*
X160765298Y-108760437D01*
X160774686Y-108760000D01*
X162728000Y-108760000D01*
X162728000Y-108113585D01*
X162725213Y-108078173D01*
X162681181Y-107926611D01*
X162681180Y-107926608D01*
X162600838Y-107790759D01*
X162489240Y-107679161D01*
X162353391Y-107598819D01*
X162353388Y-107598818D01*
X162201826Y-107554786D01*
X162166415Y-107552000D01*
X160520000Y-107552000D01*
X160520000Y-108508091D01*
X160500711Y-108567457D01*
X160450211Y-108604148D01*
X160387789Y-108604148D01*
X160373672Y-108598348D01*
X160278263Y-108550433D01*
X160278264Y-108550433D01*
X160278262Y-108550432D01*
X160278261Y-108550432D01*
X160107662Y-108510000D01*
X159976316Y-108510000D01*
X159976313Y-108510000D01*
X159845860Y-108525248D01*
X159681107Y-108585213D01*
X159681105Y-108585214D01*
X159676494Y-108588247D01*
X159616293Y-108604749D01*
X159557890Y-108582714D01*
X159523593Y-108530559D01*
X159520000Y-108503859D01*
X159520000Y-107552000D01*
X157873585Y-107552000D01*
X157838173Y-107554786D01*
X157686611Y-107598818D01*
X157686608Y-107598819D01*
X157550759Y-107679161D01*
X157439161Y-107790759D01*
X157358819Y-107926608D01*
X157358818Y-107926611D01*
X157314786Y-108078173D01*
X157312000Y-108113585D01*
X157312000Y-108760000D01*
X159267713Y-108760000D01*
X159327079Y-108779289D01*
X159363770Y-108829789D01*
X159363770Y-108892211D01*
X159355184Y-108911494D01*
X159343621Y-108931524D01*
X159326648Y-108960921D01*
X159276366Y-109128873D01*
X159276365Y-109128880D01*
X159268356Y-109266404D01*
X159266172Y-109303906D01*
X159290004Y-109439070D01*
X159296617Y-109476570D01*
X159358054Y-109618996D01*
X159363856Y-109681147D01*
X159332018Y-109734839D01*
X159274702Y-109759563D01*
X159265314Y-109760000D01*
X157312000Y-109760000D01*
X157312000Y-110406415D01*
X155718500Y-110406415D01*
X155718500Y-109433191D01*
X155718933Y-109426592D01*
X155720567Y-109414171D01*
X155723750Y-109390000D01*
X155718663Y-109351365D01*
X155718661Y-109351340D01*
X155707479Y-109266406D01*
X155702838Y-109231150D01*
X155641524Y-109083125D01*
X155583000Y-109006855D01*
X155568477Y-108987928D01*
X155568474Y-108987925D01*
X155563209Y-108981064D01*
X155543991Y-108956017D01*
X155543988Y-108956015D01*
X155543987Y-108956013D01*
X155514697Y-108933537D01*
X155509731Y-108929181D01*
X154827680Y-108247131D01*
X154799341Y-108191513D01*
X154798682Y-108186550D01*
X154796989Y-108170799D01*
X154745889Y-108033796D01*
X154712306Y-107988935D01*
X154658261Y-107916739D01*
X154658260Y-107916738D01*
X154541206Y-107829112D01*
X154541204Y-107829111D01*
X154404201Y-107778011D01*
X154404199Y-107778010D01*
X154404197Y-107778010D01*
X154343646Y-107771500D01*
X154343638Y-107771500D01*
X153696362Y-107771500D01*
X153696353Y-107771500D01*
X153635802Y-107778010D01*
X153635799Y-107778010D01*
X153635799Y-107778011D01*
X153498796Y-107829111D01*
X153498793Y-107829112D01*
X153498793Y-107829113D01*
X153462404Y-107856354D01*
X153403319Y-107876490D01*
X153401876Y-107876500D01*
X153019621Y-107876500D01*
X152960255Y-107857211D01*
X152948203Y-107846917D01*
X152877368Y-107776081D01*
X152877363Y-107776078D01*
X152771854Y-107729491D01*
X152746065Y-107726500D01*
X152746064Y-107726500D01*
X151353936Y-107726500D01*
X151353935Y-107726500D01*
X151328145Y-107729491D01*
X151222636Y-107776078D01*
X151222634Y-107776079D01*
X151141079Y-107857634D01*
X151141078Y-107857636D01*
X151094491Y-107963145D01*
X151091500Y-107988935D01*
X151091500Y-108981064D01*
X151094491Y-109006854D01*
X151128168Y-109083125D01*
X151141079Y-109112365D01*
X151222635Y-109193921D01*
X151326994Y-109240000D01*
X151328145Y-109240508D01*
X151353935Y-109243500D01*
X151353936Y-109243500D01*
X152746063Y-109243500D01*
X152746064Y-109243500D01*
X152759818Y-109241904D01*
X152773330Y-109240337D01*
X152779154Y-109240000D01*
X152839000Y-109240000D01*
X152898366Y-109259289D01*
X152935057Y-109309789D01*
X152940000Y-109341000D01*
X152940000Y-110575500D01*
X152920711Y-110634866D01*
X152870211Y-110671557D01*
X152839000Y-110676500D01*
X152098244Y-110676500D01*
X152092586Y-110676182D01*
X152050000Y-110671384D01*
X152004594Y-110676500D01*
X151868951Y-110691783D01*
X151785935Y-110720832D01*
X151752577Y-110726500D01*
X151353935Y-110726500D01*
X151328145Y-110729491D01*
X151222636Y-110776078D01*
X151222634Y-110776079D01*
X151141079Y-110857634D01*
X151141078Y-110857636D01*
X151094491Y-110963145D01*
X151091500Y-110988935D01*
X151091500Y-111978000D01*
X151072211Y-112037366D01*
X151021711Y-112074057D01*
X150990500Y-112079000D01*
X147809500Y-112079000D01*
X147750134Y-112059711D01*
X147713443Y-112009211D01*
X147708500Y-111978000D01*
X147708500Y-111779599D01*
X147708500Y-111779594D01*
X147693217Y-111643953D01*
X147693216Y-111643951D01*
X147693217Y-111643951D01*
X147689169Y-111632385D01*
X147683500Y-111599022D01*
X147683500Y-111576362D01*
X147676989Y-111515799D01*
X147625889Y-111378796D01*
X147538261Y-111261739D01*
X147421204Y-111174111D01*
X147421201Y-111174110D01*
X147421200Y-111174109D01*
X147338754Y-111143357D01*
X147320317Y-111134245D01*
X147253015Y-111091957D01*
X147253011Y-111091955D01*
X147081048Y-111031783D01*
X146900000Y-111011384D01*
X146718951Y-111031783D01*
X146546988Y-111091955D01*
X146546986Y-111091956D01*
X146479675Y-111134249D01*
X146461238Y-111143360D01*
X146378798Y-111174109D01*
X146378797Y-111174110D01*
X146261739Y-111261738D01*
X146261738Y-111261739D01*
X146174112Y-111378793D01*
X146123010Y-111515802D01*
X146116500Y-111576353D01*
X146116500Y-111599022D01*
X146110832Y-111632380D01*
X146106783Y-111643951D01*
X146091500Y-111779593D01*
X146091500Y-111959000D01*
X146072211Y-112018366D01*
X146021711Y-112055057D01*
X145990500Y-112060000D01*
X144346675Y-112060000D01*
X144287309Y-112040711D01*
X144263225Y-112015895D01*
X144185408Y-111901758D01*
X144185401Y-111901750D01*
X144001044Y-111703059D01*
X143789123Y-111534058D01*
X143742172Y-111506951D01*
X143554379Y-111398529D01*
X143554375Y-111398527D01*
X143554371Y-111398525D01*
X143302065Y-111299503D01*
X143302057Y-111299500D01*
X143037802Y-111239185D01*
X142835171Y-111224000D01*
X142835168Y-111224000D01*
X142099832Y-111224000D01*
X142099829Y-111224000D01*
X141897197Y-111239185D01*
X141632942Y-111299500D01*
X141632934Y-111299503D01*
X141380628Y-111398525D01*
X141145876Y-111534058D01*
X140933955Y-111703059D01*
X140749598Y-111901750D01*
X140749595Y-111901753D01*
X140671774Y-112015896D01*
X140622394Y-112054080D01*
X140588324Y-112060000D01*
X139501500Y-112060000D01*
X139442134Y-112040711D01*
X139405443Y-111990211D01*
X139400500Y-111959000D01*
X139400500Y-109722500D01*
X139832259Y-109722500D01*
X139904354Y-109923237D01*
X139904357Y-109923243D01*
X140029645Y-110153645D01*
X140188632Y-110362216D01*
X140377606Y-110544086D01*
X140592106Y-110694961D01*
X140592113Y-110694965D01*
X140827143Y-110811336D01*
X140827142Y-110811336D01*
X141077177Y-110890464D01*
X141077185Y-110890466D01*
X141336369Y-110930500D01*
X141967500Y-110930500D01*
X141967500Y-109974408D01*
X141986789Y-109915042D01*
X142037289Y-109878351D01*
X142099711Y-109878351D01*
X142113824Y-109884149D01*
X142209239Y-109932068D01*
X142379838Y-109972500D01*
X142379840Y-109972500D01*
X142511179Y-109972500D01*
X142511184Y-109972500D01*
X142641639Y-109957252D01*
X142806391Y-109897287D01*
X142808624Y-109895817D01*
X142811000Y-109894256D01*
X142871199Y-109877749D01*
X142929604Y-109899780D01*
X142963905Y-109951932D01*
X142967500Y-109978640D01*
X142967500Y-110930500D01*
X143532967Y-110930500D01*
X143728996Y-110915449D01*
X143984348Y-110855694D01*
X143984360Y-110855690D01*
X144227603Y-110757655D01*
X144227606Y-110757654D01*
X144453032Y-110623636D01*
X144453039Y-110623631D01*
X144512007Y-110575000D01*
X146268994Y-110575000D01*
X146290804Y-110617803D01*
X146290806Y-110617806D01*
X146382190Y-110709191D01*
X146497348Y-110767867D01*
X146500000Y-110768286D01*
X146500000Y-110575000D01*
X147300000Y-110575000D01*
X147300000Y-110768286D01*
X147302651Y-110767867D01*
X147417809Y-110709191D01*
X147509193Y-110617806D01*
X147509195Y-110617803D01*
X147531005Y-110575000D01*
X147300000Y-110575000D01*
X146500000Y-110575000D01*
X146268994Y-110575000D01*
X144512007Y-110575000D01*
X144655367Y-110456771D01*
X144829858Y-110260979D01*
X144972410Y-110040851D01*
X144972415Y-110040841D01*
X145079698Y-109801526D01*
X145086988Y-109774999D01*
X146268994Y-109774999D01*
X146268995Y-109775000D01*
X146500000Y-109775000D01*
X146500000Y-109581712D01*
X147300000Y-109581712D01*
X147300000Y-109775000D01*
X147531005Y-109775000D01*
X147531005Y-109774999D01*
X147509195Y-109732196D01*
X147509193Y-109732193D01*
X147417809Y-109640808D01*
X147302651Y-109582132D01*
X147300000Y-109581712D01*
X146500000Y-109581712D01*
X146497348Y-109582132D01*
X146382190Y-109640808D01*
X146290806Y-109732193D01*
X146290804Y-109732196D01*
X146268994Y-109774999D01*
X145086988Y-109774999D01*
X145101416Y-109722500D01*
X143219787Y-109722500D01*
X143160421Y-109703211D01*
X143123730Y-109652711D01*
X143123730Y-109590289D01*
X143132315Y-109571005D01*
X143160850Y-109521582D01*
X143211134Y-109353623D01*
X143221328Y-109178594D01*
X143190884Y-109005933D01*
X143137617Y-108882447D01*
X143129446Y-108863504D01*
X143123644Y-108801353D01*
X143155482Y-108747661D01*
X143212798Y-108722937D01*
X143222186Y-108722500D01*
X145102741Y-108722500D01*
X145102741Y-108722499D01*
X145030645Y-108521762D01*
X145030642Y-108521756D01*
X144905354Y-108291354D01*
X144746367Y-108082783D01*
X144557393Y-107900913D01*
X144342893Y-107750038D01*
X144342886Y-107750034D01*
X144107856Y-107633663D01*
X144107857Y-107633663D01*
X143857822Y-107554535D01*
X143857814Y-107554533D01*
X143598631Y-107514500D01*
X142967500Y-107514500D01*
X142967500Y-108470591D01*
X142948211Y-108529957D01*
X142897711Y-108566648D01*
X142835289Y-108566648D01*
X142821172Y-108560848D01*
X142725763Y-108512933D01*
X142725764Y-108512933D01*
X142725762Y-108512932D01*
X142725761Y-108512932D01*
X142555162Y-108472500D01*
X142423816Y-108472500D01*
X142423813Y-108472500D01*
X142293360Y-108487748D01*
X142128607Y-108547713D01*
X142128605Y-108547714D01*
X142123994Y-108550747D01*
X142063793Y-108567249D01*
X142005390Y-108545214D01*
X141971093Y-108493059D01*
X141967500Y-108466359D01*
X141967500Y-107514500D01*
X141402033Y-107514500D01*
X141206003Y-107529550D01*
X140950651Y-107589305D01*
X140950639Y-107589309D01*
X140707396Y-107687344D01*
X140707393Y-107687345D01*
X140481967Y-107821363D01*
X140481960Y-107821368D01*
X140279632Y-107988228D01*
X140105141Y-108184020D01*
X139962589Y-108404148D01*
X139962584Y-108404158D01*
X139855301Y-108643473D01*
X139833584Y-108722500D01*
X141715213Y-108722500D01*
X141774579Y-108741789D01*
X141811270Y-108792289D01*
X141811270Y-108854711D01*
X141802684Y-108873994D01*
X141787091Y-108901004D01*
X141774148Y-108923421D01*
X141723866Y-109091373D01*
X141723865Y-109091380D01*
X141713672Y-109266404D01*
X141713672Y-109266406D01*
X141741916Y-109426592D01*
X141744117Y-109439070D01*
X141805554Y-109581496D01*
X141811356Y-109643647D01*
X141779518Y-109697339D01*
X141722202Y-109722063D01*
X141712814Y-109722500D01*
X139832259Y-109722500D01*
X139400500Y-109722500D01*
X139400500Y-106601500D01*
X139419789Y-106542134D01*
X139470289Y-106505443D01*
X139501500Y-106500500D01*
X162998500Y-106500500D01*
X163057866Y-106519789D01*
G37*
%TD.AperFunction*%
%TD*%
M02*
