%TF.GenerationSoftware,KiCad,Pcbnew,(5.1.6)-1*%
%TF.CreationDate,2020-09-26T17:43:19-04:00*%
%TF.ProjectId,PiOled,50694f6c-6564-42e6-9b69-6361645f7063,v1*%
%TF.SameCoordinates,Original*%
%TF.FileFunction,Soldermask,Top*%
%TF.FilePolarity,Negative*%
%FSLAX46Y46*%
G04 Gerber Fmt 4.6, Leading zero omitted, Abs format (unit mm)*
G04 Created by KiCad (PCBNEW (5.1.6)-1) date 2020-09-26 17:43:19*
%MOMM*%
%LPD*%
G01*
G04 APERTURE LIST*
%ADD10R,1.600000X1.100000*%
%ADD11C,2.004000*%
%ADD12O,1.800000X1.800000*%
%ADD13R,1.800000X1.800000*%
%ADD14C,3.100000*%
G04 APERTURE END LIST*
D10*
%TO.C,JP2*%
X114600000Y-69300000D03*
X114600000Y-70600000D03*
X114600000Y-71900000D03*
%TD*%
%TO.C,JP1*%
X111600000Y-69300000D03*
X111600000Y-70600000D03*
X111600000Y-71900000D03*
%TD*%
D11*
%TO.C,J2*%
X80895560Y-70949541D03*
X84705560Y-70949541D03*
%TD*%
D12*
%TO.C,J4*%
X127580000Y-69600000D03*
X130120000Y-69600000D03*
X132660000Y-69600000D03*
D13*
X135200000Y-69600000D03*
%TD*%
D12*
%TO.C,J3*%
X108020000Y-69400000D03*
X105480000Y-69400000D03*
X102940000Y-69400000D03*
D13*
X100400000Y-69400000D03*
%TD*%
D14*
%TO.C,H2*%
X140040000Y-64330000D03*
%TD*%
%TO.C,H1*%
X82040000Y-64310000D03*
%TD*%
D12*
%TO.C,J1*%
X135180000Y-63050000D03*
X135180000Y-65590000D03*
X132640000Y-63050000D03*
X132640000Y-65590000D03*
X130100000Y-63050000D03*
X130100000Y-65590000D03*
X127560000Y-63050000D03*
X127560000Y-65590000D03*
X125020000Y-63050000D03*
X125020000Y-65590000D03*
X122480000Y-63050000D03*
X122480000Y-65590000D03*
X119940000Y-63050000D03*
X119940000Y-65590000D03*
X117400000Y-63050000D03*
X117400000Y-65590000D03*
X114860000Y-63050000D03*
X114860000Y-65590000D03*
X112320000Y-63050000D03*
X112320000Y-65590000D03*
X109780000Y-63050000D03*
X109780000Y-65590000D03*
X107240000Y-63050000D03*
X107240000Y-65590000D03*
X104700000Y-63050000D03*
X104700000Y-65590000D03*
X102160000Y-63050000D03*
X102160000Y-65590000D03*
X99620000Y-63050000D03*
X99620000Y-65590000D03*
X97080000Y-63050000D03*
X97080000Y-65590000D03*
X94540000Y-63050000D03*
X94540000Y-65590000D03*
X92000000Y-63050000D03*
X92000000Y-65590000D03*
X89460000Y-63050000D03*
X89460000Y-65590000D03*
X86920000Y-63050000D03*
D13*
X86920000Y-65590000D03*
%TD*%
M02*
