%TF.GenerationSoftware,KiCad,Pcbnew,(7.0.0)*%
%TF.CreationDate,2023-02-23T12:30:24-05:00*%
%TF.ProjectId,PiOled,50694f6c-6564-42e6-9b69-6361645f7063,v3*%
%TF.SameCoordinates,Original*%
%TF.FileFunction,Soldermask,Bot*%
%TF.FilePolarity,Negative*%
%FSLAX46Y46*%
G04 Gerber Fmt 4.6, Leading zero omitted, Abs format (unit mm)*
G04 Created by KiCad (PCBNEW (7.0.0)) date 2023-02-23 12:30:24*
%MOMM*%
%LPD*%
G01*
G04 APERTURE LIST*
G04 Aperture macros list*
%AMRoundRect*
0 Rectangle with rounded corners*
0 $1 Rounding radius*
0 $2 $3 $4 $5 $6 $7 $8 $9 X,Y pos of 4 corners*
0 Add a 4 corners polygon primitive as box body*
4,1,4,$2,$3,$4,$5,$6,$7,$8,$9,$2,$3,0*
0 Add four circle primitives for the rounded corners*
1,1,$1+$1,$2,$3*
1,1,$1+$1,$4,$5*
1,1,$1+$1,$6,$7*
1,1,$1+$1,$8,$9*
0 Add four rect primitives between the rounded corners*
20,1,$1+$1,$2,$3,$4,$5,0*
20,1,$1+$1,$4,$5,$6,$7,0*
20,1,$1+$1,$6,$7,$8,$9,0*
20,1,$1+$1,$8,$9,$2,$3,0*%
G04 Aperture macros list end*
%ADD10C,3.100000*%
%ADD11RoundRect,0.050000X0.850000X-0.850000X0.850000X0.850000X-0.850000X0.850000X-0.850000X-0.850000X0*%
%ADD12O,1.800000X1.800000*%
%ADD13RoundRect,0.050000X-1.300000X-1.300000X1.300000X-1.300000X1.300000X1.300000X-1.300000X1.300000X0*%
%ADD14C,2.700000*%
%ADD15RoundRect,0.050000X-0.800000X-0.750000X0.800000X-0.750000X0.800000X0.750000X-0.800000X0.750000X0*%
%ADD16C,1.700000*%
%ADD17RoundRect,0.050000X-0.850000X0.850000X-0.850000X-0.850000X0.850000X-0.850000X0.850000X0.850000X0*%
G04 APERTURE END LIST*
D10*
%TO.C,H1*%
X82040000Y-64310000D03*
%TD*%
%TO.C,H2*%
X140040000Y-64330000D03*
%TD*%
D11*
%TO.C,J3*%
X100400000Y-69400000D03*
D12*
X102939999Y-69399999D03*
X105479999Y-69399999D03*
X108019999Y-69399999D03*
%TD*%
D13*
%TO.C,J4*%
X81100000Y-72500000D03*
D14*
X86100000Y-72500000D03*
%TD*%
D15*
%TO.C,J5*%
X126300000Y-70140000D03*
D16*
X128800000Y-70140000D03*
X130800000Y-70140000D03*
X133300000Y-70140000D03*
D10*
X123230000Y-72850000D03*
X136370000Y-72850000D03*
%TD*%
D17*
%TO.C,J1*%
X86920000Y-65590000D03*
D12*
X86919999Y-63049999D03*
X89459999Y-65589999D03*
X89459999Y-63049999D03*
X91999999Y-65589999D03*
X91999999Y-63049999D03*
X94539999Y-65589999D03*
X94539999Y-63049999D03*
X97079999Y-65589999D03*
X97079999Y-63049999D03*
X99619999Y-65589999D03*
X99619999Y-63049999D03*
X102159999Y-65589999D03*
X102159999Y-63049999D03*
X104699999Y-65589999D03*
X104699999Y-63049999D03*
X107239999Y-65589999D03*
X107239999Y-63049999D03*
X109779999Y-65589999D03*
X109779999Y-63049999D03*
X112319999Y-65589999D03*
X112319999Y-63049999D03*
X114859999Y-65589999D03*
X114859999Y-63049999D03*
X117399999Y-65589999D03*
X117399999Y-63049999D03*
X119939999Y-65589999D03*
X119939999Y-63049999D03*
X122479999Y-65589999D03*
X122479999Y-63049999D03*
X125019999Y-65589999D03*
X125019999Y-63049999D03*
X127559999Y-65589999D03*
X127559999Y-63049999D03*
X130099999Y-65589999D03*
X130099999Y-63049999D03*
X132639999Y-65589999D03*
X132639999Y-63049999D03*
X135179999Y-65589999D03*
X135179999Y-63049999D03*
%TD*%
M02*
