M48
; DRILL file {KiCad (5.1.6)-1} date 10/13/20 00:02:45
; FORMAT={-:-/ absolute / inch / decimal}
; #@! TF.CreationDate,2020-10-13T00:02:45-04:00
; #@! TF.GenerationSoftware,Kicad,Pcbnew,(5.1.6)-1
; #@! TF.FileFunction,Plated,1,2,PTH
FMAT,2
INCH
T1C0.0157
T2C0.0394
T3C0.0512
%
G90
G05
T1
X3.1496Y-2.6772
X3.3661Y-2.6772
X3.622Y-2.874
X3.7008Y-2.6969
X3.878Y-2.6969
X3.8976Y-2.874
X4.0945Y-2.6575
X4.2126Y-2.874
X4.2835Y-2.8268
X4.3246Y-2.7795
X4.3701Y-2.6575
X4.4567Y-2.7795
X4.6063Y-2.874
X4.6457Y-2.6772
X4.8031Y-2.874
X4.8819Y-2.6772
X5.0Y-2.874
X5.1969Y-2.874
X5.4331Y-2.6772
X5.4331Y-2.874
X5.5906Y-2.6772
X5.5906Y-2.874
T2
X3.9528Y-2.7323
X4.0528Y-2.7323
X4.1528Y-2.7323
X4.2528Y-2.7323
X5.0228Y-2.7402
X5.1228Y-2.7402
X5.2228Y-2.7402
X5.3228Y-2.7402
X3.422Y-2.4823
X3.422Y-2.5823
X3.522Y-2.4823
X3.522Y-2.5823
X3.622Y-2.4823
X3.622Y-2.5823
X3.722Y-2.4823
X3.722Y-2.5823
X3.822Y-2.4823
X3.822Y-2.5823
X3.922Y-2.4823
X3.922Y-2.5823
X4.022Y-2.4823
X4.022Y-2.5823
X4.122Y-2.4823
X4.122Y-2.5823
X4.222Y-2.4823
X4.222Y-2.5823
X4.322Y-2.4823
X4.322Y-2.5823
X4.422Y-2.4823
X4.422Y-2.5823
X4.522Y-2.4823
X4.522Y-2.5823
X4.622Y-2.4823
X4.622Y-2.5823
X4.722Y-2.4823
X4.722Y-2.5823
X4.822Y-2.4823
X4.822Y-2.5823
X4.922Y-2.4823
X4.922Y-2.5823
X5.022Y-2.4823
X5.022Y-2.5823
X5.122Y-2.4823
X5.122Y-2.5823
X5.222Y-2.4823
X5.222Y-2.5823
X5.322Y-2.4823
X5.322Y-2.5823
T3
X3.1988Y-2.8543
X3.3957Y-2.8543
T0
M30
