%TF.GenerationSoftware,KiCad,Pcbnew,(5.1.9)-1*%
%TF.CreationDate,2021-03-10T23:31:42-05:00*%
%TF.ProjectId,Power_Distribution,506f7765-725f-4446-9973-747269627574,v1*%
%TF.SameCoordinates,Original*%
%TF.FileFunction,Copper,L2,Bot*%
%TF.FilePolarity,Positive*%
%FSLAX46Y46*%
G04 Gerber Fmt 4.6, Leading zero omitted, Abs format (unit mm)*
G04 Created by KiCad (PCBNEW (5.1.9)-1) date 2021-03-10 23:31:42*
%MOMM*%
%LPD*%
G01*
G04 APERTURE LIST*
%TA.AperFunction,ComponentPad*%
%ADD10C,2.475000*%
%TD*%
%TA.AperFunction,ComponentPad*%
%ADD11O,1.600000X1.600000*%
%TD*%
%TA.AperFunction,ComponentPad*%
%ADD12C,1.600000*%
%TD*%
%TA.AperFunction,ComponentPad*%
%ADD13C,1.800000*%
%TD*%
%TA.AperFunction,ComponentPad*%
%ADD14R,1.800000X1.800000*%
%TD*%
%TA.AperFunction,ComponentPad*%
%ADD15O,1.800000X3.600000*%
%TD*%
%TA.AperFunction,ComponentPad*%
%ADD16C,7.000000*%
%TD*%
%TA.AperFunction,ComponentPad*%
%ADD17C,0.800000*%
%TD*%
%TA.AperFunction,ComponentPad*%
%ADD18C,4.000000*%
%TD*%
%TA.AperFunction,ComponentPad*%
%ADD19R,4.000000X4.000000*%
%TD*%
%TA.AperFunction,Conductor*%
%ADD20C,0.500000*%
%TD*%
%TA.AperFunction,Conductor*%
%ADD21C,3.000000*%
%TD*%
%TA.AperFunction,Conductor*%
%ADD22C,0.254000*%
%TD*%
%TA.AperFunction,Conductor*%
%ADD23C,0.100000*%
%TD*%
G04 APERTURE END LIST*
D10*
%TO.P,F8,2_2*%
%TO.N,Net-(F8-Pad2_1)*%
X140500000Y-91050000D03*
%TO.P,F8,1_1*%
%TO.N,+12V*%
X140500000Y-102950000D03*
%TO.P,F8,2_1*%
%TO.N,Net-(F8-Pad2_1)*%
X140500000Y-94750000D03*
%TO.P,F8,1_2*%
%TO.N,+12V*%
X140500000Y-99250000D03*
%TD*%
%TO.P,F7,2_2*%
%TO.N,Net-(F7-Pad2_1)*%
X135000000Y-110950000D03*
%TO.P,F7,1_1*%
%TO.N,+12V*%
X135000000Y-99050000D03*
%TO.P,F7,2_1*%
%TO.N,Net-(F7-Pad2_1)*%
X135000000Y-107250000D03*
%TO.P,F7,1_2*%
%TO.N,+12V*%
X135000000Y-102750000D03*
%TD*%
%TO.P,F6,2_2*%
%TO.N,Net-(F6-Pad2_1)*%
X129500000Y-91050000D03*
%TO.P,F6,1_1*%
%TO.N,+12V*%
X129500000Y-102950000D03*
%TO.P,F6,2_1*%
%TO.N,Net-(F6-Pad2_1)*%
X129500000Y-94750000D03*
%TO.P,F6,1_2*%
%TO.N,+12V*%
X129500000Y-99250000D03*
%TD*%
%TO.P,F5,2_2*%
%TO.N,Net-(F5-Pad2_1)*%
X124000000Y-110950000D03*
%TO.P,F5,1_1*%
%TO.N,+12V*%
X124000000Y-99050000D03*
%TO.P,F5,2_1*%
%TO.N,Net-(F5-Pad2_1)*%
X124000000Y-107250000D03*
%TO.P,F5,1_2*%
%TO.N,+12V*%
X124000000Y-102750000D03*
%TD*%
%TO.P,F4,2_2*%
%TO.N,Net-(F4-Pad2_1)*%
X118500000Y-91050000D03*
%TO.P,F4,1_1*%
%TO.N,+12V*%
X118500000Y-102950000D03*
%TO.P,F4,2_1*%
%TO.N,Net-(F4-Pad2_1)*%
X118500000Y-94750000D03*
%TO.P,F4,1_2*%
%TO.N,+12V*%
X118500000Y-99250000D03*
%TD*%
%TO.P,F3,2_2*%
%TO.N,Net-(F3-Pad2_1)*%
X113000000Y-110950000D03*
%TO.P,F3,1_1*%
%TO.N,+12V*%
X113000000Y-99050000D03*
%TO.P,F3,2_1*%
%TO.N,Net-(F3-Pad2_1)*%
X113000000Y-107250000D03*
%TO.P,F3,1_2*%
%TO.N,+12V*%
X113000000Y-102750000D03*
%TD*%
%TO.P,F2,2_2*%
%TO.N,Net-(F2-Pad2_1)*%
X107500000Y-91050000D03*
%TO.P,F2,1_1*%
%TO.N,+12V*%
X107500000Y-102950000D03*
%TO.P,F2,2_1*%
%TO.N,Net-(F2-Pad2_1)*%
X107500000Y-94750000D03*
%TO.P,F2,1_2*%
%TO.N,+12V*%
X107500000Y-99250000D03*
%TD*%
%TO.P,F1,2_2*%
%TO.N,Net-(F1-Pad2_1)*%
X102000000Y-110950000D03*
%TO.P,F1,1_1*%
%TO.N,+12V*%
X102000000Y-99050000D03*
%TO.P,F1,2_1*%
%TO.N,Net-(F1-Pad2_1)*%
X102000000Y-107250000D03*
%TO.P,F1,1_2*%
%TO.N,+12V*%
X102000000Y-102750000D03*
%TD*%
D11*
%TO.P,R1,2*%
%TO.N,GND*%
X162120000Y-89500000D03*
D12*
%TO.P,R1,1*%
%TO.N,Net-(D1-Pad1)*%
X154500000Y-89500000D03*
%TD*%
D13*
%TO.P,D1,2*%
%TO.N,+12V*%
X147960000Y-89500000D03*
D14*
%TO.P,D1,1*%
%TO.N,Net-(D1-Pad1)*%
X150500000Y-89500000D03*
%TD*%
D15*
%TO.P,J8,2*%
%TO.N,GND*%
X136690000Y-83000000D03*
%TO.P,J8,1*%
%TO.N,Net-(F8-Pad2_1)*%
%TA.AperFunction,ComponentPad*%
G36*
G01*
X141400000Y-81450000D02*
X141400000Y-84550000D01*
G75*
G02*
X141150000Y-84800000I-250000J0D01*
G01*
X139850000Y-84800000D01*
G75*
G02*
X139600000Y-84550000I0J250000D01*
G01*
X139600000Y-81450000D01*
G75*
G02*
X139850000Y-81200000I250000J0D01*
G01*
X141150000Y-81200000D01*
G75*
G02*
X141400000Y-81450000I0J-250000D01*
G01*
G37*
%TD.AperFunction*%
%TD*%
%TO.P,J7,2*%
%TO.N,GND*%
X138810000Y-119000000D03*
%TO.P,J7,1*%
%TO.N,Net-(F7-Pad2_1)*%
%TA.AperFunction,ComponentPad*%
G36*
G01*
X134100000Y-120550000D02*
X134100000Y-117450000D01*
G75*
G02*
X134350000Y-117200000I250000J0D01*
G01*
X135650000Y-117200000D01*
G75*
G02*
X135900000Y-117450000I0J-250000D01*
G01*
X135900000Y-120550000D01*
G75*
G02*
X135650000Y-120800000I-250000J0D01*
G01*
X134350000Y-120800000D01*
G75*
G02*
X134100000Y-120550000I0J250000D01*
G01*
G37*
%TD.AperFunction*%
%TD*%
%TO.P,J6,2*%
%TO.N,GND*%
X125690000Y-83000000D03*
%TO.P,J6,1*%
%TO.N,Net-(F6-Pad2_1)*%
%TA.AperFunction,ComponentPad*%
G36*
G01*
X130400000Y-81450000D02*
X130400000Y-84550000D01*
G75*
G02*
X130150000Y-84800000I-250000J0D01*
G01*
X128850000Y-84800000D01*
G75*
G02*
X128600000Y-84550000I0J250000D01*
G01*
X128600000Y-81450000D01*
G75*
G02*
X128850000Y-81200000I250000J0D01*
G01*
X130150000Y-81200000D01*
G75*
G02*
X130400000Y-81450000I0J-250000D01*
G01*
G37*
%TD.AperFunction*%
%TD*%
%TO.P,J5,2*%
%TO.N,GND*%
X127810000Y-119000000D03*
%TO.P,J5,1*%
%TO.N,Net-(F5-Pad2_1)*%
%TA.AperFunction,ComponentPad*%
G36*
G01*
X123100000Y-120550000D02*
X123100000Y-117450000D01*
G75*
G02*
X123350000Y-117200000I250000J0D01*
G01*
X124650000Y-117200000D01*
G75*
G02*
X124900000Y-117450000I0J-250000D01*
G01*
X124900000Y-120550000D01*
G75*
G02*
X124650000Y-120800000I-250000J0D01*
G01*
X123350000Y-120800000D01*
G75*
G02*
X123100000Y-120550000I0J250000D01*
G01*
G37*
%TD.AperFunction*%
%TD*%
%TO.P,J4,2*%
%TO.N,GND*%
X114690000Y-83000000D03*
%TO.P,J4,1*%
%TO.N,Net-(F4-Pad2_1)*%
%TA.AperFunction,ComponentPad*%
G36*
G01*
X119400000Y-81450000D02*
X119400000Y-84550000D01*
G75*
G02*
X119150000Y-84800000I-250000J0D01*
G01*
X117850000Y-84800000D01*
G75*
G02*
X117600000Y-84550000I0J250000D01*
G01*
X117600000Y-81450000D01*
G75*
G02*
X117850000Y-81200000I250000J0D01*
G01*
X119150000Y-81200000D01*
G75*
G02*
X119400000Y-81450000I0J-250000D01*
G01*
G37*
%TD.AperFunction*%
%TD*%
%TO.P,J3,2*%
%TO.N,GND*%
X116810000Y-119000000D03*
%TO.P,J3,1*%
%TO.N,Net-(F3-Pad2_1)*%
%TA.AperFunction,ComponentPad*%
G36*
G01*
X112100000Y-120550000D02*
X112100000Y-117450000D01*
G75*
G02*
X112350000Y-117200000I250000J0D01*
G01*
X113650000Y-117200000D01*
G75*
G02*
X113900000Y-117450000I0J-250000D01*
G01*
X113900000Y-120550000D01*
G75*
G02*
X113650000Y-120800000I-250000J0D01*
G01*
X112350000Y-120800000D01*
G75*
G02*
X112100000Y-120550000I0J250000D01*
G01*
G37*
%TD.AperFunction*%
%TD*%
%TO.P,J2,2*%
%TO.N,GND*%
X103690000Y-83000000D03*
%TO.P,J2,1*%
%TO.N,Net-(F2-Pad2_1)*%
%TA.AperFunction,ComponentPad*%
G36*
G01*
X108400000Y-81450000D02*
X108400000Y-84550000D01*
G75*
G02*
X108150000Y-84800000I-250000J0D01*
G01*
X106850000Y-84800000D01*
G75*
G02*
X106600000Y-84550000I0J250000D01*
G01*
X106600000Y-81450000D01*
G75*
G02*
X106850000Y-81200000I250000J0D01*
G01*
X108150000Y-81200000D01*
G75*
G02*
X108400000Y-81450000I0J-250000D01*
G01*
G37*
%TD.AperFunction*%
%TD*%
%TO.P,J1,2*%
%TO.N,GND*%
X105810000Y-119000000D03*
%TO.P,J1,1*%
%TO.N,Net-(F1-Pad2_1)*%
%TA.AperFunction,ComponentPad*%
G36*
G01*
X101100000Y-120550000D02*
X101100000Y-117450000D01*
G75*
G02*
X101350000Y-117200000I250000J0D01*
G01*
X102650000Y-117200000D01*
G75*
G02*
X102900000Y-117450000I0J-250000D01*
G01*
X102900000Y-120550000D01*
G75*
G02*
X102650000Y-120800000I-250000J0D01*
G01*
X101350000Y-120800000D01*
G75*
G02*
X101100000Y-120550000I0J250000D01*
G01*
G37*
%TD.AperFunction*%
%TD*%
D16*
%TO.P,H1,1*%
%TO.N,GND*%
X168000000Y-127000000D03*
D17*
X170625000Y-127000000D03*
X169856155Y-128856155D03*
X168000000Y-129625000D03*
X166143845Y-128856155D03*
X165375000Y-127000000D03*
X166143845Y-125143845D03*
X168000000Y-124375000D03*
X169856155Y-125143845D03*
%TD*%
D18*
%TO.P,TB1,2*%
%TO.N,GND*%
X158600000Y-110200000D03*
D19*
%TO.P,TB1,1*%
%TO.N,+12V*%
X158600000Y-100700000D03*
%TD*%
D16*
%TO.P,H4,1*%
%TO.N,GND*%
X91500000Y-76000000D03*
D17*
X94125000Y-76000000D03*
X93356155Y-77856155D03*
X91500000Y-78625000D03*
X89643845Y-77856155D03*
X88875000Y-76000000D03*
X89643845Y-74143845D03*
X91500000Y-73375000D03*
X93356155Y-74143845D03*
%TD*%
D16*
%TO.P,H3,1*%
%TO.N,GND*%
X91500000Y-127000000D03*
D17*
X94125000Y-127000000D03*
X93356155Y-128856155D03*
X91500000Y-129625000D03*
X89643845Y-128856155D03*
X88875000Y-127000000D03*
X89643845Y-125143845D03*
X91500000Y-124375000D03*
X93356155Y-125143845D03*
%TD*%
D16*
%TO.P,H2,1*%
%TO.N,GND*%
X168000000Y-76000000D03*
D17*
X170625000Y-76000000D03*
X169856155Y-77856155D03*
X168000000Y-78625000D03*
X166143845Y-77856155D03*
X165375000Y-76000000D03*
X166143845Y-74143845D03*
X168000000Y-73375000D03*
X169856155Y-74143845D03*
%TD*%
D20*
%TO.N,+12V*%
X147960000Y-89500000D02*
X147960000Y-98540000D01*
X147250000Y-99250000D02*
X140500000Y-99250000D01*
X147960000Y-98540000D02*
X147250000Y-99250000D01*
D21*
%TO.N,Net-(F1-Pad2_1)*%
X102000000Y-107250000D02*
X102000000Y-119000000D01*
%TO.N,Net-(F2-Pad2_1)*%
X107500000Y-94750000D02*
X107500000Y-83000000D01*
%TO.N,Net-(F3-Pad2_1)*%
X113000000Y-107250000D02*
X113000000Y-119000000D01*
%TO.N,Net-(F4-Pad2_1)*%
X118500000Y-94750000D02*
X118500000Y-83000000D01*
%TO.N,Net-(F5-Pad2_1)*%
X124000000Y-107250000D02*
X124000000Y-119000000D01*
%TO.N,Net-(F6-Pad2_1)*%
X129500000Y-94750000D02*
X129500000Y-83000000D01*
%TO.N,Net-(F7-Pad2_1)*%
X135000000Y-107250000D02*
X135000000Y-119000000D01*
%TO.N,Net-(F8-Pad2_1)*%
X140500000Y-94750000D02*
X140500000Y-83000000D01*
D20*
%TO.N,Net-(D1-Pad1)*%
X154500000Y-89500000D02*
X150500000Y-89500000D01*
%TD*%
D22*
%TO.N,+12V*%
X162373000Y-104873000D02*
X99127000Y-104873000D01*
X99127000Y-97127000D01*
X162373000Y-97127000D01*
X162373000Y-104873000D01*
%TA.AperFunction,Conductor*%
D23*
G36*
X162373000Y-104873000D02*
G01*
X99127000Y-104873000D01*
X99127000Y-97127000D01*
X162373000Y-97127000D01*
X162373000Y-104873000D01*
G37*
%TD.AperFunction*%
%TD*%
D22*
%TO.N,GND*%
X89643844Y-72909236D02*
X89424531Y-73128548D01*
X89410454Y-73130362D01*
X89274842Y-73171500D01*
X89244396Y-73358316D01*
X89643845Y-73757765D01*
X89733648Y-73667963D01*
X90119728Y-74054043D01*
X90029925Y-74143845D01*
X90429374Y-74543294D01*
X90616190Y-74512848D01*
X90655845Y-74366456D01*
X90878455Y-74143847D01*
X91500000Y-74765392D01*
X92121546Y-74143847D01*
X92340858Y-74363159D01*
X92342672Y-74377236D01*
X92383810Y-74512848D01*
X92570626Y-74543294D01*
X92970075Y-74143845D01*
X92880273Y-74054043D01*
X93266353Y-73667963D01*
X93356155Y-73757765D01*
X93755604Y-73358316D01*
X93725158Y-73171500D01*
X93578766Y-73131845D01*
X93356157Y-72909236D01*
X93605392Y-72660000D01*
X165894608Y-72660000D01*
X166143844Y-72909236D01*
X165924531Y-73128548D01*
X165910454Y-73130362D01*
X165774842Y-73171500D01*
X165744396Y-73358316D01*
X166143845Y-73757765D01*
X166233648Y-73667963D01*
X166619728Y-74054043D01*
X166529925Y-74143845D01*
X166929374Y-74543294D01*
X167116190Y-74512848D01*
X167155845Y-74366456D01*
X167378455Y-74143847D01*
X168000000Y-74765392D01*
X168621546Y-74143847D01*
X168840858Y-74363159D01*
X168842672Y-74377236D01*
X168883810Y-74512848D01*
X169070626Y-74543294D01*
X169470075Y-74143845D01*
X169380273Y-74054043D01*
X169766353Y-73667963D01*
X169856155Y-73757765D01*
X170255604Y-73358316D01*
X170225158Y-73171500D01*
X170078766Y-73131845D01*
X169856157Y-72909236D01*
X170105392Y-72660000D01*
X171340000Y-72660000D01*
X171340000Y-73894608D01*
X171090765Y-74143844D01*
X170871452Y-73924531D01*
X170869638Y-73910454D01*
X170828500Y-73774842D01*
X170641684Y-73744396D01*
X170242235Y-74143845D01*
X170332038Y-74233648D01*
X169945958Y-74619728D01*
X169856155Y-74529925D01*
X169456706Y-74929374D01*
X169487152Y-75116190D01*
X169633544Y-75155845D01*
X169856154Y-75378455D01*
X169234608Y-76000000D01*
X169856154Y-76621546D01*
X169636841Y-76840858D01*
X169622764Y-76842672D01*
X169487152Y-76883810D01*
X169456706Y-77070626D01*
X169856155Y-77470075D01*
X169945958Y-77380273D01*
X170332038Y-77766353D01*
X170242235Y-77856155D01*
X170641684Y-78255604D01*
X170828500Y-78225158D01*
X170868155Y-78078766D01*
X171090765Y-77856157D01*
X171340000Y-78105392D01*
X171340001Y-124894607D01*
X171090765Y-125143844D01*
X170871452Y-124924531D01*
X170869638Y-124910454D01*
X170828500Y-124774842D01*
X170641684Y-124744396D01*
X170242235Y-125143845D01*
X170332038Y-125233648D01*
X169945958Y-125619728D01*
X169856155Y-125529925D01*
X169456706Y-125929374D01*
X169487152Y-126116190D01*
X169633544Y-126155845D01*
X169856154Y-126378455D01*
X169234608Y-127000000D01*
X169856154Y-127621546D01*
X169636841Y-127840858D01*
X169622764Y-127842672D01*
X169487152Y-127883810D01*
X169456706Y-128070626D01*
X169856155Y-128470075D01*
X169945958Y-128380273D01*
X170332038Y-128766353D01*
X170242235Y-128856155D01*
X170641684Y-129255604D01*
X170828500Y-129225158D01*
X170868155Y-129078766D01*
X171090765Y-128856157D01*
X171340001Y-129105393D01*
X171340001Y-130340000D01*
X170105392Y-130340000D01*
X169856157Y-130090765D01*
X170075469Y-129871452D01*
X170089546Y-129869638D01*
X170225158Y-129828500D01*
X170255604Y-129641684D01*
X169856155Y-129242235D01*
X169766353Y-129332038D01*
X169380273Y-128945958D01*
X169470075Y-128856155D01*
X169070626Y-128456706D01*
X168883810Y-128487152D01*
X168844155Y-128633544D01*
X168621546Y-128856154D01*
X168000000Y-128234608D01*
X167378455Y-128856154D01*
X167159142Y-128636841D01*
X167157328Y-128622764D01*
X167116190Y-128487152D01*
X166929374Y-128456706D01*
X166529925Y-128856155D01*
X166619728Y-128945958D01*
X166233648Y-129332038D01*
X166143845Y-129242235D01*
X165744396Y-129641684D01*
X165774842Y-129828500D01*
X165921234Y-129868155D01*
X166143844Y-130090765D01*
X165894608Y-130340000D01*
X93605392Y-130340000D01*
X93356157Y-130090765D01*
X93575469Y-129871452D01*
X93589546Y-129869638D01*
X93725158Y-129828500D01*
X93755604Y-129641684D01*
X93356155Y-129242235D01*
X93266353Y-129332038D01*
X92880273Y-128945958D01*
X92970075Y-128856155D01*
X92570626Y-128456706D01*
X92383810Y-128487152D01*
X92344155Y-128633544D01*
X92121546Y-128856154D01*
X91500000Y-128234608D01*
X90878455Y-128856154D01*
X90659142Y-128636841D01*
X90657328Y-128622764D01*
X90616190Y-128487152D01*
X90429374Y-128456706D01*
X90029925Y-128856155D01*
X90119728Y-128945958D01*
X89733648Y-129332038D01*
X89643845Y-129242235D01*
X89244396Y-129641684D01*
X89274842Y-129828500D01*
X89421234Y-129868155D01*
X89643844Y-130090765D01*
X89394608Y-130340000D01*
X88160000Y-130340000D01*
X88160000Y-129105392D01*
X88409236Y-128856157D01*
X88628548Y-129075469D01*
X88630362Y-129089546D01*
X88671500Y-129225158D01*
X88858316Y-129255604D01*
X89257765Y-128856155D01*
X89167963Y-128766353D01*
X89554043Y-128380273D01*
X89643845Y-128470075D01*
X90043294Y-128070626D01*
X90012848Y-127883810D01*
X89866456Y-127844155D01*
X89643847Y-127621546D01*
X90265392Y-127000000D01*
X92734608Y-127000000D01*
X93356154Y-127621546D01*
X93136841Y-127840858D01*
X93122764Y-127842672D01*
X92987152Y-127883810D01*
X92956706Y-128070626D01*
X93356155Y-128470075D01*
X93445958Y-128380273D01*
X93832038Y-128766353D01*
X93742235Y-128856155D01*
X94141684Y-129255604D01*
X94328500Y-129225158D01*
X94368155Y-129078766D01*
X94590765Y-128856157D01*
X94874834Y-129140226D01*
X95299574Y-128681465D01*
X95554603Y-127907896D01*
X95653817Y-127099438D01*
X95639026Y-126900562D01*
X163846183Y-126900562D01*
X163906598Y-127712843D01*
X164124321Y-128497729D01*
X164200426Y-128681465D01*
X164625166Y-129140226D01*
X164909236Y-128856157D01*
X165128548Y-129075469D01*
X165130362Y-129089546D01*
X165171500Y-129225158D01*
X165358316Y-129255604D01*
X165757765Y-128856155D01*
X165667963Y-128766353D01*
X166054043Y-128380273D01*
X166143845Y-128470075D01*
X166543294Y-128070626D01*
X166512848Y-127883810D01*
X166366456Y-127844155D01*
X166143847Y-127621546D01*
X166765392Y-127000000D01*
X166143847Y-126378455D01*
X166363159Y-126159142D01*
X166377236Y-126157328D01*
X166512848Y-126116190D01*
X166543294Y-125929374D01*
X166143845Y-125529925D01*
X166054043Y-125619728D01*
X165667963Y-125233648D01*
X165757765Y-125143845D01*
X165358316Y-124744396D01*
X165171500Y-124774842D01*
X165131845Y-124921234D01*
X164909236Y-125143844D01*
X164625166Y-124859774D01*
X164200426Y-125318535D01*
X163945397Y-126092104D01*
X163846183Y-126900562D01*
X95639026Y-126900562D01*
X95593402Y-126287157D01*
X95375679Y-125502271D01*
X95299574Y-125318535D01*
X94874834Y-124859774D01*
X94590765Y-125143844D01*
X94371452Y-124924531D01*
X94369638Y-124910454D01*
X94328500Y-124774842D01*
X94141684Y-124744396D01*
X93742235Y-125143845D01*
X93832038Y-125233648D01*
X93445958Y-125619728D01*
X93356155Y-125529925D01*
X92956706Y-125929374D01*
X92987152Y-126116190D01*
X93133544Y-126155845D01*
X93356154Y-126378455D01*
X92734608Y-127000000D01*
X90265392Y-127000000D01*
X89643847Y-126378455D01*
X89863159Y-126159142D01*
X89877236Y-126157328D01*
X90012848Y-126116190D01*
X90043294Y-125929374D01*
X89643845Y-125529925D01*
X89554043Y-125619728D01*
X89167963Y-125233648D01*
X89257765Y-125143845D01*
X88858316Y-124744396D01*
X88671500Y-124774842D01*
X88631845Y-124921234D01*
X88409236Y-125143844D01*
X88160000Y-124894608D01*
X88160000Y-124358316D01*
X89244396Y-124358316D01*
X89643845Y-124757765D01*
X89733648Y-124667963D01*
X90119728Y-125054043D01*
X90029925Y-125143845D01*
X90429374Y-125543294D01*
X90616190Y-125512848D01*
X90655845Y-125366456D01*
X90878455Y-125143847D01*
X91500000Y-125765392D01*
X92121546Y-125143847D01*
X92340858Y-125363159D01*
X92342672Y-125377236D01*
X92383810Y-125512848D01*
X92570626Y-125543294D01*
X92970075Y-125143845D01*
X92880273Y-125054043D01*
X93266353Y-124667963D01*
X93356155Y-124757765D01*
X93755604Y-124358316D01*
X165744396Y-124358316D01*
X166143845Y-124757765D01*
X166233648Y-124667963D01*
X166619728Y-125054043D01*
X166529925Y-125143845D01*
X166929374Y-125543294D01*
X167116190Y-125512848D01*
X167155845Y-125366456D01*
X167378455Y-125143847D01*
X168000000Y-125765392D01*
X168621546Y-125143847D01*
X168840858Y-125363159D01*
X168842672Y-125377236D01*
X168883810Y-125512848D01*
X169070626Y-125543294D01*
X169470075Y-125143845D01*
X169380273Y-125054043D01*
X169766353Y-124667963D01*
X169856155Y-124757765D01*
X170255604Y-124358316D01*
X170225158Y-124171500D01*
X170078766Y-124131845D01*
X169856157Y-123909236D01*
X170140226Y-123625166D01*
X169681465Y-123200426D01*
X168907896Y-122945397D01*
X168099438Y-122846183D01*
X167287157Y-122906598D01*
X166502271Y-123124321D01*
X166318535Y-123200426D01*
X165859774Y-123625166D01*
X166143844Y-123909236D01*
X165924531Y-124128548D01*
X165910454Y-124130362D01*
X165774842Y-124171500D01*
X165744396Y-124358316D01*
X93755604Y-124358316D01*
X93725158Y-124171500D01*
X93578766Y-124131845D01*
X93356157Y-123909236D01*
X93640226Y-123625166D01*
X93181465Y-123200426D01*
X92407896Y-122945397D01*
X91599438Y-122846183D01*
X90787157Y-122906598D01*
X90002271Y-123124321D01*
X89818535Y-123200426D01*
X89359774Y-123625166D01*
X89643844Y-123909236D01*
X89424531Y-124128548D01*
X89410454Y-124130362D01*
X89274842Y-124171500D01*
X89244396Y-124358316D01*
X88160000Y-124358316D01*
X88160000Y-96000000D01*
X97873000Y-96000000D01*
X97873000Y-106000000D01*
X97875440Y-106024776D01*
X97882667Y-106048601D01*
X97894403Y-106070557D01*
X97910197Y-106089803D01*
X97929443Y-106105597D01*
X97951399Y-106117333D01*
X97975224Y-106124560D01*
X98000000Y-106127000D01*
X100179406Y-106127000D01*
X100017974Y-106429019D01*
X99895892Y-106831468D01*
X99865000Y-107145119D01*
X99865001Y-119104882D01*
X99895893Y-119418533D01*
X100017975Y-119820982D01*
X100216224Y-120191881D01*
X100461928Y-120491272D01*
X100461928Y-120550000D01*
X100478992Y-120723254D01*
X100529528Y-120889850D01*
X100611595Y-121043386D01*
X100722038Y-121177962D01*
X100856614Y-121288405D01*
X101010150Y-121370472D01*
X101176746Y-121421008D01*
X101350000Y-121438072D01*
X102650000Y-121438072D01*
X102823254Y-121421008D01*
X102989850Y-121370472D01*
X103143386Y-121288405D01*
X103277962Y-121177962D01*
X103388405Y-121043386D01*
X103470472Y-120889850D01*
X103521008Y-120723254D01*
X103538072Y-120550000D01*
X103538072Y-120491273D01*
X103783777Y-120191881D01*
X103825053Y-120114657D01*
X104282111Y-120114657D01*
X104353346Y-120408609D01*
X104480560Y-120683015D01*
X104658863Y-120927330D01*
X104839060Y-121088907D01*
X105037000Y-121038655D01*
X105037000Y-119873000D01*
X106583000Y-119873000D01*
X106583000Y-121038655D01*
X106780940Y-121088907D01*
X106961137Y-120927330D01*
X107139440Y-120683015D01*
X107266654Y-120408609D01*
X107337889Y-120114657D01*
X107193908Y-119873000D01*
X106583000Y-119873000D01*
X105037000Y-119873000D01*
X104426092Y-119873000D01*
X104282111Y-120114657D01*
X103825053Y-120114657D01*
X103982026Y-119820982D01*
X104104108Y-119418533D01*
X104135000Y-119104882D01*
X104135000Y-117885343D01*
X104282111Y-117885343D01*
X104426092Y-118127000D01*
X105037000Y-118127000D01*
X105037000Y-116961345D01*
X106583000Y-116961345D01*
X106583000Y-118127000D01*
X107193908Y-118127000D01*
X107337889Y-117885343D01*
X107266654Y-117591391D01*
X107139440Y-117316985D01*
X106961137Y-117072670D01*
X106780940Y-116911093D01*
X106583000Y-116961345D01*
X105037000Y-116961345D01*
X104839060Y-116911093D01*
X104658863Y-117072670D01*
X104480560Y-117316985D01*
X104353346Y-117591391D01*
X104282111Y-117885343D01*
X104135000Y-117885343D01*
X104135000Y-107145118D01*
X104104108Y-106831467D01*
X103982026Y-106429018D01*
X103820595Y-106127000D01*
X111179406Y-106127000D01*
X111017974Y-106429019D01*
X110895892Y-106831468D01*
X110865000Y-107145119D01*
X110865001Y-119104882D01*
X110895893Y-119418533D01*
X111017975Y-119820982D01*
X111216224Y-120191881D01*
X111461928Y-120491272D01*
X111461928Y-120550000D01*
X111478992Y-120723254D01*
X111529528Y-120889850D01*
X111611595Y-121043386D01*
X111722038Y-121177962D01*
X111856614Y-121288405D01*
X112010150Y-121370472D01*
X112176746Y-121421008D01*
X112350000Y-121438072D01*
X113650000Y-121438072D01*
X113823254Y-121421008D01*
X113989850Y-121370472D01*
X114143386Y-121288405D01*
X114277962Y-121177962D01*
X114388405Y-121043386D01*
X114470472Y-120889850D01*
X114521008Y-120723254D01*
X114538072Y-120550000D01*
X114538072Y-120491273D01*
X114783777Y-120191881D01*
X114825053Y-120114657D01*
X115282111Y-120114657D01*
X115353346Y-120408609D01*
X115480560Y-120683015D01*
X115658863Y-120927330D01*
X115839060Y-121088907D01*
X116037000Y-121038655D01*
X116037000Y-119873000D01*
X117583000Y-119873000D01*
X117583000Y-121038655D01*
X117780940Y-121088907D01*
X117961137Y-120927330D01*
X118139440Y-120683015D01*
X118266654Y-120408609D01*
X118337889Y-120114657D01*
X118193908Y-119873000D01*
X117583000Y-119873000D01*
X116037000Y-119873000D01*
X115426092Y-119873000D01*
X115282111Y-120114657D01*
X114825053Y-120114657D01*
X114982026Y-119820982D01*
X115104108Y-119418533D01*
X115135000Y-119104882D01*
X115135000Y-117885343D01*
X115282111Y-117885343D01*
X115426092Y-118127000D01*
X116037000Y-118127000D01*
X116037000Y-116961345D01*
X117583000Y-116961345D01*
X117583000Y-118127000D01*
X118193908Y-118127000D01*
X118337889Y-117885343D01*
X118266654Y-117591391D01*
X118139440Y-117316985D01*
X117961137Y-117072670D01*
X117780940Y-116911093D01*
X117583000Y-116961345D01*
X116037000Y-116961345D01*
X115839060Y-116911093D01*
X115658863Y-117072670D01*
X115480560Y-117316985D01*
X115353346Y-117591391D01*
X115282111Y-117885343D01*
X115135000Y-117885343D01*
X115135000Y-107145118D01*
X115104108Y-106831467D01*
X114982026Y-106429018D01*
X114820595Y-106127000D01*
X122179406Y-106127000D01*
X122017974Y-106429019D01*
X121895892Y-106831468D01*
X121865000Y-107145119D01*
X121865001Y-119104882D01*
X121895893Y-119418533D01*
X122017975Y-119820982D01*
X122216224Y-120191881D01*
X122461928Y-120491272D01*
X122461928Y-120550000D01*
X122478992Y-120723254D01*
X122529528Y-120889850D01*
X122611595Y-121043386D01*
X122722038Y-121177962D01*
X122856614Y-121288405D01*
X123010150Y-121370472D01*
X123176746Y-121421008D01*
X123350000Y-121438072D01*
X124650000Y-121438072D01*
X124823254Y-121421008D01*
X124989850Y-121370472D01*
X125143386Y-121288405D01*
X125277962Y-121177962D01*
X125388405Y-121043386D01*
X125470472Y-120889850D01*
X125521008Y-120723254D01*
X125538072Y-120550000D01*
X125538072Y-120491273D01*
X125783777Y-120191881D01*
X125825053Y-120114657D01*
X126282111Y-120114657D01*
X126353346Y-120408609D01*
X126480560Y-120683015D01*
X126658863Y-120927330D01*
X126839060Y-121088907D01*
X127037000Y-121038655D01*
X127037000Y-119873000D01*
X128583000Y-119873000D01*
X128583000Y-121038655D01*
X128780940Y-121088907D01*
X128961137Y-120927330D01*
X129139440Y-120683015D01*
X129266654Y-120408609D01*
X129337889Y-120114657D01*
X129193908Y-119873000D01*
X128583000Y-119873000D01*
X127037000Y-119873000D01*
X126426092Y-119873000D01*
X126282111Y-120114657D01*
X125825053Y-120114657D01*
X125982026Y-119820982D01*
X126104108Y-119418533D01*
X126135000Y-119104882D01*
X126135000Y-117885343D01*
X126282111Y-117885343D01*
X126426092Y-118127000D01*
X127037000Y-118127000D01*
X127037000Y-116961345D01*
X128583000Y-116961345D01*
X128583000Y-118127000D01*
X129193908Y-118127000D01*
X129337889Y-117885343D01*
X129266654Y-117591391D01*
X129139440Y-117316985D01*
X128961137Y-117072670D01*
X128780940Y-116911093D01*
X128583000Y-116961345D01*
X127037000Y-116961345D01*
X126839060Y-116911093D01*
X126658863Y-117072670D01*
X126480560Y-117316985D01*
X126353346Y-117591391D01*
X126282111Y-117885343D01*
X126135000Y-117885343D01*
X126135000Y-107145118D01*
X126104108Y-106831467D01*
X125982026Y-106429018D01*
X125820595Y-106127000D01*
X133179406Y-106127000D01*
X133017974Y-106429019D01*
X132895892Y-106831468D01*
X132865000Y-107145119D01*
X132865001Y-119104882D01*
X132895893Y-119418533D01*
X133017975Y-119820982D01*
X133216224Y-120191881D01*
X133461928Y-120491272D01*
X133461928Y-120550000D01*
X133478992Y-120723254D01*
X133529528Y-120889850D01*
X133611595Y-121043386D01*
X133722038Y-121177962D01*
X133856614Y-121288405D01*
X134010150Y-121370472D01*
X134176746Y-121421008D01*
X134350000Y-121438072D01*
X135650000Y-121438072D01*
X135823254Y-121421008D01*
X135989850Y-121370472D01*
X136143386Y-121288405D01*
X136277962Y-121177962D01*
X136388405Y-121043386D01*
X136470472Y-120889850D01*
X136521008Y-120723254D01*
X136538072Y-120550000D01*
X136538072Y-120491273D01*
X136783777Y-120191881D01*
X136825053Y-120114657D01*
X137282111Y-120114657D01*
X137353346Y-120408609D01*
X137480560Y-120683015D01*
X137658863Y-120927330D01*
X137839060Y-121088907D01*
X138037000Y-121038655D01*
X138037000Y-119873000D01*
X139583000Y-119873000D01*
X139583000Y-121038655D01*
X139780940Y-121088907D01*
X139961137Y-120927330D01*
X140139440Y-120683015D01*
X140266654Y-120408609D01*
X140337889Y-120114657D01*
X140193908Y-119873000D01*
X139583000Y-119873000D01*
X138037000Y-119873000D01*
X137426092Y-119873000D01*
X137282111Y-120114657D01*
X136825053Y-120114657D01*
X136982026Y-119820982D01*
X137104108Y-119418533D01*
X137135000Y-119104882D01*
X137135000Y-117885343D01*
X137282111Y-117885343D01*
X137426092Y-118127000D01*
X138037000Y-118127000D01*
X138037000Y-116961345D01*
X139583000Y-116961345D01*
X139583000Y-118127000D01*
X140193908Y-118127000D01*
X140337889Y-117885343D01*
X140266654Y-117591391D01*
X140139440Y-117316985D01*
X139961137Y-117072670D01*
X139780940Y-116911093D01*
X139583000Y-116961345D01*
X138037000Y-116961345D01*
X137839060Y-116911093D01*
X137658863Y-117072670D01*
X137480560Y-117316985D01*
X137353346Y-117591391D01*
X137282111Y-117885343D01*
X137135000Y-117885343D01*
X137135000Y-112465484D01*
X157569125Y-112465484D01*
X157836991Y-112735428D01*
X158346290Y-112835567D01*
X158865339Y-112834421D01*
X159363009Y-112735428D01*
X159630875Y-112465484D01*
X158600000Y-111434608D01*
X157569125Y-112465484D01*
X137135000Y-112465484D01*
X137135000Y-109946290D01*
X155964433Y-109946290D01*
X155965579Y-110465339D01*
X156064572Y-110963009D01*
X156334516Y-111230875D01*
X157365392Y-110200000D01*
X159834608Y-110200000D01*
X160865484Y-111230875D01*
X161135428Y-110963009D01*
X161235567Y-110453710D01*
X161234421Y-109934661D01*
X161135428Y-109436991D01*
X160865484Y-109169125D01*
X159834608Y-110200000D01*
X157365392Y-110200000D01*
X156334516Y-109169125D01*
X156064572Y-109436991D01*
X155964433Y-109946290D01*
X137135000Y-109946290D01*
X137135000Y-107934516D01*
X157569125Y-107934516D01*
X158600000Y-108965392D01*
X159630875Y-107934516D01*
X159363009Y-107664572D01*
X158853710Y-107564433D01*
X158334661Y-107565579D01*
X157836991Y-107664572D01*
X157569125Y-107934516D01*
X137135000Y-107934516D01*
X137135000Y-107145118D01*
X137104108Y-106831467D01*
X136982026Y-106429018D01*
X136820595Y-106127000D01*
X163500000Y-106127000D01*
X163524776Y-106124560D01*
X163548601Y-106117333D01*
X163570557Y-106105597D01*
X163589803Y-106089803D01*
X163605597Y-106070557D01*
X163617333Y-106048601D01*
X163624560Y-106024776D01*
X163627000Y-106000000D01*
X163627000Y-96000000D01*
X163624560Y-95975224D01*
X163617333Y-95951399D01*
X163605597Y-95929443D01*
X163589803Y-95910197D01*
X163570557Y-95894403D01*
X163548601Y-95882667D01*
X163524776Y-95875440D01*
X163500000Y-95873000D01*
X148845000Y-95873000D01*
X148845000Y-90754790D01*
X148938505Y-90692312D01*
X149004944Y-90625873D01*
X149010498Y-90644180D01*
X149069463Y-90754494D01*
X149148815Y-90851185D01*
X149245506Y-90930537D01*
X149355820Y-90989502D01*
X149475518Y-91025812D01*
X149600000Y-91038072D01*
X151400000Y-91038072D01*
X151524482Y-91025812D01*
X151644180Y-90989502D01*
X151754494Y-90930537D01*
X151851185Y-90851185D01*
X151930537Y-90754494D01*
X151989502Y-90644180D01*
X152025812Y-90524482D01*
X152038072Y-90400000D01*
X152038072Y-90385000D01*
X153365479Y-90385000D01*
X153385363Y-90414759D01*
X153585241Y-90614637D01*
X153820273Y-90771680D01*
X154081426Y-90879853D01*
X154358665Y-90935000D01*
X154641335Y-90935000D01*
X154918574Y-90879853D01*
X155179727Y-90771680D01*
X155414759Y-90614637D01*
X155614637Y-90414759D01*
X155771680Y-90179727D01*
X155810844Y-90085175D01*
X160809735Y-90085175D01*
X160905490Y-90264351D01*
X161077944Y-90486603D01*
X161290444Y-90670941D01*
X161534823Y-90810280D01*
X161747000Y-90726940D01*
X161747000Y-89873000D01*
X162493000Y-89873000D01*
X162493000Y-90726940D01*
X162705177Y-90810280D01*
X162949556Y-90670941D01*
X163162056Y-90486603D01*
X163334510Y-90264351D01*
X163430265Y-90085175D01*
X163340527Y-89873000D01*
X162493000Y-89873000D01*
X161747000Y-89873000D01*
X160899473Y-89873000D01*
X160809735Y-90085175D01*
X155810844Y-90085175D01*
X155879853Y-89918574D01*
X155935000Y-89641335D01*
X155935000Y-89358665D01*
X155879853Y-89081426D01*
X155810845Y-88914825D01*
X160809735Y-88914825D01*
X160899473Y-89127000D01*
X161747000Y-89127000D01*
X161747000Y-88273060D01*
X162493000Y-88273060D01*
X162493000Y-89127000D01*
X163340527Y-89127000D01*
X163430265Y-88914825D01*
X163334510Y-88735649D01*
X163162056Y-88513397D01*
X162949556Y-88329059D01*
X162705177Y-88189720D01*
X162493000Y-88273060D01*
X161747000Y-88273060D01*
X161534823Y-88189720D01*
X161290444Y-88329059D01*
X161077944Y-88513397D01*
X160905490Y-88735649D01*
X160809735Y-88914825D01*
X155810845Y-88914825D01*
X155771680Y-88820273D01*
X155614637Y-88585241D01*
X155414759Y-88385363D01*
X155179727Y-88228320D01*
X154918574Y-88120147D01*
X154641335Y-88065000D01*
X154358665Y-88065000D01*
X154081426Y-88120147D01*
X153820273Y-88228320D01*
X153585241Y-88385363D01*
X153385363Y-88585241D01*
X153365479Y-88615000D01*
X152038072Y-88615000D01*
X152038072Y-88600000D01*
X152025812Y-88475518D01*
X151989502Y-88355820D01*
X151930537Y-88245506D01*
X151851185Y-88148815D01*
X151754494Y-88069463D01*
X151644180Y-88010498D01*
X151524482Y-87974188D01*
X151400000Y-87961928D01*
X149600000Y-87961928D01*
X149475518Y-87974188D01*
X149355820Y-88010498D01*
X149245506Y-88069463D01*
X149148815Y-88148815D01*
X149069463Y-88245506D01*
X149010498Y-88355820D01*
X149004944Y-88374127D01*
X148938505Y-88307688D01*
X148687095Y-88139701D01*
X148407743Y-88023989D01*
X148111184Y-87965000D01*
X147808816Y-87965000D01*
X147512257Y-88023989D01*
X147232905Y-88139701D01*
X146981495Y-88307688D01*
X146767688Y-88521495D01*
X146599701Y-88772905D01*
X146483989Y-89052257D01*
X146425000Y-89348816D01*
X146425000Y-89651184D01*
X146483989Y-89947743D01*
X146599701Y-90227095D01*
X146767688Y-90478505D01*
X146981495Y-90692312D01*
X147075000Y-90754790D01*
X147075001Y-95873000D01*
X142320595Y-95873000D01*
X142482026Y-95570982D01*
X142604108Y-95168533D01*
X142635000Y-94854882D01*
X142635000Y-82895118D01*
X142604108Y-82581467D01*
X142482026Y-82179018D01*
X142283777Y-81808119D01*
X142038072Y-81508727D01*
X142038072Y-81450000D01*
X142021008Y-81276746D01*
X141970472Y-81110150D01*
X141888405Y-80956614D01*
X141777962Y-80822038D01*
X141643386Y-80711595D01*
X141489850Y-80629528D01*
X141323254Y-80578992D01*
X141150000Y-80561928D01*
X139850000Y-80561928D01*
X139676746Y-80578992D01*
X139510150Y-80629528D01*
X139356614Y-80711595D01*
X139222038Y-80822038D01*
X139111595Y-80956614D01*
X139029528Y-81110150D01*
X138978992Y-81276746D01*
X138961928Y-81450000D01*
X138961928Y-81508728D01*
X138716224Y-81808119D01*
X138517975Y-82179018D01*
X138395893Y-82581467D01*
X138365001Y-82895118D01*
X138365000Y-94854881D01*
X138395892Y-95168532D01*
X138517974Y-95570981D01*
X138679406Y-95873000D01*
X131320595Y-95873000D01*
X131482026Y-95570982D01*
X131604108Y-95168533D01*
X131635000Y-94854882D01*
X131635000Y-84114657D01*
X135162111Y-84114657D01*
X135233346Y-84408609D01*
X135360560Y-84683015D01*
X135538863Y-84927330D01*
X135719060Y-85088907D01*
X135917000Y-85038655D01*
X135917000Y-83873000D01*
X137463000Y-83873000D01*
X137463000Y-85038655D01*
X137660940Y-85088907D01*
X137841137Y-84927330D01*
X138019440Y-84683015D01*
X138146654Y-84408609D01*
X138217889Y-84114657D01*
X138073908Y-83873000D01*
X137463000Y-83873000D01*
X135917000Y-83873000D01*
X135306092Y-83873000D01*
X135162111Y-84114657D01*
X131635000Y-84114657D01*
X131635000Y-82895118D01*
X131604108Y-82581467D01*
X131482026Y-82179018D01*
X131325054Y-81885343D01*
X135162111Y-81885343D01*
X135306092Y-82127000D01*
X135917000Y-82127000D01*
X135917000Y-80961345D01*
X137463000Y-80961345D01*
X137463000Y-82127000D01*
X138073908Y-82127000D01*
X138217889Y-81885343D01*
X138146654Y-81591391D01*
X138019440Y-81316985D01*
X137841137Y-81072670D01*
X137660940Y-80911093D01*
X137463000Y-80961345D01*
X135917000Y-80961345D01*
X135719060Y-80911093D01*
X135538863Y-81072670D01*
X135360560Y-81316985D01*
X135233346Y-81591391D01*
X135162111Y-81885343D01*
X131325054Y-81885343D01*
X131283777Y-81808119D01*
X131038072Y-81508727D01*
X131038072Y-81450000D01*
X131021008Y-81276746D01*
X130970472Y-81110150D01*
X130888405Y-80956614D01*
X130777962Y-80822038D01*
X130643386Y-80711595D01*
X130489850Y-80629528D01*
X130323254Y-80578992D01*
X130150000Y-80561928D01*
X128850000Y-80561928D01*
X128676746Y-80578992D01*
X128510150Y-80629528D01*
X128356614Y-80711595D01*
X128222038Y-80822038D01*
X128111595Y-80956614D01*
X128029528Y-81110150D01*
X127978992Y-81276746D01*
X127961928Y-81450000D01*
X127961928Y-81508728D01*
X127716224Y-81808119D01*
X127517975Y-82179018D01*
X127395893Y-82581467D01*
X127365001Y-82895118D01*
X127365000Y-94854881D01*
X127395892Y-95168532D01*
X127517974Y-95570981D01*
X127679406Y-95873000D01*
X120320595Y-95873000D01*
X120482026Y-95570982D01*
X120604108Y-95168533D01*
X120635000Y-94854882D01*
X120635000Y-84114657D01*
X124162111Y-84114657D01*
X124233346Y-84408609D01*
X124360560Y-84683015D01*
X124538863Y-84927330D01*
X124719060Y-85088907D01*
X124917000Y-85038655D01*
X124917000Y-83873000D01*
X126463000Y-83873000D01*
X126463000Y-85038655D01*
X126660940Y-85088907D01*
X126841137Y-84927330D01*
X127019440Y-84683015D01*
X127146654Y-84408609D01*
X127217889Y-84114657D01*
X127073908Y-83873000D01*
X126463000Y-83873000D01*
X124917000Y-83873000D01*
X124306092Y-83873000D01*
X124162111Y-84114657D01*
X120635000Y-84114657D01*
X120635000Y-82895118D01*
X120604108Y-82581467D01*
X120482026Y-82179018D01*
X120325054Y-81885343D01*
X124162111Y-81885343D01*
X124306092Y-82127000D01*
X124917000Y-82127000D01*
X124917000Y-80961345D01*
X126463000Y-80961345D01*
X126463000Y-82127000D01*
X127073908Y-82127000D01*
X127217889Y-81885343D01*
X127146654Y-81591391D01*
X127019440Y-81316985D01*
X126841137Y-81072670D01*
X126660940Y-80911093D01*
X126463000Y-80961345D01*
X124917000Y-80961345D01*
X124719060Y-80911093D01*
X124538863Y-81072670D01*
X124360560Y-81316985D01*
X124233346Y-81591391D01*
X124162111Y-81885343D01*
X120325054Y-81885343D01*
X120283777Y-81808119D01*
X120038072Y-81508727D01*
X120038072Y-81450000D01*
X120021008Y-81276746D01*
X119970472Y-81110150D01*
X119888405Y-80956614D01*
X119777962Y-80822038D01*
X119643386Y-80711595D01*
X119489850Y-80629528D01*
X119323254Y-80578992D01*
X119150000Y-80561928D01*
X117850000Y-80561928D01*
X117676746Y-80578992D01*
X117510150Y-80629528D01*
X117356614Y-80711595D01*
X117222038Y-80822038D01*
X117111595Y-80956614D01*
X117029528Y-81110150D01*
X116978992Y-81276746D01*
X116961928Y-81450000D01*
X116961928Y-81508728D01*
X116716224Y-81808119D01*
X116517975Y-82179018D01*
X116395893Y-82581467D01*
X116365001Y-82895118D01*
X116365000Y-94854881D01*
X116395892Y-95168532D01*
X116517974Y-95570981D01*
X116679406Y-95873000D01*
X109320595Y-95873000D01*
X109482026Y-95570982D01*
X109604108Y-95168533D01*
X109635000Y-94854882D01*
X109635000Y-84114657D01*
X113162111Y-84114657D01*
X113233346Y-84408609D01*
X113360560Y-84683015D01*
X113538863Y-84927330D01*
X113719060Y-85088907D01*
X113917000Y-85038655D01*
X113917000Y-83873000D01*
X115463000Y-83873000D01*
X115463000Y-85038655D01*
X115660940Y-85088907D01*
X115841137Y-84927330D01*
X116019440Y-84683015D01*
X116146654Y-84408609D01*
X116217889Y-84114657D01*
X116073908Y-83873000D01*
X115463000Y-83873000D01*
X113917000Y-83873000D01*
X113306092Y-83873000D01*
X113162111Y-84114657D01*
X109635000Y-84114657D01*
X109635000Y-82895118D01*
X109604108Y-82581467D01*
X109482026Y-82179018D01*
X109325054Y-81885343D01*
X113162111Y-81885343D01*
X113306092Y-82127000D01*
X113917000Y-82127000D01*
X113917000Y-80961345D01*
X115463000Y-80961345D01*
X115463000Y-82127000D01*
X116073908Y-82127000D01*
X116217889Y-81885343D01*
X116146654Y-81591391D01*
X116019440Y-81316985D01*
X115841137Y-81072670D01*
X115660940Y-80911093D01*
X115463000Y-80961345D01*
X113917000Y-80961345D01*
X113719060Y-80911093D01*
X113538863Y-81072670D01*
X113360560Y-81316985D01*
X113233346Y-81591391D01*
X113162111Y-81885343D01*
X109325054Y-81885343D01*
X109283777Y-81808119D01*
X109038072Y-81508727D01*
X109038072Y-81450000D01*
X109021008Y-81276746D01*
X108970472Y-81110150D01*
X108888405Y-80956614D01*
X108777962Y-80822038D01*
X108643386Y-80711595D01*
X108489850Y-80629528D01*
X108323254Y-80578992D01*
X108150000Y-80561928D01*
X106850000Y-80561928D01*
X106676746Y-80578992D01*
X106510150Y-80629528D01*
X106356614Y-80711595D01*
X106222038Y-80822038D01*
X106111595Y-80956614D01*
X106029528Y-81110150D01*
X105978992Y-81276746D01*
X105961928Y-81450000D01*
X105961928Y-81508728D01*
X105716224Y-81808119D01*
X105517975Y-82179018D01*
X105395893Y-82581467D01*
X105365001Y-82895118D01*
X105365000Y-94854881D01*
X105395892Y-95168532D01*
X105517974Y-95570981D01*
X105679406Y-95873000D01*
X98000000Y-95873000D01*
X97975224Y-95875440D01*
X97951399Y-95882667D01*
X97929443Y-95894403D01*
X97910197Y-95910197D01*
X97894403Y-95929443D01*
X97882667Y-95951399D01*
X97875440Y-95975224D01*
X97873000Y-96000000D01*
X88160000Y-96000000D01*
X88160000Y-84114657D01*
X102162111Y-84114657D01*
X102233346Y-84408609D01*
X102360560Y-84683015D01*
X102538863Y-84927330D01*
X102719060Y-85088907D01*
X102917000Y-85038655D01*
X102917000Y-83873000D01*
X104463000Y-83873000D01*
X104463000Y-85038655D01*
X104660940Y-85088907D01*
X104841137Y-84927330D01*
X105019440Y-84683015D01*
X105146654Y-84408609D01*
X105217889Y-84114657D01*
X105073908Y-83873000D01*
X104463000Y-83873000D01*
X102917000Y-83873000D01*
X102306092Y-83873000D01*
X102162111Y-84114657D01*
X88160000Y-84114657D01*
X88160000Y-81885343D01*
X102162111Y-81885343D01*
X102306092Y-82127000D01*
X102917000Y-82127000D01*
X102917000Y-80961345D01*
X104463000Y-80961345D01*
X104463000Y-82127000D01*
X105073908Y-82127000D01*
X105217889Y-81885343D01*
X105146654Y-81591391D01*
X105019440Y-81316985D01*
X104841137Y-81072670D01*
X104660940Y-80911093D01*
X104463000Y-80961345D01*
X102917000Y-80961345D01*
X102719060Y-80911093D01*
X102538863Y-81072670D01*
X102360560Y-81316985D01*
X102233346Y-81591391D01*
X102162111Y-81885343D01*
X88160000Y-81885343D01*
X88160000Y-78641684D01*
X89244396Y-78641684D01*
X89274842Y-78828500D01*
X89421234Y-78868155D01*
X89643844Y-79090765D01*
X89359774Y-79374834D01*
X89818535Y-79799574D01*
X90592104Y-80054603D01*
X91400562Y-80153817D01*
X92212843Y-80093402D01*
X92997729Y-79875679D01*
X93181465Y-79799574D01*
X93640226Y-79374834D01*
X93356157Y-79090765D01*
X93575469Y-78871452D01*
X93589546Y-78869638D01*
X93725158Y-78828500D01*
X93755604Y-78641684D01*
X165744396Y-78641684D01*
X165774842Y-78828500D01*
X165921234Y-78868155D01*
X166143844Y-79090765D01*
X165859774Y-79374834D01*
X166318535Y-79799574D01*
X167092104Y-80054603D01*
X167900562Y-80153817D01*
X168712843Y-80093402D01*
X169497729Y-79875679D01*
X169681465Y-79799574D01*
X170140226Y-79374834D01*
X169856157Y-79090765D01*
X170075469Y-78871452D01*
X170089546Y-78869638D01*
X170225158Y-78828500D01*
X170255604Y-78641684D01*
X169856155Y-78242235D01*
X169766353Y-78332038D01*
X169380273Y-77945958D01*
X169470075Y-77856155D01*
X169070626Y-77456706D01*
X168883810Y-77487152D01*
X168844155Y-77633544D01*
X168621546Y-77856154D01*
X168000000Y-77234608D01*
X167378455Y-77856154D01*
X167159142Y-77636841D01*
X167157328Y-77622764D01*
X167116190Y-77487152D01*
X166929374Y-77456706D01*
X166529925Y-77856155D01*
X166619728Y-77945958D01*
X166233648Y-78332038D01*
X166143845Y-78242235D01*
X165744396Y-78641684D01*
X93755604Y-78641684D01*
X93356155Y-78242235D01*
X93266353Y-78332038D01*
X92880273Y-77945958D01*
X92970075Y-77856155D01*
X92570626Y-77456706D01*
X92383810Y-77487152D01*
X92344155Y-77633544D01*
X92121546Y-77856154D01*
X91500000Y-77234608D01*
X90878455Y-77856154D01*
X90659142Y-77636841D01*
X90657328Y-77622764D01*
X90616190Y-77487152D01*
X90429374Y-77456706D01*
X90029925Y-77856155D01*
X90119728Y-77945958D01*
X89733648Y-78332038D01*
X89643845Y-78242235D01*
X89244396Y-78641684D01*
X88160000Y-78641684D01*
X88160000Y-78105392D01*
X88409236Y-77856157D01*
X88628548Y-78075469D01*
X88630362Y-78089546D01*
X88671500Y-78225158D01*
X88858316Y-78255604D01*
X89257765Y-77856155D01*
X89167963Y-77766353D01*
X89554043Y-77380273D01*
X89643845Y-77470075D01*
X90043294Y-77070626D01*
X90012848Y-76883810D01*
X89866456Y-76844155D01*
X89643847Y-76621546D01*
X90265392Y-76000000D01*
X92734608Y-76000000D01*
X93356154Y-76621546D01*
X93136841Y-76840858D01*
X93122764Y-76842672D01*
X92987152Y-76883810D01*
X92956706Y-77070626D01*
X93356155Y-77470075D01*
X93445958Y-77380273D01*
X93832038Y-77766353D01*
X93742235Y-77856155D01*
X94141684Y-78255604D01*
X94328500Y-78225158D01*
X94368155Y-78078766D01*
X94590765Y-77856157D01*
X94874834Y-78140226D01*
X95299574Y-77681465D01*
X95554603Y-76907896D01*
X95653817Y-76099438D01*
X95639026Y-75900562D01*
X163846183Y-75900562D01*
X163906598Y-76712843D01*
X164124321Y-77497729D01*
X164200426Y-77681465D01*
X164625166Y-78140226D01*
X164909236Y-77856157D01*
X165128548Y-78075469D01*
X165130362Y-78089546D01*
X165171500Y-78225158D01*
X165358316Y-78255604D01*
X165757765Y-77856155D01*
X165667963Y-77766353D01*
X166054043Y-77380273D01*
X166143845Y-77470075D01*
X166543294Y-77070626D01*
X166512848Y-76883810D01*
X166366456Y-76844155D01*
X166143847Y-76621546D01*
X166765392Y-76000000D01*
X166143847Y-75378455D01*
X166363159Y-75159142D01*
X166377236Y-75157328D01*
X166512848Y-75116190D01*
X166543294Y-74929374D01*
X166143845Y-74529925D01*
X166054043Y-74619728D01*
X165667963Y-74233648D01*
X165757765Y-74143845D01*
X165358316Y-73744396D01*
X165171500Y-73774842D01*
X165131845Y-73921234D01*
X164909236Y-74143844D01*
X164625166Y-73859774D01*
X164200426Y-74318535D01*
X163945397Y-75092104D01*
X163846183Y-75900562D01*
X95639026Y-75900562D01*
X95593402Y-75287157D01*
X95375679Y-74502271D01*
X95299574Y-74318535D01*
X94874834Y-73859774D01*
X94590765Y-74143844D01*
X94371452Y-73924531D01*
X94369638Y-73910454D01*
X94328500Y-73774842D01*
X94141684Y-73744396D01*
X93742235Y-74143845D01*
X93832038Y-74233648D01*
X93445958Y-74619728D01*
X93356155Y-74529925D01*
X92956706Y-74929374D01*
X92987152Y-75116190D01*
X93133544Y-75155845D01*
X93356154Y-75378455D01*
X92734608Y-76000000D01*
X90265392Y-76000000D01*
X89643847Y-75378455D01*
X89863159Y-75159142D01*
X89877236Y-75157328D01*
X90012848Y-75116190D01*
X90043294Y-74929374D01*
X89643845Y-74529925D01*
X89554043Y-74619728D01*
X89167963Y-74233648D01*
X89257765Y-74143845D01*
X88858316Y-73744396D01*
X88671500Y-73774842D01*
X88631845Y-73921234D01*
X88409236Y-74143844D01*
X88160000Y-73894608D01*
X88160000Y-72660000D01*
X89394608Y-72660000D01*
X89643844Y-72909236D01*
%TA.AperFunction,Conductor*%
D23*
G36*
X89643844Y-72909236D02*
G01*
X89424531Y-73128548D01*
X89410454Y-73130362D01*
X89274842Y-73171500D01*
X89244396Y-73358316D01*
X89643845Y-73757765D01*
X89733648Y-73667963D01*
X90119728Y-74054043D01*
X90029925Y-74143845D01*
X90429374Y-74543294D01*
X90616190Y-74512848D01*
X90655845Y-74366456D01*
X90878455Y-74143847D01*
X91500000Y-74765392D01*
X92121546Y-74143847D01*
X92340858Y-74363159D01*
X92342672Y-74377236D01*
X92383810Y-74512848D01*
X92570626Y-74543294D01*
X92970075Y-74143845D01*
X92880273Y-74054043D01*
X93266353Y-73667963D01*
X93356155Y-73757765D01*
X93755604Y-73358316D01*
X93725158Y-73171500D01*
X93578766Y-73131845D01*
X93356157Y-72909236D01*
X93605392Y-72660000D01*
X165894608Y-72660000D01*
X166143844Y-72909236D01*
X165924531Y-73128548D01*
X165910454Y-73130362D01*
X165774842Y-73171500D01*
X165744396Y-73358316D01*
X166143845Y-73757765D01*
X166233648Y-73667963D01*
X166619728Y-74054043D01*
X166529925Y-74143845D01*
X166929374Y-74543294D01*
X167116190Y-74512848D01*
X167155845Y-74366456D01*
X167378455Y-74143847D01*
X168000000Y-74765392D01*
X168621546Y-74143847D01*
X168840858Y-74363159D01*
X168842672Y-74377236D01*
X168883810Y-74512848D01*
X169070626Y-74543294D01*
X169470075Y-74143845D01*
X169380273Y-74054043D01*
X169766353Y-73667963D01*
X169856155Y-73757765D01*
X170255604Y-73358316D01*
X170225158Y-73171500D01*
X170078766Y-73131845D01*
X169856157Y-72909236D01*
X170105392Y-72660000D01*
X171340000Y-72660000D01*
X171340000Y-73894608D01*
X171090765Y-74143844D01*
X170871452Y-73924531D01*
X170869638Y-73910454D01*
X170828500Y-73774842D01*
X170641684Y-73744396D01*
X170242235Y-74143845D01*
X170332038Y-74233648D01*
X169945958Y-74619728D01*
X169856155Y-74529925D01*
X169456706Y-74929374D01*
X169487152Y-75116190D01*
X169633544Y-75155845D01*
X169856154Y-75378455D01*
X169234608Y-76000000D01*
X169856154Y-76621546D01*
X169636841Y-76840858D01*
X169622764Y-76842672D01*
X169487152Y-76883810D01*
X169456706Y-77070626D01*
X169856155Y-77470075D01*
X169945958Y-77380273D01*
X170332038Y-77766353D01*
X170242235Y-77856155D01*
X170641684Y-78255604D01*
X170828500Y-78225158D01*
X170868155Y-78078766D01*
X171090765Y-77856157D01*
X171340000Y-78105392D01*
X171340001Y-124894607D01*
X171090765Y-125143844D01*
X170871452Y-124924531D01*
X170869638Y-124910454D01*
X170828500Y-124774842D01*
X170641684Y-124744396D01*
X170242235Y-125143845D01*
X170332038Y-125233648D01*
X169945958Y-125619728D01*
X169856155Y-125529925D01*
X169456706Y-125929374D01*
X169487152Y-126116190D01*
X169633544Y-126155845D01*
X169856154Y-126378455D01*
X169234608Y-127000000D01*
X169856154Y-127621546D01*
X169636841Y-127840858D01*
X169622764Y-127842672D01*
X169487152Y-127883810D01*
X169456706Y-128070626D01*
X169856155Y-128470075D01*
X169945958Y-128380273D01*
X170332038Y-128766353D01*
X170242235Y-128856155D01*
X170641684Y-129255604D01*
X170828500Y-129225158D01*
X170868155Y-129078766D01*
X171090765Y-128856157D01*
X171340001Y-129105393D01*
X171340001Y-130340000D01*
X170105392Y-130340000D01*
X169856157Y-130090765D01*
X170075469Y-129871452D01*
X170089546Y-129869638D01*
X170225158Y-129828500D01*
X170255604Y-129641684D01*
X169856155Y-129242235D01*
X169766353Y-129332038D01*
X169380273Y-128945958D01*
X169470075Y-128856155D01*
X169070626Y-128456706D01*
X168883810Y-128487152D01*
X168844155Y-128633544D01*
X168621546Y-128856154D01*
X168000000Y-128234608D01*
X167378455Y-128856154D01*
X167159142Y-128636841D01*
X167157328Y-128622764D01*
X167116190Y-128487152D01*
X166929374Y-128456706D01*
X166529925Y-128856155D01*
X166619728Y-128945958D01*
X166233648Y-129332038D01*
X166143845Y-129242235D01*
X165744396Y-129641684D01*
X165774842Y-129828500D01*
X165921234Y-129868155D01*
X166143844Y-130090765D01*
X165894608Y-130340000D01*
X93605392Y-130340000D01*
X93356157Y-130090765D01*
X93575469Y-129871452D01*
X93589546Y-129869638D01*
X93725158Y-129828500D01*
X93755604Y-129641684D01*
X93356155Y-129242235D01*
X93266353Y-129332038D01*
X92880273Y-128945958D01*
X92970075Y-128856155D01*
X92570626Y-128456706D01*
X92383810Y-128487152D01*
X92344155Y-128633544D01*
X92121546Y-128856154D01*
X91500000Y-128234608D01*
X90878455Y-128856154D01*
X90659142Y-128636841D01*
X90657328Y-128622764D01*
X90616190Y-128487152D01*
X90429374Y-128456706D01*
X90029925Y-128856155D01*
X90119728Y-128945958D01*
X89733648Y-129332038D01*
X89643845Y-129242235D01*
X89244396Y-129641684D01*
X89274842Y-129828500D01*
X89421234Y-129868155D01*
X89643844Y-130090765D01*
X89394608Y-130340000D01*
X88160000Y-130340000D01*
X88160000Y-129105392D01*
X88409236Y-128856157D01*
X88628548Y-129075469D01*
X88630362Y-129089546D01*
X88671500Y-129225158D01*
X88858316Y-129255604D01*
X89257765Y-128856155D01*
X89167963Y-128766353D01*
X89554043Y-128380273D01*
X89643845Y-128470075D01*
X90043294Y-128070626D01*
X90012848Y-127883810D01*
X89866456Y-127844155D01*
X89643847Y-127621546D01*
X90265392Y-127000000D01*
X92734608Y-127000000D01*
X93356154Y-127621546D01*
X93136841Y-127840858D01*
X93122764Y-127842672D01*
X92987152Y-127883810D01*
X92956706Y-128070626D01*
X93356155Y-128470075D01*
X93445958Y-128380273D01*
X93832038Y-128766353D01*
X93742235Y-128856155D01*
X94141684Y-129255604D01*
X94328500Y-129225158D01*
X94368155Y-129078766D01*
X94590765Y-128856157D01*
X94874834Y-129140226D01*
X95299574Y-128681465D01*
X95554603Y-127907896D01*
X95653817Y-127099438D01*
X95639026Y-126900562D01*
X163846183Y-126900562D01*
X163906598Y-127712843D01*
X164124321Y-128497729D01*
X164200426Y-128681465D01*
X164625166Y-129140226D01*
X164909236Y-128856157D01*
X165128548Y-129075469D01*
X165130362Y-129089546D01*
X165171500Y-129225158D01*
X165358316Y-129255604D01*
X165757765Y-128856155D01*
X165667963Y-128766353D01*
X166054043Y-128380273D01*
X166143845Y-128470075D01*
X166543294Y-128070626D01*
X166512848Y-127883810D01*
X166366456Y-127844155D01*
X166143847Y-127621546D01*
X166765392Y-127000000D01*
X166143847Y-126378455D01*
X166363159Y-126159142D01*
X166377236Y-126157328D01*
X166512848Y-126116190D01*
X166543294Y-125929374D01*
X166143845Y-125529925D01*
X166054043Y-125619728D01*
X165667963Y-125233648D01*
X165757765Y-125143845D01*
X165358316Y-124744396D01*
X165171500Y-124774842D01*
X165131845Y-124921234D01*
X164909236Y-125143844D01*
X164625166Y-124859774D01*
X164200426Y-125318535D01*
X163945397Y-126092104D01*
X163846183Y-126900562D01*
X95639026Y-126900562D01*
X95593402Y-126287157D01*
X95375679Y-125502271D01*
X95299574Y-125318535D01*
X94874834Y-124859774D01*
X94590765Y-125143844D01*
X94371452Y-124924531D01*
X94369638Y-124910454D01*
X94328500Y-124774842D01*
X94141684Y-124744396D01*
X93742235Y-125143845D01*
X93832038Y-125233648D01*
X93445958Y-125619728D01*
X93356155Y-125529925D01*
X92956706Y-125929374D01*
X92987152Y-126116190D01*
X93133544Y-126155845D01*
X93356154Y-126378455D01*
X92734608Y-127000000D01*
X90265392Y-127000000D01*
X89643847Y-126378455D01*
X89863159Y-126159142D01*
X89877236Y-126157328D01*
X90012848Y-126116190D01*
X90043294Y-125929374D01*
X89643845Y-125529925D01*
X89554043Y-125619728D01*
X89167963Y-125233648D01*
X89257765Y-125143845D01*
X88858316Y-124744396D01*
X88671500Y-124774842D01*
X88631845Y-124921234D01*
X88409236Y-125143844D01*
X88160000Y-124894608D01*
X88160000Y-124358316D01*
X89244396Y-124358316D01*
X89643845Y-124757765D01*
X89733648Y-124667963D01*
X90119728Y-125054043D01*
X90029925Y-125143845D01*
X90429374Y-125543294D01*
X90616190Y-125512848D01*
X90655845Y-125366456D01*
X90878455Y-125143847D01*
X91500000Y-125765392D01*
X92121546Y-125143847D01*
X92340858Y-125363159D01*
X92342672Y-125377236D01*
X92383810Y-125512848D01*
X92570626Y-125543294D01*
X92970075Y-125143845D01*
X92880273Y-125054043D01*
X93266353Y-124667963D01*
X93356155Y-124757765D01*
X93755604Y-124358316D01*
X165744396Y-124358316D01*
X166143845Y-124757765D01*
X166233648Y-124667963D01*
X166619728Y-125054043D01*
X166529925Y-125143845D01*
X166929374Y-125543294D01*
X167116190Y-125512848D01*
X167155845Y-125366456D01*
X167378455Y-125143847D01*
X168000000Y-125765392D01*
X168621546Y-125143847D01*
X168840858Y-125363159D01*
X168842672Y-125377236D01*
X168883810Y-125512848D01*
X169070626Y-125543294D01*
X169470075Y-125143845D01*
X169380273Y-125054043D01*
X169766353Y-124667963D01*
X169856155Y-124757765D01*
X170255604Y-124358316D01*
X170225158Y-124171500D01*
X170078766Y-124131845D01*
X169856157Y-123909236D01*
X170140226Y-123625166D01*
X169681465Y-123200426D01*
X168907896Y-122945397D01*
X168099438Y-122846183D01*
X167287157Y-122906598D01*
X166502271Y-123124321D01*
X166318535Y-123200426D01*
X165859774Y-123625166D01*
X166143844Y-123909236D01*
X165924531Y-124128548D01*
X165910454Y-124130362D01*
X165774842Y-124171500D01*
X165744396Y-124358316D01*
X93755604Y-124358316D01*
X93725158Y-124171500D01*
X93578766Y-124131845D01*
X93356157Y-123909236D01*
X93640226Y-123625166D01*
X93181465Y-123200426D01*
X92407896Y-122945397D01*
X91599438Y-122846183D01*
X90787157Y-122906598D01*
X90002271Y-123124321D01*
X89818535Y-123200426D01*
X89359774Y-123625166D01*
X89643844Y-123909236D01*
X89424531Y-124128548D01*
X89410454Y-124130362D01*
X89274842Y-124171500D01*
X89244396Y-124358316D01*
X88160000Y-124358316D01*
X88160000Y-96000000D01*
X97873000Y-96000000D01*
X97873000Y-106000000D01*
X97875440Y-106024776D01*
X97882667Y-106048601D01*
X97894403Y-106070557D01*
X97910197Y-106089803D01*
X97929443Y-106105597D01*
X97951399Y-106117333D01*
X97975224Y-106124560D01*
X98000000Y-106127000D01*
X100179406Y-106127000D01*
X100017974Y-106429019D01*
X99895892Y-106831468D01*
X99865000Y-107145119D01*
X99865001Y-119104882D01*
X99895893Y-119418533D01*
X100017975Y-119820982D01*
X100216224Y-120191881D01*
X100461928Y-120491272D01*
X100461928Y-120550000D01*
X100478992Y-120723254D01*
X100529528Y-120889850D01*
X100611595Y-121043386D01*
X100722038Y-121177962D01*
X100856614Y-121288405D01*
X101010150Y-121370472D01*
X101176746Y-121421008D01*
X101350000Y-121438072D01*
X102650000Y-121438072D01*
X102823254Y-121421008D01*
X102989850Y-121370472D01*
X103143386Y-121288405D01*
X103277962Y-121177962D01*
X103388405Y-121043386D01*
X103470472Y-120889850D01*
X103521008Y-120723254D01*
X103538072Y-120550000D01*
X103538072Y-120491273D01*
X103783777Y-120191881D01*
X103825053Y-120114657D01*
X104282111Y-120114657D01*
X104353346Y-120408609D01*
X104480560Y-120683015D01*
X104658863Y-120927330D01*
X104839060Y-121088907D01*
X105037000Y-121038655D01*
X105037000Y-119873000D01*
X106583000Y-119873000D01*
X106583000Y-121038655D01*
X106780940Y-121088907D01*
X106961137Y-120927330D01*
X107139440Y-120683015D01*
X107266654Y-120408609D01*
X107337889Y-120114657D01*
X107193908Y-119873000D01*
X106583000Y-119873000D01*
X105037000Y-119873000D01*
X104426092Y-119873000D01*
X104282111Y-120114657D01*
X103825053Y-120114657D01*
X103982026Y-119820982D01*
X104104108Y-119418533D01*
X104135000Y-119104882D01*
X104135000Y-117885343D01*
X104282111Y-117885343D01*
X104426092Y-118127000D01*
X105037000Y-118127000D01*
X105037000Y-116961345D01*
X106583000Y-116961345D01*
X106583000Y-118127000D01*
X107193908Y-118127000D01*
X107337889Y-117885343D01*
X107266654Y-117591391D01*
X107139440Y-117316985D01*
X106961137Y-117072670D01*
X106780940Y-116911093D01*
X106583000Y-116961345D01*
X105037000Y-116961345D01*
X104839060Y-116911093D01*
X104658863Y-117072670D01*
X104480560Y-117316985D01*
X104353346Y-117591391D01*
X104282111Y-117885343D01*
X104135000Y-117885343D01*
X104135000Y-107145118D01*
X104104108Y-106831467D01*
X103982026Y-106429018D01*
X103820595Y-106127000D01*
X111179406Y-106127000D01*
X111017974Y-106429019D01*
X110895892Y-106831468D01*
X110865000Y-107145119D01*
X110865001Y-119104882D01*
X110895893Y-119418533D01*
X111017975Y-119820982D01*
X111216224Y-120191881D01*
X111461928Y-120491272D01*
X111461928Y-120550000D01*
X111478992Y-120723254D01*
X111529528Y-120889850D01*
X111611595Y-121043386D01*
X111722038Y-121177962D01*
X111856614Y-121288405D01*
X112010150Y-121370472D01*
X112176746Y-121421008D01*
X112350000Y-121438072D01*
X113650000Y-121438072D01*
X113823254Y-121421008D01*
X113989850Y-121370472D01*
X114143386Y-121288405D01*
X114277962Y-121177962D01*
X114388405Y-121043386D01*
X114470472Y-120889850D01*
X114521008Y-120723254D01*
X114538072Y-120550000D01*
X114538072Y-120491273D01*
X114783777Y-120191881D01*
X114825053Y-120114657D01*
X115282111Y-120114657D01*
X115353346Y-120408609D01*
X115480560Y-120683015D01*
X115658863Y-120927330D01*
X115839060Y-121088907D01*
X116037000Y-121038655D01*
X116037000Y-119873000D01*
X117583000Y-119873000D01*
X117583000Y-121038655D01*
X117780940Y-121088907D01*
X117961137Y-120927330D01*
X118139440Y-120683015D01*
X118266654Y-120408609D01*
X118337889Y-120114657D01*
X118193908Y-119873000D01*
X117583000Y-119873000D01*
X116037000Y-119873000D01*
X115426092Y-119873000D01*
X115282111Y-120114657D01*
X114825053Y-120114657D01*
X114982026Y-119820982D01*
X115104108Y-119418533D01*
X115135000Y-119104882D01*
X115135000Y-117885343D01*
X115282111Y-117885343D01*
X115426092Y-118127000D01*
X116037000Y-118127000D01*
X116037000Y-116961345D01*
X117583000Y-116961345D01*
X117583000Y-118127000D01*
X118193908Y-118127000D01*
X118337889Y-117885343D01*
X118266654Y-117591391D01*
X118139440Y-117316985D01*
X117961137Y-117072670D01*
X117780940Y-116911093D01*
X117583000Y-116961345D01*
X116037000Y-116961345D01*
X115839060Y-116911093D01*
X115658863Y-117072670D01*
X115480560Y-117316985D01*
X115353346Y-117591391D01*
X115282111Y-117885343D01*
X115135000Y-117885343D01*
X115135000Y-107145118D01*
X115104108Y-106831467D01*
X114982026Y-106429018D01*
X114820595Y-106127000D01*
X122179406Y-106127000D01*
X122017974Y-106429019D01*
X121895892Y-106831468D01*
X121865000Y-107145119D01*
X121865001Y-119104882D01*
X121895893Y-119418533D01*
X122017975Y-119820982D01*
X122216224Y-120191881D01*
X122461928Y-120491272D01*
X122461928Y-120550000D01*
X122478992Y-120723254D01*
X122529528Y-120889850D01*
X122611595Y-121043386D01*
X122722038Y-121177962D01*
X122856614Y-121288405D01*
X123010150Y-121370472D01*
X123176746Y-121421008D01*
X123350000Y-121438072D01*
X124650000Y-121438072D01*
X124823254Y-121421008D01*
X124989850Y-121370472D01*
X125143386Y-121288405D01*
X125277962Y-121177962D01*
X125388405Y-121043386D01*
X125470472Y-120889850D01*
X125521008Y-120723254D01*
X125538072Y-120550000D01*
X125538072Y-120491273D01*
X125783777Y-120191881D01*
X125825053Y-120114657D01*
X126282111Y-120114657D01*
X126353346Y-120408609D01*
X126480560Y-120683015D01*
X126658863Y-120927330D01*
X126839060Y-121088907D01*
X127037000Y-121038655D01*
X127037000Y-119873000D01*
X128583000Y-119873000D01*
X128583000Y-121038655D01*
X128780940Y-121088907D01*
X128961137Y-120927330D01*
X129139440Y-120683015D01*
X129266654Y-120408609D01*
X129337889Y-120114657D01*
X129193908Y-119873000D01*
X128583000Y-119873000D01*
X127037000Y-119873000D01*
X126426092Y-119873000D01*
X126282111Y-120114657D01*
X125825053Y-120114657D01*
X125982026Y-119820982D01*
X126104108Y-119418533D01*
X126135000Y-119104882D01*
X126135000Y-117885343D01*
X126282111Y-117885343D01*
X126426092Y-118127000D01*
X127037000Y-118127000D01*
X127037000Y-116961345D01*
X128583000Y-116961345D01*
X128583000Y-118127000D01*
X129193908Y-118127000D01*
X129337889Y-117885343D01*
X129266654Y-117591391D01*
X129139440Y-117316985D01*
X128961137Y-117072670D01*
X128780940Y-116911093D01*
X128583000Y-116961345D01*
X127037000Y-116961345D01*
X126839060Y-116911093D01*
X126658863Y-117072670D01*
X126480560Y-117316985D01*
X126353346Y-117591391D01*
X126282111Y-117885343D01*
X126135000Y-117885343D01*
X126135000Y-107145118D01*
X126104108Y-106831467D01*
X125982026Y-106429018D01*
X125820595Y-106127000D01*
X133179406Y-106127000D01*
X133017974Y-106429019D01*
X132895892Y-106831468D01*
X132865000Y-107145119D01*
X132865001Y-119104882D01*
X132895893Y-119418533D01*
X133017975Y-119820982D01*
X133216224Y-120191881D01*
X133461928Y-120491272D01*
X133461928Y-120550000D01*
X133478992Y-120723254D01*
X133529528Y-120889850D01*
X133611595Y-121043386D01*
X133722038Y-121177962D01*
X133856614Y-121288405D01*
X134010150Y-121370472D01*
X134176746Y-121421008D01*
X134350000Y-121438072D01*
X135650000Y-121438072D01*
X135823254Y-121421008D01*
X135989850Y-121370472D01*
X136143386Y-121288405D01*
X136277962Y-121177962D01*
X136388405Y-121043386D01*
X136470472Y-120889850D01*
X136521008Y-120723254D01*
X136538072Y-120550000D01*
X136538072Y-120491273D01*
X136783777Y-120191881D01*
X136825053Y-120114657D01*
X137282111Y-120114657D01*
X137353346Y-120408609D01*
X137480560Y-120683015D01*
X137658863Y-120927330D01*
X137839060Y-121088907D01*
X138037000Y-121038655D01*
X138037000Y-119873000D01*
X139583000Y-119873000D01*
X139583000Y-121038655D01*
X139780940Y-121088907D01*
X139961137Y-120927330D01*
X140139440Y-120683015D01*
X140266654Y-120408609D01*
X140337889Y-120114657D01*
X140193908Y-119873000D01*
X139583000Y-119873000D01*
X138037000Y-119873000D01*
X137426092Y-119873000D01*
X137282111Y-120114657D01*
X136825053Y-120114657D01*
X136982026Y-119820982D01*
X137104108Y-119418533D01*
X137135000Y-119104882D01*
X137135000Y-117885343D01*
X137282111Y-117885343D01*
X137426092Y-118127000D01*
X138037000Y-118127000D01*
X138037000Y-116961345D01*
X139583000Y-116961345D01*
X139583000Y-118127000D01*
X140193908Y-118127000D01*
X140337889Y-117885343D01*
X140266654Y-117591391D01*
X140139440Y-117316985D01*
X139961137Y-117072670D01*
X139780940Y-116911093D01*
X139583000Y-116961345D01*
X138037000Y-116961345D01*
X137839060Y-116911093D01*
X137658863Y-117072670D01*
X137480560Y-117316985D01*
X137353346Y-117591391D01*
X137282111Y-117885343D01*
X137135000Y-117885343D01*
X137135000Y-112465484D01*
X157569125Y-112465484D01*
X157836991Y-112735428D01*
X158346290Y-112835567D01*
X158865339Y-112834421D01*
X159363009Y-112735428D01*
X159630875Y-112465484D01*
X158600000Y-111434608D01*
X157569125Y-112465484D01*
X137135000Y-112465484D01*
X137135000Y-109946290D01*
X155964433Y-109946290D01*
X155965579Y-110465339D01*
X156064572Y-110963009D01*
X156334516Y-111230875D01*
X157365392Y-110200000D01*
X159834608Y-110200000D01*
X160865484Y-111230875D01*
X161135428Y-110963009D01*
X161235567Y-110453710D01*
X161234421Y-109934661D01*
X161135428Y-109436991D01*
X160865484Y-109169125D01*
X159834608Y-110200000D01*
X157365392Y-110200000D01*
X156334516Y-109169125D01*
X156064572Y-109436991D01*
X155964433Y-109946290D01*
X137135000Y-109946290D01*
X137135000Y-107934516D01*
X157569125Y-107934516D01*
X158600000Y-108965392D01*
X159630875Y-107934516D01*
X159363009Y-107664572D01*
X158853710Y-107564433D01*
X158334661Y-107565579D01*
X157836991Y-107664572D01*
X157569125Y-107934516D01*
X137135000Y-107934516D01*
X137135000Y-107145118D01*
X137104108Y-106831467D01*
X136982026Y-106429018D01*
X136820595Y-106127000D01*
X163500000Y-106127000D01*
X163524776Y-106124560D01*
X163548601Y-106117333D01*
X163570557Y-106105597D01*
X163589803Y-106089803D01*
X163605597Y-106070557D01*
X163617333Y-106048601D01*
X163624560Y-106024776D01*
X163627000Y-106000000D01*
X163627000Y-96000000D01*
X163624560Y-95975224D01*
X163617333Y-95951399D01*
X163605597Y-95929443D01*
X163589803Y-95910197D01*
X163570557Y-95894403D01*
X163548601Y-95882667D01*
X163524776Y-95875440D01*
X163500000Y-95873000D01*
X148845000Y-95873000D01*
X148845000Y-90754790D01*
X148938505Y-90692312D01*
X149004944Y-90625873D01*
X149010498Y-90644180D01*
X149069463Y-90754494D01*
X149148815Y-90851185D01*
X149245506Y-90930537D01*
X149355820Y-90989502D01*
X149475518Y-91025812D01*
X149600000Y-91038072D01*
X151400000Y-91038072D01*
X151524482Y-91025812D01*
X151644180Y-90989502D01*
X151754494Y-90930537D01*
X151851185Y-90851185D01*
X151930537Y-90754494D01*
X151989502Y-90644180D01*
X152025812Y-90524482D01*
X152038072Y-90400000D01*
X152038072Y-90385000D01*
X153365479Y-90385000D01*
X153385363Y-90414759D01*
X153585241Y-90614637D01*
X153820273Y-90771680D01*
X154081426Y-90879853D01*
X154358665Y-90935000D01*
X154641335Y-90935000D01*
X154918574Y-90879853D01*
X155179727Y-90771680D01*
X155414759Y-90614637D01*
X155614637Y-90414759D01*
X155771680Y-90179727D01*
X155810844Y-90085175D01*
X160809735Y-90085175D01*
X160905490Y-90264351D01*
X161077944Y-90486603D01*
X161290444Y-90670941D01*
X161534823Y-90810280D01*
X161747000Y-90726940D01*
X161747000Y-89873000D01*
X162493000Y-89873000D01*
X162493000Y-90726940D01*
X162705177Y-90810280D01*
X162949556Y-90670941D01*
X163162056Y-90486603D01*
X163334510Y-90264351D01*
X163430265Y-90085175D01*
X163340527Y-89873000D01*
X162493000Y-89873000D01*
X161747000Y-89873000D01*
X160899473Y-89873000D01*
X160809735Y-90085175D01*
X155810844Y-90085175D01*
X155879853Y-89918574D01*
X155935000Y-89641335D01*
X155935000Y-89358665D01*
X155879853Y-89081426D01*
X155810845Y-88914825D01*
X160809735Y-88914825D01*
X160899473Y-89127000D01*
X161747000Y-89127000D01*
X161747000Y-88273060D01*
X162493000Y-88273060D01*
X162493000Y-89127000D01*
X163340527Y-89127000D01*
X163430265Y-88914825D01*
X163334510Y-88735649D01*
X163162056Y-88513397D01*
X162949556Y-88329059D01*
X162705177Y-88189720D01*
X162493000Y-88273060D01*
X161747000Y-88273060D01*
X161534823Y-88189720D01*
X161290444Y-88329059D01*
X161077944Y-88513397D01*
X160905490Y-88735649D01*
X160809735Y-88914825D01*
X155810845Y-88914825D01*
X155771680Y-88820273D01*
X155614637Y-88585241D01*
X155414759Y-88385363D01*
X155179727Y-88228320D01*
X154918574Y-88120147D01*
X154641335Y-88065000D01*
X154358665Y-88065000D01*
X154081426Y-88120147D01*
X153820273Y-88228320D01*
X153585241Y-88385363D01*
X153385363Y-88585241D01*
X153365479Y-88615000D01*
X152038072Y-88615000D01*
X152038072Y-88600000D01*
X152025812Y-88475518D01*
X151989502Y-88355820D01*
X151930537Y-88245506D01*
X151851185Y-88148815D01*
X151754494Y-88069463D01*
X151644180Y-88010498D01*
X151524482Y-87974188D01*
X151400000Y-87961928D01*
X149600000Y-87961928D01*
X149475518Y-87974188D01*
X149355820Y-88010498D01*
X149245506Y-88069463D01*
X149148815Y-88148815D01*
X149069463Y-88245506D01*
X149010498Y-88355820D01*
X149004944Y-88374127D01*
X148938505Y-88307688D01*
X148687095Y-88139701D01*
X148407743Y-88023989D01*
X148111184Y-87965000D01*
X147808816Y-87965000D01*
X147512257Y-88023989D01*
X147232905Y-88139701D01*
X146981495Y-88307688D01*
X146767688Y-88521495D01*
X146599701Y-88772905D01*
X146483989Y-89052257D01*
X146425000Y-89348816D01*
X146425000Y-89651184D01*
X146483989Y-89947743D01*
X146599701Y-90227095D01*
X146767688Y-90478505D01*
X146981495Y-90692312D01*
X147075000Y-90754790D01*
X147075001Y-95873000D01*
X142320595Y-95873000D01*
X142482026Y-95570982D01*
X142604108Y-95168533D01*
X142635000Y-94854882D01*
X142635000Y-82895118D01*
X142604108Y-82581467D01*
X142482026Y-82179018D01*
X142283777Y-81808119D01*
X142038072Y-81508727D01*
X142038072Y-81450000D01*
X142021008Y-81276746D01*
X141970472Y-81110150D01*
X141888405Y-80956614D01*
X141777962Y-80822038D01*
X141643386Y-80711595D01*
X141489850Y-80629528D01*
X141323254Y-80578992D01*
X141150000Y-80561928D01*
X139850000Y-80561928D01*
X139676746Y-80578992D01*
X139510150Y-80629528D01*
X139356614Y-80711595D01*
X139222038Y-80822038D01*
X139111595Y-80956614D01*
X139029528Y-81110150D01*
X138978992Y-81276746D01*
X138961928Y-81450000D01*
X138961928Y-81508728D01*
X138716224Y-81808119D01*
X138517975Y-82179018D01*
X138395893Y-82581467D01*
X138365001Y-82895118D01*
X138365000Y-94854881D01*
X138395892Y-95168532D01*
X138517974Y-95570981D01*
X138679406Y-95873000D01*
X131320595Y-95873000D01*
X131482026Y-95570982D01*
X131604108Y-95168533D01*
X131635000Y-94854882D01*
X131635000Y-84114657D01*
X135162111Y-84114657D01*
X135233346Y-84408609D01*
X135360560Y-84683015D01*
X135538863Y-84927330D01*
X135719060Y-85088907D01*
X135917000Y-85038655D01*
X135917000Y-83873000D01*
X137463000Y-83873000D01*
X137463000Y-85038655D01*
X137660940Y-85088907D01*
X137841137Y-84927330D01*
X138019440Y-84683015D01*
X138146654Y-84408609D01*
X138217889Y-84114657D01*
X138073908Y-83873000D01*
X137463000Y-83873000D01*
X135917000Y-83873000D01*
X135306092Y-83873000D01*
X135162111Y-84114657D01*
X131635000Y-84114657D01*
X131635000Y-82895118D01*
X131604108Y-82581467D01*
X131482026Y-82179018D01*
X131325054Y-81885343D01*
X135162111Y-81885343D01*
X135306092Y-82127000D01*
X135917000Y-82127000D01*
X135917000Y-80961345D01*
X137463000Y-80961345D01*
X137463000Y-82127000D01*
X138073908Y-82127000D01*
X138217889Y-81885343D01*
X138146654Y-81591391D01*
X138019440Y-81316985D01*
X137841137Y-81072670D01*
X137660940Y-80911093D01*
X137463000Y-80961345D01*
X135917000Y-80961345D01*
X135719060Y-80911093D01*
X135538863Y-81072670D01*
X135360560Y-81316985D01*
X135233346Y-81591391D01*
X135162111Y-81885343D01*
X131325054Y-81885343D01*
X131283777Y-81808119D01*
X131038072Y-81508727D01*
X131038072Y-81450000D01*
X131021008Y-81276746D01*
X130970472Y-81110150D01*
X130888405Y-80956614D01*
X130777962Y-80822038D01*
X130643386Y-80711595D01*
X130489850Y-80629528D01*
X130323254Y-80578992D01*
X130150000Y-80561928D01*
X128850000Y-80561928D01*
X128676746Y-80578992D01*
X128510150Y-80629528D01*
X128356614Y-80711595D01*
X128222038Y-80822038D01*
X128111595Y-80956614D01*
X128029528Y-81110150D01*
X127978992Y-81276746D01*
X127961928Y-81450000D01*
X127961928Y-81508728D01*
X127716224Y-81808119D01*
X127517975Y-82179018D01*
X127395893Y-82581467D01*
X127365001Y-82895118D01*
X127365000Y-94854881D01*
X127395892Y-95168532D01*
X127517974Y-95570981D01*
X127679406Y-95873000D01*
X120320595Y-95873000D01*
X120482026Y-95570982D01*
X120604108Y-95168533D01*
X120635000Y-94854882D01*
X120635000Y-84114657D01*
X124162111Y-84114657D01*
X124233346Y-84408609D01*
X124360560Y-84683015D01*
X124538863Y-84927330D01*
X124719060Y-85088907D01*
X124917000Y-85038655D01*
X124917000Y-83873000D01*
X126463000Y-83873000D01*
X126463000Y-85038655D01*
X126660940Y-85088907D01*
X126841137Y-84927330D01*
X127019440Y-84683015D01*
X127146654Y-84408609D01*
X127217889Y-84114657D01*
X127073908Y-83873000D01*
X126463000Y-83873000D01*
X124917000Y-83873000D01*
X124306092Y-83873000D01*
X124162111Y-84114657D01*
X120635000Y-84114657D01*
X120635000Y-82895118D01*
X120604108Y-82581467D01*
X120482026Y-82179018D01*
X120325054Y-81885343D01*
X124162111Y-81885343D01*
X124306092Y-82127000D01*
X124917000Y-82127000D01*
X124917000Y-80961345D01*
X126463000Y-80961345D01*
X126463000Y-82127000D01*
X127073908Y-82127000D01*
X127217889Y-81885343D01*
X127146654Y-81591391D01*
X127019440Y-81316985D01*
X126841137Y-81072670D01*
X126660940Y-80911093D01*
X126463000Y-80961345D01*
X124917000Y-80961345D01*
X124719060Y-80911093D01*
X124538863Y-81072670D01*
X124360560Y-81316985D01*
X124233346Y-81591391D01*
X124162111Y-81885343D01*
X120325054Y-81885343D01*
X120283777Y-81808119D01*
X120038072Y-81508727D01*
X120038072Y-81450000D01*
X120021008Y-81276746D01*
X119970472Y-81110150D01*
X119888405Y-80956614D01*
X119777962Y-80822038D01*
X119643386Y-80711595D01*
X119489850Y-80629528D01*
X119323254Y-80578992D01*
X119150000Y-80561928D01*
X117850000Y-80561928D01*
X117676746Y-80578992D01*
X117510150Y-80629528D01*
X117356614Y-80711595D01*
X117222038Y-80822038D01*
X117111595Y-80956614D01*
X117029528Y-81110150D01*
X116978992Y-81276746D01*
X116961928Y-81450000D01*
X116961928Y-81508728D01*
X116716224Y-81808119D01*
X116517975Y-82179018D01*
X116395893Y-82581467D01*
X116365001Y-82895118D01*
X116365000Y-94854881D01*
X116395892Y-95168532D01*
X116517974Y-95570981D01*
X116679406Y-95873000D01*
X109320595Y-95873000D01*
X109482026Y-95570982D01*
X109604108Y-95168533D01*
X109635000Y-94854882D01*
X109635000Y-84114657D01*
X113162111Y-84114657D01*
X113233346Y-84408609D01*
X113360560Y-84683015D01*
X113538863Y-84927330D01*
X113719060Y-85088907D01*
X113917000Y-85038655D01*
X113917000Y-83873000D01*
X115463000Y-83873000D01*
X115463000Y-85038655D01*
X115660940Y-85088907D01*
X115841137Y-84927330D01*
X116019440Y-84683015D01*
X116146654Y-84408609D01*
X116217889Y-84114657D01*
X116073908Y-83873000D01*
X115463000Y-83873000D01*
X113917000Y-83873000D01*
X113306092Y-83873000D01*
X113162111Y-84114657D01*
X109635000Y-84114657D01*
X109635000Y-82895118D01*
X109604108Y-82581467D01*
X109482026Y-82179018D01*
X109325054Y-81885343D01*
X113162111Y-81885343D01*
X113306092Y-82127000D01*
X113917000Y-82127000D01*
X113917000Y-80961345D01*
X115463000Y-80961345D01*
X115463000Y-82127000D01*
X116073908Y-82127000D01*
X116217889Y-81885343D01*
X116146654Y-81591391D01*
X116019440Y-81316985D01*
X115841137Y-81072670D01*
X115660940Y-80911093D01*
X115463000Y-80961345D01*
X113917000Y-80961345D01*
X113719060Y-80911093D01*
X113538863Y-81072670D01*
X113360560Y-81316985D01*
X113233346Y-81591391D01*
X113162111Y-81885343D01*
X109325054Y-81885343D01*
X109283777Y-81808119D01*
X109038072Y-81508727D01*
X109038072Y-81450000D01*
X109021008Y-81276746D01*
X108970472Y-81110150D01*
X108888405Y-80956614D01*
X108777962Y-80822038D01*
X108643386Y-80711595D01*
X108489850Y-80629528D01*
X108323254Y-80578992D01*
X108150000Y-80561928D01*
X106850000Y-80561928D01*
X106676746Y-80578992D01*
X106510150Y-80629528D01*
X106356614Y-80711595D01*
X106222038Y-80822038D01*
X106111595Y-80956614D01*
X106029528Y-81110150D01*
X105978992Y-81276746D01*
X105961928Y-81450000D01*
X105961928Y-81508728D01*
X105716224Y-81808119D01*
X105517975Y-82179018D01*
X105395893Y-82581467D01*
X105365001Y-82895118D01*
X105365000Y-94854881D01*
X105395892Y-95168532D01*
X105517974Y-95570981D01*
X105679406Y-95873000D01*
X98000000Y-95873000D01*
X97975224Y-95875440D01*
X97951399Y-95882667D01*
X97929443Y-95894403D01*
X97910197Y-95910197D01*
X97894403Y-95929443D01*
X97882667Y-95951399D01*
X97875440Y-95975224D01*
X97873000Y-96000000D01*
X88160000Y-96000000D01*
X88160000Y-84114657D01*
X102162111Y-84114657D01*
X102233346Y-84408609D01*
X102360560Y-84683015D01*
X102538863Y-84927330D01*
X102719060Y-85088907D01*
X102917000Y-85038655D01*
X102917000Y-83873000D01*
X104463000Y-83873000D01*
X104463000Y-85038655D01*
X104660940Y-85088907D01*
X104841137Y-84927330D01*
X105019440Y-84683015D01*
X105146654Y-84408609D01*
X105217889Y-84114657D01*
X105073908Y-83873000D01*
X104463000Y-83873000D01*
X102917000Y-83873000D01*
X102306092Y-83873000D01*
X102162111Y-84114657D01*
X88160000Y-84114657D01*
X88160000Y-81885343D01*
X102162111Y-81885343D01*
X102306092Y-82127000D01*
X102917000Y-82127000D01*
X102917000Y-80961345D01*
X104463000Y-80961345D01*
X104463000Y-82127000D01*
X105073908Y-82127000D01*
X105217889Y-81885343D01*
X105146654Y-81591391D01*
X105019440Y-81316985D01*
X104841137Y-81072670D01*
X104660940Y-80911093D01*
X104463000Y-80961345D01*
X102917000Y-80961345D01*
X102719060Y-80911093D01*
X102538863Y-81072670D01*
X102360560Y-81316985D01*
X102233346Y-81591391D01*
X102162111Y-81885343D01*
X88160000Y-81885343D01*
X88160000Y-78641684D01*
X89244396Y-78641684D01*
X89274842Y-78828500D01*
X89421234Y-78868155D01*
X89643844Y-79090765D01*
X89359774Y-79374834D01*
X89818535Y-79799574D01*
X90592104Y-80054603D01*
X91400562Y-80153817D01*
X92212843Y-80093402D01*
X92997729Y-79875679D01*
X93181465Y-79799574D01*
X93640226Y-79374834D01*
X93356157Y-79090765D01*
X93575469Y-78871452D01*
X93589546Y-78869638D01*
X93725158Y-78828500D01*
X93755604Y-78641684D01*
X165744396Y-78641684D01*
X165774842Y-78828500D01*
X165921234Y-78868155D01*
X166143844Y-79090765D01*
X165859774Y-79374834D01*
X166318535Y-79799574D01*
X167092104Y-80054603D01*
X167900562Y-80153817D01*
X168712843Y-80093402D01*
X169497729Y-79875679D01*
X169681465Y-79799574D01*
X170140226Y-79374834D01*
X169856157Y-79090765D01*
X170075469Y-78871452D01*
X170089546Y-78869638D01*
X170225158Y-78828500D01*
X170255604Y-78641684D01*
X169856155Y-78242235D01*
X169766353Y-78332038D01*
X169380273Y-77945958D01*
X169470075Y-77856155D01*
X169070626Y-77456706D01*
X168883810Y-77487152D01*
X168844155Y-77633544D01*
X168621546Y-77856154D01*
X168000000Y-77234608D01*
X167378455Y-77856154D01*
X167159142Y-77636841D01*
X167157328Y-77622764D01*
X167116190Y-77487152D01*
X166929374Y-77456706D01*
X166529925Y-77856155D01*
X166619728Y-77945958D01*
X166233648Y-78332038D01*
X166143845Y-78242235D01*
X165744396Y-78641684D01*
X93755604Y-78641684D01*
X93356155Y-78242235D01*
X93266353Y-78332038D01*
X92880273Y-77945958D01*
X92970075Y-77856155D01*
X92570626Y-77456706D01*
X92383810Y-77487152D01*
X92344155Y-77633544D01*
X92121546Y-77856154D01*
X91500000Y-77234608D01*
X90878455Y-77856154D01*
X90659142Y-77636841D01*
X90657328Y-77622764D01*
X90616190Y-77487152D01*
X90429374Y-77456706D01*
X90029925Y-77856155D01*
X90119728Y-77945958D01*
X89733648Y-78332038D01*
X89643845Y-78242235D01*
X89244396Y-78641684D01*
X88160000Y-78641684D01*
X88160000Y-78105392D01*
X88409236Y-77856157D01*
X88628548Y-78075469D01*
X88630362Y-78089546D01*
X88671500Y-78225158D01*
X88858316Y-78255604D01*
X89257765Y-77856155D01*
X89167963Y-77766353D01*
X89554043Y-77380273D01*
X89643845Y-77470075D01*
X90043294Y-77070626D01*
X90012848Y-76883810D01*
X89866456Y-76844155D01*
X89643847Y-76621546D01*
X90265392Y-76000000D01*
X92734608Y-76000000D01*
X93356154Y-76621546D01*
X93136841Y-76840858D01*
X93122764Y-76842672D01*
X92987152Y-76883810D01*
X92956706Y-77070626D01*
X93356155Y-77470075D01*
X93445958Y-77380273D01*
X93832038Y-77766353D01*
X93742235Y-77856155D01*
X94141684Y-78255604D01*
X94328500Y-78225158D01*
X94368155Y-78078766D01*
X94590765Y-77856157D01*
X94874834Y-78140226D01*
X95299574Y-77681465D01*
X95554603Y-76907896D01*
X95653817Y-76099438D01*
X95639026Y-75900562D01*
X163846183Y-75900562D01*
X163906598Y-76712843D01*
X164124321Y-77497729D01*
X164200426Y-77681465D01*
X164625166Y-78140226D01*
X164909236Y-77856157D01*
X165128548Y-78075469D01*
X165130362Y-78089546D01*
X165171500Y-78225158D01*
X165358316Y-78255604D01*
X165757765Y-77856155D01*
X165667963Y-77766353D01*
X166054043Y-77380273D01*
X166143845Y-77470075D01*
X166543294Y-77070626D01*
X166512848Y-76883810D01*
X166366456Y-76844155D01*
X166143847Y-76621546D01*
X166765392Y-76000000D01*
X166143847Y-75378455D01*
X166363159Y-75159142D01*
X166377236Y-75157328D01*
X166512848Y-75116190D01*
X166543294Y-74929374D01*
X166143845Y-74529925D01*
X166054043Y-74619728D01*
X165667963Y-74233648D01*
X165757765Y-74143845D01*
X165358316Y-73744396D01*
X165171500Y-73774842D01*
X165131845Y-73921234D01*
X164909236Y-74143844D01*
X164625166Y-73859774D01*
X164200426Y-74318535D01*
X163945397Y-75092104D01*
X163846183Y-75900562D01*
X95639026Y-75900562D01*
X95593402Y-75287157D01*
X95375679Y-74502271D01*
X95299574Y-74318535D01*
X94874834Y-73859774D01*
X94590765Y-74143844D01*
X94371452Y-73924531D01*
X94369638Y-73910454D01*
X94328500Y-73774842D01*
X94141684Y-73744396D01*
X93742235Y-74143845D01*
X93832038Y-74233648D01*
X93445958Y-74619728D01*
X93356155Y-74529925D01*
X92956706Y-74929374D01*
X92987152Y-75116190D01*
X93133544Y-75155845D01*
X93356154Y-75378455D01*
X92734608Y-76000000D01*
X90265392Y-76000000D01*
X89643847Y-75378455D01*
X89863159Y-75159142D01*
X89877236Y-75157328D01*
X90012848Y-75116190D01*
X90043294Y-74929374D01*
X89643845Y-74529925D01*
X89554043Y-74619728D01*
X89167963Y-74233648D01*
X89257765Y-74143845D01*
X88858316Y-73744396D01*
X88671500Y-73774842D01*
X88631845Y-73921234D01*
X88409236Y-74143844D01*
X88160000Y-73894608D01*
X88160000Y-72660000D01*
X89394608Y-72660000D01*
X89643844Y-72909236D01*
G37*
%TD.AperFunction*%
%TD*%
M02*
