M48
; DRILL file {KiCad (5.1.9)-1} date 03/10/21 23:31:44
; FORMAT={-:-/ absolute / inch / decimal}
; #@! TF.CreationDate,2021-03-10T23:31:44-05:00
; #@! TF.GenerationSoftware,Kicad,Pcbnew,(5.1.9)-1
; #@! TF.FileFunction,Plated,1,2,PTH
FMAT,2
INCH
T1C0.0197
T2C0.0315
T3C0.0354
T4C0.0472
T5C0.0650
T6C0.0669
T7C0.1378
%
G90
G05
T1
X3.499Y-2.9921
X3.499Y-5.0
X3.5293Y-2.919
X3.5293Y-3.0652
X3.5293Y-4.9269
X3.5293Y-5.0731
X3.6024Y-2.8888
X3.6024Y-3.0955
X3.6024Y-4.8967
X3.6024Y-5.1033
X3.6754Y-2.919
X3.6754Y-3.0652
X3.6754Y-4.9269
X3.6754Y-5.0731
X3.7057Y-2.9921
X3.7057Y-5.0
X6.5108Y-2.9921
X6.5108Y-5.0
X6.5411Y-2.919
X6.5411Y-3.0652
X6.5411Y-4.9269
X6.5411Y-5.0731
X6.6142Y-2.8888
X6.6142Y-3.0955
X6.6142Y-4.8967
X6.6142Y-5.1033
X6.6873Y-2.919
X6.6873Y-3.0652
X6.6873Y-4.9269
X6.6873Y-5.0731
X6.7175Y-2.9921
X6.7175Y-5.0
T2
X6.0827Y-3.5236
X6.3827Y-3.5236
T3
X5.8252Y-3.5236
X5.9252Y-3.5236
T4
X4.0157Y-4.685
X4.0823Y-3.2677
X4.1657Y-4.685
X4.2323Y-3.2677
X4.4488Y-4.685
X4.5154Y-3.2677
X4.5988Y-4.685
X4.6654Y-3.2677
X4.8819Y-4.685
X4.9484Y-3.2677
X5.0319Y-4.685
X5.0984Y-3.2677
X5.315Y-4.685
X5.3815Y-3.2677
X5.465Y-4.685
X5.5315Y-3.2677
T5
X4.0157Y-3.8996
X4.0157Y-4.0453
X4.0157Y-4.2224
X4.0157Y-4.3681
X4.2323Y-3.5846
X4.2323Y-3.7303
X4.2323Y-3.9075
X4.2323Y-4.0531
X4.4488Y-3.8996
X4.4488Y-4.0453
X4.4488Y-4.2224
X4.4488Y-4.3681
X4.6654Y-3.5846
X4.6654Y-3.7303
X4.6654Y-3.9075
X4.6654Y-4.0531
X4.8819Y-3.8996
X4.8819Y-4.0453
X4.8819Y-4.2224
X4.8819Y-4.3681
X5.0984Y-3.5846
X5.0984Y-3.7303
X5.0984Y-3.9075
X5.0984Y-4.0531
X5.315Y-3.8996
X5.315Y-4.0453
X5.315Y-4.2224
X5.315Y-4.3681
X5.5315Y-3.5846
X5.5315Y-3.7303
X5.5315Y-3.9075
X5.5315Y-4.0531
T6
X6.2441Y-3.9646
X6.2441Y-4.3386
T7
X3.6024Y-2.9921
X3.6024Y-5.0
X6.6142Y-2.9921
X6.6142Y-5.0
T0
M30
