M48
; DRILL file {KiCad 7.0.7} date Fri Sep  1 04:07:14 2023
; FORMAT={-:-/ absolute / inch / decimal}
; #@! TF.CreationDate,2023-09-01T04:07:14-04:00
; #@! TF.GenerationSoftware,Kicad,Pcbnew,7.0.7
; #@! TF.FileFunction,Plated,1,2,PTH
FMAT,2
INCH
; #@! TA.AperFunction,Plated,PTH,ViaDrill
T1C0.0157
; #@! TA.AperFunction,Plated,PTH,ComponentDrill
T2C0.0354
; #@! TA.AperFunction,Plated,PTH,ComponentDrill
T3C0.0394
%
G90
G05
T1
X5.4Y-5.15
X5.55Y-3.0
X5.6Y-5.15
X5.7Y-2.95
X5.8Y-5.15
X5.8Y-5.25
T2
X4.5488Y-1.9724
X4.5488Y-2.8791
X4.6488Y-1.9724
X4.6488Y-2.8791
X4.7488Y-1.9724
X4.7488Y-2.8791
X4.8488Y-1.9724
X4.8488Y-2.8791
X4.9488Y-1.9724
X4.9488Y-2.8791
X5.0488Y-1.9724
X5.0488Y-2.8791
X5.1488Y-1.9724
X5.1488Y-2.8791
X5.2488Y-1.9724
X5.2488Y-2.8791
X5.3488Y-1.9724
X5.3488Y-2.8791
X5.4488Y-1.9724
X5.4488Y-2.8791
X5.5488Y-1.9724
X5.5488Y-2.8791
X5.6488Y-1.9724
X5.6488Y-2.8791
X5.7488Y-1.9724
X5.7488Y-2.8791
X5.8488Y-1.9724
X5.8488Y-2.8791
X5.9488Y-1.9724
X5.9488Y-2.8791
X6.0488Y-1.9724
X6.0488Y-2.8791
X6.1488Y-1.9724
X6.1488Y-2.8791
X6.2488Y-1.9724
X6.2488Y-2.8791
T3
X5.3375Y-5.3902
X5.4Y-3.1402
X5.4375Y-5.3902
X5.5Y-3.1402
X5.5375Y-5.3902
X5.6Y-3.1402
X5.6375Y-5.3902
X5.7Y-3.1402
X5.7375Y-5.3902
X5.8Y-3.1402
X5.8375Y-5.3902
X5.9Y-3.1402
X5.9375Y-5.3902
X6.0Y-3.1402
X6.0375Y-5.3902
X6.1Y-3.1402
X6.1375Y-5.3902
X6.85Y-2.15
X6.85Y-2.25
X6.85Y-2.35
X6.85Y-2.45
X6.85Y-2.55
X6.85Y-2.65
T0
M30
