%TF.GenerationSoftware,KiCad,Pcbnew,7.0.7*%
%TF.CreationDate,2023-08-30T00:42:08-04:00*%
%TF.ProjectId,Lora_Keypad,4c6f7261-5f4b-4657-9970-61642e6b6963,rev?*%
%TF.SameCoordinates,Original*%
%TF.FileFunction,Soldermask,Bot*%
%TF.FilePolarity,Negative*%
%FSLAX46Y46*%
G04 Gerber Fmt 4.6, Leading zero omitted, Abs format (unit mm)*
G04 Created by KiCad (PCBNEW 7.0.7) date 2023-08-30 00:42:08*
%MOMM*%
%LPD*%
G01*
G04 APERTURE LIST*
%ADD10R,1.700000X1.700000*%
%ADD11O,1.700000X1.700000*%
%ADD12C,1.524000*%
G04 APERTURE END LIST*
D10*
%TO.C,U2*%
X137160000Y-79760000D03*
D11*
X139700000Y-79760000D03*
X142240000Y-79760000D03*
X144780000Y-79760000D03*
X147320000Y-79760000D03*
X149860000Y-79760000D03*
X152400000Y-79760000D03*
X154940000Y-79760000D03*
D10*
X135572500Y-136910000D03*
D11*
X138112500Y-136910000D03*
X140652500Y-136910000D03*
X143192500Y-136910000D03*
X145732500Y-136910000D03*
X148272500Y-136910000D03*
X150812500Y-136910000D03*
X153352500Y-136910000D03*
X155892500Y-136910000D03*
%TD*%
D12*
%TO.C,U1*%
X115540000Y-73130000D03*
X118080000Y-73130000D03*
X120620000Y-73130000D03*
X123160000Y-73130000D03*
X125700000Y-73130000D03*
X128240000Y-73130000D03*
X130780000Y-73130000D03*
X133320000Y-73130000D03*
X135860000Y-73130000D03*
X138400000Y-73130000D03*
X140940000Y-73130000D03*
X143480000Y-73130000D03*
X146020000Y-73130000D03*
X148560000Y-73130000D03*
X151100000Y-73130000D03*
X153640000Y-73130000D03*
X156180000Y-73130000D03*
X158720000Y-73130000D03*
X158720000Y-50100000D03*
X156180000Y-50100000D03*
X153640000Y-50100000D03*
X151100000Y-50100000D03*
X148560000Y-50100000D03*
X146020000Y-50100000D03*
X143480000Y-50100000D03*
X140940000Y-50100000D03*
X138400000Y-50100000D03*
X135860000Y-50100000D03*
X133320000Y-50100000D03*
X130780000Y-50100000D03*
X128240000Y-50100000D03*
X125700000Y-50100000D03*
X123160000Y-50100000D03*
X120620000Y-50100000D03*
X118080000Y-50100000D03*
X115540000Y-50100000D03*
%TD*%
M02*
