%TF.GenerationSoftware,KiCad,Pcbnew,7.0.7*%
%TF.CreationDate,2023-09-01T04:02:33-04:00*%
%TF.ProjectId,Lora_Keypad,4c6f7261-5f4b-4657-9970-61642e6b6963,v1*%
%TF.SameCoordinates,Original*%
%TF.FileFunction,Legend,Top*%
%TF.FilePolarity,Positive*%
%FSLAX46Y46*%
G04 Gerber Fmt 4.6, Leading zero omitted, Abs format (unit mm)*
G04 Created by KiCad (PCBNEW 7.0.7) date 2023-09-01 04:02:33*
%MOMM*%
%LPD*%
G01*
G04 APERTURE LIST*
%ADD10C,0.300000*%
%ADD11C,0.150000*%
%ADD12C,0.120000*%
%ADD13R,1.700000X1.700000*%
%ADD14O,1.700000X1.700000*%
%ADD15C,1.524000*%
G04 APERTURE END LIST*
D10*
X117656828Y-133351203D02*
X117656828Y-134065489D01*
X117656828Y-134065489D02*
X116156828Y-134065489D01*
X116156828Y-132565488D02*
X116156828Y-132279774D01*
X116156828Y-132279774D02*
X116228257Y-132136917D01*
X116228257Y-132136917D02*
X116371114Y-131994060D01*
X116371114Y-131994060D02*
X116656828Y-131922631D01*
X116656828Y-131922631D02*
X117156828Y-131922631D01*
X117156828Y-131922631D02*
X117442542Y-131994060D01*
X117442542Y-131994060D02*
X117585400Y-132136917D01*
X117585400Y-132136917D02*
X117656828Y-132279774D01*
X117656828Y-132279774D02*
X117656828Y-132565488D01*
X117656828Y-132565488D02*
X117585400Y-132708346D01*
X117585400Y-132708346D02*
X117442542Y-132851203D01*
X117442542Y-132851203D02*
X117156828Y-132922631D01*
X117156828Y-132922631D02*
X116656828Y-132922631D01*
X116656828Y-132922631D02*
X116371114Y-132851203D01*
X116371114Y-132851203D02*
X116228257Y-132708346D01*
X116228257Y-132708346D02*
X116156828Y-132565488D01*
X117656828Y-130422631D02*
X116942542Y-130922631D01*
X117656828Y-131279774D02*
X116156828Y-131279774D01*
X116156828Y-131279774D02*
X116156828Y-130708345D01*
X116156828Y-130708345D02*
X116228257Y-130565488D01*
X116228257Y-130565488D02*
X116299685Y-130494059D01*
X116299685Y-130494059D02*
X116442542Y-130422631D01*
X116442542Y-130422631D02*
X116656828Y-130422631D01*
X116656828Y-130422631D02*
X116799685Y-130494059D01*
X116799685Y-130494059D02*
X116871114Y-130565488D01*
X116871114Y-130565488D02*
X116942542Y-130708345D01*
X116942542Y-130708345D02*
X116942542Y-131279774D01*
X117228257Y-129851202D02*
X117228257Y-129136917D01*
X117656828Y-129994059D02*
X116156828Y-129494059D01*
X116156828Y-129494059D02*
X117656828Y-128994059D01*
X117656828Y-127351203D02*
X116156828Y-127351203D01*
X117656828Y-126494060D02*
X116799685Y-127136917D01*
X116156828Y-126494060D02*
X117013971Y-127351203D01*
X117585400Y-125279774D02*
X117656828Y-125422631D01*
X117656828Y-125422631D02*
X117656828Y-125708346D01*
X117656828Y-125708346D02*
X117585400Y-125851203D01*
X117585400Y-125851203D02*
X117442542Y-125922631D01*
X117442542Y-125922631D02*
X116871114Y-125922631D01*
X116871114Y-125922631D02*
X116728257Y-125851203D01*
X116728257Y-125851203D02*
X116656828Y-125708346D01*
X116656828Y-125708346D02*
X116656828Y-125422631D01*
X116656828Y-125422631D02*
X116728257Y-125279774D01*
X116728257Y-125279774D02*
X116871114Y-125208346D01*
X116871114Y-125208346D02*
X117013971Y-125208346D01*
X117013971Y-125208346D02*
X117156828Y-125922631D01*
X116656828Y-124708346D02*
X117656828Y-124351203D01*
X116656828Y-123994060D02*
X117656828Y-124351203D01*
X117656828Y-124351203D02*
X118013971Y-124494060D01*
X118013971Y-124494060D02*
X118085400Y-124565489D01*
X118085400Y-124565489D02*
X118156828Y-124708346D01*
X116656828Y-123422632D02*
X118156828Y-123422632D01*
X116728257Y-123422632D02*
X116656828Y-123279775D01*
X116656828Y-123279775D02*
X116656828Y-122994060D01*
X116656828Y-122994060D02*
X116728257Y-122851203D01*
X116728257Y-122851203D02*
X116799685Y-122779775D01*
X116799685Y-122779775D02*
X116942542Y-122708346D01*
X116942542Y-122708346D02*
X117371114Y-122708346D01*
X117371114Y-122708346D02*
X117513971Y-122779775D01*
X117513971Y-122779775D02*
X117585400Y-122851203D01*
X117585400Y-122851203D02*
X117656828Y-122994060D01*
X117656828Y-122994060D02*
X117656828Y-123279775D01*
X117656828Y-123279775D02*
X117585400Y-123422632D01*
X117656828Y-121422632D02*
X116871114Y-121422632D01*
X116871114Y-121422632D02*
X116728257Y-121494060D01*
X116728257Y-121494060D02*
X116656828Y-121636917D01*
X116656828Y-121636917D02*
X116656828Y-121922632D01*
X116656828Y-121922632D02*
X116728257Y-122065489D01*
X117585400Y-121422632D02*
X117656828Y-121565489D01*
X117656828Y-121565489D02*
X117656828Y-121922632D01*
X117656828Y-121922632D02*
X117585400Y-122065489D01*
X117585400Y-122065489D02*
X117442542Y-122136917D01*
X117442542Y-122136917D02*
X117299685Y-122136917D01*
X117299685Y-122136917D02*
X117156828Y-122065489D01*
X117156828Y-122065489D02*
X117085400Y-121922632D01*
X117085400Y-121922632D02*
X117085400Y-121565489D01*
X117085400Y-121565489D02*
X117013971Y-121422632D01*
X117656828Y-120065489D02*
X116156828Y-120065489D01*
X117585400Y-120065489D02*
X117656828Y-120208346D01*
X117656828Y-120208346D02*
X117656828Y-120494060D01*
X117656828Y-120494060D02*
X117585400Y-120636917D01*
X117585400Y-120636917D02*
X117513971Y-120708346D01*
X117513971Y-120708346D02*
X117371114Y-120779774D01*
X117371114Y-120779774D02*
X116942542Y-120779774D01*
X116942542Y-120779774D02*
X116799685Y-120708346D01*
X116799685Y-120708346D02*
X116728257Y-120636917D01*
X116728257Y-120636917D02*
X116656828Y-120494060D01*
X116656828Y-120494060D02*
X116656828Y-120208346D01*
X116656828Y-120208346D02*
X116728257Y-120065489D01*
X116656828Y-118351203D02*
X117656828Y-117994060D01*
X117656828Y-117994060D02*
X116656828Y-117636917D01*
X117656828Y-116279774D02*
X117656828Y-117136917D01*
X117656828Y-116708346D02*
X116156828Y-116708346D01*
X116156828Y-116708346D02*
X116371114Y-116851203D01*
X116371114Y-116851203D02*
X116513971Y-116994060D01*
X116513971Y-116994060D02*
X116585400Y-117136917D01*
D11*
X167738588Y-59115438D02*
X167643350Y-59067819D01*
X167643350Y-59067819D02*
X167500493Y-59067819D01*
X167500493Y-59067819D02*
X167357636Y-59115438D01*
X167357636Y-59115438D02*
X167262398Y-59210676D01*
X167262398Y-59210676D02*
X167214779Y-59305914D01*
X167214779Y-59305914D02*
X167167160Y-59496390D01*
X167167160Y-59496390D02*
X167167160Y-59639247D01*
X167167160Y-59639247D02*
X167214779Y-59829723D01*
X167214779Y-59829723D02*
X167262398Y-59924961D01*
X167262398Y-59924961D02*
X167357636Y-60020200D01*
X167357636Y-60020200D02*
X167500493Y-60067819D01*
X167500493Y-60067819D02*
X167595731Y-60067819D01*
X167595731Y-60067819D02*
X167738588Y-60020200D01*
X167738588Y-60020200D02*
X167786207Y-59972580D01*
X167786207Y-59972580D02*
X167786207Y-59639247D01*
X167786207Y-59639247D02*
X167595731Y-59639247D01*
X168214779Y-60067819D02*
X168214779Y-59067819D01*
X168214779Y-59067819D02*
X168595731Y-59067819D01*
X168595731Y-59067819D02*
X168690969Y-59115438D01*
X168690969Y-59115438D02*
X168738588Y-59163057D01*
X168738588Y-59163057D02*
X168786207Y-59258295D01*
X168786207Y-59258295D02*
X168786207Y-59401152D01*
X168786207Y-59401152D02*
X168738588Y-59496390D01*
X168738588Y-59496390D02*
X168690969Y-59544009D01*
X168690969Y-59544009D02*
X168595731Y-59591628D01*
X168595731Y-59591628D02*
X168214779Y-59591628D01*
X169214779Y-60067819D02*
X169214779Y-59067819D01*
X169881445Y-59067819D02*
X170071921Y-59067819D01*
X170071921Y-59067819D02*
X170167159Y-59115438D01*
X170167159Y-59115438D02*
X170262397Y-59210676D01*
X170262397Y-59210676D02*
X170310016Y-59401152D01*
X170310016Y-59401152D02*
X170310016Y-59734485D01*
X170310016Y-59734485D02*
X170262397Y-59924961D01*
X170262397Y-59924961D02*
X170167159Y-60020200D01*
X170167159Y-60020200D02*
X170071921Y-60067819D01*
X170071921Y-60067819D02*
X169881445Y-60067819D01*
X169881445Y-60067819D02*
X169786207Y-60020200D01*
X169786207Y-60020200D02*
X169690969Y-59924961D01*
X169690969Y-59924961D02*
X169643350Y-59734485D01*
X169643350Y-59734485D02*
X169643350Y-59401152D01*
X169643350Y-59401152D02*
X169690969Y-59210676D01*
X169690969Y-59210676D02*
X169786207Y-59115438D01*
X169786207Y-59115438D02*
X169881445Y-59067819D01*
X170643350Y-59067819D02*
X171262397Y-59067819D01*
X171262397Y-59067819D02*
X170929064Y-59448771D01*
X170929064Y-59448771D02*
X171071921Y-59448771D01*
X171071921Y-59448771D02*
X171167159Y-59496390D01*
X171167159Y-59496390D02*
X171214778Y-59544009D01*
X171214778Y-59544009D02*
X171262397Y-59639247D01*
X171262397Y-59639247D02*
X171262397Y-59877342D01*
X171262397Y-59877342D02*
X171214778Y-59972580D01*
X171214778Y-59972580D02*
X171167159Y-60020200D01*
X171167159Y-60020200D02*
X171071921Y-60067819D01*
X171071921Y-60067819D02*
X170786207Y-60067819D01*
X170786207Y-60067819D02*
X170690969Y-60020200D01*
X170690969Y-60020200D02*
X170643350Y-59972580D01*
X172167159Y-59067819D02*
X171690969Y-59067819D01*
X171690969Y-59067819D02*
X171643350Y-59544009D01*
X171643350Y-59544009D02*
X171690969Y-59496390D01*
X171690969Y-59496390D02*
X171786207Y-59448771D01*
X171786207Y-59448771D02*
X172024302Y-59448771D01*
X172024302Y-59448771D02*
X172119540Y-59496390D01*
X172119540Y-59496390D02*
X172167159Y-59544009D01*
X172167159Y-59544009D02*
X172214778Y-59639247D01*
X172214778Y-59639247D02*
X172214778Y-59877342D01*
X172214778Y-59877342D02*
X172167159Y-59972580D01*
X172167159Y-59972580D02*
X172119540Y-60020200D01*
X172119540Y-60020200D02*
X172024302Y-60067819D01*
X172024302Y-60067819D02*
X171786207Y-60067819D01*
X171786207Y-60067819D02*
X171690969Y-60020200D01*
X171690969Y-60020200D02*
X171643350Y-59972580D01*
X167738588Y-61655438D02*
X167643350Y-61607819D01*
X167643350Y-61607819D02*
X167500493Y-61607819D01*
X167500493Y-61607819D02*
X167357636Y-61655438D01*
X167357636Y-61655438D02*
X167262398Y-61750676D01*
X167262398Y-61750676D02*
X167214779Y-61845914D01*
X167214779Y-61845914D02*
X167167160Y-62036390D01*
X167167160Y-62036390D02*
X167167160Y-62179247D01*
X167167160Y-62179247D02*
X167214779Y-62369723D01*
X167214779Y-62369723D02*
X167262398Y-62464961D01*
X167262398Y-62464961D02*
X167357636Y-62560200D01*
X167357636Y-62560200D02*
X167500493Y-62607819D01*
X167500493Y-62607819D02*
X167595731Y-62607819D01*
X167595731Y-62607819D02*
X167738588Y-62560200D01*
X167738588Y-62560200D02*
X167786207Y-62512580D01*
X167786207Y-62512580D02*
X167786207Y-62179247D01*
X167786207Y-62179247D02*
X167595731Y-62179247D01*
X168214779Y-62607819D02*
X168214779Y-61607819D01*
X168214779Y-61607819D02*
X168595731Y-61607819D01*
X168595731Y-61607819D02*
X168690969Y-61655438D01*
X168690969Y-61655438D02*
X168738588Y-61703057D01*
X168738588Y-61703057D02*
X168786207Y-61798295D01*
X168786207Y-61798295D02*
X168786207Y-61941152D01*
X168786207Y-61941152D02*
X168738588Y-62036390D01*
X168738588Y-62036390D02*
X168690969Y-62084009D01*
X168690969Y-62084009D02*
X168595731Y-62131628D01*
X168595731Y-62131628D02*
X168214779Y-62131628D01*
X169214779Y-62607819D02*
X169214779Y-61607819D01*
X169881445Y-61607819D02*
X170071921Y-61607819D01*
X170071921Y-61607819D02*
X170167159Y-61655438D01*
X170167159Y-61655438D02*
X170262397Y-61750676D01*
X170262397Y-61750676D02*
X170310016Y-61941152D01*
X170310016Y-61941152D02*
X170310016Y-62274485D01*
X170310016Y-62274485D02*
X170262397Y-62464961D01*
X170262397Y-62464961D02*
X170167159Y-62560200D01*
X170167159Y-62560200D02*
X170071921Y-62607819D01*
X170071921Y-62607819D02*
X169881445Y-62607819D01*
X169881445Y-62607819D02*
X169786207Y-62560200D01*
X169786207Y-62560200D02*
X169690969Y-62464961D01*
X169690969Y-62464961D02*
X169643350Y-62274485D01*
X169643350Y-62274485D02*
X169643350Y-61941152D01*
X169643350Y-61941152D02*
X169690969Y-61750676D01*
X169690969Y-61750676D02*
X169786207Y-61655438D01*
X169786207Y-61655438D02*
X169881445Y-61607819D01*
X170690969Y-61703057D02*
X170738588Y-61655438D01*
X170738588Y-61655438D02*
X170833826Y-61607819D01*
X170833826Y-61607819D02*
X171071921Y-61607819D01*
X171071921Y-61607819D02*
X171167159Y-61655438D01*
X171167159Y-61655438D02*
X171214778Y-61703057D01*
X171214778Y-61703057D02*
X171262397Y-61798295D01*
X171262397Y-61798295D02*
X171262397Y-61893533D01*
X171262397Y-61893533D02*
X171214778Y-62036390D01*
X171214778Y-62036390D02*
X170643350Y-62607819D01*
X170643350Y-62607819D02*
X171262397Y-62607819D01*
X172214778Y-62607819D02*
X171643350Y-62607819D01*
X171929064Y-62607819D02*
X171929064Y-61607819D01*
X171929064Y-61607819D02*
X171833826Y-61750676D01*
X171833826Y-61750676D02*
X171738588Y-61845914D01*
X171738588Y-61845914D02*
X171643350Y-61893533D01*
X168500588Y-64195438D02*
X168405350Y-64147819D01*
X168405350Y-64147819D02*
X168262493Y-64147819D01*
X168262493Y-64147819D02*
X168119636Y-64195438D01*
X168119636Y-64195438D02*
X168024398Y-64290676D01*
X168024398Y-64290676D02*
X167976779Y-64385914D01*
X167976779Y-64385914D02*
X167929160Y-64576390D01*
X167929160Y-64576390D02*
X167929160Y-64719247D01*
X167929160Y-64719247D02*
X167976779Y-64909723D01*
X167976779Y-64909723D02*
X168024398Y-65004961D01*
X168024398Y-65004961D02*
X168119636Y-65100200D01*
X168119636Y-65100200D02*
X168262493Y-65147819D01*
X168262493Y-65147819D02*
X168357731Y-65147819D01*
X168357731Y-65147819D02*
X168500588Y-65100200D01*
X168500588Y-65100200D02*
X168548207Y-65052580D01*
X168548207Y-65052580D02*
X168548207Y-64719247D01*
X168548207Y-64719247D02*
X168357731Y-64719247D01*
X168976779Y-65147819D02*
X168976779Y-64147819D01*
X168976779Y-64147819D02*
X169357731Y-64147819D01*
X169357731Y-64147819D02*
X169452969Y-64195438D01*
X169452969Y-64195438D02*
X169500588Y-64243057D01*
X169500588Y-64243057D02*
X169548207Y-64338295D01*
X169548207Y-64338295D02*
X169548207Y-64481152D01*
X169548207Y-64481152D02*
X169500588Y-64576390D01*
X169500588Y-64576390D02*
X169452969Y-64624009D01*
X169452969Y-64624009D02*
X169357731Y-64671628D01*
X169357731Y-64671628D02*
X168976779Y-64671628D01*
X169976779Y-65147819D02*
X169976779Y-64147819D01*
X170643445Y-64147819D02*
X170833921Y-64147819D01*
X170833921Y-64147819D02*
X170929159Y-64195438D01*
X170929159Y-64195438D02*
X171024397Y-64290676D01*
X171024397Y-64290676D02*
X171072016Y-64481152D01*
X171072016Y-64481152D02*
X171072016Y-64814485D01*
X171072016Y-64814485D02*
X171024397Y-65004961D01*
X171024397Y-65004961D02*
X170929159Y-65100200D01*
X170929159Y-65100200D02*
X170833921Y-65147819D01*
X170833921Y-65147819D02*
X170643445Y-65147819D01*
X170643445Y-65147819D02*
X170548207Y-65100200D01*
X170548207Y-65100200D02*
X170452969Y-65004961D01*
X170452969Y-65004961D02*
X170405350Y-64814485D01*
X170405350Y-64814485D02*
X170405350Y-64481152D01*
X170405350Y-64481152D02*
X170452969Y-64290676D01*
X170452969Y-64290676D02*
X170548207Y-64195438D01*
X170548207Y-64195438D02*
X170643445Y-64147819D01*
X171452969Y-64243057D02*
X171500588Y-64195438D01*
X171500588Y-64195438D02*
X171595826Y-64147819D01*
X171595826Y-64147819D02*
X171833921Y-64147819D01*
X171833921Y-64147819D02*
X171929159Y-64195438D01*
X171929159Y-64195438D02*
X171976778Y-64243057D01*
X171976778Y-64243057D02*
X172024397Y-64338295D01*
X172024397Y-64338295D02*
X172024397Y-64433533D01*
X172024397Y-64433533D02*
X171976778Y-64576390D01*
X171976778Y-64576390D02*
X171405350Y-65147819D01*
X171405350Y-65147819D02*
X172024397Y-65147819D01*
X170024588Y-66862438D02*
X169929350Y-66814819D01*
X169929350Y-66814819D02*
X169786493Y-66814819D01*
X169786493Y-66814819D02*
X169643636Y-66862438D01*
X169643636Y-66862438D02*
X169548398Y-66957676D01*
X169548398Y-66957676D02*
X169500779Y-67052914D01*
X169500779Y-67052914D02*
X169453160Y-67243390D01*
X169453160Y-67243390D02*
X169453160Y-67386247D01*
X169453160Y-67386247D02*
X169500779Y-67576723D01*
X169500779Y-67576723D02*
X169548398Y-67671961D01*
X169548398Y-67671961D02*
X169643636Y-67767200D01*
X169643636Y-67767200D02*
X169786493Y-67814819D01*
X169786493Y-67814819D02*
X169881731Y-67814819D01*
X169881731Y-67814819D02*
X170024588Y-67767200D01*
X170024588Y-67767200D02*
X170072207Y-67719580D01*
X170072207Y-67719580D02*
X170072207Y-67386247D01*
X170072207Y-67386247D02*
X169881731Y-67386247D01*
X170500779Y-67814819D02*
X170500779Y-66814819D01*
X170500779Y-66814819D02*
X171072207Y-67814819D01*
X171072207Y-67814819D02*
X171072207Y-66814819D01*
X171548398Y-67814819D02*
X171548398Y-66814819D01*
X171548398Y-66814819D02*
X171786493Y-66814819D01*
X171786493Y-66814819D02*
X171929350Y-66862438D01*
X171929350Y-66862438D02*
X172024588Y-66957676D01*
X172024588Y-66957676D02*
X172072207Y-67052914D01*
X172072207Y-67052914D02*
X172119826Y-67243390D01*
X172119826Y-67243390D02*
X172119826Y-67386247D01*
X172119826Y-67386247D02*
X172072207Y-67576723D01*
X172072207Y-67576723D02*
X172024588Y-67671961D01*
X172024588Y-67671961D02*
X171929350Y-67767200D01*
X171929350Y-67767200D02*
X171786493Y-67814819D01*
X171786493Y-67814819D02*
X171548398Y-67814819D01*
X170738969Y-56527819D02*
X170262779Y-56527819D01*
X170262779Y-56527819D02*
X170215160Y-57004009D01*
X170215160Y-57004009D02*
X170262779Y-56956390D01*
X170262779Y-56956390D02*
X170358017Y-56908771D01*
X170358017Y-56908771D02*
X170596112Y-56908771D01*
X170596112Y-56908771D02*
X170691350Y-56956390D01*
X170691350Y-56956390D02*
X170738969Y-57004009D01*
X170738969Y-57004009D02*
X170786588Y-57099247D01*
X170786588Y-57099247D02*
X170786588Y-57337342D01*
X170786588Y-57337342D02*
X170738969Y-57432580D01*
X170738969Y-57432580D02*
X170691350Y-57480200D01*
X170691350Y-57480200D02*
X170596112Y-57527819D01*
X170596112Y-57527819D02*
X170358017Y-57527819D01*
X170358017Y-57527819D02*
X170262779Y-57480200D01*
X170262779Y-57480200D02*
X170215160Y-57432580D01*
X171072303Y-56527819D02*
X171405636Y-57527819D01*
X171405636Y-57527819D02*
X171738969Y-56527819D01*
X169786541Y-54114819D02*
X170405588Y-54114819D01*
X170405588Y-54114819D02*
X170072255Y-54495771D01*
X170072255Y-54495771D02*
X170215112Y-54495771D01*
X170215112Y-54495771D02*
X170310350Y-54543390D01*
X170310350Y-54543390D02*
X170357969Y-54591009D01*
X170357969Y-54591009D02*
X170405588Y-54686247D01*
X170405588Y-54686247D02*
X170405588Y-54924342D01*
X170405588Y-54924342D02*
X170357969Y-55019580D01*
X170357969Y-55019580D02*
X170310350Y-55067200D01*
X170310350Y-55067200D02*
X170215112Y-55114819D01*
X170215112Y-55114819D02*
X169929398Y-55114819D01*
X169929398Y-55114819D02*
X169834160Y-55067200D01*
X169834160Y-55067200D02*
X169786541Y-55019580D01*
X170691303Y-54114819D02*
X171024636Y-55114819D01*
X171024636Y-55114819D02*
X171357969Y-54114819D01*
X171596065Y-54114819D02*
X172215112Y-54114819D01*
X172215112Y-54114819D02*
X171881779Y-54495771D01*
X171881779Y-54495771D02*
X172024636Y-54495771D01*
X172024636Y-54495771D02*
X172119874Y-54543390D01*
X172119874Y-54543390D02*
X172167493Y-54591009D01*
X172167493Y-54591009D02*
X172215112Y-54686247D01*
X172215112Y-54686247D02*
X172215112Y-54924342D01*
X172215112Y-54924342D02*
X172167493Y-55019580D01*
X172167493Y-55019580D02*
X172119874Y-55067200D01*
X172119874Y-55067200D02*
X172024636Y-55114819D01*
X172024636Y-55114819D02*
X171738922Y-55114819D01*
X171738922Y-55114819D02*
X171643684Y-55067200D01*
X171643684Y-55067200D02*
X171596065Y-55019580D01*
X173656666Y-51734819D02*
X173656666Y-52449104D01*
X173656666Y-52449104D02*
X173609047Y-52591961D01*
X173609047Y-52591961D02*
X173513809Y-52687200D01*
X173513809Y-52687200D02*
X173370952Y-52734819D01*
X173370952Y-52734819D02*
X173275714Y-52734819D01*
X174656666Y-52734819D02*
X174085238Y-52734819D01*
X174370952Y-52734819D02*
X174370952Y-51734819D01*
X174370952Y-51734819D02*
X174275714Y-51877676D01*
X174275714Y-51877676D02*
X174180476Y-51972914D01*
X174180476Y-51972914D02*
X174085238Y-52020533D01*
X166878095Y-50254819D02*
X166878095Y-51064342D01*
X166878095Y-51064342D02*
X166925714Y-51159580D01*
X166925714Y-51159580D02*
X166973333Y-51207200D01*
X166973333Y-51207200D02*
X167068571Y-51254819D01*
X167068571Y-51254819D02*
X167259047Y-51254819D01*
X167259047Y-51254819D02*
X167354285Y-51207200D01*
X167354285Y-51207200D02*
X167401904Y-51159580D01*
X167401904Y-51159580D02*
X167449523Y-51064342D01*
X167449523Y-51064342D02*
X167449523Y-50254819D01*
X168449523Y-51254819D02*
X167878095Y-51254819D01*
X168163809Y-51254819D02*
X168163809Y-50254819D01*
X168163809Y-50254819D02*
X168068571Y-50397676D01*
X168068571Y-50397676D02*
X167973333Y-50492914D01*
X167973333Y-50492914D02*
X167878095Y-50540533D01*
X150700390Y-70415952D02*
X150662295Y-70492142D01*
X150662295Y-70492142D02*
X150662295Y-70606428D01*
X150662295Y-70606428D02*
X150700390Y-70720714D01*
X150700390Y-70720714D02*
X150776580Y-70796904D01*
X150776580Y-70796904D02*
X150852771Y-70834999D01*
X150852771Y-70834999D02*
X151005152Y-70873095D01*
X151005152Y-70873095D02*
X151119438Y-70873095D01*
X151119438Y-70873095D02*
X151271819Y-70834999D01*
X151271819Y-70834999D02*
X151348009Y-70796904D01*
X151348009Y-70796904D02*
X151424200Y-70720714D01*
X151424200Y-70720714D02*
X151462295Y-70606428D01*
X151462295Y-70606428D02*
X151462295Y-70530237D01*
X151462295Y-70530237D02*
X151424200Y-70415952D01*
X151424200Y-70415952D02*
X151386104Y-70377856D01*
X151386104Y-70377856D02*
X151119438Y-70377856D01*
X151119438Y-70377856D02*
X151119438Y-70530237D01*
X151462295Y-70034999D02*
X150662295Y-70034999D01*
X150662295Y-70034999D02*
X150662295Y-69730237D01*
X150662295Y-69730237D02*
X150700390Y-69654047D01*
X150700390Y-69654047D02*
X150738485Y-69615952D01*
X150738485Y-69615952D02*
X150814676Y-69577856D01*
X150814676Y-69577856D02*
X150928961Y-69577856D01*
X150928961Y-69577856D02*
X151005152Y-69615952D01*
X151005152Y-69615952D02*
X151043247Y-69654047D01*
X151043247Y-69654047D02*
X151081342Y-69730237D01*
X151081342Y-69730237D02*
X151081342Y-70034999D01*
X151462295Y-69234999D02*
X150662295Y-69234999D01*
X150662295Y-68701666D02*
X150662295Y-68549285D01*
X150662295Y-68549285D02*
X150700390Y-68473095D01*
X150700390Y-68473095D02*
X150776580Y-68396904D01*
X150776580Y-68396904D02*
X150928961Y-68358809D01*
X150928961Y-68358809D02*
X151195628Y-68358809D01*
X151195628Y-68358809D02*
X151348009Y-68396904D01*
X151348009Y-68396904D02*
X151424200Y-68473095D01*
X151424200Y-68473095D02*
X151462295Y-68549285D01*
X151462295Y-68549285D02*
X151462295Y-68701666D01*
X151462295Y-68701666D02*
X151424200Y-68777857D01*
X151424200Y-68777857D02*
X151348009Y-68854047D01*
X151348009Y-68854047D02*
X151195628Y-68892143D01*
X151195628Y-68892143D02*
X150928961Y-68892143D01*
X150928961Y-68892143D02*
X150776580Y-68854047D01*
X150776580Y-68854047D02*
X150700390Y-68777857D01*
X150700390Y-68777857D02*
X150662295Y-68701666D01*
X150738485Y-68054048D02*
X150700390Y-68015952D01*
X150700390Y-68015952D02*
X150662295Y-67939762D01*
X150662295Y-67939762D02*
X150662295Y-67749286D01*
X150662295Y-67749286D02*
X150700390Y-67673095D01*
X150700390Y-67673095D02*
X150738485Y-67635000D01*
X150738485Y-67635000D02*
X150814676Y-67596905D01*
X150814676Y-67596905D02*
X150890866Y-67596905D01*
X150890866Y-67596905D02*
X151005152Y-67635000D01*
X151005152Y-67635000D02*
X151462295Y-68092143D01*
X151462295Y-68092143D02*
X151462295Y-67596905D01*
X155780390Y-55556904D02*
X155742295Y-55633094D01*
X155742295Y-55633094D02*
X155742295Y-55747380D01*
X155742295Y-55747380D02*
X155780390Y-55861666D01*
X155780390Y-55861666D02*
X155856580Y-55937856D01*
X155856580Y-55937856D02*
X155932771Y-55975951D01*
X155932771Y-55975951D02*
X156085152Y-56014047D01*
X156085152Y-56014047D02*
X156199438Y-56014047D01*
X156199438Y-56014047D02*
X156351819Y-55975951D01*
X156351819Y-55975951D02*
X156428009Y-55937856D01*
X156428009Y-55937856D02*
X156504200Y-55861666D01*
X156504200Y-55861666D02*
X156542295Y-55747380D01*
X156542295Y-55747380D02*
X156542295Y-55671189D01*
X156542295Y-55671189D02*
X156504200Y-55556904D01*
X156504200Y-55556904D02*
X156466104Y-55518808D01*
X156466104Y-55518808D02*
X156199438Y-55518808D01*
X156199438Y-55518808D02*
X156199438Y-55671189D01*
X156542295Y-55175951D02*
X155742295Y-55175951D01*
X155742295Y-55175951D02*
X155742295Y-54871189D01*
X155742295Y-54871189D02*
X155780390Y-54794999D01*
X155780390Y-54794999D02*
X155818485Y-54756904D01*
X155818485Y-54756904D02*
X155894676Y-54718808D01*
X155894676Y-54718808D02*
X156008961Y-54718808D01*
X156008961Y-54718808D02*
X156085152Y-54756904D01*
X156085152Y-54756904D02*
X156123247Y-54794999D01*
X156123247Y-54794999D02*
X156161342Y-54871189D01*
X156161342Y-54871189D02*
X156161342Y-55175951D01*
X156542295Y-54375951D02*
X155742295Y-54375951D01*
X155742295Y-53842618D02*
X155742295Y-53690237D01*
X155742295Y-53690237D02*
X155780390Y-53614047D01*
X155780390Y-53614047D02*
X155856580Y-53537856D01*
X155856580Y-53537856D02*
X156008961Y-53499761D01*
X156008961Y-53499761D02*
X156275628Y-53499761D01*
X156275628Y-53499761D02*
X156428009Y-53537856D01*
X156428009Y-53537856D02*
X156504200Y-53614047D01*
X156504200Y-53614047D02*
X156542295Y-53690237D01*
X156542295Y-53690237D02*
X156542295Y-53842618D01*
X156542295Y-53842618D02*
X156504200Y-53918809D01*
X156504200Y-53918809D02*
X156428009Y-53994999D01*
X156428009Y-53994999D02*
X156275628Y-54033095D01*
X156275628Y-54033095D02*
X156008961Y-54033095D01*
X156008961Y-54033095D02*
X155856580Y-53994999D01*
X155856580Y-53994999D02*
X155780390Y-53918809D01*
X155780390Y-53918809D02*
X155742295Y-53842618D01*
X156542295Y-52737857D02*
X156542295Y-53195000D01*
X156542295Y-52966428D02*
X155742295Y-52966428D01*
X155742295Y-52966428D02*
X155856580Y-53042619D01*
X155856580Y-53042619D02*
X155932771Y-53118809D01*
X155932771Y-53118809D02*
X155970866Y-53195000D01*
X155742295Y-52471190D02*
X155742295Y-51975952D01*
X155742295Y-51975952D02*
X156047057Y-52242618D01*
X156047057Y-52242618D02*
X156047057Y-52128333D01*
X156047057Y-52128333D02*
X156085152Y-52052142D01*
X156085152Y-52052142D02*
X156123247Y-52014047D01*
X156123247Y-52014047D02*
X156199438Y-51975952D01*
X156199438Y-51975952D02*
X156389914Y-51975952D01*
X156389914Y-51975952D02*
X156466104Y-52014047D01*
X156466104Y-52014047D02*
X156504200Y-52052142D01*
X156504200Y-52052142D02*
X156542295Y-52128333D01*
X156542295Y-52128333D02*
X156542295Y-52356904D01*
X156542295Y-52356904D02*
X156504200Y-52433095D01*
X156504200Y-52433095D02*
X156466104Y-52471190D01*
X132920390Y-70415952D02*
X132882295Y-70492142D01*
X132882295Y-70492142D02*
X132882295Y-70606428D01*
X132882295Y-70606428D02*
X132920390Y-70720714D01*
X132920390Y-70720714D02*
X132996580Y-70796904D01*
X132996580Y-70796904D02*
X133072771Y-70834999D01*
X133072771Y-70834999D02*
X133225152Y-70873095D01*
X133225152Y-70873095D02*
X133339438Y-70873095D01*
X133339438Y-70873095D02*
X133491819Y-70834999D01*
X133491819Y-70834999D02*
X133568009Y-70796904D01*
X133568009Y-70796904D02*
X133644200Y-70720714D01*
X133644200Y-70720714D02*
X133682295Y-70606428D01*
X133682295Y-70606428D02*
X133682295Y-70530237D01*
X133682295Y-70530237D02*
X133644200Y-70415952D01*
X133644200Y-70415952D02*
X133606104Y-70377856D01*
X133606104Y-70377856D02*
X133339438Y-70377856D01*
X133339438Y-70377856D02*
X133339438Y-70530237D01*
X133682295Y-70034999D02*
X132882295Y-70034999D01*
X132882295Y-70034999D02*
X132882295Y-69730237D01*
X132882295Y-69730237D02*
X132920390Y-69654047D01*
X132920390Y-69654047D02*
X132958485Y-69615952D01*
X132958485Y-69615952D02*
X133034676Y-69577856D01*
X133034676Y-69577856D02*
X133148961Y-69577856D01*
X133148961Y-69577856D02*
X133225152Y-69615952D01*
X133225152Y-69615952D02*
X133263247Y-69654047D01*
X133263247Y-69654047D02*
X133301342Y-69730237D01*
X133301342Y-69730237D02*
X133301342Y-70034999D01*
X133682295Y-69234999D02*
X132882295Y-69234999D01*
X132882295Y-68701666D02*
X132882295Y-68549285D01*
X132882295Y-68549285D02*
X132920390Y-68473095D01*
X132920390Y-68473095D02*
X132996580Y-68396904D01*
X132996580Y-68396904D02*
X133148961Y-68358809D01*
X133148961Y-68358809D02*
X133415628Y-68358809D01*
X133415628Y-68358809D02*
X133568009Y-68396904D01*
X133568009Y-68396904D02*
X133644200Y-68473095D01*
X133644200Y-68473095D02*
X133682295Y-68549285D01*
X133682295Y-68549285D02*
X133682295Y-68701666D01*
X133682295Y-68701666D02*
X133644200Y-68777857D01*
X133644200Y-68777857D02*
X133568009Y-68854047D01*
X133568009Y-68854047D02*
X133415628Y-68892143D01*
X133415628Y-68892143D02*
X133148961Y-68892143D01*
X133148961Y-68892143D02*
X132996580Y-68854047D01*
X132996580Y-68854047D02*
X132920390Y-68777857D01*
X132920390Y-68777857D02*
X132882295Y-68701666D01*
X132882295Y-67863571D02*
X132882295Y-67787381D01*
X132882295Y-67787381D02*
X132920390Y-67711190D01*
X132920390Y-67711190D02*
X132958485Y-67673095D01*
X132958485Y-67673095D02*
X133034676Y-67635000D01*
X133034676Y-67635000D02*
X133187057Y-67596905D01*
X133187057Y-67596905D02*
X133377533Y-67596905D01*
X133377533Y-67596905D02*
X133529914Y-67635000D01*
X133529914Y-67635000D02*
X133606104Y-67673095D01*
X133606104Y-67673095D02*
X133644200Y-67711190D01*
X133644200Y-67711190D02*
X133682295Y-67787381D01*
X133682295Y-67787381D02*
X133682295Y-67863571D01*
X133682295Y-67863571D02*
X133644200Y-67939762D01*
X133644200Y-67939762D02*
X133606104Y-67977857D01*
X133606104Y-67977857D02*
X133529914Y-68015952D01*
X133529914Y-68015952D02*
X133377533Y-68054048D01*
X133377533Y-68054048D02*
X133187057Y-68054048D01*
X133187057Y-68054048D02*
X133034676Y-68015952D01*
X133034676Y-68015952D02*
X132958485Y-67977857D01*
X132958485Y-67977857D02*
X132920390Y-67939762D01*
X132920390Y-67939762D02*
X132882295Y-67863571D01*
X117642295Y-54985476D02*
X117642295Y-54490238D01*
X117642295Y-54490238D02*
X117947057Y-54756904D01*
X117947057Y-54756904D02*
X117947057Y-54642619D01*
X117947057Y-54642619D02*
X117985152Y-54566428D01*
X117985152Y-54566428D02*
X118023247Y-54528333D01*
X118023247Y-54528333D02*
X118099438Y-54490238D01*
X118099438Y-54490238D02*
X118289914Y-54490238D01*
X118289914Y-54490238D02*
X118366104Y-54528333D01*
X118366104Y-54528333D02*
X118404200Y-54566428D01*
X118404200Y-54566428D02*
X118442295Y-54642619D01*
X118442295Y-54642619D02*
X118442295Y-54871190D01*
X118442295Y-54871190D02*
X118404200Y-54947381D01*
X118404200Y-54947381D02*
X118366104Y-54985476D01*
X117642295Y-54261666D02*
X118442295Y-53994999D01*
X118442295Y-53994999D02*
X117642295Y-53728333D01*
X117642295Y-53537857D02*
X117642295Y-53042619D01*
X117642295Y-53042619D02*
X117947057Y-53309285D01*
X117947057Y-53309285D02*
X117947057Y-53195000D01*
X117947057Y-53195000D02*
X117985152Y-53118809D01*
X117985152Y-53118809D02*
X118023247Y-53080714D01*
X118023247Y-53080714D02*
X118099438Y-53042619D01*
X118099438Y-53042619D02*
X118289914Y-53042619D01*
X118289914Y-53042619D02*
X118366104Y-53080714D01*
X118366104Y-53080714D02*
X118404200Y-53118809D01*
X118404200Y-53118809D02*
X118442295Y-53195000D01*
X118442295Y-53195000D02*
X118442295Y-53423571D01*
X118442295Y-53423571D02*
X118404200Y-53499762D01*
X118404200Y-53499762D02*
X118366104Y-53537857D01*
X120182295Y-54985476D02*
X120182295Y-54490238D01*
X120182295Y-54490238D02*
X120487057Y-54756904D01*
X120487057Y-54756904D02*
X120487057Y-54642619D01*
X120487057Y-54642619D02*
X120525152Y-54566428D01*
X120525152Y-54566428D02*
X120563247Y-54528333D01*
X120563247Y-54528333D02*
X120639438Y-54490238D01*
X120639438Y-54490238D02*
X120829914Y-54490238D01*
X120829914Y-54490238D02*
X120906104Y-54528333D01*
X120906104Y-54528333D02*
X120944200Y-54566428D01*
X120944200Y-54566428D02*
X120982295Y-54642619D01*
X120982295Y-54642619D02*
X120982295Y-54871190D01*
X120982295Y-54871190D02*
X120944200Y-54947381D01*
X120944200Y-54947381D02*
X120906104Y-54985476D01*
X120182295Y-54261666D02*
X120982295Y-53994999D01*
X120982295Y-53994999D02*
X120182295Y-53728333D01*
X120182295Y-53537857D02*
X120182295Y-53042619D01*
X120182295Y-53042619D02*
X120487057Y-53309285D01*
X120487057Y-53309285D02*
X120487057Y-53195000D01*
X120487057Y-53195000D02*
X120525152Y-53118809D01*
X120525152Y-53118809D02*
X120563247Y-53080714D01*
X120563247Y-53080714D02*
X120639438Y-53042619D01*
X120639438Y-53042619D02*
X120829914Y-53042619D01*
X120829914Y-53042619D02*
X120906104Y-53080714D01*
X120906104Y-53080714D02*
X120944200Y-53118809D01*
X120944200Y-53118809D02*
X120982295Y-53195000D01*
X120982295Y-53195000D02*
X120982295Y-53423571D01*
X120982295Y-53423571D02*
X120944200Y-53499762D01*
X120944200Y-53499762D02*
X120906104Y-53537857D01*
X120182295Y-70396904D02*
X120982295Y-70130237D01*
X120982295Y-70130237D02*
X120182295Y-69863571D01*
X120944200Y-69292142D02*
X120982295Y-69368333D01*
X120982295Y-69368333D02*
X120982295Y-69520714D01*
X120982295Y-69520714D02*
X120944200Y-69596904D01*
X120944200Y-69596904D02*
X120868009Y-69635000D01*
X120868009Y-69635000D02*
X120563247Y-69635000D01*
X120563247Y-69635000D02*
X120487057Y-69596904D01*
X120487057Y-69596904D02*
X120448961Y-69520714D01*
X120448961Y-69520714D02*
X120448961Y-69368333D01*
X120448961Y-69368333D02*
X120487057Y-69292142D01*
X120487057Y-69292142D02*
X120563247Y-69254047D01*
X120563247Y-69254047D02*
X120639438Y-69254047D01*
X120639438Y-69254047D02*
X120715628Y-69635000D01*
X120982295Y-68987381D02*
X120448961Y-68568333D01*
X120448961Y-68987381D02*
X120982295Y-68568333D01*
X120448961Y-68377857D02*
X120448961Y-68073095D01*
X120182295Y-68263571D02*
X120868009Y-68263571D01*
X120868009Y-68263571D02*
X120944200Y-68225476D01*
X120944200Y-68225476D02*
X120982295Y-68149286D01*
X120982295Y-68149286D02*
X120982295Y-68073095D01*
X138000390Y-55556904D02*
X137962295Y-55633094D01*
X137962295Y-55633094D02*
X137962295Y-55747380D01*
X137962295Y-55747380D02*
X138000390Y-55861666D01*
X138000390Y-55861666D02*
X138076580Y-55937856D01*
X138076580Y-55937856D02*
X138152771Y-55975951D01*
X138152771Y-55975951D02*
X138305152Y-56014047D01*
X138305152Y-56014047D02*
X138419438Y-56014047D01*
X138419438Y-56014047D02*
X138571819Y-55975951D01*
X138571819Y-55975951D02*
X138648009Y-55937856D01*
X138648009Y-55937856D02*
X138724200Y-55861666D01*
X138724200Y-55861666D02*
X138762295Y-55747380D01*
X138762295Y-55747380D02*
X138762295Y-55671189D01*
X138762295Y-55671189D02*
X138724200Y-55556904D01*
X138724200Y-55556904D02*
X138686104Y-55518808D01*
X138686104Y-55518808D02*
X138419438Y-55518808D01*
X138419438Y-55518808D02*
X138419438Y-55671189D01*
X138762295Y-55175951D02*
X137962295Y-55175951D01*
X137962295Y-55175951D02*
X137962295Y-54871189D01*
X137962295Y-54871189D02*
X138000390Y-54794999D01*
X138000390Y-54794999D02*
X138038485Y-54756904D01*
X138038485Y-54756904D02*
X138114676Y-54718808D01*
X138114676Y-54718808D02*
X138228961Y-54718808D01*
X138228961Y-54718808D02*
X138305152Y-54756904D01*
X138305152Y-54756904D02*
X138343247Y-54794999D01*
X138343247Y-54794999D02*
X138381342Y-54871189D01*
X138381342Y-54871189D02*
X138381342Y-55175951D01*
X138762295Y-54375951D02*
X137962295Y-54375951D01*
X137962295Y-53842618D02*
X137962295Y-53690237D01*
X137962295Y-53690237D02*
X138000390Y-53614047D01*
X138000390Y-53614047D02*
X138076580Y-53537856D01*
X138076580Y-53537856D02*
X138228961Y-53499761D01*
X138228961Y-53499761D02*
X138495628Y-53499761D01*
X138495628Y-53499761D02*
X138648009Y-53537856D01*
X138648009Y-53537856D02*
X138724200Y-53614047D01*
X138724200Y-53614047D02*
X138762295Y-53690237D01*
X138762295Y-53690237D02*
X138762295Y-53842618D01*
X138762295Y-53842618D02*
X138724200Y-53918809D01*
X138724200Y-53918809D02*
X138648009Y-53994999D01*
X138648009Y-53994999D02*
X138495628Y-54033095D01*
X138495628Y-54033095D02*
X138228961Y-54033095D01*
X138228961Y-54033095D02*
X138076580Y-53994999D01*
X138076580Y-53994999D02*
X138000390Y-53918809D01*
X138000390Y-53918809D02*
X137962295Y-53842618D01*
X137962295Y-53233095D02*
X137962295Y-52737857D01*
X137962295Y-52737857D02*
X138267057Y-53004523D01*
X138267057Y-53004523D02*
X138267057Y-52890238D01*
X138267057Y-52890238D02*
X138305152Y-52814047D01*
X138305152Y-52814047D02*
X138343247Y-52775952D01*
X138343247Y-52775952D02*
X138419438Y-52737857D01*
X138419438Y-52737857D02*
X138609914Y-52737857D01*
X138609914Y-52737857D02*
X138686104Y-52775952D01*
X138686104Y-52775952D02*
X138724200Y-52814047D01*
X138724200Y-52814047D02*
X138762295Y-52890238D01*
X138762295Y-52890238D02*
X138762295Y-53118809D01*
X138762295Y-53118809D02*
X138724200Y-53195000D01*
X138724200Y-53195000D02*
X138686104Y-53233095D01*
X138038485Y-52433095D02*
X138000390Y-52394999D01*
X138000390Y-52394999D02*
X137962295Y-52318809D01*
X137962295Y-52318809D02*
X137962295Y-52128333D01*
X137962295Y-52128333D02*
X138000390Y-52052142D01*
X138000390Y-52052142D02*
X138038485Y-52014047D01*
X138038485Y-52014047D02*
X138114676Y-51975952D01*
X138114676Y-51975952D02*
X138190866Y-51975952D01*
X138190866Y-51975952D02*
X138305152Y-52014047D01*
X138305152Y-52014047D02*
X138762295Y-52471190D01*
X138762295Y-52471190D02*
X138762295Y-51975952D01*
X125300390Y-55556904D02*
X125262295Y-55633094D01*
X125262295Y-55633094D02*
X125262295Y-55747380D01*
X125262295Y-55747380D02*
X125300390Y-55861666D01*
X125300390Y-55861666D02*
X125376580Y-55937856D01*
X125376580Y-55937856D02*
X125452771Y-55975951D01*
X125452771Y-55975951D02*
X125605152Y-56014047D01*
X125605152Y-56014047D02*
X125719438Y-56014047D01*
X125719438Y-56014047D02*
X125871819Y-55975951D01*
X125871819Y-55975951D02*
X125948009Y-55937856D01*
X125948009Y-55937856D02*
X126024200Y-55861666D01*
X126024200Y-55861666D02*
X126062295Y-55747380D01*
X126062295Y-55747380D02*
X126062295Y-55671189D01*
X126062295Y-55671189D02*
X126024200Y-55556904D01*
X126024200Y-55556904D02*
X125986104Y-55518808D01*
X125986104Y-55518808D02*
X125719438Y-55518808D01*
X125719438Y-55518808D02*
X125719438Y-55671189D01*
X126062295Y-55175951D02*
X125262295Y-55175951D01*
X125262295Y-55175951D02*
X125262295Y-54871189D01*
X125262295Y-54871189D02*
X125300390Y-54794999D01*
X125300390Y-54794999D02*
X125338485Y-54756904D01*
X125338485Y-54756904D02*
X125414676Y-54718808D01*
X125414676Y-54718808D02*
X125528961Y-54718808D01*
X125528961Y-54718808D02*
X125605152Y-54756904D01*
X125605152Y-54756904D02*
X125643247Y-54794999D01*
X125643247Y-54794999D02*
X125681342Y-54871189D01*
X125681342Y-54871189D02*
X125681342Y-55175951D01*
X126062295Y-54375951D02*
X125262295Y-54375951D01*
X125262295Y-53842618D02*
X125262295Y-53690237D01*
X125262295Y-53690237D02*
X125300390Y-53614047D01*
X125300390Y-53614047D02*
X125376580Y-53537856D01*
X125376580Y-53537856D02*
X125528961Y-53499761D01*
X125528961Y-53499761D02*
X125795628Y-53499761D01*
X125795628Y-53499761D02*
X125948009Y-53537856D01*
X125948009Y-53537856D02*
X126024200Y-53614047D01*
X126024200Y-53614047D02*
X126062295Y-53690237D01*
X126062295Y-53690237D02*
X126062295Y-53842618D01*
X126062295Y-53842618D02*
X126024200Y-53918809D01*
X126024200Y-53918809D02*
X125948009Y-53994999D01*
X125948009Y-53994999D02*
X125795628Y-54033095D01*
X125795628Y-54033095D02*
X125528961Y-54033095D01*
X125528961Y-54033095D02*
X125376580Y-53994999D01*
X125376580Y-53994999D02*
X125300390Y-53918809D01*
X125300390Y-53918809D02*
X125262295Y-53842618D01*
X125262295Y-53233095D02*
X125262295Y-52737857D01*
X125262295Y-52737857D02*
X125567057Y-53004523D01*
X125567057Y-53004523D02*
X125567057Y-52890238D01*
X125567057Y-52890238D02*
X125605152Y-52814047D01*
X125605152Y-52814047D02*
X125643247Y-52775952D01*
X125643247Y-52775952D02*
X125719438Y-52737857D01*
X125719438Y-52737857D02*
X125909914Y-52737857D01*
X125909914Y-52737857D02*
X125986104Y-52775952D01*
X125986104Y-52775952D02*
X126024200Y-52814047D01*
X126024200Y-52814047D02*
X126062295Y-52890238D01*
X126062295Y-52890238D02*
X126062295Y-53118809D01*
X126062295Y-53118809D02*
X126024200Y-53195000D01*
X126024200Y-53195000D02*
X125986104Y-53233095D01*
X125262295Y-52471190D02*
X125262295Y-51937856D01*
X125262295Y-51937856D02*
X126062295Y-52280714D01*
X117642295Y-69387380D02*
X117642295Y-69768332D01*
X117642295Y-69768332D02*
X118023247Y-69806428D01*
X118023247Y-69806428D02*
X117985152Y-69768332D01*
X117985152Y-69768332D02*
X117947057Y-69692142D01*
X117947057Y-69692142D02*
X117947057Y-69501666D01*
X117947057Y-69501666D02*
X117985152Y-69425475D01*
X117985152Y-69425475D02*
X118023247Y-69387380D01*
X118023247Y-69387380D02*
X118099438Y-69349285D01*
X118099438Y-69349285D02*
X118289914Y-69349285D01*
X118289914Y-69349285D02*
X118366104Y-69387380D01*
X118366104Y-69387380D02*
X118404200Y-69425475D01*
X118404200Y-69425475D02*
X118442295Y-69501666D01*
X118442295Y-69501666D02*
X118442295Y-69692142D01*
X118442295Y-69692142D02*
X118404200Y-69768332D01*
X118404200Y-69768332D02*
X118366104Y-69806428D01*
X117642295Y-69120713D02*
X118442295Y-68854046D01*
X118442295Y-68854046D02*
X117642295Y-68587380D01*
X132920390Y-55556904D02*
X132882295Y-55633094D01*
X132882295Y-55633094D02*
X132882295Y-55747380D01*
X132882295Y-55747380D02*
X132920390Y-55861666D01*
X132920390Y-55861666D02*
X132996580Y-55937856D01*
X132996580Y-55937856D02*
X133072771Y-55975951D01*
X133072771Y-55975951D02*
X133225152Y-56014047D01*
X133225152Y-56014047D02*
X133339438Y-56014047D01*
X133339438Y-56014047D02*
X133491819Y-55975951D01*
X133491819Y-55975951D02*
X133568009Y-55937856D01*
X133568009Y-55937856D02*
X133644200Y-55861666D01*
X133644200Y-55861666D02*
X133682295Y-55747380D01*
X133682295Y-55747380D02*
X133682295Y-55671189D01*
X133682295Y-55671189D02*
X133644200Y-55556904D01*
X133644200Y-55556904D02*
X133606104Y-55518808D01*
X133606104Y-55518808D02*
X133339438Y-55518808D01*
X133339438Y-55518808D02*
X133339438Y-55671189D01*
X133682295Y-55175951D02*
X132882295Y-55175951D01*
X132882295Y-55175951D02*
X132882295Y-54871189D01*
X132882295Y-54871189D02*
X132920390Y-54794999D01*
X132920390Y-54794999D02*
X132958485Y-54756904D01*
X132958485Y-54756904D02*
X133034676Y-54718808D01*
X133034676Y-54718808D02*
X133148961Y-54718808D01*
X133148961Y-54718808D02*
X133225152Y-54756904D01*
X133225152Y-54756904D02*
X133263247Y-54794999D01*
X133263247Y-54794999D02*
X133301342Y-54871189D01*
X133301342Y-54871189D02*
X133301342Y-55175951D01*
X133682295Y-54375951D02*
X132882295Y-54375951D01*
X132882295Y-53842618D02*
X132882295Y-53690237D01*
X132882295Y-53690237D02*
X132920390Y-53614047D01*
X132920390Y-53614047D02*
X132996580Y-53537856D01*
X132996580Y-53537856D02*
X133148961Y-53499761D01*
X133148961Y-53499761D02*
X133415628Y-53499761D01*
X133415628Y-53499761D02*
X133568009Y-53537856D01*
X133568009Y-53537856D02*
X133644200Y-53614047D01*
X133644200Y-53614047D02*
X133682295Y-53690237D01*
X133682295Y-53690237D02*
X133682295Y-53842618D01*
X133682295Y-53842618D02*
X133644200Y-53918809D01*
X133644200Y-53918809D02*
X133568009Y-53994999D01*
X133568009Y-53994999D02*
X133415628Y-54033095D01*
X133415628Y-54033095D02*
X133148961Y-54033095D01*
X133148961Y-54033095D02*
X132996580Y-53994999D01*
X132996580Y-53994999D02*
X132920390Y-53918809D01*
X132920390Y-53918809D02*
X132882295Y-53842618D01*
X132882295Y-53233095D02*
X132882295Y-52737857D01*
X132882295Y-52737857D02*
X133187057Y-53004523D01*
X133187057Y-53004523D02*
X133187057Y-52890238D01*
X133187057Y-52890238D02*
X133225152Y-52814047D01*
X133225152Y-52814047D02*
X133263247Y-52775952D01*
X133263247Y-52775952D02*
X133339438Y-52737857D01*
X133339438Y-52737857D02*
X133529914Y-52737857D01*
X133529914Y-52737857D02*
X133606104Y-52775952D01*
X133606104Y-52775952D02*
X133644200Y-52814047D01*
X133644200Y-52814047D02*
X133682295Y-52890238D01*
X133682295Y-52890238D02*
X133682295Y-53118809D01*
X133682295Y-53118809D02*
X133644200Y-53195000D01*
X133644200Y-53195000D02*
X133606104Y-53233095D01*
X133148961Y-52052142D02*
X133682295Y-52052142D01*
X132844200Y-52242618D02*
X133415628Y-52433095D01*
X133415628Y-52433095D02*
X133415628Y-51937856D01*
X131142295Y-69673094D02*
X130761342Y-69939761D01*
X131142295Y-70130237D02*
X130342295Y-70130237D01*
X130342295Y-70130237D02*
X130342295Y-69825475D01*
X130342295Y-69825475D02*
X130380390Y-69749285D01*
X130380390Y-69749285D02*
X130418485Y-69711190D01*
X130418485Y-69711190D02*
X130494676Y-69673094D01*
X130494676Y-69673094D02*
X130608961Y-69673094D01*
X130608961Y-69673094D02*
X130685152Y-69711190D01*
X130685152Y-69711190D02*
X130723247Y-69749285D01*
X130723247Y-69749285D02*
X130761342Y-69825475D01*
X130761342Y-69825475D02*
X130761342Y-70130237D01*
X131104200Y-69368333D02*
X131142295Y-69254047D01*
X131142295Y-69254047D02*
X131142295Y-69063571D01*
X131142295Y-69063571D02*
X131104200Y-68987380D01*
X131104200Y-68987380D02*
X131066104Y-68949285D01*
X131066104Y-68949285D02*
X130989914Y-68911190D01*
X130989914Y-68911190D02*
X130913723Y-68911190D01*
X130913723Y-68911190D02*
X130837533Y-68949285D01*
X130837533Y-68949285D02*
X130799438Y-68987380D01*
X130799438Y-68987380D02*
X130761342Y-69063571D01*
X130761342Y-69063571D02*
X130723247Y-69215952D01*
X130723247Y-69215952D02*
X130685152Y-69292142D01*
X130685152Y-69292142D02*
X130647057Y-69330237D01*
X130647057Y-69330237D02*
X130570866Y-69368333D01*
X130570866Y-69368333D02*
X130494676Y-69368333D01*
X130494676Y-69368333D02*
X130418485Y-69330237D01*
X130418485Y-69330237D02*
X130380390Y-69292142D01*
X130380390Y-69292142D02*
X130342295Y-69215952D01*
X130342295Y-69215952D02*
X130342295Y-69025475D01*
X130342295Y-69025475D02*
X130380390Y-68911190D01*
X130342295Y-68682618D02*
X130342295Y-68225475D01*
X131142295Y-68454047D02*
X130342295Y-68454047D01*
X125300390Y-70415952D02*
X125262295Y-70492142D01*
X125262295Y-70492142D02*
X125262295Y-70606428D01*
X125262295Y-70606428D02*
X125300390Y-70720714D01*
X125300390Y-70720714D02*
X125376580Y-70796904D01*
X125376580Y-70796904D02*
X125452771Y-70834999D01*
X125452771Y-70834999D02*
X125605152Y-70873095D01*
X125605152Y-70873095D02*
X125719438Y-70873095D01*
X125719438Y-70873095D02*
X125871819Y-70834999D01*
X125871819Y-70834999D02*
X125948009Y-70796904D01*
X125948009Y-70796904D02*
X126024200Y-70720714D01*
X126024200Y-70720714D02*
X126062295Y-70606428D01*
X126062295Y-70606428D02*
X126062295Y-70530237D01*
X126062295Y-70530237D02*
X126024200Y-70415952D01*
X126024200Y-70415952D02*
X125986104Y-70377856D01*
X125986104Y-70377856D02*
X125719438Y-70377856D01*
X125719438Y-70377856D02*
X125719438Y-70530237D01*
X126062295Y-70034999D02*
X125262295Y-70034999D01*
X125262295Y-70034999D02*
X125262295Y-69730237D01*
X125262295Y-69730237D02*
X125300390Y-69654047D01*
X125300390Y-69654047D02*
X125338485Y-69615952D01*
X125338485Y-69615952D02*
X125414676Y-69577856D01*
X125414676Y-69577856D02*
X125528961Y-69577856D01*
X125528961Y-69577856D02*
X125605152Y-69615952D01*
X125605152Y-69615952D02*
X125643247Y-69654047D01*
X125643247Y-69654047D02*
X125681342Y-69730237D01*
X125681342Y-69730237D02*
X125681342Y-70034999D01*
X126062295Y-69234999D02*
X125262295Y-69234999D01*
X125262295Y-68701666D02*
X125262295Y-68549285D01*
X125262295Y-68549285D02*
X125300390Y-68473095D01*
X125300390Y-68473095D02*
X125376580Y-68396904D01*
X125376580Y-68396904D02*
X125528961Y-68358809D01*
X125528961Y-68358809D02*
X125795628Y-68358809D01*
X125795628Y-68358809D02*
X125948009Y-68396904D01*
X125948009Y-68396904D02*
X126024200Y-68473095D01*
X126024200Y-68473095D02*
X126062295Y-68549285D01*
X126062295Y-68549285D02*
X126062295Y-68701666D01*
X126062295Y-68701666D02*
X126024200Y-68777857D01*
X126024200Y-68777857D02*
X125948009Y-68854047D01*
X125948009Y-68854047D02*
X125795628Y-68892143D01*
X125795628Y-68892143D02*
X125528961Y-68892143D01*
X125528961Y-68892143D02*
X125376580Y-68854047D01*
X125376580Y-68854047D02*
X125300390Y-68777857D01*
X125300390Y-68777857D02*
X125262295Y-68701666D01*
X125262295Y-68092143D02*
X125262295Y-67596905D01*
X125262295Y-67596905D02*
X125567057Y-67863571D01*
X125567057Y-67863571D02*
X125567057Y-67749286D01*
X125567057Y-67749286D02*
X125605152Y-67673095D01*
X125605152Y-67673095D02*
X125643247Y-67635000D01*
X125643247Y-67635000D02*
X125719438Y-67596905D01*
X125719438Y-67596905D02*
X125909914Y-67596905D01*
X125909914Y-67596905D02*
X125986104Y-67635000D01*
X125986104Y-67635000D02*
X126024200Y-67673095D01*
X126024200Y-67673095D02*
X126062295Y-67749286D01*
X126062295Y-67749286D02*
X126062295Y-67977857D01*
X126062295Y-67977857D02*
X126024200Y-68054048D01*
X126024200Y-68054048D02*
X125986104Y-68092143D01*
X140540390Y-55556904D02*
X140502295Y-55633094D01*
X140502295Y-55633094D02*
X140502295Y-55747380D01*
X140502295Y-55747380D02*
X140540390Y-55861666D01*
X140540390Y-55861666D02*
X140616580Y-55937856D01*
X140616580Y-55937856D02*
X140692771Y-55975951D01*
X140692771Y-55975951D02*
X140845152Y-56014047D01*
X140845152Y-56014047D02*
X140959438Y-56014047D01*
X140959438Y-56014047D02*
X141111819Y-55975951D01*
X141111819Y-55975951D02*
X141188009Y-55937856D01*
X141188009Y-55937856D02*
X141264200Y-55861666D01*
X141264200Y-55861666D02*
X141302295Y-55747380D01*
X141302295Y-55747380D02*
X141302295Y-55671189D01*
X141302295Y-55671189D02*
X141264200Y-55556904D01*
X141264200Y-55556904D02*
X141226104Y-55518808D01*
X141226104Y-55518808D02*
X140959438Y-55518808D01*
X140959438Y-55518808D02*
X140959438Y-55671189D01*
X141302295Y-55175951D02*
X140502295Y-55175951D01*
X140502295Y-55175951D02*
X140502295Y-54871189D01*
X140502295Y-54871189D02*
X140540390Y-54794999D01*
X140540390Y-54794999D02*
X140578485Y-54756904D01*
X140578485Y-54756904D02*
X140654676Y-54718808D01*
X140654676Y-54718808D02*
X140768961Y-54718808D01*
X140768961Y-54718808D02*
X140845152Y-54756904D01*
X140845152Y-54756904D02*
X140883247Y-54794999D01*
X140883247Y-54794999D02*
X140921342Y-54871189D01*
X140921342Y-54871189D02*
X140921342Y-55175951D01*
X141302295Y-54375951D02*
X140502295Y-54375951D01*
X140502295Y-53842618D02*
X140502295Y-53690237D01*
X140502295Y-53690237D02*
X140540390Y-53614047D01*
X140540390Y-53614047D02*
X140616580Y-53537856D01*
X140616580Y-53537856D02*
X140768961Y-53499761D01*
X140768961Y-53499761D02*
X141035628Y-53499761D01*
X141035628Y-53499761D02*
X141188009Y-53537856D01*
X141188009Y-53537856D02*
X141264200Y-53614047D01*
X141264200Y-53614047D02*
X141302295Y-53690237D01*
X141302295Y-53690237D02*
X141302295Y-53842618D01*
X141302295Y-53842618D02*
X141264200Y-53918809D01*
X141264200Y-53918809D02*
X141188009Y-53994999D01*
X141188009Y-53994999D02*
X141035628Y-54033095D01*
X141035628Y-54033095D02*
X140768961Y-54033095D01*
X140768961Y-54033095D02*
X140616580Y-53994999D01*
X140616580Y-53994999D02*
X140540390Y-53918809D01*
X140540390Y-53918809D02*
X140502295Y-53842618D01*
X140502295Y-53233095D02*
X140502295Y-52737857D01*
X140502295Y-52737857D02*
X140807057Y-53004523D01*
X140807057Y-53004523D02*
X140807057Y-52890238D01*
X140807057Y-52890238D02*
X140845152Y-52814047D01*
X140845152Y-52814047D02*
X140883247Y-52775952D01*
X140883247Y-52775952D02*
X140959438Y-52737857D01*
X140959438Y-52737857D02*
X141149914Y-52737857D01*
X141149914Y-52737857D02*
X141226104Y-52775952D01*
X141226104Y-52775952D02*
X141264200Y-52814047D01*
X141264200Y-52814047D02*
X141302295Y-52890238D01*
X141302295Y-52890238D02*
X141302295Y-53118809D01*
X141302295Y-53118809D02*
X141264200Y-53195000D01*
X141264200Y-53195000D02*
X141226104Y-53233095D01*
X140502295Y-52471190D02*
X140502295Y-51975952D01*
X140502295Y-51975952D02*
X140807057Y-52242618D01*
X140807057Y-52242618D02*
X140807057Y-52128333D01*
X140807057Y-52128333D02*
X140845152Y-52052142D01*
X140845152Y-52052142D02*
X140883247Y-52014047D01*
X140883247Y-52014047D02*
X140959438Y-51975952D01*
X140959438Y-51975952D02*
X141149914Y-51975952D01*
X141149914Y-51975952D02*
X141226104Y-52014047D01*
X141226104Y-52014047D02*
X141264200Y-52052142D01*
X141264200Y-52052142D02*
X141302295Y-52128333D01*
X141302295Y-52128333D02*
X141302295Y-52356904D01*
X141302295Y-52356904D02*
X141264200Y-52433095D01*
X141264200Y-52433095D02*
X141226104Y-52471190D01*
X115140390Y-54604523D02*
X115102295Y-54680713D01*
X115102295Y-54680713D02*
X115102295Y-54794999D01*
X115102295Y-54794999D02*
X115140390Y-54909285D01*
X115140390Y-54909285D02*
X115216580Y-54985475D01*
X115216580Y-54985475D02*
X115292771Y-55023570D01*
X115292771Y-55023570D02*
X115445152Y-55061666D01*
X115445152Y-55061666D02*
X115559438Y-55061666D01*
X115559438Y-55061666D02*
X115711819Y-55023570D01*
X115711819Y-55023570D02*
X115788009Y-54985475D01*
X115788009Y-54985475D02*
X115864200Y-54909285D01*
X115864200Y-54909285D02*
X115902295Y-54794999D01*
X115902295Y-54794999D02*
X115902295Y-54718808D01*
X115902295Y-54718808D02*
X115864200Y-54604523D01*
X115864200Y-54604523D02*
X115826104Y-54566427D01*
X115826104Y-54566427D02*
X115559438Y-54566427D01*
X115559438Y-54566427D02*
X115559438Y-54718808D01*
X115902295Y-54223570D02*
X115102295Y-54223570D01*
X115102295Y-54223570D02*
X115902295Y-53766427D01*
X115902295Y-53766427D02*
X115102295Y-53766427D01*
X115902295Y-53385475D02*
X115102295Y-53385475D01*
X115102295Y-53385475D02*
X115102295Y-53194999D01*
X115102295Y-53194999D02*
X115140390Y-53080713D01*
X115140390Y-53080713D02*
X115216580Y-53004523D01*
X115216580Y-53004523D02*
X115292771Y-52966428D01*
X115292771Y-52966428D02*
X115445152Y-52928332D01*
X115445152Y-52928332D02*
X115559438Y-52928332D01*
X115559438Y-52928332D02*
X115711819Y-52966428D01*
X115711819Y-52966428D02*
X115788009Y-53004523D01*
X115788009Y-53004523D02*
X115864200Y-53080713D01*
X115864200Y-53080713D02*
X115902295Y-53194999D01*
X115902295Y-53194999D02*
X115902295Y-53385475D01*
X145620390Y-55556904D02*
X145582295Y-55633094D01*
X145582295Y-55633094D02*
X145582295Y-55747380D01*
X145582295Y-55747380D02*
X145620390Y-55861666D01*
X145620390Y-55861666D02*
X145696580Y-55937856D01*
X145696580Y-55937856D02*
X145772771Y-55975951D01*
X145772771Y-55975951D02*
X145925152Y-56014047D01*
X145925152Y-56014047D02*
X146039438Y-56014047D01*
X146039438Y-56014047D02*
X146191819Y-55975951D01*
X146191819Y-55975951D02*
X146268009Y-55937856D01*
X146268009Y-55937856D02*
X146344200Y-55861666D01*
X146344200Y-55861666D02*
X146382295Y-55747380D01*
X146382295Y-55747380D02*
X146382295Y-55671189D01*
X146382295Y-55671189D02*
X146344200Y-55556904D01*
X146344200Y-55556904D02*
X146306104Y-55518808D01*
X146306104Y-55518808D02*
X146039438Y-55518808D01*
X146039438Y-55518808D02*
X146039438Y-55671189D01*
X146382295Y-55175951D02*
X145582295Y-55175951D01*
X145582295Y-55175951D02*
X145582295Y-54871189D01*
X145582295Y-54871189D02*
X145620390Y-54794999D01*
X145620390Y-54794999D02*
X145658485Y-54756904D01*
X145658485Y-54756904D02*
X145734676Y-54718808D01*
X145734676Y-54718808D02*
X145848961Y-54718808D01*
X145848961Y-54718808D02*
X145925152Y-54756904D01*
X145925152Y-54756904D02*
X145963247Y-54794999D01*
X145963247Y-54794999D02*
X146001342Y-54871189D01*
X146001342Y-54871189D02*
X146001342Y-55175951D01*
X146382295Y-54375951D02*
X145582295Y-54375951D01*
X145582295Y-53842618D02*
X145582295Y-53690237D01*
X145582295Y-53690237D02*
X145620390Y-53614047D01*
X145620390Y-53614047D02*
X145696580Y-53537856D01*
X145696580Y-53537856D02*
X145848961Y-53499761D01*
X145848961Y-53499761D02*
X146115628Y-53499761D01*
X146115628Y-53499761D02*
X146268009Y-53537856D01*
X146268009Y-53537856D02*
X146344200Y-53614047D01*
X146344200Y-53614047D02*
X146382295Y-53690237D01*
X146382295Y-53690237D02*
X146382295Y-53842618D01*
X146382295Y-53842618D02*
X146344200Y-53918809D01*
X146344200Y-53918809D02*
X146268009Y-53994999D01*
X146268009Y-53994999D02*
X146115628Y-54033095D01*
X146115628Y-54033095D02*
X145848961Y-54033095D01*
X145848961Y-54033095D02*
X145696580Y-53994999D01*
X145696580Y-53994999D02*
X145620390Y-53918809D01*
X145620390Y-53918809D02*
X145582295Y-53842618D01*
X145658485Y-53195000D02*
X145620390Y-53156904D01*
X145620390Y-53156904D02*
X145582295Y-53080714D01*
X145582295Y-53080714D02*
X145582295Y-52890238D01*
X145582295Y-52890238D02*
X145620390Y-52814047D01*
X145620390Y-52814047D02*
X145658485Y-52775952D01*
X145658485Y-52775952D02*
X145734676Y-52737857D01*
X145734676Y-52737857D02*
X145810866Y-52737857D01*
X145810866Y-52737857D02*
X145925152Y-52775952D01*
X145925152Y-52775952D02*
X146382295Y-53233095D01*
X146382295Y-53233095D02*
X146382295Y-52737857D01*
X145582295Y-52052142D02*
X145582295Y-52204523D01*
X145582295Y-52204523D02*
X145620390Y-52280714D01*
X145620390Y-52280714D02*
X145658485Y-52318809D01*
X145658485Y-52318809D02*
X145772771Y-52394999D01*
X145772771Y-52394999D02*
X145925152Y-52433095D01*
X145925152Y-52433095D02*
X146229914Y-52433095D01*
X146229914Y-52433095D02*
X146306104Y-52394999D01*
X146306104Y-52394999D02*
X146344200Y-52356904D01*
X146344200Y-52356904D02*
X146382295Y-52280714D01*
X146382295Y-52280714D02*
X146382295Y-52128333D01*
X146382295Y-52128333D02*
X146344200Y-52052142D01*
X146344200Y-52052142D02*
X146306104Y-52014047D01*
X146306104Y-52014047D02*
X146229914Y-51975952D01*
X146229914Y-51975952D02*
X146039438Y-51975952D01*
X146039438Y-51975952D02*
X145963247Y-52014047D01*
X145963247Y-52014047D02*
X145925152Y-52052142D01*
X145925152Y-52052142D02*
X145887057Y-52128333D01*
X145887057Y-52128333D02*
X145887057Y-52280714D01*
X145887057Y-52280714D02*
X145925152Y-52356904D01*
X145925152Y-52356904D02*
X145963247Y-52394999D01*
X145963247Y-52394999D02*
X146039438Y-52433095D01*
X122722295Y-70396904D02*
X123522295Y-70130237D01*
X123522295Y-70130237D02*
X122722295Y-69863571D01*
X123484200Y-69292142D02*
X123522295Y-69368333D01*
X123522295Y-69368333D02*
X123522295Y-69520714D01*
X123522295Y-69520714D02*
X123484200Y-69596904D01*
X123484200Y-69596904D02*
X123408009Y-69635000D01*
X123408009Y-69635000D02*
X123103247Y-69635000D01*
X123103247Y-69635000D02*
X123027057Y-69596904D01*
X123027057Y-69596904D02*
X122988961Y-69520714D01*
X122988961Y-69520714D02*
X122988961Y-69368333D01*
X122988961Y-69368333D02*
X123027057Y-69292142D01*
X123027057Y-69292142D02*
X123103247Y-69254047D01*
X123103247Y-69254047D02*
X123179438Y-69254047D01*
X123179438Y-69254047D02*
X123255628Y-69635000D01*
X123522295Y-68987381D02*
X122988961Y-68568333D01*
X122988961Y-68987381D02*
X123522295Y-68568333D01*
X122988961Y-68377857D02*
X122988961Y-68073095D01*
X122722295Y-68263571D02*
X123408009Y-68263571D01*
X123408009Y-68263571D02*
X123484200Y-68225476D01*
X123484200Y-68225476D02*
X123522295Y-68149286D01*
X123522295Y-68149286D02*
X123522295Y-68073095D01*
X143080390Y-70796904D02*
X143042295Y-70873094D01*
X143042295Y-70873094D02*
X143042295Y-70987380D01*
X143042295Y-70987380D02*
X143080390Y-71101666D01*
X143080390Y-71101666D02*
X143156580Y-71177856D01*
X143156580Y-71177856D02*
X143232771Y-71215951D01*
X143232771Y-71215951D02*
X143385152Y-71254047D01*
X143385152Y-71254047D02*
X143499438Y-71254047D01*
X143499438Y-71254047D02*
X143651819Y-71215951D01*
X143651819Y-71215951D02*
X143728009Y-71177856D01*
X143728009Y-71177856D02*
X143804200Y-71101666D01*
X143804200Y-71101666D02*
X143842295Y-70987380D01*
X143842295Y-70987380D02*
X143842295Y-70911189D01*
X143842295Y-70911189D02*
X143804200Y-70796904D01*
X143804200Y-70796904D02*
X143766104Y-70758808D01*
X143766104Y-70758808D02*
X143499438Y-70758808D01*
X143499438Y-70758808D02*
X143499438Y-70911189D01*
X143842295Y-70415951D02*
X143042295Y-70415951D01*
X143042295Y-70415951D02*
X143042295Y-70111189D01*
X143042295Y-70111189D02*
X143080390Y-70034999D01*
X143080390Y-70034999D02*
X143118485Y-69996904D01*
X143118485Y-69996904D02*
X143194676Y-69958808D01*
X143194676Y-69958808D02*
X143308961Y-69958808D01*
X143308961Y-69958808D02*
X143385152Y-69996904D01*
X143385152Y-69996904D02*
X143423247Y-70034999D01*
X143423247Y-70034999D02*
X143461342Y-70111189D01*
X143461342Y-70111189D02*
X143461342Y-70415951D01*
X143842295Y-69615951D02*
X143042295Y-69615951D01*
X143042295Y-69082618D02*
X143042295Y-68930237D01*
X143042295Y-68930237D02*
X143080390Y-68854047D01*
X143080390Y-68854047D02*
X143156580Y-68777856D01*
X143156580Y-68777856D02*
X143308961Y-68739761D01*
X143308961Y-68739761D02*
X143575628Y-68739761D01*
X143575628Y-68739761D02*
X143728009Y-68777856D01*
X143728009Y-68777856D02*
X143804200Y-68854047D01*
X143804200Y-68854047D02*
X143842295Y-68930237D01*
X143842295Y-68930237D02*
X143842295Y-69082618D01*
X143842295Y-69082618D02*
X143804200Y-69158809D01*
X143804200Y-69158809D02*
X143728009Y-69234999D01*
X143728009Y-69234999D02*
X143575628Y-69273095D01*
X143575628Y-69273095D02*
X143308961Y-69273095D01*
X143308961Y-69273095D02*
X143156580Y-69234999D01*
X143156580Y-69234999D02*
X143080390Y-69158809D01*
X143080390Y-69158809D02*
X143042295Y-69082618D01*
X143842295Y-67977857D02*
X143842295Y-68435000D01*
X143842295Y-68206428D02*
X143042295Y-68206428D01*
X143042295Y-68206428D02*
X143156580Y-68282619D01*
X143156580Y-68282619D02*
X143232771Y-68358809D01*
X143232771Y-68358809D02*
X143270866Y-68435000D01*
X143385152Y-67520714D02*
X143347057Y-67596904D01*
X143347057Y-67596904D02*
X143308961Y-67634999D01*
X143308961Y-67634999D02*
X143232771Y-67673095D01*
X143232771Y-67673095D02*
X143194676Y-67673095D01*
X143194676Y-67673095D02*
X143118485Y-67634999D01*
X143118485Y-67634999D02*
X143080390Y-67596904D01*
X143080390Y-67596904D02*
X143042295Y-67520714D01*
X143042295Y-67520714D02*
X143042295Y-67368333D01*
X143042295Y-67368333D02*
X143080390Y-67292142D01*
X143080390Y-67292142D02*
X143118485Y-67254047D01*
X143118485Y-67254047D02*
X143194676Y-67215952D01*
X143194676Y-67215952D02*
X143232771Y-67215952D01*
X143232771Y-67215952D02*
X143308961Y-67254047D01*
X143308961Y-67254047D02*
X143347057Y-67292142D01*
X143347057Y-67292142D02*
X143385152Y-67368333D01*
X143385152Y-67368333D02*
X143385152Y-67520714D01*
X143385152Y-67520714D02*
X143423247Y-67596904D01*
X143423247Y-67596904D02*
X143461342Y-67634999D01*
X143461342Y-67634999D02*
X143537533Y-67673095D01*
X143537533Y-67673095D02*
X143689914Y-67673095D01*
X143689914Y-67673095D02*
X143766104Y-67634999D01*
X143766104Y-67634999D02*
X143804200Y-67596904D01*
X143804200Y-67596904D02*
X143842295Y-67520714D01*
X143842295Y-67520714D02*
X143842295Y-67368333D01*
X143842295Y-67368333D02*
X143804200Y-67292142D01*
X143804200Y-67292142D02*
X143766104Y-67254047D01*
X143766104Y-67254047D02*
X143689914Y-67215952D01*
X143689914Y-67215952D02*
X143537533Y-67215952D01*
X143537533Y-67215952D02*
X143461342Y-67254047D01*
X143461342Y-67254047D02*
X143423247Y-67292142D01*
X143423247Y-67292142D02*
X143385152Y-67368333D01*
X155780390Y-70796904D02*
X155742295Y-70873094D01*
X155742295Y-70873094D02*
X155742295Y-70987380D01*
X155742295Y-70987380D02*
X155780390Y-71101666D01*
X155780390Y-71101666D02*
X155856580Y-71177856D01*
X155856580Y-71177856D02*
X155932771Y-71215951D01*
X155932771Y-71215951D02*
X156085152Y-71254047D01*
X156085152Y-71254047D02*
X156199438Y-71254047D01*
X156199438Y-71254047D02*
X156351819Y-71215951D01*
X156351819Y-71215951D02*
X156428009Y-71177856D01*
X156428009Y-71177856D02*
X156504200Y-71101666D01*
X156504200Y-71101666D02*
X156542295Y-70987380D01*
X156542295Y-70987380D02*
X156542295Y-70911189D01*
X156542295Y-70911189D02*
X156504200Y-70796904D01*
X156504200Y-70796904D02*
X156466104Y-70758808D01*
X156466104Y-70758808D02*
X156199438Y-70758808D01*
X156199438Y-70758808D02*
X156199438Y-70911189D01*
X156542295Y-70415951D02*
X155742295Y-70415951D01*
X155742295Y-70415951D02*
X155742295Y-70111189D01*
X155742295Y-70111189D02*
X155780390Y-70034999D01*
X155780390Y-70034999D02*
X155818485Y-69996904D01*
X155818485Y-69996904D02*
X155894676Y-69958808D01*
X155894676Y-69958808D02*
X156008961Y-69958808D01*
X156008961Y-69958808D02*
X156085152Y-69996904D01*
X156085152Y-69996904D02*
X156123247Y-70034999D01*
X156123247Y-70034999D02*
X156161342Y-70111189D01*
X156161342Y-70111189D02*
X156161342Y-70415951D01*
X156542295Y-69615951D02*
X155742295Y-69615951D01*
X155742295Y-69082618D02*
X155742295Y-68930237D01*
X155742295Y-68930237D02*
X155780390Y-68854047D01*
X155780390Y-68854047D02*
X155856580Y-68777856D01*
X155856580Y-68777856D02*
X156008961Y-68739761D01*
X156008961Y-68739761D02*
X156275628Y-68739761D01*
X156275628Y-68739761D02*
X156428009Y-68777856D01*
X156428009Y-68777856D02*
X156504200Y-68854047D01*
X156504200Y-68854047D02*
X156542295Y-68930237D01*
X156542295Y-68930237D02*
X156542295Y-69082618D01*
X156542295Y-69082618D02*
X156504200Y-69158809D01*
X156504200Y-69158809D02*
X156428009Y-69234999D01*
X156428009Y-69234999D02*
X156275628Y-69273095D01*
X156275628Y-69273095D02*
X156008961Y-69273095D01*
X156008961Y-69273095D02*
X155856580Y-69234999D01*
X155856580Y-69234999D02*
X155780390Y-69158809D01*
X155780390Y-69158809D02*
X155742295Y-69082618D01*
X156542295Y-67977857D02*
X156542295Y-68435000D01*
X156542295Y-68206428D02*
X155742295Y-68206428D01*
X155742295Y-68206428D02*
X155856580Y-68282619D01*
X155856580Y-68282619D02*
X155932771Y-68358809D01*
X155932771Y-68358809D02*
X155970866Y-68435000D01*
X155742295Y-67711190D02*
X155742295Y-67177856D01*
X155742295Y-67177856D02*
X156542295Y-67520714D01*
X153240390Y-70415952D02*
X153202295Y-70492142D01*
X153202295Y-70492142D02*
X153202295Y-70606428D01*
X153202295Y-70606428D02*
X153240390Y-70720714D01*
X153240390Y-70720714D02*
X153316580Y-70796904D01*
X153316580Y-70796904D02*
X153392771Y-70834999D01*
X153392771Y-70834999D02*
X153545152Y-70873095D01*
X153545152Y-70873095D02*
X153659438Y-70873095D01*
X153659438Y-70873095D02*
X153811819Y-70834999D01*
X153811819Y-70834999D02*
X153888009Y-70796904D01*
X153888009Y-70796904D02*
X153964200Y-70720714D01*
X153964200Y-70720714D02*
X154002295Y-70606428D01*
X154002295Y-70606428D02*
X154002295Y-70530237D01*
X154002295Y-70530237D02*
X153964200Y-70415952D01*
X153964200Y-70415952D02*
X153926104Y-70377856D01*
X153926104Y-70377856D02*
X153659438Y-70377856D01*
X153659438Y-70377856D02*
X153659438Y-70530237D01*
X154002295Y-70034999D02*
X153202295Y-70034999D01*
X153202295Y-70034999D02*
X153202295Y-69730237D01*
X153202295Y-69730237D02*
X153240390Y-69654047D01*
X153240390Y-69654047D02*
X153278485Y-69615952D01*
X153278485Y-69615952D02*
X153354676Y-69577856D01*
X153354676Y-69577856D02*
X153468961Y-69577856D01*
X153468961Y-69577856D02*
X153545152Y-69615952D01*
X153545152Y-69615952D02*
X153583247Y-69654047D01*
X153583247Y-69654047D02*
X153621342Y-69730237D01*
X153621342Y-69730237D02*
X153621342Y-70034999D01*
X154002295Y-69234999D02*
X153202295Y-69234999D01*
X153202295Y-68701666D02*
X153202295Y-68549285D01*
X153202295Y-68549285D02*
X153240390Y-68473095D01*
X153240390Y-68473095D02*
X153316580Y-68396904D01*
X153316580Y-68396904D02*
X153468961Y-68358809D01*
X153468961Y-68358809D02*
X153735628Y-68358809D01*
X153735628Y-68358809D02*
X153888009Y-68396904D01*
X153888009Y-68396904D02*
X153964200Y-68473095D01*
X153964200Y-68473095D02*
X154002295Y-68549285D01*
X154002295Y-68549285D02*
X154002295Y-68701666D01*
X154002295Y-68701666D02*
X153964200Y-68777857D01*
X153964200Y-68777857D02*
X153888009Y-68854047D01*
X153888009Y-68854047D02*
X153735628Y-68892143D01*
X153735628Y-68892143D02*
X153468961Y-68892143D01*
X153468961Y-68892143D02*
X153316580Y-68854047D01*
X153316580Y-68854047D02*
X153240390Y-68777857D01*
X153240390Y-68777857D02*
X153202295Y-68701666D01*
X153468961Y-67673095D02*
X154002295Y-67673095D01*
X153164200Y-67863571D02*
X153735628Y-68054048D01*
X153735628Y-68054048D02*
X153735628Y-67558809D01*
X140540390Y-70796904D02*
X140502295Y-70873094D01*
X140502295Y-70873094D02*
X140502295Y-70987380D01*
X140502295Y-70987380D02*
X140540390Y-71101666D01*
X140540390Y-71101666D02*
X140616580Y-71177856D01*
X140616580Y-71177856D02*
X140692771Y-71215951D01*
X140692771Y-71215951D02*
X140845152Y-71254047D01*
X140845152Y-71254047D02*
X140959438Y-71254047D01*
X140959438Y-71254047D02*
X141111819Y-71215951D01*
X141111819Y-71215951D02*
X141188009Y-71177856D01*
X141188009Y-71177856D02*
X141264200Y-71101666D01*
X141264200Y-71101666D02*
X141302295Y-70987380D01*
X141302295Y-70987380D02*
X141302295Y-70911189D01*
X141302295Y-70911189D02*
X141264200Y-70796904D01*
X141264200Y-70796904D02*
X141226104Y-70758808D01*
X141226104Y-70758808D02*
X140959438Y-70758808D01*
X140959438Y-70758808D02*
X140959438Y-70911189D01*
X141302295Y-70415951D02*
X140502295Y-70415951D01*
X140502295Y-70415951D02*
X140502295Y-70111189D01*
X140502295Y-70111189D02*
X140540390Y-70034999D01*
X140540390Y-70034999D02*
X140578485Y-69996904D01*
X140578485Y-69996904D02*
X140654676Y-69958808D01*
X140654676Y-69958808D02*
X140768961Y-69958808D01*
X140768961Y-69958808D02*
X140845152Y-69996904D01*
X140845152Y-69996904D02*
X140883247Y-70034999D01*
X140883247Y-70034999D02*
X140921342Y-70111189D01*
X140921342Y-70111189D02*
X140921342Y-70415951D01*
X141302295Y-69615951D02*
X140502295Y-69615951D01*
X140502295Y-69082618D02*
X140502295Y-68930237D01*
X140502295Y-68930237D02*
X140540390Y-68854047D01*
X140540390Y-68854047D02*
X140616580Y-68777856D01*
X140616580Y-68777856D02*
X140768961Y-68739761D01*
X140768961Y-68739761D02*
X141035628Y-68739761D01*
X141035628Y-68739761D02*
X141188009Y-68777856D01*
X141188009Y-68777856D02*
X141264200Y-68854047D01*
X141264200Y-68854047D02*
X141302295Y-68930237D01*
X141302295Y-68930237D02*
X141302295Y-69082618D01*
X141302295Y-69082618D02*
X141264200Y-69158809D01*
X141264200Y-69158809D02*
X141188009Y-69234999D01*
X141188009Y-69234999D02*
X141035628Y-69273095D01*
X141035628Y-69273095D02*
X140768961Y-69273095D01*
X140768961Y-69273095D02*
X140616580Y-69234999D01*
X140616580Y-69234999D02*
X140540390Y-69158809D01*
X140540390Y-69158809D02*
X140502295Y-69082618D01*
X140578485Y-68435000D02*
X140540390Y-68396904D01*
X140540390Y-68396904D02*
X140502295Y-68320714D01*
X140502295Y-68320714D02*
X140502295Y-68130238D01*
X140502295Y-68130238D02*
X140540390Y-68054047D01*
X140540390Y-68054047D02*
X140578485Y-68015952D01*
X140578485Y-68015952D02*
X140654676Y-67977857D01*
X140654676Y-67977857D02*
X140730866Y-67977857D01*
X140730866Y-67977857D02*
X140845152Y-68015952D01*
X140845152Y-68015952D02*
X141302295Y-68473095D01*
X141302295Y-68473095D02*
X141302295Y-67977857D01*
X140502295Y-67711190D02*
X140502295Y-67215952D01*
X140502295Y-67215952D02*
X140807057Y-67482618D01*
X140807057Y-67482618D02*
X140807057Y-67368333D01*
X140807057Y-67368333D02*
X140845152Y-67292142D01*
X140845152Y-67292142D02*
X140883247Y-67254047D01*
X140883247Y-67254047D02*
X140959438Y-67215952D01*
X140959438Y-67215952D02*
X141149914Y-67215952D01*
X141149914Y-67215952D02*
X141226104Y-67254047D01*
X141226104Y-67254047D02*
X141264200Y-67292142D01*
X141264200Y-67292142D02*
X141302295Y-67368333D01*
X141302295Y-67368333D02*
X141302295Y-67596904D01*
X141302295Y-67596904D02*
X141264200Y-67673095D01*
X141264200Y-67673095D02*
X141226104Y-67711190D01*
X138000390Y-70796904D02*
X137962295Y-70873094D01*
X137962295Y-70873094D02*
X137962295Y-70987380D01*
X137962295Y-70987380D02*
X138000390Y-71101666D01*
X138000390Y-71101666D02*
X138076580Y-71177856D01*
X138076580Y-71177856D02*
X138152771Y-71215951D01*
X138152771Y-71215951D02*
X138305152Y-71254047D01*
X138305152Y-71254047D02*
X138419438Y-71254047D01*
X138419438Y-71254047D02*
X138571819Y-71215951D01*
X138571819Y-71215951D02*
X138648009Y-71177856D01*
X138648009Y-71177856D02*
X138724200Y-71101666D01*
X138724200Y-71101666D02*
X138762295Y-70987380D01*
X138762295Y-70987380D02*
X138762295Y-70911189D01*
X138762295Y-70911189D02*
X138724200Y-70796904D01*
X138724200Y-70796904D02*
X138686104Y-70758808D01*
X138686104Y-70758808D02*
X138419438Y-70758808D01*
X138419438Y-70758808D02*
X138419438Y-70911189D01*
X138762295Y-70415951D02*
X137962295Y-70415951D01*
X137962295Y-70415951D02*
X137962295Y-70111189D01*
X137962295Y-70111189D02*
X138000390Y-70034999D01*
X138000390Y-70034999D02*
X138038485Y-69996904D01*
X138038485Y-69996904D02*
X138114676Y-69958808D01*
X138114676Y-69958808D02*
X138228961Y-69958808D01*
X138228961Y-69958808D02*
X138305152Y-69996904D01*
X138305152Y-69996904D02*
X138343247Y-70034999D01*
X138343247Y-70034999D02*
X138381342Y-70111189D01*
X138381342Y-70111189D02*
X138381342Y-70415951D01*
X138762295Y-69615951D02*
X137962295Y-69615951D01*
X137962295Y-69082618D02*
X137962295Y-68930237D01*
X137962295Y-68930237D02*
X138000390Y-68854047D01*
X138000390Y-68854047D02*
X138076580Y-68777856D01*
X138076580Y-68777856D02*
X138228961Y-68739761D01*
X138228961Y-68739761D02*
X138495628Y-68739761D01*
X138495628Y-68739761D02*
X138648009Y-68777856D01*
X138648009Y-68777856D02*
X138724200Y-68854047D01*
X138724200Y-68854047D02*
X138762295Y-68930237D01*
X138762295Y-68930237D02*
X138762295Y-69082618D01*
X138762295Y-69082618D02*
X138724200Y-69158809D01*
X138724200Y-69158809D02*
X138648009Y-69234999D01*
X138648009Y-69234999D02*
X138495628Y-69273095D01*
X138495628Y-69273095D02*
X138228961Y-69273095D01*
X138228961Y-69273095D02*
X138076580Y-69234999D01*
X138076580Y-69234999D02*
X138000390Y-69158809D01*
X138000390Y-69158809D02*
X137962295Y-69082618D01*
X138762295Y-67977857D02*
X138762295Y-68435000D01*
X138762295Y-68206428D02*
X137962295Y-68206428D01*
X137962295Y-68206428D02*
X138076580Y-68282619D01*
X138076580Y-68282619D02*
X138152771Y-68358809D01*
X138152771Y-68358809D02*
X138190866Y-68435000D01*
X138762295Y-67596904D02*
X138762295Y-67444523D01*
X138762295Y-67444523D02*
X138724200Y-67368333D01*
X138724200Y-67368333D02*
X138686104Y-67330237D01*
X138686104Y-67330237D02*
X138571819Y-67254047D01*
X138571819Y-67254047D02*
X138419438Y-67215952D01*
X138419438Y-67215952D02*
X138114676Y-67215952D01*
X138114676Y-67215952D02*
X138038485Y-67254047D01*
X138038485Y-67254047D02*
X138000390Y-67292142D01*
X138000390Y-67292142D02*
X137962295Y-67368333D01*
X137962295Y-67368333D02*
X137962295Y-67520714D01*
X137962295Y-67520714D02*
X138000390Y-67596904D01*
X138000390Y-67596904D02*
X138038485Y-67634999D01*
X138038485Y-67634999D02*
X138114676Y-67673095D01*
X138114676Y-67673095D02*
X138305152Y-67673095D01*
X138305152Y-67673095D02*
X138381342Y-67634999D01*
X138381342Y-67634999D02*
X138419438Y-67596904D01*
X138419438Y-67596904D02*
X138457533Y-67520714D01*
X138457533Y-67520714D02*
X138457533Y-67368333D01*
X138457533Y-67368333D02*
X138419438Y-67292142D01*
X138419438Y-67292142D02*
X138381342Y-67254047D01*
X138381342Y-67254047D02*
X138305152Y-67215952D01*
X158320390Y-55556904D02*
X158282295Y-55633094D01*
X158282295Y-55633094D02*
X158282295Y-55747380D01*
X158282295Y-55747380D02*
X158320390Y-55861666D01*
X158320390Y-55861666D02*
X158396580Y-55937856D01*
X158396580Y-55937856D02*
X158472771Y-55975951D01*
X158472771Y-55975951D02*
X158625152Y-56014047D01*
X158625152Y-56014047D02*
X158739438Y-56014047D01*
X158739438Y-56014047D02*
X158891819Y-55975951D01*
X158891819Y-55975951D02*
X158968009Y-55937856D01*
X158968009Y-55937856D02*
X159044200Y-55861666D01*
X159044200Y-55861666D02*
X159082295Y-55747380D01*
X159082295Y-55747380D02*
X159082295Y-55671189D01*
X159082295Y-55671189D02*
X159044200Y-55556904D01*
X159044200Y-55556904D02*
X159006104Y-55518808D01*
X159006104Y-55518808D02*
X158739438Y-55518808D01*
X158739438Y-55518808D02*
X158739438Y-55671189D01*
X159082295Y-55175951D02*
X158282295Y-55175951D01*
X158282295Y-55175951D02*
X158282295Y-54871189D01*
X158282295Y-54871189D02*
X158320390Y-54794999D01*
X158320390Y-54794999D02*
X158358485Y-54756904D01*
X158358485Y-54756904D02*
X158434676Y-54718808D01*
X158434676Y-54718808D02*
X158548961Y-54718808D01*
X158548961Y-54718808D02*
X158625152Y-54756904D01*
X158625152Y-54756904D02*
X158663247Y-54794999D01*
X158663247Y-54794999D02*
X158701342Y-54871189D01*
X158701342Y-54871189D02*
X158701342Y-55175951D01*
X159082295Y-54375951D02*
X158282295Y-54375951D01*
X158282295Y-53842618D02*
X158282295Y-53690237D01*
X158282295Y-53690237D02*
X158320390Y-53614047D01*
X158320390Y-53614047D02*
X158396580Y-53537856D01*
X158396580Y-53537856D02*
X158548961Y-53499761D01*
X158548961Y-53499761D02*
X158815628Y-53499761D01*
X158815628Y-53499761D02*
X158968009Y-53537856D01*
X158968009Y-53537856D02*
X159044200Y-53614047D01*
X159044200Y-53614047D02*
X159082295Y-53690237D01*
X159082295Y-53690237D02*
X159082295Y-53842618D01*
X159082295Y-53842618D02*
X159044200Y-53918809D01*
X159044200Y-53918809D02*
X158968009Y-53994999D01*
X158968009Y-53994999D02*
X158815628Y-54033095D01*
X158815628Y-54033095D02*
X158548961Y-54033095D01*
X158548961Y-54033095D02*
X158396580Y-53994999D01*
X158396580Y-53994999D02*
X158320390Y-53918809D01*
X158320390Y-53918809D02*
X158282295Y-53842618D01*
X158358485Y-53195000D02*
X158320390Y-53156904D01*
X158320390Y-53156904D02*
X158282295Y-53080714D01*
X158282295Y-53080714D02*
X158282295Y-52890238D01*
X158282295Y-52890238D02*
X158320390Y-52814047D01*
X158320390Y-52814047D02*
X158358485Y-52775952D01*
X158358485Y-52775952D02*
X158434676Y-52737857D01*
X158434676Y-52737857D02*
X158510866Y-52737857D01*
X158510866Y-52737857D02*
X158625152Y-52775952D01*
X158625152Y-52775952D02*
X159082295Y-53233095D01*
X159082295Y-53233095D02*
X159082295Y-52737857D01*
X159082295Y-51975952D02*
X159082295Y-52433095D01*
X159082295Y-52204523D02*
X158282295Y-52204523D01*
X158282295Y-52204523D02*
X158396580Y-52280714D01*
X158396580Y-52280714D02*
X158472771Y-52356904D01*
X158472771Y-52356904D02*
X158510866Y-52433095D01*
X122760390Y-55556904D02*
X122722295Y-55633094D01*
X122722295Y-55633094D02*
X122722295Y-55747380D01*
X122722295Y-55747380D02*
X122760390Y-55861666D01*
X122760390Y-55861666D02*
X122836580Y-55937856D01*
X122836580Y-55937856D02*
X122912771Y-55975951D01*
X122912771Y-55975951D02*
X123065152Y-56014047D01*
X123065152Y-56014047D02*
X123179438Y-56014047D01*
X123179438Y-56014047D02*
X123331819Y-55975951D01*
X123331819Y-55975951D02*
X123408009Y-55937856D01*
X123408009Y-55937856D02*
X123484200Y-55861666D01*
X123484200Y-55861666D02*
X123522295Y-55747380D01*
X123522295Y-55747380D02*
X123522295Y-55671189D01*
X123522295Y-55671189D02*
X123484200Y-55556904D01*
X123484200Y-55556904D02*
X123446104Y-55518808D01*
X123446104Y-55518808D02*
X123179438Y-55518808D01*
X123179438Y-55518808D02*
X123179438Y-55671189D01*
X123522295Y-55175951D02*
X122722295Y-55175951D01*
X122722295Y-55175951D02*
X122722295Y-54871189D01*
X122722295Y-54871189D02*
X122760390Y-54794999D01*
X122760390Y-54794999D02*
X122798485Y-54756904D01*
X122798485Y-54756904D02*
X122874676Y-54718808D01*
X122874676Y-54718808D02*
X122988961Y-54718808D01*
X122988961Y-54718808D02*
X123065152Y-54756904D01*
X123065152Y-54756904D02*
X123103247Y-54794999D01*
X123103247Y-54794999D02*
X123141342Y-54871189D01*
X123141342Y-54871189D02*
X123141342Y-55175951D01*
X123522295Y-54375951D02*
X122722295Y-54375951D01*
X122722295Y-53842618D02*
X122722295Y-53690237D01*
X122722295Y-53690237D02*
X122760390Y-53614047D01*
X122760390Y-53614047D02*
X122836580Y-53537856D01*
X122836580Y-53537856D02*
X122988961Y-53499761D01*
X122988961Y-53499761D02*
X123255628Y-53499761D01*
X123255628Y-53499761D02*
X123408009Y-53537856D01*
X123408009Y-53537856D02*
X123484200Y-53614047D01*
X123484200Y-53614047D02*
X123522295Y-53690237D01*
X123522295Y-53690237D02*
X123522295Y-53842618D01*
X123522295Y-53842618D02*
X123484200Y-53918809D01*
X123484200Y-53918809D02*
X123408009Y-53994999D01*
X123408009Y-53994999D02*
X123255628Y-54033095D01*
X123255628Y-54033095D02*
X122988961Y-54033095D01*
X122988961Y-54033095D02*
X122836580Y-53994999D01*
X122836580Y-53994999D02*
X122760390Y-53918809D01*
X122760390Y-53918809D02*
X122722295Y-53842618D01*
X122722295Y-53233095D02*
X122722295Y-52737857D01*
X122722295Y-52737857D02*
X123027057Y-53004523D01*
X123027057Y-53004523D02*
X123027057Y-52890238D01*
X123027057Y-52890238D02*
X123065152Y-52814047D01*
X123065152Y-52814047D02*
X123103247Y-52775952D01*
X123103247Y-52775952D02*
X123179438Y-52737857D01*
X123179438Y-52737857D02*
X123369914Y-52737857D01*
X123369914Y-52737857D02*
X123446104Y-52775952D01*
X123446104Y-52775952D02*
X123484200Y-52814047D01*
X123484200Y-52814047D02*
X123522295Y-52890238D01*
X123522295Y-52890238D02*
X123522295Y-53118809D01*
X123522295Y-53118809D02*
X123484200Y-53195000D01*
X123484200Y-53195000D02*
X123446104Y-53233095D01*
X122722295Y-52052142D02*
X122722295Y-52204523D01*
X122722295Y-52204523D02*
X122760390Y-52280714D01*
X122760390Y-52280714D02*
X122798485Y-52318809D01*
X122798485Y-52318809D02*
X122912771Y-52394999D01*
X122912771Y-52394999D02*
X123065152Y-52433095D01*
X123065152Y-52433095D02*
X123369914Y-52433095D01*
X123369914Y-52433095D02*
X123446104Y-52394999D01*
X123446104Y-52394999D02*
X123484200Y-52356904D01*
X123484200Y-52356904D02*
X123522295Y-52280714D01*
X123522295Y-52280714D02*
X123522295Y-52128333D01*
X123522295Y-52128333D02*
X123484200Y-52052142D01*
X123484200Y-52052142D02*
X123446104Y-52014047D01*
X123446104Y-52014047D02*
X123369914Y-51975952D01*
X123369914Y-51975952D02*
X123179438Y-51975952D01*
X123179438Y-51975952D02*
X123103247Y-52014047D01*
X123103247Y-52014047D02*
X123065152Y-52052142D01*
X123065152Y-52052142D02*
X123027057Y-52128333D01*
X123027057Y-52128333D02*
X123027057Y-52280714D01*
X123027057Y-52280714D02*
X123065152Y-52356904D01*
X123065152Y-52356904D02*
X123103247Y-52394999D01*
X123103247Y-52394999D02*
X123179438Y-52433095D01*
X127840390Y-55556904D02*
X127802295Y-55633094D01*
X127802295Y-55633094D02*
X127802295Y-55747380D01*
X127802295Y-55747380D02*
X127840390Y-55861666D01*
X127840390Y-55861666D02*
X127916580Y-55937856D01*
X127916580Y-55937856D02*
X127992771Y-55975951D01*
X127992771Y-55975951D02*
X128145152Y-56014047D01*
X128145152Y-56014047D02*
X128259438Y-56014047D01*
X128259438Y-56014047D02*
X128411819Y-55975951D01*
X128411819Y-55975951D02*
X128488009Y-55937856D01*
X128488009Y-55937856D02*
X128564200Y-55861666D01*
X128564200Y-55861666D02*
X128602295Y-55747380D01*
X128602295Y-55747380D02*
X128602295Y-55671189D01*
X128602295Y-55671189D02*
X128564200Y-55556904D01*
X128564200Y-55556904D02*
X128526104Y-55518808D01*
X128526104Y-55518808D02*
X128259438Y-55518808D01*
X128259438Y-55518808D02*
X128259438Y-55671189D01*
X128602295Y-55175951D02*
X127802295Y-55175951D01*
X127802295Y-55175951D02*
X127802295Y-54871189D01*
X127802295Y-54871189D02*
X127840390Y-54794999D01*
X127840390Y-54794999D02*
X127878485Y-54756904D01*
X127878485Y-54756904D02*
X127954676Y-54718808D01*
X127954676Y-54718808D02*
X128068961Y-54718808D01*
X128068961Y-54718808D02*
X128145152Y-54756904D01*
X128145152Y-54756904D02*
X128183247Y-54794999D01*
X128183247Y-54794999D02*
X128221342Y-54871189D01*
X128221342Y-54871189D02*
X128221342Y-55175951D01*
X128602295Y-54375951D02*
X127802295Y-54375951D01*
X127802295Y-53842618D02*
X127802295Y-53690237D01*
X127802295Y-53690237D02*
X127840390Y-53614047D01*
X127840390Y-53614047D02*
X127916580Y-53537856D01*
X127916580Y-53537856D02*
X128068961Y-53499761D01*
X128068961Y-53499761D02*
X128335628Y-53499761D01*
X128335628Y-53499761D02*
X128488009Y-53537856D01*
X128488009Y-53537856D02*
X128564200Y-53614047D01*
X128564200Y-53614047D02*
X128602295Y-53690237D01*
X128602295Y-53690237D02*
X128602295Y-53842618D01*
X128602295Y-53842618D02*
X128564200Y-53918809D01*
X128564200Y-53918809D02*
X128488009Y-53994999D01*
X128488009Y-53994999D02*
X128335628Y-54033095D01*
X128335628Y-54033095D02*
X128068961Y-54033095D01*
X128068961Y-54033095D02*
X127916580Y-53994999D01*
X127916580Y-53994999D02*
X127840390Y-53918809D01*
X127840390Y-53918809D02*
X127802295Y-53842618D01*
X127802295Y-53233095D02*
X127802295Y-52737857D01*
X127802295Y-52737857D02*
X128107057Y-53004523D01*
X128107057Y-53004523D02*
X128107057Y-52890238D01*
X128107057Y-52890238D02*
X128145152Y-52814047D01*
X128145152Y-52814047D02*
X128183247Y-52775952D01*
X128183247Y-52775952D02*
X128259438Y-52737857D01*
X128259438Y-52737857D02*
X128449914Y-52737857D01*
X128449914Y-52737857D02*
X128526104Y-52775952D01*
X128526104Y-52775952D02*
X128564200Y-52814047D01*
X128564200Y-52814047D02*
X128602295Y-52890238D01*
X128602295Y-52890238D02*
X128602295Y-53118809D01*
X128602295Y-53118809D02*
X128564200Y-53195000D01*
X128564200Y-53195000D02*
X128526104Y-53233095D01*
X128145152Y-52280714D02*
X128107057Y-52356904D01*
X128107057Y-52356904D02*
X128068961Y-52394999D01*
X128068961Y-52394999D02*
X127992771Y-52433095D01*
X127992771Y-52433095D02*
X127954676Y-52433095D01*
X127954676Y-52433095D02*
X127878485Y-52394999D01*
X127878485Y-52394999D02*
X127840390Y-52356904D01*
X127840390Y-52356904D02*
X127802295Y-52280714D01*
X127802295Y-52280714D02*
X127802295Y-52128333D01*
X127802295Y-52128333D02*
X127840390Y-52052142D01*
X127840390Y-52052142D02*
X127878485Y-52014047D01*
X127878485Y-52014047D02*
X127954676Y-51975952D01*
X127954676Y-51975952D02*
X127992771Y-51975952D01*
X127992771Y-51975952D02*
X128068961Y-52014047D01*
X128068961Y-52014047D02*
X128107057Y-52052142D01*
X128107057Y-52052142D02*
X128145152Y-52128333D01*
X128145152Y-52128333D02*
X128145152Y-52280714D01*
X128145152Y-52280714D02*
X128183247Y-52356904D01*
X128183247Y-52356904D02*
X128221342Y-52394999D01*
X128221342Y-52394999D02*
X128297533Y-52433095D01*
X128297533Y-52433095D02*
X128449914Y-52433095D01*
X128449914Y-52433095D02*
X128526104Y-52394999D01*
X128526104Y-52394999D02*
X128564200Y-52356904D01*
X128564200Y-52356904D02*
X128602295Y-52280714D01*
X128602295Y-52280714D02*
X128602295Y-52128333D01*
X128602295Y-52128333D02*
X128564200Y-52052142D01*
X128564200Y-52052142D02*
X128526104Y-52014047D01*
X128526104Y-52014047D02*
X128449914Y-51975952D01*
X128449914Y-51975952D02*
X128297533Y-51975952D01*
X128297533Y-51975952D02*
X128221342Y-52014047D01*
X128221342Y-52014047D02*
X128183247Y-52052142D01*
X128183247Y-52052142D02*
X128145152Y-52128333D01*
X150700390Y-55556904D02*
X150662295Y-55633094D01*
X150662295Y-55633094D02*
X150662295Y-55747380D01*
X150662295Y-55747380D02*
X150700390Y-55861666D01*
X150700390Y-55861666D02*
X150776580Y-55937856D01*
X150776580Y-55937856D02*
X150852771Y-55975951D01*
X150852771Y-55975951D02*
X151005152Y-56014047D01*
X151005152Y-56014047D02*
X151119438Y-56014047D01*
X151119438Y-56014047D02*
X151271819Y-55975951D01*
X151271819Y-55975951D02*
X151348009Y-55937856D01*
X151348009Y-55937856D02*
X151424200Y-55861666D01*
X151424200Y-55861666D02*
X151462295Y-55747380D01*
X151462295Y-55747380D02*
X151462295Y-55671189D01*
X151462295Y-55671189D02*
X151424200Y-55556904D01*
X151424200Y-55556904D02*
X151386104Y-55518808D01*
X151386104Y-55518808D02*
X151119438Y-55518808D01*
X151119438Y-55518808D02*
X151119438Y-55671189D01*
X151462295Y-55175951D02*
X150662295Y-55175951D01*
X150662295Y-55175951D02*
X150662295Y-54871189D01*
X150662295Y-54871189D02*
X150700390Y-54794999D01*
X150700390Y-54794999D02*
X150738485Y-54756904D01*
X150738485Y-54756904D02*
X150814676Y-54718808D01*
X150814676Y-54718808D02*
X150928961Y-54718808D01*
X150928961Y-54718808D02*
X151005152Y-54756904D01*
X151005152Y-54756904D02*
X151043247Y-54794999D01*
X151043247Y-54794999D02*
X151081342Y-54871189D01*
X151081342Y-54871189D02*
X151081342Y-55175951D01*
X151462295Y-54375951D02*
X150662295Y-54375951D01*
X150662295Y-53842618D02*
X150662295Y-53690237D01*
X150662295Y-53690237D02*
X150700390Y-53614047D01*
X150700390Y-53614047D02*
X150776580Y-53537856D01*
X150776580Y-53537856D02*
X150928961Y-53499761D01*
X150928961Y-53499761D02*
X151195628Y-53499761D01*
X151195628Y-53499761D02*
X151348009Y-53537856D01*
X151348009Y-53537856D02*
X151424200Y-53614047D01*
X151424200Y-53614047D02*
X151462295Y-53690237D01*
X151462295Y-53690237D02*
X151462295Y-53842618D01*
X151462295Y-53842618D02*
X151424200Y-53918809D01*
X151424200Y-53918809D02*
X151348009Y-53994999D01*
X151348009Y-53994999D02*
X151195628Y-54033095D01*
X151195628Y-54033095D02*
X150928961Y-54033095D01*
X150928961Y-54033095D02*
X150776580Y-53994999D01*
X150776580Y-53994999D02*
X150700390Y-53918809D01*
X150700390Y-53918809D02*
X150662295Y-53842618D01*
X151462295Y-52737857D02*
X151462295Y-53195000D01*
X151462295Y-52966428D02*
X150662295Y-52966428D01*
X150662295Y-52966428D02*
X150776580Y-53042619D01*
X150776580Y-53042619D02*
X150852771Y-53118809D01*
X150852771Y-53118809D02*
X150890866Y-53195000D01*
X150928961Y-52052142D02*
X151462295Y-52052142D01*
X150624200Y-52242618D02*
X151195628Y-52433095D01*
X151195628Y-52433095D02*
X151195628Y-51937856D01*
X158320390Y-70796904D02*
X158282295Y-70873094D01*
X158282295Y-70873094D02*
X158282295Y-70987380D01*
X158282295Y-70987380D02*
X158320390Y-71101666D01*
X158320390Y-71101666D02*
X158396580Y-71177856D01*
X158396580Y-71177856D02*
X158472771Y-71215951D01*
X158472771Y-71215951D02*
X158625152Y-71254047D01*
X158625152Y-71254047D02*
X158739438Y-71254047D01*
X158739438Y-71254047D02*
X158891819Y-71215951D01*
X158891819Y-71215951D02*
X158968009Y-71177856D01*
X158968009Y-71177856D02*
X159044200Y-71101666D01*
X159044200Y-71101666D02*
X159082295Y-70987380D01*
X159082295Y-70987380D02*
X159082295Y-70911189D01*
X159082295Y-70911189D02*
X159044200Y-70796904D01*
X159044200Y-70796904D02*
X159006104Y-70758808D01*
X159006104Y-70758808D02*
X158739438Y-70758808D01*
X158739438Y-70758808D02*
X158739438Y-70911189D01*
X159082295Y-70415951D02*
X158282295Y-70415951D01*
X158282295Y-70415951D02*
X158282295Y-70111189D01*
X158282295Y-70111189D02*
X158320390Y-70034999D01*
X158320390Y-70034999D02*
X158358485Y-69996904D01*
X158358485Y-69996904D02*
X158434676Y-69958808D01*
X158434676Y-69958808D02*
X158548961Y-69958808D01*
X158548961Y-69958808D02*
X158625152Y-69996904D01*
X158625152Y-69996904D02*
X158663247Y-70034999D01*
X158663247Y-70034999D02*
X158701342Y-70111189D01*
X158701342Y-70111189D02*
X158701342Y-70415951D01*
X159082295Y-69615951D02*
X158282295Y-69615951D01*
X158282295Y-69082618D02*
X158282295Y-68930237D01*
X158282295Y-68930237D02*
X158320390Y-68854047D01*
X158320390Y-68854047D02*
X158396580Y-68777856D01*
X158396580Y-68777856D02*
X158548961Y-68739761D01*
X158548961Y-68739761D02*
X158815628Y-68739761D01*
X158815628Y-68739761D02*
X158968009Y-68777856D01*
X158968009Y-68777856D02*
X159044200Y-68854047D01*
X159044200Y-68854047D02*
X159082295Y-68930237D01*
X159082295Y-68930237D02*
X159082295Y-69082618D01*
X159082295Y-69082618D02*
X159044200Y-69158809D01*
X159044200Y-69158809D02*
X158968009Y-69234999D01*
X158968009Y-69234999D02*
X158815628Y-69273095D01*
X158815628Y-69273095D02*
X158548961Y-69273095D01*
X158548961Y-69273095D02*
X158396580Y-69234999D01*
X158396580Y-69234999D02*
X158320390Y-69158809D01*
X158320390Y-69158809D02*
X158282295Y-69082618D01*
X159082295Y-67977857D02*
X159082295Y-68435000D01*
X159082295Y-68206428D02*
X158282295Y-68206428D01*
X158282295Y-68206428D02*
X158396580Y-68282619D01*
X158396580Y-68282619D02*
X158472771Y-68358809D01*
X158472771Y-68358809D02*
X158510866Y-68435000D01*
X158282295Y-67292142D02*
X158282295Y-67444523D01*
X158282295Y-67444523D02*
X158320390Y-67520714D01*
X158320390Y-67520714D02*
X158358485Y-67558809D01*
X158358485Y-67558809D02*
X158472771Y-67634999D01*
X158472771Y-67634999D02*
X158625152Y-67673095D01*
X158625152Y-67673095D02*
X158929914Y-67673095D01*
X158929914Y-67673095D02*
X159006104Y-67634999D01*
X159006104Y-67634999D02*
X159044200Y-67596904D01*
X159044200Y-67596904D02*
X159082295Y-67520714D01*
X159082295Y-67520714D02*
X159082295Y-67368333D01*
X159082295Y-67368333D02*
X159044200Y-67292142D01*
X159044200Y-67292142D02*
X159006104Y-67254047D01*
X159006104Y-67254047D02*
X158929914Y-67215952D01*
X158929914Y-67215952D02*
X158739438Y-67215952D01*
X158739438Y-67215952D02*
X158663247Y-67254047D01*
X158663247Y-67254047D02*
X158625152Y-67292142D01*
X158625152Y-67292142D02*
X158587057Y-67368333D01*
X158587057Y-67368333D02*
X158587057Y-67520714D01*
X158587057Y-67520714D02*
X158625152Y-67596904D01*
X158625152Y-67596904D02*
X158663247Y-67634999D01*
X158663247Y-67634999D02*
X158739438Y-67673095D01*
X163969104Y-63924523D02*
X163969104Y-63448333D01*
X164254819Y-64019761D02*
X163254819Y-63686428D01*
X163254819Y-63686428D02*
X164254819Y-63353095D01*
X163588152Y-63019761D02*
X164254819Y-63019761D01*
X163683390Y-63019761D02*
X163635771Y-62972142D01*
X163635771Y-62972142D02*
X163588152Y-62876904D01*
X163588152Y-62876904D02*
X163588152Y-62734047D01*
X163588152Y-62734047D02*
X163635771Y-62638809D01*
X163635771Y-62638809D02*
X163731009Y-62591190D01*
X163731009Y-62591190D02*
X164254819Y-62591190D01*
X163588152Y-62257856D02*
X163588152Y-61876904D01*
X163254819Y-62114999D02*
X164111961Y-62114999D01*
X164111961Y-62114999D02*
X164207200Y-62067380D01*
X164207200Y-62067380D02*
X164254819Y-61972142D01*
X164254819Y-61972142D02*
X164254819Y-61876904D01*
X164207200Y-61162618D02*
X164254819Y-61257856D01*
X164254819Y-61257856D02*
X164254819Y-61448332D01*
X164254819Y-61448332D02*
X164207200Y-61543570D01*
X164207200Y-61543570D02*
X164111961Y-61591189D01*
X164111961Y-61591189D02*
X163731009Y-61591189D01*
X163731009Y-61591189D02*
X163635771Y-61543570D01*
X163635771Y-61543570D02*
X163588152Y-61448332D01*
X163588152Y-61448332D02*
X163588152Y-61257856D01*
X163588152Y-61257856D02*
X163635771Y-61162618D01*
X163635771Y-61162618D02*
X163731009Y-61114999D01*
X163731009Y-61114999D02*
X163826247Y-61114999D01*
X163826247Y-61114999D02*
X163921485Y-61591189D01*
X163588152Y-60686427D02*
X164254819Y-60686427D01*
X163683390Y-60686427D02*
X163635771Y-60638808D01*
X163635771Y-60638808D02*
X163588152Y-60543570D01*
X163588152Y-60543570D02*
X163588152Y-60400713D01*
X163588152Y-60400713D02*
X163635771Y-60305475D01*
X163635771Y-60305475D02*
X163731009Y-60257856D01*
X163731009Y-60257856D02*
X164254819Y-60257856D01*
X164254819Y-59353094D02*
X163731009Y-59353094D01*
X163731009Y-59353094D02*
X163635771Y-59400713D01*
X163635771Y-59400713D02*
X163588152Y-59495951D01*
X163588152Y-59495951D02*
X163588152Y-59686427D01*
X163588152Y-59686427D02*
X163635771Y-59781665D01*
X164207200Y-59353094D02*
X164254819Y-59448332D01*
X164254819Y-59448332D02*
X164254819Y-59686427D01*
X164254819Y-59686427D02*
X164207200Y-59781665D01*
X164207200Y-59781665D02*
X164111961Y-59829284D01*
X164111961Y-59829284D02*
X164016723Y-59829284D01*
X164016723Y-59829284D02*
X163921485Y-59781665D01*
X163921485Y-59781665D02*
X163873866Y-59686427D01*
X163873866Y-59686427D02*
X163873866Y-59448332D01*
X163873866Y-59448332D02*
X163826247Y-59353094D01*
X115140390Y-69844523D02*
X115102295Y-69920713D01*
X115102295Y-69920713D02*
X115102295Y-70034999D01*
X115102295Y-70034999D02*
X115140390Y-70149285D01*
X115140390Y-70149285D02*
X115216580Y-70225475D01*
X115216580Y-70225475D02*
X115292771Y-70263570D01*
X115292771Y-70263570D02*
X115445152Y-70301666D01*
X115445152Y-70301666D02*
X115559438Y-70301666D01*
X115559438Y-70301666D02*
X115711819Y-70263570D01*
X115711819Y-70263570D02*
X115788009Y-70225475D01*
X115788009Y-70225475D02*
X115864200Y-70149285D01*
X115864200Y-70149285D02*
X115902295Y-70034999D01*
X115902295Y-70034999D02*
X115902295Y-69958808D01*
X115902295Y-69958808D02*
X115864200Y-69844523D01*
X115864200Y-69844523D02*
X115826104Y-69806427D01*
X115826104Y-69806427D02*
X115559438Y-69806427D01*
X115559438Y-69806427D02*
X115559438Y-69958808D01*
X115902295Y-69463570D02*
X115102295Y-69463570D01*
X115102295Y-69463570D02*
X115902295Y-69006427D01*
X115902295Y-69006427D02*
X115102295Y-69006427D01*
X115902295Y-68625475D02*
X115102295Y-68625475D01*
X115102295Y-68625475D02*
X115102295Y-68434999D01*
X115102295Y-68434999D02*
X115140390Y-68320713D01*
X115140390Y-68320713D02*
X115216580Y-68244523D01*
X115216580Y-68244523D02*
X115292771Y-68206428D01*
X115292771Y-68206428D02*
X115445152Y-68168332D01*
X115445152Y-68168332D02*
X115559438Y-68168332D01*
X115559438Y-68168332D02*
X115711819Y-68206428D01*
X115711819Y-68206428D02*
X115788009Y-68244523D01*
X115788009Y-68244523D02*
X115864200Y-68320713D01*
X115864200Y-68320713D02*
X115902295Y-68434999D01*
X115902295Y-68434999D02*
X115902295Y-68625475D01*
X130380390Y-55556904D02*
X130342295Y-55633094D01*
X130342295Y-55633094D02*
X130342295Y-55747380D01*
X130342295Y-55747380D02*
X130380390Y-55861666D01*
X130380390Y-55861666D02*
X130456580Y-55937856D01*
X130456580Y-55937856D02*
X130532771Y-55975951D01*
X130532771Y-55975951D02*
X130685152Y-56014047D01*
X130685152Y-56014047D02*
X130799438Y-56014047D01*
X130799438Y-56014047D02*
X130951819Y-55975951D01*
X130951819Y-55975951D02*
X131028009Y-55937856D01*
X131028009Y-55937856D02*
X131104200Y-55861666D01*
X131104200Y-55861666D02*
X131142295Y-55747380D01*
X131142295Y-55747380D02*
X131142295Y-55671189D01*
X131142295Y-55671189D02*
X131104200Y-55556904D01*
X131104200Y-55556904D02*
X131066104Y-55518808D01*
X131066104Y-55518808D02*
X130799438Y-55518808D01*
X130799438Y-55518808D02*
X130799438Y-55671189D01*
X131142295Y-55175951D02*
X130342295Y-55175951D01*
X130342295Y-55175951D02*
X130342295Y-54871189D01*
X130342295Y-54871189D02*
X130380390Y-54794999D01*
X130380390Y-54794999D02*
X130418485Y-54756904D01*
X130418485Y-54756904D02*
X130494676Y-54718808D01*
X130494676Y-54718808D02*
X130608961Y-54718808D01*
X130608961Y-54718808D02*
X130685152Y-54756904D01*
X130685152Y-54756904D02*
X130723247Y-54794999D01*
X130723247Y-54794999D02*
X130761342Y-54871189D01*
X130761342Y-54871189D02*
X130761342Y-55175951D01*
X131142295Y-54375951D02*
X130342295Y-54375951D01*
X130342295Y-53842618D02*
X130342295Y-53690237D01*
X130342295Y-53690237D02*
X130380390Y-53614047D01*
X130380390Y-53614047D02*
X130456580Y-53537856D01*
X130456580Y-53537856D02*
X130608961Y-53499761D01*
X130608961Y-53499761D02*
X130875628Y-53499761D01*
X130875628Y-53499761D02*
X131028009Y-53537856D01*
X131028009Y-53537856D02*
X131104200Y-53614047D01*
X131104200Y-53614047D02*
X131142295Y-53690237D01*
X131142295Y-53690237D02*
X131142295Y-53842618D01*
X131142295Y-53842618D02*
X131104200Y-53918809D01*
X131104200Y-53918809D02*
X131028009Y-53994999D01*
X131028009Y-53994999D02*
X130875628Y-54033095D01*
X130875628Y-54033095D02*
X130608961Y-54033095D01*
X130608961Y-54033095D02*
X130456580Y-53994999D01*
X130456580Y-53994999D02*
X130380390Y-53918809D01*
X130380390Y-53918809D02*
X130342295Y-53842618D01*
X130342295Y-53233095D02*
X130342295Y-52737857D01*
X130342295Y-52737857D02*
X130647057Y-53004523D01*
X130647057Y-53004523D02*
X130647057Y-52890238D01*
X130647057Y-52890238D02*
X130685152Y-52814047D01*
X130685152Y-52814047D02*
X130723247Y-52775952D01*
X130723247Y-52775952D02*
X130799438Y-52737857D01*
X130799438Y-52737857D02*
X130989914Y-52737857D01*
X130989914Y-52737857D02*
X131066104Y-52775952D01*
X131066104Y-52775952D02*
X131104200Y-52814047D01*
X131104200Y-52814047D02*
X131142295Y-52890238D01*
X131142295Y-52890238D02*
X131142295Y-53118809D01*
X131142295Y-53118809D02*
X131104200Y-53195000D01*
X131104200Y-53195000D02*
X131066104Y-53233095D01*
X131142295Y-52356904D02*
X131142295Y-52204523D01*
X131142295Y-52204523D02*
X131104200Y-52128333D01*
X131104200Y-52128333D02*
X131066104Y-52090237D01*
X131066104Y-52090237D02*
X130951819Y-52014047D01*
X130951819Y-52014047D02*
X130799438Y-51975952D01*
X130799438Y-51975952D02*
X130494676Y-51975952D01*
X130494676Y-51975952D02*
X130418485Y-52014047D01*
X130418485Y-52014047D02*
X130380390Y-52052142D01*
X130380390Y-52052142D02*
X130342295Y-52128333D01*
X130342295Y-52128333D02*
X130342295Y-52280714D01*
X130342295Y-52280714D02*
X130380390Y-52356904D01*
X130380390Y-52356904D02*
X130418485Y-52394999D01*
X130418485Y-52394999D02*
X130494676Y-52433095D01*
X130494676Y-52433095D02*
X130685152Y-52433095D01*
X130685152Y-52433095D02*
X130761342Y-52394999D01*
X130761342Y-52394999D02*
X130799438Y-52356904D01*
X130799438Y-52356904D02*
X130837533Y-52280714D01*
X130837533Y-52280714D02*
X130837533Y-52128333D01*
X130837533Y-52128333D02*
X130799438Y-52052142D01*
X130799438Y-52052142D02*
X130761342Y-52014047D01*
X130761342Y-52014047D02*
X130685152Y-51975952D01*
X148160390Y-70796904D02*
X148122295Y-70873094D01*
X148122295Y-70873094D02*
X148122295Y-70987380D01*
X148122295Y-70987380D02*
X148160390Y-71101666D01*
X148160390Y-71101666D02*
X148236580Y-71177856D01*
X148236580Y-71177856D02*
X148312771Y-71215951D01*
X148312771Y-71215951D02*
X148465152Y-71254047D01*
X148465152Y-71254047D02*
X148579438Y-71254047D01*
X148579438Y-71254047D02*
X148731819Y-71215951D01*
X148731819Y-71215951D02*
X148808009Y-71177856D01*
X148808009Y-71177856D02*
X148884200Y-71101666D01*
X148884200Y-71101666D02*
X148922295Y-70987380D01*
X148922295Y-70987380D02*
X148922295Y-70911189D01*
X148922295Y-70911189D02*
X148884200Y-70796904D01*
X148884200Y-70796904D02*
X148846104Y-70758808D01*
X148846104Y-70758808D02*
X148579438Y-70758808D01*
X148579438Y-70758808D02*
X148579438Y-70911189D01*
X148922295Y-70415951D02*
X148122295Y-70415951D01*
X148122295Y-70415951D02*
X148122295Y-70111189D01*
X148122295Y-70111189D02*
X148160390Y-70034999D01*
X148160390Y-70034999D02*
X148198485Y-69996904D01*
X148198485Y-69996904D02*
X148274676Y-69958808D01*
X148274676Y-69958808D02*
X148388961Y-69958808D01*
X148388961Y-69958808D02*
X148465152Y-69996904D01*
X148465152Y-69996904D02*
X148503247Y-70034999D01*
X148503247Y-70034999D02*
X148541342Y-70111189D01*
X148541342Y-70111189D02*
X148541342Y-70415951D01*
X148922295Y-69615951D02*
X148122295Y-69615951D01*
X148122295Y-69082618D02*
X148122295Y-68930237D01*
X148122295Y-68930237D02*
X148160390Y-68854047D01*
X148160390Y-68854047D02*
X148236580Y-68777856D01*
X148236580Y-68777856D02*
X148388961Y-68739761D01*
X148388961Y-68739761D02*
X148655628Y-68739761D01*
X148655628Y-68739761D02*
X148808009Y-68777856D01*
X148808009Y-68777856D02*
X148884200Y-68854047D01*
X148884200Y-68854047D02*
X148922295Y-68930237D01*
X148922295Y-68930237D02*
X148922295Y-69082618D01*
X148922295Y-69082618D02*
X148884200Y-69158809D01*
X148884200Y-69158809D02*
X148808009Y-69234999D01*
X148808009Y-69234999D02*
X148655628Y-69273095D01*
X148655628Y-69273095D02*
X148388961Y-69273095D01*
X148388961Y-69273095D02*
X148236580Y-69234999D01*
X148236580Y-69234999D02*
X148160390Y-69158809D01*
X148160390Y-69158809D02*
X148122295Y-69082618D01*
X148922295Y-67977857D02*
X148922295Y-68435000D01*
X148922295Y-68206428D02*
X148122295Y-68206428D01*
X148122295Y-68206428D02*
X148236580Y-68282619D01*
X148236580Y-68282619D02*
X148312771Y-68358809D01*
X148312771Y-68358809D02*
X148350866Y-68435000D01*
X148122295Y-67254047D02*
X148122295Y-67634999D01*
X148122295Y-67634999D02*
X148503247Y-67673095D01*
X148503247Y-67673095D02*
X148465152Y-67634999D01*
X148465152Y-67634999D02*
X148427057Y-67558809D01*
X148427057Y-67558809D02*
X148427057Y-67368333D01*
X148427057Y-67368333D02*
X148465152Y-67292142D01*
X148465152Y-67292142D02*
X148503247Y-67254047D01*
X148503247Y-67254047D02*
X148579438Y-67215952D01*
X148579438Y-67215952D02*
X148769914Y-67215952D01*
X148769914Y-67215952D02*
X148846104Y-67254047D01*
X148846104Y-67254047D02*
X148884200Y-67292142D01*
X148884200Y-67292142D02*
X148922295Y-67368333D01*
X148922295Y-67368333D02*
X148922295Y-67558809D01*
X148922295Y-67558809D02*
X148884200Y-67634999D01*
X148884200Y-67634999D02*
X148846104Y-67673095D01*
X135460390Y-55556904D02*
X135422295Y-55633094D01*
X135422295Y-55633094D02*
X135422295Y-55747380D01*
X135422295Y-55747380D02*
X135460390Y-55861666D01*
X135460390Y-55861666D02*
X135536580Y-55937856D01*
X135536580Y-55937856D02*
X135612771Y-55975951D01*
X135612771Y-55975951D02*
X135765152Y-56014047D01*
X135765152Y-56014047D02*
X135879438Y-56014047D01*
X135879438Y-56014047D02*
X136031819Y-55975951D01*
X136031819Y-55975951D02*
X136108009Y-55937856D01*
X136108009Y-55937856D02*
X136184200Y-55861666D01*
X136184200Y-55861666D02*
X136222295Y-55747380D01*
X136222295Y-55747380D02*
X136222295Y-55671189D01*
X136222295Y-55671189D02*
X136184200Y-55556904D01*
X136184200Y-55556904D02*
X136146104Y-55518808D01*
X136146104Y-55518808D02*
X135879438Y-55518808D01*
X135879438Y-55518808D02*
X135879438Y-55671189D01*
X136222295Y-55175951D02*
X135422295Y-55175951D01*
X135422295Y-55175951D02*
X135422295Y-54871189D01*
X135422295Y-54871189D02*
X135460390Y-54794999D01*
X135460390Y-54794999D02*
X135498485Y-54756904D01*
X135498485Y-54756904D02*
X135574676Y-54718808D01*
X135574676Y-54718808D02*
X135688961Y-54718808D01*
X135688961Y-54718808D02*
X135765152Y-54756904D01*
X135765152Y-54756904D02*
X135803247Y-54794999D01*
X135803247Y-54794999D02*
X135841342Y-54871189D01*
X135841342Y-54871189D02*
X135841342Y-55175951D01*
X136222295Y-54375951D02*
X135422295Y-54375951D01*
X135422295Y-53842618D02*
X135422295Y-53690237D01*
X135422295Y-53690237D02*
X135460390Y-53614047D01*
X135460390Y-53614047D02*
X135536580Y-53537856D01*
X135536580Y-53537856D02*
X135688961Y-53499761D01*
X135688961Y-53499761D02*
X135955628Y-53499761D01*
X135955628Y-53499761D02*
X136108009Y-53537856D01*
X136108009Y-53537856D02*
X136184200Y-53614047D01*
X136184200Y-53614047D02*
X136222295Y-53690237D01*
X136222295Y-53690237D02*
X136222295Y-53842618D01*
X136222295Y-53842618D02*
X136184200Y-53918809D01*
X136184200Y-53918809D02*
X136108009Y-53994999D01*
X136108009Y-53994999D02*
X135955628Y-54033095D01*
X135955628Y-54033095D02*
X135688961Y-54033095D01*
X135688961Y-54033095D02*
X135536580Y-53994999D01*
X135536580Y-53994999D02*
X135460390Y-53918809D01*
X135460390Y-53918809D02*
X135422295Y-53842618D01*
X135422295Y-53233095D02*
X135422295Y-52737857D01*
X135422295Y-52737857D02*
X135727057Y-53004523D01*
X135727057Y-53004523D02*
X135727057Y-52890238D01*
X135727057Y-52890238D02*
X135765152Y-52814047D01*
X135765152Y-52814047D02*
X135803247Y-52775952D01*
X135803247Y-52775952D02*
X135879438Y-52737857D01*
X135879438Y-52737857D02*
X136069914Y-52737857D01*
X136069914Y-52737857D02*
X136146104Y-52775952D01*
X136146104Y-52775952D02*
X136184200Y-52814047D01*
X136184200Y-52814047D02*
X136222295Y-52890238D01*
X136222295Y-52890238D02*
X136222295Y-53118809D01*
X136222295Y-53118809D02*
X136184200Y-53195000D01*
X136184200Y-53195000D02*
X136146104Y-53233095D01*
X135422295Y-52014047D02*
X135422295Y-52394999D01*
X135422295Y-52394999D02*
X135803247Y-52433095D01*
X135803247Y-52433095D02*
X135765152Y-52394999D01*
X135765152Y-52394999D02*
X135727057Y-52318809D01*
X135727057Y-52318809D02*
X135727057Y-52128333D01*
X135727057Y-52128333D02*
X135765152Y-52052142D01*
X135765152Y-52052142D02*
X135803247Y-52014047D01*
X135803247Y-52014047D02*
X135879438Y-51975952D01*
X135879438Y-51975952D02*
X136069914Y-51975952D01*
X136069914Y-51975952D02*
X136146104Y-52014047D01*
X136146104Y-52014047D02*
X136184200Y-52052142D01*
X136184200Y-52052142D02*
X136222295Y-52128333D01*
X136222295Y-52128333D02*
X136222295Y-52318809D01*
X136222295Y-52318809D02*
X136184200Y-52394999D01*
X136184200Y-52394999D02*
X136146104Y-52433095D01*
X127840390Y-70415952D02*
X127802295Y-70492142D01*
X127802295Y-70492142D02*
X127802295Y-70606428D01*
X127802295Y-70606428D02*
X127840390Y-70720714D01*
X127840390Y-70720714D02*
X127916580Y-70796904D01*
X127916580Y-70796904D02*
X127992771Y-70834999D01*
X127992771Y-70834999D02*
X128145152Y-70873095D01*
X128145152Y-70873095D02*
X128259438Y-70873095D01*
X128259438Y-70873095D02*
X128411819Y-70834999D01*
X128411819Y-70834999D02*
X128488009Y-70796904D01*
X128488009Y-70796904D02*
X128564200Y-70720714D01*
X128564200Y-70720714D02*
X128602295Y-70606428D01*
X128602295Y-70606428D02*
X128602295Y-70530237D01*
X128602295Y-70530237D02*
X128564200Y-70415952D01*
X128564200Y-70415952D02*
X128526104Y-70377856D01*
X128526104Y-70377856D02*
X128259438Y-70377856D01*
X128259438Y-70377856D02*
X128259438Y-70530237D01*
X128602295Y-70034999D02*
X127802295Y-70034999D01*
X127802295Y-70034999D02*
X127802295Y-69730237D01*
X127802295Y-69730237D02*
X127840390Y-69654047D01*
X127840390Y-69654047D02*
X127878485Y-69615952D01*
X127878485Y-69615952D02*
X127954676Y-69577856D01*
X127954676Y-69577856D02*
X128068961Y-69577856D01*
X128068961Y-69577856D02*
X128145152Y-69615952D01*
X128145152Y-69615952D02*
X128183247Y-69654047D01*
X128183247Y-69654047D02*
X128221342Y-69730237D01*
X128221342Y-69730237D02*
X128221342Y-70034999D01*
X128602295Y-69234999D02*
X127802295Y-69234999D01*
X127802295Y-68701666D02*
X127802295Y-68549285D01*
X127802295Y-68549285D02*
X127840390Y-68473095D01*
X127840390Y-68473095D02*
X127916580Y-68396904D01*
X127916580Y-68396904D02*
X128068961Y-68358809D01*
X128068961Y-68358809D02*
X128335628Y-68358809D01*
X128335628Y-68358809D02*
X128488009Y-68396904D01*
X128488009Y-68396904D02*
X128564200Y-68473095D01*
X128564200Y-68473095D02*
X128602295Y-68549285D01*
X128602295Y-68549285D02*
X128602295Y-68701666D01*
X128602295Y-68701666D02*
X128564200Y-68777857D01*
X128564200Y-68777857D02*
X128488009Y-68854047D01*
X128488009Y-68854047D02*
X128335628Y-68892143D01*
X128335628Y-68892143D02*
X128068961Y-68892143D01*
X128068961Y-68892143D02*
X127916580Y-68854047D01*
X127916580Y-68854047D02*
X127840390Y-68777857D01*
X127840390Y-68777857D02*
X127802295Y-68701666D01*
X128602295Y-67596905D02*
X128602295Y-68054048D01*
X128602295Y-67825476D02*
X127802295Y-67825476D01*
X127802295Y-67825476D02*
X127916580Y-67901667D01*
X127916580Y-67901667D02*
X127992771Y-67977857D01*
X127992771Y-67977857D02*
X128030866Y-68054048D01*
X145620390Y-70415952D02*
X145582295Y-70492142D01*
X145582295Y-70492142D02*
X145582295Y-70606428D01*
X145582295Y-70606428D02*
X145620390Y-70720714D01*
X145620390Y-70720714D02*
X145696580Y-70796904D01*
X145696580Y-70796904D02*
X145772771Y-70834999D01*
X145772771Y-70834999D02*
X145925152Y-70873095D01*
X145925152Y-70873095D02*
X146039438Y-70873095D01*
X146039438Y-70873095D02*
X146191819Y-70834999D01*
X146191819Y-70834999D02*
X146268009Y-70796904D01*
X146268009Y-70796904D02*
X146344200Y-70720714D01*
X146344200Y-70720714D02*
X146382295Y-70606428D01*
X146382295Y-70606428D02*
X146382295Y-70530237D01*
X146382295Y-70530237D02*
X146344200Y-70415952D01*
X146344200Y-70415952D02*
X146306104Y-70377856D01*
X146306104Y-70377856D02*
X146039438Y-70377856D01*
X146039438Y-70377856D02*
X146039438Y-70530237D01*
X146382295Y-70034999D02*
X145582295Y-70034999D01*
X145582295Y-70034999D02*
X145582295Y-69730237D01*
X145582295Y-69730237D02*
X145620390Y-69654047D01*
X145620390Y-69654047D02*
X145658485Y-69615952D01*
X145658485Y-69615952D02*
X145734676Y-69577856D01*
X145734676Y-69577856D02*
X145848961Y-69577856D01*
X145848961Y-69577856D02*
X145925152Y-69615952D01*
X145925152Y-69615952D02*
X145963247Y-69654047D01*
X145963247Y-69654047D02*
X146001342Y-69730237D01*
X146001342Y-69730237D02*
X146001342Y-70034999D01*
X146382295Y-69234999D02*
X145582295Y-69234999D01*
X145582295Y-68701666D02*
X145582295Y-68549285D01*
X145582295Y-68549285D02*
X145620390Y-68473095D01*
X145620390Y-68473095D02*
X145696580Y-68396904D01*
X145696580Y-68396904D02*
X145848961Y-68358809D01*
X145848961Y-68358809D02*
X146115628Y-68358809D01*
X146115628Y-68358809D02*
X146268009Y-68396904D01*
X146268009Y-68396904D02*
X146344200Y-68473095D01*
X146344200Y-68473095D02*
X146382295Y-68549285D01*
X146382295Y-68549285D02*
X146382295Y-68701666D01*
X146382295Y-68701666D02*
X146344200Y-68777857D01*
X146344200Y-68777857D02*
X146268009Y-68854047D01*
X146268009Y-68854047D02*
X146115628Y-68892143D01*
X146115628Y-68892143D02*
X145848961Y-68892143D01*
X145848961Y-68892143D02*
X145696580Y-68854047D01*
X145696580Y-68854047D02*
X145620390Y-68777857D01*
X145620390Y-68777857D02*
X145582295Y-68701666D01*
X145582295Y-67635000D02*
X145582295Y-68015952D01*
X145582295Y-68015952D02*
X145963247Y-68054048D01*
X145963247Y-68054048D02*
X145925152Y-68015952D01*
X145925152Y-68015952D02*
X145887057Y-67939762D01*
X145887057Y-67939762D02*
X145887057Y-67749286D01*
X145887057Y-67749286D02*
X145925152Y-67673095D01*
X145925152Y-67673095D02*
X145963247Y-67635000D01*
X145963247Y-67635000D02*
X146039438Y-67596905D01*
X146039438Y-67596905D02*
X146229914Y-67596905D01*
X146229914Y-67596905D02*
X146306104Y-67635000D01*
X146306104Y-67635000D02*
X146344200Y-67673095D01*
X146344200Y-67673095D02*
X146382295Y-67749286D01*
X146382295Y-67749286D02*
X146382295Y-67939762D01*
X146382295Y-67939762D02*
X146344200Y-68015952D01*
X146344200Y-68015952D02*
X146306104Y-68054048D01*
X148160390Y-55556904D02*
X148122295Y-55633094D01*
X148122295Y-55633094D02*
X148122295Y-55747380D01*
X148122295Y-55747380D02*
X148160390Y-55861666D01*
X148160390Y-55861666D02*
X148236580Y-55937856D01*
X148236580Y-55937856D02*
X148312771Y-55975951D01*
X148312771Y-55975951D02*
X148465152Y-56014047D01*
X148465152Y-56014047D02*
X148579438Y-56014047D01*
X148579438Y-56014047D02*
X148731819Y-55975951D01*
X148731819Y-55975951D02*
X148808009Y-55937856D01*
X148808009Y-55937856D02*
X148884200Y-55861666D01*
X148884200Y-55861666D02*
X148922295Y-55747380D01*
X148922295Y-55747380D02*
X148922295Y-55671189D01*
X148922295Y-55671189D02*
X148884200Y-55556904D01*
X148884200Y-55556904D02*
X148846104Y-55518808D01*
X148846104Y-55518808D02*
X148579438Y-55518808D01*
X148579438Y-55518808D02*
X148579438Y-55671189D01*
X148922295Y-55175951D02*
X148122295Y-55175951D01*
X148122295Y-55175951D02*
X148122295Y-54871189D01*
X148122295Y-54871189D02*
X148160390Y-54794999D01*
X148160390Y-54794999D02*
X148198485Y-54756904D01*
X148198485Y-54756904D02*
X148274676Y-54718808D01*
X148274676Y-54718808D02*
X148388961Y-54718808D01*
X148388961Y-54718808D02*
X148465152Y-54756904D01*
X148465152Y-54756904D02*
X148503247Y-54794999D01*
X148503247Y-54794999D02*
X148541342Y-54871189D01*
X148541342Y-54871189D02*
X148541342Y-55175951D01*
X148922295Y-54375951D02*
X148122295Y-54375951D01*
X148122295Y-53842618D02*
X148122295Y-53690237D01*
X148122295Y-53690237D02*
X148160390Y-53614047D01*
X148160390Y-53614047D02*
X148236580Y-53537856D01*
X148236580Y-53537856D02*
X148388961Y-53499761D01*
X148388961Y-53499761D02*
X148655628Y-53499761D01*
X148655628Y-53499761D02*
X148808009Y-53537856D01*
X148808009Y-53537856D02*
X148884200Y-53614047D01*
X148884200Y-53614047D02*
X148922295Y-53690237D01*
X148922295Y-53690237D02*
X148922295Y-53842618D01*
X148922295Y-53842618D02*
X148884200Y-53918809D01*
X148884200Y-53918809D02*
X148808009Y-53994999D01*
X148808009Y-53994999D02*
X148655628Y-54033095D01*
X148655628Y-54033095D02*
X148388961Y-54033095D01*
X148388961Y-54033095D02*
X148236580Y-53994999D01*
X148236580Y-53994999D02*
X148160390Y-53918809D01*
X148160390Y-53918809D02*
X148122295Y-53842618D01*
X148198485Y-53195000D02*
X148160390Y-53156904D01*
X148160390Y-53156904D02*
X148122295Y-53080714D01*
X148122295Y-53080714D02*
X148122295Y-52890238D01*
X148122295Y-52890238D02*
X148160390Y-52814047D01*
X148160390Y-52814047D02*
X148198485Y-52775952D01*
X148198485Y-52775952D02*
X148274676Y-52737857D01*
X148274676Y-52737857D02*
X148350866Y-52737857D01*
X148350866Y-52737857D02*
X148465152Y-52775952D01*
X148465152Y-52775952D02*
X148922295Y-53233095D01*
X148922295Y-53233095D02*
X148922295Y-52737857D01*
X148122295Y-52471190D02*
X148122295Y-51937856D01*
X148122295Y-51937856D02*
X148922295Y-52280714D01*
X143080390Y-55556904D02*
X143042295Y-55633094D01*
X143042295Y-55633094D02*
X143042295Y-55747380D01*
X143042295Y-55747380D02*
X143080390Y-55861666D01*
X143080390Y-55861666D02*
X143156580Y-55937856D01*
X143156580Y-55937856D02*
X143232771Y-55975951D01*
X143232771Y-55975951D02*
X143385152Y-56014047D01*
X143385152Y-56014047D02*
X143499438Y-56014047D01*
X143499438Y-56014047D02*
X143651819Y-55975951D01*
X143651819Y-55975951D02*
X143728009Y-55937856D01*
X143728009Y-55937856D02*
X143804200Y-55861666D01*
X143804200Y-55861666D02*
X143842295Y-55747380D01*
X143842295Y-55747380D02*
X143842295Y-55671189D01*
X143842295Y-55671189D02*
X143804200Y-55556904D01*
X143804200Y-55556904D02*
X143766104Y-55518808D01*
X143766104Y-55518808D02*
X143499438Y-55518808D01*
X143499438Y-55518808D02*
X143499438Y-55671189D01*
X143842295Y-55175951D02*
X143042295Y-55175951D01*
X143042295Y-55175951D02*
X143042295Y-54871189D01*
X143042295Y-54871189D02*
X143080390Y-54794999D01*
X143080390Y-54794999D02*
X143118485Y-54756904D01*
X143118485Y-54756904D02*
X143194676Y-54718808D01*
X143194676Y-54718808D02*
X143308961Y-54718808D01*
X143308961Y-54718808D02*
X143385152Y-54756904D01*
X143385152Y-54756904D02*
X143423247Y-54794999D01*
X143423247Y-54794999D02*
X143461342Y-54871189D01*
X143461342Y-54871189D02*
X143461342Y-55175951D01*
X143842295Y-54375951D02*
X143042295Y-54375951D01*
X143042295Y-53842618D02*
X143042295Y-53690237D01*
X143042295Y-53690237D02*
X143080390Y-53614047D01*
X143080390Y-53614047D02*
X143156580Y-53537856D01*
X143156580Y-53537856D02*
X143308961Y-53499761D01*
X143308961Y-53499761D02*
X143575628Y-53499761D01*
X143575628Y-53499761D02*
X143728009Y-53537856D01*
X143728009Y-53537856D02*
X143804200Y-53614047D01*
X143804200Y-53614047D02*
X143842295Y-53690237D01*
X143842295Y-53690237D02*
X143842295Y-53842618D01*
X143842295Y-53842618D02*
X143804200Y-53918809D01*
X143804200Y-53918809D02*
X143728009Y-53994999D01*
X143728009Y-53994999D02*
X143575628Y-54033095D01*
X143575628Y-54033095D02*
X143308961Y-54033095D01*
X143308961Y-54033095D02*
X143156580Y-53994999D01*
X143156580Y-53994999D02*
X143080390Y-53918809D01*
X143080390Y-53918809D02*
X143042295Y-53842618D01*
X143118485Y-53195000D02*
X143080390Y-53156904D01*
X143080390Y-53156904D02*
X143042295Y-53080714D01*
X143042295Y-53080714D02*
X143042295Y-52890238D01*
X143042295Y-52890238D02*
X143080390Y-52814047D01*
X143080390Y-52814047D02*
X143118485Y-52775952D01*
X143118485Y-52775952D02*
X143194676Y-52737857D01*
X143194676Y-52737857D02*
X143270866Y-52737857D01*
X143270866Y-52737857D02*
X143385152Y-52775952D01*
X143385152Y-52775952D02*
X143842295Y-53233095D01*
X143842295Y-53233095D02*
X143842295Y-52737857D01*
X143042295Y-52014047D02*
X143042295Y-52394999D01*
X143042295Y-52394999D02*
X143423247Y-52433095D01*
X143423247Y-52433095D02*
X143385152Y-52394999D01*
X143385152Y-52394999D02*
X143347057Y-52318809D01*
X143347057Y-52318809D02*
X143347057Y-52128333D01*
X143347057Y-52128333D02*
X143385152Y-52052142D01*
X143385152Y-52052142D02*
X143423247Y-52014047D01*
X143423247Y-52014047D02*
X143499438Y-51975952D01*
X143499438Y-51975952D02*
X143689914Y-51975952D01*
X143689914Y-51975952D02*
X143766104Y-52014047D01*
X143766104Y-52014047D02*
X143804200Y-52052142D01*
X143804200Y-52052142D02*
X143842295Y-52128333D01*
X143842295Y-52128333D02*
X143842295Y-52318809D01*
X143842295Y-52318809D02*
X143804200Y-52394999D01*
X143804200Y-52394999D02*
X143766104Y-52433095D01*
X153240390Y-55556904D02*
X153202295Y-55633094D01*
X153202295Y-55633094D02*
X153202295Y-55747380D01*
X153202295Y-55747380D02*
X153240390Y-55861666D01*
X153240390Y-55861666D02*
X153316580Y-55937856D01*
X153316580Y-55937856D02*
X153392771Y-55975951D01*
X153392771Y-55975951D02*
X153545152Y-56014047D01*
X153545152Y-56014047D02*
X153659438Y-56014047D01*
X153659438Y-56014047D02*
X153811819Y-55975951D01*
X153811819Y-55975951D02*
X153888009Y-55937856D01*
X153888009Y-55937856D02*
X153964200Y-55861666D01*
X153964200Y-55861666D02*
X154002295Y-55747380D01*
X154002295Y-55747380D02*
X154002295Y-55671189D01*
X154002295Y-55671189D02*
X153964200Y-55556904D01*
X153964200Y-55556904D02*
X153926104Y-55518808D01*
X153926104Y-55518808D02*
X153659438Y-55518808D01*
X153659438Y-55518808D02*
X153659438Y-55671189D01*
X154002295Y-55175951D02*
X153202295Y-55175951D01*
X153202295Y-55175951D02*
X153202295Y-54871189D01*
X153202295Y-54871189D02*
X153240390Y-54794999D01*
X153240390Y-54794999D02*
X153278485Y-54756904D01*
X153278485Y-54756904D02*
X153354676Y-54718808D01*
X153354676Y-54718808D02*
X153468961Y-54718808D01*
X153468961Y-54718808D02*
X153545152Y-54756904D01*
X153545152Y-54756904D02*
X153583247Y-54794999D01*
X153583247Y-54794999D02*
X153621342Y-54871189D01*
X153621342Y-54871189D02*
X153621342Y-55175951D01*
X154002295Y-54375951D02*
X153202295Y-54375951D01*
X153202295Y-53842618D02*
X153202295Y-53690237D01*
X153202295Y-53690237D02*
X153240390Y-53614047D01*
X153240390Y-53614047D02*
X153316580Y-53537856D01*
X153316580Y-53537856D02*
X153468961Y-53499761D01*
X153468961Y-53499761D02*
X153735628Y-53499761D01*
X153735628Y-53499761D02*
X153888009Y-53537856D01*
X153888009Y-53537856D02*
X153964200Y-53614047D01*
X153964200Y-53614047D02*
X154002295Y-53690237D01*
X154002295Y-53690237D02*
X154002295Y-53842618D01*
X154002295Y-53842618D02*
X153964200Y-53918809D01*
X153964200Y-53918809D02*
X153888009Y-53994999D01*
X153888009Y-53994999D02*
X153735628Y-54033095D01*
X153735628Y-54033095D02*
X153468961Y-54033095D01*
X153468961Y-54033095D02*
X153316580Y-53994999D01*
X153316580Y-53994999D02*
X153240390Y-53918809D01*
X153240390Y-53918809D02*
X153202295Y-53842618D01*
X154002295Y-52737857D02*
X154002295Y-53195000D01*
X154002295Y-52966428D02*
X153202295Y-52966428D01*
X153202295Y-52966428D02*
X153316580Y-53042619D01*
X153316580Y-53042619D02*
X153392771Y-53118809D01*
X153392771Y-53118809D02*
X153430866Y-53195000D01*
X153278485Y-52433095D02*
X153240390Y-52394999D01*
X153240390Y-52394999D02*
X153202295Y-52318809D01*
X153202295Y-52318809D02*
X153202295Y-52128333D01*
X153202295Y-52128333D02*
X153240390Y-52052142D01*
X153240390Y-52052142D02*
X153278485Y-52014047D01*
X153278485Y-52014047D02*
X153354676Y-51975952D01*
X153354676Y-51975952D02*
X153430866Y-51975952D01*
X153430866Y-51975952D02*
X153545152Y-52014047D01*
X153545152Y-52014047D02*
X154002295Y-52471190D01*
X154002295Y-52471190D02*
X154002295Y-51975952D01*
X135460390Y-70796904D02*
X135422295Y-70873094D01*
X135422295Y-70873094D02*
X135422295Y-70987380D01*
X135422295Y-70987380D02*
X135460390Y-71101666D01*
X135460390Y-71101666D02*
X135536580Y-71177856D01*
X135536580Y-71177856D02*
X135612771Y-71215951D01*
X135612771Y-71215951D02*
X135765152Y-71254047D01*
X135765152Y-71254047D02*
X135879438Y-71254047D01*
X135879438Y-71254047D02*
X136031819Y-71215951D01*
X136031819Y-71215951D02*
X136108009Y-71177856D01*
X136108009Y-71177856D02*
X136184200Y-71101666D01*
X136184200Y-71101666D02*
X136222295Y-70987380D01*
X136222295Y-70987380D02*
X136222295Y-70911189D01*
X136222295Y-70911189D02*
X136184200Y-70796904D01*
X136184200Y-70796904D02*
X136146104Y-70758808D01*
X136146104Y-70758808D02*
X135879438Y-70758808D01*
X135879438Y-70758808D02*
X135879438Y-70911189D01*
X136222295Y-70415951D02*
X135422295Y-70415951D01*
X135422295Y-70415951D02*
X135422295Y-70111189D01*
X135422295Y-70111189D02*
X135460390Y-70034999D01*
X135460390Y-70034999D02*
X135498485Y-69996904D01*
X135498485Y-69996904D02*
X135574676Y-69958808D01*
X135574676Y-69958808D02*
X135688961Y-69958808D01*
X135688961Y-69958808D02*
X135765152Y-69996904D01*
X135765152Y-69996904D02*
X135803247Y-70034999D01*
X135803247Y-70034999D02*
X135841342Y-70111189D01*
X135841342Y-70111189D02*
X135841342Y-70415951D01*
X136222295Y-69615951D02*
X135422295Y-69615951D01*
X135422295Y-69082618D02*
X135422295Y-68930237D01*
X135422295Y-68930237D02*
X135460390Y-68854047D01*
X135460390Y-68854047D02*
X135536580Y-68777856D01*
X135536580Y-68777856D02*
X135688961Y-68739761D01*
X135688961Y-68739761D02*
X135955628Y-68739761D01*
X135955628Y-68739761D02*
X136108009Y-68777856D01*
X136108009Y-68777856D02*
X136184200Y-68854047D01*
X136184200Y-68854047D02*
X136222295Y-68930237D01*
X136222295Y-68930237D02*
X136222295Y-69082618D01*
X136222295Y-69082618D02*
X136184200Y-69158809D01*
X136184200Y-69158809D02*
X136108009Y-69234999D01*
X136108009Y-69234999D02*
X135955628Y-69273095D01*
X135955628Y-69273095D02*
X135688961Y-69273095D01*
X135688961Y-69273095D02*
X135536580Y-69234999D01*
X135536580Y-69234999D02*
X135460390Y-69158809D01*
X135460390Y-69158809D02*
X135422295Y-69082618D01*
X135498485Y-68435000D02*
X135460390Y-68396904D01*
X135460390Y-68396904D02*
X135422295Y-68320714D01*
X135422295Y-68320714D02*
X135422295Y-68130238D01*
X135422295Y-68130238D02*
X135460390Y-68054047D01*
X135460390Y-68054047D02*
X135498485Y-68015952D01*
X135498485Y-68015952D02*
X135574676Y-67977857D01*
X135574676Y-67977857D02*
X135650866Y-67977857D01*
X135650866Y-67977857D02*
X135765152Y-68015952D01*
X135765152Y-68015952D02*
X136222295Y-68473095D01*
X136222295Y-68473095D02*
X136222295Y-67977857D01*
X135498485Y-67673095D02*
X135460390Y-67634999D01*
X135460390Y-67634999D02*
X135422295Y-67558809D01*
X135422295Y-67558809D02*
X135422295Y-67368333D01*
X135422295Y-67368333D02*
X135460390Y-67292142D01*
X135460390Y-67292142D02*
X135498485Y-67254047D01*
X135498485Y-67254047D02*
X135574676Y-67215952D01*
X135574676Y-67215952D02*
X135650866Y-67215952D01*
X135650866Y-67215952D02*
X135765152Y-67254047D01*
X135765152Y-67254047D02*
X136222295Y-67711190D01*
X136222295Y-67711190D02*
X136222295Y-67215952D01*
X136398095Y-78714819D02*
X136398095Y-79524342D01*
X136398095Y-79524342D02*
X136445714Y-79619580D01*
X136445714Y-79619580D02*
X136493333Y-79667200D01*
X136493333Y-79667200D02*
X136588571Y-79714819D01*
X136588571Y-79714819D02*
X136779047Y-79714819D01*
X136779047Y-79714819D02*
X136874285Y-79667200D01*
X136874285Y-79667200D02*
X136921904Y-79619580D01*
X136921904Y-79619580D02*
X136969523Y-79524342D01*
X136969523Y-79524342D02*
X136969523Y-78714819D01*
X137398095Y-78810057D02*
X137445714Y-78762438D01*
X137445714Y-78762438D02*
X137540952Y-78714819D01*
X137540952Y-78714819D02*
X137779047Y-78714819D01*
X137779047Y-78714819D02*
X137874285Y-78762438D01*
X137874285Y-78762438D02*
X137921904Y-78810057D01*
X137921904Y-78810057D02*
X137969523Y-78905295D01*
X137969523Y-78905295D02*
X137969523Y-79000533D01*
X137969523Y-79000533D02*
X137921904Y-79143390D01*
X137921904Y-79143390D02*
X137350476Y-79714819D01*
X137350476Y-79714819D02*
X137969523Y-79714819D01*
%TO.C,G\u002A\u002A\u002A*%
G36*
X115655094Y-108910908D02*
G01*
X115673215Y-108912129D01*
X115687340Y-108914756D01*
X115700464Y-108919277D01*
X115710208Y-108923615D01*
X115746966Y-108946008D01*
X115777410Y-108975038D01*
X115800856Y-109009322D01*
X115816619Y-109047480D01*
X115824016Y-109088131D01*
X115822362Y-109129893D01*
X115819551Y-109144380D01*
X115806073Y-109181220D01*
X115784366Y-109215848D01*
X115756202Y-109246096D01*
X115723351Y-109269796D01*
X115712370Y-109275533D01*
X115673952Y-109288665D01*
X115633954Y-109293083D01*
X115593973Y-109289303D01*
X115555602Y-109277837D01*
X115520435Y-109259202D01*
X115490067Y-109233911D01*
X115466091Y-109202480D01*
X115461758Y-109194647D01*
X115445394Y-109156908D01*
X115437275Y-109121892D01*
X115436970Y-109087346D01*
X115438738Y-109074312D01*
X115450957Y-109029724D01*
X115471240Y-108990961D01*
X115499385Y-108958296D01*
X115535191Y-108932000D01*
X115549374Y-108924412D01*
X115563330Y-108918049D01*
X115575873Y-108913996D01*
X115589969Y-108911745D01*
X115608589Y-108910787D01*
X115629980Y-108910609D01*
X115655094Y-108910908D01*
G37*
G36*
X118053702Y-108085782D02*
G01*
X118078325Y-108095381D01*
X118097913Y-108111710D01*
X118111648Y-108133432D01*
X118118715Y-108159210D01*
X118118296Y-108187707D01*
X118109573Y-108217587D01*
X118108207Y-108220609D01*
X118099615Y-108236050D01*
X118086777Y-108255649D01*
X118071978Y-108275991D01*
X118066393Y-108283109D01*
X118050302Y-108302150D01*
X118029920Y-108324796D01*
X118006689Y-108349588D01*
X117982052Y-108375069D01*
X117957452Y-108399781D01*
X117934330Y-108422267D01*
X117914130Y-108441068D01*
X117898294Y-108454727D01*
X117891577Y-108459786D01*
X117864098Y-108473248D01*
X117835481Y-108477977D01*
X117807656Y-108474025D01*
X117782556Y-108461444D01*
X117776628Y-108456691D01*
X117757331Y-108433507D01*
X117746662Y-108406351D01*
X117745097Y-108377040D01*
X117750055Y-108355106D01*
X117755212Y-108347205D01*
X117766727Y-108333606D01*
X117783598Y-108315381D01*
X117804824Y-108293602D01*
X117829404Y-108269341D01*
X117837196Y-108261822D01*
X117870836Y-108228795D01*
X117899526Y-108199128D01*
X117922432Y-108173718D01*
X117938726Y-108153463D01*
X117942556Y-108147994D01*
X117962339Y-108120962D01*
X117980729Y-108102251D01*
X117999309Y-108090633D01*
X118019662Y-108084882D01*
X118024863Y-108084251D01*
X118053702Y-108085782D01*
G37*
G36*
X120120267Y-110837531D02*
G01*
X120144366Y-110850675D01*
X120163365Y-110872361D01*
X120170529Y-110885609D01*
X120176443Y-110899603D01*
X120178889Y-110910798D01*
X120178024Y-110923068D01*
X120174004Y-110940282D01*
X120172901Y-110944415D01*
X120161921Y-110969871D01*
X120143148Y-110996914D01*
X120118318Y-111024097D01*
X120089168Y-111049973D01*
X120057434Y-111073098D01*
X120024852Y-111092024D01*
X119993159Y-111105306D01*
X119973804Y-111110237D01*
X119946230Y-111110712D01*
X119921089Y-111103086D01*
X119899769Y-111088790D01*
X119883663Y-111069253D01*
X119874161Y-111045905D01*
X119872655Y-111020176D01*
X119874866Y-111008531D01*
X119882513Y-110988651D01*
X119894624Y-110972717D01*
X119913165Y-110958663D01*
X119932224Y-110948237D01*
X119963727Y-110929768D01*
X119991563Y-110908075D01*
X120013206Y-110885249D01*
X120020096Y-110875421D01*
X120034988Y-110858332D01*
X120055168Y-110844196D01*
X120076965Y-110835191D01*
X120091343Y-110833109D01*
X120120267Y-110837531D01*
G37*
G36*
X116073082Y-109399257D02*
G01*
X116086410Y-109402762D01*
X116101342Y-109409564D01*
X116119254Y-109420435D01*
X116141526Y-109436144D01*
X116169533Y-109457462D01*
X116178892Y-109464778D01*
X116215509Y-109494661D01*
X116244938Y-109521433D01*
X116268789Y-109546733D01*
X116288674Y-109572201D01*
X116297935Y-109585985D01*
X116324355Y-109636097D01*
X116342421Y-109689788D01*
X116352195Y-109745675D01*
X116353739Y-109802371D01*
X116347114Y-109858491D01*
X116332380Y-109912652D01*
X116309600Y-109963469D01*
X116279222Y-110009072D01*
X116268456Y-110022535D01*
X116304499Y-110061131D01*
X116335782Y-110100171D01*
X116362288Y-110144302D01*
X116382368Y-110190437D01*
X116392549Y-110226013D01*
X116397695Y-110256333D01*
X116401124Y-110289508D01*
X116402663Y-110322242D01*
X116402141Y-110351239D01*
X116400072Y-110369811D01*
X116385535Y-110426016D01*
X116363327Y-110479269D01*
X116352944Y-110498324D01*
X116339893Y-110518202D01*
X116322399Y-110541435D01*
X116301806Y-110566566D01*
X116279457Y-110592136D01*
X116256695Y-110616687D01*
X116234865Y-110638759D01*
X116215308Y-110656896D01*
X116199369Y-110669638D01*
X116190301Y-110674897D01*
X116160389Y-110682202D01*
X116132034Y-110680626D01*
X116106535Y-110671256D01*
X116085188Y-110655182D01*
X116069289Y-110633490D01*
X116060136Y-110607268D01*
X116059026Y-110577604D01*
X116060840Y-110566317D01*
X116063648Y-110556535D01*
X116068451Y-110546434D01*
X116076277Y-110534592D01*
X116088155Y-110519585D01*
X116105111Y-110499990D01*
X116123633Y-110479382D01*
X116152372Y-110446709D01*
X116174338Y-110419143D01*
X116190322Y-110395250D01*
X116201116Y-110373600D01*
X116207513Y-110352758D01*
X116210303Y-110331294D01*
X116210588Y-110322105D01*
X116207870Y-110286275D01*
X116199731Y-110252077D01*
X116187023Y-110221743D01*
X116170599Y-110197503D01*
X116158802Y-110186423D01*
X116136973Y-110171896D01*
X116115630Y-110161091D01*
X116096938Y-110154878D01*
X116083065Y-110154129D01*
X116080513Y-110154937D01*
X116074371Y-110158428D01*
X116071486Y-110163607D01*
X116071309Y-110173185D01*
X116073289Y-110189870D01*
X116073347Y-110190294D01*
X116075742Y-110213607D01*
X116077234Y-110239182D01*
X116077480Y-110251439D01*
X116076650Y-110270823D01*
X116073271Y-110284913D01*
X116066009Y-110298342D01*
X116062480Y-110303493D01*
X116040658Y-110326359D01*
X116014206Y-110340994D01*
X115984732Y-110346981D01*
X115953845Y-110343904D01*
X115933764Y-110336841D01*
X115908775Y-110321805D01*
X115891899Y-110302492D01*
X115881525Y-110276964D01*
X115880494Y-110272756D01*
X115878681Y-110260994D01*
X115876602Y-110241163D01*
X115874416Y-110215184D01*
X115872281Y-110184979D01*
X115870358Y-110152470D01*
X115870087Y-110147304D01*
X115867788Y-110108634D01*
X115864761Y-110066334D01*
X115861296Y-110024006D01*
X115857685Y-109985255D01*
X115854951Y-109959804D01*
X115850383Y-109918736D01*
X115847331Y-109886178D01*
X115845771Y-109860761D01*
X115845679Y-109841114D01*
X115847030Y-109825868D01*
X115849801Y-109813653D01*
X115852244Y-109806945D01*
X115866885Y-109784102D01*
X115888412Y-109766104D01*
X115914521Y-109753845D01*
X115942911Y-109748220D01*
X115971280Y-109750122D01*
X115986390Y-109754845D01*
X115999220Y-109762591D01*
X116013776Y-109774725D01*
X116020690Y-109781763D01*
X116033370Y-109799229D01*
X116042125Y-109820059D01*
X116047432Y-109846114D01*
X116049769Y-109879256D01*
X116049980Y-109895856D01*
X116050274Y-109915001D01*
X116051061Y-109929622D01*
X116052192Y-109937417D01*
X116052679Y-109938109D01*
X116058382Y-109936030D01*
X116069628Y-109930783D01*
X116075404Y-109927893D01*
X116099410Y-109912638D01*
X116121803Y-109893093D01*
X116139412Y-109872225D01*
X116145327Y-109862427D01*
X116154037Y-109838736D01*
X116159867Y-109809641D01*
X116162296Y-109779459D01*
X116160799Y-109752505D01*
X116159487Y-109745609D01*
X116153173Y-109723070D01*
X116144872Y-109703254D01*
X116133439Y-109684728D01*
X116117725Y-109666060D01*
X116096584Y-109645818D01*
X116068868Y-109622570D01*
X116047340Y-109605600D01*
X116024129Y-109586995D01*
X116003905Y-109569648D01*
X115988167Y-109554920D01*
X115978412Y-109544172D01*
X115976514Y-109541279D01*
X115965918Y-109511580D01*
X115964258Y-109482619D01*
X115970713Y-109455808D01*
X115984457Y-109432557D01*
X116004667Y-109414278D01*
X116030520Y-109402383D01*
X116059980Y-109398280D01*
X116073082Y-109399257D01*
G37*
G36*
X116206467Y-107576291D02*
G01*
X116238767Y-107585448D01*
X116265303Y-107602339D01*
X116286496Y-107627352D01*
X116302768Y-107660876D01*
X116305036Y-107667334D01*
X116309424Y-107682007D01*
X116312694Y-107697407D01*
X116315085Y-107715596D01*
X116316832Y-107738635D01*
X116318172Y-107768583D01*
X116318763Y-107786766D01*
X116321339Y-107872923D01*
X116336033Y-107849753D01*
X116353669Y-107825389D01*
X116374955Y-107801235D01*
X116397563Y-107779580D01*
X116419166Y-107762710D01*
X116432480Y-107754958D01*
X116463378Y-107745554D01*
X116495518Y-107744788D01*
X116526648Y-107752188D01*
X116554519Y-107767286D01*
X116572666Y-107784243D01*
X116593586Y-107815602D01*
X116611475Y-107856367D01*
X116626347Y-107906579D01*
X116638213Y-107966278D01*
X116642492Y-107995609D01*
X116646597Y-108026523D01*
X116651214Y-108060938D01*
X116655650Y-108093707D01*
X116657960Y-108110609D01*
X116661059Y-108137112D01*
X116664049Y-108169658D01*
X116666607Y-108204290D01*
X116668410Y-108237053D01*
X116668529Y-108239913D01*
X116669839Y-108269138D01*
X116671202Y-108290087D01*
X116672890Y-108304477D01*
X116675179Y-108314030D01*
X116678341Y-108320465D01*
X116682061Y-108324913D01*
X116692375Y-108336230D01*
X116703717Y-108349797D01*
X116705031Y-108351455D01*
X116710964Y-108358441D01*
X116717151Y-108363249D01*
X116725737Y-108366561D01*
X116738868Y-108369056D01*
X116758689Y-108371413D01*
X116772480Y-108372822D01*
X116816767Y-108376555D01*
X116864798Y-108379368D01*
X116914257Y-108381216D01*
X116962829Y-108382058D01*
X117008199Y-108381852D01*
X117048052Y-108380556D01*
X117077480Y-108378401D01*
X117134756Y-108370065D01*
X117197526Y-108356580D01*
X117263219Y-108338710D01*
X117329262Y-108317216D01*
X117393085Y-108292863D01*
X117447480Y-108268659D01*
X117480502Y-108251874D01*
X117519401Y-108230644D01*
X117561902Y-108206316D01*
X117605729Y-108180239D01*
X117648606Y-108153758D01*
X117688260Y-108128223D01*
X117714366Y-108110605D01*
X117735272Y-108096859D01*
X117755300Y-108084957D01*
X117771864Y-108076367D01*
X117780690Y-108072918D01*
X117808111Y-108070117D01*
X117833491Y-108075844D01*
X117855577Y-108088660D01*
X117873115Y-108107125D01*
X117884853Y-108129800D01*
X117889536Y-108155243D01*
X117885912Y-108182016D01*
X117882905Y-108190362D01*
X117878867Y-108201998D01*
X117877929Y-108209109D01*
X117878211Y-108209674D01*
X117875753Y-108213821D01*
X117865998Y-108222617D01*
X117850019Y-108235243D01*
X117828891Y-108250880D01*
X117803690Y-108268707D01*
X117776568Y-108287184D01*
X117675377Y-108350712D01*
X117573096Y-108406714D01*
X117470549Y-108454853D01*
X117368563Y-108494787D01*
X117267963Y-108526178D01*
X117169575Y-108548685D01*
X117122480Y-108556360D01*
X117086501Y-108560302D01*
X117042781Y-108563236D01*
X116993536Y-108565035D01*
X116961318Y-108565525D01*
X116930528Y-108565875D01*
X116903251Y-108566423D01*
X116881026Y-108567117D01*
X116865395Y-108567908D01*
X116857897Y-108568745D01*
X116857500Y-108568923D01*
X116858883Y-108573975D01*
X116864542Y-108585934D01*
X116873622Y-108603124D01*
X116885265Y-108623871D01*
X116887998Y-108628594D01*
X116906496Y-108661515D01*
X116927882Y-108701418D01*
X116951064Y-108746112D01*
X116974949Y-108793407D01*
X116998444Y-108841110D01*
X117020457Y-108887032D01*
X117039895Y-108928981D01*
X117055665Y-108964766D01*
X117055677Y-108964795D01*
X117091174Y-109052084D01*
X117123264Y-109139017D01*
X117152456Y-109227329D01*
X117179259Y-109318751D01*
X117204183Y-109415018D01*
X117227737Y-109517862D01*
X117249769Y-109625609D01*
X117259436Y-109681784D01*
X117268358Y-109746129D01*
X117276405Y-109816833D01*
X117283448Y-109892087D01*
X117289355Y-109970080D01*
X117293996Y-110049000D01*
X117297241Y-110127038D01*
X117298960Y-110202383D01*
X117299022Y-110273224D01*
X117298489Y-110302587D01*
X117291119Y-110456862D01*
X117276728Y-110604970D01*
X117255169Y-110748004D01*
X117226296Y-110887060D01*
X117213630Y-110938109D01*
X117206117Y-110966785D01*
X117200919Y-110987123D01*
X117198130Y-111000536D01*
X117197849Y-111008439D01*
X117200173Y-111012245D01*
X117205197Y-111013368D01*
X117213019Y-111013220D01*
X117218765Y-111013109D01*
X117268463Y-111010412D01*
X117317032Y-111001938D01*
X117366621Y-110987116D01*
X117419381Y-110965374D01*
X117445431Y-110952829D01*
X117522126Y-110909501D01*
X117591721Y-110859661D01*
X117655141Y-110802528D01*
X117713307Y-110737323D01*
X117737615Y-110705681D01*
X117765659Y-110669563D01*
X117797178Y-110632414D01*
X117830308Y-110596214D01*
X117863186Y-110562942D01*
X117893948Y-110534577D01*
X117914980Y-110517357D01*
X117950633Y-110493363D01*
X117992773Y-110470014D01*
X118037936Y-110448943D01*
X118082657Y-110431784D01*
X118119023Y-110421185D01*
X118149319Y-110414698D01*
X118187808Y-110407541D01*
X118232725Y-110399972D01*
X118282307Y-110392254D01*
X118334790Y-110384646D01*
X118388411Y-110377409D01*
X118441404Y-110370803D01*
X118492007Y-110365089D01*
X118514466Y-110362785D01*
X118553928Y-110358913D01*
X118584560Y-110355852D01*
X118607473Y-110353324D01*
X118623778Y-110351049D01*
X118634587Y-110348746D01*
X118641009Y-110346137D01*
X118644156Y-110342943D01*
X118645138Y-110338883D01*
X118645066Y-110333679D01*
X118644980Y-110329945D01*
X118649533Y-110306629D01*
X118661850Y-110284531D01*
X118679911Y-110266954D01*
X118685652Y-110263332D01*
X118695327Y-110258487D01*
X118705203Y-110255422D01*
X118717705Y-110253834D01*
X118735258Y-110253423D01*
X118760286Y-110253886D01*
X118761312Y-110253914D01*
X118845359Y-110254893D01*
X118923148Y-110253111D01*
X118994126Y-110248634D01*
X119057741Y-110241527D01*
X119113440Y-110231857D01*
X119160670Y-110219690D01*
X119198879Y-110205090D01*
X119207445Y-110200810D01*
X119239779Y-110187339D01*
X119268651Y-110183188D01*
X119294323Y-110188397D01*
X119317059Y-110203006D01*
X119332020Y-110219719D01*
X119338430Y-110234254D01*
X119342084Y-110254378D01*
X119342679Y-110275989D01*
X119339917Y-110294982D01*
X119337946Y-110300609D01*
X119338851Y-110302668D01*
X119345548Y-110298441D01*
X119356785Y-110288739D01*
X119358012Y-110287592D01*
X119377462Y-110269955D01*
X119392503Y-110258435D01*
X119405499Y-110251785D01*
X119418808Y-110248761D01*
X119432853Y-110248109D01*
X119460693Y-110252578D01*
X119484614Y-110266130D01*
X119502020Y-110284743D01*
X119508498Y-110296563D01*
X119511683Y-110311676D01*
X119512395Y-110330243D01*
X119511575Y-110349603D01*
X119508476Y-110363152D01*
X119501946Y-110375017D01*
X119498645Y-110379526D01*
X119490439Y-110390714D01*
X119485564Y-110398188D01*
X119484980Y-110399568D01*
X119489634Y-110400688D01*
X119502240Y-110402079D01*
X119520758Y-110403548D01*
X119538730Y-110404665D01*
X119595274Y-110410055D01*
X119647310Y-110420206D01*
X119699592Y-110436107D01*
X119712341Y-110440752D01*
X119731844Y-110447725D01*
X119747612Y-110452741D01*
X119757489Y-110455146D01*
X119759673Y-110455083D01*
X119760264Y-110449661D01*
X119760777Y-110435453D01*
X119761197Y-110413673D01*
X119761508Y-110385534D01*
X119761696Y-110352250D01*
X119761745Y-110315035D01*
X119761710Y-110294111D01*
X119760496Y-110207760D01*
X119757391Y-110113558D01*
X119752524Y-110013448D01*
X119746026Y-109909372D01*
X119738029Y-109803273D01*
X119728661Y-109697092D01*
X119718055Y-109592772D01*
X119709539Y-109518358D01*
X119706127Y-109490845D01*
X119702976Y-109466995D01*
X119700325Y-109448495D01*
X119698412Y-109437034D01*
X119697628Y-109434092D01*
X119692298Y-109434632D01*
X119679876Y-109437833D01*
X119662713Y-109443065D01*
X119656547Y-109445085D01*
X119623492Y-109454957D01*
X119583401Y-109465136D01*
X119539195Y-109474998D01*
X119493794Y-109483920D01*
X119450119Y-109491276D01*
X119422028Y-109495174D01*
X119368471Y-109500907D01*
X119311727Y-109505378D01*
X119252840Y-109508619D01*
X119192854Y-109510662D01*
X119132813Y-109511537D01*
X119073762Y-109511276D01*
X119016745Y-109509911D01*
X118962806Y-109507472D01*
X118912990Y-109503991D01*
X118868341Y-109499500D01*
X118829903Y-109494029D01*
X118798721Y-109487610D01*
X118775839Y-109480274D01*
X118766631Y-109475513D01*
X118745729Y-109456594D01*
X118732305Y-109433432D01*
X118726313Y-109407958D01*
X118727707Y-109382101D01*
X118736441Y-109357789D01*
X118752468Y-109336954D01*
X118770243Y-109324227D01*
X118780557Y-109319204D01*
X118790617Y-109315958D01*
X118802226Y-109314482D01*
X118817183Y-109314767D01*
X118837291Y-109316806D01*
X118864351Y-109320591D01*
X118884980Y-109323746D01*
X118906027Y-109326049D01*
X118935551Y-109327899D01*
X118972043Y-109329305D01*
X119013988Y-109330272D01*
X119059877Y-109330807D01*
X119108198Y-109330919D01*
X119157438Y-109330613D01*
X119206087Y-109329897D01*
X119252633Y-109328778D01*
X119295564Y-109327262D01*
X119333368Y-109325357D01*
X119364535Y-109323070D01*
X119379980Y-109321449D01*
X119457711Y-109310199D01*
X119526449Y-109296764D01*
X119585979Y-109281198D01*
X119636088Y-109263555D01*
X119668705Y-109248274D01*
X119697143Y-109231170D01*
X119729578Y-109208653D01*
X119763349Y-109182769D01*
X119795789Y-109155562D01*
X119824236Y-109129079D01*
X119825087Y-109128230D01*
X119841633Y-109110325D01*
X119857382Y-109090899D01*
X119871213Y-109071650D01*
X119882007Y-109054277D01*
X119888643Y-109040480D01*
X119890000Y-109031956D01*
X119889328Y-109030792D01*
X119883884Y-109031582D01*
X119871570Y-109036056D01*
X119854449Y-109043410D01*
X119841948Y-109049245D01*
X119819465Y-109059603D01*
X119802448Y-109066001D01*
X119787625Y-109069343D01*
X119771725Y-109070534D01*
X119764590Y-109070609D01*
X119745144Y-109069974D01*
X119731727Y-109067351D01*
X119720411Y-109061667D01*
X119713335Y-109056601D01*
X119692944Y-109036003D01*
X119681670Y-109011800D01*
X119678826Y-108988109D01*
X119680417Y-108967608D01*
X119685947Y-108950311D01*
X119696551Y-108934951D01*
X119713362Y-108920264D01*
X119737514Y-108904982D01*
X119767480Y-108889168D01*
X119807096Y-108867559D01*
X119839031Y-108845728D01*
X119865483Y-108821904D01*
X119888648Y-108794316D01*
X119893392Y-108787750D01*
X119915023Y-108761053D01*
X119936354Y-108743375D01*
X119958699Y-108733866D01*
X119980185Y-108731580D01*
X119998156Y-108733585D01*
X120014732Y-108738157D01*
X120018489Y-108739839D01*
X120035668Y-108752079D01*
X120050822Y-108768667D01*
X120060965Y-108786080D01*
X120062899Y-108792245D01*
X120065688Y-108804296D01*
X120067504Y-108811244D01*
X120067566Y-108824035D01*
X120062916Y-108842251D01*
X120054528Y-108863089D01*
X120043373Y-108883747D01*
X120041107Y-108887290D01*
X120031091Y-108902529D01*
X120023032Y-108914811D01*
X120018820Y-108921255D01*
X120020373Y-108927382D01*
X120029698Y-108936252D01*
X120035462Y-108940335D01*
X120055360Y-108959172D01*
X120068951Y-108983944D01*
X120074762Y-109011832D01*
X120074870Y-109015710D01*
X120072813Y-109036682D01*
X120067079Y-109063232D01*
X120058601Y-109092067D01*
X120048314Y-109119892D01*
X120040395Y-109137286D01*
X120019389Y-109172370D01*
X119990795Y-109210222D01*
X119956020Y-109249244D01*
X119916471Y-109287834D01*
X119881041Y-109318381D01*
X119859603Y-109335819D01*
X119867436Y-109351520D01*
X119871357Y-109363638D01*
X119875830Y-109384999D01*
X119880772Y-109414863D01*
X119886101Y-109452493D01*
X119891734Y-109497150D01*
X119897590Y-109548098D01*
X119903585Y-109604597D01*
X119909637Y-109665910D01*
X119915664Y-109731299D01*
X119921582Y-109800025D01*
X119927311Y-109871351D01*
X119931029Y-109920609D01*
X119933888Y-109961418D01*
X119936243Y-109999865D01*
X119938141Y-110037574D01*
X119939629Y-110076170D01*
X119940757Y-110117276D01*
X119941572Y-110162516D01*
X119942122Y-110213515D01*
X119942454Y-110271895D01*
X119942570Y-110311936D01*
X119943081Y-110553263D01*
X119978160Y-110586936D01*
X120001978Y-110611165D01*
X120025720Y-110637741D01*
X120047809Y-110664688D01*
X120066670Y-110690030D01*
X120080728Y-110711792D01*
X120086329Y-110722593D01*
X120092884Y-110745788D01*
X120094046Y-110771000D01*
X120090007Y-110794555D01*
X120081742Y-110811758D01*
X120064324Y-110830779D01*
X120045462Y-110841459D01*
X120022148Y-110845333D01*
X120015847Y-110845424D01*
X119995047Y-110843763D01*
X119977521Y-110838237D01*
X119961349Y-110827574D01*
X119944610Y-110810504D01*
X119925383Y-110785756D01*
X119925124Y-110785399D01*
X119889570Y-110741205D01*
X119852315Y-110704920D01*
X119810981Y-110674474D01*
X119772370Y-110652412D01*
X119719144Y-110626389D01*
X119671451Y-110606120D01*
X119627167Y-110590924D01*
X119584171Y-110580122D01*
X119540339Y-110573033D01*
X119517080Y-110570638D01*
X119493574Y-110568312D01*
X119477186Y-110565580D01*
X119465045Y-110561605D01*
X119454278Y-110555549D01*
X119446676Y-110550115D01*
X119433826Y-110536291D01*
X119423326Y-110517548D01*
X119416875Y-110497750D01*
X119416171Y-110480778D01*
X119417186Y-110471851D01*
X119414666Y-110468948D01*
X119407111Y-110472068D01*
X119393650Y-110480783D01*
X119362422Y-110498363D01*
X119331118Y-110509299D01*
X119301543Y-110513245D01*
X119275504Y-110509850D01*
X119264990Y-110505615D01*
X119243972Y-110489578D01*
X119229651Y-110468019D01*
X119222491Y-110443205D01*
X119222954Y-110417403D01*
X119231504Y-110392878D01*
X119239553Y-110381075D01*
X119244641Y-110374281D01*
X119242517Y-110373201D01*
X119237480Y-110374587D01*
X119201093Y-110385312D01*
X119170684Y-110393330D01*
X119142862Y-110399445D01*
X119114240Y-110404456D01*
X119105530Y-110405784D01*
X119083834Y-110409118D01*
X119066177Y-110412043D01*
X119054668Y-110414197D01*
X119051313Y-110415109D01*
X119051882Y-110420251D01*
X119054616Y-110432902D01*
X119059030Y-110450930D01*
X119062578Y-110464552D01*
X119071613Y-110499974D01*
X119078624Y-110531566D01*
X119083909Y-110561669D01*
X119087763Y-110592620D01*
X119090484Y-110626759D01*
X119092368Y-110666426D01*
X119093606Y-110709328D01*
X119093474Y-110812865D01*
X119088109Y-110908861D01*
X119077550Y-110997133D01*
X119061831Y-111077502D01*
X119040990Y-111149785D01*
X119015064Y-111213802D01*
X118984088Y-111269373D01*
X118978775Y-111277310D01*
X118971183Y-111290111D01*
X118967679Y-111299685D01*
X118968180Y-111302847D01*
X118974799Y-111305405D01*
X118989723Y-111309380D01*
X119011411Y-111314452D01*
X119038318Y-111320301D01*
X119068902Y-111326608D01*
X119101621Y-111333052D01*
X119134932Y-111339312D01*
X119167292Y-111345070D01*
X119189980Y-111348861D01*
X119215025Y-111352618D01*
X119238698Y-111355433D01*
X119263131Y-111357430D01*
X119290453Y-111358734D01*
X119322796Y-111359468D01*
X119362291Y-111359756D01*
X119377480Y-111359775D01*
X119426707Y-111359466D01*
X119468209Y-111358323D01*
X119504248Y-111356040D01*
X119537083Y-111352313D01*
X119568976Y-111346838D01*
X119602188Y-111339310D01*
X119638980Y-111329423D01*
X119669980Y-111320368D01*
X119738877Y-111298220D01*
X119799225Y-111275207D01*
X119852475Y-111250489D01*
X119900078Y-111223228D01*
X119943485Y-111192582D01*
X119984148Y-111157714D01*
X120023516Y-111117783D01*
X120027328Y-111113600D01*
X120041261Y-111100143D01*
X120055674Y-111089176D01*
X120063417Y-111084895D01*
X120090489Y-111078523D01*
X120117129Y-111081137D01*
X120141273Y-111091992D01*
X120160859Y-111110343D01*
X120168730Y-111122940D01*
X120178120Y-111149740D01*
X120178242Y-111176030D01*
X120169655Y-111202886D01*
X120160822Y-111217284D01*
X120145841Y-111236133D01*
X120126283Y-111257530D01*
X120115997Y-111267886D01*
X120054818Y-111321457D01*
X119986366Y-111369688D01*
X119912450Y-111411426D01*
X119840444Y-111443387D01*
X119793409Y-111461629D01*
X119777391Y-111518619D01*
X119739270Y-111642857D01*
X119696957Y-111759369D01*
X119650593Y-111867879D01*
X119600318Y-111968111D01*
X119546272Y-112059791D01*
X119488596Y-112142643D01*
X119427430Y-112216392D01*
X119415242Y-112229546D01*
X119376488Y-112270609D01*
X119373500Y-112325609D01*
X119367147Y-112380365D01*
X119354048Y-112440599D01*
X119334739Y-112504940D01*
X119309758Y-112572016D01*
X119279641Y-112640452D01*
X119244926Y-112708877D01*
X119206149Y-112775919D01*
X119183421Y-112811499D01*
X119144088Y-112866730D01*
X119103955Y-112914070D01*
X119060981Y-112955546D01*
X119013123Y-112993190D01*
X118974896Y-113018807D01*
X118930239Y-113047004D01*
X118945210Y-113053205D01*
X118965269Y-113066533D01*
X118981108Y-113086726D01*
X118991243Y-113111032D01*
X118994189Y-113136696D01*
X118993630Y-113142984D01*
X118984997Y-113172434D01*
X118967585Y-113202377D01*
X118942505Y-113231832D01*
X118910871Y-113259819D01*
X118873793Y-113285359D01*
X118832384Y-113307470D01*
X118787756Y-113325173D01*
X118786476Y-113325594D01*
X118761020Y-113333920D01*
X118772939Y-113354765D01*
X118783577Y-113382760D01*
X118784508Y-113411550D01*
X118775766Y-113439677D01*
X118770643Y-113448758D01*
X118755974Y-113466774D01*
X118733878Y-113487340D01*
X118706176Y-113509193D01*
X118695624Y-113516524D01*
X118674686Y-113531072D01*
X118641228Y-113551714D01*
X118607620Y-113569858D01*
X118575681Y-113584241D01*
X118574980Y-113584518D01*
X118544062Y-113595761D01*
X118513247Y-113604867D01*
X118481052Y-113612028D01*
X118445994Y-113617438D01*
X118421856Y-113619798D01*
X118406589Y-113621290D01*
X118361354Y-113623778D01*
X118308806Y-113625095D01*
X118261239Y-113625435D01*
X118226190Y-113625534D01*
X118194669Y-113625725D01*
X118167982Y-113625991D01*
X118147438Y-113626316D01*
X118134341Y-113626683D01*
X118129989Y-113627059D01*
X118132039Y-113631966D01*
X118137216Y-113642636D01*
X118139980Y-113648109D01*
X118148651Y-113675449D01*
X118148002Y-113703596D01*
X118138392Y-113730845D01*
X118120177Y-113755490D01*
X118116687Y-113758892D01*
X118090285Y-113780482D01*
X118056613Y-113803328D01*
X118018078Y-113826154D01*
X117977085Y-113847684D01*
X117936039Y-113866640D01*
X117897345Y-113881747D01*
X117868870Y-113890414D01*
X117808643Y-113902255D01*
X117741574Y-113909407D01*
X117669620Y-113911934D01*
X117662480Y-113911740D01*
X117594736Y-113909902D01*
X117518878Y-113903375D01*
X117444003Y-113892418D01*
X117372067Y-113877097D01*
X117357974Y-113873453D01*
X117333964Y-113866816D01*
X117309796Y-113859605D01*
X117284333Y-113851410D01*
X117256436Y-113841817D01*
X117224969Y-113830415D01*
X117188792Y-113816792D01*
X117146769Y-113800535D01*
X117097760Y-113781233D01*
X117042480Y-113759214D01*
X116952929Y-113724179D01*
X116870561Y-113693703D01*
X116793867Y-113667402D01*
X116721338Y-113644886D01*
X116675524Y-113632352D01*
X117214980Y-113632352D01*
X117219421Y-113635363D01*
X117231614Y-113640939D01*
X117249863Y-113648365D01*
X117272471Y-113656932D01*
X117280645Y-113659905D01*
X117340094Y-113680506D01*
X117392974Y-113696886D01*
X117441576Y-113709466D01*
X117488188Y-113718670D01*
X117535097Y-113724920D01*
X117584593Y-113728637D01*
X117638965Y-113730245D01*
X117662480Y-113730393D01*
X117709686Y-113729986D01*
X117748742Y-113728476D01*
X117781463Y-113725572D01*
X117809665Y-113720985D01*
X117835163Y-113714423D01*
X117859773Y-113705597D01*
X117883563Y-113695051D01*
X117902545Y-113685304D01*
X117923651Y-113673304D01*
X117945296Y-113660106D01*
X117965896Y-113646762D01*
X117983864Y-113634325D01*
X117997617Y-113623849D01*
X118005570Y-113616388D01*
X118006637Y-113613246D01*
X118000209Y-113610946D01*
X117986197Y-113607685D01*
X117966911Y-113603963D01*
X117952106Y-113601446D01*
X117906628Y-113592781D01*
X117868476Y-113582721D01*
X117838569Y-113571544D01*
X117819544Y-113560826D01*
X117805845Y-113550854D01*
X117793747Y-113542001D01*
X117791877Y-113540625D01*
X117786556Y-113537964D01*
X117777801Y-113535821D01*
X117764400Y-113534092D01*
X117745143Y-113532673D01*
X117718818Y-113531460D01*
X117684215Y-113530349D01*
X117666877Y-113529887D01*
X117597259Y-113528823D01*
X117536372Y-113529519D01*
X117483080Y-113532109D01*
X117436248Y-113536730D01*
X117394738Y-113543516D01*
X117357416Y-113552601D01*
X117323145Y-113564122D01*
X117301146Y-113573351D01*
X117283528Y-113582278D01*
X117264522Y-113593400D01*
X117246146Y-113605335D01*
X117230419Y-113616701D01*
X117219359Y-113626115D01*
X117214987Y-113632195D01*
X117214980Y-113632352D01*
X116675524Y-113632352D01*
X116651466Y-113625770D01*
X116582743Y-113609666D01*
X116513661Y-113596188D01*
X116442710Y-113584948D01*
X116368383Y-113575559D01*
X116299455Y-113568563D01*
X116259160Y-113564657D01*
X116227512Y-113560866D01*
X116203176Y-113556689D01*
X116184820Y-113551621D01*
X116171109Y-113545160D01*
X116160709Y-113536803D01*
X116152286Y-113526048D01*
X116144506Y-113512391D01*
X116143082Y-113509608D01*
X116136087Y-113485501D01*
X116136870Y-113459026D01*
X116144808Y-113433240D01*
X116159279Y-113411199D01*
X116164116Y-113406384D01*
X116183067Y-113394628D01*
X116208352Y-113386608D01*
X116236678Y-113383349D01*
X116238117Y-113383329D01*
X116257593Y-113381483D01*
X116269057Y-113376568D01*
X116269980Y-113375609D01*
X116273106Y-113370039D01*
X116268175Y-113368266D01*
X116264342Y-113368209D01*
X116257004Y-113366050D01*
X116241976Y-113359893D01*
X116220472Y-113350297D01*
X116193703Y-113337820D01*
X116162882Y-113323020D01*
X116129220Y-113306455D01*
X116117480Y-113300588D01*
X116070122Y-113277116D01*
X116029994Y-113257991D01*
X115995593Y-113242692D01*
X115965414Y-113230694D01*
X115937954Y-113221474D01*
X115911710Y-113214510D01*
X115885177Y-113209277D01*
X115856853Y-113205253D01*
X115837341Y-113203095D01*
X115798375Y-113200730D01*
X115757911Y-113201676D01*
X115713794Y-113206117D01*
X115663864Y-113214236D01*
X115632480Y-113220474D01*
X115577528Y-113229661D01*
X115529973Y-113232537D01*
X115489367Y-113228990D01*
X115455261Y-113218906D01*
X115427203Y-113202173D01*
X115404746Y-113178679D01*
X115393407Y-113160609D01*
X115387020Y-113145345D01*
X115383643Y-113127505D01*
X115382597Y-113103467D01*
X115382595Y-113103109D01*
X115383108Y-113082375D01*
X115385475Y-113066037D01*
X115390720Y-113049816D01*
X115399863Y-113029435D01*
X115400499Y-113028109D01*
X115420907Y-112991657D01*
X115448780Y-112951212D01*
X115483119Y-112908108D01*
X115522926Y-112863677D01*
X115526706Y-112859697D01*
X115574167Y-112813982D01*
X115621002Y-112777314D01*
X115668452Y-112748915D01*
X115717755Y-112728009D01*
X115753301Y-112717595D01*
X115773824Y-112712033D01*
X115791092Y-112706375D01*
X115802424Y-112701538D01*
X115804801Y-112699942D01*
X115808782Y-112694910D01*
X115805593Y-112693570D01*
X115794578Y-112695985D01*
X115775079Y-112702219D01*
X115772479Y-112703109D01*
X115739248Y-112711385D01*
X115710855Y-112711352D01*
X115686343Y-112702851D01*
X115664752Y-112685722D01*
X115664048Y-112684975D01*
X115647351Y-112660607D01*
X115639997Y-112634189D01*
X115641955Y-112607160D01*
X115653195Y-112580960D01*
X115666536Y-112563921D01*
X115682188Y-112549799D01*
X115700024Y-112538807D01*
X115722291Y-112529946D01*
X115751233Y-112522213D01*
X115768089Y-112518621D01*
X115841985Y-112505909D01*
X115916450Y-112497191D01*
X115989653Y-112492520D01*
X116059761Y-112491950D01*
X116124943Y-112495538D01*
X116183366Y-112503336D01*
X116196410Y-112505889D01*
X116227641Y-112513666D01*
X116264951Y-112524924D01*
X116305468Y-112538691D01*
X116346316Y-112553996D01*
X116381206Y-112568376D01*
X116402505Y-112577380D01*
X116417307Y-112582724D01*
X116428188Y-112584962D01*
X116437721Y-112584647D01*
X116447384Y-112582612D01*
X116468488Y-112577298D01*
X116459234Y-112559147D01*
X116450664Y-112532413D01*
X116451206Y-112505787D01*
X116460084Y-112480877D01*
X116476523Y-112459290D01*
X116499747Y-112442635D01*
X116519140Y-112434912D01*
X116531997Y-112431654D01*
X116544419Y-112429932D01*
X116557865Y-112429996D01*
X116573795Y-112432097D01*
X116593671Y-112436484D01*
X116618952Y-112443408D01*
X116651098Y-112453118D01*
X116681831Y-112462772D01*
X116739048Y-112481499D01*
X116790527Y-112499761D01*
X116839179Y-112518745D01*
X116887913Y-112539636D01*
X116939642Y-112563619D01*
X116989980Y-112588236D01*
X117047425Y-112616298D01*
X117097840Y-112639588D01*
X117142701Y-112658596D01*
X117183480Y-112673810D01*
X117221653Y-112685720D01*
X117258694Y-112694817D01*
X117296076Y-112701588D01*
X117335275Y-112706524D01*
X117350731Y-112708001D01*
X117389926Y-112710665D01*
X117433504Y-112712275D01*
X117478627Y-112712831D01*
X117522455Y-112712331D01*
X117562151Y-112710777D01*
X117594877Y-112708167D01*
X117596220Y-112708016D01*
X117626420Y-112703310D01*
X117663989Y-112695490D01*
X117706995Y-112685111D01*
X117753505Y-112672728D01*
X117801585Y-112658897D01*
X117849304Y-112644173D01*
X117869825Y-112637368D01*
X118273997Y-112637368D01*
X118293238Y-112642910D01*
X118306175Y-112645711D01*
X118326076Y-112648944D01*
X118349945Y-112652156D01*
X118368771Y-112654293D01*
X118421856Y-112657243D01*
X118467640Y-112654131D01*
X118506922Y-112644756D01*
X118540501Y-112628920D01*
X118569177Y-112606422D01*
X118572115Y-112603483D01*
X118586796Y-112584482D01*
X118599149Y-112561315D01*
X118607367Y-112537902D01*
X118609746Y-112521859D01*
X118609120Y-112513363D01*
X118605068Y-112509360D01*
X118594902Y-112508173D01*
X118587736Y-112508109D01*
X118574728Y-112507475D01*
X118555094Y-112505770D01*
X118531336Y-112503295D01*
X118505953Y-112500348D01*
X118481448Y-112497228D01*
X118460320Y-112494235D01*
X118445072Y-112491666D01*
X118439602Y-112490399D01*
X118431861Y-112492960D01*
X118420812Y-112504537D01*
X118412687Y-112515631D01*
X118391152Y-112542137D01*
X118361612Y-112570528D01*
X118323459Y-112601366D01*
X118305738Y-112614449D01*
X118273997Y-112637368D01*
X117869825Y-112637368D01*
X117894728Y-112629110D01*
X117935924Y-112614263D01*
X117969439Y-112600841D01*
X117998369Y-112587374D01*
X118032775Y-112569622D01*
X118070527Y-112548844D01*
X118109492Y-112526295D01*
X118147539Y-112503234D01*
X118182535Y-112480916D01*
X118212350Y-112460599D01*
X118231230Y-112446478D01*
X118238924Y-112438472D01*
X118238422Y-112433831D01*
X118234603Y-112433109D01*
X118225455Y-112430987D01*
X118208502Y-112424976D01*
X118184907Y-112415614D01*
X118155833Y-112403436D01*
X118122442Y-112388978D01*
X118085897Y-112372777D01*
X118047362Y-112355368D01*
X118008000Y-112337288D01*
X117968972Y-112319073D01*
X117943104Y-112306794D01*
X118464309Y-112306794D01*
X118503394Y-112312656D01*
X118564623Y-112320071D01*
X118629584Y-112324759D01*
X118695624Y-112326699D01*
X118760094Y-112325871D01*
X118820343Y-112322252D01*
X118873720Y-112315823D01*
X118874980Y-112315620D01*
X118912515Y-112307904D01*
X118955129Y-112296481D01*
X118999307Y-112282487D01*
X119041534Y-112267059D01*
X119078295Y-112251331D01*
X119086861Y-112247164D01*
X119154155Y-112207804D01*
X119218216Y-112159055D01*
X119278927Y-112101030D01*
X119336173Y-112033844D01*
X119389835Y-111957608D01*
X119397225Y-111945948D01*
X119418415Y-111910196D01*
X119441587Y-111867852D01*
X119465309Y-111821720D01*
X119488146Y-111774607D01*
X119508664Y-111729317D01*
X119512389Y-111720666D01*
X119521388Y-111698702D01*
X119531460Y-111672724D01*
X119541980Y-111644513D01*
X119552320Y-111615848D01*
X119561853Y-111588512D01*
X119569953Y-111564285D01*
X119575993Y-111544948D01*
X119579347Y-111532282D01*
X119579819Y-111529057D01*
X119577838Y-111525789D01*
X119570517Y-111524574D01*
X119556114Y-111525292D01*
X119543730Y-111526557D01*
X119522513Y-111528202D01*
X119493587Y-111529406D01*
X119458849Y-111530182D01*
X119420202Y-111530545D01*
X119379545Y-111530508D01*
X119338780Y-111530084D01*
X119299806Y-111529287D01*
X119264524Y-111528130D01*
X119234834Y-111526629D01*
X119212638Y-111524794D01*
X119207480Y-111524147D01*
X119182685Y-111520274D01*
X119151436Y-111514843D01*
X119115104Y-111508140D01*
X119075065Y-111500450D01*
X119032691Y-111492060D01*
X118989356Y-111483253D01*
X118946433Y-111474317D01*
X118905296Y-111465536D01*
X118867318Y-111457196D01*
X118833873Y-111449581D01*
X118806335Y-111442979D01*
X118786076Y-111437674D01*
X118775541Y-111434373D01*
X118765580Y-111433929D01*
X118748038Y-111436454D01*
X118724711Y-111441440D01*
X118697394Y-111448383D01*
X118667885Y-111456776D01*
X118637977Y-111466112D01*
X118609469Y-111475885D01*
X118584154Y-111485588D01*
X118566912Y-111493199D01*
X118535000Y-111510774D01*
X118512240Y-111528562D01*
X118498703Y-111546838D01*
X118494456Y-111565874D01*
X118499570Y-111585945D01*
X118514114Y-111607325D01*
X118538157Y-111630288D01*
X118571769Y-111655108D01*
X118614677Y-111681860D01*
X118660559Y-111710504D01*
X118697672Y-111737935D01*
X118726991Y-111765179D01*
X118749493Y-111793265D01*
X118766154Y-111823220D01*
X118777003Y-111852767D01*
X118784035Y-111889626D01*
X118783008Y-111926978D01*
X118777322Y-111955809D01*
X118760045Y-112005860D01*
X118734239Y-112056871D01*
X118701088Y-112107423D01*
X118661776Y-112156102D01*
X118617488Y-112201490D01*
X118569408Y-112242170D01*
X118518721Y-112276726D01*
X118500176Y-112287332D01*
X118464309Y-112306794D01*
X117943104Y-112306794D01*
X117931443Y-112301259D01*
X117896575Y-112284382D01*
X117865531Y-112268978D01*
X117839474Y-112255584D01*
X117819567Y-112244735D01*
X117806972Y-112236967D01*
X117803960Y-112234582D01*
X117792108Y-112220588D01*
X117782516Y-112204979D01*
X117782476Y-112204895D01*
X117775310Y-112193291D01*
X117766382Y-112188679D01*
X117758495Y-112188118D01*
X117747774Y-112189552D01*
X117739341Y-112195319D01*
X117730169Y-112207639D01*
X117728665Y-112209994D01*
X117726574Y-112212787D01*
X117713236Y-112230600D01*
X117693729Y-112251233D01*
X117672899Y-112269340D01*
X117653500Y-112282367D01*
X117647386Y-112285326D01*
X117619348Y-112292399D01*
X117592435Y-112290866D01*
X117568019Y-112281883D01*
X117547470Y-112266602D01*
X117532160Y-112246177D01*
X117523459Y-112221761D01*
X117522738Y-112194509D01*
X117525149Y-112182480D01*
X117533727Y-112163546D01*
X117549122Y-112142491D01*
X117554826Y-112136156D01*
X117574646Y-112109574D01*
X117586468Y-112079783D01*
X117590520Y-112045674D01*
X117587027Y-112006136D01*
X117584343Y-111992106D01*
X117579354Y-111972910D01*
X117574503Y-111963614D01*
X117569558Y-111964236D01*
X117564287Y-111974793D01*
X117558764Y-111994055D01*
X117547930Y-112030709D01*
X117533965Y-112062674D01*
X117514996Y-112093681D01*
X117496220Y-112118729D01*
X117474353Y-112143527D01*
X117448670Y-112168453D01*
X117421583Y-112191461D01*
X117395503Y-112210505D01*
X117372843Y-112223540D01*
X117372480Y-112223707D01*
X117343836Y-112232014D01*
X117315692Y-112231167D01*
X117306951Y-112227896D01*
X117289830Y-112221490D01*
X117269505Y-112204975D01*
X117252493Y-112181842D01*
X117235293Y-112150342D01*
X117218741Y-112112053D01*
X117214834Y-112101691D01*
X117199294Y-112064360D01*
X117178403Y-112021597D01*
X117153380Y-111975381D01*
X117125443Y-111927691D01*
X117095812Y-111880505D01*
X117065705Y-111835802D01*
X117036342Y-111795561D01*
X117008941Y-111761761D01*
X116997889Y-111749512D01*
X116978889Y-111730128D01*
X116958709Y-111710860D01*
X116940408Y-111694578D01*
X116932113Y-111687827D01*
X116917338Y-111676678D01*
X116908259Y-111671020D01*
X116902754Y-111670112D01*
X116898701Y-111673211D01*
X116896922Y-111675527D01*
X116891411Y-111685290D01*
X116889980Y-111690679D01*
X116891064Y-111696960D01*
X116894110Y-111711562D01*
X116898804Y-111733071D01*
X116904836Y-111760070D01*
X116911894Y-111791143D01*
X116917026Y-111813474D01*
X116928002Y-111861534D01*
X116936748Y-111901324D01*
X116943480Y-111934268D01*
X116948413Y-111961793D01*
X116951762Y-111985324D01*
X116953742Y-112006286D01*
X116954569Y-112026106D01*
X116954457Y-112046209D01*
X116954038Y-112058760D01*
X116952611Y-112084382D01*
X116950398Y-112102990D01*
X116946809Y-112117566D01*
X116941253Y-112131093D01*
X116938695Y-112136208D01*
X116919613Y-112165238D01*
X116896403Y-112185612D01*
X116868161Y-112197830D01*
X116833985Y-112202392D01*
X116819602Y-112202238D01*
X116801800Y-112200944D01*
X116799308Y-112200763D01*
X116782568Y-112197629D01*
X116765579Y-112191762D01*
X116744535Y-112182087D01*
X116739602Y-112179649D01*
X116715840Y-112166930D01*
X116690841Y-112152118D01*
X116669271Y-112138007D01*
X116665457Y-112135279D01*
X116648909Y-112123851D01*
X116639406Y-112118881D01*
X116637139Y-112120464D01*
X116637421Y-112121240D01*
X116649873Y-112151920D01*
X116658301Y-112176824D01*
X116663445Y-112198967D01*
X116666047Y-112221365D01*
X116666784Y-112240609D01*
X116666770Y-112263663D01*
X116665456Y-112280249D01*
X116662207Y-112293879D01*
X116656392Y-112308062D01*
X116653529Y-112314018D01*
X116634544Y-112343829D01*
X116609202Y-112367725D01*
X116575911Y-112387199D01*
X116575208Y-112387528D01*
X116562183Y-112393152D01*
X116550120Y-112396876D01*
X116536413Y-112399088D01*
X116518455Y-112400173D01*
X116493641Y-112400517D01*
X116487480Y-112400531D01*
X116448214Y-112399424D01*
X116408850Y-112395766D01*
X116367147Y-112389201D01*
X116320865Y-112379373D01*
X116267764Y-112365926D01*
X116264980Y-112365177D01*
X116245454Y-112359863D01*
X116226934Y-112354695D01*
X116208630Y-112349404D01*
X116189752Y-112343725D01*
X116169507Y-112337388D01*
X116147105Y-112330128D01*
X116121755Y-112321677D01*
X116092667Y-112311767D01*
X116059050Y-112300132D01*
X116020112Y-112286504D01*
X115975063Y-112270616D01*
X115923112Y-112252201D01*
X115863468Y-112230992D01*
X115795341Y-112206721D01*
X115782480Y-112202136D01*
X115755355Y-112192556D01*
X115729359Y-112183538D01*
X115724344Y-112181834D01*
X115706999Y-112175939D01*
X115690782Y-112170619D01*
X115687480Y-112169593D01*
X115627886Y-112148691D01*
X115564214Y-112121201D01*
X115498756Y-112088240D01*
X115433806Y-112050924D01*
X115399980Y-112029505D01*
X115365272Y-112006258D01*
X115334406Y-111984326D01*
X115304839Y-111961749D01*
X115274031Y-111936565D01*
X115239442Y-111906815D01*
X115228461Y-111897159D01*
X115209726Y-111881156D01*
X115193344Y-111868154D01*
X115180886Y-111859331D01*
X115173927Y-111855864D01*
X115173357Y-111855908D01*
X115164162Y-111858247D01*
X115146466Y-111861769D01*
X115121669Y-111866254D01*
X115091173Y-111871484D01*
X115056378Y-111877242D01*
X115018684Y-111883307D01*
X114979493Y-111889463D01*
X114940203Y-111895490D01*
X114902218Y-111901170D01*
X114866935Y-111906284D01*
X114835757Y-111910615D01*
X114810084Y-111913943D01*
X114791317Y-111916050D01*
X114784024Y-111916634D01*
X114726153Y-111916664D01*
X114673241Y-111909768D01*
X114622694Y-111895576D01*
X114613968Y-111892342D01*
X114591018Y-111884315D01*
X114574032Y-111880476D01*
X114560182Y-111880257D01*
X114556468Y-111880769D01*
X114529032Y-111886382D01*
X114498606Y-111894200D01*
X114468210Y-111903301D01*
X114440863Y-111912765D01*
X114419584Y-111921672D01*
X114415517Y-111923731D01*
X114391772Y-111933183D01*
X114371937Y-111934662D01*
X114356928Y-111928503D01*
X114347660Y-111915044D01*
X114344980Y-111897798D01*
X114345964Y-111886775D01*
X114350053Y-111877410D01*
X114358945Y-111866963D01*
X114371230Y-111855471D01*
X114391406Y-111834698D01*
X115425926Y-111834698D01*
X115431316Y-111843821D01*
X115444541Y-111856206D01*
X115464275Y-111871101D01*
X115489192Y-111887757D01*
X115517966Y-111905423D01*
X115549272Y-111923350D01*
X115581784Y-111940787D01*
X115614175Y-111956985D01*
X115645122Y-111971192D01*
X115673296Y-111982659D01*
X115697374Y-111990636D01*
X115704871Y-111992528D01*
X115724344Y-111996904D01*
X115711442Y-111976257D01*
X115703058Y-111963229D01*
X115690913Y-111944839D01*
X115676915Y-111923960D01*
X115668020Y-111910847D01*
X115635119Y-111866572D01*
X115602470Y-111830429D01*
X115570520Y-111802776D01*
X115539712Y-111783970D01*
X115510491Y-111774367D01*
X115496396Y-111773128D01*
X115472982Y-111776765D01*
X115452428Y-111786566D01*
X115436571Y-111800924D01*
X115427251Y-111818234D01*
X115425926Y-111834698D01*
X114391406Y-111834698D01*
X114405143Y-111820555D01*
X114431490Y-111782674D01*
X114450156Y-111744626D01*
X114458673Y-111722875D01*
X114463499Y-111705574D01*
X114465515Y-111688282D01*
X114465608Y-111666743D01*
X114465553Y-111639450D01*
X114466814Y-111612524D01*
X114469637Y-111585008D01*
X114474267Y-111555947D01*
X114480952Y-111524385D01*
X114489938Y-111489367D01*
X114501472Y-111449936D01*
X114515799Y-111405138D01*
X114533167Y-111354016D01*
X114553822Y-111295615D01*
X114578010Y-111228978D01*
X114579678Y-111224426D01*
X114595455Y-111181254D01*
X114610110Y-111140862D01*
X114623291Y-111104242D01*
X114634647Y-111072385D01*
X114643825Y-111046282D01*
X114650474Y-111026924D01*
X114654242Y-111015301D01*
X114654979Y-111012348D01*
X114653480Y-111005660D01*
X114649308Y-110991091D01*
X114642953Y-110970249D01*
X114634906Y-110944741D01*
X114625657Y-110916174D01*
X114625473Y-110915613D01*
X114612843Y-110877022D01*
X114602799Y-110846079D01*
X114594793Y-110820933D01*
X114588277Y-110799735D01*
X114582701Y-110780637D01*
X114577519Y-110761789D01*
X114572180Y-110741342D01*
X114566137Y-110717447D01*
X114563174Y-110705609D01*
X114531332Y-110567093D01*
X114506042Y-110431769D01*
X114487011Y-110297228D01*
X114473949Y-110161058D01*
X114466562Y-110020850D01*
X114464525Y-109891182D01*
X114465869Y-109784932D01*
X114470044Y-109685262D01*
X114477291Y-109589090D01*
X114487851Y-109493337D01*
X114501967Y-109394923D01*
X114504891Y-109376772D01*
X114514514Y-109317935D01*
X114391849Y-109129272D01*
X114352732Y-109068661D01*
X114318995Y-109015309D01*
X114290194Y-108968346D01*
X114265884Y-108926904D01*
X114245621Y-108890114D01*
X114228959Y-108857106D01*
X114215455Y-108827012D01*
X114204663Y-108798961D01*
X114196138Y-108772086D01*
X114189437Y-108745517D01*
X114185461Y-108725926D01*
X114176015Y-108694984D01*
X114159386Y-108661302D01*
X114145962Y-108640609D01*
X114407600Y-108640609D01*
X114408500Y-108663765D01*
X114411486Y-108685327D01*
X114417205Y-108707490D01*
X114426304Y-108732443D01*
X114439433Y-108762378D01*
X114450464Y-108785609D01*
X114478060Y-108838252D01*
X114506751Y-108884787D01*
X114535906Y-108924404D01*
X114564891Y-108956291D01*
X114593073Y-108979637D01*
X114609173Y-108989128D01*
X114621657Y-108994540D01*
X114634394Y-108997964D01*
X114650185Y-108999824D01*
X114671832Y-109000544D01*
X114684980Y-109000609D01*
X114737480Y-109000609D01*
X114797627Y-108971834D01*
X114861750Y-108945115D01*
X114924524Y-108927291D01*
X114988028Y-108917860D01*
X115029980Y-108916000D01*
X115061872Y-108916489D01*
X115085587Y-108919296D01*
X115102894Y-108925682D01*
X115115560Y-108936912D01*
X115125352Y-108954249D01*
X115134039Y-108978956D01*
X115138202Y-108993331D01*
X115141729Y-109008156D01*
X115144251Y-109024766D01*
X115145911Y-109045077D01*
X115146848Y-109071004D01*
X115147204Y-109104464D01*
X115147219Y-109115609D01*
X115146585Y-109160422D01*
X115144327Y-109197834D01*
X115139897Y-109230386D01*
X115132743Y-109260621D01*
X115122314Y-109291079D01*
X115108061Y-109324302D01*
X115096958Y-109347615D01*
X115084055Y-109373198D01*
X115072788Y-109392861D01*
X115060982Y-109409639D01*
X115046466Y-109426565D01*
X115027064Y-109446675D01*
X115023287Y-109450464D01*
X114984234Y-109485682D01*
X114944629Y-109512922D01*
X114901545Y-109533920D01*
X114857197Y-109548968D01*
X114821473Y-109556356D01*
X114780933Y-109560145D01*
X114739334Y-109560279D01*
X114700433Y-109556705D01*
X114675484Y-109551611D01*
X114659017Y-109547464D01*
X114646848Y-109545000D01*
X114641680Y-109544742D01*
X114640921Y-109550011D01*
X114639694Y-109563954D01*
X114638095Y-109585259D01*
X114636217Y-109612617D01*
X114634152Y-109644717D01*
X114631996Y-109680248D01*
X114631947Y-109681080D01*
X114629143Y-109738877D01*
X114627203Y-109801053D01*
X114626111Y-109865872D01*
X114625848Y-109931597D01*
X114626396Y-109996489D01*
X114627739Y-110058812D01*
X114629859Y-110116830D01*
X114632738Y-110168804D01*
X114636358Y-110212998D01*
X114637431Y-110223109D01*
X114640681Y-110250043D01*
X114643936Y-110273501D01*
X114646909Y-110291663D01*
X114649315Y-110302710D01*
X114650303Y-110305105D01*
X114655960Y-110304266D01*
X114668199Y-110298189D01*
X114685697Y-110287759D01*
X114707132Y-110273861D01*
X114731181Y-110257380D01*
X114756521Y-110239202D01*
X114781828Y-110220213D01*
X114805781Y-110201297D01*
X114807480Y-110199911D01*
X114835549Y-110176879D01*
X114856433Y-110159386D01*
X114870710Y-110146671D01*
X114878958Y-110137972D01*
X114881758Y-110132528D01*
X114879689Y-110129577D01*
X114873329Y-110128359D01*
X114863257Y-110128110D01*
X114862091Y-110128109D01*
X114847461Y-110125112D01*
X114834684Y-110114758D01*
X114832924Y-110112726D01*
X114825682Y-110102629D01*
X114821757Y-110091869D01*
X114820207Y-110076893D01*
X114820028Y-110063976D01*
X114823305Y-110032042D01*
X114833317Y-110003227D01*
X114850490Y-109977238D01*
X114875245Y-109953781D01*
X114908007Y-109932562D01*
X114949198Y-109913289D01*
X114999243Y-109895668D01*
X115058563Y-109879405D01*
X115099980Y-109869920D01*
X115132238Y-109864070D01*
X115171598Y-109858619D01*
X115215165Y-109853829D01*
X115260041Y-109849962D01*
X115303330Y-109847282D01*
X115342135Y-109846052D01*
X115362480Y-109846127D01*
X115405925Y-109847896D01*
X115451811Y-109851177D01*
X115498020Y-109855710D01*
X115542429Y-109861234D01*
X115582918Y-109867491D01*
X115617367Y-109874220D01*
X115640717Y-109880239D01*
X115675940Y-109893707D01*
X115701506Y-109909370D01*
X115717378Y-109926729D01*
X115723520Y-109945287D01*
X115719891Y-109964546D01*
X115706456Y-109984009D01*
X115683176Y-110003178D01*
X115651387Y-110020910D01*
X115633342Y-110028065D01*
X115607146Y-110036554D01*
X115574486Y-110045932D01*
X115537051Y-110055757D01*
X115496530Y-110065586D01*
X115454612Y-110074976D01*
X115412986Y-110083485D01*
X115412036Y-110083669D01*
X115351592Y-110095337D01*
X115352036Y-110158698D01*
X115352480Y-110222058D01*
X115337092Y-110241334D01*
X115326114Y-110252955D01*
X115308653Y-110268932D01*
X115286411Y-110287872D01*
X115261089Y-110308386D01*
X115234390Y-110329082D01*
X115208016Y-110348571D01*
X115192480Y-110359502D01*
X115173148Y-110373562D01*
X115153339Y-110389185D01*
X115139980Y-110400643D01*
X115122971Y-110415382D01*
X115104101Y-110430033D01*
X115081738Y-110445730D01*
X115054249Y-110463604D01*
X115020001Y-110484791D01*
X115009980Y-110490866D01*
X114952480Y-110525609D01*
X114999980Y-110526687D01*
X115086180Y-110530712D01*
X115164579Y-110538819D01*
X115236596Y-110551220D01*
X115303652Y-110568127D01*
X115327480Y-110575564D01*
X115354122Y-110585672D01*
X115383483Y-110599005D01*
X115412859Y-110614130D01*
X115439547Y-110629613D01*
X115460841Y-110644021D01*
X115468695Y-110650440D01*
X115490080Y-110674423D01*
X115502666Y-110699295D01*
X115506326Y-110723977D01*
X115500929Y-110747394D01*
X115486347Y-110768469D01*
X115483218Y-110771492D01*
X115464753Y-110783749D01*
X115436671Y-110795618D01*
X115399352Y-110807039D01*
X115353174Y-110817951D01*
X115298515Y-110828292D01*
X115235754Y-110838001D01*
X115165270Y-110847017D01*
X115087440Y-110855278D01*
X115002644Y-110862724D01*
X114911260Y-110869294D01*
X114858594Y-110872496D01*
X114832456Y-110874143D01*
X114810025Y-110875852D01*
X114793118Y-110877461D01*
X114783558Y-110878808D01*
X114782135Y-110879287D01*
X114782365Y-110884928D01*
X114785562Y-110896305D01*
X114790523Y-110910064D01*
X114796044Y-110922854D01*
X114800712Y-110931050D01*
X114807781Y-110935717D01*
X114820598Y-110940963D01*
X114826170Y-110942736D01*
X114852988Y-110952994D01*
X114884416Y-110968840D01*
X114918051Y-110988730D01*
X114951491Y-111011123D01*
X114982335Y-111034475D01*
X115008181Y-111057244D01*
X115014669Y-111063803D01*
X115024651Y-111074556D01*
X115033505Y-111084906D01*
X115041959Y-111096048D01*
X115050738Y-111109175D01*
X115060568Y-111125480D01*
X115072174Y-111146157D01*
X115086282Y-111172398D01*
X115103618Y-111205397D01*
X115120393Y-111237646D01*
X115142663Y-111278248D01*
X115167177Y-111318972D01*
X115192387Y-111357448D01*
X115216742Y-111391306D01*
X115237521Y-111416855D01*
X115246752Y-111426613D01*
X115256795Y-111435440D01*
X115269157Y-111444283D01*
X115285343Y-111454091D01*
X115306861Y-111465815D01*
X115335217Y-111480402D01*
X115351240Y-111488469D01*
X115384030Y-111505052D01*
X115418601Y-111522785D01*
X115452141Y-111540209D01*
X115481838Y-111555864D01*
X115501402Y-111566386D01*
X115561071Y-111598935D01*
X115576141Y-111584772D01*
X115588036Y-111571034D01*
X115597428Y-111555938D01*
X115598315Y-111553994D01*
X115603605Y-111533141D01*
X115605353Y-111505290D01*
X115603647Y-111472761D01*
X115598574Y-111437877D01*
X115593017Y-111413109D01*
X115584094Y-111374411D01*
X115577550Y-111336964D01*
X115573593Y-111302699D01*
X115572428Y-111273546D01*
X115574263Y-111251436D01*
X115575215Y-111247236D01*
X115582970Y-111230525D01*
X115596684Y-111211523D01*
X115613805Y-111193194D01*
X115631782Y-111178499D01*
X115637480Y-111174945D01*
X115643974Y-111170626D01*
X115644031Y-111166276D01*
X115637475Y-111158394D01*
X115636604Y-111157445D01*
X115623688Y-111139565D01*
X115611058Y-111115571D01*
X115600488Y-111089236D01*
X115594492Y-111068015D01*
X115591229Y-111030052D01*
X115596772Y-110989104D01*
X115605804Y-110959463D01*
X115619859Y-110932658D01*
X115640991Y-110905759D01*
X115666634Y-110881327D01*
X115694225Y-110861919D01*
X115712480Y-110853019D01*
X115740974Y-110845238D01*
X115773831Y-110841440D01*
X115807224Y-110841713D01*
X115837326Y-110846140D01*
X115849980Y-110849950D01*
X115888156Y-110869250D01*
X115920819Y-110895767D01*
X115947089Y-110928127D01*
X115966084Y-110964955D01*
X115976925Y-111004877D01*
X115978730Y-111046519D01*
X115978409Y-111050415D01*
X115977110Y-111068458D01*
X115977733Y-111079351D01*
X115980750Y-111085839D01*
X115985123Y-111089647D01*
X115992903Y-111098630D01*
X116002427Y-111114858D01*
X116012587Y-111135989D01*
X116022277Y-111159685D01*
X116030391Y-111183603D01*
X116031724Y-111188195D01*
X116043734Y-111243041D01*
X116047433Y-111293004D01*
X116042799Y-111338794D01*
X116029808Y-111381124D01*
X116025192Y-111391373D01*
X116013628Y-111411867D01*
X115998932Y-111430652D01*
X115979711Y-111448993D01*
X115954573Y-111468155D01*
X115922124Y-111489403D01*
X115907480Y-111498353D01*
X115882999Y-111513730D01*
X115859323Y-111529720D01*
X115838982Y-111544544D01*
X115824508Y-111556421D01*
X115823303Y-111557548D01*
X115806359Y-111577177D01*
X115788832Y-111603365D01*
X115772553Y-111632968D01*
X115759356Y-111662842D01*
X115755356Y-111674146D01*
X115749495Y-111687084D01*
X115739434Y-111704519D01*
X115727147Y-111723079D01*
X115724638Y-111726572D01*
X115713570Y-111742650D01*
X115705622Y-111755937D01*
X115702066Y-111764239D01*
X115702084Y-111765536D01*
X115704267Y-111772886D01*
X115707692Y-111786662D01*
X115710657Y-111799593D01*
X115717077Y-111828577D01*
X115772278Y-111855679D01*
X115822244Y-111878166D01*
X115876707Y-111899107D01*
X115932702Y-111917550D01*
X115987266Y-111932541D01*
X116037432Y-111943128D01*
X116051230Y-111945310D01*
X116065514Y-111946982D01*
X116072520Y-111946072D01*
X116074806Y-111941784D01*
X116074980Y-111937929D01*
X116072765Y-111928653D01*
X116066869Y-111913414D01*
X116058419Y-111895021D01*
X116055331Y-111888873D01*
X116039259Y-111856517D01*
X116028236Y-111831755D01*
X116021923Y-111813757D01*
X116019980Y-111801999D01*
X116023354Y-111792728D01*
X116031893Y-111780651D01*
X116036979Y-111775110D01*
X116046791Y-111766019D01*
X116055590Y-111760921D01*
X116066827Y-111758669D01*
X116083952Y-111758117D01*
X116088158Y-111758110D01*
X116104777Y-111758826D01*
X116120697Y-111761351D01*
X116136725Y-111766251D01*
X116153667Y-111774090D01*
X116172331Y-111785432D01*
X116193523Y-111800844D01*
X116218052Y-111820889D01*
X116246723Y-111846133D01*
X116280344Y-111877140D01*
X116319721Y-111914476D01*
X116341734Y-111935609D01*
X116367038Y-111959891D01*
X116390022Y-111981786D01*
X116409692Y-112000361D01*
X116425058Y-112014686D01*
X116435127Y-112023826D01*
X116438840Y-112026850D01*
X116440986Y-112023048D01*
X116442712Y-112011937D01*
X116443436Y-112000724D01*
X116448908Y-111968272D01*
X116462400Y-111940840D01*
X116483155Y-111919458D01*
X116510415Y-111905160D01*
X116514591Y-111903817D01*
X116533963Y-111899333D01*
X116551821Y-111898843D01*
X116571903Y-111902577D01*
X116591387Y-111908525D01*
X116616279Y-111918548D01*
X116644031Y-111933112D01*
X116675859Y-111952947D01*
X116712977Y-111978781D01*
X116732480Y-111993116D01*
X116760511Y-112013574D01*
X116781226Y-112027696D01*
X116794897Y-112035654D01*
X116801800Y-112037621D01*
X116802439Y-112037265D01*
X116803022Y-112030619D01*
X116801196Y-112014728D01*
X116797048Y-111990030D01*
X116790669Y-111956960D01*
X116782149Y-111915957D01*
X116771577Y-111867458D01*
X116759041Y-111811899D01*
X116744633Y-111749719D01*
X116736823Y-111716576D01*
X116733061Y-111696502D01*
X116731202Y-111677722D01*
X116731547Y-111665386D01*
X116735281Y-111654403D01*
X116743330Y-111637468D01*
X116754480Y-111616963D01*
X116766479Y-111596920D01*
X116782388Y-111570279D01*
X116801487Y-111536275D01*
X116818886Y-111504068D01*
X116994980Y-111504068D01*
X116998792Y-111510112D01*
X117008936Y-111519961D01*
X117023475Y-111531800D01*
X117028730Y-111535705D01*
X117069654Y-111569038D01*
X117112332Y-111610460D01*
X117155534Y-111658517D01*
X117198031Y-111711753D01*
X117238594Y-111768714D01*
X117275993Y-111827945D01*
X117276752Y-111829231D01*
X117287953Y-111847538D01*
X117297632Y-111862091D01*
X117304517Y-111871043D01*
X117306951Y-111872990D01*
X117309317Y-111868559D01*
X117309795Y-111856536D01*
X117308632Y-111839099D01*
X117306074Y-111818427D01*
X117302367Y-111796696D01*
X117297758Y-111776086D01*
X117294801Y-111765609D01*
X117283789Y-111734825D01*
X117268898Y-111699583D01*
X117251744Y-111663275D01*
X117233940Y-111629293D01*
X117217100Y-111601029D01*
X117214856Y-111597639D01*
X117186976Y-111559124D01*
X117157393Y-111523382D01*
X117536390Y-111523382D01*
X117544366Y-111555532D01*
X117560543Y-111586831D01*
X117570760Y-111600609D01*
X117580858Y-111614285D01*
X117591948Y-111631289D01*
X117596115Y-111638282D01*
X117612934Y-111661970D01*
X117634717Y-111684535D01*
X117659362Y-111704450D01*
X117684767Y-111720185D01*
X117708829Y-111730214D01*
X117726574Y-111733109D01*
X117748906Y-111728539D01*
X117767805Y-111715698D01*
X117782721Y-111695891D01*
X117793106Y-111670421D01*
X117798410Y-111640594D01*
X117798084Y-111607712D01*
X117792503Y-111576507D01*
X117783072Y-111546790D01*
X117770678Y-111521509D01*
X117753277Y-111497050D01*
X117737120Y-111478588D01*
X117708536Y-111452165D01*
X117678886Y-111432948D01*
X117649600Y-111421666D01*
X117622110Y-111419050D01*
X117620641Y-111419176D01*
X117589191Y-111425962D01*
X117564960Y-111439618D01*
X117547842Y-111460207D01*
X117546230Y-111463209D01*
X117536911Y-111492051D01*
X117536390Y-111523382D01*
X117157393Y-111523382D01*
X117157092Y-111523018D01*
X117126649Y-111490802D01*
X117097089Y-111463956D01*
X117069857Y-111443962D01*
X117059067Y-111437760D01*
X117040654Y-111428250D01*
X117017817Y-111462602D01*
X117007203Y-111479387D01*
X116999215Y-111493583D01*
X116995205Y-111502731D01*
X116994980Y-111504068D01*
X116818886Y-111504068D01*
X116822880Y-111496675D01*
X116845672Y-111453242D01*
X116868967Y-111407742D01*
X116891872Y-111361942D01*
X116913489Y-111317605D01*
X116932925Y-111276497D01*
X116949283Y-111240384D01*
X116959749Y-111215797D01*
X117004931Y-111094282D01*
X117044391Y-110965789D01*
X117077815Y-110831747D01*
X117104889Y-110693589D01*
X117125298Y-110552747D01*
X117138729Y-110410652D01*
X117139728Y-110395609D01*
X117141267Y-110362679D01*
X117142274Y-110322026D01*
X117142776Y-110275496D01*
X117142801Y-110224938D01*
X117142373Y-110172196D01*
X117141521Y-110119120D01*
X117140271Y-110067554D01*
X117138650Y-110019345D01*
X117136684Y-109976342D01*
X117134399Y-109940389D01*
X117132901Y-109923109D01*
X117113453Y-109762307D01*
X117087622Y-109608310D01*
X117055115Y-109459990D01*
X117015641Y-109316221D01*
X116968905Y-109175875D01*
X116914616Y-109037824D01*
X116885761Y-108971987D01*
X116822435Y-108843063D01*
X116752499Y-108721484D01*
X116675733Y-108606900D01*
X116591917Y-108498964D01*
X116568109Y-108470985D01*
X116552851Y-108452581D01*
X116539565Y-108435075D01*
X116530068Y-108420935D01*
X116526859Y-108414896D01*
X116523175Y-108400059D01*
X116520808Y-108377387D01*
X116519980Y-108349217D01*
X116519403Y-108329207D01*
X116517785Y-108301282D01*
X116515293Y-108267154D01*
X116512095Y-108228535D01*
X116508360Y-108187134D01*
X116504254Y-108144664D01*
X116499946Y-108102835D01*
X116495604Y-108063359D01*
X116491395Y-108027947D01*
X116487487Y-107998310D01*
X116484049Y-107976159D01*
X116482687Y-107969033D01*
X116478976Y-107951152D01*
X116476244Y-107937472D01*
X116475005Y-107930579D01*
X116474980Y-107930283D01*
X116473441Y-107927399D01*
X116468621Y-107931522D01*
X116460218Y-107943083D01*
X116447927Y-107962514D01*
X116431445Y-107990248D01*
X116424890Y-108001544D01*
X116394488Y-108050908D01*
X116365719Y-108090684D01*
X116338274Y-108121093D01*
X116311846Y-108142359D01*
X116286128Y-108154702D01*
X116260812Y-108158344D01*
X116235591Y-108153509D01*
X116222405Y-108147714D01*
X116205902Y-108137874D01*
X116192206Y-108126496D01*
X116181130Y-108112675D01*
X116172489Y-108095504D01*
X116166097Y-108074077D01*
X116161766Y-108047488D01*
X116159311Y-108014830D01*
X116158545Y-107975197D01*
X116159282Y-107927682D01*
X116161335Y-107871380D01*
X116162100Y-107854359D01*
X116163337Y-107824591D01*
X116164146Y-107798565D01*
X116164502Y-107777803D01*
X116164381Y-107763827D01*
X116163757Y-107758161D01*
X116163665Y-107758109D01*
X116158387Y-107760465D01*
X116146452Y-107766821D01*
X116129826Y-107776108D01*
X116116624Y-107783679D01*
X116100712Y-107792534D01*
X116077426Y-107804999D01*
X116048355Y-107820249D01*
X116015086Y-107837457D01*
X115979208Y-107855799D01*
X115942310Y-107874448D01*
X115933923Y-107878655D01*
X115897189Y-107897173D01*
X115861271Y-107915496D01*
X115827723Y-107932814D01*
X115798098Y-107948319D01*
X115773952Y-107961202D01*
X115756837Y-107970655D01*
X115753923Y-107972338D01*
X115729633Y-107986315D01*
X115701522Y-108002114D01*
X115674629Y-108016912D01*
X115667480Y-108020773D01*
X115644056Y-108033769D01*
X115619959Y-108047829D01*
X115599156Y-108060615D01*
X115592480Y-108064961D01*
X115575513Y-108076245D01*
X115560158Y-108086385D01*
X115549980Y-108093028D01*
X115540063Y-108098353D01*
X115523547Y-108106144D01*
X115503119Y-108115161D01*
X115489980Y-108120696D01*
X115467647Y-108130147D01*
X115446294Y-108139741D01*
X115423784Y-108150519D01*
X115397978Y-108163520D01*
X115366739Y-108179783D01*
X115346677Y-108190383D01*
X115309374Y-108212960D01*
X115268253Y-108242784D01*
X115224701Y-108278564D01*
X115180103Y-108319008D01*
X115135848Y-108362825D01*
X115093321Y-108408723D01*
X115053909Y-108455410D01*
X115032515Y-108483021D01*
X115004556Y-108520433D01*
X114968518Y-108527112D01*
X114951814Y-108529341D01*
X114927472Y-108531447D01*
X114897852Y-108533282D01*
X114865315Y-108534697D01*
X114834980Y-108535497D01*
X114764334Y-108537146D01*
X114698112Y-108539510D01*
X114637062Y-108542531D01*
X114581934Y-108546148D01*
X114533478Y-108550301D01*
X114492444Y-108554932D01*
X114459581Y-108559981D01*
X114435640Y-108565387D01*
X114428217Y-108567829D01*
X114419217Y-108573419D01*
X114413115Y-108583182D01*
X114409463Y-108598699D01*
X114407812Y-108621551D01*
X114407600Y-108640609D01*
X114145962Y-108640609D01*
X114137131Y-108626997D01*
X114110807Y-108594188D01*
X114081973Y-108564994D01*
X114052184Y-108541532D01*
X114047849Y-108538713D01*
X114025465Y-108522404D01*
X114012634Y-108507486D01*
X114009111Y-108493361D01*
X114014650Y-108479429D01*
X114020648Y-108472441D01*
X114026355Y-108467522D01*
X114032966Y-108464613D01*
X114042785Y-108463416D01*
X114058117Y-108463632D01*
X114079398Y-108464844D01*
X114103044Y-108466250D01*
X114133030Y-108467881D01*
X114165703Y-108469544D01*
X114197411Y-108471049D01*
X114200957Y-108471209D01*
X114274434Y-108474502D01*
X114298457Y-108459233D01*
X114342950Y-108436018D01*
X114395988Y-108417409D01*
X114457185Y-108403515D01*
X114526153Y-108394441D01*
X114534980Y-108393677D01*
X114556426Y-108392143D01*
X114585911Y-108390360D01*
X114621480Y-108388427D01*
X114661179Y-108386445D01*
X114703051Y-108384517D01*
X114745143Y-108382742D01*
X114751249Y-108382500D01*
X114905018Y-108376445D01*
X114936083Y-108336027D01*
X114949305Y-108319929D01*
X114968028Y-108298648D01*
X114990596Y-108273989D01*
X115015354Y-108247754D01*
X115040649Y-108221748D01*
X115044814Y-108217548D01*
X115103698Y-108161031D01*
X115160472Y-108112205D01*
X115216973Y-108069570D01*
X115266321Y-108036977D01*
X115283781Y-108026863D01*
X115309516Y-108012978D01*
X115342713Y-107995730D01*
X115382561Y-107975523D01*
X115428246Y-107952762D01*
X115478958Y-107927854D01*
X115533883Y-107901202D01*
X115592209Y-107873213D01*
X115640732Y-107850151D01*
X115718723Y-107812875D01*
X115792589Y-107776849D01*
X115861605Y-107742445D01*
X115925051Y-107710039D01*
X115982204Y-107680003D01*
X116032342Y-107652713D01*
X116074744Y-107628542D01*
X116108687Y-107607864D01*
X116110057Y-107606988D01*
X116145479Y-107587606D01*
X116177130Y-107577285D01*
X116204877Y-107576066D01*
X116206467Y-107576291D01*
G37*
G36*
X119051785Y-108258801D02*
G01*
X119093350Y-108259730D01*
X119126555Y-108261560D01*
X119139621Y-108262821D01*
X119195757Y-108271243D01*
X119247102Y-108282705D01*
X119292941Y-108296848D01*
X119332562Y-108313311D01*
X119365249Y-108331736D01*
X119390291Y-108351762D01*
X119406972Y-108373029D01*
X119414579Y-108395179D01*
X119414986Y-108401611D01*
X119414992Y-108415609D01*
X119506236Y-108415907D01*
X119540466Y-108416161D01*
X119567068Y-108416817D01*
X119588413Y-108418099D01*
X119606870Y-108420230D01*
X119624811Y-108423434D01*
X119644606Y-108427933D01*
X119651242Y-108429564D01*
X119707545Y-108445119D01*
X119755156Y-108461868D01*
X119795369Y-108480468D01*
X119829478Y-108501579D01*
X119858775Y-108525857D01*
X119876060Y-108543883D01*
X119892838Y-108562555D01*
X119911048Y-108582211D01*
X119926154Y-108597985D01*
X119939233Y-108612492D01*
X119949745Y-108626326D01*
X119954904Y-108635410D01*
X119959347Y-108655900D01*
X119959392Y-108678981D01*
X119955294Y-108700154D01*
X119950626Y-108710609D01*
X119934902Y-108730862D01*
X119915585Y-108744960D01*
X119889651Y-108755064D01*
X119887480Y-108755686D01*
X119866755Y-108763196D01*
X119843733Y-108774033D01*
X119827480Y-108783343D01*
X119794023Y-108800889D01*
X119763161Y-108809132D01*
X119735195Y-108808086D01*
X119710426Y-108797769D01*
X119689156Y-108778195D01*
X119687444Y-108776007D01*
X119673912Y-108750921D01*
X119670044Y-108724520D01*
X119675768Y-108697768D01*
X119691010Y-108671627D01*
X119695794Y-108665871D01*
X119706424Y-108652388D01*
X119711946Y-108642338D01*
X119711924Y-108638101D01*
X119704188Y-108633792D01*
X119689030Y-108627798D01*
X119668736Y-108620835D01*
X119645591Y-108613617D01*
X119621882Y-108606861D01*
X119599893Y-108601282D01*
X119583159Y-108597805D01*
X119556106Y-108594872D01*
X119521592Y-108593783D01*
X119481965Y-108594439D01*
X119439573Y-108596739D01*
X119396764Y-108600583D01*
X119355887Y-108605872D01*
X119342480Y-108608045D01*
X119307817Y-108613346D01*
X119280933Y-108615593D01*
X119259996Y-108614497D01*
X119243173Y-108609765D01*
X119228632Y-108601106D01*
X119214542Y-108588231D01*
X119213963Y-108587624D01*
X119197610Y-108563903D01*
X119190411Y-108537782D01*
X119192467Y-108510998D01*
X119203876Y-108485282D01*
X119207746Y-108479816D01*
X119215392Y-108469007D01*
X119219196Y-108462043D01*
X119219234Y-108460926D01*
X119213886Y-108458921D01*
X119201555Y-108455137D01*
X119184980Y-108450411D01*
X119167039Y-108447036D01*
X119140471Y-108444210D01*
X119106634Y-108441947D01*
X119066886Y-108440263D01*
X119022586Y-108439175D01*
X118975091Y-108438699D01*
X118925760Y-108438850D01*
X118875951Y-108439645D01*
X118827023Y-108441098D01*
X118780333Y-108443227D01*
X118747480Y-108445285D01*
X118671046Y-108450766D01*
X118604080Y-108455637D01*
X118546074Y-108459936D01*
X118496516Y-108463703D01*
X118454896Y-108466976D01*
X118420705Y-108469794D01*
X118393432Y-108472197D01*
X118384980Y-108472990D01*
X118358664Y-108475471D01*
X118331916Y-108477931D01*
X118308881Y-108479992D01*
X118299980Y-108480760D01*
X118277988Y-108482817D01*
X118251814Y-108485549D01*
X118227611Y-108488308D01*
X118201748Y-108490758D01*
X118173304Y-108492447D01*
X118150111Y-108492993D01*
X118128036Y-108492255D01*
X118111770Y-108489598D01*
X118097171Y-108484106D01*
X118087800Y-108479243D01*
X118064669Y-108461453D01*
X118048886Y-108438724D01*
X118041080Y-108412934D01*
X118041876Y-108385962D01*
X118049447Y-108364160D01*
X118065030Y-108341433D01*
X118085539Y-108325793D01*
X118112152Y-108316635D01*
X118146047Y-108313350D01*
X118148038Y-108313329D01*
X118162214Y-108312696D01*
X118184325Y-108311054D01*
X118212379Y-108308582D01*
X118244381Y-108305457D01*
X118278338Y-108301860D01*
X118288038Y-108300779D01*
X118346968Y-108294579D01*
X118410301Y-108288711D01*
X118476973Y-108283225D01*
X118545920Y-108278166D01*
X118616079Y-108273583D01*
X118686386Y-108269524D01*
X118755778Y-108266034D01*
X118823192Y-108263162D01*
X118887562Y-108260956D01*
X118947827Y-108259462D01*
X119002922Y-108258728D01*
X119051785Y-108258801D01*
G37*
D12*
%TO.C,J1*%
X172660000Y-55880000D02*
X172660000Y-68640000D01*
X172660000Y-54610000D02*
X172660000Y-53280000D01*
X172660000Y-53280000D02*
X173990000Y-53280000D01*
X172660000Y-55880000D02*
X175320000Y-55880000D01*
X172660000Y-68640000D02*
X175320000Y-68640000D01*
X175320000Y-55880000D02*
X175320000Y-68640000D01*
%TO.C,U1*%
X113000000Y-74315000D02*
X158720000Y-74315000D01*
X113000000Y-74315000D02*
X113000000Y-48915000D01*
X158720000Y-74315000D02*
X163800000Y-74315000D01*
X163800000Y-74315000D02*
X163800000Y-71775000D01*
X163800000Y-71775000D02*
X166340000Y-69235000D01*
X166340000Y-69235000D02*
X166340000Y-53995000D01*
X166340000Y-53995000D02*
X163800000Y-51455000D01*
X163800000Y-51455000D02*
X163800000Y-48915000D01*
X158720000Y-48915000D02*
X113000000Y-48915000D01*
X163800000Y-48915000D02*
X158720000Y-48915000D01*
%TO.C,U2*%
X120550000Y-74680000D02*
X120550000Y-138680000D01*
X120550000Y-74680000D02*
X171550000Y-74680000D01*
X134242500Y-135580000D02*
X135572500Y-135580000D01*
X134242500Y-136910000D02*
X134242500Y-135580000D01*
X135830000Y-78430000D02*
X137160000Y-78430000D01*
X135830000Y-79760000D02*
X135830000Y-78430000D01*
X136842500Y-135580000D02*
X157222500Y-135580000D01*
X136842500Y-138240000D02*
X136842500Y-135580000D01*
X136842500Y-138240000D02*
X157222500Y-138240000D01*
X138430000Y-78430000D02*
X156270000Y-78430000D01*
X138430000Y-81090000D02*
X138430000Y-78430000D01*
X138430000Y-81090000D02*
X156270000Y-81090000D01*
X156270000Y-81090000D02*
X156270000Y-78430000D01*
X157222500Y-138240000D02*
X157222500Y-135580000D01*
X171550000Y-74680000D02*
X171550000Y-138680000D01*
X171550000Y-138680000D02*
X120550000Y-138680000D01*
%TD*%
%LPC*%
D13*
%TO.C,J1*%
X173990000Y-54610000D03*
D14*
X173990000Y-57150000D03*
X173990000Y-59690000D03*
X173990000Y-62230000D03*
X173990000Y-64770000D03*
X173990000Y-67310000D03*
%TD*%
D15*
%TO.C,U1*%
X115540000Y-73130000D03*
X118080000Y-73130000D03*
X120620000Y-73130000D03*
X123160000Y-73130000D03*
X125700000Y-73130000D03*
X128240000Y-73130000D03*
X130780000Y-73130000D03*
X133320000Y-73130000D03*
X135860000Y-73130000D03*
X138400000Y-73130000D03*
X140940000Y-73130000D03*
X143480000Y-73130000D03*
X146020000Y-73130000D03*
X148560000Y-73130000D03*
X151100000Y-73130000D03*
X153640000Y-73130000D03*
X156180000Y-73130000D03*
X158720000Y-73130000D03*
X158720000Y-50100000D03*
X156180000Y-50100000D03*
X153640000Y-50100000D03*
X151100000Y-50100000D03*
X148560000Y-50100000D03*
X146020000Y-50100000D03*
X143480000Y-50100000D03*
X140940000Y-50100000D03*
X138400000Y-50100000D03*
X135860000Y-50100000D03*
X133320000Y-50100000D03*
X130780000Y-50100000D03*
X128240000Y-50100000D03*
X125700000Y-50100000D03*
X123160000Y-50100000D03*
X120620000Y-50100000D03*
X118080000Y-50100000D03*
X115540000Y-50100000D03*
%TD*%
D13*
%TO.C,U2*%
X137160000Y-79760000D03*
D14*
X139700000Y-79760000D03*
X142240000Y-79760000D03*
X144780000Y-79760000D03*
X147320000Y-79760000D03*
X149860000Y-79760000D03*
X152400000Y-79760000D03*
X154940000Y-79760000D03*
D13*
X135572500Y-136910000D03*
D14*
X138112500Y-136910000D03*
X140652500Y-136910000D03*
X143192500Y-136910000D03*
X145732500Y-136910000D03*
X148272500Y-136910000D03*
X150812500Y-136910000D03*
X153352500Y-136910000D03*
X155892500Y-136910000D03*
%TD*%
%LPD*%
M02*
