%TF.GenerationSoftware,KiCad,Pcbnew,7.0.10*%
%TF.CreationDate,2024-01-07T15:48:42-05:00*%
%TF.ProjectId,ESP8266_Count,45535038-3236-4365-9f43-6f756e742e6b,v1*%
%TF.SameCoordinates,Original*%
%TF.FileFunction,Copper,L1,Top*%
%TF.FilePolarity,Positive*%
%FSLAX46Y46*%
G04 Gerber Fmt 4.6, Leading zero omitted, Abs format (unit mm)*
G04 Created by KiCad (PCBNEW 7.0.10) date 2024-01-07 15:48:42*
%MOMM*%
%LPD*%
G01*
G04 APERTURE LIST*
G04 Aperture macros list*
%AMRoundRect*
0 Rectangle with rounded corners*
0 $1 Rounding radius*
0 $2 $3 $4 $5 $6 $7 $8 $9 X,Y pos of 4 corners*
0 Add a 4 corners polygon primitive as box body*
4,1,4,$2,$3,$4,$5,$6,$7,$8,$9,$2,$3,0*
0 Add four circle primitives for the rounded corners*
1,1,$1+$1,$2,$3*
1,1,$1+$1,$4,$5*
1,1,$1+$1,$6,$7*
1,1,$1+$1,$8,$9*
0 Add four rect primitives between the rounded corners*
20,1,$1+$1,$2,$3,$4,$5,0*
20,1,$1+$1,$4,$5,$6,$7,0*
20,1,$1+$1,$6,$7,$8,$9,0*
20,1,$1+$1,$8,$9,$2,$3,0*%
G04 Aperture macros list end*
%TA.AperFunction,SMDPad,CuDef*%
%ADD10RoundRect,0.237500X-0.237500X0.250000X-0.237500X-0.250000X0.237500X-0.250000X0.237500X0.250000X0*%
%TD*%
%TA.AperFunction,SMDPad,CuDef*%
%ADD11RoundRect,0.237500X0.237500X-0.300000X0.237500X0.300000X-0.237500X0.300000X-0.237500X-0.300000X0*%
%TD*%
%TA.AperFunction,SMDPad,CuDef*%
%ADD12R,1.000000X2.500000*%
%TD*%
%TA.AperFunction,SMDPad,CuDef*%
%ADD13R,1.800000X1.000000*%
%TD*%
%TA.AperFunction,SMDPad,CuDef*%
%ADD14RoundRect,0.237500X-0.300000X-0.237500X0.300000X-0.237500X0.300000X0.237500X-0.300000X0.237500X0*%
%TD*%
%TA.AperFunction,SMDPad,CuDef*%
%ADD15R,0.510000X0.700000*%
%TD*%
%TA.AperFunction,ComponentPad*%
%ADD16O,1.700000X1.700000*%
%TD*%
%TA.AperFunction,ComponentPad*%
%ADD17R,1.700000X1.700000*%
%TD*%
%TA.AperFunction,ComponentPad*%
%ADD18RoundRect,0.250000X-1.550000X0.650000X-1.550000X-0.650000X1.550000X-0.650000X1.550000X0.650000X0*%
%TD*%
%TA.AperFunction,ComponentPad*%
%ADD19O,3.600000X1.800000*%
%TD*%
%TA.AperFunction,ComponentPad*%
%ADD20C,1.700000*%
%TD*%
%TA.AperFunction,SMDPad,CuDef*%
%ADD21RoundRect,0.237500X0.237500X-0.250000X0.237500X0.250000X-0.237500X0.250000X-0.237500X-0.250000X0*%
%TD*%
%TA.AperFunction,SMDPad,CuDef*%
%ADD22R,1.300000X1.550000*%
%TD*%
%TA.AperFunction,SMDPad,CuDef*%
%ADD23RoundRect,0.250000X-0.650000X0.412500X-0.650000X-0.412500X0.650000X-0.412500X0.650000X0.412500X0*%
%TD*%
%TA.AperFunction,SMDPad,CuDef*%
%ADD24R,2.000000X1.500000*%
%TD*%
%TA.AperFunction,SMDPad,CuDef*%
%ADD25R,2.000000X3.800000*%
%TD*%
%TA.AperFunction,ViaPad*%
%ADD26C,0.800000*%
%TD*%
%TA.AperFunction,Conductor*%
%ADD27C,0.400000*%
%TD*%
%TA.AperFunction,Conductor*%
%ADD28C,0.500000*%
%TD*%
%TA.AperFunction,Conductor*%
%ADD29C,1.000000*%
%TD*%
G04 APERTURE END LIST*
D10*
%TO.P,R6,1*%
%TO.N,+3.3V*%
X135250000Y-72187500D03*
%TO.P,R6,2*%
%TO.N,GPIO0*%
X135250000Y-74012500D03*
%TD*%
D11*
%TO.P,C4,2*%
%TO.N,GND*%
X135250000Y-62050000D03*
%TO.P,C4,1*%
%TO.N,+3.3V*%
X135250000Y-63775000D03*
%TD*%
D12*
%TO.P,U3,1,~{RST}*%
%TO.N,RST*%
X152700000Y-63912500D03*
%TO.P,U3,2,ADC*%
%TO.N,IN1*%
X150700000Y-63912500D03*
%TO.P,U3,3,EN*%
%TO.N,/EN*%
X148700000Y-63912500D03*
%TO.P,U3,4,GPIO16*%
%TO.N,unconnected-(U3-Pad4)*%
X146700000Y-63912500D03*
%TO.P,U3,5,GPIO14*%
%TO.N,unconnected-(U3-Pad5)*%
X144700000Y-63912500D03*
%TO.P,U3,6,GPIO12*%
%TO.N,OUT1*%
X142700000Y-63912500D03*
%TO.P,U3,7,GPIO13*%
%TO.N,SW1*%
X140700000Y-63912500D03*
%TO.P,U3,8,VCC*%
%TO.N,+3.3V*%
X138700000Y-63912500D03*
D13*
%TO.P,U3,9,CS0*%
%TO.N,unconnected-(U3-Pad9)*%
X137200000Y-66512500D03*
%TO.P,U3,10,MISO*%
%TO.N,unconnected-(U3-Pad10)*%
X137200000Y-68512500D03*
%TO.P,U3,11,GPIO9*%
%TO.N,unconnected-(U3-Pad11)*%
X137200000Y-70512500D03*
%TO.P,U3,12,GPIO10*%
%TO.N,unconnected-(U3-Pad12)*%
X137200000Y-72512500D03*
%TO.P,U3,13,MOSI*%
%TO.N,unconnected-(U3-Pad13)*%
X137200000Y-74512500D03*
%TO.P,U3,14,SCLK*%
%TO.N,unconnected-(U3-Pad14)*%
X137200000Y-76512500D03*
D12*
%TO.P,U3,15,GND*%
%TO.N,GND*%
X138700000Y-79112500D03*
%TO.P,U3,16,GPIO15*%
%TO.N,/GPIO15*%
X140700000Y-79112500D03*
%TO.P,U3,17,GPIO2*%
%TO.N,/GPIO2*%
X142700000Y-79112500D03*
%TO.P,U3,18,GPIO0*%
%TO.N,GPIO0*%
X144700000Y-79112500D03*
%TO.P,U3,19,GPIO4*%
%TO.N,I2C_SDA*%
X146700000Y-79112500D03*
%TO.P,U3,20,GPIO5*%
%TO.N,I2C_SCL*%
X148700000Y-79112500D03*
%TO.P,U3,21,GPIO3/RXD*%
%TO.N,RXD*%
X150700000Y-79112500D03*
%TO.P,U3,22,GPIO1/TXD*%
%TO.N,TXD*%
X152700000Y-79112500D03*
%TD*%
D14*
%TO.P,C5,1*%
%TO.N,+5V*%
X123037500Y-64100000D03*
%TO.P,C5,2*%
%TO.N,GND*%
X124762500Y-64100000D03*
%TD*%
D15*
%TO.P,U4,1*%
%TO.N,GND*%
X123950000Y-60340000D03*
%TO.P,U4,2*%
%TO.N,OUT1*%
X123000000Y-60340000D03*
%TO.P,U4,3,GND*%
%TO.N,GND*%
X122050000Y-60340000D03*
%TO.P,U4,4*%
%TO.N,Net-(R7-Pad2)*%
X122050000Y-62660000D03*
%TO.P,U4,5,VCC*%
%TO.N,+5V*%
X123950000Y-62660000D03*
%TD*%
D16*
%TO.P,J1,6,Pin_6*%
%TO.N,GPIO0*%
X139200000Y-83200000D03*
%TO.P,J1,5,Pin_5*%
%TO.N,RST*%
X141740000Y-83200000D03*
%TO.P,J1,4,Pin_4*%
%TO.N,+3.3V*%
X144280000Y-83200000D03*
%TO.P,J1,3,Pin_3*%
%TO.N,RXD*%
X146820000Y-83200000D03*
%TO.P,J1,2,Pin_2*%
%TO.N,TXD*%
X149360000Y-83200000D03*
D17*
%TO.P,J1,1,Pin_1*%
%TO.N,GND*%
X151900000Y-83200000D03*
%TD*%
D18*
%TO.P,J2,1,Pin_1*%
%TO.N,GND*%
X114957500Y-62250000D03*
D19*
%TO.P,J2,2,Pin_2*%
%TO.N,/DOUT1*%
X114957500Y-66060000D03*
%TO.P,J2,3,Pin_3*%
%TO.N,VOUT1*%
X114957500Y-69870000D03*
%TD*%
D20*
%TO.P,J3,4,Pin_4*%
%TO.N,GND*%
X131100000Y-75300000D03*
%TO.P,J3,3,Pin_3*%
%TO.N,+3.3V*%
X131100000Y-72800000D03*
%TO.P,J3,2,Pin_2*%
%TO.N,I2C_SCL*%
X131100000Y-70200000D03*
%TO.P,J3,1,Pin_1*%
%TO.N,I2C_SDA*%
X131100000Y-67700000D03*
%TD*%
D21*
%TO.P,R5,1*%
%TO.N,+3.3V*%
X135300000Y-79712500D03*
%TO.P,R5,2*%
%TO.N,/GPIO2*%
X135300000Y-77887500D03*
%TD*%
D18*
%TO.P,TB1,1,P1*%
%TO.N,VIN1*%
X115000000Y-77000000D03*
D19*
%TO.P,TB1,2,P2*%
%TO.N,GND*%
X115000000Y-80810000D03*
%TD*%
D10*
%TO.P,R3,1*%
%TO.N,+3.3V*%
X135250000Y-68787500D03*
%TO.P,R3,2*%
%TO.N,RST*%
X135250000Y-70612500D03*
%TD*%
D22*
%TO.P,SW1,2,2*%
%TO.N,GND*%
X121850000Y-75775000D03*
X121850000Y-67825000D03*
%TO.P,SW1,1,1*%
%TO.N,SW1*%
X126350000Y-75775000D03*
X126350000Y-67825000D03*
%TD*%
D23*
%TO.P,C1,1*%
%TO.N,+3.3V*%
X131900000Y-79712500D03*
%TO.P,C1,2*%
%TO.N,GND*%
X131900000Y-82837500D03*
%TD*%
D24*
%TO.P,U1,1,GND*%
%TO.N,GND*%
X129050000Y-82800000D03*
%TO.P,U1,2,VO*%
%TO.N,+3.3V*%
X129050000Y-80500000D03*
D25*
X122750000Y-80500000D03*
D24*
%TO.P,U1,3,VI*%
%TO.N,+5V*%
X129050000Y-78200000D03*
%TD*%
D21*
%TO.P,R7,1*%
%TO.N,/DOUT1*%
X121150000Y-65912500D03*
%TO.P,R7,2*%
%TO.N,Net-(R7-Pad2)*%
X121150000Y-64087500D03*
%TD*%
D10*
%TO.P,R2,1*%
%TO.N,+3.3V*%
X135250000Y-65387500D03*
%TO.P,R2,2*%
%TO.N,/EN*%
X135250000Y-67212500D03*
%TD*%
D21*
%TO.P,R4,1*%
%TO.N,/GPIO15*%
X136300000Y-83212500D03*
%TO.P,R4,2*%
%TO.N,GND*%
X136300000Y-81387500D03*
%TD*%
D26*
%TO.N,IN1*%
X140400000Y-67050000D03*
%TO.N,GND*%
X120550000Y-60000000D03*
X125400000Y-62550000D03*
X126200000Y-64200000D03*
X124800000Y-65600000D03*
X139250000Y-76750000D03*
X125050000Y-83100000D03*
X124800000Y-69600000D03*
X131900000Y-84250000D03*
X118850000Y-80300000D03*
X136900000Y-79000000D03*
X128140332Y-69290332D03*
X120300000Y-67850000D03*
X137000000Y-62200000D03*
X120500000Y-62100000D03*
X120700000Y-83150000D03*
X126500000Y-83100000D03*
X120600000Y-84050000D03*
X120400000Y-81700000D03*
X133650000Y-62200000D03*
X133500000Y-63700000D03*
X135100000Y-82300000D03*
X119850000Y-64700000D03*
X130850000Y-61300000D03*
%TO.N,+5V*%
X126600000Y-78300000D03*
X122900000Y-65800000D03*
X126600000Y-79450000D03*
X129050000Y-78200000D03*
%TO.N,I2C_SDA*%
X144949998Y-74700000D03*
%TO.N,I2C_SCL*%
X148200000Y-76000000D03*
%TD*%
D27*
%TO.N,IN1*%
X148312500Y-67050000D02*
X150700000Y-64662500D01*
X150700000Y-64662500D02*
X150700000Y-63912500D01*
X140400000Y-67050000D02*
X148312500Y-67050000D01*
D28*
%TO.N,GND*%
X122050000Y-59785000D02*
X122335000Y-59500000D01*
X138700000Y-79112500D02*
X138687500Y-79112500D01*
X123950000Y-59785000D02*
X123950000Y-60340000D01*
X122050000Y-60340000D02*
X122050000Y-59785000D01*
X138687500Y-79112500D02*
X136412500Y-81387500D01*
X123665000Y-59500000D02*
X123950000Y-59785000D01*
X122335000Y-59500000D02*
X123665000Y-59500000D01*
X136412500Y-81387500D02*
X136300000Y-81387500D01*
D29*
%TO.N,+5V*%
X126600000Y-78300000D02*
X126600000Y-79450000D01*
X126700000Y-78200000D02*
X126600000Y-78300000D01*
D28*
X123950000Y-62660000D02*
X123540000Y-62660000D01*
D29*
X129050000Y-78200000D02*
X126700000Y-78200000D01*
D28*
X122900000Y-64237500D02*
X123037500Y-64100000D01*
X123540000Y-62660000D02*
X123037500Y-63162500D01*
X122900000Y-65800000D02*
X122900000Y-64237500D01*
X123037500Y-63162500D02*
X123037500Y-64100000D01*
D27*
%TO.N,/DOUT1*%
X121150000Y-65912500D02*
X121002500Y-66060000D01*
X121002500Y-66060000D02*
X114357500Y-66060000D01*
D29*
%TO.N,+3.3V*%
X131100000Y-72800000D02*
X131712500Y-72187500D01*
X133000000Y-78612500D02*
X133000000Y-74275000D01*
X133500000Y-72187501D02*
X135250002Y-72187501D01*
X133612500Y-65387500D02*
X135250000Y-65387500D01*
X131900000Y-79712500D02*
X133000000Y-78612500D01*
X133500000Y-67300000D02*
X133500000Y-72187501D01*
X133512500Y-79712500D02*
X131900000Y-79712500D01*
X133000000Y-74275000D02*
X131525000Y-72800000D01*
D28*
X133600000Y-84400000D02*
X133600000Y-79800000D01*
D29*
X135237500Y-68800000D02*
X133700000Y-68800000D01*
X129050000Y-80500000D02*
X131112500Y-80500000D01*
X131712500Y-72187500D02*
X135250000Y-72187500D01*
X133700000Y-68800000D02*
X133500000Y-68600000D01*
X131112500Y-80500000D02*
X131900000Y-79712500D01*
X135250000Y-63775000D02*
X135324000Y-63701000D01*
X135250000Y-68787500D02*
X135237500Y-68800000D01*
D28*
X133600000Y-79800000D02*
X133512500Y-79712500D01*
D29*
X135250000Y-65387500D02*
X135250000Y-63775000D01*
X133500000Y-65500000D02*
X133612500Y-65387500D01*
X135300000Y-79712500D02*
X133512500Y-79712500D01*
X135324000Y-63701000D02*
X138488500Y-63701000D01*
X122750000Y-80500000D02*
X122900000Y-80650000D01*
D28*
X144280000Y-83200000D02*
X142880000Y-84600000D01*
X142880000Y-84600000D02*
X133800000Y-84600000D01*
X133800000Y-84600000D02*
X133600000Y-84400000D01*
D29*
X133500000Y-68600000D02*
X133500000Y-65500000D01*
X122900000Y-80650000D02*
X128900000Y-80650000D01*
X138488500Y-63701000D02*
X138700000Y-63912500D01*
X131525000Y-72800000D02*
X131100000Y-72800000D01*
X128900000Y-80650000D02*
X129050000Y-80500000D01*
D28*
X135250000Y-72187500D02*
X135250002Y-72187501D01*
D29*
X129100000Y-80450000D02*
X129050000Y-80500000D01*
D27*
%TO.N,OUT1*%
X139437500Y-59900000D02*
X126300000Y-59900000D01*
X142700000Y-63912500D02*
X142700000Y-63162500D01*
X124700000Y-61500000D02*
X123300000Y-61500000D01*
X123000000Y-61200000D02*
X123000000Y-60340000D01*
X123300000Y-61500000D02*
X123000000Y-61200000D01*
X126300000Y-59900000D02*
X124700000Y-61500000D01*
X142700000Y-63162500D02*
X139437500Y-59900000D01*
%TO.N,/EN*%
X138684668Y-67500000D02*
X135537500Y-67500000D01*
X148700000Y-64662500D02*
X147462500Y-65900000D01*
X148700000Y-63912500D02*
X148700000Y-64662500D01*
X135537500Y-67500000D02*
X135250000Y-67212500D01*
X147462500Y-65900000D02*
X140284668Y-65900000D01*
X140284668Y-65900000D02*
X138684668Y-67500000D01*
%TO.N,/GPIO15*%
X138212500Y-81300000D02*
X136300000Y-83212500D01*
X139062500Y-81300000D02*
X138212500Y-81300000D01*
X140700000Y-79112500D02*
X140700000Y-79662500D01*
X140700000Y-79662500D02*
X139062500Y-81300000D01*
%TO.N,/GPIO2*%
X135900000Y-75612500D02*
X135350000Y-76162500D01*
X135350000Y-76162500D02*
X135350000Y-77837500D01*
X139950000Y-75612500D02*
X135900000Y-75612500D01*
X135350000Y-77837500D02*
X135300000Y-77887500D01*
X142700000Y-79112500D02*
X142700000Y-78362500D01*
X142700000Y-78362500D02*
X139950000Y-75612500D01*
%TO.N,RXD*%
X150700000Y-79112500D02*
X150700000Y-80480161D01*
X150700000Y-80480161D02*
X149367661Y-81812500D01*
X149367661Y-81812500D02*
X148207500Y-81812500D01*
X148207500Y-81812500D02*
X146820000Y-83200000D01*
%TO.N,TXD*%
X152700000Y-79860000D02*
X149360000Y-83200000D01*
X152700000Y-79112500D02*
X152700000Y-79860000D01*
%TO.N,RST*%
X139650000Y-71500000D02*
X136137500Y-71500000D01*
X143340000Y-81600000D02*
X141740000Y-83200000D01*
X145800000Y-81312500D02*
X145800000Y-77650000D01*
X145800000Y-77650000D02*
X139650000Y-71500000D01*
X145512500Y-81600000D02*
X143340000Y-81600000D01*
X149600000Y-68700000D02*
X152700000Y-65600000D01*
X136137500Y-71500000D02*
X135250000Y-70612500D01*
X152700000Y-65600000D02*
X152700000Y-63912500D01*
X146012500Y-81100000D02*
X149232339Y-81100000D01*
X149600000Y-80732339D02*
X149600000Y-68700000D01*
X145800000Y-81312500D02*
X146012500Y-81100000D01*
X149232339Y-81100000D02*
X149600000Y-80732339D01*
X145800000Y-81312500D02*
X145512500Y-81600000D01*
%TO.N,GPIO0*%
X144700000Y-78362500D02*
X139837500Y-73500000D01*
X135762500Y-73500000D02*
X135250000Y-74012500D01*
X144700000Y-79754678D02*
X143454678Y-81000000D01*
X139837500Y-73500000D02*
X135762500Y-73500000D01*
X141400000Y-81000000D02*
X139200000Y-83200000D01*
X144700000Y-79112500D02*
X144700000Y-79754678D01*
X144700000Y-79112500D02*
X144700000Y-78362500D01*
X143454678Y-81000000D02*
X141400000Y-81000000D01*
%TO.N,Net-(R7-Pad2)*%
X121840000Y-62660000D02*
X121150000Y-63350000D01*
X122050000Y-62660000D02*
X121840000Y-62660000D01*
X121150000Y-63350000D02*
X121150000Y-64087500D01*
%TO.N,I2C_SDA*%
X146700000Y-76450002D02*
X144949998Y-74700000D01*
X146700000Y-79112500D02*
X146700000Y-76450002D01*
%TO.N,I2C_SCL*%
X148700000Y-76500000D02*
X148200000Y-76000000D01*
X148700000Y-79112500D02*
X148700000Y-76500000D01*
%TO.N,SW1*%
X133062500Y-61112500D02*
X126350000Y-67825000D01*
X126350000Y-75775000D02*
X126350000Y-67825000D01*
X140700000Y-63912500D02*
X140700000Y-63200000D01*
X138612500Y-61112500D02*
X133062500Y-61112500D01*
X140700000Y-63200000D02*
X138612500Y-61112500D01*
%TD*%
%TA.AperFunction,Conductor*%
%TO.N,GND*%
G36*
X153605291Y-58920660D02*
G01*
X153668345Y-58976521D01*
X153698217Y-59055286D01*
X153699500Y-59076500D01*
X153699500Y-62300812D01*
X153679340Y-62382603D01*
X153623479Y-62445657D01*
X153544714Y-62475529D01*
X153461090Y-62465375D01*
X153399049Y-62425263D01*
X153377365Y-62403579D01*
X153271855Y-62356992D01*
X153246064Y-62354000D01*
X152153936Y-62354000D01*
X152132443Y-62356493D01*
X152128144Y-62356992D01*
X152022634Y-62403579D01*
X152022633Y-62403580D01*
X151977763Y-62448451D01*
X151905673Y-62492031D01*
X151853312Y-62500000D01*
X151546688Y-62500000D01*
X151464897Y-62479840D01*
X151422237Y-62448451D01*
X151377365Y-62403579D01*
X151271855Y-62356992D01*
X151246064Y-62354000D01*
X150153936Y-62354000D01*
X150132443Y-62356493D01*
X150128144Y-62356992D01*
X150022634Y-62403579D01*
X150022633Y-62403580D01*
X149977763Y-62448451D01*
X149905673Y-62492031D01*
X149853312Y-62500000D01*
X149546688Y-62500000D01*
X149464897Y-62479840D01*
X149422237Y-62448451D01*
X149377365Y-62403579D01*
X149271855Y-62356992D01*
X149246064Y-62354000D01*
X148153936Y-62354000D01*
X148132443Y-62356493D01*
X148128144Y-62356992D01*
X148022634Y-62403579D01*
X148022633Y-62403580D01*
X147977763Y-62448451D01*
X147905673Y-62492031D01*
X147853312Y-62500000D01*
X147546688Y-62500000D01*
X147464897Y-62479840D01*
X147422237Y-62448451D01*
X147377365Y-62403579D01*
X147271855Y-62356992D01*
X147246064Y-62354000D01*
X146153936Y-62354000D01*
X146132443Y-62356493D01*
X146128144Y-62356992D01*
X146022634Y-62403579D01*
X146022633Y-62403580D01*
X145977763Y-62448451D01*
X145905673Y-62492031D01*
X145853312Y-62500000D01*
X145546688Y-62500000D01*
X145464897Y-62479840D01*
X145422237Y-62448451D01*
X145377365Y-62403579D01*
X145271855Y-62356992D01*
X145246064Y-62354000D01*
X144153936Y-62354000D01*
X144132443Y-62356493D01*
X144128144Y-62356992D01*
X144022634Y-62403579D01*
X144022633Y-62403580D01*
X143977763Y-62448451D01*
X143905673Y-62492031D01*
X143853312Y-62500000D01*
X143546688Y-62500000D01*
X143464897Y-62479840D01*
X143422237Y-62448451D01*
X143377365Y-62403579D01*
X143271855Y-62356992D01*
X143246064Y-62354000D01*
X143246059Y-62354000D01*
X142683530Y-62354000D01*
X142601739Y-62333840D01*
X142559079Y-62302451D01*
X139849097Y-59592469D01*
X139826706Y-59564683D01*
X139825751Y-59563581D01*
X139825750Y-59563579D01*
X139825747Y-59563576D01*
X139825745Y-59563574D01*
X139788975Y-59531712D01*
X139779781Y-59523153D01*
X139771348Y-59514720D01*
X139771349Y-59514720D01*
X139761803Y-59507575D01*
X139752019Y-59499690D01*
X139715243Y-59467823D01*
X139714046Y-59467054D01*
X139684957Y-59449795D01*
X139683700Y-59449109D01*
X139638100Y-59432100D01*
X139626500Y-59427296D01*
X139582234Y-59407081D01*
X139580850Y-59406675D01*
X139548084Y-59398311D01*
X139546700Y-59398010D01*
X139498154Y-59394538D01*
X139485670Y-59393196D01*
X139473872Y-59391500D01*
X139473868Y-59391500D01*
X139461953Y-59391500D01*
X139449398Y-59391052D01*
X139400851Y-59387579D01*
X139399419Y-59387682D01*
X139363908Y-59391500D01*
X126373592Y-59391500D01*
X126338080Y-59387682D01*
X126336649Y-59387580D01*
X126336648Y-59387580D01*
X126312376Y-59389316D01*
X126288102Y-59391052D01*
X126275548Y-59391500D01*
X126263629Y-59391500D01*
X126251811Y-59393198D01*
X126239341Y-59394538D01*
X126190804Y-59398010D01*
X126189420Y-59398311D01*
X126156614Y-59406685D01*
X126155270Y-59407079D01*
X126155266Y-59407081D01*
X126110987Y-59427301D01*
X126099401Y-59432100D01*
X126053798Y-59449109D01*
X126052557Y-59449787D01*
X126023464Y-59467048D01*
X126022259Y-59467822D01*
X126022257Y-59467824D01*
X126022255Y-59467825D01*
X126022253Y-59467827D01*
X125985480Y-59499690D01*
X125975711Y-59507563D01*
X125966152Y-59514719D01*
X125966143Y-59514727D01*
X125957697Y-59523172D01*
X125948520Y-59531716D01*
X125911747Y-59563581D01*
X125910812Y-59564660D01*
X125888403Y-59592467D01*
X124813451Y-60667420D01*
X124741361Y-60711000D01*
X124657275Y-60716086D01*
X124580458Y-60681513D01*
X124528506Y-60615202D01*
X124526949Y-60607949D01*
X124513000Y-60594000D01*
X123872000Y-60594000D01*
X123790209Y-60573840D01*
X123727155Y-60517979D01*
X123697283Y-60439214D01*
X123696000Y-60418000D01*
X123696000Y-59682000D01*
X124204000Y-59682000D01*
X124204000Y-60086000D01*
X124513000Y-60086000D01*
X124513000Y-59944012D01*
X124510013Y-59918268D01*
X124510010Y-59918257D01*
X124463503Y-59812926D01*
X124463502Y-59812924D01*
X124382076Y-59731498D01*
X124382073Y-59731496D01*
X124276742Y-59684989D01*
X124276731Y-59684986D01*
X124250987Y-59682000D01*
X124204000Y-59682000D01*
X123696000Y-59682000D01*
X123649013Y-59682000D01*
X123623268Y-59684986D01*
X123623259Y-59684988D01*
X123546706Y-59718789D01*
X123463741Y-59733383D01*
X123404530Y-59718788D01*
X123326857Y-59684492D01*
X123319486Y-59683637D01*
X123301064Y-59681500D01*
X122698936Y-59681500D01*
X122682816Y-59683370D01*
X122673142Y-59684492D01*
X122595469Y-59718788D01*
X122512503Y-59733383D01*
X122453292Y-59718789D01*
X122376737Y-59684988D01*
X122376731Y-59684986D01*
X122350987Y-59682000D01*
X122304000Y-59682000D01*
X122304000Y-60998000D01*
X122311892Y-60998000D01*
X122393683Y-61018160D01*
X122456737Y-61074021D01*
X122486609Y-61152786D01*
X122487444Y-61161446D01*
X122491052Y-61211898D01*
X122491500Y-61224452D01*
X122491500Y-61236371D01*
X122493196Y-61248170D01*
X122494538Y-61260654D01*
X122498010Y-61309200D01*
X122498311Y-61310584D01*
X122506675Y-61343350D01*
X122507081Y-61344734D01*
X122527296Y-61389000D01*
X122532100Y-61400600D01*
X122549109Y-61446200D01*
X122549795Y-61447457D01*
X122567054Y-61476546D01*
X122567823Y-61477743D01*
X122599690Y-61514519D01*
X122607575Y-61524303D01*
X122614720Y-61533848D01*
X122623153Y-61542281D01*
X122631712Y-61551475D01*
X122663574Y-61588245D01*
X122663576Y-61588247D01*
X122663579Y-61588250D01*
X122663581Y-61588251D01*
X122664683Y-61589206D01*
X122692469Y-61611597D01*
X122888402Y-61807530D01*
X122910810Y-61835337D01*
X122911748Y-61836420D01*
X122948516Y-61868279D01*
X122957708Y-61876836D01*
X122966152Y-61885280D01*
X122966159Y-61885285D01*
X122975699Y-61892427D01*
X122985484Y-61900312D01*
X123005665Y-61917799D01*
X123022257Y-61932176D01*
X123022260Y-61932177D01*
X123023469Y-61932955D01*
X123052515Y-61950189D01*
X123053791Y-61950885D01*
X123053796Y-61950889D01*
X123089974Y-61964382D01*
X123159561Y-62011850D01*
X123199121Y-62086222D01*
X123199586Y-62170460D01*
X123160850Y-62245265D01*
X123139549Y-62265804D01*
X123127992Y-62275206D01*
X123127991Y-62275207D01*
X123119965Y-62286578D01*
X123100634Y-62309525D01*
X122913951Y-62496209D01*
X122841861Y-62539790D01*
X122757776Y-62544876D01*
X122680958Y-62510304D01*
X122629006Y-62443992D01*
X122613500Y-62371759D01*
X122613500Y-62263940D01*
X122613500Y-62263936D01*
X122610508Y-62238145D01*
X122563921Y-62132635D01*
X122482365Y-62051079D01*
X122376855Y-62004492D01*
X122351064Y-62001500D01*
X121748936Y-62001500D01*
X121727443Y-62003993D01*
X121723144Y-62004492D01*
X121617634Y-62051079D01*
X121536079Y-62132634D01*
X121489490Y-62238148D01*
X121486016Y-62250919D01*
X121483541Y-62250245D01*
X121460681Y-62311493D01*
X121453655Y-62320612D01*
X121452003Y-62323183D01*
X121428403Y-62352467D01*
X120842467Y-62938403D01*
X120814660Y-62960812D01*
X120813581Y-62961747D01*
X120781716Y-62998520D01*
X120773172Y-63007697D01*
X120764727Y-63016143D01*
X120764719Y-63016152D01*
X120757563Y-63025711D01*
X120749690Y-63035480D01*
X120717827Y-63072253D01*
X120717048Y-63073464D01*
X120699779Y-63102570D01*
X120699111Y-63103793D01*
X120682101Y-63149398D01*
X120677297Y-63160995D01*
X120657081Y-63205266D01*
X120656679Y-63206634D01*
X120648310Y-63239424D01*
X120648010Y-63240804D01*
X120645225Y-63279745D01*
X120619281Y-63359889D01*
X120576020Y-63407424D01*
X120522788Y-63447791D01*
X120432100Y-63567381D01*
X120377037Y-63707009D01*
X120377036Y-63707014D01*
X120366500Y-63794748D01*
X120366500Y-64380251D01*
X120377036Y-64467985D01*
X120377037Y-64467989D01*
X120423956Y-64586968D01*
X120432100Y-64607618D01*
X120516500Y-64718915D01*
X120522790Y-64727210D01*
X120642384Y-64817901D01*
X120666407Y-64827374D01*
X120688968Y-64836272D01*
X120757661Y-64885032D01*
X120795825Y-64960130D01*
X120794717Y-65044362D01*
X120754592Y-65118431D01*
X120688968Y-65163728D01*
X120642383Y-65182099D01*
X120522793Y-65272787D01*
X120522787Y-65272793D01*
X120432100Y-65392382D01*
X120432099Y-65392383D01*
X120432099Y-65392384D01*
X120416120Y-65432906D01*
X120413296Y-65440066D01*
X120364536Y-65508759D01*
X120289439Y-65546924D01*
X120249567Y-65551500D01*
X117061387Y-65551500D01*
X116979596Y-65531340D01*
X116916542Y-65475479D01*
X116906403Y-65458902D01*
X116870159Y-65391550D01*
X116846521Y-65361909D01*
X116734528Y-65221475D01*
X116734526Y-65221473D01*
X116734521Y-65221468D01*
X116570716Y-65078355D01*
X116570705Y-65078348D01*
X116383971Y-64966780D01*
X116383968Y-64966778D01*
X116383966Y-64966777D01*
X116383962Y-64966775D01*
X116180312Y-64890343D01*
X115966268Y-64851500D01*
X115966267Y-64851500D01*
X114003224Y-64851500D01*
X114003214Y-64851500D01*
X113840850Y-64866113D01*
X113840846Y-64866114D01*
X113840842Y-64866114D01*
X113840842Y-64866115D01*
X113777849Y-64883500D01*
X113631150Y-64923986D01*
X113631146Y-64923987D01*
X113435160Y-65018368D01*
X113435151Y-65018374D01*
X113259168Y-65146232D01*
X113259165Y-65146235D01*
X113108836Y-65303467D01*
X113108833Y-65303472D01*
X112989000Y-65485012D01*
X112903501Y-65685044D01*
X112855096Y-65897119D01*
X112851787Y-65970801D01*
X112848512Y-66043748D01*
X112845337Y-66114441D01*
X112874535Y-66329996D01*
X112874536Y-66330001D01*
X112874537Y-66330004D01*
X112941759Y-66536891D01*
X113044841Y-66728450D01*
X113160058Y-66872926D01*
X113180473Y-66898526D01*
X113180478Y-66898531D01*
X113344283Y-67041644D01*
X113344287Y-67041646D01*
X113344290Y-67041649D01*
X113531032Y-67153222D01*
X113531036Y-67153223D01*
X113531037Y-67153224D01*
X113734687Y-67229656D01*
X113734692Y-67229656D01*
X113734695Y-67229658D01*
X113948733Y-67268500D01*
X113948738Y-67268500D01*
X115911785Y-67268500D01*
X116074149Y-67253886D01*
X116074150Y-67253885D01*
X116074158Y-67253885D01*
X116283853Y-67196013D01*
X116479844Y-67101629D01*
X116655833Y-66973766D01*
X116806163Y-66816533D01*
X116888113Y-66692384D01*
X116917712Y-66647543D01*
X116979595Y-66590388D01*
X117060951Y-66568538D01*
X117064597Y-66568500D01*
X120485086Y-66568500D01*
X120566877Y-66588660D01*
X120591432Y-66604263D01*
X120631945Y-66634985D01*
X120642384Y-66642901D01*
X120782011Y-66697963D01*
X120782014Y-66697963D01*
X120792918Y-66700719D01*
X120867277Y-66740303D01*
X120914724Y-66809909D01*
X120924388Y-66893592D01*
X120910803Y-66942441D01*
X120894989Y-66978256D01*
X120894986Y-66978268D01*
X120892000Y-67004012D01*
X120892000Y-67571000D01*
X122808000Y-67571000D01*
X122808000Y-67004012D01*
X122805013Y-66978268D01*
X122805010Y-66978257D01*
X122758503Y-66872926D01*
X122758502Y-66872924D01*
X122694529Y-66808951D01*
X122650949Y-66736861D01*
X122645863Y-66652775D01*
X122680436Y-66575957D01*
X122746747Y-66524006D01*
X122818980Y-66508500D01*
X122986029Y-66508500D01*
X123018693Y-66500448D01*
X123153083Y-66467325D01*
X123219212Y-66432618D01*
X123305425Y-66387370D01*
X123305425Y-66387369D01*
X123305430Y-66387367D01*
X123434215Y-66273273D01*
X123434818Y-66272400D01*
X123531952Y-66131679D01*
X123531954Y-66131674D01*
X123533909Y-66126520D01*
X123592965Y-65970801D01*
X123613704Y-65800000D01*
X123592965Y-65629199D01*
X123538284Y-65485015D01*
X123531953Y-65468322D01*
X123489655Y-65407043D01*
X123459783Y-65328278D01*
X123458500Y-65307064D01*
X123458500Y-64996489D01*
X123478660Y-64914698D01*
X123534521Y-64851644D01*
X123569924Y-64832764D01*
X123607616Y-64817901D01*
X123727210Y-64727210D01*
X123760076Y-64683868D01*
X123825559Y-64630879D01*
X123908169Y-64614390D01*
X123988979Y-64638181D01*
X124040550Y-64683868D01*
X124073147Y-64726853D01*
X124192632Y-64817463D01*
X124192634Y-64817464D01*
X124332127Y-64872472D01*
X124332133Y-64872473D01*
X124419784Y-64882999D01*
X124419785Y-64883000D01*
X124508500Y-64883000D01*
X124508500Y-64354000D01*
X125016500Y-64354000D01*
X125016500Y-64883000D01*
X125105215Y-64883000D01*
X125105215Y-64882999D01*
X125192866Y-64872473D01*
X125192872Y-64872472D01*
X125332365Y-64817464D01*
X125332367Y-64817463D01*
X125451852Y-64726852D01*
X125542463Y-64607367D01*
X125542464Y-64607365D01*
X125597472Y-64467872D01*
X125597473Y-64467866D01*
X125607999Y-64380215D01*
X125608000Y-64380215D01*
X125608000Y-64354000D01*
X125016500Y-64354000D01*
X124508500Y-64354000D01*
X124508500Y-63317000D01*
X125016500Y-63317000D01*
X125016500Y-63846000D01*
X125608000Y-63846000D01*
X125608000Y-63819785D01*
X125607999Y-63819784D01*
X125597473Y-63732133D01*
X125597472Y-63732127D01*
X125542464Y-63592634D01*
X125542463Y-63592632D01*
X125451852Y-63473147D01*
X125332367Y-63382536D01*
X125332365Y-63382535D01*
X125192872Y-63327527D01*
X125192866Y-63327526D01*
X125105215Y-63317000D01*
X125016500Y-63317000D01*
X124508500Y-63317000D01*
X124508500Y-63307436D01*
X124479538Y-63259528D01*
X124474452Y-63175442D01*
X124486564Y-63136082D01*
X124510508Y-63081855D01*
X124513500Y-63056064D01*
X124513500Y-62263936D01*
X124510508Y-62238145D01*
X124510506Y-62238140D01*
X124509365Y-62233945D01*
X124509194Y-62226820D01*
X124508982Y-62224993D01*
X124509149Y-62224973D01*
X124507344Y-62149730D01*
X124544691Y-62074222D01*
X124612850Y-62024719D01*
X124666635Y-62012185D01*
X124711898Y-62008948D01*
X124724453Y-62008500D01*
X124736363Y-62008500D01*
X124736368Y-62008500D01*
X124748173Y-62006802D01*
X124760639Y-62005461D01*
X124809201Y-62001989D01*
X124809204Y-62001988D01*
X124810604Y-62001684D01*
X124843331Y-61993331D01*
X124844730Y-61992920D01*
X124844731Y-61992919D01*
X124844734Y-61992919D01*
X124889011Y-61972697D01*
X124900578Y-61967906D01*
X124946204Y-61950889D01*
X124946205Y-61950887D01*
X124946208Y-61950887D01*
X124947475Y-61950195D01*
X124976503Y-61932972D01*
X124977738Y-61932178D01*
X124977743Y-61932176D01*
X125014531Y-61900297D01*
X125024284Y-61892438D01*
X125033848Y-61885280D01*
X125042283Y-61876844D01*
X125051463Y-61868296D01*
X125088250Y-61836421D01*
X125088255Y-61836412D01*
X125089210Y-61835311D01*
X125111593Y-61807533D01*
X126459079Y-60460049D01*
X126531170Y-60416469D01*
X126583530Y-60408500D01*
X132625618Y-60408500D01*
X132707409Y-60428660D01*
X132770463Y-60484521D01*
X132800335Y-60563286D01*
X132790181Y-60646910D01*
X132742328Y-60716238D01*
X132731100Y-60725388D01*
X132728652Y-60727220D01*
X132728640Y-60727230D01*
X132720208Y-60735662D01*
X132711026Y-60744211D01*
X132674247Y-60776081D01*
X132673326Y-60777144D01*
X132650902Y-60804969D01*
X126765921Y-66689951D01*
X126693831Y-66733531D01*
X126641470Y-66741500D01*
X125653936Y-66741500D01*
X125632443Y-66743993D01*
X125628144Y-66744492D01*
X125522634Y-66791079D01*
X125441079Y-66872634D01*
X125396426Y-66973766D01*
X125394492Y-66978145D01*
X125391500Y-67003936D01*
X125391500Y-68646064D01*
X125394492Y-68671855D01*
X125441079Y-68777365D01*
X125522635Y-68858921D01*
X125628145Y-68905508D01*
X125653936Y-68908500D01*
X125665500Y-68908500D01*
X125747291Y-68928660D01*
X125810345Y-68984521D01*
X125840217Y-69063286D01*
X125841500Y-69084500D01*
X125841500Y-74515500D01*
X125821340Y-74597291D01*
X125765479Y-74660345D01*
X125686714Y-74690217D01*
X125665500Y-74691500D01*
X125653936Y-74691500D01*
X125633886Y-74693826D01*
X125628144Y-74694492D01*
X125522634Y-74741079D01*
X125441079Y-74822634D01*
X125404889Y-74904599D01*
X125394492Y-74928145D01*
X125391500Y-74953936D01*
X125391500Y-76596064D01*
X125394492Y-76621855D01*
X125441079Y-76727365D01*
X125522635Y-76808921D01*
X125628145Y-76855508D01*
X125653936Y-76858500D01*
X125653941Y-76858500D01*
X127046059Y-76858500D01*
X127046064Y-76858500D01*
X127071855Y-76855508D01*
X127177365Y-76808921D01*
X127258921Y-76727365D01*
X127305508Y-76621855D01*
X127308500Y-76596064D01*
X127308500Y-74953936D01*
X127305508Y-74928145D01*
X127258921Y-74822635D01*
X127177365Y-74741079D01*
X127071855Y-74694492D01*
X127046064Y-74691500D01*
X127046059Y-74691500D01*
X127034500Y-74691500D01*
X126952709Y-74671340D01*
X126889655Y-74615479D01*
X126859783Y-74536714D01*
X126858500Y-74515500D01*
X126858500Y-69084500D01*
X126878660Y-69002709D01*
X126934521Y-68939655D01*
X127013286Y-68909783D01*
X127034500Y-68908500D01*
X127046059Y-68908500D01*
X127046064Y-68908500D01*
X127071855Y-68905508D01*
X127177365Y-68858921D01*
X127258921Y-68777365D01*
X127305508Y-68671855D01*
X127308500Y-68646064D01*
X127308500Y-67658529D01*
X127328660Y-67576738D01*
X127360049Y-67534078D01*
X133221578Y-61672549D01*
X133293668Y-61628969D01*
X133346029Y-61621000D01*
X134291000Y-61621000D01*
X134372791Y-61641160D01*
X134435845Y-61697021D01*
X134465717Y-61775786D01*
X134466935Y-61795935D01*
X134467000Y-61796000D01*
X136033000Y-61796000D01*
X136033327Y-61795672D01*
X136053160Y-61715209D01*
X136109021Y-61652155D01*
X136187786Y-61622283D01*
X136209000Y-61621000D01*
X138328970Y-61621000D01*
X138410761Y-61641160D01*
X138453421Y-61672549D01*
X138834421Y-62053549D01*
X138878001Y-62125639D01*
X138883087Y-62209725D01*
X138848514Y-62286543D01*
X138782203Y-62338494D01*
X138709970Y-62354000D01*
X138153936Y-62354000D01*
X138132443Y-62356493D01*
X138128144Y-62356992D01*
X138022634Y-62403579D01*
X137941079Y-62485134D01*
X137894492Y-62590644D01*
X137891500Y-62616440D01*
X137891500Y-62716500D01*
X137871340Y-62798291D01*
X137815479Y-62861345D01*
X137736714Y-62891217D01*
X137715500Y-62892500D01*
X136115043Y-62892500D01*
X136033252Y-62872340D01*
X135970198Y-62816479D01*
X135940326Y-62737714D01*
X135950480Y-62654090D01*
X135961631Y-62630240D01*
X135967464Y-62619865D01*
X136022472Y-62480372D01*
X136022473Y-62480366D01*
X136032999Y-62392715D01*
X136033000Y-62392715D01*
X136033000Y-62304000D01*
X134467000Y-62304000D01*
X134467000Y-62392715D01*
X134477526Y-62480366D01*
X134477527Y-62480372D01*
X134532535Y-62619865D01*
X134532536Y-62619867D01*
X134623147Y-62739353D01*
X134623149Y-62739355D01*
X134666130Y-62771949D01*
X134719120Y-62837434D01*
X134735609Y-62920043D01*
X134711817Y-63000853D01*
X134666132Y-63052422D01*
X134622792Y-63085288D01*
X134622787Y-63085293D01*
X134532100Y-63204881D01*
X134477037Y-63344509D01*
X134477036Y-63344514D01*
X134466500Y-63432248D01*
X134466500Y-63536280D01*
X134458361Y-63584180D01*
X134458981Y-63584322D01*
X134456782Y-63593953D01*
X134452773Y-63629534D01*
X134449468Y-63648985D01*
X134441501Y-63683892D01*
X134441500Y-63683905D01*
X134441500Y-64403000D01*
X134421340Y-64484791D01*
X134365479Y-64547845D01*
X134286714Y-64577717D01*
X134265500Y-64579000D01*
X133703597Y-64579000D01*
X133521403Y-64579000D01*
X133521401Y-64579000D01*
X133521392Y-64579001D01*
X133486485Y-64586968D01*
X133467034Y-64590273D01*
X133431457Y-64594282D01*
X133431447Y-64594284D01*
X133397651Y-64606109D01*
X133378698Y-64611570D01*
X133343782Y-64619540D01*
X133343776Y-64619542D01*
X133311513Y-64635079D01*
X133293287Y-64642628D01*
X133259488Y-64654455D01*
X133259478Y-64654460D01*
X133229161Y-64673509D01*
X133211893Y-64683053D01*
X133179632Y-64698589D01*
X133179630Y-64698590D01*
X133151628Y-64720921D01*
X133135535Y-64732339D01*
X133105227Y-64751383D01*
X133105214Y-64751393D01*
X133072910Y-64783696D01*
X133072911Y-64783697D01*
X132992719Y-64863889D01*
X132992718Y-64863888D01*
X132863892Y-64992715D01*
X132863883Y-64992727D01*
X132844839Y-65023035D01*
X132833421Y-65039128D01*
X132811090Y-65067130D01*
X132811089Y-65067132D01*
X132795553Y-65099393D01*
X132786009Y-65116661D01*
X132766960Y-65146978D01*
X132766955Y-65146988D01*
X132755128Y-65180787D01*
X132747579Y-65199013D01*
X132732042Y-65231276D01*
X132732040Y-65231282D01*
X132724070Y-65266198D01*
X132718609Y-65285151D01*
X132706784Y-65318947D01*
X132706782Y-65318957D01*
X132702773Y-65354534D01*
X132699468Y-65373985D01*
X132691501Y-65408892D01*
X132691500Y-65408905D01*
X132691500Y-71203000D01*
X132671340Y-71284791D01*
X132615479Y-71347845D01*
X132536714Y-71377717D01*
X132515500Y-71379000D01*
X131980627Y-71379000D01*
X131898836Y-71358840D01*
X131835782Y-71302979D01*
X131805910Y-71224214D01*
X131816064Y-71140590D01*
X131862057Y-71072934D01*
X131959810Y-70983820D01*
X131959813Y-70983816D01*
X132019147Y-70905244D01*
X132089196Y-70812484D01*
X132184897Y-70620291D01*
X132243653Y-70413786D01*
X132263463Y-70200000D01*
X132243653Y-69986214D01*
X132184897Y-69779709D01*
X132089196Y-69587516D01*
X132089191Y-69587509D01*
X131959813Y-69416183D01*
X131959810Y-69416179D01*
X131801143Y-69271535D01*
X131618604Y-69158513D01*
X131618594Y-69158508D01*
X131504002Y-69114115D01*
X131435016Y-69065770D01*
X131396399Y-68990904D01*
X131396998Y-68906667D01*
X131436675Y-68832357D01*
X131504002Y-68785885D01*
X131526748Y-68777073D01*
X131618600Y-68741489D01*
X131801143Y-68628464D01*
X131959810Y-68483820D01*
X132089196Y-68312484D01*
X132184897Y-68120291D01*
X132243653Y-67913786D01*
X132263463Y-67700000D01*
X132243653Y-67486214D01*
X132184897Y-67279709D01*
X132089196Y-67087516D01*
X132054561Y-67041651D01*
X131959813Y-66916183D01*
X131959810Y-66916179D01*
X131801143Y-66771535D01*
X131618604Y-66658513D01*
X131618597Y-66658509D01*
X131418392Y-66580949D01*
X131207355Y-66541500D01*
X131207351Y-66541500D01*
X130992649Y-66541500D01*
X130992644Y-66541500D01*
X130781607Y-66580949D01*
X130581402Y-66658509D01*
X130581395Y-66658513D01*
X130398857Y-66771535D01*
X130398856Y-66771535D01*
X130240189Y-66916179D01*
X130240186Y-66916183D01*
X130110808Y-67087509D01*
X130110803Y-67087517D01*
X130015103Y-67279707D01*
X129957269Y-67482972D01*
X129956347Y-67486214D01*
X129954987Y-67500887D01*
X129942341Y-67637369D01*
X129936537Y-67700000D01*
X129956347Y-67913786D01*
X129961580Y-67932177D01*
X130015103Y-68120292D01*
X130110803Y-68312482D01*
X130110808Y-68312490D01*
X130240186Y-68483816D01*
X130240189Y-68483820D01*
X130398856Y-68628464D01*
X130581395Y-68741486D01*
X130581402Y-68741490D01*
X130695998Y-68785885D01*
X130764983Y-68834230D01*
X130803600Y-68909096D01*
X130803001Y-68993333D01*
X130763324Y-69067643D01*
X130695998Y-69114115D01*
X130581402Y-69158509D01*
X130581395Y-69158513D01*
X130398857Y-69271535D01*
X130398856Y-69271535D01*
X130240189Y-69416179D01*
X130240186Y-69416183D01*
X130110808Y-69587509D01*
X130110803Y-69587517D01*
X130015103Y-69779707D01*
X129961974Y-69966436D01*
X129956347Y-69986214D01*
X129936537Y-70200000D01*
X129956347Y-70413786D01*
X129976311Y-70483952D01*
X130015103Y-70620292D01*
X130110803Y-70812482D01*
X130110808Y-70812490D01*
X130240186Y-70983816D01*
X130240189Y-70983820D01*
X130398856Y-71128464D01*
X130581395Y-71241486D01*
X130581402Y-71241490D01*
X130609074Y-71252210D01*
X130781603Y-71319049D01*
X130819060Y-71326050D01*
X130824121Y-71326997D01*
X130900815Y-71361842D01*
X130952531Y-71428338D01*
X130967421Y-71511251D01*
X130942074Y-71591586D01*
X130882297Y-71650940D01*
X130824121Y-71673003D01*
X130781606Y-71680950D01*
X130581402Y-71758509D01*
X130581395Y-71758513D01*
X130398857Y-71871535D01*
X130398856Y-71871535D01*
X130240189Y-72016179D01*
X130240186Y-72016183D01*
X130110808Y-72187509D01*
X130110803Y-72187517D01*
X130015103Y-72379707D01*
X129956348Y-72586210D01*
X129956347Y-72586215D01*
X129945098Y-72707616D01*
X129936537Y-72800000D01*
X129956347Y-73013786D01*
X129970480Y-73063457D01*
X130015103Y-73220292D01*
X130110803Y-73412482D01*
X130110808Y-73412490D01*
X130240186Y-73583816D01*
X130240189Y-73583820D01*
X130398856Y-73728464D01*
X130581395Y-73841486D01*
X130581402Y-73841490D01*
X130696690Y-73886153D01*
X130765675Y-73934498D01*
X130804292Y-74009364D01*
X130803693Y-74093601D01*
X130764016Y-74167911D01*
X130696690Y-74214383D01*
X130581628Y-74258958D01*
X130581619Y-74258962D01*
X130480673Y-74321463D01*
X130972412Y-74813202D01*
X130957685Y-74815320D01*
X130826900Y-74875048D01*
X130718239Y-74969202D01*
X130640507Y-75090156D01*
X130615638Y-75174849D01*
X130118690Y-74677901D01*
X130111234Y-74687775D01*
X130111227Y-74687786D01*
X130015571Y-74879887D01*
X129956841Y-75086306D01*
X129956840Y-75086310D01*
X129937039Y-75299998D01*
X129937039Y-75300001D01*
X129956840Y-75513689D01*
X129956841Y-75513693D01*
X130015571Y-75720112D01*
X130111230Y-75912218D01*
X130111234Y-75912224D01*
X130118690Y-75922097D01*
X130118691Y-75922097D01*
X130615638Y-75425149D01*
X130640507Y-75509844D01*
X130718239Y-75630798D01*
X130826900Y-75724952D01*
X130957685Y-75784680D01*
X130972412Y-75786797D01*
X130480675Y-76278534D01*
X130581630Y-76341043D01*
X130781742Y-76418566D01*
X130781741Y-76418566D01*
X130992692Y-76457999D01*
X130992700Y-76458000D01*
X131207300Y-76458000D01*
X131207307Y-76457999D01*
X131418257Y-76418566D01*
X131618370Y-76341042D01*
X131618380Y-76341037D01*
X131719324Y-76278535D01*
X131227587Y-75786797D01*
X131242315Y-75784680D01*
X131373100Y-75724952D01*
X131481761Y-75630798D01*
X131559493Y-75509844D01*
X131584361Y-75425150D01*
X132137982Y-75978771D01*
X132136325Y-75980427D01*
X132153056Y-75993293D01*
X132188323Y-76069795D01*
X132191500Y-76103085D01*
X132191500Y-78204706D01*
X132171340Y-78286497D01*
X132139951Y-78329157D01*
X131779157Y-78689951D01*
X131707067Y-78733531D01*
X131654706Y-78741500D01*
X131206266Y-78741500D01*
X131116525Y-78752277D01*
X130973697Y-78808602D01*
X130851370Y-78901365D01*
X130851365Y-78901370D01*
X130758602Y-79023697D01*
X130702277Y-79166525D01*
X130691500Y-79256266D01*
X130691500Y-79515500D01*
X130671340Y-79597291D01*
X130615479Y-79660345D01*
X130536714Y-79690217D01*
X130515500Y-79691500D01*
X130476086Y-79691500D01*
X130394295Y-79671340D01*
X130331241Y-79615479D01*
X130315085Y-79586595D01*
X130308921Y-79572635D01*
X130227365Y-79491079D01*
X130215833Y-79479547D01*
X130217725Y-79477654D01*
X130177299Y-79432352D01*
X130156845Y-79350634D01*
X130176710Y-79268770D01*
X130217627Y-79222247D01*
X130215833Y-79220453D01*
X130251786Y-79184500D01*
X130308921Y-79127365D01*
X130355508Y-79021855D01*
X130358500Y-78996064D01*
X130358500Y-77403936D01*
X130355508Y-77378145D01*
X130308921Y-77272635D01*
X130227365Y-77191079D01*
X130121855Y-77144492D01*
X130096064Y-77141500D01*
X128003936Y-77141500D01*
X127982443Y-77143993D01*
X127978144Y-77144492D01*
X127872634Y-77191079D01*
X127791080Y-77272633D01*
X127791080Y-77272634D01*
X127791079Y-77272635D01*
X127784916Y-77286592D01*
X127733439Y-77353269D01*
X127656869Y-77388387D01*
X127623914Y-77391500D01*
X126791096Y-77391500D01*
X126608903Y-77391500D01*
X126608899Y-77391500D01*
X126608897Y-77391501D01*
X126573982Y-77399469D01*
X126554533Y-77402773D01*
X126518954Y-77406782D01*
X126518953Y-77406782D01*
X126485149Y-77418610D01*
X126466191Y-77424072D01*
X126431282Y-77432040D01*
X126431280Y-77432040D01*
X126399012Y-77447579D01*
X126380792Y-77455126D01*
X126346985Y-77466957D01*
X126346974Y-77466962D01*
X126316659Y-77486010D01*
X126299393Y-77495553D01*
X126267134Y-77511089D01*
X126267125Y-77511094D01*
X126239136Y-77533415D01*
X126223044Y-77544833D01*
X126192726Y-77563883D01*
X126192715Y-77563892D01*
X125963892Y-77792715D01*
X125963883Y-77792727D01*
X125944839Y-77823035D01*
X125933421Y-77839128D01*
X125911090Y-77867130D01*
X125911089Y-77867132D01*
X125895553Y-77899393D01*
X125886009Y-77916661D01*
X125866960Y-77946978D01*
X125866955Y-77946988D01*
X125855128Y-77980787D01*
X125847579Y-77999013D01*
X125832042Y-78031276D01*
X125832040Y-78031282D01*
X125824070Y-78066198D01*
X125818609Y-78085151D01*
X125806784Y-78118947D01*
X125806782Y-78118957D01*
X125802773Y-78154534D01*
X125799468Y-78173985D01*
X125791501Y-78208892D01*
X125791500Y-78208905D01*
X125791500Y-79495413D01*
X125807889Y-79640869D01*
X125805453Y-79641143D01*
X125804250Y-79710574D01*
X125763816Y-79784474D01*
X125693670Y-79831119D01*
X125634120Y-79841500D01*
X124234500Y-79841500D01*
X124152709Y-79821340D01*
X124089655Y-79765479D01*
X124059783Y-79686714D01*
X124058500Y-79665500D01*
X124058500Y-78553940D01*
X124058500Y-78553936D01*
X124055508Y-78528145D01*
X124008921Y-78422635D01*
X123927365Y-78341079D01*
X123821855Y-78294492D01*
X123796064Y-78291500D01*
X121703936Y-78291500D01*
X121682443Y-78293993D01*
X121678144Y-78294492D01*
X121572634Y-78341079D01*
X121491079Y-78422634D01*
X121444905Y-78527210D01*
X121444492Y-78528145D01*
X121441500Y-78553936D01*
X121441500Y-82446064D01*
X121444492Y-82471855D01*
X121491079Y-82577365D01*
X121572635Y-82658921D01*
X121678145Y-82705508D01*
X121703936Y-82708500D01*
X121703941Y-82708500D01*
X123796059Y-82708500D01*
X123796064Y-82708500D01*
X123821855Y-82705508D01*
X123927365Y-82658921D01*
X124008921Y-82577365D01*
X124055508Y-82471855D01*
X124058500Y-82446064D01*
X124058500Y-81634500D01*
X124078660Y-81552709D01*
X124134521Y-81489655D01*
X124213286Y-81459783D01*
X124234500Y-81458500D01*
X127749312Y-81458500D01*
X127831103Y-81478660D01*
X127866775Y-81504907D01*
X127867068Y-81505108D01*
X127867106Y-81505151D01*
X127873763Y-81510049D01*
X127884167Y-81520453D01*
X127882366Y-81522253D01*
X127923153Y-81567962D01*
X127943604Y-81649681D01*
X127923736Y-81731544D01*
X127882693Y-81778205D01*
X127884455Y-81779967D01*
X127791496Y-81872926D01*
X127744989Y-81978257D01*
X127744986Y-81978268D01*
X127742000Y-82004012D01*
X127742000Y-82546000D01*
X129128000Y-82546000D01*
X129209791Y-82566160D01*
X129272845Y-82622021D01*
X129302717Y-82700786D01*
X129304000Y-82722000D01*
X129304000Y-83858000D01*
X130095987Y-83858000D01*
X130121731Y-83855013D01*
X130121742Y-83855010D01*
X130227073Y-83808503D01*
X130227076Y-83808502D01*
X130308502Y-83727076D01*
X130308503Y-83727073D01*
X130355010Y-83621742D01*
X130355013Y-83621731D01*
X130358000Y-83595987D01*
X130358000Y-83433863D01*
X130378160Y-83352072D01*
X130434021Y-83289018D01*
X130512786Y-83259146D01*
X130596410Y-83269300D01*
X130665738Y-83317153D01*
X130695775Y-83373984D01*
X130698629Y-83372859D01*
X130759040Y-83526052D01*
X130759039Y-83526052D01*
X130851722Y-83648271D01*
X130851728Y-83648277D01*
X130973947Y-83740960D01*
X131116642Y-83797231D01*
X131206311Y-83807999D01*
X131646000Y-83807999D01*
X131646000Y-81867000D01*
X131206319Y-81867000D01*
X131116640Y-81877770D01*
X131116639Y-81877770D01*
X130973947Y-81934039D01*
X130851728Y-82026722D01*
X130851722Y-82026728D01*
X130759039Y-82148947D01*
X130698629Y-82302140D01*
X130695726Y-82300995D01*
X130665040Y-82358627D01*
X130595429Y-82406066D01*
X130511745Y-82415721D01*
X130433159Y-82385381D01*
X130377675Y-82321995D01*
X130358000Y-82241134D01*
X130358000Y-82004012D01*
X130355013Y-81978268D01*
X130355010Y-81978257D01*
X130308503Y-81872926D01*
X130308502Y-81872924D01*
X130215545Y-81779967D01*
X130217403Y-81778108D01*
X130176842Y-81732646D01*
X130156395Y-81650925D01*
X130176268Y-81569064D01*
X130217533Y-81522153D01*
X130215833Y-81520453D01*
X130257626Y-81478660D01*
X130308921Y-81427365D01*
X130315083Y-81413407D01*
X130366561Y-81346731D01*
X130443131Y-81311613D01*
X130476086Y-81308500D01*
X131203594Y-81308500D01*
X131203597Y-81308500D01*
X131238512Y-81300529D01*
X131257955Y-81297226D01*
X131293547Y-81293217D01*
X131327365Y-81281383D01*
X131346302Y-81275928D01*
X131381220Y-81267959D01*
X131413477Y-81252423D01*
X131431721Y-81244867D01*
X131465515Y-81233043D01*
X131495840Y-81213987D01*
X131513096Y-81204450D01*
X131545370Y-81188909D01*
X131573366Y-81166581D01*
X131589450Y-81155167D01*
X131619781Y-81136111D01*
X131748611Y-81007281D01*
X132020843Y-80735049D01*
X132092933Y-80691469D01*
X132145294Y-80683500D01*
X132593731Y-80683500D01*
X132593732Y-80683499D01*
X132683476Y-80672722D01*
X132800935Y-80626401D01*
X132884417Y-80615151D01*
X132963567Y-80643985D01*
X133020252Y-80706299D01*
X133041485Y-80787818D01*
X133041500Y-80790131D01*
X133041500Y-81760405D01*
X133021340Y-81842196D01*
X132965479Y-81905250D01*
X132886714Y-81935122D01*
X132803090Y-81924968D01*
X132800935Y-81924134D01*
X132683360Y-81877769D01*
X132683357Y-81877768D01*
X132593688Y-81867000D01*
X132154000Y-81867000D01*
X132154000Y-83807999D01*
X132593680Y-83807999D01*
X132683359Y-83797229D01*
X132683360Y-83797229D01*
X132800934Y-83750865D01*
X132884418Y-83739614D01*
X132963569Y-83768448D01*
X133020253Y-83830763D01*
X133041485Y-83912283D01*
X133041500Y-83914594D01*
X133041500Y-84387468D01*
X133041397Y-84393476D01*
X133039204Y-84457651D01*
X133039204Y-84457652D01*
X133048465Y-84495654D01*
X133051828Y-84513354D01*
X133057153Y-84552096D01*
X133057154Y-84552100D01*
X133062693Y-84564851D01*
X133072259Y-84593297D01*
X133075552Y-84606811D01*
X133075553Y-84606814D01*
X133075554Y-84606815D01*
X133094728Y-84640916D01*
X133102731Y-84657028D01*
X133118320Y-84692916D01*
X133118321Y-84692917D01*
X133127099Y-84703707D01*
X133143979Y-84728507D01*
X133148884Y-84737229D01*
X133171404Y-84818402D01*
X133153622Y-84900743D01*
X133099611Y-84965388D01*
X133021744Y-84997529D01*
X132995478Y-84999500D01*
X110126500Y-84999500D01*
X110044709Y-84979340D01*
X109981655Y-84923479D01*
X109951783Y-84844714D01*
X109950500Y-84823500D01*
X109950500Y-83054000D01*
X127742000Y-83054000D01*
X127742000Y-83595987D01*
X127744986Y-83621731D01*
X127744989Y-83621742D01*
X127791496Y-83727073D01*
X127791498Y-83727076D01*
X127872924Y-83808502D01*
X127872926Y-83808503D01*
X127978257Y-83855010D01*
X127978268Y-83855013D01*
X128004013Y-83858000D01*
X128796000Y-83858000D01*
X128796000Y-83054000D01*
X127742000Y-83054000D01*
X109950500Y-83054000D01*
X109950500Y-81710000D01*
X113465805Y-81710000D01*
X113593660Y-81792167D01*
X113788683Y-81870243D01*
X113994966Y-81910000D01*
X114100000Y-81910000D01*
X114100000Y-81710000D01*
X115900000Y-81710000D01*
X115900000Y-81910000D01*
X115952401Y-81910000D01*
X116109123Y-81895034D01*
X116310690Y-81835849D01*
X116497413Y-81739587D01*
X116535035Y-81710000D01*
X115900000Y-81710000D01*
X114100000Y-81710000D01*
X113465805Y-81710000D01*
X109950500Y-81710000D01*
X109950500Y-80810000D01*
X114394823Y-80810000D01*
X114415444Y-80966631D01*
X114475901Y-81112588D01*
X114572075Y-81237925D01*
X114697412Y-81334099D01*
X114843369Y-81394556D01*
X114960677Y-81410000D01*
X115039323Y-81410000D01*
X115156631Y-81394556D01*
X115302588Y-81334099D01*
X115427925Y-81237925D01*
X115524099Y-81112589D01*
X115584556Y-80966631D01*
X115605177Y-80810000D01*
X115584556Y-80653369D01*
X115524099Y-80507412D01*
X115427925Y-80382075D01*
X115302588Y-80285901D01*
X115156631Y-80225444D01*
X115039323Y-80210000D01*
X114960677Y-80210000D01*
X114843369Y-80225444D01*
X114697412Y-80285901D01*
X114572075Y-80382075D01*
X114475901Y-80507411D01*
X114415444Y-80653369D01*
X114394823Y-80810000D01*
X109950500Y-80810000D01*
X109950500Y-79909999D01*
X113464964Y-79909999D01*
X113464965Y-79910000D01*
X114100000Y-79910000D01*
X114100000Y-79710000D01*
X115900000Y-79710000D01*
X115900000Y-79910000D01*
X116534195Y-79910000D01*
X116406339Y-79827832D01*
X116211316Y-79749756D01*
X116005034Y-79710000D01*
X115900000Y-79710000D01*
X114100000Y-79710000D01*
X114047599Y-79710000D01*
X113890876Y-79724965D01*
X113689309Y-79784150D01*
X113502586Y-79880412D01*
X113464964Y-79909999D01*
X109950500Y-79909999D01*
X109950500Y-77693733D01*
X112891500Y-77693733D01*
X112902277Y-77783474D01*
X112930439Y-77854888D01*
X112944336Y-77890128D01*
X112958602Y-77926302D01*
X113051365Y-78048629D01*
X113051370Y-78048634D01*
X113172268Y-78140313D01*
X113173700Y-78141399D01*
X113316524Y-78197722D01*
X113374681Y-78204706D01*
X113406266Y-78208499D01*
X113406269Y-78208500D01*
X113406274Y-78208500D01*
X116593731Y-78208500D01*
X116593732Y-78208499D01*
X116683476Y-78197722D01*
X116826300Y-78141399D01*
X116948632Y-78048632D01*
X117041399Y-77926300D01*
X117097722Y-77783476D01*
X117108499Y-77693732D01*
X117108500Y-77693731D01*
X117108500Y-76306269D01*
X117108499Y-76306266D01*
X117101309Y-76246394D01*
X117097722Y-76216524D01*
X117041399Y-76073700D01*
X117025932Y-76053303D01*
X117007503Y-76029000D01*
X120892000Y-76029000D01*
X120892000Y-76595987D01*
X120894986Y-76621731D01*
X120894989Y-76621742D01*
X120941496Y-76727073D01*
X120941498Y-76727076D01*
X121022924Y-76808502D01*
X121022926Y-76808503D01*
X121128257Y-76855010D01*
X121128268Y-76855013D01*
X121154013Y-76858000D01*
X121596000Y-76858000D01*
X121596000Y-76029000D01*
X122104000Y-76029000D01*
X122104000Y-76858000D01*
X122545987Y-76858000D01*
X122571731Y-76855013D01*
X122571742Y-76855010D01*
X122677073Y-76808503D01*
X122677076Y-76808502D01*
X122758502Y-76727076D01*
X122758503Y-76727073D01*
X122805010Y-76621742D01*
X122805013Y-76621731D01*
X122808000Y-76595987D01*
X122808000Y-76029000D01*
X122104000Y-76029000D01*
X121596000Y-76029000D01*
X120892000Y-76029000D01*
X117007503Y-76029000D01*
X116948634Y-75951370D01*
X116948629Y-75951365D01*
X116826302Y-75858602D01*
X116826300Y-75858601D01*
X116705644Y-75811020D01*
X116683474Y-75802277D01*
X116593733Y-75791500D01*
X116593726Y-75791500D01*
X113406274Y-75791500D01*
X113406266Y-75791500D01*
X113316525Y-75802277D01*
X113173697Y-75858602D01*
X113051370Y-75951365D01*
X113051365Y-75951370D01*
X112958602Y-76073697D01*
X112902277Y-76216525D01*
X112891500Y-76306266D01*
X112891500Y-77693733D01*
X109950500Y-77693733D01*
X109950500Y-75521000D01*
X120892000Y-75521000D01*
X121596000Y-75521000D01*
X121596000Y-74692000D01*
X122104000Y-74692000D01*
X122104000Y-75521000D01*
X122808000Y-75521000D01*
X122808000Y-74954012D01*
X122805013Y-74928268D01*
X122805010Y-74928257D01*
X122758503Y-74822926D01*
X122758502Y-74822924D01*
X122677076Y-74741498D01*
X122677073Y-74741496D01*
X122571742Y-74694989D01*
X122571731Y-74694986D01*
X122545987Y-74692000D01*
X122104000Y-74692000D01*
X121596000Y-74692000D01*
X121154013Y-74692000D01*
X121128268Y-74694986D01*
X121128257Y-74694989D01*
X121022926Y-74741496D01*
X120941496Y-74822926D01*
X120894989Y-74928257D01*
X120894986Y-74928268D01*
X120892000Y-74954012D01*
X120892000Y-75521000D01*
X109950500Y-75521000D01*
X109950500Y-69924441D01*
X112845337Y-69924441D01*
X112874535Y-70139996D01*
X112874536Y-70140001D01*
X112874537Y-70140004D01*
X112941759Y-70346891D01*
X113044841Y-70538450D01*
X113115085Y-70626532D01*
X113180473Y-70708526D01*
X113180478Y-70708531D01*
X113344283Y-70851644D01*
X113344287Y-70851646D01*
X113344290Y-70851649D01*
X113531032Y-70963222D01*
X113531036Y-70963223D01*
X113531037Y-70963224D01*
X113734687Y-71039656D01*
X113734692Y-71039656D01*
X113734695Y-71039658D01*
X113948733Y-71078500D01*
X113948738Y-71078500D01*
X115911785Y-71078500D01*
X116074149Y-71063886D01*
X116074150Y-71063885D01*
X116074158Y-71063885D01*
X116283853Y-71006013D01*
X116479844Y-70911629D01*
X116655833Y-70783766D01*
X116806163Y-70626533D01*
X116926001Y-70444985D01*
X117011498Y-70244957D01*
X117059904Y-70032877D01*
X117069663Y-69815562D01*
X117040463Y-69599996D01*
X116973241Y-69393109D01*
X116870159Y-69201550D01*
X116734528Y-69031475D01*
X116734526Y-69031473D01*
X116734521Y-69031468D01*
X116570716Y-68888355D01*
X116570705Y-68888348D01*
X116520748Y-68858500D01*
X116383968Y-68776778D01*
X116383966Y-68776777D01*
X116383962Y-68776775D01*
X116180312Y-68700343D01*
X115966268Y-68661500D01*
X115966267Y-68661500D01*
X114003224Y-68661500D01*
X114003214Y-68661500D01*
X113840850Y-68676113D01*
X113840846Y-68676114D01*
X113631150Y-68733986D01*
X113631146Y-68733987D01*
X113435160Y-68828368D01*
X113435151Y-68828374D01*
X113259168Y-68956232D01*
X113259165Y-68956235D01*
X113108836Y-69113467D01*
X113108833Y-69113472D01*
X112989000Y-69295012D01*
X112903501Y-69495044D01*
X112855096Y-69707119D01*
X112845337Y-69924441D01*
X109950500Y-69924441D01*
X109950500Y-68079000D01*
X120892000Y-68079000D01*
X120892000Y-68645987D01*
X120894986Y-68671731D01*
X120894989Y-68671742D01*
X120941496Y-68777073D01*
X120941498Y-68777076D01*
X121022924Y-68858502D01*
X121022926Y-68858503D01*
X121128257Y-68905010D01*
X121128268Y-68905013D01*
X121154013Y-68908000D01*
X121596000Y-68908000D01*
X121596000Y-68079000D01*
X122104000Y-68079000D01*
X122104000Y-68908000D01*
X122545987Y-68908000D01*
X122571731Y-68905013D01*
X122571742Y-68905010D01*
X122677073Y-68858503D01*
X122677076Y-68858502D01*
X122758502Y-68777076D01*
X122758503Y-68777073D01*
X122805010Y-68671742D01*
X122805013Y-68671731D01*
X122808000Y-68645987D01*
X122808000Y-68079000D01*
X122104000Y-68079000D01*
X121596000Y-68079000D01*
X120892000Y-68079000D01*
X109950500Y-68079000D01*
X109950500Y-63150000D01*
X113032723Y-63150000D01*
X113085710Y-63221794D01*
X113194853Y-63302345D01*
X113194854Y-63302346D01*
X113322889Y-63347147D01*
X113322894Y-63347148D01*
X113353298Y-63349999D01*
X114057500Y-63349999D01*
X114057500Y-63150000D01*
X115857500Y-63150000D01*
X115857500Y-63349999D01*
X116561701Y-63349999D01*
X116592104Y-63347148D01*
X116720148Y-63302344D01*
X116829289Y-63221794D01*
X116882277Y-63150000D01*
X115857500Y-63150000D01*
X114057500Y-63150000D01*
X113032723Y-63150000D01*
X109950500Y-63150000D01*
X109950500Y-62250000D01*
X114352323Y-62250000D01*
X114372944Y-62406631D01*
X114433401Y-62552588D01*
X114529575Y-62677925D01*
X114654912Y-62774099D01*
X114800869Y-62834556D01*
X114918177Y-62850000D01*
X114996823Y-62850000D01*
X115114131Y-62834556D01*
X115260088Y-62774099D01*
X115385425Y-62677925D01*
X115481599Y-62552589D01*
X115542056Y-62406631D01*
X115562677Y-62250000D01*
X115542056Y-62093369D01*
X115481599Y-61947412D01*
X115385425Y-61822075D01*
X115260088Y-61725901D01*
X115114131Y-61665444D01*
X114996823Y-61650000D01*
X114918177Y-61650000D01*
X114800869Y-61665444D01*
X114654912Y-61725901D01*
X114529575Y-61822075D01*
X114433401Y-61947411D01*
X114372944Y-62093369D01*
X114352323Y-62250000D01*
X109950500Y-62250000D01*
X109950500Y-61350000D01*
X113032723Y-61350000D01*
X114057500Y-61350000D01*
X114057500Y-61150000D01*
X115857500Y-61150000D01*
X115857500Y-61350000D01*
X116882276Y-61350000D01*
X116829289Y-61278205D01*
X116720146Y-61197654D01*
X116720145Y-61197653D01*
X116592110Y-61152852D01*
X116592105Y-61152851D01*
X116561702Y-61150000D01*
X115857500Y-61150000D01*
X114057500Y-61150000D01*
X113353299Y-61150000D01*
X113322895Y-61152851D01*
X113194851Y-61197655D01*
X113085710Y-61278205D01*
X113032723Y-61350000D01*
X109950500Y-61350000D01*
X109950500Y-60594000D01*
X121487000Y-60594000D01*
X121487000Y-60735987D01*
X121489986Y-60761731D01*
X121489989Y-60761742D01*
X121536496Y-60867073D01*
X121536498Y-60867076D01*
X121617924Y-60948502D01*
X121617926Y-60948503D01*
X121723257Y-60995010D01*
X121723268Y-60995013D01*
X121749013Y-60998000D01*
X121796000Y-60998000D01*
X121796000Y-60594000D01*
X121487000Y-60594000D01*
X109950500Y-60594000D01*
X109950500Y-60086000D01*
X121487000Y-60086000D01*
X121796000Y-60086000D01*
X121796000Y-59682000D01*
X121749013Y-59682000D01*
X121723268Y-59684986D01*
X121723257Y-59684989D01*
X121617926Y-59731496D01*
X121536496Y-59812926D01*
X121489989Y-59918257D01*
X121489986Y-59918268D01*
X121487000Y-59944012D01*
X121487000Y-60086000D01*
X109950500Y-60086000D01*
X109950500Y-59076500D01*
X109970660Y-58994709D01*
X110026521Y-58931655D01*
X110105286Y-58901783D01*
X110126500Y-58900500D01*
X153523500Y-58900500D01*
X153605291Y-58920660D01*
G37*
%TD.AperFunction*%
%TA.AperFunction,Conductor*%
G36*
X153632043Y-80585644D02*
G01*
X153683994Y-80651955D01*
X153699500Y-80724188D01*
X153699500Y-84823500D01*
X153679340Y-84905291D01*
X153623479Y-84968345D01*
X153544714Y-84998217D01*
X153523500Y-84999500D01*
X143695239Y-84999500D01*
X143613448Y-84979340D01*
X143550394Y-84923479D01*
X143520522Y-84844714D01*
X143530676Y-84761090D01*
X143570788Y-84699049D01*
X143717741Y-84552096D01*
X143886894Y-84382942D01*
X143958982Y-84339364D01*
X144043068Y-84334278D01*
X144043503Y-84334358D01*
X144172649Y-84358500D01*
X144172654Y-84358500D01*
X144387346Y-84358500D01*
X144387351Y-84358500D01*
X144598397Y-84319049D01*
X144798600Y-84241489D01*
X144981143Y-84128464D01*
X145139810Y-83983820D01*
X145269196Y-83812484D01*
X145364897Y-83620291D01*
X145380719Y-83564681D01*
X145422492Y-83491530D01*
X145493476Y-83446170D01*
X145577409Y-83438993D01*
X145655063Y-83471645D01*
X145708648Y-83536643D01*
X145719281Y-83564682D01*
X145735102Y-83620290D01*
X145735103Y-83620291D01*
X145830803Y-83812482D01*
X145830808Y-83812490D01*
X145960186Y-83983816D01*
X145960189Y-83983820D01*
X146118856Y-84128464D01*
X146301395Y-84241486D01*
X146301402Y-84241490D01*
X146359588Y-84264031D01*
X146501603Y-84319049D01*
X146501605Y-84319049D01*
X146501607Y-84319050D01*
X146669226Y-84350382D01*
X146712649Y-84358500D01*
X146712654Y-84358500D01*
X146927346Y-84358500D01*
X146927351Y-84358500D01*
X147138397Y-84319049D01*
X147338600Y-84241489D01*
X147521143Y-84128464D01*
X147679810Y-83983820D01*
X147809196Y-83812484D01*
X147904897Y-83620291D01*
X147920719Y-83564681D01*
X147962492Y-83491530D01*
X148033476Y-83446170D01*
X148117409Y-83438993D01*
X148195063Y-83471645D01*
X148248648Y-83536643D01*
X148259281Y-83564682D01*
X148275102Y-83620290D01*
X148275103Y-83620291D01*
X148370803Y-83812482D01*
X148370808Y-83812490D01*
X148500186Y-83983816D01*
X148500189Y-83983820D01*
X148658856Y-84128464D01*
X148841395Y-84241486D01*
X148841402Y-84241490D01*
X148899588Y-84264031D01*
X149041603Y-84319049D01*
X149041605Y-84319049D01*
X149041607Y-84319050D01*
X149209226Y-84350382D01*
X149252649Y-84358500D01*
X149252654Y-84358500D01*
X149467346Y-84358500D01*
X149467351Y-84358500D01*
X149678397Y-84319049D01*
X149878600Y-84241489D01*
X150061143Y-84128464D01*
X150219810Y-83983820D01*
X150349196Y-83812484D01*
X150408451Y-83693483D01*
X150462955Y-83629253D01*
X150541065Y-83597709D01*
X150624888Y-83606078D01*
X150695220Y-83652442D01*
X150735949Y-83726181D01*
X150742000Y-83771934D01*
X150742000Y-84095987D01*
X150744986Y-84121731D01*
X150744989Y-84121742D01*
X150791496Y-84227073D01*
X150791498Y-84227076D01*
X150872924Y-84308502D01*
X150872926Y-84308503D01*
X150978257Y-84355010D01*
X150978268Y-84355013D01*
X151004013Y-84358000D01*
X151646000Y-84358000D01*
X151646000Y-83633674D01*
X151757685Y-83684680D01*
X151864237Y-83700000D01*
X151935763Y-83700000D01*
X152042315Y-83684680D01*
X152154000Y-83633674D01*
X152154000Y-84358000D01*
X152795987Y-84358000D01*
X152821731Y-84355013D01*
X152821742Y-84355010D01*
X152927073Y-84308503D01*
X152927076Y-84308502D01*
X153008502Y-84227076D01*
X153008503Y-84227073D01*
X153055010Y-84121742D01*
X153055013Y-84121731D01*
X153058000Y-84095987D01*
X153058000Y-83454000D01*
X152331116Y-83454000D01*
X152359493Y-83409844D01*
X152400000Y-83271889D01*
X152400000Y-83128111D01*
X152359493Y-82990156D01*
X152331116Y-82946000D01*
X153058000Y-82946000D01*
X153058000Y-82304012D01*
X153055013Y-82278268D01*
X153055010Y-82278257D01*
X153008503Y-82172926D01*
X153008502Y-82172924D01*
X152927076Y-82091498D01*
X152927073Y-82091496D01*
X152821742Y-82044989D01*
X152821731Y-82044986D01*
X152795987Y-82042000D01*
X152154000Y-82042000D01*
X152154000Y-82766325D01*
X152042315Y-82715320D01*
X151935763Y-82700000D01*
X151864237Y-82700000D01*
X151757685Y-82715320D01*
X151646000Y-82766325D01*
X151646000Y-82042000D01*
X151640756Y-82036756D01*
X151580238Y-82021840D01*
X151517184Y-81965979D01*
X151487312Y-81887214D01*
X151497466Y-81803590D01*
X151537577Y-81741550D01*
X152556579Y-80722549D01*
X152628670Y-80678969D01*
X152681030Y-80671000D01*
X153246059Y-80671000D01*
X153246064Y-80671000D01*
X153271855Y-80668008D01*
X153377365Y-80621421D01*
X153399049Y-80599737D01*
X153471139Y-80556157D01*
X153555225Y-80551071D01*
X153632043Y-80585644D01*
G37*
%TD.AperFunction*%
%TA.AperFunction,Conductor*%
G36*
X139748261Y-76141160D02*
G01*
X139790921Y-76172549D01*
X140871921Y-77253549D01*
X140915501Y-77325639D01*
X140920587Y-77409725D01*
X140886014Y-77486543D01*
X140819703Y-77538494D01*
X140747470Y-77554000D01*
X140153936Y-77554000D01*
X140132443Y-77556493D01*
X140128144Y-77556992D01*
X140022634Y-77603579D01*
X139941079Y-77685134D01*
X139894492Y-77790644D01*
X139891500Y-77816440D01*
X139891500Y-79678970D01*
X139871340Y-79760761D01*
X139839951Y-79803421D01*
X139808451Y-79834921D01*
X139736361Y-79878501D01*
X139652275Y-79883587D01*
X139575457Y-79849014D01*
X139523506Y-79782703D01*
X139508000Y-79710470D01*
X139508000Y-79366500D01*
X137892000Y-79366500D01*
X137892000Y-80408487D01*
X137894986Y-80434231D01*
X137894989Y-80434242D01*
X137941496Y-80539573D01*
X137941498Y-80539576D01*
X137985480Y-80583558D01*
X138029060Y-80655648D01*
X138034146Y-80739734D01*
X137999573Y-80816552D01*
X137944603Y-80859865D01*
X137945345Y-80861019D01*
X137934757Y-80867823D01*
X137897969Y-80899699D01*
X137888204Y-80907569D01*
X137878644Y-80914726D01*
X137878639Y-80914730D01*
X137870200Y-80923169D01*
X137861018Y-80931718D01*
X137824247Y-80963581D01*
X137823312Y-80964660D01*
X137800903Y-80992467D01*
X137203419Y-81589951D01*
X137131329Y-81633531D01*
X137078968Y-81641500D01*
X135517000Y-81641500D01*
X135517000Y-81680215D01*
X135527526Y-81767866D01*
X135527527Y-81767872D01*
X135582535Y-81907365D01*
X135582536Y-81907367D01*
X135673147Y-82026852D01*
X135792631Y-82117462D01*
X135839644Y-82136001D01*
X135908338Y-82184760D01*
X135946504Y-82259857D01*
X135945399Y-82344089D01*
X135905276Y-82418159D01*
X135839650Y-82463458D01*
X135792384Y-82482098D01*
X135672793Y-82572787D01*
X135672787Y-82572793D01*
X135582100Y-82692381D01*
X135527037Y-82832009D01*
X135527036Y-82832014D01*
X135516500Y-82919748D01*
X135516500Y-83505251D01*
X135527036Y-83592985D01*
X135527037Y-83592990D01*
X135548837Y-83648271D01*
X135582099Y-83732616D01*
X135602224Y-83759155D01*
X135635582Y-83836507D01*
X135629171Y-83920502D01*
X135584460Y-83991897D01*
X135511692Y-84034335D01*
X135461986Y-84041500D01*
X134334500Y-84041500D01*
X134252709Y-84021340D01*
X134189655Y-83965479D01*
X134159783Y-83886714D01*
X134158500Y-83865500D01*
X134158500Y-80697000D01*
X134178660Y-80615209D01*
X134234521Y-80552155D01*
X134313286Y-80522283D01*
X134334500Y-80521000D01*
X135345402Y-80521000D01*
X135345406Y-80521000D01*
X135446522Y-80509606D01*
X135466228Y-80508500D01*
X135500529Y-80508500D01*
X135582320Y-80528660D01*
X135645374Y-80584521D01*
X135675246Y-80663286D01*
X135665092Y-80746910D01*
X135640766Y-80790847D01*
X135582536Y-80867632D01*
X135582535Y-80867634D01*
X135527527Y-81007127D01*
X135527526Y-81007133D01*
X135517000Y-81094784D01*
X135517000Y-81133500D01*
X136046000Y-81133500D01*
X136046000Y-80592000D01*
X136554000Y-80592000D01*
X136554000Y-81133500D01*
X137083000Y-81133500D01*
X137083000Y-81094785D01*
X137082999Y-81094784D01*
X137072473Y-81007133D01*
X137072472Y-81007127D01*
X137017464Y-80867634D01*
X137017463Y-80867632D01*
X136926852Y-80748147D01*
X136807367Y-80657536D01*
X136807365Y-80657535D01*
X136667872Y-80602527D01*
X136667866Y-80602526D01*
X136580215Y-80592000D01*
X136554000Y-80592000D01*
X136046000Y-80592000D01*
X136028428Y-80574428D01*
X136017927Y-80571840D01*
X135954873Y-80515979D01*
X135925001Y-80437214D01*
X135935155Y-80353590D01*
X135959481Y-80309654D01*
X136017901Y-80232616D01*
X136072963Y-80092989D01*
X136083499Y-80005250D01*
X136083500Y-80005249D01*
X136083500Y-79951221D01*
X136091638Y-79903325D01*
X136091018Y-79903184D01*
X136093217Y-79893545D01*
X136113616Y-79712504D01*
X136113616Y-79712495D01*
X136093218Y-79531460D01*
X136093217Y-79531458D01*
X136093217Y-79531453D01*
X136093215Y-79531448D01*
X136091018Y-79521820D01*
X136091638Y-79521678D01*
X136083500Y-79473780D01*
X136083500Y-79419751D01*
X136083499Y-79419748D01*
X136072963Y-79332011D01*
X136017901Y-79192384D01*
X136011922Y-79184500D01*
X135927212Y-79072793D01*
X135927210Y-79072790D01*
X135862475Y-79023700D01*
X135807618Y-78982100D01*
X135807616Y-78982099D01*
X135761030Y-78963728D01*
X135692339Y-78914969D01*
X135654175Y-78839871D01*
X135655281Y-78755639D01*
X135695406Y-78681570D01*
X135761030Y-78636272D01*
X135807616Y-78617901D01*
X135927210Y-78527210D01*
X136017901Y-78407616D01*
X136072963Y-78267989D01*
X136083499Y-78180250D01*
X136083500Y-78180249D01*
X136083500Y-77594751D01*
X136083499Y-77594750D01*
X136082040Y-77582603D01*
X136074281Y-77517986D01*
X136084544Y-77434374D01*
X136132488Y-77365109D01*
X136207129Y-77326059D01*
X136249025Y-77321000D01*
X137881020Y-77321000D01*
X137962811Y-77341160D01*
X138025865Y-77397021D01*
X138055737Y-77475786D01*
X138045583Y-77559410D01*
X138005471Y-77621451D01*
X137941496Y-77685426D01*
X137894989Y-77790757D01*
X137894986Y-77790768D01*
X137892000Y-77816512D01*
X137892000Y-78858500D01*
X138446000Y-78858500D01*
X138446000Y-77554500D01*
X138954000Y-77554500D01*
X138954000Y-78858500D01*
X139508000Y-78858500D01*
X139508000Y-77816512D01*
X139505013Y-77790768D01*
X139505010Y-77790757D01*
X139458503Y-77685426D01*
X139458502Y-77685424D01*
X139377076Y-77603998D01*
X139377073Y-77603996D01*
X139271742Y-77557489D01*
X139271731Y-77557486D01*
X139245987Y-77554500D01*
X138954000Y-77554500D01*
X138446000Y-77554500D01*
X138419188Y-77554500D01*
X138337397Y-77534340D01*
X138274343Y-77478479D01*
X138244471Y-77399714D01*
X138254625Y-77316090D01*
X138294737Y-77254049D01*
X138300999Y-77247787D01*
X138358921Y-77189865D01*
X138405508Y-77084355D01*
X138408500Y-77058564D01*
X138408500Y-76297000D01*
X138428660Y-76215209D01*
X138484521Y-76152155D01*
X138563286Y-76122283D01*
X138584500Y-76121000D01*
X139666470Y-76121000D01*
X139748261Y-76141160D01*
G37*
%TD.AperFunction*%
%TD*%
M02*
