%TF.GenerationSoftware,KiCad,Pcbnew,7.0.10*%
%TF.CreationDate,2024-01-07T15:48:42-05:00*%
%TF.ProjectId,ESP8266_Count,45535038-3236-4365-9f43-6f756e742e6b,v1*%
%TF.SameCoordinates,Original*%
%TF.FileFunction,Paste,Top*%
%TF.FilePolarity,Positive*%
%FSLAX46Y46*%
G04 Gerber Fmt 4.6, Leading zero omitted, Abs format (unit mm)*
G04 Created by KiCad (PCBNEW 7.0.10) date 2024-01-07 15:48:42*
%MOMM*%
%LPD*%
G01*
G04 APERTURE LIST*
G04 Aperture macros list*
%AMRoundRect*
0 Rectangle with rounded corners*
0 $1 Rounding radius*
0 $2 $3 $4 $5 $6 $7 $8 $9 X,Y pos of 4 corners*
0 Add a 4 corners polygon primitive as box body*
4,1,4,$2,$3,$4,$5,$6,$7,$8,$9,$2,$3,0*
0 Add four circle primitives for the rounded corners*
1,1,$1+$1,$2,$3*
1,1,$1+$1,$4,$5*
1,1,$1+$1,$6,$7*
1,1,$1+$1,$8,$9*
0 Add four rect primitives between the rounded corners*
20,1,$1+$1,$2,$3,$4,$5,0*
20,1,$1+$1,$4,$5,$6,$7,0*
20,1,$1+$1,$6,$7,$8,$9,0*
20,1,$1+$1,$8,$9,$2,$3,0*%
G04 Aperture macros list end*
%ADD10RoundRect,0.237500X-0.237500X0.250000X-0.237500X-0.250000X0.237500X-0.250000X0.237500X0.250000X0*%
%ADD11RoundRect,0.237500X0.237500X-0.300000X0.237500X0.300000X-0.237500X0.300000X-0.237500X-0.300000X0*%
%ADD12R,1.000000X2.500000*%
%ADD13R,1.800000X1.000000*%
%ADD14RoundRect,0.237500X-0.300000X-0.237500X0.300000X-0.237500X0.300000X0.237500X-0.300000X0.237500X0*%
%ADD15R,0.510000X0.700000*%
%ADD16RoundRect,0.237500X0.237500X-0.250000X0.237500X0.250000X-0.237500X0.250000X-0.237500X-0.250000X0*%
%ADD17R,1.300000X1.550000*%
%ADD18RoundRect,0.250000X-0.650000X0.412500X-0.650000X-0.412500X0.650000X-0.412500X0.650000X0.412500X0*%
%ADD19R,2.000000X1.500000*%
%ADD20R,2.000000X3.800000*%
G04 APERTURE END LIST*
D10*
%TO.C,R6*%
X135250000Y-72187500D03*
X135250000Y-74012500D03*
%TD*%
D11*
%TO.C,C4*%
X135250000Y-62050000D03*
X135250000Y-63775000D03*
%TD*%
D12*
%TO.C,U3*%
X152700000Y-63912500D03*
X150700000Y-63912500D03*
X148700000Y-63912500D03*
X146700000Y-63912500D03*
X144700000Y-63912500D03*
X142700000Y-63912500D03*
X140700000Y-63912500D03*
X138700000Y-63912500D03*
D13*
X137200000Y-66512500D03*
X137200000Y-68512500D03*
X137200000Y-70512500D03*
X137200000Y-72512500D03*
X137200000Y-74512500D03*
X137200000Y-76512500D03*
D12*
X138700000Y-79112500D03*
X140700000Y-79112500D03*
X142700000Y-79112500D03*
X144700000Y-79112500D03*
X146700000Y-79112500D03*
X148700000Y-79112500D03*
X150700000Y-79112500D03*
X152700000Y-79112500D03*
%TD*%
D14*
%TO.C,C5*%
X123037500Y-64100000D03*
X124762500Y-64100000D03*
%TD*%
D15*
%TO.C,U4*%
X123950000Y-60340000D03*
X123000000Y-60340000D03*
X122050000Y-60340000D03*
X122050000Y-62660000D03*
X123950000Y-62660000D03*
%TD*%
D16*
%TO.C,R5*%
X135300000Y-79712500D03*
X135300000Y-77887500D03*
%TD*%
D10*
%TO.C,R3*%
X135250000Y-68787500D03*
X135250000Y-70612500D03*
%TD*%
D17*
%TO.C,SW1*%
X121850000Y-75775000D03*
X121850000Y-67825000D03*
X126350000Y-75775000D03*
X126350000Y-67825000D03*
%TD*%
D18*
%TO.C,C1*%
X131900000Y-79712500D03*
X131900000Y-82837500D03*
%TD*%
D19*
%TO.C,U1*%
X129050000Y-82800000D03*
X129050000Y-80500000D03*
D20*
X122750000Y-80500000D03*
D19*
X129050000Y-78200000D03*
%TD*%
D16*
%TO.C,R7*%
X121150000Y-65912500D03*
X121150000Y-64087500D03*
%TD*%
D10*
%TO.C,R2*%
X135250000Y-65387500D03*
X135250000Y-67212500D03*
%TD*%
D16*
%TO.C,R4*%
X136300000Y-83212500D03*
X136300000Y-81387500D03*
%TD*%
M02*
