%TF.GenerationSoftware,KiCad,Pcbnew,(5.1.7)-1*%
%TF.CreationDate,2020-11-07T09:28:26-05:00*%
%TF.ProjectId,Rec_Converter,5265635f-436f-46e7-9665-727465722e6b,v1*%
%TF.SameCoordinates,Original*%
%TF.FileFunction,Legend,Top*%
%TF.FilePolarity,Positive*%
%FSLAX46Y46*%
G04 Gerber Fmt 4.6, Leading zero omitted, Abs format (unit mm)*
G04 Created by KiCad (PCBNEW (5.1.7)-1) date 2020-11-07 09:28:26*
%MOMM*%
%LPD*%
G01*
G04 APERTURE LIST*
%ADD10C,0.150000*%
%ADD11C,0.300000*%
%ADD12C,0.120000*%
G04 APERTURE END LIST*
D10*
X145238095Y-123127380D02*
X144904761Y-122651190D01*
X144666666Y-123127380D02*
X144666666Y-122127380D01*
X145047619Y-122127380D01*
X145142857Y-122175000D01*
X145190476Y-122222619D01*
X145238095Y-122317857D01*
X145238095Y-122460714D01*
X145190476Y-122555952D01*
X145142857Y-122603571D01*
X145047619Y-122651190D01*
X144666666Y-122651190D01*
X146047619Y-123079761D02*
X145952380Y-123127380D01*
X145761904Y-123127380D01*
X145666666Y-123079761D01*
X145619047Y-122984523D01*
X145619047Y-122603571D01*
X145666666Y-122508333D01*
X145761904Y-122460714D01*
X145952380Y-122460714D01*
X146047619Y-122508333D01*
X146095238Y-122603571D01*
X146095238Y-122698809D01*
X145619047Y-122794047D01*
X146952380Y-123079761D02*
X146857142Y-123127380D01*
X146666666Y-123127380D01*
X146571428Y-123079761D01*
X146523809Y-123032142D01*
X146476190Y-122936904D01*
X146476190Y-122651190D01*
X146523809Y-122555952D01*
X146571428Y-122508333D01*
X146666666Y-122460714D01*
X146857142Y-122460714D01*
X146952380Y-122508333D01*
X147380952Y-123127380D02*
X147380952Y-122460714D01*
X147380952Y-122127380D02*
X147333333Y-122175000D01*
X147380952Y-122222619D01*
X147428571Y-122175000D01*
X147380952Y-122127380D01*
X147380952Y-122222619D01*
X148238095Y-123079761D02*
X148142857Y-123127380D01*
X147952380Y-123127380D01*
X147857142Y-123079761D01*
X147809523Y-122984523D01*
X147809523Y-122603571D01*
X147857142Y-122508333D01*
X147952380Y-122460714D01*
X148142857Y-122460714D01*
X148238095Y-122508333D01*
X148285714Y-122603571D01*
X148285714Y-122698809D01*
X147809523Y-122794047D01*
X148619047Y-122460714D02*
X148857142Y-123127380D01*
X149095238Y-122460714D01*
X149857142Y-123079761D02*
X149761904Y-123127380D01*
X149571428Y-123127380D01*
X149476190Y-123079761D01*
X149428571Y-122984523D01*
X149428571Y-122603571D01*
X149476190Y-122508333D01*
X149571428Y-122460714D01*
X149761904Y-122460714D01*
X149857142Y-122508333D01*
X149904761Y-122603571D01*
X149904761Y-122698809D01*
X149428571Y-122794047D01*
X150333333Y-123127380D02*
X150333333Y-122460714D01*
X150333333Y-122651190D02*
X150380952Y-122555952D01*
X150428571Y-122508333D01*
X150523809Y-122460714D01*
X150619047Y-122460714D01*
X152285714Y-123032142D02*
X152238095Y-123079761D01*
X152095238Y-123127380D01*
X152000000Y-123127380D01*
X151857142Y-123079761D01*
X151761904Y-122984523D01*
X151714285Y-122889285D01*
X151666666Y-122698809D01*
X151666666Y-122555952D01*
X151714285Y-122365476D01*
X151761904Y-122270238D01*
X151857142Y-122175000D01*
X152000000Y-122127380D01*
X152095238Y-122127380D01*
X152238095Y-122175000D01*
X152285714Y-122222619D01*
X152857142Y-123127380D02*
X152761904Y-123079761D01*
X152714285Y-123032142D01*
X152666666Y-122936904D01*
X152666666Y-122651190D01*
X152714285Y-122555952D01*
X152761904Y-122508333D01*
X152857142Y-122460714D01*
X153000000Y-122460714D01*
X153095238Y-122508333D01*
X153142857Y-122555952D01*
X153190476Y-122651190D01*
X153190476Y-122936904D01*
X153142857Y-123032142D01*
X153095238Y-123079761D01*
X153000000Y-123127380D01*
X152857142Y-123127380D01*
X153619047Y-122460714D02*
X153619047Y-123127380D01*
X153619047Y-122555952D02*
X153666666Y-122508333D01*
X153761904Y-122460714D01*
X153904761Y-122460714D01*
X154000000Y-122508333D01*
X154047619Y-122603571D01*
X154047619Y-123127380D01*
X154428571Y-122460714D02*
X154666666Y-123127380D01*
X154904761Y-122460714D01*
X155666666Y-123079761D02*
X155571428Y-123127380D01*
X155380952Y-123127380D01*
X155285714Y-123079761D01*
X155238095Y-122984523D01*
X155238095Y-122603571D01*
X155285714Y-122508333D01*
X155380952Y-122460714D01*
X155571428Y-122460714D01*
X155666666Y-122508333D01*
X155714285Y-122603571D01*
X155714285Y-122698809D01*
X155238095Y-122794047D01*
X156142857Y-123127380D02*
X156142857Y-122460714D01*
X156142857Y-122651190D02*
X156190476Y-122555952D01*
X156238095Y-122508333D01*
X156333333Y-122460714D01*
X156428571Y-122460714D01*
X156619047Y-122460714D02*
X157000000Y-122460714D01*
X156761904Y-122127380D02*
X156761904Y-122984523D01*
X156809523Y-123079761D01*
X156904761Y-123127380D01*
X157000000Y-123127380D01*
X158000000Y-122460714D02*
X158238095Y-123127380D01*
X158476190Y-122460714D01*
X159380952Y-123127380D02*
X158809523Y-123127380D01*
X159095238Y-123127380D02*
X159095238Y-122127380D01*
X159000000Y-122270238D01*
X158904761Y-122365476D01*
X158809523Y-122413095D01*
X145666666Y-124777380D02*
X145666666Y-123777380D01*
X145666666Y-124158333D02*
X145761904Y-124110714D01*
X145952380Y-124110714D01*
X146047619Y-124158333D01*
X146095238Y-124205952D01*
X146142857Y-124301190D01*
X146142857Y-124586904D01*
X146095238Y-124682142D01*
X146047619Y-124729761D01*
X145952380Y-124777380D01*
X145761904Y-124777380D01*
X145666666Y-124729761D01*
X146571428Y-124777380D02*
X146571428Y-124110714D01*
X146571428Y-124301190D02*
X146619047Y-124205952D01*
X146666666Y-124158333D01*
X146761904Y-124110714D01*
X146857142Y-124110714D01*
X147095238Y-124110714D02*
X147333333Y-124777380D01*
X147571428Y-124110714D02*
X147333333Y-124777380D01*
X147238095Y-125015476D01*
X147190476Y-125063095D01*
X147095238Y-125110714D01*
X148666666Y-124729761D02*
X148809523Y-124777380D01*
X149047619Y-124777380D01*
X149142857Y-124729761D01*
X149190476Y-124682142D01*
X149238095Y-124586904D01*
X149238095Y-124491666D01*
X149190476Y-124396428D01*
X149142857Y-124348809D01*
X149047619Y-124301190D01*
X148857142Y-124253571D01*
X148761904Y-124205952D01*
X148714285Y-124158333D01*
X148666666Y-124063095D01*
X148666666Y-123967857D01*
X148714285Y-123872619D01*
X148761904Y-123825000D01*
X148857142Y-123777380D01*
X149095238Y-123777380D01*
X149238095Y-123825000D01*
X150095238Y-124729761D02*
X150000000Y-124777380D01*
X149809523Y-124777380D01*
X149714285Y-124729761D01*
X149666666Y-124682142D01*
X149619047Y-124586904D01*
X149619047Y-124301190D01*
X149666666Y-124205952D01*
X149714285Y-124158333D01*
X149809523Y-124110714D01*
X150000000Y-124110714D01*
X150095238Y-124158333D01*
X150666666Y-124777380D02*
X150571428Y-124729761D01*
X150523809Y-124682142D01*
X150476190Y-124586904D01*
X150476190Y-124301190D01*
X150523809Y-124205952D01*
X150571428Y-124158333D01*
X150666666Y-124110714D01*
X150809523Y-124110714D01*
X150904761Y-124158333D01*
X150952380Y-124205952D01*
X151000000Y-124301190D01*
X151000000Y-124586904D01*
X150952380Y-124682142D01*
X150904761Y-124729761D01*
X150809523Y-124777380D01*
X150666666Y-124777380D01*
X151285714Y-124110714D02*
X151666666Y-124110714D01*
X151428571Y-123777380D02*
X151428571Y-124634523D01*
X151476190Y-124729761D01*
X151571428Y-124777380D01*
X151666666Y-124777380D01*
X151857142Y-124110714D02*
X152238095Y-124110714D01*
X152000000Y-123777380D02*
X152000000Y-124634523D01*
X152047619Y-124729761D01*
X152142857Y-124777380D01*
X152238095Y-124777380D01*
X153333333Y-124777380D02*
X153333333Y-123777380D01*
X153333333Y-124253571D02*
X153904761Y-124253571D01*
X153904761Y-124777380D02*
X153904761Y-123777380D01*
X154809523Y-124777380D02*
X154809523Y-124253571D01*
X154761904Y-124158333D01*
X154666666Y-124110714D01*
X154476190Y-124110714D01*
X154380952Y-124158333D01*
X154809523Y-124729761D02*
X154714285Y-124777380D01*
X154476190Y-124777380D01*
X154380952Y-124729761D01*
X154333333Y-124634523D01*
X154333333Y-124539285D01*
X154380952Y-124444047D01*
X154476190Y-124396428D01*
X154714285Y-124396428D01*
X154809523Y-124348809D01*
X155285714Y-124110714D02*
X155285714Y-124777380D01*
X155285714Y-124205952D02*
X155333333Y-124158333D01*
X155428571Y-124110714D01*
X155571428Y-124110714D01*
X155666666Y-124158333D01*
X155714285Y-124253571D01*
X155714285Y-124777380D01*
X156142857Y-124729761D02*
X156238095Y-124777380D01*
X156428571Y-124777380D01*
X156523809Y-124729761D01*
X156571428Y-124634523D01*
X156571428Y-124586904D01*
X156523809Y-124491666D01*
X156428571Y-124444047D01*
X156285714Y-124444047D01*
X156190476Y-124396428D01*
X156142857Y-124301190D01*
X156142857Y-124253571D01*
X156190476Y-124158333D01*
X156285714Y-124110714D01*
X156428571Y-124110714D01*
X156523809Y-124158333D01*
X157142857Y-124777380D02*
X157047619Y-124729761D01*
X157000000Y-124682142D01*
X156952380Y-124586904D01*
X156952380Y-124301190D01*
X157000000Y-124205952D01*
X157047619Y-124158333D01*
X157142857Y-124110714D01*
X157285714Y-124110714D01*
X157380952Y-124158333D01*
X157428571Y-124205952D01*
X157476190Y-124301190D01*
X157476190Y-124586904D01*
X157428571Y-124682142D01*
X157380952Y-124729761D01*
X157285714Y-124777380D01*
X157142857Y-124777380D01*
X157904761Y-124110714D02*
X157904761Y-124777380D01*
X157904761Y-124205952D02*
X157952380Y-124158333D01*
X158047619Y-124110714D01*
X158190476Y-124110714D01*
X158285714Y-124158333D01*
X158333333Y-124253571D01*
X158333333Y-124777380D01*
D11*
X138142857Y-119392857D02*
X137642857Y-119392857D01*
X137642857Y-120178571D02*
X137642857Y-118678571D01*
X138357142Y-118678571D01*
X139571428Y-120178571D02*
X139571428Y-119392857D01*
X139500000Y-119250000D01*
X139357142Y-119178571D01*
X139071428Y-119178571D01*
X138928571Y-119250000D01*
X139571428Y-120107142D02*
X139428571Y-120178571D01*
X139071428Y-120178571D01*
X138928571Y-120107142D01*
X138857142Y-119964285D01*
X138857142Y-119821428D01*
X138928571Y-119678571D01*
X139071428Y-119607142D01*
X139428571Y-119607142D01*
X139571428Y-119535714D01*
X140500000Y-120178571D02*
X140357142Y-120107142D01*
X140285714Y-119964285D01*
X140285714Y-118678571D01*
X141714285Y-120107142D02*
X141571428Y-120178571D01*
X141285714Y-120178571D01*
X141142857Y-120107142D01*
X141071428Y-120035714D01*
X141000000Y-119892857D01*
X141000000Y-119464285D01*
X141071428Y-119321428D01*
X141142857Y-119250000D01*
X141285714Y-119178571D01*
X141571428Y-119178571D01*
X141714285Y-119250000D01*
X142571428Y-120178571D02*
X142428571Y-120107142D01*
X142357142Y-120035714D01*
X142285714Y-119892857D01*
X142285714Y-119464285D01*
X142357142Y-119321428D01*
X142428571Y-119250000D01*
X142571428Y-119178571D01*
X142785714Y-119178571D01*
X142928571Y-119250000D01*
X143000000Y-119321428D01*
X143071428Y-119464285D01*
X143071428Y-119892857D01*
X143000000Y-120035714D01*
X142928571Y-120107142D01*
X142785714Y-120178571D01*
X142571428Y-120178571D01*
X143714285Y-119178571D02*
X143714285Y-120178571D01*
X143714285Y-119321428D02*
X143785714Y-119250000D01*
X143928571Y-119178571D01*
X144142857Y-119178571D01*
X144285714Y-119250000D01*
X144357142Y-119392857D01*
X144357142Y-120178571D01*
X138142857Y-100892857D02*
X137642857Y-100892857D01*
X137642857Y-101678571D02*
X137642857Y-100178571D01*
X138357142Y-100178571D01*
X139571428Y-101678571D02*
X139571428Y-100892857D01*
X139500000Y-100750000D01*
X139357142Y-100678571D01*
X139071428Y-100678571D01*
X138928571Y-100750000D01*
X139571428Y-101607142D02*
X139428571Y-101678571D01*
X139071428Y-101678571D01*
X138928571Y-101607142D01*
X138857142Y-101464285D01*
X138857142Y-101321428D01*
X138928571Y-101178571D01*
X139071428Y-101107142D01*
X139428571Y-101107142D01*
X139571428Y-101035714D01*
X140500000Y-101678571D02*
X140357142Y-101607142D01*
X140285714Y-101464285D01*
X140285714Y-100178571D01*
X141714285Y-101607142D02*
X141571428Y-101678571D01*
X141285714Y-101678571D01*
X141142857Y-101607142D01*
X141071428Y-101535714D01*
X141000000Y-101392857D01*
X141000000Y-100964285D01*
X141071428Y-100821428D01*
X141142857Y-100750000D01*
X141285714Y-100678571D01*
X141571428Y-100678571D01*
X141714285Y-100750000D01*
X142571428Y-101678571D02*
X142428571Y-101607142D01*
X142357142Y-101535714D01*
X142285714Y-101392857D01*
X142285714Y-100964285D01*
X142357142Y-100821428D01*
X142428571Y-100750000D01*
X142571428Y-100678571D01*
X142785714Y-100678571D01*
X142928571Y-100750000D01*
X143000000Y-100821428D01*
X143071428Y-100964285D01*
X143071428Y-101392857D01*
X143000000Y-101535714D01*
X142928571Y-101607142D01*
X142785714Y-101678571D01*
X142571428Y-101678571D01*
X143714285Y-100678571D02*
X143714285Y-101678571D01*
X143714285Y-100821428D02*
X143785714Y-100750000D01*
X143928571Y-100678571D01*
X144142857Y-100678571D01*
X144285714Y-100750000D01*
X144357142Y-100892857D01*
X144357142Y-101678571D01*
X154942857Y-101578571D02*
X154942857Y-100078571D01*
X154942857Y-100792857D02*
X155800000Y-100792857D01*
X155800000Y-101578571D02*
X155800000Y-100078571D01*
X156728571Y-101578571D02*
X156585714Y-101507142D01*
X156514285Y-101435714D01*
X156442857Y-101292857D01*
X156442857Y-100864285D01*
X156514285Y-100721428D01*
X156585714Y-100650000D01*
X156728571Y-100578571D01*
X156942857Y-100578571D01*
X157085714Y-100650000D01*
X157157142Y-100721428D01*
X157228571Y-100864285D01*
X157228571Y-101292857D01*
X157157142Y-101435714D01*
X157085714Y-101507142D01*
X156942857Y-101578571D01*
X156728571Y-101578571D01*
X158085714Y-101578571D02*
X157942857Y-101507142D01*
X157871428Y-101364285D01*
X157871428Y-100078571D01*
X158657142Y-101578571D02*
X158657142Y-100578571D01*
X158657142Y-100078571D02*
X158585714Y-100150000D01*
X158657142Y-100221428D01*
X158728571Y-100150000D01*
X158657142Y-100078571D01*
X158657142Y-100221428D01*
X160014285Y-101578571D02*
X160014285Y-100078571D01*
X160014285Y-101507142D02*
X159871428Y-101578571D01*
X159585714Y-101578571D01*
X159442857Y-101507142D01*
X159371428Y-101435714D01*
X159300000Y-101292857D01*
X159300000Y-100864285D01*
X159371428Y-100721428D01*
X159442857Y-100650000D01*
X159585714Y-100578571D01*
X159871428Y-100578571D01*
X160014285Y-100650000D01*
X161371428Y-101578571D02*
X161371428Y-100792857D01*
X161300000Y-100650000D01*
X161157142Y-100578571D01*
X160871428Y-100578571D01*
X160728571Y-100650000D01*
X161371428Y-101507142D02*
X161228571Y-101578571D01*
X160871428Y-101578571D01*
X160728571Y-101507142D01*
X160657142Y-101364285D01*
X160657142Y-101221428D01*
X160728571Y-101078571D01*
X160871428Y-101007142D01*
X161228571Y-101007142D01*
X161371428Y-100935714D01*
X161942857Y-100578571D02*
X162300000Y-101578571D01*
X162657142Y-100578571D02*
X162300000Y-101578571D01*
X162157142Y-101935714D01*
X162085714Y-102007142D01*
X161942857Y-102078571D01*
X164085714Y-101435714D02*
X164014285Y-101507142D01*
X163800000Y-101578571D01*
X163657142Y-101578571D01*
X163442857Y-101507142D01*
X163300000Y-101364285D01*
X163228571Y-101221428D01*
X163157142Y-100935714D01*
X163157142Y-100721428D01*
X163228571Y-100435714D01*
X163300000Y-100292857D01*
X163442857Y-100150000D01*
X163657142Y-100078571D01*
X163800000Y-100078571D01*
X164014285Y-100150000D01*
X164085714Y-100221428D01*
X164942857Y-101578571D02*
X164800000Y-101507142D01*
X164728571Y-101435714D01*
X164657142Y-101292857D01*
X164657142Y-100864285D01*
X164728571Y-100721428D01*
X164800000Y-100650000D01*
X164942857Y-100578571D01*
X165157142Y-100578571D01*
X165300000Y-100650000D01*
X165371428Y-100721428D01*
X165442857Y-100864285D01*
X165442857Y-101292857D01*
X165371428Y-101435714D01*
X165300000Y-101507142D01*
X165157142Y-101578571D01*
X164942857Y-101578571D01*
X166085714Y-101578571D02*
X166085714Y-100578571D01*
X166085714Y-100864285D02*
X166157142Y-100721428D01*
X166228571Y-100650000D01*
X166371428Y-100578571D01*
X166514285Y-100578571D01*
X167228571Y-101578571D02*
X167085714Y-101507142D01*
X167014285Y-101435714D01*
X166942857Y-101292857D01*
X166942857Y-100864285D01*
X167014285Y-100721428D01*
X167085714Y-100650000D01*
X167228571Y-100578571D01*
X167442857Y-100578571D01*
X167585714Y-100650000D01*
X167657142Y-100721428D01*
X167728571Y-100864285D01*
X167728571Y-101292857D01*
X167657142Y-101435714D01*
X167585714Y-101507142D01*
X167442857Y-101578571D01*
X167228571Y-101578571D01*
X155142857Y-120178571D02*
X155142857Y-118678571D01*
X155142857Y-119392857D02*
X156000000Y-119392857D01*
X156000000Y-120178571D02*
X156000000Y-118678571D01*
X156928571Y-120178571D02*
X156785714Y-120107142D01*
X156714285Y-120035714D01*
X156642857Y-119892857D01*
X156642857Y-119464285D01*
X156714285Y-119321428D01*
X156785714Y-119250000D01*
X156928571Y-119178571D01*
X157142857Y-119178571D01*
X157285714Y-119250000D01*
X157357142Y-119321428D01*
X157428571Y-119464285D01*
X157428571Y-119892857D01*
X157357142Y-120035714D01*
X157285714Y-120107142D01*
X157142857Y-120178571D01*
X156928571Y-120178571D01*
X158285714Y-120178571D02*
X158142857Y-120107142D01*
X158071428Y-119964285D01*
X158071428Y-118678571D01*
X158857142Y-120178571D02*
X158857142Y-119178571D01*
X158857142Y-118678571D02*
X158785714Y-118750000D01*
X158857142Y-118821428D01*
X158928571Y-118750000D01*
X158857142Y-118678571D01*
X158857142Y-118821428D01*
X160214285Y-120178571D02*
X160214285Y-118678571D01*
X160214285Y-120107142D02*
X160071428Y-120178571D01*
X159785714Y-120178571D01*
X159642857Y-120107142D01*
X159571428Y-120035714D01*
X159500000Y-119892857D01*
X159500000Y-119464285D01*
X159571428Y-119321428D01*
X159642857Y-119250000D01*
X159785714Y-119178571D01*
X160071428Y-119178571D01*
X160214285Y-119250000D01*
X161571428Y-120178571D02*
X161571428Y-119392857D01*
X161500000Y-119250000D01*
X161357142Y-119178571D01*
X161071428Y-119178571D01*
X160928571Y-119250000D01*
X161571428Y-120107142D02*
X161428571Y-120178571D01*
X161071428Y-120178571D01*
X160928571Y-120107142D01*
X160857142Y-119964285D01*
X160857142Y-119821428D01*
X160928571Y-119678571D01*
X161071428Y-119607142D01*
X161428571Y-119607142D01*
X161571428Y-119535714D01*
X162142857Y-119178571D02*
X162500000Y-120178571D01*
X162857142Y-119178571D02*
X162500000Y-120178571D01*
X162357142Y-120535714D01*
X162285714Y-120607142D01*
X162142857Y-120678571D01*
X164285714Y-120035714D02*
X164214285Y-120107142D01*
X164000000Y-120178571D01*
X163857142Y-120178571D01*
X163642857Y-120107142D01*
X163500000Y-119964285D01*
X163428571Y-119821428D01*
X163357142Y-119535714D01*
X163357142Y-119321428D01*
X163428571Y-119035714D01*
X163500000Y-118892857D01*
X163642857Y-118750000D01*
X163857142Y-118678571D01*
X164000000Y-118678571D01*
X164214285Y-118750000D01*
X164285714Y-118821428D01*
X165142857Y-120178571D02*
X165000000Y-120107142D01*
X164928571Y-120035714D01*
X164857142Y-119892857D01*
X164857142Y-119464285D01*
X164928571Y-119321428D01*
X165000000Y-119250000D01*
X165142857Y-119178571D01*
X165357142Y-119178571D01*
X165500000Y-119250000D01*
X165571428Y-119321428D01*
X165642857Y-119464285D01*
X165642857Y-119892857D01*
X165571428Y-120035714D01*
X165500000Y-120107142D01*
X165357142Y-120178571D01*
X165142857Y-120178571D01*
X166285714Y-120178571D02*
X166285714Y-119178571D01*
X166285714Y-119464285D02*
X166357142Y-119321428D01*
X166428571Y-119250000D01*
X166571428Y-119178571D01*
X166714285Y-119178571D01*
X167428571Y-120178571D02*
X167285714Y-120107142D01*
X167214285Y-120035714D01*
X167142857Y-119892857D01*
X167142857Y-119464285D01*
X167214285Y-119321428D01*
X167285714Y-119250000D01*
X167428571Y-119178571D01*
X167642857Y-119178571D01*
X167785714Y-119250000D01*
X167857142Y-119321428D01*
X167928571Y-119464285D01*
X167928571Y-119892857D01*
X167857142Y-120035714D01*
X167785714Y-120107142D01*
X167642857Y-120178571D01*
X167428571Y-120178571D01*
D12*
%TO.C,J1*%
X133420000Y-102435000D02*
X133420000Y-117955000D01*
X151380000Y-117955000D02*
X133420000Y-117955000D01*
X151380000Y-117955000D02*
X151380000Y-102435000D01*
X151380000Y-102435000D02*
X133420000Y-102435000D01*
%TO.C,J2*%
X170280000Y-117955000D02*
X170280000Y-102435000D01*
X152320000Y-102435000D02*
X170280000Y-102435000D01*
X152320000Y-102435000D02*
X152320000Y-117955000D01*
X152320000Y-117955000D02*
X170280000Y-117955000D01*
%TO.C,J1*%
D10*
X135066666Y-118452380D02*
X135066666Y-119166666D01*
X135019047Y-119309523D01*
X134923809Y-119404761D01*
X134780952Y-119452380D01*
X134685714Y-119452380D01*
X136066666Y-119452380D02*
X135495238Y-119452380D01*
X135780952Y-119452380D02*
X135780952Y-118452380D01*
X135685714Y-118595238D01*
X135590476Y-118690476D01*
X135495238Y-118738095D01*
%TO.C,J2*%
X169166666Y-118252380D02*
X169166666Y-118966666D01*
X169119047Y-119109523D01*
X169023809Y-119204761D01*
X168880952Y-119252380D01*
X168785714Y-119252380D01*
X169595238Y-118347619D02*
X169642857Y-118300000D01*
X169738095Y-118252380D01*
X169976190Y-118252380D01*
X170071428Y-118300000D01*
X170119047Y-118347619D01*
X170166666Y-118442857D01*
X170166666Y-118538095D01*
X170119047Y-118680952D01*
X169547619Y-119252380D01*
X170166666Y-119252380D01*
%TD*%
M02*
