%TF.GenerationSoftware,KiCad,Pcbnew,(5.1.7)-1*%
%TF.CreationDate,2020-11-07T09:06:04-05:00*%
%TF.ProjectId,Rec_Converter,5265635f-436f-46e7-9665-727465722e6b,v1*%
%TF.SameCoordinates,Original*%
%TF.FileFunction,Copper,L2,Bot*%
%TF.FilePolarity,Positive*%
%FSLAX46Y46*%
G04 Gerber Fmt 4.6, Leading zero omitted, Abs format (unit mm)*
G04 Created by KiCad (PCBNEW (5.1.7)-1) date 2020-11-07 09:06:04*
%MOMM*%
%LPD*%
G01*
G04 APERTURE LIST*
%TA.AperFunction,ComponentPad*%
%ADD10C,1.500000*%
%TD*%
%TA.AperFunction,ComponentPad*%
%ADD11R,1.500000X1.500000*%
%TD*%
%TA.AperFunction,WasherPad*%
%ADD12C,3.300000*%
%TD*%
%TA.AperFunction,ViaPad*%
%ADD13C,0.800000*%
%TD*%
%TA.AperFunction,Conductor*%
%ADD14C,0.350000*%
%TD*%
G04 APERTURE END LIST*
D10*
%TO.P,J1,8*%
%TO.N,Net-(J1-Pad8)*%
X150040000Y-114640000D03*
%TO.P,J1,7*%
%TO.N,Net-(J1-Pad7)*%
X147500000Y-113370000D03*
%TO.P,J1,6*%
%TO.N,Net-(J1-Pad6)*%
X150040000Y-112100000D03*
%TO.P,J1,5*%
%TO.N,Net-(J1-Pad5)*%
X147500000Y-110830000D03*
%TO.P,J1,4*%
%TO.N,Net-(J1-Pad4)*%
X150040000Y-109560000D03*
%TO.P,J1,3*%
%TO.N,Net-(J1-Pad3)*%
X147500000Y-108290000D03*
%TO.P,J1,2*%
%TO.N,Net-(J1-Pad2)*%
X150040000Y-107020000D03*
D11*
%TO.P,J1,1*%
%TO.N,Net-(J1-Pad1)*%
X147500000Y-105750000D03*
%TD*%
D10*
%TO.P,J2,8*%
%TO.N,Net-(J1-Pad8)*%
X169040000Y-114640000D03*
%TO.P,J2,7*%
%TO.N,Net-(J1-Pad7)*%
X166500000Y-113370000D03*
%TO.P,J2,6*%
%TO.N,Net-(J1-Pad4)*%
X169040000Y-112100000D03*
%TO.P,J2,5*%
%TO.N,Net-(J1-Pad5)*%
X166500000Y-110830000D03*
%TO.P,J2,4*%
%TO.N,Net-(J1-Pad6)*%
X169040000Y-109560000D03*
%TO.P,J2,3*%
%TO.N,Net-(J1-Pad3)*%
X166500000Y-108290000D03*
%TO.P,J2,2*%
%TO.N,Net-(J1-Pad2)*%
X169040000Y-107020000D03*
D11*
%TO.P,J2,1*%
%TO.N,Net-(J1-Pad1)*%
X166500000Y-105750000D03*
D12*
%TO.P,J2,*%
%TO.N,*%
X160150000Y-115910000D03*
%TD*%
D13*
%TO.N,Net-(J1-Pad4)*%
X167500000Y-109500000D03*
%TD*%
D14*
%TO.N,Net-(J1-Pad8)*%
X165640000Y-114640000D02*
X169040000Y-114640000D01*
X164500000Y-113500000D02*
X165640000Y-114640000D01*
X151180000Y-113500000D02*
X164500000Y-113500000D01*
X150040000Y-114640000D02*
X151180000Y-113500000D01*
%TO.N,Net-(J1-Pad7)*%
X150952178Y-112949989D02*
X165019329Y-112949989D01*
X147500000Y-113370000D02*
X150532168Y-113370000D01*
X165439340Y-113370000D02*
X166500000Y-113370000D01*
X150532168Y-113370000D02*
X150952178Y-112949989D01*
X165019329Y-112949989D02*
X165439340Y-113370000D01*
%TO.N,Net-(J1-Pad6)*%
X169040000Y-109955002D02*
X169040000Y-109560000D01*
X166895002Y-112100000D02*
X169040000Y-109955002D01*
X150040000Y-112100000D02*
X166895002Y-112100000D01*
%TO.N,Net-(J1-Pad5)*%
X166500000Y-110830000D02*
X147500000Y-110830000D01*
%TO.N,Net-(J1-Pad4)*%
X167440000Y-109560000D02*
X167500000Y-109500000D01*
X150040000Y-109560000D02*
X167440000Y-109560000D01*
%TO.N,Net-(J1-Pad3)*%
X166500000Y-108290000D02*
X147500000Y-108290000D01*
%TO.N,Net-(J1-Pad2)*%
X169040000Y-107020000D02*
X166007833Y-107020000D01*
X165477822Y-107550011D02*
X150570011Y-107550011D01*
X166007833Y-107020000D02*
X165477822Y-107550011D01*
X150570011Y-107550011D02*
X150040000Y-107020000D01*
%TO.N,Net-(J1-Pad1)*%
X165250000Y-107000000D02*
X166500000Y-105750000D01*
X151998499Y-107000000D02*
X165250000Y-107000000D01*
X150748499Y-105750000D02*
X151998499Y-107000000D01*
X147500000Y-105750000D02*
X150748499Y-105750000D01*
%TD*%
M02*
