%TF.GenerationSoftware,KiCad,Pcbnew,8.0.3*%
%TF.CreationDate,2024-06-30T23:15:20-04:00*%
%TF.ProjectId,Kulp_EEPROM,4b756c70-5f45-4455-9052-4f4d2e6b6963,rev?*%
%TF.SameCoordinates,Original*%
%TF.FileFunction,Legend,Top*%
%TF.FilePolarity,Positive*%
%FSLAX46Y46*%
G04 Gerber Fmt 4.6, Leading zero omitted, Abs format (unit mm)*
G04 Created by KiCad (PCBNEW 8.0.3) date 2024-06-30 23:15:20*
%MOMM*%
%LPD*%
G01*
G04 APERTURE LIST*
%ADD10C,0.100000*%
%ADD11C,0.150000*%
%ADD12C,0.120000*%
%ADD13R,3.500000X1.700000*%
G04 APERTURE END LIST*
D10*
X136488728Y-116962782D02*
X136453014Y-117034211D01*
X136453014Y-117034211D02*
X136453014Y-117141353D01*
X136453014Y-117141353D02*
X136488728Y-117248496D01*
X136488728Y-117248496D02*
X136560157Y-117319925D01*
X136560157Y-117319925D02*
X136631585Y-117355639D01*
X136631585Y-117355639D02*
X136774442Y-117391353D01*
X136774442Y-117391353D02*
X136881585Y-117391353D01*
X136881585Y-117391353D02*
X137024442Y-117355639D01*
X137024442Y-117355639D02*
X137095871Y-117319925D01*
X137095871Y-117319925D02*
X137167300Y-117248496D01*
X137167300Y-117248496D02*
X137203014Y-117141353D01*
X137203014Y-117141353D02*
X137203014Y-117069925D01*
X137203014Y-117069925D02*
X137167300Y-116962782D01*
X137167300Y-116962782D02*
X137131585Y-116927068D01*
X137131585Y-116927068D02*
X136881585Y-116927068D01*
X136881585Y-116927068D02*
X136881585Y-117069925D01*
X137203014Y-116605639D02*
X136453014Y-116605639D01*
X136453014Y-116605639D02*
X137203014Y-116177068D01*
X137203014Y-116177068D02*
X136453014Y-116177068D01*
X137203014Y-115819925D02*
X136453014Y-115819925D01*
X136453014Y-115819925D02*
X136453014Y-115641354D01*
X136453014Y-115641354D02*
X136488728Y-115534211D01*
X136488728Y-115534211D02*
X136560157Y-115462782D01*
X136560157Y-115462782D02*
X136631585Y-115427068D01*
X136631585Y-115427068D02*
X136774442Y-115391354D01*
X136774442Y-115391354D02*
X136881585Y-115391354D01*
X136881585Y-115391354D02*
X137024442Y-115427068D01*
X137024442Y-115427068D02*
X137095871Y-115462782D01*
X137095871Y-115462782D02*
X137167300Y-115534211D01*
X137167300Y-115534211D02*
X137203014Y-115641354D01*
X137203014Y-115641354D02*
X137203014Y-115819925D01*
D11*
X135854819Y-111083333D02*
X136569104Y-111083333D01*
X136569104Y-111083333D02*
X136711961Y-111130952D01*
X136711961Y-111130952D02*
X136807200Y-111226190D01*
X136807200Y-111226190D02*
X136854819Y-111369047D01*
X136854819Y-111369047D02*
X136854819Y-111464285D01*
X136854819Y-110083333D02*
X136854819Y-110654761D01*
X136854819Y-110369047D02*
X135854819Y-110369047D01*
X135854819Y-110369047D02*
X135997676Y-110464285D01*
X135997676Y-110464285D02*
X136092914Y-110559523D01*
X136092914Y-110559523D02*
X136140533Y-110654761D01*
D12*
%TO.C,J1*%
X137299500Y-110085000D02*
X138569500Y-110085000D01*
X137299500Y-111355000D02*
X137299500Y-110085000D01*
X141261900Y-110975000D02*
X141497500Y-110975000D01*
X141261900Y-111735000D02*
X141497500Y-111735000D01*
X141261900Y-113515000D02*
X141497500Y-113515000D01*
X141261900Y-114276000D02*
X141497500Y-114275000D01*
X141261900Y-116055000D02*
X141497500Y-116055000D01*
X141261900Y-116815000D02*
X141497500Y-116815000D01*
X141497500Y-110025000D02*
X141497500Y-117765000D01*
X141497500Y-112625000D02*
X144157500Y-112625000D01*
X141497500Y-115165000D02*
X144157500Y-115165000D01*
X141497500Y-117765000D02*
X144157500Y-117765000D01*
X144157500Y-110025000D02*
X141497500Y-110025000D01*
X144157500Y-110975000D02*
X150157500Y-110975000D01*
X144157500Y-111035000D02*
X150157500Y-111035000D01*
X144157500Y-111155000D02*
X150157500Y-111155000D01*
X144157500Y-111275000D02*
X150157500Y-111275000D01*
X144157500Y-111395000D02*
X150157500Y-111395000D01*
X144157500Y-111515000D02*
X150157500Y-111515000D01*
X144157500Y-111635000D02*
X150157500Y-111635000D01*
X144157500Y-113515000D02*
X150157500Y-113515000D01*
X144157500Y-116055000D02*
X150157500Y-116055000D01*
X144157500Y-117765000D02*
X144157500Y-110025000D01*
X150157500Y-110975000D02*
X150157500Y-111735000D01*
X150157500Y-111735000D02*
X144157500Y-111735000D01*
X150157500Y-113515000D02*
X150157500Y-114275000D01*
X150157500Y-114275000D02*
X144157500Y-114275000D01*
X150157500Y-116055000D02*
X150157500Y-116815000D01*
X150157500Y-116815000D02*
X144157500Y-116815000D01*
%TD*%
%LPC*%
D13*
%TO.C,J1*%
X139447500Y-111355000D03*
X139447500Y-113910000D03*
X139447500Y-116435000D03*
%TD*%
%LPD*%
M02*
