%TF.GenerationSoftware,KiCad,Pcbnew,(5.1.6)-1*%
%TF.CreationDate,2020-09-18T21:57:09-04:00*%
%TF.ProjectId,PiHat,50694861-742e-46b6-9963-61645f706362,v1*%
%TF.SameCoordinates,Original*%
%TF.FileFunction,Soldermask,Top*%
%TF.FilePolarity,Negative*%
%FSLAX46Y46*%
G04 Gerber Fmt 4.6, Leading zero omitted, Abs format (unit mm)*
G04 Created by KiCad (PCBNEW (5.1.6)-1) date 2020-09-18 21:57:09*
%MOMM*%
%LPD*%
G01*
G04 APERTURE LIST*
%ADD10O,1.800000X1.800000*%
%ADD11R,1.800000X1.800000*%
%ADD12C,3.100000*%
%ADD13O,3.700000X1.900000*%
%ADD14C,2.575000*%
%ADD15O,1.700000X1.700000*%
%ADD16R,1.700000X1.700000*%
%ADD17R,1.900000X1.900000*%
%ADD18C,1.900000*%
%ADD19O,1.700000X2.500000*%
%ADD20R,1.700000X2.500000*%
%ADD21C,1.700000*%
%ADD22O,1.900000X3.700000*%
%ADD23C,2.600000*%
%ADD24R,2.600000X2.600000*%
G04 APERTURE END LIST*
D10*
%TO.C,J9*%
X137400000Y-78820000D03*
X137400000Y-76280000D03*
X137400000Y-73740000D03*
D11*
X137400000Y-71200000D03*
%TD*%
D12*
%TO.C,H6*%
X140040000Y-87310000D03*
%TD*%
%TO.C,H5*%
X82040000Y-87310000D03*
%TD*%
D10*
%TO.C,J8*%
X103220000Y-69400000D03*
X100680000Y-69400000D03*
X98140000Y-69400000D03*
D11*
X95600000Y-69400000D03*
%TD*%
D13*
%TO.C,J7*%
X136400000Y-94100000D03*
X136400000Y-97600000D03*
X136400000Y-101100000D03*
G36*
G01*
X137986111Y-105550000D02*
X134813889Y-105550000D01*
G75*
G02*
X134550000Y-105286111I0J263889D01*
G01*
X134550000Y-103913889D01*
G75*
G02*
X134813889Y-103650000I263889J0D01*
G01*
X137986111Y-103650000D01*
G75*
G02*
X138250000Y-103913889I0J-263889D01*
G01*
X138250000Y-105286111D01*
G75*
G02*
X137986111Y-105550000I-263889J0D01*
G01*
G37*
%TD*%
D14*
%TO.C,F3*%
X126800000Y-102850000D03*
X126800000Y-114750000D03*
X126800000Y-106550000D03*
X126800000Y-111050000D03*
%TD*%
D12*
%TO.C,H4*%
X140030000Y-113310000D03*
%TD*%
%TO.C,H3*%
X82040000Y-113320000D03*
%TD*%
%TO.C,H2*%
X140040000Y-64330000D03*
%TD*%
%TO.C,H1*%
X82040000Y-64310000D03*
%TD*%
D15*
%TO.C,U3*%
X132070000Y-75500000D03*
X124450000Y-83120000D03*
X132070000Y-78040000D03*
X124450000Y-80580000D03*
X132070000Y-80580000D03*
X124450000Y-78040000D03*
X132070000Y-83120000D03*
D16*
X124450000Y-75500000D03*
%TD*%
D17*
%TO.C,U2*%
X92600000Y-87750000D03*
D18*
X92600000Y-85210000D03*
X92600000Y-82670000D03*
%TD*%
D19*
%TO.C,U1*%
X98200000Y-72780000D03*
X113440000Y-80400000D03*
X100740000Y-72780000D03*
X110900000Y-80400000D03*
X103280000Y-72780000D03*
X108360000Y-80400000D03*
X105820000Y-72780000D03*
X105820000Y-80400000D03*
X108360000Y-72780000D03*
X103280000Y-80400000D03*
X110900000Y-72780000D03*
X100740000Y-80400000D03*
X113440000Y-72780000D03*
D20*
X98200000Y-80400000D03*
%TD*%
D15*
%TO.C,R5*%
X127580000Y-86600000D03*
D21*
X135200000Y-86600000D03*
%TD*%
D15*
%TO.C,R4*%
X121700000Y-80620000D03*
D21*
X121700000Y-73000000D03*
%TD*%
D15*
%TO.C,R2*%
X114130000Y-85400000D03*
D21*
X121750000Y-85400000D03*
%TD*%
D15*
%TO.C,R3*%
X129870000Y-69250000D03*
D21*
X122250000Y-69250000D03*
%TD*%
D15*
%TO.C,R1*%
X99380000Y-85400000D03*
D21*
X107000000Y-85400000D03*
%TD*%
D10*
%TO.C,J6*%
X80600000Y-80980000D03*
X80600000Y-78440000D03*
X80600000Y-75900000D03*
X80600000Y-73360000D03*
D11*
X80600000Y-70820000D03*
%TD*%
D22*
%TO.C,J5*%
X125200000Y-93200000D03*
X121700000Y-93200000D03*
G36*
G01*
X117250000Y-94786111D02*
X117250000Y-91613889D01*
G75*
G02*
X117513889Y-91350000I263889J0D01*
G01*
X118886111Y-91350000D01*
G75*
G02*
X119150000Y-91613889I0J-263889D01*
G01*
X119150000Y-94786111D01*
G75*
G02*
X118886111Y-95050000I-263889J0D01*
G01*
X117513889Y-95050000D01*
G75*
G02*
X117250000Y-94786111I0J263889D01*
G01*
G37*
%TD*%
%TO.C,J4*%
X110500000Y-93200000D03*
X107000000Y-93200000D03*
G36*
G01*
X102550000Y-94786111D02*
X102550000Y-91613889D01*
G75*
G02*
X102813889Y-91350000I263889J0D01*
G01*
X104186111Y-91350000D01*
G75*
G02*
X104450000Y-91613889I0J-263889D01*
G01*
X104450000Y-94786111D01*
G75*
G02*
X104186111Y-95050000I-263889J0D01*
G01*
X102813889Y-95050000D01*
G75*
G02*
X102550000Y-94786111I0J263889D01*
G01*
G37*
%TD*%
D10*
%TO.C,J3*%
X87000000Y-98480000D03*
X87000000Y-95940000D03*
D11*
X87000000Y-93400000D03*
%TD*%
D23*
%TO.C,J2*%
X100100000Y-106750000D03*
D24*
X93750000Y-106750000D03*
%TD*%
D10*
%TO.C,J1*%
X135180000Y-63050000D03*
X135180000Y-65590000D03*
X132640000Y-63050000D03*
X132640000Y-65590000D03*
X130100000Y-63050000D03*
X130100000Y-65590000D03*
X127560000Y-63050000D03*
X127560000Y-65590000D03*
X125020000Y-63050000D03*
X125020000Y-65590000D03*
X122480000Y-63050000D03*
X122480000Y-65590000D03*
X119940000Y-63050000D03*
X119940000Y-65590000D03*
X117400000Y-63050000D03*
X117400000Y-65590000D03*
X114860000Y-63050000D03*
X114860000Y-65590000D03*
X112320000Y-63050000D03*
X112320000Y-65590000D03*
X109780000Y-63050000D03*
X109780000Y-65590000D03*
X107240000Y-63050000D03*
X107240000Y-65590000D03*
X104700000Y-63050000D03*
X104700000Y-65590000D03*
X102160000Y-63050000D03*
X102160000Y-65590000D03*
X99620000Y-63050000D03*
X99620000Y-65590000D03*
X97080000Y-63050000D03*
X97080000Y-65590000D03*
X94540000Y-63050000D03*
X94540000Y-65590000D03*
X92000000Y-63050000D03*
X92000000Y-65590000D03*
X89460000Y-63050000D03*
X89460000Y-65590000D03*
X86920000Y-63050000D03*
D11*
X86920000Y-65590000D03*
%TD*%
D14*
%TO.C,F2*%
X118750000Y-102850000D03*
X118750000Y-114750000D03*
X118750000Y-106550000D03*
X118750000Y-111050000D03*
%TD*%
%TO.C,F1*%
X110500000Y-102850000D03*
X110500000Y-114750000D03*
X110500000Y-106550000D03*
X110500000Y-111050000D03*
%TD*%
D18*
%TO.C,D1*%
X117400000Y-72940000D03*
D17*
X117400000Y-70400000D03*
%TD*%
D21*
%TO.C,C4*%
X126950000Y-72500000D03*
X131950000Y-72500000D03*
%TD*%
%TO.C,C3*%
X94600000Y-77800000D03*
X94600000Y-72800000D03*
%TD*%
%TO.C,C2*%
X88800000Y-75500000D03*
D16*
X90800000Y-75500000D03*
%TD*%
D21*
%TO.C,C1*%
X95400000Y-95600000D03*
D16*
X93400000Y-95600000D03*
%TD*%
M02*
