%TF.GenerationSoftware,KiCad,Pcbnew,(5.1.6)-1*%
%TF.CreationDate,2020-09-18T21:57:09-04:00*%
%TF.ProjectId,PiHat,50694861-742e-46b6-9963-61645f706362,v1*%
%TF.SameCoordinates,Original*%
%TF.FileFunction,Legend,Top*%
%TF.FilePolarity,Positive*%
%FSLAX46Y46*%
G04 Gerber Fmt 4.6, Leading zero omitted, Abs format (unit mm)*
G04 Created by KiCad (PCBNEW (5.1.6)-1) date 2020-09-18 21:57:09*
%MOMM*%
%LPD*%
G01*
G04 APERTURE LIST*
%ADD10C,0.150000*%
%ADD11C,0.300000*%
%ADD12C,0.120000*%
%ADD13C,0.010000*%
%ADD14C,0.127000*%
%ADD15C,0.050000*%
G04 APERTURE END LIST*
D10*
X133038095Y-109385714D02*
X133419047Y-109385714D01*
X133180952Y-109052380D02*
X133180952Y-109909523D01*
X133228571Y-110004761D01*
X133323809Y-110052380D01*
X133419047Y-110052380D01*
X133609523Y-109385714D02*
X133990476Y-109385714D01*
X133752380Y-109052380D02*
X133752380Y-109909523D01*
X133800000Y-110004761D01*
X133895238Y-110052380D01*
X133990476Y-110052380D01*
X134228571Y-109385714D02*
X134466666Y-110052380D01*
X134704761Y-109385714D02*
X134466666Y-110052380D01*
X134371428Y-110290476D01*
X134323809Y-110338095D01*
X134228571Y-110385714D01*
X135038095Y-109766666D02*
X135514285Y-109766666D01*
X134942857Y-110052380D02*
X135276190Y-109052380D01*
X135609523Y-110052380D01*
X135942857Y-110052380D02*
X135942857Y-109052380D01*
X136276190Y-109766666D01*
X136609523Y-109052380D01*
X136609523Y-110052380D01*
X137038095Y-109766666D02*
X137514285Y-109766666D01*
X136942857Y-110052380D02*
X137276190Y-109052380D01*
X137609523Y-110052380D01*
X138133333Y-109052380D02*
X138228571Y-109052380D01*
X138323809Y-109100000D01*
X138371428Y-109147619D01*
X138419047Y-109242857D01*
X138466666Y-109433333D01*
X138466666Y-109671428D01*
X138419047Y-109861904D01*
X138371428Y-109957142D01*
X138323809Y-110004761D01*
X138228571Y-110052380D01*
X138133333Y-110052380D01*
X138038095Y-110004761D01*
X137990476Y-109957142D01*
X137942857Y-109861904D01*
X137895238Y-109671428D01*
X137895238Y-109433333D01*
X137942857Y-109242857D01*
X137990476Y-109147619D01*
X138038095Y-109100000D01*
X138133333Y-109052380D01*
X139323809Y-76852380D02*
X139323809Y-75852380D01*
X139990476Y-75852380D02*
X140180952Y-75852380D01*
X140276190Y-75900000D01*
X140371428Y-75995238D01*
X140419047Y-76185714D01*
X140419047Y-76519047D01*
X140371428Y-76709523D01*
X140276190Y-76804761D01*
X140180952Y-76852380D01*
X139990476Y-76852380D01*
X139895238Y-76804761D01*
X139800000Y-76709523D01*
X139752380Y-76519047D01*
X139752380Y-76185714D01*
X139800000Y-75995238D01*
X139895238Y-75900000D01*
X139990476Y-75852380D01*
X140800000Y-75947619D02*
X140847619Y-75900000D01*
X140942857Y-75852380D01*
X141180952Y-75852380D01*
X141276190Y-75900000D01*
X141323809Y-75947619D01*
X141371428Y-76042857D01*
X141371428Y-76138095D01*
X141323809Y-76280952D01*
X140752380Y-76852380D01*
X141371428Y-76852380D01*
X141990476Y-75852380D02*
X142085714Y-75852380D01*
X142180952Y-75900000D01*
X142228571Y-75947619D01*
X142276190Y-76042857D01*
X142323809Y-76233333D01*
X142323809Y-76471428D01*
X142276190Y-76661904D01*
X142228571Y-76757142D01*
X142180952Y-76804761D01*
X142085714Y-76852380D01*
X141990476Y-76852380D01*
X141895238Y-76804761D01*
X141847619Y-76757142D01*
X141800000Y-76661904D01*
X141752380Y-76471428D01*
X141752380Y-76233333D01*
X141800000Y-76042857D01*
X141847619Y-75947619D01*
X141895238Y-75900000D01*
X141990476Y-75852380D01*
X139323809Y-71852380D02*
X139323809Y-70852380D01*
X139990476Y-70852380D02*
X140180952Y-70852380D01*
X140276190Y-70900000D01*
X140371428Y-70995238D01*
X140419047Y-71185714D01*
X140419047Y-71519047D01*
X140371428Y-71709523D01*
X140276190Y-71804761D01*
X140180952Y-71852380D01*
X139990476Y-71852380D01*
X139895238Y-71804761D01*
X139800000Y-71709523D01*
X139752380Y-71519047D01*
X139752380Y-71185714D01*
X139800000Y-70995238D01*
X139895238Y-70900000D01*
X139990476Y-70852380D01*
X140800000Y-70947619D02*
X140847619Y-70900000D01*
X140942857Y-70852380D01*
X141180952Y-70852380D01*
X141276190Y-70900000D01*
X141323809Y-70947619D01*
X141371428Y-71042857D01*
X141371428Y-71138095D01*
X141323809Y-71280952D01*
X140752380Y-71852380D01*
X141371428Y-71852380D01*
X142323809Y-71852380D02*
X141752380Y-71852380D01*
X142038095Y-71852380D02*
X142038095Y-70852380D01*
X141942857Y-70995238D01*
X141847619Y-71090476D01*
X141752380Y-71138095D01*
X139838095Y-73300000D02*
X139742857Y-73252380D01*
X139600000Y-73252380D01*
X139457142Y-73300000D01*
X139361904Y-73395238D01*
X139314285Y-73490476D01*
X139266666Y-73680952D01*
X139266666Y-73823809D01*
X139314285Y-74014285D01*
X139361904Y-74109523D01*
X139457142Y-74204761D01*
X139600000Y-74252380D01*
X139695238Y-74252380D01*
X139838095Y-74204761D01*
X139885714Y-74157142D01*
X139885714Y-73823809D01*
X139695238Y-73823809D01*
X140314285Y-74252380D02*
X140314285Y-73252380D01*
X140885714Y-74252380D01*
X140885714Y-73252380D01*
X141361904Y-74252380D02*
X141361904Y-73252380D01*
X141600000Y-73252380D01*
X141742857Y-73300000D01*
X141838095Y-73395238D01*
X141885714Y-73490476D01*
X141933333Y-73680952D01*
X141933333Y-73823809D01*
X141885714Y-74014285D01*
X141838095Y-74109523D01*
X141742857Y-74204761D01*
X141600000Y-74252380D01*
X141361904Y-74252380D01*
X139838095Y-78500000D02*
X139742857Y-78452380D01*
X139600000Y-78452380D01*
X139457142Y-78500000D01*
X139361904Y-78595238D01*
X139314285Y-78690476D01*
X139266666Y-78880952D01*
X139266666Y-79023809D01*
X139314285Y-79214285D01*
X139361904Y-79309523D01*
X139457142Y-79404761D01*
X139600000Y-79452380D01*
X139695238Y-79452380D01*
X139838095Y-79404761D01*
X139885714Y-79357142D01*
X139885714Y-79023809D01*
X139695238Y-79023809D01*
X140314285Y-79452380D02*
X140314285Y-78452380D01*
X140885714Y-79452380D01*
X140885714Y-78452380D01*
X141361904Y-79452380D02*
X141361904Y-78452380D01*
X141600000Y-78452380D01*
X141742857Y-78500000D01*
X141838095Y-78595238D01*
X141885714Y-78690476D01*
X141933333Y-78880952D01*
X141933333Y-79023809D01*
X141885714Y-79214285D01*
X141838095Y-79309523D01*
X141742857Y-79404761D01*
X141600000Y-79452380D01*
X141361904Y-79452380D01*
X81772619Y-102009523D02*
X81772619Y-102200000D01*
X81725000Y-102295238D01*
X81629761Y-102390476D01*
X81439285Y-102438095D01*
X81105952Y-102438095D01*
X80915476Y-102390476D01*
X80820238Y-102295238D01*
X80772619Y-102200000D01*
X80772619Y-102009523D01*
X80820238Y-101914285D01*
X80915476Y-101819047D01*
X81105952Y-101771428D01*
X81439285Y-101771428D01*
X81629761Y-101819047D01*
X81725000Y-101914285D01*
X81772619Y-102009523D01*
X80820238Y-102819047D02*
X80772619Y-102961904D01*
X80772619Y-103200000D01*
X80820238Y-103295238D01*
X80867857Y-103342857D01*
X80963095Y-103390476D01*
X81058333Y-103390476D01*
X81153571Y-103342857D01*
X81201190Y-103295238D01*
X81248809Y-103200000D01*
X81296428Y-103009523D01*
X81344047Y-102914285D01*
X81391666Y-102866666D01*
X81486904Y-102819047D01*
X81582142Y-102819047D01*
X81677380Y-102866666D01*
X81725000Y-102914285D01*
X81772619Y-103009523D01*
X81772619Y-103247619D01*
X81725000Y-103390476D01*
X80772619Y-104580952D02*
X81772619Y-104580952D01*
X81772619Y-104961904D01*
X81725000Y-105057142D01*
X81677380Y-105104761D01*
X81582142Y-105152380D01*
X81439285Y-105152380D01*
X81344047Y-105104761D01*
X81296428Y-105057142D01*
X81248809Y-104961904D01*
X81248809Y-104580952D01*
X80772619Y-105580952D02*
X81439285Y-105580952D01*
X81772619Y-105580952D02*
X81725000Y-105533333D01*
X81677380Y-105580952D01*
X81725000Y-105628571D01*
X81772619Y-105580952D01*
X81677380Y-105580952D01*
X80772619Y-106057142D02*
X81772619Y-106057142D01*
X81296428Y-106057142D02*
X81296428Y-106628571D01*
X80772619Y-106628571D02*
X81772619Y-106628571D01*
X80772619Y-107533333D02*
X81296428Y-107533333D01*
X81391666Y-107485714D01*
X81439285Y-107390476D01*
X81439285Y-107200000D01*
X81391666Y-107104761D01*
X80820238Y-107533333D02*
X80772619Y-107438095D01*
X80772619Y-107200000D01*
X80820238Y-107104761D01*
X80915476Y-107057142D01*
X81010714Y-107057142D01*
X81105952Y-107104761D01*
X81153571Y-107200000D01*
X81153571Y-107438095D01*
X81201190Y-107533333D01*
X81439285Y-107866666D02*
X81439285Y-108247619D01*
X81772619Y-108009523D02*
X80915476Y-108009523D01*
X80820238Y-108057142D01*
X80772619Y-108152380D01*
X80772619Y-108247619D01*
X81439285Y-109247619D02*
X80772619Y-109485714D01*
X81439285Y-109723809D01*
X80772619Y-110628571D02*
X80772619Y-110057142D01*
X80772619Y-110342857D02*
X81772619Y-110342857D01*
X81629761Y-110247619D01*
X81534523Y-110152380D01*
X81486904Y-110057142D01*
X79646428Y-100461904D02*
X79598809Y-100604761D01*
X79551190Y-100652380D01*
X79455952Y-100700000D01*
X79313095Y-100700000D01*
X79217857Y-100652380D01*
X79170238Y-100604761D01*
X79122619Y-100509523D01*
X79122619Y-100128571D01*
X80122619Y-100128571D01*
X80122619Y-100461904D01*
X80075000Y-100557142D01*
X80027380Y-100604761D01*
X79932142Y-100652380D01*
X79836904Y-100652380D01*
X79741666Y-100604761D01*
X79694047Y-100557142D01*
X79646428Y-100461904D01*
X79646428Y-100128571D01*
X79789285Y-101033333D02*
X79122619Y-101271428D01*
X79789285Y-101509523D02*
X79122619Y-101271428D01*
X78884523Y-101176190D01*
X78836904Y-101128571D01*
X78789285Y-101033333D01*
X79170238Y-102604761D02*
X79122619Y-102747619D01*
X79122619Y-102985714D01*
X79170238Y-103080952D01*
X79217857Y-103128571D01*
X79313095Y-103176190D01*
X79408333Y-103176190D01*
X79503571Y-103128571D01*
X79551190Y-103080952D01*
X79598809Y-102985714D01*
X79646428Y-102795238D01*
X79694047Y-102700000D01*
X79741666Y-102652380D01*
X79836904Y-102604761D01*
X79932142Y-102604761D01*
X80027380Y-102652380D01*
X80075000Y-102700000D01*
X80122619Y-102795238D01*
X80122619Y-103033333D01*
X80075000Y-103176190D01*
X79170238Y-104033333D02*
X79122619Y-103938095D01*
X79122619Y-103747619D01*
X79170238Y-103652380D01*
X79217857Y-103604761D01*
X79313095Y-103557142D01*
X79598809Y-103557142D01*
X79694047Y-103604761D01*
X79741666Y-103652380D01*
X79789285Y-103747619D01*
X79789285Y-103938095D01*
X79741666Y-104033333D01*
X79122619Y-104604761D02*
X79170238Y-104509523D01*
X79217857Y-104461904D01*
X79313095Y-104414285D01*
X79598809Y-104414285D01*
X79694047Y-104461904D01*
X79741666Y-104509523D01*
X79789285Y-104604761D01*
X79789285Y-104747619D01*
X79741666Y-104842857D01*
X79694047Y-104890476D01*
X79598809Y-104938095D01*
X79313095Y-104938095D01*
X79217857Y-104890476D01*
X79170238Y-104842857D01*
X79122619Y-104747619D01*
X79122619Y-104604761D01*
X79789285Y-105223809D02*
X79789285Y-105604761D01*
X80122619Y-105366666D02*
X79265476Y-105366666D01*
X79170238Y-105414285D01*
X79122619Y-105509523D01*
X79122619Y-105604761D01*
X79789285Y-105795238D02*
X79789285Y-106176190D01*
X80122619Y-105938095D02*
X79265476Y-105938095D01*
X79170238Y-105985714D01*
X79122619Y-106080952D01*
X79122619Y-106176190D01*
X79122619Y-107271428D02*
X80122619Y-107271428D01*
X79646428Y-107271428D02*
X79646428Y-107842857D01*
X79122619Y-107842857D02*
X80122619Y-107842857D01*
X79122619Y-108747619D02*
X79646428Y-108747619D01*
X79741666Y-108700000D01*
X79789285Y-108604761D01*
X79789285Y-108414285D01*
X79741666Y-108319047D01*
X79170238Y-108747619D02*
X79122619Y-108652380D01*
X79122619Y-108414285D01*
X79170238Y-108319047D01*
X79265476Y-108271428D01*
X79360714Y-108271428D01*
X79455952Y-108319047D01*
X79503571Y-108414285D01*
X79503571Y-108652380D01*
X79551190Y-108747619D01*
X79789285Y-109223809D02*
X79122619Y-109223809D01*
X79694047Y-109223809D02*
X79741666Y-109271428D01*
X79789285Y-109366666D01*
X79789285Y-109509523D01*
X79741666Y-109604761D01*
X79646428Y-109652380D01*
X79122619Y-109652380D01*
X79170238Y-110080952D02*
X79122619Y-110176190D01*
X79122619Y-110366666D01*
X79170238Y-110461904D01*
X79265476Y-110509523D01*
X79313095Y-110509523D01*
X79408333Y-110461904D01*
X79455952Y-110366666D01*
X79455952Y-110223809D01*
X79503571Y-110128571D01*
X79598809Y-110080952D01*
X79646428Y-110080952D01*
X79741666Y-110128571D01*
X79789285Y-110223809D01*
X79789285Y-110366666D01*
X79741666Y-110461904D01*
X79122619Y-111080952D02*
X79170238Y-110985714D01*
X79217857Y-110938095D01*
X79313095Y-110890476D01*
X79598809Y-110890476D01*
X79694047Y-110938095D01*
X79741666Y-110985714D01*
X79789285Y-111080952D01*
X79789285Y-111223809D01*
X79741666Y-111319047D01*
X79694047Y-111366666D01*
X79598809Y-111414285D01*
X79313095Y-111414285D01*
X79217857Y-111366666D01*
X79170238Y-111319047D01*
X79122619Y-111223809D01*
X79122619Y-111080952D01*
X79789285Y-111842857D02*
X79122619Y-111842857D01*
X79694047Y-111842857D02*
X79741666Y-111890476D01*
X79789285Y-111985714D01*
X79789285Y-112128571D01*
X79741666Y-112223809D01*
X79646428Y-112271428D01*
X79122619Y-112271428D01*
X103038095Y-66900000D02*
X102942857Y-66852380D01*
X102800000Y-66852380D01*
X102657142Y-66900000D01*
X102561904Y-66995238D01*
X102514285Y-67090476D01*
X102466666Y-67280952D01*
X102466666Y-67423809D01*
X102514285Y-67614285D01*
X102561904Y-67709523D01*
X102657142Y-67804761D01*
X102800000Y-67852380D01*
X102895238Y-67852380D01*
X103038095Y-67804761D01*
X103085714Y-67757142D01*
X103085714Y-67423809D01*
X102895238Y-67423809D01*
X103514285Y-67852380D02*
X103514285Y-66852380D01*
X104085714Y-67852380D01*
X104085714Y-66852380D01*
X104561904Y-67852380D02*
X104561904Y-66852380D01*
X104800000Y-66852380D01*
X104942857Y-66900000D01*
X105038095Y-66995238D01*
X105085714Y-67090476D01*
X105133333Y-67280952D01*
X105133333Y-67423809D01*
X105085714Y-67614285D01*
X105038095Y-67709523D01*
X104942857Y-67804761D01*
X104800000Y-67852380D01*
X104561904Y-67852380D01*
X99761904Y-66852380D02*
X100380952Y-66852380D01*
X100047619Y-67233333D01*
X100190476Y-67233333D01*
X100285714Y-67280952D01*
X100333333Y-67328571D01*
X100380952Y-67423809D01*
X100380952Y-67661904D01*
X100333333Y-67757142D01*
X100285714Y-67804761D01*
X100190476Y-67852380D01*
X99904761Y-67852380D01*
X99809523Y-67804761D01*
X99761904Y-67757142D01*
X100666666Y-66852380D02*
X101000000Y-67852380D01*
X101333333Y-66852380D01*
X101571428Y-66852380D02*
X102190476Y-66852380D01*
X101857142Y-67233333D01*
X102000000Y-67233333D01*
X102095238Y-67280952D01*
X102142857Y-67328571D01*
X102190476Y-67423809D01*
X102190476Y-67661904D01*
X102142857Y-67757142D01*
X102095238Y-67804761D01*
X102000000Y-67852380D01*
X101714285Y-67852380D01*
X101619047Y-67804761D01*
X101571428Y-67757142D01*
X97009523Y-67804761D02*
X97152380Y-67852380D01*
X97390476Y-67852380D01*
X97485714Y-67804761D01*
X97533333Y-67757142D01*
X97580952Y-67661904D01*
X97580952Y-67566666D01*
X97533333Y-67471428D01*
X97485714Y-67423809D01*
X97390476Y-67376190D01*
X97200000Y-67328571D01*
X97104761Y-67280952D01*
X97057142Y-67233333D01*
X97009523Y-67138095D01*
X97009523Y-67042857D01*
X97057142Y-66947619D01*
X97104761Y-66900000D01*
X97200000Y-66852380D01*
X97438095Y-66852380D01*
X97580952Y-66900000D01*
X98580952Y-67757142D02*
X98533333Y-67804761D01*
X98390476Y-67852380D01*
X98295238Y-67852380D01*
X98152380Y-67804761D01*
X98057142Y-67709523D01*
X98009523Y-67614285D01*
X97961904Y-67423809D01*
X97961904Y-67280952D01*
X98009523Y-67090476D01*
X98057142Y-66995238D01*
X98152380Y-66900000D01*
X98295238Y-66852380D01*
X98390476Y-66852380D01*
X98533333Y-66900000D01*
X98580952Y-66947619D01*
X99485714Y-67852380D02*
X99009523Y-67852380D01*
X99009523Y-66852380D01*
X93985714Y-67804761D02*
X94128571Y-67852380D01*
X94366666Y-67852380D01*
X94461904Y-67804761D01*
X94509523Y-67757142D01*
X94557142Y-67661904D01*
X94557142Y-67566666D01*
X94509523Y-67471428D01*
X94461904Y-67423809D01*
X94366666Y-67376190D01*
X94176190Y-67328571D01*
X94080952Y-67280952D01*
X94033333Y-67233333D01*
X93985714Y-67138095D01*
X93985714Y-67042857D01*
X94033333Y-66947619D01*
X94080952Y-66900000D01*
X94176190Y-66852380D01*
X94414285Y-66852380D01*
X94557142Y-66900000D01*
X94985714Y-67852380D02*
X94985714Y-66852380D01*
X95223809Y-66852380D01*
X95366666Y-66900000D01*
X95461904Y-66995238D01*
X95509523Y-67090476D01*
X95557142Y-67280952D01*
X95557142Y-67423809D01*
X95509523Y-67614285D01*
X95461904Y-67709523D01*
X95366666Y-67804761D01*
X95223809Y-67852380D01*
X94985714Y-67852380D01*
X95938095Y-67566666D02*
X96414285Y-67566666D01*
X95842857Y-67852380D02*
X96176190Y-66852380D01*
X96509523Y-67852380D01*
D11*
X82114285Y-93778571D02*
X81400000Y-93778571D01*
X81328571Y-94492857D01*
X81400000Y-94421428D01*
X81542857Y-94350000D01*
X81900000Y-94350000D01*
X82042857Y-94421428D01*
X82114285Y-94492857D01*
X82185714Y-94635714D01*
X82185714Y-94992857D01*
X82114285Y-95135714D01*
X82042857Y-95207142D01*
X81900000Y-95278571D01*
X81542857Y-95278571D01*
X81400000Y-95207142D01*
X81328571Y-95135714D01*
X82614285Y-93778571D02*
X83114285Y-95278571D01*
X83614285Y-93778571D01*
X81671428Y-98478571D02*
X80814285Y-98478571D01*
X81242857Y-98478571D02*
X81242857Y-96978571D01*
X81100000Y-97192857D01*
X80957142Y-97335714D01*
X80814285Y-97407142D01*
X82242857Y-97121428D02*
X82314285Y-97050000D01*
X82457142Y-96978571D01*
X82814285Y-96978571D01*
X82957142Y-97050000D01*
X83028571Y-97121428D01*
X83100000Y-97264285D01*
X83100000Y-97407142D01*
X83028571Y-97621428D01*
X82171428Y-98478571D01*
X83100000Y-98478571D01*
X83528571Y-96978571D02*
X84028571Y-98478571D01*
X84528571Y-96978571D01*
D10*
X140042857Y-98052380D02*
X140042857Y-97052380D01*
X140280952Y-97052380D01*
X140423809Y-97100000D01*
X140519047Y-97195238D01*
X140566666Y-97290476D01*
X140614285Y-97480952D01*
X140614285Y-97623809D01*
X140566666Y-97814285D01*
X140519047Y-97909523D01*
X140423809Y-98004761D01*
X140280952Y-98052380D01*
X140042857Y-98052380D01*
X140947619Y-97052380D02*
X141614285Y-98052380D01*
X141614285Y-97052380D02*
X140947619Y-98052380D01*
X141995238Y-97671428D02*
X142757142Y-97671428D01*
X140042857Y-101652380D02*
X140042857Y-100652380D01*
X140280952Y-100652380D01*
X140423809Y-100700000D01*
X140519047Y-100795238D01*
X140566666Y-100890476D01*
X140614285Y-101080952D01*
X140614285Y-101223809D01*
X140566666Y-101414285D01*
X140519047Y-101509523D01*
X140423809Y-101604761D01*
X140280952Y-101652380D01*
X140042857Y-101652380D01*
X140947619Y-100652380D02*
X141614285Y-101652380D01*
X141614285Y-100652380D02*
X140947619Y-101652380D01*
X141995238Y-101271428D02*
X142757142Y-101271428D01*
X142376190Y-101652380D02*
X142376190Y-100890476D01*
X140066666Y-105252380D02*
X140066666Y-104252380D01*
X140447619Y-104252380D01*
X140542857Y-104300000D01*
X140590476Y-104347619D01*
X140638095Y-104442857D01*
X140638095Y-104585714D01*
X140590476Y-104680952D01*
X140542857Y-104728571D01*
X140447619Y-104776190D01*
X140066666Y-104776190D01*
X140971428Y-104252380D02*
X141209523Y-105252380D01*
X141400000Y-104538095D01*
X141590476Y-105252380D01*
X141828571Y-104252380D01*
X142780952Y-105252380D02*
X142447619Y-104776190D01*
X142209523Y-105252380D02*
X142209523Y-104252380D01*
X142590476Y-104252380D01*
X142685714Y-104300000D01*
X142733333Y-104347619D01*
X142780952Y-104442857D01*
X142780952Y-104585714D01*
X142733333Y-104680952D01*
X142685714Y-104728571D01*
X142590476Y-104776190D01*
X142209523Y-104776190D01*
X140638095Y-93700000D02*
X140542857Y-93652380D01*
X140400000Y-93652380D01*
X140257142Y-93700000D01*
X140161904Y-93795238D01*
X140114285Y-93890476D01*
X140066666Y-94080952D01*
X140066666Y-94223809D01*
X140114285Y-94414285D01*
X140161904Y-94509523D01*
X140257142Y-94604761D01*
X140400000Y-94652380D01*
X140495238Y-94652380D01*
X140638095Y-94604761D01*
X140685714Y-94557142D01*
X140685714Y-94223809D01*
X140495238Y-94223809D01*
X141114285Y-94652380D02*
X141114285Y-93652380D01*
X141685714Y-94652380D01*
X141685714Y-93652380D01*
X142161904Y-94652380D02*
X142161904Y-93652380D01*
X142400000Y-93652380D01*
X142542857Y-93700000D01*
X142638095Y-93795238D01*
X142685714Y-93890476D01*
X142733333Y-94080952D01*
X142733333Y-94223809D01*
X142685714Y-94414285D01*
X142638095Y-94509523D01*
X142542857Y-94604761D01*
X142400000Y-94652380D01*
X142161904Y-94652380D01*
X82838095Y-80500000D02*
X82742857Y-80452380D01*
X82600000Y-80452380D01*
X82457142Y-80500000D01*
X82361904Y-80595238D01*
X82314285Y-80690476D01*
X82266666Y-80880952D01*
X82266666Y-81023809D01*
X82314285Y-81214285D01*
X82361904Y-81309523D01*
X82457142Y-81404761D01*
X82600000Y-81452380D01*
X82695238Y-81452380D01*
X82838095Y-81404761D01*
X82885714Y-81357142D01*
X82885714Y-81023809D01*
X82695238Y-81023809D01*
X83314285Y-81452380D02*
X83314285Y-80452380D01*
X83885714Y-81452380D01*
X83885714Y-80452380D01*
X84361904Y-81452380D02*
X84361904Y-80452380D01*
X84600000Y-80452380D01*
X84742857Y-80500000D01*
X84838095Y-80595238D01*
X84885714Y-80690476D01*
X84933333Y-80880952D01*
X84933333Y-81023809D01*
X84885714Y-81214285D01*
X84838095Y-81309523D01*
X84742857Y-81404761D01*
X84600000Y-81452380D01*
X84361904Y-81452380D01*
X82323809Y-77852380D02*
X82942857Y-77852380D01*
X82609523Y-78233333D01*
X82752380Y-78233333D01*
X82847619Y-78280952D01*
X82895238Y-78328571D01*
X82942857Y-78423809D01*
X82942857Y-78661904D01*
X82895238Y-78757142D01*
X82847619Y-78804761D01*
X82752380Y-78852380D01*
X82466666Y-78852380D01*
X82371428Y-78804761D01*
X82323809Y-78757142D01*
X83371428Y-78757142D02*
X83419047Y-78804761D01*
X83371428Y-78852380D01*
X83323809Y-78804761D01*
X83371428Y-78757142D01*
X83371428Y-78852380D01*
X83752380Y-77852380D02*
X84371428Y-77852380D01*
X84038095Y-78233333D01*
X84180952Y-78233333D01*
X84276190Y-78280952D01*
X84323809Y-78328571D01*
X84371428Y-78423809D01*
X84371428Y-78661904D01*
X84323809Y-78757142D01*
X84276190Y-78804761D01*
X84180952Y-78852380D01*
X83895238Y-78852380D01*
X83800000Y-78804761D01*
X83752380Y-78757142D01*
X84657142Y-77852380D02*
X84990476Y-78852380D01*
X85323809Y-77852380D01*
X82385714Y-76404761D02*
X82528571Y-76452380D01*
X82766666Y-76452380D01*
X82861904Y-76404761D01*
X82909523Y-76357142D01*
X82957142Y-76261904D01*
X82957142Y-76166666D01*
X82909523Y-76071428D01*
X82861904Y-76023809D01*
X82766666Y-75976190D01*
X82576190Y-75928571D01*
X82480952Y-75880952D01*
X82433333Y-75833333D01*
X82385714Y-75738095D01*
X82385714Y-75642857D01*
X82433333Y-75547619D01*
X82480952Y-75500000D01*
X82576190Y-75452380D01*
X82814285Y-75452380D01*
X82957142Y-75500000D01*
X83385714Y-76452380D02*
X83385714Y-75452380D01*
X83623809Y-75452380D01*
X83766666Y-75500000D01*
X83861904Y-75595238D01*
X83909523Y-75690476D01*
X83957142Y-75880952D01*
X83957142Y-76023809D01*
X83909523Y-76214285D01*
X83861904Y-76309523D01*
X83766666Y-76404761D01*
X83623809Y-76452380D01*
X83385714Y-76452380D01*
X84338095Y-76166666D02*
X84814285Y-76166666D01*
X84242857Y-76452380D02*
X84576190Y-75452380D01*
X84909523Y-76452380D01*
X82409523Y-73804761D02*
X82552380Y-73852380D01*
X82790476Y-73852380D01*
X82885714Y-73804761D01*
X82933333Y-73757142D01*
X82980952Y-73661904D01*
X82980952Y-73566666D01*
X82933333Y-73471428D01*
X82885714Y-73423809D01*
X82790476Y-73376190D01*
X82600000Y-73328571D01*
X82504761Y-73280952D01*
X82457142Y-73233333D01*
X82409523Y-73138095D01*
X82409523Y-73042857D01*
X82457142Y-72947619D01*
X82504761Y-72900000D01*
X82600000Y-72852380D01*
X82838095Y-72852380D01*
X82980952Y-72900000D01*
X83980952Y-73757142D02*
X83933333Y-73804761D01*
X83790476Y-73852380D01*
X83695238Y-73852380D01*
X83552380Y-73804761D01*
X83457142Y-73709523D01*
X83409523Y-73614285D01*
X83361904Y-73423809D01*
X83361904Y-73280952D01*
X83409523Y-73090476D01*
X83457142Y-72995238D01*
X83552380Y-72900000D01*
X83695238Y-72852380D01*
X83790476Y-72852380D01*
X83933333Y-72900000D01*
X83980952Y-72947619D01*
X84885714Y-73852380D02*
X84409523Y-73852380D01*
X84409523Y-72852380D01*
X82414285Y-71252380D02*
X82414285Y-70252380D01*
X82985714Y-71252380D01*
X82985714Y-70252380D01*
X84033333Y-71157142D02*
X83985714Y-71204761D01*
X83842857Y-71252380D01*
X83747619Y-71252380D01*
X83604761Y-71204761D01*
X83509523Y-71109523D01*
X83461904Y-71014285D01*
X83414285Y-70823809D01*
X83414285Y-70680952D01*
X83461904Y-70490476D01*
X83509523Y-70395238D01*
X83604761Y-70300000D01*
X83747619Y-70252380D01*
X83842857Y-70252380D01*
X83985714Y-70300000D01*
X84033333Y-70347619D01*
D11*
X121607142Y-98478571D02*
X121607142Y-96978571D01*
X121964285Y-96978571D01*
X122178571Y-97050000D01*
X122321428Y-97192857D01*
X122392857Y-97335714D01*
X122464285Y-97621428D01*
X122464285Y-97835714D01*
X122392857Y-98121428D01*
X122321428Y-98264285D01*
X122178571Y-98407142D01*
X121964285Y-98478571D01*
X121607142Y-98478571D01*
X106607142Y-98478571D02*
X106607142Y-96978571D01*
X106964285Y-96978571D01*
X107178571Y-97050000D01*
X107321428Y-97192857D01*
X107392857Y-97335714D01*
X107464285Y-97621428D01*
X107464285Y-97835714D01*
X107392857Y-98121428D01*
X107321428Y-98264285D01*
X107178571Y-98407142D01*
X106964285Y-98478571D01*
X106607142Y-98478571D01*
X124700000Y-96978571D02*
X125200000Y-98478571D01*
X125700000Y-96978571D01*
X109900000Y-96978571D02*
X110400000Y-98478571D01*
X110900000Y-96978571D01*
X118592857Y-97050000D02*
X118450000Y-96978571D01*
X118235714Y-96978571D01*
X118021428Y-97050000D01*
X117878571Y-97192857D01*
X117807142Y-97335714D01*
X117735714Y-97621428D01*
X117735714Y-97835714D01*
X117807142Y-98121428D01*
X117878571Y-98264285D01*
X118021428Y-98407142D01*
X118235714Y-98478571D01*
X118378571Y-98478571D01*
X118592857Y-98407142D01*
X118664285Y-98335714D01*
X118664285Y-97835714D01*
X118378571Y-97835714D01*
X103992857Y-97050000D02*
X103850000Y-96978571D01*
X103635714Y-96978571D01*
X103421428Y-97050000D01*
X103278571Y-97192857D01*
X103207142Y-97335714D01*
X103135714Y-97621428D01*
X103135714Y-97835714D01*
X103207142Y-98121428D01*
X103278571Y-98264285D01*
X103421428Y-98407142D01*
X103635714Y-98478571D01*
X103778571Y-98478571D01*
X103992857Y-98407142D01*
X104064285Y-98335714D01*
X104064285Y-97835714D01*
X103778571Y-97835714D01*
X94321428Y-115857142D02*
X93178571Y-115857142D01*
X100821428Y-115857142D02*
X99678571Y-115857142D01*
X100250000Y-116428571D02*
X100250000Y-115285714D01*
D12*
%TO.C,J9*%
X137400000Y-69870000D02*
X138730000Y-69870000D01*
X138730000Y-69870000D02*
X138730000Y-71200000D01*
X138730000Y-72470000D02*
X138730000Y-80150000D01*
X136070000Y-80150000D02*
X138730000Y-80150000D01*
X136070000Y-72470000D02*
X136070000Y-80150000D01*
X136070000Y-72470000D02*
X138730000Y-72470000D01*
D13*
%TO.C,REF\u002A\u002A*%
G36*
X134103910Y-110842348D02*
G01*
X134182454Y-110842778D01*
X134239298Y-110843942D01*
X134278105Y-110846207D01*
X134302538Y-110849940D01*
X134316262Y-110855506D01*
X134322940Y-110863273D01*
X134326236Y-110873605D01*
X134326556Y-110874943D01*
X134331562Y-110899079D01*
X134340829Y-110946701D01*
X134353392Y-111012741D01*
X134368287Y-111092128D01*
X134384551Y-111179796D01*
X134385119Y-111182875D01*
X134401410Y-111268789D01*
X134416652Y-111344696D01*
X134429861Y-111406045D01*
X134440054Y-111448282D01*
X134446248Y-111466855D01*
X134446543Y-111467184D01*
X134464788Y-111476253D01*
X134502405Y-111491367D01*
X134551271Y-111509262D01*
X134551543Y-111509358D01*
X134613093Y-111532493D01*
X134685657Y-111561965D01*
X134754057Y-111591597D01*
X134757294Y-111593062D01*
X134868702Y-111643626D01*
X135115399Y-111475160D01*
X135191077Y-111423803D01*
X135259631Y-111377889D01*
X135317088Y-111340030D01*
X135359476Y-111312837D01*
X135382825Y-111298921D01*
X135385042Y-111297889D01*
X135402010Y-111302484D01*
X135433701Y-111324655D01*
X135481352Y-111365447D01*
X135546198Y-111425905D01*
X135612397Y-111490227D01*
X135676214Y-111553612D01*
X135733329Y-111611451D01*
X135780305Y-111660175D01*
X135813703Y-111696210D01*
X135830085Y-111715984D01*
X135830694Y-111717002D01*
X135832505Y-111730572D01*
X135825683Y-111752733D01*
X135808540Y-111786478D01*
X135779393Y-111834800D01*
X135736555Y-111900692D01*
X135679448Y-111985517D01*
X135628766Y-112060177D01*
X135583461Y-112127140D01*
X135546150Y-112182516D01*
X135519452Y-112222420D01*
X135505985Y-112242962D01*
X135505137Y-112244356D01*
X135506781Y-112264038D01*
X135519245Y-112302293D01*
X135540048Y-112351889D01*
X135547462Y-112367728D01*
X135579814Y-112438290D01*
X135614328Y-112518353D01*
X135642365Y-112587629D01*
X135662568Y-112639045D01*
X135678615Y-112678119D01*
X135687888Y-112698541D01*
X135689041Y-112700114D01*
X135706096Y-112702721D01*
X135746298Y-112709863D01*
X135804302Y-112720523D01*
X135874763Y-112733685D01*
X135952335Y-112748333D01*
X136031672Y-112763449D01*
X136107431Y-112778018D01*
X136174264Y-112791022D01*
X136226828Y-112801445D01*
X136259776Y-112808270D01*
X136267857Y-112810199D01*
X136276205Y-112814962D01*
X136282506Y-112825718D01*
X136287045Y-112846098D01*
X136290104Y-112879734D01*
X136291967Y-112930255D01*
X136292918Y-113001292D01*
X136293240Y-113096476D01*
X136293257Y-113135492D01*
X136293257Y-113452799D01*
X136217057Y-113467839D01*
X136174663Y-113475995D01*
X136111400Y-113487899D01*
X136034962Y-113502116D01*
X135953043Y-113517210D01*
X135930400Y-113521355D01*
X135854806Y-113536053D01*
X135788953Y-113550505D01*
X135738366Y-113563375D01*
X135708574Y-113573322D01*
X135703612Y-113576287D01*
X135691426Y-113597283D01*
X135673953Y-113637967D01*
X135654577Y-113690322D01*
X135650734Y-113701600D01*
X135625339Y-113771523D01*
X135593817Y-113850418D01*
X135562969Y-113921266D01*
X135562817Y-113921595D01*
X135511447Y-114032733D01*
X135680399Y-114281253D01*
X135849352Y-114529772D01*
X135632429Y-114747058D01*
X135566819Y-114811726D01*
X135506979Y-114868733D01*
X135456267Y-114915033D01*
X135418046Y-114947584D01*
X135395675Y-114963343D01*
X135392466Y-114964343D01*
X135373626Y-114956469D01*
X135335180Y-114934578D01*
X135281330Y-114901267D01*
X135216276Y-114859131D01*
X135145940Y-114811943D01*
X135074555Y-114763810D01*
X135010908Y-114721928D01*
X134959041Y-114688871D01*
X134922995Y-114667218D01*
X134906867Y-114659543D01*
X134887189Y-114666037D01*
X134849875Y-114683150D01*
X134802621Y-114707326D01*
X134797612Y-114710013D01*
X134733977Y-114741927D01*
X134690341Y-114757579D01*
X134663202Y-114757745D01*
X134649057Y-114743204D01*
X134648975Y-114743000D01*
X134641905Y-114725779D01*
X134625042Y-114684899D01*
X134599695Y-114623525D01*
X134567171Y-114544819D01*
X134528778Y-114451947D01*
X134485822Y-114348072D01*
X134444222Y-114247502D01*
X134398504Y-114136516D01*
X134356526Y-114033703D01*
X134319548Y-113942215D01*
X134288827Y-113865201D01*
X134265622Y-113805815D01*
X134251190Y-113767209D01*
X134246743Y-113752800D01*
X134257896Y-113736272D01*
X134287069Y-113709930D01*
X134325971Y-113680887D01*
X134436757Y-113589039D01*
X134523351Y-113483759D01*
X134584716Y-113367266D01*
X134619815Y-113241776D01*
X134627608Y-113109507D01*
X134621943Y-113048457D01*
X134591078Y-112921795D01*
X134537920Y-112809941D01*
X134465767Y-112714001D01*
X134377917Y-112635076D01*
X134277665Y-112574270D01*
X134168310Y-112532687D01*
X134053147Y-112511428D01*
X133935475Y-112511599D01*
X133818590Y-112534301D01*
X133705789Y-112580638D01*
X133600369Y-112651713D01*
X133556368Y-112691911D01*
X133471979Y-112795129D01*
X133413222Y-112907925D01*
X133379704Y-113027010D01*
X133371035Y-113149095D01*
X133386823Y-113270893D01*
X133426678Y-113389116D01*
X133490207Y-113500475D01*
X133577021Y-113601684D01*
X133674029Y-113680887D01*
X133714437Y-113711162D01*
X133742982Y-113737219D01*
X133753257Y-113752825D01*
X133747877Y-113769843D01*
X133732575Y-113810500D01*
X133708612Y-113871642D01*
X133677244Y-113950119D01*
X133639732Y-114042780D01*
X133597333Y-114146472D01*
X133555663Y-114247526D01*
X133509690Y-114358607D01*
X133467107Y-114461541D01*
X133429221Y-114553165D01*
X133397340Y-114630316D01*
X133372771Y-114689831D01*
X133356820Y-114728544D01*
X133350910Y-114743000D01*
X133336948Y-114757685D01*
X133309940Y-114757642D01*
X133266413Y-114742099D01*
X133202890Y-114710284D01*
X133202388Y-114710013D01*
X133154560Y-114685323D01*
X133115897Y-114667338D01*
X133094095Y-114659614D01*
X133093133Y-114659543D01*
X133076721Y-114667378D01*
X133040487Y-114689165D01*
X132988474Y-114722328D01*
X132924725Y-114764291D01*
X132854060Y-114811943D01*
X132782116Y-114860191D01*
X132717274Y-114902151D01*
X132663735Y-114935227D01*
X132625697Y-114956821D01*
X132607533Y-114964343D01*
X132590808Y-114954457D01*
X132557180Y-114926826D01*
X132510010Y-114884495D01*
X132452658Y-114830505D01*
X132388484Y-114767899D01*
X132367497Y-114746983D01*
X132150499Y-114529623D01*
X132315668Y-114287220D01*
X132365864Y-114212781D01*
X132409919Y-114145972D01*
X132445362Y-114090665D01*
X132469719Y-114050729D01*
X132480522Y-114030036D01*
X132480838Y-114028563D01*
X132475143Y-114009058D01*
X132459826Y-113969822D01*
X132437537Y-113917430D01*
X132421893Y-113882355D01*
X132392641Y-113815201D01*
X132365094Y-113747358D01*
X132343737Y-113690034D01*
X132337935Y-113672572D01*
X132321452Y-113625938D01*
X132305340Y-113589905D01*
X132296490Y-113576287D01*
X132276960Y-113567952D01*
X132234334Y-113556137D01*
X132174145Y-113542181D01*
X132101922Y-113527422D01*
X132069600Y-113521355D01*
X131987522Y-113506273D01*
X131908795Y-113491669D01*
X131841109Y-113478980D01*
X131792160Y-113469642D01*
X131782943Y-113467839D01*
X131706743Y-113452799D01*
X131706743Y-113135492D01*
X131706914Y-113031154D01*
X131707616Y-112952213D01*
X131709134Y-112895038D01*
X131711749Y-112855999D01*
X131715746Y-112831465D01*
X131721409Y-112817805D01*
X131729020Y-112811389D01*
X131732143Y-112810199D01*
X131750978Y-112805980D01*
X131792588Y-112797562D01*
X131851630Y-112785961D01*
X131922757Y-112772195D01*
X132000625Y-112757280D01*
X132079887Y-112742232D01*
X132155198Y-112728069D01*
X132221213Y-112715806D01*
X132272587Y-112706461D01*
X132303975Y-112701050D01*
X132310959Y-112700114D01*
X132317285Y-112687596D01*
X132331290Y-112654246D01*
X132350355Y-112606377D01*
X132357634Y-112587629D01*
X132386996Y-112515195D01*
X132421571Y-112435170D01*
X132452537Y-112367728D01*
X132475323Y-112316159D01*
X132490482Y-112273785D01*
X132495542Y-112247834D01*
X132494736Y-112244356D01*
X132484041Y-112227936D01*
X132459620Y-112191417D01*
X132424095Y-112138687D01*
X132380087Y-112073635D01*
X132330217Y-112000151D01*
X132320356Y-111985645D01*
X132262492Y-111899704D01*
X132219956Y-111834261D01*
X132191054Y-111786304D01*
X132174090Y-111752820D01*
X132167367Y-111730795D01*
X132169190Y-111717217D01*
X132169236Y-111717131D01*
X132183586Y-111699297D01*
X132215323Y-111664817D01*
X132261010Y-111617268D01*
X132317204Y-111560222D01*
X132380468Y-111497255D01*
X132387602Y-111490227D01*
X132467330Y-111413020D01*
X132528857Y-111356330D01*
X132573421Y-111319110D01*
X132602257Y-111300315D01*
X132614958Y-111297889D01*
X132633494Y-111308471D01*
X132671961Y-111332916D01*
X132726386Y-111368612D01*
X132792798Y-111412947D01*
X132867225Y-111463311D01*
X132884601Y-111475160D01*
X133131297Y-111643626D01*
X133242706Y-111593062D01*
X133310457Y-111563595D01*
X133383183Y-111533959D01*
X133445703Y-111510330D01*
X133448457Y-111509358D01*
X133497360Y-111491457D01*
X133535057Y-111476320D01*
X133553425Y-111467210D01*
X133553456Y-111467184D01*
X133559285Y-111450717D01*
X133569192Y-111410219D01*
X133582195Y-111350242D01*
X133597309Y-111275340D01*
X133613552Y-111190064D01*
X133614881Y-111182875D01*
X133631175Y-111095014D01*
X133646133Y-111015260D01*
X133658791Y-110948681D01*
X133668186Y-110900347D01*
X133673354Y-110875325D01*
X133673444Y-110874943D01*
X133676589Y-110864299D01*
X133682704Y-110856262D01*
X133695453Y-110850467D01*
X133718500Y-110846547D01*
X133755509Y-110844135D01*
X133810144Y-110842865D01*
X133886067Y-110842371D01*
X133986944Y-110842286D01*
X134000000Y-110842286D01*
X134103910Y-110842348D01*
G37*
X134103910Y-110842348D02*
X134182454Y-110842778D01*
X134239298Y-110843942D01*
X134278105Y-110846207D01*
X134302538Y-110849940D01*
X134316262Y-110855506D01*
X134322940Y-110863273D01*
X134326236Y-110873605D01*
X134326556Y-110874943D01*
X134331562Y-110899079D01*
X134340829Y-110946701D01*
X134353392Y-111012741D01*
X134368287Y-111092128D01*
X134384551Y-111179796D01*
X134385119Y-111182875D01*
X134401410Y-111268789D01*
X134416652Y-111344696D01*
X134429861Y-111406045D01*
X134440054Y-111448282D01*
X134446248Y-111466855D01*
X134446543Y-111467184D01*
X134464788Y-111476253D01*
X134502405Y-111491367D01*
X134551271Y-111509262D01*
X134551543Y-111509358D01*
X134613093Y-111532493D01*
X134685657Y-111561965D01*
X134754057Y-111591597D01*
X134757294Y-111593062D01*
X134868702Y-111643626D01*
X135115399Y-111475160D01*
X135191077Y-111423803D01*
X135259631Y-111377889D01*
X135317088Y-111340030D01*
X135359476Y-111312837D01*
X135382825Y-111298921D01*
X135385042Y-111297889D01*
X135402010Y-111302484D01*
X135433701Y-111324655D01*
X135481352Y-111365447D01*
X135546198Y-111425905D01*
X135612397Y-111490227D01*
X135676214Y-111553612D01*
X135733329Y-111611451D01*
X135780305Y-111660175D01*
X135813703Y-111696210D01*
X135830085Y-111715984D01*
X135830694Y-111717002D01*
X135832505Y-111730572D01*
X135825683Y-111752733D01*
X135808540Y-111786478D01*
X135779393Y-111834800D01*
X135736555Y-111900692D01*
X135679448Y-111985517D01*
X135628766Y-112060177D01*
X135583461Y-112127140D01*
X135546150Y-112182516D01*
X135519452Y-112222420D01*
X135505985Y-112242962D01*
X135505137Y-112244356D01*
X135506781Y-112264038D01*
X135519245Y-112302293D01*
X135540048Y-112351889D01*
X135547462Y-112367728D01*
X135579814Y-112438290D01*
X135614328Y-112518353D01*
X135642365Y-112587629D01*
X135662568Y-112639045D01*
X135678615Y-112678119D01*
X135687888Y-112698541D01*
X135689041Y-112700114D01*
X135706096Y-112702721D01*
X135746298Y-112709863D01*
X135804302Y-112720523D01*
X135874763Y-112733685D01*
X135952335Y-112748333D01*
X136031672Y-112763449D01*
X136107431Y-112778018D01*
X136174264Y-112791022D01*
X136226828Y-112801445D01*
X136259776Y-112808270D01*
X136267857Y-112810199D01*
X136276205Y-112814962D01*
X136282506Y-112825718D01*
X136287045Y-112846098D01*
X136290104Y-112879734D01*
X136291967Y-112930255D01*
X136292918Y-113001292D01*
X136293240Y-113096476D01*
X136293257Y-113135492D01*
X136293257Y-113452799D01*
X136217057Y-113467839D01*
X136174663Y-113475995D01*
X136111400Y-113487899D01*
X136034962Y-113502116D01*
X135953043Y-113517210D01*
X135930400Y-113521355D01*
X135854806Y-113536053D01*
X135788953Y-113550505D01*
X135738366Y-113563375D01*
X135708574Y-113573322D01*
X135703612Y-113576287D01*
X135691426Y-113597283D01*
X135673953Y-113637967D01*
X135654577Y-113690322D01*
X135650734Y-113701600D01*
X135625339Y-113771523D01*
X135593817Y-113850418D01*
X135562969Y-113921266D01*
X135562817Y-113921595D01*
X135511447Y-114032733D01*
X135680399Y-114281253D01*
X135849352Y-114529772D01*
X135632429Y-114747058D01*
X135566819Y-114811726D01*
X135506979Y-114868733D01*
X135456267Y-114915033D01*
X135418046Y-114947584D01*
X135395675Y-114963343D01*
X135392466Y-114964343D01*
X135373626Y-114956469D01*
X135335180Y-114934578D01*
X135281330Y-114901267D01*
X135216276Y-114859131D01*
X135145940Y-114811943D01*
X135074555Y-114763810D01*
X135010908Y-114721928D01*
X134959041Y-114688871D01*
X134922995Y-114667218D01*
X134906867Y-114659543D01*
X134887189Y-114666037D01*
X134849875Y-114683150D01*
X134802621Y-114707326D01*
X134797612Y-114710013D01*
X134733977Y-114741927D01*
X134690341Y-114757579D01*
X134663202Y-114757745D01*
X134649057Y-114743204D01*
X134648975Y-114743000D01*
X134641905Y-114725779D01*
X134625042Y-114684899D01*
X134599695Y-114623525D01*
X134567171Y-114544819D01*
X134528778Y-114451947D01*
X134485822Y-114348072D01*
X134444222Y-114247502D01*
X134398504Y-114136516D01*
X134356526Y-114033703D01*
X134319548Y-113942215D01*
X134288827Y-113865201D01*
X134265622Y-113805815D01*
X134251190Y-113767209D01*
X134246743Y-113752800D01*
X134257896Y-113736272D01*
X134287069Y-113709930D01*
X134325971Y-113680887D01*
X134436757Y-113589039D01*
X134523351Y-113483759D01*
X134584716Y-113367266D01*
X134619815Y-113241776D01*
X134627608Y-113109507D01*
X134621943Y-113048457D01*
X134591078Y-112921795D01*
X134537920Y-112809941D01*
X134465767Y-112714001D01*
X134377917Y-112635076D01*
X134277665Y-112574270D01*
X134168310Y-112532687D01*
X134053147Y-112511428D01*
X133935475Y-112511599D01*
X133818590Y-112534301D01*
X133705789Y-112580638D01*
X133600369Y-112651713D01*
X133556368Y-112691911D01*
X133471979Y-112795129D01*
X133413222Y-112907925D01*
X133379704Y-113027010D01*
X133371035Y-113149095D01*
X133386823Y-113270893D01*
X133426678Y-113389116D01*
X133490207Y-113500475D01*
X133577021Y-113601684D01*
X133674029Y-113680887D01*
X133714437Y-113711162D01*
X133742982Y-113737219D01*
X133753257Y-113752825D01*
X133747877Y-113769843D01*
X133732575Y-113810500D01*
X133708612Y-113871642D01*
X133677244Y-113950119D01*
X133639732Y-114042780D01*
X133597333Y-114146472D01*
X133555663Y-114247526D01*
X133509690Y-114358607D01*
X133467107Y-114461541D01*
X133429221Y-114553165D01*
X133397340Y-114630316D01*
X133372771Y-114689831D01*
X133356820Y-114728544D01*
X133350910Y-114743000D01*
X133336948Y-114757685D01*
X133309940Y-114757642D01*
X133266413Y-114742099D01*
X133202890Y-114710284D01*
X133202388Y-114710013D01*
X133154560Y-114685323D01*
X133115897Y-114667338D01*
X133094095Y-114659614D01*
X133093133Y-114659543D01*
X133076721Y-114667378D01*
X133040487Y-114689165D01*
X132988474Y-114722328D01*
X132924725Y-114764291D01*
X132854060Y-114811943D01*
X132782116Y-114860191D01*
X132717274Y-114902151D01*
X132663735Y-114935227D01*
X132625697Y-114956821D01*
X132607533Y-114964343D01*
X132590808Y-114954457D01*
X132557180Y-114926826D01*
X132510010Y-114884495D01*
X132452658Y-114830505D01*
X132388484Y-114767899D01*
X132367497Y-114746983D01*
X132150499Y-114529623D01*
X132315668Y-114287220D01*
X132365864Y-114212781D01*
X132409919Y-114145972D01*
X132445362Y-114090665D01*
X132469719Y-114050729D01*
X132480522Y-114030036D01*
X132480838Y-114028563D01*
X132475143Y-114009058D01*
X132459826Y-113969822D01*
X132437537Y-113917430D01*
X132421893Y-113882355D01*
X132392641Y-113815201D01*
X132365094Y-113747358D01*
X132343737Y-113690034D01*
X132337935Y-113672572D01*
X132321452Y-113625938D01*
X132305340Y-113589905D01*
X132296490Y-113576287D01*
X132276960Y-113567952D01*
X132234334Y-113556137D01*
X132174145Y-113542181D01*
X132101922Y-113527422D01*
X132069600Y-113521355D01*
X131987522Y-113506273D01*
X131908795Y-113491669D01*
X131841109Y-113478980D01*
X131792160Y-113469642D01*
X131782943Y-113467839D01*
X131706743Y-113452799D01*
X131706743Y-113135492D01*
X131706914Y-113031154D01*
X131707616Y-112952213D01*
X131709134Y-112895038D01*
X131711749Y-112855999D01*
X131715746Y-112831465D01*
X131721409Y-112817805D01*
X131729020Y-112811389D01*
X131732143Y-112810199D01*
X131750978Y-112805980D01*
X131792588Y-112797562D01*
X131851630Y-112785961D01*
X131922757Y-112772195D01*
X132000625Y-112757280D01*
X132079887Y-112742232D01*
X132155198Y-112728069D01*
X132221213Y-112715806D01*
X132272587Y-112706461D01*
X132303975Y-112701050D01*
X132310959Y-112700114D01*
X132317285Y-112687596D01*
X132331290Y-112654246D01*
X132350355Y-112606377D01*
X132357634Y-112587629D01*
X132386996Y-112515195D01*
X132421571Y-112435170D01*
X132452537Y-112367728D01*
X132475323Y-112316159D01*
X132490482Y-112273785D01*
X132495542Y-112247834D01*
X132494736Y-112244356D01*
X132484041Y-112227936D01*
X132459620Y-112191417D01*
X132424095Y-112138687D01*
X132380087Y-112073635D01*
X132330217Y-112000151D01*
X132320356Y-111985645D01*
X132262492Y-111899704D01*
X132219956Y-111834261D01*
X132191054Y-111786304D01*
X132174090Y-111752820D01*
X132167367Y-111730795D01*
X132169190Y-111717217D01*
X132169236Y-111717131D01*
X132183586Y-111699297D01*
X132215323Y-111664817D01*
X132261010Y-111617268D01*
X132317204Y-111560222D01*
X132380468Y-111497255D01*
X132387602Y-111490227D01*
X132467330Y-111413020D01*
X132528857Y-111356330D01*
X132573421Y-111319110D01*
X132602257Y-111300315D01*
X132614958Y-111297889D01*
X132633494Y-111308471D01*
X132671961Y-111332916D01*
X132726386Y-111368612D01*
X132792798Y-111412947D01*
X132867225Y-111463311D01*
X132884601Y-111475160D01*
X133131297Y-111643626D01*
X133242706Y-111593062D01*
X133310457Y-111563595D01*
X133383183Y-111533959D01*
X133445703Y-111510330D01*
X133448457Y-111509358D01*
X133497360Y-111491457D01*
X133535057Y-111476320D01*
X133553425Y-111467210D01*
X133553456Y-111467184D01*
X133559285Y-111450717D01*
X133569192Y-111410219D01*
X133582195Y-111350242D01*
X133597309Y-111275340D01*
X133613552Y-111190064D01*
X133614881Y-111182875D01*
X133631175Y-111095014D01*
X133646133Y-111015260D01*
X133658791Y-110948681D01*
X133668186Y-110900347D01*
X133673354Y-110875325D01*
X133673444Y-110874943D01*
X133676589Y-110864299D01*
X133682704Y-110856262D01*
X133695453Y-110850467D01*
X133718500Y-110846547D01*
X133755509Y-110844135D01*
X133810144Y-110842865D01*
X133886067Y-110842371D01*
X133986944Y-110842286D01*
X134000000Y-110842286D01*
X134103910Y-110842348D01*
G36*
X137153595Y-115566966D02*
G01*
X137211021Y-115604497D01*
X137238719Y-115638096D01*
X137260662Y-115699064D01*
X137262405Y-115747308D01*
X137258457Y-115811816D01*
X137109686Y-115876934D01*
X137037349Y-115910202D01*
X136990084Y-115936964D01*
X136965507Y-115960144D01*
X136961237Y-115982667D01*
X136974889Y-116007455D01*
X136989943Y-116023886D01*
X137033746Y-116050235D01*
X137081389Y-116052081D01*
X137125145Y-116031546D01*
X137157289Y-115990752D01*
X137163038Y-115976347D01*
X137190576Y-115931356D01*
X137222258Y-115912182D01*
X137265714Y-115895779D01*
X137265714Y-115957966D01*
X137261872Y-116000283D01*
X137246823Y-116035969D01*
X137215280Y-116076943D01*
X137210592Y-116082267D01*
X137175506Y-116118720D01*
X137145347Y-116138283D01*
X137107615Y-116147283D01*
X137076335Y-116150230D01*
X137020385Y-116150965D01*
X136980555Y-116141660D01*
X136955708Y-116127846D01*
X136916656Y-116097467D01*
X136889625Y-116064613D01*
X136872517Y-116023294D01*
X136863238Y-115967521D01*
X136859693Y-115891305D01*
X136859410Y-115852622D01*
X136860372Y-115806247D01*
X136948007Y-115806247D01*
X136949023Y-115831126D01*
X136951556Y-115835200D01*
X136968274Y-115829665D01*
X137004249Y-115815017D01*
X137052331Y-115794190D01*
X137062386Y-115789714D01*
X137123152Y-115758814D01*
X137156632Y-115731657D01*
X137163990Y-115706220D01*
X137146391Y-115680481D01*
X137131856Y-115669109D01*
X137079410Y-115646364D01*
X137030322Y-115650122D01*
X136989227Y-115677884D01*
X136960758Y-115727152D01*
X136951631Y-115766257D01*
X136948007Y-115806247D01*
X136860372Y-115806247D01*
X136861285Y-115762249D01*
X136868196Y-115695384D01*
X136881884Y-115646695D01*
X136904096Y-115610849D01*
X136936574Y-115582513D01*
X136950733Y-115573355D01*
X137015053Y-115549507D01*
X137085473Y-115548006D01*
X137153595Y-115566966D01*
G37*
X137153595Y-115566966D02*
X137211021Y-115604497D01*
X137238719Y-115638096D01*
X137260662Y-115699064D01*
X137262405Y-115747308D01*
X137258457Y-115811816D01*
X137109686Y-115876934D01*
X137037349Y-115910202D01*
X136990084Y-115936964D01*
X136965507Y-115960144D01*
X136961237Y-115982667D01*
X136974889Y-116007455D01*
X136989943Y-116023886D01*
X137033746Y-116050235D01*
X137081389Y-116052081D01*
X137125145Y-116031546D01*
X137157289Y-115990752D01*
X137163038Y-115976347D01*
X137190576Y-115931356D01*
X137222258Y-115912182D01*
X137265714Y-115895779D01*
X137265714Y-115957966D01*
X137261872Y-116000283D01*
X137246823Y-116035969D01*
X137215280Y-116076943D01*
X137210592Y-116082267D01*
X137175506Y-116118720D01*
X137145347Y-116138283D01*
X137107615Y-116147283D01*
X137076335Y-116150230D01*
X137020385Y-116150965D01*
X136980555Y-116141660D01*
X136955708Y-116127846D01*
X136916656Y-116097467D01*
X136889625Y-116064613D01*
X136872517Y-116023294D01*
X136863238Y-115967521D01*
X136859693Y-115891305D01*
X136859410Y-115852622D01*
X136860372Y-115806247D01*
X136948007Y-115806247D01*
X136949023Y-115831126D01*
X136951556Y-115835200D01*
X136968274Y-115829665D01*
X137004249Y-115815017D01*
X137052331Y-115794190D01*
X137062386Y-115789714D01*
X137123152Y-115758814D01*
X137156632Y-115731657D01*
X137163990Y-115706220D01*
X137146391Y-115680481D01*
X137131856Y-115669109D01*
X137079410Y-115646364D01*
X137030322Y-115650122D01*
X136989227Y-115677884D01*
X136960758Y-115727152D01*
X136951631Y-115766257D01*
X136948007Y-115806247D01*
X136860372Y-115806247D01*
X136861285Y-115762249D01*
X136868196Y-115695384D01*
X136881884Y-115646695D01*
X136904096Y-115610849D01*
X136936574Y-115582513D01*
X136950733Y-115573355D01*
X137015053Y-115549507D01*
X137085473Y-115548006D01*
X137153595Y-115566966D01*
G36*
X136652600Y-115558752D02*
G01*
X136669948Y-115566334D01*
X136711356Y-115599128D01*
X136746765Y-115646547D01*
X136768664Y-115697151D01*
X136772229Y-115722098D01*
X136760279Y-115756927D01*
X136734067Y-115775357D01*
X136705964Y-115786516D01*
X136693095Y-115788572D01*
X136686829Y-115773649D01*
X136674456Y-115741175D01*
X136669028Y-115726502D01*
X136638590Y-115675744D01*
X136594520Y-115650427D01*
X136538010Y-115651206D01*
X136533825Y-115652203D01*
X136503655Y-115666507D01*
X136481476Y-115694393D01*
X136466327Y-115739287D01*
X136457250Y-115804615D01*
X136453286Y-115893804D01*
X136452914Y-115941261D01*
X136452730Y-116016071D01*
X136451522Y-116067069D01*
X136448309Y-116099471D01*
X136442109Y-116118495D01*
X136431940Y-116129356D01*
X136416819Y-116137272D01*
X136415946Y-116137670D01*
X136386828Y-116149981D01*
X136372403Y-116154514D01*
X136370186Y-116140809D01*
X136368289Y-116102925D01*
X136366847Y-116045715D01*
X136365998Y-115974027D01*
X136365829Y-115921565D01*
X136366692Y-115820047D01*
X136370070Y-115743032D01*
X136377142Y-115686023D01*
X136389088Y-115644526D01*
X136407090Y-115614043D01*
X136432327Y-115590080D01*
X136457247Y-115573355D01*
X136517171Y-115551097D01*
X136586911Y-115546076D01*
X136652600Y-115558752D01*
G37*
X136652600Y-115558752D02*
X136669948Y-115566334D01*
X136711356Y-115599128D01*
X136746765Y-115646547D01*
X136768664Y-115697151D01*
X136772229Y-115722098D01*
X136760279Y-115756927D01*
X136734067Y-115775357D01*
X136705964Y-115786516D01*
X136693095Y-115788572D01*
X136686829Y-115773649D01*
X136674456Y-115741175D01*
X136669028Y-115726502D01*
X136638590Y-115675744D01*
X136594520Y-115650427D01*
X136538010Y-115651206D01*
X136533825Y-115652203D01*
X136503655Y-115666507D01*
X136481476Y-115694393D01*
X136466327Y-115739287D01*
X136457250Y-115804615D01*
X136453286Y-115893804D01*
X136452914Y-115941261D01*
X136452730Y-116016071D01*
X136451522Y-116067069D01*
X136448309Y-116099471D01*
X136442109Y-116118495D01*
X136431940Y-116129356D01*
X136416819Y-116137272D01*
X136415946Y-116137670D01*
X136386828Y-116149981D01*
X136372403Y-116154514D01*
X136370186Y-116140809D01*
X136368289Y-116102925D01*
X136366847Y-116045715D01*
X136365998Y-115974027D01*
X136365829Y-115921565D01*
X136366692Y-115820047D01*
X136370070Y-115743032D01*
X136377142Y-115686023D01*
X136389088Y-115644526D01*
X136407090Y-115614043D01*
X136432327Y-115590080D01*
X136457247Y-115573355D01*
X136517171Y-115551097D01*
X136586911Y-115546076D01*
X136652600Y-115558752D01*
G36*
X136144876Y-115556335D02*
G01*
X136186667Y-115575344D01*
X136219469Y-115598378D01*
X136243503Y-115624133D01*
X136260097Y-115657358D01*
X136270577Y-115702800D01*
X136276271Y-115765207D01*
X136278507Y-115849327D01*
X136278743Y-115904721D01*
X136278743Y-116120826D01*
X136241774Y-116137670D01*
X136212656Y-116149981D01*
X136198231Y-116154514D01*
X136195472Y-116141025D01*
X136193282Y-116104653D01*
X136191942Y-116051542D01*
X136191657Y-116009372D01*
X136190434Y-115948447D01*
X136187136Y-115900115D01*
X136182321Y-115870518D01*
X136178496Y-115864229D01*
X136152783Y-115870652D01*
X136112418Y-115887125D01*
X136065679Y-115909458D01*
X136020845Y-115933457D01*
X135986193Y-115954930D01*
X135970002Y-115969685D01*
X135969938Y-115969845D01*
X135971330Y-115997152D01*
X135983818Y-116023219D01*
X136005743Y-116044392D01*
X136037743Y-116051474D01*
X136065092Y-116050649D01*
X136103826Y-116050042D01*
X136124158Y-116059116D01*
X136136369Y-116083092D01*
X136137909Y-116087613D01*
X136143203Y-116121806D01*
X136129047Y-116142568D01*
X136092148Y-116152462D01*
X136052289Y-116154292D01*
X135980562Y-116140727D01*
X135943432Y-116121355D01*
X135897576Y-116075845D01*
X135873256Y-116019983D01*
X135871073Y-115960957D01*
X135891629Y-115905953D01*
X135922549Y-115871486D01*
X135953420Y-115852189D01*
X136001942Y-115827759D01*
X136058485Y-115802985D01*
X136067910Y-115799199D01*
X136130019Y-115771791D01*
X136165822Y-115747634D01*
X136177337Y-115723619D01*
X136166580Y-115696635D01*
X136148114Y-115675543D01*
X136104469Y-115649572D01*
X136056446Y-115647624D01*
X136012406Y-115667637D01*
X135980709Y-115707551D01*
X135976549Y-115717848D01*
X135952327Y-115755724D01*
X135916965Y-115783842D01*
X135872343Y-115806917D01*
X135872343Y-115741485D01*
X135874969Y-115701506D01*
X135886230Y-115669997D01*
X135911199Y-115636378D01*
X135935169Y-115610484D01*
X135972441Y-115573817D01*
X136001401Y-115554121D01*
X136032505Y-115546220D01*
X136067713Y-115544914D01*
X136144876Y-115556335D01*
G37*
X136144876Y-115556335D02*
X136186667Y-115575344D01*
X136219469Y-115598378D01*
X136243503Y-115624133D01*
X136260097Y-115657358D01*
X136270577Y-115702800D01*
X136276271Y-115765207D01*
X136278507Y-115849327D01*
X136278743Y-115904721D01*
X136278743Y-116120826D01*
X136241774Y-116137670D01*
X136212656Y-116149981D01*
X136198231Y-116154514D01*
X136195472Y-116141025D01*
X136193282Y-116104653D01*
X136191942Y-116051542D01*
X136191657Y-116009372D01*
X136190434Y-115948447D01*
X136187136Y-115900115D01*
X136182321Y-115870518D01*
X136178496Y-115864229D01*
X136152783Y-115870652D01*
X136112418Y-115887125D01*
X136065679Y-115909458D01*
X136020845Y-115933457D01*
X135986193Y-115954930D01*
X135970002Y-115969685D01*
X135969938Y-115969845D01*
X135971330Y-115997152D01*
X135983818Y-116023219D01*
X136005743Y-116044392D01*
X136037743Y-116051474D01*
X136065092Y-116050649D01*
X136103826Y-116050042D01*
X136124158Y-116059116D01*
X136136369Y-116083092D01*
X136137909Y-116087613D01*
X136143203Y-116121806D01*
X136129047Y-116142568D01*
X136092148Y-116152462D01*
X136052289Y-116154292D01*
X135980562Y-116140727D01*
X135943432Y-116121355D01*
X135897576Y-116075845D01*
X135873256Y-116019983D01*
X135871073Y-115960957D01*
X135891629Y-115905953D01*
X135922549Y-115871486D01*
X135953420Y-115852189D01*
X136001942Y-115827759D01*
X136058485Y-115802985D01*
X136067910Y-115799199D01*
X136130019Y-115771791D01*
X136165822Y-115747634D01*
X136177337Y-115723619D01*
X136166580Y-115696635D01*
X136148114Y-115675543D01*
X136104469Y-115649572D01*
X136056446Y-115647624D01*
X136012406Y-115667637D01*
X135980709Y-115707551D01*
X135976549Y-115717848D01*
X135952327Y-115755724D01*
X135916965Y-115783842D01*
X135872343Y-115806917D01*
X135872343Y-115741485D01*
X135874969Y-115701506D01*
X135886230Y-115669997D01*
X135911199Y-115636378D01*
X135935169Y-115610484D01*
X135972441Y-115573817D01*
X136001401Y-115554121D01*
X136032505Y-115546220D01*
X136067713Y-115544914D01*
X136144876Y-115556335D01*
G36*
X135779833Y-115558663D02*
G01*
X135782048Y-115596850D01*
X135783784Y-115654886D01*
X135784899Y-115728180D01*
X135785257Y-115805055D01*
X135785257Y-116065196D01*
X135739326Y-116111127D01*
X135707675Y-116139429D01*
X135679890Y-116150893D01*
X135641915Y-116150168D01*
X135626840Y-116148321D01*
X135579726Y-116142948D01*
X135540756Y-116139869D01*
X135531257Y-116139585D01*
X135499233Y-116141445D01*
X135453432Y-116146114D01*
X135435674Y-116148321D01*
X135392057Y-116151735D01*
X135362745Y-116144320D01*
X135333680Y-116121427D01*
X135323188Y-116111127D01*
X135277257Y-116065196D01*
X135277257Y-115578602D01*
X135314226Y-115561758D01*
X135346059Y-115549282D01*
X135364683Y-115544914D01*
X135369458Y-115558718D01*
X135373921Y-115597286D01*
X135377775Y-115656356D01*
X135380722Y-115731663D01*
X135382143Y-115795286D01*
X135386114Y-116045657D01*
X135420759Y-116050556D01*
X135452268Y-116047131D01*
X135467708Y-116036041D01*
X135472023Y-116015308D01*
X135475708Y-115971145D01*
X135478469Y-115909146D01*
X135480012Y-115834909D01*
X135480235Y-115796706D01*
X135480457Y-115576783D01*
X135526166Y-115560849D01*
X135558518Y-115550015D01*
X135576115Y-115544962D01*
X135576623Y-115544914D01*
X135578388Y-115558648D01*
X135580329Y-115596730D01*
X135582282Y-115654482D01*
X135584084Y-115727227D01*
X135585343Y-115795286D01*
X135589314Y-116045657D01*
X135676400Y-116045657D01*
X135680396Y-115817240D01*
X135684392Y-115588822D01*
X135726847Y-115566868D01*
X135758192Y-115551793D01*
X135776744Y-115544951D01*
X135777279Y-115544914D01*
X135779833Y-115558663D01*
G37*
X135779833Y-115558663D02*
X135782048Y-115596850D01*
X135783784Y-115654886D01*
X135784899Y-115728180D01*
X135785257Y-115805055D01*
X135785257Y-116065196D01*
X135739326Y-116111127D01*
X135707675Y-116139429D01*
X135679890Y-116150893D01*
X135641915Y-116150168D01*
X135626840Y-116148321D01*
X135579726Y-116142948D01*
X135540756Y-116139869D01*
X135531257Y-116139585D01*
X135499233Y-116141445D01*
X135453432Y-116146114D01*
X135435674Y-116148321D01*
X135392057Y-116151735D01*
X135362745Y-116144320D01*
X135333680Y-116121427D01*
X135323188Y-116111127D01*
X135277257Y-116065196D01*
X135277257Y-115578602D01*
X135314226Y-115561758D01*
X135346059Y-115549282D01*
X135364683Y-115544914D01*
X135369458Y-115558718D01*
X135373921Y-115597286D01*
X135377775Y-115656356D01*
X135380722Y-115731663D01*
X135382143Y-115795286D01*
X135386114Y-116045657D01*
X135420759Y-116050556D01*
X135452268Y-116047131D01*
X135467708Y-116036041D01*
X135472023Y-116015308D01*
X135475708Y-115971145D01*
X135478469Y-115909146D01*
X135480012Y-115834909D01*
X135480235Y-115796706D01*
X135480457Y-115576783D01*
X135526166Y-115560849D01*
X135558518Y-115550015D01*
X135576115Y-115544962D01*
X135576623Y-115544914D01*
X135578388Y-115558648D01*
X135580329Y-115596730D01*
X135582282Y-115654482D01*
X135584084Y-115727227D01*
X135585343Y-115795286D01*
X135589314Y-116045657D01*
X135676400Y-116045657D01*
X135680396Y-115817240D01*
X135684392Y-115588822D01*
X135726847Y-115566868D01*
X135758192Y-115551793D01*
X135776744Y-115544951D01*
X135777279Y-115544914D01*
X135779833Y-115558663D01*
G36*
X135190117Y-115665358D02*
G01*
X135189933Y-115773837D01*
X135189219Y-115857287D01*
X135187675Y-115919704D01*
X135185001Y-115965085D01*
X135180894Y-115997429D01*
X135175055Y-116020733D01*
X135167182Y-116038995D01*
X135161221Y-116049418D01*
X135111855Y-116105945D01*
X135049264Y-116141377D01*
X134980013Y-116154090D01*
X134910668Y-116142463D01*
X134869375Y-116121568D01*
X134826025Y-116085422D01*
X134796481Y-116041276D01*
X134778655Y-115983462D01*
X134770463Y-115906313D01*
X134769302Y-115849714D01*
X134769458Y-115845647D01*
X134870857Y-115845647D01*
X134871476Y-115910550D01*
X134874314Y-115953514D01*
X134880840Y-115981622D01*
X134892523Y-116001953D01*
X134906483Y-116017288D01*
X134953365Y-116046890D01*
X135003701Y-116049419D01*
X135051276Y-116024705D01*
X135054979Y-116021356D01*
X135070783Y-116003935D01*
X135080693Y-115983209D01*
X135086058Y-115952362D01*
X135088228Y-115904577D01*
X135088571Y-115851748D01*
X135087827Y-115785381D01*
X135084748Y-115741106D01*
X135078061Y-115712009D01*
X135066496Y-115691173D01*
X135057013Y-115680107D01*
X135012960Y-115652198D01*
X134962224Y-115648843D01*
X134913796Y-115670159D01*
X134904450Y-115678073D01*
X134888540Y-115695647D01*
X134878610Y-115716587D01*
X134873278Y-115747782D01*
X134871163Y-115796122D01*
X134870857Y-115845647D01*
X134769458Y-115845647D01*
X134772810Y-115758568D01*
X134784726Y-115690086D01*
X134807135Y-115638600D01*
X134842124Y-115598443D01*
X134869375Y-115577861D01*
X134918907Y-115555625D01*
X134976316Y-115545304D01*
X135029682Y-115548067D01*
X135059543Y-115559212D01*
X135071261Y-115562383D01*
X135079037Y-115550557D01*
X135084465Y-115518866D01*
X135088571Y-115470593D01*
X135093067Y-115416829D01*
X135099313Y-115384482D01*
X135110676Y-115365985D01*
X135130528Y-115353770D01*
X135143000Y-115348362D01*
X135190171Y-115328601D01*
X135190117Y-115665358D01*
G37*
X135190117Y-115665358D02*
X135189933Y-115773837D01*
X135189219Y-115857287D01*
X135187675Y-115919704D01*
X135185001Y-115965085D01*
X135180894Y-115997429D01*
X135175055Y-116020733D01*
X135167182Y-116038995D01*
X135161221Y-116049418D01*
X135111855Y-116105945D01*
X135049264Y-116141377D01*
X134980013Y-116154090D01*
X134910668Y-116142463D01*
X134869375Y-116121568D01*
X134826025Y-116085422D01*
X134796481Y-116041276D01*
X134778655Y-115983462D01*
X134770463Y-115906313D01*
X134769302Y-115849714D01*
X134769458Y-115845647D01*
X134870857Y-115845647D01*
X134871476Y-115910550D01*
X134874314Y-115953514D01*
X134880840Y-115981622D01*
X134892523Y-116001953D01*
X134906483Y-116017288D01*
X134953365Y-116046890D01*
X135003701Y-116049419D01*
X135051276Y-116024705D01*
X135054979Y-116021356D01*
X135070783Y-116003935D01*
X135080693Y-115983209D01*
X135086058Y-115952362D01*
X135088228Y-115904577D01*
X135088571Y-115851748D01*
X135087827Y-115785381D01*
X135084748Y-115741106D01*
X135078061Y-115712009D01*
X135066496Y-115691173D01*
X135057013Y-115680107D01*
X135012960Y-115652198D01*
X134962224Y-115648843D01*
X134913796Y-115670159D01*
X134904450Y-115678073D01*
X134888540Y-115695647D01*
X134878610Y-115716587D01*
X134873278Y-115747782D01*
X134871163Y-115796122D01*
X134870857Y-115845647D01*
X134769458Y-115845647D01*
X134772810Y-115758568D01*
X134784726Y-115690086D01*
X134807135Y-115638600D01*
X134842124Y-115598443D01*
X134869375Y-115577861D01*
X134918907Y-115555625D01*
X134976316Y-115545304D01*
X135029682Y-115548067D01*
X135059543Y-115559212D01*
X135071261Y-115562383D01*
X135079037Y-115550557D01*
X135084465Y-115518866D01*
X135088571Y-115470593D01*
X135093067Y-115416829D01*
X135099313Y-115384482D01*
X135110676Y-115365985D01*
X135130528Y-115353770D01*
X135143000Y-115348362D01*
X135190171Y-115328601D01*
X135190117Y-115665358D01*
G36*
X134529926Y-115549755D02*
G01*
X134595858Y-115574084D01*
X134649273Y-115617117D01*
X134670164Y-115647409D01*
X134692939Y-115702994D01*
X134692466Y-115743186D01*
X134668562Y-115770217D01*
X134659717Y-115774813D01*
X134621530Y-115789144D01*
X134602028Y-115785472D01*
X134595422Y-115761407D01*
X134595086Y-115748114D01*
X134582992Y-115699210D01*
X134551471Y-115664999D01*
X134507659Y-115648476D01*
X134458695Y-115652634D01*
X134418894Y-115674227D01*
X134405450Y-115686544D01*
X134395921Y-115701487D01*
X134389485Y-115724075D01*
X134385317Y-115759328D01*
X134382597Y-115812266D01*
X134380502Y-115887907D01*
X134379960Y-115911857D01*
X134377981Y-115993790D01*
X134375731Y-116051455D01*
X134372357Y-116089608D01*
X134367006Y-116113004D01*
X134358824Y-116126398D01*
X134346959Y-116134545D01*
X134339362Y-116138144D01*
X134307102Y-116150452D01*
X134288111Y-116154514D01*
X134281836Y-116140948D01*
X134278006Y-116099934D01*
X134276600Y-116030999D01*
X134277598Y-115933669D01*
X134277908Y-115918657D01*
X134280101Y-115829859D01*
X134282693Y-115765019D01*
X134286382Y-115719067D01*
X134291864Y-115686935D01*
X134299835Y-115663553D01*
X134310993Y-115643852D01*
X134316830Y-115635410D01*
X134350296Y-115598057D01*
X134387727Y-115569003D01*
X134392309Y-115566467D01*
X134459426Y-115546443D01*
X134529926Y-115549755D01*
G37*
X134529926Y-115549755D02*
X134595858Y-115574084D01*
X134649273Y-115617117D01*
X134670164Y-115647409D01*
X134692939Y-115702994D01*
X134692466Y-115743186D01*
X134668562Y-115770217D01*
X134659717Y-115774813D01*
X134621530Y-115789144D01*
X134602028Y-115785472D01*
X134595422Y-115761407D01*
X134595086Y-115748114D01*
X134582992Y-115699210D01*
X134551471Y-115664999D01*
X134507659Y-115648476D01*
X134458695Y-115652634D01*
X134418894Y-115674227D01*
X134405450Y-115686544D01*
X134395921Y-115701487D01*
X134389485Y-115724075D01*
X134385317Y-115759328D01*
X134382597Y-115812266D01*
X134380502Y-115887907D01*
X134379960Y-115911857D01*
X134377981Y-115993790D01*
X134375731Y-116051455D01*
X134372357Y-116089608D01*
X134367006Y-116113004D01*
X134358824Y-116126398D01*
X134346959Y-116134545D01*
X134339362Y-116138144D01*
X134307102Y-116150452D01*
X134288111Y-116154514D01*
X134281836Y-116140948D01*
X134278006Y-116099934D01*
X134276600Y-116030999D01*
X134277598Y-115933669D01*
X134277908Y-115918657D01*
X134280101Y-115829859D01*
X134282693Y-115765019D01*
X134286382Y-115719067D01*
X134291864Y-115686935D01*
X134299835Y-115663553D01*
X134310993Y-115643852D01*
X134316830Y-115635410D01*
X134350296Y-115598057D01*
X134387727Y-115569003D01*
X134392309Y-115566467D01*
X134459426Y-115546443D01*
X134529926Y-115549755D01*
G36*
X134039744Y-115550968D02*
G01*
X134096616Y-115572087D01*
X134097267Y-115572493D01*
X134132440Y-115598380D01*
X134158407Y-115628633D01*
X134176670Y-115668058D01*
X134188732Y-115721462D01*
X134196096Y-115793651D01*
X134200264Y-115889432D01*
X134200629Y-115903078D01*
X134205876Y-116108842D01*
X134161716Y-116131678D01*
X134129763Y-116147110D01*
X134110470Y-116154423D01*
X134109578Y-116154514D01*
X134106239Y-116141022D01*
X134103587Y-116104626D01*
X134101956Y-116051452D01*
X134101600Y-116008393D01*
X134101592Y-115938641D01*
X134098403Y-115894837D01*
X134087288Y-115873944D01*
X134063501Y-115872925D01*
X134022296Y-115888741D01*
X133960086Y-115917815D01*
X133914341Y-115941963D01*
X133890813Y-115962913D01*
X133883896Y-115985747D01*
X133883886Y-115986877D01*
X133895299Y-116026212D01*
X133929092Y-116047462D01*
X133980809Y-116050539D01*
X134018061Y-116050006D01*
X134037703Y-116060735D01*
X134049952Y-116086505D01*
X134057002Y-116119337D01*
X134046842Y-116137966D01*
X134043017Y-116140632D01*
X134007001Y-116151340D01*
X133956566Y-116152856D01*
X133904626Y-116145759D01*
X133867822Y-116132788D01*
X133816938Y-116089585D01*
X133788014Y-116029446D01*
X133782286Y-115982462D01*
X133786657Y-115940082D01*
X133802475Y-115905488D01*
X133833797Y-115874763D01*
X133884678Y-115843990D01*
X133959176Y-115809252D01*
X133963714Y-115807288D01*
X134030821Y-115776287D01*
X134072232Y-115750862D01*
X134089981Y-115728014D01*
X134086107Y-115704745D01*
X134062643Y-115678056D01*
X134055627Y-115671914D01*
X134008630Y-115648100D01*
X133959933Y-115649103D01*
X133917522Y-115672451D01*
X133889384Y-115715675D01*
X133886769Y-115724160D01*
X133861308Y-115765308D01*
X133829001Y-115785128D01*
X133782286Y-115804770D01*
X133782286Y-115753950D01*
X133796496Y-115680082D01*
X133838675Y-115612327D01*
X133860624Y-115589661D01*
X133910517Y-115560569D01*
X133973967Y-115547400D01*
X134039744Y-115550968D01*
G37*
X134039744Y-115550968D02*
X134096616Y-115572087D01*
X134097267Y-115572493D01*
X134132440Y-115598380D01*
X134158407Y-115628633D01*
X134176670Y-115668058D01*
X134188732Y-115721462D01*
X134196096Y-115793651D01*
X134200264Y-115889432D01*
X134200629Y-115903078D01*
X134205876Y-116108842D01*
X134161716Y-116131678D01*
X134129763Y-116147110D01*
X134110470Y-116154423D01*
X134109578Y-116154514D01*
X134106239Y-116141022D01*
X134103587Y-116104626D01*
X134101956Y-116051452D01*
X134101600Y-116008393D01*
X134101592Y-115938641D01*
X134098403Y-115894837D01*
X134087288Y-115873944D01*
X134063501Y-115872925D01*
X134022296Y-115888741D01*
X133960086Y-115917815D01*
X133914341Y-115941963D01*
X133890813Y-115962913D01*
X133883896Y-115985747D01*
X133883886Y-115986877D01*
X133895299Y-116026212D01*
X133929092Y-116047462D01*
X133980809Y-116050539D01*
X134018061Y-116050006D01*
X134037703Y-116060735D01*
X134049952Y-116086505D01*
X134057002Y-116119337D01*
X134046842Y-116137966D01*
X134043017Y-116140632D01*
X134007001Y-116151340D01*
X133956566Y-116152856D01*
X133904626Y-116145759D01*
X133867822Y-116132788D01*
X133816938Y-116089585D01*
X133788014Y-116029446D01*
X133782286Y-115982462D01*
X133786657Y-115940082D01*
X133802475Y-115905488D01*
X133833797Y-115874763D01*
X133884678Y-115843990D01*
X133959176Y-115809252D01*
X133963714Y-115807288D01*
X134030821Y-115776287D01*
X134072232Y-115750862D01*
X134089981Y-115728014D01*
X134086107Y-115704745D01*
X134062643Y-115678056D01*
X134055627Y-115671914D01*
X134008630Y-115648100D01*
X133959933Y-115649103D01*
X133917522Y-115672451D01*
X133889384Y-115715675D01*
X133886769Y-115724160D01*
X133861308Y-115765308D01*
X133829001Y-115785128D01*
X133782286Y-115804770D01*
X133782286Y-115753950D01*
X133796496Y-115680082D01*
X133838675Y-115612327D01*
X133860624Y-115589661D01*
X133910517Y-115560569D01*
X133973967Y-115547400D01*
X134039744Y-115550968D01*
G36*
X133375886Y-115451289D02*
G01*
X133380139Y-115510613D01*
X133385025Y-115545572D01*
X133391795Y-115560820D01*
X133401702Y-115561015D01*
X133404914Y-115559195D01*
X133447644Y-115546015D01*
X133503227Y-115546785D01*
X133559737Y-115560333D01*
X133595082Y-115577861D01*
X133631321Y-115605861D01*
X133657813Y-115637549D01*
X133675999Y-115677813D01*
X133687322Y-115731543D01*
X133693222Y-115803626D01*
X133695143Y-115898951D01*
X133695177Y-115917237D01*
X133695200Y-116122646D01*
X133649491Y-116138580D01*
X133617027Y-116149420D01*
X133599215Y-116154468D01*
X133598691Y-116154514D01*
X133596937Y-116140828D01*
X133595444Y-116103076D01*
X133594326Y-116046224D01*
X133593697Y-115975234D01*
X133593600Y-115932073D01*
X133593398Y-115846973D01*
X133592358Y-115785981D01*
X133589831Y-115744177D01*
X133585164Y-115716642D01*
X133577707Y-115698456D01*
X133566811Y-115684698D01*
X133560007Y-115678073D01*
X133513272Y-115651375D01*
X133462272Y-115649375D01*
X133416001Y-115671955D01*
X133407444Y-115680107D01*
X133394893Y-115695436D01*
X133386188Y-115713618D01*
X133380631Y-115739909D01*
X133377526Y-115779562D01*
X133376176Y-115837832D01*
X133375886Y-115918173D01*
X133375886Y-116122646D01*
X133330177Y-116138580D01*
X133297713Y-116149420D01*
X133279901Y-116154468D01*
X133279377Y-116154514D01*
X133278037Y-116140623D01*
X133276828Y-116101439D01*
X133275801Y-116040700D01*
X133275002Y-115962141D01*
X133274481Y-115869498D01*
X133274286Y-115766509D01*
X133274286Y-115369342D01*
X133321457Y-115349444D01*
X133368629Y-115329547D01*
X133375886Y-115451289D01*
G37*
X133375886Y-115451289D02*
X133380139Y-115510613D01*
X133385025Y-115545572D01*
X133391795Y-115560820D01*
X133401702Y-115561015D01*
X133404914Y-115559195D01*
X133447644Y-115546015D01*
X133503227Y-115546785D01*
X133559737Y-115560333D01*
X133595082Y-115577861D01*
X133631321Y-115605861D01*
X133657813Y-115637549D01*
X133675999Y-115677813D01*
X133687322Y-115731543D01*
X133693222Y-115803626D01*
X133695143Y-115898951D01*
X133695177Y-115917237D01*
X133695200Y-116122646D01*
X133649491Y-116138580D01*
X133617027Y-116149420D01*
X133599215Y-116154468D01*
X133598691Y-116154514D01*
X133596937Y-116140828D01*
X133595444Y-116103076D01*
X133594326Y-116046224D01*
X133593697Y-115975234D01*
X133593600Y-115932073D01*
X133593398Y-115846973D01*
X133592358Y-115785981D01*
X133589831Y-115744177D01*
X133585164Y-115716642D01*
X133577707Y-115698456D01*
X133566811Y-115684698D01*
X133560007Y-115678073D01*
X133513272Y-115651375D01*
X133462272Y-115649375D01*
X133416001Y-115671955D01*
X133407444Y-115680107D01*
X133394893Y-115695436D01*
X133386188Y-115713618D01*
X133380631Y-115739909D01*
X133377526Y-115779562D01*
X133376176Y-115837832D01*
X133375886Y-115918173D01*
X133375886Y-116122646D01*
X133330177Y-116138580D01*
X133297713Y-116149420D01*
X133279901Y-116154468D01*
X133279377Y-116154514D01*
X133278037Y-116140623D01*
X133276828Y-116101439D01*
X133275801Y-116040700D01*
X133275002Y-115962141D01*
X133274481Y-115869498D01*
X133274286Y-115766509D01*
X133274286Y-115369342D01*
X133321457Y-115349444D01*
X133368629Y-115329547D01*
X133375886Y-115451289D01*
G36*
X132168303Y-115531239D02*
G01*
X132225527Y-115569735D01*
X132269749Y-115625335D01*
X132296167Y-115696086D01*
X132301510Y-115748162D01*
X132300903Y-115769893D01*
X132295822Y-115786531D01*
X132281855Y-115801437D01*
X132254589Y-115817973D01*
X132209612Y-115839498D01*
X132142511Y-115869374D01*
X132142171Y-115869524D01*
X132080407Y-115897813D01*
X132029759Y-115922933D01*
X131995404Y-115942179D01*
X131982518Y-115952848D01*
X131982514Y-115952934D01*
X131993872Y-115976166D01*
X132020431Y-116001774D01*
X132050923Y-116020221D01*
X132066370Y-116023886D01*
X132108515Y-116011212D01*
X132144808Y-115979471D01*
X132162517Y-115944572D01*
X132179552Y-115918845D01*
X132212922Y-115889546D01*
X132252149Y-115864235D01*
X132286756Y-115850471D01*
X132293993Y-115849714D01*
X132302139Y-115862160D01*
X132302630Y-115893972D01*
X132296643Y-115936866D01*
X132285357Y-115982558D01*
X132269950Y-116022761D01*
X132269171Y-116024322D01*
X132222804Y-116089062D01*
X132162711Y-116133097D01*
X132094465Y-116154711D01*
X132023638Y-116152185D01*
X131955804Y-116123804D01*
X131952788Y-116121808D01*
X131899427Y-116073448D01*
X131864340Y-116010352D01*
X131844922Y-115927387D01*
X131842316Y-115904078D01*
X131837701Y-115794055D01*
X131843233Y-115742748D01*
X131982514Y-115742748D01*
X131984324Y-115774753D01*
X131994222Y-115784093D01*
X132018898Y-115777105D01*
X132057795Y-115760587D01*
X132101275Y-115739881D01*
X132102356Y-115739333D01*
X132139209Y-115719949D01*
X132154000Y-115707013D01*
X132150353Y-115693451D01*
X132134995Y-115675632D01*
X132095923Y-115649845D01*
X132053846Y-115647950D01*
X132016103Y-115666717D01*
X131990034Y-115702915D01*
X131982514Y-115742748D01*
X131843233Y-115742748D01*
X131847194Y-115706027D01*
X131871550Y-115636212D01*
X131905456Y-115587302D01*
X131966653Y-115537878D01*
X132034063Y-115513359D01*
X132102880Y-115511797D01*
X132168303Y-115531239D01*
G37*
X132168303Y-115531239D02*
X132225527Y-115569735D01*
X132269749Y-115625335D01*
X132296167Y-115696086D01*
X132301510Y-115748162D01*
X132300903Y-115769893D01*
X132295822Y-115786531D01*
X132281855Y-115801437D01*
X132254589Y-115817973D01*
X132209612Y-115839498D01*
X132142511Y-115869374D01*
X132142171Y-115869524D01*
X132080407Y-115897813D01*
X132029759Y-115922933D01*
X131995404Y-115942179D01*
X131982518Y-115952848D01*
X131982514Y-115952934D01*
X131993872Y-115976166D01*
X132020431Y-116001774D01*
X132050923Y-116020221D01*
X132066370Y-116023886D01*
X132108515Y-116011212D01*
X132144808Y-115979471D01*
X132162517Y-115944572D01*
X132179552Y-115918845D01*
X132212922Y-115889546D01*
X132252149Y-115864235D01*
X132286756Y-115850471D01*
X132293993Y-115849714D01*
X132302139Y-115862160D01*
X132302630Y-115893972D01*
X132296643Y-115936866D01*
X132285357Y-115982558D01*
X132269950Y-116022761D01*
X132269171Y-116024322D01*
X132222804Y-116089062D01*
X132162711Y-116133097D01*
X132094465Y-116154711D01*
X132023638Y-116152185D01*
X131955804Y-116123804D01*
X131952788Y-116121808D01*
X131899427Y-116073448D01*
X131864340Y-116010352D01*
X131844922Y-115927387D01*
X131842316Y-115904078D01*
X131837701Y-115794055D01*
X131843233Y-115742748D01*
X131982514Y-115742748D01*
X131984324Y-115774753D01*
X131994222Y-115784093D01*
X132018898Y-115777105D01*
X132057795Y-115760587D01*
X132101275Y-115739881D01*
X132102356Y-115739333D01*
X132139209Y-115719949D01*
X132154000Y-115707013D01*
X132150353Y-115693451D01*
X132134995Y-115675632D01*
X132095923Y-115649845D01*
X132053846Y-115647950D01*
X132016103Y-115666717D01*
X131990034Y-115702915D01*
X131982514Y-115742748D01*
X131843233Y-115742748D01*
X131847194Y-115706027D01*
X131871550Y-115636212D01*
X131905456Y-115587302D01*
X131966653Y-115537878D01*
X132034063Y-115513359D01*
X132102880Y-115511797D01*
X132168303Y-115531239D01*
G36*
X131041115Y-115521962D02*
G01*
X131109145Y-115557733D01*
X131159351Y-115615301D01*
X131177185Y-115652312D01*
X131191063Y-115707882D01*
X131198167Y-115778096D01*
X131198840Y-115854727D01*
X131193427Y-115929552D01*
X131182270Y-115994342D01*
X131165714Y-116040873D01*
X131160626Y-116048887D01*
X131100355Y-116108707D01*
X131028769Y-116144535D01*
X130951092Y-116155020D01*
X130872548Y-116138810D01*
X130850689Y-116129092D01*
X130808122Y-116099143D01*
X130770763Y-116059433D01*
X130767232Y-116054397D01*
X130752881Y-116030124D01*
X130743394Y-116004178D01*
X130737790Y-115970022D01*
X130735086Y-115921119D01*
X130734299Y-115850935D01*
X130734286Y-115835200D01*
X130734322Y-115830192D01*
X130879429Y-115830192D01*
X130880273Y-115896430D01*
X130883596Y-115940386D01*
X130890583Y-115968779D01*
X130902416Y-115988325D01*
X130908457Y-115994857D01*
X130943186Y-116019680D01*
X130976903Y-116018548D01*
X131010995Y-115997016D01*
X131031329Y-115974029D01*
X131043371Y-115940478D01*
X131050134Y-115887569D01*
X131050598Y-115881399D01*
X131051752Y-115785513D01*
X131039688Y-115714299D01*
X131014570Y-115668194D01*
X130976560Y-115647635D01*
X130962992Y-115646514D01*
X130927364Y-115652152D01*
X130902994Y-115671686D01*
X130888093Y-115709042D01*
X130880875Y-115768150D01*
X130879429Y-115830192D01*
X130734322Y-115830192D01*
X130734826Y-115760413D01*
X130737096Y-115708159D01*
X130742068Y-115671949D01*
X130750713Y-115645299D01*
X130764005Y-115621722D01*
X130766943Y-115617338D01*
X130816313Y-115558249D01*
X130870109Y-115523947D01*
X130935602Y-115510331D01*
X130957842Y-115509665D01*
X131041115Y-115521962D01*
G37*
X131041115Y-115521962D02*
X131109145Y-115557733D01*
X131159351Y-115615301D01*
X131177185Y-115652312D01*
X131191063Y-115707882D01*
X131198167Y-115778096D01*
X131198840Y-115854727D01*
X131193427Y-115929552D01*
X131182270Y-115994342D01*
X131165714Y-116040873D01*
X131160626Y-116048887D01*
X131100355Y-116108707D01*
X131028769Y-116144535D01*
X130951092Y-116155020D01*
X130872548Y-116138810D01*
X130850689Y-116129092D01*
X130808122Y-116099143D01*
X130770763Y-116059433D01*
X130767232Y-116054397D01*
X130752881Y-116030124D01*
X130743394Y-116004178D01*
X130737790Y-115970022D01*
X130735086Y-115921119D01*
X130734299Y-115850935D01*
X130734286Y-115835200D01*
X130734322Y-115830192D01*
X130879429Y-115830192D01*
X130880273Y-115896430D01*
X130883596Y-115940386D01*
X130890583Y-115968779D01*
X130902416Y-115988325D01*
X130908457Y-115994857D01*
X130943186Y-116019680D01*
X130976903Y-116018548D01*
X131010995Y-115997016D01*
X131031329Y-115974029D01*
X131043371Y-115940478D01*
X131050134Y-115887569D01*
X131050598Y-115881399D01*
X131051752Y-115785513D01*
X131039688Y-115714299D01*
X131014570Y-115668194D01*
X130976560Y-115647635D01*
X130962992Y-115646514D01*
X130927364Y-115652152D01*
X130902994Y-115671686D01*
X130888093Y-115709042D01*
X130880875Y-115768150D01*
X130879429Y-115830192D01*
X130734322Y-115830192D01*
X130734826Y-115760413D01*
X130737096Y-115708159D01*
X130742068Y-115671949D01*
X130750713Y-115645299D01*
X130764005Y-115621722D01*
X130766943Y-115617338D01*
X130816313Y-115558249D01*
X130870109Y-115523947D01*
X130935602Y-115510331D01*
X130957842Y-115509665D01*
X131041115Y-115521962D01*
G36*
X132716093Y-115527780D02*
G01*
X132762672Y-115554723D01*
X132795057Y-115581466D01*
X132818742Y-115609484D01*
X132835059Y-115643748D01*
X132845339Y-115689227D01*
X132850914Y-115750892D01*
X132853116Y-115833711D01*
X132853371Y-115893246D01*
X132853371Y-116112391D01*
X132791686Y-116140044D01*
X132730000Y-116167697D01*
X132722743Y-115927670D01*
X132719744Y-115838028D01*
X132716598Y-115772962D01*
X132712701Y-115728026D01*
X132707447Y-115698770D01*
X132700231Y-115680748D01*
X132690450Y-115669511D01*
X132687312Y-115667079D01*
X132639761Y-115648083D01*
X132591697Y-115655600D01*
X132563086Y-115675543D01*
X132551447Y-115689675D01*
X132543391Y-115708220D01*
X132538271Y-115736334D01*
X132535441Y-115779173D01*
X132534256Y-115841895D01*
X132534057Y-115907261D01*
X132534018Y-115989268D01*
X132532614Y-116047316D01*
X132527914Y-116086465D01*
X132517987Y-116111780D01*
X132500903Y-116128323D01*
X132474732Y-116141156D01*
X132439775Y-116154491D01*
X132401596Y-116169007D01*
X132406141Y-115911389D01*
X132407971Y-115818519D01*
X132410112Y-115749889D01*
X132413181Y-115700711D01*
X132417794Y-115666198D01*
X132424568Y-115641562D01*
X132434119Y-115622016D01*
X132445634Y-115604770D01*
X132501190Y-115549680D01*
X132568980Y-115517822D01*
X132642713Y-115510191D01*
X132716093Y-115527780D01*
G37*
X132716093Y-115527780D02*
X132762672Y-115554723D01*
X132795057Y-115581466D01*
X132818742Y-115609484D01*
X132835059Y-115643748D01*
X132845339Y-115689227D01*
X132850914Y-115750892D01*
X132853116Y-115833711D01*
X132853371Y-115893246D01*
X132853371Y-116112391D01*
X132791686Y-116140044D01*
X132730000Y-116167697D01*
X132722743Y-115927670D01*
X132719744Y-115838028D01*
X132716598Y-115772962D01*
X132712701Y-115728026D01*
X132707447Y-115698770D01*
X132700231Y-115680748D01*
X132690450Y-115669511D01*
X132687312Y-115667079D01*
X132639761Y-115648083D01*
X132591697Y-115655600D01*
X132563086Y-115675543D01*
X132551447Y-115689675D01*
X132543391Y-115708220D01*
X132538271Y-115736334D01*
X132535441Y-115779173D01*
X132534256Y-115841895D01*
X132534057Y-115907261D01*
X132534018Y-115989268D01*
X132532614Y-116047316D01*
X132527914Y-116086465D01*
X132517987Y-116111780D01*
X132500903Y-116128323D01*
X132474732Y-116141156D01*
X132439775Y-116154491D01*
X132401596Y-116169007D01*
X132406141Y-115911389D01*
X132407971Y-115818519D01*
X132410112Y-115749889D01*
X132413181Y-115700711D01*
X132417794Y-115666198D01*
X132424568Y-115641562D01*
X132434119Y-115622016D01*
X132445634Y-115604770D01*
X132501190Y-115549680D01*
X132568980Y-115517822D01*
X132642713Y-115510191D01*
X132716093Y-115527780D01*
G36*
X131599744Y-115519918D02*
G01*
X131655201Y-115547568D01*
X131704148Y-115598480D01*
X131717629Y-115617338D01*
X131732314Y-115642015D01*
X131741842Y-115668816D01*
X131747293Y-115704587D01*
X131749747Y-115756169D01*
X131750286Y-115824267D01*
X131747852Y-115917588D01*
X131739394Y-115987657D01*
X131723174Y-116039931D01*
X131697454Y-116079869D01*
X131660497Y-116112929D01*
X131657782Y-116114886D01*
X131621360Y-116134908D01*
X131577502Y-116144815D01*
X131521724Y-116147257D01*
X131431048Y-116147257D01*
X131431010Y-116235283D01*
X131430166Y-116284308D01*
X131425024Y-116313065D01*
X131411587Y-116330311D01*
X131385858Y-116344808D01*
X131379679Y-116347769D01*
X131350764Y-116361648D01*
X131328376Y-116370414D01*
X131311729Y-116371171D01*
X131300036Y-116361023D01*
X131292510Y-116337073D01*
X131288366Y-116296426D01*
X131286815Y-116236186D01*
X131287071Y-116153455D01*
X131288349Y-116045339D01*
X131288748Y-116013000D01*
X131290185Y-115901524D01*
X131291472Y-115828603D01*
X131430971Y-115828603D01*
X131431755Y-115890499D01*
X131435240Y-115930997D01*
X131443124Y-115957708D01*
X131457105Y-115978244D01*
X131466597Y-115988260D01*
X131505404Y-116017567D01*
X131539763Y-116019952D01*
X131575216Y-115995750D01*
X131576114Y-115994857D01*
X131590539Y-115976153D01*
X131599313Y-115950732D01*
X131603739Y-115911584D01*
X131605118Y-115851697D01*
X131605143Y-115838430D01*
X131601812Y-115755901D01*
X131590969Y-115698691D01*
X131571340Y-115663766D01*
X131541650Y-115648094D01*
X131524491Y-115646514D01*
X131483766Y-115653926D01*
X131455832Y-115678330D01*
X131439017Y-115722980D01*
X131431650Y-115791130D01*
X131430971Y-115828603D01*
X131291472Y-115828603D01*
X131291708Y-115815245D01*
X131293677Y-115750333D01*
X131296450Y-115702958D01*
X131300388Y-115669290D01*
X131305849Y-115645498D01*
X131313192Y-115627753D01*
X131322777Y-115612224D01*
X131326887Y-115606381D01*
X131381405Y-115551185D01*
X131450336Y-115519890D01*
X131530072Y-115511165D01*
X131599744Y-115519918D01*
G37*
X131599744Y-115519918D02*
X131655201Y-115547568D01*
X131704148Y-115598480D01*
X131717629Y-115617338D01*
X131732314Y-115642015D01*
X131741842Y-115668816D01*
X131747293Y-115704587D01*
X131749747Y-115756169D01*
X131750286Y-115824267D01*
X131747852Y-115917588D01*
X131739394Y-115987657D01*
X131723174Y-116039931D01*
X131697454Y-116079869D01*
X131660497Y-116112929D01*
X131657782Y-116114886D01*
X131621360Y-116134908D01*
X131577502Y-116144815D01*
X131521724Y-116147257D01*
X131431048Y-116147257D01*
X131431010Y-116235283D01*
X131430166Y-116284308D01*
X131425024Y-116313065D01*
X131411587Y-116330311D01*
X131385858Y-116344808D01*
X131379679Y-116347769D01*
X131350764Y-116361648D01*
X131328376Y-116370414D01*
X131311729Y-116371171D01*
X131300036Y-116361023D01*
X131292510Y-116337073D01*
X131288366Y-116296426D01*
X131286815Y-116236186D01*
X131287071Y-116153455D01*
X131288349Y-116045339D01*
X131288748Y-116013000D01*
X131290185Y-115901524D01*
X131291472Y-115828603D01*
X131430971Y-115828603D01*
X131431755Y-115890499D01*
X131435240Y-115930997D01*
X131443124Y-115957708D01*
X131457105Y-115978244D01*
X131466597Y-115988260D01*
X131505404Y-116017567D01*
X131539763Y-116019952D01*
X131575216Y-115995750D01*
X131576114Y-115994857D01*
X131590539Y-115976153D01*
X131599313Y-115950732D01*
X131603739Y-115911584D01*
X131605118Y-115851697D01*
X131605143Y-115838430D01*
X131601812Y-115755901D01*
X131590969Y-115698691D01*
X131571340Y-115663766D01*
X131541650Y-115648094D01*
X131524491Y-115646514D01*
X131483766Y-115653926D01*
X131455832Y-115678330D01*
X131439017Y-115722980D01*
X131431650Y-115791130D01*
X131430971Y-115828603D01*
X131291472Y-115828603D01*
X131291708Y-115815245D01*
X131293677Y-115750333D01*
X131296450Y-115702958D01*
X131300388Y-115669290D01*
X131305849Y-115645498D01*
X131313192Y-115627753D01*
X131322777Y-115612224D01*
X131326887Y-115606381D01*
X131381405Y-115551185D01*
X131450336Y-115519890D01*
X131530072Y-115511165D01*
X131599744Y-115519918D01*
D12*
%TO.C,J8*%
X96870000Y-70730000D02*
X96870000Y-68070000D01*
X96870000Y-70730000D02*
X104550000Y-70730000D01*
X104550000Y-70730000D02*
X104550000Y-68070000D01*
X96870000Y-68070000D02*
X104550000Y-68070000D01*
X94270000Y-68070000D02*
X95600000Y-68070000D01*
X94270000Y-69400000D02*
X94270000Y-68070000D01*
%TO.C,J7*%
X131650000Y-107550000D02*
X131650000Y-105550000D01*
X132900000Y-107550000D02*
X131650000Y-107550000D01*
X138650000Y-92600000D02*
X138650000Y-93350000D01*
X134350000Y-92600000D02*
X138650000Y-92600000D01*
X134350000Y-93350000D02*
X134350000Y-92600000D01*
X134000000Y-93350000D02*
X134350000Y-93350000D01*
X134000000Y-92850000D02*
X134000000Y-93350000D01*
X133000000Y-92600000D02*
X134000000Y-92850000D01*
X133000000Y-95600000D02*
X133000000Y-92600000D01*
X134000000Y-95350000D02*
X133000000Y-95600000D01*
X134000000Y-94850000D02*
X134000000Y-95350000D01*
X134350000Y-94850000D02*
X134000000Y-94850000D01*
X134350000Y-95600000D02*
X134350000Y-94850000D01*
X138650000Y-95600000D02*
X134350000Y-95600000D01*
X138650000Y-94850000D02*
X138650000Y-95600000D01*
X138650000Y-96100000D02*
X138650000Y-96850000D01*
X134350000Y-96100000D02*
X138650000Y-96100000D01*
X134350000Y-96850000D02*
X134350000Y-96100000D01*
X134000000Y-96850000D02*
X134350000Y-96850000D01*
X134000000Y-96350000D02*
X134000000Y-96850000D01*
X133000000Y-96100000D02*
X134000000Y-96350000D01*
X133000000Y-99100000D02*
X133000000Y-96100000D01*
X134000000Y-98850000D02*
X133000000Y-99100000D01*
X134000000Y-98350000D02*
X134000000Y-98850000D01*
X134350000Y-98350000D02*
X134000000Y-98350000D01*
X134350000Y-99100000D02*
X134350000Y-98350000D01*
X138650000Y-99100000D02*
X134350000Y-99100000D01*
X138650000Y-98350000D02*
X138650000Y-99100000D01*
X138650000Y-99600000D02*
X138650000Y-100350000D01*
X134350000Y-99600000D02*
X138650000Y-99600000D01*
X134350000Y-100350000D02*
X134350000Y-99600000D01*
X134000000Y-100350000D02*
X134350000Y-100350000D01*
X134000000Y-99850000D02*
X134000000Y-100350000D01*
X133000000Y-99600000D02*
X134000000Y-99850000D01*
X133000000Y-102600000D02*
X133000000Y-99600000D01*
X134000000Y-102350000D02*
X133000000Y-102600000D01*
X134000000Y-101850000D02*
X134000000Y-102350000D01*
X134350000Y-101850000D02*
X134000000Y-101850000D01*
X134350000Y-102600000D02*
X134350000Y-101850000D01*
X138650000Y-102600000D02*
X134350000Y-102600000D01*
X138650000Y-101850000D02*
X138650000Y-102600000D01*
X138650000Y-103100000D02*
X138650000Y-103850000D01*
X134350000Y-103100000D02*
X138650000Y-103100000D01*
X134350000Y-103850000D02*
X134350000Y-103100000D01*
X134000000Y-103850000D02*
X134350000Y-103850000D01*
X134000000Y-103350000D02*
X134000000Y-103850000D01*
X133000000Y-103100000D02*
X134000000Y-103350000D01*
X133000000Y-106100000D02*
X133000000Y-103100000D01*
X134000000Y-105850000D02*
X133000000Y-106100000D01*
X134000000Y-105350000D02*
X134000000Y-105850000D01*
X134350000Y-105350000D02*
X134000000Y-105350000D01*
X134350000Y-106100000D02*
X134350000Y-105350000D01*
X138650000Y-106100000D02*
X134350000Y-106100000D01*
X138650000Y-105350000D02*
X138650000Y-106100000D01*
X132040000Y-91540000D02*
X132040000Y-107160000D01*
X139510000Y-91540000D02*
X132040000Y-91540000D01*
X139510000Y-107160000D02*
X139510000Y-91540000D01*
X132040000Y-107160000D02*
X139510000Y-107160000D01*
X138649845Y-93350353D02*
G75*
G03*
X138650000Y-94850000I1700155J-749647D01*
G01*
X138649845Y-96850353D02*
G75*
G03*
X138650000Y-98350000I1700155J-749647D01*
G01*
X138649845Y-100350353D02*
G75*
G03*
X138650000Y-101850000I1700155J-749647D01*
G01*
X138649845Y-103850353D02*
G75*
G03*
X138650000Y-105350000I1700155J-749647D01*
G01*
D14*
%TO.C,F3*%
X124400000Y-116150000D02*
X124400000Y-101450000D01*
X129200000Y-101450000D02*
X129200000Y-116150000D01*
X124400000Y-116150000D02*
X125850000Y-116150000D01*
X127750000Y-116150000D02*
X129200000Y-116150000D01*
X127750000Y-101450000D02*
X129200000Y-101450000D01*
X124400000Y-101450000D02*
X125850000Y-101450000D01*
D11*
X127041420Y-117100000D02*
G75*
G03*
X127041420Y-117100000I-141420J0D01*
G01*
D12*
%TO.C,U3*%
X130910000Y-74170000D02*
X129260000Y-74170000D01*
X130910000Y-84450000D02*
X130910000Y-74170000D01*
X125610000Y-84450000D02*
X130910000Y-84450000D01*
X125610000Y-74170000D02*
X125610000Y-84450000D01*
X127260000Y-74170000D02*
X125610000Y-74170000D01*
X129260000Y-74170000D02*
G75*
G02*
X127260000Y-74170000I-1000000J0D01*
G01*
%TO.C,U2*%
X91460000Y-89150000D02*
X91460000Y-90540000D01*
X93700000Y-89150000D02*
X91460000Y-89150000D01*
X93700000Y-81270000D02*
X93700000Y-89150000D01*
X91460000Y-81270000D02*
X93700000Y-81270000D01*
X91460000Y-79870000D02*
X91460000Y-81270000D01*
X91450000Y-79870000D02*
X89680000Y-79870000D01*
X89680000Y-79870000D02*
X89680000Y-90540000D01*
X89680000Y-90540000D02*
X91460000Y-90540000D01*
%TO.C,U1*%
X96870000Y-74340000D02*
X96870000Y-75590000D01*
X114770000Y-74340000D02*
X96870000Y-74340000D01*
X114770000Y-78840000D02*
X114770000Y-74340000D01*
X96870000Y-78840000D02*
X114770000Y-78840000D01*
X96870000Y-77590000D02*
X96870000Y-78840000D01*
X96870000Y-75590000D02*
G75*
G02*
X96870000Y-77590000I0J-1000000D01*
G01*
%TO.C,R5*%
X128120000Y-85230000D02*
X128120000Y-85560000D01*
X134660000Y-85230000D02*
X128120000Y-85230000D01*
X134660000Y-85560000D02*
X134660000Y-85230000D01*
X128120000Y-87970000D02*
X128120000Y-87640000D01*
X134660000Y-87970000D02*
X128120000Y-87970000D01*
X134660000Y-87640000D02*
X134660000Y-87970000D01*
%TO.C,R4*%
X120330000Y-80080000D02*
X120660000Y-80080000D01*
X120330000Y-73540000D02*
X120330000Y-80080000D01*
X120660000Y-73540000D02*
X120330000Y-73540000D01*
X123070000Y-80080000D02*
X122740000Y-80080000D01*
X123070000Y-73540000D02*
X123070000Y-80080000D01*
X122740000Y-73540000D02*
X123070000Y-73540000D01*
%TO.C,R2*%
X114670000Y-84030000D02*
X114670000Y-84360000D01*
X121210000Y-84030000D02*
X114670000Y-84030000D01*
X121210000Y-84360000D02*
X121210000Y-84030000D01*
X114670000Y-86770000D02*
X114670000Y-86440000D01*
X121210000Y-86770000D02*
X114670000Y-86770000D01*
X121210000Y-86440000D02*
X121210000Y-86770000D01*
%TO.C,R3*%
X129330000Y-70620000D02*
X129330000Y-70290000D01*
X122790000Y-70620000D02*
X129330000Y-70620000D01*
X122790000Y-70290000D02*
X122790000Y-70620000D01*
X129330000Y-67880000D02*
X129330000Y-68210000D01*
X122790000Y-67880000D02*
X129330000Y-67880000D01*
X122790000Y-68210000D02*
X122790000Y-67880000D01*
%TO.C,R1*%
X99920000Y-84030000D02*
X99920000Y-84360000D01*
X106460000Y-84030000D02*
X99920000Y-84030000D01*
X106460000Y-84360000D02*
X106460000Y-84030000D01*
X99920000Y-86770000D02*
X99920000Y-86440000D01*
X106460000Y-86770000D02*
X99920000Y-86770000D01*
X106460000Y-86440000D02*
X106460000Y-86770000D01*
%TO.C,J6*%
X79270000Y-69490000D02*
X80600000Y-69490000D01*
X79270000Y-70820000D02*
X79270000Y-69490000D01*
X79270000Y-72090000D02*
X81930000Y-72090000D01*
X81930000Y-72090000D02*
X81930000Y-82310000D01*
X79270000Y-72090000D02*
X79270000Y-82310000D01*
X79270000Y-82310000D02*
X81930000Y-82310000D01*
%TO.C,J5*%
X115250000Y-88450000D02*
X117250000Y-88450000D01*
X115250000Y-89700000D02*
X115250000Y-88450000D01*
X126700000Y-95450000D02*
X125950000Y-95450000D01*
X126700000Y-91150000D02*
X126700000Y-95450000D01*
X125950000Y-91150000D02*
X126700000Y-91150000D01*
X125950000Y-90800000D02*
X125950000Y-91150000D01*
X126450000Y-90800000D02*
X125950000Y-90800000D01*
X126700000Y-89800000D02*
X126450000Y-90800000D01*
X123700000Y-89800000D02*
X126700000Y-89800000D01*
X123950000Y-90800000D02*
X123700000Y-89800000D01*
X124450000Y-90800000D02*
X123950000Y-90800000D01*
X124450000Y-91150000D02*
X124450000Y-90800000D01*
X123700000Y-91150000D02*
X124450000Y-91150000D01*
X123700000Y-95450000D02*
X123700000Y-91150000D01*
X124450000Y-95450000D02*
X123700000Y-95450000D01*
X123200000Y-95450000D02*
X122450000Y-95450000D01*
X123200000Y-91150000D02*
X123200000Y-95450000D01*
X122450000Y-91150000D02*
X123200000Y-91150000D01*
X122450000Y-90800000D02*
X122450000Y-91150000D01*
X122950000Y-90800000D02*
X122450000Y-90800000D01*
X123200000Y-89800000D02*
X122950000Y-90800000D01*
X120200000Y-89800000D02*
X123200000Y-89800000D01*
X120450000Y-90800000D02*
X120200000Y-89800000D01*
X120950000Y-90800000D02*
X120450000Y-90800000D01*
X120950000Y-91150000D02*
X120950000Y-90800000D01*
X120200000Y-91150000D02*
X120950000Y-91150000D01*
X120200000Y-95450000D02*
X120200000Y-91150000D01*
X120950000Y-95450000D02*
X120200000Y-95450000D01*
X119700000Y-95450000D02*
X118950000Y-95450000D01*
X119700000Y-91150000D02*
X119700000Y-95450000D01*
X118950000Y-91150000D02*
X119700000Y-91150000D01*
X118950000Y-90800000D02*
X118950000Y-91150000D01*
X119450000Y-90800000D02*
X118950000Y-90800000D01*
X119700000Y-89800000D02*
X119450000Y-90800000D01*
X116700000Y-89800000D02*
X119700000Y-89800000D01*
X116950000Y-90800000D02*
X116700000Y-89800000D01*
X117450000Y-90800000D02*
X116950000Y-90800000D01*
X117450000Y-91150000D02*
X117450000Y-90800000D01*
X116700000Y-91150000D02*
X117450000Y-91150000D01*
X116700000Y-95450000D02*
X116700000Y-91150000D01*
X117450000Y-95450000D02*
X116700000Y-95450000D01*
X127760000Y-88840000D02*
X115640000Y-88840000D01*
X127760000Y-96310000D02*
X127760000Y-88840000D01*
X115640000Y-96310000D02*
X127760000Y-96310000D01*
X115640000Y-88840000D02*
X115640000Y-96310000D01*
X125949647Y-95449845D02*
G75*
G03*
X124450000Y-95450000I-749647J-1700155D01*
G01*
X122449647Y-95449845D02*
G75*
G03*
X120950000Y-95450000I-749647J-1700155D01*
G01*
X118949647Y-95449845D02*
G75*
G03*
X117450000Y-95450000I-749647J-1700155D01*
G01*
%TO.C,J4*%
X100550000Y-88450000D02*
X102550000Y-88450000D01*
X100550000Y-89700000D02*
X100550000Y-88450000D01*
X112000000Y-95450000D02*
X111250000Y-95450000D01*
X112000000Y-91150000D02*
X112000000Y-95450000D01*
X111250000Y-91150000D02*
X112000000Y-91150000D01*
X111250000Y-90800000D02*
X111250000Y-91150000D01*
X111750000Y-90800000D02*
X111250000Y-90800000D01*
X112000000Y-89800000D02*
X111750000Y-90800000D01*
X109000000Y-89800000D02*
X112000000Y-89800000D01*
X109250000Y-90800000D02*
X109000000Y-89800000D01*
X109750000Y-90800000D02*
X109250000Y-90800000D01*
X109750000Y-91150000D02*
X109750000Y-90800000D01*
X109000000Y-91150000D02*
X109750000Y-91150000D01*
X109000000Y-95450000D02*
X109000000Y-91150000D01*
X109750000Y-95450000D02*
X109000000Y-95450000D01*
X108500000Y-95450000D02*
X107750000Y-95450000D01*
X108500000Y-91150000D02*
X108500000Y-95450000D01*
X107750000Y-91150000D02*
X108500000Y-91150000D01*
X107750000Y-90800000D02*
X107750000Y-91150000D01*
X108250000Y-90800000D02*
X107750000Y-90800000D01*
X108500000Y-89800000D02*
X108250000Y-90800000D01*
X105500000Y-89800000D02*
X108500000Y-89800000D01*
X105750000Y-90800000D02*
X105500000Y-89800000D01*
X106250000Y-90800000D02*
X105750000Y-90800000D01*
X106250000Y-91150000D02*
X106250000Y-90800000D01*
X105500000Y-91150000D02*
X106250000Y-91150000D01*
X105500000Y-95450000D02*
X105500000Y-91150000D01*
X106250000Y-95450000D02*
X105500000Y-95450000D01*
X105000000Y-95450000D02*
X104250000Y-95450000D01*
X105000000Y-91150000D02*
X105000000Y-95450000D01*
X104250000Y-91150000D02*
X105000000Y-91150000D01*
X104250000Y-90800000D02*
X104250000Y-91150000D01*
X104750000Y-90800000D02*
X104250000Y-90800000D01*
X105000000Y-89800000D02*
X104750000Y-90800000D01*
X102000000Y-89800000D02*
X105000000Y-89800000D01*
X102250000Y-90800000D02*
X102000000Y-89800000D01*
X102750000Y-90800000D02*
X102250000Y-90800000D01*
X102750000Y-91150000D02*
X102750000Y-90800000D01*
X102000000Y-91150000D02*
X102750000Y-91150000D01*
X102000000Y-95450000D02*
X102000000Y-91150000D01*
X102750000Y-95450000D02*
X102000000Y-95450000D01*
X113060000Y-88840000D02*
X100940000Y-88840000D01*
X113060000Y-96310000D02*
X113060000Y-88840000D01*
X100940000Y-96310000D02*
X113060000Y-96310000D01*
X100940000Y-88840000D02*
X100940000Y-96310000D01*
X111249647Y-95449845D02*
G75*
G03*
X109750000Y-95450000I-749647J-1700155D01*
G01*
X107749647Y-95449845D02*
G75*
G03*
X106250000Y-95450000I-749647J-1700155D01*
G01*
X104249647Y-95449845D02*
G75*
G03*
X102750000Y-95450000I-749647J-1700155D01*
G01*
%TO.C,J3*%
X85670000Y-92070000D02*
X87000000Y-92070000D01*
X85670000Y-93400000D02*
X85670000Y-92070000D01*
X85670000Y-94670000D02*
X88330000Y-94670000D01*
X88330000Y-94670000D02*
X88330000Y-99810000D01*
X85670000Y-94670000D02*
X85670000Y-99810000D01*
X85670000Y-99810000D02*
X88330000Y-99810000D01*
%TO.C,J2*%
X90275000Y-115050000D02*
X90775000Y-115050000D01*
X90275000Y-114310000D02*
X90275000Y-115050000D01*
X101100000Y-102250000D02*
X101100000Y-103250000D01*
X99100000Y-102250000D02*
X99100000Y-103250000D01*
X99100000Y-103250000D02*
X101100000Y-103250000D01*
X99100000Y-102250000D02*
X101100000Y-102250000D01*
X98873000Y-107712000D02*
X98447000Y-108138000D01*
X101488000Y-105096000D02*
X101062000Y-105522000D01*
X99139000Y-107978000D02*
X98713000Y-108404000D01*
X101754000Y-105362000D02*
X101313000Y-105803000D01*
X94750000Y-102250000D02*
X94750000Y-103250000D01*
X92750000Y-102250000D02*
X92750000Y-103250000D01*
X92750000Y-103250000D02*
X94750000Y-103250000D01*
X92750000Y-102250000D02*
X94750000Y-102250000D01*
X92248000Y-107985000D02*
X92096000Y-108138000D01*
X95138000Y-105096000D02*
X94986000Y-105248000D01*
X92514000Y-108252000D02*
X92362000Y-108404000D01*
X95404000Y-105362000D02*
X95252000Y-105514000D01*
X103335000Y-102190000D02*
X103335000Y-114810000D01*
X90515000Y-102190000D02*
X90515000Y-114810000D01*
X90515000Y-114810000D02*
X103335000Y-114810000D01*
X90515000Y-102190000D02*
X103335000Y-102190000D01*
X90515000Y-104250000D02*
X103335000Y-104250000D01*
X90515000Y-109250000D02*
X103335000Y-109250000D01*
X90515000Y-114250000D02*
X103335000Y-114250000D01*
X102280000Y-106750000D02*
G75*
G03*
X102280000Y-106750000I-2180000J0D01*
G01*
X95930000Y-106750000D02*
G75*
G03*
X95930000Y-106750000I-2180000J0D01*
G01*
D14*
%TO.C,F2*%
X116350000Y-116150000D02*
X116350000Y-101450000D01*
X121150000Y-101450000D02*
X121150000Y-116150000D01*
X116350000Y-116150000D02*
X117800000Y-116150000D01*
X119700000Y-116150000D02*
X121150000Y-116150000D01*
X119700000Y-101450000D02*
X121150000Y-101450000D01*
X116350000Y-101450000D02*
X117800000Y-101450000D01*
D11*
X118991420Y-117100000D02*
G75*
G03*
X118991420Y-117100000I-141420J0D01*
G01*
D14*
%TO.C,F1*%
X108100000Y-116150000D02*
X108100000Y-101450000D01*
X112900000Y-101450000D02*
X112900000Y-116150000D01*
X108100000Y-116150000D02*
X109550000Y-116150000D01*
X111450000Y-116150000D02*
X112900000Y-116150000D01*
X111450000Y-101450000D02*
X112900000Y-101450000D01*
X108100000Y-101450000D02*
X109550000Y-101450000D01*
D11*
X110741420Y-117100000D02*
G75*
G03*
X110741420Y-117100000I-141420J0D01*
G01*
D12*
%TO.C,D1*%
X116320000Y-70110000D02*
X116164000Y-70110000D01*
X118636000Y-70110000D02*
X118480000Y-70110000D01*
X116320163Y-72711130D02*
G75*
G02*
X116320000Y-70629039I1079837J1041130D01*
G01*
X118479837Y-72711130D02*
G75*
G03*
X118480000Y-70629039I-1079837J1041130D01*
G01*
X116321392Y-73342335D02*
G75*
G02*
X116164484Y-70110000I1078608J1672335D01*
G01*
X118478608Y-73342335D02*
G75*
G03*
X118635516Y-70110000I-1078608J1672335D01*
G01*
%TO.C,C4*%
X125830000Y-73620000D02*
X125830000Y-71380000D01*
X133070000Y-73620000D02*
X133070000Y-71380000D01*
X133070000Y-71380000D02*
X125830000Y-71380000D01*
X133070000Y-73620000D02*
X125830000Y-73620000D01*
%TO.C,C3*%
X95720000Y-78920000D02*
X93480000Y-78920000D01*
X95720000Y-71680000D02*
X93480000Y-71680000D01*
X93480000Y-71680000D02*
X93480000Y-78920000D01*
X95720000Y-71680000D02*
X95720000Y-78920000D01*
%TO.C,C2*%
X92354775Y-77225000D02*
X92354775Y-76725000D01*
X92604775Y-76975000D02*
X92104775Y-76975000D01*
X87199000Y-75784000D02*
X87199000Y-75216000D01*
X87239000Y-76018000D02*
X87239000Y-74982000D01*
X87279000Y-76177000D02*
X87279000Y-74823000D01*
X87319000Y-76305000D02*
X87319000Y-74695000D01*
X87359000Y-76415000D02*
X87359000Y-74585000D01*
X87399000Y-76511000D02*
X87399000Y-74489000D01*
X87439000Y-76598000D02*
X87439000Y-74402000D01*
X87479000Y-76678000D02*
X87479000Y-74322000D01*
X87519000Y-76751000D02*
X87519000Y-74249000D01*
X87559000Y-76819000D02*
X87559000Y-74181000D01*
X87599000Y-76883000D02*
X87599000Y-74117000D01*
X87639000Y-76943000D02*
X87639000Y-74057000D01*
X87679000Y-77000000D02*
X87679000Y-74000000D01*
X87719000Y-77054000D02*
X87719000Y-73946000D01*
X87759000Y-77105000D02*
X87759000Y-73895000D01*
X87799000Y-74460000D02*
X87799000Y-73847000D01*
X87799000Y-77153000D02*
X87799000Y-76540000D01*
X87839000Y-74460000D02*
X87839000Y-73801000D01*
X87839000Y-77199000D02*
X87839000Y-76540000D01*
X87879000Y-74460000D02*
X87879000Y-73757000D01*
X87879000Y-77243000D02*
X87879000Y-76540000D01*
X87919000Y-74460000D02*
X87919000Y-73715000D01*
X87919000Y-77285000D02*
X87919000Y-76540000D01*
X87959000Y-74460000D02*
X87959000Y-73674000D01*
X87959000Y-77326000D02*
X87959000Y-76540000D01*
X87999000Y-74460000D02*
X87999000Y-73636000D01*
X87999000Y-77364000D02*
X87999000Y-76540000D01*
X88039000Y-74460000D02*
X88039000Y-73599000D01*
X88039000Y-77401000D02*
X88039000Y-76540000D01*
X88079000Y-74460000D02*
X88079000Y-73563000D01*
X88079000Y-77437000D02*
X88079000Y-76540000D01*
X88119000Y-74460000D02*
X88119000Y-73529000D01*
X88119000Y-77471000D02*
X88119000Y-76540000D01*
X88159000Y-74460000D02*
X88159000Y-73496000D01*
X88159000Y-77504000D02*
X88159000Y-76540000D01*
X88199000Y-74460000D02*
X88199000Y-73465000D01*
X88199000Y-77535000D02*
X88199000Y-76540000D01*
X88239000Y-74460000D02*
X88239000Y-73435000D01*
X88239000Y-77565000D02*
X88239000Y-76540000D01*
X88279000Y-74460000D02*
X88279000Y-73405000D01*
X88279000Y-77595000D02*
X88279000Y-76540000D01*
X88319000Y-74460000D02*
X88319000Y-73378000D01*
X88319000Y-77622000D02*
X88319000Y-76540000D01*
X88359000Y-74460000D02*
X88359000Y-73351000D01*
X88359000Y-77649000D02*
X88359000Y-76540000D01*
X88399000Y-74460000D02*
X88399000Y-73325000D01*
X88399000Y-77675000D02*
X88399000Y-76540000D01*
X88439000Y-74460000D02*
X88439000Y-73300000D01*
X88439000Y-77700000D02*
X88439000Y-76540000D01*
X88479000Y-74460000D02*
X88479000Y-73276000D01*
X88479000Y-77724000D02*
X88479000Y-76540000D01*
X88519000Y-74460000D02*
X88519000Y-73253000D01*
X88519000Y-77747000D02*
X88519000Y-76540000D01*
X88559000Y-74460000D02*
X88559000Y-73232000D01*
X88559000Y-77768000D02*
X88559000Y-76540000D01*
X88599000Y-74460000D02*
X88599000Y-73210000D01*
X88599000Y-77790000D02*
X88599000Y-76540000D01*
X88639000Y-74460000D02*
X88639000Y-73190000D01*
X88639000Y-77810000D02*
X88639000Y-76540000D01*
X88679000Y-74460000D02*
X88679000Y-73171000D01*
X88679000Y-77829000D02*
X88679000Y-76540000D01*
X88719000Y-74460000D02*
X88719000Y-73152000D01*
X88719000Y-77848000D02*
X88719000Y-76540000D01*
X88759000Y-74460000D02*
X88759000Y-73135000D01*
X88759000Y-77865000D02*
X88759000Y-76540000D01*
X88799000Y-74460000D02*
X88799000Y-73118000D01*
X88799000Y-77882000D02*
X88799000Y-76540000D01*
X88839000Y-74460000D02*
X88839000Y-73102000D01*
X88839000Y-77898000D02*
X88839000Y-76540000D01*
X88879000Y-74460000D02*
X88879000Y-73086000D01*
X88879000Y-77914000D02*
X88879000Y-76540000D01*
X88919000Y-74460000D02*
X88919000Y-73072000D01*
X88919000Y-77928000D02*
X88919000Y-76540000D01*
X88959000Y-74460000D02*
X88959000Y-73058000D01*
X88959000Y-77942000D02*
X88959000Y-76540000D01*
X88999000Y-74460000D02*
X88999000Y-73045000D01*
X88999000Y-77955000D02*
X88999000Y-76540000D01*
X89039000Y-74460000D02*
X89039000Y-73032000D01*
X89039000Y-77968000D02*
X89039000Y-76540000D01*
X89079000Y-74460000D02*
X89079000Y-73020000D01*
X89079000Y-77980000D02*
X89079000Y-76540000D01*
X89120000Y-74460000D02*
X89120000Y-73009000D01*
X89120000Y-77991000D02*
X89120000Y-76540000D01*
X89160000Y-74460000D02*
X89160000Y-72999000D01*
X89160000Y-78001000D02*
X89160000Y-76540000D01*
X89200000Y-74460000D02*
X89200000Y-72989000D01*
X89200000Y-78011000D02*
X89200000Y-76540000D01*
X89240000Y-74460000D02*
X89240000Y-72980000D01*
X89240000Y-78020000D02*
X89240000Y-76540000D01*
X89280000Y-74460000D02*
X89280000Y-72972000D01*
X89280000Y-78028000D02*
X89280000Y-76540000D01*
X89320000Y-74460000D02*
X89320000Y-72964000D01*
X89320000Y-78036000D02*
X89320000Y-76540000D01*
X89360000Y-74460000D02*
X89360000Y-72957000D01*
X89360000Y-78043000D02*
X89360000Y-76540000D01*
X89400000Y-74460000D02*
X89400000Y-72950000D01*
X89400000Y-78050000D02*
X89400000Y-76540000D01*
X89440000Y-74460000D02*
X89440000Y-72944000D01*
X89440000Y-78056000D02*
X89440000Y-76540000D01*
X89480000Y-74460000D02*
X89480000Y-72939000D01*
X89480000Y-78061000D02*
X89480000Y-76540000D01*
X89520000Y-74460000D02*
X89520000Y-72935000D01*
X89520000Y-78065000D02*
X89520000Y-76540000D01*
X89560000Y-74460000D02*
X89560000Y-72931000D01*
X89560000Y-78069000D02*
X89560000Y-76540000D01*
X89600000Y-74460000D02*
X89600000Y-72927000D01*
X89600000Y-78073000D02*
X89600000Y-76540000D01*
X89640000Y-74460000D02*
X89640000Y-72924000D01*
X89640000Y-78076000D02*
X89640000Y-76540000D01*
X89680000Y-74460000D02*
X89680000Y-72922000D01*
X89680000Y-78078000D02*
X89680000Y-76540000D01*
X89720000Y-74460000D02*
X89720000Y-72921000D01*
X89720000Y-78079000D02*
X89720000Y-76540000D01*
X89760000Y-78080000D02*
X89760000Y-76540000D01*
X89760000Y-74460000D02*
X89760000Y-72920000D01*
X89800000Y-78080000D02*
X89800000Y-76540000D01*
X89800000Y-74460000D02*
X89800000Y-72920000D01*
X92420000Y-75500000D02*
G75*
G03*
X92420000Y-75500000I-2620000J0D01*
G01*
%TO.C,C1*%
X91845225Y-93875000D02*
X91845225Y-94375000D01*
X91595225Y-94125000D02*
X92095225Y-94125000D01*
X97001000Y-95316000D02*
X97001000Y-95884000D01*
X96961000Y-95082000D02*
X96961000Y-96118000D01*
X96921000Y-94923000D02*
X96921000Y-96277000D01*
X96881000Y-94795000D02*
X96881000Y-96405000D01*
X96841000Y-94685000D02*
X96841000Y-96515000D01*
X96801000Y-94589000D02*
X96801000Y-96611000D01*
X96761000Y-94502000D02*
X96761000Y-96698000D01*
X96721000Y-94422000D02*
X96721000Y-96778000D01*
X96681000Y-94349000D02*
X96681000Y-96851000D01*
X96641000Y-94281000D02*
X96641000Y-96919000D01*
X96601000Y-94217000D02*
X96601000Y-96983000D01*
X96561000Y-94157000D02*
X96561000Y-97043000D01*
X96521000Y-94100000D02*
X96521000Y-97100000D01*
X96481000Y-94046000D02*
X96481000Y-97154000D01*
X96441000Y-93995000D02*
X96441000Y-97205000D01*
X96401000Y-96640000D02*
X96401000Y-97253000D01*
X96401000Y-93947000D02*
X96401000Y-94560000D01*
X96361000Y-96640000D02*
X96361000Y-97299000D01*
X96361000Y-93901000D02*
X96361000Y-94560000D01*
X96321000Y-96640000D02*
X96321000Y-97343000D01*
X96321000Y-93857000D02*
X96321000Y-94560000D01*
X96281000Y-96640000D02*
X96281000Y-97385000D01*
X96281000Y-93815000D02*
X96281000Y-94560000D01*
X96241000Y-96640000D02*
X96241000Y-97426000D01*
X96241000Y-93774000D02*
X96241000Y-94560000D01*
X96201000Y-96640000D02*
X96201000Y-97464000D01*
X96201000Y-93736000D02*
X96201000Y-94560000D01*
X96161000Y-96640000D02*
X96161000Y-97501000D01*
X96161000Y-93699000D02*
X96161000Y-94560000D01*
X96121000Y-96640000D02*
X96121000Y-97537000D01*
X96121000Y-93663000D02*
X96121000Y-94560000D01*
X96081000Y-96640000D02*
X96081000Y-97571000D01*
X96081000Y-93629000D02*
X96081000Y-94560000D01*
X96041000Y-96640000D02*
X96041000Y-97604000D01*
X96041000Y-93596000D02*
X96041000Y-94560000D01*
X96001000Y-96640000D02*
X96001000Y-97635000D01*
X96001000Y-93565000D02*
X96001000Y-94560000D01*
X95961000Y-96640000D02*
X95961000Y-97665000D01*
X95961000Y-93535000D02*
X95961000Y-94560000D01*
X95921000Y-96640000D02*
X95921000Y-97695000D01*
X95921000Y-93505000D02*
X95921000Y-94560000D01*
X95881000Y-96640000D02*
X95881000Y-97722000D01*
X95881000Y-93478000D02*
X95881000Y-94560000D01*
X95841000Y-96640000D02*
X95841000Y-97749000D01*
X95841000Y-93451000D02*
X95841000Y-94560000D01*
X95801000Y-96640000D02*
X95801000Y-97775000D01*
X95801000Y-93425000D02*
X95801000Y-94560000D01*
X95761000Y-96640000D02*
X95761000Y-97800000D01*
X95761000Y-93400000D02*
X95761000Y-94560000D01*
X95721000Y-96640000D02*
X95721000Y-97824000D01*
X95721000Y-93376000D02*
X95721000Y-94560000D01*
X95681000Y-96640000D02*
X95681000Y-97847000D01*
X95681000Y-93353000D02*
X95681000Y-94560000D01*
X95641000Y-96640000D02*
X95641000Y-97868000D01*
X95641000Y-93332000D02*
X95641000Y-94560000D01*
X95601000Y-96640000D02*
X95601000Y-97890000D01*
X95601000Y-93310000D02*
X95601000Y-94560000D01*
X95561000Y-96640000D02*
X95561000Y-97910000D01*
X95561000Y-93290000D02*
X95561000Y-94560000D01*
X95521000Y-96640000D02*
X95521000Y-97929000D01*
X95521000Y-93271000D02*
X95521000Y-94560000D01*
X95481000Y-96640000D02*
X95481000Y-97948000D01*
X95481000Y-93252000D02*
X95481000Y-94560000D01*
X95441000Y-96640000D02*
X95441000Y-97965000D01*
X95441000Y-93235000D02*
X95441000Y-94560000D01*
X95401000Y-96640000D02*
X95401000Y-97982000D01*
X95401000Y-93218000D02*
X95401000Y-94560000D01*
X95361000Y-96640000D02*
X95361000Y-97998000D01*
X95361000Y-93202000D02*
X95361000Y-94560000D01*
X95321000Y-96640000D02*
X95321000Y-98014000D01*
X95321000Y-93186000D02*
X95321000Y-94560000D01*
X95281000Y-96640000D02*
X95281000Y-98028000D01*
X95281000Y-93172000D02*
X95281000Y-94560000D01*
X95241000Y-96640000D02*
X95241000Y-98042000D01*
X95241000Y-93158000D02*
X95241000Y-94560000D01*
X95201000Y-96640000D02*
X95201000Y-98055000D01*
X95201000Y-93145000D02*
X95201000Y-94560000D01*
X95161000Y-96640000D02*
X95161000Y-98068000D01*
X95161000Y-93132000D02*
X95161000Y-94560000D01*
X95121000Y-96640000D02*
X95121000Y-98080000D01*
X95121000Y-93120000D02*
X95121000Y-94560000D01*
X95080000Y-96640000D02*
X95080000Y-98091000D01*
X95080000Y-93109000D02*
X95080000Y-94560000D01*
X95040000Y-96640000D02*
X95040000Y-98101000D01*
X95040000Y-93099000D02*
X95040000Y-94560000D01*
X95000000Y-96640000D02*
X95000000Y-98111000D01*
X95000000Y-93089000D02*
X95000000Y-94560000D01*
X94960000Y-96640000D02*
X94960000Y-98120000D01*
X94960000Y-93080000D02*
X94960000Y-94560000D01*
X94920000Y-96640000D02*
X94920000Y-98128000D01*
X94920000Y-93072000D02*
X94920000Y-94560000D01*
X94880000Y-96640000D02*
X94880000Y-98136000D01*
X94880000Y-93064000D02*
X94880000Y-94560000D01*
X94840000Y-96640000D02*
X94840000Y-98143000D01*
X94840000Y-93057000D02*
X94840000Y-94560000D01*
X94800000Y-96640000D02*
X94800000Y-98150000D01*
X94800000Y-93050000D02*
X94800000Y-94560000D01*
X94760000Y-96640000D02*
X94760000Y-98156000D01*
X94760000Y-93044000D02*
X94760000Y-94560000D01*
X94720000Y-96640000D02*
X94720000Y-98161000D01*
X94720000Y-93039000D02*
X94720000Y-94560000D01*
X94680000Y-96640000D02*
X94680000Y-98165000D01*
X94680000Y-93035000D02*
X94680000Y-94560000D01*
X94640000Y-96640000D02*
X94640000Y-98169000D01*
X94640000Y-93031000D02*
X94640000Y-94560000D01*
X94600000Y-96640000D02*
X94600000Y-98173000D01*
X94600000Y-93027000D02*
X94600000Y-94560000D01*
X94560000Y-96640000D02*
X94560000Y-98176000D01*
X94560000Y-93024000D02*
X94560000Y-94560000D01*
X94520000Y-96640000D02*
X94520000Y-98178000D01*
X94520000Y-93022000D02*
X94520000Y-94560000D01*
X94480000Y-96640000D02*
X94480000Y-98179000D01*
X94480000Y-93021000D02*
X94480000Y-94560000D01*
X94440000Y-93020000D02*
X94440000Y-94560000D01*
X94440000Y-96640000D02*
X94440000Y-98180000D01*
X94400000Y-93020000D02*
X94400000Y-94560000D01*
X94400000Y-96640000D02*
X94400000Y-98180000D01*
X97020000Y-95600000D02*
G75*
G03*
X97020000Y-95600000I-2620000J0D01*
G01*
%TO.C,J9*%
D10*
X137066666Y-67882380D02*
X137066666Y-68596666D01*
X137019047Y-68739523D01*
X136923809Y-68834761D01*
X136780952Y-68882380D01*
X136685714Y-68882380D01*
X137590476Y-68882380D02*
X137780952Y-68882380D01*
X137876190Y-68834761D01*
X137923809Y-68787142D01*
X138019047Y-68644285D01*
X138066666Y-68453809D01*
X138066666Y-68072857D01*
X138019047Y-67977619D01*
X137971428Y-67930000D01*
X137876190Y-67882380D01*
X137685714Y-67882380D01*
X137590476Y-67930000D01*
X137542857Y-67977619D01*
X137495238Y-68072857D01*
X137495238Y-68310952D01*
X137542857Y-68406190D01*
X137590476Y-68453809D01*
X137685714Y-68501428D01*
X137876190Y-68501428D01*
X137971428Y-68453809D01*
X138019047Y-68406190D01*
X138066666Y-68310952D01*
X136400000Y-80700000D02*
X136304761Y-80652380D01*
X136161904Y-80652380D01*
X136019047Y-80700000D01*
X135923809Y-80795238D01*
X135876190Y-80890476D01*
X135828571Y-81080952D01*
X135828571Y-81223809D01*
X135876190Y-81414285D01*
X135923809Y-81509523D01*
X136019047Y-81604761D01*
X136161904Y-81652380D01*
X136257142Y-81652380D01*
X136400000Y-81604761D01*
X136447619Y-81557142D01*
X136447619Y-81223809D01*
X136257142Y-81223809D01*
X136876190Y-81652380D02*
X136876190Y-80652380D01*
X137257142Y-80652380D01*
X137352380Y-80700000D01*
X137400000Y-80747619D01*
X137447619Y-80842857D01*
X137447619Y-80985714D01*
X137400000Y-81080952D01*
X137352380Y-81128571D01*
X137257142Y-81176190D01*
X136876190Y-81176190D01*
X137876190Y-81652380D02*
X137876190Y-80652380D01*
X138542857Y-80652380D02*
X138733333Y-80652380D01*
X138828571Y-80700000D01*
X138923809Y-80795238D01*
X138971428Y-80985714D01*
X138971428Y-81319047D01*
X138923809Y-81509523D01*
X138828571Y-81604761D01*
X138733333Y-81652380D01*
X138542857Y-81652380D01*
X138447619Y-81604761D01*
X138352380Y-81509523D01*
X138304761Y-81319047D01*
X138304761Y-80985714D01*
X138352380Y-80795238D01*
X138447619Y-80700000D01*
X138542857Y-80652380D01*
%TO.C,J8*%
X92866666Y-68852380D02*
X92866666Y-69566666D01*
X92819047Y-69709523D01*
X92723809Y-69804761D01*
X92580952Y-69852380D01*
X92485714Y-69852380D01*
X93485714Y-69280952D02*
X93390476Y-69233333D01*
X93342857Y-69185714D01*
X93295238Y-69090476D01*
X93295238Y-69042857D01*
X93342857Y-68947619D01*
X93390476Y-68900000D01*
X93485714Y-68852380D01*
X93676190Y-68852380D01*
X93771428Y-68900000D01*
X93819047Y-68947619D01*
X93866666Y-69042857D01*
X93866666Y-69090476D01*
X93819047Y-69185714D01*
X93771428Y-69233333D01*
X93676190Y-69280952D01*
X93485714Y-69280952D01*
X93390476Y-69328571D01*
X93342857Y-69376190D01*
X93295238Y-69471428D01*
X93295238Y-69661904D01*
X93342857Y-69757142D01*
X93390476Y-69804761D01*
X93485714Y-69852380D01*
X93676190Y-69852380D01*
X93771428Y-69804761D01*
X93819047Y-69757142D01*
X93866666Y-69661904D01*
X93866666Y-69471428D01*
X93819047Y-69376190D01*
X93771428Y-69328571D01*
X93676190Y-69280952D01*
X105147619Y-69052380D02*
X105338095Y-69052380D01*
X105433333Y-69100000D01*
X105528571Y-69195238D01*
X105576190Y-69385714D01*
X105576190Y-69719047D01*
X105528571Y-69909523D01*
X105433333Y-70004761D01*
X105338095Y-70052380D01*
X105147619Y-70052380D01*
X105052380Y-70004761D01*
X104957142Y-69909523D01*
X104909523Y-69719047D01*
X104909523Y-69385714D01*
X104957142Y-69195238D01*
X105052380Y-69100000D01*
X105147619Y-69052380D01*
X106480952Y-70052380D02*
X106004761Y-70052380D01*
X106004761Y-69052380D01*
X106814285Y-69528571D02*
X107147619Y-69528571D01*
X107290476Y-70052380D02*
X106814285Y-70052380D01*
X106814285Y-69052380D01*
X107290476Y-69052380D01*
X107719047Y-70052380D02*
X107719047Y-69052380D01*
X107957142Y-69052380D01*
X108100000Y-69100000D01*
X108195238Y-69195238D01*
X108242857Y-69290476D01*
X108290476Y-69480952D01*
X108290476Y-69623809D01*
X108242857Y-69814285D01*
X108195238Y-69909523D01*
X108100000Y-70004761D01*
X107957142Y-70052380D01*
X107719047Y-70052380D01*
%TO.C,J7*%
X130402380Y-99683333D02*
X131116666Y-99683333D01*
X131259523Y-99730952D01*
X131354761Y-99826190D01*
X131402380Y-99969047D01*
X131402380Y-100064285D01*
X130402380Y-99302380D02*
X130402380Y-98635714D01*
X131402380Y-99064285D01*
X133047619Y-108652380D02*
X133047619Y-107652380D01*
X133285714Y-107652380D01*
X133428571Y-107700000D01*
X133523809Y-107795238D01*
X133571428Y-107890476D01*
X133619047Y-108080952D01*
X133619047Y-108223809D01*
X133571428Y-108414285D01*
X133523809Y-108509523D01*
X133428571Y-108604761D01*
X133285714Y-108652380D01*
X133047619Y-108652380D01*
X134047619Y-108652380D02*
X134047619Y-107652380D01*
X134380952Y-108366666D01*
X134714285Y-107652380D01*
X134714285Y-108652380D01*
X135095238Y-107652380D02*
X135761904Y-108652380D01*
X135761904Y-107652380D02*
X135095238Y-108652380D01*
X137095238Y-107652380D02*
X137285714Y-107652380D01*
X137380952Y-107700000D01*
X137476190Y-107795238D01*
X137523809Y-107985714D01*
X137523809Y-108319047D01*
X137476190Y-108509523D01*
X137380952Y-108604761D01*
X137285714Y-108652380D01*
X137095238Y-108652380D01*
X137000000Y-108604761D01*
X136904761Y-108509523D01*
X136857142Y-108319047D01*
X136857142Y-107985714D01*
X136904761Y-107795238D01*
X137000000Y-107700000D01*
X137095238Y-107652380D01*
X138380952Y-107985714D02*
X138380952Y-108652380D01*
X137952380Y-107985714D02*
X137952380Y-108509523D01*
X138000000Y-108604761D01*
X138095238Y-108652380D01*
X138238095Y-108652380D01*
X138333333Y-108604761D01*
X138380952Y-108557142D01*
X138714285Y-107985714D02*
X139095238Y-107985714D01*
X138857142Y-107652380D02*
X138857142Y-108509523D01*
X138904761Y-108604761D01*
X139000000Y-108652380D01*
X139095238Y-108652380D01*
%TO.C,F3*%
X123528571Y-115733333D02*
X123528571Y-116066666D01*
X124052380Y-116066666D02*
X123052380Y-116066666D01*
X123052380Y-115590476D01*
X123052380Y-115304761D02*
X123052380Y-114685714D01*
X123433333Y-115019047D01*
X123433333Y-114876190D01*
X123480952Y-114780952D01*
X123528571Y-114733333D01*
X123623809Y-114685714D01*
X123861904Y-114685714D01*
X123957142Y-114733333D01*
X124004761Y-114780952D01*
X124052380Y-114876190D01*
X124052380Y-115161904D01*
X124004761Y-115257142D01*
X123957142Y-115304761D01*
D15*
X129427380Y-116102142D02*
X129427380Y-115483095D01*
X129808333Y-115816428D01*
X129808333Y-115673571D01*
X129855952Y-115578333D01*
X129903571Y-115530714D01*
X129998809Y-115483095D01*
X130236904Y-115483095D01*
X130332142Y-115530714D01*
X130379761Y-115578333D01*
X130427380Y-115673571D01*
X130427380Y-115959285D01*
X130379761Y-116054523D01*
X130332142Y-116102142D01*
X129427380Y-114578333D02*
X129427380Y-115054523D01*
X129903571Y-115102142D01*
X129855952Y-115054523D01*
X129808333Y-114959285D01*
X129808333Y-114721190D01*
X129855952Y-114625952D01*
X129903571Y-114578333D01*
X129998809Y-114530714D01*
X130236904Y-114530714D01*
X130332142Y-114578333D01*
X130379761Y-114625952D01*
X130427380Y-114721190D01*
X130427380Y-114959285D01*
X130379761Y-115054523D01*
X130332142Y-115102142D01*
X129760714Y-113673571D02*
X130427380Y-113673571D01*
X129379761Y-113911666D02*
X130094047Y-114149761D01*
X130094047Y-113530714D01*
X129760714Y-112721190D02*
X130427380Y-112721190D01*
X129379761Y-112959285D02*
X130094047Y-113197380D01*
X130094047Y-112578333D01*
X130046428Y-112197380D02*
X130046428Y-111435476D01*
X129522619Y-111006904D02*
X129475000Y-110959285D01*
X129427380Y-110864047D01*
X129427380Y-110625952D01*
X129475000Y-110530714D01*
X129522619Y-110483095D01*
X129617857Y-110435476D01*
X129713095Y-110435476D01*
X129855952Y-110483095D01*
X130427380Y-111054523D01*
X130427380Y-110435476D01*
%TO.C,U3*%
D10*
X123638095Y-72852380D02*
X123638095Y-73661904D01*
X123685714Y-73757142D01*
X123733333Y-73804761D01*
X123828571Y-73852380D01*
X124019047Y-73852380D01*
X124114285Y-73804761D01*
X124161904Y-73757142D01*
X124209523Y-73661904D01*
X124209523Y-72852380D01*
X124590476Y-72852380D02*
X125209523Y-72852380D01*
X124876190Y-73233333D01*
X125019047Y-73233333D01*
X125114285Y-73280952D01*
X125161904Y-73328571D01*
X125209523Y-73423809D01*
X125209523Y-73661904D01*
X125161904Y-73757142D01*
X125114285Y-73804761D01*
X125019047Y-73852380D01*
X124733333Y-73852380D01*
X124638095Y-73804761D01*
X124590476Y-73757142D01*
X134404761Y-82690476D02*
X134452380Y-82547619D01*
X134452380Y-82309523D01*
X134404761Y-82214285D01*
X134357142Y-82166666D01*
X134261904Y-82119047D01*
X134166666Y-82119047D01*
X134071428Y-82166666D01*
X134023809Y-82214285D01*
X133976190Y-82309523D01*
X133928571Y-82500000D01*
X133880952Y-82595238D01*
X133833333Y-82642857D01*
X133738095Y-82690476D01*
X133642857Y-82690476D01*
X133547619Y-82642857D01*
X133500000Y-82595238D01*
X133452380Y-82500000D01*
X133452380Y-82261904D01*
X133500000Y-82119047D01*
X134452380Y-81690476D02*
X133452380Y-81690476D01*
X133452380Y-81309523D01*
X133500000Y-81214285D01*
X133547619Y-81166666D01*
X133642857Y-81119047D01*
X133785714Y-81119047D01*
X133880952Y-81166666D01*
X133928571Y-81214285D01*
X133976190Y-81309523D01*
X133976190Y-81690476D01*
X133452380Y-80785714D02*
X133452380Y-80166666D01*
X133833333Y-80500000D01*
X133833333Y-80357142D01*
X133880952Y-80261904D01*
X133928571Y-80214285D01*
X134023809Y-80166666D01*
X134261904Y-80166666D01*
X134357142Y-80214285D01*
X134404761Y-80261904D01*
X134452380Y-80357142D01*
X134452380Y-80642857D01*
X134404761Y-80738095D01*
X134357142Y-80785714D01*
X133785714Y-79309523D02*
X134452380Y-79309523D01*
X133404761Y-79547619D02*
X134119047Y-79785714D01*
X134119047Y-79166666D01*
X133880952Y-78642857D02*
X133833333Y-78738095D01*
X133785714Y-78785714D01*
X133690476Y-78833333D01*
X133642857Y-78833333D01*
X133547619Y-78785714D01*
X133500000Y-78738095D01*
X133452380Y-78642857D01*
X133452380Y-78452380D01*
X133500000Y-78357142D01*
X133547619Y-78309523D01*
X133642857Y-78261904D01*
X133690476Y-78261904D01*
X133785714Y-78309523D01*
X133833333Y-78357142D01*
X133880952Y-78452380D01*
X133880952Y-78642857D01*
X133928571Y-78738095D01*
X133976190Y-78785714D01*
X134071428Y-78833333D01*
X134261904Y-78833333D01*
X134357142Y-78785714D01*
X134404761Y-78738095D01*
X134452380Y-78642857D01*
X134452380Y-78452380D01*
X134404761Y-78357142D01*
X134357142Y-78309523D01*
X134261904Y-78261904D01*
X134071428Y-78261904D01*
X133976190Y-78309523D01*
X133928571Y-78357142D01*
X133880952Y-78452380D01*
X133452380Y-77357142D02*
X133452380Y-77833333D01*
X133928571Y-77880952D01*
X133880952Y-77833333D01*
X133833333Y-77738095D01*
X133833333Y-77500000D01*
X133880952Y-77404761D01*
X133928571Y-77357142D01*
X134023809Y-77309523D01*
X134261904Y-77309523D01*
X134357142Y-77357142D01*
X134404761Y-77404761D01*
X134452380Y-77500000D01*
X134452380Y-77738095D01*
X134404761Y-77833333D01*
X134357142Y-77880952D01*
X134357142Y-76309523D02*
X134404761Y-76357142D01*
X134452380Y-76500000D01*
X134452380Y-76595238D01*
X134404761Y-76738095D01*
X134309523Y-76833333D01*
X134214285Y-76880952D01*
X134023809Y-76928571D01*
X133880952Y-76928571D01*
X133690476Y-76880952D01*
X133595238Y-76833333D01*
X133500000Y-76738095D01*
X133452380Y-76595238D01*
X133452380Y-76500000D01*
X133500000Y-76357142D01*
X133547619Y-76309523D01*
X134452380Y-75880952D02*
X133452380Y-75880952D01*
X133452380Y-75500000D01*
X133500000Y-75404761D01*
X133547619Y-75357142D01*
X133642857Y-75309523D01*
X133785714Y-75309523D01*
X133880952Y-75357142D01*
X133928571Y-75404761D01*
X133976190Y-75500000D01*
X133976190Y-75880952D01*
%TO.C,U2*%
X94102380Y-85961904D02*
X94911904Y-85961904D01*
X95007142Y-85914285D01*
X95054761Y-85866666D01*
X95102380Y-85771428D01*
X95102380Y-85580952D01*
X95054761Y-85485714D01*
X95007142Y-85438095D01*
X94911904Y-85390476D01*
X94102380Y-85390476D01*
X94197619Y-84961904D02*
X94150000Y-84914285D01*
X94102380Y-84819047D01*
X94102380Y-84580952D01*
X94150000Y-84485714D01*
X94197619Y-84438095D01*
X94292857Y-84390476D01*
X94388095Y-84390476D01*
X94530952Y-84438095D01*
X95102380Y-85009523D01*
X95102380Y-84390476D01*
X88052380Y-89676190D02*
X88052380Y-89485714D01*
X88100000Y-89390476D01*
X88195238Y-89295238D01*
X88385714Y-89247619D01*
X88719047Y-89247619D01*
X88909523Y-89295238D01*
X89004761Y-89390476D01*
X89052380Y-89485714D01*
X89052380Y-89676190D01*
X89004761Y-89771428D01*
X88909523Y-89866666D01*
X88719047Y-89914285D01*
X88385714Y-89914285D01*
X88195238Y-89866666D01*
X88100000Y-89771428D01*
X88052380Y-89676190D01*
X89052380Y-88819047D02*
X88052380Y-88819047D01*
X89052380Y-88247619D02*
X88480952Y-88676190D01*
X88052380Y-88247619D02*
X88623809Y-88819047D01*
X89052380Y-87819047D02*
X88052380Y-87819047D01*
X88671428Y-87342857D02*
X88671428Y-86580952D01*
X88052380Y-86200000D02*
X88052380Y-85533333D01*
X89052380Y-85961904D01*
X88480952Y-85009523D02*
X88433333Y-85104761D01*
X88385714Y-85152380D01*
X88290476Y-85200000D01*
X88242857Y-85200000D01*
X88147619Y-85152380D01*
X88100000Y-85104761D01*
X88052380Y-85009523D01*
X88052380Y-84819047D01*
X88100000Y-84723809D01*
X88147619Y-84676190D01*
X88242857Y-84628571D01*
X88290476Y-84628571D01*
X88385714Y-84676190D01*
X88433333Y-84723809D01*
X88480952Y-84819047D01*
X88480952Y-85009523D01*
X88528571Y-85104761D01*
X88576190Y-85152380D01*
X88671428Y-85200000D01*
X88861904Y-85200000D01*
X88957142Y-85152380D01*
X89004761Y-85104761D01*
X89052380Y-85009523D01*
X89052380Y-84819047D01*
X89004761Y-84723809D01*
X88957142Y-84676190D01*
X88861904Y-84628571D01*
X88671428Y-84628571D01*
X88576190Y-84676190D01*
X88528571Y-84723809D01*
X88480952Y-84819047D01*
X89004761Y-84247619D02*
X89052380Y-84104761D01*
X89052380Y-83866666D01*
X89004761Y-83771428D01*
X88957142Y-83723809D01*
X88861904Y-83676190D01*
X88766666Y-83676190D01*
X88671428Y-83723809D01*
X88623809Y-83771428D01*
X88576190Y-83866666D01*
X88528571Y-84057142D01*
X88480952Y-84152380D01*
X88433333Y-84200000D01*
X88338095Y-84247619D01*
X88242857Y-84247619D01*
X88147619Y-84200000D01*
X88100000Y-84152380D01*
X88052380Y-84057142D01*
X88052380Y-83819047D01*
X88100000Y-83676190D01*
X89052380Y-82676190D02*
X88576190Y-83009523D01*
X89052380Y-83247619D02*
X88052380Y-83247619D01*
X88052380Y-82866666D01*
X88100000Y-82771428D01*
X88147619Y-82723809D01*
X88242857Y-82676190D01*
X88385714Y-82676190D01*
X88480952Y-82723809D01*
X88528571Y-82771428D01*
X88576190Y-82866666D01*
X88576190Y-83247619D01*
X88671428Y-82247619D02*
X88671428Y-81485714D01*
X88052380Y-80533333D02*
X88052380Y-81009523D01*
X88528571Y-81057142D01*
X88480952Y-81009523D01*
X88433333Y-80914285D01*
X88433333Y-80676190D01*
X88480952Y-80580952D01*
X88528571Y-80533333D01*
X88623809Y-80485714D01*
X88861904Y-80485714D01*
X88957142Y-80533333D01*
X89004761Y-80580952D01*
X89052380Y-80676190D01*
X89052380Y-80914285D01*
X89004761Y-81009523D01*
X88957142Y-81057142D01*
%TO.C,U1*%
X107838095Y-82052380D02*
X107838095Y-82861904D01*
X107885714Y-82957142D01*
X107933333Y-83004761D01*
X108028571Y-83052380D01*
X108219047Y-83052380D01*
X108314285Y-83004761D01*
X108361904Y-82957142D01*
X108409523Y-82861904D01*
X108409523Y-82052380D01*
X109409523Y-83052380D02*
X108838095Y-83052380D01*
X109123809Y-83052380D02*
X109123809Y-82052380D01*
X109028571Y-82195238D01*
X108933333Y-82290476D01*
X108838095Y-82338095D01*
X115152380Y-80661904D02*
X115152380Y-79995238D01*
X116152380Y-80423809D01*
X115485714Y-79185714D02*
X116152380Y-79185714D01*
X115104761Y-79423809D02*
X115819047Y-79661904D01*
X115819047Y-79042857D01*
X116152380Y-78661904D02*
X115152380Y-78661904D01*
X115628571Y-78661904D02*
X115628571Y-78090476D01*
X116152380Y-78090476D02*
X115152380Y-78090476D01*
X116057142Y-77042857D02*
X116104761Y-77090476D01*
X116152380Y-77233333D01*
X116152380Y-77328571D01*
X116104761Y-77471428D01*
X116009523Y-77566666D01*
X115914285Y-77614285D01*
X115723809Y-77661904D01*
X115580952Y-77661904D01*
X115390476Y-77614285D01*
X115295238Y-77566666D01*
X115200000Y-77471428D01*
X115152380Y-77328571D01*
X115152380Y-77233333D01*
X115200000Y-77090476D01*
X115247619Y-77042857D01*
X116152380Y-76090476D02*
X116152380Y-76661904D01*
X116152380Y-76376190D02*
X115152380Y-76376190D01*
X115295238Y-76471428D01*
X115390476Y-76566666D01*
X115438095Y-76661904D01*
X115247619Y-75709523D02*
X115200000Y-75661904D01*
X115152380Y-75566666D01*
X115152380Y-75328571D01*
X115200000Y-75233333D01*
X115247619Y-75185714D01*
X115342857Y-75138095D01*
X115438095Y-75138095D01*
X115580952Y-75185714D01*
X116152380Y-75757142D01*
X116152380Y-75138095D01*
X115152380Y-74233333D02*
X115152380Y-74709523D01*
X115628571Y-74757142D01*
X115580952Y-74709523D01*
X115533333Y-74614285D01*
X115533333Y-74376190D01*
X115580952Y-74280952D01*
X115628571Y-74233333D01*
X115723809Y-74185714D01*
X115961904Y-74185714D01*
X116057142Y-74233333D01*
X116104761Y-74280952D01*
X116152380Y-74376190D01*
X116152380Y-74614285D01*
X116104761Y-74709523D01*
X116057142Y-74757142D01*
%TO.C,R5*%
X129633333Y-89252380D02*
X129300000Y-88776190D01*
X129061904Y-89252380D02*
X129061904Y-88252380D01*
X129442857Y-88252380D01*
X129538095Y-88300000D01*
X129585714Y-88347619D01*
X129633333Y-88442857D01*
X129633333Y-88585714D01*
X129585714Y-88680952D01*
X129538095Y-88728571D01*
X129442857Y-88776190D01*
X129061904Y-88776190D01*
X130538095Y-88252380D02*
X130061904Y-88252380D01*
X130014285Y-88728571D01*
X130061904Y-88680952D01*
X130157142Y-88633333D01*
X130395238Y-88633333D01*
X130490476Y-88680952D01*
X130538095Y-88728571D01*
X130585714Y-88823809D01*
X130585714Y-89061904D01*
X130538095Y-89157142D01*
X130490476Y-89204761D01*
X130395238Y-89252380D01*
X130157142Y-89252380D01*
X130061904Y-89204761D01*
X130014285Y-89157142D01*
X129133333Y-90452380D02*
X128561904Y-90452380D01*
X128847619Y-90452380D02*
X128847619Y-89452380D01*
X128752380Y-89595238D01*
X128657142Y-89690476D01*
X128561904Y-89738095D01*
X129514285Y-89547619D02*
X129561904Y-89500000D01*
X129657142Y-89452380D01*
X129895238Y-89452380D01*
X129990476Y-89500000D01*
X130038095Y-89547619D01*
X130085714Y-89642857D01*
X130085714Y-89738095D01*
X130038095Y-89880952D01*
X129466666Y-90452380D01*
X130085714Y-90452380D01*
X130704761Y-89452380D02*
X130800000Y-89452380D01*
X130895238Y-89500000D01*
X130942857Y-89547619D01*
X130990476Y-89642857D01*
X131038095Y-89833333D01*
X131038095Y-90071428D01*
X130990476Y-90261904D01*
X130942857Y-90357142D01*
X130895238Y-90404761D01*
X130800000Y-90452380D01*
X130704761Y-90452380D01*
X130609523Y-90404761D01*
X130561904Y-90357142D01*
X130514285Y-90261904D01*
X130466666Y-90071428D01*
X130466666Y-89833333D01*
X130514285Y-89642857D01*
X130561904Y-89547619D01*
X130609523Y-89500000D01*
X130704761Y-89452380D01*
%TO.C,R4*%
X118433333Y-79052380D02*
X118100000Y-78576190D01*
X117861904Y-79052380D02*
X117861904Y-78052380D01*
X118242857Y-78052380D01*
X118338095Y-78100000D01*
X118385714Y-78147619D01*
X118433333Y-78242857D01*
X118433333Y-78385714D01*
X118385714Y-78480952D01*
X118338095Y-78528571D01*
X118242857Y-78576190D01*
X117861904Y-78576190D01*
X119290476Y-78385714D02*
X119290476Y-79052380D01*
X119052380Y-78004761D02*
X118814285Y-78719047D01*
X119433333Y-78719047D01*
X118109523Y-80652380D02*
X117538095Y-80652380D01*
X117823809Y-80652380D02*
X117823809Y-79652380D01*
X117728571Y-79795238D01*
X117633333Y-79890476D01*
X117538095Y-79938095D01*
X118728571Y-79652380D02*
X118823809Y-79652380D01*
X118919047Y-79700000D01*
X118966666Y-79747619D01*
X119014285Y-79842857D01*
X119061904Y-80033333D01*
X119061904Y-80271428D01*
X119014285Y-80461904D01*
X118966666Y-80557142D01*
X118919047Y-80604761D01*
X118823809Y-80652380D01*
X118728571Y-80652380D01*
X118633333Y-80604761D01*
X118585714Y-80557142D01*
X118538095Y-80461904D01*
X118490476Y-80271428D01*
X118490476Y-80033333D01*
X118538095Y-79842857D01*
X118585714Y-79747619D01*
X118633333Y-79700000D01*
X118728571Y-79652380D01*
X119490476Y-80652380D02*
X119490476Y-79652380D01*
X120061904Y-80652380D02*
X119633333Y-80080952D01*
X120061904Y-79652380D02*
X119490476Y-80223809D01*
%TO.C,R2*%
X116033333Y-83652380D02*
X115700000Y-83176190D01*
X115461904Y-83652380D02*
X115461904Y-82652380D01*
X115842857Y-82652380D01*
X115938095Y-82700000D01*
X115985714Y-82747619D01*
X116033333Y-82842857D01*
X116033333Y-82985714D01*
X115985714Y-83080952D01*
X115938095Y-83128571D01*
X115842857Y-83176190D01*
X115461904Y-83176190D01*
X116414285Y-82747619D02*
X116461904Y-82700000D01*
X116557142Y-82652380D01*
X116795238Y-82652380D01*
X116890476Y-82700000D01*
X116938095Y-82747619D01*
X116985714Y-82842857D01*
X116985714Y-82938095D01*
X116938095Y-83080952D01*
X116366666Y-83652380D01*
X116985714Y-83652380D01*
X118190476Y-82652380D02*
X118809523Y-82652380D01*
X118476190Y-83033333D01*
X118619047Y-83033333D01*
X118714285Y-83080952D01*
X118761904Y-83128571D01*
X118809523Y-83223809D01*
X118809523Y-83461904D01*
X118761904Y-83557142D01*
X118714285Y-83604761D01*
X118619047Y-83652380D01*
X118333333Y-83652380D01*
X118238095Y-83604761D01*
X118190476Y-83557142D01*
X119142857Y-82652380D02*
X119761904Y-82652380D01*
X119428571Y-83033333D01*
X119571428Y-83033333D01*
X119666666Y-83080952D01*
X119714285Y-83128571D01*
X119761904Y-83223809D01*
X119761904Y-83461904D01*
X119714285Y-83557142D01*
X119666666Y-83604761D01*
X119571428Y-83652380D01*
X119285714Y-83652380D01*
X119190476Y-83604761D01*
X119142857Y-83557142D01*
%TO.C,R3*%
X119633333Y-68252380D02*
X119300000Y-67776190D01*
X119061904Y-68252380D02*
X119061904Y-67252380D01*
X119442857Y-67252380D01*
X119538095Y-67300000D01*
X119585714Y-67347619D01*
X119633333Y-67442857D01*
X119633333Y-67585714D01*
X119585714Y-67680952D01*
X119538095Y-67728571D01*
X119442857Y-67776190D01*
X119061904Y-67776190D01*
X119966666Y-67252380D02*
X120585714Y-67252380D01*
X120252380Y-67633333D01*
X120395238Y-67633333D01*
X120490476Y-67680952D01*
X120538095Y-67728571D01*
X120585714Y-67823809D01*
X120585714Y-68061904D01*
X120538095Y-68157142D01*
X120490476Y-68204761D01*
X120395238Y-68252380D01*
X120109523Y-68252380D01*
X120014285Y-68204761D01*
X119966666Y-68157142D01*
X119133333Y-69652380D02*
X118561904Y-69652380D01*
X118847619Y-69652380D02*
X118847619Y-68652380D01*
X118752380Y-68795238D01*
X118657142Y-68890476D01*
X118561904Y-68938095D01*
X119514285Y-68747619D02*
X119561904Y-68700000D01*
X119657142Y-68652380D01*
X119895238Y-68652380D01*
X119990476Y-68700000D01*
X120038095Y-68747619D01*
X120085714Y-68842857D01*
X120085714Y-68938095D01*
X120038095Y-69080952D01*
X119466666Y-69652380D01*
X120085714Y-69652380D01*
X120704761Y-68652380D02*
X120800000Y-68652380D01*
X120895238Y-68700000D01*
X120942857Y-68747619D01*
X120990476Y-68842857D01*
X121038095Y-69033333D01*
X121038095Y-69271428D01*
X120990476Y-69461904D01*
X120942857Y-69557142D01*
X120895238Y-69604761D01*
X120800000Y-69652380D01*
X120704761Y-69652380D01*
X120609523Y-69604761D01*
X120561904Y-69557142D01*
X120514285Y-69461904D01*
X120466666Y-69271428D01*
X120466666Y-69033333D01*
X120514285Y-68842857D01*
X120561904Y-68747619D01*
X120609523Y-68700000D01*
X120704761Y-68652380D01*
%TO.C,R1*%
X101433333Y-83652380D02*
X101100000Y-83176190D01*
X100861904Y-83652380D02*
X100861904Y-82652380D01*
X101242857Y-82652380D01*
X101338095Y-82700000D01*
X101385714Y-82747619D01*
X101433333Y-82842857D01*
X101433333Y-82985714D01*
X101385714Y-83080952D01*
X101338095Y-83128571D01*
X101242857Y-83176190D01*
X100861904Y-83176190D01*
X102385714Y-83652380D02*
X101814285Y-83652380D01*
X102100000Y-83652380D02*
X102100000Y-82652380D01*
X102004761Y-82795238D01*
X101909523Y-82890476D01*
X101814285Y-82938095D01*
X103990476Y-82652380D02*
X104609523Y-82652380D01*
X104276190Y-83033333D01*
X104419047Y-83033333D01*
X104514285Y-83080952D01*
X104561904Y-83128571D01*
X104609523Y-83223809D01*
X104609523Y-83461904D01*
X104561904Y-83557142D01*
X104514285Y-83604761D01*
X104419047Y-83652380D01*
X104133333Y-83652380D01*
X104038095Y-83604761D01*
X103990476Y-83557142D01*
X104942857Y-82652380D02*
X105561904Y-82652380D01*
X105228571Y-83033333D01*
X105371428Y-83033333D01*
X105466666Y-83080952D01*
X105514285Y-83128571D01*
X105561904Y-83223809D01*
X105561904Y-83461904D01*
X105514285Y-83557142D01*
X105466666Y-83604761D01*
X105371428Y-83652380D01*
X105085714Y-83652380D01*
X104990476Y-83604761D01*
X104942857Y-83557142D01*
%TO.C,J6*%
X80266666Y-67942380D02*
X80266666Y-68656666D01*
X80219047Y-68799523D01*
X80123809Y-68894761D01*
X79980952Y-68942380D01*
X79885714Y-68942380D01*
X81171428Y-67942380D02*
X80980952Y-67942380D01*
X80885714Y-67990000D01*
X80838095Y-68037619D01*
X80742857Y-68180476D01*
X80695238Y-68370952D01*
X80695238Y-68751904D01*
X80742857Y-68847142D01*
X80790476Y-68894761D01*
X80885714Y-68942380D01*
X81076190Y-68942380D01*
X81171428Y-68894761D01*
X81219047Y-68847142D01*
X81266666Y-68751904D01*
X81266666Y-68513809D01*
X81219047Y-68418571D01*
X81171428Y-68370952D01*
X81076190Y-68323333D01*
X80885714Y-68323333D01*
X80790476Y-68370952D01*
X80742857Y-68418571D01*
X80695238Y-68513809D01*
X79390476Y-83852380D02*
X79057142Y-83376190D01*
X78819047Y-83852380D02*
X78819047Y-82852380D01*
X79200000Y-82852380D01*
X79295238Y-82900000D01*
X79342857Y-82947619D01*
X79390476Y-83042857D01*
X79390476Y-83185714D01*
X79342857Y-83280952D01*
X79295238Y-83328571D01*
X79200000Y-83376190D01*
X78819047Y-83376190D01*
X79676190Y-82852380D02*
X80247619Y-82852380D01*
X79961904Y-83852380D02*
X79961904Y-82852380D01*
X81152380Y-83757142D02*
X81104761Y-83804761D01*
X80961904Y-83852380D01*
X80866666Y-83852380D01*
X80723809Y-83804761D01*
X80628571Y-83709523D01*
X80580952Y-83614285D01*
X80533333Y-83423809D01*
X80533333Y-83280952D01*
X80580952Y-83090476D01*
X80628571Y-82995238D01*
X80723809Y-82900000D01*
X80866666Y-82852380D01*
X80961904Y-82852380D01*
X81104761Y-82900000D01*
X81152380Y-82947619D01*
X82914285Y-83757142D02*
X82866666Y-83804761D01*
X82723809Y-83852380D01*
X82628571Y-83852380D01*
X82485714Y-83804761D01*
X82390476Y-83709523D01*
X82342857Y-83614285D01*
X82295238Y-83423809D01*
X82295238Y-83280952D01*
X82342857Y-83090476D01*
X82390476Y-82995238D01*
X82485714Y-82900000D01*
X82628571Y-82852380D01*
X82723809Y-82852380D01*
X82866666Y-82900000D01*
X82914285Y-82947619D01*
X83485714Y-83852380D02*
X83390476Y-83804761D01*
X83342857Y-83757142D01*
X83295238Y-83661904D01*
X83295238Y-83376190D01*
X83342857Y-83280952D01*
X83390476Y-83233333D01*
X83485714Y-83185714D01*
X83628571Y-83185714D01*
X83723809Y-83233333D01*
X83771428Y-83280952D01*
X83819047Y-83376190D01*
X83819047Y-83661904D01*
X83771428Y-83757142D01*
X83723809Y-83804761D01*
X83628571Y-83852380D01*
X83485714Y-83852380D01*
X84247619Y-83185714D02*
X84247619Y-83852380D01*
X84247619Y-83280952D02*
X84295238Y-83233333D01*
X84390476Y-83185714D01*
X84533333Y-83185714D01*
X84628571Y-83233333D01*
X84676190Y-83328571D01*
X84676190Y-83852380D01*
X85152380Y-83185714D02*
X85152380Y-83852380D01*
X85152380Y-83280952D02*
X85200000Y-83233333D01*
X85295238Y-83185714D01*
X85438095Y-83185714D01*
X85533333Y-83233333D01*
X85580952Y-83328571D01*
X85580952Y-83852380D01*
%TO.C,J5*%
X114016666Y-89252380D02*
X114016666Y-89966666D01*
X113969047Y-90109523D01*
X113873809Y-90204761D01*
X113730952Y-90252380D01*
X113635714Y-90252380D01*
X114969047Y-89252380D02*
X114492857Y-89252380D01*
X114445238Y-89728571D01*
X114492857Y-89680952D01*
X114588095Y-89633333D01*
X114826190Y-89633333D01*
X114921428Y-89680952D01*
X114969047Y-89728571D01*
X115016666Y-89823809D01*
X115016666Y-90061904D01*
X114969047Y-90157142D01*
X114921428Y-90204761D01*
X114826190Y-90252380D01*
X114588095Y-90252380D01*
X114492857Y-90204761D01*
X114445238Y-90157142D01*
X117869047Y-88204761D02*
X118011904Y-88252380D01*
X118250000Y-88252380D01*
X118345238Y-88204761D01*
X118392857Y-88157142D01*
X118440476Y-88061904D01*
X118440476Y-87966666D01*
X118392857Y-87871428D01*
X118345238Y-87823809D01*
X118250000Y-87776190D01*
X118059523Y-87728571D01*
X117964285Y-87680952D01*
X117916666Y-87633333D01*
X117869047Y-87538095D01*
X117869047Y-87442857D01*
X117916666Y-87347619D01*
X117964285Y-87300000D01*
X118059523Y-87252380D01*
X118297619Y-87252380D01*
X118440476Y-87300000D01*
X118726190Y-87585714D02*
X119107142Y-87585714D01*
X118869047Y-87252380D02*
X118869047Y-88109523D01*
X118916666Y-88204761D01*
X119011904Y-88252380D01*
X119107142Y-88252380D01*
X119440476Y-88252380D02*
X119440476Y-87585714D01*
X119440476Y-87776190D02*
X119488095Y-87680952D01*
X119535714Y-87633333D01*
X119630952Y-87585714D01*
X119726190Y-87585714D01*
X120059523Y-88252380D02*
X120059523Y-87585714D01*
X120059523Y-87252380D02*
X120011904Y-87300000D01*
X120059523Y-87347619D01*
X120107142Y-87300000D01*
X120059523Y-87252380D01*
X120059523Y-87347619D01*
X120535714Y-87585714D02*
X120535714Y-88252380D01*
X120535714Y-87680952D02*
X120583333Y-87633333D01*
X120678571Y-87585714D01*
X120821428Y-87585714D01*
X120916666Y-87633333D01*
X120964285Y-87728571D01*
X120964285Y-88252380D01*
X121869047Y-87585714D02*
X121869047Y-88395238D01*
X121821428Y-88490476D01*
X121773809Y-88538095D01*
X121678571Y-88585714D01*
X121535714Y-88585714D01*
X121440476Y-88538095D01*
X121869047Y-88204761D02*
X121773809Y-88252380D01*
X121583333Y-88252380D01*
X121488095Y-88204761D01*
X121440476Y-88157142D01*
X121392857Y-88061904D01*
X121392857Y-87776190D01*
X121440476Y-87680952D01*
X121488095Y-87633333D01*
X121583333Y-87585714D01*
X121773809Y-87585714D01*
X121869047Y-87633333D01*
X123059523Y-87347619D02*
X123107142Y-87300000D01*
X123202380Y-87252380D01*
X123440476Y-87252380D01*
X123535714Y-87300000D01*
X123583333Y-87347619D01*
X123630952Y-87442857D01*
X123630952Y-87538095D01*
X123583333Y-87680952D01*
X123011904Y-88252380D01*
X123630952Y-88252380D01*
%TO.C,J4*%
X99066666Y-89452380D02*
X99066666Y-90166666D01*
X99019047Y-90309523D01*
X98923809Y-90404761D01*
X98780952Y-90452380D01*
X98685714Y-90452380D01*
X99971428Y-89785714D02*
X99971428Y-90452380D01*
X99733333Y-89404761D02*
X99495238Y-90119047D01*
X100114285Y-90119047D01*
X103719047Y-88204761D02*
X103861904Y-88252380D01*
X104100000Y-88252380D01*
X104195238Y-88204761D01*
X104242857Y-88157142D01*
X104290476Y-88061904D01*
X104290476Y-87966666D01*
X104242857Y-87871428D01*
X104195238Y-87823809D01*
X104100000Y-87776190D01*
X103909523Y-87728571D01*
X103814285Y-87680952D01*
X103766666Y-87633333D01*
X103719047Y-87538095D01*
X103719047Y-87442857D01*
X103766666Y-87347619D01*
X103814285Y-87300000D01*
X103909523Y-87252380D01*
X104147619Y-87252380D01*
X104290476Y-87300000D01*
X104576190Y-87585714D02*
X104957142Y-87585714D01*
X104719047Y-87252380D02*
X104719047Y-88109523D01*
X104766666Y-88204761D01*
X104861904Y-88252380D01*
X104957142Y-88252380D01*
X105290476Y-88252380D02*
X105290476Y-87585714D01*
X105290476Y-87776190D02*
X105338095Y-87680952D01*
X105385714Y-87633333D01*
X105480952Y-87585714D01*
X105576190Y-87585714D01*
X105909523Y-88252380D02*
X105909523Y-87585714D01*
X105909523Y-87252380D02*
X105861904Y-87300000D01*
X105909523Y-87347619D01*
X105957142Y-87300000D01*
X105909523Y-87252380D01*
X105909523Y-87347619D01*
X106385714Y-87585714D02*
X106385714Y-88252380D01*
X106385714Y-87680952D02*
X106433333Y-87633333D01*
X106528571Y-87585714D01*
X106671428Y-87585714D01*
X106766666Y-87633333D01*
X106814285Y-87728571D01*
X106814285Y-88252380D01*
X107719047Y-87585714D02*
X107719047Y-88395238D01*
X107671428Y-88490476D01*
X107623809Y-88538095D01*
X107528571Y-88585714D01*
X107385714Y-88585714D01*
X107290476Y-88538095D01*
X107719047Y-88204761D02*
X107623809Y-88252380D01*
X107433333Y-88252380D01*
X107338095Y-88204761D01*
X107290476Y-88157142D01*
X107242857Y-88061904D01*
X107242857Y-87776190D01*
X107290476Y-87680952D01*
X107338095Y-87633333D01*
X107433333Y-87585714D01*
X107623809Y-87585714D01*
X107719047Y-87633333D01*
X109480952Y-88252380D02*
X108909523Y-88252380D01*
X109195238Y-88252380D02*
X109195238Y-87252380D01*
X109100000Y-87395238D01*
X109004761Y-87490476D01*
X108909523Y-87538095D01*
%TO.C,J3*%
X86666666Y-90522380D02*
X86666666Y-91236666D01*
X86619047Y-91379523D01*
X86523809Y-91474761D01*
X86380952Y-91522380D01*
X86285714Y-91522380D01*
X87047619Y-90522380D02*
X87666666Y-90522380D01*
X87333333Y-90903333D01*
X87476190Y-90903333D01*
X87571428Y-90950952D01*
X87619047Y-90998571D01*
X87666666Y-91093809D01*
X87666666Y-91331904D01*
X87619047Y-91427142D01*
X87571428Y-91474761D01*
X87476190Y-91522380D01*
X87190476Y-91522380D01*
X87095238Y-91474761D01*
X87047619Y-91427142D01*
X82361904Y-100252380D02*
X82695238Y-101252380D01*
X83028571Y-100252380D01*
X83361904Y-101252380D02*
X83361904Y-100252380D01*
X83838095Y-101252380D02*
X83838095Y-100252380D01*
X84409523Y-101252380D01*
X84409523Y-100252380D01*
X85504761Y-100252380D02*
X85838095Y-101252380D01*
X86171428Y-100252380D01*
X86647619Y-101252380D02*
X86552380Y-101204761D01*
X86504761Y-101157142D01*
X86457142Y-101061904D01*
X86457142Y-100776190D01*
X86504761Y-100680952D01*
X86552380Y-100633333D01*
X86647619Y-100585714D01*
X86790476Y-100585714D01*
X86885714Y-100633333D01*
X86933333Y-100680952D01*
X86980952Y-100776190D01*
X86980952Y-101061904D01*
X86933333Y-101157142D01*
X86885714Y-101204761D01*
X86790476Y-101252380D01*
X86647619Y-101252380D01*
X87552380Y-101252380D02*
X87457142Y-101204761D01*
X87409523Y-101109523D01*
X87409523Y-100252380D01*
X87790476Y-100585714D02*
X88171428Y-100585714D01*
X87933333Y-100252380D02*
X87933333Y-101109523D01*
X87980952Y-101204761D01*
X88076190Y-101252380D01*
X88171428Y-101252380D01*
X88933333Y-101252380D02*
X88933333Y-100728571D01*
X88885714Y-100633333D01*
X88790476Y-100585714D01*
X88600000Y-100585714D01*
X88504761Y-100633333D01*
X88933333Y-101204761D02*
X88838095Y-101252380D01*
X88600000Y-101252380D01*
X88504761Y-101204761D01*
X88457142Y-101109523D01*
X88457142Y-101014285D01*
X88504761Y-100919047D01*
X88600000Y-100871428D01*
X88838095Y-100871428D01*
X88933333Y-100823809D01*
X89838095Y-100585714D02*
X89838095Y-101395238D01*
X89790476Y-101490476D01*
X89742857Y-101538095D01*
X89647619Y-101585714D01*
X89504761Y-101585714D01*
X89409523Y-101538095D01*
X89838095Y-101204761D02*
X89742857Y-101252380D01*
X89552380Y-101252380D01*
X89457142Y-101204761D01*
X89409523Y-101157142D01*
X89361904Y-101061904D01*
X89361904Y-100776190D01*
X89409523Y-100680952D01*
X89457142Y-100633333D01*
X89552380Y-100585714D01*
X89742857Y-100585714D01*
X89838095Y-100633333D01*
X90695238Y-101204761D02*
X90600000Y-101252380D01*
X90409523Y-101252380D01*
X90314285Y-101204761D01*
X90266666Y-101109523D01*
X90266666Y-100728571D01*
X90314285Y-100633333D01*
X90409523Y-100585714D01*
X90600000Y-100585714D01*
X90695238Y-100633333D01*
X90742857Y-100728571D01*
X90742857Y-100823809D01*
X90266666Y-100919047D01*
%TO.C,J2*%
X101666666Y-100452380D02*
X101666666Y-101166666D01*
X101619047Y-101309523D01*
X101523809Y-101404761D01*
X101380952Y-101452380D01*
X101285714Y-101452380D01*
X102095238Y-100547619D02*
X102142857Y-100500000D01*
X102238095Y-100452380D01*
X102476190Y-100452380D01*
X102571428Y-100500000D01*
X102619047Y-100547619D01*
X102666666Y-100642857D01*
X102666666Y-100738095D01*
X102619047Y-100880952D01*
X102047619Y-101452380D01*
X102666666Y-101452380D01*
X89952380Y-112976190D02*
X88952380Y-112976190D01*
X88952380Y-112595238D01*
X89000000Y-112500000D01*
X89047619Y-112452380D01*
X89142857Y-112404761D01*
X89285714Y-112404761D01*
X89380952Y-112452380D01*
X89428571Y-112500000D01*
X89476190Y-112595238D01*
X89476190Y-112976190D01*
X88952380Y-112071428D02*
X89952380Y-111833333D01*
X89238095Y-111642857D01*
X89952380Y-111452380D01*
X88952380Y-111214285D01*
X89952380Y-110261904D02*
X89476190Y-110595238D01*
X89952380Y-110833333D02*
X88952380Y-110833333D01*
X88952380Y-110452380D01*
X89000000Y-110357142D01*
X89047619Y-110309523D01*
X89142857Y-110261904D01*
X89285714Y-110261904D01*
X89380952Y-110309523D01*
X89428571Y-110357142D01*
X89476190Y-110452380D01*
X89476190Y-110833333D01*
X90047619Y-110071428D02*
X90047619Y-109309523D01*
X89952380Y-109071428D02*
X88952380Y-109071428D01*
X89952380Y-108595238D02*
X88952380Y-108595238D01*
X89952380Y-108023809D01*
X88952380Y-108023809D01*
%TO.C,F2*%
X115528571Y-115733333D02*
X115528571Y-116066666D01*
X116052380Y-116066666D02*
X115052380Y-116066666D01*
X115052380Y-115590476D01*
X115147619Y-115257142D02*
X115100000Y-115209523D01*
X115052380Y-115114285D01*
X115052380Y-114876190D01*
X115100000Y-114780952D01*
X115147619Y-114733333D01*
X115242857Y-114685714D01*
X115338095Y-114685714D01*
X115480952Y-114733333D01*
X116052380Y-115304761D01*
X116052380Y-114685714D01*
D15*
X121377380Y-116102142D02*
X121377380Y-115483095D01*
X121758333Y-115816428D01*
X121758333Y-115673571D01*
X121805952Y-115578333D01*
X121853571Y-115530714D01*
X121948809Y-115483095D01*
X122186904Y-115483095D01*
X122282142Y-115530714D01*
X122329761Y-115578333D01*
X122377380Y-115673571D01*
X122377380Y-115959285D01*
X122329761Y-116054523D01*
X122282142Y-116102142D01*
X121377380Y-114578333D02*
X121377380Y-115054523D01*
X121853571Y-115102142D01*
X121805952Y-115054523D01*
X121758333Y-114959285D01*
X121758333Y-114721190D01*
X121805952Y-114625952D01*
X121853571Y-114578333D01*
X121948809Y-114530714D01*
X122186904Y-114530714D01*
X122282142Y-114578333D01*
X122329761Y-114625952D01*
X122377380Y-114721190D01*
X122377380Y-114959285D01*
X122329761Y-115054523D01*
X122282142Y-115102142D01*
X121710714Y-113673571D02*
X122377380Y-113673571D01*
X121329761Y-113911666D02*
X122044047Y-114149761D01*
X122044047Y-113530714D01*
X121710714Y-112721190D02*
X122377380Y-112721190D01*
X121329761Y-112959285D02*
X122044047Y-113197380D01*
X122044047Y-112578333D01*
X121996428Y-112197380D02*
X121996428Y-111435476D01*
X121472619Y-111006904D02*
X121425000Y-110959285D01*
X121377380Y-110864047D01*
X121377380Y-110625952D01*
X121425000Y-110530714D01*
X121472619Y-110483095D01*
X121567857Y-110435476D01*
X121663095Y-110435476D01*
X121805952Y-110483095D01*
X122377380Y-111054523D01*
X122377380Y-110435476D01*
%TO.C,F1*%
D10*
X107328571Y-115733333D02*
X107328571Y-116066666D01*
X107852380Y-116066666D02*
X106852380Y-116066666D01*
X106852380Y-115590476D01*
X107852380Y-114685714D02*
X107852380Y-115257142D01*
X107852380Y-114971428D02*
X106852380Y-114971428D01*
X106995238Y-115066666D01*
X107090476Y-115161904D01*
X107138095Y-115257142D01*
D15*
X113127380Y-116102142D02*
X113127380Y-115483095D01*
X113508333Y-115816428D01*
X113508333Y-115673571D01*
X113555952Y-115578333D01*
X113603571Y-115530714D01*
X113698809Y-115483095D01*
X113936904Y-115483095D01*
X114032142Y-115530714D01*
X114079761Y-115578333D01*
X114127380Y-115673571D01*
X114127380Y-115959285D01*
X114079761Y-116054523D01*
X114032142Y-116102142D01*
X113127380Y-114578333D02*
X113127380Y-115054523D01*
X113603571Y-115102142D01*
X113555952Y-115054523D01*
X113508333Y-114959285D01*
X113508333Y-114721190D01*
X113555952Y-114625952D01*
X113603571Y-114578333D01*
X113698809Y-114530714D01*
X113936904Y-114530714D01*
X114032142Y-114578333D01*
X114079761Y-114625952D01*
X114127380Y-114721190D01*
X114127380Y-114959285D01*
X114079761Y-115054523D01*
X114032142Y-115102142D01*
X113460714Y-113673571D02*
X114127380Y-113673571D01*
X113079761Y-113911666D02*
X113794047Y-114149761D01*
X113794047Y-113530714D01*
X113460714Y-112721190D02*
X114127380Y-112721190D01*
X113079761Y-112959285D02*
X113794047Y-113197380D01*
X113794047Y-112578333D01*
X113746428Y-112197380D02*
X113746428Y-111435476D01*
X113222619Y-111006904D02*
X113175000Y-110959285D01*
X113127380Y-110864047D01*
X113127380Y-110625952D01*
X113175000Y-110530714D01*
X113222619Y-110483095D01*
X113317857Y-110435476D01*
X113413095Y-110435476D01*
X113555952Y-110483095D01*
X114127380Y-111054523D01*
X114127380Y-110435476D01*
%TO.C,D1*%
D10*
X115661904Y-67852380D02*
X115661904Y-66852380D01*
X115900000Y-66852380D01*
X116042857Y-66900000D01*
X116138095Y-66995238D01*
X116185714Y-67090476D01*
X116233333Y-67280952D01*
X116233333Y-67423809D01*
X116185714Y-67614285D01*
X116138095Y-67709523D01*
X116042857Y-67804761D01*
X115900000Y-67852380D01*
X115661904Y-67852380D01*
X117185714Y-67852380D02*
X116614285Y-67852380D01*
X116900000Y-67852380D02*
X116900000Y-66852380D01*
X116804761Y-66995238D01*
X116709523Y-67090476D01*
X116614285Y-67138095D01*
X115957142Y-69052380D02*
X115480952Y-69052380D01*
X115480952Y-68052380D01*
X116290476Y-68528571D02*
X116623809Y-68528571D01*
X116766666Y-69052380D02*
X116290476Y-69052380D01*
X116290476Y-68052380D01*
X116766666Y-68052380D01*
X117195238Y-69052380D02*
X117195238Y-68052380D01*
X117433333Y-68052380D01*
X117576190Y-68100000D01*
X117671428Y-68195238D01*
X117719047Y-68290476D01*
X117766666Y-68480952D01*
X117766666Y-68623809D01*
X117719047Y-68814285D01*
X117671428Y-68909523D01*
X117576190Y-69004761D01*
X117433333Y-69052380D01*
X117195238Y-69052380D01*
%TO.C,C4*%
X131833333Y-69757142D02*
X131785714Y-69804761D01*
X131642857Y-69852380D01*
X131547619Y-69852380D01*
X131404761Y-69804761D01*
X131309523Y-69709523D01*
X131261904Y-69614285D01*
X131214285Y-69423809D01*
X131214285Y-69280952D01*
X131261904Y-69090476D01*
X131309523Y-68995238D01*
X131404761Y-68900000D01*
X131547619Y-68852380D01*
X131642857Y-68852380D01*
X131785714Y-68900000D01*
X131833333Y-68947619D01*
X132690476Y-69185714D02*
X132690476Y-69852380D01*
X132452380Y-68804761D02*
X132214285Y-69519047D01*
X132833333Y-69519047D01*
X131157142Y-70052380D02*
X131252380Y-70052380D01*
X131347619Y-70100000D01*
X131395238Y-70147619D01*
X131442857Y-70242857D01*
X131490476Y-70433333D01*
X131490476Y-70671428D01*
X131442857Y-70861904D01*
X131395238Y-70957142D01*
X131347619Y-71004761D01*
X131252380Y-71052380D01*
X131157142Y-71052380D01*
X131061904Y-71004761D01*
X131014285Y-70957142D01*
X130966666Y-70861904D01*
X130919047Y-70671428D01*
X130919047Y-70433333D01*
X130966666Y-70242857D01*
X131014285Y-70147619D01*
X131061904Y-70100000D01*
X131157142Y-70052380D01*
X131919047Y-70957142D02*
X131966666Y-71004761D01*
X131919047Y-71052380D01*
X131871428Y-71004761D01*
X131919047Y-70957142D01*
X131919047Y-71052380D01*
X132919047Y-71052380D02*
X132347619Y-71052380D01*
X132633333Y-71052380D02*
X132633333Y-70052380D01*
X132538095Y-70195238D01*
X132442857Y-70290476D01*
X132347619Y-70338095D01*
X133776190Y-70385714D02*
X133776190Y-71052380D01*
X133347619Y-70385714D02*
X133347619Y-70909523D01*
X133395238Y-71004761D01*
X133490476Y-71052380D01*
X133633333Y-71052380D01*
X133728571Y-71004761D01*
X133776190Y-70957142D01*
X134585714Y-70528571D02*
X134252380Y-70528571D01*
X134252380Y-71052380D02*
X134252380Y-70052380D01*
X134728571Y-70052380D01*
%TO.C,C3*%
X92033333Y-79157142D02*
X91985714Y-79204761D01*
X91842857Y-79252380D01*
X91747619Y-79252380D01*
X91604761Y-79204761D01*
X91509523Y-79109523D01*
X91461904Y-79014285D01*
X91414285Y-78823809D01*
X91414285Y-78680952D01*
X91461904Y-78490476D01*
X91509523Y-78395238D01*
X91604761Y-78300000D01*
X91747619Y-78252380D01*
X91842857Y-78252380D01*
X91985714Y-78300000D01*
X92033333Y-78347619D01*
X92366666Y-78252380D02*
X92985714Y-78252380D01*
X92652380Y-78633333D01*
X92795238Y-78633333D01*
X92890476Y-78680952D01*
X92938095Y-78728571D01*
X92985714Y-78823809D01*
X92985714Y-79061904D01*
X92938095Y-79157142D01*
X92890476Y-79204761D01*
X92795238Y-79252380D01*
X92509523Y-79252380D01*
X92414285Y-79204761D01*
X92366666Y-79157142D01*
X92357142Y-79652380D02*
X92452380Y-79652380D01*
X92547619Y-79700000D01*
X92595238Y-79747619D01*
X92642857Y-79842857D01*
X92690476Y-80033333D01*
X92690476Y-80271428D01*
X92642857Y-80461904D01*
X92595238Y-80557142D01*
X92547619Y-80604761D01*
X92452380Y-80652380D01*
X92357142Y-80652380D01*
X92261904Y-80604761D01*
X92214285Y-80557142D01*
X92166666Y-80461904D01*
X92119047Y-80271428D01*
X92119047Y-80033333D01*
X92166666Y-79842857D01*
X92214285Y-79747619D01*
X92261904Y-79700000D01*
X92357142Y-79652380D01*
X93119047Y-80557142D02*
X93166666Y-80604761D01*
X93119047Y-80652380D01*
X93071428Y-80604761D01*
X93119047Y-80557142D01*
X93119047Y-80652380D01*
X94119047Y-80652380D02*
X93547619Y-80652380D01*
X93833333Y-80652380D02*
X93833333Y-79652380D01*
X93738095Y-79795238D01*
X93642857Y-79890476D01*
X93547619Y-79938095D01*
X94976190Y-79985714D02*
X94976190Y-80652380D01*
X94547619Y-79985714D02*
X94547619Y-80509523D01*
X94595238Y-80604761D01*
X94690476Y-80652380D01*
X94833333Y-80652380D01*
X94928571Y-80604761D01*
X94976190Y-80557142D01*
X95785714Y-80128571D02*
X95452380Y-80128571D01*
X95452380Y-80652380D02*
X95452380Y-79652380D01*
X95928571Y-79652380D01*
%TO.C,C2*%
X87333333Y-71157142D02*
X87285714Y-71204761D01*
X87142857Y-71252380D01*
X87047619Y-71252380D01*
X86904761Y-71204761D01*
X86809523Y-71109523D01*
X86761904Y-71014285D01*
X86714285Y-70823809D01*
X86714285Y-70680952D01*
X86761904Y-70490476D01*
X86809523Y-70395238D01*
X86904761Y-70300000D01*
X87047619Y-70252380D01*
X87142857Y-70252380D01*
X87285714Y-70300000D01*
X87333333Y-70347619D01*
X87714285Y-70347619D02*
X87761904Y-70300000D01*
X87857142Y-70252380D01*
X88095238Y-70252380D01*
X88190476Y-70300000D01*
X88238095Y-70347619D01*
X88285714Y-70442857D01*
X88285714Y-70538095D01*
X88238095Y-70680952D01*
X87666666Y-71252380D01*
X88285714Y-71252380D01*
X87028571Y-72652380D02*
X86457142Y-72652380D01*
X86742857Y-72652380D02*
X86742857Y-71652380D01*
X86647619Y-71795238D01*
X86552380Y-71890476D01*
X86457142Y-71938095D01*
X87647619Y-71652380D02*
X87742857Y-71652380D01*
X87838095Y-71700000D01*
X87885714Y-71747619D01*
X87933333Y-71842857D01*
X87980952Y-72033333D01*
X87980952Y-72271428D01*
X87933333Y-72461904D01*
X87885714Y-72557142D01*
X87838095Y-72604761D01*
X87742857Y-72652380D01*
X87647619Y-72652380D01*
X87552380Y-72604761D01*
X87504761Y-72557142D01*
X87457142Y-72461904D01*
X87409523Y-72271428D01*
X87409523Y-72033333D01*
X87457142Y-71842857D01*
X87504761Y-71747619D01*
X87552380Y-71700000D01*
X87647619Y-71652380D01*
X88838095Y-71985714D02*
X88838095Y-72652380D01*
X88409523Y-71985714D02*
X88409523Y-72509523D01*
X88457142Y-72604761D01*
X88552380Y-72652380D01*
X88695238Y-72652380D01*
X88790476Y-72604761D01*
X88838095Y-72557142D01*
X89647619Y-72128571D02*
X89314285Y-72128571D01*
X89314285Y-72652380D02*
X89314285Y-71652380D01*
X89790476Y-71652380D01*
%TO.C,C1*%
X97033333Y-98957142D02*
X96985714Y-99004761D01*
X96842857Y-99052380D01*
X96747619Y-99052380D01*
X96604761Y-99004761D01*
X96509523Y-98909523D01*
X96461904Y-98814285D01*
X96414285Y-98623809D01*
X96414285Y-98480952D01*
X96461904Y-98290476D01*
X96509523Y-98195238D01*
X96604761Y-98100000D01*
X96747619Y-98052380D01*
X96842857Y-98052380D01*
X96985714Y-98100000D01*
X97033333Y-98147619D01*
X97985714Y-99052380D02*
X97414285Y-99052380D01*
X97700000Y-99052380D02*
X97700000Y-98052380D01*
X97604761Y-98195238D01*
X97509523Y-98290476D01*
X97414285Y-98338095D01*
X96328571Y-100452380D02*
X95757142Y-100452380D01*
X96042857Y-100452380D02*
X96042857Y-99452380D01*
X95947619Y-99595238D01*
X95852380Y-99690476D01*
X95757142Y-99738095D01*
X96947619Y-99452380D02*
X97042857Y-99452380D01*
X97138095Y-99500000D01*
X97185714Y-99547619D01*
X97233333Y-99642857D01*
X97280952Y-99833333D01*
X97280952Y-100071428D01*
X97233333Y-100261904D01*
X97185714Y-100357142D01*
X97138095Y-100404761D01*
X97042857Y-100452380D01*
X96947619Y-100452380D01*
X96852380Y-100404761D01*
X96804761Y-100357142D01*
X96757142Y-100261904D01*
X96709523Y-100071428D01*
X96709523Y-99833333D01*
X96757142Y-99642857D01*
X96804761Y-99547619D01*
X96852380Y-99500000D01*
X96947619Y-99452380D01*
X98138095Y-99785714D02*
X98138095Y-100452380D01*
X97709523Y-99785714D02*
X97709523Y-100309523D01*
X97757142Y-100404761D01*
X97852380Y-100452380D01*
X97995238Y-100452380D01*
X98090476Y-100404761D01*
X98138095Y-100357142D01*
X98947619Y-99928571D02*
X98614285Y-99928571D01*
X98614285Y-100452380D02*
X98614285Y-99452380D01*
X99090476Y-99452380D01*
%TD*%
M02*
