M48
; DRILL file {KiCad (5.1.5)-3} date 6/15/2020 12:58:47 PM
; FORMAT={-:-/ absolute / inch / decimal}
; #@! TF.CreationDate,2020-06-15T12:58:47-04:00
; #@! TF.GenerationSoftware,Kicad,Pcbnew,(5.1.5)-3
; #@! TF.FileFunction,Plated,1,2,PTH
FMAT,2
INCH
T1C0.0157
T2C0.0394
T3C0.0400
T4C0.0512
%
G90
G05
T1
X5.6132Y-3.6427
T2
X6.0906Y-4.0709
X6.0906Y-4.1709
X6.0906Y-4.2709
X6.0925Y-3.5866
X6.0925Y-3.6866
X6.0925Y-3.7866
T3
X5.237Y-3.4788
X5.237Y-4.3788
X5.337Y-3.4788
X5.337Y-4.3788
X5.437Y-3.4788
X5.437Y-4.3788
X5.537Y-3.4788
X5.537Y-4.3788
X5.637Y-3.4788
X5.637Y-4.3788
X5.737Y-3.4788
X5.737Y-4.3788
X5.837Y-3.4788
X5.837Y-4.3788
X5.937Y-3.4788
X5.937Y-4.3788
T4
X5.2382Y-3.8304
X5.2382Y-4.0272
X5.7992Y-3.8304
X5.7992Y-4.0272
T0
M30
