G04 #@! TF.GenerationSoftware,KiCad,Pcbnew,(5.1.5)-3*
G04 #@! TF.CreationDate,2020-06-15T13:00:21-04:00*
G04 #@! TF.ProjectId,Wemo_Shield,57656d6f-5f53-4686-9965-6c642e6b6963,v1*
G04 #@! TF.SameCoordinates,Original*
G04 #@! TF.FileFunction,Copper,L1,Top*
G04 #@! TF.FilePolarity,Positive*
%FSLAX46Y46*%
G04 Gerber Fmt 4.6, Leading zero omitted, Abs format (unit mm)*
G04 Created by KiCad (PCBNEW (5.1.5)-3) date 2020-06-15 13:00:21*
%MOMM*%
%LPD*%
G04 APERTURE LIST*
%ADD10C,2.600000*%
%ADD11R,2.600000X2.600000*%
%ADD12O,1.700000X1.700000*%
%ADD13R,1.700000X1.700000*%
%ADD14C,1.800000*%
%ADD15C,0.800000*%
%ADD16C,0.700000*%
%ADD17C,0.500000*%
%ADD18C,0.254000*%
G04 APERTURE END LIST*
D10*
X147300000Y-102291012D03*
D11*
X147300000Y-97291012D03*
D12*
X154750000Y-96180000D03*
X154750000Y-93640000D03*
D13*
X154750000Y-91100000D03*
D14*
X150800000Y-111222024D03*
X150800000Y-88362024D03*
X148260000Y-111222024D03*
X148260000Y-88362024D03*
X145720000Y-111222024D03*
X145720000Y-88362024D03*
X143180000Y-111222024D03*
X143180000Y-88362024D03*
X140640000Y-111222024D03*
X140640000Y-88362024D03*
X138100000Y-111222024D03*
X138100000Y-88362024D03*
X135560000Y-111222024D03*
X135560000Y-88362024D03*
X133020000Y-111222024D03*
X133020000Y-88362024D03*
D12*
X154700000Y-108480000D03*
X154700000Y-105940000D03*
D13*
X154700000Y-103400000D03*
D10*
X133050000Y-97291012D03*
D11*
X133050000Y-102291012D03*
D15*
X142575000Y-92525000D03*
D16*
X154700000Y-105960000D02*
X154690000Y-105950000D01*
X145800000Y-111142024D02*
X145720000Y-111222024D01*
D17*
X148260000Y-88362024D02*
X148260000Y-88540000D01*
D16*
X143140685Y-92525000D02*
X142575000Y-92525000D01*
X154750000Y-91100000D02*
X153325000Y-92525000D01*
X153325000Y-92525000D02*
X143140685Y-92525000D01*
D18*
G36*
X156977828Y-86794350D02*
G01*
X157293170Y-86889557D01*
X157584010Y-87044199D01*
X157839278Y-87252391D01*
X158049246Y-87506198D01*
X158205915Y-87795951D01*
X158303322Y-88110621D01*
X158340000Y-88459593D01*
X158340001Y-111077488D01*
X158305650Y-111427829D01*
X158210443Y-111743168D01*
X158055801Y-112034010D01*
X157847609Y-112289278D01*
X157593802Y-112499246D01*
X157304049Y-112655915D01*
X156989378Y-112753322D01*
X156640408Y-112790000D01*
X128410000Y-112790000D01*
X128410000Y-111090538D01*
X131685000Y-111090538D01*
X131685000Y-111353510D01*
X131736304Y-111611429D01*
X131836939Y-111854383D01*
X131983038Y-112073037D01*
X132168987Y-112258986D01*
X132387641Y-112405085D01*
X132630595Y-112505720D01*
X132888514Y-112557024D01*
X133151486Y-112557024D01*
X133409405Y-112505720D01*
X133652359Y-112405085D01*
X133738260Y-112347688D01*
X134755362Y-112347688D01*
X134846903Y-112589713D01*
X135127428Y-112702552D01*
X135424576Y-112758495D01*
X135726930Y-112755392D01*
X136022867Y-112693363D01*
X136273097Y-112589713D01*
X136364638Y-112347688D01*
X135560000Y-111543050D01*
X134755362Y-112347688D01*
X133738260Y-112347688D01*
X133871013Y-112258986D01*
X134056962Y-112073037D01*
X134175780Y-111895212D01*
X134192311Y-111935121D01*
X134434336Y-112026662D01*
X135238974Y-111222024D01*
X135881026Y-111222024D01*
X136685664Y-112026662D01*
X136927689Y-111935121D01*
X136943922Y-111894766D01*
X137063038Y-112073037D01*
X137248987Y-112258986D01*
X137467641Y-112405085D01*
X137710595Y-112505720D01*
X137968514Y-112557024D01*
X138231486Y-112557024D01*
X138489405Y-112505720D01*
X138732359Y-112405085D01*
X138951013Y-112258986D01*
X139136962Y-112073037D01*
X139283061Y-111854383D01*
X139370000Y-111644494D01*
X139456939Y-111854383D01*
X139603038Y-112073037D01*
X139788987Y-112258986D01*
X140007641Y-112405085D01*
X140250595Y-112505720D01*
X140508514Y-112557024D01*
X140771486Y-112557024D01*
X141029405Y-112505720D01*
X141272359Y-112405085D01*
X141491013Y-112258986D01*
X141676962Y-112073037D01*
X141823061Y-111854383D01*
X141910000Y-111644494D01*
X141996939Y-111854383D01*
X142143038Y-112073037D01*
X142328987Y-112258986D01*
X142547641Y-112405085D01*
X142790595Y-112505720D01*
X143048514Y-112557024D01*
X143311486Y-112557024D01*
X143569405Y-112505720D01*
X143812359Y-112405085D01*
X144031013Y-112258986D01*
X144216962Y-112073037D01*
X144363061Y-111854383D01*
X144450000Y-111644494D01*
X144536939Y-111854383D01*
X144683038Y-112073037D01*
X144868987Y-112258986D01*
X145087641Y-112405085D01*
X145330595Y-112505720D01*
X145588514Y-112557024D01*
X145851486Y-112557024D01*
X146109405Y-112505720D01*
X146352359Y-112405085D01*
X146571013Y-112258986D01*
X146756962Y-112073037D01*
X146903061Y-111854383D01*
X146990000Y-111644494D01*
X147076939Y-111854383D01*
X147223038Y-112073037D01*
X147408987Y-112258986D01*
X147627641Y-112405085D01*
X147870595Y-112505720D01*
X148128514Y-112557024D01*
X148391486Y-112557024D01*
X148649405Y-112505720D01*
X148892359Y-112405085D01*
X149111013Y-112258986D01*
X149296962Y-112073037D01*
X149443061Y-111854383D01*
X149530000Y-111644494D01*
X149616939Y-111854383D01*
X149763038Y-112073037D01*
X149948987Y-112258986D01*
X150167641Y-112405085D01*
X150410595Y-112505720D01*
X150668514Y-112557024D01*
X150931486Y-112557024D01*
X151189405Y-112505720D01*
X151432359Y-112405085D01*
X151651013Y-112258986D01*
X151836962Y-112073037D01*
X151983061Y-111854383D01*
X152083696Y-111611429D01*
X152135000Y-111353510D01*
X152135000Y-111090538D01*
X152083696Y-110832619D01*
X151983061Y-110589665D01*
X151836962Y-110371011D01*
X151651013Y-110185062D01*
X151432359Y-110038963D01*
X151189405Y-109938328D01*
X150931486Y-109887024D01*
X150668514Y-109887024D01*
X150410595Y-109938328D01*
X150167641Y-110038963D01*
X149948987Y-110185062D01*
X149763038Y-110371011D01*
X149616939Y-110589665D01*
X149530000Y-110799554D01*
X149443061Y-110589665D01*
X149296962Y-110371011D01*
X149111013Y-110185062D01*
X148892359Y-110038963D01*
X148649405Y-109938328D01*
X148391486Y-109887024D01*
X148128514Y-109887024D01*
X147870595Y-109938328D01*
X147627641Y-110038963D01*
X147408987Y-110185062D01*
X147223038Y-110371011D01*
X147076939Y-110589665D01*
X146990000Y-110799554D01*
X146903061Y-110589665D01*
X146756962Y-110371011D01*
X146571013Y-110185062D01*
X146352359Y-110038963D01*
X146109405Y-109938328D01*
X145851486Y-109887024D01*
X145588514Y-109887024D01*
X145330595Y-109938328D01*
X145087641Y-110038963D01*
X144868987Y-110185062D01*
X144683038Y-110371011D01*
X144536939Y-110589665D01*
X144450000Y-110799554D01*
X144363061Y-110589665D01*
X144216962Y-110371011D01*
X144031013Y-110185062D01*
X143812359Y-110038963D01*
X143569405Y-109938328D01*
X143311486Y-109887024D01*
X143048514Y-109887024D01*
X142790595Y-109938328D01*
X142547641Y-110038963D01*
X142328987Y-110185062D01*
X142143038Y-110371011D01*
X141996939Y-110589665D01*
X141910000Y-110799554D01*
X141823061Y-110589665D01*
X141676962Y-110371011D01*
X141491013Y-110185062D01*
X141272359Y-110038963D01*
X141029405Y-109938328D01*
X140771486Y-109887024D01*
X140508514Y-109887024D01*
X140250595Y-109938328D01*
X140007641Y-110038963D01*
X139788987Y-110185062D01*
X139603038Y-110371011D01*
X139456939Y-110589665D01*
X139370000Y-110799554D01*
X139283061Y-110589665D01*
X139136962Y-110371011D01*
X138951013Y-110185062D01*
X138732359Y-110038963D01*
X138489405Y-109938328D01*
X138231486Y-109887024D01*
X137968514Y-109887024D01*
X137710595Y-109938328D01*
X137467641Y-110038963D01*
X137248987Y-110185062D01*
X137063038Y-110371011D01*
X136944220Y-110548836D01*
X136927689Y-110508927D01*
X136685664Y-110417386D01*
X135881026Y-111222024D01*
X135238974Y-111222024D01*
X134434336Y-110417386D01*
X134192311Y-110508927D01*
X134176078Y-110549282D01*
X134056962Y-110371011D01*
X133871013Y-110185062D01*
X133738261Y-110096360D01*
X134755362Y-110096360D01*
X135560000Y-110900998D01*
X136364638Y-110096360D01*
X136273097Y-109854335D01*
X135992572Y-109741496D01*
X135695424Y-109685553D01*
X135393070Y-109688656D01*
X135097133Y-109750685D01*
X134846903Y-109854335D01*
X134755362Y-110096360D01*
X133738261Y-110096360D01*
X133652359Y-110038963D01*
X133409405Y-109938328D01*
X133151486Y-109887024D01*
X132888514Y-109887024D01*
X132630595Y-109938328D01*
X132387641Y-110038963D01*
X132168987Y-110185062D01*
X131983038Y-110371011D01*
X131836939Y-110589665D01*
X131736304Y-110832619D01*
X131685000Y-111090538D01*
X128410000Y-111090538D01*
X128410000Y-108933780D01*
X153286031Y-108933780D01*
X153379295Y-109158960D01*
X153537131Y-109403571D01*
X153739655Y-109612689D01*
X153979084Y-109778279D01*
X154246218Y-109893977D01*
X154473000Y-109788806D01*
X154473000Y-108707000D01*
X154927000Y-108707000D01*
X154927000Y-109788806D01*
X155153782Y-109893977D01*
X155420916Y-109778279D01*
X155660345Y-109612689D01*
X155862869Y-109403571D01*
X156020705Y-109158960D01*
X156113969Y-108933780D01*
X156006679Y-108707000D01*
X154927000Y-108707000D01*
X154473000Y-108707000D01*
X153393321Y-108707000D01*
X153286031Y-108933780D01*
X128410000Y-108933780D01*
X128410000Y-108026220D01*
X153286031Y-108026220D01*
X153393321Y-108253000D01*
X154473000Y-108253000D01*
X154473000Y-108233000D01*
X154927000Y-108233000D01*
X154927000Y-108253000D01*
X156006679Y-108253000D01*
X156113969Y-108026220D01*
X156020705Y-107801040D01*
X155862869Y-107556429D01*
X155660345Y-107347311D01*
X155420916Y-107181721D01*
X155244526Y-107105325D01*
X155308676Y-107078753D01*
X155519140Y-106938125D01*
X155698125Y-106759140D01*
X155838753Y-106548676D01*
X155935619Y-106314821D01*
X155985000Y-106066561D01*
X155985000Y-105813439D01*
X155935619Y-105565179D01*
X155838753Y-105331324D01*
X155698125Y-105120860D01*
X155519140Y-104941875D01*
X155308676Y-104801247D01*
X155074821Y-104704381D01*
X154987962Y-104687104D01*
X155550000Y-104687104D01*
X155635275Y-104678705D01*
X155717272Y-104653831D01*
X155792842Y-104613439D01*
X155859079Y-104559079D01*
X155913439Y-104492842D01*
X155953831Y-104417272D01*
X155978705Y-104335275D01*
X155987104Y-104250000D01*
X155987104Y-102550000D01*
X155978705Y-102464725D01*
X155953831Y-102382728D01*
X155913439Y-102307158D01*
X155859079Y-102240921D01*
X155792842Y-102186561D01*
X155717272Y-102146169D01*
X155635275Y-102121295D01*
X155550000Y-102112896D01*
X153850000Y-102112896D01*
X153764725Y-102121295D01*
X153682728Y-102146169D01*
X153607158Y-102186561D01*
X153540921Y-102240921D01*
X153486561Y-102307158D01*
X153446169Y-102382728D01*
X153421295Y-102464725D01*
X153412896Y-102550000D01*
X153412896Y-104250000D01*
X153421295Y-104335275D01*
X153446169Y-104417272D01*
X153486561Y-104492842D01*
X153540921Y-104559079D01*
X153607158Y-104613439D01*
X153682728Y-104653831D01*
X153764725Y-104678705D01*
X153850000Y-104687104D01*
X154412038Y-104687104D01*
X154325179Y-104704381D01*
X154091324Y-104801247D01*
X153880860Y-104941875D01*
X153701875Y-105120860D01*
X153561247Y-105331324D01*
X153464381Y-105565179D01*
X153415000Y-105813439D01*
X153415000Y-106066561D01*
X153464381Y-106314821D01*
X153561247Y-106548676D01*
X153701875Y-106759140D01*
X153880860Y-106938125D01*
X154091324Y-107078753D01*
X154155474Y-107105325D01*
X153979084Y-107181721D01*
X153739655Y-107347311D01*
X153537131Y-107556429D01*
X153379295Y-107801040D01*
X153286031Y-108026220D01*
X128410000Y-108026220D01*
X128410000Y-100991012D01*
X131312896Y-100991012D01*
X131312896Y-103591012D01*
X131321295Y-103676287D01*
X131346169Y-103758284D01*
X131386561Y-103833854D01*
X131440921Y-103900091D01*
X131507158Y-103954451D01*
X131582728Y-103994843D01*
X131664725Y-104019717D01*
X131750000Y-104028116D01*
X134350000Y-104028116D01*
X134435275Y-104019717D01*
X134517272Y-103994843D01*
X134592842Y-103954451D01*
X134659079Y-103900091D01*
X134713439Y-103833854D01*
X134753831Y-103758284D01*
X134770328Y-103703900D01*
X146208139Y-103703900D01*
X146348594Y-103986706D01*
X146697689Y-104139733D01*
X147069929Y-104221715D01*
X147451012Y-104229502D01*
X147826290Y-104162794D01*
X148181344Y-104024154D01*
X148251406Y-103986706D01*
X148391861Y-103703900D01*
X147300000Y-102612038D01*
X146208139Y-103703900D01*
X134770328Y-103703900D01*
X134778705Y-103676287D01*
X134787104Y-103591012D01*
X134787104Y-102442024D01*
X145361510Y-102442024D01*
X145428218Y-102817302D01*
X145566858Y-103172356D01*
X145604306Y-103242418D01*
X145887112Y-103382873D01*
X146978974Y-102291012D01*
X147621026Y-102291012D01*
X148712888Y-103382873D01*
X148995694Y-103242418D01*
X149148721Y-102893323D01*
X149230703Y-102521083D01*
X149238490Y-102140000D01*
X149171782Y-101764722D01*
X149033142Y-101409668D01*
X148995694Y-101339606D01*
X148712888Y-101199151D01*
X147621026Y-102291012D01*
X146978974Y-102291012D01*
X145887112Y-101199151D01*
X145604306Y-101339606D01*
X145451279Y-101688701D01*
X145369297Y-102060941D01*
X145361510Y-102442024D01*
X134787104Y-102442024D01*
X134787104Y-100991012D01*
X134778705Y-100905737D01*
X134770329Y-100878124D01*
X146208139Y-100878124D01*
X147300000Y-101969986D01*
X148391861Y-100878124D01*
X148251406Y-100595318D01*
X147902311Y-100442291D01*
X147530071Y-100360309D01*
X147148988Y-100352522D01*
X146773710Y-100419230D01*
X146418656Y-100557870D01*
X146348594Y-100595318D01*
X146208139Y-100878124D01*
X134770329Y-100878124D01*
X134753831Y-100823740D01*
X134713439Y-100748170D01*
X134659079Y-100681933D01*
X134592842Y-100627573D01*
X134517272Y-100587181D01*
X134435275Y-100562307D01*
X134350000Y-100553908D01*
X131750000Y-100553908D01*
X131664725Y-100562307D01*
X131582728Y-100587181D01*
X131507158Y-100627573D01*
X131440921Y-100681933D01*
X131386561Y-100748170D01*
X131346169Y-100823740D01*
X131321295Y-100905737D01*
X131312896Y-100991012D01*
X128410000Y-100991012D01*
X128410000Y-98703900D01*
X131958139Y-98703900D01*
X132098594Y-98986706D01*
X132447689Y-99139733D01*
X132819929Y-99221715D01*
X133201012Y-99229502D01*
X133576290Y-99162794D01*
X133931344Y-99024154D01*
X134001406Y-98986706D01*
X134141861Y-98703900D01*
X133050000Y-97612038D01*
X131958139Y-98703900D01*
X128410000Y-98703900D01*
X128410000Y-97442024D01*
X131111510Y-97442024D01*
X131178218Y-97817302D01*
X131316858Y-98172356D01*
X131354306Y-98242418D01*
X131637112Y-98382873D01*
X132728974Y-97291012D01*
X133371026Y-97291012D01*
X134462888Y-98382873D01*
X134745694Y-98242418D01*
X134898721Y-97893323D01*
X134980703Y-97521083D01*
X134988490Y-97140000D01*
X134921782Y-96764722D01*
X134783142Y-96409668D01*
X134745694Y-96339606D01*
X134462888Y-96199151D01*
X133371026Y-97291012D01*
X132728974Y-97291012D01*
X131637112Y-96199151D01*
X131354306Y-96339606D01*
X131201279Y-96688701D01*
X131119297Y-97060941D01*
X131111510Y-97442024D01*
X128410000Y-97442024D01*
X128410000Y-95878124D01*
X131958139Y-95878124D01*
X133050000Y-96969986D01*
X134028973Y-95991012D01*
X145562896Y-95991012D01*
X145562896Y-98591012D01*
X145571295Y-98676287D01*
X145596169Y-98758284D01*
X145636561Y-98833854D01*
X145690921Y-98900091D01*
X145757158Y-98954451D01*
X145832728Y-98994843D01*
X145914725Y-99019717D01*
X146000000Y-99028116D01*
X148600000Y-99028116D01*
X148685275Y-99019717D01*
X148767272Y-98994843D01*
X148842842Y-98954451D01*
X148909079Y-98900091D01*
X148963439Y-98833854D01*
X149003831Y-98758284D01*
X149028705Y-98676287D01*
X149037104Y-98591012D01*
X149037104Y-96633780D01*
X153336031Y-96633780D01*
X153429295Y-96858960D01*
X153587131Y-97103571D01*
X153789655Y-97312689D01*
X154029084Y-97478279D01*
X154296218Y-97593977D01*
X154523000Y-97488806D01*
X154523000Y-96407000D01*
X154977000Y-96407000D01*
X154977000Y-97488806D01*
X155203782Y-97593977D01*
X155470916Y-97478279D01*
X155710345Y-97312689D01*
X155912869Y-97103571D01*
X156070705Y-96858960D01*
X156163969Y-96633780D01*
X156056679Y-96407000D01*
X154977000Y-96407000D01*
X154523000Y-96407000D01*
X153443321Y-96407000D01*
X153336031Y-96633780D01*
X149037104Y-96633780D01*
X149037104Y-95991012D01*
X149028705Y-95905737D01*
X149003831Y-95823740D01*
X148963439Y-95748170D01*
X148909079Y-95681933D01*
X148842842Y-95627573D01*
X148767272Y-95587181D01*
X148685275Y-95562307D01*
X148600000Y-95553908D01*
X146000000Y-95553908D01*
X145914725Y-95562307D01*
X145832728Y-95587181D01*
X145757158Y-95627573D01*
X145690921Y-95681933D01*
X145636561Y-95748170D01*
X145596169Y-95823740D01*
X145571295Y-95905737D01*
X145562896Y-95991012D01*
X134028973Y-95991012D01*
X134141861Y-95878124D01*
X134001406Y-95595318D01*
X133652311Y-95442291D01*
X133280071Y-95360309D01*
X132898988Y-95352522D01*
X132523710Y-95419230D01*
X132168656Y-95557870D01*
X132098594Y-95595318D01*
X131958139Y-95878124D01*
X128410000Y-95878124D01*
X128410000Y-92442760D01*
X141740000Y-92442760D01*
X141740000Y-92607240D01*
X141772089Y-92768560D01*
X141835033Y-92920521D01*
X141926413Y-93057281D01*
X142042719Y-93173587D01*
X142179479Y-93264967D01*
X142331440Y-93327911D01*
X142492760Y-93360000D01*
X142657240Y-93360000D01*
X142818560Y-93327911D01*
X142861801Y-93310000D01*
X153286447Y-93310000D01*
X153325000Y-93313797D01*
X153363553Y-93310000D01*
X153363561Y-93310000D01*
X153478887Y-93298641D01*
X153509577Y-93289331D01*
X153465000Y-93513439D01*
X153465000Y-93766561D01*
X153514381Y-94014821D01*
X153611247Y-94248676D01*
X153751875Y-94459140D01*
X153930860Y-94638125D01*
X154141324Y-94778753D01*
X154205474Y-94805325D01*
X154029084Y-94881721D01*
X153789655Y-95047311D01*
X153587131Y-95256429D01*
X153429295Y-95501040D01*
X153336031Y-95726220D01*
X153443321Y-95953000D01*
X154523000Y-95953000D01*
X154523000Y-95933000D01*
X154977000Y-95933000D01*
X154977000Y-95953000D01*
X156056679Y-95953000D01*
X156163969Y-95726220D01*
X156070705Y-95501040D01*
X155912869Y-95256429D01*
X155710345Y-95047311D01*
X155470916Y-94881721D01*
X155294526Y-94805325D01*
X155358676Y-94778753D01*
X155569140Y-94638125D01*
X155748125Y-94459140D01*
X155888753Y-94248676D01*
X155985619Y-94014821D01*
X156035000Y-93766561D01*
X156035000Y-93513439D01*
X155985619Y-93265179D01*
X155888753Y-93031324D01*
X155748125Y-92820860D01*
X155569140Y-92641875D01*
X155358676Y-92501247D01*
X155124821Y-92404381D01*
X155037962Y-92387104D01*
X155600000Y-92387104D01*
X155685275Y-92378705D01*
X155767272Y-92353831D01*
X155842842Y-92313439D01*
X155909079Y-92259079D01*
X155963439Y-92192842D01*
X156003831Y-92117272D01*
X156028705Y-92035275D01*
X156037104Y-91950000D01*
X156037104Y-90250000D01*
X156028705Y-90164725D01*
X156003831Y-90082728D01*
X155963439Y-90007158D01*
X155909079Y-89940921D01*
X155842842Y-89886561D01*
X155767272Y-89846169D01*
X155685275Y-89821295D01*
X155600000Y-89812896D01*
X153900000Y-89812896D01*
X153814725Y-89821295D01*
X153732728Y-89846169D01*
X153657158Y-89886561D01*
X153590921Y-89940921D01*
X153536561Y-90007158D01*
X153496169Y-90082728D01*
X153471295Y-90164725D01*
X153462896Y-90250000D01*
X153462896Y-91276947D01*
X152999843Y-91740000D01*
X142861801Y-91740000D01*
X142818560Y-91722089D01*
X142657240Y-91690000D01*
X142492760Y-91690000D01*
X142331440Y-91722089D01*
X142179479Y-91785033D01*
X142042719Y-91876413D01*
X141926413Y-91992719D01*
X141835033Y-92129479D01*
X141772089Y-92281440D01*
X141740000Y-92442760D01*
X128410000Y-92442760D01*
X128410000Y-88910000D01*
X129522590Y-88910000D01*
X129542458Y-88908043D01*
X129548324Y-88908084D01*
X129554717Y-88907457D01*
X129739109Y-88888076D01*
X129779935Y-88879695D01*
X129820899Y-88871881D01*
X129827048Y-88870024D01*
X129827050Y-88870023D01*
X129827052Y-88870023D01*
X129827054Y-88870022D01*
X130004165Y-88815198D01*
X130042569Y-88799054D01*
X130081256Y-88783424D01*
X130086927Y-88780408D01*
X130250020Y-88692224D01*
X130284566Y-88668923D01*
X130319471Y-88646081D01*
X130324449Y-88642021D01*
X130467308Y-88523837D01*
X130496665Y-88494274D01*
X130526472Y-88465085D01*
X130530566Y-88460136D01*
X130647749Y-88316456D01*
X130670809Y-88281748D01*
X130694375Y-88247330D01*
X130697430Y-88241680D01*
X130703354Y-88230538D01*
X131685000Y-88230538D01*
X131685000Y-88493510D01*
X131736304Y-88751429D01*
X131836939Y-88994383D01*
X131983038Y-89213037D01*
X132168987Y-89398986D01*
X132387641Y-89545085D01*
X132630595Y-89645720D01*
X132888514Y-89697024D01*
X133151486Y-89697024D01*
X133409405Y-89645720D01*
X133652359Y-89545085D01*
X133871013Y-89398986D01*
X134056962Y-89213037D01*
X134203061Y-88994383D01*
X134290000Y-88784494D01*
X134376939Y-88994383D01*
X134523038Y-89213037D01*
X134708987Y-89398986D01*
X134927641Y-89545085D01*
X135170595Y-89645720D01*
X135428514Y-89697024D01*
X135691486Y-89697024D01*
X135949405Y-89645720D01*
X136192359Y-89545085D01*
X136411013Y-89398986D01*
X136596962Y-89213037D01*
X136743061Y-88994383D01*
X136830000Y-88784494D01*
X136916939Y-88994383D01*
X137063038Y-89213037D01*
X137248987Y-89398986D01*
X137467641Y-89545085D01*
X137710595Y-89645720D01*
X137968514Y-89697024D01*
X138231486Y-89697024D01*
X138489405Y-89645720D01*
X138732359Y-89545085D01*
X138951013Y-89398986D01*
X139136962Y-89213037D01*
X139283061Y-88994383D01*
X139370000Y-88784494D01*
X139456939Y-88994383D01*
X139603038Y-89213037D01*
X139788987Y-89398986D01*
X140007641Y-89545085D01*
X140250595Y-89645720D01*
X140508514Y-89697024D01*
X140771486Y-89697024D01*
X141029405Y-89645720D01*
X141272359Y-89545085D01*
X141491013Y-89398986D01*
X141676962Y-89213037D01*
X141823061Y-88994383D01*
X141910000Y-88784494D01*
X141996939Y-88994383D01*
X142143038Y-89213037D01*
X142328987Y-89398986D01*
X142547641Y-89545085D01*
X142790595Y-89645720D01*
X143048514Y-89697024D01*
X143311486Y-89697024D01*
X143569405Y-89645720D01*
X143812359Y-89545085D01*
X144031013Y-89398986D01*
X144216962Y-89213037D01*
X144363061Y-88994383D01*
X144450000Y-88784494D01*
X144536939Y-88994383D01*
X144683038Y-89213037D01*
X144868987Y-89398986D01*
X145087641Y-89545085D01*
X145330595Y-89645720D01*
X145588514Y-89697024D01*
X145851486Y-89697024D01*
X146109405Y-89645720D01*
X146352359Y-89545085D01*
X146571013Y-89398986D01*
X146756962Y-89213037D01*
X146903061Y-88994383D01*
X146990000Y-88784494D01*
X147076939Y-88994383D01*
X147223038Y-89213037D01*
X147408987Y-89398986D01*
X147627641Y-89545085D01*
X147870595Y-89645720D01*
X148128514Y-89697024D01*
X148391486Y-89697024D01*
X148649405Y-89645720D01*
X148892359Y-89545085D01*
X149111013Y-89398986D01*
X149296962Y-89213037D01*
X149443061Y-88994383D01*
X149530000Y-88784494D01*
X149616939Y-88994383D01*
X149763038Y-89213037D01*
X149948987Y-89398986D01*
X150167641Y-89545085D01*
X150410595Y-89645720D01*
X150668514Y-89697024D01*
X150931486Y-89697024D01*
X151189405Y-89645720D01*
X151432359Y-89545085D01*
X151651013Y-89398986D01*
X151836962Y-89213037D01*
X151983061Y-88994383D01*
X152083696Y-88751429D01*
X152135000Y-88493510D01*
X152135000Y-88230538D01*
X152083696Y-87972619D01*
X151983061Y-87729665D01*
X151836962Y-87511011D01*
X151651013Y-87325062D01*
X151432359Y-87178963D01*
X151189405Y-87078328D01*
X150931486Y-87027024D01*
X150668514Y-87027024D01*
X150410595Y-87078328D01*
X150167641Y-87178963D01*
X149948987Y-87325062D01*
X149763038Y-87511011D01*
X149616939Y-87729665D01*
X149530000Y-87939554D01*
X149443061Y-87729665D01*
X149296962Y-87511011D01*
X149111013Y-87325062D01*
X148892359Y-87178963D01*
X148649405Y-87078328D01*
X148391486Y-87027024D01*
X148128514Y-87027024D01*
X147870595Y-87078328D01*
X147627641Y-87178963D01*
X147408987Y-87325062D01*
X147223038Y-87511011D01*
X147076939Y-87729665D01*
X146990000Y-87939554D01*
X146903061Y-87729665D01*
X146756962Y-87511011D01*
X146571013Y-87325062D01*
X146352359Y-87178963D01*
X146109405Y-87078328D01*
X145851486Y-87027024D01*
X145588514Y-87027024D01*
X145330595Y-87078328D01*
X145087641Y-87178963D01*
X144868987Y-87325062D01*
X144683038Y-87511011D01*
X144536939Y-87729665D01*
X144450000Y-87939554D01*
X144363061Y-87729665D01*
X144216962Y-87511011D01*
X144031013Y-87325062D01*
X143812359Y-87178963D01*
X143569405Y-87078328D01*
X143311486Y-87027024D01*
X143048514Y-87027024D01*
X142790595Y-87078328D01*
X142547641Y-87178963D01*
X142328987Y-87325062D01*
X142143038Y-87511011D01*
X141996939Y-87729665D01*
X141910000Y-87939554D01*
X141823061Y-87729665D01*
X141676962Y-87511011D01*
X141491013Y-87325062D01*
X141272359Y-87178963D01*
X141029405Y-87078328D01*
X140771486Y-87027024D01*
X140508514Y-87027024D01*
X140250595Y-87078328D01*
X140007641Y-87178963D01*
X139788987Y-87325062D01*
X139603038Y-87511011D01*
X139456939Y-87729665D01*
X139370000Y-87939554D01*
X139283061Y-87729665D01*
X139136962Y-87511011D01*
X138951013Y-87325062D01*
X138732359Y-87178963D01*
X138489405Y-87078328D01*
X138231486Y-87027024D01*
X137968514Y-87027024D01*
X137710595Y-87078328D01*
X137467641Y-87178963D01*
X137248987Y-87325062D01*
X137063038Y-87511011D01*
X136916939Y-87729665D01*
X136830000Y-87939554D01*
X136743061Y-87729665D01*
X136596962Y-87511011D01*
X136411013Y-87325062D01*
X136192359Y-87178963D01*
X135949405Y-87078328D01*
X135691486Y-87027024D01*
X135428514Y-87027024D01*
X135170595Y-87078328D01*
X134927641Y-87178963D01*
X134708987Y-87325062D01*
X134523038Y-87511011D01*
X134376939Y-87729665D01*
X134290000Y-87939554D01*
X134203061Y-87729665D01*
X134056962Y-87511011D01*
X133871013Y-87325062D01*
X133652359Y-87178963D01*
X133409405Y-87078328D01*
X133151486Y-87027024D01*
X132888514Y-87027024D01*
X132630595Y-87078328D01*
X132387641Y-87178963D01*
X132168987Y-87325062D01*
X131983038Y-87511011D01*
X131836939Y-87729665D01*
X131736304Y-87972619D01*
X131685000Y-88230538D01*
X130703354Y-88230538D01*
X130784475Y-88077975D01*
X130800373Y-88039404D01*
X130816787Y-88001106D01*
X130818684Y-87994978D01*
X130818686Y-87994972D01*
X130818687Y-87994966D01*
X130872274Y-87817476D01*
X130880361Y-87776633D01*
X130889040Y-87735800D01*
X130889712Y-87729412D01*
X130907805Y-87544889D01*
X130907805Y-87544875D01*
X130910000Y-87522590D01*
X130910000Y-86760000D01*
X156627499Y-86760000D01*
X156977828Y-86794350D01*
G37*
X156977828Y-86794350D02*
X157293170Y-86889557D01*
X157584010Y-87044199D01*
X157839278Y-87252391D01*
X158049246Y-87506198D01*
X158205915Y-87795951D01*
X158303322Y-88110621D01*
X158340000Y-88459593D01*
X158340001Y-111077488D01*
X158305650Y-111427829D01*
X158210443Y-111743168D01*
X158055801Y-112034010D01*
X157847609Y-112289278D01*
X157593802Y-112499246D01*
X157304049Y-112655915D01*
X156989378Y-112753322D01*
X156640408Y-112790000D01*
X128410000Y-112790000D01*
X128410000Y-111090538D01*
X131685000Y-111090538D01*
X131685000Y-111353510D01*
X131736304Y-111611429D01*
X131836939Y-111854383D01*
X131983038Y-112073037D01*
X132168987Y-112258986D01*
X132387641Y-112405085D01*
X132630595Y-112505720D01*
X132888514Y-112557024D01*
X133151486Y-112557024D01*
X133409405Y-112505720D01*
X133652359Y-112405085D01*
X133738260Y-112347688D01*
X134755362Y-112347688D01*
X134846903Y-112589713D01*
X135127428Y-112702552D01*
X135424576Y-112758495D01*
X135726930Y-112755392D01*
X136022867Y-112693363D01*
X136273097Y-112589713D01*
X136364638Y-112347688D01*
X135560000Y-111543050D01*
X134755362Y-112347688D01*
X133738260Y-112347688D01*
X133871013Y-112258986D01*
X134056962Y-112073037D01*
X134175780Y-111895212D01*
X134192311Y-111935121D01*
X134434336Y-112026662D01*
X135238974Y-111222024D01*
X135881026Y-111222024D01*
X136685664Y-112026662D01*
X136927689Y-111935121D01*
X136943922Y-111894766D01*
X137063038Y-112073037D01*
X137248987Y-112258986D01*
X137467641Y-112405085D01*
X137710595Y-112505720D01*
X137968514Y-112557024D01*
X138231486Y-112557024D01*
X138489405Y-112505720D01*
X138732359Y-112405085D01*
X138951013Y-112258986D01*
X139136962Y-112073037D01*
X139283061Y-111854383D01*
X139370000Y-111644494D01*
X139456939Y-111854383D01*
X139603038Y-112073037D01*
X139788987Y-112258986D01*
X140007641Y-112405085D01*
X140250595Y-112505720D01*
X140508514Y-112557024D01*
X140771486Y-112557024D01*
X141029405Y-112505720D01*
X141272359Y-112405085D01*
X141491013Y-112258986D01*
X141676962Y-112073037D01*
X141823061Y-111854383D01*
X141910000Y-111644494D01*
X141996939Y-111854383D01*
X142143038Y-112073037D01*
X142328987Y-112258986D01*
X142547641Y-112405085D01*
X142790595Y-112505720D01*
X143048514Y-112557024D01*
X143311486Y-112557024D01*
X143569405Y-112505720D01*
X143812359Y-112405085D01*
X144031013Y-112258986D01*
X144216962Y-112073037D01*
X144363061Y-111854383D01*
X144450000Y-111644494D01*
X144536939Y-111854383D01*
X144683038Y-112073037D01*
X144868987Y-112258986D01*
X145087641Y-112405085D01*
X145330595Y-112505720D01*
X145588514Y-112557024D01*
X145851486Y-112557024D01*
X146109405Y-112505720D01*
X146352359Y-112405085D01*
X146571013Y-112258986D01*
X146756962Y-112073037D01*
X146903061Y-111854383D01*
X146990000Y-111644494D01*
X147076939Y-111854383D01*
X147223038Y-112073037D01*
X147408987Y-112258986D01*
X147627641Y-112405085D01*
X147870595Y-112505720D01*
X148128514Y-112557024D01*
X148391486Y-112557024D01*
X148649405Y-112505720D01*
X148892359Y-112405085D01*
X149111013Y-112258986D01*
X149296962Y-112073037D01*
X149443061Y-111854383D01*
X149530000Y-111644494D01*
X149616939Y-111854383D01*
X149763038Y-112073037D01*
X149948987Y-112258986D01*
X150167641Y-112405085D01*
X150410595Y-112505720D01*
X150668514Y-112557024D01*
X150931486Y-112557024D01*
X151189405Y-112505720D01*
X151432359Y-112405085D01*
X151651013Y-112258986D01*
X151836962Y-112073037D01*
X151983061Y-111854383D01*
X152083696Y-111611429D01*
X152135000Y-111353510D01*
X152135000Y-111090538D01*
X152083696Y-110832619D01*
X151983061Y-110589665D01*
X151836962Y-110371011D01*
X151651013Y-110185062D01*
X151432359Y-110038963D01*
X151189405Y-109938328D01*
X150931486Y-109887024D01*
X150668514Y-109887024D01*
X150410595Y-109938328D01*
X150167641Y-110038963D01*
X149948987Y-110185062D01*
X149763038Y-110371011D01*
X149616939Y-110589665D01*
X149530000Y-110799554D01*
X149443061Y-110589665D01*
X149296962Y-110371011D01*
X149111013Y-110185062D01*
X148892359Y-110038963D01*
X148649405Y-109938328D01*
X148391486Y-109887024D01*
X148128514Y-109887024D01*
X147870595Y-109938328D01*
X147627641Y-110038963D01*
X147408987Y-110185062D01*
X147223038Y-110371011D01*
X147076939Y-110589665D01*
X146990000Y-110799554D01*
X146903061Y-110589665D01*
X146756962Y-110371011D01*
X146571013Y-110185062D01*
X146352359Y-110038963D01*
X146109405Y-109938328D01*
X145851486Y-109887024D01*
X145588514Y-109887024D01*
X145330595Y-109938328D01*
X145087641Y-110038963D01*
X144868987Y-110185062D01*
X144683038Y-110371011D01*
X144536939Y-110589665D01*
X144450000Y-110799554D01*
X144363061Y-110589665D01*
X144216962Y-110371011D01*
X144031013Y-110185062D01*
X143812359Y-110038963D01*
X143569405Y-109938328D01*
X143311486Y-109887024D01*
X143048514Y-109887024D01*
X142790595Y-109938328D01*
X142547641Y-110038963D01*
X142328987Y-110185062D01*
X142143038Y-110371011D01*
X141996939Y-110589665D01*
X141910000Y-110799554D01*
X141823061Y-110589665D01*
X141676962Y-110371011D01*
X141491013Y-110185062D01*
X141272359Y-110038963D01*
X141029405Y-109938328D01*
X140771486Y-109887024D01*
X140508514Y-109887024D01*
X140250595Y-109938328D01*
X140007641Y-110038963D01*
X139788987Y-110185062D01*
X139603038Y-110371011D01*
X139456939Y-110589665D01*
X139370000Y-110799554D01*
X139283061Y-110589665D01*
X139136962Y-110371011D01*
X138951013Y-110185062D01*
X138732359Y-110038963D01*
X138489405Y-109938328D01*
X138231486Y-109887024D01*
X137968514Y-109887024D01*
X137710595Y-109938328D01*
X137467641Y-110038963D01*
X137248987Y-110185062D01*
X137063038Y-110371011D01*
X136944220Y-110548836D01*
X136927689Y-110508927D01*
X136685664Y-110417386D01*
X135881026Y-111222024D01*
X135238974Y-111222024D01*
X134434336Y-110417386D01*
X134192311Y-110508927D01*
X134176078Y-110549282D01*
X134056962Y-110371011D01*
X133871013Y-110185062D01*
X133738261Y-110096360D01*
X134755362Y-110096360D01*
X135560000Y-110900998D01*
X136364638Y-110096360D01*
X136273097Y-109854335D01*
X135992572Y-109741496D01*
X135695424Y-109685553D01*
X135393070Y-109688656D01*
X135097133Y-109750685D01*
X134846903Y-109854335D01*
X134755362Y-110096360D01*
X133738261Y-110096360D01*
X133652359Y-110038963D01*
X133409405Y-109938328D01*
X133151486Y-109887024D01*
X132888514Y-109887024D01*
X132630595Y-109938328D01*
X132387641Y-110038963D01*
X132168987Y-110185062D01*
X131983038Y-110371011D01*
X131836939Y-110589665D01*
X131736304Y-110832619D01*
X131685000Y-111090538D01*
X128410000Y-111090538D01*
X128410000Y-108933780D01*
X153286031Y-108933780D01*
X153379295Y-109158960D01*
X153537131Y-109403571D01*
X153739655Y-109612689D01*
X153979084Y-109778279D01*
X154246218Y-109893977D01*
X154473000Y-109788806D01*
X154473000Y-108707000D01*
X154927000Y-108707000D01*
X154927000Y-109788806D01*
X155153782Y-109893977D01*
X155420916Y-109778279D01*
X155660345Y-109612689D01*
X155862869Y-109403571D01*
X156020705Y-109158960D01*
X156113969Y-108933780D01*
X156006679Y-108707000D01*
X154927000Y-108707000D01*
X154473000Y-108707000D01*
X153393321Y-108707000D01*
X153286031Y-108933780D01*
X128410000Y-108933780D01*
X128410000Y-108026220D01*
X153286031Y-108026220D01*
X153393321Y-108253000D01*
X154473000Y-108253000D01*
X154473000Y-108233000D01*
X154927000Y-108233000D01*
X154927000Y-108253000D01*
X156006679Y-108253000D01*
X156113969Y-108026220D01*
X156020705Y-107801040D01*
X155862869Y-107556429D01*
X155660345Y-107347311D01*
X155420916Y-107181721D01*
X155244526Y-107105325D01*
X155308676Y-107078753D01*
X155519140Y-106938125D01*
X155698125Y-106759140D01*
X155838753Y-106548676D01*
X155935619Y-106314821D01*
X155985000Y-106066561D01*
X155985000Y-105813439D01*
X155935619Y-105565179D01*
X155838753Y-105331324D01*
X155698125Y-105120860D01*
X155519140Y-104941875D01*
X155308676Y-104801247D01*
X155074821Y-104704381D01*
X154987962Y-104687104D01*
X155550000Y-104687104D01*
X155635275Y-104678705D01*
X155717272Y-104653831D01*
X155792842Y-104613439D01*
X155859079Y-104559079D01*
X155913439Y-104492842D01*
X155953831Y-104417272D01*
X155978705Y-104335275D01*
X155987104Y-104250000D01*
X155987104Y-102550000D01*
X155978705Y-102464725D01*
X155953831Y-102382728D01*
X155913439Y-102307158D01*
X155859079Y-102240921D01*
X155792842Y-102186561D01*
X155717272Y-102146169D01*
X155635275Y-102121295D01*
X155550000Y-102112896D01*
X153850000Y-102112896D01*
X153764725Y-102121295D01*
X153682728Y-102146169D01*
X153607158Y-102186561D01*
X153540921Y-102240921D01*
X153486561Y-102307158D01*
X153446169Y-102382728D01*
X153421295Y-102464725D01*
X153412896Y-102550000D01*
X153412896Y-104250000D01*
X153421295Y-104335275D01*
X153446169Y-104417272D01*
X153486561Y-104492842D01*
X153540921Y-104559079D01*
X153607158Y-104613439D01*
X153682728Y-104653831D01*
X153764725Y-104678705D01*
X153850000Y-104687104D01*
X154412038Y-104687104D01*
X154325179Y-104704381D01*
X154091324Y-104801247D01*
X153880860Y-104941875D01*
X153701875Y-105120860D01*
X153561247Y-105331324D01*
X153464381Y-105565179D01*
X153415000Y-105813439D01*
X153415000Y-106066561D01*
X153464381Y-106314821D01*
X153561247Y-106548676D01*
X153701875Y-106759140D01*
X153880860Y-106938125D01*
X154091324Y-107078753D01*
X154155474Y-107105325D01*
X153979084Y-107181721D01*
X153739655Y-107347311D01*
X153537131Y-107556429D01*
X153379295Y-107801040D01*
X153286031Y-108026220D01*
X128410000Y-108026220D01*
X128410000Y-100991012D01*
X131312896Y-100991012D01*
X131312896Y-103591012D01*
X131321295Y-103676287D01*
X131346169Y-103758284D01*
X131386561Y-103833854D01*
X131440921Y-103900091D01*
X131507158Y-103954451D01*
X131582728Y-103994843D01*
X131664725Y-104019717D01*
X131750000Y-104028116D01*
X134350000Y-104028116D01*
X134435275Y-104019717D01*
X134517272Y-103994843D01*
X134592842Y-103954451D01*
X134659079Y-103900091D01*
X134713439Y-103833854D01*
X134753831Y-103758284D01*
X134770328Y-103703900D01*
X146208139Y-103703900D01*
X146348594Y-103986706D01*
X146697689Y-104139733D01*
X147069929Y-104221715D01*
X147451012Y-104229502D01*
X147826290Y-104162794D01*
X148181344Y-104024154D01*
X148251406Y-103986706D01*
X148391861Y-103703900D01*
X147300000Y-102612038D01*
X146208139Y-103703900D01*
X134770328Y-103703900D01*
X134778705Y-103676287D01*
X134787104Y-103591012D01*
X134787104Y-102442024D01*
X145361510Y-102442024D01*
X145428218Y-102817302D01*
X145566858Y-103172356D01*
X145604306Y-103242418D01*
X145887112Y-103382873D01*
X146978974Y-102291012D01*
X147621026Y-102291012D01*
X148712888Y-103382873D01*
X148995694Y-103242418D01*
X149148721Y-102893323D01*
X149230703Y-102521083D01*
X149238490Y-102140000D01*
X149171782Y-101764722D01*
X149033142Y-101409668D01*
X148995694Y-101339606D01*
X148712888Y-101199151D01*
X147621026Y-102291012D01*
X146978974Y-102291012D01*
X145887112Y-101199151D01*
X145604306Y-101339606D01*
X145451279Y-101688701D01*
X145369297Y-102060941D01*
X145361510Y-102442024D01*
X134787104Y-102442024D01*
X134787104Y-100991012D01*
X134778705Y-100905737D01*
X134770329Y-100878124D01*
X146208139Y-100878124D01*
X147300000Y-101969986D01*
X148391861Y-100878124D01*
X148251406Y-100595318D01*
X147902311Y-100442291D01*
X147530071Y-100360309D01*
X147148988Y-100352522D01*
X146773710Y-100419230D01*
X146418656Y-100557870D01*
X146348594Y-100595318D01*
X146208139Y-100878124D01*
X134770329Y-100878124D01*
X134753831Y-100823740D01*
X134713439Y-100748170D01*
X134659079Y-100681933D01*
X134592842Y-100627573D01*
X134517272Y-100587181D01*
X134435275Y-100562307D01*
X134350000Y-100553908D01*
X131750000Y-100553908D01*
X131664725Y-100562307D01*
X131582728Y-100587181D01*
X131507158Y-100627573D01*
X131440921Y-100681933D01*
X131386561Y-100748170D01*
X131346169Y-100823740D01*
X131321295Y-100905737D01*
X131312896Y-100991012D01*
X128410000Y-100991012D01*
X128410000Y-98703900D01*
X131958139Y-98703900D01*
X132098594Y-98986706D01*
X132447689Y-99139733D01*
X132819929Y-99221715D01*
X133201012Y-99229502D01*
X133576290Y-99162794D01*
X133931344Y-99024154D01*
X134001406Y-98986706D01*
X134141861Y-98703900D01*
X133050000Y-97612038D01*
X131958139Y-98703900D01*
X128410000Y-98703900D01*
X128410000Y-97442024D01*
X131111510Y-97442024D01*
X131178218Y-97817302D01*
X131316858Y-98172356D01*
X131354306Y-98242418D01*
X131637112Y-98382873D01*
X132728974Y-97291012D01*
X133371026Y-97291012D01*
X134462888Y-98382873D01*
X134745694Y-98242418D01*
X134898721Y-97893323D01*
X134980703Y-97521083D01*
X134988490Y-97140000D01*
X134921782Y-96764722D01*
X134783142Y-96409668D01*
X134745694Y-96339606D01*
X134462888Y-96199151D01*
X133371026Y-97291012D01*
X132728974Y-97291012D01*
X131637112Y-96199151D01*
X131354306Y-96339606D01*
X131201279Y-96688701D01*
X131119297Y-97060941D01*
X131111510Y-97442024D01*
X128410000Y-97442024D01*
X128410000Y-95878124D01*
X131958139Y-95878124D01*
X133050000Y-96969986D01*
X134028973Y-95991012D01*
X145562896Y-95991012D01*
X145562896Y-98591012D01*
X145571295Y-98676287D01*
X145596169Y-98758284D01*
X145636561Y-98833854D01*
X145690921Y-98900091D01*
X145757158Y-98954451D01*
X145832728Y-98994843D01*
X145914725Y-99019717D01*
X146000000Y-99028116D01*
X148600000Y-99028116D01*
X148685275Y-99019717D01*
X148767272Y-98994843D01*
X148842842Y-98954451D01*
X148909079Y-98900091D01*
X148963439Y-98833854D01*
X149003831Y-98758284D01*
X149028705Y-98676287D01*
X149037104Y-98591012D01*
X149037104Y-96633780D01*
X153336031Y-96633780D01*
X153429295Y-96858960D01*
X153587131Y-97103571D01*
X153789655Y-97312689D01*
X154029084Y-97478279D01*
X154296218Y-97593977D01*
X154523000Y-97488806D01*
X154523000Y-96407000D01*
X154977000Y-96407000D01*
X154977000Y-97488806D01*
X155203782Y-97593977D01*
X155470916Y-97478279D01*
X155710345Y-97312689D01*
X155912869Y-97103571D01*
X156070705Y-96858960D01*
X156163969Y-96633780D01*
X156056679Y-96407000D01*
X154977000Y-96407000D01*
X154523000Y-96407000D01*
X153443321Y-96407000D01*
X153336031Y-96633780D01*
X149037104Y-96633780D01*
X149037104Y-95991012D01*
X149028705Y-95905737D01*
X149003831Y-95823740D01*
X148963439Y-95748170D01*
X148909079Y-95681933D01*
X148842842Y-95627573D01*
X148767272Y-95587181D01*
X148685275Y-95562307D01*
X148600000Y-95553908D01*
X146000000Y-95553908D01*
X145914725Y-95562307D01*
X145832728Y-95587181D01*
X145757158Y-95627573D01*
X145690921Y-95681933D01*
X145636561Y-95748170D01*
X145596169Y-95823740D01*
X145571295Y-95905737D01*
X145562896Y-95991012D01*
X134028973Y-95991012D01*
X134141861Y-95878124D01*
X134001406Y-95595318D01*
X133652311Y-95442291D01*
X133280071Y-95360309D01*
X132898988Y-95352522D01*
X132523710Y-95419230D01*
X132168656Y-95557870D01*
X132098594Y-95595318D01*
X131958139Y-95878124D01*
X128410000Y-95878124D01*
X128410000Y-92442760D01*
X141740000Y-92442760D01*
X141740000Y-92607240D01*
X141772089Y-92768560D01*
X141835033Y-92920521D01*
X141926413Y-93057281D01*
X142042719Y-93173587D01*
X142179479Y-93264967D01*
X142331440Y-93327911D01*
X142492760Y-93360000D01*
X142657240Y-93360000D01*
X142818560Y-93327911D01*
X142861801Y-93310000D01*
X153286447Y-93310000D01*
X153325000Y-93313797D01*
X153363553Y-93310000D01*
X153363561Y-93310000D01*
X153478887Y-93298641D01*
X153509577Y-93289331D01*
X153465000Y-93513439D01*
X153465000Y-93766561D01*
X153514381Y-94014821D01*
X153611247Y-94248676D01*
X153751875Y-94459140D01*
X153930860Y-94638125D01*
X154141324Y-94778753D01*
X154205474Y-94805325D01*
X154029084Y-94881721D01*
X153789655Y-95047311D01*
X153587131Y-95256429D01*
X153429295Y-95501040D01*
X153336031Y-95726220D01*
X153443321Y-95953000D01*
X154523000Y-95953000D01*
X154523000Y-95933000D01*
X154977000Y-95933000D01*
X154977000Y-95953000D01*
X156056679Y-95953000D01*
X156163969Y-95726220D01*
X156070705Y-95501040D01*
X155912869Y-95256429D01*
X155710345Y-95047311D01*
X155470916Y-94881721D01*
X155294526Y-94805325D01*
X155358676Y-94778753D01*
X155569140Y-94638125D01*
X155748125Y-94459140D01*
X155888753Y-94248676D01*
X155985619Y-94014821D01*
X156035000Y-93766561D01*
X156035000Y-93513439D01*
X155985619Y-93265179D01*
X155888753Y-93031324D01*
X155748125Y-92820860D01*
X155569140Y-92641875D01*
X155358676Y-92501247D01*
X155124821Y-92404381D01*
X155037962Y-92387104D01*
X155600000Y-92387104D01*
X155685275Y-92378705D01*
X155767272Y-92353831D01*
X155842842Y-92313439D01*
X155909079Y-92259079D01*
X155963439Y-92192842D01*
X156003831Y-92117272D01*
X156028705Y-92035275D01*
X156037104Y-91950000D01*
X156037104Y-90250000D01*
X156028705Y-90164725D01*
X156003831Y-90082728D01*
X155963439Y-90007158D01*
X155909079Y-89940921D01*
X155842842Y-89886561D01*
X155767272Y-89846169D01*
X155685275Y-89821295D01*
X155600000Y-89812896D01*
X153900000Y-89812896D01*
X153814725Y-89821295D01*
X153732728Y-89846169D01*
X153657158Y-89886561D01*
X153590921Y-89940921D01*
X153536561Y-90007158D01*
X153496169Y-90082728D01*
X153471295Y-90164725D01*
X153462896Y-90250000D01*
X153462896Y-91276947D01*
X152999843Y-91740000D01*
X142861801Y-91740000D01*
X142818560Y-91722089D01*
X142657240Y-91690000D01*
X142492760Y-91690000D01*
X142331440Y-91722089D01*
X142179479Y-91785033D01*
X142042719Y-91876413D01*
X141926413Y-91992719D01*
X141835033Y-92129479D01*
X141772089Y-92281440D01*
X141740000Y-92442760D01*
X128410000Y-92442760D01*
X128410000Y-88910000D01*
X129522590Y-88910000D01*
X129542458Y-88908043D01*
X129548324Y-88908084D01*
X129554717Y-88907457D01*
X129739109Y-88888076D01*
X129779935Y-88879695D01*
X129820899Y-88871881D01*
X129827048Y-88870024D01*
X129827050Y-88870023D01*
X129827052Y-88870023D01*
X129827054Y-88870022D01*
X130004165Y-88815198D01*
X130042569Y-88799054D01*
X130081256Y-88783424D01*
X130086927Y-88780408D01*
X130250020Y-88692224D01*
X130284566Y-88668923D01*
X130319471Y-88646081D01*
X130324449Y-88642021D01*
X130467308Y-88523837D01*
X130496665Y-88494274D01*
X130526472Y-88465085D01*
X130530566Y-88460136D01*
X130647749Y-88316456D01*
X130670809Y-88281748D01*
X130694375Y-88247330D01*
X130697430Y-88241680D01*
X130703354Y-88230538D01*
X131685000Y-88230538D01*
X131685000Y-88493510D01*
X131736304Y-88751429D01*
X131836939Y-88994383D01*
X131983038Y-89213037D01*
X132168987Y-89398986D01*
X132387641Y-89545085D01*
X132630595Y-89645720D01*
X132888514Y-89697024D01*
X133151486Y-89697024D01*
X133409405Y-89645720D01*
X133652359Y-89545085D01*
X133871013Y-89398986D01*
X134056962Y-89213037D01*
X134203061Y-88994383D01*
X134290000Y-88784494D01*
X134376939Y-88994383D01*
X134523038Y-89213037D01*
X134708987Y-89398986D01*
X134927641Y-89545085D01*
X135170595Y-89645720D01*
X135428514Y-89697024D01*
X135691486Y-89697024D01*
X135949405Y-89645720D01*
X136192359Y-89545085D01*
X136411013Y-89398986D01*
X136596962Y-89213037D01*
X136743061Y-88994383D01*
X136830000Y-88784494D01*
X136916939Y-88994383D01*
X137063038Y-89213037D01*
X137248987Y-89398986D01*
X137467641Y-89545085D01*
X137710595Y-89645720D01*
X137968514Y-89697024D01*
X138231486Y-89697024D01*
X138489405Y-89645720D01*
X138732359Y-89545085D01*
X138951013Y-89398986D01*
X139136962Y-89213037D01*
X139283061Y-88994383D01*
X139370000Y-88784494D01*
X139456939Y-88994383D01*
X139603038Y-89213037D01*
X139788987Y-89398986D01*
X140007641Y-89545085D01*
X140250595Y-89645720D01*
X140508514Y-89697024D01*
X140771486Y-89697024D01*
X141029405Y-89645720D01*
X141272359Y-89545085D01*
X141491013Y-89398986D01*
X141676962Y-89213037D01*
X141823061Y-88994383D01*
X141910000Y-88784494D01*
X141996939Y-88994383D01*
X142143038Y-89213037D01*
X142328987Y-89398986D01*
X142547641Y-89545085D01*
X142790595Y-89645720D01*
X143048514Y-89697024D01*
X143311486Y-89697024D01*
X143569405Y-89645720D01*
X143812359Y-89545085D01*
X144031013Y-89398986D01*
X144216962Y-89213037D01*
X144363061Y-88994383D01*
X144450000Y-88784494D01*
X144536939Y-88994383D01*
X144683038Y-89213037D01*
X144868987Y-89398986D01*
X145087641Y-89545085D01*
X145330595Y-89645720D01*
X145588514Y-89697024D01*
X145851486Y-89697024D01*
X146109405Y-89645720D01*
X146352359Y-89545085D01*
X146571013Y-89398986D01*
X146756962Y-89213037D01*
X146903061Y-88994383D01*
X146990000Y-88784494D01*
X147076939Y-88994383D01*
X147223038Y-89213037D01*
X147408987Y-89398986D01*
X147627641Y-89545085D01*
X147870595Y-89645720D01*
X148128514Y-89697024D01*
X148391486Y-89697024D01*
X148649405Y-89645720D01*
X148892359Y-89545085D01*
X149111013Y-89398986D01*
X149296962Y-89213037D01*
X149443061Y-88994383D01*
X149530000Y-88784494D01*
X149616939Y-88994383D01*
X149763038Y-89213037D01*
X149948987Y-89398986D01*
X150167641Y-89545085D01*
X150410595Y-89645720D01*
X150668514Y-89697024D01*
X150931486Y-89697024D01*
X151189405Y-89645720D01*
X151432359Y-89545085D01*
X151651013Y-89398986D01*
X151836962Y-89213037D01*
X151983061Y-88994383D01*
X152083696Y-88751429D01*
X152135000Y-88493510D01*
X152135000Y-88230538D01*
X152083696Y-87972619D01*
X151983061Y-87729665D01*
X151836962Y-87511011D01*
X151651013Y-87325062D01*
X151432359Y-87178963D01*
X151189405Y-87078328D01*
X150931486Y-87027024D01*
X150668514Y-87027024D01*
X150410595Y-87078328D01*
X150167641Y-87178963D01*
X149948987Y-87325062D01*
X149763038Y-87511011D01*
X149616939Y-87729665D01*
X149530000Y-87939554D01*
X149443061Y-87729665D01*
X149296962Y-87511011D01*
X149111013Y-87325062D01*
X148892359Y-87178963D01*
X148649405Y-87078328D01*
X148391486Y-87027024D01*
X148128514Y-87027024D01*
X147870595Y-87078328D01*
X147627641Y-87178963D01*
X147408987Y-87325062D01*
X147223038Y-87511011D01*
X147076939Y-87729665D01*
X146990000Y-87939554D01*
X146903061Y-87729665D01*
X146756962Y-87511011D01*
X146571013Y-87325062D01*
X146352359Y-87178963D01*
X146109405Y-87078328D01*
X145851486Y-87027024D01*
X145588514Y-87027024D01*
X145330595Y-87078328D01*
X145087641Y-87178963D01*
X144868987Y-87325062D01*
X144683038Y-87511011D01*
X144536939Y-87729665D01*
X144450000Y-87939554D01*
X144363061Y-87729665D01*
X144216962Y-87511011D01*
X144031013Y-87325062D01*
X143812359Y-87178963D01*
X143569405Y-87078328D01*
X143311486Y-87027024D01*
X143048514Y-87027024D01*
X142790595Y-87078328D01*
X142547641Y-87178963D01*
X142328987Y-87325062D01*
X142143038Y-87511011D01*
X141996939Y-87729665D01*
X141910000Y-87939554D01*
X141823061Y-87729665D01*
X141676962Y-87511011D01*
X141491013Y-87325062D01*
X141272359Y-87178963D01*
X141029405Y-87078328D01*
X140771486Y-87027024D01*
X140508514Y-87027024D01*
X140250595Y-87078328D01*
X140007641Y-87178963D01*
X139788987Y-87325062D01*
X139603038Y-87511011D01*
X139456939Y-87729665D01*
X139370000Y-87939554D01*
X139283061Y-87729665D01*
X139136962Y-87511011D01*
X138951013Y-87325062D01*
X138732359Y-87178963D01*
X138489405Y-87078328D01*
X138231486Y-87027024D01*
X137968514Y-87027024D01*
X137710595Y-87078328D01*
X137467641Y-87178963D01*
X137248987Y-87325062D01*
X137063038Y-87511011D01*
X136916939Y-87729665D01*
X136830000Y-87939554D01*
X136743061Y-87729665D01*
X136596962Y-87511011D01*
X136411013Y-87325062D01*
X136192359Y-87178963D01*
X135949405Y-87078328D01*
X135691486Y-87027024D01*
X135428514Y-87027024D01*
X135170595Y-87078328D01*
X134927641Y-87178963D01*
X134708987Y-87325062D01*
X134523038Y-87511011D01*
X134376939Y-87729665D01*
X134290000Y-87939554D01*
X134203061Y-87729665D01*
X134056962Y-87511011D01*
X133871013Y-87325062D01*
X133652359Y-87178963D01*
X133409405Y-87078328D01*
X133151486Y-87027024D01*
X132888514Y-87027024D01*
X132630595Y-87078328D01*
X132387641Y-87178963D01*
X132168987Y-87325062D01*
X131983038Y-87511011D01*
X131836939Y-87729665D01*
X131736304Y-87972619D01*
X131685000Y-88230538D01*
X130703354Y-88230538D01*
X130784475Y-88077975D01*
X130800373Y-88039404D01*
X130816787Y-88001106D01*
X130818684Y-87994978D01*
X130818686Y-87994972D01*
X130818687Y-87994966D01*
X130872274Y-87817476D01*
X130880361Y-87776633D01*
X130889040Y-87735800D01*
X130889712Y-87729412D01*
X130907805Y-87544889D01*
X130907805Y-87544875D01*
X130910000Y-87522590D01*
X130910000Y-86760000D01*
X156627499Y-86760000D01*
X156977828Y-86794350D01*
M02*
