G04 #@! TF.GenerationSoftware,KiCad,Pcbnew,(5.1.5)-3*
G04 #@! TF.CreationDate,2020-06-15T13:00:21-04:00*
G04 #@! TF.ProjectId,Wemo_Shield,57656d6f-5f53-4686-9965-6c642e6b6963,v1*
G04 #@! TF.SameCoordinates,Original*
G04 #@! TF.FileFunction,Copper,L2,Bot*
G04 #@! TF.FilePolarity,Positive*
%FSLAX46Y46*%
G04 Gerber Fmt 4.6, Leading zero omitted, Abs format (unit mm)*
G04 Created by KiCad (PCBNEW (5.1.5)-3) date 2020-06-15 13:00:21*
%MOMM*%
%LPD*%
G04 APERTURE LIST*
%ADD10R,1.500000X1.000000*%
%ADD11C,2.600000*%
%ADD12R,2.600000X2.600000*%
%ADD13C,0.100000*%
%ADD14O,1.700000X1.700000*%
%ADD15R,1.700000X1.700000*%
%ADD16C,1.800000*%
%ADD17C,0.800000*%
%ADD18C,0.500000*%
%ADD19C,0.700000*%
G04 APERTURE END LIST*
D10*
X140075000Y-91250000D03*
X140075000Y-92550000D03*
X140075000Y-93850000D03*
X143775000Y-106275000D03*
X143775000Y-107575000D03*
X143775000Y-108875000D03*
D11*
X147300000Y-102291012D03*
D12*
X147300000Y-97291012D03*
G04 #@! TA.AperFunction,SMDPad,CuDef*
D13*
G36*
X148874505Y-107651204D02*
G01*
X148898773Y-107654804D01*
X148922572Y-107660765D01*
X148945671Y-107669030D01*
X148967850Y-107679520D01*
X148988893Y-107692132D01*
X149008599Y-107706747D01*
X149026777Y-107723223D01*
X149043253Y-107741401D01*
X149057868Y-107761107D01*
X149070480Y-107782150D01*
X149080970Y-107804329D01*
X149089235Y-107827428D01*
X149095196Y-107851227D01*
X149098796Y-107875495D01*
X149100000Y-107899999D01*
X149100000Y-108550001D01*
X149098796Y-108574505D01*
X149095196Y-108598773D01*
X149089235Y-108622572D01*
X149080970Y-108645671D01*
X149070480Y-108667850D01*
X149057868Y-108688893D01*
X149043253Y-108708599D01*
X149026777Y-108726777D01*
X149008599Y-108743253D01*
X148988893Y-108757868D01*
X148967850Y-108770480D01*
X148945671Y-108780970D01*
X148922572Y-108789235D01*
X148898773Y-108795196D01*
X148874505Y-108798796D01*
X148850001Y-108800000D01*
X147949999Y-108800000D01*
X147925495Y-108798796D01*
X147901227Y-108795196D01*
X147877428Y-108789235D01*
X147854329Y-108780970D01*
X147832150Y-108770480D01*
X147811107Y-108757868D01*
X147791401Y-108743253D01*
X147773223Y-108726777D01*
X147756747Y-108708599D01*
X147742132Y-108688893D01*
X147729520Y-108667850D01*
X147719030Y-108645671D01*
X147710765Y-108622572D01*
X147704804Y-108598773D01*
X147701204Y-108574505D01*
X147700000Y-108550001D01*
X147700000Y-107899999D01*
X147701204Y-107875495D01*
X147704804Y-107851227D01*
X147710765Y-107827428D01*
X147719030Y-107804329D01*
X147729520Y-107782150D01*
X147742132Y-107761107D01*
X147756747Y-107741401D01*
X147773223Y-107723223D01*
X147791401Y-107706747D01*
X147811107Y-107692132D01*
X147832150Y-107679520D01*
X147854329Y-107669030D01*
X147877428Y-107660765D01*
X147901227Y-107654804D01*
X147925495Y-107651204D01*
X147949999Y-107650000D01*
X148850001Y-107650000D01*
X148874505Y-107651204D01*
G37*
G04 #@! TD.AperFunction*
G04 #@! TA.AperFunction,SMDPad,CuDef*
G36*
X148874505Y-105601204D02*
G01*
X148898773Y-105604804D01*
X148922572Y-105610765D01*
X148945671Y-105619030D01*
X148967850Y-105629520D01*
X148988893Y-105642132D01*
X149008599Y-105656747D01*
X149026777Y-105673223D01*
X149043253Y-105691401D01*
X149057868Y-105711107D01*
X149070480Y-105732150D01*
X149080970Y-105754329D01*
X149089235Y-105777428D01*
X149095196Y-105801227D01*
X149098796Y-105825495D01*
X149100000Y-105849999D01*
X149100000Y-106500001D01*
X149098796Y-106524505D01*
X149095196Y-106548773D01*
X149089235Y-106572572D01*
X149080970Y-106595671D01*
X149070480Y-106617850D01*
X149057868Y-106638893D01*
X149043253Y-106658599D01*
X149026777Y-106676777D01*
X149008599Y-106693253D01*
X148988893Y-106707868D01*
X148967850Y-106720480D01*
X148945671Y-106730970D01*
X148922572Y-106739235D01*
X148898773Y-106745196D01*
X148874505Y-106748796D01*
X148850001Y-106750000D01*
X147949999Y-106750000D01*
X147925495Y-106748796D01*
X147901227Y-106745196D01*
X147877428Y-106739235D01*
X147854329Y-106730970D01*
X147832150Y-106720480D01*
X147811107Y-106707868D01*
X147791401Y-106693253D01*
X147773223Y-106676777D01*
X147756747Y-106658599D01*
X147742132Y-106638893D01*
X147729520Y-106617850D01*
X147719030Y-106595671D01*
X147710765Y-106572572D01*
X147704804Y-106548773D01*
X147701204Y-106524505D01*
X147700000Y-106500001D01*
X147700000Y-105849999D01*
X147701204Y-105825495D01*
X147704804Y-105801227D01*
X147710765Y-105777428D01*
X147719030Y-105754329D01*
X147729520Y-105732150D01*
X147742132Y-105711107D01*
X147756747Y-105691401D01*
X147773223Y-105673223D01*
X147791401Y-105656747D01*
X147811107Y-105642132D01*
X147832150Y-105629520D01*
X147854329Y-105619030D01*
X147877428Y-105610765D01*
X147901227Y-105604804D01*
X147925495Y-105601204D01*
X147949999Y-105600000D01*
X148850001Y-105600000D01*
X148874505Y-105601204D01*
G37*
G04 #@! TD.AperFunction*
D14*
X154750000Y-96180000D03*
X154750000Y-93640000D03*
D15*
X154750000Y-91100000D03*
D16*
X150800000Y-111222024D03*
X150800000Y-88362024D03*
X148260000Y-111222024D03*
X148260000Y-88362024D03*
X145720000Y-111222024D03*
X145720000Y-88362024D03*
X143180000Y-111222024D03*
X143180000Y-88362024D03*
X140640000Y-111222024D03*
X140640000Y-88362024D03*
X138100000Y-111222024D03*
X138100000Y-88362024D03*
X135560000Y-111222024D03*
X135560000Y-88362024D03*
X133020000Y-111222024D03*
X133020000Y-88362024D03*
G04 #@! TA.AperFunction,SMDPad,CuDef*
D13*
G36*
X146174505Y-90551204D02*
G01*
X146198773Y-90554804D01*
X146222572Y-90560765D01*
X146245671Y-90569030D01*
X146267850Y-90579520D01*
X146288893Y-90592132D01*
X146308599Y-90606747D01*
X146326777Y-90623223D01*
X146343253Y-90641401D01*
X146357868Y-90661107D01*
X146370480Y-90682150D01*
X146380970Y-90704329D01*
X146389235Y-90727428D01*
X146395196Y-90751227D01*
X146398796Y-90775495D01*
X146400000Y-90799999D01*
X146400000Y-91700001D01*
X146398796Y-91724505D01*
X146395196Y-91748773D01*
X146389235Y-91772572D01*
X146380970Y-91795671D01*
X146370480Y-91817850D01*
X146357868Y-91838893D01*
X146343253Y-91858599D01*
X146326777Y-91876777D01*
X146308599Y-91893253D01*
X146288893Y-91907868D01*
X146267850Y-91920480D01*
X146245671Y-91930970D01*
X146222572Y-91939235D01*
X146198773Y-91945196D01*
X146174505Y-91948796D01*
X146150001Y-91950000D01*
X145499999Y-91950000D01*
X145475495Y-91948796D01*
X145451227Y-91945196D01*
X145427428Y-91939235D01*
X145404329Y-91930970D01*
X145382150Y-91920480D01*
X145361107Y-91907868D01*
X145341401Y-91893253D01*
X145323223Y-91876777D01*
X145306747Y-91858599D01*
X145292132Y-91838893D01*
X145279520Y-91817850D01*
X145269030Y-91795671D01*
X145260765Y-91772572D01*
X145254804Y-91748773D01*
X145251204Y-91724505D01*
X145250000Y-91700001D01*
X145250000Y-90799999D01*
X145251204Y-90775495D01*
X145254804Y-90751227D01*
X145260765Y-90727428D01*
X145269030Y-90704329D01*
X145279520Y-90682150D01*
X145292132Y-90661107D01*
X145306747Y-90641401D01*
X145323223Y-90623223D01*
X145341401Y-90606747D01*
X145361107Y-90592132D01*
X145382150Y-90579520D01*
X145404329Y-90569030D01*
X145427428Y-90560765D01*
X145451227Y-90554804D01*
X145475495Y-90551204D01*
X145499999Y-90550000D01*
X146150001Y-90550000D01*
X146174505Y-90551204D01*
G37*
G04 #@! TD.AperFunction*
G04 #@! TA.AperFunction,SMDPad,CuDef*
G36*
X144124505Y-90551204D02*
G01*
X144148773Y-90554804D01*
X144172572Y-90560765D01*
X144195671Y-90569030D01*
X144217850Y-90579520D01*
X144238893Y-90592132D01*
X144258599Y-90606747D01*
X144276777Y-90623223D01*
X144293253Y-90641401D01*
X144307868Y-90661107D01*
X144320480Y-90682150D01*
X144330970Y-90704329D01*
X144339235Y-90727428D01*
X144345196Y-90751227D01*
X144348796Y-90775495D01*
X144350000Y-90799999D01*
X144350000Y-91700001D01*
X144348796Y-91724505D01*
X144345196Y-91748773D01*
X144339235Y-91772572D01*
X144330970Y-91795671D01*
X144320480Y-91817850D01*
X144307868Y-91838893D01*
X144293253Y-91858599D01*
X144276777Y-91876777D01*
X144258599Y-91893253D01*
X144238893Y-91907868D01*
X144217850Y-91920480D01*
X144195671Y-91930970D01*
X144172572Y-91939235D01*
X144148773Y-91945196D01*
X144124505Y-91948796D01*
X144100001Y-91950000D01*
X143449999Y-91950000D01*
X143425495Y-91948796D01*
X143401227Y-91945196D01*
X143377428Y-91939235D01*
X143354329Y-91930970D01*
X143332150Y-91920480D01*
X143311107Y-91907868D01*
X143291401Y-91893253D01*
X143273223Y-91876777D01*
X143256747Y-91858599D01*
X143242132Y-91838893D01*
X143229520Y-91817850D01*
X143219030Y-91795671D01*
X143210765Y-91772572D01*
X143204804Y-91748773D01*
X143201204Y-91724505D01*
X143200000Y-91700001D01*
X143200000Y-90799999D01*
X143201204Y-90775495D01*
X143204804Y-90751227D01*
X143210765Y-90727428D01*
X143219030Y-90704329D01*
X143229520Y-90682150D01*
X143242132Y-90661107D01*
X143256747Y-90641401D01*
X143273223Y-90623223D01*
X143291401Y-90606747D01*
X143311107Y-90592132D01*
X143332150Y-90579520D01*
X143354329Y-90569030D01*
X143377428Y-90560765D01*
X143401227Y-90554804D01*
X143425495Y-90551204D01*
X143449999Y-90550000D01*
X144100001Y-90550000D01*
X144124505Y-90551204D01*
G37*
G04 #@! TD.AperFunction*
D14*
X154700000Y-108480000D03*
X154700000Y-105940000D03*
D15*
X154700000Y-103400000D03*
D11*
X133050000Y-97291012D03*
D12*
X133050000Y-102291012D03*
D17*
X142575000Y-92525000D03*
D18*
X133020000Y-111220000D02*
X133020000Y-111222024D01*
D19*
X133020000Y-111222024D02*
X132722024Y-111222024D01*
X133050000Y-111192024D02*
X133020000Y-111222024D01*
X133050000Y-102291012D02*
X133050000Y-111192024D01*
X133050000Y-102275000D02*
X133050000Y-102291012D01*
X140075000Y-93850000D02*
X140075000Y-95250000D01*
X140075000Y-95250000D02*
X133050000Y-102275000D01*
X135367024Y-108875000D02*
X133020000Y-111222024D01*
X143775000Y-108875000D02*
X135367024Y-108875000D01*
X145720000Y-110005000D02*
X145720000Y-111222024D01*
X148400000Y-108225000D02*
X147500000Y-108225000D01*
X147500000Y-108225000D02*
X145720000Y-110005000D01*
X148400000Y-108225000D02*
X152415000Y-108225000D01*
X153850001Y-106789999D02*
X154700000Y-105940000D01*
X152415000Y-108225000D02*
X153850001Y-106789999D01*
X145825000Y-88467024D02*
X145720000Y-88362024D01*
X145720000Y-91145000D02*
X145825000Y-91250000D01*
X145720000Y-88362024D02*
X145720000Y-91145000D01*
X145825000Y-95816012D02*
X147300000Y-97291012D01*
X145825000Y-91250000D02*
X145825000Y-95816012D01*
X149159999Y-89262023D02*
X148260000Y-88362024D01*
X153547976Y-93650000D02*
X149159999Y-89262023D01*
X154750000Y-93640000D02*
X154740000Y-93650000D01*
X154740000Y-93650000D02*
X153547976Y-93650000D01*
D18*
X132987976Y-88362024D02*
X133020000Y-88362024D01*
X133020000Y-88470000D02*
X133020000Y-88362024D01*
D19*
X133050000Y-88392024D02*
X133020000Y-88362024D01*
X135907976Y-91250000D02*
X133020000Y-88362024D01*
X143775000Y-91250000D02*
X135907976Y-91250000D01*
X143775000Y-91250000D02*
X143775000Y-106275000D01*
D18*
X143650000Y-107350000D02*
X143700000Y-107300000D01*
D19*
X147700000Y-106175000D02*
X148400000Y-106175000D01*
X145225000Y-107575000D02*
X146625000Y-106175000D01*
X146625000Y-106175000D02*
X147700000Y-106175000D01*
X143775000Y-107575000D02*
X145225000Y-107575000D01*
X150275000Y-106175000D02*
X148400000Y-106175000D01*
X154700000Y-103400000D02*
X153050000Y-103400000D01*
X153050000Y-103400000D02*
X150275000Y-106175000D01*
X142550000Y-92550000D02*
X142575000Y-92525000D01*
X140100000Y-92525000D02*
X140075000Y-92550000D01*
X142575000Y-92525000D02*
X140100000Y-92525000D01*
M02*
