G04 #@! TF.GenerationSoftware,KiCad,Pcbnew,(5.1.9)-1*
G04 #@! TF.CreationDate,2021-05-12T23:26:12-04:00*
G04 #@! TF.ProjectId,ESP32_Controller,45535033-325f-4436-9f6e-74726f6c6c65,v1.2*
G04 #@! TF.SameCoordinates,Original*
G04 #@! TF.FileFunction,Other,ECO2*
%FSLAX46Y46*%
G04 Gerber Fmt 4.6, Leading zero omitted, Abs format (unit mm)*
G04 Created by KiCad (PCBNEW (5.1.9)-1) date 2021-05-12 23:26:12*
%MOMM*%
%LPD*%
G01*
G04 APERTURE LIST*
%ADD10C,0.127000*%
%ADD11C,0.300000*%
G04 APERTURE END LIST*
D10*
X118250000Y-121396000D02*
X118250000Y-106696000D01*
X118250000Y-106696000D02*
X123050000Y-106696000D01*
X123050000Y-106696000D02*
X123050000Y-121396000D01*
X123050000Y-121396000D02*
X118250000Y-121396000D01*
D11*
X120891420Y-122346000D02*
G75*
G03*
X120891420Y-122346000I-141420J0D01*
G01*
D10*
X125870000Y-131810000D02*
X125870000Y-117110000D01*
X125870000Y-117110000D02*
X130670000Y-117110000D01*
X130670000Y-117110000D02*
X130670000Y-131810000D01*
X130670000Y-131810000D02*
X125870000Y-131810000D01*
D11*
X128511420Y-132760000D02*
G75*
G03*
X128511420Y-132760000I-141420J0D01*
G01*
D10*
X170320000Y-131810000D02*
X170320000Y-117110000D01*
X170320000Y-117110000D02*
X175120000Y-117110000D01*
X175120000Y-117110000D02*
X175120000Y-131810000D01*
X175120000Y-131810000D02*
X170320000Y-131810000D01*
D11*
X172961420Y-132760000D02*
G75*
G03*
X172961420Y-132760000I-141420J0D01*
G01*
D10*
X163970000Y-131810000D02*
X163970000Y-117110000D01*
X163970000Y-117110000D02*
X168770000Y-117110000D01*
X168770000Y-117110000D02*
X168770000Y-131810000D01*
X168770000Y-131810000D02*
X163970000Y-131810000D01*
D11*
X166611420Y-132760000D02*
G75*
G03*
X166611420Y-132760000I-141420J0D01*
G01*
D10*
X157620000Y-131810000D02*
X157620000Y-117110000D01*
X157620000Y-117110000D02*
X162420000Y-117110000D01*
X162420000Y-117110000D02*
X162420000Y-131810000D01*
X162420000Y-131810000D02*
X157620000Y-131810000D01*
D11*
X160261420Y-132760000D02*
G75*
G03*
X160261420Y-132760000I-141420J0D01*
G01*
D10*
X151270000Y-131810000D02*
X151270000Y-117110000D01*
X151270000Y-117110000D02*
X156070000Y-117110000D01*
X156070000Y-117110000D02*
X156070000Y-131810000D01*
X156070000Y-131810000D02*
X151270000Y-131810000D01*
D11*
X153911420Y-132760000D02*
G75*
G03*
X153911420Y-132760000I-141420J0D01*
G01*
D10*
X144920000Y-131810000D02*
X144920000Y-117110000D01*
X144920000Y-117110000D02*
X149720000Y-117110000D01*
X149720000Y-117110000D02*
X149720000Y-131810000D01*
X149720000Y-131810000D02*
X144920000Y-131810000D01*
D11*
X147561420Y-132760000D02*
G75*
G03*
X147561420Y-132760000I-141420J0D01*
G01*
D10*
X138570000Y-131810000D02*
X138570000Y-117110000D01*
X138570000Y-117110000D02*
X143370000Y-117110000D01*
X143370000Y-117110000D02*
X143370000Y-131810000D01*
X143370000Y-131810000D02*
X138570000Y-131810000D01*
D11*
X141211420Y-132760000D02*
G75*
G03*
X141211420Y-132760000I-141420J0D01*
G01*
D10*
X132220000Y-131810000D02*
X132220000Y-117110000D01*
X132220000Y-117110000D02*
X137020000Y-117110000D01*
X137020000Y-117110000D02*
X137020000Y-131810000D01*
X137020000Y-131810000D02*
X132220000Y-131810000D01*
D11*
X134861420Y-132760000D02*
G75*
G03*
X134861420Y-132760000I-141420J0D01*
G01*
M02*
