G04 #@! TF.GenerationSoftware,KiCad,Pcbnew,(5.1.9)-1*
G04 #@! TF.CreationDate,2021-05-12T23:26:12-04:00*
G04 #@! TF.ProjectId,ESP32_Controller,45535033-325f-4436-9f6e-74726f6c6c65,v1.2*
G04 #@! TF.SameCoordinates,Original*
G04 #@! TF.FileFunction,Soldermask,Bot*
G04 #@! TF.FilePolarity,Negative*
%FSLAX46Y46*%
G04 Gerber Fmt 4.6, Leading zero omitted, Abs format (unit mm)*
G04 Created by KiCad (PCBNEW (5.1.9)-1) date 2021-05-12 23:26:12*
%MOMM*%
%LPD*%
G01*
G04 APERTURE LIST*
%ADD10O,1.802000X1.802000*%
%ADD11C,1.626000*%
%ADD12C,1.602000*%
%ADD13C,3.302000*%
%ADD14O,1.702000X1.702000*%
%ADD15C,1.702000*%
%ADD16C,1.902000*%
%ADD17C,2.102000*%
%ADD18C,2.702000*%
%ADD19O,2.007000X2.102000*%
%ADD20O,3.602000X3.602000*%
%ADD21O,1.902000X3.702000*%
%ADD22C,3.602000*%
%ADD23C,2.577000*%
%ADD24C,1.397400*%
%ADD25C,2.602000*%
%ADD26C,0.100000*%
G04 APERTURE END LIST*
D10*
X126120000Y-87100000D03*
X128660000Y-87100000D03*
G36*
G01*
X130350000Y-86199000D02*
X132050000Y-86199000D01*
G75*
G02*
X132101000Y-86250000I0J-51000D01*
G01*
X132101000Y-87950000D01*
G75*
G02*
X132050000Y-88001000I-51000J0D01*
G01*
X130350000Y-88001000D01*
G75*
G02*
X130299000Y-87950000I0J51000D01*
G01*
X130299000Y-86250000D01*
G75*
G02*
X130350000Y-86199000I51000J0D01*
G01*
G37*
D11*
X181864000Y-73863200D03*
X179324000Y-73863200D03*
X176784000Y-73863200D03*
X174244000Y-73863200D03*
X171704000Y-73863200D03*
X169164000Y-73863200D03*
X166624000Y-73863200D03*
X164084000Y-73863200D03*
X161544000Y-73863200D03*
X159004000Y-73863200D03*
X159004000Y-48463200D03*
X161544000Y-48463200D03*
X164084000Y-48463200D03*
X166624000Y-48463200D03*
X169164000Y-48463200D03*
X171704000Y-48463200D03*
X174244000Y-48463200D03*
X176784000Y-48463200D03*
X179324000Y-48463200D03*
X181864000Y-48463200D03*
D10*
X198628000Y-90932000D03*
X198628000Y-93472000D03*
G36*
G01*
X199529000Y-95162000D02*
X199529000Y-96862000D01*
G75*
G02*
X199478000Y-96913000I-51000J0D01*
G01*
X197778000Y-96913000D01*
G75*
G02*
X197727000Y-96862000I0J51000D01*
G01*
X197727000Y-95162000D01*
G75*
G02*
X197778000Y-95111000I51000J0D01*
G01*
X199478000Y-95111000D01*
G75*
G02*
X199529000Y-95162000I0J-51000D01*
G01*
G37*
D12*
X188722000Y-105410000D03*
X191262000Y-106680000D03*
X188722000Y-107950000D03*
X191262000Y-109220000D03*
X188722000Y-110490000D03*
X191262000Y-111760000D03*
X188722000Y-113030000D03*
G36*
G01*
X192012000Y-115101000D02*
X190512000Y-115101000D01*
G75*
G02*
X190461000Y-115050000I0J51000D01*
G01*
X190461000Y-113550000D01*
G75*
G02*
X190512000Y-113499000I51000J0D01*
G01*
X192012000Y-113499000D01*
G75*
G02*
X192063000Y-113550000I0J-51000D01*
G01*
X192063000Y-115050000D01*
G75*
G02*
X192012000Y-115101000I-51000J0D01*
G01*
G37*
D13*
X197612000Y-115570000D03*
X197612000Y-104140000D03*
D14*
X184658000Y-78486000D03*
D15*
X177038000Y-78486000D03*
D16*
X142443200Y-81076800D03*
G36*
G01*
X138952200Y-81976800D02*
X138952200Y-80176800D01*
G75*
G02*
X139003200Y-80125800I51000J0D01*
G01*
X140803200Y-80125800D01*
G75*
G02*
X140854200Y-80176800I0J-51000D01*
G01*
X140854200Y-81976800D01*
G75*
G02*
X140803200Y-82027800I-51000J0D01*
G01*
X139003200Y-82027800D01*
G75*
G02*
X138952200Y-81976800I0J51000D01*
G01*
G37*
D14*
X134874000Y-77254100D03*
D15*
X142494000Y-77254100D03*
G36*
G01*
X193663000Y-79336000D02*
X193663000Y-77636000D01*
G75*
G02*
X193714000Y-77585000I51000J0D01*
G01*
X195414000Y-77585000D01*
G75*
G02*
X195465000Y-77636000I0J-51000D01*
G01*
X195465000Y-79336000D01*
G75*
G02*
X195414000Y-79387000I-51000J0D01*
G01*
X193714000Y-79387000D01*
G75*
G02*
X193663000Y-79336000I0J51000D01*
G01*
G37*
D10*
X194564000Y-81026000D03*
D17*
X125476000Y-52760000D03*
X125476000Y-48260000D03*
X131976000Y-52760000D03*
X131976000Y-48260000D03*
D14*
X186436000Y-89154000D03*
X178816000Y-81534000D03*
X183896000Y-89154000D03*
X181356000Y-81534000D03*
X181356000Y-89154000D03*
X183896000Y-81534000D03*
X178816000Y-89154000D03*
G36*
G01*
X185636000Y-80683000D02*
X187236000Y-80683000D01*
G75*
G02*
X187287000Y-80734000I0J-51000D01*
G01*
X187287000Y-82334000D01*
G75*
G02*
X187236000Y-82385000I-51000J0D01*
G01*
X185636000Y-82385000D01*
G75*
G02*
X185585000Y-82334000I0J51000D01*
G01*
X185585000Y-80734000D01*
G75*
G02*
X185636000Y-80683000I51000J0D01*
G01*
G37*
X186182000Y-91694000D03*
D15*
X186182000Y-99314000D03*
D18*
X195326000Y-88552000D03*
X195326000Y-93552000D03*
G36*
G01*
X196626000Y-99903000D02*
X194026000Y-99903000D01*
G75*
G02*
X193975000Y-99852000I0J51000D01*
G01*
X193975000Y-97252000D01*
G75*
G02*
X194026000Y-97201000I51000J0D01*
G01*
X196626000Y-97201000D01*
G75*
G02*
X196677000Y-97252000I0J-51000D01*
G01*
X196677000Y-99852000D01*
G75*
G02*
X196626000Y-99903000I-51000J0D01*
G01*
G37*
D15*
X189357000Y-78947000D03*
X189357000Y-83947000D03*
D19*
X128016000Y-82296000D03*
X125476000Y-82296000D03*
G36*
G01*
X121932500Y-83296000D02*
X121932500Y-81296000D01*
G75*
G02*
X121983500Y-81245000I51000J0D01*
G01*
X123888500Y-81245000D01*
G75*
G02*
X123939500Y-81296000I0J-51000D01*
G01*
X123939500Y-83296000D01*
G75*
G02*
X123888500Y-83347000I-51000J0D01*
G01*
X121983500Y-83347000D01*
G75*
G02*
X121932500Y-83296000I0J51000D01*
G01*
G37*
D20*
X125476000Y-65636000D03*
D21*
X137048000Y-109982000D03*
X133548000Y-109982000D03*
G36*
G01*
X129097000Y-111568834D02*
X129097000Y-108395166D01*
G75*
G02*
X129361166Y-108131000I264166J0D01*
G01*
X130734834Y-108131000D01*
G75*
G02*
X130999000Y-108395166I0J-264166D01*
G01*
X130999000Y-111568834D01*
G75*
G02*
X130734834Y-111833000I-264166J0D01*
G01*
X129361166Y-111833000D01*
G75*
G02*
X129097000Y-111568834I0J264166D01*
G01*
G37*
X166512000Y-109982000D03*
X163012000Y-109982000D03*
G36*
G01*
X158561000Y-111568834D02*
X158561000Y-108395166D01*
G75*
G02*
X158825166Y-108131000I264166J0D01*
G01*
X160198834Y-108131000D01*
G75*
G02*
X160463000Y-108395166I0J-264166D01*
G01*
X160463000Y-111568834D01*
G75*
G02*
X160198834Y-111833000I-264166J0D01*
G01*
X158825166Y-111833000D01*
G75*
G02*
X158561000Y-111568834I0J264166D01*
G01*
G37*
X151780000Y-109982000D03*
X148280000Y-109982000D03*
G36*
G01*
X143829000Y-111568834D02*
X143829000Y-108395166D01*
G75*
G02*
X144093166Y-108131000I264166J0D01*
G01*
X145466834Y-108131000D01*
G75*
G02*
X145731000Y-108395166I0J-264166D01*
G01*
X145731000Y-111568834D01*
G75*
G02*
X145466834Y-111833000I-264166J0D01*
G01*
X144093166Y-111833000D01*
G75*
G02*
X143829000Y-111568834I0J264166D01*
G01*
G37*
X181244000Y-109982000D03*
X177744000Y-109982000D03*
G36*
G01*
X173293000Y-111568834D02*
X173293000Y-108395166D01*
G75*
G02*
X173557166Y-108131000I264166J0D01*
G01*
X174930834Y-108131000D01*
G75*
G02*
X175195000Y-108395166I0J-264166D01*
G01*
X175195000Y-111568834D01*
G75*
G02*
X174930834Y-111833000I-264166J0D01*
G01*
X173557166Y-111833000D01*
G75*
G02*
X173293000Y-111568834I0J264166D01*
G01*
G37*
D14*
X174244000Y-89408000D03*
X171704000Y-89408000D03*
X169164000Y-89408000D03*
X166624000Y-89408000D03*
X164084000Y-89408000D03*
X161544000Y-89408000D03*
X159004000Y-89408000D03*
G36*
G01*
X155613000Y-90208000D02*
X155613000Y-88608000D01*
G75*
G02*
X155664000Y-88557000I51000J0D01*
G01*
X157264000Y-88557000D01*
G75*
G02*
X157315000Y-88608000I0J-51000D01*
G01*
X157315000Y-90208000D01*
G75*
G02*
X157264000Y-90259000I-51000J0D01*
G01*
X155664000Y-90259000D01*
G75*
G02*
X155613000Y-90208000I0J51000D01*
G01*
G37*
X152654000Y-89408000D03*
X150114000Y-89408000D03*
X147574000Y-89408000D03*
X145034000Y-89408000D03*
X142494000Y-89408000D03*
X139954000Y-89408000D03*
X137414000Y-89408000D03*
G36*
G01*
X134023000Y-90208000D02*
X134023000Y-88608000D01*
G75*
G02*
X134074000Y-88557000I51000J0D01*
G01*
X135674000Y-88557000D01*
G75*
G02*
X135725000Y-88608000I0J-51000D01*
G01*
X135725000Y-90208000D01*
G75*
G02*
X135674000Y-90259000I-51000J0D01*
G01*
X134074000Y-90259000D01*
G75*
G02*
X134023000Y-90208000I0J51000D01*
G01*
G37*
D15*
X173609000Y-78566000D03*
X173609000Y-83566000D03*
D22*
X119888000Y-51308000D03*
X119888000Y-127508000D03*
X196088000Y-51308000D03*
X196088000Y-127508000D03*
D15*
X119900000Y-89800000D03*
G36*
G01*
X119100000Y-85449000D02*
X120700000Y-85449000D01*
G75*
G02*
X120751000Y-85500000I0J-51000D01*
G01*
X120751000Y-87100000D01*
G75*
G02*
X120700000Y-87151000I-51000J0D01*
G01*
X119100000Y-87151000D01*
G75*
G02*
X119049000Y-87100000I0J51000D01*
G01*
X119049000Y-85500000D01*
G75*
G02*
X119100000Y-85449000I51000J0D01*
G01*
G37*
D23*
X120650000Y-108096000D03*
X120650000Y-119996000D03*
X120650000Y-111796000D03*
X120650000Y-116296000D03*
D24*
X169164000Y-85598000D03*
X166624000Y-85598000D03*
X164084000Y-85598000D03*
X161544000Y-85598000D03*
X159004000Y-85598000D03*
X156464000Y-85598000D03*
X153924000Y-85598000D03*
X151384000Y-85598000D03*
X148844000Y-85598000D03*
X146304000Y-85598000D03*
X146304000Y-77978000D03*
X148844000Y-77978000D03*
X151384000Y-77978000D03*
X153924000Y-77978000D03*
X156464000Y-77978000D03*
X159004000Y-77978000D03*
X161544000Y-77978000D03*
X164084000Y-77978000D03*
X166624000Y-77978000D03*
G36*
G01*
X168516299Y-77279300D02*
X169811701Y-77279300D01*
G75*
G02*
X169862700Y-77330299I0J-50999D01*
G01*
X169862700Y-78625701D01*
G75*
G02*
X169811701Y-78676700I-50999J0D01*
G01*
X168516299Y-78676700D01*
G75*
G02*
X168465300Y-78625701I0J50999D01*
G01*
X168465300Y-77330299D01*
G75*
G02*
X168516299Y-77279300I50999J0D01*
G01*
G37*
D23*
X128270000Y-118510000D03*
X128270000Y-130410000D03*
X128270000Y-122210000D03*
X128270000Y-126710000D03*
D21*
X181244000Y-97282000D03*
X177744000Y-97282000D03*
G36*
G01*
X173293000Y-98868834D02*
X173293000Y-95695166D01*
G75*
G02*
X173557166Y-95431000I264166J0D01*
G01*
X174930834Y-95431000D01*
G75*
G02*
X175195000Y-95695166I0J-264166D01*
G01*
X175195000Y-98868834D01*
G75*
G02*
X174930834Y-99133000I-264166J0D01*
G01*
X173557166Y-99133000D01*
G75*
G02*
X173293000Y-98868834I0J264166D01*
G01*
G37*
D23*
X172720000Y-118510000D03*
X172720000Y-130410000D03*
X172720000Y-122210000D03*
X172720000Y-126710000D03*
X166370000Y-118510000D03*
X166370000Y-130410000D03*
X166370000Y-122210000D03*
X166370000Y-126710000D03*
X160020000Y-118510000D03*
X160020000Y-130410000D03*
X160020000Y-122210000D03*
X160020000Y-126710000D03*
X153670000Y-118510000D03*
X153670000Y-130410000D03*
X153670000Y-122210000D03*
X153670000Y-126710000D03*
X147320000Y-118510000D03*
X147320000Y-130410000D03*
X147320000Y-122210000D03*
X147320000Y-126710000D03*
X140970000Y-118510000D03*
X140970000Y-130410000D03*
X140970000Y-122210000D03*
X140970000Y-126710000D03*
X134620000Y-118510000D03*
X134620000Y-130410000D03*
X134620000Y-122210000D03*
X134620000Y-126710000D03*
D25*
X187452000Y-124968000D03*
G36*
G01*
X179801000Y-126218000D02*
X179801000Y-123718000D01*
G75*
G02*
X179852000Y-123667000I51000J0D01*
G01*
X182352000Y-123667000D01*
G75*
G02*
X182403000Y-123718000I0J-51000D01*
G01*
X182403000Y-126218000D01*
G75*
G02*
X182352000Y-126269000I-51000J0D01*
G01*
X179852000Y-126269000D01*
G75*
G02*
X179801000Y-126218000I0J51000D01*
G01*
G37*
D21*
X166512000Y-97282000D03*
X163012000Y-97282000D03*
G36*
G01*
X158561000Y-98868834D02*
X158561000Y-95695166D01*
G75*
G02*
X158825166Y-95431000I264166J0D01*
G01*
X160198834Y-95431000D01*
G75*
G02*
X160463000Y-95695166I0J-264166D01*
G01*
X160463000Y-98868834D01*
G75*
G02*
X160198834Y-99133000I-264166J0D01*
G01*
X158825166Y-99133000D01*
G75*
G02*
X158561000Y-98868834I0J264166D01*
G01*
G37*
X151780000Y-97282000D03*
X148280000Y-97282000D03*
G36*
G01*
X143829000Y-98868834D02*
X143829000Y-95695166D01*
G75*
G02*
X144093166Y-95431000I264166J0D01*
G01*
X145466834Y-95431000D01*
G75*
G02*
X145731000Y-95695166I0J-264166D01*
G01*
X145731000Y-98868834D01*
G75*
G02*
X145466834Y-99133000I-264166J0D01*
G01*
X144093166Y-99133000D01*
G75*
G02*
X143829000Y-98868834I0J264166D01*
G01*
G37*
X137048000Y-97282000D03*
X133548000Y-97282000D03*
G36*
G01*
X129097000Y-98868834D02*
X129097000Y-95695166D01*
G75*
G02*
X129361166Y-95431000I264166J0D01*
G01*
X130734834Y-95431000D01*
G75*
G02*
X130999000Y-95695166I0J-264166D01*
G01*
X130999000Y-98868834D01*
G75*
G02*
X130734834Y-99133000I-264166J0D01*
G01*
X129361166Y-99133000D01*
G75*
G02*
X129097000Y-98868834I0J264166D01*
G01*
G37*
D15*
X134800000Y-80800000D03*
G36*
G01*
X135600000Y-83651000D02*
X134000000Y-83651000D01*
G75*
G02*
X133949000Y-83600000I0J51000D01*
G01*
X133949000Y-82000000D01*
G75*
G02*
X134000000Y-81949000I51000J0D01*
G01*
X135600000Y-81949000D01*
G75*
G02*
X135651000Y-82000000I0J-51000D01*
G01*
X135651000Y-83600000D01*
G75*
G02*
X135600000Y-83651000I-51000J0D01*
G01*
G37*
D26*
G36*
X173294990Y-111568638D02*
G01*
X173300046Y-111619975D01*
X173314965Y-111669157D01*
X173339191Y-111714481D01*
X173371793Y-111754207D01*
X173411519Y-111786809D01*
X173456843Y-111811035D01*
X173506025Y-111825954D01*
X173557362Y-111831010D01*
X173558988Y-111832175D01*
X173558792Y-111834165D01*
X173557166Y-111835000D01*
X173473029Y-111835000D01*
X173472833Y-111834990D01*
X173432889Y-111831056D01*
X173432504Y-111830980D01*
X173399995Y-111821119D01*
X173399633Y-111820969D01*
X173369675Y-111804955D01*
X173369349Y-111804737D01*
X173343090Y-111783187D01*
X173342813Y-111782910D01*
X173321263Y-111756651D01*
X173321045Y-111756325D01*
X173305031Y-111726367D01*
X173304881Y-111726005D01*
X173295020Y-111693496D01*
X173294944Y-111693111D01*
X173291010Y-111653167D01*
X173291000Y-111652971D01*
X173291000Y-111568834D01*
X173292000Y-111567102D01*
X173294000Y-111567102D01*
X173294990Y-111568638D01*
G37*
G36*
X143830990Y-111568638D02*
G01*
X143836046Y-111619975D01*
X143850965Y-111669157D01*
X143875191Y-111714481D01*
X143907793Y-111754207D01*
X143947519Y-111786809D01*
X143992843Y-111811035D01*
X144042025Y-111825954D01*
X144093362Y-111831010D01*
X144094988Y-111832175D01*
X144094792Y-111834165D01*
X144093166Y-111835000D01*
X144009029Y-111835000D01*
X144008833Y-111834990D01*
X143968889Y-111831056D01*
X143968504Y-111830980D01*
X143935995Y-111821119D01*
X143935633Y-111820969D01*
X143905675Y-111804955D01*
X143905349Y-111804737D01*
X143879090Y-111783187D01*
X143878813Y-111782910D01*
X143857263Y-111756651D01*
X143857045Y-111756325D01*
X143841031Y-111726367D01*
X143840881Y-111726005D01*
X143831020Y-111693496D01*
X143830944Y-111693111D01*
X143827010Y-111653167D01*
X143827000Y-111652971D01*
X143827000Y-111568834D01*
X143828000Y-111567102D01*
X143830000Y-111567102D01*
X143830990Y-111568638D01*
G37*
G36*
X158562990Y-111568638D02*
G01*
X158568046Y-111619975D01*
X158582965Y-111669157D01*
X158607191Y-111714481D01*
X158639793Y-111754207D01*
X158679519Y-111786809D01*
X158724843Y-111811035D01*
X158774025Y-111825954D01*
X158825362Y-111831010D01*
X158826988Y-111832175D01*
X158826792Y-111834165D01*
X158825166Y-111835000D01*
X158741029Y-111835000D01*
X158740833Y-111834990D01*
X158700889Y-111831056D01*
X158700504Y-111830980D01*
X158667995Y-111821119D01*
X158667633Y-111820969D01*
X158637675Y-111804955D01*
X158637349Y-111804737D01*
X158611090Y-111783187D01*
X158610813Y-111782910D01*
X158589263Y-111756651D01*
X158589045Y-111756325D01*
X158573031Y-111726367D01*
X158572881Y-111726005D01*
X158563020Y-111693496D01*
X158562944Y-111693111D01*
X158559010Y-111653167D01*
X158559000Y-111652971D01*
X158559000Y-111568834D01*
X158560000Y-111567102D01*
X158562000Y-111567102D01*
X158562990Y-111568638D01*
G37*
G36*
X175196165Y-111567208D02*
G01*
X175197000Y-111568834D01*
X175197000Y-111652971D01*
X175196990Y-111653167D01*
X175193056Y-111693111D01*
X175192980Y-111693496D01*
X175183119Y-111726005D01*
X175182969Y-111726367D01*
X175166955Y-111756325D01*
X175166737Y-111756651D01*
X175145187Y-111782910D01*
X175144910Y-111783187D01*
X175118651Y-111804737D01*
X175118325Y-111804955D01*
X175088367Y-111820969D01*
X175088005Y-111821119D01*
X175055496Y-111830980D01*
X175055111Y-111831056D01*
X175015167Y-111834990D01*
X175014971Y-111835000D01*
X174930834Y-111835000D01*
X174929102Y-111834000D01*
X174929102Y-111832000D01*
X174930638Y-111831010D01*
X174981975Y-111825954D01*
X175031157Y-111811035D01*
X175076481Y-111786809D01*
X175116207Y-111754207D01*
X175148809Y-111714481D01*
X175173035Y-111669157D01*
X175187954Y-111619975D01*
X175193010Y-111568638D01*
X175194175Y-111567012D01*
X175196165Y-111567208D01*
G37*
G36*
X131000165Y-111567208D02*
G01*
X131001000Y-111568834D01*
X131001000Y-111652971D01*
X131000990Y-111653167D01*
X130997056Y-111693111D01*
X130996980Y-111693496D01*
X130987119Y-111726005D01*
X130986969Y-111726367D01*
X130970955Y-111756325D01*
X130970737Y-111756651D01*
X130949187Y-111782910D01*
X130948910Y-111783187D01*
X130922651Y-111804737D01*
X130922325Y-111804955D01*
X130892367Y-111820969D01*
X130892005Y-111821119D01*
X130859496Y-111830980D01*
X130859111Y-111831056D01*
X130819167Y-111834990D01*
X130818971Y-111835000D01*
X130734834Y-111835000D01*
X130733102Y-111834000D01*
X130733102Y-111832000D01*
X130734638Y-111831010D01*
X130785975Y-111825954D01*
X130835157Y-111811035D01*
X130880481Y-111786809D01*
X130920207Y-111754207D01*
X130952809Y-111714481D01*
X130977035Y-111669157D01*
X130991954Y-111619975D01*
X130997010Y-111568638D01*
X130998175Y-111567012D01*
X131000165Y-111567208D01*
G37*
G36*
X145732165Y-111567208D02*
G01*
X145733000Y-111568834D01*
X145733000Y-111652971D01*
X145732990Y-111653167D01*
X145729056Y-111693111D01*
X145728980Y-111693496D01*
X145719119Y-111726005D01*
X145718969Y-111726367D01*
X145702955Y-111756325D01*
X145702737Y-111756651D01*
X145681187Y-111782910D01*
X145680910Y-111783187D01*
X145654651Y-111804737D01*
X145654325Y-111804955D01*
X145624367Y-111820969D01*
X145624005Y-111821119D01*
X145591496Y-111830980D01*
X145591111Y-111831056D01*
X145551167Y-111834990D01*
X145550971Y-111835000D01*
X145466834Y-111835000D01*
X145465102Y-111834000D01*
X145465102Y-111832000D01*
X145466638Y-111831010D01*
X145517975Y-111825954D01*
X145567157Y-111811035D01*
X145612481Y-111786809D01*
X145652207Y-111754207D01*
X145684809Y-111714481D01*
X145709035Y-111669157D01*
X145723954Y-111619975D01*
X145729010Y-111568638D01*
X145730175Y-111567012D01*
X145732165Y-111567208D01*
G37*
G36*
X160464165Y-111567208D02*
G01*
X160465000Y-111568834D01*
X160465000Y-111652971D01*
X160464990Y-111653167D01*
X160461056Y-111693111D01*
X160460980Y-111693496D01*
X160451119Y-111726005D01*
X160450969Y-111726367D01*
X160434955Y-111756325D01*
X160434737Y-111756651D01*
X160413187Y-111782910D01*
X160412910Y-111783187D01*
X160386651Y-111804737D01*
X160386325Y-111804955D01*
X160356367Y-111820969D01*
X160356005Y-111821119D01*
X160323496Y-111830980D01*
X160323111Y-111831056D01*
X160283167Y-111834990D01*
X160282971Y-111835000D01*
X160198834Y-111835000D01*
X160197102Y-111834000D01*
X160197102Y-111832000D01*
X160198638Y-111831010D01*
X160249975Y-111825954D01*
X160299157Y-111811035D01*
X160344481Y-111786809D01*
X160384207Y-111754207D01*
X160416809Y-111714481D01*
X160441035Y-111669157D01*
X160455954Y-111619975D01*
X160461010Y-111568638D01*
X160462175Y-111567012D01*
X160464165Y-111567208D01*
G37*
G36*
X129098990Y-111568638D02*
G01*
X129104046Y-111619975D01*
X129118965Y-111669157D01*
X129143191Y-111714481D01*
X129175793Y-111754207D01*
X129215519Y-111786809D01*
X129260843Y-111811035D01*
X129310025Y-111825954D01*
X129361362Y-111831010D01*
X129362988Y-111832175D01*
X129362792Y-111834165D01*
X129361166Y-111835000D01*
X129277029Y-111835000D01*
X129276833Y-111834990D01*
X129236889Y-111831056D01*
X129236504Y-111830980D01*
X129203995Y-111821119D01*
X129203633Y-111820969D01*
X129173675Y-111804955D01*
X129173349Y-111804737D01*
X129147090Y-111783187D01*
X129146813Y-111782910D01*
X129125263Y-111756651D01*
X129125045Y-111756325D01*
X129109031Y-111726367D01*
X129108881Y-111726005D01*
X129099020Y-111693496D01*
X129098944Y-111693111D01*
X129095010Y-111653167D01*
X129095000Y-111652971D01*
X129095000Y-111568834D01*
X129096000Y-111567102D01*
X129098000Y-111567102D01*
X129098990Y-111568638D01*
G37*
G36*
X144094898Y-108130000D02*
G01*
X144094898Y-108132000D01*
X144093362Y-108132990D01*
X144042025Y-108138046D01*
X143992843Y-108152965D01*
X143947519Y-108177191D01*
X143907793Y-108209793D01*
X143875191Y-108249519D01*
X143850965Y-108294843D01*
X143836046Y-108344025D01*
X143830990Y-108395362D01*
X143829825Y-108396988D01*
X143827835Y-108396792D01*
X143827000Y-108395166D01*
X143827000Y-108311029D01*
X143827010Y-108310833D01*
X143830944Y-108270889D01*
X143831020Y-108270504D01*
X143840881Y-108237995D01*
X143841031Y-108237633D01*
X143857045Y-108207675D01*
X143857263Y-108207349D01*
X143878813Y-108181090D01*
X143879090Y-108180813D01*
X143905349Y-108159263D01*
X143905675Y-108159045D01*
X143935633Y-108143031D01*
X143935995Y-108142881D01*
X143968504Y-108133020D01*
X143968889Y-108132944D01*
X144008833Y-108129010D01*
X144009029Y-108129000D01*
X144093166Y-108129000D01*
X144094898Y-108130000D01*
G37*
G36*
X158826898Y-108130000D02*
G01*
X158826898Y-108132000D01*
X158825362Y-108132990D01*
X158774025Y-108138046D01*
X158724843Y-108152965D01*
X158679519Y-108177191D01*
X158639793Y-108209793D01*
X158607191Y-108249519D01*
X158582965Y-108294843D01*
X158568046Y-108344025D01*
X158562990Y-108395362D01*
X158561825Y-108396988D01*
X158559835Y-108396792D01*
X158559000Y-108395166D01*
X158559000Y-108311029D01*
X158559010Y-108310833D01*
X158562944Y-108270889D01*
X158563020Y-108270504D01*
X158572881Y-108237995D01*
X158573031Y-108237633D01*
X158589045Y-108207675D01*
X158589263Y-108207349D01*
X158610813Y-108181090D01*
X158611090Y-108180813D01*
X158637349Y-108159263D01*
X158637675Y-108159045D01*
X158667633Y-108143031D01*
X158667995Y-108142881D01*
X158700504Y-108133020D01*
X158700889Y-108132944D01*
X158740833Y-108129010D01*
X158741029Y-108129000D01*
X158825166Y-108129000D01*
X158826898Y-108130000D01*
G37*
G36*
X173558898Y-108130000D02*
G01*
X173558898Y-108132000D01*
X173557362Y-108132990D01*
X173506025Y-108138046D01*
X173456843Y-108152965D01*
X173411519Y-108177191D01*
X173371793Y-108209793D01*
X173339191Y-108249519D01*
X173314965Y-108294843D01*
X173300046Y-108344025D01*
X173294990Y-108395362D01*
X173293825Y-108396988D01*
X173291835Y-108396792D01*
X173291000Y-108395166D01*
X173291000Y-108311029D01*
X173291010Y-108310833D01*
X173294944Y-108270889D01*
X173295020Y-108270504D01*
X173304881Y-108237995D01*
X173305031Y-108237633D01*
X173321045Y-108207675D01*
X173321263Y-108207349D01*
X173342813Y-108181090D01*
X173343090Y-108180813D01*
X173369349Y-108159263D01*
X173369675Y-108159045D01*
X173399633Y-108143031D01*
X173399995Y-108142881D01*
X173432504Y-108133020D01*
X173432889Y-108132944D01*
X173472833Y-108129010D01*
X173473029Y-108129000D01*
X173557166Y-108129000D01*
X173558898Y-108130000D01*
G37*
G36*
X129362898Y-108130000D02*
G01*
X129362898Y-108132000D01*
X129361362Y-108132990D01*
X129310025Y-108138046D01*
X129260843Y-108152965D01*
X129215519Y-108177191D01*
X129175793Y-108209793D01*
X129143191Y-108249519D01*
X129118965Y-108294843D01*
X129104046Y-108344025D01*
X129098990Y-108395362D01*
X129097825Y-108396988D01*
X129095835Y-108396792D01*
X129095000Y-108395166D01*
X129095000Y-108311029D01*
X129095010Y-108310833D01*
X129098944Y-108270889D01*
X129099020Y-108270504D01*
X129108881Y-108237995D01*
X129109031Y-108237633D01*
X129125045Y-108207675D01*
X129125263Y-108207349D01*
X129146813Y-108181090D01*
X129147090Y-108180813D01*
X129173349Y-108159263D01*
X129173675Y-108159045D01*
X129203633Y-108143031D01*
X129203995Y-108142881D01*
X129236504Y-108133020D01*
X129236889Y-108132944D01*
X129276833Y-108129010D01*
X129277029Y-108129000D01*
X129361166Y-108129000D01*
X129362898Y-108130000D01*
G37*
G36*
X160283167Y-108129010D02*
G01*
X160323111Y-108132944D01*
X160323496Y-108133020D01*
X160356005Y-108142881D01*
X160356367Y-108143031D01*
X160386325Y-108159045D01*
X160386651Y-108159263D01*
X160412910Y-108180813D01*
X160413187Y-108181090D01*
X160434737Y-108207349D01*
X160434955Y-108207675D01*
X160450969Y-108237633D01*
X160451119Y-108237995D01*
X160460980Y-108270504D01*
X160461056Y-108270889D01*
X160464990Y-108310833D01*
X160465000Y-108311029D01*
X160465000Y-108395166D01*
X160464000Y-108396898D01*
X160462000Y-108396898D01*
X160461010Y-108395362D01*
X160455954Y-108344025D01*
X160441035Y-108294843D01*
X160416809Y-108249519D01*
X160384207Y-108209793D01*
X160344481Y-108177191D01*
X160299157Y-108152965D01*
X160249975Y-108138046D01*
X160198638Y-108132990D01*
X160197012Y-108131825D01*
X160197208Y-108129835D01*
X160198834Y-108129000D01*
X160282971Y-108129000D01*
X160283167Y-108129010D01*
G37*
G36*
X130819167Y-108129010D02*
G01*
X130859111Y-108132944D01*
X130859496Y-108133020D01*
X130892005Y-108142881D01*
X130892367Y-108143031D01*
X130922325Y-108159045D01*
X130922651Y-108159263D01*
X130948910Y-108180813D01*
X130949187Y-108181090D01*
X130970737Y-108207349D01*
X130970955Y-108207675D01*
X130986969Y-108237633D01*
X130987119Y-108237995D01*
X130996980Y-108270504D01*
X130997056Y-108270889D01*
X131000990Y-108310833D01*
X131001000Y-108311029D01*
X131001000Y-108395166D01*
X131000000Y-108396898D01*
X130998000Y-108396898D01*
X130997010Y-108395362D01*
X130991954Y-108344025D01*
X130977035Y-108294843D01*
X130952809Y-108249519D01*
X130920207Y-108209793D01*
X130880481Y-108177191D01*
X130835157Y-108152965D01*
X130785975Y-108138046D01*
X130734638Y-108132990D01*
X130733012Y-108131825D01*
X130733208Y-108129835D01*
X130734834Y-108129000D01*
X130818971Y-108129000D01*
X130819167Y-108129010D01*
G37*
G36*
X175015167Y-108129010D02*
G01*
X175055111Y-108132944D01*
X175055496Y-108133020D01*
X175088005Y-108142881D01*
X175088367Y-108143031D01*
X175118325Y-108159045D01*
X175118651Y-108159263D01*
X175144910Y-108180813D01*
X175145187Y-108181090D01*
X175166737Y-108207349D01*
X175166955Y-108207675D01*
X175182969Y-108237633D01*
X175183119Y-108237995D01*
X175192980Y-108270504D01*
X175193056Y-108270889D01*
X175196990Y-108310833D01*
X175197000Y-108311029D01*
X175197000Y-108395166D01*
X175196000Y-108396898D01*
X175194000Y-108396898D01*
X175193010Y-108395362D01*
X175187954Y-108344025D01*
X175173035Y-108294843D01*
X175148809Y-108249519D01*
X175116207Y-108209793D01*
X175076481Y-108177191D01*
X175031157Y-108152965D01*
X174981975Y-108138046D01*
X174930638Y-108132990D01*
X174929012Y-108131825D01*
X174929208Y-108129835D01*
X174930834Y-108129000D01*
X175014971Y-108129000D01*
X175015167Y-108129010D01*
G37*
G36*
X145551167Y-108129010D02*
G01*
X145591111Y-108132944D01*
X145591496Y-108133020D01*
X145624005Y-108142881D01*
X145624367Y-108143031D01*
X145654325Y-108159045D01*
X145654651Y-108159263D01*
X145680910Y-108180813D01*
X145681187Y-108181090D01*
X145702737Y-108207349D01*
X145702955Y-108207675D01*
X145718969Y-108237633D01*
X145719119Y-108237995D01*
X145728980Y-108270504D01*
X145729056Y-108270889D01*
X145732990Y-108310833D01*
X145733000Y-108311029D01*
X145733000Y-108395166D01*
X145732000Y-108396898D01*
X145730000Y-108396898D01*
X145729010Y-108395362D01*
X145723954Y-108344025D01*
X145709035Y-108294843D01*
X145684809Y-108249519D01*
X145652207Y-108209793D01*
X145612481Y-108177191D01*
X145567157Y-108152965D01*
X145517975Y-108138046D01*
X145466638Y-108132990D01*
X145465012Y-108131825D01*
X145465208Y-108129835D01*
X145466834Y-108129000D01*
X145550971Y-108129000D01*
X145551167Y-108129010D01*
G37*
G36*
X131000165Y-98867208D02*
G01*
X131001000Y-98868834D01*
X131001000Y-98952971D01*
X131000990Y-98953167D01*
X130997056Y-98993111D01*
X130996980Y-98993496D01*
X130987119Y-99026005D01*
X130986969Y-99026367D01*
X130970955Y-99056325D01*
X130970737Y-99056651D01*
X130949187Y-99082910D01*
X130948910Y-99083187D01*
X130922651Y-99104737D01*
X130922325Y-99104955D01*
X130892367Y-99120969D01*
X130892005Y-99121119D01*
X130859496Y-99130980D01*
X130859111Y-99131056D01*
X130819167Y-99134990D01*
X130818971Y-99135000D01*
X130734834Y-99135000D01*
X130733102Y-99134000D01*
X130733102Y-99132000D01*
X130734638Y-99131010D01*
X130785975Y-99125954D01*
X130835157Y-99111035D01*
X130880481Y-99086809D01*
X130920207Y-99054207D01*
X130952809Y-99014481D01*
X130977035Y-98969157D01*
X130991954Y-98919975D01*
X130997010Y-98868638D01*
X130998175Y-98867012D01*
X131000165Y-98867208D01*
G37*
G36*
X145732165Y-98867208D02*
G01*
X145733000Y-98868834D01*
X145733000Y-98952971D01*
X145732990Y-98953167D01*
X145729056Y-98993111D01*
X145728980Y-98993496D01*
X145719119Y-99026005D01*
X145718969Y-99026367D01*
X145702955Y-99056325D01*
X145702737Y-99056651D01*
X145681187Y-99082910D01*
X145680910Y-99083187D01*
X145654651Y-99104737D01*
X145654325Y-99104955D01*
X145624367Y-99120969D01*
X145624005Y-99121119D01*
X145591496Y-99130980D01*
X145591111Y-99131056D01*
X145551167Y-99134990D01*
X145550971Y-99135000D01*
X145466834Y-99135000D01*
X145465102Y-99134000D01*
X145465102Y-99132000D01*
X145466638Y-99131010D01*
X145517975Y-99125954D01*
X145567157Y-99111035D01*
X145612481Y-99086809D01*
X145652207Y-99054207D01*
X145684809Y-99014481D01*
X145709035Y-98969157D01*
X145723954Y-98919975D01*
X145729010Y-98868638D01*
X145730175Y-98867012D01*
X145732165Y-98867208D01*
G37*
G36*
X160464165Y-98867208D02*
G01*
X160465000Y-98868834D01*
X160465000Y-98952971D01*
X160464990Y-98953167D01*
X160461056Y-98993111D01*
X160460980Y-98993496D01*
X160451119Y-99026005D01*
X160450969Y-99026367D01*
X160434955Y-99056325D01*
X160434737Y-99056651D01*
X160413187Y-99082910D01*
X160412910Y-99083187D01*
X160386651Y-99104737D01*
X160386325Y-99104955D01*
X160356367Y-99120969D01*
X160356005Y-99121119D01*
X160323496Y-99130980D01*
X160323111Y-99131056D01*
X160283167Y-99134990D01*
X160282971Y-99135000D01*
X160198834Y-99135000D01*
X160197102Y-99134000D01*
X160197102Y-99132000D01*
X160198638Y-99131010D01*
X160249975Y-99125954D01*
X160299157Y-99111035D01*
X160344481Y-99086809D01*
X160384207Y-99054207D01*
X160416809Y-99014481D01*
X160441035Y-98969157D01*
X160455954Y-98919975D01*
X160461010Y-98868638D01*
X160462175Y-98867012D01*
X160464165Y-98867208D01*
G37*
G36*
X175196165Y-98867208D02*
G01*
X175197000Y-98868834D01*
X175197000Y-98952971D01*
X175196990Y-98953167D01*
X175193056Y-98993111D01*
X175192980Y-98993496D01*
X175183119Y-99026005D01*
X175182969Y-99026367D01*
X175166955Y-99056325D01*
X175166737Y-99056651D01*
X175145187Y-99082910D01*
X175144910Y-99083187D01*
X175118651Y-99104737D01*
X175118325Y-99104955D01*
X175088367Y-99120969D01*
X175088005Y-99121119D01*
X175055496Y-99130980D01*
X175055111Y-99131056D01*
X175015167Y-99134990D01*
X175014971Y-99135000D01*
X174930834Y-99135000D01*
X174929102Y-99134000D01*
X174929102Y-99132000D01*
X174930638Y-99131010D01*
X174981975Y-99125954D01*
X175031157Y-99111035D01*
X175076481Y-99086809D01*
X175116207Y-99054207D01*
X175148809Y-99014481D01*
X175173035Y-98969157D01*
X175187954Y-98919975D01*
X175193010Y-98868638D01*
X175194175Y-98867012D01*
X175196165Y-98867208D01*
G37*
G36*
X158562990Y-98868638D02*
G01*
X158568046Y-98919975D01*
X158582965Y-98969157D01*
X158607191Y-99014481D01*
X158639793Y-99054207D01*
X158679519Y-99086809D01*
X158724843Y-99111035D01*
X158774025Y-99125954D01*
X158825362Y-99131010D01*
X158826988Y-99132175D01*
X158826792Y-99134165D01*
X158825166Y-99135000D01*
X158741029Y-99135000D01*
X158740833Y-99134990D01*
X158700889Y-99131056D01*
X158700504Y-99130980D01*
X158667995Y-99121119D01*
X158667633Y-99120969D01*
X158637675Y-99104955D01*
X158637349Y-99104737D01*
X158611090Y-99083187D01*
X158610813Y-99082910D01*
X158589263Y-99056651D01*
X158589045Y-99056325D01*
X158573031Y-99026367D01*
X158572881Y-99026005D01*
X158563020Y-98993496D01*
X158562944Y-98993111D01*
X158559010Y-98953167D01*
X158559000Y-98952971D01*
X158559000Y-98868834D01*
X158560000Y-98867102D01*
X158562000Y-98867102D01*
X158562990Y-98868638D01*
G37*
G36*
X143830990Y-98868638D02*
G01*
X143836046Y-98919975D01*
X143850965Y-98969157D01*
X143875191Y-99014481D01*
X143907793Y-99054207D01*
X143947519Y-99086809D01*
X143992843Y-99111035D01*
X144042025Y-99125954D01*
X144093362Y-99131010D01*
X144094988Y-99132175D01*
X144094792Y-99134165D01*
X144093166Y-99135000D01*
X144009029Y-99135000D01*
X144008833Y-99134990D01*
X143968889Y-99131056D01*
X143968504Y-99130980D01*
X143935995Y-99121119D01*
X143935633Y-99120969D01*
X143905675Y-99104955D01*
X143905349Y-99104737D01*
X143879090Y-99083187D01*
X143878813Y-99082910D01*
X143857263Y-99056651D01*
X143857045Y-99056325D01*
X143841031Y-99026367D01*
X143840881Y-99026005D01*
X143831020Y-98993496D01*
X143830944Y-98993111D01*
X143827010Y-98953167D01*
X143827000Y-98952971D01*
X143827000Y-98868834D01*
X143828000Y-98867102D01*
X143830000Y-98867102D01*
X143830990Y-98868638D01*
G37*
G36*
X129098990Y-98868638D02*
G01*
X129104046Y-98919975D01*
X129118965Y-98969157D01*
X129143191Y-99014481D01*
X129175793Y-99054207D01*
X129215519Y-99086809D01*
X129260843Y-99111035D01*
X129310025Y-99125954D01*
X129361362Y-99131010D01*
X129362988Y-99132175D01*
X129362792Y-99134165D01*
X129361166Y-99135000D01*
X129277029Y-99135000D01*
X129276833Y-99134990D01*
X129236889Y-99131056D01*
X129236504Y-99130980D01*
X129203995Y-99121119D01*
X129203633Y-99120969D01*
X129173675Y-99104955D01*
X129173349Y-99104737D01*
X129147090Y-99083187D01*
X129146813Y-99082910D01*
X129125263Y-99056651D01*
X129125045Y-99056325D01*
X129109031Y-99026367D01*
X129108881Y-99026005D01*
X129099020Y-98993496D01*
X129098944Y-98993111D01*
X129095010Y-98953167D01*
X129095000Y-98952971D01*
X129095000Y-98868834D01*
X129096000Y-98867102D01*
X129098000Y-98867102D01*
X129098990Y-98868638D01*
G37*
G36*
X173294990Y-98868638D02*
G01*
X173300046Y-98919975D01*
X173314965Y-98969157D01*
X173339191Y-99014481D01*
X173371793Y-99054207D01*
X173411519Y-99086809D01*
X173456843Y-99111035D01*
X173506025Y-99125954D01*
X173557362Y-99131010D01*
X173558988Y-99132175D01*
X173558792Y-99134165D01*
X173557166Y-99135000D01*
X173473029Y-99135000D01*
X173472833Y-99134990D01*
X173432889Y-99131056D01*
X173432504Y-99130980D01*
X173399995Y-99121119D01*
X173399633Y-99120969D01*
X173369675Y-99104955D01*
X173369349Y-99104737D01*
X173343090Y-99083187D01*
X173342813Y-99082910D01*
X173321263Y-99056651D01*
X173321045Y-99056325D01*
X173305031Y-99026367D01*
X173304881Y-99026005D01*
X173295020Y-98993496D01*
X173294944Y-98993111D01*
X173291010Y-98953167D01*
X173291000Y-98952971D01*
X173291000Y-98868834D01*
X173292000Y-98867102D01*
X173294000Y-98867102D01*
X173294990Y-98868638D01*
G37*
G36*
X129362898Y-95430000D02*
G01*
X129362898Y-95432000D01*
X129361362Y-95432990D01*
X129310025Y-95438046D01*
X129260843Y-95452965D01*
X129215519Y-95477191D01*
X129175793Y-95509793D01*
X129143191Y-95549519D01*
X129118965Y-95594843D01*
X129104046Y-95644025D01*
X129098990Y-95695362D01*
X129097825Y-95696988D01*
X129095835Y-95696792D01*
X129095000Y-95695166D01*
X129095000Y-95611029D01*
X129095010Y-95610833D01*
X129098944Y-95570889D01*
X129099020Y-95570504D01*
X129108881Y-95537995D01*
X129109031Y-95537633D01*
X129125045Y-95507675D01*
X129125263Y-95507349D01*
X129146813Y-95481090D01*
X129147090Y-95480813D01*
X129173349Y-95459263D01*
X129173675Y-95459045D01*
X129203633Y-95443031D01*
X129203995Y-95442881D01*
X129236504Y-95433020D01*
X129236889Y-95432944D01*
X129276833Y-95429010D01*
X129277029Y-95429000D01*
X129361166Y-95429000D01*
X129362898Y-95430000D01*
G37*
G36*
X144094898Y-95430000D02*
G01*
X144094898Y-95432000D01*
X144093362Y-95432990D01*
X144042025Y-95438046D01*
X143992843Y-95452965D01*
X143947519Y-95477191D01*
X143907793Y-95509793D01*
X143875191Y-95549519D01*
X143850965Y-95594843D01*
X143836046Y-95644025D01*
X143830990Y-95695362D01*
X143829825Y-95696988D01*
X143827835Y-95696792D01*
X143827000Y-95695166D01*
X143827000Y-95611029D01*
X143827010Y-95610833D01*
X143830944Y-95570889D01*
X143831020Y-95570504D01*
X143840881Y-95537995D01*
X143841031Y-95537633D01*
X143857045Y-95507675D01*
X143857263Y-95507349D01*
X143878813Y-95481090D01*
X143879090Y-95480813D01*
X143905349Y-95459263D01*
X143905675Y-95459045D01*
X143935633Y-95443031D01*
X143935995Y-95442881D01*
X143968504Y-95433020D01*
X143968889Y-95432944D01*
X144008833Y-95429010D01*
X144009029Y-95429000D01*
X144093166Y-95429000D01*
X144094898Y-95430000D01*
G37*
G36*
X158826898Y-95430000D02*
G01*
X158826898Y-95432000D01*
X158825362Y-95432990D01*
X158774025Y-95438046D01*
X158724843Y-95452965D01*
X158679519Y-95477191D01*
X158639793Y-95509793D01*
X158607191Y-95549519D01*
X158582965Y-95594843D01*
X158568046Y-95644025D01*
X158562990Y-95695362D01*
X158561825Y-95696988D01*
X158559835Y-95696792D01*
X158559000Y-95695166D01*
X158559000Y-95611029D01*
X158559010Y-95610833D01*
X158562944Y-95570889D01*
X158563020Y-95570504D01*
X158572881Y-95537995D01*
X158573031Y-95537633D01*
X158589045Y-95507675D01*
X158589263Y-95507349D01*
X158610813Y-95481090D01*
X158611090Y-95480813D01*
X158637349Y-95459263D01*
X158637675Y-95459045D01*
X158667633Y-95443031D01*
X158667995Y-95442881D01*
X158700504Y-95433020D01*
X158700889Y-95432944D01*
X158740833Y-95429010D01*
X158741029Y-95429000D01*
X158825166Y-95429000D01*
X158826898Y-95430000D01*
G37*
G36*
X173558898Y-95430000D02*
G01*
X173558898Y-95432000D01*
X173557362Y-95432990D01*
X173506025Y-95438046D01*
X173456843Y-95452965D01*
X173411519Y-95477191D01*
X173371793Y-95509793D01*
X173339191Y-95549519D01*
X173314965Y-95594843D01*
X173300046Y-95644025D01*
X173294990Y-95695362D01*
X173293825Y-95696988D01*
X173291835Y-95696792D01*
X173291000Y-95695166D01*
X173291000Y-95611029D01*
X173291010Y-95610833D01*
X173294944Y-95570889D01*
X173295020Y-95570504D01*
X173304881Y-95537995D01*
X173305031Y-95537633D01*
X173321045Y-95507675D01*
X173321263Y-95507349D01*
X173342813Y-95481090D01*
X173343090Y-95480813D01*
X173369349Y-95459263D01*
X173369675Y-95459045D01*
X173399633Y-95443031D01*
X173399995Y-95442881D01*
X173432504Y-95433020D01*
X173432889Y-95432944D01*
X173472833Y-95429010D01*
X173473029Y-95429000D01*
X173557166Y-95429000D01*
X173558898Y-95430000D01*
G37*
G36*
X130819167Y-95429010D02*
G01*
X130859111Y-95432944D01*
X130859496Y-95433020D01*
X130892005Y-95442881D01*
X130892367Y-95443031D01*
X130922325Y-95459045D01*
X130922651Y-95459263D01*
X130948910Y-95480813D01*
X130949187Y-95481090D01*
X130970737Y-95507349D01*
X130970955Y-95507675D01*
X130986969Y-95537633D01*
X130987119Y-95537995D01*
X130996980Y-95570504D01*
X130997056Y-95570889D01*
X131000990Y-95610833D01*
X131001000Y-95611029D01*
X131001000Y-95695166D01*
X131000000Y-95696898D01*
X130998000Y-95696898D01*
X130997010Y-95695362D01*
X130991954Y-95644025D01*
X130977035Y-95594843D01*
X130952809Y-95549519D01*
X130920207Y-95509793D01*
X130880481Y-95477191D01*
X130835157Y-95452965D01*
X130785975Y-95438046D01*
X130734638Y-95432990D01*
X130733012Y-95431825D01*
X130733208Y-95429835D01*
X130734834Y-95429000D01*
X130818971Y-95429000D01*
X130819167Y-95429010D01*
G37*
G36*
X175015167Y-95429010D02*
G01*
X175055111Y-95432944D01*
X175055496Y-95433020D01*
X175088005Y-95442881D01*
X175088367Y-95443031D01*
X175118325Y-95459045D01*
X175118651Y-95459263D01*
X175144910Y-95480813D01*
X175145187Y-95481090D01*
X175166737Y-95507349D01*
X175166955Y-95507675D01*
X175182969Y-95537633D01*
X175183119Y-95537995D01*
X175192980Y-95570504D01*
X175193056Y-95570889D01*
X175196990Y-95610833D01*
X175197000Y-95611029D01*
X175197000Y-95695166D01*
X175196000Y-95696898D01*
X175194000Y-95696898D01*
X175193010Y-95695362D01*
X175187954Y-95644025D01*
X175173035Y-95594843D01*
X175148809Y-95549519D01*
X175116207Y-95509793D01*
X175076481Y-95477191D01*
X175031157Y-95452965D01*
X174981975Y-95438046D01*
X174930638Y-95432990D01*
X174929012Y-95431825D01*
X174929208Y-95429835D01*
X174930834Y-95429000D01*
X175014971Y-95429000D01*
X175015167Y-95429010D01*
G37*
G36*
X145551167Y-95429010D02*
G01*
X145591111Y-95432944D01*
X145591496Y-95433020D01*
X145624005Y-95442881D01*
X145624367Y-95443031D01*
X145654325Y-95459045D01*
X145654651Y-95459263D01*
X145680910Y-95480813D01*
X145681187Y-95481090D01*
X145702737Y-95507349D01*
X145702955Y-95507675D01*
X145718969Y-95537633D01*
X145719119Y-95537995D01*
X145728980Y-95570504D01*
X145729056Y-95570889D01*
X145732990Y-95610833D01*
X145733000Y-95611029D01*
X145733000Y-95695166D01*
X145732000Y-95696898D01*
X145730000Y-95696898D01*
X145729010Y-95695362D01*
X145723954Y-95644025D01*
X145709035Y-95594843D01*
X145684809Y-95549519D01*
X145652207Y-95509793D01*
X145612481Y-95477191D01*
X145567157Y-95452965D01*
X145517975Y-95438046D01*
X145466638Y-95432990D01*
X145465012Y-95431825D01*
X145465208Y-95429835D01*
X145466834Y-95429000D01*
X145550971Y-95429000D01*
X145551167Y-95429010D01*
G37*
G36*
X160283167Y-95429010D02*
G01*
X160323111Y-95432944D01*
X160323496Y-95433020D01*
X160356005Y-95442881D01*
X160356367Y-95443031D01*
X160386325Y-95459045D01*
X160386651Y-95459263D01*
X160412910Y-95480813D01*
X160413187Y-95481090D01*
X160434737Y-95507349D01*
X160434955Y-95507675D01*
X160450969Y-95537633D01*
X160451119Y-95537995D01*
X160460980Y-95570504D01*
X160461056Y-95570889D01*
X160464990Y-95610833D01*
X160465000Y-95611029D01*
X160465000Y-95695166D01*
X160464000Y-95696898D01*
X160462000Y-95696898D01*
X160461010Y-95695362D01*
X160455954Y-95644025D01*
X160441035Y-95594843D01*
X160416809Y-95549519D01*
X160384207Y-95509793D01*
X160344481Y-95477191D01*
X160299157Y-95452965D01*
X160249975Y-95438046D01*
X160198638Y-95432990D01*
X160197012Y-95431825D01*
X160197208Y-95429835D01*
X160198834Y-95429000D01*
X160282971Y-95429000D01*
X160283167Y-95429010D01*
G37*
M02*
