G04 #@! TF.GenerationSoftware,KiCad,Pcbnew,(5.1.5)-3*
G04 #@! TF.CreationDate,2020-06-12T16:44:34-04:00*
G04 #@! TF.ProjectId,ESP_Switch,4553505f-5377-4697-9463-682e6b696361,v1.2*
G04 #@! TF.SameCoordinates,Original*
G04 #@! TF.FileFunction,Copper,L1,Top*
G04 #@! TF.FilePolarity,Positive*
%FSLAX46Y46*%
G04 Gerber Fmt 4.6, Leading zero omitted, Abs format (unit mm)*
G04 Created by KiCad (PCBNEW (5.1.5)-3) date 2020-06-12 16:44:34*
%MOMM*%
%LPD*%
G04 APERTURE LIST*
%ADD10O,2.700000X1.700000*%
%ADD11O,1.650000X1.100000*%
%ADD12O,1.700000X1.700000*%
%ADD13R,1.700000X1.700000*%
%ADD14C,0.100000*%
%ADD15R,2.000000X1.500000*%
%ADD16R,2.000000X3.800000*%
%ADD17R,2.500000X1.000000*%
%ADD18R,1.000000X1.800000*%
%ADD19C,2.600000*%
%ADD20R,2.600000X2.600000*%
%ADD21C,0.800000*%
%ADD22C,0.700000*%
%ADD23C,0.500000*%
%ADD24C,0.350000*%
%ADD25C,0.250000*%
%ADD26C,0.254000*%
G04 APERTURE END LIST*
D10*
X83138800Y-94137500D03*
X83138800Y-86837500D03*
D11*
X86713800Y-91287500D03*
X86713800Y-89687500D03*
X88463800Y-92087500D03*
X88463800Y-88887500D03*
X88463800Y-90487500D03*
D12*
X93218000Y-81026000D03*
X90678000Y-81026000D03*
D13*
X88138000Y-81026000D03*
G04 #@! TA.AperFunction,SMDPad,CuDef*
D14*
G36*
X93359504Y-103392204D02*
G01*
X93383773Y-103395804D01*
X93407571Y-103401765D01*
X93430671Y-103410030D01*
X93452849Y-103420520D01*
X93473893Y-103433133D01*
X93493598Y-103447747D01*
X93511777Y-103464223D01*
X93528253Y-103482402D01*
X93542867Y-103502107D01*
X93555480Y-103523151D01*
X93565970Y-103545329D01*
X93574235Y-103568429D01*
X93580196Y-103592227D01*
X93583796Y-103616496D01*
X93585000Y-103641000D01*
X93585000Y-104566000D01*
X93583796Y-104590504D01*
X93580196Y-104614773D01*
X93574235Y-104638571D01*
X93565970Y-104661671D01*
X93555480Y-104683849D01*
X93542867Y-104704893D01*
X93528253Y-104724598D01*
X93511777Y-104742777D01*
X93493598Y-104759253D01*
X93473893Y-104773867D01*
X93452849Y-104786480D01*
X93430671Y-104796970D01*
X93407571Y-104805235D01*
X93383773Y-104811196D01*
X93359504Y-104814796D01*
X93335000Y-104816000D01*
X92085000Y-104816000D01*
X92060496Y-104814796D01*
X92036227Y-104811196D01*
X92012429Y-104805235D01*
X91989329Y-104796970D01*
X91967151Y-104786480D01*
X91946107Y-104773867D01*
X91926402Y-104759253D01*
X91908223Y-104742777D01*
X91891747Y-104724598D01*
X91877133Y-104704893D01*
X91864520Y-104683849D01*
X91854030Y-104661671D01*
X91845765Y-104638571D01*
X91839804Y-104614773D01*
X91836204Y-104590504D01*
X91835000Y-104566000D01*
X91835000Y-103641000D01*
X91836204Y-103616496D01*
X91839804Y-103592227D01*
X91845765Y-103568429D01*
X91854030Y-103545329D01*
X91864520Y-103523151D01*
X91877133Y-103502107D01*
X91891747Y-103482402D01*
X91908223Y-103464223D01*
X91926402Y-103447747D01*
X91946107Y-103433133D01*
X91967151Y-103420520D01*
X91989329Y-103410030D01*
X92012429Y-103401765D01*
X92036227Y-103395804D01*
X92060496Y-103392204D01*
X92085000Y-103391000D01*
X93335000Y-103391000D01*
X93359504Y-103392204D01*
G37*
G04 #@! TD.AperFunction*
G04 #@! TA.AperFunction,SMDPad,CuDef*
G36*
X93359504Y-100417204D02*
G01*
X93383773Y-100420804D01*
X93407571Y-100426765D01*
X93430671Y-100435030D01*
X93452849Y-100445520D01*
X93473893Y-100458133D01*
X93493598Y-100472747D01*
X93511777Y-100489223D01*
X93528253Y-100507402D01*
X93542867Y-100527107D01*
X93555480Y-100548151D01*
X93565970Y-100570329D01*
X93574235Y-100593429D01*
X93580196Y-100617227D01*
X93583796Y-100641496D01*
X93585000Y-100666000D01*
X93585000Y-101591000D01*
X93583796Y-101615504D01*
X93580196Y-101639773D01*
X93574235Y-101663571D01*
X93565970Y-101686671D01*
X93555480Y-101708849D01*
X93542867Y-101729893D01*
X93528253Y-101749598D01*
X93511777Y-101767777D01*
X93493598Y-101784253D01*
X93473893Y-101798867D01*
X93452849Y-101811480D01*
X93430671Y-101821970D01*
X93407571Y-101830235D01*
X93383773Y-101836196D01*
X93359504Y-101839796D01*
X93335000Y-101841000D01*
X92085000Y-101841000D01*
X92060496Y-101839796D01*
X92036227Y-101836196D01*
X92012429Y-101830235D01*
X91989329Y-101821970D01*
X91967151Y-101811480D01*
X91946107Y-101798867D01*
X91926402Y-101784253D01*
X91908223Y-101767777D01*
X91891747Y-101749598D01*
X91877133Y-101729893D01*
X91864520Y-101708849D01*
X91854030Y-101686671D01*
X91845765Y-101663571D01*
X91839804Y-101639773D01*
X91836204Y-101615504D01*
X91835000Y-101591000D01*
X91835000Y-100666000D01*
X91836204Y-100641496D01*
X91839804Y-100617227D01*
X91845765Y-100593429D01*
X91854030Y-100570329D01*
X91864520Y-100548151D01*
X91877133Y-100527107D01*
X91891747Y-100507402D01*
X91908223Y-100489223D01*
X91926402Y-100472747D01*
X91946107Y-100458133D01*
X91967151Y-100445520D01*
X91989329Y-100435030D01*
X92012429Y-100426765D01*
X92036227Y-100420804D01*
X92060496Y-100417204D01*
X92085000Y-100416000D01*
X93335000Y-100416000D01*
X93359504Y-100417204D01*
G37*
G04 #@! TD.AperFunction*
D13*
X96012000Y-102616000D03*
D12*
X98552000Y-102616000D03*
X101092000Y-102616000D03*
X103632000Y-102616000D03*
D15*
X88748000Y-103900000D03*
X88748000Y-99300000D03*
X88748000Y-101600000D03*
D16*
X82448000Y-101600000D03*
D17*
X96540000Y-84130000D03*
X96540000Y-86130000D03*
X96540000Y-88130000D03*
X96540000Y-90130000D03*
X96540000Y-92130000D03*
X96540000Y-94130000D03*
X96540000Y-96130000D03*
X96540000Y-98130000D03*
D18*
X99140000Y-99630000D03*
X101140000Y-99630000D03*
X103140000Y-99630000D03*
X105140000Y-99630000D03*
X107140000Y-99630000D03*
X109140000Y-99630000D03*
D17*
X111740000Y-98130000D03*
X111740000Y-96130000D03*
X111740000Y-94130000D03*
X111740000Y-92130000D03*
X111740000Y-90130000D03*
X111740000Y-88130000D03*
X111740000Y-86130000D03*
X111740000Y-84130000D03*
G04 #@! TA.AperFunction,SMDPad,CuDef*
D14*
G36*
X115790505Y-85269204D02*
G01*
X115814773Y-85272804D01*
X115838572Y-85278765D01*
X115861671Y-85287030D01*
X115883850Y-85297520D01*
X115904893Y-85310132D01*
X115924599Y-85324747D01*
X115942777Y-85341223D01*
X115959253Y-85359401D01*
X115973868Y-85379107D01*
X115986480Y-85400150D01*
X115996970Y-85422329D01*
X116005235Y-85445428D01*
X116011196Y-85469227D01*
X116014796Y-85493495D01*
X116016000Y-85517999D01*
X116016000Y-86168001D01*
X116014796Y-86192505D01*
X116011196Y-86216773D01*
X116005235Y-86240572D01*
X115996970Y-86263671D01*
X115986480Y-86285850D01*
X115973868Y-86306893D01*
X115959253Y-86326599D01*
X115942777Y-86344777D01*
X115924599Y-86361253D01*
X115904893Y-86375868D01*
X115883850Y-86388480D01*
X115861671Y-86398970D01*
X115838572Y-86407235D01*
X115814773Y-86413196D01*
X115790505Y-86416796D01*
X115766001Y-86418000D01*
X114865999Y-86418000D01*
X114841495Y-86416796D01*
X114817227Y-86413196D01*
X114793428Y-86407235D01*
X114770329Y-86398970D01*
X114748150Y-86388480D01*
X114727107Y-86375868D01*
X114707401Y-86361253D01*
X114689223Y-86344777D01*
X114672747Y-86326599D01*
X114658132Y-86306893D01*
X114645520Y-86285850D01*
X114635030Y-86263671D01*
X114626765Y-86240572D01*
X114620804Y-86216773D01*
X114617204Y-86192505D01*
X114616000Y-86168001D01*
X114616000Y-85517999D01*
X114617204Y-85493495D01*
X114620804Y-85469227D01*
X114626765Y-85445428D01*
X114635030Y-85422329D01*
X114645520Y-85400150D01*
X114658132Y-85379107D01*
X114672747Y-85359401D01*
X114689223Y-85341223D01*
X114707401Y-85324747D01*
X114727107Y-85310132D01*
X114748150Y-85297520D01*
X114770329Y-85287030D01*
X114793428Y-85278765D01*
X114817227Y-85272804D01*
X114841495Y-85269204D01*
X114865999Y-85268000D01*
X115766001Y-85268000D01*
X115790505Y-85269204D01*
G37*
G04 #@! TD.AperFunction*
G04 #@! TA.AperFunction,SMDPad,CuDef*
G36*
X115790505Y-87319204D02*
G01*
X115814773Y-87322804D01*
X115838572Y-87328765D01*
X115861671Y-87337030D01*
X115883850Y-87347520D01*
X115904893Y-87360132D01*
X115924599Y-87374747D01*
X115942777Y-87391223D01*
X115959253Y-87409401D01*
X115973868Y-87429107D01*
X115986480Y-87450150D01*
X115996970Y-87472329D01*
X116005235Y-87495428D01*
X116011196Y-87519227D01*
X116014796Y-87543495D01*
X116016000Y-87567999D01*
X116016000Y-88218001D01*
X116014796Y-88242505D01*
X116011196Y-88266773D01*
X116005235Y-88290572D01*
X115996970Y-88313671D01*
X115986480Y-88335850D01*
X115973868Y-88356893D01*
X115959253Y-88376599D01*
X115942777Y-88394777D01*
X115924599Y-88411253D01*
X115904893Y-88425868D01*
X115883850Y-88438480D01*
X115861671Y-88448970D01*
X115838572Y-88457235D01*
X115814773Y-88463196D01*
X115790505Y-88466796D01*
X115766001Y-88468000D01*
X114865999Y-88468000D01*
X114841495Y-88466796D01*
X114817227Y-88463196D01*
X114793428Y-88457235D01*
X114770329Y-88448970D01*
X114748150Y-88438480D01*
X114727107Y-88425868D01*
X114707401Y-88411253D01*
X114689223Y-88394777D01*
X114672747Y-88376599D01*
X114658132Y-88356893D01*
X114645520Y-88335850D01*
X114635030Y-88313671D01*
X114626765Y-88290572D01*
X114620804Y-88266773D01*
X114617204Y-88242505D01*
X114616000Y-88218001D01*
X114616000Y-87567999D01*
X114617204Y-87543495D01*
X114620804Y-87519227D01*
X114626765Y-87495428D01*
X114635030Y-87472329D01*
X114645520Y-87450150D01*
X114658132Y-87429107D01*
X114672747Y-87409401D01*
X114689223Y-87391223D01*
X114707401Y-87374747D01*
X114727107Y-87360132D01*
X114748150Y-87347520D01*
X114770329Y-87337030D01*
X114793428Y-87328765D01*
X114817227Y-87322804D01*
X114841495Y-87319204D01*
X114865999Y-87318000D01*
X115766001Y-87318000D01*
X115790505Y-87319204D01*
G37*
G04 #@! TD.AperFunction*
G04 #@! TA.AperFunction,SMDPad,CuDef*
G36*
X115790505Y-91637204D02*
G01*
X115814773Y-91640804D01*
X115838572Y-91646765D01*
X115861671Y-91655030D01*
X115883850Y-91665520D01*
X115904893Y-91678132D01*
X115924599Y-91692747D01*
X115942777Y-91709223D01*
X115959253Y-91727401D01*
X115973868Y-91747107D01*
X115986480Y-91768150D01*
X115996970Y-91790329D01*
X116005235Y-91813428D01*
X116011196Y-91837227D01*
X116014796Y-91861495D01*
X116016000Y-91885999D01*
X116016000Y-92536001D01*
X116014796Y-92560505D01*
X116011196Y-92584773D01*
X116005235Y-92608572D01*
X115996970Y-92631671D01*
X115986480Y-92653850D01*
X115973868Y-92674893D01*
X115959253Y-92694599D01*
X115942777Y-92712777D01*
X115924599Y-92729253D01*
X115904893Y-92743868D01*
X115883850Y-92756480D01*
X115861671Y-92766970D01*
X115838572Y-92775235D01*
X115814773Y-92781196D01*
X115790505Y-92784796D01*
X115766001Y-92786000D01*
X114865999Y-92786000D01*
X114841495Y-92784796D01*
X114817227Y-92781196D01*
X114793428Y-92775235D01*
X114770329Y-92766970D01*
X114748150Y-92756480D01*
X114727107Y-92743868D01*
X114707401Y-92729253D01*
X114689223Y-92712777D01*
X114672747Y-92694599D01*
X114658132Y-92674893D01*
X114645520Y-92653850D01*
X114635030Y-92631671D01*
X114626765Y-92608572D01*
X114620804Y-92584773D01*
X114617204Y-92560505D01*
X114616000Y-92536001D01*
X114616000Y-91885999D01*
X114617204Y-91861495D01*
X114620804Y-91837227D01*
X114626765Y-91813428D01*
X114635030Y-91790329D01*
X114645520Y-91768150D01*
X114658132Y-91747107D01*
X114672747Y-91727401D01*
X114689223Y-91709223D01*
X114707401Y-91692747D01*
X114727107Y-91678132D01*
X114748150Y-91665520D01*
X114770329Y-91655030D01*
X114793428Y-91646765D01*
X114817227Y-91640804D01*
X114841495Y-91637204D01*
X114865999Y-91636000D01*
X115766001Y-91636000D01*
X115790505Y-91637204D01*
G37*
G04 #@! TD.AperFunction*
G04 #@! TA.AperFunction,SMDPad,CuDef*
G36*
X115790505Y-89587204D02*
G01*
X115814773Y-89590804D01*
X115838572Y-89596765D01*
X115861671Y-89605030D01*
X115883850Y-89615520D01*
X115904893Y-89628132D01*
X115924599Y-89642747D01*
X115942777Y-89659223D01*
X115959253Y-89677401D01*
X115973868Y-89697107D01*
X115986480Y-89718150D01*
X115996970Y-89740329D01*
X116005235Y-89763428D01*
X116011196Y-89787227D01*
X116014796Y-89811495D01*
X116016000Y-89835999D01*
X116016000Y-90486001D01*
X116014796Y-90510505D01*
X116011196Y-90534773D01*
X116005235Y-90558572D01*
X115996970Y-90581671D01*
X115986480Y-90603850D01*
X115973868Y-90624893D01*
X115959253Y-90644599D01*
X115942777Y-90662777D01*
X115924599Y-90679253D01*
X115904893Y-90693868D01*
X115883850Y-90706480D01*
X115861671Y-90716970D01*
X115838572Y-90725235D01*
X115814773Y-90731196D01*
X115790505Y-90734796D01*
X115766001Y-90736000D01*
X114865999Y-90736000D01*
X114841495Y-90734796D01*
X114817227Y-90731196D01*
X114793428Y-90725235D01*
X114770329Y-90716970D01*
X114748150Y-90706480D01*
X114727107Y-90693868D01*
X114707401Y-90679253D01*
X114689223Y-90662777D01*
X114672747Y-90644599D01*
X114658132Y-90624893D01*
X114645520Y-90603850D01*
X114635030Y-90581671D01*
X114626765Y-90558572D01*
X114620804Y-90534773D01*
X114617204Y-90510505D01*
X114616000Y-90486001D01*
X114616000Y-89835999D01*
X114617204Y-89811495D01*
X114620804Y-89787227D01*
X114626765Y-89763428D01*
X114635030Y-89740329D01*
X114645520Y-89718150D01*
X114658132Y-89697107D01*
X114672747Y-89677401D01*
X114689223Y-89659223D01*
X114707401Y-89642747D01*
X114727107Y-89628132D01*
X114748150Y-89615520D01*
X114770329Y-89605030D01*
X114793428Y-89596765D01*
X114817227Y-89590804D01*
X114841495Y-89587204D01*
X114865999Y-89586000D01*
X115766001Y-89586000D01*
X115790505Y-89587204D01*
G37*
G04 #@! TD.AperFunction*
G04 #@! TA.AperFunction,SMDPad,CuDef*
G36*
X115790505Y-99774204D02*
G01*
X115814773Y-99777804D01*
X115838572Y-99783765D01*
X115861671Y-99792030D01*
X115883850Y-99802520D01*
X115904893Y-99815132D01*
X115924599Y-99829747D01*
X115942777Y-99846223D01*
X115959253Y-99864401D01*
X115973868Y-99884107D01*
X115986480Y-99905150D01*
X115996970Y-99927329D01*
X116005235Y-99950428D01*
X116011196Y-99974227D01*
X116014796Y-99998495D01*
X116016000Y-100022999D01*
X116016000Y-100673001D01*
X116014796Y-100697505D01*
X116011196Y-100721773D01*
X116005235Y-100745572D01*
X115996970Y-100768671D01*
X115986480Y-100790850D01*
X115973868Y-100811893D01*
X115959253Y-100831599D01*
X115942777Y-100849777D01*
X115924599Y-100866253D01*
X115904893Y-100880868D01*
X115883850Y-100893480D01*
X115861671Y-100903970D01*
X115838572Y-100912235D01*
X115814773Y-100918196D01*
X115790505Y-100921796D01*
X115766001Y-100923000D01*
X114865999Y-100923000D01*
X114841495Y-100921796D01*
X114817227Y-100918196D01*
X114793428Y-100912235D01*
X114770329Y-100903970D01*
X114748150Y-100893480D01*
X114727107Y-100880868D01*
X114707401Y-100866253D01*
X114689223Y-100849777D01*
X114672747Y-100831599D01*
X114658132Y-100811893D01*
X114645520Y-100790850D01*
X114635030Y-100768671D01*
X114626765Y-100745572D01*
X114620804Y-100721773D01*
X114617204Y-100697505D01*
X114616000Y-100673001D01*
X114616000Y-100022999D01*
X114617204Y-99998495D01*
X114620804Y-99974227D01*
X114626765Y-99950428D01*
X114635030Y-99927329D01*
X114645520Y-99905150D01*
X114658132Y-99884107D01*
X114672747Y-99864401D01*
X114689223Y-99846223D01*
X114707401Y-99829747D01*
X114727107Y-99815132D01*
X114748150Y-99802520D01*
X114770329Y-99792030D01*
X114793428Y-99783765D01*
X114817227Y-99777804D01*
X114841495Y-99774204D01*
X114865999Y-99773000D01*
X115766001Y-99773000D01*
X115790505Y-99774204D01*
G37*
G04 #@! TD.AperFunction*
G04 #@! TA.AperFunction,SMDPad,CuDef*
G36*
X115790505Y-97724204D02*
G01*
X115814773Y-97727804D01*
X115838572Y-97733765D01*
X115861671Y-97742030D01*
X115883850Y-97752520D01*
X115904893Y-97765132D01*
X115924599Y-97779747D01*
X115942777Y-97796223D01*
X115959253Y-97814401D01*
X115973868Y-97834107D01*
X115986480Y-97855150D01*
X115996970Y-97877329D01*
X116005235Y-97900428D01*
X116011196Y-97924227D01*
X116014796Y-97948495D01*
X116016000Y-97972999D01*
X116016000Y-98623001D01*
X116014796Y-98647505D01*
X116011196Y-98671773D01*
X116005235Y-98695572D01*
X115996970Y-98718671D01*
X115986480Y-98740850D01*
X115973868Y-98761893D01*
X115959253Y-98781599D01*
X115942777Y-98799777D01*
X115924599Y-98816253D01*
X115904893Y-98830868D01*
X115883850Y-98843480D01*
X115861671Y-98853970D01*
X115838572Y-98862235D01*
X115814773Y-98868196D01*
X115790505Y-98871796D01*
X115766001Y-98873000D01*
X114865999Y-98873000D01*
X114841495Y-98871796D01*
X114817227Y-98868196D01*
X114793428Y-98862235D01*
X114770329Y-98853970D01*
X114748150Y-98843480D01*
X114727107Y-98830868D01*
X114707401Y-98816253D01*
X114689223Y-98799777D01*
X114672747Y-98781599D01*
X114658132Y-98761893D01*
X114645520Y-98740850D01*
X114635030Y-98718671D01*
X114626765Y-98695572D01*
X114620804Y-98671773D01*
X114617204Y-98647505D01*
X114616000Y-98623001D01*
X114616000Y-97972999D01*
X114617204Y-97948495D01*
X114620804Y-97924227D01*
X114626765Y-97900428D01*
X114635030Y-97877329D01*
X114645520Y-97855150D01*
X114658132Y-97834107D01*
X114672747Y-97814401D01*
X114689223Y-97796223D01*
X114707401Y-97779747D01*
X114727107Y-97765132D01*
X114748150Y-97752520D01*
X114770329Y-97742030D01*
X114793428Y-97733765D01*
X114817227Y-97727804D01*
X114841495Y-97724204D01*
X114865999Y-97723000D01*
X115766001Y-97723000D01*
X115790505Y-97724204D01*
G37*
G04 #@! TD.AperFunction*
G04 #@! TA.AperFunction,SMDPad,CuDef*
G36*
X115790505Y-93651204D02*
G01*
X115814773Y-93654804D01*
X115838572Y-93660765D01*
X115861671Y-93669030D01*
X115883850Y-93679520D01*
X115904893Y-93692132D01*
X115924599Y-93706747D01*
X115942777Y-93723223D01*
X115959253Y-93741401D01*
X115973868Y-93761107D01*
X115986480Y-93782150D01*
X115996970Y-93804329D01*
X116005235Y-93827428D01*
X116011196Y-93851227D01*
X116014796Y-93875495D01*
X116016000Y-93899999D01*
X116016000Y-94550001D01*
X116014796Y-94574505D01*
X116011196Y-94598773D01*
X116005235Y-94622572D01*
X115996970Y-94645671D01*
X115986480Y-94667850D01*
X115973868Y-94688893D01*
X115959253Y-94708599D01*
X115942777Y-94726777D01*
X115924599Y-94743253D01*
X115904893Y-94757868D01*
X115883850Y-94770480D01*
X115861671Y-94780970D01*
X115838572Y-94789235D01*
X115814773Y-94795196D01*
X115790505Y-94798796D01*
X115766001Y-94800000D01*
X114865999Y-94800000D01*
X114841495Y-94798796D01*
X114817227Y-94795196D01*
X114793428Y-94789235D01*
X114770329Y-94780970D01*
X114748150Y-94770480D01*
X114727107Y-94757868D01*
X114707401Y-94743253D01*
X114689223Y-94726777D01*
X114672747Y-94708599D01*
X114658132Y-94688893D01*
X114645520Y-94667850D01*
X114635030Y-94645671D01*
X114626765Y-94622572D01*
X114620804Y-94598773D01*
X114617204Y-94574505D01*
X114616000Y-94550001D01*
X114616000Y-93899999D01*
X114617204Y-93875495D01*
X114620804Y-93851227D01*
X114626765Y-93827428D01*
X114635030Y-93804329D01*
X114645520Y-93782150D01*
X114658132Y-93761107D01*
X114672747Y-93741401D01*
X114689223Y-93723223D01*
X114707401Y-93706747D01*
X114727107Y-93692132D01*
X114748150Y-93679520D01*
X114770329Y-93669030D01*
X114793428Y-93660765D01*
X114817227Y-93654804D01*
X114841495Y-93651204D01*
X114865999Y-93650000D01*
X115766001Y-93650000D01*
X115790505Y-93651204D01*
G37*
G04 #@! TD.AperFunction*
G04 #@! TA.AperFunction,SMDPad,CuDef*
G36*
X115790505Y-95701204D02*
G01*
X115814773Y-95704804D01*
X115838572Y-95710765D01*
X115861671Y-95719030D01*
X115883850Y-95729520D01*
X115904893Y-95742132D01*
X115924599Y-95756747D01*
X115942777Y-95773223D01*
X115959253Y-95791401D01*
X115973868Y-95811107D01*
X115986480Y-95832150D01*
X115996970Y-95854329D01*
X116005235Y-95877428D01*
X116011196Y-95901227D01*
X116014796Y-95925495D01*
X116016000Y-95949999D01*
X116016000Y-96600001D01*
X116014796Y-96624505D01*
X116011196Y-96648773D01*
X116005235Y-96672572D01*
X115996970Y-96695671D01*
X115986480Y-96717850D01*
X115973868Y-96738893D01*
X115959253Y-96758599D01*
X115942777Y-96776777D01*
X115924599Y-96793253D01*
X115904893Y-96807868D01*
X115883850Y-96820480D01*
X115861671Y-96830970D01*
X115838572Y-96839235D01*
X115814773Y-96845196D01*
X115790505Y-96848796D01*
X115766001Y-96850000D01*
X114865999Y-96850000D01*
X114841495Y-96848796D01*
X114817227Y-96845196D01*
X114793428Y-96839235D01*
X114770329Y-96830970D01*
X114748150Y-96820480D01*
X114727107Y-96807868D01*
X114707401Y-96793253D01*
X114689223Y-96776777D01*
X114672747Y-96758599D01*
X114658132Y-96738893D01*
X114645520Y-96717850D01*
X114635030Y-96695671D01*
X114626765Y-96672572D01*
X114620804Y-96648773D01*
X114617204Y-96624505D01*
X114616000Y-96600001D01*
X114616000Y-95949999D01*
X114617204Y-95925495D01*
X114620804Y-95901227D01*
X114626765Y-95877428D01*
X114635030Y-95854329D01*
X114645520Y-95832150D01*
X114658132Y-95811107D01*
X114672747Y-95791401D01*
X114689223Y-95773223D01*
X114707401Y-95756747D01*
X114727107Y-95742132D01*
X114748150Y-95729520D01*
X114770329Y-95719030D01*
X114793428Y-95710765D01*
X114817227Y-95704804D01*
X114841495Y-95701204D01*
X114865999Y-95700000D01*
X115766001Y-95700000D01*
X115790505Y-95701204D01*
G37*
G04 #@! TD.AperFunction*
G04 #@! TA.AperFunction,SMDPad,CuDef*
G36*
X93946505Y-83500204D02*
G01*
X93970773Y-83503804D01*
X93994572Y-83509765D01*
X94017671Y-83518030D01*
X94039850Y-83528520D01*
X94060893Y-83541132D01*
X94080599Y-83555747D01*
X94098777Y-83572223D01*
X94115253Y-83590401D01*
X94129868Y-83610107D01*
X94142480Y-83631150D01*
X94152970Y-83653329D01*
X94161235Y-83676428D01*
X94167196Y-83700227D01*
X94170796Y-83724495D01*
X94172000Y-83748999D01*
X94172000Y-84399001D01*
X94170796Y-84423505D01*
X94167196Y-84447773D01*
X94161235Y-84471572D01*
X94152970Y-84494671D01*
X94142480Y-84516850D01*
X94129868Y-84537893D01*
X94115253Y-84557599D01*
X94098777Y-84575777D01*
X94080599Y-84592253D01*
X94060893Y-84606868D01*
X94039850Y-84619480D01*
X94017671Y-84629970D01*
X93994572Y-84638235D01*
X93970773Y-84644196D01*
X93946505Y-84647796D01*
X93922001Y-84649000D01*
X93021999Y-84649000D01*
X92997495Y-84647796D01*
X92973227Y-84644196D01*
X92949428Y-84638235D01*
X92926329Y-84629970D01*
X92904150Y-84619480D01*
X92883107Y-84606868D01*
X92863401Y-84592253D01*
X92845223Y-84575777D01*
X92828747Y-84557599D01*
X92814132Y-84537893D01*
X92801520Y-84516850D01*
X92791030Y-84494671D01*
X92782765Y-84471572D01*
X92776804Y-84447773D01*
X92773204Y-84423505D01*
X92772000Y-84399001D01*
X92772000Y-83748999D01*
X92773204Y-83724495D01*
X92776804Y-83700227D01*
X92782765Y-83676428D01*
X92791030Y-83653329D01*
X92801520Y-83631150D01*
X92814132Y-83610107D01*
X92828747Y-83590401D01*
X92845223Y-83572223D01*
X92863401Y-83555747D01*
X92883107Y-83541132D01*
X92904150Y-83528520D01*
X92926329Y-83518030D01*
X92949428Y-83509765D01*
X92973227Y-83503804D01*
X92997495Y-83500204D01*
X93021999Y-83499000D01*
X93922001Y-83499000D01*
X93946505Y-83500204D01*
G37*
G04 #@! TD.AperFunction*
G04 #@! TA.AperFunction,SMDPad,CuDef*
G36*
X93946505Y-85550204D02*
G01*
X93970773Y-85553804D01*
X93994572Y-85559765D01*
X94017671Y-85568030D01*
X94039850Y-85578520D01*
X94060893Y-85591132D01*
X94080599Y-85605747D01*
X94098777Y-85622223D01*
X94115253Y-85640401D01*
X94129868Y-85660107D01*
X94142480Y-85681150D01*
X94152970Y-85703329D01*
X94161235Y-85726428D01*
X94167196Y-85750227D01*
X94170796Y-85774495D01*
X94172000Y-85798999D01*
X94172000Y-86449001D01*
X94170796Y-86473505D01*
X94167196Y-86497773D01*
X94161235Y-86521572D01*
X94152970Y-86544671D01*
X94142480Y-86566850D01*
X94129868Y-86587893D01*
X94115253Y-86607599D01*
X94098777Y-86625777D01*
X94080599Y-86642253D01*
X94060893Y-86656868D01*
X94039850Y-86669480D01*
X94017671Y-86679970D01*
X93994572Y-86688235D01*
X93970773Y-86694196D01*
X93946505Y-86697796D01*
X93922001Y-86699000D01*
X93021999Y-86699000D01*
X92997495Y-86697796D01*
X92973227Y-86694196D01*
X92949428Y-86688235D01*
X92926329Y-86679970D01*
X92904150Y-86669480D01*
X92883107Y-86656868D01*
X92863401Y-86642253D01*
X92845223Y-86625777D01*
X92828747Y-86607599D01*
X92814132Y-86587893D01*
X92801520Y-86566850D01*
X92791030Y-86544671D01*
X92782765Y-86521572D01*
X92776804Y-86497773D01*
X92773204Y-86473505D01*
X92772000Y-86449001D01*
X92772000Y-85798999D01*
X92773204Y-85774495D01*
X92776804Y-85750227D01*
X92782765Y-85726428D01*
X92791030Y-85703329D01*
X92801520Y-85681150D01*
X92814132Y-85660107D01*
X92828747Y-85640401D01*
X92845223Y-85622223D01*
X92863401Y-85605747D01*
X92883107Y-85591132D01*
X92904150Y-85578520D01*
X92926329Y-85568030D01*
X92949428Y-85559765D01*
X92973227Y-85553804D01*
X92997495Y-85550204D01*
X93021999Y-85549000D01*
X93922001Y-85549000D01*
X93946505Y-85550204D01*
G37*
G04 #@! TD.AperFunction*
G04 #@! TA.AperFunction,SMDPad,CuDef*
G36*
X93946505Y-88072204D02*
G01*
X93970773Y-88075804D01*
X93994572Y-88081765D01*
X94017671Y-88090030D01*
X94039850Y-88100520D01*
X94060893Y-88113132D01*
X94080599Y-88127747D01*
X94098777Y-88144223D01*
X94115253Y-88162401D01*
X94129868Y-88182107D01*
X94142480Y-88203150D01*
X94152970Y-88225329D01*
X94161235Y-88248428D01*
X94167196Y-88272227D01*
X94170796Y-88296495D01*
X94172000Y-88320999D01*
X94172000Y-88971001D01*
X94170796Y-88995505D01*
X94167196Y-89019773D01*
X94161235Y-89043572D01*
X94152970Y-89066671D01*
X94142480Y-89088850D01*
X94129868Y-89109893D01*
X94115253Y-89129599D01*
X94098777Y-89147777D01*
X94080599Y-89164253D01*
X94060893Y-89178868D01*
X94039850Y-89191480D01*
X94017671Y-89201970D01*
X93994572Y-89210235D01*
X93970773Y-89216196D01*
X93946505Y-89219796D01*
X93922001Y-89221000D01*
X93021999Y-89221000D01*
X92997495Y-89219796D01*
X92973227Y-89216196D01*
X92949428Y-89210235D01*
X92926329Y-89201970D01*
X92904150Y-89191480D01*
X92883107Y-89178868D01*
X92863401Y-89164253D01*
X92845223Y-89147777D01*
X92828747Y-89129599D01*
X92814132Y-89109893D01*
X92801520Y-89088850D01*
X92791030Y-89066671D01*
X92782765Y-89043572D01*
X92776804Y-89019773D01*
X92773204Y-88995505D01*
X92772000Y-88971001D01*
X92772000Y-88320999D01*
X92773204Y-88296495D01*
X92776804Y-88272227D01*
X92782765Y-88248428D01*
X92791030Y-88225329D01*
X92801520Y-88203150D01*
X92814132Y-88182107D01*
X92828747Y-88162401D01*
X92845223Y-88144223D01*
X92863401Y-88127747D01*
X92883107Y-88113132D01*
X92904150Y-88100520D01*
X92926329Y-88090030D01*
X92949428Y-88081765D01*
X92973227Y-88075804D01*
X92997495Y-88072204D01*
X93021999Y-88071000D01*
X93922001Y-88071000D01*
X93946505Y-88072204D01*
G37*
G04 #@! TD.AperFunction*
G04 #@! TA.AperFunction,SMDPad,CuDef*
G36*
X93946505Y-90122204D02*
G01*
X93970773Y-90125804D01*
X93994572Y-90131765D01*
X94017671Y-90140030D01*
X94039850Y-90150520D01*
X94060893Y-90163132D01*
X94080599Y-90177747D01*
X94098777Y-90194223D01*
X94115253Y-90212401D01*
X94129868Y-90232107D01*
X94142480Y-90253150D01*
X94152970Y-90275329D01*
X94161235Y-90298428D01*
X94167196Y-90322227D01*
X94170796Y-90346495D01*
X94172000Y-90370999D01*
X94172000Y-91021001D01*
X94170796Y-91045505D01*
X94167196Y-91069773D01*
X94161235Y-91093572D01*
X94152970Y-91116671D01*
X94142480Y-91138850D01*
X94129868Y-91159893D01*
X94115253Y-91179599D01*
X94098777Y-91197777D01*
X94080599Y-91214253D01*
X94060893Y-91228868D01*
X94039850Y-91241480D01*
X94017671Y-91251970D01*
X93994572Y-91260235D01*
X93970773Y-91266196D01*
X93946505Y-91269796D01*
X93922001Y-91271000D01*
X93021999Y-91271000D01*
X92997495Y-91269796D01*
X92973227Y-91266196D01*
X92949428Y-91260235D01*
X92926329Y-91251970D01*
X92904150Y-91241480D01*
X92883107Y-91228868D01*
X92863401Y-91214253D01*
X92845223Y-91197777D01*
X92828747Y-91179599D01*
X92814132Y-91159893D01*
X92801520Y-91138850D01*
X92791030Y-91116671D01*
X92782765Y-91093572D01*
X92776804Y-91069773D01*
X92773204Y-91045505D01*
X92772000Y-91021001D01*
X92772000Y-90370999D01*
X92773204Y-90346495D01*
X92776804Y-90322227D01*
X92782765Y-90298428D01*
X92791030Y-90275329D01*
X92801520Y-90253150D01*
X92814132Y-90232107D01*
X92828747Y-90212401D01*
X92845223Y-90194223D01*
X92863401Y-90177747D01*
X92883107Y-90163132D01*
X92904150Y-90150520D01*
X92926329Y-90140030D01*
X92949428Y-90131765D01*
X92973227Y-90125804D01*
X92997495Y-90122204D01*
X93021999Y-90121000D01*
X93922001Y-90121000D01*
X93946505Y-90122204D01*
G37*
G04 #@! TD.AperFunction*
D19*
X121920000Y-92376000D03*
D20*
X121920000Y-87376000D03*
D12*
X116840000Y-81026000D03*
X119380000Y-81026000D03*
X121920000Y-81026000D03*
D13*
X124460000Y-81026000D03*
D12*
X107442000Y-102616000D03*
X109982000Y-102616000D03*
D13*
X112522000Y-102616000D03*
G04 #@! TA.AperFunction,SMDPad,CuDef*
D14*
G36*
X85430505Y-95821204D02*
G01*
X85454773Y-95824804D01*
X85478572Y-95830765D01*
X85501671Y-95839030D01*
X85523850Y-95849520D01*
X85544893Y-95862132D01*
X85564599Y-95876747D01*
X85582777Y-95893223D01*
X85599253Y-95911401D01*
X85613868Y-95931107D01*
X85626480Y-95952150D01*
X85636970Y-95974329D01*
X85645235Y-95997428D01*
X85651196Y-96021227D01*
X85654796Y-96045495D01*
X85656000Y-96069999D01*
X85656000Y-96970001D01*
X85654796Y-96994505D01*
X85651196Y-97018773D01*
X85645235Y-97042572D01*
X85636970Y-97065671D01*
X85626480Y-97087850D01*
X85613868Y-97108893D01*
X85599253Y-97128599D01*
X85582777Y-97146777D01*
X85564599Y-97163253D01*
X85544893Y-97177868D01*
X85523850Y-97190480D01*
X85501671Y-97200970D01*
X85478572Y-97209235D01*
X85454773Y-97215196D01*
X85430505Y-97218796D01*
X85406001Y-97220000D01*
X84755999Y-97220000D01*
X84731495Y-97218796D01*
X84707227Y-97215196D01*
X84683428Y-97209235D01*
X84660329Y-97200970D01*
X84638150Y-97190480D01*
X84617107Y-97177868D01*
X84597401Y-97163253D01*
X84579223Y-97146777D01*
X84562747Y-97128599D01*
X84548132Y-97108893D01*
X84535520Y-97087850D01*
X84525030Y-97065671D01*
X84516765Y-97042572D01*
X84510804Y-97018773D01*
X84507204Y-96994505D01*
X84506000Y-96970001D01*
X84506000Y-96069999D01*
X84507204Y-96045495D01*
X84510804Y-96021227D01*
X84516765Y-95997428D01*
X84525030Y-95974329D01*
X84535520Y-95952150D01*
X84548132Y-95931107D01*
X84562747Y-95911401D01*
X84579223Y-95893223D01*
X84597401Y-95876747D01*
X84617107Y-95862132D01*
X84638150Y-95849520D01*
X84660329Y-95839030D01*
X84683428Y-95830765D01*
X84707227Y-95824804D01*
X84731495Y-95821204D01*
X84755999Y-95820000D01*
X85406001Y-95820000D01*
X85430505Y-95821204D01*
G37*
G04 #@! TD.AperFunction*
G04 #@! TA.AperFunction,SMDPad,CuDef*
G36*
X87480505Y-95821204D02*
G01*
X87504773Y-95824804D01*
X87528572Y-95830765D01*
X87551671Y-95839030D01*
X87573850Y-95849520D01*
X87594893Y-95862132D01*
X87614599Y-95876747D01*
X87632777Y-95893223D01*
X87649253Y-95911401D01*
X87663868Y-95931107D01*
X87676480Y-95952150D01*
X87686970Y-95974329D01*
X87695235Y-95997428D01*
X87701196Y-96021227D01*
X87704796Y-96045495D01*
X87706000Y-96069999D01*
X87706000Y-96970001D01*
X87704796Y-96994505D01*
X87701196Y-97018773D01*
X87695235Y-97042572D01*
X87686970Y-97065671D01*
X87676480Y-97087850D01*
X87663868Y-97108893D01*
X87649253Y-97128599D01*
X87632777Y-97146777D01*
X87614599Y-97163253D01*
X87594893Y-97177868D01*
X87573850Y-97190480D01*
X87551671Y-97200970D01*
X87528572Y-97209235D01*
X87504773Y-97215196D01*
X87480505Y-97218796D01*
X87456001Y-97220000D01*
X86805999Y-97220000D01*
X86781495Y-97218796D01*
X86757227Y-97215196D01*
X86733428Y-97209235D01*
X86710329Y-97200970D01*
X86688150Y-97190480D01*
X86667107Y-97177868D01*
X86647401Y-97163253D01*
X86629223Y-97146777D01*
X86612747Y-97128599D01*
X86598132Y-97108893D01*
X86585520Y-97087850D01*
X86575030Y-97065671D01*
X86566765Y-97042572D01*
X86560804Y-97018773D01*
X86557204Y-96994505D01*
X86556000Y-96970001D01*
X86556000Y-96069999D01*
X86557204Y-96045495D01*
X86560804Y-96021227D01*
X86566765Y-95997428D01*
X86575030Y-95974329D01*
X86585520Y-95952150D01*
X86598132Y-95931107D01*
X86612747Y-95911401D01*
X86629223Y-95893223D01*
X86647401Y-95876747D01*
X86667107Y-95862132D01*
X86688150Y-95849520D01*
X86710329Y-95839030D01*
X86733428Y-95830765D01*
X86757227Y-95824804D01*
X86781495Y-95821204D01*
X86805999Y-95820000D01*
X87456001Y-95820000D01*
X87480505Y-95821204D01*
G37*
G04 #@! TD.AperFunction*
G04 #@! TA.AperFunction,SMDPad,CuDef*
G36*
X92288505Y-96075204D02*
G01*
X92312773Y-96078804D01*
X92336572Y-96084765D01*
X92359671Y-96093030D01*
X92381850Y-96103520D01*
X92402893Y-96116132D01*
X92422599Y-96130747D01*
X92440777Y-96147223D01*
X92457253Y-96165401D01*
X92471868Y-96185107D01*
X92484480Y-96206150D01*
X92494970Y-96228329D01*
X92503235Y-96251428D01*
X92509196Y-96275227D01*
X92512796Y-96299495D01*
X92514000Y-96323999D01*
X92514000Y-97224001D01*
X92512796Y-97248505D01*
X92509196Y-97272773D01*
X92503235Y-97296572D01*
X92494970Y-97319671D01*
X92484480Y-97341850D01*
X92471868Y-97362893D01*
X92457253Y-97382599D01*
X92440777Y-97400777D01*
X92422599Y-97417253D01*
X92402893Y-97431868D01*
X92381850Y-97444480D01*
X92359671Y-97454970D01*
X92336572Y-97463235D01*
X92312773Y-97469196D01*
X92288505Y-97472796D01*
X92264001Y-97474000D01*
X91613999Y-97474000D01*
X91589495Y-97472796D01*
X91565227Y-97469196D01*
X91541428Y-97463235D01*
X91518329Y-97454970D01*
X91496150Y-97444480D01*
X91475107Y-97431868D01*
X91455401Y-97417253D01*
X91437223Y-97400777D01*
X91420747Y-97382599D01*
X91406132Y-97362893D01*
X91393520Y-97341850D01*
X91383030Y-97319671D01*
X91374765Y-97296572D01*
X91368804Y-97272773D01*
X91365204Y-97248505D01*
X91364000Y-97224001D01*
X91364000Y-96323999D01*
X91365204Y-96299495D01*
X91368804Y-96275227D01*
X91374765Y-96251428D01*
X91383030Y-96228329D01*
X91393520Y-96206150D01*
X91406132Y-96185107D01*
X91420747Y-96165401D01*
X91437223Y-96147223D01*
X91455401Y-96130747D01*
X91475107Y-96116132D01*
X91496150Y-96103520D01*
X91518329Y-96093030D01*
X91541428Y-96084765D01*
X91565227Y-96078804D01*
X91589495Y-96075204D01*
X91613999Y-96074000D01*
X92264001Y-96074000D01*
X92288505Y-96075204D01*
G37*
G04 #@! TD.AperFunction*
G04 #@! TA.AperFunction,SMDPad,CuDef*
G36*
X94338505Y-96075204D02*
G01*
X94362773Y-96078804D01*
X94386572Y-96084765D01*
X94409671Y-96093030D01*
X94431850Y-96103520D01*
X94452893Y-96116132D01*
X94472599Y-96130747D01*
X94490777Y-96147223D01*
X94507253Y-96165401D01*
X94521868Y-96185107D01*
X94534480Y-96206150D01*
X94544970Y-96228329D01*
X94553235Y-96251428D01*
X94559196Y-96275227D01*
X94562796Y-96299495D01*
X94564000Y-96323999D01*
X94564000Y-97224001D01*
X94562796Y-97248505D01*
X94559196Y-97272773D01*
X94553235Y-97296572D01*
X94544970Y-97319671D01*
X94534480Y-97341850D01*
X94521868Y-97362893D01*
X94507253Y-97382599D01*
X94490777Y-97400777D01*
X94472599Y-97417253D01*
X94452893Y-97431868D01*
X94431850Y-97444480D01*
X94409671Y-97454970D01*
X94386572Y-97463235D01*
X94362773Y-97469196D01*
X94338505Y-97472796D01*
X94314001Y-97474000D01*
X93663999Y-97474000D01*
X93639495Y-97472796D01*
X93615227Y-97469196D01*
X93591428Y-97463235D01*
X93568329Y-97454970D01*
X93546150Y-97444480D01*
X93525107Y-97431868D01*
X93505401Y-97417253D01*
X93487223Y-97400777D01*
X93470747Y-97382599D01*
X93456132Y-97362893D01*
X93443520Y-97341850D01*
X93433030Y-97319671D01*
X93424765Y-97296572D01*
X93418804Y-97272773D01*
X93415204Y-97248505D01*
X93414000Y-97224001D01*
X93414000Y-96323999D01*
X93415204Y-96299495D01*
X93418804Y-96275227D01*
X93424765Y-96251428D01*
X93433030Y-96228329D01*
X93443520Y-96206150D01*
X93456132Y-96185107D01*
X93470747Y-96165401D01*
X93487223Y-96147223D01*
X93505401Y-96130747D01*
X93525107Y-96116132D01*
X93546150Y-96103520D01*
X93568329Y-96093030D01*
X93591428Y-96084765D01*
X93615227Y-96078804D01*
X93639495Y-96075204D01*
X93663999Y-96074000D01*
X94314001Y-96074000D01*
X94338505Y-96075204D01*
G37*
G04 #@! TD.AperFunction*
D21*
X113538000Y-100330000D03*
X115062000Y-101981000D03*
X122923300Y-79070200D03*
X120688100Y-79070200D03*
X96774000Y-99949000D03*
X111506000Y-100330000D03*
X119126000Y-94742000D03*
X84836000Y-104394000D03*
X86360000Y-104394000D03*
X90932000Y-102870000D03*
X90932000Y-104394000D03*
X90424000Y-96774000D03*
X92456000Y-92710000D03*
X92456000Y-93980000D03*
X92456000Y-95123000D03*
X125780800Y-79082900D03*
X83566000Y-97282000D03*
X86360000Y-103124000D03*
X95377000Y-99949000D03*
X88900000Y-96266000D03*
X91186000Y-99060000D03*
X84836000Y-103124000D03*
X86614000Y-99822000D03*
X84836000Y-99822000D03*
X84836000Y-98552000D03*
X86614000Y-98552000D03*
X94615000Y-104394000D03*
X118999000Y-103759000D03*
X125349000Y-103759000D03*
X86600000Y-86050000D03*
X86700000Y-83200000D03*
X89500000Y-83200000D03*
X91200000Y-85750000D03*
X89600000Y-87300000D03*
X87000000Y-93400000D03*
X86800000Y-87950000D03*
X84650000Y-90450000D03*
X85850000Y-94550000D03*
X99314000Y-86106000D03*
X99060000Y-97536000D03*
X101219000Y-97536000D03*
X106807000Y-97536000D03*
X109093000Y-97536000D03*
X109220000Y-90170000D03*
X109220000Y-88138000D03*
X99314000Y-94234000D03*
X99314000Y-92075000D03*
D22*
X88188800Y-92211200D02*
X87000000Y-93400000D01*
X88188800Y-92087500D02*
X88188800Y-92211200D01*
X115325000Y-96266000D02*
X115316000Y-96275000D01*
X117085000Y-90161000D02*
X115316000Y-90161000D01*
X117094000Y-96266000D02*
X117094000Y-90170000D01*
X117094000Y-90170000D02*
X117085000Y-90161000D01*
X82956000Y-102500000D02*
X82956000Y-101600000D01*
X92238500Y-101600000D02*
X92710000Y-101128500D01*
X88748000Y-101600000D02*
X92238500Y-101600000D01*
X95790000Y-98130000D02*
X95622000Y-98298000D01*
X96540000Y-98130000D02*
X95790000Y-98130000D01*
X95622000Y-98298000D02*
X93980000Y-98298000D01*
X88748000Y-101600000D02*
X82448000Y-101600000D01*
X117085000Y-96275000D02*
X117094000Y-96266000D01*
X115316000Y-96275000D02*
X117085000Y-96275000D01*
X96012000Y-103124000D02*
X96012000Y-102870000D01*
X98030990Y-104634990D02*
X96012000Y-102616000D01*
X114567010Y-104634990D02*
X98030990Y-104634990D01*
X117094000Y-96266000D02*
X117094000Y-102108000D01*
X117094000Y-102108000D02*
X114567010Y-104634990D01*
X94524500Y-101128500D02*
X92710000Y-101128500D01*
X96012000Y-102616000D02*
X94524500Y-101128500D01*
X115316000Y-90161000D02*
X115316000Y-87893000D01*
X92021990Y-90045990D02*
X92672000Y-90696000D01*
X92021990Y-87175010D02*
X92021990Y-90045990D01*
X92672000Y-90696000D02*
X93472000Y-90696000D01*
X93472000Y-86124000D02*
X93073000Y-86124000D01*
X93073000Y-86124000D02*
X92021990Y-87175010D01*
X92710000Y-99314000D02*
X92710000Y-101128500D01*
X93980000Y-98298000D02*
X93726000Y-98298000D01*
X93726000Y-98298000D02*
X92710000Y-99314000D01*
X124460000Y-82321400D02*
X124460000Y-81026000D01*
X117348000Y-89916000D02*
X123571000Y-89916000D01*
X117094000Y-90170000D02*
X117348000Y-89916000D01*
X124841000Y-82702400D02*
X124460000Y-82321400D01*
X123571000Y-89916000D02*
X124841000Y-88646000D01*
X124841000Y-88646000D02*
X124841000Y-82702400D01*
X93980000Y-91204000D02*
X93980000Y-98298000D01*
X93472000Y-90696000D02*
X93980000Y-91204000D01*
X87131000Y-97175000D02*
X89256000Y-99300000D01*
X87131000Y-96520000D02*
X87131000Y-97175000D01*
D23*
X88138000Y-82376000D02*
X88138000Y-81026000D01*
X88188800Y-88887500D02*
X88188800Y-82426800D01*
X88188800Y-82426800D02*
X88138000Y-82376000D01*
D22*
X87131000Y-95819000D02*
X87131000Y-96520000D01*
X90250000Y-92700000D02*
X87131000Y-95819000D01*
X90250000Y-89700000D02*
X90250000Y-92700000D01*
X88188800Y-88887500D02*
X89437500Y-88887500D01*
X89437500Y-88887500D02*
X90250000Y-89700000D01*
D24*
X119479004Y-87376000D02*
X121920000Y-87376000D01*
X117701004Y-85598000D02*
X119479004Y-87376000D01*
X115325000Y-85598000D02*
X117701004Y-85598000D01*
X115316000Y-85589000D02*
X115325000Y-85598000D01*
X99310300Y-96130000D02*
X108331000Y-87109300D01*
X96540000Y-96130000D02*
X99310300Y-96130000D01*
X108331000Y-87109300D02*
X113550700Y-87109300D01*
X113550700Y-87109300D02*
X115071000Y-85589000D01*
X115071000Y-85589000D02*
X115316000Y-85589000D01*
D25*
X101092000Y-102362000D02*
X101092000Y-102870000D01*
X105140000Y-99630000D02*
X105140000Y-100030000D01*
D24*
X103251000Y-101092000D02*
X101727000Y-102616000D01*
D25*
X105140000Y-99630000D02*
X105140000Y-100092000D01*
X101727000Y-102616000D02*
X101092000Y-102616000D01*
D24*
X104140000Y-101092000D02*
X103251000Y-101092000D01*
X105140000Y-100092000D02*
X104140000Y-101092000D01*
D25*
X96540000Y-86130000D02*
X97290000Y-86130000D01*
D24*
X96540000Y-86130000D02*
X99290000Y-86130000D01*
D25*
X99290000Y-86130000D02*
X99314000Y-86106000D01*
D24*
X93751400Y-88366600D02*
X93472000Y-88646000D01*
X96540000Y-88130000D02*
X96303400Y-88366600D01*
X96303400Y-88366600D02*
X93751400Y-88366600D01*
D25*
X96475000Y-84065000D02*
X96540000Y-84130000D01*
X93528000Y-84130000D02*
X93472000Y-84074000D01*
D24*
X96540000Y-84130000D02*
X93528000Y-84130000D01*
D25*
X111835000Y-94225000D02*
X111740000Y-94130000D01*
D24*
X115316000Y-94225000D02*
X111835000Y-94225000D01*
X112490000Y-96130000D02*
X111740000Y-96130000D01*
X115316000Y-98298000D02*
X114658000Y-98298000D01*
X114658000Y-98298000D02*
X112490000Y-96130000D01*
D25*
X111740000Y-92130000D02*
X110990000Y-92130000D01*
X111821000Y-92211000D02*
X111740000Y-92130000D01*
D24*
X115316000Y-92211000D02*
X111821000Y-92211000D01*
X112522000Y-102616000D02*
X109982000Y-102616000D01*
X108100000Y-100734000D02*
X108100000Y-98514998D01*
X107950000Y-94420000D02*
X110240000Y-92130000D01*
X110240000Y-92130000D02*
X111740000Y-92130000D01*
X109982000Y-102616000D02*
X108100000Y-100734000D01*
X108100000Y-98514998D02*
X107950000Y-98364998D01*
X107950000Y-98364998D02*
X107950000Y-94420000D01*
X90678000Y-83439000D02*
X90678000Y-81026000D01*
X94361000Y-85090000D02*
X92329000Y-85090000D01*
X94742000Y-85471000D02*
X94361000Y-85090000D01*
X94742000Y-86667002D02*
X94742000Y-85471000D01*
X95196998Y-87122000D02*
X94742000Y-86667002D01*
X98044000Y-87122000D02*
X95196998Y-87122000D01*
X98040000Y-90130000D02*
X98425000Y-89745000D01*
X96540000Y-90130000D02*
X98040000Y-90130000D01*
X92329000Y-85090000D02*
X90678000Y-83439000D01*
X98425000Y-89745000D02*
X98425000Y-87503000D01*
X98425000Y-87503000D02*
X98044000Y-87122000D01*
X99140000Y-99630000D02*
X99140000Y-97616000D01*
X99140000Y-97616000D02*
X99060000Y-97536000D01*
X101140000Y-99630000D02*
X101140000Y-97615000D01*
X101140000Y-97615000D02*
X101219000Y-97536000D01*
X107140000Y-99630000D02*
X107140000Y-97869000D01*
X107140000Y-97869000D02*
X106807000Y-97536000D01*
X109140000Y-99630000D02*
X109140000Y-97583000D01*
X109140000Y-97583000D02*
X109093000Y-97536000D01*
D25*
X111740000Y-90130000D02*
X109260000Y-90130000D01*
X109260000Y-90130000D02*
X109220000Y-90170000D01*
X111740000Y-88130000D02*
X109228000Y-88130000D01*
X109228000Y-88130000D02*
X109220000Y-88138000D01*
D24*
X96540000Y-94130000D02*
X99210000Y-94130000D01*
X99210000Y-94130000D02*
X99314000Y-94234000D01*
X96540000Y-92130000D02*
X99259000Y-92130000D01*
X99259000Y-92130000D02*
X99314000Y-92075000D01*
X100076000Y-101092000D02*
X99401999Y-101766001D01*
D25*
X103140000Y-99630000D02*
X103140000Y-100030000D01*
D24*
X99401999Y-101766001D02*
X98552000Y-102616000D01*
X103140000Y-100030000D02*
X102078000Y-101092000D01*
X102078000Y-101092000D02*
X100076000Y-101092000D01*
X111740000Y-84130000D02*
X111747500Y-84137500D01*
X113118900Y-84137500D02*
X114147600Y-83108800D01*
X111747500Y-84137500D02*
X113118900Y-84137500D01*
X114147600Y-83108800D02*
X118598950Y-83108800D01*
X119380000Y-82327750D02*
X119380000Y-81026000D01*
X118598950Y-83108800D02*
X119380000Y-82327750D01*
D25*
X111740000Y-86130000D02*
X110990000Y-86130000D01*
D24*
X115366800Y-83832700D02*
X120129300Y-83832700D01*
X121920000Y-82042000D02*
X121920000Y-81026000D01*
X120129300Y-83832700D02*
X121920000Y-82042000D01*
X111740000Y-86130000D02*
X113069500Y-86130000D01*
X113069500Y-86130000D02*
X115366800Y-83832700D01*
D26*
G36*
X126340000Y-104750000D02*
G01*
X115845000Y-104750000D01*
X117756290Y-102838711D01*
X117793870Y-102807870D01*
X117916960Y-102657884D01*
X118008424Y-102486767D01*
X118064747Y-102301094D01*
X118079000Y-102156380D01*
X118083765Y-102108000D01*
X118079000Y-102059620D01*
X118079000Y-100617872D01*
X119939000Y-100617872D01*
X119939000Y-101058128D01*
X120024890Y-101489925D01*
X120193369Y-101896669D01*
X120437962Y-102262729D01*
X120749271Y-102574038D01*
X121115331Y-102818631D01*
X121522075Y-102987110D01*
X121953872Y-103073000D01*
X122394128Y-103073000D01*
X122825925Y-102987110D01*
X123232669Y-102818631D01*
X123598729Y-102574038D01*
X123910038Y-102262729D01*
X124154631Y-101896669D01*
X124323110Y-101489925D01*
X124409000Y-101058128D01*
X124409000Y-100617872D01*
X124323110Y-100186075D01*
X124154631Y-99779331D01*
X123910038Y-99413271D01*
X123598729Y-99101962D01*
X123232669Y-98857369D01*
X122825925Y-98688890D01*
X122394128Y-98603000D01*
X121953872Y-98603000D01*
X121522075Y-98688890D01*
X121115331Y-98857369D01*
X120749271Y-99101962D01*
X120437962Y-99413271D01*
X120193369Y-99779331D01*
X120024890Y-100186075D01*
X119939000Y-100617872D01*
X118079000Y-100617872D01*
X118079000Y-96314379D01*
X118083765Y-96266000D01*
X118079000Y-96217620D01*
X118079000Y-93725224D01*
X120750381Y-93725224D01*
X120882317Y-94020312D01*
X121223045Y-94191159D01*
X121590557Y-94292250D01*
X121970729Y-94319701D01*
X122348951Y-94272457D01*
X122710690Y-94152333D01*
X122957683Y-94020312D01*
X123089619Y-93725224D01*
X121920000Y-92555605D01*
X120750381Y-93725224D01*
X118079000Y-93725224D01*
X118079000Y-92426729D01*
X119976299Y-92426729D01*
X120023543Y-92804951D01*
X120143667Y-93166690D01*
X120275688Y-93413683D01*
X120570776Y-93545619D01*
X121740395Y-92376000D01*
X122099605Y-92376000D01*
X123269224Y-93545619D01*
X123564312Y-93413683D01*
X123735159Y-93072955D01*
X123836250Y-92705443D01*
X123863701Y-92325271D01*
X123816457Y-91947049D01*
X123696333Y-91585310D01*
X123564312Y-91338317D01*
X123269224Y-91206381D01*
X122099605Y-92376000D01*
X121740395Y-92376000D01*
X120570776Y-91206381D01*
X120275688Y-91338317D01*
X120104841Y-91679045D01*
X120003750Y-92046557D01*
X119976299Y-92426729D01*
X118079000Y-92426729D01*
X118079000Y-90901000D01*
X120806616Y-90901000D01*
X120750381Y-91026776D01*
X121920000Y-92196395D01*
X123089619Y-91026776D01*
X123033384Y-90901000D01*
X123522620Y-90901000D01*
X123571000Y-90905765D01*
X123619380Y-90901000D01*
X123764094Y-90886747D01*
X123949767Y-90830424D01*
X124120884Y-90738960D01*
X124270870Y-90615870D01*
X124301716Y-90578284D01*
X125503284Y-89376716D01*
X125540870Y-89345870D01*
X125663960Y-89195884D01*
X125755424Y-89024767D01*
X125811747Y-88839094D01*
X125811747Y-88839093D01*
X125830765Y-88646001D01*
X125826000Y-88597621D01*
X125826000Y-82750779D01*
X125830765Y-82702399D01*
X125811747Y-82509305D01*
X125798459Y-82465502D01*
X125757435Y-82330263D01*
X125761185Y-82327185D01*
X125840537Y-82230494D01*
X125899502Y-82120180D01*
X125935812Y-82000482D01*
X125948072Y-81876000D01*
X125948072Y-80176000D01*
X125935812Y-80051518D01*
X125899502Y-79931820D01*
X125840537Y-79821506D01*
X125761185Y-79724815D01*
X125664494Y-79645463D01*
X125554180Y-79586498D01*
X125434482Y-79550188D01*
X125310000Y-79537928D01*
X123610000Y-79537928D01*
X123485518Y-79550188D01*
X123365820Y-79586498D01*
X123255506Y-79645463D01*
X123158815Y-79724815D01*
X123079463Y-79821506D01*
X123020498Y-79931820D01*
X122998487Y-80004380D01*
X122866632Y-79872525D01*
X122623411Y-79710010D01*
X122353158Y-79598068D01*
X122066260Y-79541000D01*
X121773740Y-79541000D01*
X121486842Y-79598068D01*
X121216589Y-79710010D01*
X120973368Y-79872525D01*
X120766525Y-80079368D01*
X120650000Y-80253760D01*
X120533475Y-80079368D01*
X120326632Y-79872525D01*
X120083411Y-79710010D01*
X119813158Y-79598068D01*
X119526260Y-79541000D01*
X119233740Y-79541000D01*
X118946842Y-79598068D01*
X118676589Y-79710010D01*
X118433368Y-79872525D01*
X118226525Y-80079368D01*
X118104805Y-80261534D01*
X118035178Y-80144645D01*
X117840269Y-79928412D01*
X117606920Y-79754359D01*
X117344099Y-79629175D01*
X117196890Y-79584524D01*
X116967000Y-79705845D01*
X116967000Y-80899000D01*
X116987000Y-80899000D01*
X116987000Y-81153000D01*
X116967000Y-81153000D01*
X116967000Y-81173000D01*
X116713000Y-81173000D01*
X116713000Y-81153000D01*
X115519186Y-81153000D01*
X115398519Y-81382891D01*
X115495843Y-81657252D01*
X115644822Y-81907355D01*
X115839731Y-82123588D01*
X116073080Y-82297641D01*
X116075513Y-82298800D01*
X114935000Y-82298800D01*
X114935000Y-80669109D01*
X115398519Y-80669109D01*
X115519186Y-80899000D01*
X116713000Y-80899000D01*
X116713000Y-79705845D01*
X116483110Y-79584524D01*
X116335901Y-79629175D01*
X116073080Y-79754359D01*
X115839731Y-79928412D01*
X115644822Y-80144645D01*
X115495843Y-80394748D01*
X115398519Y-80669109D01*
X114935000Y-80669109D01*
X114935000Y-78384400D01*
X126340001Y-78384400D01*
X126340000Y-104750000D01*
G37*
X126340000Y-104750000D02*
X115845000Y-104750000D01*
X117756290Y-102838711D01*
X117793870Y-102807870D01*
X117916960Y-102657884D01*
X118008424Y-102486767D01*
X118064747Y-102301094D01*
X118079000Y-102156380D01*
X118083765Y-102108000D01*
X118079000Y-102059620D01*
X118079000Y-100617872D01*
X119939000Y-100617872D01*
X119939000Y-101058128D01*
X120024890Y-101489925D01*
X120193369Y-101896669D01*
X120437962Y-102262729D01*
X120749271Y-102574038D01*
X121115331Y-102818631D01*
X121522075Y-102987110D01*
X121953872Y-103073000D01*
X122394128Y-103073000D01*
X122825925Y-102987110D01*
X123232669Y-102818631D01*
X123598729Y-102574038D01*
X123910038Y-102262729D01*
X124154631Y-101896669D01*
X124323110Y-101489925D01*
X124409000Y-101058128D01*
X124409000Y-100617872D01*
X124323110Y-100186075D01*
X124154631Y-99779331D01*
X123910038Y-99413271D01*
X123598729Y-99101962D01*
X123232669Y-98857369D01*
X122825925Y-98688890D01*
X122394128Y-98603000D01*
X121953872Y-98603000D01*
X121522075Y-98688890D01*
X121115331Y-98857369D01*
X120749271Y-99101962D01*
X120437962Y-99413271D01*
X120193369Y-99779331D01*
X120024890Y-100186075D01*
X119939000Y-100617872D01*
X118079000Y-100617872D01*
X118079000Y-96314379D01*
X118083765Y-96266000D01*
X118079000Y-96217620D01*
X118079000Y-93725224D01*
X120750381Y-93725224D01*
X120882317Y-94020312D01*
X121223045Y-94191159D01*
X121590557Y-94292250D01*
X121970729Y-94319701D01*
X122348951Y-94272457D01*
X122710690Y-94152333D01*
X122957683Y-94020312D01*
X123089619Y-93725224D01*
X121920000Y-92555605D01*
X120750381Y-93725224D01*
X118079000Y-93725224D01*
X118079000Y-92426729D01*
X119976299Y-92426729D01*
X120023543Y-92804951D01*
X120143667Y-93166690D01*
X120275688Y-93413683D01*
X120570776Y-93545619D01*
X121740395Y-92376000D01*
X122099605Y-92376000D01*
X123269224Y-93545619D01*
X123564312Y-93413683D01*
X123735159Y-93072955D01*
X123836250Y-92705443D01*
X123863701Y-92325271D01*
X123816457Y-91947049D01*
X123696333Y-91585310D01*
X123564312Y-91338317D01*
X123269224Y-91206381D01*
X122099605Y-92376000D01*
X121740395Y-92376000D01*
X120570776Y-91206381D01*
X120275688Y-91338317D01*
X120104841Y-91679045D01*
X120003750Y-92046557D01*
X119976299Y-92426729D01*
X118079000Y-92426729D01*
X118079000Y-90901000D01*
X120806616Y-90901000D01*
X120750381Y-91026776D01*
X121920000Y-92196395D01*
X123089619Y-91026776D01*
X123033384Y-90901000D01*
X123522620Y-90901000D01*
X123571000Y-90905765D01*
X123619380Y-90901000D01*
X123764094Y-90886747D01*
X123949767Y-90830424D01*
X124120884Y-90738960D01*
X124270870Y-90615870D01*
X124301716Y-90578284D01*
X125503284Y-89376716D01*
X125540870Y-89345870D01*
X125663960Y-89195884D01*
X125755424Y-89024767D01*
X125811747Y-88839094D01*
X125811747Y-88839093D01*
X125830765Y-88646001D01*
X125826000Y-88597621D01*
X125826000Y-82750779D01*
X125830765Y-82702399D01*
X125811747Y-82509305D01*
X125798459Y-82465502D01*
X125757435Y-82330263D01*
X125761185Y-82327185D01*
X125840537Y-82230494D01*
X125899502Y-82120180D01*
X125935812Y-82000482D01*
X125948072Y-81876000D01*
X125948072Y-80176000D01*
X125935812Y-80051518D01*
X125899502Y-79931820D01*
X125840537Y-79821506D01*
X125761185Y-79724815D01*
X125664494Y-79645463D01*
X125554180Y-79586498D01*
X125434482Y-79550188D01*
X125310000Y-79537928D01*
X123610000Y-79537928D01*
X123485518Y-79550188D01*
X123365820Y-79586498D01*
X123255506Y-79645463D01*
X123158815Y-79724815D01*
X123079463Y-79821506D01*
X123020498Y-79931820D01*
X122998487Y-80004380D01*
X122866632Y-79872525D01*
X122623411Y-79710010D01*
X122353158Y-79598068D01*
X122066260Y-79541000D01*
X121773740Y-79541000D01*
X121486842Y-79598068D01*
X121216589Y-79710010D01*
X120973368Y-79872525D01*
X120766525Y-80079368D01*
X120650000Y-80253760D01*
X120533475Y-80079368D01*
X120326632Y-79872525D01*
X120083411Y-79710010D01*
X119813158Y-79598068D01*
X119526260Y-79541000D01*
X119233740Y-79541000D01*
X118946842Y-79598068D01*
X118676589Y-79710010D01*
X118433368Y-79872525D01*
X118226525Y-80079368D01*
X118104805Y-80261534D01*
X118035178Y-80144645D01*
X117840269Y-79928412D01*
X117606920Y-79754359D01*
X117344099Y-79629175D01*
X117196890Y-79584524D01*
X116967000Y-79705845D01*
X116967000Y-80899000D01*
X116987000Y-80899000D01*
X116987000Y-81153000D01*
X116967000Y-81153000D01*
X116967000Y-81173000D01*
X116713000Y-81173000D01*
X116713000Y-81153000D01*
X115519186Y-81153000D01*
X115398519Y-81382891D01*
X115495843Y-81657252D01*
X115644822Y-81907355D01*
X115839731Y-82123588D01*
X116073080Y-82297641D01*
X116075513Y-82298800D01*
X114935000Y-82298800D01*
X114935000Y-80669109D01*
X115398519Y-80669109D01*
X115519186Y-80899000D01*
X116713000Y-80899000D01*
X116713000Y-79705845D01*
X116483110Y-79584524D01*
X116335901Y-79629175D01*
X116073080Y-79754359D01*
X115839731Y-79928412D01*
X115644822Y-80144645D01*
X115495843Y-80394748D01*
X115398519Y-80669109D01*
X114935000Y-80669109D01*
X114935000Y-78384400D01*
X126340001Y-78384400D01*
X126340000Y-104750000D01*
G36*
X94996000Y-83067128D02*
G01*
X94935506Y-83099463D01*
X94838815Y-83178815D01*
X94759463Y-83275506D01*
X94735680Y-83320000D01*
X94694821Y-83320000D01*
X94660405Y-83255613D01*
X94549962Y-83121038D01*
X94415387Y-83010595D01*
X94261851Y-82928528D01*
X94095255Y-82877992D01*
X93922001Y-82860928D01*
X93021999Y-82860928D01*
X92848745Y-82877992D01*
X92682149Y-82928528D01*
X92528613Y-83010595D01*
X92394038Y-83121038D01*
X92283595Y-83255613D01*
X92201528Y-83409149D01*
X92150992Y-83575745D01*
X92133928Y-83748999D01*
X92133928Y-83749415D01*
X91488000Y-83103488D01*
X91488000Y-82270770D01*
X91624632Y-82179475D01*
X91831475Y-81972632D01*
X91953195Y-81790466D01*
X92022822Y-81907355D01*
X92217731Y-82123588D01*
X92451080Y-82297641D01*
X92713901Y-82422825D01*
X92861110Y-82467476D01*
X93091000Y-82346155D01*
X93091000Y-81153000D01*
X93345000Y-81153000D01*
X93345000Y-82346155D01*
X93574890Y-82467476D01*
X93722099Y-82422825D01*
X93984920Y-82297641D01*
X94218269Y-82123588D01*
X94413178Y-81907355D01*
X94562157Y-81657252D01*
X94659481Y-81382891D01*
X94538814Y-81153000D01*
X93345000Y-81153000D01*
X93091000Y-81153000D01*
X93071000Y-81153000D01*
X93071000Y-80899000D01*
X93091000Y-80899000D01*
X93091000Y-79705845D01*
X93345000Y-79705845D01*
X93345000Y-80899000D01*
X94538814Y-80899000D01*
X94659481Y-80669109D01*
X94562157Y-80394748D01*
X94413178Y-80144645D01*
X94218269Y-79928412D01*
X93984920Y-79754359D01*
X93722099Y-79629175D01*
X93574890Y-79584524D01*
X93345000Y-79705845D01*
X93091000Y-79705845D01*
X92861110Y-79584524D01*
X92713901Y-79629175D01*
X92451080Y-79754359D01*
X92217731Y-79928412D01*
X92022822Y-80144645D01*
X91953195Y-80261534D01*
X91831475Y-80079368D01*
X91624632Y-79872525D01*
X91381411Y-79710010D01*
X91111158Y-79598068D01*
X90824260Y-79541000D01*
X90531740Y-79541000D01*
X90244842Y-79598068D01*
X89974589Y-79710010D01*
X89731368Y-79872525D01*
X89599513Y-80004380D01*
X89577502Y-79931820D01*
X89518537Y-79821506D01*
X89439185Y-79724815D01*
X89342494Y-79645463D01*
X89232180Y-79586498D01*
X89112482Y-79550188D01*
X88988000Y-79537928D01*
X87288000Y-79537928D01*
X87163518Y-79550188D01*
X87043820Y-79586498D01*
X86933506Y-79645463D01*
X86836815Y-79724815D01*
X86757463Y-79821506D01*
X86698498Y-79931820D01*
X86662188Y-80051518D01*
X86649928Y-80176000D01*
X86649928Y-81876000D01*
X86662188Y-82000482D01*
X86698498Y-82120180D01*
X86757463Y-82230494D01*
X86836815Y-82327185D01*
X86933506Y-82406537D01*
X87043820Y-82465502D01*
X87163518Y-82501812D01*
X87262065Y-82511518D01*
X87265805Y-82549490D01*
X87277069Y-82586621D01*
X87303801Y-82674743D01*
X87303800Y-88097951D01*
X87198742Y-88225964D01*
X87088706Y-88431826D01*
X87066680Y-88504438D01*
X87047007Y-88502500D01*
X86380593Y-88502500D01*
X86206500Y-88519647D01*
X85983126Y-88587406D01*
X85777264Y-88697442D01*
X85596825Y-88845525D01*
X85448742Y-89025964D01*
X85338706Y-89231826D01*
X85270947Y-89455200D01*
X85248067Y-89687500D01*
X85270947Y-89919800D01*
X85338706Y-90143174D01*
X85448742Y-90349036D01*
X85562377Y-90487500D01*
X85448742Y-90625964D01*
X85338706Y-90831826D01*
X85270947Y-91055200D01*
X85248067Y-91287500D01*
X85270947Y-91519800D01*
X85338706Y-91743174D01*
X85448742Y-91949036D01*
X85596825Y-92129475D01*
X85777264Y-92277558D01*
X85983126Y-92387594D01*
X86206500Y-92455353D01*
X86380593Y-92472500D01*
X87047007Y-92472500D01*
X87064452Y-92470782D01*
X87132950Y-92640254D01*
X87261075Y-92835619D01*
X87424852Y-93002234D01*
X87617987Y-93133696D01*
X87833058Y-93224954D01*
X88061800Y-93272500D01*
X88284500Y-93272500D01*
X86468716Y-95088284D01*
X86431130Y-95119130D01*
X86308040Y-95269116D01*
X86244974Y-95387105D01*
X86178038Y-95442038D01*
X86172658Y-95448594D01*
X86107185Y-95368815D01*
X86010494Y-95289463D01*
X85900180Y-95230498D01*
X85780482Y-95194188D01*
X85656000Y-95181928D01*
X85366750Y-95185000D01*
X85208000Y-95343750D01*
X85208000Y-96393000D01*
X85228000Y-96393000D01*
X85228000Y-96647000D01*
X85208000Y-96647000D01*
X85208000Y-97696250D01*
X85366750Y-97855000D01*
X85656000Y-97858072D01*
X85780482Y-97845812D01*
X85900180Y-97809502D01*
X86010494Y-97750537D01*
X86107185Y-97671185D01*
X86172658Y-97591406D01*
X86178038Y-97597962D01*
X86288777Y-97688843D01*
X86308041Y-97724884D01*
X86431131Y-97874870D01*
X86468711Y-97905711D01*
X87110203Y-98547204D01*
X87109928Y-98550000D01*
X87109928Y-100050000D01*
X87122188Y-100174482D01*
X87158498Y-100294180D01*
X87217463Y-100404494D01*
X87254809Y-100450000D01*
X87217463Y-100495506D01*
X87158498Y-100605820D01*
X87155713Y-100615000D01*
X84086072Y-100615000D01*
X84086072Y-99700000D01*
X84073812Y-99575518D01*
X84037502Y-99455820D01*
X83978537Y-99345506D01*
X83899185Y-99248815D01*
X83802494Y-99169463D01*
X83692180Y-99110498D01*
X83572482Y-99074188D01*
X83448000Y-99061928D01*
X81448000Y-99061928D01*
X81323518Y-99074188D01*
X81203820Y-99110498D01*
X81093506Y-99169463D01*
X80996815Y-99248815D01*
X80917463Y-99345506D01*
X80858498Y-99455820D01*
X80822188Y-99575518D01*
X80809928Y-99700000D01*
X80809928Y-103500000D01*
X80822188Y-103624482D01*
X80858498Y-103744180D01*
X80917463Y-103854494D01*
X80996815Y-103951185D01*
X81093506Y-104030537D01*
X81203820Y-104089502D01*
X81323518Y-104125812D01*
X81448000Y-104138072D01*
X83448000Y-104138072D01*
X83572482Y-104125812D01*
X83692180Y-104089502D01*
X83802494Y-104030537D01*
X83899185Y-103951185D01*
X83978537Y-103854494D01*
X84037502Y-103744180D01*
X84073812Y-103624482D01*
X84086072Y-103500000D01*
X84086072Y-102585000D01*
X87155713Y-102585000D01*
X87158498Y-102594180D01*
X87217463Y-102704494D01*
X87254809Y-102750000D01*
X87217463Y-102795506D01*
X87158498Y-102905820D01*
X87122188Y-103025518D01*
X87109928Y-103150000D01*
X87113000Y-103614250D01*
X87271750Y-103773000D01*
X88621000Y-103773000D01*
X88621000Y-103753000D01*
X88875000Y-103753000D01*
X88875000Y-103773000D01*
X90224250Y-103773000D01*
X90383000Y-103614250D01*
X90384477Y-103391000D01*
X91196928Y-103391000D01*
X91200000Y-103817750D01*
X91358750Y-103976500D01*
X92583000Y-103976500D01*
X92583000Y-102914750D01*
X92837000Y-102914750D01*
X92837000Y-103976500D01*
X94061250Y-103976500D01*
X94220000Y-103817750D01*
X94223072Y-103391000D01*
X94210812Y-103266518D01*
X94174502Y-103146820D01*
X94115537Y-103036506D01*
X94036185Y-102939815D01*
X93939494Y-102860463D01*
X93829180Y-102801498D01*
X93709482Y-102765188D01*
X93585000Y-102752928D01*
X92995750Y-102756000D01*
X92837000Y-102914750D01*
X92583000Y-102914750D01*
X92424250Y-102756000D01*
X91835000Y-102752928D01*
X91710518Y-102765188D01*
X91590820Y-102801498D01*
X91480506Y-102860463D01*
X91383815Y-102939815D01*
X91304463Y-103036506D01*
X91245498Y-103146820D01*
X91209188Y-103266518D01*
X91196928Y-103391000D01*
X90384477Y-103391000D01*
X90386072Y-103150000D01*
X90373812Y-103025518D01*
X90337502Y-102905820D01*
X90278537Y-102795506D01*
X90241191Y-102750000D01*
X90278537Y-102704494D01*
X90337502Y-102594180D01*
X90340287Y-102585000D01*
X92190120Y-102585000D01*
X92238500Y-102589765D01*
X92286880Y-102585000D01*
X92431594Y-102570747D01*
X92617267Y-102514424D01*
X92683406Y-102479072D01*
X93335000Y-102479072D01*
X93508254Y-102462008D01*
X93674850Y-102411472D01*
X93828386Y-102329405D01*
X93962962Y-102218962D01*
X94049512Y-102113500D01*
X94116500Y-102113500D01*
X94523928Y-102520928D01*
X94523928Y-103466000D01*
X94536188Y-103590482D01*
X94572498Y-103710180D01*
X94631463Y-103820494D01*
X94710815Y-103917185D01*
X94807506Y-103996537D01*
X94917820Y-104055502D01*
X95037518Y-104091812D01*
X95162000Y-104104072D01*
X95913585Y-104104072D01*
X96012000Y-104113765D01*
X96107372Y-104104372D01*
X96753000Y-104750000D01*
X94222597Y-104750000D01*
X94220000Y-104389250D01*
X94061250Y-104230500D01*
X92837000Y-104230500D01*
X92837000Y-104250500D01*
X92583000Y-104250500D01*
X92583000Y-104230500D01*
X91358750Y-104230500D01*
X91200000Y-104389250D01*
X91197403Y-104750000D01*
X90376223Y-104750000D01*
X90386072Y-104650000D01*
X90383000Y-104185750D01*
X90224250Y-104027000D01*
X88875000Y-104027000D01*
X88875000Y-104047000D01*
X88621000Y-104047000D01*
X88621000Y-104027000D01*
X87271750Y-104027000D01*
X87113000Y-104185750D01*
X87109928Y-104650000D01*
X87119777Y-104750000D01*
X79908000Y-104750000D01*
X79908000Y-97220000D01*
X83867928Y-97220000D01*
X83880188Y-97344482D01*
X83916498Y-97464180D01*
X83975463Y-97574494D01*
X84054815Y-97671185D01*
X84151506Y-97750537D01*
X84261820Y-97809502D01*
X84381518Y-97845812D01*
X84506000Y-97858072D01*
X84795250Y-97855000D01*
X84954000Y-97696250D01*
X84954000Y-96647000D01*
X84029750Y-96647000D01*
X83871000Y-96805750D01*
X83867928Y-97220000D01*
X79908000Y-97220000D01*
X79908000Y-94494390D01*
X81197324Y-94494390D01*
X81218237Y-94588453D01*
X81333509Y-94856926D01*
X81498943Y-95097752D01*
X81708181Y-95301676D01*
X81953182Y-95460861D01*
X82224531Y-95569190D01*
X82511800Y-95622500D01*
X83011800Y-95622500D01*
X83011800Y-94264500D01*
X83265800Y-94264500D01*
X83265800Y-95622500D01*
X83765800Y-95622500D01*
X83910482Y-95595651D01*
X83880188Y-95695518D01*
X83867928Y-95820000D01*
X83871000Y-96234250D01*
X84029750Y-96393000D01*
X84954000Y-96393000D01*
X84954000Y-95343750D01*
X84795250Y-95185000D01*
X84690279Y-95183885D01*
X84778657Y-95097752D01*
X84944091Y-94856926D01*
X85059363Y-94588453D01*
X85080276Y-94494390D01*
X84958955Y-94264500D01*
X83265800Y-94264500D01*
X83011800Y-94264500D01*
X81318645Y-94264500D01*
X81197324Y-94494390D01*
X79908000Y-94494390D01*
X79908000Y-93780610D01*
X81197324Y-93780610D01*
X81318645Y-94010500D01*
X83011800Y-94010500D01*
X83011800Y-92652500D01*
X83265800Y-92652500D01*
X83265800Y-94010500D01*
X84958955Y-94010500D01*
X85080276Y-93780610D01*
X85059363Y-93686547D01*
X84944091Y-93418074D01*
X84778657Y-93177248D01*
X84569419Y-92973324D01*
X84324418Y-92814139D01*
X84053069Y-92705810D01*
X83765800Y-92652500D01*
X83265800Y-92652500D01*
X83011800Y-92652500D01*
X82511800Y-92652500D01*
X82224531Y-92705810D01*
X81953182Y-92814139D01*
X81708181Y-92973324D01*
X81498943Y-93177248D01*
X81333509Y-93418074D01*
X81218237Y-93686547D01*
X81197324Y-93780610D01*
X79908000Y-93780610D01*
X79908000Y-87194390D01*
X81197324Y-87194390D01*
X81218237Y-87288453D01*
X81333509Y-87556926D01*
X81498943Y-87797752D01*
X81708181Y-88001676D01*
X81953182Y-88160861D01*
X82224531Y-88269190D01*
X82511800Y-88322500D01*
X83011800Y-88322500D01*
X83011800Y-86964500D01*
X83265800Y-86964500D01*
X83265800Y-88322500D01*
X83765800Y-88322500D01*
X84053069Y-88269190D01*
X84324418Y-88160861D01*
X84569419Y-88001676D01*
X84778657Y-87797752D01*
X84944091Y-87556926D01*
X85059363Y-87288453D01*
X85080276Y-87194390D01*
X84958955Y-86964500D01*
X83265800Y-86964500D01*
X83011800Y-86964500D01*
X81318645Y-86964500D01*
X81197324Y-87194390D01*
X79908000Y-87194390D01*
X79908000Y-86480610D01*
X81197324Y-86480610D01*
X81318645Y-86710500D01*
X83011800Y-86710500D01*
X83011800Y-85352500D01*
X83265800Y-85352500D01*
X83265800Y-86710500D01*
X84958955Y-86710500D01*
X85080276Y-86480610D01*
X85059363Y-86386547D01*
X84944091Y-86118074D01*
X84778657Y-85877248D01*
X84569419Y-85673324D01*
X84324418Y-85514139D01*
X84053069Y-85405810D01*
X83765800Y-85352500D01*
X83265800Y-85352500D01*
X83011800Y-85352500D01*
X82511800Y-85352500D01*
X82224531Y-85405810D01*
X81953182Y-85514139D01*
X81708181Y-85673324D01*
X81498943Y-85877248D01*
X81333509Y-86118074D01*
X81218237Y-86386547D01*
X81197324Y-86480610D01*
X79908000Y-86480610D01*
X79908000Y-80551872D01*
X80442000Y-80551872D01*
X80442000Y-80992128D01*
X80527890Y-81423925D01*
X80696369Y-81830669D01*
X80940962Y-82196729D01*
X81252271Y-82508038D01*
X81618331Y-82752631D01*
X82025075Y-82921110D01*
X82456872Y-83007000D01*
X82897128Y-83007000D01*
X83328925Y-82921110D01*
X83735669Y-82752631D01*
X84101729Y-82508038D01*
X84413038Y-82196729D01*
X84657631Y-81830669D01*
X84826110Y-81423925D01*
X84912000Y-80992128D01*
X84912000Y-80551872D01*
X84826110Y-80120075D01*
X84657631Y-79713331D01*
X84413038Y-79347271D01*
X84101729Y-79035962D01*
X83735669Y-78791369D01*
X83328925Y-78622890D01*
X82897128Y-78537000D01*
X82456872Y-78537000D01*
X82025075Y-78622890D01*
X81618331Y-78791369D01*
X81252271Y-79035962D01*
X80940962Y-79347271D01*
X80696369Y-79713331D01*
X80527890Y-80120075D01*
X80442000Y-80551872D01*
X79908000Y-80551872D01*
X79908000Y-78384000D01*
X94996000Y-78384000D01*
X94996000Y-83067128D01*
G37*
X94996000Y-83067128D02*
X94935506Y-83099463D01*
X94838815Y-83178815D01*
X94759463Y-83275506D01*
X94735680Y-83320000D01*
X94694821Y-83320000D01*
X94660405Y-83255613D01*
X94549962Y-83121038D01*
X94415387Y-83010595D01*
X94261851Y-82928528D01*
X94095255Y-82877992D01*
X93922001Y-82860928D01*
X93021999Y-82860928D01*
X92848745Y-82877992D01*
X92682149Y-82928528D01*
X92528613Y-83010595D01*
X92394038Y-83121038D01*
X92283595Y-83255613D01*
X92201528Y-83409149D01*
X92150992Y-83575745D01*
X92133928Y-83748999D01*
X92133928Y-83749415D01*
X91488000Y-83103488D01*
X91488000Y-82270770D01*
X91624632Y-82179475D01*
X91831475Y-81972632D01*
X91953195Y-81790466D01*
X92022822Y-81907355D01*
X92217731Y-82123588D01*
X92451080Y-82297641D01*
X92713901Y-82422825D01*
X92861110Y-82467476D01*
X93091000Y-82346155D01*
X93091000Y-81153000D01*
X93345000Y-81153000D01*
X93345000Y-82346155D01*
X93574890Y-82467476D01*
X93722099Y-82422825D01*
X93984920Y-82297641D01*
X94218269Y-82123588D01*
X94413178Y-81907355D01*
X94562157Y-81657252D01*
X94659481Y-81382891D01*
X94538814Y-81153000D01*
X93345000Y-81153000D01*
X93091000Y-81153000D01*
X93071000Y-81153000D01*
X93071000Y-80899000D01*
X93091000Y-80899000D01*
X93091000Y-79705845D01*
X93345000Y-79705845D01*
X93345000Y-80899000D01*
X94538814Y-80899000D01*
X94659481Y-80669109D01*
X94562157Y-80394748D01*
X94413178Y-80144645D01*
X94218269Y-79928412D01*
X93984920Y-79754359D01*
X93722099Y-79629175D01*
X93574890Y-79584524D01*
X93345000Y-79705845D01*
X93091000Y-79705845D01*
X92861110Y-79584524D01*
X92713901Y-79629175D01*
X92451080Y-79754359D01*
X92217731Y-79928412D01*
X92022822Y-80144645D01*
X91953195Y-80261534D01*
X91831475Y-80079368D01*
X91624632Y-79872525D01*
X91381411Y-79710010D01*
X91111158Y-79598068D01*
X90824260Y-79541000D01*
X90531740Y-79541000D01*
X90244842Y-79598068D01*
X89974589Y-79710010D01*
X89731368Y-79872525D01*
X89599513Y-80004380D01*
X89577502Y-79931820D01*
X89518537Y-79821506D01*
X89439185Y-79724815D01*
X89342494Y-79645463D01*
X89232180Y-79586498D01*
X89112482Y-79550188D01*
X88988000Y-79537928D01*
X87288000Y-79537928D01*
X87163518Y-79550188D01*
X87043820Y-79586498D01*
X86933506Y-79645463D01*
X86836815Y-79724815D01*
X86757463Y-79821506D01*
X86698498Y-79931820D01*
X86662188Y-80051518D01*
X86649928Y-80176000D01*
X86649928Y-81876000D01*
X86662188Y-82000482D01*
X86698498Y-82120180D01*
X86757463Y-82230494D01*
X86836815Y-82327185D01*
X86933506Y-82406537D01*
X87043820Y-82465502D01*
X87163518Y-82501812D01*
X87262065Y-82511518D01*
X87265805Y-82549490D01*
X87277069Y-82586621D01*
X87303801Y-82674743D01*
X87303800Y-88097951D01*
X87198742Y-88225964D01*
X87088706Y-88431826D01*
X87066680Y-88504438D01*
X87047007Y-88502500D01*
X86380593Y-88502500D01*
X86206500Y-88519647D01*
X85983126Y-88587406D01*
X85777264Y-88697442D01*
X85596825Y-88845525D01*
X85448742Y-89025964D01*
X85338706Y-89231826D01*
X85270947Y-89455200D01*
X85248067Y-89687500D01*
X85270947Y-89919800D01*
X85338706Y-90143174D01*
X85448742Y-90349036D01*
X85562377Y-90487500D01*
X85448742Y-90625964D01*
X85338706Y-90831826D01*
X85270947Y-91055200D01*
X85248067Y-91287500D01*
X85270947Y-91519800D01*
X85338706Y-91743174D01*
X85448742Y-91949036D01*
X85596825Y-92129475D01*
X85777264Y-92277558D01*
X85983126Y-92387594D01*
X86206500Y-92455353D01*
X86380593Y-92472500D01*
X87047007Y-92472500D01*
X87064452Y-92470782D01*
X87132950Y-92640254D01*
X87261075Y-92835619D01*
X87424852Y-93002234D01*
X87617987Y-93133696D01*
X87833058Y-93224954D01*
X88061800Y-93272500D01*
X88284500Y-93272500D01*
X86468716Y-95088284D01*
X86431130Y-95119130D01*
X86308040Y-95269116D01*
X86244974Y-95387105D01*
X86178038Y-95442038D01*
X86172658Y-95448594D01*
X86107185Y-95368815D01*
X86010494Y-95289463D01*
X85900180Y-95230498D01*
X85780482Y-95194188D01*
X85656000Y-95181928D01*
X85366750Y-95185000D01*
X85208000Y-95343750D01*
X85208000Y-96393000D01*
X85228000Y-96393000D01*
X85228000Y-96647000D01*
X85208000Y-96647000D01*
X85208000Y-97696250D01*
X85366750Y-97855000D01*
X85656000Y-97858072D01*
X85780482Y-97845812D01*
X85900180Y-97809502D01*
X86010494Y-97750537D01*
X86107185Y-97671185D01*
X86172658Y-97591406D01*
X86178038Y-97597962D01*
X86288777Y-97688843D01*
X86308041Y-97724884D01*
X86431131Y-97874870D01*
X86468711Y-97905711D01*
X87110203Y-98547204D01*
X87109928Y-98550000D01*
X87109928Y-100050000D01*
X87122188Y-100174482D01*
X87158498Y-100294180D01*
X87217463Y-100404494D01*
X87254809Y-100450000D01*
X87217463Y-100495506D01*
X87158498Y-100605820D01*
X87155713Y-100615000D01*
X84086072Y-100615000D01*
X84086072Y-99700000D01*
X84073812Y-99575518D01*
X84037502Y-99455820D01*
X83978537Y-99345506D01*
X83899185Y-99248815D01*
X83802494Y-99169463D01*
X83692180Y-99110498D01*
X83572482Y-99074188D01*
X83448000Y-99061928D01*
X81448000Y-99061928D01*
X81323518Y-99074188D01*
X81203820Y-99110498D01*
X81093506Y-99169463D01*
X80996815Y-99248815D01*
X80917463Y-99345506D01*
X80858498Y-99455820D01*
X80822188Y-99575518D01*
X80809928Y-99700000D01*
X80809928Y-103500000D01*
X80822188Y-103624482D01*
X80858498Y-103744180D01*
X80917463Y-103854494D01*
X80996815Y-103951185D01*
X81093506Y-104030537D01*
X81203820Y-104089502D01*
X81323518Y-104125812D01*
X81448000Y-104138072D01*
X83448000Y-104138072D01*
X83572482Y-104125812D01*
X83692180Y-104089502D01*
X83802494Y-104030537D01*
X83899185Y-103951185D01*
X83978537Y-103854494D01*
X84037502Y-103744180D01*
X84073812Y-103624482D01*
X84086072Y-103500000D01*
X84086072Y-102585000D01*
X87155713Y-102585000D01*
X87158498Y-102594180D01*
X87217463Y-102704494D01*
X87254809Y-102750000D01*
X87217463Y-102795506D01*
X87158498Y-102905820D01*
X87122188Y-103025518D01*
X87109928Y-103150000D01*
X87113000Y-103614250D01*
X87271750Y-103773000D01*
X88621000Y-103773000D01*
X88621000Y-103753000D01*
X88875000Y-103753000D01*
X88875000Y-103773000D01*
X90224250Y-103773000D01*
X90383000Y-103614250D01*
X90384477Y-103391000D01*
X91196928Y-103391000D01*
X91200000Y-103817750D01*
X91358750Y-103976500D01*
X92583000Y-103976500D01*
X92583000Y-102914750D01*
X92837000Y-102914750D01*
X92837000Y-103976500D01*
X94061250Y-103976500D01*
X94220000Y-103817750D01*
X94223072Y-103391000D01*
X94210812Y-103266518D01*
X94174502Y-103146820D01*
X94115537Y-103036506D01*
X94036185Y-102939815D01*
X93939494Y-102860463D01*
X93829180Y-102801498D01*
X93709482Y-102765188D01*
X93585000Y-102752928D01*
X92995750Y-102756000D01*
X92837000Y-102914750D01*
X92583000Y-102914750D01*
X92424250Y-102756000D01*
X91835000Y-102752928D01*
X91710518Y-102765188D01*
X91590820Y-102801498D01*
X91480506Y-102860463D01*
X91383815Y-102939815D01*
X91304463Y-103036506D01*
X91245498Y-103146820D01*
X91209188Y-103266518D01*
X91196928Y-103391000D01*
X90384477Y-103391000D01*
X90386072Y-103150000D01*
X90373812Y-103025518D01*
X90337502Y-102905820D01*
X90278537Y-102795506D01*
X90241191Y-102750000D01*
X90278537Y-102704494D01*
X90337502Y-102594180D01*
X90340287Y-102585000D01*
X92190120Y-102585000D01*
X92238500Y-102589765D01*
X92286880Y-102585000D01*
X92431594Y-102570747D01*
X92617267Y-102514424D01*
X92683406Y-102479072D01*
X93335000Y-102479072D01*
X93508254Y-102462008D01*
X93674850Y-102411472D01*
X93828386Y-102329405D01*
X93962962Y-102218962D01*
X94049512Y-102113500D01*
X94116500Y-102113500D01*
X94523928Y-102520928D01*
X94523928Y-103466000D01*
X94536188Y-103590482D01*
X94572498Y-103710180D01*
X94631463Y-103820494D01*
X94710815Y-103917185D01*
X94807506Y-103996537D01*
X94917820Y-104055502D01*
X95037518Y-104091812D01*
X95162000Y-104104072D01*
X95913585Y-104104072D01*
X96012000Y-104113765D01*
X96107372Y-104104372D01*
X96753000Y-104750000D01*
X94222597Y-104750000D01*
X94220000Y-104389250D01*
X94061250Y-104230500D01*
X92837000Y-104230500D01*
X92837000Y-104250500D01*
X92583000Y-104250500D01*
X92583000Y-104230500D01*
X91358750Y-104230500D01*
X91200000Y-104389250D01*
X91197403Y-104750000D01*
X90376223Y-104750000D01*
X90386072Y-104650000D01*
X90383000Y-104185750D01*
X90224250Y-104027000D01*
X88875000Y-104027000D01*
X88875000Y-104047000D01*
X88621000Y-104047000D01*
X88621000Y-104027000D01*
X87271750Y-104027000D01*
X87113000Y-104185750D01*
X87109928Y-104650000D01*
X87119777Y-104750000D01*
X79908000Y-104750000D01*
X79908000Y-97220000D01*
X83867928Y-97220000D01*
X83880188Y-97344482D01*
X83916498Y-97464180D01*
X83975463Y-97574494D01*
X84054815Y-97671185D01*
X84151506Y-97750537D01*
X84261820Y-97809502D01*
X84381518Y-97845812D01*
X84506000Y-97858072D01*
X84795250Y-97855000D01*
X84954000Y-97696250D01*
X84954000Y-96647000D01*
X84029750Y-96647000D01*
X83871000Y-96805750D01*
X83867928Y-97220000D01*
X79908000Y-97220000D01*
X79908000Y-94494390D01*
X81197324Y-94494390D01*
X81218237Y-94588453D01*
X81333509Y-94856926D01*
X81498943Y-95097752D01*
X81708181Y-95301676D01*
X81953182Y-95460861D01*
X82224531Y-95569190D01*
X82511800Y-95622500D01*
X83011800Y-95622500D01*
X83011800Y-94264500D01*
X83265800Y-94264500D01*
X83265800Y-95622500D01*
X83765800Y-95622500D01*
X83910482Y-95595651D01*
X83880188Y-95695518D01*
X83867928Y-95820000D01*
X83871000Y-96234250D01*
X84029750Y-96393000D01*
X84954000Y-96393000D01*
X84954000Y-95343750D01*
X84795250Y-95185000D01*
X84690279Y-95183885D01*
X84778657Y-95097752D01*
X84944091Y-94856926D01*
X85059363Y-94588453D01*
X85080276Y-94494390D01*
X84958955Y-94264500D01*
X83265800Y-94264500D01*
X83011800Y-94264500D01*
X81318645Y-94264500D01*
X81197324Y-94494390D01*
X79908000Y-94494390D01*
X79908000Y-93780610D01*
X81197324Y-93780610D01*
X81318645Y-94010500D01*
X83011800Y-94010500D01*
X83011800Y-92652500D01*
X83265800Y-92652500D01*
X83265800Y-94010500D01*
X84958955Y-94010500D01*
X85080276Y-93780610D01*
X85059363Y-93686547D01*
X84944091Y-93418074D01*
X84778657Y-93177248D01*
X84569419Y-92973324D01*
X84324418Y-92814139D01*
X84053069Y-92705810D01*
X83765800Y-92652500D01*
X83265800Y-92652500D01*
X83011800Y-92652500D01*
X82511800Y-92652500D01*
X82224531Y-92705810D01*
X81953182Y-92814139D01*
X81708181Y-92973324D01*
X81498943Y-93177248D01*
X81333509Y-93418074D01*
X81218237Y-93686547D01*
X81197324Y-93780610D01*
X79908000Y-93780610D01*
X79908000Y-87194390D01*
X81197324Y-87194390D01*
X81218237Y-87288453D01*
X81333509Y-87556926D01*
X81498943Y-87797752D01*
X81708181Y-88001676D01*
X81953182Y-88160861D01*
X82224531Y-88269190D01*
X82511800Y-88322500D01*
X83011800Y-88322500D01*
X83011800Y-86964500D01*
X83265800Y-86964500D01*
X83265800Y-88322500D01*
X83765800Y-88322500D01*
X84053069Y-88269190D01*
X84324418Y-88160861D01*
X84569419Y-88001676D01*
X84778657Y-87797752D01*
X84944091Y-87556926D01*
X85059363Y-87288453D01*
X85080276Y-87194390D01*
X84958955Y-86964500D01*
X83265800Y-86964500D01*
X83011800Y-86964500D01*
X81318645Y-86964500D01*
X81197324Y-87194390D01*
X79908000Y-87194390D01*
X79908000Y-86480610D01*
X81197324Y-86480610D01*
X81318645Y-86710500D01*
X83011800Y-86710500D01*
X83011800Y-85352500D01*
X83265800Y-85352500D01*
X83265800Y-86710500D01*
X84958955Y-86710500D01*
X85080276Y-86480610D01*
X85059363Y-86386547D01*
X84944091Y-86118074D01*
X84778657Y-85877248D01*
X84569419Y-85673324D01*
X84324418Y-85514139D01*
X84053069Y-85405810D01*
X83765800Y-85352500D01*
X83265800Y-85352500D01*
X83011800Y-85352500D01*
X82511800Y-85352500D01*
X82224531Y-85405810D01*
X81953182Y-85514139D01*
X81708181Y-85673324D01*
X81498943Y-85877248D01*
X81333509Y-86118074D01*
X81218237Y-86386547D01*
X81197324Y-86480610D01*
X79908000Y-86480610D01*
X79908000Y-80551872D01*
X80442000Y-80551872D01*
X80442000Y-80992128D01*
X80527890Y-81423925D01*
X80696369Y-81830669D01*
X80940962Y-82196729D01*
X81252271Y-82508038D01*
X81618331Y-82752631D01*
X82025075Y-82921110D01*
X82456872Y-83007000D01*
X82897128Y-83007000D01*
X83328925Y-82921110D01*
X83735669Y-82752631D01*
X84101729Y-82508038D01*
X84413038Y-82196729D01*
X84657631Y-81830669D01*
X84826110Y-81423925D01*
X84912000Y-80992128D01*
X84912000Y-80551872D01*
X84826110Y-80120075D01*
X84657631Y-79713331D01*
X84413038Y-79347271D01*
X84101729Y-79035962D01*
X83735669Y-78791369D01*
X83328925Y-78622890D01*
X82897128Y-78537000D01*
X82456872Y-78537000D01*
X82025075Y-78622890D01*
X81618331Y-78791369D01*
X81252271Y-79035962D01*
X80940962Y-79347271D01*
X80696369Y-79713331D01*
X80527890Y-80120075D01*
X80442000Y-80551872D01*
X79908000Y-80551872D01*
X79908000Y-78384000D01*
X94996000Y-78384000D01*
X94996000Y-83067128D01*
G36*
X111867000Y-98003000D02*
G01*
X111887000Y-98003000D01*
X111887000Y-98257000D01*
X111867000Y-98257000D01*
X111867000Y-99106250D01*
X112025750Y-99265000D01*
X112990000Y-99268072D01*
X113114482Y-99255812D01*
X113234180Y-99219502D01*
X113344494Y-99160537D01*
X113441185Y-99081185D01*
X113520537Y-98984494D01*
X113579502Y-98874180D01*
X113615812Y-98754482D01*
X113628072Y-98630000D01*
X113625000Y-98415750D01*
X113466252Y-98257002D01*
X113471489Y-98257002D01*
X113993271Y-98778784D01*
X113994992Y-98796255D01*
X114045528Y-98962851D01*
X114127595Y-99116387D01*
X114238038Y-99250962D01*
X114244594Y-99256342D01*
X114164815Y-99321815D01*
X114085463Y-99418506D01*
X114026498Y-99528820D01*
X113990188Y-99648518D01*
X113977928Y-99773000D01*
X113981000Y-100062250D01*
X114139750Y-100221000D01*
X115189000Y-100221000D01*
X115189000Y-100201000D01*
X115443000Y-100201000D01*
X115443000Y-100221000D01*
X115463000Y-100221000D01*
X115463000Y-100475000D01*
X115443000Y-100475000D01*
X115443000Y-101399250D01*
X115601750Y-101558000D01*
X116016000Y-101561072D01*
X116109001Y-101551913D01*
X116109001Y-101699998D01*
X114159010Y-103649990D01*
X113979760Y-103649990D01*
X113997812Y-103590482D01*
X114010072Y-103466000D01*
X114010072Y-101766000D01*
X113997812Y-101641518D01*
X113961502Y-101521820D01*
X113902537Y-101411506D01*
X113823185Y-101314815D01*
X113726494Y-101235463D01*
X113616180Y-101176498D01*
X113496482Y-101140188D01*
X113372000Y-101127928D01*
X111672000Y-101127928D01*
X111547518Y-101140188D01*
X111427820Y-101176498D01*
X111317506Y-101235463D01*
X111220815Y-101314815D01*
X111141463Y-101411506D01*
X111082498Y-101521820D01*
X111060487Y-101594380D01*
X110928632Y-101462525D01*
X110685411Y-101300010D01*
X110415158Y-101188068D01*
X110128260Y-101131000D01*
X109846276Y-101131000D01*
X109884180Y-101119502D01*
X109994494Y-101060537D01*
X110091185Y-100981185D01*
X110138936Y-100923000D01*
X113977928Y-100923000D01*
X113990188Y-101047482D01*
X114026498Y-101167180D01*
X114085463Y-101277494D01*
X114164815Y-101374185D01*
X114261506Y-101453537D01*
X114371820Y-101512502D01*
X114491518Y-101548812D01*
X114616000Y-101561072D01*
X115030250Y-101558000D01*
X115189000Y-101399250D01*
X115189000Y-100475000D01*
X114139750Y-100475000D01*
X113981000Y-100633750D01*
X113977928Y-100923000D01*
X110138936Y-100923000D01*
X110170537Y-100884494D01*
X110229502Y-100774180D01*
X110265812Y-100654482D01*
X110278072Y-100530000D01*
X110278072Y-99229286D01*
X110365518Y-99255812D01*
X110490000Y-99268072D01*
X111454250Y-99265000D01*
X111613000Y-99106250D01*
X111613000Y-98257000D01*
X111593000Y-98257000D01*
X111593000Y-98003000D01*
X111613000Y-98003000D01*
X111613000Y-97983000D01*
X111867000Y-97983000D01*
X111867000Y-98003000D01*
G37*
X111867000Y-98003000D02*
X111887000Y-98003000D01*
X111887000Y-98257000D01*
X111867000Y-98257000D01*
X111867000Y-99106250D01*
X112025750Y-99265000D01*
X112990000Y-99268072D01*
X113114482Y-99255812D01*
X113234180Y-99219502D01*
X113344494Y-99160537D01*
X113441185Y-99081185D01*
X113520537Y-98984494D01*
X113579502Y-98874180D01*
X113615812Y-98754482D01*
X113628072Y-98630000D01*
X113625000Y-98415750D01*
X113466252Y-98257002D01*
X113471489Y-98257002D01*
X113993271Y-98778784D01*
X113994992Y-98796255D01*
X114045528Y-98962851D01*
X114127595Y-99116387D01*
X114238038Y-99250962D01*
X114244594Y-99256342D01*
X114164815Y-99321815D01*
X114085463Y-99418506D01*
X114026498Y-99528820D01*
X113990188Y-99648518D01*
X113977928Y-99773000D01*
X113981000Y-100062250D01*
X114139750Y-100221000D01*
X115189000Y-100221000D01*
X115189000Y-100201000D01*
X115443000Y-100201000D01*
X115443000Y-100221000D01*
X115463000Y-100221000D01*
X115463000Y-100475000D01*
X115443000Y-100475000D01*
X115443000Y-101399250D01*
X115601750Y-101558000D01*
X116016000Y-101561072D01*
X116109001Y-101551913D01*
X116109001Y-101699998D01*
X114159010Y-103649990D01*
X113979760Y-103649990D01*
X113997812Y-103590482D01*
X114010072Y-103466000D01*
X114010072Y-101766000D01*
X113997812Y-101641518D01*
X113961502Y-101521820D01*
X113902537Y-101411506D01*
X113823185Y-101314815D01*
X113726494Y-101235463D01*
X113616180Y-101176498D01*
X113496482Y-101140188D01*
X113372000Y-101127928D01*
X111672000Y-101127928D01*
X111547518Y-101140188D01*
X111427820Y-101176498D01*
X111317506Y-101235463D01*
X111220815Y-101314815D01*
X111141463Y-101411506D01*
X111082498Y-101521820D01*
X111060487Y-101594380D01*
X110928632Y-101462525D01*
X110685411Y-101300010D01*
X110415158Y-101188068D01*
X110128260Y-101131000D01*
X109846276Y-101131000D01*
X109884180Y-101119502D01*
X109994494Y-101060537D01*
X110091185Y-100981185D01*
X110138936Y-100923000D01*
X113977928Y-100923000D01*
X113990188Y-101047482D01*
X114026498Y-101167180D01*
X114085463Y-101277494D01*
X114164815Y-101374185D01*
X114261506Y-101453537D01*
X114371820Y-101512502D01*
X114491518Y-101548812D01*
X114616000Y-101561072D01*
X115030250Y-101558000D01*
X115189000Y-101399250D01*
X115189000Y-100475000D01*
X114139750Y-100475000D01*
X113981000Y-100633750D01*
X113977928Y-100923000D01*
X110138936Y-100923000D01*
X110170537Y-100884494D01*
X110229502Y-100774180D01*
X110265812Y-100654482D01*
X110278072Y-100530000D01*
X110278072Y-99229286D01*
X110365518Y-99255812D01*
X110490000Y-99268072D01*
X111454250Y-99265000D01*
X111613000Y-99106250D01*
X111613000Y-98257000D01*
X111593000Y-98257000D01*
X111593000Y-98003000D01*
X111613000Y-98003000D01*
X111613000Y-97983000D01*
X111867000Y-97983000D01*
X111867000Y-98003000D01*
G36*
X106188815Y-100981185D02*
G01*
X106285506Y-101060537D01*
X106395820Y-101119502D01*
X106515518Y-101155812D01*
X106640000Y-101168072D01*
X107314998Y-101168072D01*
X107314998Y-101295844D01*
X107085110Y-101174524D01*
X106937901Y-101219175D01*
X106675080Y-101344359D01*
X106441731Y-101518412D01*
X106246822Y-101734645D01*
X106097843Y-101984748D01*
X106000519Y-102259109D01*
X106121186Y-102489000D01*
X107315000Y-102489000D01*
X107315000Y-102469000D01*
X107569000Y-102469000D01*
X107569000Y-102489000D01*
X107589000Y-102489000D01*
X107589000Y-102743000D01*
X107569000Y-102743000D01*
X107569000Y-102763000D01*
X107315000Y-102763000D01*
X107315000Y-102743000D01*
X106121186Y-102743000D01*
X106000519Y-102972891D01*
X106097843Y-103247252D01*
X106246822Y-103497355D01*
X106384405Y-103649990D01*
X104689595Y-103649990D01*
X104827178Y-103497355D01*
X104976157Y-103247252D01*
X105073481Y-102972891D01*
X104952814Y-102743000D01*
X103759000Y-102743000D01*
X103759000Y-102763000D01*
X103505000Y-102763000D01*
X103505000Y-102743000D01*
X103485000Y-102743000D01*
X103485000Y-102489000D01*
X103505000Y-102489000D01*
X103505000Y-102469000D01*
X103759000Y-102469000D01*
X103759000Y-102489000D01*
X104952814Y-102489000D01*
X105073481Y-102259109D01*
X104976157Y-101984748D01*
X104827178Y-101734645D01*
X104739905Y-101637824D01*
X104740899Y-101636613D01*
X105209440Y-101168072D01*
X105640000Y-101168072D01*
X105764482Y-101155812D01*
X105884180Y-101119502D01*
X105994494Y-101060537D01*
X106091185Y-100981185D01*
X106140000Y-100921704D01*
X106188815Y-100981185D01*
G37*
X106188815Y-100981185D02*
X106285506Y-101060537D01*
X106395820Y-101119502D01*
X106515518Y-101155812D01*
X106640000Y-101168072D01*
X107314998Y-101168072D01*
X107314998Y-101295844D01*
X107085110Y-101174524D01*
X106937901Y-101219175D01*
X106675080Y-101344359D01*
X106441731Y-101518412D01*
X106246822Y-101734645D01*
X106097843Y-101984748D01*
X106000519Y-102259109D01*
X106121186Y-102489000D01*
X107315000Y-102489000D01*
X107315000Y-102469000D01*
X107569000Y-102469000D01*
X107569000Y-102489000D01*
X107589000Y-102489000D01*
X107589000Y-102743000D01*
X107569000Y-102743000D01*
X107569000Y-102763000D01*
X107315000Y-102763000D01*
X107315000Y-102743000D01*
X106121186Y-102743000D01*
X106000519Y-102972891D01*
X106097843Y-103247252D01*
X106246822Y-103497355D01*
X106384405Y-103649990D01*
X104689595Y-103649990D01*
X104827178Y-103497355D01*
X104976157Y-103247252D01*
X105073481Y-102972891D01*
X104952814Y-102743000D01*
X103759000Y-102743000D01*
X103759000Y-102763000D01*
X103505000Y-102763000D01*
X103505000Y-102743000D01*
X103485000Y-102743000D01*
X103485000Y-102489000D01*
X103505000Y-102489000D01*
X103505000Y-102469000D01*
X103759000Y-102469000D01*
X103759000Y-102489000D01*
X104952814Y-102489000D01*
X105073481Y-102259109D01*
X104976157Y-101984748D01*
X104827178Y-101734645D01*
X104739905Y-101637824D01*
X104740899Y-101636613D01*
X105209440Y-101168072D01*
X105640000Y-101168072D01*
X105764482Y-101155812D01*
X105884180Y-101119502D01*
X105994494Y-101060537D01*
X106091185Y-100981185D01*
X106140000Y-100921704D01*
X106188815Y-100981185D01*
G36*
X98001928Y-100530000D02*
G01*
X98014188Y-100654482D01*
X98050498Y-100774180D01*
X98109463Y-100884494D01*
X98188815Y-100981185D01*
X98285506Y-101060537D01*
X98395820Y-101119502D01*
X98433724Y-101131000D01*
X98405740Y-101131000D01*
X98118842Y-101188068D01*
X97848589Y-101300010D01*
X97605368Y-101462525D01*
X97473513Y-101594380D01*
X97451502Y-101521820D01*
X97392537Y-101411506D01*
X97313185Y-101314815D01*
X97216494Y-101235463D01*
X97106180Y-101176498D01*
X96986482Y-101140188D01*
X96862000Y-101127928D01*
X95916928Y-101127928D01*
X95255216Y-100466215D01*
X95224370Y-100428630D01*
X95074384Y-100305540D01*
X94903267Y-100214076D01*
X94717594Y-100157753D01*
X94572880Y-100143500D01*
X94524500Y-100138735D01*
X94476120Y-100143500D01*
X94049512Y-100143500D01*
X93962962Y-100038038D01*
X93828386Y-99927595D01*
X93695000Y-99856298D01*
X93695000Y-99722000D01*
X94134001Y-99283000D01*
X95573620Y-99283000D01*
X95622000Y-99287765D01*
X95670380Y-99283000D01*
X95815094Y-99268747D01*
X95817319Y-99268072D01*
X97790000Y-99268072D01*
X97914482Y-99255812D01*
X98001928Y-99229286D01*
X98001928Y-100530000D01*
G37*
X98001928Y-100530000D02*
X98014188Y-100654482D01*
X98050498Y-100774180D01*
X98109463Y-100884494D01*
X98188815Y-100981185D01*
X98285506Y-101060537D01*
X98395820Y-101119502D01*
X98433724Y-101131000D01*
X98405740Y-101131000D01*
X98118842Y-101188068D01*
X97848589Y-101300010D01*
X97605368Y-101462525D01*
X97473513Y-101594380D01*
X97451502Y-101521820D01*
X97392537Y-101411506D01*
X97313185Y-101314815D01*
X97216494Y-101235463D01*
X97106180Y-101176498D01*
X96986482Y-101140188D01*
X96862000Y-101127928D01*
X95916928Y-101127928D01*
X95255216Y-100466215D01*
X95224370Y-100428630D01*
X95074384Y-100305540D01*
X94903267Y-100214076D01*
X94717594Y-100157753D01*
X94572880Y-100143500D01*
X94524500Y-100138735D01*
X94476120Y-100143500D01*
X94049512Y-100143500D01*
X93962962Y-100038038D01*
X93828386Y-99927595D01*
X93695000Y-99856298D01*
X93695000Y-99722000D01*
X94134001Y-99283000D01*
X95573620Y-99283000D01*
X95622000Y-99287765D01*
X95670380Y-99283000D01*
X95815094Y-99268747D01*
X95817319Y-99268072D01*
X97790000Y-99268072D01*
X97914482Y-99255812D01*
X98001928Y-99229286D01*
X98001928Y-100530000D01*
G36*
X91322121Y-90745860D02*
G01*
X91359701Y-90776701D01*
X91941284Y-91358284D01*
X91972130Y-91395870D01*
X92122116Y-91518960D01*
X92255021Y-91589999D01*
X92293233Y-91610424D01*
X92385341Y-91638364D01*
X92394038Y-91648962D01*
X92528613Y-91759405D01*
X92682149Y-91841472D01*
X92848745Y-91892008D01*
X92995000Y-91906413D01*
X92995001Y-95659146D01*
X92965185Y-95622815D01*
X92868494Y-95543463D01*
X92758180Y-95484498D01*
X92638482Y-95448188D01*
X92514000Y-95435928D01*
X92224750Y-95439000D01*
X92066000Y-95597750D01*
X92066000Y-96647000D01*
X92086000Y-96647000D01*
X92086000Y-96901000D01*
X92066000Y-96901000D01*
X92066000Y-97950250D01*
X92224750Y-98109000D01*
X92514000Y-98112072D01*
X92519466Y-98111534D01*
X92047715Y-98583285D01*
X92010130Y-98614130D01*
X91887040Y-98764116D01*
X91815001Y-98898892D01*
X91795576Y-98935234D01*
X91739253Y-99120907D01*
X91720235Y-99314000D01*
X91725000Y-99362380D01*
X91725000Y-99856298D01*
X91591614Y-99927595D01*
X91457038Y-100038038D01*
X91346595Y-100172614D01*
X91264528Y-100326150D01*
X91213992Y-100492746D01*
X91201951Y-100615000D01*
X90340287Y-100615000D01*
X90337502Y-100605820D01*
X90278537Y-100495506D01*
X90241191Y-100450000D01*
X90278537Y-100404494D01*
X90337502Y-100294180D01*
X90373812Y-100174482D01*
X90386072Y-100050000D01*
X90386072Y-98550000D01*
X90373812Y-98425518D01*
X90337502Y-98305820D01*
X90278537Y-98195506D01*
X90199185Y-98098815D01*
X90102494Y-98019463D01*
X89992180Y-97960498D01*
X89872482Y-97924188D01*
X89748000Y-97911928D01*
X89260929Y-97911928D01*
X88823001Y-97474000D01*
X90725928Y-97474000D01*
X90738188Y-97598482D01*
X90774498Y-97718180D01*
X90833463Y-97828494D01*
X90912815Y-97925185D01*
X91009506Y-98004537D01*
X91119820Y-98063502D01*
X91239518Y-98099812D01*
X91364000Y-98112072D01*
X91653250Y-98109000D01*
X91812000Y-97950250D01*
X91812000Y-96901000D01*
X90887750Y-96901000D01*
X90729000Y-97059750D01*
X90725928Y-97474000D01*
X88823001Y-97474000D01*
X88341824Y-96992824D01*
X88344072Y-96970001D01*
X88344072Y-96074000D01*
X90725928Y-96074000D01*
X90729000Y-96488250D01*
X90887750Y-96647000D01*
X91812000Y-96647000D01*
X91812000Y-95597750D01*
X91653250Y-95439000D01*
X91364000Y-95435928D01*
X91239518Y-95448188D01*
X91119820Y-95484498D01*
X91009506Y-95543463D01*
X90912815Y-95622815D01*
X90833463Y-95719506D01*
X90774498Y-95829820D01*
X90738188Y-95949518D01*
X90725928Y-96074000D01*
X88344072Y-96074000D01*
X88344072Y-96069999D01*
X88337700Y-96005300D01*
X90912284Y-93430716D01*
X90949870Y-93399870D01*
X91072960Y-93249884D01*
X91164424Y-93078767D01*
X91220747Y-92893094D01*
X91235000Y-92748380D01*
X91239765Y-92700001D01*
X91235000Y-92651621D01*
X91235000Y-90639702D01*
X91322121Y-90745860D01*
G37*
X91322121Y-90745860D02*
X91359701Y-90776701D01*
X91941284Y-91358284D01*
X91972130Y-91395870D01*
X92122116Y-91518960D01*
X92255021Y-91589999D01*
X92293233Y-91610424D01*
X92385341Y-91638364D01*
X92394038Y-91648962D01*
X92528613Y-91759405D01*
X92682149Y-91841472D01*
X92848745Y-91892008D01*
X92995000Y-91906413D01*
X92995001Y-95659146D01*
X92965185Y-95622815D01*
X92868494Y-95543463D01*
X92758180Y-95484498D01*
X92638482Y-95448188D01*
X92514000Y-95435928D01*
X92224750Y-95439000D01*
X92066000Y-95597750D01*
X92066000Y-96647000D01*
X92086000Y-96647000D01*
X92086000Y-96901000D01*
X92066000Y-96901000D01*
X92066000Y-97950250D01*
X92224750Y-98109000D01*
X92514000Y-98112072D01*
X92519466Y-98111534D01*
X92047715Y-98583285D01*
X92010130Y-98614130D01*
X91887040Y-98764116D01*
X91815001Y-98898892D01*
X91795576Y-98935234D01*
X91739253Y-99120907D01*
X91720235Y-99314000D01*
X91725000Y-99362380D01*
X91725000Y-99856298D01*
X91591614Y-99927595D01*
X91457038Y-100038038D01*
X91346595Y-100172614D01*
X91264528Y-100326150D01*
X91213992Y-100492746D01*
X91201951Y-100615000D01*
X90340287Y-100615000D01*
X90337502Y-100605820D01*
X90278537Y-100495506D01*
X90241191Y-100450000D01*
X90278537Y-100404494D01*
X90337502Y-100294180D01*
X90373812Y-100174482D01*
X90386072Y-100050000D01*
X90386072Y-98550000D01*
X90373812Y-98425518D01*
X90337502Y-98305820D01*
X90278537Y-98195506D01*
X90199185Y-98098815D01*
X90102494Y-98019463D01*
X89992180Y-97960498D01*
X89872482Y-97924188D01*
X89748000Y-97911928D01*
X89260929Y-97911928D01*
X88823001Y-97474000D01*
X90725928Y-97474000D01*
X90738188Y-97598482D01*
X90774498Y-97718180D01*
X90833463Y-97828494D01*
X90912815Y-97925185D01*
X91009506Y-98004537D01*
X91119820Y-98063502D01*
X91239518Y-98099812D01*
X91364000Y-98112072D01*
X91653250Y-98109000D01*
X91812000Y-97950250D01*
X91812000Y-96901000D01*
X90887750Y-96901000D01*
X90729000Y-97059750D01*
X90725928Y-97474000D01*
X88823001Y-97474000D01*
X88341824Y-96992824D01*
X88344072Y-96970001D01*
X88344072Y-96074000D01*
X90725928Y-96074000D01*
X90729000Y-96488250D01*
X90887750Y-96647000D01*
X91812000Y-96647000D01*
X91812000Y-95597750D01*
X91653250Y-95439000D01*
X91364000Y-95435928D01*
X91239518Y-95448188D01*
X91119820Y-95484498D01*
X91009506Y-95543463D01*
X90912815Y-95622815D01*
X90833463Y-95719506D01*
X90774498Y-95829820D01*
X90738188Y-95949518D01*
X90725928Y-96074000D01*
X88344072Y-96074000D01*
X88344072Y-96069999D01*
X88337700Y-96005300D01*
X90912284Y-93430716D01*
X90949870Y-93399870D01*
X91072960Y-93249884D01*
X91164424Y-93078767D01*
X91220747Y-92893094D01*
X91235000Y-92748380D01*
X91239765Y-92700001D01*
X91235000Y-92651621D01*
X91235000Y-90639702D01*
X91322121Y-90745860D01*
G36*
X89731368Y-82179475D02*
G01*
X89868000Y-82270770D01*
X89868000Y-83399212D01*
X89864081Y-83439000D01*
X89868000Y-83478788D01*
X89868000Y-83478790D01*
X89879720Y-83597787D01*
X89926037Y-83750472D01*
X89926038Y-83750473D01*
X90001251Y-83891189D01*
X90023911Y-83918800D01*
X90102472Y-84014528D01*
X90133387Y-84039899D01*
X91728105Y-85634618D01*
X91753472Y-85665528D01*
X91850595Y-85745234D01*
X91876811Y-85766749D01*
X91981365Y-85822634D01*
X91359705Y-86444295D01*
X91322120Y-86475140D01*
X91199030Y-86625126D01*
X91112886Y-86786291D01*
X91107566Y-86796244D01*
X91051243Y-86981917D01*
X91032225Y-87175010D01*
X91036990Y-87223390D01*
X91036991Y-89106287D01*
X90999816Y-89060990D01*
X90949870Y-89000130D01*
X90912289Y-88969288D01*
X90168215Y-88225215D01*
X90137370Y-88187630D01*
X89987384Y-88064540D01*
X89816267Y-87973076D01*
X89630594Y-87916753D01*
X89485880Y-87902500D01*
X89437500Y-87897735D01*
X89404637Y-87900972D01*
X89400336Y-87897442D01*
X89194474Y-87787406D01*
X89073800Y-87750800D01*
X89073800Y-82505622D01*
X89112482Y-82501812D01*
X89232180Y-82465502D01*
X89342494Y-82406537D01*
X89439185Y-82327185D01*
X89518537Y-82230494D01*
X89577502Y-82120180D01*
X89599513Y-82047620D01*
X89731368Y-82179475D01*
G37*
X89731368Y-82179475D02*
X89868000Y-82270770D01*
X89868000Y-83399212D01*
X89864081Y-83439000D01*
X89868000Y-83478788D01*
X89868000Y-83478790D01*
X89879720Y-83597787D01*
X89926037Y-83750472D01*
X89926038Y-83750473D01*
X90001251Y-83891189D01*
X90023911Y-83918800D01*
X90102472Y-84014528D01*
X90133387Y-84039899D01*
X91728105Y-85634618D01*
X91753472Y-85665528D01*
X91850595Y-85745234D01*
X91876811Y-85766749D01*
X91981365Y-85822634D01*
X91359705Y-86444295D01*
X91322120Y-86475140D01*
X91199030Y-86625126D01*
X91112886Y-86786291D01*
X91107566Y-86796244D01*
X91051243Y-86981917D01*
X91032225Y-87175010D01*
X91036990Y-87223390D01*
X91036991Y-89106287D01*
X90999816Y-89060990D01*
X90949870Y-89000130D01*
X90912289Y-88969288D01*
X90168215Y-88225215D01*
X90137370Y-88187630D01*
X89987384Y-88064540D01*
X89816267Y-87973076D01*
X89630594Y-87916753D01*
X89485880Y-87902500D01*
X89437500Y-87897735D01*
X89404637Y-87900972D01*
X89400336Y-87897442D01*
X89194474Y-87787406D01*
X89073800Y-87750800D01*
X89073800Y-82505622D01*
X89112482Y-82501812D01*
X89232180Y-82465502D01*
X89342494Y-82406537D01*
X89439185Y-82327185D01*
X89518537Y-82230494D01*
X89577502Y-82120180D01*
X89599513Y-82047620D01*
X89731368Y-82179475D01*
M02*
