G04 #@! TF.GenerationSoftware,KiCad,Pcbnew,(5.1.5)-3*
G04 #@! TF.CreationDate,2020-06-12T16:44:34-04:00*
G04 #@! TF.ProjectId,ESP_Switch,4553505f-5377-4697-9463-682e6b696361,v1.2*
G04 #@! TF.SameCoordinates,Original*
G04 #@! TF.FileFunction,Soldermask,Bot*
G04 #@! TF.FilePolarity,Negative*
%FSLAX46Y46*%
G04 Gerber Fmt 4.6, Leading zero omitted, Abs format (unit mm)*
G04 Created by KiCad (PCBNEW (5.1.5)-3) date 2020-06-12 16:44:34*
%MOMM*%
%LPD*%
G04 APERTURE LIST*
%ADD10C,0.100000*%
G04 APERTURE END LIST*
D10*
G36*
X113423000Y-103517000D02*
G01*
X111621000Y-103517000D01*
X111621000Y-101715000D01*
X113423000Y-101715000D01*
X113423000Y-103517000D01*
G37*
G36*
X110095512Y-101719927D02*
G01*
X110244812Y-101749624D01*
X110408784Y-101817544D01*
X110556354Y-101916147D01*
X110681853Y-102041646D01*
X110780456Y-102189216D01*
X110848376Y-102353188D01*
X110883000Y-102527259D01*
X110883000Y-102704741D01*
X110848376Y-102878812D01*
X110780456Y-103042784D01*
X110681853Y-103190354D01*
X110556354Y-103315853D01*
X110408784Y-103414456D01*
X110244812Y-103482376D01*
X110095512Y-103512073D01*
X110070742Y-103517000D01*
X109893258Y-103517000D01*
X109868488Y-103512073D01*
X109719188Y-103482376D01*
X109555216Y-103414456D01*
X109407646Y-103315853D01*
X109282147Y-103190354D01*
X109183544Y-103042784D01*
X109115624Y-102878812D01*
X109081000Y-102704741D01*
X109081000Y-102527259D01*
X109115624Y-102353188D01*
X109183544Y-102189216D01*
X109282147Y-102041646D01*
X109407646Y-101916147D01*
X109555216Y-101817544D01*
X109719188Y-101749624D01*
X109868488Y-101719927D01*
X109893258Y-101715000D01*
X110070742Y-101715000D01*
X110095512Y-101719927D01*
G37*
G36*
X96913000Y-103517000D02*
G01*
X95111000Y-103517000D01*
X95111000Y-101715000D01*
X96913000Y-101715000D01*
X96913000Y-103517000D01*
G37*
G36*
X98665512Y-101719927D02*
G01*
X98814812Y-101749624D01*
X98978784Y-101817544D01*
X99126354Y-101916147D01*
X99251853Y-102041646D01*
X99350456Y-102189216D01*
X99418376Y-102353188D01*
X99453000Y-102527259D01*
X99453000Y-102704741D01*
X99418376Y-102878812D01*
X99350456Y-103042784D01*
X99251853Y-103190354D01*
X99126354Y-103315853D01*
X98978784Y-103414456D01*
X98814812Y-103482376D01*
X98665512Y-103512073D01*
X98640742Y-103517000D01*
X98463258Y-103517000D01*
X98438488Y-103512073D01*
X98289188Y-103482376D01*
X98125216Y-103414456D01*
X97977646Y-103315853D01*
X97852147Y-103190354D01*
X97753544Y-103042784D01*
X97685624Y-102878812D01*
X97651000Y-102704741D01*
X97651000Y-102527259D01*
X97685624Y-102353188D01*
X97753544Y-102189216D01*
X97852147Y-102041646D01*
X97977646Y-101916147D01*
X98125216Y-101817544D01*
X98289188Y-101749624D01*
X98438488Y-101719927D01*
X98463258Y-101715000D01*
X98640742Y-101715000D01*
X98665512Y-101719927D01*
G37*
G36*
X101205512Y-101719927D02*
G01*
X101354812Y-101749624D01*
X101518784Y-101817544D01*
X101666354Y-101916147D01*
X101791853Y-102041646D01*
X101890456Y-102189216D01*
X101958376Y-102353188D01*
X101993000Y-102527259D01*
X101993000Y-102704741D01*
X101958376Y-102878812D01*
X101890456Y-103042784D01*
X101791853Y-103190354D01*
X101666354Y-103315853D01*
X101518784Y-103414456D01*
X101354812Y-103482376D01*
X101205512Y-103512073D01*
X101180742Y-103517000D01*
X101003258Y-103517000D01*
X100978488Y-103512073D01*
X100829188Y-103482376D01*
X100665216Y-103414456D01*
X100517646Y-103315853D01*
X100392147Y-103190354D01*
X100293544Y-103042784D01*
X100225624Y-102878812D01*
X100191000Y-102704741D01*
X100191000Y-102527259D01*
X100225624Y-102353188D01*
X100293544Y-102189216D01*
X100392147Y-102041646D01*
X100517646Y-101916147D01*
X100665216Y-101817544D01*
X100829188Y-101749624D01*
X100978488Y-101719927D01*
X101003258Y-101715000D01*
X101180742Y-101715000D01*
X101205512Y-101719927D01*
G37*
G36*
X103745512Y-101719927D02*
G01*
X103894812Y-101749624D01*
X104058784Y-101817544D01*
X104206354Y-101916147D01*
X104331853Y-102041646D01*
X104430456Y-102189216D01*
X104498376Y-102353188D01*
X104533000Y-102527259D01*
X104533000Y-102704741D01*
X104498376Y-102878812D01*
X104430456Y-103042784D01*
X104331853Y-103190354D01*
X104206354Y-103315853D01*
X104058784Y-103414456D01*
X103894812Y-103482376D01*
X103745512Y-103512073D01*
X103720742Y-103517000D01*
X103543258Y-103517000D01*
X103518488Y-103512073D01*
X103369188Y-103482376D01*
X103205216Y-103414456D01*
X103057646Y-103315853D01*
X102932147Y-103190354D01*
X102833544Y-103042784D01*
X102765624Y-102878812D01*
X102731000Y-102704741D01*
X102731000Y-102527259D01*
X102765624Y-102353188D01*
X102833544Y-102189216D01*
X102932147Y-102041646D01*
X103057646Y-101916147D01*
X103205216Y-101817544D01*
X103369188Y-101749624D01*
X103518488Y-101719927D01*
X103543258Y-101715000D01*
X103720742Y-101715000D01*
X103745512Y-101719927D01*
G37*
G36*
X107555512Y-101719927D02*
G01*
X107704812Y-101749624D01*
X107868784Y-101817544D01*
X108016354Y-101916147D01*
X108141853Y-102041646D01*
X108240456Y-102189216D01*
X108308376Y-102353188D01*
X108343000Y-102527259D01*
X108343000Y-102704741D01*
X108308376Y-102878812D01*
X108240456Y-103042784D01*
X108141853Y-103190354D01*
X108016354Y-103315853D01*
X107868784Y-103414456D01*
X107704812Y-103482376D01*
X107555512Y-103512073D01*
X107530742Y-103517000D01*
X107353258Y-103517000D01*
X107328488Y-103512073D01*
X107179188Y-103482376D01*
X107015216Y-103414456D01*
X106867646Y-103315853D01*
X106742147Y-103190354D01*
X106643544Y-103042784D01*
X106575624Y-102878812D01*
X106541000Y-102704741D01*
X106541000Y-102527259D01*
X106575624Y-102353188D01*
X106643544Y-102189216D01*
X106742147Y-102041646D01*
X106867646Y-101916147D01*
X107015216Y-101817544D01*
X107179188Y-101749624D01*
X107328488Y-101719927D01*
X107353258Y-101715000D01*
X107530742Y-101715000D01*
X107555512Y-101719927D01*
G37*
G36*
X122549256Y-99229298D02*
G01*
X122655579Y-99250447D01*
X122956042Y-99374903D01*
X123226451Y-99555585D01*
X123456415Y-99785549D01*
X123637097Y-100055958D01*
X123761553Y-100356421D01*
X123825000Y-100675391D01*
X123825000Y-101000609D01*
X123761553Y-101319579D01*
X123637097Y-101620042D01*
X123456415Y-101890451D01*
X123226451Y-102120415D01*
X122956042Y-102301097D01*
X122655579Y-102425553D01*
X122549256Y-102446702D01*
X122336611Y-102489000D01*
X122011389Y-102489000D01*
X121798744Y-102446702D01*
X121692421Y-102425553D01*
X121391958Y-102301097D01*
X121121549Y-102120415D01*
X120891585Y-101890451D01*
X120710903Y-101620042D01*
X120586447Y-101319579D01*
X120523000Y-101000609D01*
X120523000Y-100675391D01*
X120586447Y-100356421D01*
X120710903Y-100055958D01*
X120891585Y-99785549D01*
X121121549Y-99555585D01*
X121391958Y-99374903D01*
X121692421Y-99250447D01*
X121798744Y-99229298D01*
X122011389Y-99187000D01*
X122336611Y-99187000D01*
X122549256Y-99229298D01*
G37*
G36*
X107358000Y-98087000D02*
G01*
X106256000Y-98087000D01*
X106256000Y-96985000D01*
X107358000Y-96985000D01*
X107358000Y-98087000D01*
G37*
G36*
X99611000Y-98087000D02*
G01*
X98509000Y-98087000D01*
X98509000Y-96985000D01*
X99611000Y-96985000D01*
X99611000Y-98087000D01*
G37*
G36*
X101770000Y-98087000D02*
G01*
X100668000Y-98087000D01*
X100668000Y-96985000D01*
X101770000Y-96985000D01*
X101770000Y-98087000D01*
G37*
G36*
X109644000Y-98087000D02*
G01*
X108542000Y-98087000D01*
X108542000Y-96985000D01*
X109644000Y-96985000D01*
X109644000Y-98087000D01*
G37*
G36*
X83749242Y-93243018D02*
G01*
X83815427Y-93249537D01*
X83985266Y-93301057D01*
X84141791Y-93384722D01*
X84177529Y-93414052D01*
X84278986Y-93497314D01*
X84362248Y-93598771D01*
X84391578Y-93634509D01*
X84475243Y-93791034D01*
X84526763Y-93960873D01*
X84544159Y-94137500D01*
X84526763Y-94314127D01*
X84475243Y-94483966D01*
X84391578Y-94640491D01*
X84362248Y-94676229D01*
X84278986Y-94777686D01*
X84177529Y-94860948D01*
X84141791Y-94890278D01*
X83985266Y-94973943D01*
X83815427Y-95025463D01*
X83749242Y-95031982D01*
X83683060Y-95038500D01*
X82594540Y-95038500D01*
X82528358Y-95031982D01*
X82462173Y-95025463D01*
X82292334Y-94973943D01*
X82135809Y-94890278D01*
X82100071Y-94860948D01*
X81998614Y-94777686D01*
X81915352Y-94676229D01*
X81886022Y-94640491D01*
X81802357Y-94483966D01*
X81750837Y-94314127D01*
X81733441Y-94137500D01*
X81750837Y-93960873D01*
X81802357Y-93791034D01*
X81886022Y-93634509D01*
X81915352Y-93598771D01*
X81998614Y-93497314D01*
X82100071Y-93414052D01*
X82135809Y-93384722D01*
X82292334Y-93301057D01*
X82462173Y-93249537D01*
X82528358Y-93243018D01*
X82594540Y-93236500D01*
X83683060Y-93236500D01*
X83749242Y-93243018D01*
G37*
G36*
X99865000Y-94785000D02*
G01*
X98763000Y-94785000D01*
X98763000Y-93683000D01*
X99865000Y-93683000D01*
X99865000Y-94785000D01*
G37*
G36*
X122210896Y-91056395D02*
G01*
X122314072Y-91076918D01*
X122559939Y-91178759D01*
X122671328Y-91253187D01*
X122781211Y-91326609D01*
X122969391Y-91514789D01*
X122998006Y-91557614D01*
X123090363Y-91695835D01*
X123117242Y-91736063D01*
X123121445Y-91746210D01*
X123219082Y-91981928D01*
X123271000Y-92242938D01*
X123271000Y-92509062D01*
X123219082Y-92770072D01*
X123117241Y-93015939D01*
X122969390Y-93237212D01*
X122781212Y-93425390D01*
X122559939Y-93573241D01*
X122559938Y-93573242D01*
X122559937Y-93573242D01*
X122314072Y-93675082D01*
X122053063Y-93727000D01*
X121786937Y-93727000D01*
X121525928Y-93675082D01*
X121280063Y-93573242D01*
X121280062Y-93573242D01*
X121280061Y-93573241D01*
X121058788Y-93425390D01*
X120870610Y-93237212D01*
X120722759Y-93015939D01*
X120620918Y-92770072D01*
X120569000Y-92509062D01*
X120569000Y-92242938D01*
X120620918Y-91981928D01*
X120718555Y-91746210D01*
X120722758Y-91736063D01*
X120749638Y-91695835D01*
X120841994Y-91557614D01*
X120870609Y-91514789D01*
X121058789Y-91326609D01*
X121168672Y-91253187D01*
X121280061Y-91178759D01*
X121525928Y-91076918D01*
X121629104Y-91056395D01*
X121786937Y-91025000D01*
X122053063Y-91025000D01*
X122210896Y-91056395D01*
G37*
G36*
X88856618Y-91495196D02*
G01*
X88969905Y-91529562D01*
X89074312Y-91585369D01*
X89165827Y-91660473D01*
X89240931Y-91751988D01*
X89296738Y-91856395D01*
X89331104Y-91969682D01*
X89342707Y-92087500D01*
X89331104Y-92205318D01*
X89296738Y-92318605D01*
X89240931Y-92423012D01*
X89165827Y-92514527D01*
X89074312Y-92589631D01*
X88969905Y-92645438D01*
X88856618Y-92679804D01*
X88768319Y-92688500D01*
X88159281Y-92688500D01*
X88070982Y-92679804D01*
X87957695Y-92645438D01*
X87853288Y-92589631D01*
X87761773Y-92514527D01*
X87686669Y-92423012D01*
X87630862Y-92318605D01*
X87596496Y-92205318D01*
X87584893Y-92087500D01*
X87596496Y-91969682D01*
X87630862Y-91856397D01*
X87651713Y-91817386D01*
X87661090Y-91794748D01*
X87665870Y-91770714D01*
X87665870Y-91746210D01*
X87664195Y-91737788D01*
X87672413Y-91736153D01*
X87695052Y-91726776D01*
X87715426Y-91713162D01*
X87732750Y-91695838D01*
X87761773Y-91660473D01*
X87853287Y-91585370D01*
X87853286Y-91585370D01*
X87853288Y-91585369D01*
X87957695Y-91529562D01*
X88070982Y-91495196D01*
X88159281Y-91486500D01*
X88768319Y-91486500D01*
X88856618Y-91495196D01*
G37*
G36*
X99865000Y-92626000D02*
G01*
X98763000Y-92626000D01*
X98763000Y-91524000D01*
X99865000Y-91524000D01*
X99865000Y-92626000D01*
G37*
G36*
X87106618Y-90695196D02*
G01*
X87219905Y-90729562D01*
X87324312Y-90785369D01*
X87324314Y-90785370D01*
X87324313Y-90785370D01*
X87415827Y-90860473D01*
X87444850Y-90895838D01*
X87462174Y-90913162D01*
X87482549Y-90926776D01*
X87505187Y-90936153D01*
X87513406Y-90937788D01*
X87511730Y-90946211D01*
X87511730Y-90970715D01*
X87516510Y-90994748D01*
X87525887Y-91017386D01*
X87546738Y-91056397D01*
X87581104Y-91169682D01*
X87592707Y-91287500D01*
X87581104Y-91405318D01*
X87546738Y-91518603D01*
X87525887Y-91557614D01*
X87516510Y-91580252D01*
X87511730Y-91604286D01*
X87511730Y-91628790D01*
X87513405Y-91637212D01*
X87505187Y-91638847D01*
X87482548Y-91648224D01*
X87462174Y-91661838D01*
X87444850Y-91679162D01*
X87415827Y-91714527D01*
X87370181Y-91751987D01*
X87324312Y-91789631D01*
X87219905Y-91845438D01*
X87106618Y-91879804D01*
X87018319Y-91888500D01*
X86409281Y-91888500D01*
X86320982Y-91879804D01*
X86207695Y-91845438D01*
X86103288Y-91789631D01*
X86011773Y-91714527D01*
X85936669Y-91623012D01*
X85880862Y-91518605D01*
X85846496Y-91405318D01*
X85834893Y-91287500D01*
X85846496Y-91169682D01*
X85880862Y-91056395D01*
X85936669Y-90951988D01*
X86011773Y-90860473D01*
X86103288Y-90785369D01*
X86207695Y-90729562D01*
X86320982Y-90695196D01*
X86409281Y-90686500D01*
X87018319Y-90686500D01*
X87106618Y-90695196D01*
G37*
G36*
X88856618Y-89895196D02*
G01*
X88969905Y-89929562D01*
X89074312Y-89985369D01*
X89165827Y-90060473D01*
X89240931Y-90151988D01*
X89296738Y-90256395D01*
X89331104Y-90369682D01*
X89342707Y-90487500D01*
X89331104Y-90605318D01*
X89296738Y-90718605D01*
X89240931Y-90823012D01*
X89165827Y-90914527D01*
X89074312Y-90989631D01*
X88969905Y-91045438D01*
X88856618Y-91079804D01*
X88768319Y-91088500D01*
X88159281Y-91088500D01*
X88070982Y-91079804D01*
X87957695Y-91045438D01*
X87853288Y-90989631D01*
X87807419Y-90951987D01*
X87761773Y-90914527D01*
X87732750Y-90879162D01*
X87715426Y-90861838D01*
X87695051Y-90848224D01*
X87672413Y-90838847D01*
X87664194Y-90837212D01*
X87665870Y-90828789D01*
X87665870Y-90804285D01*
X87661090Y-90780252D01*
X87651713Y-90757614D01*
X87630862Y-90718603D01*
X87596496Y-90605318D01*
X87584893Y-90487500D01*
X87596496Y-90369682D01*
X87630862Y-90256397D01*
X87651713Y-90217386D01*
X87661090Y-90194748D01*
X87665870Y-90170714D01*
X87665870Y-90146210D01*
X87664195Y-90137788D01*
X87672413Y-90136153D01*
X87695052Y-90126776D01*
X87715426Y-90113162D01*
X87732750Y-90095838D01*
X87761773Y-90060473D01*
X87853287Y-89985370D01*
X87853286Y-89985370D01*
X87853288Y-89985369D01*
X87957695Y-89929562D01*
X88070982Y-89895196D01*
X88159281Y-89886500D01*
X88768319Y-89886500D01*
X88856618Y-89895196D01*
G37*
G36*
X109771000Y-90721000D02*
G01*
X108669000Y-90721000D01*
X108669000Y-89619000D01*
X109771000Y-89619000D01*
X109771000Y-90721000D01*
G37*
G36*
X87106618Y-89095196D02*
G01*
X87219905Y-89129562D01*
X87324312Y-89185369D01*
X87324314Y-89185370D01*
X87324313Y-89185370D01*
X87415827Y-89260473D01*
X87444850Y-89295838D01*
X87462174Y-89313162D01*
X87482549Y-89326776D01*
X87505187Y-89336153D01*
X87513406Y-89337788D01*
X87511730Y-89346211D01*
X87511730Y-89370715D01*
X87516510Y-89394748D01*
X87525887Y-89417386D01*
X87546738Y-89456397D01*
X87581104Y-89569682D01*
X87592707Y-89687500D01*
X87581104Y-89805318D01*
X87546738Y-89918603D01*
X87525887Y-89957614D01*
X87516510Y-89980252D01*
X87511730Y-90004286D01*
X87511730Y-90028790D01*
X87513405Y-90037212D01*
X87505187Y-90038847D01*
X87482548Y-90048224D01*
X87462174Y-90061838D01*
X87444850Y-90079162D01*
X87415827Y-90114527D01*
X87370181Y-90151987D01*
X87324312Y-90189631D01*
X87219905Y-90245438D01*
X87106618Y-90279804D01*
X87018319Y-90288500D01*
X86409281Y-90288500D01*
X86320982Y-90279804D01*
X86207695Y-90245438D01*
X86103288Y-90189631D01*
X86011773Y-90114527D01*
X85936669Y-90023012D01*
X85880862Y-89918605D01*
X85846496Y-89805318D01*
X85834893Y-89687500D01*
X85846496Y-89569682D01*
X85880862Y-89456395D01*
X85936669Y-89351988D01*
X86011773Y-89260473D01*
X86103288Y-89185369D01*
X86207695Y-89129562D01*
X86320982Y-89095196D01*
X86409281Y-89086500D01*
X87018319Y-89086500D01*
X87106618Y-89095196D01*
G37*
G36*
X88856618Y-88295196D02*
G01*
X88969905Y-88329562D01*
X89074312Y-88385369D01*
X89165827Y-88460473D01*
X89240931Y-88551988D01*
X89296738Y-88656395D01*
X89331104Y-88769682D01*
X89342707Y-88887500D01*
X89331104Y-89005318D01*
X89296738Y-89118605D01*
X89240931Y-89223012D01*
X89165827Y-89314527D01*
X89074312Y-89389631D01*
X88969905Y-89445438D01*
X88856618Y-89479804D01*
X88768319Y-89488500D01*
X88159281Y-89488500D01*
X88070982Y-89479804D01*
X87957695Y-89445438D01*
X87853288Y-89389631D01*
X87807419Y-89351987D01*
X87761773Y-89314527D01*
X87732750Y-89279162D01*
X87715426Y-89261838D01*
X87695051Y-89248224D01*
X87672413Y-89238847D01*
X87664194Y-89237212D01*
X87665870Y-89228789D01*
X87665870Y-89204285D01*
X87661090Y-89180252D01*
X87651713Y-89157614D01*
X87630862Y-89118603D01*
X87596496Y-89005318D01*
X87584893Y-88887500D01*
X87596496Y-88769682D01*
X87630862Y-88656395D01*
X87686669Y-88551988D01*
X87761773Y-88460473D01*
X87853288Y-88385369D01*
X87957695Y-88329562D01*
X88070982Y-88295196D01*
X88159281Y-88286500D01*
X88768319Y-88286500D01*
X88856618Y-88295196D01*
G37*
G36*
X123271000Y-88727000D02*
G01*
X120569000Y-88727000D01*
X120569000Y-86025000D01*
X123271000Y-86025000D01*
X123271000Y-88727000D01*
G37*
G36*
X109771000Y-88689000D02*
G01*
X108669000Y-88689000D01*
X108669000Y-87587000D01*
X109771000Y-87587000D01*
X109771000Y-88689000D01*
G37*
G36*
X83749243Y-85943019D02*
G01*
X83815427Y-85949537D01*
X83985266Y-86001057D01*
X84141791Y-86084722D01*
X84177529Y-86114052D01*
X84278986Y-86197314D01*
X84362248Y-86298771D01*
X84391578Y-86334509D01*
X84475243Y-86491034D01*
X84526763Y-86660873D01*
X84544159Y-86837500D01*
X84526763Y-87014127D01*
X84475243Y-87183966D01*
X84391578Y-87340491D01*
X84362248Y-87376229D01*
X84278986Y-87477686D01*
X84177529Y-87560948D01*
X84141791Y-87590278D01*
X83985266Y-87673943D01*
X83815427Y-87725463D01*
X83749242Y-87731982D01*
X83683060Y-87738500D01*
X82594540Y-87738500D01*
X82528358Y-87731982D01*
X82462173Y-87725463D01*
X82292334Y-87673943D01*
X82135809Y-87590278D01*
X82100071Y-87560948D01*
X81998614Y-87477686D01*
X81915352Y-87376229D01*
X81886022Y-87340491D01*
X81802357Y-87183966D01*
X81750837Y-87014127D01*
X81733441Y-86837500D01*
X81750837Y-86660873D01*
X81802357Y-86491034D01*
X81886022Y-86334509D01*
X81915352Y-86298771D01*
X81998614Y-86197314D01*
X82100071Y-86114052D01*
X82135809Y-86084722D01*
X82292334Y-86001057D01*
X82462173Y-85949537D01*
X82528357Y-85943019D01*
X82594540Y-85936500D01*
X83683060Y-85936500D01*
X83749243Y-85943019D01*
G37*
G36*
X99865000Y-86657000D02*
G01*
X98763000Y-86657000D01*
X98763000Y-85555000D01*
X99865000Y-85555000D01*
X99865000Y-86657000D01*
G37*
G36*
X83052256Y-79163298D02*
G01*
X83158579Y-79184447D01*
X83459042Y-79308903D01*
X83729451Y-79489585D01*
X83959415Y-79719549D01*
X84140097Y-79989958D01*
X84264553Y-80290421D01*
X84285702Y-80396744D01*
X84325977Y-80599218D01*
X84328000Y-80609391D01*
X84328000Y-80934609D01*
X84264553Y-81253579D01*
X84140097Y-81554042D01*
X83959415Y-81824451D01*
X83729451Y-82054415D01*
X83459042Y-82235097D01*
X83158579Y-82359553D01*
X83052256Y-82380702D01*
X82839611Y-82423000D01*
X82514389Y-82423000D01*
X82301744Y-82380702D01*
X82195421Y-82359553D01*
X81894958Y-82235097D01*
X81624549Y-82054415D01*
X81394585Y-81824451D01*
X81213903Y-81554042D01*
X81089447Y-81253579D01*
X81026000Y-80934609D01*
X81026000Y-80609391D01*
X81028024Y-80599218D01*
X81068298Y-80396744D01*
X81089447Y-80290421D01*
X81213903Y-79989958D01*
X81394585Y-79719549D01*
X81624549Y-79489585D01*
X81894958Y-79308903D01*
X82195421Y-79184447D01*
X82301744Y-79163298D01*
X82514389Y-79121000D01*
X82839611Y-79121000D01*
X83052256Y-79163298D01*
G37*
G36*
X125361000Y-81927000D02*
G01*
X123559000Y-81927000D01*
X123559000Y-80125000D01*
X125361000Y-80125000D01*
X125361000Y-81927000D01*
G37*
G36*
X122033512Y-80129927D02*
G01*
X122182812Y-80159624D01*
X122346784Y-80227544D01*
X122494354Y-80326147D01*
X122619853Y-80451646D01*
X122718456Y-80599216D01*
X122786376Y-80763188D01*
X122821000Y-80937259D01*
X122821000Y-81114741D01*
X122786376Y-81288812D01*
X122718456Y-81452784D01*
X122619853Y-81600354D01*
X122494354Y-81725853D01*
X122346784Y-81824456D01*
X122182812Y-81892376D01*
X122033512Y-81922073D01*
X122008742Y-81927000D01*
X121831258Y-81927000D01*
X121806488Y-81922073D01*
X121657188Y-81892376D01*
X121493216Y-81824456D01*
X121345646Y-81725853D01*
X121220147Y-81600354D01*
X121121544Y-81452784D01*
X121053624Y-81288812D01*
X121019000Y-81114741D01*
X121019000Y-80937259D01*
X121053624Y-80763188D01*
X121121544Y-80599216D01*
X121220147Y-80451646D01*
X121345646Y-80326147D01*
X121493216Y-80227544D01*
X121657188Y-80159624D01*
X121806488Y-80129927D01*
X121831258Y-80125000D01*
X122008742Y-80125000D01*
X122033512Y-80129927D01*
G37*
G36*
X119493512Y-80129927D02*
G01*
X119642812Y-80159624D01*
X119806784Y-80227544D01*
X119954354Y-80326147D01*
X120079853Y-80451646D01*
X120178456Y-80599216D01*
X120246376Y-80763188D01*
X120281000Y-80937259D01*
X120281000Y-81114741D01*
X120246376Y-81288812D01*
X120178456Y-81452784D01*
X120079853Y-81600354D01*
X119954354Y-81725853D01*
X119806784Y-81824456D01*
X119642812Y-81892376D01*
X119493512Y-81922073D01*
X119468742Y-81927000D01*
X119291258Y-81927000D01*
X119266488Y-81922073D01*
X119117188Y-81892376D01*
X118953216Y-81824456D01*
X118805646Y-81725853D01*
X118680147Y-81600354D01*
X118581544Y-81452784D01*
X118513624Y-81288812D01*
X118479000Y-81114741D01*
X118479000Y-80937259D01*
X118513624Y-80763188D01*
X118581544Y-80599216D01*
X118680147Y-80451646D01*
X118805646Y-80326147D01*
X118953216Y-80227544D01*
X119117188Y-80159624D01*
X119266488Y-80129927D01*
X119291258Y-80125000D01*
X119468742Y-80125000D01*
X119493512Y-80129927D01*
G37*
G36*
X116953512Y-80129927D02*
G01*
X117102812Y-80159624D01*
X117266784Y-80227544D01*
X117414354Y-80326147D01*
X117539853Y-80451646D01*
X117638456Y-80599216D01*
X117706376Y-80763188D01*
X117741000Y-80937259D01*
X117741000Y-81114741D01*
X117706376Y-81288812D01*
X117638456Y-81452784D01*
X117539853Y-81600354D01*
X117414354Y-81725853D01*
X117266784Y-81824456D01*
X117102812Y-81892376D01*
X116953512Y-81922073D01*
X116928742Y-81927000D01*
X116751258Y-81927000D01*
X116726488Y-81922073D01*
X116577188Y-81892376D01*
X116413216Y-81824456D01*
X116265646Y-81725853D01*
X116140147Y-81600354D01*
X116041544Y-81452784D01*
X115973624Y-81288812D01*
X115939000Y-81114741D01*
X115939000Y-80937259D01*
X115973624Y-80763188D01*
X116041544Y-80599216D01*
X116140147Y-80451646D01*
X116265646Y-80326147D01*
X116413216Y-80227544D01*
X116577188Y-80159624D01*
X116726488Y-80129927D01*
X116751258Y-80125000D01*
X116928742Y-80125000D01*
X116953512Y-80129927D01*
G37*
G36*
X89039000Y-81927000D02*
G01*
X87237000Y-81927000D01*
X87237000Y-80125000D01*
X89039000Y-80125000D01*
X89039000Y-81927000D01*
G37*
G36*
X90791512Y-80129927D02*
G01*
X90940812Y-80159624D01*
X91104784Y-80227544D01*
X91252354Y-80326147D01*
X91377853Y-80451646D01*
X91476456Y-80599216D01*
X91544376Y-80763188D01*
X91579000Y-80937259D01*
X91579000Y-81114741D01*
X91544376Y-81288812D01*
X91476456Y-81452784D01*
X91377853Y-81600354D01*
X91252354Y-81725853D01*
X91104784Y-81824456D01*
X90940812Y-81892376D01*
X90791512Y-81922073D01*
X90766742Y-81927000D01*
X90589258Y-81927000D01*
X90564488Y-81922073D01*
X90415188Y-81892376D01*
X90251216Y-81824456D01*
X90103646Y-81725853D01*
X89978147Y-81600354D01*
X89879544Y-81452784D01*
X89811624Y-81288812D01*
X89777000Y-81114741D01*
X89777000Y-80937259D01*
X89811624Y-80763188D01*
X89879544Y-80599216D01*
X89978147Y-80451646D01*
X90103646Y-80326147D01*
X90251216Y-80227544D01*
X90415188Y-80159624D01*
X90564488Y-80129927D01*
X90589258Y-80125000D01*
X90766742Y-80125000D01*
X90791512Y-80129927D01*
G37*
G36*
X93331512Y-80129927D02*
G01*
X93480812Y-80159624D01*
X93644784Y-80227544D01*
X93792354Y-80326147D01*
X93917853Y-80451646D01*
X94016456Y-80599216D01*
X94084376Y-80763188D01*
X94119000Y-80937259D01*
X94119000Y-81114741D01*
X94084376Y-81288812D01*
X94016456Y-81452784D01*
X93917853Y-81600354D01*
X93792354Y-81725853D01*
X93644784Y-81824456D01*
X93480812Y-81892376D01*
X93331512Y-81922073D01*
X93306742Y-81927000D01*
X93129258Y-81927000D01*
X93104488Y-81922073D01*
X92955188Y-81892376D01*
X92791216Y-81824456D01*
X92643646Y-81725853D01*
X92518147Y-81600354D01*
X92419544Y-81452784D01*
X92351624Y-81288812D01*
X92317000Y-81114741D01*
X92317000Y-80937259D01*
X92351624Y-80763188D01*
X92419544Y-80599216D01*
X92518147Y-80451646D01*
X92643646Y-80326147D01*
X92791216Y-80227544D01*
X92955188Y-80159624D01*
X93104488Y-80129927D01*
X93129258Y-80125000D01*
X93306742Y-80125000D01*
X93331512Y-80129927D01*
G37*
M02*
