G04 #@! TF.GenerationSoftware,KiCad,Pcbnew,(5.1.5)-3*
G04 #@! TF.CreationDate,2020-06-12T16:44:34-04:00*
G04 #@! TF.ProjectId,ESP_Switch,4553505f-5377-4697-9463-682e6b696361,v1.2*
G04 #@! TF.SameCoordinates,Original*
G04 #@! TF.FileFunction,Copper,L2,Bot*
G04 #@! TF.FilePolarity,Positive*
%FSLAX46Y46*%
G04 Gerber Fmt 4.6, Leading zero omitted, Abs format (unit mm)*
G04 Created by KiCad (PCBNEW (5.1.5)-3) date 2020-06-12 16:44:34*
%MOMM*%
%LPD*%
G04 APERTURE LIST*
%ADD10O,2.700000X1.700000*%
%ADD11O,1.650000X1.100000*%
%ADD12R,1.000000X1.000000*%
%ADD13O,1.700000X1.700000*%
%ADD14R,1.700000X1.700000*%
%ADD15C,2.600000*%
%ADD16R,2.600000X2.600000*%
%ADD17C,0.800000*%
%ADD18C,0.254000*%
G04 APERTURE END LIST*
D10*
X83138800Y-94137500D03*
X83138800Y-86837500D03*
D11*
X86713800Y-91287500D03*
X86713800Y-89687500D03*
X88463800Y-92087500D03*
X88463800Y-88887500D03*
X88463800Y-90487500D03*
D12*
X99314000Y-92075000D03*
X99314000Y-94234000D03*
X109220000Y-88138000D03*
X109220000Y-90170000D03*
X109093000Y-97536000D03*
X106807000Y-97536000D03*
X101219000Y-97536000D03*
X99060000Y-97536000D03*
X99314000Y-86106000D03*
D13*
X93218000Y-81026000D03*
X90678000Y-81026000D03*
D14*
X88138000Y-81026000D03*
X96012000Y-102616000D03*
D13*
X98552000Y-102616000D03*
X101092000Y-102616000D03*
X103632000Y-102616000D03*
D15*
X121920000Y-92376000D03*
D16*
X121920000Y-87376000D03*
D13*
X116840000Y-81026000D03*
X119380000Y-81026000D03*
X121920000Y-81026000D03*
D14*
X124460000Y-81026000D03*
D13*
X107442000Y-102616000D03*
X109982000Y-102616000D03*
D14*
X112522000Y-102616000D03*
D17*
X113538000Y-100330000D03*
X115062000Y-101981000D03*
X122923300Y-79070200D03*
X120688100Y-79070200D03*
X96774000Y-99949000D03*
X111506000Y-100330000D03*
X119126000Y-94742000D03*
X84836000Y-104394000D03*
X86360000Y-104394000D03*
X90932000Y-102870000D03*
X90932000Y-104394000D03*
X90424000Y-96774000D03*
X92456000Y-92710000D03*
X92456000Y-93980000D03*
X92456000Y-95123000D03*
X125780800Y-79082900D03*
X83566000Y-97282000D03*
X86360000Y-103124000D03*
X95377000Y-99949000D03*
X88900000Y-96266000D03*
X91186000Y-99060000D03*
X84836000Y-103124000D03*
X86614000Y-99822000D03*
X84836000Y-99822000D03*
X84836000Y-98552000D03*
X86614000Y-98552000D03*
X94615000Y-104394000D03*
X118999000Y-103759000D03*
X125349000Y-103759000D03*
X86600000Y-86050000D03*
X86700000Y-83200000D03*
X89500000Y-83200000D03*
X91200000Y-85750000D03*
X89600000Y-87300000D03*
X87000000Y-93400000D03*
X86800000Y-87950000D03*
X84650000Y-90450000D03*
X85850000Y-94550000D03*
X99314000Y-86106000D03*
X99060000Y-97536000D03*
X101219000Y-97536000D03*
X106807000Y-97536000D03*
X109093000Y-97536000D03*
X109220000Y-90170000D03*
X109220000Y-88138000D03*
X99314000Y-94234000D03*
X99314000Y-92075000D03*
D18*
G36*
X94996000Y-83312000D02*
G01*
X94998440Y-83336776D01*
X95005667Y-83360601D01*
X95017403Y-83382557D01*
X95033197Y-83401803D01*
X95052443Y-83417597D01*
X95074399Y-83429333D01*
X95098224Y-83436560D01*
X95123000Y-83439000D01*
X113538000Y-83439000D01*
X113562776Y-83436560D01*
X113586601Y-83429333D01*
X113608557Y-83417597D01*
X113627803Y-83401803D01*
X113643597Y-83382557D01*
X113655333Y-83360601D01*
X113662560Y-83336776D01*
X113665000Y-83312000D01*
X113665000Y-81382891D01*
X115398519Y-81382891D01*
X115495843Y-81657252D01*
X115644822Y-81907355D01*
X115839731Y-82123588D01*
X116073080Y-82297641D01*
X116335901Y-82422825D01*
X116483110Y-82467476D01*
X116713000Y-82346155D01*
X116713000Y-81153000D01*
X115519186Y-81153000D01*
X115398519Y-81382891D01*
X113665000Y-81382891D01*
X113665000Y-80669109D01*
X115398519Y-80669109D01*
X115519186Y-80899000D01*
X116713000Y-80899000D01*
X116713000Y-79705845D01*
X116967000Y-79705845D01*
X116967000Y-80899000D01*
X116987000Y-80899000D01*
X116987000Y-81153000D01*
X116967000Y-81153000D01*
X116967000Y-82346155D01*
X117196890Y-82467476D01*
X117344099Y-82422825D01*
X117606920Y-82297641D01*
X117840269Y-82123588D01*
X118035178Y-81907355D01*
X118104805Y-81790466D01*
X118226525Y-81972632D01*
X118433368Y-82179475D01*
X118676589Y-82341990D01*
X118946842Y-82453932D01*
X119233740Y-82511000D01*
X119526260Y-82511000D01*
X119813158Y-82453932D01*
X120083411Y-82341990D01*
X120326632Y-82179475D01*
X120533475Y-81972632D01*
X120650000Y-81798240D01*
X120766525Y-81972632D01*
X120973368Y-82179475D01*
X121216589Y-82341990D01*
X121486842Y-82453932D01*
X121773740Y-82511000D01*
X122066260Y-82511000D01*
X122353158Y-82453932D01*
X122623411Y-82341990D01*
X122866632Y-82179475D01*
X122998487Y-82047620D01*
X123020498Y-82120180D01*
X123079463Y-82230494D01*
X123158815Y-82327185D01*
X123255506Y-82406537D01*
X123365820Y-82465502D01*
X123485518Y-82501812D01*
X123610000Y-82514072D01*
X125310000Y-82514072D01*
X125434482Y-82501812D01*
X125554180Y-82465502D01*
X125664494Y-82406537D01*
X125761185Y-82327185D01*
X125840537Y-82230494D01*
X125899502Y-82120180D01*
X125935812Y-82000482D01*
X125948072Y-81876000D01*
X125948072Y-80176000D01*
X125935812Y-80051518D01*
X125899502Y-79931820D01*
X125840537Y-79821506D01*
X125761185Y-79724815D01*
X125664494Y-79645463D01*
X125554180Y-79586498D01*
X125434482Y-79550188D01*
X125310000Y-79537928D01*
X123610000Y-79537928D01*
X123485518Y-79550188D01*
X123365820Y-79586498D01*
X123255506Y-79645463D01*
X123158815Y-79724815D01*
X123079463Y-79821506D01*
X123020498Y-79931820D01*
X122998487Y-80004380D01*
X122866632Y-79872525D01*
X122623411Y-79710010D01*
X122353158Y-79598068D01*
X122066260Y-79541000D01*
X121773740Y-79541000D01*
X121486842Y-79598068D01*
X121216589Y-79710010D01*
X120973368Y-79872525D01*
X120766525Y-80079368D01*
X120650000Y-80253760D01*
X120533475Y-80079368D01*
X120326632Y-79872525D01*
X120083411Y-79710010D01*
X119813158Y-79598068D01*
X119526260Y-79541000D01*
X119233740Y-79541000D01*
X118946842Y-79598068D01*
X118676589Y-79710010D01*
X118433368Y-79872525D01*
X118226525Y-80079368D01*
X118104805Y-80261534D01*
X118035178Y-80144645D01*
X117840269Y-79928412D01*
X117606920Y-79754359D01*
X117344099Y-79629175D01*
X117196890Y-79584524D01*
X116967000Y-79705845D01*
X116713000Y-79705845D01*
X116483110Y-79584524D01*
X116335901Y-79629175D01*
X116073080Y-79754359D01*
X115839731Y-79928412D01*
X115644822Y-80144645D01*
X115495843Y-80394748D01*
X115398519Y-80669109D01*
X113665000Y-80669109D01*
X113665000Y-78384000D01*
X126340001Y-78384000D01*
X126340000Y-104750000D01*
X79908000Y-104750000D01*
X79908000Y-101766000D01*
X94523928Y-101766000D01*
X94523928Y-103466000D01*
X94536188Y-103590482D01*
X94572498Y-103710180D01*
X94631463Y-103820494D01*
X94710815Y-103917185D01*
X94807506Y-103996537D01*
X94917820Y-104055502D01*
X95037518Y-104091812D01*
X95162000Y-104104072D01*
X96862000Y-104104072D01*
X96986482Y-104091812D01*
X97106180Y-104055502D01*
X97216494Y-103996537D01*
X97313185Y-103917185D01*
X97392537Y-103820494D01*
X97451502Y-103710180D01*
X97473513Y-103637620D01*
X97605368Y-103769475D01*
X97848589Y-103931990D01*
X98118842Y-104043932D01*
X98405740Y-104101000D01*
X98698260Y-104101000D01*
X98985158Y-104043932D01*
X99255411Y-103931990D01*
X99498632Y-103769475D01*
X99705475Y-103562632D01*
X99822000Y-103388240D01*
X99938525Y-103562632D01*
X100145368Y-103769475D01*
X100388589Y-103931990D01*
X100658842Y-104043932D01*
X100945740Y-104101000D01*
X101238260Y-104101000D01*
X101525158Y-104043932D01*
X101795411Y-103931990D01*
X102038632Y-103769475D01*
X102245475Y-103562632D01*
X102367195Y-103380466D01*
X102436822Y-103497355D01*
X102631731Y-103713588D01*
X102865080Y-103887641D01*
X103127901Y-104012825D01*
X103275110Y-104057476D01*
X103505000Y-103936155D01*
X103505000Y-102743000D01*
X103759000Y-102743000D01*
X103759000Y-103936155D01*
X103988890Y-104057476D01*
X104136099Y-104012825D01*
X104398920Y-103887641D01*
X104632269Y-103713588D01*
X104827178Y-103497355D01*
X104976157Y-103247252D01*
X105073481Y-102972891D01*
X106000519Y-102972891D01*
X106097843Y-103247252D01*
X106246822Y-103497355D01*
X106441731Y-103713588D01*
X106675080Y-103887641D01*
X106937901Y-104012825D01*
X107085110Y-104057476D01*
X107315000Y-103936155D01*
X107315000Y-102743000D01*
X106121186Y-102743000D01*
X106000519Y-102972891D01*
X105073481Y-102972891D01*
X104952814Y-102743000D01*
X103759000Y-102743000D01*
X103505000Y-102743000D01*
X103485000Y-102743000D01*
X103485000Y-102489000D01*
X103505000Y-102489000D01*
X103505000Y-101295845D01*
X103759000Y-101295845D01*
X103759000Y-102489000D01*
X104952814Y-102489000D01*
X105073481Y-102259109D01*
X106000519Y-102259109D01*
X106121186Y-102489000D01*
X107315000Y-102489000D01*
X107315000Y-101295845D01*
X107569000Y-101295845D01*
X107569000Y-102489000D01*
X107589000Y-102489000D01*
X107589000Y-102743000D01*
X107569000Y-102743000D01*
X107569000Y-103936155D01*
X107798890Y-104057476D01*
X107946099Y-104012825D01*
X108208920Y-103887641D01*
X108442269Y-103713588D01*
X108637178Y-103497355D01*
X108706805Y-103380466D01*
X108828525Y-103562632D01*
X109035368Y-103769475D01*
X109278589Y-103931990D01*
X109548842Y-104043932D01*
X109835740Y-104101000D01*
X110128260Y-104101000D01*
X110415158Y-104043932D01*
X110685411Y-103931990D01*
X110928632Y-103769475D01*
X111060487Y-103637620D01*
X111082498Y-103710180D01*
X111141463Y-103820494D01*
X111220815Y-103917185D01*
X111317506Y-103996537D01*
X111427820Y-104055502D01*
X111547518Y-104091812D01*
X111672000Y-104104072D01*
X113372000Y-104104072D01*
X113496482Y-104091812D01*
X113616180Y-104055502D01*
X113726494Y-103996537D01*
X113823185Y-103917185D01*
X113902537Y-103820494D01*
X113961502Y-103710180D01*
X113997812Y-103590482D01*
X114010072Y-103466000D01*
X114010072Y-101766000D01*
X113997812Y-101641518D01*
X113961502Y-101521820D01*
X113902537Y-101411506D01*
X113823185Y-101314815D01*
X113726494Y-101235463D01*
X113616180Y-101176498D01*
X113496482Y-101140188D01*
X113372000Y-101127928D01*
X111672000Y-101127928D01*
X111547518Y-101140188D01*
X111427820Y-101176498D01*
X111317506Y-101235463D01*
X111220815Y-101314815D01*
X111141463Y-101411506D01*
X111082498Y-101521820D01*
X111060487Y-101594380D01*
X110928632Y-101462525D01*
X110685411Y-101300010D01*
X110415158Y-101188068D01*
X110128260Y-101131000D01*
X109835740Y-101131000D01*
X109548842Y-101188068D01*
X109278589Y-101300010D01*
X109035368Y-101462525D01*
X108828525Y-101669368D01*
X108706805Y-101851534D01*
X108637178Y-101734645D01*
X108442269Y-101518412D01*
X108208920Y-101344359D01*
X107946099Y-101219175D01*
X107798890Y-101174524D01*
X107569000Y-101295845D01*
X107315000Y-101295845D01*
X107085110Y-101174524D01*
X106937901Y-101219175D01*
X106675080Y-101344359D01*
X106441731Y-101518412D01*
X106246822Y-101734645D01*
X106097843Y-101984748D01*
X106000519Y-102259109D01*
X105073481Y-102259109D01*
X104976157Y-101984748D01*
X104827178Y-101734645D01*
X104632269Y-101518412D01*
X104398920Y-101344359D01*
X104136099Y-101219175D01*
X103988890Y-101174524D01*
X103759000Y-101295845D01*
X103505000Y-101295845D01*
X103275110Y-101174524D01*
X103127901Y-101219175D01*
X102865080Y-101344359D01*
X102631731Y-101518412D01*
X102436822Y-101734645D01*
X102367195Y-101851534D01*
X102245475Y-101669368D01*
X102038632Y-101462525D01*
X101795411Y-101300010D01*
X101525158Y-101188068D01*
X101238260Y-101131000D01*
X100945740Y-101131000D01*
X100658842Y-101188068D01*
X100388589Y-101300010D01*
X100145368Y-101462525D01*
X99938525Y-101669368D01*
X99822000Y-101843760D01*
X99705475Y-101669368D01*
X99498632Y-101462525D01*
X99255411Y-101300010D01*
X98985158Y-101188068D01*
X98698260Y-101131000D01*
X98405740Y-101131000D01*
X98118842Y-101188068D01*
X97848589Y-101300010D01*
X97605368Y-101462525D01*
X97473513Y-101594380D01*
X97451502Y-101521820D01*
X97392537Y-101411506D01*
X97313185Y-101314815D01*
X97216494Y-101235463D01*
X97106180Y-101176498D01*
X96986482Y-101140188D01*
X96862000Y-101127928D01*
X95162000Y-101127928D01*
X95037518Y-101140188D01*
X94917820Y-101176498D01*
X94807506Y-101235463D01*
X94710815Y-101314815D01*
X94631463Y-101411506D01*
X94572498Y-101521820D01*
X94536188Y-101641518D01*
X94523928Y-101766000D01*
X79908000Y-101766000D01*
X79908000Y-100617872D01*
X119939000Y-100617872D01*
X119939000Y-101058128D01*
X120024890Y-101489925D01*
X120193369Y-101896669D01*
X120437962Y-102262729D01*
X120749271Y-102574038D01*
X121115331Y-102818631D01*
X121522075Y-102987110D01*
X121953872Y-103073000D01*
X122394128Y-103073000D01*
X122825925Y-102987110D01*
X123232669Y-102818631D01*
X123598729Y-102574038D01*
X123910038Y-102262729D01*
X124154631Y-101896669D01*
X124323110Y-101489925D01*
X124409000Y-101058128D01*
X124409000Y-100617872D01*
X124323110Y-100186075D01*
X124154631Y-99779331D01*
X123910038Y-99413271D01*
X123598729Y-99101962D01*
X123232669Y-98857369D01*
X122825925Y-98688890D01*
X122394128Y-98603000D01*
X121953872Y-98603000D01*
X121522075Y-98688890D01*
X121115331Y-98857369D01*
X120749271Y-99101962D01*
X120437962Y-99413271D01*
X120193369Y-99779331D01*
X120024890Y-100186075D01*
X119939000Y-100617872D01*
X79908000Y-100617872D01*
X79908000Y-97036000D01*
X97921928Y-97036000D01*
X97921928Y-98036000D01*
X97934188Y-98160482D01*
X97970498Y-98280180D01*
X98029463Y-98390494D01*
X98108815Y-98487185D01*
X98205506Y-98566537D01*
X98315820Y-98625502D01*
X98435518Y-98661812D01*
X98560000Y-98674072D01*
X99560000Y-98674072D01*
X99684482Y-98661812D01*
X99804180Y-98625502D01*
X99914494Y-98566537D01*
X100011185Y-98487185D01*
X100090537Y-98390494D01*
X100139500Y-98298892D01*
X100188463Y-98390494D01*
X100267815Y-98487185D01*
X100364506Y-98566537D01*
X100474820Y-98625502D01*
X100594518Y-98661812D01*
X100719000Y-98674072D01*
X101719000Y-98674072D01*
X101843482Y-98661812D01*
X101963180Y-98625502D01*
X102073494Y-98566537D01*
X102170185Y-98487185D01*
X102249537Y-98390494D01*
X102308502Y-98280180D01*
X102344812Y-98160482D01*
X102357072Y-98036000D01*
X102357072Y-97036000D01*
X105668928Y-97036000D01*
X105668928Y-98036000D01*
X105681188Y-98160482D01*
X105717498Y-98280180D01*
X105776463Y-98390494D01*
X105855815Y-98487185D01*
X105952506Y-98566537D01*
X106062820Y-98625502D01*
X106182518Y-98661812D01*
X106307000Y-98674072D01*
X107307000Y-98674072D01*
X107431482Y-98661812D01*
X107551180Y-98625502D01*
X107661494Y-98566537D01*
X107758185Y-98487185D01*
X107837537Y-98390494D01*
X107896502Y-98280180D01*
X107932812Y-98160482D01*
X107945072Y-98036000D01*
X107945072Y-97036000D01*
X107954928Y-97036000D01*
X107954928Y-98036000D01*
X107967188Y-98160482D01*
X108003498Y-98280180D01*
X108062463Y-98390494D01*
X108141815Y-98487185D01*
X108238506Y-98566537D01*
X108348820Y-98625502D01*
X108468518Y-98661812D01*
X108593000Y-98674072D01*
X109593000Y-98674072D01*
X109717482Y-98661812D01*
X109837180Y-98625502D01*
X109947494Y-98566537D01*
X110044185Y-98487185D01*
X110123537Y-98390494D01*
X110182502Y-98280180D01*
X110218812Y-98160482D01*
X110231072Y-98036000D01*
X110231072Y-97036000D01*
X110218812Y-96911518D01*
X110182502Y-96791820D01*
X110123537Y-96681506D01*
X110044185Y-96584815D01*
X109947494Y-96505463D01*
X109837180Y-96446498D01*
X109717482Y-96410188D01*
X109593000Y-96397928D01*
X108593000Y-96397928D01*
X108468518Y-96410188D01*
X108348820Y-96446498D01*
X108238506Y-96505463D01*
X108141815Y-96584815D01*
X108062463Y-96681506D01*
X108003498Y-96791820D01*
X107967188Y-96911518D01*
X107954928Y-97036000D01*
X107945072Y-97036000D01*
X107932812Y-96911518D01*
X107896502Y-96791820D01*
X107837537Y-96681506D01*
X107758185Y-96584815D01*
X107661494Y-96505463D01*
X107551180Y-96446498D01*
X107431482Y-96410188D01*
X107307000Y-96397928D01*
X106307000Y-96397928D01*
X106182518Y-96410188D01*
X106062820Y-96446498D01*
X105952506Y-96505463D01*
X105855815Y-96584815D01*
X105776463Y-96681506D01*
X105717498Y-96791820D01*
X105681188Y-96911518D01*
X105668928Y-97036000D01*
X102357072Y-97036000D01*
X102344812Y-96911518D01*
X102308502Y-96791820D01*
X102249537Y-96681506D01*
X102170185Y-96584815D01*
X102073494Y-96505463D01*
X101963180Y-96446498D01*
X101843482Y-96410188D01*
X101719000Y-96397928D01*
X100719000Y-96397928D01*
X100594518Y-96410188D01*
X100474820Y-96446498D01*
X100364506Y-96505463D01*
X100267815Y-96584815D01*
X100188463Y-96681506D01*
X100139500Y-96773108D01*
X100090537Y-96681506D01*
X100011185Y-96584815D01*
X99914494Y-96505463D01*
X99804180Y-96446498D01*
X99684482Y-96410188D01*
X99560000Y-96397928D01*
X98560000Y-96397928D01*
X98435518Y-96410188D01*
X98315820Y-96446498D01*
X98205506Y-96505463D01*
X98108815Y-96584815D01*
X98029463Y-96681506D01*
X97970498Y-96791820D01*
X97934188Y-96911518D01*
X97921928Y-97036000D01*
X79908000Y-97036000D01*
X79908000Y-94494390D01*
X81197324Y-94494390D01*
X81218237Y-94588453D01*
X81333509Y-94856926D01*
X81498943Y-95097752D01*
X81708181Y-95301676D01*
X81953182Y-95460861D01*
X82224531Y-95569190D01*
X82511800Y-95622500D01*
X83011800Y-95622500D01*
X83011800Y-94264500D01*
X83265800Y-94264500D01*
X83265800Y-95622500D01*
X83765800Y-95622500D01*
X84053069Y-95569190D01*
X84324418Y-95460861D01*
X84569419Y-95301676D01*
X84778657Y-95097752D01*
X84944091Y-94856926D01*
X85059363Y-94588453D01*
X85080276Y-94494390D01*
X84958955Y-94264500D01*
X83265800Y-94264500D01*
X83011800Y-94264500D01*
X81318645Y-94264500D01*
X81197324Y-94494390D01*
X79908000Y-94494390D01*
X79908000Y-93780610D01*
X81197324Y-93780610D01*
X81318645Y-94010500D01*
X83011800Y-94010500D01*
X83011800Y-92652500D01*
X83265800Y-92652500D01*
X83265800Y-94010500D01*
X84958955Y-94010500D01*
X85080276Y-93780610D01*
X85059363Y-93686547D01*
X84944091Y-93418074D01*
X84778657Y-93177248D01*
X84569419Y-92973324D01*
X84324418Y-92814139D01*
X84053069Y-92705810D01*
X83765800Y-92652500D01*
X83265800Y-92652500D01*
X83011800Y-92652500D01*
X82511800Y-92652500D01*
X82224531Y-92705810D01*
X81953182Y-92814139D01*
X81708181Y-92973324D01*
X81498943Y-93177248D01*
X81333509Y-93418074D01*
X81218237Y-93686547D01*
X81197324Y-93780610D01*
X79908000Y-93780610D01*
X79908000Y-89687500D01*
X85248067Y-89687500D01*
X85270947Y-89919800D01*
X85338706Y-90143174D01*
X85448742Y-90349036D01*
X85562377Y-90487500D01*
X85448742Y-90625964D01*
X85338706Y-90831826D01*
X85270947Y-91055200D01*
X85248067Y-91287500D01*
X85270947Y-91519800D01*
X85338706Y-91743174D01*
X85448742Y-91949036D01*
X85596825Y-92129475D01*
X85777264Y-92277558D01*
X85983126Y-92387594D01*
X86206500Y-92455353D01*
X86380593Y-92472500D01*
X87047007Y-92472500D01*
X87064452Y-92470782D01*
X87132950Y-92640254D01*
X87261075Y-92835619D01*
X87424852Y-93002234D01*
X87617987Y-93133696D01*
X87833058Y-93224954D01*
X88061800Y-93272500D01*
X88336800Y-93272500D01*
X88336800Y-92214500D01*
X88590800Y-92214500D01*
X88590800Y-93272500D01*
X88865800Y-93272500D01*
X89094542Y-93224954D01*
X89309613Y-93133696D01*
X89502748Y-93002234D01*
X89666525Y-92835619D01*
X89794650Y-92640254D01*
X89882199Y-92423647D01*
X89882603Y-92397244D01*
X89757161Y-92214500D01*
X88590800Y-92214500D01*
X88336800Y-92214500D01*
X88316800Y-92214500D01*
X88316800Y-91960500D01*
X88336800Y-91960500D01*
X88336800Y-91940500D01*
X88590800Y-91940500D01*
X88590800Y-91960500D01*
X89757161Y-91960500D01*
X89882603Y-91777756D01*
X89882199Y-91751353D01*
X89810921Y-91575000D01*
X98175928Y-91575000D01*
X98175928Y-92575000D01*
X98188188Y-92699482D01*
X98224498Y-92819180D01*
X98283463Y-92929494D01*
X98362815Y-93026185D01*
X98459506Y-93105537D01*
X98551108Y-93154500D01*
X98459506Y-93203463D01*
X98362815Y-93282815D01*
X98283463Y-93379506D01*
X98224498Y-93489820D01*
X98188188Y-93609518D01*
X98175928Y-93734000D01*
X98175928Y-94734000D01*
X98188188Y-94858482D01*
X98224498Y-94978180D01*
X98283463Y-95088494D01*
X98362815Y-95185185D01*
X98459506Y-95264537D01*
X98569820Y-95323502D01*
X98689518Y-95359812D01*
X98814000Y-95372072D01*
X99814000Y-95372072D01*
X99938482Y-95359812D01*
X100058180Y-95323502D01*
X100168494Y-95264537D01*
X100265185Y-95185185D01*
X100344537Y-95088494D01*
X100403502Y-94978180D01*
X100439812Y-94858482D01*
X100452072Y-94734000D01*
X100452072Y-93734000D01*
X100451208Y-93725224D01*
X120750381Y-93725224D01*
X120882317Y-94020312D01*
X121223045Y-94191159D01*
X121590557Y-94292250D01*
X121970729Y-94319701D01*
X122348951Y-94272457D01*
X122710690Y-94152333D01*
X122957683Y-94020312D01*
X123089619Y-93725224D01*
X121920000Y-92555605D01*
X120750381Y-93725224D01*
X100451208Y-93725224D01*
X100439812Y-93609518D01*
X100403502Y-93489820D01*
X100344537Y-93379506D01*
X100265185Y-93282815D01*
X100168494Y-93203463D01*
X100076892Y-93154500D01*
X100168494Y-93105537D01*
X100265185Y-93026185D01*
X100344537Y-92929494D01*
X100403502Y-92819180D01*
X100439812Y-92699482D01*
X100452072Y-92575000D01*
X100452072Y-92426729D01*
X119976299Y-92426729D01*
X120023543Y-92804951D01*
X120143667Y-93166690D01*
X120275688Y-93413683D01*
X120570776Y-93545619D01*
X121740395Y-92376000D01*
X122099605Y-92376000D01*
X123269224Y-93545619D01*
X123564312Y-93413683D01*
X123735159Y-93072955D01*
X123836250Y-92705443D01*
X123863701Y-92325271D01*
X123816457Y-91947049D01*
X123696333Y-91585310D01*
X123564312Y-91338317D01*
X123269224Y-91206381D01*
X122099605Y-92376000D01*
X121740395Y-92376000D01*
X120570776Y-91206381D01*
X120275688Y-91338317D01*
X120104841Y-91679045D01*
X120003750Y-92046557D01*
X119976299Y-92426729D01*
X100452072Y-92426729D01*
X100452072Y-91575000D01*
X100439812Y-91450518D01*
X100403502Y-91330820D01*
X100344537Y-91220506D01*
X100265185Y-91123815D01*
X100168494Y-91044463D01*
X100058180Y-90985498D01*
X99938482Y-90949188D01*
X99814000Y-90936928D01*
X98814000Y-90936928D01*
X98689518Y-90949188D01*
X98569820Y-90985498D01*
X98459506Y-91044463D01*
X98362815Y-91123815D01*
X98283463Y-91220506D01*
X98224498Y-91330820D01*
X98188188Y-91450518D01*
X98175928Y-91575000D01*
X89810921Y-91575000D01*
X89794650Y-91534746D01*
X89666525Y-91339381D01*
X89615362Y-91287331D01*
X89728858Y-91149036D01*
X89838894Y-90943174D01*
X89906653Y-90719800D01*
X89929533Y-90487500D01*
X89906653Y-90255200D01*
X89838894Y-90031826D01*
X89728858Y-89825964D01*
X89615223Y-89687500D01*
X89728858Y-89549036D01*
X89838894Y-89343174D01*
X89906653Y-89119800D01*
X89929533Y-88887500D01*
X89906653Y-88655200D01*
X89838894Y-88431826D01*
X89728858Y-88225964D01*
X89580775Y-88045525D01*
X89400336Y-87897442D01*
X89194474Y-87787406D01*
X88971100Y-87719647D01*
X88797007Y-87702500D01*
X88130593Y-87702500D01*
X87956500Y-87719647D01*
X87733126Y-87787406D01*
X87527264Y-87897442D01*
X87346825Y-88045525D01*
X87198742Y-88225964D01*
X87088706Y-88431826D01*
X87066680Y-88504438D01*
X87047007Y-88502500D01*
X86380593Y-88502500D01*
X86206500Y-88519647D01*
X85983126Y-88587406D01*
X85777264Y-88697442D01*
X85596825Y-88845525D01*
X85448742Y-89025964D01*
X85338706Y-89231826D01*
X85270947Y-89455200D01*
X85248067Y-89687500D01*
X79908000Y-89687500D01*
X79908000Y-87194390D01*
X81197324Y-87194390D01*
X81218237Y-87288453D01*
X81333509Y-87556926D01*
X81498943Y-87797752D01*
X81708181Y-88001676D01*
X81953182Y-88160861D01*
X82224531Y-88269190D01*
X82511800Y-88322500D01*
X83011800Y-88322500D01*
X83011800Y-86964500D01*
X83265800Y-86964500D01*
X83265800Y-88322500D01*
X83765800Y-88322500D01*
X84053069Y-88269190D01*
X84324418Y-88160861D01*
X84569419Y-88001676D01*
X84778657Y-87797752D01*
X84888397Y-87638000D01*
X108081928Y-87638000D01*
X108081928Y-88638000D01*
X108094188Y-88762482D01*
X108130498Y-88882180D01*
X108189463Y-88992494D01*
X108268815Y-89089185D01*
X108347793Y-89154000D01*
X108268815Y-89218815D01*
X108189463Y-89315506D01*
X108130498Y-89425820D01*
X108094188Y-89545518D01*
X108081928Y-89670000D01*
X108081928Y-90670000D01*
X108094188Y-90794482D01*
X108130498Y-90914180D01*
X108189463Y-91024494D01*
X108268815Y-91121185D01*
X108365506Y-91200537D01*
X108475820Y-91259502D01*
X108595518Y-91295812D01*
X108720000Y-91308072D01*
X109720000Y-91308072D01*
X109844482Y-91295812D01*
X109964180Y-91259502D01*
X110074494Y-91200537D01*
X110171185Y-91121185D01*
X110248664Y-91026776D01*
X120750381Y-91026776D01*
X121920000Y-92196395D01*
X123089619Y-91026776D01*
X122957683Y-90731688D01*
X122616955Y-90560841D01*
X122249443Y-90459750D01*
X121869271Y-90432299D01*
X121491049Y-90479543D01*
X121129310Y-90599667D01*
X120882317Y-90731688D01*
X120750381Y-91026776D01*
X110248664Y-91026776D01*
X110250537Y-91024494D01*
X110309502Y-90914180D01*
X110345812Y-90794482D01*
X110358072Y-90670000D01*
X110358072Y-89670000D01*
X110345812Y-89545518D01*
X110309502Y-89425820D01*
X110250537Y-89315506D01*
X110171185Y-89218815D01*
X110092207Y-89154000D01*
X110171185Y-89089185D01*
X110250537Y-88992494D01*
X110309502Y-88882180D01*
X110345812Y-88762482D01*
X110358072Y-88638000D01*
X110358072Y-87638000D01*
X110345812Y-87513518D01*
X110309502Y-87393820D01*
X110250537Y-87283506D01*
X110171185Y-87186815D01*
X110074494Y-87107463D01*
X109964180Y-87048498D01*
X109844482Y-87012188D01*
X109720000Y-86999928D01*
X108720000Y-86999928D01*
X108595518Y-87012188D01*
X108475820Y-87048498D01*
X108365506Y-87107463D01*
X108268815Y-87186815D01*
X108189463Y-87283506D01*
X108130498Y-87393820D01*
X108094188Y-87513518D01*
X108081928Y-87638000D01*
X84888397Y-87638000D01*
X84944091Y-87556926D01*
X85059363Y-87288453D01*
X85080276Y-87194390D01*
X84958955Y-86964500D01*
X83265800Y-86964500D01*
X83011800Y-86964500D01*
X81318645Y-86964500D01*
X81197324Y-87194390D01*
X79908000Y-87194390D01*
X79908000Y-86480610D01*
X81197324Y-86480610D01*
X81318645Y-86710500D01*
X83011800Y-86710500D01*
X83011800Y-85352500D01*
X83265800Y-85352500D01*
X83265800Y-86710500D01*
X84958955Y-86710500D01*
X85080276Y-86480610D01*
X85059363Y-86386547D01*
X84944091Y-86118074D01*
X84778657Y-85877248D01*
X84569419Y-85673324D01*
X84465801Y-85606000D01*
X98175928Y-85606000D01*
X98175928Y-86606000D01*
X98188188Y-86730482D01*
X98224498Y-86850180D01*
X98283463Y-86960494D01*
X98362815Y-87057185D01*
X98459506Y-87136537D01*
X98569820Y-87195502D01*
X98689518Y-87231812D01*
X98814000Y-87244072D01*
X99814000Y-87244072D01*
X99938482Y-87231812D01*
X100058180Y-87195502D01*
X100168494Y-87136537D01*
X100265185Y-87057185D01*
X100344537Y-86960494D01*
X100403502Y-86850180D01*
X100439812Y-86730482D01*
X100452072Y-86606000D01*
X100452072Y-86076000D01*
X119981928Y-86076000D01*
X119981928Y-88676000D01*
X119994188Y-88800482D01*
X120030498Y-88920180D01*
X120089463Y-89030494D01*
X120168815Y-89127185D01*
X120265506Y-89206537D01*
X120375820Y-89265502D01*
X120495518Y-89301812D01*
X120620000Y-89314072D01*
X123220000Y-89314072D01*
X123344482Y-89301812D01*
X123464180Y-89265502D01*
X123574494Y-89206537D01*
X123671185Y-89127185D01*
X123750537Y-89030494D01*
X123809502Y-88920180D01*
X123845812Y-88800482D01*
X123858072Y-88676000D01*
X123858072Y-86076000D01*
X123845812Y-85951518D01*
X123809502Y-85831820D01*
X123750537Y-85721506D01*
X123671185Y-85624815D01*
X123574494Y-85545463D01*
X123464180Y-85486498D01*
X123344482Y-85450188D01*
X123220000Y-85437928D01*
X120620000Y-85437928D01*
X120495518Y-85450188D01*
X120375820Y-85486498D01*
X120265506Y-85545463D01*
X120168815Y-85624815D01*
X120089463Y-85721506D01*
X120030498Y-85831820D01*
X119994188Y-85951518D01*
X119981928Y-86076000D01*
X100452072Y-86076000D01*
X100452072Y-85606000D01*
X100439812Y-85481518D01*
X100403502Y-85361820D01*
X100344537Y-85251506D01*
X100265185Y-85154815D01*
X100168494Y-85075463D01*
X100058180Y-85016498D01*
X99938482Y-84980188D01*
X99814000Y-84967928D01*
X98814000Y-84967928D01*
X98689518Y-84980188D01*
X98569820Y-85016498D01*
X98459506Y-85075463D01*
X98362815Y-85154815D01*
X98283463Y-85251506D01*
X98224498Y-85361820D01*
X98188188Y-85481518D01*
X98175928Y-85606000D01*
X84465801Y-85606000D01*
X84324418Y-85514139D01*
X84053069Y-85405810D01*
X83765800Y-85352500D01*
X83265800Y-85352500D01*
X83011800Y-85352500D01*
X82511800Y-85352500D01*
X82224531Y-85405810D01*
X81953182Y-85514139D01*
X81708181Y-85673324D01*
X81498943Y-85877248D01*
X81333509Y-86118074D01*
X81218237Y-86386547D01*
X81197324Y-86480610D01*
X79908000Y-86480610D01*
X79908000Y-80551872D01*
X80442000Y-80551872D01*
X80442000Y-80992128D01*
X80527890Y-81423925D01*
X80696369Y-81830669D01*
X80940962Y-82196729D01*
X81252271Y-82508038D01*
X81618331Y-82752631D01*
X82025075Y-82921110D01*
X82456872Y-83007000D01*
X82897128Y-83007000D01*
X83328925Y-82921110D01*
X83735669Y-82752631D01*
X84101729Y-82508038D01*
X84413038Y-82196729D01*
X84657631Y-81830669D01*
X84826110Y-81423925D01*
X84912000Y-80992128D01*
X84912000Y-80551872D01*
X84837235Y-80176000D01*
X86649928Y-80176000D01*
X86649928Y-81876000D01*
X86662188Y-82000482D01*
X86698498Y-82120180D01*
X86757463Y-82230494D01*
X86836815Y-82327185D01*
X86933506Y-82406537D01*
X87043820Y-82465502D01*
X87163518Y-82501812D01*
X87288000Y-82514072D01*
X88988000Y-82514072D01*
X89112482Y-82501812D01*
X89232180Y-82465502D01*
X89342494Y-82406537D01*
X89439185Y-82327185D01*
X89518537Y-82230494D01*
X89577502Y-82120180D01*
X89599513Y-82047620D01*
X89731368Y-82179475D01*
X89974589Y-82341990D01*
X90244842Y-82453932D01*
X90531740Y-82511000D01*
X90824260Y-82511000D01*
X91111158Y-82453932D01*
X91381411Y-82341990D01*
X91624632Y-82179475D01*
X91831475Y-81972632D01*
X91953195Y-81790466D01*
X92022822Y-81907355D01*
X92217731Y-82123588D01*
X92451080Y-82297641D01*
X92713901Y-82422825D01*
X92861110Y-82467476D01*
X93091000Y-82346155D01*
X93091000Y-81153000D01*
X93345000Y-81153000D01*
X93345000Y-82346155D01*
X93574890Y-82467476D01*
X93722099Y-82422825D01*
X93984920Y-82297641D01*
X94218269Y-82123588D01*
X94413178Y-81907355D01*
X94562157Y-81657252D01*
X94659481Y-81382891D01*
X94538814Y-81153000D01*
X93345000Y-81153000D01*
X93091000Y-81153000D01*
X93071000Y-81153000D01*
X93071000Y-80899000D01*
X93091000Y-80899000D01*
X93091000Y-79705845D01*
X93345000Y-79705845D01*
X93345000Y-80899000D01*
X94538814Y-80899000D01*
X94659481Y-80669109D01*
X94562157Y-80394748D01*
X94413178Y-80144645D01*
X94218269Y-79928412D01*
X93984920Y-79754359D01*
X93722099Y-79629175D01*
X93574890Y-79584524D01*
X93345000Y-79705845D01*
X93091000Y-79705845D01*
X92861110Y-79584524D01*
X92713901Y-79629175D01*
X92451080Y-79754359D01*
X92217731Y-79928412D01*
X92022822Y-80144645D01*
X91953195Y-80261534D01*
X91831475Y-80079368D01*
X91624632Y-79872525D01*
X91381411Y-79710010D01*
X91111158Y-79598068D01*
X90824260Y-79541000D01*
X90531740Y-79541000D01*
X90244842Y-79598068D01*
X89974589Y-79710010D01*
X89731368Y-79872525D01*
X89599513Y-80004380D01*
X89577502Y-79931820D01*
X89518537Y-79821506D01*
X89439185Y-79724815D01*
X89342494Y-79645463D01*
X89232180Y-79586498D01*
X89112482Y-79550188D01*
X88988000Y-79537928D01*
X87288000Y-79537928D01*
X87163518Y-79550188D01*
X87043820Y-79586498D01*
X86933506Y-79645463D01*
X86836815Y-79724815D01*
X86757463Y-79821506D01*
X86698498Y-79931820D01*
X86662188Y-80051518D01*
X86649928Y-80176000D01*
X84837235Y-80176000D01*
X84826110Y-80120075D01*
X84657631Y-79713331D01*
X84413038Y-79347271D01*
X84101729Y-79035962D01*
X83735669Y-78791369D01*
X83328925Y-78622890D01*
X82897128Y-78537000D01*
X82456872Y-78537000D01*
X82025075Y-78622890D01*
X81618331Y-78791369D01*
X81252271Y-79035962D01*
X80940962Y-79347271D01*
X80696369Y-79713331D01*
X80527890Y-80120075D01*
X80442000Y-80551872D01*
X79908000Y-80551872D01*
X79908000Y-78384000D01*
X94996000Y-78384000D01*
X94996000Y-83312000D01*
G37*
X94996000Y-83312000D02*
X94998440Y-83336776D01*
X95005667Y-83360601D01*
X95017403Y-83382557D01*
X95033197Y-83401803D01*
X95052443Y-83417597D01*
X95074399Y-83429333D01*
X95098224Y-83436560D01*
X95123000Y-83439000D01*
X113538000Y-83439000D01*
X113562776Y-83436560D01*
X113586601Y-83429333D01*
X113608557Y-83417597D01*
X113627803Y-83401803D01*
X113643597Y-83382557D01*
X113655333Y-83360601D01*
X113662560Y-83336776D01*
X113665000Y-83312000D01*
X113665000Y-81382891D01*
X115398519Y-81382891D01*
X115495843Y-81657252D01*
X115644822Y-81907355D01*
X115839731Y-82123588D01*
X116073080Y-82297641D01*
X116335901Y-82422825D01*
X116483110Y-82467476D01*
X116713000Y-82346155D01*
X116713000Y-81153000D01*
X115519186Y-81153000D01*
X115398519Y-81382891D01*
X113665000Y-81382891D01*
X113665000Y-80669109D01*
X115398519Y-80669109D01*
X115519186Y-80899000D01*
X116713000Y-80899000D01*
X116713000Y-79705845D01*
X116967000Y-79705845D01*
X116967000Y-80899000D01*
X116987000Y-80899000D01*
X116987000Y-81153000D01*
X116967000Y-81153000D01*
X116967000Y-82346155D01*
X117196890Y-82467476D01*
X117344099Y-82422825D01*
X117606920Y-82297641D01*
X117840269Y-82123588D01*
X118035178Y-81907355D01*
X118104805Y-81790466D01*
X118226525Y-81972632D01*
X118433368Y-82179475D01*
X118676589Y-82341990D01*
X118946842Y-82453932D01*
X119233740Y-82511000D01*
X119526260Y-82511000D01*
X119813158Y-82453932D01*
X120083411Y-82341990D01*
X120326632Y-82179475D01*
X120533475Y-81972632D01*
X120650000Y-81798240D01*
X120766525Y-81972632D01*
X120973368Y-82179475D01*
X121216589Y-82341990D01*
X121486842Y-82453932D01*
X121773740Y-82511000D01*
X122066260Y-82511000D01*
X122353158Y-82453932D01*
X122623411Y-82341990D01*
X122866632Y-82179475D01*
X122998487Y-82047620D01*
X123020498Y-82120180D01*
X123079463Y-82230494D01*
X123158815Y-82327185D01*
X123255506Y-82406537D01*
X123365820Y-82465502D01*
X123485518Y-82501812D01*
X123610000Y-82514072D01*
X125310000Y-82514072D01*
X125434482Y-82501812D01*
X125554180Y-82465502D01*
X125664494Y-82406537D01*
X125761185Y-82327185D01*
X125840537Y-82230494D01*
X125899502Y-82120180D01*
X125935812Y-82000482D01*
X125948072Y-81876000D01*
X125948072Y-80176000D01*
X125935812Y-80051518D01*
X125899502Y-79931820D01*
X125840537Y-79821506D01*
X125761185Y-79724815D01*
X125664494Y-79645463D01*
X125554180Y-79586498D01*
X125434482Y-79550188D01*
X125310000Y-79537928D01*
X123610000Y-79537928D01*
X123485518Y-79550188D01*
X123365820Y-79586498D01*
X123255506Y-79645463D01*
X123158815Y-79724815D01*
X123079463Y-79821506D01*
X123020498Y-79931820D01*
X122998487Y-80004380D01*
X122866632Y-79872525D01*
X122623411Y-79710010D01*
X122353158Y-79598068D01*
X122066260Y-79541000D01*
X121773740Y-79541000D01*
X121486842Y-79598068D01*
X121216589Y-79710010D01*
X120973368Y-79872525D01*
X120766525Y-80079368D01*
X120650000Y-80253760D01*
X120533475Y-80079368D01*
X120326632Y-79872525D01*
X120083411Y-79710010D01*
X119813158Y-79598068D01*
X119526260Y-79541000D01*
X119233740Y-79541000D01*
X118946842Y-79598068D01*
X118676589Y-79710010D01*
X118433368Y-79872525D01*
X118226525Y-80079368D01*
X118104805Y-80261534D01*
X118035178Y-80144645D01*
X117840269Y-79928412D01*
X117606920Y-79754359D01*
X117344099Y-79629175D01*
X117196890Y-79584524D01*
X116967000Y-79705845D01*
X116713000Y-79705845D01*
X116483110Y-79584524D01*
X116335901Y-79629175D01*
X116073080Y-79754359D01*
X115839731Y-79928412D01*
X115644822Y-80144645D01*
X115495843Y-80394748D01*
X115398519Y-80669109D01*
X113665000Y-80669109D01*
X113665000Y-78384000D01*
X126340001Y-78384000D01*
X126340000Y-104750000D01*
X79908000Y-104750000D01*
X79908000Y-101766000D01*
X94523928Y-101766000D01*
X94523928Y-103466000D01*
X94536188Y-103590482D01*
X94572498Y-103710180D01*
X94631463Y-103820494D01*
X94710815Y-103917185D01*
X94807506Y-103996537D01*
X94917820Y-104055502D01*
X95037518Y-104091812D01*
X95162000Y-104104072D01*
X96862000Y-104104072D01*
X96986482Y-104091812D01*
X97106180Y-104055502D01*
X97216494Y-103996537D01*
X97313185Y-103917185D01*
X97392537Y-103820494D01*
X97451502Y-103710180D01*
X97473513Y-103637620D01*
X97605368Y-103769475D01*
X97848589Y-103931990D01*
X98118842Y-104043932D01*
X98405740Y-104101000D01*
X98698260Y-104101000D01*
X98985158Y-104043932D01*
X99255411Y-103931990D01*
X99498632Y-103769475D01*
X99705475Y-103562632D01*
X99822000Y-103388240D01*
X99938525Y-103562632D01*
X100145368Y-103769475D01*
X100388589Y-103931990D01*
X100658842Y-104043932D01*
X100945740Y-104101000D01*
X101238260Y-104101000D01*
X101525158Y-104043932D01*
X101795411Y-103931990D01*
X102038632Y-103769475D01*
X102245475Y-103562632D01*
X102367195Y-103380466D01*
X102436822Y-103497355D01*
X102631731Y-103713588D01*
X102865080Y-103887641D01*
X103127901Y-104012825D01*
X103275110Y-104057476D01*
X103505000Y-103936155D01*
X103505000Y-102743000D01*
X103759000Y-102743000D01*
X103759000Y-103936155D01*
X103988890Y-104057476D01*
X104136099Y-104012825D01*
X104398920Y-103887641D01*
X104632269Y-103713588D01*
X104827178Y-103497355D01*
X104976157Y-103247252D01*
X105073481Y-102972891D01*
X106000519Y-102972891D01*
X106097843Y-103247252D01*
X106246822Y-103497355D01*
X106441731Y-103713588D01*
X106675080Y-103887641D01*
X106937901Y-104012825D01*
X107085110Y-104057476D01*
X107315000Y-103936155D01*
X107315000Y-102743000D01*
X106121186Y-102743000D01*
X106000519Y-102972891D01*
X105073481Y-102972891D01*
X104952814Y-102743000D01*
X103759000Y-102743000D01*
X103505000Y-102743000D01*
X103485000Y-102743000D01*
X103485000Y-102489000D01*
X103505000Y-102489000D01*
X103505000Y-101295845D01*
X103759000Y-101295845D01*
X103759000Y-102489000D01*
X104952814Y-102489000D01*
X105073481Y-102259109D01*
X106000519Y-102259109D01*
X106121186Y-102489000D01*
X107315000Y-102489000D01*
X107315000Y-101295845D01*
X107569000Y-101295845D01*
X107569000Y-102489000D01*
X107589000Y-102489000D01*
X107589000Y-102743000D01*
X107569000Y-102743000D01*
X107569000Y-103936155D01*
X107798890Y-104057476D01*
X107946099Y-104012825D01*
X108208920Y-103887641D01*
X108442269Y-103713588D01*
X108637178Y-103497355D01*
X108706805Y-103380466D01*
X108828525Y-103562632D01*
X109035368Y-103769475D01*
X109278589Y-103931990D01*
X109548842Y-104043932D01*
X109835740Y-104101000D01*
X110128260Y-104101000D01*
X110415158Y-104043932D01*
X110685411Y-103931990D01*
X110928632Y-103769475D01*
X111060487Y-103637620D01*
X111082498Y-103710180D01*
X111141463Y-103820494D01*
X111220815Y-103917185D01*
X111317506Y-103996537D01*
X111427820Y-104055502D01*
X111547518Y-104091812D01*
X111672000Y-104104072D01*
X113372000Y-104104072D01*
X113496482Y-104091812D01*
X113616180Y-104055502D01*
X113726494Y-103996537D01*
X113823185Y-103917185D01*
X113902537Y-103820494D01*
X113961502Y-103710180D01*
X113997812Y-103590482D01*
X114010072Y-103466000D01*
X114010072Y-101766000D01*
X113997812Y-101641518D01*
X113961502Y-101521820D01*
X113902537Y-101411506D01*
X113823185Y-101314815D01*
X113726494Y-101235463D01*
X113616180Y-101176498D01*
X113496482Y-101140188D01*
X113372000Y-101127928D01*
X111672000Y-101127928D01*
X111547518Y-101140188D01*
X111427820Y-101176498D01*
X111317506Y-101235463D01*
X111220815Y-101314815D01*
X111141463Y-101411506D01*
X111082498Y-101521820D01*
X111060487Y-101594380D01*
X110928632Y-101462525D01*
X110685411Y-101300010D01*
X110415158Y-101188068D01*
X110128260Y-101131000D01*
X109835740Y-101131000D01*
X109548842Y-101188068D01*
X109278589Y-101300010D01*
X109035368Y-101462525D01*
X108828525Y-101669368D01*
X108706805Y-101851534D01*
X108637178Y-101734645D01*
X108442269Y-101518412D01*
X108208920Y-101344359D01*
X107946099Y-101219175D01*
X107798890Y-101174524D01*
X107569000Y-101295845D01*
X107315000Y-101295845D01*
X107085110Y-101174524D01*
X106937901Y-101219175D01*
X106675080Y-101344359D01*
X106441731Y-101518412D01*
X106246822Y-101734645D01*
X106097843Y-101984748D01*
X106000519Y-102259109D01*
X105073481Y-102259109D01*
X104976157Y-101984748D01*
X104827178Y-101734645D01*
X104632269Y-101518412D01*
X104398920Y-101344359D01*
X104136099Y-101219175D01*
X103988890Y-101174524D01*
X103759000Y-101295845D01*
X103505000Y-101295845D01*
X103275110Y-101174524D01*
X103127901Y-101219175D01*
X102865080Y-101344359D01*
X102631731Y-101518412D01*
X102436822Y-101734645D01*
X102367195Y-101851534D01*
X102245475Y-101669368D01*
X102038632Y-101462525D01*
X101795411Y-101300010D01*
X101525158Y-101188068D01*
X101238260Y-101131000D01*
X100945740Y-101131000D01*
X100658842Y-101188068D01*
X100388589Y-101300010D01*
X100145368Y-101462525D01*
X99938525Y-101669368D01*
X99822000Y-101843760D01*
X99705475Y-101669368D01*
X99498632Y-101462525D01*
X99255411Y-101300010D01*
X98985158Y-101188068D01*
X98698260Y-101131000D01*
X98405740Y-101131000D01*
X98118842Y-101188068D01*
X97848589Y-101300010D01*
X97605368Y-101462525D01*
X97473513Y-101594380D01*
X97451502Y-101521820D01*
X97392537Y-101411506D01*
X97313185Y-101314815D01*
X97216494Y-101235463D01*
X97106180Y-101176498D01*
X96986482Y-101140188D01*
X96862000Y-101127928D01*
X95162000Y-101127928D01*
X95037518Y-101140188D01*
X94917820Y-101176498D01*
X94807506Y-101235463D01*
X94710815Y-101314815D01*
X94631463Y-101411506D01*
X94572498Y-101521820D01*
X94536188Y-101641518D01*
X94523928Y-101766000D01*
X79908000Y-101766000D01*
X79908000Y-100617872D01*
X119939000Y-100617872D01*
X119939000Y-101058128D01*
X120024890Y-101489925D01*
X120193369Y-101896669D01*
X120437962Y-102262729D01*
X120749271Y-102574038D01*
X121115331Y-102818631D01*
X121522075Y-102987110D01*
X121953872Y-103073000D01*
X122394128Y-103073000D01*
X122825925Y-102987110D01*
X123232669Y-102818631D01*
X123598729Y-102574038D01*
X123910038Y-102262729D01*
X124154631Y-101896669D01*
X124323110Y-101489925D01*
X124409000Y-101058128D01*
X124409000Y-100617872D01*
X124323110Y-100186075D01*
X124154631Y-99779331D01*
X123910038Y-99413271D01*
X123598729Y-99101962D01*
X123232669Y-98857369D01*
X122825925Y-98688890D01*
X122394128Y-98603000D01*
X121953872Y-98603000D01*
X121522075Y-98688890D01*
X121115331Y-98857369D01*
X120749271Y-99101962D01*
X120437962Y-99413271D01*
X120193369Y-99779331D01*
X120024890Y-100186075D01*
X119939000Y-100617872D01*
X79908000Y-100617872D01*
X79908000Y-97036000D01*
X97921928Y-97036000D01*
X97921928Y-98036000D01*
X97934188Y-98160482D01*
X97970498Y-98280180D01*
X98029463Y-98390494D01*
X98108815Y-98487185D01*
X98205506Y-98566537D01*
X98315820Y-98625502D01*
X98435518Y-98661812D01*
X98560000Y-98674072D01*
X99560000Y-98674072D01*
X99684482Y-98661812D01*
X99804180Y-98625502D01*
X99914494Y-98566537D01*
X100011185Y-98487185D01*
X100090537Y-98390494D01*
X100139500Y-98298892D01*
X100188463Y-98390494D01*
X100267815Y-98487185D01*
X100364506Y-98566537D01*
X100474820Y-98625502D01*
X100594518Y-98661812D01*
X100719000Y-98674072D01*
X101719000Y-98674072D01*
X101843482Y-98661812D01*
X101963180Y-98625502D01*
X102073494Y-98566537D01*
X102170185Y-98487185D01*
X102249537Y-98390494D01*
X102308502Y-98280180D01*
X102344812Y-98160482D01*
X102357072Y-98036000D01*
X102357072Y-97036000D01*
X105668928Y-97036000D01*
X105668928Y-98036000D01*
X105681188Y-98160482D01*
X105717498Y-98280180D01*
X105776463Y-98390494D01*
X105855815Y-98487185D01*
X105952506Y-98566537D01*
X106062820Y-98625502D01*
X106182518Y-98661812D01*
X106307000Y-98674072D01*
X107307000Y-98674072D01*
X107431482Y-98661812D01*
X107551180Y-98625502D01*
X107661494Y-98566537D01*
X107758185Y-98487185D01*
X107837537Y-98390494D01*
X107896502Y-98280180D01*
X107932812Y-98160482D01*
X107945072Y-98036000D01*
X107945072Y-97036000D01*
X107954928Y-97036000D01*
X107954928Y-98036000D01*
X107967188Y-98160482D01*
X108003498Y-98280180D01*
X108062463Y-98390494D01*
X108141815Y-98487185D01*
X108238506Y-98566537D01*
X108348820Y-98625502D01*
X108468518Y-98661812D01*
X108593000Y-98674072D01*
X109593000Y-98674072D01*
X109717482Y-98661812D01*
X109837180Y-98625502D01*
X109947494Y-98566537D01*
X110044185Y-98487185D01*
X110123537Y-98390494D01*
X110182502Y-98280180D01*
X110218812Y-98160482D01*
X110231072Y-98036000D01*
X110231072Y-97036000D01*
X110218812Y-96911518D01*
X110182502Y-96791820D01*
X110123537Y-96681506D01*
X110044185Y-96584815D01*
X109947494Y-96505463D01*
X109837180Y-96446498D01*
X109717482Y-96410188D01*
X109593000Y-96397928D01*
X108593000Y-96397928D01*
X108468518Y-96410188D01*
X108348820Y-96446498D01*
X108238506Y-96505463D01*
X108141815Y-96584815D01*
X108062463Y-96681506D01*
X108003498Y-96791820D01*
X107967188Y-96911518D01*
X107954928Y-97036000D01*
X107945072Y-97036000D01*
X107932812Y-96911518D01*
X107896502Y-96791820D01*
X107837537Y-96681506D01*
X107758185Y-96584815D01*
X107661494Y-96505463D01*
X107551180Y-96446498D01*
X107431482Y-96410188D01*
X107307000Y-96397928D01*
X106307000Y-96397928D01*
X106182518Y-96410188D01*
X106062820Y-96446498D01*
X105952506Y-96505463D01*
X105855815Y-96584815D01*
X105776463Y-96681506D01*
X105717498Y-96791820D01*
X105681188Y-96911518D01*
X105668928Y-97036000D01*
X102357072Y-97036000D01*
X102344812Y-96911518D01*
X102308502Y-96791820D01*
X102249537Y-96681506D01*
X102170185Y-96584815D01*
X102073494Y-96505463D01*
X101963180Y-96446498D01*
X101843482Y-96410188D01*
X101719000Y-96397928D01*
X100719000Y-96397928D01*
X100594518Y-96410188D01*
X100474820Y-96446498D01*
X100364506Y-96505463D01*
X100267815Y-96584815D01*
X100188463Y-96681506D01*
X100139500Y-96773108D01*
X100090537Y-96681506D01*
X100011185Y-96584815D01*
X99914494Y-96505463D01*
X99804180Y-96446498D01*
X99684482Y-96410188D01*
X99560000Y-96397928D01*
X98560000Y-96397928D01*
X98435518Y-96410188D01*
X98315820Y-96446498D01*
X98205506Y-96505463D01*
X98108815Y-96584815D01*
X98029463Y-96681506D01*
X97970498Y-96791820D01*
X97934188Y-96911518D01*
X97921928Y-97036000D01*
X79908000Y-97036000D01*
X79908000Y-94494390D01*
X81197324Y-94494390D01*
X81218237Y-94588453D01*
X81333509Y-94856926D01*
X81498943Y-95097752D01*
X81708181Y-95301676D01*
X81953182Y-95460861D01*
X82224531Y-95569190D01*
X82511800Y-95622500D01*
X83011800Y-95622500D01*
X83011800Y-94264500D01*
X83265800Y-94264500D01*
X83265800Y-95622500D01*
X83765800Y-95622500D01*
X84053069Y-95569190D01*
X84324418Y-95460861D01*
X84569419Y-95301676D01*
X84778657Y-95097752D01*
X84944091Y-94856926D01*
X85059363Y-94588453D01*
X85080276Y-94494390D01*
X84958955Y-94264500D01*
X83265800Y-94264500D01*
X83011800Y-94264500D01*
X81318645Y-94264500D01*
X81197324Y-94494390D01*
X79908000Y-94494390D01*
X79908000Y-93780610D01*
X81197324Y-93780610D01*
X81318645Y-94010500D01*
X83011800Y-94010500D01*
X83011800Y-92652500D01*
X83265800Y-92652500D01*
X83265800Y-94010500D01*
X84958955Y-94010500D01*
X85080276Y-93780610D01*
X85059363Y-93686547D01*
X84944091Y-93418074D01*
X84778657Y-93177248D01*
X84569419Y-92973324D01*
X84324418Y-92814139D01*
X84053069Y-92705810D01*
X83765800Y-92652500D01*
X83265800Y-92652500D01*
X83011800Y-92652500D01*
X82511800Y-92652500D01*
X82224531Y-92705810D01*
X81953182Y-92814139D01*
X81708181Y-92973324D01*
X81498943Y-93177248D01*
X81333509Y-93418074D01*
X81218237Y-93686547D01*
X81197324Y-93780610D01*
X79908000Y-93780610D01*
X79908000Y-89687500D01*
X85248067Y-89687500D01*
X85270947Y-89919800D01*
X85338706Y-90143174D01*
X85448742Y-90349036D01*
X85562377Y-90487500D01*
X85448742Y-90625964D01*
X85338706Y-90831826D01*
X85270947Y-91055200D01*
X85248067Y-91287500D01*
X85270947Y-91519800D01*
X85338706Y-91743174D01*
X85448742Y-91949036D01*
X85596825Y-92129475D01*
X85777264Y-92277558D01*
X85983126Y-92387594D01*
X86206500Y-92455353D01*
X86380593Y-92472500D01*
X87047007Y-92472500D01*
X87064452Y-92470782D01*
X87132950Y-92640254D01*
X87261075Y-92835619D01*
X87424852Y-93002234D01*
X87617987Y-93133696D01*
X87833058Y-93224954D01*
X88061800Y-93272500D01*
X88336800Y-93272500D01*
X88336800Y-92214500D01*
X88590800Y-92214500D01*
X88590800Y-93272500D01*
X88865800Y-93272500D01*
X89094542Y-93224954D01*
X89309613Y-93133696D01*
X89502748Y-93002234D01*
X89666525Y-92835619D01*
X89794650Y-92640254D01*
X89882199Y-92423647D01*
X89882603Y-92397244D01*
X89757161Y-92214500D01*
X88590800Y-92214500D01*
X88336800Y-92214500D01*
X88316800Y-92214500D01*
X88316800Y-91960500D01*
X88336800Y-91960500D01*
X88336800Y-91940500D01*
X88590800Y-91940500D01*
X88590800Y-91960500D01*
X89757161Y-91960500D01*
X89882603Y-91777756D01*
X89882199Y-91751353D01*
X89810921Y-91575000D01*
X98175928Y-91575000D01*
X98175928Y-92575000D01*
X98188188Y-92699482D01*
X98224498Y-92819180D01*
X98283463Y-92929494D01*
X98362815Y-93026185D01*
X98459506Y-93105537D01*
X98551108Y-93154500D01*
X98459506Y-93203463D01*
X98362815Y-93282815D01*
X98283463Y-93379506D01*
X98224498Y-93489820D01*
X98188188Y-93609518D01*
X98175928Y-93734000D01*
X98175928Y-94734000D01*
X98188188Y-94858482D01*
X98224498Y-94978180D01*
X98283463Y-95088494D01*
X98362815Y-95185185D01*
X98459506Y-95264537D01*
X98569820Y-95323502D01*
X98689518Y-95359812D01*
X98814000Y-95372072D01*
X99814000Y-95372072D01*
X99938482Y-95359812D01*
X100058180Y-95323502D01*
X100168494Y-95264537D01*
X100265185Y-95185185D01*
X100344537Y-95088494D01*
X100403502Y-94978180D01*
X100439812Y-94858482D01*
X100452072Y-94734000D01*
X100452072Y-93734000D01*
X100451208Y-93725224D01*
X120750381Y-93725224D01*
X120882317Y-94020312D01*
X121223045Y-94191159D01*
X121590557Y-94292250D01*
X121970729Y-94319701D01*
X122348951Y-94272457D01*
X122710690Y-94152333D01*
X122957683Y-94020312D01*
X123089619Y-93725224D01*
X121920000Y-92555605D01*
X120750381Y-93725224D01*
X100451208Y-93725224D01*
X100439812Y-93609518D01*
X100403502Y-93489820D01*
X100344537Y-93379506D01*
X100265185Y-93282815D01*
X100168494Y-93203463D01*
X100076892Y-93154500D01*
X100168494Y-93105537D01*
X100265185Y-93026185D01*
X100344537Y-92929494D01*
X100403502Y-92819180D01*
X100439812Y-92699482D01*
X100452072Y-92575000D01*
X100452072Y-92426729D01*
X119976299Y-92426729D01*
X120023543Y-92804951D01*
X120143667Y-93166690D01*
X120275688Y-93413683D01*
X120570776Y-93545619D01*
X121740395Y-92376000D01*
X122099605Y-92376000D01*
X123269224Y-93545619D01*
X123564312Y-93413683D01*
X123735159Y-93072955D01*
X123836250Y-92705443D01*
X123863701Y-92325271D01*
X123816457Y-91947049D01*
X123696333Y-91585310D01*
X123564312Y-91338317D01*
X123269224Y-91206381D01*
X122099605Y-92376000D01*
X121740395Y-92376000D01*
X120570776Y-91206381D01*
X120275688Y-91338317D01*
X120104841Y-91679045D01*
X120003750Y-92046557D01*
X119976299Y-92426729D01*
X100452072Y-92426729D01*
X100452072Y-91575000D01*
X100439812Y-91450518D01*
X100403502Y-91330820D01*
X100344537Y-91220506D01*
X100265185Y-91123815D01*
X100168494Y-91044463D01*
X100058180Y-90985498D01*
X99938482Y-90949188D01*
X99814000Y-90936928D01*
X98814000Y-90936928D01*
X98689518Y-90949188D01*
X98569820Y-90985498D01*
X98459506Y-91044463D01*
X98362815Y-91123815D01*
X98283463Y-91220506D01*
X98224498Y-91330820D01*
X98188188Y-91450518D01*
X98175928Y-91575000D01*
X89810921Y-91575000D01*
X89794650Y-91534746D01*
X89666525Y-91339381D01*
X89615362Y-91287331D01*
X89728858Y-91149036D01*
X89838894Y-90943174D01*
X89906653Y-90719800D01*
X89929533Y-90487500D01*
X89906653Y-90255200D01*
X89838894Y-90031826D01*
X89728858Y-89825964D01*
X89615223Y-89687500D01*
X89728858Y-89549036D01*
X89838894Y-89343174D01*
X89906653Y-89119800D01*
X89929533Y-88887500D01*
X89906653Y-88655200D01*
X89838894Y-88431826D01*
X89728858Y-88225964D01*
X89580775Y-88045525D01*
X89400336Y-87897442D01*
X89194474Y-87787406D01*
X88971100Y-87719647D01*
X88797007Y-87702500D01*
X88130593Y-87702500D01*
X87956500Y-87719647D01*
X87733126Y-87787406D01*
X87527264Y-87897442D01*
X87346825Y-88045525D01*
X87198742Y-88225964D01*
X87088706Y-88431826D01*
X87066680Y-88504438D01*
X87047007Y-88502500D01*
X86380593Y-88502500D01*
X86206500Y-88519647D01*
X85983126Y-88587406D01*
X85777264Y-88697442D01*
X85596825Y-88845525D01*
X85448742Y-89025964D01*
X85338706Y-89231826D01*
X85270947Y-89455200D01*
X85248067Y-89687500D01*
X79908000Y-89687500D01*
X79908000Y-87194390D01*
X81197324Y-87194390D01*
X81218237Y-87288453D01*
X81333509Y-87556926D01*
X81498943Y-87797752D01*
X81708181Y-88001676D01*
X81953182Y-88160861D01*
X82224531Y-88269190D01*
X82511800Y-88322500D01*
X83011800Y-88322500D01*
X83011800Y-86964500D01*
X83265800Y-86964500D01*
X83265800Y-88322500D01*
X83765800Y-88322500D01*
X84053069Y-88269190D01*
X84324418Y-88160861D01*
X84569419Y-88001676D01*
X84778657Y-87797752D01*
X84888397Y-87638000D01*
X108081928Y-87638000D01*
X108081928Y-88638000D01*
X108094188Y-88762482D01*
X108130498Y-88882180D01*
X108189463Y-88992494D01*
X108268815Y-89089185D01*
X108347793Y-89154000D01*
X108268815Y-89218815D01*
X108189463Y-89315506D01*
X108130498Y-89425820D01*
X108094188Y-89545518D01*
X108081928Y-89670000D01*
X108081928Y-90670000D01*
X108094188Y-90794482D01*
X108130498Y-90914180D01*
X108189463Y-91024494D01*
X108268815Y-91121185D01*
X108365506Y-91200537D01*
X108475820Y-91259502D01*
X108595518Y-91295812D01*
X108720000Y-91308072D01*
X109720000Y-91308072D01*
X109844482Y-91295812D01*
X109964180Y-91259502D01*
X110074494Y-91200537D01*
X110171185Y-91121185D01*
X110248664Y-91026776D01*
X120750381Y-91026776D01*
X121920000Y-92196395D01*
X123089619Y-91026776D01*
X122957683Y-90731688D01*
X122616955Y-90560841D01*
X122249443Y-90459750D01*
X121869271Y-90432299D01*
X121491049Y-90479543D01*
X121129310Y-90599667D01*
X120882317Y-90731688D01*
X120750381Y-91026776D01*
X110248664Y-91026776D01*
X110250537Y-91024494D01*
X110309502Y-90914180D01*
X110345812Y-90794482D01*
X110358072Y-90670000D01*
X110358072Y-89670000D01*
X110345812Y-89545518D01*
X110309502Y-89425820D01*
X110250537Y-89315506D01*
X110171185Y-89218815D01*
X110092207Y-89154000D01*
X110171185Y-89089185D01*
X110250537Y-88992494D01*
X110309502Y-88882180D01*
X110345812Y-88762482D01*
X110358072Y-88638000D01*
X110358072Y-87638000D01*
X110345812Y-87513518D01*
X110309502Y-87393820D01*
X110250537Y-87283506D01*
X110171185Y-87186815D01*
X110074494Y-87107463D01*
X109964180Y-87048498D01*
X109844482Y-87012188D01*
X109720000Y-86999928D01*
X108720000Y-86999928D01*
X108595518Y-87012188D01*
X108475820Y-87048498D01*
X108365506Y-87107463D01*
X108268815Y-87186815D01*
X108189463Y-87283506D01*
X108130498Y-87393820D01*
X108094188Y-87513518D01*
X108081928Y-87638000D01*
X84888397Y-87638000D01*
X84944091Y-87556926D01*
X85059363Y-87288453D01*
X85080276Y-87194390D01*
X84958955Y-86964500D01*
X83265800Y-86964500D01*
X83011800Y-86964500D01*
X81318645Y-86964500D01*
X81197324Y-87194390D01*
X79908000Y-87194390D01*
X79908000Y-86480610D01*
X81197324Y-86480610D01*
X81318645Y-86710500D01*
X83011800Y-86710500D01*
X83011800Y-85352500D01*
X83265800Y-85352500D01*
X83265800Y-86710500D01*
X84958955Y-86710500D01*
X85080276Y-86480610D01*
X85059363Y-86386547D01*
X84944091Y-86118074D01*
X84778657Y-85877248D01*
X84569419Y-85673324D01*
X84465801Y-85606000D01*
X98175928Y-85606000D01*
X98175928Y-86606000D01*
X98188188Y-86730482D01*
X98224498Y-86850180D01*
X98283463Y-86960494D01*
X98362815Y-87057185D01*
X98459506Y-87136537D01*
X98569820Y-87195502D01*
X98689518Y-87231812D01*
X98814000Y-87244072D01*
X99814000Y-87244072D01*
X99938482Y-87231812D01*
X100058180Y-87195502D01*
X100168494Y-87136537D01*
X100265185Y-87057185D01*
X100344537Y-86960494D01*
X100403502Y-86850180D01*
X100439812Y-86730482D01*
X100452072Y-86606000D01*
X100452072Y-86076000D01*
X119981928Y-86076000D01*
X119981928Y-88676000D01*
X119994188Y-88800482D01*
X120030498Y-88920180D01*
X120089463Y-89030494D01*
X120168815Y-89127185D01*
X120265506Y-89206537D01*
X120375820Y-89265502D01*
X120495518Y-89301812D01*
X120620000Y-89314072D01*
X123220000Y-89314072D01*
X123344482Y-89301812D01*
X123464180Y-89265502D01*
X123574494Y-89206537D01*
X123671185Y-89127185D01*
X123750537Y-89030494D01*
X123809502Y-88920180D01*
X123845812Y-88800482D01*
X123858072Y-88676000D01*
X123858072Y-86076000D01*
X123845812Y-85951518D01*
X123809502Y-85831820D01*
X123750537Y-85721506D01*
X123671185Y-85624815D01*
X123574494Y-85545463D01*
X123464180Y-85486498D01*
X123344482Y-85450188D01*
X123220000Y-85437928D01*
X120620000Y-85437928D01*
X120495518Y-85450188D01*
X120375820Y-85486498D01*
X120265506Y-85545463D01*
X120168815Y-85624815D01*
X120089463Y-85721506D01*
X120030498Y-85831820D01*
X119994188Y-85951518D01*
X119981928Y-86076000D01*
X100452072Y-86076000D01*
X100452072Y-85606000D01*
X100439812Y-85481518D01*
X100403502Y-85361820D01*
X100344537Y-85251506D01*
X100265185Y-85154815D01*
X100168494Y-85075463D01*
X100058180Y-85016498D01*
X99938482Y-84980188D01*
X99814000Y-84967928D01*
X98814000Y-84967928D01*
X98689518Y-84980188D01*
X98569820Y-85016498D01*
X98459506Y-85075463D01*
X98362815Y-85154815D01*
X98283463Y-85251506D01*
X98224498Y-85361820D01*
X98188188Y-85481518D01*
X98175928Y-85606000D01*
X84465801Y-85606000D01*
X84324418Y-85514139D01*
X84053069Y-85405810D01*
X83765800Y-85352500D01*
X83265800Y-85352500D01*
X83011800Y-85352500D01*
X82511800Y-85352500D01*
X82224531Y-85405810D01*
X81953182Y-85514139D01*
X81708181Y-85673324D01*
X81498943Y-85877248D01*
X81333509Y-86118074D01*
X81218237Y-86386547D01*
X81197324Y-86480610D01*
X79908000Y-86480610D01*
X79908000Y-80551872D01*
X80442000Y-80551872D01*
X80442000Y-80992128D01*
X80527890Y-81423925D01*
X80696369Y-81830669D01*
X80940962Y-82196729D01*
X81252271Y-82508038D01*
X81618331Y-82752631D01*
X82025075Y-82921110D01*
X82456872Y-83007000D01*
X82897128Y-83007000D01*
X83328925Y-82921110D01*
X83735669Y-82752631D01*
X84101729Y-82508038D01*
X84413038Y-82196729D01*
X84657631Y-81830669D01*
X84826110Y-81423925D01*
X84912000Y-80992128D01*
X84912000Y-80551872D01*
X84837235Y-80176000D01*
X86649928Y-80176000D01*
X86649928Y-81876000D01*
X86662188Y-82000482D01*
X86698498Y-82120180D01*
X86757463Y-82230494D01*
X86836815Y-82327185D01*
X86933506Y-82406537D01*
X87043820Y-82465502D01*
X87163518Y-82501812D01*
X87288000Y-82514072D01*
X88988000Y-82514072D01*
X89112482Y-82501812D01*
X89232180Y-82465502D01*
X89342494Y-82406537D01*
X89439185Y-82327185D01*
X89518537Y-82230494D01*
X89577502Y-82120180D01*
X89599513Y-82047620D01*
X89731368Y-82179475D01*
X89974589Y-82341990D01*
X90244842Y-82453932D01*
X90531740Y-82511000D01*
X90824260Y-82511000D01*
X91111158Y-82453932D01*
X91381411Y-82341990D01*
X91624632Y-82179475D01*
X91831475Y-81972632D01*
X91953195Y-81790466D01*
X92022822Y-81907355D01*
X92217731Y-82123588D01*
X92451080Y-82297641D01*
X92713901Y-82422825D01*
X92861110Y-82467476D01*
X93091000Y-82346155D01*
X93091000Y-81153000D01*
X93345000Y-81153000D01*
X93345000Y-82346155D01*
X93574890Y-82467476D01*
X93722099Y-82422825D01*
X93984920Y-82297641D01*
X94218269Y-82123588D01*
X94413178Y-81907355D01*
X94562157Y-81657252D01*
X94659481Y-81382891D01*
X94538814Y-81153000D01*
X93345000Y-81153000D01*
X93091000Y-81153000D01*
X93071000Y-81153000D01*
X93071000Y-80899000D01*
X93091000Y-80899000D01*
X93091000Y-79705845D01*
X93345000Y-79705845D01*
X93345000Y-80899000D01*
X94538814Y-80899000D01*
X94659481Y-80669109D01*
X94562157Y-80394748D01*
X94413178Y-80144645D01*
X94218269Y-79928412D01*
X93984920Y-79754359D01*
X93722099Y-79629175D01*
X93574890Y-79584524D01*
X93345000Y-79705845D01*
X93091000Y-79705845D01*
X92861110Y-79584524D01*
X92713901Y-79629175D01*
X92451080Y-79754359D01*
X92217731Y-79928412D01*
X92022822Y-80144645D01*
X91953195Y-80261534D01*
X91831475Y-80079368D01*
X91624632Y-79872525D01*
X91381411Y-79710010D01*
X91111158Y-79598068D01*
X90824260Y-79541000D01*
X90531740Y-79541000D01*
X90244842Y-79598068D01*
X89974589Y-79710010D01*
X89731368Y-79872525D01*
X89599513Y-80004380D01*
X89577502Y-79931820D01*
X89518537Y-79821506D01*
X89439185Y-79724815D01*
X89342494Y-79645463D01*
X89232180Y-79586498D01*
X89112482Y-79550188D01*
X88988000Y-79537928D01*
X87288000Y-79537928D01*
X87163518Y-79550188D01*
X87043820Y-79586498D01*
X86933506Y-79645463D01*
X86836815Y-79724815D01*
X86757463Y-79821506D01*
X86698498Y-79931820D01*
X86662188Y-80051518D01*
X86649928Y-80176000D01*
X84837235Y-80176000D01*
X84826110Y-80120075D01*
X84657631Y-79713331D01*
X84413038Y-79347271D01*
X84101729Y-79035962D01*
X83735669Y-78791369D01*
X83328925Y-78622890D01*
X82897128Y-78537000D01*
X82456872Y-78537000D01*
X82025075Y-78622890D01*
X81618331Y-78791369D01*
X81252271Y-79035962D01*
X80940962Y-79347271D01*
X80696369Y-79713331D01*
X80527890Y-80120075D01*
X80442000Y-80551872D01*
X79908000Y-80551872D01*
X79908000Y-78384000D01*
X94996000Y-78384000D01*
X94996000Y-83312000D01*
M02*
