G04 #@! TF.GenerationSoftware,KiCad,Pcbnew,(5.1.10)-1*
G04 #@! TF.CreationDate,2021-09-16T22:40:54-04:00*
G04 #@! TF.ProjectId,ESP_Switch,4553505f-5377-4697-9463-682e6b696361,v1.2*
G04 #@! TF.SameCoordinates,Original*
G04 #@! TF.FileFunction,Soldermask,Bot*
G04 #@! TF.FilePolarity,Negative*
%FSLAX46Y46*%
G04 Gerber Fmt 4.6, Leading zero omitted, Abs format (unit mm)*
G04 Created by KiCad (PCBNEW (5.1.10)-1) date 2021-09-16 22:40:54*
%MOMM*%
%LPD*%
G01*
G04 APERTURE LIST*
%ADD10O,2.802000X1.802000*%
%ADD11O,1.752000X1.202000*%
%ADD12O,1.802000X1.802000*%
%ADD13C,3.302000*%
%ADD14C,2.702000*%
G04 APERTURE END LIST*
D10*
X83138800Y-94137500D03*
X83138800Y-86837500D03*
D11*
X86713800Y-91287500D03*
X86713800Y-89687500D03*
X88463800Y-92087500D03*
X88463800Y-88887500D03*
X88463800Y-90487500D03*
G36*
G01*
X98763000Y-92575000D02*
X98763000Y-91575000D01*
G75*
G02*
X98814000Y-91524000I51000J0D01*
G01*
X99814000Y-91524000D01*
G75*
G02*
X99865000Y-91575000I0J-51000D01*
G01*
X99865000Y-92575000D01*
G75*
G02*
X99814000Y-92626000I-51000J0D01*
G01*
X98814000Y-92626000D01*
G75*
G02*
X98763000Y-92575000I0J51000D01*
G01*
G37*
G36*
G01*
X98763000Y-94734000D02*
X98763000Y-93734000D01*
G75*
G02*
X98814000Y-93683000I51000J0D01*
G01*
X99814000Y-93683000D01*
G75*
G02*
X99865000Y-93734000I0J-51000D01*
G01*
X99865000Y-94734000D01*
G75*
G02*
X99814000Y-94785000I-51000J0D01*
G01*
X98814000Y-94785000D01*
G75*
G02*
X98763000Y-94734000I0J51000D01*
G01*
G37*
G36*
G01*
X108669000Y-88638000D02*
X108669000Y-87638000D01*
G75*
G02*
X108720000Y-87587000I51000J0D01*
G01*
X109720000Y-87587000D01*
G75*
G02*
X109771000Y-87638000I0J-51000D01*
G01*
X109771000Y-88638000D01*
G75*
G02*
X109720000Y-88689000I-51000J0D01*
G01*
X108720000Y-88689000D01*
G75*
G02*
X108669000Y-88638000I0J51000D01*
G01*
G37*
G36*
G01*
X108669000Y-90670000D02*
X108669000Y-89670000D01*
G75*
G02*
X108720000Y-89619000I51000J0D01*
G01*
X109720000Y-89619000D01*
G75*
G02*
X109771000Y-89670000I0J-51000D01*
G01*
X109771000Y-90670000D01*
G75*
G02*
X109720000Y-90721000I-51000J0D01*
G01*
X108720000Y-90721000D01*
G75*
G02*
X108669000Y-90670000I0J51000D01*
G01*
G37*
G36*
G01*
X108542000Y-98036000D02*
X108542000Y-97036000D01*
G75*
G02*
X108593000Y-96985000I51000J0D01*
G01*
X109593000Y-96985000D01*
G75*
G02*
X109644000Y-97036000I0J-51000D01*
G01*
X109644000Y-98036000D01*
G75*
G02*
X109593000Y-98087000I-51000J0D01*
G01*
X108593000Y-98087000D01*
G75*
G02*
X108542000Y-98036000I0J51000D01*
G01*
G37*
G36*
G01*
X106256000Y-98036000D02*
X106256000Y-97036000D01*
G75*
G02*
X106307000Y-96985000I51000J0D01*
G01*
X107307000Y-96985000D01*
G75*
G02*
X107358000Y-97036000I0J-51000D01*
G01*
X107358000Y-98036000D01*
G75*
G02*
X107307000Y-98087000I-51000J0D01*
G01*
X106307000Y-98087000D01*
G75*
G02*
X106256000Y-98036000I0J51000D01*
G01*
G37*
G36*
G01*
X100668000Y-98036000D02*
X100668000Y-97036000D01*
G75*
G02*
X100719000Y-96985000I51000J0D01*
G01*
X101719000Y-96985000D01*
G75*
G02*
X101770000Y-97036000I0J-51000D01*
G01*
X101770000Y-98036000D01*
G75*
G02*
X101719000Y-98087000I-51000J0D01*
G01*
X100719000Y-98087000D01*
G75*
G02*
X100668000Y-98036000I0J51000D01*
G01*
G37*
G36*
G01*
X98509000Y-98036000D02*
X98509000Y-97036000D01*
G75*
G02*
X98560000Y-96985000I51000J0D01*
G01*
X99560000Y-96985000D01*
G75*
G02*
X99611000Y-97036000I0J-51000D01*
G01*
X99611000Y-98036000D01*
G75*
G02*
X99560000Y-98087000I-51000J0D01*
G01*
X98560000Y-98087000D01*
G75*
G02*
X98509000Y-98036000I0J51000D01*
G01*
G37*
G36*
G01*
X98763000Y-86606000D02*
X98763000Y-85606000D01*
G75*
G02*
X98814000Y-85555000I51000J0D01*
G01*
X99814000Y-85555000D01*
G75*
G02*
X99865000Y-85606000I0J-51000D01*
G01*
X99865000Y-86606000D01*
G75*
G02*
X99814000Y-86657000I-51000J0D01*
G01*
X98814000Y-86657000D01*
G75*
G02*
X98763000Y-86606000I0J51000D01*
G01*
G37*
D12*
X93218000Y-81026000D03*
X90678000Y-81026000D03*
G36*
G01*
X88988000Y-81927000D02*
X87288000Y-81927000D01*
G75*
G02*
X87237000Y-81876000I0J51000D01*
G01*
X87237000Y-80176000D01*
G75*
G02*
X87288000Y-80125000I51000J0D01*
G01*
X88988000Y-80125000D01*
G75*
G02*
X89039000Y-80176000I0J-51000D01*
G01*
X89039000Y-81876000D01*
G75*
G02*
X88988000Y-81927000I-51000J0D01*
G01*
G37*
D13*
X122174000Y-100838000D03*
X82677000Y-80772000D03*
G36*
G01*
X96862000Y-103517000D02*
X95162000Y-103517000D01*
G75*
G02*
X95111000Y-103466000I0J51000D01*
G01*
X95111000Y-101766000D01*
G75*
G02*
X95162000Y-101715000I51000J0D01*
G01*
X96862000Y-101715000D01*
G75*
G02*
X96913000Y-101766000I0J-51000D01*
G01*
X96913000Y-103466000D01*
G75*
G02*
X96862000Y-103517000I-51000J0D01*
G01*
G37*
D12*
X98552000Y-102616000D03*
X101092000Y-102616000D03*
X103632000Y-102616000D03*
D14*
X122200000Y-87400000D03*
G36*
G01*
X123500000Y-93751000D02*
X120900000Y-93751000D01*
G75*
G02*
X120849000Y-93700000I0J51000D01*
G01*
X120849000Y-91100000D01*
G75*
G02*
X120900000Y-91049000I51000J0D01*
G01*
X123500000Y-91049000D01*
G75*
G02*
X123551000Y-91100000I0J-51000D01*
G01*
X123551000Y-93700000D01*
G75*
G02*
X123500000Y-93751000I-51000J0D01*
G01*
G37*
D12*
X116840000Y-81026000D03*
X119380000Y-81026000D03*
X121920000Y-81026000D03*
G36*
G01*
X123610000Y-80125000D02*
X125310000Y-80125000D01*
G75*
G02*
X125361000Y-80176000I0J-51000D01*
G01*
X125361000Y-81876000D01*
G75*
G02*
X125310000Y-81927000I-51000J0D01*
G01*
X123610000Y-81927000D01*
G75*
G02*
X123559000Y-81876000I0J51000D01*
G01*
X123559000Y-80176000D01*
G75*
G02*
X123610000Y-80125000I51000J0D01*
G01*
G37*
X107442000Y-102616000D03*
X109982000Y-102616000D03*
G36*
G01*
X111672000Y-101715000D02*
X113372000Y-101715000D01*
G75*
G02*
X113423000Y-101766000I0J-51000D01*
G01*
X113423000Y-103466000D01*
G75*
G02*
X113372000Y-103517000I-51000J0D01*
G01*
X111672000Y-103517000D01*
G75*
G02*
X111621000Y-103466000I0J51000D01*
G01*
X111621000Y-101766000D01*
G75*
G02*
X111672000Y-101715000I51000J0D01*
G01*
G37*
M02*
