G04 #@! TF.GenerationSoftware,KiCad,Pcbnew,(5.1.5)-3*
G04 #@! TF.CreationDate,2020-06-12T16:44:34-04:00*
G04 #@! TF.ProjectId,ESP_Switch,4553505f-5377-4697-9463-682e6b696361,v1.2*
G04 #@! TF.SameCoordinates,Original*
G04 #@! TF.FileFunction,Legend,Top*
G04 #@! TF.FilePolarity,Positive*
%FSLAX46Y46*%
G04 Gerber Fmt 4.6, Leading zero omitted, Abs format (unit mm)*
G04 Created by KiCad (PCBNEW (5.1.5)-3) date 2020-06-12 16:44:34*
%MOMM*%
%LPD*%
G04 APERTURE LIST*
%ADD10C,0.150000*%
%ADD11C,0.100000*%
%ADD12C,0.120000*%
%ADD13O,2.802000X1.802000*%
%ADD14O,1.752000X1.202000*%
%ADD15O,1.802000X1.802000*%
%ADD16R,1.802000X1.802000*%
%ADD17C,3.302000*%
%ADD18R,2.102000X1.602000*%
%ADD19R,2.102000X3.902000*%
%ADD20R,2.602000X1.102000*%
%ADD21R,1.102000X1.902000*%
%ADD22C,2.702000*%
%ADD23R,2.702000X2.702000*%
G04 APERTURE END LIST*
D10*
X90288095Y-91650000D02*
X90192857Y-91602380D01*
X90050000Y-91602380D01*
X89907142Y-91650000D01*
X89811904Y-91745238D01*
X89764285Y-91840476D01*
X89716666Y-92030952D01*
X89716666Y-92173809D01*
X89764285Y-92364285D01*
X89811904Y-92459523D01*
X89907142Y-92554761D01*
X90050000Y-92602380D01*
X90145238Y-92602380D01*
X90288095Y-92554761D01*
X90335714Y-92507142D01*
X90335714Y-92173809D01*
X90145238Y-92173809D01*
X90764285Y-92602380D02*
X90764285Y-91602380D01*
X91335714Y-92602380D01*
X91335714Y-91602380D01*
X91811904Y-92602380D02*
X91811904Y-91602380D01*
X92050000Y-91602380D01*
X92192857Y-91650000D01*
X92288095Y-91745238D01*
X92335714Y-91840476D01*
X92383333Y-92030952D01*
X92383333Y-92173809D01*
X92335714Y-92364285D01*
X92288095Y-92459523D01*
X92192857Y-92554761D01*
X92050000Y-92602380D01*
X91811904Y-92602380D01*
X90259523Y-88402380D02*
X89783333Y-88402380D01*
X89735714Y-88878571D01*
X89783333Y-88830952D01*
X89878571Y-88783333D01*
X90116666Y-88783333D01*
X90211904Y-88830952D01*
X90259523Y-88878571D01*
X90307142Y-88973809D01*
X90307142Y-89211904D01*
X90259523Y-89307142D01*
X90211904Y-89354761D01*
X90116666Y-89402380D01*
X89878571Y-89402380D01*
X89783333Y-89354761D01*
X89735714Y-89307142D01*
X90592857Y-88402380D02*
X90926190Y-89402380D01*
X91259523Y-88402380D01*
X88947809Y-79446380D02*
X88947809Y-78446380D01*
X89614476Y-78446380D02*
X89804952Y-78446380D01*
X89900190Y-78494000D01*
X89995428Y-78589238D01*
X90043047Y-78779714D01*
X90043047Y-79113047D01*
X89995428Y-79303523D01*
X89900190Y-79398761D01*
X89804952Y-79446380D01*
X89614476Y-79446380D01*
X89519238Y-79398761D01*
X89424000Y-79303523D01*
X89376380Y-79113047D01*
X89376380Y-78779714D01*
X89424000Y-78589238D01*
X89519238Y-78494000D01*
X89614476Y-78446380D01*
X90995428Y-79446380D02*
X90424000Y-79446380D01*
X90709714Y-79446380D02*
X90709714Y-78446380D01*
X90614476Y-78589238D01*
X90519238Y-78684476D01*
X90424000Y-78732095D01*
X91852571Y-78446380D02*
X91662095Y-78446380D01*
X91566857Y-78494000D01*
X91519238Y-78541619D01*
X91424000Y-78684476D01*
X91376380Y-78874952D01*
X91376380Y-79255904D01*
X91424000Y-79351142D01*
X91471619Y-79398761D01*
X91566857Y-79446380D01*
X91757333Y-79446380D01*
X91852571Y-79398761D01*
X91900190Y-79351142D01*
X91947809Y-79255904D01*
X91947809Y-79017809D01*
X91900190Y-78922571D01*
X91852571Y-78874952D01*
X91757333Y-78827333D01*
X91566857Y-78827333D01*
X91471619Y-78874952D01*
X91424000Y-78922571D01*
X91376380Y-79017809D01*
X87058523Y-78446380D02*
X86582333Y-78446380D01*
X86534714Y-78922571D01*
X86582333Y-78874952D01*
X86677571Y-78827333D01*
X86915666Y-78827333D01*
X87010904Y-78874952D01*
X87058523Y-78922571D01*
X87106142Y-79017809D01*
X87106142Y-79255904D01*
X87058523Y-79351142D01*
X87010904Y-79398761D01*
X86915666Y-79446380D01*
X86677571Y-79446380D01*
X86582333Y-79398761D01*
X86534714Y-79351142D01*
X87391857Y-78446380D02*
X87725190Y-79446380D01*
X88058523Y-78446380D01*
X93218095Y-78494000D02*
X93122857Y-78446380D01*
X92980000Y-78446380D01*
X92837142Y-78494000D01*
X92741904Y-78589238D01*
X92694285Y-78684476D01*
X92646666Y-78874952D01*
X92646666Y-79017809D01*
X92694285Y-79208285D01*
X92741904Y-79303523D01*
X92837142Y-79398761D01*
X92980000Y-79446380D01*
X93075238Y-79446380D01*
X93218095Y-79398761D01*
X93265714Y-79351142D01*
X93265714Y-79017809D01*
X93075238Y-79017809D01*
X93694285Y-79446380D02*
X93694285Y-78446380D01*
X94265714Y-79446380D01*
X94265714Y-78446380D01*
X94741904Y-79446380D02*
X94741904Y-78446380D01*
X94980000Y-78446380D01*
X95122857Y-78494000D01*
X95218095Y-78589238D01*
X95265714Y-78684476D01*
X95313333Y-78874952D01*
X95313333Y-79017809D01*
X95265714Y-79208285D01*
X95218095Y-79303523D01*
X95122857Y-79398761D01*
X94980000Y-79446380D01*
X94741904Y-79446380D01*
X99996809Y-105100380D02*
X99996809Y-104100380D01*
X100663476Y-104100380D02*
X100853952Y-104100380D01*
X100949190Y-104148000D01*
X101044428Y-104243238D01*
X101092047Y-104433714D01*
X101092047Y-104767047D01*
X101044428Y-104957523D01*
X100949190Y-105052761D01*
X100853952Y-105100380D01*
X100663476Y-105100380D01*
X100568238Y-105052761D01*
X100473000Y-104957523D01*
X100425380Y-104767047D01*
X100425380Y-104433714D01*
X100473000Y-104243238D01*
X100568238Y-104148000D01*
X100663476Y-104100380D01*
X102044428Y-105100380D02*
X101473000Y-105100380D01*
X101758714Y-105100380D02*
X101758714Y-104100380D01*
X101663476Y-104243238D01*
X101568238Y-104338476D01*
X101473000Y-104386095D01*
X102663476Y-104100380D02*
X102758714Y-104100380D01*
X102853952Y-104148000D01*
X102901571Y-104195619D01*
X102949190Y-104290857D01*
X102996809Y-104481333D01*
X102996809Y-104719428D01*
X102949190Y-104909904D01*
X102901571Y-105005142D01*
X102853952Y-105052761D01*
X102758714Y-105100380D01*
X102663476Y-105100380D01*
X102568238Y-105052761D01*
X102520619Y-105005142D01*
X102473000Y-104909904D01*
X102425380Y-104719428D01*
X102425380Y-104481333D01*
X102473000Y-104290857D01*
X102520619Y-104195619D01*
X102568238Y-104148000D01*
X102663476Y-104100380D01*
X94456380Y-104100380D02*
X95075428Y-104100380D01*
X94742095Y-104481333D01*
X94884952Y-104481333D01*
X94980190Y-104528952D01*
X95027809Y-104576571D01*
X95075428Y-104671809D01*
X95075428Y-104909904D01*
X95027809Y-105005142D01*
X94980190Y-105052761D01*
X94884952Y-105100380D01*
X94599238Y-105100380D01*
X94504000Y-105052761D01*
X94456380Y-105005142D01*
X95504000Y-105005142D02*
X95551619Y-105052761D01*
X95504000Y-105100380D01*
X95456380Y-105052761D01*
X95504000Y-105005142D01*
X95504000Y-105100380D01*
X95884952Y-104100380D02*
X96504000Y-104100380D01*
X96170666Y-104481333D01*
X96313523Y-104481333D01*
X96408761Y-104528952D01*
X96456380Y-104576571D01*
X96504000Y-104671809D01*
X96504000Y-104909904D01*
X96456380Y-105005142D01*
X96408761Y-105052761D01*
X96313523Y-105100380D01*
X96027809Y-105100380D01*
X95932571Y-105052761D01*
X95884952Y-105005142D01*
X97298000Y-105100380D02*
X97298000Y-104100380D01*
X97964666Y-104100380D02*
X98155142Y-104100380D01*
X98250380Y-104148000D01*
X98345619Y-104243238D01*
X98393238Y-104433714D01*
X98393238Y-104767047D01*
X98345619Y-104957523D01*
X98250380Y-105052761D01*
X98155142Y-105100380D01*
X97964666Y-105100380D01*
X97869428Y-105052761D01*
X97774190Y-104957523D01*
X97726571Y-104767047D01*
X97726571Y-104433714D01*
X97774190Y-104243238D01*
X97869428Y-104148000D01*
X97964666Y-104100380D01*
X98869428Y-105100380D02*
X99059904Y-105100380D01*
X99155142Y-105052761D01*
X99202761Y-105005142D01*
X99298000Y-104862285D01*
X99345619Y-104671809D01*
X99345619Y-104290857D01*
X99298000Y-104195619D01*
X99250380Y-104148000D01*
X99155142Y-104100380D01*
X98964666Y-104100380D01*
X98869428Y-104148000D01*
X98821809Y-104195619D01*
X98774190Y-104290857D01*
X98774190Y-104528952D01*
X98821809Y-104624190D01*
X98869428Y-104671809D01*
X98964666Y-104719428D01*
X99155142Y-104719428D01*
X99250380Y-104671809D01*
X99298000Y-104624190D01*
X99345619Y-104528952D01*
X110125000Y-105100380D02*
X110125000Y-104100380D01*
X110791666Y-104100380D02*
X110982142Y-104100380D01*
X111077380Y-104148000D01*
X111172619Y-104243238D01*
X111220238Y-104433714D01*
X111220238Y-104767047D01*
X111172619Y-104957523D01*
X111077380Y-105052761D01*
X110982142Y-105100380D01*
X110791666Y-105100380D01*
X110696428Y-105052761D01*
X110601190Y-104957523D01*
X110553571Y-104767047D01*
X110553571Y-104433714D01*
X110601190Y-104243238D01*
X110696428Y-104148000D01*
X110791666Y-104100380D01*
X111839285Y-104100380D02*
X111934523Y-104100380D01*
X112029761Y-104148000D01*
X112077380Y-104195619D01*
X112125000Y-104290857D01*
X112172619Y-104481333D01*
X112172619Y-104719428D01*
X112125000Y-104909904D01*
X112077380Y-105005142D01*
X112029761Y-105052761D01*
X111934523Y-105100380D01*
X111839285Y-105100380D01*
X111744047Y-105052761D01*
X111696428Y-105005142D01*
X111648809Y-104909904D01*
X111601190Y-104719428D01*
X111601190Y-104481333D01*
X111648809Y-104290857D01*
X111696428Y-104195619D01*
X111744047Y-104148000D01*
X111839285Y-104100380D01*
X104775095Y-104275000D02*
X104679857Y-104227380D01*
X104537000Y-104227380D01*
X104394142Y-104275000D01*
X104298904Y-104370238D01*
X104251285Y-104465476D01*
X104203666Y-104655952D01*
X104203666Y-104798809D01*
X104251285Y-104989285D01*
X104298904Y-105084523D01*
X104394142Y-105179761D01*
X104537000Y-105227380D01*
X104632238Y-105227380D01*
X104775095Y-105179761D01*
X104822714Y-105132142D01*
X104822714Y-104798809D01*
X104632238Y-104798809D01*
X105251285Y-105227380D02*
X105251285Y-104227380D01*
X105822714Y-105227380D01*
X105822714Y-104227380D01*
X106298904Y-105227380D02*
X106298904Y-104227380D01*
X106537000Y-104227380D01*
X106679857Y-104275000D01*
X106775095Y-104370238D01*
X106822714Y-104465476D01*
X106870333Y-104655952D01*
X106870333Y-104798809D01*
X106822714Y-104989285D01*
X106775095Y-105084523D01*
X106679857Y-105179761D01*
X106537000Y-105227380D01*
X106298904Y-105227380D01*
X123691804Y-78255880D02*
X124310852Y-78255880D01*
X123977519Y-78636833D01*
X124120376Y-78636833D01*
X124215614Y-78684452D01*
X124263233Y-78732071D01*
X124310852Y-78827309D01*
X124310852Y-79065404D01*
X124263233Y-79160642D01*
X124215614Y-79208261D01*
X124120376Y-79255880D01*
X123834661Y-79255880D01*
X123739423Y-79208261D01*
X123691804Y-79160642D01*
X124596566Y-78255880D02*
X124929900Y-79255880D01*
X125263233Y-78255880D01*
X125501328Y-78255880D02*
X126120376Y-78255880D01*
X125787042Y-78636833D01*
X125929900Y-78636833D01*
X126025138Y-78684452D01*
X126072757Y-78732071D01*
X126120376Y-78827309D01*
X126120376Y-79065404D01*
X126072757Y-79160642D01*
X126025138Y-79208261D01*
X125929900Y-79255880D01*
X125644185Y-79255880D01*
X125548947Y-79208261D01*
X125501328Y-79160642D01*
X121715233Y-79255880D02*
X121381900Y-78779690D01*
X121143804Y-79255880D02*
X121143804Y-78255880D01*
X121524757Y-78255880D01*
X121619995Y-78303500D01*
X121667614Y-78351119D01*
X121715233Y-78446357D01*
X121715233Y-78589214D01*
X121667614Y-78684452D01*
X121619995Y-78732071D01*
X121524757Y-78779690D01*
X121143804Y-78779690D01*
X122048566Y-78255880D02*
X122715233Y-79255880D01*
X122715233Y-78255880D02*
X122048566Y-79255880D01*
X118579995Y-78255880D02*
X119151423Y-78255880D01*
X118865709Y-79255880D02*
X118865709Y-78255880D01*
X119389519Y-78255880D02*
X120056185Y-79255880D01*
X120056185Y-78255880D02*
X119389519Y-79255880D01*
X115531995Y-78303500D02*
X115436757Y-78255880D01*
X115293900Y-78255880D01*
X115151042Y-78303500D01*
X115055804Y-78398738D01*
X115008185Y-78493976D01*
X114960566Y-78684452D01*
X114960566Y-78827309D01*
X115008185Y-79017785D01*
X115055804Y-79113023D01*
X115151042Y-79208261D01*
X115293900Y-79255880D01*
X115389138Y-79255880D01*
X115531995Y-79208261D01*
X115579614Y-79160642D01*
X115579614Y-78827309D01*
X115389138Y-78827309D01*
X116008185Y-79255880D02*
X116008185Y-78255880D01*
X116579614Y-79255880D01*
X116579614Y-78255880D01*
X117055804Y-79255880D02*
X117055804Y-78255880D01*
X117293900Y-78255880D01*
X117436757Y-78303500D01*
X117531995Y-78398738D01*
X117579614Y-78493976D01*
X117627233Y-78684452D01*
X117627233Y-78827309D01*
X117579614Y-79017785D01*
X117531995Y-79113023D01*
X117436757Y-79208261D01*
X117293900Y-79255880D01*
X117055804Y-79255880D01*
X123695009Y-84577180D02*
X123695009Y-83577180D01*
X124361676Y-83577180D02*
X124552152Y-83577180D01*
X124647390Y-83624800D01*
X124742628Y-83720038D01*
X124790247Y-83910514D01*
X124790247Y-84243847D01*
X124742628Y-84434323D01*
X124647390Y-84529561D01*
X124552152Y-84577180D01*
X124361676Y-84577180D01*
X124266438Y-84529561D01*
X124171200Y-84434323D01*
X124123580Y-84243847D01*
X124123580Y-83910514D01*
X124171200Y-83720038D01*
X124266438Y-83624800D01*
X124361676Y-83577180D01*
X125742628Y-84577180D02*
X125171200Y-84577180D01*
X125456914Y-84577180D02*
X125456914Y-83577180D01*
X125361676Y-83720038D01*
X125266438Y-83815276D01*
X125171200Y-83862895D01*
X126075961Y-83577180D02*
X126695009Y-83577180D01*
X126361676Y-83958133D01*
X126504533Y-83958133D01*
X126599771Y-84005752D01*
X126647390Y-84053371D01*
X126695009Y-84148609D01*
X126695009Y-84386704D01*
X126647390Y-84481942D01*
X126599771Y-84529561D01*
X126504533Y-84577180D01*
X126218819Y-84577180D01*
X126123580Y-84529561D01*
X126075961Y-84481942D01*
X124688695Y-95207200D02*
X124593457Y-95159580D01*
X124450600Y-95159580D01*
X124307742Y-95207200D01*
X124212504Y-95302438D01*
X124164885Y-95397676D01*
X124117266Y-95588152D01*
X124117266Y-95731009D01*
X124164885Y-95921485D01*
X124212504Y-96016723D01*
X124307742Y-96111961D01*
X124450600Y-96159580D01*
X124545838Y-96159580D01*
X124688695Y-96111961D01*
X124736314Y-96064342D01*
X124736314Y-95731009D01*
X124545838Y-95731009D01*
X125164885Y-96159580D02*
X125164885Y-95159580D01*
X125736314Y-96159580D01*
X125736314Y-95159580D01*
X126212504Y-96159580D02*
X126212504Y-95159580D01*
X126450600Y-95159580D01*
X126593457Y-95207200D01*
X126688695Y-95302438D01*
X126736314Y-95397676D01*
X126783933Y-95588152D01*
X126783933Y-95731009D01*
X126736314Y-95921485D01*
X126688695Y-96016723D01*
X126593457Y-96111961D01*
X126450600Y-96159580D01*
X126212504Y-96159580D01*
D11*
X88513800Y-86512500D02*
X88513800Y-86987500D01*
X87938800Y-86512500D02*
X88513800Y-86512500D01*
X79263800Y-86512500D02*
X79263800Y-87137500D01*
X80188800Y-86512500D02*
X79263800Y-86512500D01*
X79263800Y-94462500D02*
X79263800Y-93837500D01*
X80113800Y-94462500D02*
X79263800Y-94462500D01*
X87638800Y-94462500D02*
X88488800Y-94462500D01*
X88513800Y-93812500D02*
X88513800Y-94462500D01*
X88513800Y-94462500D02*
X88488800Y-94462500D01*
D12*
X86808000Y-82356000D02*
X86808000Y-81026000D01*
X88138000Y-82356000D02*
X86808000Y-82356000D01*
X89408000Y-82356000D02*
X89408000Y-79696000D01*
X89408000Y-79696000D02*
X94548000Y-79696000D01*
X89408000Y-82356000D02*
X94548000Y-82356000D01*
X94548000Y-82356000D02*
X94548000Y-79696000D01*
X91800000Y-102013936D02*
X91800000Y-103218064D01*
X93620000Y-102013936D02*
X93620000Y-103218064D01*
X104962000Y-103946000D02*
X104962000Y-101286000D01*
X97282000Y-103946000D02*
X104962000Y-103946000D01*
X97282000Y-101286000D02*
X104962000Y-101286000D01*
X97282000Y-103946000D02*
X97282000Y-101286000D01*
X96012000Y-103946000D02*
X94682000Y-103946000D01*
X94682000Y-103946000D02*
X94682000Y-102616000D01*
X89698000Y-105010000D02*
X83688000Y-105010000D01*
X87448000Y-98190000D02*
X83688000Y-98190000D01*
X83688000Y-105010000D02*
X83688000Y-103750000D01*
X83688000Y-98190000D02*
X83688000Y-99450000D01*
X96020000Y-75510000D02*
X112260000Y-75510000D01*
X112260000Y-75510000D02*
X112260000Y-83130000D01*
X112260000Y-99130000D02*
X112260000Y-99750000D01*
X112260000Y-99750000D02*
X110140000Y-99750000D01*
X98140000Y-99750000D02*
X96020000Y-99750000D01*
X96020000Y-99750000D02*
X96020000Y-99130000D01*
X96020000Y-83130000D02*
X96020000Y-75510000D01*
X96020000Y-83130000D02*
X95410000Y-83130000D01*
X116026000Y-87129252D02*
X116026000Y-86606748D01*
X114606000Y-87129252D02*
X114606000Y-86606748D01*
X114606000Y-90924748D02*
X114606000Y-91447252D01*
X116026000Y-90924748D02*
X116026000Y-91447252D01*
X114606000Y-99061748D02*
X114606000Y-99584252D01*
X116026000Y-99061748D02*
X116026000Y-99584252D01*
X116026000Y-95511252D02*
X116026000Y-94988748D01*
X114606000Y-95511252D02*
X114606000Y-94988748D01*
X94182000Y-85360252D02*
X94182000Y-84837748D01*
X92762000Y-85360252D02*
X92762000Y-84837748D01*
X94182000Y-89932252D02*
X94182000Y-89409748D01*
X92762000Y-89932252D02*
X92762000Y-89409748D01*
X117020000Y-84576000D02*
X117020000Y-85076000D01*
X117760000Y-84576000D02*
X117020000Y-84576000D01*
X120897000Y-91149000D02*
X120851000Y-91102000D01*
X123195000Y-93446000D02*
X123159000Y-93411000D01*
X120681000Y-91342000D02*
X120646000Y-91307000D01*
X122989000Y-93651000D02*
X122943000Y-93604000D01*
X127181000Y-94936000D02*
X117260000Y-94936000D01*
X127181000Y-84816000D02*
X117260000Y-84816000D01*
X117260000Y-84816000D02*
X117260000Y-94936000D01*
X127181000Y-84816000D02*
X127181000Y-94936000D01*
X124221000Y-84816000D02*
X124221000Y-94936000D01*
X119320000Y-84816000D02*
X119320000Y-94936000D01*
X117820000Y-84816000D02*
X117820000Y-94936000D01*
X123600000Y-92376000D02*
G75*
G03X123600000Y-92376000I-1680000J0D01*
G01*
X120239747Y-87404805D02*
G75*
G02X120385000Y-86692000I1680253J28805D01*
G01*
X121236958Y-85840574D02*
G75*
G02X122604000Y-85841000I683042J-1535426D01*
G01*
X123455426Y-86692958D02*
G75*
G02X123455000Y-88060000I-1535426J-683042D01*
G01*
X122603042Y-88911426D02*
G75*
G02X121236000Y-88911000I-683042J1535426D01*
G01*
X120385244Y-88059318D02*
G75*
G02X120240000Y-87376000I1534756J683318D01*
G01*
X125790000Y-79696000D02*
X125790000Y-81026000D01*
X124460000Y-79696000D02*
X125790000Y-79696000D01*
X123190000Y-79696000D02*
X123190000Y-82356000D01*
X123190000Y-82356000D02*
X115510000Y-82356000D01*
X123190000Y-79696000D02*
X115510000Y-79696000D01*
X115510000Y-79696000D02*
X115510000Y-82356000D01*
X113852000Y-101286000D02*
X113852000Y-102616000D01*
X112522000Y-101286000D02*
X113852000Y-101286000D01*
X111252000Y-101286000D02*
X111252000Y-103946000D01*
X111252000Y-103946000D02*
X106112000Y-103946000D01*
X111252000Y-101286000D02*
X106112000Y-101286000D01*
X106112000Y-101286000D02*
X106112000Y-103946000D01*
X86367252Y-95810000D02*
X85844748Y-95810000D01*
X86367252Y-97230000D02*
X85844748Y-97230000D01*
X93225252Y-96064000D02*
X92702748Y-96064000D01*
X93225252Y-97484000D02*
X92702748Y-97484000D01*
D10*
X80766666Y-90152380D02*
X80766666Y-90866666D01*
X80719047Y-91009523D01*
X80623809Y-91104761D01*
X80480952Y-91152380D01*
X80385714Y-91152380D01*
X81147619Y-90152380D02*
X81814285Y-90152380D01*
X81385714Y-91152380D01*
X85474666Y-80478380D02*
X85474666Y-81192666D01*
X85427047Y-81335523D01*
X85331809Y-81430761D01*
X85188952Y-81478380D01*
X85093714Y-81478380D01*
X86379428Y-80478380D02*
X86188952Y-80478380D01*
X86093714Y-80526000D01*
X86046095Y-80573619D01*
X85950857Y-80716476D01*
X85903238Y-80906952D01*
X85903238Y-81287904D01*
X85950857Y-81383142D01*
X85998476Y-81430761D01*
X86093714Y-81478380D01*
X86284190Y-81478380D01*
X86379428Y-81430761D01*
X86427047Y-81383142D01*
X86474666Y-81287904D01*
X86474666Y-81049809D01*
X86427047Y-80954571D01*
X86379428Y-80906952D01*
X86284190Y-80859333D01*
X86093714Y-80859333D01*
X85998476Y-80906952D01*
X85950857Y-80954571D01*
X85903238Y-81049809D01*
X92416333Y-100052142D02*
X92368714Y-100099761D01*
X92225857Y-100147380D01*
X92130619Y-100147380D01*
X91987761Y-100099761D01*
X91892523Y-100004523D01*
X91844904Y-99909285D01*
X91797285Y-99718809D01*
X91797285Y-99575952D01*
X91844904Y-99385476D01*
X91892523Y-99290238D01*
X91987761Y-99195000D01*
X92130619Y-99147380D01*
X92225857Y-99147380D01*
X92368714Y-99195000D01*
X92416333Y-99242619D01*
X92749666Y-99147380D02*
X93368714Y-99147380D01*
X93035380Y-99528333D01*
X93178238Y-99528333D01*
X93273476Y-99575952D01*
X93321095Y-99623571D01*
X93368714Y-99718809D01*
X93368714Y-99956904D01*
X93321095Y-100052142D01*
X93273476Y-100099761D01*
X93178238Y-100147380D01*
X92892523Y-100147380D01*
X92797285Y-100099761D01*
X92749666Y-100052142D01*
X91342380Y-104163619D02*
X91342380Y-104735047D01*
X91342380Y-104449333D02*
X90342380Y-104449333D01*
X90485238Y-104544571D01*
X90580476Y-104639809D01*
X90628095Y-104735047D01*
X90342380Y-103544571D02*
X90342380Y-103449333D01*
X90390000Y-103354095D01*
X90437619Y-103306476D01*
X90532857Y-103258857D01*
X90723333Y-103211238D01*
X90961428Y-103211238D01*
X91151904Y-103258857D01*
X91247142Y-103306476D01*
X91294761Y-103354095D01*
X91342380Y-103449333D01*
X91342380Y-103544571D01*
X91294761Y-103639809D01*
X91247142Y-103687428D01*
X91151904Y-103735047D01*
X90961428Y-103782666D01*
X90723333Y-103782666D01*
X90532857Y-103735047D01*
X90437619Y-103687428D01*
X90390000Y-103639809D01*
X90342380Y-103544571D01*
X90342380Y-102592190D02*
X90342380Y-102496952D01*
X90390000Y-102401714D01*
X90437619Y-102354095D01*
X90532857Y-102306476D01*
X90723333Y-102258857D01*
X90961428Y-102258857D01*
X91151904Y-102306476D01*
X91247142Y-102354095D01*
X91294761Y-102401714D01*
X91342380Y-102496952D01*
X91342380Y-102592190D01*
X91294761Y-102687428D01*
X91247142Y-102735047D01*
X91151904Y-102782666D01*
X90961428Y-102830285D01*
X90723333Y-102830285D01*
X90532857Y-102782666D01*
X90437619Y-102735047D01*
X90390000Y-102687428D01*
X90342380Y-102592190D01*
X90675714Y-101401714D02*
X91342380Y-101401714D01*
X90675714Y-101830285D02*
X91199523Y-101830285D01*
X91294761Y-101782666D01*
X91342380Y-101687428D01*
X91342380Y-101544571D01*
X91294761Y-101449333D01*
X91247142Y-101401714D01*
X90818571Y-100592190D02*
X90818571Y-100925523D01*
X91342380Y-100925523D02*
X90342380Y-100925523D01*
X90342380Y-100449333D01*
X95170666Y-100163380D02*
X95170666Y-100877666D01*
X95123047Y-101020523D01*
X95027809Y-101115761D01*
X94884952Y-101163380D01*
X94789714Y-101163380D01*
X96123047Y-100163380D02*
X95646857Y-100163380D01*
X95599238Y-100639571D01*
X95646857Y-100591952D01*
X95742095Y-100544333D01*
X95980190Y-100544333D01*
X96075428Y-100591952D01*
X96123047Y-100639571D01*
X96170666Y-100734809D01*
X96170666Y-100972904D01*
X96123047Y-101068142D01*
X96075428Y-101115761D01*
X95980190Y-101163380D01*
X95742095Y-101163380D01*
X95646857Y-101115761D01*
X95599238Y-101068142D01*
X81661095Y-104100380D02*
X81661095Y-104909904D01*
X81708714Y-105005142D01*
X81756333Y-105052761D01*
X81851571Y-105100380D01*
X82042047Y-105100380D01*
X82137285Y-105052761D01*
X82184904Y-105005142D01*
X82232523Y-104909904D01*
X82232523Y-104100380D01*
X82661095Y-104195619D02*
X82708714Y-104148000D01*
X82803952Y-104100380D01*
X83042047Y-104100380D01*
X83137285Y-104148000D01*
X83184904Y-104195619D01*
X83232523Y-104290857D01*
X83232523Y-104386095D01*
X83184904Y-104528952D01*
X82613476Y-105100380D01*
X83232523Y-105100380D01*
X80176666Y-105203000D02*
X80176666Y-104726809D01*
X80462380Y-105298238D02*
X79462380Y-104964904D01*
X80462380Y-104631571D01*
X80462380Y-104298238D02*
X79462380Y-104298238D01*
X80176666Y-103964904D01*
X79462380Y-103631571D01*
X80462380Y-103631571D01*
X80414761Y-103203000D02*
X80462380Y-103060142D01*
X80462380Y-102822047D01*
X80414761Y-102726809D01*
X80367142Y-102679190D01*
X80271904Y-102631571D01*
X80176666Y-102631571D01*
X80081428Y-102679190D01*
X80033809Y-102726809D01*
X79986190Y-102822047D01*
X79938571Y-103012523D01*
X79890952Y-103107761D01*
X79843333Y-103155380D01*
X79748095Y-103203000D01*
X79652857Y-103203000D01*
X79557619Y-103155380D01*
X79510000Y-103107761D01*
X79462380Y-103012523D01*
X79462380Y-102774428D01*
X79510000Y-102631571D01*
X80462380Y-101679190D02*
X80462380Y-102250619D01*
X80462380Y-101964904D02*
X79462380Y-101964904D01*
X79605238Y-102060142D01*
X79700476Y-102155380D01*
X79748095Y-102250619D01*
X80462380Y-100726809D02*
X80462380Y-101298238D01*
X80462380Y-101012523D02*
X79462380Y-101012523D01*
X79605238Y-101107761D01*
X79700476Y-101203000D01*
X79748095Y-101298238D01*
X80462380Y-99774428D02*
X80462380Y-100345857D01*
X80462380Y-100060142D02*
X79462380Y-100060142D01*
X79605238Y-100155380D01*
X79700476Y-100250619D01*
X79748095Y-100345857D01*
X79462380Y-99441095D02*
X79462380Y-98774428D01*
X80462380Y-99203000D01*
X80081428Y-98393476D02*
X80081428Y-97631571D01*
X79462380Y-97250619D02*
X79462380Y-96631571D01*
X79843333Y-96964904D01*
X79843333Y-96822047D01*
X79890952Y-96726809D01*
X79938571Y-96679190D01*
X80033809Y-96631571D01*
X80271904Y-96631571D01*
X80367142Y-96679190D01*
X80414761Y-96726809D01*
X80462380Y-96822047D01*
X80462380Y-97107761D01*
X80414761Y-97203000D01*
X80367142Y-97250619D01*
X80367142Y-96203000D02*
X80414761Y-96155380D01*
X80462380Y-96203000D01*
X80414761Y-96250619D01*
X80367142Y-96203000D01*
X80462380Y-96203000D01*
X79462380Y-95822047D02*
X79462380Y-95203000D01*
X79843333Y-95536333D01*
X79843333Y-95393476D01*
X79890952Y-95298238D01*
X79938571Y-95250619D01*
X80033809Y-95203000D01*
X80271904Y-95203000D01*
X80367142Y-95250619D01*
X80414761Y-95298238D01*
X80462380Y-95393476D01*
X80462380Y-95679190D01*
X80414761Y-95774428D01*
X80367142Y-95822047D01*
X103378095Y-86828380D02*
X103378095Y-87637904D01*
X103425714Y-87733142D01*
X103473333Y-87780761D01*
X103568571Y-87828380D01*
X103759047Y-87828380D01*
X103854285Y-87780761D01*
X103901904Y-87733142D01*
X103949523Y-87637904D01*
X103949523Y-86828380D01*
X104949523Y-87828380D02*
X104378095Y-87828380D01*
X104663809Y-87828380D02*
X104663809Y-86828380D01*
X104568571Y-86971238D01*
X104473333Y-87066476D01*
X104378095Y-87114095D01*
X100798714Y-88701571D02*
X101132047Y-88701571D01*
X101274904Y-89225380D02*
X100798714Y-89225380D01*
X100798714Y-88225380D01*
X101274904Y-88225380D01*
X101655857Y-89177761D02*
X101798714Y-89225380D01*
X102036809Y-89225380D01*
X102132047Y-89177761D01*
X102179666Y-89130142D01*
X102227285Y-89034904D01*
X102227285Y-88939666D01*
X102179666Y-88844428D01*
X102132047Y-88796809D01*
X102036809Y-88749190D01*
X101846333Y-88701571D01*
X101751095Y-88653952D01*
X101703476Y-88606333D01*
X101655857Y-88511095D01*
X101655857Y-88415857D01*
X101703476Y-88320619D01*
X101751095Y-88273000D01*
X101846333Y-88225380D01*
X102084428Y-88225380D01*
X102227285Y-88273000D01*
X102655857Y-89225380D02*
X102655857Y-88225380D01*
X103036809Y-88225380D01*
X103132047Y-88273000D01*
X103179666Y-88320619D01*
X103227285Y-88415857D01*
X103227285Y-88558714D01*
X103179666Y-88653952D01*
X103132047Y-88701571D01*
X103036809Y-88749190D01*
X102655857Y-88749190D01*
X103655857Y-88844428D02*
X104417761Y-88844428D01*
X105417761Y-89225380D02*
X104846333Y-89225380D01*
X105132047Y-89225380D02*
X105132047Y-88225380D01*
X105036809Y-88368238D01*
X104941571Y-88463476D01*
X104846333Y-88511095D01*
X105798714Y-88320619D02*
X105846333Y-88273000D01*
X105941571Y-88225380D01*
X106179666Y-88225380D01*
X106274904Y-88273000D01*
X106322523Y-88320619D01*
X106370142Y-88415857D01*
X106370142Y-88511095D01*
X106322523Y-88653952D01*
X105751095Y-89225380D01*
X106370142Y-89225380D01*
X106798714Y-88701571D02*
X107132047Y-88701571D01*
X107274904Y-89225380D02*
X106798714Y-89225380D01*
X106798714Y-88225380D01*
X107274904Y-88225380D01*
X114371380Y-87034666D02*
X113895190Y-87368000D01*
X114371380Y-87606095D02*
X113371380Y-87606095D01*
X113371380Y-87225142D01*
X113419000Y-87129904D01*
X113466619Y-87082285D01*
X113561857Y-87034666D01*
X113704714Y-87034666D01*
X113799952Y-87082285D01*
X113847571Y-87129904D01*
X113895190Y-87225142D01*
X113895190Y-87606095D01*
X113371380Y-86177523D02*
X113371380Y-86368000D01*
X113419000Y-86463238D01*
X113466619Y-86510857D01*
X113609476Y-86606095D01*
X113799952Y-86653714D01*
X114180904Y-86653714D01*
X114276142Y-86606095D01*
X114323761Y-86558476D01*
X114371380Y-86463238D01*
X114371380Y-86272761D01*
X114323761Y-86177523D01*
X114276142Y-86129904D01*
X114180904Y-86082285D01*
X113942809Y-86082285D01*
X113847571Y-86129904D01*
X113799952Y-86177523D01*
X113752333Y-86272761D01*
X113752333Y-86463238D01*
X113799952Y-86558476D01*
X113847571Y-86606095D01*
X113942809Y-86653714D01*
X117165380Y-87533076D02*
X117165380Y-88104504D01*
X117165380Y-87818790D02*
X116165380Y-87818790D01*
X116308238Y-87914028D01*
X116403476Y-88009266D01*
X116451095Y-88104504D01*
X116165380Y-86914028D02*
X116165380Y-86818790D01*
X116213000Y-86723552D01*
X116260619Y-86675933D01*
X116355857Y-86628314D01*
X116546333Y-86580695D01*
X116784428Y-86580695D01*
X116974904Y-86628314D01*
X117070142Y-86675933D01*
X117117761Y-86723552D01*
X117165380Y-86818790D01*
X117165380Y-86914028D01*
X117117761Y-87009266D01*
X117070142Y-87056885D01*
X116974904Y-87104504D01*
X116784428Y-87152123D01*
X116546333Y-87152123D01*
X116355857Y-87104504D01*
X116260619Y-87056885D01*
X116213000Y-87009266D01*
X116165380Y-86914028D01*
X117165380Y-86152123D02*
X116165380Y-86152123D01*
X117165380Y-85580695D02*
X116593952Y-86009266D01*
X116165380Y-85580695D02*
X116736809Y-86152123D01*
X114371380Y-91225666D02*
X113895190Y-91559000D01*
X114371380Y-91797095D02*
X113371380Y-91797095D01*
X113371380Y-91416142D01*
X113419000Y-91320904D01*
X113466619Y-91273285D01*
X113561857Y-91225666D01*
X113704714Y-91225666D01*
X113799952Y-91273285D01*
X113847571Y-91320904D01*
X113895190Y-91416142D01*
X113895190Y-91797095D01*
X113371380Y-90320904D02*
X113371380Y-90797095D01*
X113847571Y-90844714D01*
X113799952Y-90797095D01*
X113752333Y-90701857D01*
X113752333Y-90463761D01*
X113799952Y-90368523D01*
X113847571Y-90320904D01*
X113942809Y-90273285D01*
X114180904Y-90273285D01*
X114276142Y-90320904D01*
X114323761Y-90368523D01*
X114371380Y-90463761D01*
X114371380Y-90701857D01*
X114323761Y-90797095D01*
X114276142Y-90844714D01*
X117178080Y-91863776D02*
X117178080Y-92435204D01*
X117178080Y-92149490D02*
X116178080Y-92149490D01*
X116320938Y-92244728D01*
X116416176Y-92339966D01*
X116463795Y-92435204D01*
X116178080Y-91244728D02*
X116178080Y-91149490D01*
X116225700Y-91054252D01*
X116273319Y-91006633D01*
X116368557Y-90959014D01*
X116559033Y-90911395D01*
X116797128Y-90911395D01*
X116987604Y-90959014D01*
X117082842Y-91006633D01*
X117130461Y-91054252D01*
X117178080Y-91149490D01*
X117178080Y-91244728D01*
X117130461Y-91339966D01*
X117082842Y-91387585D01*
X116987604Y-91435204D01*
X116797128Y-91482823D01*
X116559033Y-91482823D01*
X116368557Y-91435204D01*
X116273319Y-91387585D01*
X116225700Y-91339966D01*
X116178080Y-91244728D01*
X117178080Y-90482823D02*
X116178080Y-90482823D01*
X117178080Y-89911395D02*
X116606652Y-90339966D01*
X116178080Y-89911395D02*
X116749509Y-90482823D01*
X114244380Y-99353666D02*
X113768190Y-99687000D01*
X114244380Y-99925095D02*
X113244380Y-99925095D01*
X113244380Y-99544142D01*
X113292000Y-99448904D01*
X113339619Y-99401285D01*
X113434857Y-99353666D01*
X113577714Y-99353666D01*
X113672952Y-99401285D01*
X113720571Y-99448904D01*
X113768190Y-99544142D01*
X113768190Y-99925095D01*
X113577714Y-98496523D02*
X114244380Y-98496523D01*
X113196761Y-98734619D02*
X113911047Y-98972714D01*
X113911047Y-98353666D01*
X117165380Y-100004476D02*
X117165380Y-100575904D01*
X117165380Y-100290190D02*
X116165380Y-100290190D01*
X116308238Y-100385428D01*
X116403476Y-100480666D01*
X116451095Y-100575904D01*
X116165380Y-99385428D02*
X116165380Y-99290190D01*
X116213000Y-99194952D01*
X116260619Y-99147333D01*
X116355857Y-99099714D01*
X116546333Y-99052095D01*
X116784428Y-99052095D01*
X116974904Y-99099714D01*
X117070142Y-99147333D01*
X117117761Y-99194952D01*
X117165380Y-99290190D01*
X117165380Y-99385428D01*
X117117761Y-99480666D01*
X117070142Y-99528285D01*
X116974904Y-99575904D01*
X116784428Y-99623523D01*
X116546333Y-99623523D01*
X116355857Y-99575904D01*
X116260619Y-99528285D01*
X116213000Y-99480666D01*
X116165380Y-99385428D01*
X117165380Y-98623523D02*
X116165380Y-98623523D01*
X117165380Y-98052095D02*
X116593952Y-98480666D01*
X116165380Y-98052095D02*
X116736809Y-98623523D01*
X114244380Y-95416666D02*
X113768190Y-95750000D01*
X114244380Y-95988095D02*
X113244380Y-95988095D01*
X113244380Y-95607142D01*
X113292000Y-95511904D01*
X113339619Y-95464285D01*
X113434857Y-95416666D01*
X113577714Y-95416666D01*
X113672952Y-95464285D01*
X113720571Y-95511904D01*
X113768190Y-95607142D01*
X113768190Y-95988095D01*
X113244380Y-95083333D02*
X113244380Y-94464285D01*
X113625333Y-94797619D01*
X113625333Y-94654761D01*
X113672952Y-94559523D01*
X113720571Y-94511904D01*
X113815809Y-94464285D01*
X114053904Y-94464285D01*
X114149142Y-94511904D01*
X114196761Y-94559523D01*
X114244380Y-94654761D01*
X114244380Y-94940476D01*
X114196761Y-95035714D01*
X114149142Y-95083333D01*
X117165380Y-95940476D02*
X117165380Y-96511904D01*
X117165380Y-96226190D02*
X116165380Y-96226190D01*
X116308238Y-96321428D01*
X116403476Y-96416666D01*
X116451095Y-96511904D01*
X116165380Y-95321428D02*
X116165380Y-95226190D01*
X116213000Y-95130952D01*
X116260619Y-95083333D01*
X116355857Y-95035714D01*
X116546333Y-94988095D01*
X116784428Y-94988095D01*
X116974904Y-95035714D01*
X117070142Y-95083333D01*
X117117761Y-95130952D01*
X117165380Y-95226190D01*
X117165380Y-95321428D01*
X117117761Y-95416666D01*
X117070142Y-95464285D01*
X116974904Y-95511904D01*
X116784428Y-95559523D01*
X116546333Y-95559523D01*
X116355857Y-95511904D01*
X116260619Y-95464285D01*
X116213000Y-95416666D01*
X116165380Y-95321428D01*
X117165380Y-94559523D02*
X116165380Y-94559523D01*
X117165380Y-93988095D02*
X116593952Y-94416666D01*
X116165380Y-93988095D02*
X116736809Y-94559523D01*
X91400333Y-84018380D02*
X91067000Y-83542190D01*
X90828904Y-84018380D02*
X90828904Y-83018380D01*
X91209857Y-83018380D01*
X91305095Y-83066000D01*
X91352714Y-83113619D01*
X91400333Y-83208857D01*
X91400333Y-83351714D01*
X91352714Y-83446952D01*
X91305095Y-83494571D01*
X91209857Y-83542190D01*
X90828904Y-83542190D01*
X91781285Y-83113619D02*
X91828904Y-83066000D01*
X91924142Y-83018380D01*
X92162238Y-83018380D01*
X92257476Y-83066000D01*
X92305095Y-83113619D01*
X92352714Y-83208857D01*
X92352714Y-83304095D01*
X92305095Y-83446952D01*
X91733666Y-84018380D01*
X92352714Y-84018380D01*
X92654523Y-87955380D02*
X92083095Y-87955380D01*
X92368809Y-87955380D02*
X92368809Y-86955380D01*
X92273571Y-87098238D01*
X92178333Y-87193476D01*
X92083095Y-87241095D01*
X93273571Y-86955380D02*
X93368809Y-86955380D01*
X93464047Y-87003000D01*
X93511666Y-87050619D01*
X93559285Y-87145857D01*
X93606904Y-87336333D01*
X93606904Y-87574428D01*
X93559285Y-87764904D01*
X93511666Y-87860142D01*
X93464047Y-87907761D01*
X93368809Y-87955380D01*
X93273571Y-87955380D01*
X93178333Y-87907761D01*
X93130714Y-87860142D01*
X93083095Y-87764904D01*
X93035476Y-87574428D01*
X93035476Y-87336333D01*
X93083095Y-87145857D01*
X93130714Y-87050619D01*
X93178333Y-87003000D01*
X93273571Y-86955380D01*
X94035476Y-87955380D02*
X94035476Y-86955380D01*
X94606904Y-87955380D02*
X94178333Y-87383952D01*
X94606904Y-86955380D02*
X94035476Y-87526809D01*
X93305333Y-92527380D02*
X92972000Y-92051190D01*
X92733904Y-92527380D02*
X92733904Y-91527380D01*
X93114857Y-91527380D01*
X93210095Y-91575000D01*
X93257714Y-91622619D01*
X93305333Y-91717857D01*
X93305333Y-91860714D01*
X93257714Y-91955952D01*
X93210095Y-92003571D01*
X93114857Y-92051190D01*
X92733904Y-92051190D01*
X94257714Y-92527380D02*
X93686285Y-92527380D01*
X93972000Y-92527380D02*
X93972000Y-91527380D01*
X93876761Y-91670238D01*
X93781523Y-91765476D01*
X93686285Y-91813095D01*
X92908523Y-93797380D02*
X92337095Y-93797380D01*
X92622809Y-93797380D02*
X92622809Y-92797380D01*
X92527571Y-92940238D01*
X92432333Y-93035476D01*
X92337095Y-93083095D01*
X93527571Y-92797380D02*
X93622809Y-92797380D01*
X93718047Y-92845000D01*
X93765666Y-92892619D01*
X93813285Y-92987857D01*
X93860904Y-93178333D01*
X93860904Y-93416428D01*
X93813285Y-93606904D01*
X93765666Y-93702142D01*
X93718047Y-93749761D01*
X93622809Y-93797380D01*
X93527571Y-93797380D01*
X93432333Y-93749761D01*
X93384714Y-93702142D01*
X93337095Y-93606904D01*
X93289476Y-93416428D01*
X93289476Y-93178333D01*
X93337095Y-92987857D01*
X93384714Y-92892619D01*
X93432333Y-92845000D01*
X93527571Y-92797380D01*
X94289476Y-93797380D02*
X94289476Y-92797380D01*
X94860904Y-93797380D02*
X94432333Y-93225952D01*
X94860904Y-92797380D02*
X94289476Y-93368809D01*
X125182380Y-90249333D02*
X125896666Y-90249333D01*
X126039523Y-90296952D01*
X126134761Y-90392190D01*
X126182380Y-90535047D01*
X126182380Y-90630285D01*
X125182380Y-89868380D02*
X125182380Y-89249333D01*
X125563333Y-89582666D01*
X125563333Y-89439809D01*
X125610952Y-89344571D01*
X125658571Y-89296952D01*
X125753809Y-89249333D01*
X125991904Y-89249333D01*
X126087142Y-89296952D01*
X126134761Y-89344571D01*
X126182380Y-89439809D01*
X126182380Y-89725523D01*
X126134761Y-89820761D01*
X126087142Y-89868380D01*
X125690380Y-81359333D02*
X126404666Y-81359333D01*
X126547523Y-81406952D01*
X126642761Y-81502190D01*
X126690380Y-81645047D01*
X126690380Y-81740285D01*
X125785619Y-80930761D02*
X125738000Y-80883142D01*
X125690380Y-80787904D01*
X125690380Y-80549809D01*
X125738000Y-80454571D01*
X125785619Y-80406952D01*
X125880857Y-80359333D01*
X125976095Y-80359333D01*
X126118952Y-80406952D01*
X126690380Y-80978380D01*
X126690380Y-80359333D01*
X111934666Y-100036380D02*
X111934666Y-100750666D01*
X111887047Y-100893523D01*
X111791809Y-100988761D01*
X111648952Y-101036380D01*
X111553714Y-101036380D01*
X112934666Y-101036380D02*
X112363238Y-101036380D01*
X112648952Y-101036380D02*
X112648952Y-100036380D01*
X112553714Y-100179238D01*
X112458476Y-100274476D01*
X112363238Y-100322095D01*
X83018333Y-96115142D02*
X82970714Y-96162761D01*
X82827857Y-96210380D01*
X82732619Y-96210380D01*
X82589761Y-96162761D01*
X82494523Y-96067523D01*
X82446904Y-95972285D01*
X82399285Y-95781809D01*
X82399285Y-95638952D01*
X82446904Y-95448476D01*
X82494523Y-95353238D01*
X82589761Y-95258000D01*
X82732619Y-95210380D01*
X82827857Y-95210380D01*
X82970714Y-95258000D01*
X83018333Y-95305619D01*
X83399285Y-95305619D02*
X83446904Y-95258000D01*
X83542142Y-95210380D01*
X83780238Y-95210380D01*
X83875476Y-95258000D01*
X83923095Y-95305619D01*
X83970714Y-95400857D01*
X83970714Y-95496095D01*
X83923095Y-95638952D01*
X83351666Y-96210380D01*
X83970714Y-96210380D01*
X81478571Y-97480380D02*
X80907142Y-97480380D01*
X81192857Y-97480380D02*
X81192857Y-96480380D01*
X81097619Y-96623238D01*
X81002380Y-96718476D01*
X80907142Y-96766095D01*
X82097619Y-96480380D02*
X82192857Y-96480380D01*
X82288095Y-96528000D01*
X82335714Y-96575619D01*
X82383333Y-96670857D01*
X82430952Y-96861333D01*
X82430952Y-97099428D01*
X82383333Y-97289904D01*
X82335714Y-97385142D01*
X82288095Y-97432761D01*
X82192857Y-97480380D01*
X82097619Y-97480380D01*
X82002380Y-97432761D01*
X81954761Y-97385142D01*
X81907142Y-97289904D01*
X81859523Y-97099428D01*
X81859523Y-96861333D01*
X81907142Y-96670857D01*
X81954761Y-96575619D01*
X82002380Y-96528000D01*
X82097619Y-96480380D01*
X83288095Y-96813714D02*
X83288095Y-97480380D01*
X82859523Y-96813714D02*
X82859523Y-97337523D01*
X82907142Y-97432761D01*
X83002380Y-97480380D01*
X83145238Y-97480380D01*
X83240476Y-97432761D01*
X83288095Y-97385142D01*
X84097619Y-96956571D02*
X83764285Y-96956571D01*
X83764285Y-97480380D02*
X83764285Y-96480380D01*
X84240476Y-96480380D01*
X92670333Y-95734142D02*
X92622714Y-95781761D01*
X92479857Y-95829380D01*
X92384619Y-95829380D01*
X92241761Y-95781761D01*
X92146523Y-95686523D01*
X92098904Y-95591285D01*
X92051285Y-95400809D01*
X92051285Y-95257952D01*
X92098904Y-95067476D01*
X92146523Y-94972238D01*
X92241761Y-94877000D01*
X92384619Y-94829380D01*
X92479857Y-94829380D01*
X92622714Y-94877000D01*
X92670333Y-94924619D01*
X93622714Y-95829380D02*
X93051285Y-95829380D01*
X93337000Y-95829380D02*
X93337000Y-94829380D01*
X93241761Y-94972238D01*
X93146523Y-95067476D01*
X93051285Y-95115095D01*
X91448142Y-97623380D02*
X91543380Y-97623380D01*
X91638619Y-97671000D01*
X91686238Y-97718619D01*
X91733857Y-97813857D01*
X91781476Y-98004333D01*
X91781476Y-98242428D01*
X91733857Y-98432904D01*
X91686238Y-98528142D01*
X91638619Y-98575761D01*
X91543380Y-98623380D01*
X91448142Y-98623380D01*
X91352904Y-98575761D01*
X91305285Y-98528142D01*
X91257666Y-98432904D01*
X91210047Y-98242428D01*
X91210047Y-98004333D01*
X91257666Y-97813857D01*
X91305285Y-97718619D01*
X91352904Y-97671000D01*
X91448142Y-97623380D01*
X92210047Y-98528142D02*
X92257666Y-98575761D01*
X92210047Y-98623380D01*
X92162428Y-98575761D01*
X92210047Y-98528142D01*
X92210047Y-98623380D01*
X93210047Y-98623380D02*
X92638619Y-98623380D01*
X92924333Y-98623380D02*
X92924333Y-97623380D01*
X92829095Y-97766238D01*
X92733857Y-97861476D01*
X92638619Y-97909095D01*
X94067190Y-97956714D02*
X94067190Y-98623380D01*
X93638619Y-97956714D02*
X93638619Y-98480523D01*
X93686238Y-98575761D01*
X93781476Y-98623380D01*
X93924333Y-98623380D01*
X94019571Y-98575761D01*
X94067190Y-98528142D01*
X94876714Y-98099571D02*
X94543380Y-98099571D01*
X94543380Y-98623380D02*
X94543380Y-97623380D01*
X95019571Y-97623380D01*
%LPC*%
D13*
X83138800Y-94137500D03*
X83138800Y-86837500D03*
D14*
X86713800Y-91287500D03*
X86713800Y-89687500D03*
X88463800Y-92087500D03*
X88463800Y-88887500D03*
X88463800Y-90487500D03*
D15*
X93218000Y-81026000D03*
X90678000Y-81026000D03*
D16*
X88138000Y-81026000D03*
D17*
X122174000Y-100838000D03*
D11*
G36*
X93394363Y-103341290D02*
G01*
X93420369Y-103345148D01*
X93445871Y-103351535D01*
X93470624Y-103360392D01*
X93494390Y-103371633D01*
X93516939Y-103385148D01*
X93538056Y-103400809D01*
X93557535Y-103418465D01*
X93575191Y-103437944D01*
X93590852Y-103459061D01*
X93604367Y-103481610D01*
X93615608Y-103505376D01*
X93624465Y-103530129D01*
X93630852Y-103555631D01*
X93634710Y-103581637D01*
X93636000Y-103607895D01*
X93636000Y-104599105D01*
X93634710Y-104625363D01*
X93630852Y-104651369D01*
X93624465Y-104676871D01*
X93615608Y-104701624D01*
X93604367Y-104725390D01*
X93590852Y-104747939D01*
X93575191Y-104769056D01*
X93557535Y-104788535D01*
X93538056Y-104806191D01*
X93516939Y-104821852D01*
X93494390Y-104835367D01*
X93470624Y-104846608D01*
X93445871Y-104855465D01*
X93420369Y-104861852D01*
X93394363Y-104865710D01*
X93368105Y-104867000D01*
X92051895Y-104867000D01*
X92025637Y-104865710D01*
X91999631Y-104861852D01*
X91974129Y-104855465D01*
X91949376Y-104846608D01*
X91925610Y-104835367D01*
X91903061Y-104821852D01*
X91881944Y-104806191D01*
X91862465Y-104788535D01*
X91844809Y-104769056D01*
X91829148Y-104747939D01*
X91815633Y-104725390D01*
X91804392Y-104701624D01*
X91795535Y-104676871D01*
X91789148Y-104651369D01*
X91785290Y-104625363D01*
X91784000Y-104599105D01*
X91784000Y-103607895D01*
X91785290Y-103581637D01*
X91789148Y-103555631D01*
X91795535Y-103530129D01*
X91804392Y-103505376D01*
X91815633Y-103481610D01*
X91829148Y-103459061D01*
X91844809Y-103437944D01*
X91862465Y-103418465D01*
X91881944Y-103400809D01*
X91903061Y-103385148D01*
X91925610Y-103371633D01*
X91949376Y-103360392D01*
X91974129Y-103351535D01*
X91999631Y-103345148D01*
X92025637Y-103341290D01*
X92051895Y-103340000D01*
X93368105Y-103340000D01*
X93394363Y-103341290D01*
G37*
G36*
X93394363Y-100366290D02*
G01*
X93420369Y-100370148D01*
X93445871Y-100376535D01*
X93470624Y-100385392D01*
X93494390Y-100396633D01*
X93516939Y-100410148D01*
X93538056Y-100425809D01*
X93557535Y-100443465D01*
X93575191Y-100462944D01*
X93590852Y-100484061D01*
X93604367Y-100506610D01*
X93615608Y-100530376D01*
X93624465Y-100555129D01*
X93630852Y-100580631D01*
X93634710Y-100606637D01*
X93636000Y-100632895D01*
X93636000Y-101624105D01*
X93634710Y-101650363D01*
X93630852Y-101676369D01*
X93624465Y-101701871D01*
X93615608Y-101726624D01*
X93604367Y-101750390D01*
X93590852Y-101772939D01*
X93575191Y-101794056D01*
X93557535Y-101813535D01*
X93538056Y-101831191D01*
X93516939Y-101846852D01*
X93494390Y-101860367D01*
X93470624Y-101871608D01*
X93445871Y-101880465D01*
X93420369Y-101886852D01*
X93394363Y-101890710D01*
X93368105Y-101892000D01*
X92051895Y-101892000D01*
X92025637Y-101890710D01*
X91999631Y-101886852D01*
X91974129Y-101880465D01*
X91949376Y-101871608D01*
X91925610Y-101860367D01*
X91903061Y-101846852D01*
X91881944Y-101831191D01*
X91862465Y-101813535D01*
X91844809Y-101794056D01*
X91829148Y-101772939D01*
X91815633Y-101750390D01*
X91804392Y-101726624D01*
X91795535Y-101701871D01*
X91789148Y-101676369D01*
X91785290Y-101650363D01*
X91784000Y-101624105D01*
X91784000Y-100632895D01*
X91785290Y-100606637D01*
X91789148Y-100580631D01*
X91795535Y-100555129D01*
X91804392Y-100530376D01*
X91815633Y-100506610D01*
X91829148Y-100484061D01*
X91844809Y-100462944D01*
X91862465Y-100443465D01*
X91881944Y-100425809D01*
X91903061Y-100410148D01*
X91925610Y-100396633D01*
X91949376Y-100385392D01*
X91974129Y-100376535D01*
X91999631Y-100370148D01*
X92025637Y-100366290D01*
X92051895Y-100365000D01*
X93368105Y-100365000D01*
X93394363Y-100366290D01*
G37*
D17*
X82677000Y-80772000D03*
D16*
X96012000Y-102616000D03*
D15*
X98552000Y-102616000D03*
X101092000Y-102616000D03*
X103632000Y-102616000D03*
D18*
X88748000Y-103900000D03*
X88748000Y-99300000D03*
X88748000Y-101600000D03*
D19*
X82448000Y-101600000D03*
D20*
X96540000Y-84130000D03*
X96540000Y-86130000D03*
X96540000Y-88130000D03*
X96540000Y-90130000D03*
X96540000Y-92130000D03*
X96540000Y-94130000D03*
X96540000Y-96130000D03*
X96540000Y-98130000D03*
D21*
X99140000Y-99630000D03*
X101140000Y-99630000D03*
X103140000Y-99630000D03*
X105140000Y-99630000D03*
X107140000Y-99630000D03*
X109140000Y-99630000D03*
D20*
X111740000Y-98130000D03*
X111740000Y-96130000D03*
X111740000Y-94130000D03*
X111740000Y-92130000D03*
X111740000Y-90130000D03*
X111740000Y-88130000D03*
X111740000Y-86130000D03*
X111740000Y-84130000D03*
D11*
G36*
X115821505Y-85218311D02*
G01*
X115847925Y-85222230D01*
X115873835Y-85228720D01*
X115898983Y-85237718D01*
X115923128Y-85249138D01*
X115946038Y-85262869D01*
X115967492Y-85278780D01*
X115987282Y-85296718D01*
X116005220Y-85316508D01*
X116021131Y-85337962D01*
X116034862Y-85360872D01*
X116046282Y-85385017D01*
X116055280Y-85410165D01*
X116061770Y-85436075D01*
X116065689Y-85462495D01*
X116067000Y-85489173D01*
X116067000Y-86196827D01*
X116065689Y-86223505D01*
X116061770Y-86249925D01*
X116055280Y-86275835D01*
X116046282Y-86300983D01*
X116034862Y-86325128D01*
X116021131Y-86348038D01*
X116005220Y-86369492D01*
X115987282Y-86389282D01*
X115967492Y-86407220D01*
X115946038Y-86423131D01*
X115923128Y-86436862D01*
X115898983Y-86448282D01*
X115873835Y-86457280D01*
X115847925Y-86463770D01*
X115821505Y-86467689D01*
X115794827Y-86469000D01*
X114837173Y-86469000D01*
X114810495Y-86467689D01*
X114784075Y-86463770D01*
X114758165Y-86457280D01*
X114733017Y-86448282D01*
X114708872Y-86436862D01*
X114685962Y-86423131D01*
X114664508Y-86407220D01*
X114644718Y-86389282D01*
X114626780Y-86369492D01*
X114610869Y-86348038D01*
X114597138Y-86325128D01*
X114585718Y-86300983D01*
X114576720Y-86275835D01*
X114570230Y-86249925D01*
X114566311Y-86223505D01*
X114565000Y-86196827D01*
X114565000Y-85489173D01*
X114566311Y-85462495D01*
X114570230Y-85436075D01*
X114576720Y-85410165D01*
X114585718Y-85385017D01*
X114597138Y-85360872D01*
X114610869Y-85337962D01*
X114626780Y-85316508D01*
X114644718Y-85296718D01*
X114664508Y-85278780D01*
X114685962Y-85262869D01*
X114708872Y-85249138D01*
X114733017Y-85237718D01*
X114758165Y-85228720D01*
X114784075Y-85222230D01*
X114810495Y-85218311D01*
X114837173Y-85217000D01*
X115794827Y-85217000D01*
X115821505Y-85218311D01*
G37*
G36*
X115821505Y-87268311D02*
G01*
X115847925Y-87272230D01*
X115873835Y-87278720D01*
X115898983Y-87287718D01*
X115923128Y-87299138D01*
X115946038Y-87312869D01*
X115967492Y-87328780D01*
X115987282Y-87346718D01*
X116005220Y-87366508D01*
X116021131Y-87387962D01*
X116034862Y-87410872D01*
X116046282Y-87435017D01*
X116055280Y-87460165D01*
X116061770Y-87486075D01*
X116065689Y-87512495D01*
X116067000Y-87539173D01*
X116067000Y-88246827D01*
X116065689Y-88273505D01*
X116061770Y-88299925D01*
X116055280Y-88325835D01*
X116046282Y-88350983D01*
X116034862Y-88375128D01*
X116021131Y-88398038D01*
X116005220Y-88419492D01*
X115987282Y-88439282D01*
X115967492Y-88457220D01*
X115946038Y-88473131D01*
X115923128Y-88486862D01*
X115898983Y-88498282D01*
X115873835Y-88507280D01*
X115847925Y-88513770D01*
X115821505Y-88517689D01*
X115794827Y-88519000D01*
X114837173Y-88519000D01*
X114810495Y-88517689D01*
X114784075Y-88513770D01*
X114758165Y-88507280D01*
X114733017Y-88498282D01*
X114708872Y-88486862D01*
X114685962Y-88473131D01*
X114664508Y-88457220D01*
X114644718Y-88439282D01*
X114626780Y-88419492D01*
X114610869Y-88398038D01*
X114597138Y-88375128D01*
X114585718Y-88350983D01*
X114576720Y-88325835D01*
X114570230Y-88299925D01*
X114566311Y-88273505D01*
X114565000Y-88246827D01*
X114565000Y-87539173D01*
X114566311Y-87512495D01*
X114570230Y-87486075D01*
X114576720Y-87460165D01*
X114585718Y-87435017D01*
X114597138Y-87410872D01*
X114610869Y-87387962D01*
X114626780Y-87366508D01*
X114644718Y-87346718D01*
X114664508Y-87328780D01*
X114685962Y-87312869D01*
X114708872Y-87299138D01*
X114733017Y-87287718D01*
X114758165Y-87278720D01*
X114784075Y-87272230D01*
X114810495Y-87268311D01*
X114837173Y-87267000D01*
X115794827Y-87267000D01*
X115821505Y-87268311D01*
G37*
G36*
X115821505Y-91586311D02*
G01*
X115847925Y-91590230D01*
X115873835Y-91596720D01*
X115898983Y-91605718D01*
X115923128Y-91617138D01*
X115946038Y-91630869D01*
X115967492Y-91646780D01*
X115987282Y-91664718D01*
X116005220Y-91684508D01*
X116021131Y-91705962D01*
X116034862Y-91728872D01*
X116046282Y-91753017D01*
X116055280Y-91778165D01*
X116061770Y-91804075D01*
X116065689Y-91830495D01*
X116067000Y-91857173D01*
X116067000Y-92564827D01*
X116065689Y-92591505D01*
X116061770Y-92617925D01*
X116055280Y-92643835D01*
X116046282Y-92668983D01*
X116034862Y-92693128D01*
X116021131Y-92716038D01*
X116005220Y-92737492D01*
X115987282Y-92757282D01*
X115967492Y-92775220D01*
X115946038Y-92791131D01*
X115923128Y-92804862D01*
X115898983Y-92816282D01*
X115873835Y-92825280D01*
X115847925Y-92831770D01*
X115821505Y-92835689D01*
X115794827Y-92837000D01*
X114837173Y-92837000D01*
X114810495Y-92835689D01*
X114784075Y-92831770D01*
X114758165Y-92825280D01*
X114733017Y-92816282D01*
X114708872Y-92804862D01*
X114685962Y-92791131D01*
X114664508Y-92775220D01*
X114644718Y-92757282D01*
X114626780Y-92737492D01*
X114610869Y-92716038D01*
X114597138Y-92693128D01*
X114585718Y-92668983D01*
X114576720Y-92643835D01*
X114570230Y-92617925D01*
X114566311Y-92591505D01*
X114565000Y-92564827D01*
X114565000Y-91857173D01*
X114566311Y-91830495D01*
X114570230Y-91804075D01*
X114576720Y-91778165D01*
X114585718Y-91753017D01*
X114597138Y-91728872D01*
X114610869Y-91705962D01*
X114626780Y-91684508D01*
X114644718Y-91664718D01*
X114664508Y-91646780D01*
X114685962Y-91630869D01*
X114708872Y-91617138D01*
X114733017Y-91605718D01*
X114758165Y-91596720D01*
X114784075Y-91590230D01*
X114810495Y-91586311D01*
X114837173Y-91585000D01*
X115794827Y-91585000D01*
X115821505Y-91586311D01*
G37*
G36*
X115821505Y-89536311D02*
G01*
X115847925Y-89540230D01*
X115873835Y-89546720D01*
X115898983Y-89555718D01*
X115923128Y-89567138D01*
X115946038Y-89580869D01*
X115967492Y-89596780D01*
X115987282Y-89614718D01*
X116005220Y-89634508D01*
X116021131Y-89655962D01*
X116034862Y-89678872D01*
X116046282Y-89703017D01*
X116055280Y-89728165D01*
X116061770Y-89754075D01*
X116065689Y-89780495D01*
X116067000Y-89807173D01*
X116067000Y-90514827D01*
X116065689Y-90541505D01*
X116061770Y-90567925D01*
X116055280Y-90593835D01*
X116046282Y-90618983D01*
X116034862Y-90643128D01*
X116021131Y-90666038D01*
X116005220Y-90687492D01*
X115987282Y-90707282D01*
X115967492Y-90725220D01*
X115946038Y-90741131D01*
X115923128Y-90754862D01*
X115898983Y-90766282D01*
X115873835Y-90775280D01*
X115847925Y-90781770D01*
X115821505Y-90785689D01*
X115794827Y-90787000D01*
X114837173Y-90787000D01*
X114810495Y-90785689D01*
X114784075Y-90781770D01*
X114758165Y-90775280D01*
X114733017Y-90766282D01*
X114708872Y-90754862D01*
X114685962Y-90741131D01*
X114664508Y-90725220D01*
X114644718Y-90707282D01*
X114626780Y-90687492D01*
X114610869Y-90666038D01*
X114597138Y-90643128D01*
X114585718Y-90618983D01*
X114576720Y-90593835D01*
X114570230Y-90567925D01*
X114566311Y-90541505D01*
X114565000Y-90514827D01*
X114565000Y-89807173D01*
X114566311Y-89780495D01*
X114570230Y-89754075D01*
X114576720Y-89728165D01*
X114585718Y-89703017D01*
X114597138Y-89678872D01*
X114610869Y-89655962D01*
X114626780Y-89634508D01*
X114644718Y-89614718D01*
X114664508Y-89596780D01*
X114685962Y-89580869D01*
X114708872Y-89567138D01*
X114733017Y-89555718D01*
X114758165Y-89546720D01*
X114784075Y-89540230D01*
X114810495Y-89536311D01*
X114837173Y-89535000D01*
X115794827Y-89535000D01*
X115821505Y-89536311D01*
G37*
G36*
X115821505Y-99723311D02*
G01*
X115847925Y-99727230D01*
X115873835Y-99733720D01*
X115898983Y-99742718D01*
X115923128Y-99754138D01*
X115946038Y-99767869D01*
X115967492Y-99783780D01*
X115987282Y-99801718D01*
X116005220Y-99821508D01*
X116021131Y-99842962D01*
X116034862Y-99865872D01*
X116046282Y-99890017D01*
X116055280Y-99915165D01*
X116061770Y-99941075D01*
X116065689Y-99967495D01*
X116067000Y-99994173D01*
X116067000Y-100701827D01*
X116065689Y-100728505D01*
X116061770Y-100754925D01*
X116055280Y-100780835D01*
X116046282Y-100805983D01*
X116034862Y-100830128D01*
X116021131Y-100853038D01*
X116005220Y-100874492D01*
X115987282Y-100894282D01*
X115967492Y-100912220D01*
X115946038Y-100928131D01*
X115923128Y-100941862D01*
X115898983Y-100953282D01*
X115873835Y-100962280D01*
X115847925Y-100968770D01*
X115821505Y-100972689D01*
X115794827Y-100974000D01*
X114837173Y-100974000D01*
X114810495Y-100972689D01*
X114784075Y-100968770D01*
X114758165Y-100962280D01*
X114733017Y-100953282D01*
X114708872Y-100941862D01*
X114685962Y-100928131D01*
X114664508Y-100912220D01*
X114644718Y-100894282D01*
X114626780Y-100874492D01*
X114610869Y-100853038D01*
X114597138Y-100830128D01*
X114585718Y-100805983D01*
X114576720Y-100780835D01*
X114570230Y-100754925D01*
X114566311Y-100728505D01*
X114565000Y-100701827D01*
X114565000Y-99994173D01*
X114566311Y-99967495D01*
X114570230Y-99941075D01*
X114576720Y-99915165D01*
X114585718Y-99890017D01*
X114597138Y-99865872D01*
X114610869Y-99842962D01*
X114626780Y-99821508D01*
X114644718Y-99801718D01*
X114664508Y-99783780D01*
X114685962Y-99767869D01*
X114708872Y-99754138D01*
X114733017Y-99742718D01*
X114758165Y-99733720D01*
X114784075Y-99727230D01*
X114810495Y-99723311D01*
X114837173Y-99722000D01*
X115794827Y-99722000D01*
X115821505Y-99723311D01*
G37*
G36*
X115821505Y-97673311D02*
G01*
X115847925Y-97677230D01*
X115873835Y-97683720D01*
X115898983Y-97692718D01*
X115923128Y-97704138D01*
X115946038Y-97717869D01*
X115967492Y-97733780D01*
X115987282Y-97751718D01*
X116005220Y-97771508D01*
X116021131Y-97792962D01*
X116034862Y-97815872D01*
X116046282Y-97840017D01*
X116055280Y-97865165D01*
X116061770Y-97891075D01*
X116065689Y-97917495D01*
X116067000Y-97944173D01*
X116067000Y-98651827D01*
X116065689Y-98678505D01*
X116061770Y-98704925D01*
X116055280Y-98730835D01*
X116046282Y-98755983D01*
X116034862Y-98780128D01*
X116021131Y-98803038D01*
X116005220Y-98824492D01*
X115987282Y-98844282D01*
X115967492Y-98862220D01*
X115946038Y-98878131D01*
X115923128Y-98891862D01*
X115898983Y-98903282D01*
X115873835Y-98912280D01*
X115847925Y-98918770D01*
X115821505Y-98922689D01*
X115794827Y-98924000D01*
X114837173Y-98924000D01*
X114810495Y-98922689D01*
X114784075Y-98918770D01*
X114758165Y-98912280D01*
X114733017Y-98903282D01*
X114708872Y-98891862D01*
X114685962Y-98878131D01*
X114664508Y-98862220D01*
X114644718Y-98844282D01*
X114626780Y-98824492D01*
X114610869Y-98803038D01*
X114597138Y-98780128D01*
X114585718Y-98755983D01*
X114576720Y-98730835D01*
X114570230Y-98704925D01*
X114566311Y-98678505D01*
X114565000Y-98651827D01*
X114565000Y-97944173D01*
X114566311Y-97917495D01*
X114570230Y-97891075D01*
X114576720Y-97865165D01*
X114585718Y-97840017D01*
X114597138Y-97815872D01*
X114610869Y-97792962D01*
X114626780Y-97771508D01*
X114644718Y-97751718D01*
X114664508Y-97733780D01*
X114685962Y-97717869D01*
X114708872Y-97704138D01*
X114733017Y-97692718D01*
X114758165Y-97683720D01*
X114784075Y-97677230D01*
X114810495Y-97673311D01*
X114837173Y-97672000D01*
X115794827Y-97672000D01*
X115821505Y-97673311D01*
G37*
G36*
X115821505Y-93600311D02*
G01*
X115847925Y-93604230D01*
X115873835Y-93610720D01*
X115898983Y-93619718D01*
X115923128Y-93631138D01*
X115946038Y-93644869D01*
X115967492Y-93660780D01*
X115987282Y-93678718D01*
X116005220Y-93698508D01*
X116021131Y-93719962D01*
X116034862Y-93742872D01*
X116046282Y-93767017D01*
X116055280Y-93792165D01*
X116061770Y-93818075D01*
X116065689Y-93844495D01*
X116067000Y-93871173D01*
X116067000Y-94578827D01*
X116065689Y-94605505D01*
X116061770Y-94631925D01*
X116055280Y-94657835D01*
X116046282Y-94682983D01*
X116034862Y-94707128D01*
X116021131Y-94730038D01*
X116005220Y-94751492D01*
X115987282Y-94771282D01*
X115967492Y-94789220D01*
X115946038Y-94805131D01*
X115923128Y-94818862D01*
X115898983Y-94830282D01*
X115873835Y-94839280D01*
X115847925Y-94845770D01*
X115821505Y-94849689D01*
X115794827Y-94851000D01*
X114837173Y-94851000D01*
X114810495Y-94849689D01*
X114784075Y-94845770D01*
X114758165Y-94839280D01*
X114733017Y-94830282D01*
X114708872Y-94818862D01*
X114685962Y-94805131D01*
X114664508Y-94789220D01*
X114644718Y-94771282D01*
X114626780Y-94751492D01*
X114610869Y-94730038D01*
X114597138Y-94707128D01*
X114585718Y-94682983D01*
X114576720Y-94657835D01*
X114570230Y-94631925D01*
X114566311Y-94605505D01*
X114565000Y-94578827D01*
X114565000Y-93871173D01*
X114566311Y-93844495D01*
X114570230Y-93818075D01*
X114576720Y-93792165D01*
X114585718Y-93767017D01*
X114597138Y-93742872D01*
X114610869Y-93719962D01*
X114626780Y-93698508D01*
X114644718Y-93678718D01*
X114664508Y-93660780D01*
X114685962Y-93644869D01*
X114708872Y-93631138D01*
X114733017Y-93619718D01*
X114758165Y-93610720D01*
X114784075Y-93604230D01*
X114810495Y-93600311D01*
X114837173Y-93599000D01*
X115794827Y-93599000D01*
X115821505Y-93600311D01*
G37*
G36*
X115821505Y-95650311D02*
G01*
X115847925Y-95654230D01*
X115873835Y-95660720D01*
X115898983Y-95669718D01*
X115923128Y-95681138D01*
X115946038Y-95694869D01*
X115967492Y-95710780D01*
X115987282Y-95728718D01*
X116005220Y-95748508D01*
X116021131Y-95769962D01*
X116034862Y-95792872D01*
X116046282Y-95817017D01*
X116055280Y-95842165D01*
X116061770Y-95868075D01*
X116065689Y-95894495D01*
X116067000Y-95921173D01*
X116067000Y-96628827D01*
X116065689Y-96655505D01*
X116061770Y-96681925D01*
X116055280Y-96707835D01*
X116046282Y-96732983D01*
X116034862Y-96757128D01*
X116021131Y-96780038D01*
X116005220Y-96801492D01*
X115987282Y-96821282D01*
X115967492Y-96839220D01*
X115946038Y-96855131D01*
X115923128Y-96868862D01*
X115898983Y-96880282D01*
X115873835Y-96889280D01*
X115847925Y-96895770D01*
X115821505Y-96899689D01*
X115794827Y-96901000D01*
X114837173Y-96901000D01*
X114810495Y-96899689D01*
X114784075Y-96895770D01*
X114758165Y-96889280D01*
X114733017Y-96880282D01*
X114708872Y-96868862D01*
X114685962Y-96855131D01*
X114664508Y-96839220D01*
X114644718Y-96821282D01*
X114626780Y-96801492D01*
X114610869Y-96780038D01*
X114597138Y-96757128D01*
X114585718Y-96732983D01*
X114576720Y-96707835D01*
X114570230Y-96681925D01*
X114566311Y-96655505D01*
X114565000Y-96628827D01*
X114565000Y-95921173D01*
X114566311Y-95894495D01*
X114570230Y-95868075D01*
X114576720Y-95842165D01*
X114585718Y-95817017D01*
X114597138Y-95792872D01*
X114610869Y-95769962D01*
X114626780Y-95748508D01*
X114644718Y-95728718D01*
X114664508Y-95710780D01*
X114685962Y-95694869D01*
X114708872Y-95681138D01*
X114733017Y-95669718D01*
X114758165Y-95660720D01*
X114784075Y-95654230D01*
X114810495Y-95650311D01*
X114837173Y-95649000D01*
X115794827Y-95649000D01*
X115821505Y-95650311D01*
G37*
G36*
X93977505Y-83449311D02*
G01*
X94003925Y-83453230D01*
X94029835Y-83459720D01*
X94054983Y-83468718D01*
X94079128Y-83480138D01*
X94102038Y-83493869D01*
X94123492Y-83509780D01*
X94143282Y-83527718D01*
X94161220Y-83547508D01*
X94177131Y-83568962D01*
X94190862Y-83591872D01*
X94202282Y-83616017D01*
X94211280Y-83641165D01*
X94217770Y-83667075D01*
X94221689Y-83693495D01*
X94223000Y-83720173D01*
X94223000Y-84427827D01*
X94221689Y-84454505D01*
X94217770Y-84480925D01*
X94211280Y-84506835D01*
X94202282Y-84531983D01*
X94190862Y-84556128D01*
X94177131Y-84579038D01*
X94161220Y-84600492D01*
X94143282Y-84620282D01*
X94123492Y-84638220D01*
X94102038Y-84654131D01*
X94079128Y-84667862D01*
X94054983Y-84679282D01*
X94029835Y-84688280D01*
X94003925Y-84694770D01*
X93977505Y-84698689D01*
X93950827Y-84700000D01*
X92993173Y-84700000D01*
X92966495Y-84698689D01*
X92940075Y-84694770D01*
X92914165Y-84688280D01*
X92889017Y-84679282D01*
X92864872Y-84667862D01*
X92841962Y-84654131D01*
X92820508Y-84638220D01*
X92800718Y-84620282D01*
X92782780Y-84600492D01*
X92766869Y-84579038D01*
X92753138Y-84556128D01*
X92741718Y-84531983D01*
X92732720Y-84506835D01*
X92726230Y-84480925D01*
X92722311Y-84454505D01*
X92721000Y-84427827D01*
X92721000Y-83720173D01*
X92722311Y-83693495D01*
X92726230Y-83667075D01*
X92732720Y-83641165D01*
X92741718Y-83616017D01*
X92753138Y-83591872D01*
X92766869Y-83568962D01*
X92782780Y-83547508D01*
X92800718Y-83527718D01*
X92820508Y-83509780D01*
X92841962Y-83493869D01*
X92864872Y-83480138D01*
X92889017Y-83468718D01*
X92914165Y-83459720D01*
X92940075Y-83453230D01*
X92966495Y-83449311D01*
X92993173Y-83448000D01*
X93950827Y-83448000D01*
X93977505Y-83449311D01*
G37*
G36*
X93977505Y-85499311D02*
G01*
X94003925Y-85503230D01*
X94029835Y-85509720D01*
X94054983Y-85518718D01*
X94079128Y-85530138D01*
X94102038Y-85543869D01*
X94123492Y-85559780D01*
X94143282Y-85577718D01*
X94161220Y-85597508D01*
X94177131Y-85618962D01*
X94190862Y-85641872D01*
X94202282Y-85666017D01*
X94211280Y-85691165D01*
X94217770Y-85717075D01*
X94221689Y-85743495D01*
X94223000Y-85770173D01*
X94223000Y-86477827D01*
X94221689Y-86504505D01*
X94217770Y-86530925D01*
X94211280Y-86556835D01*
X94202282Y-86581983D01*
X94190862Y-86606128D01*
X94177131Y-86629038D01*
X94161220Y-86650492D01*
X94143282Y-86670282D01*
X94123492Y-86688220D01*
X94102038Y-86704131D01*
X94079128Y-86717862D01*
X94054983Y-86729282D01*
X94029835Y-86738280D01*
X94003925Y-86744770D01*
X93977505Y-86748689D01*
X93950827Y-86750000D01*
X92993173Y-86750000D01*
X92966495Y-86748689D01*
X92940075Y-86744770D01*
X92914165Y-86738280D01*
X92889017Y-86729282D01*
X92864872Y-86717862D01*
X92841962Y-86704131D01*
X92820508Y-86688220D01*
X92800718Y-86670282D01*
X92782780Y-86650492D01*
X92766869Y-86629038D01*
X92753138Y-86606128D01*
X92741718Y-86581983D01*
X92732720Y-86556835D01*
X92726230Y-86530925D01*
X92722311Y-86504505D01*
X92721000Y-86477827D01*
X92721000Y-85770173D01*
X92722311Y-85743495D01*
X92726230Y-85717075D01*
X92732720Y-85691165D01*
X92741718Y-85666017D01*
X92753138Y-85641872D01*
X92766869Y-85618962D01*
X92782780Y-85597508D01*
X92800718Y-85577718D01*
X92820508Y-85559780D01*
X92841962Y-85543869D01*
X92864872Y-85530138D01*
X92889017Y-85518718D01*
X92914165Y-85509720D01*
X92940075Y-85503230D01*
X92966495Y-85499311D01*
X92993173Y-85498000D01*
X93950827Y-85498000D01*
X93977505Y-85499311D01*
G37*
G36*
X93977505Y-88021311D02*
G01*
X94003925Y-88025230D01*
X94029835Y-88031720D01*
X94054983Y-88040718D01*
X94079128Y-88052138D01*
X94102038Y-88065869D01*
X94123492Y-88081780D01*
X94143282Y-88099718D01*
X94161220Y-88119508D01*
X94177131Y-88140962D01*
X94190862Y-88163872D01*
X94202282Y-88188017D01*
X94211280Y-88213165D01*
X94217770Y-88239075D01*
X94221689Y-88265495D01*
X94223000Y-88292173D01*
X94223000Y-88999827D01*
X94221689Y-89026505D01*
X94217770Y-89052925D01*
X94211280Y-89078835D01*
X94202282Y-89103983D01*
X94190862Y-89128128D01*
X94177131Y-89151038D01*
X94161220Y-89172492D01*
X94143282Y-89192282D01*
X94123492Y-89210220D01*
X94102038Y-89226131D01*
X94079128Y-89239862D01*
X94054983Y-89251282D01*
X94029835Y-89260280D01*
X94003925Y-89266770D01*
X93977505Y-89270689D01*
X93950827Y-89272000D01*
X92993173Y-89272000D01*
X92966495Y-89270689D01*
X92940075Y-89266770D01*
X92914165Y-89260280D01*
X92889017Y-89251282D01*
X92864872Y-89239862D01*
X92841962Y-89226131D01*
X92820508Y-89210220D01*
X92800718Y-89192282D01*
X92782780Y-89172492D01*
X92766869Y-89151038D01*
X92753138Y-89128128D01*
X92741718Y-89103983D01*
X92732720Y-89078835D01*
X92726230Y-89052925D01*
X92722311Y-89026505D01*
X92721000Y-88999827D01*
X92721000Y-88292173D01*
X92722311Y-88265495D01*
X92726230Y-88239075D01*
X92732720Y-88213165D01*
X92741718Y-88188017D01*
X92753138Y-88163872D01*
X92766869Y-88140962D01*
X92782780Y-88119508D01*
X92800718Y-88099718D01*
X92820508Y-88081780D01*
X92841962Y-88065869D01*
X92864872Y-88052138D01*
X92889017Y-88040718D01*
X92914165Y-88031720D01*
X92940075Y-88025230D01*
X92966495Y-88021311D01*
X92993173Y-88020000D01*
X93950827Y-88020000D01*
X93977505Y-88021311D01*
G37*
G36*
X93977505Y-90071311D02*
G01*
X94003925Y-90075230D01*
X94029835Y-90081720D01*
X94054983Y-90090718D01*
X94079128Y-90102138D01*
X94102038Y-90115869D01*
X94123492Y-90131780D01*
X94143282Y-90149718D01*
X94161220Y-90169508D01*
X94177131Y-90190962D01*
X94190862Y-90213872D01*
X94202282Y-90238017D01*
X94211280Y-90263165D01*
X94217770Y-90289075D01*
X94221689Y-90315495D01*
X94223000Y-90342173D01*
X94223000Y-91049827D01*
X94221689Y-91076505D01*
X94217770Y-91102925D01*
X94211280Y-91128835D01*
X94202282Y-91153983D01*
X94190862Y-91178128D01*
X94177131Y-91201038D01*
X94161220Y-91222492D01*
X94143282Y-91242282D01*
X94123492Y-91260220D01*
X94102038Y-91276131D01*
X94079128Y-91289862D01*
X94054983Y-91301282D01*
X94029835Y-91310280D01*
X94003925Y-91316770D01*
X93977505Y-91320689D01*
X93950827Y-91322000D01*
X92993173Y-91322000D01*
X92966495Y-91320689D01*
X92940075Y-91316770D01*
X92914165Y-91310280D01*
X92889017Y-91301282D01*
X92864872Y-91289862D01*
X92841962Y-91276131D01*
X92820508Y-91260220D01*
X92800718Y-91242282D01*
X92782780Y-91222492D01*
X92766869Y-91201038D01*
X92753138Y-91178128D01*
X92741718Y-91153983D01*
X92732720Y-91128835D01*
X92726230Y-91102925D01*
X92722311Y-91076505D01*
X92721000Y-91049827D01*
X92721000Y-90342173D01*
X92722311Y-90315495D01*
X92726230Y-90289075D01*
X92732720Y-90263165D01*
X92741718Y-90238017D01*
X92753138Y-90213872D01*
X92766869Y-90190962D01*
X92782780Y-90169508D01*
X92800718Y-90149718D01*
X92820508Y-90131780D01*
X92841962Y-90115869D01*
X92864872Y-90102138D01*
X92889017Y-90090718D01*
X92914165Y-90081720D01*
X92940075Y-90075230D01*
X92966495Y-90071311D01*
X92993173Y-90070000D01*
X93950827Y-90070000D01*
X93977505Y-90071311D01*
G37*
D22*
X121920000Y-92376000D03*
D23*
X121920000Y-87376000D03*
D15*
X116840000Y-81026000D03*
X119380000Y-81026000D03*
X121920000Y-81026000D03*
D16*
X124460000Y-81026000D03*
D15*
X107442000Y-102616000D03*
X109982000Y-102616000D03*
D16*
X112522000Y-102616000D03*
D11*
G36*
X85461505Y-95770311D02*
G01*
X85487925Y-95774230D01*
X85513835Y-95780720D01*
X85538983Y-95789718D01*
X85563128Y-95801138D01*
X85586038Y-95814869D01*
X85607492Y-95830780D01*
X85627282Y-95848718D01*
X85645220Y-95868508D01*
X85661131Y-95889962D01*
X85674862Y-95912872D01*
X85686282Y-95937017D01*
X85695280Y-95962165D01*
X85701770Y-95988075D01*
X85705689Y-96014495D01*
X85707000Y-96041173D01*
X85707000Y-96998827D01*
X85705689Y-97025505D01*
X85701770Y-97051925D01*
X85695280Y-97077835D01*
X85686282Y-97102983D01*
X85674862Y-97127128D01*
X85661131Y-97150038D01*
X85645220Y-97171492D01*
X85627282Y-97191282D01*
X85607492Y-97209220D01*
X85586038Y-97225131D01*
X85563128Y-97238862D01*
X85538983Y-97250282D01*
X85513835Y-97259280D01*
X85487925Y-97265770D01*
X85461505Y-97269689D01*
X85434827Y-97271000D01*
X84727173Y-97271000D01*
X84700495Y-97269689D01*
X84674075Y-97265770D01*
X84648165Y-97259280D01*
X84623017Y-97250282D01*
X84598872Y-97238862D01*
X84575962Y-97225131D01*
X84554508Y-97209220D01*
X84534718Y-97191282D01*
X84516780Y-97171492D01*
X84500869Y-97150038D01*
X84487138Y-97127128D01*
X84475718Y-97102983D01*
X84466720Y-97077835D01*
X84460230Y-97051925D01*
X84456311Y-97025505D01*
X84455000Y-96998827D01*
X84455000Y-96041173D01*
X84456311Y-96014495D01*
X84460230Y-95988075D01*
X84466720Y-95962165D01*
X84475718Y-95937017D01*
X84487138Y-95912872D01*
X84500869Y-95889962D01*
X84516780Y-95868508D01*
X84534718Y-95848718D01*
X84554508Y-95830780D01*
X84575962Y-95814869D01*
X84598872Y-95801138D01*
X84623017Y-95789718D01*
X84648165Y-95780720D01*
X84674075Y-95774230D01*
X84700495Y-95770311D01*
X84727173Y-95769000D01*
X85434827Y-95769000D01*
X85461505Y-95770311D01*
G37*
G36*
X87511505Y-95770311D02*
G01*
X87537925Y-95774230D01*
X87563835Y-95780720D01*
X87588983Y-95789718D01*
X87613128Y-95801138D01*
X87636038Y-95814869D01*
X87657492Y-95830780D01*
X87677282Y-95848718D01*
X87695220Y-95868508D01*
X87711131Y-95889962D01*
X87724862Y-95912872D01*
X87736282Y-95937017D01*
X87745280Y-95962165D01*
X87751770Y-95988075D01*
X87755689Y-96014495D01*
X87757000Y-96041173D01*
X87757000Y-96998827D01*
X87755689Y-97025505D01*
X87751770Y-97051925D01*
X87745280Y-97077835D01*
X87736282Y-97102983D01*
X87724862Y-97127128D01*
X87711131Y-97150038D01*
X87695220Y-97171492D01*
X87677282Y-97191282D01*
X87657492Y-97209220D01*
X87636038Y-97225131D01*
X87613128Y-97238862D01*
X87588983Y-97250282D01*
X87563835Y-97259280D01*
X87537925Y-97265770D01*
X87511505Y-97269689D01*
X87484827Y-97271000D01*
X86777173Y-97271000D01*
X86750495Y-97269689D01*
X86724075Y-97265770D01*
X86698165Y-97259280D01*
X86673017Y-97250282D01*
X86648872Y-97238862D01*
X86625962Y-97225131D01*
X86604508Y-97209220D01*
X86584718Y-97191282D01*
X86566780Y-97171492D01*
X86550869Y-97150038D01*
X86537138Y-97127128D01*
X86525718Y-97102983D01*
X86516720Y-97077835D01*
X86510230Y-97051925D01*
X86506311Y-97025505D01*
X86505000Y-96998827D01*
X86505000Y-96041173D01*
X86506311Y-96014495D01*
X86510230Y-95988075D01*
X86516720Y-95962165D01*
X86525718Y-95937017D01*
X86537138Y-95912872D01*
X86550869Y-95889962D01*
X86566780Y-95868508D01*
X86584718Y-95848718D01*
X86604508Y-95830780D01*
X86625962Y-95814869D01*
X86648872Y-95801138D01*
X86673017Y-95789718D01*
X86698165Y-95780720D01*
X86724075Y-95774230D01*
X86750495Y-95770311D01*
X86777173Y-95769000D01*
X87484827Y-95769000D01*
X87511505Y-95770311D01*
G37*
G36*
X92319505Y-96024311D02*
G01*
X92345925Y-96028230D01*
X92371835Y-96034720D01*
X92396983Y-96043718D01*
X92421128Y-96055138D01*
X92444038Y-96068869D01*
X92465492Y-96084780D01*
X92485282Y-96102718D01*
X92503220Y-96122508D01*
X92519131Y-96143962D01*
X92532862Y-96166872D01*
X92544282Y-96191017D01*
X92553280Y-96216165D01*
X92559770Y-96242075D01*
X92563689Y-96268495D01*
X92565000Y-96295173D01*
X92565000Y-97252827D01*
X92563689Y-97279505D01*
X92559770Y-97305925D01*
X92553280Y-97331835D01*
X92544282Y-97356983D01*
X92532862Y-97381128D01*
X92519131Y-97404038D01*
X92503220Y-97425492D01*
X92485282Y-97445282D01*
X92465492Y-97463220D01*
X92444038Y-97479131D01*
X92421128Y-97492862D01*
X92396983Y-97504282D01*
X92371835Y-97513280D01*
X92345925Y-97519770D01*
X92319505Y-97523689D01*
X92292827Y-97525000D01*
X91585173Y-97525000D01*
X91558495Y-97523689D01*
X91532075Y-97519770D01*
X91506165Y-97513280D01*
X91481017Y-97504282D01*
X91456872Y-97492862D01*
X91433962Y-97479131D01*
X91412508Y-97463220D01*
X91392718Y-97445282D01*
X91374780Y-97425492D01*
X91358869Y-97404038D01*
X91345138Y-97381128D01*
X91333718Y-97356983D01*
X91324720Y-97331835D01*
X91318230Y-97305925D01*
X91314311Y-97279505D01*
X91313000Y-97252827D01*
X91313000Y-96295173D01*
X91314311Y-96268495D01*
X91318230Y-96242075D01*
X91324720Y-96216165D01*
X91333718Y-96191017D01*
X91345138Y-96166872D01*
X91358869Y-96143962D01*
X91374780Y-96122508D01*
X91392718Y-96102718D01*
X91412508Y-96084780D01*
X91433962Y-96068869D01*
X91456872Y-96055138D01*
X91481017Y-96043718D01*
X91506165Y-96034720D01*
X91532075Y-96028230D01*
X91558495Y-96024311D01*
X91585173Y-96023000D01*
X92292827Y-96023000D01*
X92319505Y-96024311D01*
G37*
G36*
X94369505Y-96024311D02*
G01*
X94395925Y-96028230D01*
X94421835Y-96034720D01*
X94446983Y-96043718D01*
X94471128Y-96055138D01*
X94494038Y-96068869D01*
X94515492Y-96084780D01*
X94535282Y-96102718D01*
X94553220Y-96122508D01*
X94569131Y-96143962D01*
X94582862Y-96166872D01*
X94594282Y-96191017D01*
X94603280Y-96216165D01*
X94609770Y-96242075D01*
X94613689Y-96268495D01*
X94615000Y-96295173D01*
X94615000Y-97252827D01*
X94613689Y-97279505D01*
X94609770Y-97305925D01*
X94603280Y-97331835D01*
X94594282Y-97356983D01*
X94582862Y-97381128D01*
X94569131Y-97404038D01*
X94553220Y-97425492D01*
X94535282Y-97445282D01*
X94515492Y-97463220D01*
X94494038Y-97479131D01*
X94471128Y-97492862D01*
X94446983Y-97504282D01*
X94421835Y-97513280D01*
X94395925Y-97519770D01*
X94369505Y-97523689D01*
X94342827Y-97525000D01*
X93635173Y-97525000D01*
X93608495Y-97523689D01*
X93582075Y-97519770D01*
X93556165Y-97513280D01*
X93531017Y-97504282D01*
X93506872Y-97492862D01*
X93483962Y-97479131D01*
X93462508Y-97463220D01*
X93442718Y-97445282D01*
X93424780Y-97425492D01*
X93408869Y-97404038D01*
X93395138Y-97381128D01*
X93383718Y-97356983D01*
X93374720Y-97331835D01*
X93368230Y-97305925D01*
X93364311Y-97279505D01*
X93363000Y-97252827D01*
X93363000Y-96295173D01*
X93364311Y-96268495D01*
X93368230Y-96242075D01*
X93374720Y-96216165D01*
X93383718Y-96191017D01*
X93395138Y-96166872D01*
X93408869Y-96143962D01*
X93424780Y-96122508D01*
X93442718Y-96102718D01*
X93462508Y-96084780D01*
X93483962Y-96068869D01*
X93506872Y-96055138D01*
X93531017Y-96043718D01*
X93556165Y-96034720D01*
X93582075Y-96028230D01*
X93608495Y-96024311D01*
X93635173Y-96023000D01*
X94342827Y-96023000D01*
X94369505Y-96024311D01*
G37*
M02*
