G04 #@! TF.GenerationSoftware,KiCad,Pcbnew,(5.1.10)-1*
G04 #@! TF.CreationDate,2021-09-16T22:40:54-04:00*
G04 #@! TF.ProjectId,ESP_Switch,4553505f-5377-4697-9463-682e6b696361,v1.2*
G04 #@! TF.SameCoordinates,Original*
G04 #@! TF.FileFunction,Paste,Top*
G04 #@! TF.FilePolarity,Positive*
%FSLAX46Y46*%
G04 Gerber Fmt 4.6, Leading zero omitted, Abs format (unit mm)*
G04 Created by KiCad (PCBNEW (5.1.10)-1) date 2021-09-16 22:40:54*
%MOMM*%
%LPD*%
G01*
G04 APERTURE LIST*
%ADD10R,2.000000X1.500000*%
%ADD11R,2.000000X3.800000*%
%ADD12R,2.500000X1.000000*%
%ADD13R,1.000000X1.800000*%
G04 APERTURE END LIST*
G36*
G01*
X92085000Y-103391000D02*
X93335000Y-103391000D01*
G75*
G02*
X93585000Y-103641000I0J-250000D01*
G01*
X93585000Y-104566000D01*
G75*
G02*
X93335000Y-104816000I-250000J0D01*
G01*
X92085000Y-104816000D01*
G75*
G02*
X91835000Y-104566000I0J250000D01*
G01*
X91835000Y-103641000D01*
G75*
G02*
X92085000Y-103391000I250000J0D01*
G01*
G37*
G36*
G01*
X92085000Y-100416000D02*
X93335000Y-100416000D01*
G75*
G02*
X93585000Y-100666000I0J-250000D01*
G01*
X93585000Y-101591000D01*
G75*
G02*
X93335000Y-101841000I-250000J0D01*
G01*
X92085000Y-101841000D01*
G75*
G02*
X91835000Y-101591000I0J250000D01*
G01*
X91835000Y-100666000D01*
G75*
G02*
X92085000Y-100416000I250000J0D01*
G01*
G37*
D10*
X88748000Y-103900000D03*
X88748000Y-99300000D03*
X88748000Y-101600000D03*
D11*
X82448000Y-101600000D03*
D12*
X96540000Y-84130000D03*
X96540000Y-86130000D03*
X96540000Y-88130000D03*
X96540000Y-90130000D03*
X96540000Y-92130000D03*
X96540000Y-94130000D03*
X96540000Y-96130000D03*
X96540000Y-98130000D03*
D13*
X99140000Y-99630000D03*
X101140000Y-99630000D03*
X103140000Y-99630000D03*
X105140000Y-99630000D03*
X107140000Y-99630000D03*
X109140000Y-99630000D03*
D12*
X111740000Y-98130000D03*
X111740000Y-96130000D03*
X111740000Y-94130000D03*
X111740000Y-92130000D03*
X111740000Y-90130000D03*
X111740000Y-88130000D03*
X111740000Y-86130000D03*
X111740000Y-84130000D03*
G36*
G01*
X115766001Y-86418000D02*
X114865999Y-86418000D01*
G75*
G02*
X114616000Y-86168001I0J249999D01*
G01*
X114616000Y-85517999D01*
G75*
G02*
X114865999Y-85268000I249999J0D01*
G01*
X115766001Y-85268000D01*
G75*
G02*
X116016000Y-85517999I0J-249999D01*
G01*
X116016000Y-86168001D01*
G75*
G02*
X115766001Y-86418000I-249999J0D01*
G01*
G37*
G36*
G01*
X115766001Y-88468000D02*
X114865999Y-88468000D01*
G75*
G02*
X114616000Y-88218001I0J249999D01*
G01*
X114616000Y-87567999D01*
G75*
G02*
X114865999Y-87318000I249999J0D01*
G01*
X115766001Y-87318000D01*
G75*
G02*
X116016000Y-87567999I0J-249999D01*
G01*
X116016000Y-88218001D01*
G75*
G02*
X115766001Y-88468000I-249999J0D01*
G01*
G37*
G36*
G01*
X114865999Y-91636000D02*
X115766001Y-91636000D01*
G75*
G02*
X116016000Y-91885999I0J-249999D01*
G01*
X116016000Y-92536001D01*
G75*
G02*
X115766001Y-92786000I-249999J0D01*
G01*
X114865999Y-92786000D01*
G75*
G02*
X114616000Y-92536001I0J249999D01*
G01*
X114616000Y-91885999D01*
G75*
G02*
X114865999Y-91636000I249999J0D01*
G01*
G37*
G36*
G01*
X114865999Y-89586000D02*
X115766001Y-89586000D01*
G75*
G02*
X116016000Y-89835999I0J-249999D01*
G01*
X116016000Y-90486001D01*
G75*
G02*
X115766001Y-90736000I-249999J0D01*
G01*
X114865999Y-90736000D01*
G75*
G02*
X114616000Y-90486001I0J249999D01*
G01*
X114616000Y-89835999D01*
G75*
G02*
X114865999Y-89586000I249999J0D01*
G01*
G37*
G36*
G01*
X114865999Y-99773000D02*
X115766001Y-99773000D01*
G75*
G02*
X116016000Y-100022999I0J-249999D01*
G01*
X116016000Y-100673001D01*
G75*
G02*
X115766001Y-100923000I-249999J0D01*
G01*
X114865999Y-100923000D01*
G75*
G02*
X114616000Y-100673001I0J249999D01*
G01*
X114616000Y-100022999D01*
G75*
G02*
X114865999Y-99773000I249999J0D01*
G01*
G37*
G36*
G01*
X114865999Y-97723000D02*
X115766001Y-97723000D01*
G75*
G02*
X116016000Y-97972999I0J-249999D01*
G01*
X116016000Y-98623001D01*
G75*
G02*
X115766001Y-98873000I-249999J0D01*
G01*
X114865999Y-98873000D01*
G75*
G02*
X114616000Y-98623001I0J249999D01*
G01*
X114616000Y-97972999D01*
G75*
G02*
X114865999Y-97723000I249999J0D01*
G01*
G37*
G36*
G01*
X115766001Y-94800000D02*
X114865999Y-94800000D01*
G75*
G02*
X114616000Y-94550001I0J249999D01*
G01*
X114616000Y-93899999D01*
G75*
G02*
X114865999Y-93650000I249999J0D01*
G01*
X115766001Y-93650000D01*
G75*
G02*
X116016000Y-93899999I0J-249999D01*
G01*
X116016000Y-94550001D01*
G75*
G02*
X115766001Y-94800000I-249999J0D01*
G01*
G37*
G36*
G01*
X115766001Y-96850000D02*
X114865999Y-96850000D01*
G75*
G02*
X114616000Y-96600001I0J249999D01*
G01*
X114616000Y-95949999D01*
G75*
G02*
X114865999Y-95700000I249999J0D01*
G01*
X115766001Y-95700000D01*
G75*
G02*
X116016000Y-95949999I0J-249999D01*
G01*
X116016000Y-96600001D01*
G75*
G02*
X115766001Y-96850000I-249999J0D01*
G01*
G37*
G36*
G01*
X93922001Y-84649000D02*
X93021999Y-84649000D01*
G75*
G02*
X92772000Y-84399001I0J249999D01*
G01*
X92772000Y-83748999D01*
G75*
G02*
X93021999Y-83499000I249999J0D01*
G01*
X93922001Y-83499000D01*
G75*
G02*
X94172000Y-83748999I0J-249999D01*
G01*
X94172000Y-84399001D01*
G75*
G02*
X93922001Y-84649000I-249999J0D01*
G01*
G37*
G36*
G01*
X93922001Y-86699000D02*
X93021999Y-86699000D01*
G75*
G02*
X92772000Y-86449001I0J249999D01*
G01*
X92772000Y-85798999D01*
G75*
G02*
X93021999Y-85549000I249999J0D01*
G01*
X93922001Y-85549000D01*
G75*
G02*
X94172000Y-85798999I0J-249999D01*
G01*
X94172000Y-86449001D01*
G75*
G02*
X93922001Y-86699000I-249999J0D01*
G01*
G37*
G36*
G01*
X93922001Y-89221000D02*
X93021999Y-89221000D01*
G75*
G02*
X92772000Y-88971001I0J249999D01*
G01*
X92772000Y-88320999D01*
G75*
G02*
X93021999Y-88071000I249999J0D01*
G01*
X93922001Y-88071000D01*
G75*
G02*
X94172000Y-88320999I0J-249999D01*
G01*
X94172000Y-88971001D01*
G75*
G02*
X93922001Y-89221000I-249999J0D01*
G01*
G37*
G36*
G01*
X93922001Y-91271000D02*
X93021999Y-91271000D01*
G75*
G02*
X92772000Y-91021001I0J249999D01*
G01*
X92772000Y-90370999D01*
G75*
G02*
X93021999Y-90121000I249999J0D01*
G01*
X93922001Y-90121000D01*
G75*
G02*
X94172000Y-90370999I0J-249999D01*
G01*
X94172000Y-91021001D01*
G75*
G02*
X93922001Y-91271000I-249999J0D01*
G01*
G37*
G36*
G01*
X85656000Y-96069999D02*
X85656000Y-96970001D01*
G75*
G02*
X85406001Y-97220000I-249999J0D01*
G01*
X84755999Y-97220000D01*
G75*
G02*
X84506000Y-96970001I0J249999D01*
G01*
X84506000Y-96069999D01*
G75*
G02*
X84755999Y-95820000I249999J0D01*
G01*
X85406001Y-95820000D01*
G75*
G02*
X85656000Y-96069999I0J-249999D01*
G01*
G37*
G36*
G01*
X87706000Y-96069999D02*
X87706000Y-96970001D01*
G75*
G02*
X87456001Y-97220000I-249999J0D01*
G01*
X86805999Y-97220000D01*
G75*
G02*
X86556000Y-96970001I0J249999D01*
G01*
X86556000Y-96069999D01*
G75*
G02*
X86805999Y-95820000I249999J0D01*
G01*
X87456001Y-95820000D01*
G75*
G02*
X87706000Y-96069999I0J-249999D01*
G01*
G37*
G36*
G01*
X92514000Y-96323999D02*
X92514000Y-97224001D01*
G75*
G02*
X92264001Y-97474000I-249999J0D01*
G01*
X91613999Y-97474000D01*
G75*
G02*
X91364000Y-97224001I0J249999D01*
G01*
X91364000Y-96323999D01*
G75*
G02*
X91613999Y-96074000I249999J0D01*
G01*
X92264001Y-96074000D01*
G75*
G02*
X92514000Y-96323999I0J-249999D01*
G01*
G37*
G36*
G01*
X94564000Y-96323999D02*
X94564000Y-97224001D01*
G75*
G02*
X94314001Y-97474000I-249999J0D01*
G01*
X93663999Y-97474000D01*
G75*
G02*
X93414000Y-97224001I0J249999D01*
G01*
X93414000Y-96323999D01*
G75*
G02*
X93663999Y-96074000I249999J0D01*
G01*
X94314001Y-96074000D01*
G75*
G02*
X94564000Y-96323999I0J-249999D01*
G01*
G37*
M02*
