M48
; DRILL file {KiCad 7.0.7} date Fri Feb  2 19:15:28 2024
; FORMAT={-:-/ absolute / inch / decimal}
; #@! TF.CreationDate,2024-02-02T19:15:28-05:00
; #@! TF.GenerationSoftware,Kicad,Pcbnew,7.0.7
; #@! TF.FileFunction,Plated,1,2,PTH
FMAT,2
INCH
; #@! TA.AperFunction,Plated,PTH,ViaDrill
T1C0.0157
; #@! TA.AperFunction,Plated,PTH,ComponentDrill
T2C0.0394
; #@! TA.AperFunction,Plated,PTH,ComponentDrill
T3C0.0472
%
G90
G05
T1
X4.3504Y-3.3071
X4.3504Y-3.3465
X4.3504Y-3.3858
X4.3504Y-3.4252
X4.3504Y-3.4646
X4.3504Y-3.5236
X4.3504Y-3.563
X4.3504Y-3.6024
X4.3504Y-3.6417
X4.3504Y-3.6811
X4.3898Y-3.3071
X4.3898Y-3.4252
X4.3898Y-3.4646
X4.3898Y-3.5236
X4.3898Y-3.563
X4.3898Y-3.6811
X4.4016Y-3.0354
X4.4016Y-3.1299
X4.4291Y-3.3071
X4.4291Y-3.4252
X4.4291Y-3.4646
X4.4291Y-3.5236
X4.4291Y-3.563
X4.4291Y-3.6811
X4.4409Y-2.9685
X4.4685Y-3.3071
X4.4685Y-3.4252
X4.4685Y-3.4646
X4.4685Y-3.5236
X4.4685Y-3.563
X4.4685Y-3.6811
X4.5079Y-3.3071
X4.5079Y-3.4252
X4.5079Y-3.4646
X4.5079Y-3.5236
X4.5079Y-3.563
X4.5079Y-3.6811
X4.5315Y-3.7559
X4.5472Y-3.3071
X4.5472Y-3.3465
X4.5472Y-3.3858
X4.5472Y-3.4252
X4.5472Y-3.4646
X4.5472Y-3.5236
X4.5472Y-3.563
X4.5472Y-3.6024
X4.5472Y-3.6417
X4.5472Y-3.6811
X4.5866Y-3.8622
X4.626Y-3.5866
X4.6614Y-3.0591
X4.6693Y-3.5827
X4.689Y-3.122
X4.7008Y-3.0551
X4.7126Y-3.4213
X4.7205Y-3.5
X4.7244Y-3.5748
X4.7677Y-3.5787
X4.7756Y-2.9331
X4.8031Y-3.6102
X4.8071Y-3.126
X4.8071Y-3.2874
X4.811Y-3.6575
X4.811Y-3.6969
X4.8543Y-3.6969
X4.8937Y-3.0512
X4.8976Y-3.6969
X4.9528Y-3.2874
X4.9646Y-3.5866
X4.9685Y-3.6299
X5.063Y-3.4961
X5.122Y-3.5276
X5.122Y-3.5787
X5.1496Y-3.685
X5.1693Y-3.5748
X5.2283Y-3.685
X5.315Y-3.2047
X5.3228Y-3.685
X5.3425Y-3.6299
X5.3976Y-3.748
X5.4055Y-3.1929
X5.4094Y-3.0551
X5.4134Y-3.1181
X5.4528Y-3.5315
X5.4567Y-3.4134
X5.4606Y-3.685
X5.5Y-3.2835
X5.5276Y-3.685
X5.5591Y-3.0945
X5.6063Y-3.7598
T2
X5.2559Y-3.2835
X5.2559Y-3.3819
X5.2559Y-3.4843
X5.2559Y-3.5827
X5.4654Y-2.9746
X5.4654Y-3.8746
X5.5654Y-2.9746
X5.5654Y-3.8746
X5.6654Y-2.9746
X5.6654Y-3.8746
X5.7654Y-2.9746
X5.7654Y-3.8746
X5.8654Y-2.9746
X5.8654Y-3.8746
X5.9654Y-2.9746
X5.9654Y-3.8746
X6.0654Y-2.9746
X6.0654Y-3.8746
X6.1654Y-2.9746
X6.1654Y-3.8746
T3
X4.1479Y-3.2024
X4.1479Y-3.6265
X4.1479Y-3.7765
T3
G00X4.1479Y-3.0533
M15
G01X4.1479Y-3.0632
M16
G05
G00X4.1479Y-3.3415
M15
G01X4.1479Y-3.3514
M16
G05
T0
M30
