%TF.GenerationSoftware,KiCad,Pcbnew,7.0.7*%
%TF.CreationDate,2023-11-08T00:56:30-05:00*%
%TF.ProjectId,Expansion_Buffer,45787061-6e73-4696-9f6e-5f4275666665,v1*%
%TF.SameCoordinates,Original*%
%TF.FileFunction,Copper,L1,Top*%
%TF.FilePolarity,Positive*%
%FSLAX46Y46*%
G04 Gerber Fmt 4.6, Leading zero omitted, Abs format (unit mm)*
G04 Created by KiCad (PCBNEW 7.0.7) date 2023-11-08 00:56:30*
%MOMM*%
%LPD*%
G01*
G04 APERTURE LIST*
G04 Aperture macros list*
%AMRoundRect*
0 Rectangle with rounded corners*
0 $1 Rounding radius*
0 $2 $3 $4 $5 $6 $7 $8 $9 X,Y pos of 4 corners*
0 Add a 4 corners polygon primitive as box body*
4,1,4,$2,$3,$4,$5,$6,$7,$8,$9,$2,$3,0*
0 Add four circle primitives for the rounded corners*
1,1,$1+$1,$2,$3*
1,1,$1+$1,$4,$5*
1,1,$1+$1,$6,$7*
1,1,$1+$1,$8,$9*
0 Add four rect primitives between the rounded corners*
20,1,$1+$1,$2,$3,$4,$5,0*
20,1,$1+$1,$4,$5,$6,$7,0*
20,1,$1+$1,$6,$7,$8,$9,0*
20,1,$1+$1,$8,$9,$2,$3,0*%
G04 Aperture macros list end*
%TA.AperFunction,ComponentPad*%
%ADD10RoundRect,0.250000X-0.600000X-0.600000X0.600000X-0.600000X0.600000X0.600000X-0.600000X0.600000X0*%
%TD*%
%TA.AperFunction,ComponentPad*%
%ADD11C,1.700000*%
%TD*%
%TA.AperFunction,SMDPad,CuDef*%
%ADD12RoundRect,0.250000X0.350000X0.450000X-0.350000X0.450000X-0.350000X-0.450000X0.350000X-0.450000X0*%
%TD*%
%TA.AperFunction,SMDPad,CuDef*%
%ADD13RoundRect,0.250000X-0.350000X-0.450000X0.350000X-0.450000X0.350000X0.450000X-0.350000X0.450000X0*%
%TD*%
%TA.AperFunction,ComponentPad*%
%ADD14R,1.700000X1.700000*%
%TD*%
%TA.AperFunction,ComponentPad*%
%ADD15O,1.700000X1.700000*%
%TD*%
%TA.AperFunction,Conductor*%
%ADD16C,1.000000*%
%TD*%
%TA.AperFunction,Conductor*%
%ADD17C,0.350000*%
%TD*%
G04 APERTURE END LIST*
D10*
%TO.P,J2,1,Pin_1*%
%TO.N,unconnected-(J2-Pin_1-Pad1)*%
X96800000Y-72620000D03*
D11*
%TO.P,J2,2,Pin_2*%
%TO.N,+5V*%
X99340000Y-72620000D03*
%TO.P,J2,3,Pin_3*%
%TO.N,GND*%
X96800000Y-75160000D03*
%TO.P,J2,4,Pin_4*%
%TO.N,+5V*%
X99340000Y-75160000D03*
%TO.P,J2,5,Pin_5*%
%TO.N,CLK_V3*%
X96800000Y-77700000D03*
%TO.P,J2,6,Pin_6*%
%TO.N,IN1*%
X99340000Y-77700000D03*
%TO.P,J2,7,Pin_7*%
%TO.N,CLK_V3*%
X96800000Y-80240000D03*
%TO.P,J2,8,Pin_8*%
%TO.N,IN2*%
X99340000Y-80240000D03*
%TO.P,J2,9,Pin_9*%
%TO.N,CLK_V3*%
X96800000Y-82780000D03*
%TO.P,J2,10,Pin_10*%
%TO.N,IN3*%
X99340000Y-82780000D03*
%TO.P,J2,11,Pin_11*%
%TO.N,CLK_V3*%
X96800000Y-85320000D03*
%TO.P,J2,12,Pin_12*%
%TO.N,IN4*%
X99340000Y-85320000D03*
%TO.P,J2,13,Pin_13*%
%TO.N,CLK_V3*%
X96800000Y-87860000D03*
%TO.P,J2,14,Pin_14*%
%TO.N,IN5*%
X99340000Y-87860000D03*
%TO.P,J2,15,Pin_15*%
%TO.N,CLK_V3*%
X96800000Y-90400000D03*
%TO.P,J2,16,Pin_16*%
%TO.N,IN6*%
X99340000Y-90400000D03*
%TO.P,J2,17,Pin_17*%
%TO.N,CLK_V3*%
X96800000Y-92940000D03*
%TO.P,J2,18,Pin_18*%
%TO.N,IN7*%
X99340000Y-92940000D03*
%TO.P,J2,19,Pin_19*%
%TO.N,CLK_V3*%
X96800000Y-95480000D03*
%TO.P,J2,20,Pin_20*%
%TO.N,IN8*%
X99340000Y-95480000D03*
%TO.P,J2,21,Pin_21*%
%TO.N,CLK_V3*%
X96800000Y-98020000D03*
%TO.P,J2,22,Pin_22*%
%TO.N,IN9*%
X99340000Y-98020000D03*
%TO.P,J2,23,Pin_23*%
%TO.N,CLK_V3*%
X96800000Y-100560000D03*
%TO.P,J2,24,Pin_24*%
%TO.N,IN10*%
X99340000Y-100560000D03*
%TO.P,J2,25,Pin_25*%
%TO.N,CLK_V3*%
X96800000Y-103100000D03*
%TO.P,J2,26,Pin_26*%
%TO.N,IN11*%
X99340000Y-103100000D03*
%TO.P,J2,27,Pin_27*%
%TO.N,CLK_V3*%
X96800000Y-105640000D03*
%TO.P,J2,28,Pin_28*%
%TO.N,IN12*%
X99340000Y-105640000D03*
%TO.P,J2,29,Pin_29*%
%TO.N,CLK_V3*%
X96800000Y-108180000D03*
%TO.P,J2,30,Pin_30*%
X99340000Y-108180000D03*
%TO.P,J2,31,Pin_31*%
%TO.N,IN13*%
X96800000Y-110720000D03*
%TO.P,J2,32,Pin_32*%
%TO.N,IN14*%
X99340000Y-110720000D03*
%TO.P,J2,33,Pin_33*%
%TO.N,CLK_V3*%
X96800000Y-113260000D03*
%TO.P,J2,34,Pin_34*%
%TO.N,IN15*%
X99340000Y-113260000D03*
%TO.P,J2,35,Pin_35*%
%TO.N,CLK_V3*%
X96800000Y-115800000D03*
%TO.P,J2,36,Pin_36*%
%TO.N,IN16*%
X99340000Y-115800000D03*
%TO.P,J2,37,Pin_37*%
%TO.N,GND*%
X96800000Y-118340000D03*
%TO.P,J2,38,Pin_38*%
X99340000Y-118340000D03*
%TO.P,J2,39,Pin_39*%
%TO.N,+5V*%
X96800000Y-120880000D03*
%TO.P,J2,40,Pin_40*%
X99340000Y-120880000D03*
%TD*%
D12*
%TO.P,R11,1*%
%TO.N,OUT11*%
X106000000Y-103100000D03*
%TO.P,R11,2*%
%TO.N,IN11*%
X104000000Y-103100000D03*
%TD*%
%TO.P,R15,1*%
%TO.N,OUT15*%
X106000000Y-113300000D03*
%TO.P,R15,2*%
%TO.N,IN15*%
X104000000Y-113300000D03*
%TD*%
%TO.P,R9,1*%
%TO.N,OUT9*%
X106000000Y-98000000D03*
%TO.P,R9,2*%
%TO.N,IN9*%
X104000000Y-98000000D03*
%TD*%
%TO.P,R10,1*%
%TO.N,OUT10*%
X106000000Y-100600000D03*
%TO.P,R10,2*%
%TO.N,IN10*%
X104000000Y-100600000D03*
%TD*%
%TO.P,R3,1*%
%TO.N,OUT3*%
X106000000Y-82800000D03*
%TO.P,R3,2*%
%TO.N,IN3*%
X104000000Y-82800000D03*
%TD*%
%TO.P,R16,1*%
%TO.N,OUT16*%
X106000000Y-115800000D03*
%TO.P,R16,2*%
%TO.N,IN16*%
X104000000Y-115800000D03*
%TD*%
%TO.P,R4,1*%
%TO.N,OUT4*%
X106000000Y-85300000D03*
%TO.P,R4,2*%
%TO.N,IN4*%
X104000000Y-85300000D03*
%TD*%
%TO.P,R6,1*%
%TO.N,OUT6*%
X106000000Y-90400000D03*
%TO.P,R6,2*%
%TO.N,IN6*%
X104000000Y-90400000D03*
%TD*%
%TO.P,R8,1*%
%TO.N,OUT8*%
X106000000Y-95400000D03*
%TO.P,R8,2*%
%TO.N,IN8*%
X104000000Y-95400000D03*
%TD*%
%TO.P,R7,1*%
%TO.N,OUT7*%
X106000000Y-93000000D03*
%TO.P,R7,2*%
%TO.N,IN7*%
X104000000Y-93000000D03*
%TD*%
%TO.P,R2,1*%
%TO.N,OUT2*%
X106000000Y-80300000D03*
%TO.P,R2,2*%
%TO.N,IN2*%
X104000000Y-80300000D03*
%TD*%
%TO.P,R14,1*%
%TO.N,OUT14*%
X106000000Y-109200000D03*
%TO.P,R14,2*%
%TO.N,IN14*%
X104000000Y-109200000D03*
%TD*%
%TO.P,R1,1*%
%TO.N,OUT1*%
X106000000Y-77700000D03*
%TO.P,R1,2*%
%TO.N,IN1*%
X104000000Y-77700000D03*
%TD*%
D13*
%TO.P,R13,1*%
%TO.N,IN13*%
X104000000Y-111200000D03*
%TO.P,R13,2*%
%TO.N,OUT13*%
X106000000Y-111200000D03*
%TD*%
D12*
%TO.P,R12,1*%
%TO.N,OUT12*%
X106000000Y-105600000D03*
%TO.P,R12,2*%
%TO.N,IN12*%
X104000000Y-105600000D03*
%TD*%
%TO.P,R5,1*%
%TO.N,OUT5*%
X106000000Y-87900000D03*
%TO.P,R5,2*%
%TO.N,IN5*%
X104000000Y-87900000D03*
%TD*%
D14*
%TO.P,J1,1,Pin_1*%
%TO.N,unconnected-(J1-Pin_1-Pad1)*%
X108800000Y-72620000D03*
D15*
%TO.P,J1,2,Pin_2*%
%TO.N,+5V*%
X111340000Y-72620000D03*
%TO.P,J1,3,Pin_3*%
%TO.N,GND*%
X108800000Y-75160000D03*
%TO.P,J1,4,Pin_4*%
%TO.N,+5V*%
X111340000Y-75160000D03*
%TO.P,J1,5,Pin_5*%
%TO.N,CLK_V3*%
X108800000Y-77700000D03*
%TO.P,J1,6,Pin_6*%
%TO.N,OUT1*%
X111340000Y-77700000D03*
%TO.P,J1,7,Pin_7*%
%TO.N,CLK_V3*%
X108800000Y-80240000D03*
%TO.P,J1,8,Pin_8*%
%TO.N,OUT2*%
X111340000Y-80240000D03*
%TO.P,J1,9,Pin_9*%
%TO.N,CLK_V3*%
X108800000Y-82780000D03*
%TO.P,J1,10,Pin_10*%
%TO.N,OUT3*%
X111340000Y-82780000D03*
%TO.P,J1,11,Pin_11*%
%TO.N,CLK_V3*%
X108800000Y-85320000D03*
%TO.P,J1,12,Pin_12*%
%TO.N,OUT4*%
X111340000Y-85320000D03*
%TO.P,J1,13,Pin_13*%
%TO.N,CLK_V3*%
X108800000Y-87860000D03*
%TO.P,J1,14,Pin_14*%
%TO.N,OUT5*%
X111340000Y-87860000D03*
%TO.P,J1,15,Pin_15*%
%TO.N,CLK_V3*%
X108800000Y-90400000D03*
%TO.P,J1,16,Pin_16*%
%TO.N,OUT6*%
X111340000Y-90400000D03*
%TO.P,J1,17,Pin_17*%
%TO.N,CLK_V3*%
X108800000Y-92940000D03*
%TO.P,J1,18,Pin_18*%
%TO.N,OUT7*%
X111340000Y-92940000D03*
%TO.P,J1,19,Pin_19*%
%TO.N,CLK_V3*%
X108800000Y-95480000D03*
%TO.P,J1,20,Pin_20*%
%TO.N,OUT8*%
X111340000Y-95480000D03*
%TO.P,J1,21,Pin_21*%
%TO.N,CLK_V3*%
X108800000Y-98020000D03*
%TO.P,J1,22,Pin_22*%
%TO.N,OUT9*%
X111340000Y-98020000D03*
%TO.P,J1,23,Pin_23*%
%TO.N,CLK_V3*%
X108800000Y-100560000D03*
%TO.P,J1,24,Pin_24*%
%TO.N,OUT10*%
X111340000Y-100560000D03*
%TO.P,J1,25,Pin_25*%
%TO.N,CLK_V3*%
X108800000Y-103100000D03*
%TO.P,J1,26,Pin_26*%
%TO.N,OUT11*%
X111340000Y-103100000D03*
%TO.P,J1,27,Pin_27*%
%TO.N,CLK_V3*%
X108800000Y-105640000D03*
%TO.P,J1,28,Pin_28*%
%TO.N,OUT12*%
X111340000Y-105640000D03*
%TO.P,J1,29,Pin_29*%
%TO.N,CLK_V3*%
X108800000Y-108180000D03*
%TO.P,J1,30,Pin_30*%
X111340000Y-108180000D03*
%TO.P,J1,31,Pin_31*%
%TO.N,OUT13*%
X108800000Y-110720000D03*
%TO.P,J1,32,Pin_32*%
%TO.N,OUT14*%
X111340000Y-110720000D03*
%TO.P,J1,33,Pin_33*%
%TO.N,CLK_V3*%
X108800000Y-113260000D03*
%TO.P,J1,34,Pin_34*%
%TO.N,OUT15*%
X111340000Y-113260000D03*
%TO.P,J1,35,Pin_35*%
%TO.N,CLK_V3*%
X108800000Y-115800000D03*
%TO.P,J1,36,Pin_36*%
%TO.N,OUT16*%
X111340000Y-115800000D03*
%TO.P,J1,37,Pin_37*%
%TO.N,GND*%
X108800000Y-118340000D03*
%TO.P,J1,38,Pin_38*%
X111340000Y-118340000D03*
%TO.P,J1,39,Pin_39*%
%TO.N,+5V*%
X108800000Y-120880000D03*
%TO.P,J1,40,Pin_40*%
X111340000Y-120880000D03*
%TD*%
D16*
%TO.N,+5V*%
X111340000Y-70857919D02*
X111340000Y-72620000D01*
X99340000Y-72620000D02*
X99340000Y-72180000D01*
X113340000Y-118880000D02*
X113340000Y-77160000D01*
X113340000Y-77160000D02*
X111340000Y-75160000D01*
X111340000Y-75160000D02*
X111340000Y-72620000D01*
X111340000Y-120880000D02*
X113340000Y-118880000D01*
X96800000Y-120880000D02*
X111340000Y-120880000D01*
X110082081Y-69600000D02*
X111340000Y-70857919D01*
X99340000Y-75160000D02*
X99340000Y-72620000D01*
X99340000Y-72180000D02*
X101920000Y-69600000D01*
X101920000Y-69600000D02*
X110082081Y-69600000D01*
%TO.N,GND*%
X94340000Y-77620000D02*
X96800000Y-75160000D01*
X111340000Y-118340000D02*
X96800000Y-118340000D01*
X96800000Y-118340000D02*
X94340000Y-115880000D01*
X94340000Y-115880000D02*
X94340000Y-77620000D01*
D17*
%TO.N,CLK_V3*%
X108800000Y-108180000D02*
X111340000Y-108180000D01*
X95575000Y-109405000D02*
X95575000Y-112035000D01*
X107485000Y-117115000D02*
X108800000Y-115800000D01*
X95575000Y-112035000D02*
X96800000Y-113260000D01*
X98115000Y-117115000D02*
X107485000Y-117115000D01*
X96800000Y-77700000D02*
X96800000Y-108180000D01*
X96800000Y-108180000D02*
X95575000Y-109405000D01*
X96800000Y-115800000D02*
X98115000Y-117115000D01*
X96800000Y-113260000D02*
X96800000Y-115800000D01*
X99340000Y-108180000D02*
X96800000Y-108180000D01*
%TO.N,IN1*%
X99340000Y-77700000D02*
X104000000Y-77700000D01*
%TO.N,IN2*%
X99340000Y-80240000D02*
X103940000Y-80240000D01*
X103940000Y-80240000D02*
X104000000Y-80300000D01*
%TO.N,IN3*%
X103980000Y-82780000D02*
X104000000Y-82800000D01*
X99340000Y-82780000D02*
X103980000Y-82780000D01*
%TO.N,IN4*%
X104000000Y-85300000D02*
X103980000Y-85320000D01*
X103980000Y-85320000D02*
X99340000Y-85320000D01*
%TO.N,IN5*%
X99340000Y-87860000D02*
X103960000Y-87860000D01*
X103960000Y-87860000D02*
X104000000Y-87900000D01*
%TO.N,IN6*%
X99340000Y-90400000D02*
X104000000Y-90400000D01*
%TO.N,IN7*%
X103940000Y-92940000D02*
X104000000Y-93000000D01*
X99340000Y-92940000D02*
X103940000Y-92940000D01*
%TO.N,IN8*%
X103920000Y-95480000D02*
X99340000Y-95480000D01*
X104000000Y-95400000D02*
X103920000Y-95480000D01*
%TO.N,IN9*%
X99340000Y-98020000D02*
X103980000Y-98020000D01*
X103980000Y-98020000D02*
X104000000Y-98000000D01*
%TO.N,IN10*%
X104000000Y-100600000D02*
X103960000Y-100560000D01*
X103960000Y-100560000D02*
X99340000Y-100560000D01*
%TO.N,IN11*%
X99340000Y-103100000D02*
X104000000Y-103100000D01*
%TO.N,IN12*%
X104000000Y-105600000D02*
X103960000Y-105640000D01*
X103960000Y-105640000D02*
X99340000Y-105640000D01*
%TO.N,IN13*%
X96800000Y-110720000D02*
X98025000Y-111945000D01*
X98025000Y-111945000D02*
X103255000Y-111945000D01*
X103255000Y-111945000D02*
X104000000Y-111200000D01*
%TO.N,IN14*%
X102480000Y-110720000D02*
X104000000Y-109200000D01*
X99340000Y-110720000D02*
X102480000Y-110720000D01*
%TO.N,OUT1*%
X107225000Y-78925000D02*
X110115000Y-78925000D01*
X106000000Y-77700000D02*
X107225000Y-78925000D01*
X110115000Y-78925000D02*
X111340000Y-77700000D01*
%TO.N,OUT2*%
X107165000Y-81465000D02*
X106000000Y-80300000D01*
X111340000Y-80240000D02*
X110115000Y-81465000D01*
X110115000Y-81465000D02*
X107165000Y-81465000D01*
%TO.N,OUT3*%
X106000000Y-82800000D02*
X107205000Y-84005000D01*
X107205000Y-84005000D02*
X110115000Y-84005000D01*
X110115000Y-84005000D02*
X111340000Y-82780000D01*
%TO.N,OUT4*%
X110115000Y-86545000D02*
X111340000Y-85320000D01*
X107245000Y-86545000D02*
X110115000Y-86545000D01*
X106000000Y-85300000D02*
X107245000Y-86545000D01*
%TO.N,OUT5*%
X107185000Y-89085000D02*
X106000000Y-87900000D01*
X111340000Y-87860000D02*
X110115000Y-89085000D01*
X110115000Y-89085000D02*
X107185000Y-89085000D01*
%TO.N,OUT6*%
X106000000Y-90400000D02*
X107315000Y-91715000D01*
X110025000Y-91715000D02*
X111340000Y-90400000D01*
X107315000Y-91715000D02*
X110025000Y-91715000D01*
%TO.N,OUT7*%
X107165000Y-94165000D02*
X110115000Y-94165000D01*
X106000000Y-93000000D02*
X107165000Y-94165000D01*
X110115000Y-94165000D02*
X111340000Y-92940000D01*
%TO.N,OUT8*%
X110115000Y-96705000D02*
X107330000Y-96705000D01*
X111340000Y-95480000D02*
X110115000Y-96705000D01*
X106025000Y-95400000D02*
X106000000Y-95400000D01*
X107330000Y-96705000D02*
X106025000Y-95400000D01*
%TO.N,OUT9*%
X110115000Y-99245000D02*
X111340000Y-98020000D01*
X106000000Y-98000000D02*
X107245000Y-99245000D01*
X107245000Y-99245000D02*
X110115000Y-99245000D01*
%TO.N,OUT10*%
X107200000Y-101800000D02*
X110100000Y-101800000D01*
X110100000Y-101800000D02*
X111340000Y-100560000D01*
X106000000Y-100600000D02*
X107200000Y-101800000D01*
%TO.N,OUT11*%
X110115000Y-104325000D02*
X107225000Y-104325000D01*
X111340000Y-103100000D02*
X110115000Y-104325000D01*
X107225000Y-104325000D02*
X106000000Y-103100000D01*
%TO.N,OUT12*%
X111340000Y-105640000D02*
X110080000Y-106900000D01*
X110080000Y-106900000D02*
X107200000Y-106900000D01*
X107200000Y-106900000D02*
X106000000Y-105700000D01*
X106000000Y-105700000D02*
X106000000Y-105600000D01*
%TO.N,OUT13*%
X108800000Y-110720000D02*
X108320000Y-111200000D01*
X108320000Y-111200000D02*
X106000000Y-111200000D01*
%TO.N,OUT14*%
X106295000Y-109495000D02*
X106000000Y-109200000D01*
X111340000Y-110720000D02*
X110115000Y-109495000D01*
X110115000Y-109495000D02*
X106295000Y-109495000D01*
%TO.N,OUT15*%
X106000000Y-113300000D02*
X107265000Y-112035000D01*
X107265000Y-112035000D02*
X110115000Y-112035000D01*
X110115000Y-112035000D02*
X111340000Y-113260000D01*
%TO.N,OUT16*%
X111340000Y-115800000D02*
X110040000Y-114500000D01*
X107300000Y-114500000D02*
X106000000Y-115800000D01*
X110040000Y-114500000D02*
X107300000Y-114500000D01*
%TO.N,IN15*%
X99340000Y-113260000D02*
X103960000Y-113260000D01*
X103960000Y-113260000D02*
X104000000Y-113300000D01*
%TO.N,IN16*%
X99340000Y-115800000D02*
X104000000Y-115800000D01*
%TD*%
M02*
